<svg xmlns="http://www.w3.org/2000/svg" width="800" height="421"><g data-name="グループ 2885"><text fill="#fff" font-family="ShipporiMinchoB1-Regular, Shippori Mincho B1" font-size="15" transform="translate(305 42)"><tspan x="0" y="0">平日</tspan></text><text fill="#fff" font-family="ShipporiMinchoB1-Regular, Shippori Mincho B1" font-size="15" transform="translate(467 42)"><tspan x="0" y="0">週末と指定日</tspan></text><text fill="#fff" font-family="ShipporiMinchoB1-Regular, Shippori Mincho B1" font-size="15" transform="translate(659 42)"><tspan x="0" y="0">ハイシーズン</tspan></text><text fill="#fff" font-family="ShipporiMinchoB1-Regular, Shippori Mincho B1" font-size="15" transform="translate(81 112)"><tspan x="0" y="0">素泊まり</tspan></text><text fill="#fff" data-name="8,000円" font-family="ShipporiMinchoB1-Regular, Shippori Mincho B1" font-size="15" transform="translate(295 112)"><tspan x="0" y="0">8,000円</tspan></text><text fill="#fff" data-name="9,000円" font-family="ShipporiMinchoB1-Regular, Shippori Mincho B1" font-size="15" transform="translate(487 112)"><tspan x="0" y="0">9,000円</tspan></text><text fill="#fff" data-name="10,000円" font-family="ShipporiMinchoB1-Regular, Shippori Mincho B1" font-size="15" transform="translate(676 112)"><tspan x="0" y="0">10,000円</tspan></text><text fill="#fff" data-name="1泊2食" font-family="ShipporiMinchoB1-Regular, Shippori Mincho B1" font-size="15" transform="translate(89 182)"><tspan x="0" y="0">1泊2食</tspan></text><text fill="#fff" data-name="12,000円" font-family="ShipporiMinchoB1-Regular, Shippori Mincho B1" font-size="15" transform="translate(291 182)"><tspan x="0" y="0">12,000円</tspan></text><text fill="#fff" data-name="13,000円" font-family="ShipporiMinchoB1-Regular, Shippori Mincho B1" font-size="15" transform="translate(484 182)"><tspan x="0" y="0">13,000円</tspan></text><text fill="#fff" data-name="14,000円" font-family="ShipporiMinchoB1-Regular, Shippori Mincho B1" font-size="15" transform="translate(676 182)"><tspan x="0" y="0">14,000円</tspan></text><text fill="#fff" data-name="夕　食" font-family="ShipporiMinchoB1-Regular, Shippori Mincho B1" font-size="15" transform="translate(89 252)"><tspan x="0" y="0">夕　食</tspan></text><text fill="#fff" data-name="2,600円" font-family="ShipporiMinchoB1-Regular, Shippori Mincho B1" font-size="15" transform="translate(487 252)"><tspan x="0" y="0">2,600円</tspan></text><text fill="#fff" data-name="朝　食" font-family="ShipporiMinchoB1-Regular, Shippori Mincho B1" font-size="15" transform="translate(89 322)"><tspan x="0" y="0">朝　食</tspan></text><text fill="#fff" data-name="1,400円" font-family="ShipporiMinchoB1-Regular, Shippori Mincho B1" font-size="15" transform="translate(488 322)"><tspan x="0" y="0">1,400円</tspan></text><text fill="#fff" data-name="弁　当" font-family="ShipporiMinchoB1-Regular, Shippori Mincho B1" font-size="15" transform="translate(89 392)"><tspan x="0" y="0">弁　当</tspan></text><text fill="#fff" data-name="1,400円" font-family="ShipporiMinchoB1-Regular, Shippori Mincho B1" font-size="15" transform="translate(488 392)"><tspan x="0" y="0">1,400円</tspan></text><path fill="none" stroke="#707070" d="M0 .5h800" data-name="線 11"/><path fill="none" stroke="#707070" d="M0 70.5h800" data-name="線 12"/><path fill="none" stroke="#707070" d="M222.5 0v420.887" data-name="線 18"/><path fill="none" stroke="#707070" d="M415.5 0v211.5" data-name="線 19"/><path fill="none" stroke="#707070" d="M607.5 0v211.5" data-name="線 20"/><path fill="none" stroke="#707070" d="M0 210.5h800" data-name="線 13"/><path fill="none" stroke="#707070" d="M0 140.5h800" data-name="線 17"/><path fill="none" stroke="#707070" d="M0 280.5h800" data-name="線 14"/><path fill="none" stroke="#707070" d="M0 350.5h800" data-name="線 15"/><path fill="none" stroke="#707070" d="M0 420.5h800" data-name="線 16"/></g></svg>