<?xml version="1.0" encoding="utf-8"?>
<!-- Generator: Adobe Illustrator 28.1.0, SVG Export Plug-In . SVG Version: 6.00 Build 0)  -->
<svg version="1.1" id="レイヤー_1" xmlns="http://www.w3.org/2000/svg" xmlns:xlink="http://www.w3.org/1999/xlink" x="0px"
	 y="0px" viewBox="0 0 335.5 187" style="enable-background:new 0 0 335.5 187;" xml:space="preserve">
<style type="text/css">
	.st0{fill:none;stroke:#707070;}
	.st1{enable-background:new    ;}
	.st2{fill:#FFFFFF;}
</style>
<line id="線_1" class="st0" x1="0" y1="0.5" x2="335.5" y2="0.5"/>
<line id="線_2" class="st0" x1="0" y1="62.5" x2="335.5" y2="62.5"/>
<line id="線_4" class="st0" x1="0" y1="124.5" x2="335.5" y2="124.5"/>
<line id="線_6" class="st0" x1="0" y1="186.5" x2="335.5" y2="186.5"/>
<path id="パス_2" class="st0" d="M83.7,0.4l0,186.6"/>
<path id="パス_1" class="st0" d="M167.8,0.5L167.8,0.5v186"/>
<line id="線_17" class="st0" x1="251.8" y1="1" x2="251.8" y2="187"/>
<g class="st1">
	<path class="st2" d="M29.9,151.9l0.2-0.2c0,0,0.1-0.1,0.1-0.2c0.1-0.1,0.1-0.1,0.1-0.2c0,0,0.1-0.1,0.1-0.1c0.1,0,0.2,0.1,0.5,0.3
		s0.4,0.4,0.5,0.5c0,0.1,0.1,0.1,0.1,0.2c0,0.1,0,0.1-0.1,0.2c-0.1,0.1-0.2,0.1-0.3,0.1h-4.1c-0.1,0-0.2,0-0.2,0.1
		c-0.1,0.1-0.1,0.1-0.1,0.2v0.7c0,0.1,0,0.2,0.1,0.2c0.1,0.1,0.1,0.1,0.2,0.1h3.5c0.2,0,0.3-0.1,0.4-0.2l0.2-0.2
		c0,0,0.1-0.1,0.1-0.2c0.1-0.1,0.1-0.1,0.2-0.2c0,0,0.1-0.1,0.1-0.1c0.1,0,0.2,0.1,0.5,0.3c0.3,0.2,0.5,0.4,0.6,0.6
		c0,0.1,0.1,0.1,0.1,0.2c0,0.1,0,0.1-0.1,0.2c-0.1,0-0.2,0.1-0.3,0.1h-5.9c-0.1,0-0.3,0.1-0.4,0.2c-0.6,0.5-1.1,1-1.7,1.3
		c-0.1,0.1-0.1,0.1-0.1,0.2c0,0.1,0,0.1,0.1,0.2c0.2,0.2,0.3,0.5,0.3,0.7c0,0.1,0,0.2-0.1,0.3c-0.1,0.1-0.2,0.1-0.3,0.1h0
		c-0.1,0-0.1,0-0.2-0.1c-0.1,0-0.1-0.1-0.2-0.2c-0.2-0.3-0.5-0.5-0.9-0.8c-0.4-0.3-0.7-0.5-1.1-0.7c-0.2-0.1-0.3-0.2-0.2-0.2
		c0-0.1,0.2-0.1,0.3-0.1c0.6,0.1,1.1,0.2,1.6,0.4c0.1,0,0.1,0,0.2,0c0.1,0,0.2-0.1,0.3-0.2c0.2-0.3,0.5-0.7,0.6-0.9
		c0,0,0.1-0.1,0.1-0.2c0-0.1-0.1-0.2-0.3-0.2h-2c-0.6,0-1.3,0.1-2,0.2h-0.1c-0.1,0-0.2-0.1-0.3-0.2l-0.1-0.1c0-0.1,0-0.1,0-0.2
		c0-0.1,0.1-0.2,0.3-0.2c0.3,0,0.9,0.1,1.5,0.1h3.7c0.1,0,0.2,0,0.2-0.1c0.1-0.1,0.1-0.1,0.1-0.2v-0.7c0-0.1,0-0.2-0.1-0.2
		c-0.1-0.1-0.1-0.1-0.2-0.1h-1.7c-0.6,0-1.3,0.1-2,0.2h-0.1c-0.1,0-0.2-0.1-0.3-0.2l-0.1-0.1c0-0.1,0-0.1,0-0.2c0-0.1,0-0.1,0.1-0.1
		c0.1,0,0.1,0,0.2,0c0.3,0,0.9,0.1,1.5,0.1h2.3c0.1,0,0.2,0,0.2-0.1c0.1-0.1,0.1-0.1,0.1-0.2v-0.7c0-0.1,0-0.2-0.1-0.2
		c-0.1-0.1-0.1-0.1-0.2-0.1h-2.2c-0.6,0-1.3,0.1-2,0.2h-0.1c-0.1,0-0.2-0.1-0.3-0.2l-0.1-0.1c0-0.1,0-0.1,0-0.2c0-0.1,0-0.1,0.1-0.1
		c0,0,0.1,0,0.2,0c0.3,0,0.9,0.1,1.5,0.1h2.9c0.2,0,0.3-0.1,0.3-0.3l0-0.8v0c0-0.2,0.1-0.3,0.2-0.3l0.1,0c0.4,0.1,0.6,0.2,0.8,0.3
		s0.2,0.1,0.2,0.2c0,0,0,0.1-0.1,0.2l0,0c-0.1,0.1-0.2,0.2-0.2,0.4v0c0,0.1,0,0.2,0.1,0.2c0.1,0.1,0.1,0.1,0.2,0.1H30
		c0.2,0,0.3-0.1,0.4-0.2l0.2-0.2c0,0,0.1-0.1,0.1-0.2c0.1-0.1,0.1-0.1,0.1-0.2s0.1-0.1,0.1-0.1c0.1,0,0.3,0.1,0.5,0.3
		c0.3,0.2,0.5,0.4,0.6,0.5c0.1,0.1,0.1,0.1,0.1,0.2c0,0.1,0,0.1-0.1,0.2c-0.1,0-0.2,0.1-0.3,0.1h-4.7c-0.1,0-0.2,0-0.2,0.1
		c-0.1,0.1-0.1,0.1-0.1,0.2v0.7c0,0.1,0,0.2,0.1,0.2c0.1,0.1,0.1,0.1,0.2,0.1h2.4C29.7,152.1,29.8,152.1,29.9,151.9z M23.6,159.3
		c0.1,0,0.1,0,0.2,0.1l0.3,0.2c0,0,0.1,0.1,0.3,0.2c0.2,0.1,0.3,0.2,0.3,0.3c0,0.1-0.1,0.1-0.2,0.1h0c-0.2,0-0.3,0-0.4,0.1
		c-0.5,0.4-1.1,0.7-1.7,1s-1.4,0.6-2.1,0.8l-0.2,0c-0.1,0-0.1,0-0.1-0.1c0,0,0,0,0,0c0-0.1,0.1-0.1,0.2-0.2c0.4-0.2,0.8-0.5,1.2-0.7
		c0.4-0.2,0.7-0.5,1.1-0.8c0.4-0.3,0.6-0.6,0.9-0.9C23.4,159.4,23.5,159.3,23.6,159.3z M25.5,157.8
		C25.5,157.9,25.5,157.9,25.5,157.8c0.1,0.1,0.2,0.1,0.3,0.1l4.1-0.1c0.1,0,0.2,0,0.2-0.1c0,0,0.1-0.1,0.1-0.1c0-0.1,0-0.1-0.1-0.2
		c-0.2-0.1-0.5-0.4-0.9-0.6c-0.2-0.1-0.3-0.2-0.2-0.3c0,0,0.1,0,0.1,0c0.1,0,0.1,0,0.2,0c0.8,0.2,1.4,0.4,1.9,0.7s0.8,0.6,1.1,0.9
		c0.2,0.3,0.3,0.6,0.3,0.8c0,0.2,0,0.3-0.1,0.4s-0.2,0.1-0.3,0.1h-0.1c-0.1,0-0.2-0.1-0.3-0.3c-0.2-0.2-0.4-0.5-0.6-0.8
		c-0.1-0.1-0.2-0.2-0.4-0.1c-1,0.1-2.2,0.2-3.6,0.3c-0.2,0-0.3,0.1-0.3,0.3v1c0,1,0.1,1.7,0.1,2.2v0.1c0,0.1,0,0.2-0.1,0.3
		c-0.2,0.1-0.4,0.2-0.7,0.2c-0.1,0-0.1,0-0.2-0.1c-0.1-0.1-0.1-0.1-0.1-0.2c0.1-0.8,0.1-1.6,0.1-2.4v-1c0-0.2-0.1-0.3-0.3-0.3
		l-4.3,0.3c-0.1,0-0.2,0-0.3,0.1l-0.1,0.1c-0.1,0-0.1,0.1-0.1,0.1c-0.1,0-0.1,0-0.1-0.1c-0.1,0-0.1-0.1-0.1-0.1l-0.2-0.5
		c0,0,0-0.1,0-0.2c0-0.1,0-0.1,0.1-0.2s0.1-0.1,0.2-0.1c1,0,2.2,0,3.7,0c0.1,0,0.3,0,0.4-0.1c0.4-0.3,0.9-0.7,1.4-1.1
		c0.8-0.7,1.4-1.3,1.8-2c0.1-0.1,0.1-0.2,0.3-0.2c0.1,0,0.1,0,0.2,0.1c0.6,0.3,0.9,0.6,0.9,0.7c0,0,0,0.1-0.1,0.1h-0.1
		c-0.1,0-0.2,0.1-0.3,0.1c-0.7,0.6-1.6,1.3-2.9,2C25.5,157.7,25.5,157.8,25.5,157.8z M27.9,159.7c0,0,0.1-0.1,0.3-0.1
		c0.9,0.1,1.7,0.3,2.3,0.6c0.6,0.3,1,0.6,1.3,0.9s0.4,0.6,0.4,0.8c0,0.1,0,0.2-0.1,0.3c-0.1,0.1-0.2,0.1-0.3,0.1h0c0,0-0.1,0-0.2,0
		c-0.1,0-0.1-0.1-0.1-0.1c-0.3-0.4-0.8-0.8-1.4-1.2s-1.2-0.8-1.9-1.1C27.9,159.8,27.8,159.8,27.9,159.7z"/>
	<path class="st2" d="M34.7,152.5c0,0,0.1-0.1,0.2-0.1c0.1,0,0.1,0,0.1,0c0.7,0.1,1.2,0.3,1.6,0.6c0.3,0.3,0.5,0.6,0.5,0.9
		c0,0.2,0,0.3-0.1,0.4c-0.1,0.1-0.2,0.2-0.3,0.2c-0.1,0-0.1,0-0.1,0c-0.1,0-0.2-0.1-0.3-0.3c-0.1-0.2-0.3-0.5-0.5-0.8
		s-0.5-0.5-0.8-0.7C34.8,152.6,34.7,152.5,34.7,152.5z M35.4,158.4h0.3c0.1,0,0.2,0,0.2,0s0.1-0.1,0.2-0.3c0.2-0.4,0.8-1.8,1.8-4
		l1-2.2c0.1-0.2,0.2-0.3,0.2-0.3c0.1,0,0.1,0,0.1,0.1c0,0.1,0,0.1,0,0.2l-0.8,2.1c-0.1,0.2-0.3,0.9-0.7,1.8c-0.3,1-0.6,1.6-0.6,1.8
		c-0.2,0.6-0.2,1-0.2,1.3c0,0.1,0,0.3,0.1,0.4c0,0.2,0.1,0.3,0.1,0.4c0.1,0.3,0.1,0.5,0.2,0.8c0,0.2,0.1,0.5,0.1,0.8
		c0,0.4-0.1,0.7-0.2,0.9c-0.1,0.2-0.3,0.3-0.6,0.3c-0.2,0-0.4-0.2-0.4-0.5c0,0,0-0.1,0-0.2s0-0.1,0-0.2c0-0.5,0.1-1,0.1-1.3
		c0-0.4,0-0.7-0.1-0.9c-0.1-0.2-0.1-0.4-0.2-0.5c-0.1-0.1-0.2-0.2-0.4-0.2c-0.2,0-0.3-0.1-0.3-0.2C35.1,158.5,35.2,158.4,35.4,158.4
		z M36,149.1c0,0,0.1,0,0.1,0c0.1,0,0.1,0,0.2,0c0.7,0.1,1.3,0.4,1.6,0.7c0.3,0.3,0.5,0.6,0.5,0.9c0,0.2,0,0.3-0.1,0.4
		c-0.1,0.1-0.2,0.2-0.4,0.2c-0.1,0-0.1,0-0.1,0c-0.1,0-0.2-0.1-0.3-0.3c-0.1-0.3-0.3-0.5-0.5-0.8c-0.2-0.3-0.5-0.5-0.8-0.8
		C36,149.3,35.9,149.2,36,149.1z M46.2,151.5l0.1-0.1c0,0,0.1-0.1,0.1-0.1c0-0.1,0.1-0.1,0.1-0.1c0,0,0.1,0,0.1,0
		c0.1,0,0.2,0.1,0.4,0.2c0.2,0.2,0.4,0.3,0.5,0.5c0,0,0.1,0.1,0.1,0.2c0,0.1,0,0.1-0.1,0.2c0,0,0,0-0.1,0c0,0-0.1,0-0.1,0
		c-0.2,0.1-0.3,0.2-0.3,0.3v6c0,1.1,0.1,2.2,0.1,3.3v0.1c0,0.1-0.1,0.2-0.1,0.3c-0.2,0.2-0.5,0.3-0.8,0.3c-0.1,0-0.1,0-0.2-0.1
		c0,0,0-0.1,0-0.1c0,0,0-0.1,0-0.2c0,0,0-0.1,0-0.4v-0.1c0-0.1,0-0.2-0.1-0.2c-0.1-0.1-0.1-0.1-0.2-0.1H41c-0.1,0-0.2,0-0.2,0.1
		c-0.1,0.1-0.1,0.1-0.1,0.2v0c0,0.2,0,0.4,0,0.4v0.1c0,0.1,0,0.2-0.1,0.3c-0.2,0.2-0.4,0.2-0.7,0.2c-0.1,0-0.2,0-0.2-0.1
		c-0.1-0.1-0.1-0.1-0.1-0.2c0-0.6,0.1-1.2,0.1-1.7c0-0.6,0.1-1.3,0.1-2.2v-4.2c0-1,0-1.9-0.1-2.6v-0.1c0-0.1,0.1-0.2,0.2-0.2
		c0.1,0,0.1,0,0.1,0l0.7,0.3c0.1,0,0.2,0.1,0.4,0.1H42c0.2,0,0.3-0.1,0.3-0.3c0.2-0.7,0.3-1.5,0.3-2.3c0-0.1,0-0.2,0.1-0.2
		s0.1-0.1,0.2,0l1.1,0.3c0.1,0,0.1,0.1,0.2,0.1c0,0,0.1,0.1,0.1,0.1c0,0,0,0.1-0.1,0.1l-0.1,0c0,0-0.1,0-0.2,0.1s-0.1,0.1-0.2,0.2
		c-0.2,0.4-0.5,0.9-0.9,1.5c0,0-0.1,0.1-0.1,0.2c0,0.1,0.1,0.2,0.3,0.2h2.7C46,151.7,46.1,151.6,46.2,151.5z M46.1,156
		c0.1-0.1,0.1-0.1,0.1-0.2v-3.3c0-0.1,0-0.2-0.1-0.2c-0.1-0.1-0.1-0.1-0.2-0.1H41c-0.1,0-0.2,0-0.2,0.1c-0.1,0.1-0.1,0.1-0.1,0.2
		v3.3c0,0.1,0,0.2,0.1,0.2c0.1,0.1,0.1,0.1,0.2,0.1h4.8C45.9,156,46,156,46.1,156z M40.8,156.6c-0.1,0.1-0.1,0.1-0.1,0.2v3.7
		c0,0.1,0,0.2,0.1,0.2c0.1,0.1,0.1,0.1,0.2,0.1h4.8c0.1,0,0.2,0,0.2-0.1c0.1-0.1,0.1-0.1,0.1-0.2v-3.7c0-0.1,0-0.2-0.1-0.2
		c-0.1-0.1-0.1-0.1-0.2-0.1H41C40.9,156.5,40.9,156.5,40.8,156.6z"/>
	<path class="st2" d="M54.9,159.4c0.7,0.2,1.2,0.5,1.6,0.8c0.4,0.3,0.6,0.7,0.6,1.1c0,0.2,0,0.3-0.1,0.3s-0.1,0.1-0.2,0.1
		c-0.2,0-0.4-0.1-0.6-0.3c-0.1-0.1-0.2-0.2-0.5-0.4c-0.3-0.2-0.5-0.5-0.8-0.7c0,0-0.1-0.1-0.2-0.1c-0.1,0-0.2,0.1-0.2,0.2
		c-0.2,0.4-0.4,0.8-0.8,1s-0.9,0.4-1.5,0.4c-0.6,0-1.1-0.1-1.6-0.4c-0.5-0.3-0.7-0.6-0.7-1.1c0-0.3,0.1-0.6,0.4-0.8
		c0.2-0.2,0.5-0.4,0.9-0.5c0.4-0.1,0.7-0.2,1.1-0.2c0.3,0,0.6,0,1.1,0.1l0.1,0c0.2,0,0.3-0.1,0.2-0.3c0-0.2,0-0.6-0.1-1.1
		c0-0.2,0-0.5-0.1-0.9c0-0.2-0.1-0.3-0.3-0.3c-0.5,0.1-0.9,0.1-1.2,0.1c-0.5,0-1-0.1-1.4-0.3s-0.7-0.5-0.8-0.9c0-0.1,0-0.1,0-0.2
		c0,0,0-0.1,0.1-0.1c0,0,0.1,0,0.1,0s0.1,0,0.1,0.1c0.2,0.1,0.4,0.3,0.8,0.4c0.3,0.1,0.7,0.2,1.1,0.2c0.3,0,0.8,0,1.4-0.1
		c0.2,0,0.3-0.1,0.3-0.3v-0.2c0-0.6,0-1.2,0-1.9v-0.1c0-0.2,0-0.2-0.1-0.2h-0.1c-0.3,0-0.5,0-0.8-0.1c-0.2-0.1-0.4-0.2-0.6-0.4
		c-0.2-0.2-0.4-0.3-0.5-0.5c-0.1-0.1-0.1-0.2-0.1-0.2c0,0,0-0.1,0.1-0.1c0.1,0,0.1,0,0.2,0.1l0.3,0.2c0.2,0.1,0.3,0.2,0.4,0.2
		c0.1,0,0.3,0.1,0.5,0.1c0.1,0,0.3,0,0.5-0.1c0.2,0,0.3-0.1,0.3-0.3c0.1-0.4,0.1-0.7,0.1-0.9c0-0.3-0.1-0.6-0.2-0.8
		c-0.1-0.1-0.2-0.3-0.3-0.4c-0.1-0.1-0.1-0.1-0.1-0.2c0-0.1-0.1-0.1-0.1-0.1c0-0.1,0-0.1,0.1-0.2s0.1-0.1,0.2-0.1s0.2,0,0.4,0.1
		s0.4,0.2,0.5,0.3c0.1,0.2,0.2,0.4,0.2,0.6c0,0.1,0,0.3-0.1,0.6s-0.1,0.5-0.2,0.7c0,0,0,0.1,0.1,0.2s0.1,0.1,0.2,0.1l0.4-0.1
		c0.1,0,0.2,0,0.3,0c0.1,0,0.2,0,0.3,0.1c0.1,0,0.1,0.1,0.1,0.2c0,0.1,0,0.2-0.1,0.3c-0.1,0.1-0.2,0.2-0.3,0.2
		c-0.2,0.1-0.5,0.2-0.9,0.3c-0.2,0-0.3,0.2-0.3,0.3c0,0.5-0.1,1-0.1,1.6c0,0.2,0,0.3,0,0.4c0,0.1,0,0.2,0.1,0.2
		c0.1,0.1,0.2,0.1,0.3,0c0.4-0.1,0.6-0.2,0.8-0.4c0.2-0.1,0.2-0.2,0.2-0.3s-0.1-0.3-0.3-0.5c0,0,0-0.1-0.1-0.1s-0.1-0.1-0.1-0.1
		c-0.1-0.1-0.1-0.2-0.1-0.2c0,0,0,0,0,0c0,0,0.1,0.1,0.3,0.2c0.2,0.2,0.5,0.3,0.8,0.4c0.1,0,0.2,0.1,0.3,0.1c0.2,0,0.3,0.1,0.4,0.1
		c0.1,0.1,0.1,0.2,0.1,0.3c0,0.1,0,0.3-0.1,0.5c-0.1,0.1-0.3,0.3-0.5,0.4c-0.4,0.2-1,0.4-1.8,0.6c-0.2,0.1-0.3,0.2-0.3,0.5
		c0,0.3,0.1,0.9,0.2,1.6l0.1,0.7C54.7,159.2,54.8,159.4,54.9,159.4z M53.2,160.9c0.3-0.2,0.5-0.5,0.6-0.9v-0.1
		c0-0.1-0.1-0.2-0.2-0.3c-0.5-0.2-0.9-0.2-1.4-0.2c-0.4,0-0.8,0.1-1.2,0.3c-0.4,0.2-0.5,0.4-0.5,0.7c0,0.2,0.1,0.4,0.4,0.6
		c0.3,0.1,0.6,0.2,1,0.2C52.5,161.2,52.9,161.1,53.2,160.9z"/>
	<path class="st2" d="M63.5,152.5c0.3,0.3,0.6,0.8,0.8,1.4c0.2,0.6,0.3,1.2,0.3,2c0,1.5-0.3,2.8-1,3.8c-0.7,1-1.7,1.8-3.2,2.3
		c-0.1,0-0.2,0.1-0.3,0.1c-0.1,0-0.1,0-0.1-0.1c0,0,0-0.1,0.1-0.1c1.3-0.5,2.2-1.4,2.7-2.5s0.8-2.2,0.8-3.4c0-0.9-0.1-1.7-0.4-2.4
		c-0.3-0.7-0.6-1-1-1c-0.3,0-0.6,0.2-0.9,0.6c-0.3,0.4-0.5,0.9-0.7,1.4c-0.2,0.5-0.3,1-0.3,1.4c0,0.2,0,0.3,0.1,0.5
		c0.1,0.2,0.1,0.3,0.2,0.5c0.1,0.1,0.1,0.2,0.2,0.4c0,0.1,0.1,0.2,0.1,0.3c0,0.1,0,0.2-0.1,0.2c-0.1,0.1-0.2,0.1-0.3,0.1
		c-0.2,0-0.5-0.1-0.7-0.4c-0.2-0.2-0.3-0.5-0.4-0.9c-0.1-0.3-0.1-0.7-0.1-1c0-0.4,0.1-0.9,0.2-1.4s0.2-1.2,0.4-2
		c0.1-0.4,0.2-0.7,0.2-1.1c0.1-0.4,0.1-0.6,0.1-0.8c0-0.2-0.1-0.4-0.2-0.6c-0.1-0.1-0.1-0.1-0.2-0.2s-0.1-0.1-0.1-0.2
		c0,0,0-0.1,0.1-0.1c0.1,0,0.2,0,0.3,0c0.2,0,0.5,0.1,0.6,0.3c0.2,0.2,0.3,0.5,0.3,0.9c0,0.3,0,0.7-0.1,1s-0.2,0.8-0.4,1.3l-0.1,0.5
		c0,0,0.1,0.1,0.1,0.1c0.1,0,0.2-0.1,0.2-0.2c0.5-0.8,1.1-1.2,1.8-1.2C62.9,152.1,63.2,152.2,63.5,152.5z"/>
</g>
<g class="st1">
	<path class="st2" d="M21,99.1c-0.1,0-0.1-0.1-0.1-0.2c0-0.2,0-0.2,0.1-0.2h0.2c0.5,0,0.9-0.1,1.2-0.2c0.3-0.1,0.5-0.4,0.5-0.7v-7.2
		c0-0.3,0-0.5-0.1-0.6c-0.1-0.1-0.2-0.2-0.4-0.2s-0.6-0.1-1.1-0.1H21c-0.1,0-0.1-0.1-0.1-0.2c0-0.1,0-0.2,0.1-0.2
		c0.5,0,1-0.1,1.5-0.2s0.8-0.4,1.2-0.7c0.1-0.1,0.1-0.1,0.2-0.1c0.1,0,0.2,0.1,0.2,0.3v9.2c0,0.6,0.5,0.9,1.6,0.9h0.2
		c0,0,0.1,0,0.1,0.1c0,0,0,0.1,0,0.2c0,0.1,0,0.2-0.1,0.2H21z"/>
	<path class="st2" d="M27.9,90.1c0,0,0.1-0.1,0.2-0.1c0.1,0,0.1,0,0.1,0c0.7,0.1,1.2,0.3,1.6,0.6c0.3,0.3,0.5,0.6,0.5,0.9
		c0,0.2,0,0.3-0.1,0.4c-0.1,0.1-0.2,0.2-0.3,0.2c-0.1,0-0.1,0-0.1,0c-0.1,0-0.2-0.1-0.3-0.3c-0.1-0.2-0.3-0.5-0.5-0.8
		s-0.5-0.5-0.8-0.7C27.9,90.2,27.8,90.1,27.9,90.1z M28.5,96h0.3c0.1,0,0.2,0,0.2,0s0.1-0.1,0.2-0.3c0.2-0.4,0.8-1.8,1.8-4l1-2.2
		c0.1-0.2,0.2-0.3,0.2-0.3c0.1,0,0.1,0,0.1,0.1c0,0.1,0,0.1,0,0.2l-0.8,2.1c-0.1,0.2-0.3,0.9-0.7,1.8c-0.3,1-0.6,1.6-0.6,1.8
		c-0.2,0.6-0.2,1-0.2,1.3c0,0.1,0,0.3,0.1,0.4c0,0.2,0.1,0.3,0.1,0.4c0.1,0.3,0.1,0.5,0.2,0.8c0,0.2,0.1,0.5,0.1,0.8
		c0,0.4-0.1,0.7-0.2,0.9c-0.1,0.2-0.3,0.3-0.6,0.3c-0.2,0-0.4-0.2-0.4-0.5c0,0,0-0.1,0-0.2s0-0.1,0-0.2c0-0.5,0.1-1,0.1-1.3
		c0-0.4,0-0.7-0.1-0.9c-0.1-0.2-0.1-0.4-0.2-0.5c-0.1-0.1-0.2-0.2-0.4-0.2c-0.2,0-0.3-0.1-0.3-0.2C28.2,96.1,28.3,96,28.5,96z
		 M29.1,86.8c0,0,0.1,0,0.1,0c0.1,0,0.1,0,0.2,0c0.7,0.1,1.3,0.4,1.6,0.7c0.3,0.3,0.5,0.6,0.5,0.9c0,0.2,0,0.3-0.1,0.4
		c-0.1,0.1-0.2,0.2-0.4,0.2c-0.1,0-0.1,0-0.1,0c-0.1,0-0.2-0.1-0.3-0.3c-0.1-0.3-0.3-0.5-0.5-0.8c-0.2-0.3-0.5-0.5-0.8-0.8
		C29.1,86.9,29.1,86.8,29.1,86.8z M39.4,89.1l0.1-0.1c0,0,0.1-0.1,0.1-0.1c0-0.1,0.1-0.1,0.1-0.1c0,0,0.1,0,0.1,0
		c0.1,0,0.2,0.1,0.4,0.2c0.2,0.2,0.4,0.3,0.5,0.5c0,0,0.1,0.1,0.1,0.2c0,0.1,0,0.1-0.1,0.2c0,0,0,0-0.1,0c0,0-0.1,0-0.1,0
		c-0.2,0.1-0.3,0.2-0.3,0.3v6c0,1.1,0.1,2.2,0.1,3.3v0.1c0,0.1-0.1,0.2-0.1,0.3c-0.2,0.2-0.5,0.3-0.8,0.3c-0.1,0-0.1,0-0.2-0.1
		c0,0,0-0.1,0-0.1c0,0,0-0.1,0-0.2c0,0,0-0.1,0-0.4v-0.1c0-0.1,0-0.2-0.1-0.2c-0.1-0.1-0.1-0.1-0.2-0.1h-4.8c-0.1,0-0.2,0-0.2,0.1
		c-0.1,0.1-0.1,0.1-0.1,0.2v0c0,0.2,0,0.4,0,0.4v0.1c0,0.1,0,0.2-0.1,0.3c-0.2,0.2-0.4,0.2-0.7,0.2c-0.1,0-0.2,0-0.2-0.1
		c-0.1-0.1-0.1-0.1-0.1-0.2c0-0.6,0.1-1.2,0.1-1.7c0-0.6,0.1-1.3,0.1-2.2v-4.2c0-1,0-1.9-0.1-2.6v-0.1c0-0.1,0.1-0.2,0.2-0.2
		c0.1,0,0.1,0,0.1,0l0.7,0.3c0.1,0,0.2,0.1,0.4,0.1h0.9c0.2,0,0.3-0.1,0.3-0.3c0.2-0.7,0.3-1.5,0.3-2.3c0-0.1,0-0.2,0.1-0.2
		s0.1-0.1,0.2,0l1.1,0.3c0.1,0,0.1,0.1,0.2,0.1c0,0,0.1,0.1,0.1,0.1c0,0,0,0.1-0.1,0.1l-0.1,0c0,0-0.1,0-0.2,0.1S37,87.3,37,87.4
		c-0.2,0.4-0.5,0.9-0.9,1.5c0,0-0.1,0.1-0.1,0.2c0,0.1,0.1,0.2,0.3,0.2H39C39.1,89.3,39.3,89.3,39.4,89.1z M39.2,93.6
		c0.1-0.1,0.1-0.1,0.1-0.2v-3.3c0-0.1,0-0.2-0.1-0.2c-0.1-0.1-0.1-0.1-0.2-0.1h-4.8c-0.1,0-0.2,0-0.2,0.1c-0.1,0.1-0.1,0.1-0.1,0.2
		v3.3c0,0.1,0,0.2,0.1,0.2c0.1,0.1,0.1,0.1,0.2,0.1H39C39.1,93.7,39.1,93.6,39.2,93.6z M33.9,94.2c-0.1,0.1-0.1,0.1-0.1,0.2v3.7
		c0,0.1,0,0.2,0.1,0.2c0.1,0.1,0.1,0.1,0.2,0.1H39c0.1,0,0.2,0,0.2-0.1c0.1-0.1,0.1-0.1,0.1-0.2v-3.7c0-0.1,0-0.2-0.1-0.2
		c-0.1-0.1-0.1-0.1-0.2-0.1h-4.8C34.1,94.1,34,94.1,33.9,94.2z"/>
	<path class="st2" d="M48.3,98.8c0,0.2-0.2,0.3-0.3,0.3h-4.9c-0.2,0-0.3-0.1-0.3-0.2c0-0.1,0-0.1,0-0.2c0-0.1,0-0.1,0-0.2
		c0.3-0.7,0.6-1.4,1.1-2c0.4-0.6,1-1.3,1.6-2.1c0.7-0.9,1.3-1.6,1.6-2.1c0.3-0.6,0.5-1.1,0.5-1.7c0-0.5-0.1-1-0.4-1.4
		c-0.3-0.4-0.8-0.6-1.4-0.6c-0.5,0-0.9,0.1-1.2,0.4c-0.3,0.2-0.5,0.5-0.5,0.9c0,0.1,0,0.2,0.1,0.3c0,0.1,0.1,0.2,0.2,0.3
		c0.1,0.1,0.1,0.2,0.2,0.3s0.1,0.2,0.1,0.3c0,0.2-0.1,0.4-0.2,0.6c-0.1,0.1-0.3,0.2-0.6,0.2c-0.2,0-0.4-0.1-0.5-0.3
		c-0.2-0.2-0.2-0.5-0.2-0.8c0-0.4,0.1-0.8,0.3-1.2s0.6-0.8,1-1s1-0.4,1.7-0.4c0.7,0,1.3,0.1,1.7,0.4c0.4,0.3,0.8,0.6,0.9,1.1
		s0.3,0.9,0.3,1.3c0,0.4-0.1,0.8-0.2,1.1s-0.3,0.6-0.6,0.9c-0.2,0.3-0.6,0.6-1.1,1.1c-0.1,0.1-0.2,0.2-0.4,0.4
		c-0.2,0.2-0.4,0.3-0.6,0.6c-0.9,0.9-1.6,1.8-2.1,2.8c0,0.1,0,0.1,0,0.2c0,0.1,0.1,0.2,0.3,0.2h1.4c0.7,0,1.3,0,1.6-0.1
		s0.6-0.2,0.8-0.5s0.4-0.6,0.5-1.1c0-0.1,0.1-0.1,0.1-0.1c0,0,0.1,0,0.1,0c0.1,0,0.1,0,0.1,0.1c0,0,0,0,0,0.1l0,0.1L48.3,98.8z"/>
	<path class="st2" d="M59.9,90.7l0.1-0.1c0,0,0.1-0.1,0.1-0.1c0-0.1,0.1-0.1,0.1-0.1c0,0,0.1,0,0.1,0c0.1,0,0.2,0.1,0.4,0.3
		s0.4,0.3,0.5,0.5c0,0,0.1,0.1,0.1,0.2c0,0.1,0,0.1-0.1,0.2l-0.1,0c-0.2,0.1-0.3,0.2-0.3,0.3v1c0,1,0,1.7,0.1,2.3v0.1
		c0,0.1,0,0.2-0.1,0.3c-0.1,0.1-0.2,0.1-0.4,0.2c-0.1,0.1-0.3,0.1-0.4,0.1c0,0-0.1,0-0.1-0.1c0,0,0-0.1,0-0.2s0-0.1-0.1-0.2
		c-0.1,0-0.1-0.1-0.2-0.1h-1.9c-0.1,0-0.1,0-0.2,0.1c-0.1,0-0.1,0.1-0.1,0.2c0,0,0,0.1,0,0.2c0.4,0.6,0.8,1.1,1.4,1.5
		c0.1,0.1,0.2,0.1,0.2,0.1c0,0,0.1,0,0.1,0c0.4-0.3,0.8-0.6,1.1-0.9c0.4-0.3,0.7-0.7,0.9-1c0.1-0.1,0.1-0.2,0.2-0.2
		c0.1,0,0.1,0,0.2,0.1c0.6,0.5,0.9,0.7,0.9,0.8c0,0-0.1,0.1-0.1,0.1h0c-0.1,0-0.3,0-0.4,0.1c-0.6,0.3-1.3,0.7-2.2,1
		c-0.1,0.1-0.2,0.1-0.2,0.2c0,0.1,0.1,0.2,0.2,0.2c1,0.6,2.2,1,3.7,1.3c0.2,0.1,0.3,0.1,0.3,0.2c0,0,0,0.1-0.1,0.1
		c-0.1,0-0.1,0-0.1,0.1c-0.2,0.1-0.4,0.3-0.5,0.5c-0.1,0.2-0.2,0.2-0.4,0.2c-1.4-0.4-2.5-1-3.4-1.7c-0.9-0.8-1.6-1.7-2.1-2.9
		c-0.1-0.2-0.2-0.2-0.4-0.2h-1.8c-0.1,0-0.2,0-0.2,0.1c-0.1,0.1-0.1,0.1-0.1,0.2v2.6c0,0.1,0,0.2,0.1,0.2c0.1,0.1,0.1,0.1,0.3,0
		l3-0.5c0,0,0.1,0,0.2,0c0.1,0,0.1,0,0.2,0.1v0c0,0.1-0.1,0.1-0.3,0.2c-2.1,0.7-3.9,1.2-5.4,1.6c-0.1,0-0.2,0.1-0.3,0.1
		c0,0,0,0,0,0.1c0,0.1-0.1,0.1-0.2,0.1c-0.1,0-0.2-0.1-0.3-0.2l-0.3-0.6c0-0.1,0-0.1,0-0.2c0-0.1,0.1-0.2,0.2-0.2
		c0.6-0.1,1.1-0.2,1.6-0.2c0.2,0,0.3-0.1,0.3-0.3V91c0-0.2-0.1-0.3-0.2-0.3c-0.1,0-0.1,0-0.2,0.1c-0.8,0.5-1.5,0.8-2.2,1.1
		c-0.2,0.1-0.3,0.1-0.3,0v0c0-0.1,0.1-0.1,0.2-0.2c0.7-0.4,1.4-0.9,2.1-1.4s1.4-1.1,2-1.7c0.7-0.7,1.1-1.3,1.4-2
		c0.1-0.1,0.1-0.2,0.3-0.2c0,0,0.1,0,0.1,0l1.2,0.3c0.1,0,0.1,0.1,0.2,0.1c0,0,0.1,0.1,0.1,0.1c0,0.1,0,0.1-0.1,0.1
		c-0.1,0.1-0.1,0.1-0.1,0.2c0,0.1,0,0.1,0.1,0.2c0.6,0.6,1.4,1.1,2.4,1.7s2,1,3.1,1.3c0.1,0,0.2,0.1,0.2,0.1c0,0,0.1,0.1,0.1,0.1
		s0,0.1-0.1,0.1c-0.1,0-0.1,0.1-0.2,0.1c-0.2,0.1-0.4,0.3-0.5,0.4c-0.1,0.1-0.2,0.2-0.3,0.2c0,0-0.1,0-0.2,0c-1-0.5-2-1-2.8-1.7
		c-0.9-0.7-1.6-1.4-2.1-2.1c-0.1-0.1-0.1-0.2-0.2-0.2s-0.1,0-0.2,0.1c-0.8,0.9-1.9,1.8-3.3,2.7c-0.1,0.1-0.2,0.1-0.2,0.2
		c0,0.1,0.1,0.2,0.2,0.2l0.3,0.2c0.1,0.1,0.2,0.1,0.4,0.1h1.6c0.2,0,0.3-0.1,0.3-0.3c0-0.6,0-1-0.1-1.2v-0.1c0-0.2,0.1-0.2,0.2-0.2
		c0,0,0.1,0,0.1,0c0.4,0.1,0.6,0.2,0.8,0.3c0.1,0.1,0.2,0.1,0.2,0.2c0,0,0,0.1-0.1,0.1l0,0c-0.1,0.1-0.2,0.2-0.2,0.4v0.4
		c0,0.1,0,0.2,0.1,0.2c0.1,0.1,0.1,0.1,0.2,0.1h1.6C59.7,91,59.8,90.9,59.9,90.7z M59.8,92.8c0.1-0.1,0.1-0.1,0.1-0.2v-0.9
		c0-0.1,0-0.2-0.1-0.2c-0.1-0.1-0.1-0.1-0.2-0.1h-4.8c-0.1,0-0.2,0-0.2,0.1c-0.1,0.1-0.1,0.1-0.1,0.2v0.9c0,0.1,0,0.2,0.1,0.2
		c0.1,0.1,0.1,0.1,0.2,0.1h4.8C59.6,92.9,59.7,92.8,59.8,92.8z M54.5,93.4c-0.1,0.1-0.1,0.1-0.1,0.2v0.9c0,0.1,0,0.2,0.1,0.2
		c0.1,0.1,0.1,0.1,0.2,0.1h4.8c0.1,0,0.2,0,0.2-0.1c0.1-0.1,0.1-0.1,0.1-0.2v-0.9c0-0.1,0-0.2-0.1-0.2c-0.1-0.1-0.1-0.1-0.2-0.1
		h-4.8C54.6,93.3,54.6,93.3,54.5,93.4z"/>
</g>
<g class="st1">
	<path class="st2" d="M113.2,30.6l0.1-0.2c0,0,0.1-0.1,0.1-0.2c0-0.1,0.1-0.1,0.1-0.2c0,0,0.1-0.1,0.1-0.1c0.1,0,0.2,0.1,0.5,0.3
		c0.3,0.2,0.4,0.4,0.6,0.6c0,0,0.1,0.1,0.1,0.2c0,0.1,0,0.2-0.1,0.2c-0.1,0-0.1,0.1-0.2,0.1c-0.2,0.1-0.3,0.2-0.3,0.3v3.5
		c0,0.2,0.1,0.3,0.1,0.4c0.3,0.3,0.7,0.6,1.1,0.8c0.4,0.2,0.8,0.3,1.4,0.4c0.5,0.1,1.2,0.1,2.1,0.1c2.5,0,4.3,0,5.5,0h0.1
		c0.1,0,0.1,0,0.2,0c0,0,0.1,0,0.1,0.1c0,0,0,0.1-0.1,0.1c-0.1,0-0.1,0.1-0.2,0.1c-0.2,0.1-0.3,0.2-0.4,0.4
		c-0.1,0.2-0.2,0.3-0.3,0.3h-4.8c-0.9,0-1.6,0-2.1-0.1c-0.6-0.1-1-0.3-1.4-0.5c-0.4-0.2-0.8-0.6-1.1-1.1c-0.1-0.1-0.1-0.1-0.2-0.1
		c-0.1,0-0.1,0-0.2,0.1c-0.4,0.5-0.9,1.1-1.5,1.6c-0.1,0.1-0.2,0.2-0.2,0.2v0.1l-0.1,0c-0.1,0-0.2-0.1-0.3-0.2l-0.3-0.5
		c0-0.1-0.1-0.1-0.1-0.2c0-0.1,0.1-0.2,0.2-0.3c0.4-0.2,0.9-0.5,1.5-0.9c0.1-0.1,0.2-0.2,0.2-0.4v-3.9c0-0.1,0-0.2-0.1-0.2
		c-0.1-0.1-0.1-0.1-0.2-0.1h-0.3c-0.2,0-0.5,0.1-0.8,0.1c0,0-0.1,0-0.1,0c-0.1,0-0.2-0.1-0.3-0.2l0-0.1c0-0.1,0-0.1,0-0.2
		c0-0.1,0-0.1,0.1-0.2c0.1,0,0.1,0,0.2,0c0.2,0,0.4,0,0.8,0.1h0.3C113,30.8,113.1,30.7,113.2,30.6z M112,24.9
		C112,24.9,112,24.9,112,24.9c0.1,0,0.2,0,0.3,0c0.8,0.3,1.4,0.7,1.7,1.1s0.5,0.8,0.5,1.2c0,0.2,0,0.3-0.1,0.5
		c-0.1,0.1-0.2,0.2-0.4,0.2c-0.1,0-0.1,0-0.2,0c-0.1,0-0.2-0.1-0.2-0.3c-0.1-0.4-0.3-0.8-0.6-1.2s-0.6-0.8-0.9-1.1
		C112,25,112,24.9,112,24.9z M122.6,28l0.1-0.1c0,0,0.1-0.1,0.1-0.2c0-0.1,0.1-0.1,0.1-0.2c0,0,0.1-0.1,0.1-0.1
		c0.1,0,0.2,0.1,0.5,0.3c0.2,0.2,0.4,0.4,0.5,0.5c0,0,0.1,0.1,0.1,0.2c0,0.1,0,0.1-0.1,0.2c0,0-0.1,0-0.1,0c0,0-0.1,0-0.1,0
		c-0.2,0.1-0.3,0.2-0.3,0.4v5.7c0,0.4-0.1,0.7-0.2,0.9S123,36,122.6,36h-0.1c-0.1,0-0.2-0.1-0.3-0.3c0,0,0-0.1-0.1-0.2
		c0-0.1-0.1-0.2-0.3-0.3c-0.1-0.1-0.3-0.1-0.5-0.2c-0.2,0-0.3-0.1-0.3-0.2c0-0.1,0.1-0.1,0.3-0.1c0.4,0,0.8,0.1,1,0.1
		c0.1,0,0.2,0,0.2-0.1s0.1-0.1,0.1-0.2v-1.3c0-0.1,0-0.2-0.1-0.2c-0.1-0.1-0.1-0.1-0.2-0.1h-1.9c-0.1,0-0.2,0-0.2,0.1
		c-0.1,0.1-0.1,0.1-0.1,0.2v0.6l0,0.7c0,0.2,0,0.5,0,0.8v0.1c0,0.1,0,0.2-0.1,0.3c-0.2,0.1-0.4,0.2-0.7,0.2c-0.1,0-0.1,0-0.2-0.1
		c0-0.1-0.1-0.1-0.1-0.2c0-0.4,0.1-1,0.1-1.6v-0.7c0-0.1,0-0.2-0.1-0.2c-0.1-0.1-0.1-0.1-0.2-0.1H117c-0.1,0-0.2,0-0.2,0.1
		c-0.1,0.1-0.1,0.1-0.1,0.2V34l0,0.7c0,0.2,0,0.5,0,0.8v0.1c0,0.1,0,0.2-0.1,0.3c-0.1,0.1-0.2,0.1-0.3,0.2s-0.3,0.1-0.4,0.1
		c-0.1,0-0.1,0-0.2-0.1c-0.1-0.1-0.1-0.1-0.1-0.2c0.1-1,0.1-2.1,0.1-3.3v-1.8c0-1,0-1.8-0.1-2.6V28c0-0.1,0-0.1,0.1-0.2
		c0,0,0.1-0.1,0.1-0.1c0,0,0.1,0,0.2,0l0.6,0.3c0.1,0.1,0.2,0.1,0.4,0.1h2.6l0.5,0l0,0c-0.2-0.3-0.6-0.6-1-0.8
		c-0.4-0.3-0.9-0.5-1.5-0.8c-0.2-0.1-0.2-0.2-0.2-0.2c0-0.1,0.1-0.1,0.3-0.1c0.9,0.1,1.6,0.3,2.2,0.6c0.1,0,0.1,0,0.2,0
		c0.1,0,0.1,0,0.2-0.1c0.3-0.2,0.6-0.5,1.1-0.8c0.1-0.1,0.1-0.1,0.1-0.2c0,0,0-0.1-0.1-0.1c-0.1,0-0.1-0.1-0.2-0.1h-3
		c-0.6,0-1.3,0.1-2,0.2h-0.1c-0.1,0-0.2-0.1-0.3-0.2l-0.1-0.1c0-0.1-0.1-0.2-0.1-0.2c0-0.1,0-0.1,0.1-0.1c0,0,0.1,0,0.2,0
		c0.3,0,0.9,0.1,1.5,0.1h4.3c0.1,0,0.3-0.1,0.4-0.2l0.1-0.1c0,0,0.1-0.1,0.2-0.2s0.2-0.1,0.2-0.1c0.1,0,0.2,0.1,0.4,0.3
		c0.2,0.2,0.4,0.4,0.5,0.5c0,0.1,0.1,0.1,0.1,0.2c0,0.1-0.1,0.2-0.2,0.2l-0.2,0c-0.1,0-0.3,0.1-0.4,0.1c-0.5,0.3-1.3,0.7-2.3,1.1
		c-0.1,0-0.2,0.1-0.2,0.2c0,0.1,0,0.1,0.1,0.2c0.2,0.2,0.3,0.4,0.3,0.6c0.1,0.2,0.1,0.3,0.3,0.3h1C122.4,28.2,122.5,28.1,122.6,28z
		 M119.1,30.3c0.1-0.1,0.1-0.1,0.1-0.2v-1.1c0-0.1,0-0.2-0.1-0.2c-0.1-0.1-0.1-0.1-0.2-0.1H117c-0.1,0-0.2,0-0.2,0.1
		c-0.1,0.1-0.1,0.1-0.1,0.2V30c0,0.1,0,0.2,0.1,0.2c0.1,0.1,0.1,0.1,0.2,0.1h1.8C119,30.4,119.1,30.3,119.1,30.3z M116.8,30.9
		c-0.1,0.1-0.1,0.1-0.1,0.2v1.2c0,0.1,0,0.2,0.1,0.2c0.1,0.1,0.1,0.1,0.2,0.1h1.8c0.1,0,0.2,0,0.2-0.1c0.1-0.1,0.1-0.1,0.1-0.2v-1.2
		c0-0.1,0-0.2-0.1-0.2c-0.1-0.1-0.1-0.1-0.2-0.1H117C116.9,30.8,116.9,30.8,116.8,30.9z M122.5,30.3c0.1-0.1,0.1-0.1,0.1-0.2v-1.1
		c0-0.1,0-0.2-0.1-0.2c-0.1-0.1-0.1-0.1-0.2-0.1h-1.9c-0.1,0-0.2,0-0.2,0.1c-0.1,0.1-0.1,0.1-0.1,0.2V30c0,0.1,0,0.2,0.1,0.2
		c0.1,0.1,0.1,0.1,0.2,0.1h1.9C122.4,30.4,122.5,30.3,122.5,30.3z M120.2,30.9c-0.1,0.1-0.1,0.1-0.1,0.2v1.2c0,0.1,0,0.2,0.1,0.2
		c0.1,0.1,0.1,0.1,0.2,0.1h1.9c0.1,0,0.2,0,0.2-0.1c0.1-0.1,0.1-0.1,0.1-0.2v-1.2c0-0.1,0-0.2-0.1-0.2c-0.1-0.1-0.1-0.1-0.2-0.1
		h-1.9C120.3,30.8,120.2,30.8,120.2,30.9z"/>
	<path class="st2" d="M138,27l0.1-0.2c0,0,0.1-0.1,0.1-0.1c0.1-0.1,0.1-0.1,0.1-0.1s0.1,0,0.1,0c0.1,0,0.2,0.1,0.4,0.3
		s0.4,0.4,0.5,0.6c0,0.1,0,0.1,0,0.2c0,0.1-0.1,0.2-0.2,0.2l-0.1,0c-0.2,0-0.3,0.1-0.4,0.2c-0.3,0.4-0.7,0.8-1.2,1.2
		c-0.1,0.1-0.2,0.1-0.3,0.1c-0.1,0-0.1,0-0.1-0.1c0,0,0-0.1,0.1-0.2l0.4-0.9c0-0.1,0-0.1,0-0.1c0-0.1,0-0.1-0.1-0.2
		c-0.1,0-0.1-0.1-0.2-0.1h-8.7c-0.2,0-0.3,0.1-0.3,0.3c0,0.4-0.1,0.7-0.3,1s-0.3,0.5-0.5,0.7c-0.2,0.1-0.4,0.2-0.6,0.2
		s-0.4-0.1-0.4-0.3c0-0.1,0-0.2,0-0.2c0-0.1,0-0.2,0.1-0.3c0.1-0.1,0.2-0.2,0.3-0.3c0.3-0.2,0.5-0.4,0.7-0.8s0.3-0.8,0.4-1.2
		c0-0.2,0.1-0.3,0.1-0.3c0.1,0,0.2,0.1,0.2,0.3l0,0.2c0,0.2,0.1,0.3,0.3,0.3h3.4c0.2,0,0.3-0.1,0.3-0.3c0-0.7-0.1-1.4-0.1-2.1v-0.1
		c0-0.1,0-0.1,0.1-0.2s0.1-0.1,0.2-0.1c0,0,0.1,0,0.1,0c0.7,0.2,1.1,0.4,1.1,0.5c0,0,0,0.1-0.1,0.2l0,0c-0.1,0.1-0.2,0.2-0.2,0.4
		v1.3c0,0.1,0,0.2,0.1,0.2c0.1,0.1,0.1,0.1,0.2,0.1h0.6c0.2,0,0.3-0.1,0.4-0.2c0.5-0.8,0.8-1.6,1-2.2c0-0.1,0.1-0.2,0.2-0.2
		c0.1,0,0.1,0,0.2,0c0.8,0.3,1.1,0.5,1.1,0.7c0,0-0.1,0.1-0.1,0.1l-0.1,0c-0.1,0-0.3,0.1-0.3,0.2c-0.4,0.4-0.8,0.8-1.3,1.3
		c-0.1,0.1-0.1,0.2-0.1,0.2c0,0.1,0.1,0.2,0.3,0.2h2C137.7,27.2,137.9,27.1,138,27z M135.6,28.7l0.1-0.1c0,0,0.1-0.1,0.1-0.1
		c0-0.1,0.1-0.1,0.1-0.1c0,0,0.1,0,0.1,0c0.1,0,0.2,0.1,0.4,0.3c0.2,0.2,0.4,0.3,0.5,0.5c0,0.1,0.1,0.1,0.1,0.1
		c0,0.1-0.1,0.1-0.2,0.2l-0.1,0c-0.2,0.1-0.3,0.2-0.3,0.3v0.6l0,0.6c0,0.2,0,0.4,0,0.7v0.1c0,0.1-0.1,0.2-0.1,0.3
		c-0.1,0.1-0.2,0.1-0.4,0.2c-0.1,0-0.3,0.1-0.3,0.1c0,0-0.1,0-0.1-0.1s0-0.1,0-0.2s0-0.2-0.1-0.2c-0.1,0-0.1-0.1-0.2-0.1h-1.6
		c-0.1,0-0.2,0-0.2,0.1c-0.1,0.1-0.1,0.1-0.1,0.2v0.9c0,0.1,0,0.2,0.1,0.2c0.1,0.1,0.1,0.1,0.2,0.1h2.6c0.2,0,0.3-0.1,0.4-0.2
		l0.1-0.1c0,0,0.1-0.1,0.1-0.1c0-0.1,0.1-0.1,0.1-0.1c0,0,0.1,0,0.1,0c0.1,0,0.2,0.1,0.5,0.2s0.4,0.3,0.6,0.5
		c0.1,0.1,0.1,0.1,0.1,0.2c0,0.1-0.1,0.1-0.1,0.2c0,0,0,0-0.1,0c0,0-0.1,0-0.1,0c-0.2,0.1-0.3,0.2-0.3,0.4v1.9
		c0,0.4-0.1,0.7-0.2,0.9c-0.2,0.2-0.5,0.4-1,0.4l-0.1,0c-0.1,0-0.2-0.1-0.3-0.3c-0.1-0.2-0.1-0.3-0.2-0.4c-0.2-0.2-0.5-0.3-0.9-0.3
		c-0.2,0-0.3-0.1-0.3-0.2c0,0,0.1-0.1,0.2-0.1c0.2,0,0.3,0,0.5,0s0.3,0,0.4,0l0.6,0c0.1,0,0.2,0,0.3-0.1c0,0,0.1-0.1,0.1-0.2v-2
		c0-0.1,0-0.2-0.1-0.2c-0.1-0.1-0.1-0.1-0.2-0.1h-2.7c-0.1,0-0.2,0-0.2,0.1c-0.1,0.1-0.1,0.1-0.1,0.2v1c0,1,0.1,1.8,0.1,2.4v0.1
		c0,0.1,0,0.2-0.1,0.3c-0.2,0.2-0.5,0.3-0.8,0.3c-0.1,0-0.1,0-0.2-0.1c-0.1-0.1-0.1-0.1-0.1-0.2c0.1-0.9,0.1-1.8,0.1-2.6V34
		c0-0.1,0-0.2-0.1-0.2c-0.1-0.1-0.1-0.1-0.2-0.1h-2.6c-0.1,0-0.2,0-0.2,0.1c-0.1,0.1-0.1,0.1-0.1,0.2v0.9c0,0.9,0.1,1.6,0.1,2v0.1
		c0,0.1,0,0.2-0.1,0.3c-0.2,0.2-0.4,0.2-0.7,0.2c-0.1,0-0.1,0-0.2-0.1c0-0.1-0.1-0.1-0.1-0.2c0-0.3,0.1-0.8,0.1-1.3v-0.8
		c0-0.7,0-1.4-0.1-2v-0.1c0-0.2,0.1-0.2,0.2-0.2c0,0,0.1,0,0.2,0l0.6,0.3c0.1,0.1,0.3,0.1,0.4,0.1h2.6c0.1,0,0.2,0,0.2-0.1
		c0.1-0.1,0.1-0.1,0.1-0.2V32c0-0.1,0-0.2-0.1-0.2c-0.1-0.1-0.1-0.1-0.2-0.1h-1.5c-0.1,0-0.2,0-0.2,0.1c-0.1,0.1-0.1,0.1-0.1,0.2
		v0.1c0,0-0.1,0.1-0.3,0.2c-0.2,0.1-0.3,0.1-0.5,0.1c-0.1,0-0.1,0-0.2-0.1c0-0.1-0.1-0.1-0.1-0.2c0-0.2,0.1-0.5,0.1-0.7
		c0-0.1,0-0.2,0-0.3v-0.7c0-0.6,0-1.2-0.1-1.6v-0.1c0-0.2,0.1-0.2,0.2-0.2c0,0,0.1,0,0.2,0l0.5,0.3c0.1,0.1,0.2,0.1,0.4,0.1h4.6
		C135.4,28.9,135.5,28.8,135.6,28.7z M128.9,24.6c0,0,0.1,0,0.1,0c0,0,0.1,0,0.2,0c0.6,0.2,1.1,0.5,1.3,0.8c0.3,0.3,0.4,0.6,0.4,0.9
		c0,0.2,0,0.3-0.1,0.5c-0.1,0.1-0.2,0.2-0.4,0.2c0,0-0.1,0-0.2,0c-0.1,0-0.2-0.2-0.2-0.3c-0.1-0.3-0.2-0.6-0.4-0.9
		c-0.2-0.3-0.4-0.6-0.6-0.8C128.9,24.8,128.8,24.7,128.9,24.6z M135.5,29.4c-0.1-0.1-0.1-0.1-0.2-0.1h-4.6c-0.1,0-0.2,0-0.2,0.1
		c-0.1,0.1-0.1,0.1-0.1,0.2v1.3c0,0.1,0,0.2,0.1,0.2c0.1,0.1,0.1,0.1,0.2,0.1h4.6c0.1,0,0.2,0,0.2-0.1c0.1-0.1,0.1-0.1,0.1-0.2v-1.3
		C135.6,29.6,135.6,29.5,135.5,29.4z"/>
</g>
<g class="st1">
	<path class="st2" d="M189.1,27.9c-0.2-0.4-0.6-0.8-1-1.2c-0.2-0.1-0.2-0.2-0.2-0.3c0,0,0.1,0,0.1,0c0.1,0,0.1,0,0.1,0
		c0.6,0.1,1.1,0.3,1.4,0.5s0.4,0.5,0.4,0.8c0,0.1,0,0.3-0.1,0.4c-0.1,0.1-0.2,0.2-0.3,0.2c-0.1,0-0.1,0-0.2,0
		C189.3,28.2,189.2,28.1,189.1,27.9z M200.5,33.9c0.3,0.2,0.5,0.4,0.6,0.6c0,0.1,0.1,0.1,0.1,0.2c0,0.1,0,0.1-0.1,0.2
		c-0.1,0-0.2,0.1-0.3,0.1h-5.4c-0.1,0-0.2,0-0.2,0.1c-0.1,0.1-0.1,0.1-0.1,0.2v0.7l0,0.8c0,0.2,0,0.5,0,0.9v0.1c0,0.1,0,0.2-0.1,0.3
		c-0.1,0.1-0.2,0.1-0.3,0.2s-0.3,0.1-0.4,0.1c-0.1,0-0.2,0-0.2-0.1C194,38,194,38,194,37.9c0-0.5,0.1-1.1,0.1-1.8v-0.8
		c0-0.1,0-0.2-0.1-0.2c-0.1-0.1-0.1-0.1-0.2-0.1h-3.2c-0.6,0-1.3,0.1-2,0.2h-0.1c-0.1,0-0.2-0.1-0.3-0.2l-0.1-0.1c0-0.1,0-0.1,0-0.2
		c0-0.1,0-0.1,0.1-0.1c0,0,0.1,0,0.2,0c0.3,0,0.9,0.1,1.5,0.1h3.9c0.2,0,0.3-0.1,0.3-0.3l0-0.9c0-0.1-0.1-0.2-0.2-0.2
		c-0.1,0-0.1,0-0.2,0c-0.1,0.1-0.3,0.1-0.4,0.1c-0.1,0-0.1,0-0.2-0.1C193,33,193,33,193,32.9c0.1-1,0.1-2,0.1-3.2v-1.2
		c0-0.2-0.1-0.3-0.2-0.3c-0.1,0-0.1,0-0.2,0.1c-0.4,0.4-0.8,0.8-1.1,1c-0.2,0.1-0.3,0.1-0.3,0.1c0,0,0,0,0-0.1c0-0.1,0-0.2,0.1-0.3
		c0.5-0.5,0.9-1.1,1.3-1.8c0.2-0.4,0.4-0.8,0.6-1.3c0.2-0.5,0.4-1,0.5-1.4c0-0.2,0.1-0.2,0.2-0.2c0,0,0.1,0,0.2,0
		c0.7,0.3,1.1,0.5,1.1,0.6c0,0,0,0.1-0.1,0.1l0,0c-0.2,0.1-0.3,0.2-0.3,0.3c0,0.1-0.1,0.2-0.1,0.3c0,0.1-0.1,0.2-0.2,0.3
		c0,0.1-0.1,0.1-0.1,0.2c0,0.1,0,0.1,0.1,0.1s0.1,0.1,0.2,0.1h1.3c0.2,0,0.3-0.1,0.4-0.3c0.2-0.5,0.3-1,0.3-1.4
		c0-0.2,0.1-0.3,0.3-0.3c0,0,0.1,0,0.1,0c0.7,0.2,1.1,0.3,1.1,0.5c0,0,0,0.1-0.1,0.1l-0.1,0c-0.1,0.1-0.2,0.1-0.3,0.3
		c-0.2,0.3-0.4,0.5-0.6,0.7c-0.1,0.1-0.1,0.2-0.1,0.2s0,0.1,0.1,0.1c0,0,0.1,0.1,0.2,0.1h1.5c0.2,0,0.3-0.1,0.4-0.2l0.2-0.2
		c0,0,0.1-0.1,0.1-0.2s0.1-0.1,0.1-0.2c0,0,0.1-0.1,0.1-0.1c0.1,0,0.3,0.1,0.5,0.3c0.3,0.2,0.5,0.4,0.6,0.6c0,0,0.1,0.1,0.1,0.2
		c0,0.1,0,0.1-0.1,0.2c-0.1,0-0.2,0.1-0.3,0.1h-3c-0.1,0-0.2,0-0.2,0.1c-0.1,0.1-0.1,0.1-0.1,0.2v0.7c0,0.1,0,0.2,0.1,0.2
		s0.1,0.1,0.2,0.1h0.9c0.2,0,0.3-0.1,0.4-0.2l0.1-0.2c0,0,0.1-0.1,0.1-0.2c0.1-0.1,0.1-0.1,0.1-0.2c0,0,0.1-0.1,0.1-0.1
		c0.1,0,0.2,0.1,0.5,0.3c0.2,0.2,0.4,0.4,0.5,0.5c0,0,0.1,0.1,0.1,0.2c0,0.1,0,0.1-0.1,0.2c-0.1,0.1-0.2,0.1-0.3,0.1h-2.5
		c-0.1,0-0.2,0-0.2,0.1c-0.1,0.1-0.1,0.1-0.1,0.2v0.8c0,0.1,0,0.2,0.1,0.2c0.1,0.1,0.1,0.1,0.2,0.1h0.9c0.2,0,0.3-0.1,0.4-0.2
		l0.1-0.2c0,0,0.1-0.1,0.1-0.2c0.1-0.1,0.1-0.1,0.1-0.2s0.1-0.1,0.1-0.1c0.1,0,0.2,0.1,0.5,0.3c0.2,0.2,0.4,0.4,0.5,0.5
		c0,0.1,0.1,0.1,0.1,0.2c0,0.1,0,0.1-0.1,0.2c-0.1,0-0.2,0.1-0.3,0.1h-2.5c-0.1,0-0.2,0-0.2,0.1c-0.1,0.1-0.1,0.1-0.1,0.2v0.8
		c0,0.1,0,0.2,0.1,0.2c0.1,0.1,0.1,0.1,0.2,0.1h1.6c0.2,0,0.3-0.1,0.4-0.2l0.2-0.2c0,0,0.1-0.1,0.1-0.2c0-0.1,0.1-0.1,0.1-0.2
		c0.1,0,0.1-0.1,0.1-0.1c0.1,0,0.2,0.1,0.5,0.3c0.3,0.2,0.5,0.4,0.6,0.6c0,0.1,0.1,0.1,0.1,0.2c0,0.1,0,0.1-0.1,0.2
		c-0.1,0-0.2,0.1-0.3,0.1h-6.5c-0.1,0-0.2,0-0.2,0.1s-0.1,0.1-0.1,0.2c0,0.2,0.1,0.3,0.3,0.3c0.7,0.2,1,0.4,1,0.5c0,0,0,0.1-0.1,0.1
		c-0.1,0.1-0.2,0.2-0.2,0.4v0.2c0,0.1,0,0.2,0.1,0.2s0.1,0.1,0.2,0.1h3.5c0.2,0,0.3-0.1,0.4-0.2l0.2-0.3c0,0,0.1-0.1,0.2-0.2
		c0.1-0.1,0.1-0.2,0.2-0.2s0.1-0.1,0.1-0.1C200,33.6,200.2,33.7,200.5,33.9z M188.6,30.2h0.4c0.1,0,0.2,0,0.2,0c0,0,0.1-0.1,0.2-0.2
		c0.1-0.1,0.2-0.3,0.4-0.5c0.1-0.2,0.4-0.5,0.6-0.9s0.5-0.7,0.8-1.1l1-1.4c0.1-0.1,0.2-0.2,0.3-0.2c0.1,0,0.1,0,0.1,0.1
		c0,0.1,0,0.1-0.1,0.3c-0.1,0.2-0.2,0.3-0.3,0.5c-0.1,0.2-0.2,0.4-0.3,0.6c-0.9,1.4-1.4,2.3-1.5,2.5c-0.2,0.4-0.3,0.7-0.3,1
		c0,0.1,0,0.2,0.1,0.3c0,0.1,0.1,0.2,0.1,0.2c0,0.2,0.1,0.3,0.1,0.5c0,0.2,0.1,0.4,0.1,0.6c0,0.6-0.2,1-0.7,1
		c-0.2,0-0.3-0.1-0.4-0.4c0-0.1,0-0.2,0-0.4c0-0.3,0-0.6,0-0.8c0-0.6-0.1-0.9-0.3-1c-0.1-0.1-0.3-0.1-0.4-0.1
		c-0.2,0-0.3-0.1-0.3-0.2C188.3,30.3,188.4,30.2,188.6,30.2z M190.3,26.1c-0.1-0.2-0.2-0.4-0.4-0.7c-0.2-0.2-0.4-0.4-0.6-0.6
		c-0.2-0.2-0.2-0.2-0.2-0.3c0,0,0.1,0,0.1,0c0.1,0,0.1,0,0.2,0c0.6,0.1,1,0.3,1.3,0.6c0.3,0.3,0.4,0.5,0.4,0.8c0,0.2,0,0.3-0.1,0.4
		c-0.1,0.1-0.2,0.1-0.3,0.1c0,0-0.1,0-0.2,0C190.5,26.4,190.4,26.3,190.3,26.1z M196.2,26.9c-0.1-0.1-0.1-0.1-0.2-0.1h-1.6
		c-0.1,0-0.2,0-0.2,0.1c-0.1,0.1-0.1,0.1-0.1,0.2v0.7c0,0.1,0,0.2,0.1,0.2s0.1,0.1,0.2,0.1h1.6c0.1,0,0.2,0,0.2-0.1s0.1-0.1,0.1-0.2
		v-0.7C196.3,27,196.2,26.9,196.2,26.9z M196.2,28.7c-0.1-0.1-0.1-0.1-0.2-0.1h-1.6c-0.1,0-0.2,0-0.2,0.1c-0.1,0.1-0.1,0.1-0.1,0.2
		v0.8c0,0.1,0,0.2,0.1,0.2c0.1,0.1,0.1,0.1,0.2,0.1h1.6c0.1,0,0.2,0,0.2-0.1c0.1-0.1,0.1-0.1,0.1-0.2v-0.8
		C196.3,28.8,196.2,28.7,196.2,28.7z M196.2,30.5c-0.1-0.1-0.1-0.1-0.2-0.1h-1.6c-0.1,0-0.2,0-0.2,0.1c-0.1,0.1-0.1,0.1-0.1,0.2v0.8
		c0,0.1,0,0.2,0.1,0.2c0.1,0.1,0.1,0.1,0.2,0.1h1.6c0.1,0,0.2,0,0.2-0.1c0.1-0.1,0.1-0.1,0.1-0.2v-0.8
		C196.3,30.7,196.2,30.6,196.2,30.5z"/>
	<path class="st2" d="M204.1,29.1c0-0.2-0.1-0.3-0.3-0.3h0c-0.1,0-0.2,0-0.3,0.1c-0.1,0-0.1,0-0.2,0c-0.1,0-0.2-0.1-0.2-0.2l0-0.1
		c0-0.1,0-0.1,0-0.2c0-0.1,0.1-0.2,0.2-0.2c0.1,0,0.2,0,0.3,0c0.1,0,0.2,0,0.3,0h0.2c0.2,0,0.3-0.1,0.3-0.3c0.1-0.3,0.1-0.7,0.1-1
		V27c0-0.2-0.1-0.2-0.2-0.2c-0.1,0-0.1,0-0.2,0.1c-0.1,0.1-0.2,0.2-0.5,0.3c-0.1,0.1-0.3,0.1-0.3,0c0,0,0,0,0-0.1
		c0-0.1,0-0.1,0.1-0.2c0.3-0.3,0.5-0.7,0.8-1.1s0.4-0.9,0.5-1.3c0.1-0.1,0.1-0.2,0.2-0.2c0.1,0,0.1,0,0.2,0c0.6,0.2,0.9,0.4,0.9,0.5
		c0,0,0,0.1-0.1,0.1l-0.1,0c-0.1,0-0.2,0.1-0.3,0.3c0,0.1,0,0.2,0.1,0.2c0,0.1,0.1,0.1,0.2,0.1h2.6c0.2,0,0.3-0.1,0.4-0.2l0.1-0.2
		c0,0,0.1-0.1,0.1-0.2c0.1-0.1,0.1-0.1,0.1-0.2s0.1-0.1,0.1-0.1c0.1,0,0.2,0.1,0.4,0.3c0.2,0.2,0.4,0.4,0.5,0.5c0,0,0.1,0.1,0.1,0.2
		c0,0.1,0,0.1-0.1,0.2c-0.1,0-0.2,0.1-0.3,0.1h-4.6c-0.2,0-0.3,0.1-0.4,0.2v0.1c0,0.1,0,0.2,0.1,0.3l0.4,0.2
		c0.1,0.1,0.2,0.1,0.4,0.1h2.4c0.2,0,0.3-0.1,0.4-0.2l0.1-0.1c0,0,0-0.1,0.1-0.1c0-0.1,0.1-0.1,0.1-0.1c0,0,0.1,0,0.1,0
		c0.1,0,0.2,0.1,0.4,0.2c0.2,0.2,0.3,0.3,0.4,0.5c0,0,0.1,0.1,0.1,0.2c0,0.1-0.1,0.1-0.2,0.2l-0.1,0c-0.1,0-0.2,0.1-0.2,0.1
		s-0.1,0.1-0.1,0.2l0,0.4c0,0.2,0.1,0.3,0.2,0.3s0.2-0.1,0.3-0.2l0.1-0.2c0.1-0.1,0.1-0.1,0.2-0.1c0.1,0,0.2,0,0.2,0.1
		c0,0,0.1,0.1,0.4,0.4c0.1,0.1,0.1,0.2,0.1,0.3c0,0.1,0,0.1-0.1,0.1c0,0-0.1,0.1-0.2,0.1h-1.1c-0.2,0-0.3,0.1-0.3,0.3
		c0,0.2,0,0.4-0.1,0.5v0.1c0,0.1,0,0.2,0.1,0.2c0.1,0,0.2-0.1,0.3-0.2l0.1-0.2c0.1-0.1,0.1-0.1,0.2-0.1c0.1,0,0.1,0,0.2,0.1l0.4,0.4
		c0.1,0.1,0.2,0.2,0.2,0.3c0,0,0,0.1-0.1,0.1c-0.1,0-0.1,0-0.2,0h-1c-0.2,0-0.3,0.1-0.3,0.3c-0.1,0.2-0.1,0.3-0.1,0.4
		c0,0.1,0,0.1,0,0.2c0,0.1,0.1,0.2,0.2,0.3c0.4,0.3,0.7,0.5,0.7,0.6c0,0,0,0.1-0.1,0.1h0c-0.1,0-0.3,0-0.4,0.1l-1,0.6
		c-0.1,0.1-0.2,0.1-0.2,0.2s0,0.1,0.1,0.2c0.1,0.2,0.2,0.3,0.2,0.5c0,0.1,0,0.2-0.1,0.3c-0.1,0.1-0.2,0.1-0.3,0.1
		c-0.1,0-0.2-0.1-0.3-0.2c-0.2-0.2-0.5-0.5-0.9-0.7c-0.4-0.2-0.7-0.4-1.1-0.6c-0.1,0-0.2-0.1-0.2-0.1c-0.1,0-0.1-0.1,0-0.1
		c0,0,0.1-0.1,0.2-0.1c0.7,0,1.3,0.1,1.8,0.3c0.1,0,0.1,0,0.2,0c0.1,0,0.2,0,0.3-0.1c0.2-0.2,0.4-0.4,0.5-0.5
		c0.1-0.1,0.2-0.2,0.2-0.3c0,0,0-0.1-0.1-0.1c-0.1,0.1-0.3,0.1-0.4,0.1h0c-0.1,0-0.2-0.1-0.3-0.2c0-0.1-0.1-0.1-0.1-0.2
		c-0.1-0.1-0.2-0.1-0.4-0.2c-0.2,0-0.3-0.1-0.3-0.2c0-0.1,0.1-0.1,0.3-0.1l0.5,0c0.1,0,0.2,0,0.3,0c0.2,0,0.3,0,0.4-0.1l0,0
		c0,0,0-0.1,0-0.1c0-0.1,0-0.1-0.1-0.2s-0.1-0.1-0.2-0.1H205c-0.2,0-0.3,0.1-0.3,0.3c0,0.2-0.1,0.3-0.2,0.3c-0.1,0-0.1,0-0.2,0
		c-0.1,0-0.1,0-0.2,0c-0.2,0-0.3-0.1-0.3-0.3L204.1,29.1L204.1,29.1z M207,35.6c0.1,0,0.1,0,0.2,0.1l0.3,0.2
		c0.3,0.2,0.4,0.3,0.4,0.4c0,0-0.1,0.1-0.2,0.1h0h-0.1c-0.1,0-0.2,0-0.3,0.1c-0.4,0.3-1,0.5-1.6,0.8c-0.6,0.3-1.3,0.5-1.9,0.6
		c-0.1,0-0.1,0-0.2,0c-0.1,0-0.1,0-0.2-0.1l0,0c0-0.1,0.1-0.1,0.3-0.2c0.5-0.2,1.1-0.5,1.6-0.9s1-0.7,1.4-1
		C206.9,35.7,206.9,35.6,207,35.6z M212.2,33.4c0,0,0.1-0.1,0.2-0.1c0.1,0,0.1,0,0.2,0c0.7,0.1,1.3,0.3,1.8,0.5
		c0.5,0.2,0.8,0.5,1,0.7c0.2,0.2,0.3,0.5,0.3,0.7c0,0.1,0,0.2-0.1,0.3c-0.1,0.1-0.2,0.1-0.3,0.1h0c0,0-0.1,0-0.2-0.1
		c-0.1,0-0.1-0.1-0.2-0.2c-0.1-0.1-0.3-0.3-0.5-0.5c-0.1-0.1-0.3-0.1-0.4-0.1c-0.7,0.1-1.4,0.1-2,0.1l-1.6,0.1
		c-0.2,0-0.3,0.1-0.3,0.3V36l0,0.8c0,0.2,0,0.5,0,0.9v0.1c0,0.1-0.1,0.2-0.2,0.3c-0.2,0.1-0.4,0.2-0.7,0.2c-0.1,0-0.1,0-0.2-0.1
		c0-0.1-0.1-0.1-0.1-0.2c0-0.5,0.1-1.1,0.1-1.8v-0.7c0-0.1,0-0.2-0.1-0.2c-0.1-0.1-0.1-0.1-0.2-0.1l-4.2,0.2c-0.2,0-0.3,0-0.3,0.1
		c0,0,0,0-0.1,0.1c0,0.1-0.1,0.1-0.1,0.1c-0.1,0-0.2-0.1-0.3-0.2l-0.3-0.5c0-0.1-0.1-0.1-0.1-0.2c0-0.1,0.1-0.2,0.3-0.2l1.5,0l2.4,0
		c0.1,0,0.3,0,0.4-0.1l0.9-0.6c0.4-0.3,0.7-0.6,1.1-0.9s0.7-0.6,0.9-0.9c0.1-0.1,0.2-0.1,0.2-0.1c0.1,0,0.1,0,0.2,0.1
		c0.5,0.4,0.8,0.6,0.8,0.7c0,0-0.1,0.1-0.2,0.1h0h-0.1c-0.1,0-0.2,0-0.3,0.1c-0.5,0.4-1.3,0.8-2.2,1.3c-0.1,0.1-0.2,0.1-0.2,0.2
		c0,0.1,0.1,0.1,0.3,0.1l3.6,0c0.1,0,0.1,0,0.2-0.1s0.1-0.1,0.1-0.1c0-0.1-0.1-0.2-0.2-0.2c-0.4-0.2-0.6-0.3-0.7-0.4
		C212.2,33.5,212.1,33.4,212.2,33.4z M206.2,29.1c0-0.2-0.1-0.3-0.3-0.3h-0.6c-0.2,0-0.3,0.1-0.3,0.3l-0.1,0.5l0,0.1
		c0,0.1,0,0.1,0.1,0.2s0.1,0.1,0.2,0.1h0.7c0.1,0,0.2,0,0.2-0.1c0.1,0,0.1-0.1,0.1-0.2L206.2,29.1L206.2,29.1z M206.5,27.6
		c0-0.2-0.1-0.3-0.3-0.3h-0.6c-0.2,0-0.3,0.1-0.3,0.3c0,0.2-0.1,0.3-0.1,0.5l0,0.1c0,0.1,0,0.1,0.1,0.2s0.1,0.1,0.2,0.1h0.6
		c0.2,0,0.3-0.1,0.3-0.3C206.4,28,206.4,27.9,206.5,27.6L206.5,27.6z M208.3,29.1c0-0.2-0.1-0.3-0.3-0.3h-0.8
		c-0.2,0-0.3,0.1-0.3,0.3c0,0.1,0,0.3-0.1,0.5v0.1c0,0.2,0.1,0.3,0.3,0.3h0.8c0.2,0,0.3-0.1,0.3-0.2
		C208.3,29.5,208.3,29.4,208.3,29.1L208.3,29.1z M208.5,27.6c0-0.2-0.1-0.3-0.3-0.3h-0.6c-0.2,0-0.3,0.1-0.3,0.3
		c0,0.2,0,0.4-0.1,0.5v0.1c0,0.2,0.1,0.3,0.3,0.3h0.7c0.2,0,0.3-0.1,0.3-0.3L208.5,27.6L208.5,27.6z M213.4,29.7
		c0,0.1,0,0.1,0.1,0.2c0.7,0.6,1.5,1,2.4,1.2c0.2,0.1,0.3,0.1,0.3,0.2c0,0,0,0.1-0.1,0.1c-0.1,0-0.1,0.1-0.2,0.1
		c-0.1,0.1-0.2,0.2-0.3,0.3c-0.1,0.2-0.2,0.2-0.3,0.2c0,0-0.1,0-0.2,0c-0.9-0.4-1.7-0.9-2.3-1.6c-0.1-0.1-0.1-0.1-0.2-0.1
		s-0.1,0-0.2,0.1c-0.8,0.6-1.6,1-2.5,1.4c-0.1,0-0.2,0-0.2,0c-0.1,0-0.1,0-0.1-0.1v0c0-0.1,0.1-0.1,0.2-0.2c0.9-0.5,1.7-1,2.3-1.6
		c0.1-0.1,0.1-0.1,0.1-0.2c0-0.1,0-0.1-0.1-0.2c-0.3-0.5-0.6-1.2-0.9-2c0-0.1-0.1-0.2-0.2-0.2c-0.1,0-0.1,0-0.2,0.1
		c-0.1,0.2-0.3,0.3-0.4,0.4c-0.1,0.1-0.2,0.1-0.3,0.1c0,0,0,0,0-0.1c0-0.1,0-0.2,0.1-0.2c0,0,0.1-0.1,0.1-0.2
		c0.2-0.4,0.4-0.8,0.6-1.3c0.2-0.5,0.3-1,0.4-1.4c0-0.2,0.1-0.3,0.2-0.3c0,0,0.1,0,0.1,0c0.6,0.2,1,0.4,1,0.5c0,0,0,0.1-0.1,0.1l0,0
		c-0.1,0.1-0.2,0.2-0.3,0.3l-0.3,0.5c0,0.1-0.1,0.1-0.1,0.2c0,0.1,0,0.1,0.1,0.1c0,0,0.1,0.1,0.2,0.1h2.1c0.2,0,0.3-0.1,0.4-0.2
		l0.1-0.2c0,0,0.1-0.1,0.1-0.2c0.1-0.1,0.1-0.1,0.1-0.2c0,0,0.1-0.1,0.1-0.1c0.1,0,0.2,0.1,0.5,0.3c0.2,0.2,0.4,0.4,0.5,0.5
		c0.1,0.1,0.1,0.1,0.1,0.2c0,0.1,0,0.1-0.1,0.2c-0.1,0-0.2,0.1-0.3,0.1h-0.6c-0.2,0-0.3,0.1-0.4,0.3c-0.3,0.9-0.8,1.8-1.4,2.4
		C213.5,29.5,213.4,29.6,213.4,29.7z M211.2,35.9c0-0.1,0.1-0.1,0.3-0.1c0.9,0.1,1.6,0.3,2.2,0.5c0.6,0.2,1,0.5,1.2,0.7
		c0.2,0.3,0.4,0.5,0.4,0.7c0,0.1,0,0.2-0.1,0.3c-0.1,0.1-0.2,0.1-0.3,0.1h0c0,0-0.1,0-0.1,0c-0.1,0-0.1-0.1-0.1-0.1
		c-0.3-0.3-0.7-0.7-1.3-1s-1.2-0.6-1.9-0.9C211.3,36,211.2,35.9,211.2,35.9z M212.8,29c0.1,0,0.2,0,0.2-0.1c0.4-0.5,0.7-1.1,0.9-1.8
		c0,0,0-0.1,0-0.1c0-0.2-0.1-0.2-0.3-0.2h-1.8c-0.1,0-0.1,0-0.2,0.1c-0.1,0-0.1,0.1-0.1,0.2c0,0,0,0.1,0,0.2c0.3,0.7,0.6,1.3,1,1.8
		C212.6,29,212.7,29,212.8,29z"/>
	<path class="st2" d="M219.1,27.6C219.1,27.6,219.2,27.5,219.1,27.6c0.2-0.1,0.2,0,0.3,0.2c0.1,0.4,0.1,0.8,0.1,1.3
		c0,0.4,0,0.7-0.1,1.1c-0.1,0.3-0.2,0.6-0.3,0.8c-0.1,0.1-0.2,0.2-0.3,0.3s-0.2,0.1-0.4,0.1c0,0-0.1,0-0.2,0c-0.1,0-0.2-0.1-0.2-0.3
		l0-0.1c0-0.2,0.1-0.4,0.3-0.6c0.2-0.2,0.3-0.6,0.5-1c0.2-0.5,0.2-0.9,0.3-1.4C219.1,27.8,219.1,27.7,219.1,27.6z M220.2,27.4
		c0-1,0-1.9-0.1-2.7v-0.1c0-0.2,0.1-0.3,0.2-0.3c0,0,0.1,0,0.1,0c0.7,0.2,1.1,0.4,1.1,0.5c0,0,0,0.1-0.1,0.2l0,0
		c-0.1,0.1-0.2,0.2-0.2,0.4v8.6c0,1.1,0.1,2.2,0.1,3.3v0.1c0,0.1,0,0.2-0.1,0.3c-0.1,0.1-0.2,0.1-0.3,0.2c-0.1,0.1-0.3,0.1-0.4,0.1
		c-0.1,0-0.2,0-0.3-0.1c-0.1-0.1-0.1-0.1-0.1-0.2c0-0.6,0.1-1.2,0.1-1.7c0-0.6,0-1.3,0.1-2.2V27.4z M221.5,27.4L221.5,27.4
		c0.1,0,0.2,0,0.3,0.1c0.4,0.3,0.7,0.6,0.9,0.9s0.3,0.6,0.3,0.9c0,0.2,0,0.4-0.1,0.5c-0.1,0.1-0.2,0.2-0.3,0.2c-0.1,0-0.1,0-0.2,0
		c-0.1-0.1-0.2-0.2-0.2-0.4c0-0.6-0.2-1.2-0.6-1.9C221.4,27.6,221.4,27.5,221.5,27.4z M229.5,27.4l0.2-0.2c0,0,0.1-0.1,0.1-0.2
		s0.1-0.2,0.2-0.2c0,0,0.1-0.1,0.1-0.1c0.1,0,0.3,0.1,0.5,0.3c0.3,0.2,0.5,0.4,0.6,0.6c0.1,0.1,0.1,0.1,0.1,0.2c0,0,0,0.1-0.1,0.1
		c-0.1,0.1-0.2,0.1-0.3,0.1h-5.8c-0.1,0-0.2,0-0.2,0.1c-0.1,0.1-0.1,0.1-0.1,0.2V36c0,0.2,0.1,0.3,0.2,0.4c0.1,0.1,0.4,0.1,0.7,0.1
		h2c1,0,1.6,0,1.9,0c0.1,0,0.2,0,0.4,0l0.2,0c0.2,0,0.3-0.1,0.3-0.1c0.1,0,0.2,0,0.3,0.1c0.1,0,0.2,0.1,0.2,0.2
		c0,0.1,0.1,0.1,0.1,0.2c0,0.2-0.1,0.3-0.3,0.4s-0.5,0.2-1,0.2c-0.5,0-1.2,0.1-2.2,0.1l-2,0c-0.5,0-0.8,0-1.1-0.1
		c-0.2-0.1-0.4-0.2-0.5-0.4c-0.1-0.2-0.1-0.4-0.1-0.7v-7.9c0-0.1,0-0.2-0.1-0.2c-0.1-0.1-0.1-0.1-0.2-0.1h-0.1c-0.2,0-0.3,0-0.5,0.1
		c-0.1,0-0.1,0-0.1,0c-0.1,0-0.2-0.1-0.3-0.2l0-0.1c0-0.1,0-0.1,0-0.2c0-0.1,0-0.1,0.1-0.1s0.1,0,0.2,0c0.3,0,0.9,0.1,1.5,0.1h1.7
		c0.2,0,0.3,0,0.3,0v0c0-1,0-1.9-0.1-2.7v-0.1c0-0.1,0-0.1,0.1-0.2s0.1-0.1,0.2-0.1c0,0,0.1,0,0.1,0c0.4,0.1,0.7,0.2,0.8,0.3
		s0.2,0.1,0.2,0.2c0,0,0,0.1-0.1,0.1l0,0c-0.1,0.1-0.2,0.2-0.2,0.4v1.7c0,0.1,0,0.2,0.1,0.2s0.1,0.1,0.2,0.1h1.6
		C229.3,27.6,229.4,27.5,229.5,27.4z"/>
</g>
<g class="st1">
	<path class="st2" d="M274,29.1c0-0.2-0.1-0.3-0.3-0.3h0c-0.1,0-0.2,0-0.3,0.1c-0.1,0-0.1,0-0.2,0c-0.1,0-0.2-0.1-0.2-0.2l0-0.1
		c0-0.1,0-0.1,0-0.2c0-0.1,0.1-0.2,0.2-0.2c0.1,0,0.2,0,0.3,0c0.1,0,0.2,0,0.3,0h0.2c0.2,0,0.3-0.1,0.3-0.3c0.1-0.3,0.1-0.7,0.1-1
		V27c0-0.2-0.1-0.2-0.2-0.2c-0.1,0-0.1,0-0.2,0.1c-0.1,0.1-0.2,0.2-0.5,0.3c-0.1,0.1-0.3,0.1-0.3,0c0,0,0,0,0-0.1
		c0-0.1,0-0.1,0.1-0.2c0.3-0.3,0.5-0.7,0.8-1.1s0.4-0.9,0.5-1.3c0.1-0.1,0.1-0.2,0.2-0.2c0.1,0,0.1,0,0.2,0c0.6,0.2,0.9,0.4,0.9,0.5
		c0,0,0,0.1-0.1,0.1l-0.1,0c-0.1,0-0.2,0.1-0.3,0.3c0,0.1,0,0.2,0.1,0.2c0,0.1,0.1,0.1,0.2,0.1h2.6c0.2,0,0.3-0.1,0.4-0.2l0.1-0.2
		c0,0,0.1-0.1,0.1-0.2c0.1-0.1,0.1-0.1,0.1-0.2s0.1-0.1,0.1-0.1c0.1,0,0.2,0.1,0.4,0.3c0.2,0.2,0.4,0.4,0.5,0.5c0,0,0.1,0.1,0.1,0.2
		c0,0.1,0,0.1-0.1,0.2c-0.1,0-0.2,0.1-0.3,0.1H275c-0.2,0-0.3,0.1-0.4,0.2v0.1c0,0.1,0,0.2,0.1,0.3l0.4,0.2c0.1,0.1,0.2,0.1,0.4,0.1
		h2.4c0.2,0,0.3-0.1,0.4-0.2l0.1-0.1c0,0,0-0.1,0.1-0.1c0-0.1,0.1-0.1,0.1-0.1c0,0,0.1,0,0.1,0c0.1,0,0.2,0.1,0.4,0.2
		c0.2,0.2,0.3,0.3,0.4,0.5c0,0,0.1,0.1,0.1,0.2c0,0.1-0.1,0.1-0.2,0.2l-0.1,0c-0.1,0-0.2,0.1-0.2,0.1s-0.1,0.1-0.1,0.2l0,0.4
		c0,0.2,0.1,0.3,0.2,0.3s0.2-0.1,0.3-0.2l0.1-0.2c0.1-0.1,0.1-0.1,0.2-0.1c0.1,0,0.2,0,0.2,0.1c0,0,0.1,0.1,0.4,0.4
		c0.1,0.1,0.1,0.2,0.1,0.3c0,0.1,0,0.1-0.1,0.1c0,0-0.1,0.1-0.2,0.1h-1.1c-0.2,0-0.3,0.1-0.3,0.3c0,0.2,0,0.4-0.1,0.5v0.1
		c0,0.1,0,0.2,0.1,0.2c0.1,0,0.2-0.1,0.3-0.2l0.1-0.2c0.1-0.1,0.1-0.1,0.2-0.1c0.1,0,0.1,0,0.2,0.1l0.4,0.4c0.1,0.1,0.2,0.2,0.2,0.3
		c0,0,0,0.1-0.1,0.1c-0.1,0-0.1,0-0.2,0h-1c-0.2,0-0.3,0.1-0.3,0.3c-0.1,0.2-0.1,0.3-0.1,0.4c0,0.1,0,0.1,0,0.2
		c0,0.1,0.1,0.2,0.2,0.3c0.4,0.3,0.7,0.5,0.7,0.6c0,0,0,0.1-0.1,0.1h0c-0.1,0-0.3,0-0.4,0.1l-1,0.6c-0.1,0.1-0.2,0.1-0.2,0.2
		s0,0.1,0.1,0.2c0.1,0.2,0.2,0.3,0.2,0.5c0,0.1,0,0.2-0.1,0.3c-0.1,0.1-0.2,0.1-0.3,0.1c-0.1,0-0.2-0.1-0.3-0.2
		c-0.2-0.2-0.5-0.5-0.9-0.7c-0.4-0.2-0.7-0.4-1.1-0.6c-0.1,0-0.2-0.1-0.2-0.1c-0.1,0-0.1-0.1,0-0.1c0,0,0.1-0.1,0.2-0.1
		c0.7,0,1.3,0.1,1.8,0.3c0.1,0,0.1,0,0.2,0c0.1,0,0.2,0,0.3-0.1c0.2-0.2,0.4-0.4,0.5-0.5c0.1-0.1,0.2-0.2,0.2-0.3c0,0,0-0.1-0.1-0.1
		c-0.1,0.1-0.3,0.1-0.4,0.1h0c-0.1,0-0.2-0.1-0.3-0.2c0-0.1-0.1-0.1-0.1-0.2c-0.1-0.1-0.2-0.1-0.4-0.2c-0.2,0-0.3-0.1-0.3-0.2
		c0-0.1,0.1-0.1,0.3-0.1l0.5,0c0.1,0,0.2,0,0.3,0c0.2,0,0.3,0,0.4-0.1l0,0c0,0,0-0.1,0-0.1c0-0.1,0-0.1-0.1-0.2s-0.1-0.1-0.2-0.1
		h-2.6c-0.2,0-0.3,0.1-0.3,0.3c0,0.2-0.1,0.3-0.2,0.3c-0.1,0-0.1,0-0.2,0c-0.1,0-0.1,0-0.2,0c-0.2,0-0.3-0.1-0.3-0.3L274,29.1
		L274,29.1z M276.8,35.6c0.1,0,0.1,0,0.2,0.1l0.3,0.2c0.3,0.2,0.4,0.3,0.4,0.4c0,0-0.1,0.1-0.2,0.1h0h-0.1c-0.1,0-0.2,0-0.3,0.1
		c-0.4,0.3-1,0.5-1.6,0.8c-0.6,0.3-1.3,0.5-1.9,0.6c-0.1,0-0.1,0-0.2,0c-0.1,0-0.1,0-0.2-0.1l0,0c0-0.1,0.1-0.1,0.3-0.2
		c0.5-0.2,1.1-0.5,1.6-0.9s1-0.7,1.4-1C276.7,35.7,276.7,35.6,276.8,35.6z M282,33.4c0,0,0.1-0.1,0.2-0.1c0.1,0,0.1,0,0.2,0
		c0.7,0.1,1.3,0.3,1.8,0.5c0.5,0.2,0.8,0.5,1,0.7c0.2,0.2,0.3,0.5,0.3,0.7c0,0.1,0,0.2-0.1,0.3c-0.1,0.1-0.2,0.1-0.3,0.1h0
		c0,0-0.1,0-0.2-0.1c-0.1,0-0.1-0.1-0.2-0.2c-0.1-0.1-0.3-0.3-0.5-0.5c-0.1-0.1-0.3-0.1-0.4-0.1c-0.7,0.1-1.4,0.1-2,0.1l-1.6,0.1
		c-0.2,0-0.3,0.1-0.3,0.3V36l0,0.8c0,0.2,0,0.5,0,0.9v0.1c0,0.1-0.1,0.2-0.2,0.3c-0.2,0.1-0.4,0.2-0.7,0.2c-0.1,0-0.1,0-0.2-0.1
		c0-0.1-0.1-0.1-0.1-0.2c0-0.5,0.1-1.1,0.1-1.8v-0.7c0-0.1,0-0.2-0.1-0.2c-0.1-0.1-0.1-0.1-0.2-0.1l-4.2,0.2c-0.2,0-0.3,0-0.3,0.1
		c0,0,0,0-0.1,0.1c0,0.1-0.1,0.1-0.1,0.1c-0.1,0-0.2-0.1-0.3-0.2l-0.3-0.5c0-0.1-0.1-0.1-0.1-0.2c0-0.1,0.1-0.2,0.3-0.2l1.5,0l2.4,0
		c0.1,0,0.3,0,0.4-0.1l0.9-0.6c0.4-0.3,0.7-0.6,1.1-0.9s0.7-0.6,0.9-0.9c0.1-0.1,0.2-0.1,0.2-0.1c0.1,0,0.1,0,0.2,0.1
		c0.5,0.4,0.8,0.6,0.8,0.7c0,0-0.1,0.1-0.2,0.1h0h-0.1c-0.1,0-0.2,0-0.3,0.1c-0.5,0.4-1.3,0.8-2.2,1.3c-0.1,0.1-0.2,0.1-0.2,0.2
		c0,0.1,0.1,0.1,0.3,0.1l3.6,0c0.1,0,0.1,0,0.2-0.1s0.1-0.1,0.1-0.1c0-0.1-0.1-0.2-0.2-0.2c-0.4-0.2-0.6-0.3-0.7-0.4
		C282,33.5,281.9,33.4,282,33.4z M276,29.1c0-0.2-0.1-0.3-0.3-0.3h-0.6c-0.2,0-0.3,0.1-0.3,0.3l-0.1,0.5l0,0.1c0,0.1,0,0.1,0.1,0.2
		s0.1,0.1,0.2,0.1h0.7c0.1,0,0.2,0,0.2-0.1c0.1,0,0.1-0.1,0.1-0.2L276,29.1L276,29.1z M276.3,27.6c0-0.2-0.1-0.3-0.3-0.3h-0.6
		c-0.2,0-0.3,0.1-0.3,0.3c0,0.2-0.1,0.3-0.1,0.5l0,0.1c0,0.1,0,0.1,0.1,0.2s0.1,0.1,0.2,0.1h0.6c0.2,0,0.3-0.1,0.3-0.3
		C276.2,28,276.2,27.8,276.3,27.6L276.3,27.6z M278.1,29.1c0-0.2-0.1-0.3-0.3-0.3h-0.8c-0.2,0-0.3,0.1-0.3,0.3c0,0.1,0,0.3-0.1,0.5
		v0.1c0,0.2,0.1,0.3,0.3,0.3h0.8c0.2,0,0.3-0.1,0.3-0.2C278.1,29.5,278.1,29.3,278.1,29.1L278.1,29.1z M278.3,27.6
		c0-0.2-0.1-0.3-0.3-0.3h-0.6c-0.2,0-0.3,0.1-0.3,0.3c0,0.2,0,0.4-0.1,0.5v0.1c0,0.2,0.1,0.3,0.3,0.3h0.7c0.2,0,0.3-0.1,0.3-0.3
		L278.3,27.6L278.3,27.6z M283.3,29.7c0,0.1,0,0.1,0.1,0.2c0.7,0.6,1.5,1,2.4,1.2c0.2,0.1,0.3,0.1,0.3,0.2c0,0,0,0.1-0.1,0.1
		c-0.1,0-0.1,0.1-0.2,0.1c-0.1,0.1-0.2,0.2-0.3,0.3c-0.1,0.2-0.2,0.2-0.3,0.2c0,0-0.1,0-0.2,0c-0.9-0.4-1.7-0.9-2.3-1.6
		c-0.1-0.1-0.1-0.1-0.2-0.1s-0.1,0-0.2,0.1c-0.8,0.6-1.6,1-2.5,1.4c-0.1,0-0.2,0-0.2,0c-0.1,0-0.1,0-0.1-0.1v0
		c0-0.1,0.1-0.1,0.2-0.2c0.9-0.5,1.7-1,2.3-1.6c0.1-0.1,0.1-0.1,0.1-0.2c0-0.1,0-0.1-0.1-0.2c-0.3-0.5-0.6-1.2-0.9-2
		c0-0.1-0.1-0.2-0.2-0.2c-0.1,0-0.1,0-0.2,0.1c-0.1,0.2-0.3,0.3-0.4,0.4c-0.1,0.1-0.2,0.1-0.3,0.1c0,0,0,0,0-0.1
		c0-0.1,0-0.2,0.1-0.2c0,0,0.1-0.1,0.1-0.2c0.2-0.4,0.4-0.8,0.6-1.3c0.2-0.5,0.3-1,0.4-1.4c0-0.2,0.1-0.3,0.2-0.3c0,0,0.1,0,0.1,0
		c0.6,0.2,1,0.4,1,0.5c0,0,0,0.1-0.1,0.1l0,0c-0.1,0.1-0.2,0.2-0.3,0.3l-0.3,0.5c0,0.1-0.1,0.1-0.1,0.2c0,0.1,0,0.1,0.1,0.1
		c0,0,0.1,0.1,0.2,0.1h2.1c0.2,0,0.3-0.1,0.4-0.2l0.1-0.2c0,0,0.1-0.1,0.1-0.2c0.1-0.1,0.1-0.1,0.1-0.2c0,0,0.1-0.1,0.1-0.1
		c0.1,0,0.2,0.1,0.5,0.3c0.2,0.2,0.4,0.4,0.5,0.5c0.1,0.1,0.1,0.1,0.1,0.2c0,0.1,0,0.1-0.1,0.2c-0.1,0-0.2,0.1-0.3,0.1h-0.6
		c-0.2,0-0.3,0.1-0.4,0.3c-0.3,0.9-0.8,1.8-1.4,2.4C283.3,29.5,283.3,29.6,283.3,29.7z M281,35.8c0-0.1,0.1-0.1,0.3-0.1
		c0.9,0.1,1.6,0.3,2.2,0.5c0.6,0.2,1,0.5,1.2,0.7c0.2,0.3,0.4,0.5,0.4,0.7c0,0.1,0,0.2-0.1,0.3c-0.1,0.1-0.2,0.1-0.3,0.1h0
		c0,0-0.1,0-0.1,0c-0.1,0-0.1-0.1-0.1-0.1c-0.3-0.3-0.7-0.7-1.3-1s-1.2-0.6-1.9-0.9C281.1,36,281,35.9,281,35.8z M282.6,29
		c0.1,0,0.2,0,0.2-0.1c0.4-0.5,0.7-1.1,0.9-1.8c0,0,0-0.1,0-0.1c0-0.2-0.1-0.2-0.3-0.2h-1.8c-0.1,0-0.1,0-0.2,0.1
		c-0.1,0-0.1,0.1-0.1,0.2c0,0,0,0.1,0,0.2c0.3,0.7,0.6,1.3,1,1.8C282.5,29,282.5,29,282.6,29z"/>
	<path class="st2" d="M288.9,27.6C289,27.6,289,27.5,288.9,27.6c0.2-0.1,0.2,0,0.3,0.2c0.1,0.4,0.1,0.8,0.1,1.3c0,0.4,0,0.7-0.1,1.1
		c-0.1,0.3-0.2,0.6-0.3,0.8c-0.1,0.1-0.2,0.2-0.3,0.3s-0.2,0.1-0.4,0.1c0,0-0.1,0-0.2,0c-0.1,0-0.2-0.1-0.2-0.3l0-0.1
		c0-0.2,0.1-0.4,0.3-0.6c0.2-0.2,0.3-0.6,0.5-1c0.2-0.5,0.2-0.9,0.3-1.4C288.9,27.8,288.9,27.7,288.9,27.6z M290,27.4
		c0-1,0-1.9-0.1-2.7v-0.1c0-0.2,0.1-0.3,0.2-0.3c0,0,0.1,0,0.1,0c0.7,0.2,1.1,0.4,1.1,0.5c0,0,0,0.1-0.1,0.2l0,0
		c-0.1,0.1-0.2,0.2-0.2,0.4v8.6c0,1.1,0.1,2.2,0.1,3.3v0.1c0,0.1,0,0.2-0.1,0.3c-0.1,0.1-0.2,0.1-0.3,0.2c-0.1,0.1-0.3,0.1-0.4,0.1
		c-0.1,0-0.2,0-0.3-0.1c-0.1-0.1-0.1-0.1-0.1-0.2c0-0.6,0.1-1.2,0.1-1.7c0-0.6,0-1.3,0.1-2.2V27.4z M291.3,27.4L291.3,27.4
		c0.1,0,0.2,0,0.3,0.1c0.4,0.3,0.7,0.6,0.9,0.9s0.3,0.6,0.3,0.9c0,0.2,0,0.4-0.1,0.5c-0.1,0.1-0.2,0.2-0.3,0.2c-0.1,0-0.1,0-0.2,0
		c-0.1-0.1-0.2-0.2-0.2-0.4c0-0.6-0.2-1.2-0.6-1.9C291.2,27.6,291.2,27.5,291.3,27.4z M299.3,27.4l0.2-0.2c0,0,0.1-0.1,0.1-0.2
		s0.1-0.2,0.2-0.2c0,0,0.1-0.1,0.1-0.1c0.1,0,0.3,0.1,0.5,0.3c0.3,0.2,0.5,0.4,0.6,0.6c0.1,0.1,0.1,0.1,0.1,0.2c0,0,0,0.1-0.1,0.1
		c-0.1,0.1-0.2,0.1-0.3,0.1h-5.8c-0.1,0-0.2,0-0.2,0.1c-0.1,0.1-0.1,0.1-0.1,0.2V36c0,0.2,0.1,0.3,0.2,0.4c0.1,0.1,0.4,0.1,0.7,0.1
		h2c1,0,1.6,0,1.9,0c0.1,0,0.2,0,0.4,0l0.2,0c0.2,0,0.3-0.1,0.3-0.1c0.1,0,0.2,0,0.3,0.1c0.1,0,0.2,0.1,0.2,0.2
		c0,0.1,0.1,0.1,0.1,0.2c0,0.2-0.1,0.3-0.3,0.4s-0.5,0.2-1,0.2c-0.5,0-1.2,0.1-2.2,0.1l-2,0c-0.5,0-0.8,0-1.1-0.1
		c-0.2-0.1-0.4-0.2-0.5-0.4c-0.1-0.2-0.1-0.4-0.1-0.7v-7.9c0-0.1,0-0.2-0.1-0.2c-0.1-0.1-0.1-0.1-0.2-0.1h-0.1c-0.2,0-0.3,0-0.5,0.1
		c-0.1,0-0.1,0-0.1,0c-0.1,0-0.2-0.1-0.3-0.2l0-0.1c0-0.1,0-0.1,0-0.2c0-0.1,0-0.1,0.1-0.1s0.1,0,0.2,0c0.3,0,0.9,0.1,1.5,0.1h1.7
		c0.2,0,0.3,0,0.3,0v0c0-1,0-1.9-0.1-2.7v-0.1c0-0.1,0-0.1,0.1-0.2s0.1-0.1,0.2-0.1c0,0,0.1,0,0.1,0c0.4,0.1,0.7,0.2,0.8,0.3
		s0.2,0.1,0.2,0.2c0,0,0,0.1-0.1,0.1l0,0c-0.1,0.1-0.2,0.2-0.2,0.4v1.7c0,0.1,0,0.2,0.1,0.2s0.1,0.1,0.2,0.1h1.6
		C299.1,27.6,299.2,27.5,299.3,27.4z"/>
	<path class="st2" d="M306.2,36.8c-0.1,0.1-0.1,0.1-0.1,0.2c0,0.1,0,0.2,0,0.3l0,0.2c0,0.1,0,0.2-0.1,0.2c-0.1,0.1-0.2,0.2-0.3,0.2
		c-0.1,0.1-0.3,0.1-0.4,0.1c-0.1,0-0.2,0-0.2-0.1c-0.1-0.1-0.1-0.1-0.1-0.2c0-0.6,0.1-1.2,0.1-1.7c0-0.6,0-1.3,0.1-2.2v-5.5
		c0-1,0-1.8-0.1-2.6v-0.1c0-0.1,0-0.1,0.1-0.2s0.1-0.1,0.1-0.1c0.1,0,0.1,0,0.2,0l0.6,0.3c0.1,0.1,0.2,0.1,0.4,0.1h6
		c0.2,0,0.3-0.1,0.4-0.2l0.1-0.1c0,0,0.1-0.1,0.1-0.1c0-0.1,0.1-0.1,0.1-0.1c0,0,0.1,0,0.1,0c0.1,0,0.2,0.1,0.5,0.3
		c0.2,0.2,0.4,0.3,0.6,0.5c0,0,0.1,0.1,0.1,0.2c0,0.1,0,0.1-0.1,0.2c0,0-0.1,0-0.2,0.1c-0.2,0.1-0.3,0.2-0.3,0.4V34
		c0,1.1,0.1,2.2,0.1,3.3v0.1c0,0.1-0.1,0.2-0.2,0.3c-0.1,0.1-0.2,0.2-0.4,0.2c-0.1,0.1-0.3,0.1-0.4,0.1c-0.1,0-0.1,0-0.2-0.1
		c0,0,0-0.1,0-0.1c0,0,0-0.1,0-0.2c0,0,0-0.1,0-0.4V37c0-0.1,0-0.2-0.1-0.2c-0.1-0.1-0.1-0.1-0.2-0.1h-6.1
		C306.3,36.7,306.2,36.7,306.2,36.8z M312.7,30.9c0.1-0.1,0.1-0.1,0.1-0.2v-4c0-0.1,0-0.2-0.1-0.2c-0.1-0.1-0.1-0.1-0.2-0.1h-6.1
		c-0.1,0-0.2,0-0.2,0.1s-0.1,0.1-0.1,0.2v4c0,0.1,0,0.2,0.1,0.2c0.1,0.1,0.1,0.1,0.2,0.1h6.1C312.6,31,312.7,31,312.7,30.9z
		 M306.2,31.5c-0.1,0.1-0.1,0.1-0.1,0.2V36c0,0.1,0,0.2,0.1,0.2c0.1,0.1,0.1,0.1,0.2,0.1h6.1c0.1,0,0.2,0,0.2-0.1
		c0.1-0.1,0.1-0.1,0.1-0.2v-4.2c0-0.1,0-0.2-0.1-0.2c-0.1-0.1-0.1-0.1-0.2-0.1h-6.1C306.3,31.4,306.2,31.5,306.2,31.5z"/>
</g>
<g class="st1">
	<path class="st2" d="M98.3,98.4c-0.1,0-0.1-0.1-0.1-0.2c0-0.2,0-0.2,0.1-0.2h0.2c0.5,0,0.9-0.1,1.2-0.2c0.3-0.1,0.5-0.4,0.5-0.7
		v-7.2c0-0.3,0-0.5-0.1-0.6c-0.1-0.1-0.2-0.2-0.4-0.2S99.1,89,98.6,89h-0.3c-0.1,0-0.1-0.1-0.1-0.2c0-0.1,0-0.2,0.1-0.2
		c0.5,0,1-0.1,1.5-0.2s0.8-0.4,1.2-0.7c0.1-0.1,0.1-0.1,0.2-0.1c0.1,0,0.2,0.1,0.2,0.3v9.2c0,0.6,0.5,0.9,1.6,0.9h0.2
		c0,0,0.1,0,0.1,0.1c0,0,0,0.1,0,0.2c0,0.1,0,0.2-0.1,0.2H98.3z"/>
	<path class="st2" d="M111.5,95.4c0.1,0.1,0.1,0.1,0.1,0.2c0,0.1,0,0.2-0.1,0.2c-0.1,0.1-0.1,0.1-0.2,0.1h-1.1c-0.1,0-0.2,0-0.2,0.1
		c-0.1,0.1-0.1,0.1-0.1,0.2v1.2c0,0.2,0.1,0.4,0.3,0.4c0.2,0.1,0.4,0.1,0.8,0.1h0.2c0.1,0,0.1,0.1,0.1,0.2c0,0.1,0,0.2-0.1,0.2h-3.6
		c-0.1,0-0.1-0.1-0.1-0.2c0-0.1,0-0.2,0.1-0.2h0.2c0.3,0,0.6,0,0.8-0.1c0.2-0.1,0.3-0.2,0.3-0.4v-1.2c0-0.1,0-0.2-0.1-0.2
		c-0.1-0.1-0.1-0.1-0.2-0.1H105c-0.1,0-0.2,0-0.2-0.1c-0.1-0.1-0.1-0.1-0.1-0.2v-0.1c0-0.2,0-0.3,0.1-0.4l4.3-7.5
		c0.1-0.2,0.2-0.2,0.4-0.2l0.1,0c0.2,0,0.3,0.2,0.3,0.3V95c0,0.1,0,0.2,0.1,0.2c0.1,0.1,0.1,0.1,0.2,0.1h1.1
		C111.4,95.3,111.5,95.4,111.5,95.4z M108.7,90.1c0,0-0.1-0.1-0.1-0.1c-0.1,0-0.2,0.1-0.2,0.2l-2.7,4.7c0,0.1,0,0.1,0,0.2
		c0,0.1,0.1,0.2,0.3,0.2h2.6c0.1,0,0.2,0,0.2-0.1c0.1-0.1,0.1-0.1,0.1-0.2v-4.7C108.8,90.3,108.7,90.2,108.7,90.1z"/>
	<path class="st2" d="M113.1,100C113,100,113,99.9,113.1,100c0-0.1,0-0.1,0-0.1c0.2-0.2,0.3-0.3,0.4-0.5c0.1-0.2,0.1-0.3,0.1-0.4
		c0-0.2-0.1-0.3-0.2-0.3c-0.2-0.1-0.3-0.2-0.4-0.3c-0.1-0.1-0.1-0.3-0.1-0.4c0-0.2,0.1-0.4,0.2-0.6c0.2-0.2,0.4-0.2,0.6-0.2
		s0.4,0.1,0.6,0.2c0.2,0.2,0.2,0.4,0.2,0.6c0,0.5-0.1,0.9-0.4,1.2c-0.3,0.4-0.6,0.7-0.9,0.9L113.1,100
		C113.1,100,113.1,100,113.1,100z"/>
	<path class="st2" d="M117.9,98c-0.5-0.4-0.9-1-1.2-1.9c-0.3-0.8-0.4-1.9-0.4-3.1s0.1-2.2,0.4-3.1c0.3-0.9,0.7-1.5,1.2-1.9
		c0.5-0.4,1-0.6,1.6-0.6c0.6,0,1.1,0.2,1.6,0.6c0.5,0.4,0.9,1.1,1.2,1.9c0.3,0.8,0.4,1.9,0.4,3.1s-0.2,2.2-0.5,3.1
		c-0.3,0.8-0.7,1.5-1.2,1.9c-0.5,0.4-1,0.6-1.6,0.6C118.9,98.6,118.4,98.4,117.9,98z M120.9,96.9c0.3-0.8,0.5-2.1,0.5-3.8
		s-0.2-3-0.5-3.8c-0.3-0.9-0.8-1.3-1.4-1.3c-0.6,0-1.1,0.4-1.4,1.3c-0.3,0.9-0.5,2.1-0.5,3.8s0.2,3,0.5,3.8c0.3,0.8,0.8,1.3,1.4,1.3
		C120.1,98.1,120.5,97.7,120.9,96.9z"/>
	<path class="st2" d="M125.7,98c-0.5-0.4-0.9-1-1.2-1.9c-0.3-0.8-0.4-1.9-0.4-3.1s0.1-2.2,0.4-3.1c0.3-0.9,0.7-1.5,1.2-1.9
		c0.5-0.4,1-0.6,1.6-0.6c0.6,0,1.1,0.2,1.6,0.6c0.5,0.4,0.9,1.1,1.2,1.9c0.3,0.8,0.4,1.9,0.4,3.1s-0.2,2.2-0.5,3.1
		c-0.3,0.8-0.7,1.5-1.2,1.9c-0.5,0.4-1,0.6-1.6,0.6C126.7,98.6,126.2,98.4,125.7,98z M128.7,96.9c0.3-0.8,0.5-2.1,0.5-3.8
		s-0.2-3-0.5-3.8c-0.3-0.9-0.8-1.3-1.4-1.3c-0.6,0-1.1,0.4-1.4,1.3c-0.3,0.9-0.5,2.1-0.5,3.8s0.2,3,0.5,3.8c0.3,0.8,0.8,1.3,1.4,1.3
		C127.9,98.1,128.3,97.7,128.7,96.9z"/>
	<path class="st2" d="M133.5,98c-0.5-0.4-0.9-1-1.2-1.9c-0.3-0.8-0.4-1.9-0.4-3.1s0.1-2.2,0.4-3.1c0.3-0.9,0.7-1.5,1.2-1.9
		c0.5-0.4,1-0.6,1.6-0.6c0.6,0,1.1,0.2,1.6,0.6c0.5,0.4,0.9,1.1,1.2,1.9c0.3,0.8,0.4,1.9,0.4,3.1s-0.2,2.2-0.5,3.1
		c-0.3,0.8-0.7,1.5-1.2,1.9c-0.5,0.4-1,0.6-1.6,0.6C134.5,98.6,134,98.4,133.5,98z M136.5,96.9c0.3-0.8,0.5-2.1,0.5-3.8
		s-0.2-3-0.5-3.8c-0.3-0.9-0.8-1.3-1.4-1.3c-0.6,0-1.1,0.4-1.4,1.3c-0.3,0.9-0.5,2.1-0.5,3.8s0.2,3,0.5,3.8c0.3,0.8,0.8,1.3,1.4,1.3
		C135.7,98.1,136.1,97.7,136.5,96.9z"/>
	<path class="st2" d="M142,93.1c-0.1,0.1-0.1,0.1-0.1,0.2v2.3c0,1.1,0.1,2.2,0.1,3.3V99c0,0.1,0,0.2-0.1,0.3
		c-0.2,0.2-0.4,0.3-0.8,0.3c-0.1,0-0.2,0-0.2-0.1c-0.1-0.1-0.1-0.1-0.1-0.2c0-0.6,0.1-1.2,0.1-1.7c0-0.6,0-1.3,0.1-2.2v-5.7
		c0-1,0-1.8-0.1-2.6V87c0-0.2,0.1-0.2,0.2-0.2c0,0,0.1,0,0.2,0l0.6,0.3c0.1,0.1,0.3,0.1,0.4,0.1h8.5c0.2,0,0.3-0.1,0.4-0.2l0.1-0.1
		c0,0,0.1-0.1,0.1-0.2c0.1-0.1,0.1-0.1,0.2-0.1c0.1,0,0.2,0.1,0.5,0.3c0.2,0.2,0.4,0.3,0.6,0.5c0,0.1,0.1,0.1,0.1,0.2
		c0,0.1,0,0.1-0.1,0.2c0,0-0.1,0-0.1,0c0,0-0.1,0-0.1,0c-0.2,0.1-0.3,0.2-0.3,0.3v10c0,0.4-0.1,0.7-0.3,0.9
		c-0.2,0.2-0.6,0.4-1.1,0.4l-0.1,0c-0.1,0-0.2-0.1-0.3-0.3c-0.1-0.2-0.2-0.3-0.3-0.4c-0.2-0.2-0.7-0.3-1.2-0.3
		c-0.2,0-0.3-0.1-0.3-0.2s0.1-0.1,0.3-0.1c1,0.1,1.6,0.1,1.9,0.1c0.2,0,0.3,0,0.3-0.1c0.1-0.1,0.1-0.2,0.1-0.3v-4.6
		c0-0.1,0-0.2-0.1-0.2c-0.1-0.1-0.1-0.1-0.2-0.1h-8.6C142.1,93,142.1,93,142,93.1z M145.9,87.7c-0.1-0.1-0.1-0.1-0.2-0.1h-3.4
		c-0.1,0-0.2,0-0.2,0.1c-0.1,0.1-0.1,0.1-0.1,0.2v4.3c0,0.1,0,0.2,0.1,0.2c0.1,0.1,0.1,0.1,0.2,0.1h3.4c0.1,0,0.2,0,0.2-0.1
		c0.1-0.1,0.1-0.1,0.1-0.2v-4.3C146,87.8,146,87.8,145.9,87.7z M147,87.7c-0.1,0.1-0.1,0.1-0.1,0.2v4.3c0,0.1,0,0.2,0.1,0.2
		c0.1,0.1,0.1,0.1,0.2,0.1h3.5c0.1,0,0.2,0,0.2-0.1c0.1-0.1,0.1-0.1,0.1-0.2v-4.3c0-0.1,0-0.2-0.1-0.2c-0.1-0.1-0.1-0.1-0.2-0.1
		h-3.5C147.2,87.6,147.1,87.7,147,87.7z"/>
</g>
<g class="st1">
	<path class="st2" d="M106.3,150.4c0.5,0.4,0.9,0.9,1.2,1.6c0.3,0.7,0.4,1.5,0.4,2.4c0,1.4-0.2,2.7-0.6,3.7c-0.4,1-0.9,1.8-1.5,2.3
		s-1.2,0.8-1.8,0.8c-0.5,0-0.9-0.1-1.2-0.2c-0.3-0.1-0.6-0.3-0.8-0.5s-0.3-0.5-0.3-0.7c0-0.2,0.1-0.4,0.2-0.5
		c0.1-0.1,0.3-0.2,0.5-0.2c0.2,0,0.4,0.1,0.6,0.3c0.2,0.2,0.2,0.4,0.3,0.7c0,0.2,0.1,0.4,0.2,0.5c0.1,0.1,0.3,0.2,0.5,0.2
		c0.7,0,1.2-0.4,1.6-1.3c0.4-0.8,0.7-1.9,0.8-3c0-0.1,0-0.2,0-0.2c0-0.1-0.1-0.1-0.2-0.1s-0.2,0-0.3,0.1c-0.5,0.5-1.2,0.8-1.9,0.8
		c-0.6,0-1.1-0.1-1.5-0.4c-0.4-0.3-0.7-0.7-1-1.2c-0.2-0.5-0.3-1-0.3-1.5c0-0.7,0.1-1.3,0.4-1.9c0.3-0.6,0.6-1.1,1.1-1.4
		c0.5-0.3,1-0.5,1.7-0.5C105.2,149.9,105.7,150.1,106.3,150.4z M105.7,155.8c0.4-0.3,0.7-0.7,0.9-1.2c0-0.1,0.1-0.3,0.1-0.4
		c0-1.1-0.2-1.9-0.5-2.7s-0.8-1.1-1.6-1.1c-0.4,0-0.7,0.1-1,0.4c-0.3,0.3-0.5,0.6-0.7,1.1c-0.2,0.5-0.2,1-0.2,1.6
		c0,1.1,0.2,1.8,0.6,2.1c0.4,0.4,0.8,0.5,1.3,0.5C104.9,156.2,105.3,156,105.7,155.8z"/>
	<path class="st2" d="M110,162.4C109.9,162.4,109.9,162.4,110,162.4c0-0.1,0-0.1,0-0.1c0.2-0.2,0.3-0.3,0.4-0.5
		c0.1-0.2,0.1-0.3,0.1-0.4c0-0.2-0.1-0.3-0.2-0.3c-0.2-0.1-0.3-0.2-0.4-0.3c-0.1-0.1-0.1-0.3-0.1-0.4c0-0.2,0.1-0.4,0.2-0.6
		c0.2-0.2,0.4-0.2,0.6-0.2s0.4,0.1,0.6,0.2c0.2,0.2,0.2,0.4,0.2,0.6c0,0.5-0.1,0.9-0.4,1.2c-0.3,0.4-0.6,0.7-0.9,0.9L110,162.4
		C110,162.5,110,162.5,110,162.4z"/>
	<path class="st2" d="M114.8,160.5c-0.5-0.4-0.9-1-1.2-1.9c-0.3-0.8-0.4-1.9-0.4-3.1s0.1-2.2,0.4-3.1c0.3-0.9,0.7-1.5,1.2-1.9
		c0.5-0.4,1-0.6,1.6-0.6c0.6,0,1.1,0.2,1.6,0.6c0.5,0.4,0.9,1.1,1.2,1.9c0.3,0.8,0.4,1.9,0.4,3.1s-0.2,2.2-0.5,3.1
		c-0.3,0.8-0.7,1.5-1.2,1.9c-0.5,0.4-1,0.6-1.6,0.6C115.8,161.1,115.3,160.9,114.8,160.5z M117.8,159.3c0.3-0.8,0.5-2.1,0.5-3.8
		s-0.2-3-0.5-3.8c-0.3-0.9-0.8-1.3-1.4-1.3c-0.6,0-1.1,0.4-1.4,1.3c-0.3,0.9-0.5,2.1-0.5,3.8s0.2,3,0.5,3.8c0.3,0.8,0.8,1.3,1.4,1.3
		C117,160.6,117.4,160.2,117.8,159.3z"/>
	<path class="st2" d="M122.6,160.5c-0.5-0.4-0.9-1-1.2-1.9c-0.3-0.8-0.4-1.9-0.4-3.1s0.1-2.2,0.4-3.1c0.3-0.9,0.7-1.5,1.2-1.9
		c0.5-0.4,1-0.6,1.6-0.6c0.6,0,1.1,0.2,1.6,0.6c0.5,0.4,0.9,1.1,1.2,1.9c0.3,0.8,0.4,1.9,0.4,3.1s-0.2,2.2-0.5,3.1
		c-0.3,0.8-0.7,1.5-1.2,1.9c-0.5,0.4-1,0.6-1.6,0.6C123.6,161.1,123.1,160.9,122.6,160.5z M125.6,159.3c0.3-0.8,0.5-2.1,0.5-3.8
		s-0.2-3-0.5-3.8c-0.3-0.9-0.8-1.3-1.4-1.3c-0.6,0-1.1,0.4-1.4,1.3c-0.3,0.9-0.5,2.1-0.5,3.8s0.2,3,0.5,3.8c0.3,0.8,0.8,1.3,1.4,1.3
		C124.8,160.6,125.2,160.2,125.6,159.3z"/>
	<path class="st2" d="M130.4,160.5c-0.5-0.4-0.9-1-1.2-1.9c-0.3-0.8-0.4-1.9-0.4-3.1s0.1-2.2,0.4-3.1c0.3-0.9,0.7-1.5,1.2-1.9
		c0.5-0.4,1-0.6,1.6-0.6c0.6,0,1.1,0.2,1.6,0.6c0.5,0.4,0.9,1.1,1.2,1.9c0.3,0.8,0.4,1.9,0.4,3.1s-0.2,2.2-0.5,3.1
		c-0.3,0.8-0.7,1.5-1.2,1.9c-0.5,0.4-1,0.6-1.6,0.6C131.4,161.1,130.9,160.9,130.4,160.5z M133.4,159.3c0.3-0.8,0.5-2.1,0.5-3.8
		s-0.2-3-0.5-3.8c-0.3-0.9-0.8-1.3-1.4-1.3c-0.6,0-1.1,0.4-1.4,1.3c-0.3,0.9-0.5,2.1-0.5,3.8s0.2,3,0.5,3.8c0.3,0.8,0.8,1.3,1.4,1.3
		C132.6,160.6,133,160.2,133.4,159.3z"/>
	<path class="st2" d="M138.9,155.5c-0.1,0.1-0.1,0.1-0.1,0.2v2.3c0,1.1,0.1,2.2,0.1,3.3v0.1c0,0.1,0,0.2-0.1,0.3
		c-0.2,0.2-0.4,0.3-0.8,0.3c-0.1,0-0.2,0-0.2-0.1c-0.1-0.1-0.1-0.1-0.1-0.2c0-0.6,0.1-1.2,0.1-1.7c0-0.6,0-1.3,0.1-2.2v-5.7
		c0-1,0-1.8-0.1-2.6v-0.1c0-0.2,0.1-0.2,0.2-0.2c0,0,0.1,0,0.2,0l0.6,0.3c0.1,0.1,0.3,0.1,0.4,0.1h8.5c0.2,0,0.3-0.1,0.4-0.2
		l0.1-0.1c0,0,0.1-0.1,0.1-0.2c0.1-0.1,0.1-0.1,0.2-0.1c0.1,0,0.2,0.1,0.5,0.3c0.2,0.2,0.4,0.3,0.6,0.5c0,0.1,0.1,0.1,0.1,0.2
		c0,0.1,0,0.1-0.1,0.2c0,0-0.1,0-0.1,0c0,0-0.1,0-0.1,0c-0.2,0.1-0.3,0.2-0.3,0.3v10c0,0.4-0.1,0.7-0.3,0.9
		c-0.2,0.2-0.6,0.4-1.1,0.4l-0.1,0c-0.1,0-0.2-0.1-0.3-0.3c-0.1-0.2-0.2-0.3-0.3-0.4c-0.2-0.2-0.7-0.3-1.2-0.3
		c-0.2,0-0.3-0.1-0.3-0.2s0.1-0.1,0.3-0.1c1,0.1,1.6,0.1,1.9,0.1c0.2,0,0.3,0,0.3-0.1c0.1-0.1,0.1-0.2,0.1-0.3v-4.6
		c0-0.1,0-0.2-0.1-0.2c-0.1-0.1-0.1-0.1-0.2-0.1h-8.6C139,155.5,139,155.5,138.9,155.5z M142.8,150.2c-0.1-0.1-0.1-0.1-0.2-0.1h-3.4
		c-0.1,0-0.2,0-0.2,0.1c-0.1,0.1-0.1,0.1-0.1,0.2v4.3c0,0.1,0,0.2,0.1,0.2c0.1,0.1,0.1,0.1,0.2,0.1h3.4c0.1,0,0.2,0,0.2-0.1
		c0.1-0.1,0.1-0.1,0.1-0.2v-4.3C142.9,150.3,142.9,150.2,142.8,150.2z M143.9,150.2c-0.1,0.1-0.1,0.1-0.1,0.2v4.3
		c0,0.1,0,0.2,0.1,0.2c0.1,0.1,0.1,0.1,0.2,0.1h3.5c0.1,0,0.2,0,0.2-0.1c0.1-0.1,0.1-0.1,0.1-0.2v-4.3c0-0.1,0-0.2-0.1-0.2
		c-0.1-0.1-0.1-0.1-0.2-0.1h-3.5C144.1,150.1,144,150.1,143.9,150.2z"/>
</g>
<g class="st1">
	<path class="st2" d="M182.5,98.4c-0.1,0-0.1-0.1-0.1-0.2c0-0.2,0-0.2,0.1-0.2h0.2c0.5,0,0.9-0.1,1.2-0.2c0.3-0.1,0.4-0.4,0.4-0.7
		v-7.2c0-0.3,0-0.5-0.1-0.6c-0.1-0.1-0.2-0.2-0.4-0.2s-0.6-0.1-1.1-0.1h-0.3c-0.1,0-0.1-0.1-0.1-0.2c0-0.1,0-0.2,0.1-0.2
		c0.5,0,1-0.1,1.5-0.2s0.8-0.4,1.2-0.7c0.1-0.1,0.1-0.1,0.2-0.1c0.1,0,0.2,0.1,0.2,0.3v9.2c0,0.6,0.5,0.9,1.6,0.9h0.2
		c0,0,0.1,0,0.1,0.1c0,0,0,0.1,0,0.2c0,0.1,0,0.2-0.1,0.2H182.5z"/>
	<path class="st2" d="M193.5,91.7c0.5,0.2,0.9,0.6,1.2,1.1c0.4,0.5,0.5,1.2,0.5,2.2c0,0.7-0.2,1.4-0.5,1.9c-0.3,0.6-0.8,1-1.3,1.3
		c-0.5,0.3-1,0.5-1.5,0.5c-0.5,0-0.9-0.1-1.4-0.3c-0.4-0.2-0.8-0.4-1.1-0.8s-0.4-0.7-0.4-1.2c0-0.3,0.1-0.6,0.2-0.7
		c0.1-0.1,0.3-0.2,0.5-0.2c0.2,0,0.4,0.1,0.6,0.2s0.3,0.3,0.3,0.5c0,0.1,0,0.3-0.1,0.5c0,0,0,0.1,0,0.2c0,0.1,0,0.2,0,0.2
		c0,0.4,0.1,0.6,0.4,0.8c0.3,0.2,0.6,0.3,1,0.3c0.4,0,0.7-0.1,1-0.4c0.3-0.3,0.6-0.6,0.8-1.1c0.2-0.5,0.3-1,0.3-1.6
		c0-0.9-0.2-1.6-0.6-2.2c-0.4-0.5-0.9-0.8-1.5-0.8c-0.7,0-1.3,0.4-2,1.2c-0.1,0.1-0.1,0.1-0.2,0.2h-0.1c-0.1,0-0.1,0-0.1,0h0
		c-0.1-0.1-0.2-0.2-0.2-0.4l0.2-5.1c0-0.1,0-0.2,0.1-0.2c0.1-0.1,0.1-0.1,0.2-0.1h4.6c0.1,0,0.2,0,0.2,0.1c0.1,0.1,0.1,0.1,0,0.3
		l-0.1,0.5c0,0.1,0,0.2-0.1,0.2s-0.1,0.1-0.2,0.1h-4c-0.2,0-0.3,0.1-0.3,0.3l-0.1,3.1c0,0.1,0,0.2,0.2,0.2c0.1,0,0.2-0.1,0.4-0.2
		c0.3-0.2,0.6-0.4,0.9-0.5c0.3-0.1,0.6-0.1,0.9-0.1C192.6,91.4,193,91.5,193.5,91.7z"/>
	<path class="st2" d="M197.2,100C197.2,100,197.2,99.9,197.2,100c0-0.1,0-0.1,0-0.1c0.2-0.2,0.3-0.3,0.4-0.5
		c0.1-0.2,0.1-0.3,0.1-0.4c0-0.2-0.1-0.3-0.2-0.3c-0.2-0.1-0.3-0.2-0.4-0.3c-0.1-0.1-0.1-0.3-0.1-0.4c0-0.2,0.1-0.4,0.2-0.6
		s0.4-0.2,0.6-0.2s0.4,0.1,0.6,0.2s0.2,0.4,0.2,0.6c0,0.5-0.1,0.9-0.4,1.2c-0.3,0.4-0.6,0.7-0.9,0.9L197.2,100
		C197.3,100,197.3,100,197.2,100z"/>
	<path class="st2" d="M202.1,98c-0.5-0.4-0.9-1-1.2-1.9c-0.3-0.8-0.4-1.9-0.4-3.1s0.1-2.2,0.5-3.1c0.3-0.9,0.7-1.5,1.2-1.9
		c0.5-0.4,1-0.6,1.6-0.6c0.6,0,1.1,0.2,1.6,0.6c0.5,0.4,0.9,1.1,1.2,1.9c0.3,0.8,0.4,1.9,0.4,3.1s-0.2,2.2-0.4,3.1
		c-0.3,0.8-0.7,1.5-1.2,1.9c-0.5,0.4-1,0.6-1.6,0.6C203.1,98.6,202.6,98.4,202.1,98z M205,96.9c0.3-0.8,0.5-2.1,0.5-3.8
		s-0.2-3-0.5-3.8c-0.3-0.9-0.8-1.3-1.4-1.3c-0.6,0-1.1,0.4-1.4,1.3c-0.3,0.9-0.5,2.1-0.5,3.8s0.2,3,0.5,3.8c0.3,0.8,0.8,1.3,1.4,1.3
		C204.2,98.1,204.7,97.7,205,96.9z"/>
	<path class="st2" d="M209.9,98c-0.5-0.4-0.9-1-1.2-1.9c-0.3-0.8-0.4-1.9-0.4-3.1s0.2-2.2,0.4-3.1c0.3-0.9,0.7-1.5,1.2-1.9
		c0.5-0.4,1-0.6,1.6-0.6c0.6,0,1.1,0.2,1.6,0.6c0.5,0.4,0.9,1.1,1.2,1.9c0.3,0.8,0.4,1.9,0.4,3.1s-0.2,2.2-0.5,3.1
		c-0.3,0.8-0.7,1.5-1.2,1.9c-0.5,0.4-1,0.6-1.6,0.6C210.9,98.6,210.4,98.4,209.9,98z M212.8,96.9c0.3-0.8,0.5-2.1,0.5-3.8
		s-0.2-3-0.5-3.8c-0.3-0.9-0.8-1.3-1.4-1.3c-0.6,0-1.1,0.4-1.4,1.3c-0.3,0.9-0.5,2.1-0.5,3.8s0.2,3,0.5,3.8s0.8,1.3,1.4,1.3
		C212,98.1,212.5,97.7,212.8,96.9z"/>
	<path class="st2" d="M217.7,98c-0.5-0.4-0.9-1-1.2-1.9c-0.3-0.8-0.4-1.9-0.4-3.1s0.1-2.2,0.5-3.1c0.3-0.9,0.7-1.5,1.2-1.9
		c0.5-0.4,1-0.6,1.6-0.6c0.6,0,1.1,0.2,1.6,0.6c0.5,0.4,0.9,1.1,1.2,1.9c0.3,0.8,0.4,1.9,0.4,3.1s-0.2,2.2-0.4,3.1
		c-0.3,0.8-0.7,1.5-1.2,1.9c-0.5,0.4-1,0.6-1.6,0.6C218.7,98.6,218.2,98.4,217.7,98z M220.6,96.9c0.3-0.8,0.5-2.1,0.5-3.8
		s-0.2-3-0.5-3.8c-0.3-0.9-0.8-1.3-1.4-1.3c-0.6,0-1.1,0.4-1.4,1.3c-0.3,0.9-0.5,2.1-0.5,3.8s0.2,3,0.5,3.8c0.3,0.8,0.8,1.3,1.4,1.3
		C219.8,98.1,220.3,97.7,220.6,96.9z"/>
	<path class="st2" d="M226.2,93.1c-0.1,0.1-0.1,0.1-0.1,0.2v2.3c0,1.1,0.1,2.2,0.1,3.3V99c0,0.1,0,0.2-0.1,0.3
		c-0.2,0.2-0.5,0.3-0.8,0.3c-0.1,0-0.2,0-0.2-0.1c-0.1-0.1-0.1-0.1-0.1-0.2c0-0.6,0.1-1.2,0.1-1.7c0-0.6,0-1.3,0.1-2.2v-5.7
		c0-1,0-1.8-0.1-2.6V87c0-0.2,0.1-0.2,0.2-0.2c0,0,0.1,0,0.2,0l0.6,0.3c0.1,0.1,0.3,0.1,0.4,0.1h8.5c0.2,0,0.3-0.1,0.4-0.2l0.1-0.1
		c0,0,0.1-0.1,0.1-0.2c0.1-0.1,0.1-0.1,0.2-0.1c0.1,0,0.2,0.1,0.5,0.3c0.2,0.2,0.4,0.3,0.6,0.5c0,0.1,0.1,0.1,0.1,0.2
		c0,0.1,0,0.1-0.1,0.2c0,0-0.1,0-0.1,0s-0.1,0-0.1,0c-0.2,0.1-0.3,0.2-0.3,0.3v10c0,0.4-0.1,0.7-0.3,0.9c-0.2,0.2-0.6,0.4-1.1,0.4
		l-0.1,0c-0.1,0-0.2-0.1-0.3-0.3c-0.1-0.2-0.2-0.3-0.3-0.4c-0.2-0.2-0.7-0.3-1.2-0.3c-0.2,0-0.3-0.1-0.3-0.2s0.1-0.1,0.3-0.1
		c1,0.1,1.6,0.1,1.9,0.1c0.2,0,0.3,0,0.3-0.1c0.1-0.1,0.1-0.2,0.1-0.3v-4.6c0-0.1,0-0.2-0.1-0.2c-0.1-0.1-0.1-0.1-0.2-0.1h-8.6
		C226.3,93,226.2,93,226.2,93.1z M230.1,87.7c-0.1-0.1-0.1-0.1-0.2-0.1h-3.4c-0.1,0-0.2,0-0.2,0.1c-0.1,0.1-0.1,0.1-0.1,0.2v4.3
		c0,0.1,0,0.2,0.1,0.2c0.1,0.1,0.1,0.1,0.2,0.1h3.4c0.1,0,0.2,0,0.2-0.1c0.1-0.1,0.1-0.1,0.1-0.2v-4.3
		C230.2,87.8,230.1,87.8,230.1,87.7z M231.2,87.7c-0.1,0.1-0.1,0.1-0.1,0.2v4.3c0,0.1,0,0.2,0.1,0.2c0.1,0.1,0.1,0.1,0.2,0.1h3.5
		c0.1,0,0.2,0,0.2-0.1c0.1-0.1,0.1-0.1,0.1-0.2v-4.3c0-0.1,0-0.2-0.1-0.2c-0.1-0.1-0.1-0.1-0.2-0.1h-3.5
		C231.3,87.6,231.3,87.7,231.2,87.7z"/>
</g>
<g class="st1">
	<path class="st2" d="M182.4,160.9c-0.1,0-0.1-0.1-0.1-0.2c0-0.2,0-0.2,0.1-0.2h0.2c0.5,0,0.9-0.1,1.2-0.2c0.3-0.1,0.4-0.4,0.4-0.7
		v-7.2c0-0.3,0-0.5-0.1-0.6c-0.1-0.1-0.2-0.2-0.4-0.2s-0.6-0.1-1.1-0.1h-0.3c-0.1,0-0.1-0.1-0.1-0.2c0-0.1,0-0.2,0.1-0.2
		c0.5,0,1-0.1,1.5-0.2s0.8-0.4,1.2-0.7c0.1-0.1,0.1-0.1,0.2-0.1c0.1,0,0.2,0.1,0.2,0.3v9.2c0,0.6,0.5,0.9,1.6,0.9h0.2
		c0,0,0.1,0,0.1,0.1c0,0,0,0.1,0,0.2c0,0.1,0,0.2-0.1,0.2H182.4z"/>
	<path class="st2" d="M190.7,160.5c-0.5-0.4-0.9-1-1.2-1.9c-0.3-0.8-0.4-1.9-0.4-3.1s0.2-2.2,0.5-3.1c0.3-0.9,0.7-1.5,1.2-1.9
		c0.5-0.4,1-0.6,1.6-0.6c0.6,0,1.1,0.2,1.6,0.6c0.5,0.4,0.9,1.1,1.2,1.9c0.3,0.8,0.4,1.9,0.4,3.1s-0.2,2.2-0.5,3.1
		c-0.3,0.8-0.7,1.5-1.2,1.9s-1,0.6-1.6,0.6C191.7,161.1,191.1,160.9,190.7,160.5z M193.6,159.3c0.3-0.8,0.5-2.1,0.5-3.8
		s-0.2-3-0.5-3.8c-0.3-0.9-0.8-1.3-1.4-1.3c-0.6,0-1.1,0.4-1.4,1.3c-0.3,0.9-0.5,2.1-0.5,3.8s0.2,3,0.5,3.8c0.3,0.8,0.8,1.3,1.4,1.3
		C192.8,160.6,193.3,160.2,193.6,159.3z"/>
	<path class="st2" d="M197.4,162.4C197.3,162.4,197.3,162.4,197.4,162.4c0-0.1,0-0.1,0-0.1c0.2-0.2,0.3-0.3,0.4-0.5
		c0.1-0.2,0.1-0.3,0.1-0.4c0-0.2-0.1-0.3-0.2-0.3c-0.2-0.1-0.3-0.2-0.4-0.3c-0.1-0.1-0.1-0.3-0.1-0.4c0-0.2,0.1-0.4,0.2-0.6
		s0.4-0.2,0.6-0.2c0.2,0,0.4,0.1,0.6,0.2s0.2,0.4,0.2,0.6c0,0.5-0.1,0.9-0.4,1.2c-0.3,0.4-0.6,0.7-0.9,0.9L197.4,162.4
		C197.4,162.5,197.4,162.5,197.4,162.4z"/>
	<path class="st2" d="M202.2,160.5c-0.5-0.4-0.9-1-1.2-1.9c-0.3-0.8-0.4-1.9-0.4-3.1s0.1-2.2,0.4-3.1c0.3-0.9,0.7-1.5,1.2-1.9
		c0.5-0.4,1-0.6,1.6-0.6c0.6,0,1.1,0.2,1.6,0.6c0.5,0.4,0.9,1.1,1.2,1.9c0.3,0.8,0.4,1.9,0.4,3.1s-0.2,2.2-0.5,3.1
		c-0.3,0.8-0.7,1.5-1.2,1.9c-0.5,0.4-1,0.6-1.6,0.6C203.2,161.1,202.7,160.9,202.2,160.5z M205.2,159.3c0.3-0.8,0.5-2.1,0.5-3.8
		s-0.2-3-0.5-3.8c-0.3-0.9-0.8-1.3-1.4-1.3c-0.6,0-1.1,0.4-1.4,1.3c-0.3,0.9-0.5,2.1-0.5,3.8s0.2,3,0.5,3.8s0.8,1.3,1.4,1.3
		C204.4,160.6,204.8,160.2,205.2,159.3z"/>
	<path class="st2" d="M210,160.5c-0.5-0.4-0.9-1-1.2-1.9c-0.3-0.8-0.4-1.9-0.4-3.1s0.2-2.2,0.5-3.1c0.3-0.9,0.7-1.5,1.2-1.9
		c0.5-0.4,1-0.6,1.6-0.6c0.6,0,1.1,0.2,1.6,0.6c0.5,0.4,0.9,1.1,1.2,1.9c0.3,0.8,0.4,1.9,0.4,3.1s-0.2,2.2-0.5,3.1
		c-0.3,0.8-0.7,1.5-1.2,1.9s-1,0.6-1.6,0.6C211,161.1,210.5,160.9,210,160.5z M213,159.3c0.3-0.8,0.5-2.1,0.5-3.8s-0.2-3-0.5-3.8
		c-0.3-0.9-0.8-1.3-1.4-1.3c-0.6,0-1.1,0.4-1.4,1.3c-0.3,0.9-0.5,2.1-0.5,3.8s0.2,3,0.5,3.8c0.3,0.8,0.8,1.3,1.4,1.3
		C212.2,160.6,212.6,160.2,213,159.3z"/>
	<path class="st2" d="M217.8,160.5c-0.5-0.4-0.9-1-1.2-1.9c-0.3-0.8-0.4-1.9-0.4-3.1s0.1-2.2,0.4-3.1c0.3-0.9,0.7-1.5,1.2-1.9
		c0.5-0.4,1-0.6,1.6-0.6c0.6,0,1.1,0.2,1.6,0.6c0.5,0.4,0.9,1.1,1.2,1.9c0.3,0.8,0.4,1.9,0.4,3.1s-0.2,2.2-0.5,3.1
		c-0.3,0.8-0.7,1.5-1.2,1.9c-0.5,0.4-1,0.6-1.6,0.6C218.8,161.1,218.3,160.9,217.8,160.5z M220.8,159.3c0.3-0.8,0.5-2.1,0.5-3.8
		s-0.2-3-0.5-3.8c-0.3-0.9-0.8-1.3-1.4-1.3c-0.6,0-1.1,0.4-1.4,1.3c-0.3,0.9-0.5,2.1-0.5,3.8s0.2,3,0.5,3.8s0.8,1.3,1.4,1.3
		C220,160.6,220.4,160.2,220.8,159.3z"/>
	<path class="st2" d="M226.3,155.5c-0.1,0.1-0.1,0.1-0.1,0.2v2.3c0,1.1,0.1,2.2,0.1,3.3v0.1c0,0.1,0,0.2-0.1,0.3
		c-0.2,0.2-0.5,0.3-0.8,0.3c-0.1,0-0.2,0-0.2-0.1c-0.1-0.1-0.1-0.1-0.1-0.2c0-0.6,0.1-1.2,0.1-1.7c0-0.6,0-1.3,0.1-2.2v-5.7
		c0-1,0-1.8-0.1-2.6v-0.1c0-0.2,0.1-0.2,0.2-0.2c0,0,0.1,0,0.2,0l0.6,0.3c0.1,0.1,0.3,0.1,0.4,0.1h8.5c0.2,0,0.3-0.1,0.4-0.2
		l0.1-0.1c0,0,0.1-0.1,0.1-0.2c0.1-0.1,0.1-0.1,0.2-0.1c0.1,0,0.2,0.1,0.5,0.3c0.2,0.2,0.4,0.3,0.6,0.5c0,0.1,0.1,0.1,0.1,0.2
		c0,0.1,0,0.1-0.1,0.2c0,0-0.1,0-0.1,0c0,0-0.1,0-0.1,0c-0.2,0.1-0.3,0.2-0.3,0.3v10c0,0.4-0.1,0.7-0.3,0.9
		c-0.2,0.2-0.6,0.4-1.1,0.4l-0.1,0c-0.1,0-0.2-0.1-0.3-0.3c-0.1-0.2-0.2-0.3-0.3-0.4c-0.2-0.2-0.7-0.3-1.2-0.3
		c-0.2,0-0.3-0.1-0.3-0.2s0.1-0.1,0.3-0.1c1,0.1,1.6,0.1,1.9,0.1c0.2,0,0.3,0,0.3-0.1c0.1-0.1,0.1-0.2,0.1-0.3v-4.6
		c0-0.1,0-0.2-0.1-0.2c-0.1-0.1-0.1-0.1-0.2-0.1h-8.6C226.4,155.5,226.4,155.5,226.3,155.5z M230.2,150.2c-0.1-0.1-0.1-0.1-0.2-0.1
		h-3.4c-0.1,0-0.2,0-0.2,0.1c-0.1,0.1-0.1,0.1-0.1,0.2v4.3c0,0.1,0,0.2,0.1,0.2c0.1,0.1,0.1,0.1,0.2,0.1h3.4c0.1,0,0.2,0,0.2-0.1
		c0.1-0.1,0.1-0.1,0.1-0.2v-4.3C230.3,150.3,230.3,150.2,230.2,150.2z M231.3,150.2c-0.1,0.1-0.1,0.1-0.1,0.2v4.3
		c0,0.1,0,0.2,0.1,0.2c0.1,0.1,0.1,0.1,0.2,0.1h3.5c0.1,0,0.2,0,0.2-0.1c0.1-0.1,0.1-0.1,0.1-0.2v-4.3c0-0.1,0-0.2-0.1-0.2
		c-0.1-0.1-0.1-0.1-0.2-0.1h-3.5C231.5,150.1,231.4,150.1,231.3,150.2z"/>
</g>
<g class="st1">
	<path class="st2" d="M266.3,98.4c-0.1,0-0.1-0.1-0.1-0.2c0-0.2,0-0.2,0.1-0.2h0.2c0.5,0,0.9-0.1,1.2-0.2c0.3-0.1,0.4-0.4,0.4-0.7
		v-7.2c0-0.3,0-0.5-0.1-0.6c-0.1-0.1-0.2-0.2-0.4-0.2s-0.6-0.1-1.1-0.1h-0.3c-0.1,0-0.1-0.1-0.1-0.2c0-0.1,0-0.2,0.1-0.2
		c0.5,0,1-0.1,1.5-0.2s0.8-0.4,1.2-0.7c0.1-0.1,0.1-0.1,0.2-0.1c0.1,0,0.2,0.1,0.2,0.3v9.2c0,0.6,0.5,0.9,1.6,0.9h0.2
		c0,0,0.1,0,0.1,0.1c0,0,0,0.1,0,0.2c0,0.1,0,0.2-0.1,0.2H266.3z"/>
	<path class="st2" d="M278.3,92.1c0.4,0.3,0.7,0.7,1,1.2c0.2,0.5,0.3,1,0.3,1.5c0,0.7-0.1,1.3-0.4,1.9c-0.3,0.6-0.6,1.1-1.1,1.4
		c-0.5,0.4-1,0.5-1.7,0.5c-0.6,0-1.2-0.2-1.8-0.6s-0.9-0.9-1.2-1.6c-0.3-0.7-0.4-1.5-0.4-2.4c0-1.4,0.2-2.7,0.6-3.7
		c0.4-1,0.9-1.8,1.5-2.3c0.6-0.5,1.2-0.8,1.8-0.8c0.5,0,0.9,0.1,1.2,0.2c0.3,0.1,0.6,0.3,0.8,0.5c0.2,0.2,0.3,0.5,0.3,0.7
		c0,0.2-0.1,0.4-0.2,0.5s-0.3,0.2-0.5,0.2c-0.2,0-0.4-0.1-0.6-0.3c-0.2-0.2-0.2-0.4-0.3-0.7c0-0.2-0.1-0.4-0.2-0.5
		c-0.1-0.1-0.3-0.2-0.5-0.2c-0.7,0-1.2,0.4-1.6,1.3c-0.4,0.8-0.7,1.9-0.8,3c0,0.1,0,0.1,0,0.2c0,0,0.1,0.1,0.2,0.1
		c0.1,0,0.2-0.1,0.4-0.2c0.5-0.4,1.1-0.7,1.8-0.7C277.4,91.6,277.9,91.8,278.3,92.1z M277.4,97.7c0.3-0.3,0.5-0.6,0.7-1.1
		c0.2-0.5,0.2-1,0.2-1.6c0-1.1-0.2-1.8-0.6-2.1c-0.4-0.3-0.8-0.5-1.3-0.5c-0.4,0-0.8,0.1-1.2,0.4c-0.4,0.3-0.7,0.7-0.9,1.2
		c0,0.1-0.1,0.3-0.1,0.4c0,1.1,0.2,1.9,0.5,2.7s0.8,1.1,1.6,1.1C276.7,98.1,277.1,97.9,277.4,97.7z"/>
	<path class="st2" d="M281.5,100C281.5,100,281.4,99.9,281.5,100c0-0.1,0-0.1,0-0.1c0.2-0.2,0.3-0.3,0.4-0.5
		c0.1-0.2,0.1-0.3,0.1-0.4c0-0.2-0.1-0.3-0.2-0.3c-0.2-0.1-0.3-0.2-0.4-0.3c-0.1-0.1-0.1-0.3-0.1-0.4c0-0.2,0.1-0.4,0.2-0.6
		c0.2-0.2,0.4-0.2,0.6-0.2s0.4,0.1,0.6,0.2c0.2,0.2,0.2,0.4,0.2,0.6c0,0.5-0.1,0.9-0.4,1.2c-0.3,0.4-0.6,0.7-0.9,0.9L281.5,100
		C281.5,100,281.5,100,281.5,100z"/>
	<path class="st2" d="M286.3,98c-0.5-0.4-0.9-1-1.2-1.9c-0.3-0.8-0.4-1.9-0.4-3.1s0.2-2.2,0.4-3.1c0.3-0.9,0.7-1.5,1.2-1.9
		c0.5-0.4,1-0.6,1.6-0.6c0.6,0,1.1,0.2,1.6,0.6c0.5,0.4,0.9,1.1,1.2,1.9c0.3,0.8,0.4,1.9,0.4,3.1s-0.2,2.2-0.5,3.1
		c-0.3,0.8-0.7,1.5-1.2,1.9c-0.5,0.4-1,0.6-1.6,0.6C287.3,98.6,286.8,98.4,286.3,98z M289.3,96.9c0.3-0.8,0.5-2.1,0.5-3.8
		s-0.2-3-0.5-3.8c-0.3-0.9-0.8-1.3-1.4-1.3c-0.6,0-1.1,0.4-1.4,1.3c-0.3,0.9-0.5,2.1-0.5,3.8s0.2,3,0.5,3.8s0.8,1.3,1.4,1.3
		C288.5,98.1,288.9,97.7,289.3,96.9z"/>
	<path class="st2" d="M294.1,98c-0.5-0.4-0.9-1-1.2-1.9c-0.3-0.8-0.4-1.9-0.4-3.1s0.1-2.2,0.5-3.1c0.3-0.9,0.7-1.5,1.2-1.9
		c0.5-0.4,1-0.6,1.6-0.6c0.6,0,1.1,0.2,1.6,0.6c0.5,0.4,0.9,1.1,1.2,1.9c0.3,0.8,0.4,1.9,0.4,3.1s-0.2,2.2-0.4,3.1
		c-0.3,0.8-0.7,1.5-1.2,1.9c-0.5,0.4-1,0.6-1.6,0.6C295.1,98.6,294.6,98.4,294.1,98z M297.1,96.9c0.3-0.8,0.5-2.1,0.5-3.8
		s-0.2-3-0.5-3.8c-0.3-0.9-0.8-1.3-1.4-1.3c-0.6,0-1.1,0.4-1.4,1.3c-0.3,0.9-0.5,2.1-0.5,3.8s0.2,3,0.5,3.8c0.3,0.8,0.8,1.3,1.4,1.3
		C296.3,98.1,296.7,97.7,297.1,96.9z"/>
	<path class="st2" d="M301.9,98c-0.5-0.4-0.9-1-1.2-1.9c-0.3-0.8-0.4-1.9-0.4-3.1s0.2-2.2,0.4-3.1c0.3-0.9,0.7-1.5,1.2-1.9
		c0.5-0.4,1-0.6,1.6-0.6c0.6,0,1.1,0.2,1.6,0.6c0.5,0.4,0.9,1.1,1.2,1.9c0.3,0.8,0.4,1.9,0.4,3.1s-0.2,2.2-0.5,3.1
		c-0.3,0.8-0.7,1.5-1.2,1.9c-0.5,0.4-1,0.6-1.6,0.6C302.9,98.6,302.4,98.4,301.9,98z M304.9,96.9c0.3-0.8,0.5-2.1,0.5-3.8
		s-0.2-3-0.5-3.8c-0.3-0.9-0.8-1.3-1.4-1.3c-0.6,0-1.1,0.4-1.4,1.3c-0.3,0.9-0.5,2.1-0.5,3.8s0.2,3,0.5,3.8s0.8,1.3,1.4,1.3
		C304.1,98.1,304.5,97.7,304.9,96.9z"/>
	<path class="st2" d="M310.4,93.1c-0.1,0.1-0.1,0.1-0.1,0.2v2.3c0,1.1,0.1,2.2,0.1,3.3V99c0,0.1,0,0.2-0.1,0.3
		c-0.2,0.2-0.4,0.3-0.8,0.3c-0.1,0-0.2,0-0.2-0.1c-0.1-0.1-0.1-0.1-0.1-0.2c0-0.6,0.1-1.2,0.1-1.7c0-0.6,0.1-1.3,0.1-2.2v-5.7
		c0-1,0-1.8-0.1-2.6V87c0-0.2,0.1-0.2,0.2-0.2c0,0,0.1,0,0.2,0l0.6,0.3c0.1,0.1,0.3,0.1,0.4,0.1h8.5c0.2,0,0.3-0.1,0.4-0.2l0.1-0.1
		c0,0,0.1-0.1,0.1-0.2c0.1-0.1,0.1-0.1,0.2-0.1c0.1,0,0.2,0.1,0.5,0.3c0.2,0.2,0.4,0.3,0.6,0.5c0,0.1,0.1,0.1,0.1,0.2
		c0,0.1,0,0.1-0.1,0.2c0,0-0.1,0-0.1,0c0,0-0.1,0-0.1,0c-0.2,0.1-0.3,0.2-0.3,0.3v10c0,0.4-0.1,0.7-0.3,0.9
		c-0.2,0.2-0.6,0.4-1.1,0.4l-0.1,0c-0.1,0-0.2-0.1-0.3-0.3c-0.1-0.2-0.2-0.3-0.3-0.4c-0.2-0.2-0.7-0.3-1.2-0.3
		c-0.2,0-0.3-0.1-0.3-0.2s0.1-0.1,0.3-0.1c1,0.1,1.6,0.1,1.9,0.1c0.2,0,0.3,0,0.3-0.1c0.1-0.1,0.1-0.2,0.1-0.3v-4.6
		c0-0.1,0-0.2-0.1-0.2c-0.1-0.1-0.1-0.1-0.2-0.1h-8.6C310.6,93,310.5,93,310.4,93.1z M314.3,87.7c-0.1-0.1-0.1-0.1-0.2-0.1h-3.4
		c-0.1,0-0.2,0-0.2,0.1c-0.1,0.1-0.1,0.1-0.1,0.2v4.3c0,0.1,0,0.2,0.1,0.2c0.1,0.1,0.1,0.1,0.2,0.1h3.4c0.1,0,0.2,0,0.2-0.1
		c0.1-0.1,0.1-0.1,0.1-0.2v-4.3C314.4,87.8,314.4,87.8,314.3,87.7z M315.4,87.7c-0.1,0.1-0.1,0.1-0.1,0.2v4.3c0,0.1,0,0.2,0.1,0.2
		c0.1,0.1,0.1,0.1,0.2,0.1h3.5c0.1,0,0.2,0,0.2-0.1c0.1-0.1,0.1-0.1,0.1-0.2v-4.3c0-0.1,0-0.2-0.1-0.2c-0.1-0.1-0.1-0.1-0.2-0.1
		h-3.5C315.6,87.6,315.5,87.7,315.4,87.7z"/>
</g>
<g class="st1">
	<path class="st2" d="M266.6,160.9c-0.1,0-0.1-0.1-0.1-0.2c0-0.2,0-0.2,0.1-0.2h0.2c0.5,0,0.9-0.1,1.2-0.2c0.3-0.1,0.4-0.4,0.4-0.7
		v-7.2c0-0.3,0-0.5-0.1-0.6c-0.1-0.1-0.2-0.2-0.4-0.2s-0.6-0.1-1.1-0.1h-0.3c-0.1,0-0.1-0.1-0.1-0.2c0-0.1,0-0.2,0.1-0.2
		c0.5,0,1-0.1,1.5-0.2s0.8-0.4,1.2-0.7c0.1-0.1,0.1-0.1,0.2-0.1c0.1,0,0.2,0.1,0.2,0.3v9.2c0,0.6,0.5,0.9,1.6,0.9h0.2
		c0,0,0.1,0,0.1,0.1c0,0,0,0.1,0,0.2c0,0.1,0,0.2-0.1,0.2H266.6z"/>
	<path class="st2" d="M274,160.9c-0.1,0-0.1-0.1-0.1-0.2c0-0.2,0-0.2,0.1-0.2h0.2c0.5,0,0.9-0.1,1.2-0.2c0.3-0.1,0.5-0.4,0.5-0.7
		v-7.2c0-0.3,0-0.5-0.1-0.6c-0.1-0.1-0.2-0.2-0.4-0.2s-0.6-0.1-1.1-0.1H274c-0.1,0-0.1-0.1-0.1-0.2c0-0.1,0-0.2,0.1-0.2
		c0.5,0,1-0.1,1.5-0.2c0.4-0.1,0.8-0.4,1.2-0.7c0.1-0.1,0.1-0.1,0.2-0.1c0.1,0,0.2,0.1,0.2,0.3v9.2c0,0.6,0.5,0.9,1.6,0.9h0.2
		c0,0,0.1,0,0.1,0.1c0,0,0,0.1,0,0.2c0,0.1,0,0.2-0.1,0.2H274z"/>
	<path class="st2" d="M281.1,162.4C281.1,162.4,281.1,162.4,281.1,162.4c0-0.1,0-0.1,0-0.1c0.2-0.2,0.3-0.3,0.4-0.5
		c0.1-0.2,0.1-0.3,0.1-0.4c0-0.2-0.1-0.3-0.2-0.3c-0.2-0.1-0.3-0.2-0.4-0.3c-0.1-0.1-0.1-0.3-0.1-0.4c0-0.2,0.1-0.4,0.2-0.6
		c0.2-0.2,0.4-0.2,0.6-0.2c0.2,0,0.4,0.1,0.6,0.2c0.2,0.2,0.2,0.4,0.2,0.6c0,0.5-0.1,0.9-0.4,1.2c-0.3,0.4-0.6,0.7-0.9,0.9
		L281.1,162.4C281.2,162.5,281.2,162.5,281.1,162.4z"/>
	<path class="st2" d="M286,160.5c-0.5-0.4-0.9-1-1.2-1.9c-0.3-0.8-0.4-1.9-0.4-3.1s0.2-2.2,0.5-3.1c0.3-0.9,0.7-1.5,1.2-1.9
		c0.5-0.4,1-0.6,1.6-0.6c0.6,0,1.1,0.2,1.6,0.6c0.5,0.4,0.9,1.1,1.2,1.9c0.3,0.8,0.4,1.9,0.4,3.1s-0.2,2.2-0.5,3.1
		c-0.3,0.8-0.7,1.5-1.2,1.9s-1,0.6-1.6,0.6C287,161.1,286.5,160.9,286,160.5z M288.9,159.3c0.3-0.8,0.5-2.1,0.5-3.8s-0.2-3-0.5-3.8
		c-0.3-0.9-0.8-1.3-1.4-1.3c-0.6,0-1.1,0.4-1.4,1.3c-0.3,0.9-0.5,2.1-0.5,3.8s0.2,3,0.5,3.8c0.3,0.8,0.8,1.3,1.4,1.3
		C288.2,160.6,288.6,160.2,288.9,159.3z"/>
	<path class="st2" d="M293.8,160.5c-0.5-0.4-0.9-1-1.2-1.9c-0.3-0.8-0.4-1.9-0.4-3.1s0.1-2.2,0.4-3.1c0.3-0.9,0.7-1.5,1.2-1.9
		c0.5-0.4,1-0.6,1.6-0.6c0.6,0,1.1,0.2,1.6,0.6c0.5,0.4,0.9,1.1,1.2,1.9c0.3,0.8,0.4,1.9,0.4,3.1s-0.2,2.2-0.5,3.1
		c-0.3,0.8-0.7,1.5-1.2,1.9c-0.5,0.4-1,0.6-1.6,0.6C294.8,161.1,294.3,160.9,293.8,160.5z M296.7,159.3c0.3-0.8,0.5-2.1,0.5-3.8
		s-0.2-3-0.5-3.8c-0.3-0.9-0.8-1.3-1.4-1.3c-0.6,0-1.1,0.4-1.4,1.3c-0.3,0.9-0.5,2.1-0.5,3.8s0.2,3,0.5,3.8s0.8,1.3,1.4,1.3
		C296,160.6,296.4,160.2,296.7,159.3z"/>
	<path class="st2" d="M301.6,160.5c-0.5-0.4-0.9-1-1.2-1.9c-0.3-0.8-0.4-1.9-0.4-3.1s0.2-2.2,0.5-3.1c0.3-0.9,0.7-1.5,1.2-1.9
		c0.5-0.4,1-0.6,1.6-0.6c0.6,0,1.1,0.2,1.6,0.6c0.5,0.4,0.9,1.1,1.2,1.9c0.3,0.8,0.4,1.9,0.4,3.1s-0.2,2.2-0.5,3.1
		c-0.3,0.8-0.7,1.5-1.2,1.9s-1,0.6-1.6,0.6C302.6,161.1,302.1,160.9,301.6,160.5z M304.5,159.3c0.3-0.8,0.5-2.1,0.5-3.8
		s-0.2-3-0.5-3.8c-0.3-0.9-0.8-1.3-1.4-1.3c-0.6,0-1.1,0.4-1.4,1.3c-0.3,0.9-0.5,2.1-0.5,3.8s0.2,3,0.5,3.8c0.3,0.8,0.8,1.3,1.4,1.3
		C303.8,160.6,304.2,160.2,304.5,159.3z"/>
	<path class="st2" d="M310.1,155.5c-0.1,0.1-0.1,0.1-0.1,0.2v2.3c0,1.1,0.1,2.2,0.1,3.3v0.1c0,0.1,0,0.2-0.1,0.3
		c-0.2,0.2-0.4,0.3-0.8,0.3c-0.1,0-0.2,0-0.2-0.1c-0.1-0.1-0.1-0.1-0.1-0.2c0-0.6,0.1-1.2,0.1-1.7c0-0.6,0-1.3,0.1-2.2v-5.7
		c0-1,0-1.8-0.1-2.6v-0.1c0-0.2,0.1-0.2,0.2-0.2c0.1,0,0.1,0,0.2,0l0.6,0.3c0.1,0.1,0.3,0.1,0.4,0.1h8.5c0.2,0,0.3-0.1,0.4-0.2
		l0.1-0.1c0,0,0.1-0.1,0.1-0.2c0.1-0.1,0.1-0.1,0.2-0.1c0.1,0,0.2,0.1,0.5,0.3c0.2,0.2,0.4,0.3,0.6,0.5c0,0.1,0.1,0.1,0.1,0.2
		c0,0.1,0,0.1-0.1,0.2c0,0-0.1,0-0.1,0c0,0-0.1,0-0.1,0c-0.2,0.1-0.3,0.2-0.3,0.3v10c0,0.4-0.1,0.7-0.3,0.9
		c-0.2,0.2-0.6,0.4-1.1,0.4l-0.1,0c-0.1,0-0.2-0.1-0.3-0.3c-0.1-0.2-0.2-0.3-0.3-0.4c-0.2-0.2-0.7-0.3-1.2-0.3
		c-0.2,0-0.3-0.1-0.3-0.2s0.1-0.1,0.3-0.1c1,0.1,1.6,0.1,1.9,0.1c0.2,0,0.3,0,0.3-0.1c0.1-0.1,0.1-0.2,0.1-0.3v-4.6
		c0-0.1,0-0.2-0.1-0.2c-0.1-0.1-0.1-0.1-0.2-0.1h-8.6C310.2,155.5,310.1,155.5,310.1,155.5z M314,150.2c-0.1-0.1-0.1-0.1-0.2-0.1
		h-3.4c-0.1,0-0.2,0-0.2,0.1c-0.1,0.1-0.1,0.1-0.1,0.2v4.3c0,0.1,0,0.2,0.1,0.2c0.1,0.1,0.1,0.1,0.2,0.1h3.4c0.1,0,0.2,0,0.2-0.1
		c0.1-0.1,0.1-0.1,0.1-0.2v-4.3C314.1,150.3,314,150.2,314,150.2z M315.1,150.2c-0.1,0.1-0.1,0.1-0.1,0.2v4.3c0,0.1,0,0.2,0.1,0.2
		c0.1,0.1,0.1,0.1,0.2,0.1h3.5c0.1,0,0.2,0,0.2-0.1c0.1-0.1,0.1-0.1,0.1-0.2v-4.3c0-0.1,0-0.2-0.1-0.2c-0.1-0.1-0.1-0.1-0.2-0.1
		h-3.5C315.2,150.1,315.2,150.1,315.1,150.2z"/>
</g>
</svg>
