<svg xmlns="http://www.w3.org/2000/svg" width="800" height="316.25"><g data-name="グループ 2886"><text fill="#fff" data-name="ろ過済み天水 500ml/100円" font-family="ShipporiMinchoB1-Regular, Shippori Mincho B1" font-size="15" transform="translate(269 46.954)"><tspan x="0" y="0">ろ過済み天水</tspan><tspan x="0" y="21">500ml/100円</tspan></text><text fill="#fff" data-name="ろ過済み 天水お湯かお茶 500ml/200円" font-family="ShipporiMinchoB1-Regular, Shippori Mincho B1" font-size="15" transform="translate(518 36.954)"><tspan x="-30" y="0">ろ過済み</tspan><tspan x="-52.5" y="21">天水お湯かお茶</tspan><tspan x="-43.575" y="42">500ml/200円</tspan></text><text fill="#fff" data-name="計り売り ミネラルウォーター 500ml/300円" font-family="ShipporiMinchoB1-Regular, Shippori Mincho B1" font-size="15" transform="translate(710 36.954)"><tspan x="-30" y="0">計り売り</tspan><tspan x="-67.5" y="21">ミネラルウォーター</tspan><tspan x="-43.665" y="42">500ml/300円</tspan></text><text fill="#fff" font-family="ShipporiMinchoB1-Regular, Shippori Mincho B1" font-size="15" transform="translate(72 147.545)"><tspan x="0" y="0">宿泊者</tspan></text><text fill="#fff" data-name="500ml上限" font-family="ShipporiMinchoB1-Regular, Shippori Mincho B1" font-size="15" transform="translate(278 148.545)"><tspan x="0" y="0">500ml上限</tspan></text><text fill="#fff" data-name="500ml上限" font-family="ShipporiMinchoB1-Regular, Shippori Mincho B1" font-size="15" transform="translate(483 147.545)"><tspan x="0" y="0">500ml上限</tspan></text><text fill="#fff" font-family="ShipporiMinchoB1-Regular, Shippori Mincho B1" font-size="15" transform="translate(676 147.545)"><tspan x="0" y="0">制限なし</tspan></text><text fill="#fff" data-name="宿泊者 (読売新道・竹村新道方面" font-family="ShipporiMinchoB1-Regular, Shippori Mincho B1" font-size="15" transform="translate(95 200.863)"><tspan x="-22.5" y="0">宿泊者</tspan><tspan x="-85.223" y="21">(読売新道・竹村新道方面</tspan></text><text fill="#fff" data-name="1ℓ上限" font-family="ShipporiMinchoB1-Regular, Shippori Mincho B1" font-size="15" transform="translate(293 210.863)"><tspan x="0" y="0">1</tspan><tspan y="0" font-family="SegoeUI, Segoe UI">ℓ</tspan><tspan y="0">上限</tspan></text><text fill="#fff" font-family="ShipporiMinchoB1-Regular, Shippori Mincho B1" font-size="15" transform="translate(254 285.545)"><tspan x="0" y="0">お分けできません</tspan></text><text fill="#fff" data-name="お分けできません" font-family="ShipporiMinchoB1-Regular, Shippori Mincho B1" font-size="15" transform="translate(459 285.545)"><tspan x="0" y="0">お分けできません</tspan></text><text fill="#fff" data-name="1ℓ上限" font-family="ShipporiMinchoB1-Regular, Shippori Mincho B1" font-size="15" transform="translate(498 210.863)"><tspan x="0" y="0">1</tspan><tspan y="0" font-family="SegoeUI, Segoe UI">ℓ</tspan><tspan y="0">上限</tspan></text><text fill="#fff" data-name="制限なし" font-family="ShipporiMinchoB1-Regular, Shippori Mincho B1" font-size="15" transform="translate(676 210.863)"><tspan x="0" y="0">制限なし</tspan></text><text fill="#fff" data-name="制限なし" font-family="ShipporiMinchoB1-Regular, Shippori Mincho B1" font-size="15" transform="translate(676 285.545)"><tspan x="0" y="0">制限なし</tspan></text><text fill="#fff" font-family="ShipporiMinchoB1-Regular, Shippori Mincho B1" font-size="15" transform="translate(50 285.545)"><tspan x="0" y="0">通過される方</tspan></text><path fill="none" stroke="#707070" d="M0 .5h800" data-name="線 1278"/><path fill="none" stroke="#707070" d="M0 105.75h800" data-name="線 1279"/><path fill="none" stroke="#707070" d="M222.5 0v316.045" data-name="線 1282"/><path fill="none" stroke="#707070" d="M415.5 0v315.75" data-name="線 1286"/><path fill="none" stroke="#707070" d="M607.5 0v315.75" data-name="線 1287"/><path fill="none" stroke="#707070" d="M0 245.75h800" data-name="線 1281"/><path fill="none" stroke="#707070" d="M0 175.75h800" data-name="線 1280"/><path fill="none" stroke="#707070" d="M0 315.75h800" data-name="線 1283"/></g></svg>