<svg xmlns="http://www.w3.org/2000/svg" xmlns:xlink="http://www.w3.org/1999/xlink" width="463" height="75" viewBox="0 0 463 75">
  <defs>
    <clipPath id="clip-path">
      <rect id="長方形_6474" data-name="長方形 6474" width="93.545" height="20.245" fill="none"/>
    </clipPath>
  </defs>
  <g id="グループ_752" data-name="グループ 752" transform="translate(-609.157 -3896.726)">
    <g id="長方形_5848" data-name="長方形 5848" transform="translate(609.157 3896.726)" fill="none" stroke="#000" stroke-width="1">
      <rect width="463" height="75" rx="8" stroke="none"/>
      <rect x="0.5" y="0.5" width="462" height="74" rx="7.5" fill="none"/>
    </g>
    <g id="グループ_606" data-name="グループ 606" transform="translate(224.646 3224.328)">
      <path id="パス_843" data-name="パス 843" d="M4724.511-923.457l7.92,7.92-7.92,7.92" transform="translate(-3941 1627)" fill="none" stroke="#000" stroke-width="1"/>
    </g>
    <text id="VIEW_MORE_ON_" data-name="VIEW MORE ON " transform="translate(780.157 3939.328)" fill="#333" font-size="15" font-family="FuturaPT-Bold, Futura PT" font-weight="700"><tspan x="-57.615" y="0">VIEW MORE ON </tspan></text>
    <g id="グループ_750" data-name="グループ 750" transform="translate(870 3923.726)">
      <g id="グループ_749" data-name="グループ 749" clip-path="url(#clip-path)">
        <path id="パス_1856" data-name="パス 1856" d="M12.053,8.887c-3.528-.1-8.467.1-12.053.1V27.33H5.135V13.454s4.566-.157,6.213.039c1.548.176,2.117,1.137,2.175,3.136.039,2.273,0,3.469,0,10.7h5.135s.059-8.271,0-11.152c-.078-5.115-1.862-7.173-6.6-7.291" transform="translate(0 -7.124)"/>
        <path id="パス_1857" data-name="パス 1857" d="M144.911,8.7a9.27,9.27,0,1,0,9.211,9.27,9.251,9.251,0,0,0-9.211-9.27m0,14.111a4.861,4.861,0,1,1,4.821-4.86,4.839,4.839,0,0,1-4.821,4.86" transform="translate(-109.105 -6.995)"/>
        <path id="パス_1858" data-name="パス 1858" d="M401.723,17.97a9.211,9.211,0,1,0-14.915,7.271,9.975,9.975,0,0,0,6.35,2,10.217,10.217,0,0,0,7.389-3.175l-2.077-2.783a8.775,8.775,0,0,1-4.861,1.881c-2.234,0-3.587-.431-4.566-1.352a4.3,4.3,0,0,1-1.235-2.43h13.778a8.41,8.41,0,0,0,.137-1.411m-13.876-1.685a4.731,4.731,0,0,1,9.27,0Z" transform="translate(-308.178 -6.995)"/>
        <path id="パス_1859" data-name="パス 1859" d="M278.741,0h-4.8V5.154H269V9.662h4.939v5.35h4.8V9.662h4.939V5.154h-4.939Z" transform="translate(-216.28)"/>
      </g>
    </g>
  </g>
</svg>
