<svg height="14" viewBox="0 0 20 14" width="20" xmlns="http://www.w3.org/2000/svg" xmlns:xlink="http://www.w3.org/1999/xlink"><clipPath id="a"><path d="m0 0h20v14h-20z"/></clipPath><g clip-path="url(#a)"><path d="m19.582 2.186a2.5 2.5 0 0 0 -1.768-1.768c-1.56-.418-7.814-.418-7.814-.418s-6.254 0-7.814.418a2.5 2.5 0 0 0 -1.768 1.768 26.033 26.033 0 0 0 -.418 4.814 26.032 26.032 0 0 0 .418 4.814 2.5 2.5 0 0 0 1.768 1.768c1.56.418 7.814.418 7.814.418s6.254 0 7.814-.418a2.5 2.5 0 0 0 1.768-1.768 26.021 26.021 0 0 0 .418-4.814 26.023 26.023 0 0 0 -.418-4.814" fill="#fff"/><path d="m48.594 30.3v-6l5.2 3z" transform="translate(-40.594 -20.297)"/></g></svg>