<svg height="10.713" viewBox="0 0 10.652 10.713" width="10.652" xmlns="http://www.w3.org/2000/svg" xmlns:xlink="http://www.w3.org/1999/xlink"><clipPath id="a"><path d="m0 0h10.652v10.713h-10.652z"/></clipPath><g clip-path="url(#a)" fill="#fff"><path d="m0 10.394a.32.32 0 0 0 .32.32h10.012a.32.32 0 0 0 .32-.32v-9.094a.32.32 0 0 0 -.32-.32h-2.751v-.661a.319.319 0 0 0 -.639 0v.664h-3.047v-.6a.319.319 0 1 0 -.639 0v.6h-2.936a.32.32 0 0 0 -.32.317zm.639-8.772h2.617v.6a.319.319 0 1 0 .639 0v-.6h3.047v.541a.319.319 0 0 0 .639 0v-.541h2.433v8.453h-9.375z"/><rect height="1.351" rx=".676" transform="translate(2.101 4.067)" width="1.475"/><rect height="1.351" rx=".676" transform="translate(4.619 4.067)" width="1.475"/><rect height="1.351" rx=".676" transform="translate(7.322 4.067)" width="1.475"/><path d="m7.517 18.842h-.954a.261.261 0 0 0 -.26.26v.831a.261.261 0 0 0 .26.26h.954a.261.261 0 0 0 .26-.26v-.833a.261.261 0 0 0 -.26-.26" transform="translate(-4.08 -12.195)"/><path d="m14.657 18.842h-.957a.261.261 0 0 0 -.26.26v.831a.261.261 0 0 0 .26.26h.954a.261.261 0 0 0 .26-.26v-.833a.261.261 0 0 0 -.26-.26" transform="translate(-8.701 -12.195)"/><path d="m22.319 18.842h-.954a.261.261 0 0 0 -.26.26v.831a.261.261 0 0 0 .26.26h.954a.261.261 0 0 0 .26-.26v-.833a.261.261 0 0 0 -.26-.26" transform="translate(-13.66 -12.195)"/></g></svg>