<svg height="16.251" viewBox="0 0 20 16.251" width="20" xmlns="http://www.w3.org/2000/svg" xmlns:xlink="http://www.w3.org/1999/xlink"><clipPath id="a"><path d="m0 0h20v16.251h-20z"/></clipPath><g clip-path="url(#a)"><path d="m17.953 4.046c.012.176.012.353.012.53a11.6 11.6 0 0 1 -11.675 11.675 11.617 11.617 0 0 1 -6.29-1.843 8.349 8.349 0 0 0 .977.059 8.233 8.233 0 0 0 5.1-1.76 4.108 4.108 0 0 1 -3.834-2.85 4.1 4.1 0 0 0 1.853-.07 4.1 4.1 0 0 1 -3.296-4.022v-.052a4.072 4.072 0 0 0 1.862.514 4.106 4.106 0 0 1 -1.27-5.478 11.65 11.65 0 0 0 8.457 4.287 4.107 4.107 0 0 1 6.993-3.742 8.221 8.221 0 0 0 2.606-1 4.117 4.117 0 0 1 -1.8 2.27 8.19 8.19 0 0 0 2.352-.642 8.349 8.349 0 0 1 -2.047 2.124" fill="#fff"/></g></svg>