<svg height="20" viewBox="0 0 20 20" width="20" xmlns="http://www.w3.org/2000/svg" xmlns:xlink="http://www.w3.org/1999/xlink"><clipPath id="a"><path d="m0 0h20v20h-20z"/></clipPath><g clip-path="url(#a)" fill="#fff"><path d="m10 1.8c2.67 0 2.986.01 4.041.058a5.532 5.532 0 0 1 1.859.342 3.1 3.1 0 0 1 1.15.748 3.1 3.1 0 0 1 .748 1.15 5.533 5.533 0 0 1 .344 1.857c.045 1.059.058 1.375.058 4.045s-.01 2.986-.058 4.041a5.533 5.533 0 0 1 -.344 1.857 3.312 3.312 0 0 1 -1.9 1.9 5.532 5.532 0 0 1 -1.857.344c-1.054.048-1.371.058-4.041.058s-2.987-.01-4.041-.058a5.533 5.533 0 0 1 -1.859-.342 3.1 3.1 0 0 1 -1.15-.748 3.1 3.1 0 0 1 -.75-1.152 5.534 5.534 0 0 1 -.344-1.857c-.045-1.057-.056-1.373-.056-4.043s.01-2.986.058-4.041a5.534 5.534 0 0 1 .342-1.859 3.1 3.1 0 0 1 .748-1.15 3.1 3.1 0 0 1 1.152-.75 5.533 5.533 0 0 1 1.858-.34c1.055-.048 1.371-.06 4.042-.06m0-1.8c-2.717 0-3.057.012-4.124.06a7.341 7.341 0 0 0 -2.427.465 4.9 4.9 0 0 0 -1.772 1.153 4.9 4.9 0 0 0 -1.153 1.772 7.34 7.34 0 0 0 -.465 2.427c-.048 1.067-.059 1.407-.059 4.123s.012 3.056.06 4.123a7.34 7.34 0 0 0 .464 2.427 4.9 4.9 0 0 0 1.153 1.771 4.9 4.9 0 0 0 1.771 1.153 7.341 7.341 0 0 0 2.427.465c1.068.049 1.408.061 4.125.061s3.056-.012 4.123-.06a7.341 7.341 0 0 0 2.427-.465 5.113 5.113 0 0 0 2.925-2.925 7.34 7.34 0 0 0 .465-2.427c.049-1.067.06-1.407.06-4.123s-.012-3.056-.06-4.123a7.34 7.34 0 0 0 -.465-2.427 4.9 4.9 0 0 0 -1.153-1.771 4.9 4.9 0 0 0 -1.773-1.154 7.34 7.34 0 0 0 -2.427-.465c-1.067-.048-1.407-.06-4.122-.06" transform="translate(.001)"/><path d="m127.69 122.556a5.135 5.135 0 1 0 5.135 5.135 5.135 5.135 0 0 0 -5.135-5.135m0 8.468a3.333 3.333 0 1 1 3.333-3.333 3.333 3.333 0 0 1 -3.333 3.333" transform="translate(-117.69 -117.691)"/><path d="m358.566 88.415a1.2 1.2 0 1 1 -1.2-1.2 1.2 1.2 0 0 1 1.2 1.2" transform="translate(-342.028 -83.753)"/></g></svg>