<svg xmlns="http://www.w3.org/2000/svg" width="85.576" height="58.285" viewBox="0 0 85.576 58.285"><g transform="translate(-1530.668 -10062.75)"><path d="M-36.974-4.2A4.22,4.22,0,0,0-33.82-5.3,4.119,4.119,0,0,0-32.7-8.455a3.928,3.928,0,0,0-1.178-3.078,4.365,4.365,0,0,0-3.211-1.14h-5.244V0h3.287V-4.2Zm-2.071-5.814h1.121a1.931,1.931,0,0,1,1.406.456,1.538,1.538,0,0,1,.38,1.14,1.45,1.45,0,0,1-.418,1.159,2.146,2.146,0,0,1-1.387.4h-1.1ZM-23.864,0h3.515l-4.769-12.673h-3.591L-33.573,0H-30.1l.855-2.128h4.6Zm-4.465-4.636,1.387-4.1,1.425,4.1Zm15.143.019h2.7a2.254,2.254,0,0,1-.779,1.406,2.714,2.714,0,0,1-1.824.589,3,3,0,0,1-2.318-.969,3.964,3.964,0,0,1-1.007-2.736,4.274,4.274,0,0,1,1.1-2.907,3.061,3.061,0,0,1,2.166-.874,2.657,2.657,0,0,1,1.767.627,3.1,3.1,0,0,1,.912,1.273L-7.334-9.5a6.209,6.209,0,0,0-2.261-2.6,6.774,6.774,0,0,0-3.42-.855A6.78,6.78,0,0,0-17.936-11.1a6.6,6.6,0,0,0-1.9,4.75,6.386,6.386,0,0,0,1.824,4.579A6.545,6.545,0,0,0-13.148.114a6.186,6.186,0,0,0,4.465-1.6c1.52-1.406,2.033-3.192,2.033-5.7h-6.536ZM2.641-12.673h-7.2V0h7.2V-2.793H-1.273V-4.978h3.7V-7.771h-3.7V-9.88H2.641Zm14,2.793v-2.793H7.961V-9.88h2.7V0h3.287V-9.88ZM31.521-6.327a6.556,6.556,0,0,0-1.995-4.75,7.224,7.224,0,0,0-5-1.881,7.224,7.224,0,0,0-5,1.881,6.556,6.556,0,0,0-1.995,4.75A6.576,6.576,0,0,0,19.532-1.6a7.224,7.224,0,0,0,5,1.881,7.224,7.224,0,0,0,5-1.881A6.576,6.576,0,0,0,31.521-6.327ZM24.529-9.766a3.794,3.794,0,0,1,2.546,1.007A3.42,3.42,0,0,1,28.1-6.327a3.49,3.49,0,0,1-1.026,2.432,3.473,3.473,0,0,1-2.546.988,3.6,3.6,0,0,1-2.565-1.007A3.221,3.221,0,0,1,20.957-6.27a3.474,3.474,0,0,1,1.007-2.489A3.65,3.65,0,0,1,24.529-9.766ZM38.969-4.2a4.22,4.22,0,0,0,3.154-1.1,4.119,4.119,0,0,0,1.121-3.154,3.928,3.928,0,0,0-1.178-3.078,4.365,4.365,0,0,0-3.211-1.14H33.611V0H36.9V-4.2ZM36.9-10.013h1.121a1.931,1.931,0,0,1,1.406.456,1.538,1.538,0,0,1,.38,1.14,1.45,1.45,0,0,1-.418,1.159,2.146,2.146,0,0,1-1.387.4H36.9Z" transform="translate(1573 10120.75)" fill="#333"/><path d="M17.5,0,35,15H0Z" transform="translate(1556 10062.75)" fill="#333"/></g></svg>