<svg xmlns="http://www.w3.org/2000/svg" width="1023.971" height="415.167" viewBox="0 0 1023.971 415.167">
  <g id="アートワーク_53" data-name="アートワーク 53" transform="translate(512.471 207.584)">
    <g id="グループ_942" data-name="グループ 942" transform="translate(-511.5 -207.584)">
      <rect id="長方形_6491" data-name="長方形 6491" width="504.253" height="290.449" transform="translate(0 80.104)" fill="#e5e5e5" stroke="#5a696f" stroke-miterlimit="10" stroke-width="1.943"/>
      <rect id="長方形_6492" data-name="長方形 6492" width="363.31" height="290.449" transform="translate(659.69 80.104)" fill="#4fa1a1"/>
      <g id="グループ_928" data-name="グループ 928" transform="translate(170.755 389.069)">
        <path id="パス_1922" data-name="パス 1922" d="M111.8,231.574v-4.951h2.252v4.951h11.674v2.166H115.272A26.778,26.778,0,0,0,126,245.38l-1.324,2.235c-5.914-4.35-8.476-7.891-10.625-12.327v9.851h5.811v2.1h-5.811v4.934H111.8v-4.934H106.04v-2.1H111.8v-9.731a31.585,31.585,0,0,1-10.539,12.31l-1.375-2.166A27.458,27.458,0,0,0,110.6,233.775H100.229v-2.166h11.588Z" transform="translate(-99.885 -226.073)" fill="#1b1311"/>
        <path id="パス_1923" data-name="パス 1923" d="M119.526,248.6c12.086-1.788,15.267-8.51,16.264-16.436H117.085v-2.338h18.688a1.924,1.924,0,0,1-.052-.5,2.863,2.863,0,1,1,2.7,2.871c-1.186,9.714-5.5,16.436-17.743,18.791l-1.135-2.39Zm17.588-19.255a1.461,1.461,0,1,0,1.461-1.461A1.449,1.449,0,0,0,137.114,229.341Z" transform="translate(-87.514 -226.195)" fill="#1b1311"/>
        <path id="パス_1924" data-name="パス 1924" d="M154.252,228.443v19.823H133.415V228.443Zm-2.648,2.424H135.994v14.975H151.6Z" transform="translate(-75.769 -224.764)" fill="#1b1311"/>
        <path id="パス_1925" data-name="パス 1925" d="M148.875,238.183a19.578,19.578,0,0,0,8.7-10.728l2.751.447a25.378,25.378,0,0,1-1.754,3.662h12.138c-2.8,16.849-14.751,19.066-19.29,19.926l-1.066-2.287c6.189-.928,14.063-3.335,17.278-15.336H157.093a20.425,20.425,0,0,1-6.6,6.224l-1.6-1.891Zm18.74-7.341a24.137,24.137,0,0,0-1.479-3.885l1.822-.464a24.657,24.657,0,0,1,1.6,3.851l-1.926.5Zm3.765-.223a27.038,27.038,0,0,0-1.564-3.851l1.84-.464a27.164,27.164,0,0,1,1.65,3.765l-1.926.55Z" transform="translate(-64.649 -226.303)" fill="#1b1311"/>
        <path id="パス_1926" data-name="パス 1926" d="M187.12,234.288c-.963,8.441-4.092,14.717-17.915,16.126l-1.014-2.287c8.029-.739,14.648-2.785,16.023-11.536h-19.29v-2.3h22.2Zm-1.547-6.585v2.3H166.885V227.72h18.688Z" transform="translate(-53.106 -225.296)" fill="#1b1311"/>
        <path id="パス_1927" data-name="パス 1927" d="M197.429,237.093a55.75,55.75,0,0,1,7.135,12.55l-2.648,1.1a21.282,21.282,0,0,0-1-2.665c-3.628.516-10.5,1.2-20.064,1.616l-.241-2.648c1.066.034,1.685.034,2.579,0a155.165,155.165,0,0,0,6.1-19.754l2.992.378a168.086,168.086,0,0,1-6.447,19.29c8.51-.327,13.152-.791,14.115-.911a49.744,49.744,0,0,0-4.728-7.926l2.166-1.049Z" transform="translate(-41.821 -225.591)" fill="#1b1311"/>
      </g>
      <g id="グループ_929" data-name="グループ 929" transform="translate(719.743 389.448)">
        <path id="パス_1928" data-name="パス 1928" d="M421.646,248.717c12.086-1.788,15.267-8.51,16.264-16.436H419.2v-2.338h18.688a1.926,1.926,0,0,1-.052-.5,2.863,2.863,0,1,1,2.7,2.871c-1.186,9.714-5.5,16.436-17.742,18.791l-1.135-2.39Zm17.588-19.255A1.461,1.461,0,1,0,440.7,228,1.449,1.449,0,0,0,439.234,229.461Z" transform="translate(-419.205 -226.487)" fill="#1b1311"/>
        <path id="パス_1929" data-name="パス 1929" d="M456.372,228.563v19.823H435.535V228.563Zm-2.648,2.424H438.114v14.975h15.611Z" transform="translate(-407.46 -225.056)" fill="#1b1311"/>
        <path id="パス_1930" data-name="パス 1930" d="M458.955,240.414a39.811,39.811,0,0,0-7.84-3.249l1.014-2.2a38.9,38.9,0,0,1,7.874,3.06Zm-6.791,7.874c11.364-1,16.041-4.8,19.6-15.439l2.373,1.049c-3.542,10.178-8.338,15.49-20.889,16.986l-1.066-2.579ZM461.138,234a38.894,38.894,0,0,0-7.84-3.129l1.049-2.2a45.55,45.55,0,0,1,7.926,3.009l-1.135,2.338Zm8.7-1.977a20.536,20.536,0,0,0-1.754-4.212l1.874-.55a15.566,15.566,0,0,1,1.84,4.109Zm3.662-.928a20.61,20.61,0,0,0-1.874-3.989l1.822-.585a18.209,18.209,0,0,1,1.891,3.885Z" transform="translate(-396.254 -226.523)" fill="#1b1311"/>
        <path id="パス_1931" data-name="パス 1931" d="M485.718,231.253V233.4H478.7v11.089h8.235v2.149H468.165v-2.149H476.4V233.4h-7.049v-2.149Z" transform="translate(-383.991 -223.121)" fill="#1b1311"/>
        <path id="パス_1932" data-name="パス 1932" d="M505.078,231.086c-2.011,11.416-7.891,18.155-19.479,20.115l-1.049-2.287c11.089-1.84,15.2-7.341,17.313-15.525h-10.5a29.334,29.334,0,0,1-6.739,6.516l-1.565-1.891a22.225,22.225,0,0,0,8.992-10.952l2.716.5a19.584,19.584,0,0,1-1.788,3.524Z" transform="translate(-373.281 -226.135)" fill="#1b1311"/>
        <path id="パス_1933" data-name="パス 1933" d="M505.49,227.143v7.29a57.573,57.573,0,0,1,14.029,6.138l-1.324,2.441a57.525,57.525,0,0,0-12.722-6.017v14.424h-2.648V227.143h2.665Z" transform="translate(-359.062 -226.077)" fill="#1b1311"/>
        <path id="パス_1934" data-name="パス 1934" d="M529.05,236.306h9.25v2.3h-9.25c-.052,6.688-3.438,10.487-11.691,12.31l-1.135-2.2c4.676-.877,7.41-2.51,8.717-4.436a11.84,11.84,0,0,0,1.461-5.673H514.815v-2.3H526.4v-4.762c-3.3.447-6.55.653-9.886.791l-.5-2.235a74.954,74.954,0,0,0,18.912-2.837l1.341,2.287c-3.163.825-3.989.963-7.238,1.565v5.175Z" transform="translate(-350.438 -225.991)" fill="#1b1311"/>
        <path id="パス_1935" data-name="パス 1935" d="M554.955,233.333v2.648h-24.43v-2.648Z" transform="translate(-339.139 -221.625)" fill="#1b1311"/>
        <path id="パス_1936" data-name="パス 1936" d="M563.559,237.213a55.749,55.749,0,0,1,7.135,12.55l-2.648,1.1a21.275,21.275,0,0,0-1-2.665c-3.628.516-10.5,1.2-20.064,1.616l-.241-2.648c1.066.034,1.685.034,2.579,0a155.176,155.176,0,0,0,6.1-19.754l2.991.378a168.066,168.066,0,0,1-6.447,19.29c8.51-.327,13.152-.791,14.115-.911a49.741,49.741,0,0,0-4.728-7.926l2.166-1.049Z" transform="translate(-327.473 -225.883)" fill="#1b1311"/>
      </g>
      <g id="グループ_930" data-name="グループ 930" transform="translate(522.907 110.415)">
        <path id="パス_1937" data-name="パス 1937" d="M307.036,69.876V68.655h4.951V67.435h1.393v1.221h5.055v1.221H313.38v1.479h5.673v1.186h-5.708a9.423,9.423,0,0,1-.258,1.565h7.6v1.272h-6.4c.894,1.341,2.3,2.751,6.413,3.542l-.55,1.427c-3.954-.928-6.224-2.7-7.341-4.969h-.172c-.516,1.135-1.754,3.593-7.307,4.917l-.619-1.41c3.37-.671,5.467-1.754,6.43-3.507h-6.31V74.105h6.808a7.609,7.609,0,0,0,.292-1.565h-5.484V71.355h5.536V69.876Zm6.464-5.553V65.63h6.808v3.576h-1.427V66.936H306.623v2.269h-1.41V65.63h6.774V64.323Z" transform="translate(-304.715 -64.151)" fill="#1b1311"/>
        <path id="パス_1938" data-name="パス 1938" d="M314.535,73.283a15.159,15.159,0,0,0,4.453-5.45l1.221.619a19.475,19.475,0,0,1-1.822,2.991v8.906h-1.461V73.18a15.329,15.329,0,0,1-1.84,1.685l-.55-1.582Zm.052-5.037a10.579,10.579,0,0,0,3.9-4.023l1.221.567a13.223,13.223,0,0,1-4.367,4.831l-.757-1.375Zm16.2,3.009h-2.768V78.94c0,.98-.31,1.41-1.53,1.41h-2.957l-.258-1.565,2.785.034c.361,0,.516-.069.516-.481V71.255H320.38V69.862h10.4v1.393Zm-.67-4.779H321.1V65.134h9.009Z" transform="translate(-297.652 -64.223)" fill="#1b1311"/>
        <path id="パス_1939" data-name="パス 1939" d="M332.147,67.2v1.255h-7.462V67.2Zm-.516-2.459v1.238h-6.378V64.743Zm0,4.814v1.255h-6.378V69.557Zm0,2.562v1.2h-6.378v-1.2Zm0,2.51v4.917h-5.072V80.3h-1.307V74.628ZM330.358,75.8h-3.8v2.51h3.8Zm6.722,4.5H335.6V70.691h-3.456V69.23H335.6V64.313h1.479V69.23h3.593v1.461h-3.593Z" transform="translate(-290.352 -64.158)" fill="#1b1311"/>
        <path id="パス_1940" data-name="パス 1940" d="M350.578,65.952h-7.272v1.719h3.817v8.7h-8.94v-8.7h3.8V65.952h-7.307V64.663h15.886v1.289ZM336.772,67.5V77.9h11.76V67.5h1.393V80.033h-1.393v-.86h-11.76v.86H335.38V67.5Zm5.209,1.341h-2.493v2.493h2.493Zm0,3.628h-2.493V75.2h2.493Zm3.817-3.628h-2.493v2.493H345.8Zm0,3.628h-2.493V75.2H345.8Z" transform="translate(-283.167 -63.907)" fill="#1b1311"/>
        <path id="パス_1941" data-name="パス 1941" d="M353.369,68.4v.911h7.307v1.221h-7.307v1.255h6.12V74.8c0,.447,0,1.272-1.2,1.272h-1.6l-.327-1.341,1.324.034c.361,0,.4-.172.4-.464V72.992h-4.711v.052c2.235,2.888,4.367,3.971,7.53,5.072l-.688,1.358a15.915,15.915,0,0,1-6.843-4.694v5.484h-1.358V74.918a16,16,0,0,1-6.808,4.573l-.688-1.341c4.779-1.547,6.688-3.937,7.5-5.072v-.086h-4.659v2.871h-1.427V71.789h6.086V70.534h-7.29V69.313h7.29V68.4h.808l-.963-.739a7.66,7.66,0,0,0,2.355-3.37l1.324.223a6,6,0,0,1-.413,1.014h5.484v1.238h-3.593a9.859,9.859,0,0,1,.688,1.41l-1.307.5a12.65,12.65,0,0,0-.808-1.908h-1.2a10.169,10.169,0,0,1-1.393,1.633Zm-1-2.871v1.238h-2.751a8.977,8.977,0,0,1,.619,1.393l-1.358.5a14.1,14.1,0,0,0-.636-1.891h-.808a9.44,9.44,0,0,1-1.926,2.046l-.946-.98a8.613,8.613,0,0,0,2.7-3.542l1.358.241a10.244,10.244,0,0,1-.43,1Z" transform="translate(-276.089 -64.173)" fill="#1b1311"/>
        <path id="パス_1942" data-name="パス 1942" d="M361.929,70.519h-5.072V69.178h11.588v1.341h-5.089v2.974h5.536V74.8h-5.536v3.628a10.576,10.576,0,0,0,1.393.086h6.086l-.275,1.375h-6.138a7.2,7.2,0,0,1-6.413-3.335,10.077,10.077,0,0,1-2.579,3.645l-.946-1.221a12.216,12.216,0,0,0,3.49-7.186l1.41.206a13.677,13.677,0,0,1-.791,3.181,6.244,6.244,0,0,0,3.335,2.923Zm1.461-6.206v1.5h6.929v3.954h-1.427V67.15H356.428v2.613h-1.41V65.809h6.877v-1.5Z" transform="translate(-268.918 -64.158)" fill="#1b1311"/>
        <path id="パス_1943" data-name="パス 1943" d="M371.278,69.574a1.461,1.461,0,1,1-1.461-1.461A1.46,1.46,0,0,1,371.278,69.574Z" transform="translate(-258.942 -61.425)" fill="#1b1311"/>
        <path id="パス_1944" data-name="パス 1944" d="M329.316,78.7H322.13v1.014h5.691V83H322.13v.894H328.2v2.132h1.221v1.169H328.2v3.026h-1.393v-.825H322.13V90.75a1.321,1.321,0,0,1-1.5,1.5h-2.768l-.189-1.393h2.51c.43.017.567-.1.567-.516v-.946h-6.241V88.309h6.241V87.174h-7.29V86.057h7.29V84.939h-6.189V83.89h6.189V83h-5.639V79.713h5.639V78.7h-7.1V77.529h7.1V76.343h1.375v1.186h7.186Zm-8.562,1.994h-4.264v1.289h4.264Zm5.639,0H322.13v1.289h4.264Zm.413,4.247H322.13v1.118h4.676Zm0,2.235H322.13v1.135h4.676Z" transform="translate(-298.422 -55.506)" fill="#1b1311"/>
        <path id="パス_1945" data-name="パス 1945" d="M338.528,92a16.227,16.227,0,0,1-6.43-3.7v3.989H330.74V88.289a15.93,15.93,0,0,1-6.447,3.679l-.756-1.238a16.014,16.014,0,0,0,6.172-3.077h-6.224V86.5h7.255V85.246h-6.12v-1.1h6.12v-1.2h-6.533V81.807h4.04a13.339,13.339,0,0,0-.567-1.65h-4.195V78.988h2.974a22,22,0,0,0-1.152-2.183l1.393-.464a13.863,13.863,0,0,1,1.221,2.648h1.272V76.323h1.341v2.665H332.3V76.323h1.341v2.665h1.221a19.83,19.83,0,0,0,1.255-2.648l1.393.464c-.241.516-.774,1.5-1.2,2.183h3.026v1.169h-4.264c-.223.739-.344,1.1-.533,1.65h4.143v1.135H332.1v1.2h6.172v1.1H332.1V86.5h7.238v1.152h-6.189a13.73,13.73,0,0,0,6.189,3.06Zm-5.4-10.2a9.888,9.888,0,0,0,.481-1.65h-4.487c.086.241.464,1.393.567,1.65Z" transform="translate(-291.215 -55.52)" fill="#1b1311"/>
        <path id="パス_1946" data-name="パス 1946" d="M337.254,92.295h-1.461v-9.3a10.965,10.965,0,0,1-1.736,1.994l-.791-1.513a15.515,15.515,0,0,0,4.212-7.135l1.41.241a19.454,19.454,0,0,1-1.633,4.023Zm11.914-11.639a22.611,22.611,0,0,1-6.6,3.335V89.8c0,.619.086.756.757.756H347.1c.636,0,.911,0,.928-3.129l1.479.361c-.017,4.178-1.083,4.178-1.994,4.178h-4.745c-.671,0-1.651-.086-1.651-1.427V76.323h1.444v6.224a19.217,19.217,0,0,0,5.639-3.06Z" transform="translate(-284.181 -55.52)" fill="#1b1311"/>
        <path id="パス_1947" data-name="パス 1947" d="M358.669,92.113a20.1,20.1,0,0,1-7.341-2.562,21.3,21.3,0,0,1-7.238,2.63l-.671-1.547a17.83,17.83,0,0,0,6.636-2.011,13.946,13.946,0,0,1-3.284-4.006l1.186-.688a12.92,12.92,0,0,0,3.4,3.868,13.656,13.656,0,0,0,3.7-4.367h-10.35V82.072h5.9V79.631h-7.221V78.273h7.221v-1.96h1.41v1.96h7.272v1.358h-7.272v2.441h4.745v1.358a15.685,15.685,0,0,1-4.126,5.192,16.147,16.147,0,0,0,6.636,1.977Z" transform="translate(-276.902 -55.527)" fill="#1b1311"/>
        <path id="パス_1948" data-name="パス 1948" d="M358.408,85.06a13.485,13.485,0,0,1-1.53.7v5.175c0,.464-.017,1.307-1.324,1.307H353.68l-.172-1.41H355c.292,0,.481,0,.481-.464V86.3a16.649,16.649,0,0,1-2.063.619l-.138-1.461a18.945,18.945,0,0,0,2.2-.619V80.744h-2.063V79.472h2.063V76.343h1.393v3.129h1.6v1.272h-1.6v3.61c.55-.223.928-.378,1.513-.619V85.06Zm-.98,6.258a11.514,11.514,0,0,0,3.885-6.292h-2.527V83.873h2.734a11.823,11.823,0,0,0,.086-1.375h-2.562V81.363h7.049a19.46,19.46,0,0,0,1.668-3.215l1.289.481a16.437,16.437,0,0,1-1.444,2.734h1.375V82.5H362.93a10.978,10.978,0,0,1-.069,1.375h6.482v1.152h-6.671c-.138.585-.258.98-.361,1.289H368.4v1.1a7.152,7.152,0,0,1-2.218,2.579,14.064,14.064,0,0,0,3.439.894l-.7,1.393a13.879,13.879,0,0,1-3.971-1.5,15.87,15.87,0,0,1-3.989,1.461l-.567-1.324a11.944,11.944,0,0,0,3.353-.946,6.775,6.775,0,0,1-1.633-1.719l1.117-.6a5.69,5.69,0,0,0,1.7,1.668A7.2,7.2,0,0,0,366.9,87.4h-4.986a13.461,13.461,0,0,1-3.49,4.917Zm1.066-13.977c1,0,6.653,0,9.834-1l.6,1.221a48.216,48.216,0,0,1-10.04,1.083Zm1.65,3.9a9.967,9.967,0,0,0-.808-2.029l1.358-.344a9.139,9.139,0,0,1,.791,2.046Zm3.37-.155a9.663,9.663,0,0,0-.808-2.183l1.41-.309a10.365,10.365,0,0,1,.756,2.183Z" transform="translate(-269.781 -55.506)" fill="#1b1311"/>
      </g>
      <g id="グループ_931" data-name="グループ 931" transform="translate(520.346 245.65)">
        <path id="パス_1949" data-name="パス 1949" d="M312.8,157.257a36.253,36.253,0,0,0-7.1-7.186l1.169-1a30.847,30.847,0,0,1,3.421,2.768c3.971-2.648,5.226-5.106,5.691-6.017H303.225v-1.461h15.147c-1.049,3.662-4.161,6.653-7.049,8.51a38.421,38.421,0,0,1,2.888,3.267l-1.427,1.118Z" transform="translate(-303.225 -141.819)" fill="#1b1311"/>
        <path id="パス_1950" data-name="パス 1950" d="M315.72,150.729a14.6,14.6,0,0,0-1.375-4.126l1.358-.378a16.965,16.965,0,0,1,1.479,4.143Zm0,4.745c5.5-1.186,7.633-3.49,8.648-9.628l1.513.258c-1,4.934-2.458,9.026-9.559,10.642Zm3.7-5.45a16.731,16.731,0,0,0-1.135-4.075l1.375-.327a17.15,17.15,0,0,1,1.2,4.057Z" transform="translate(-295.227 -140.912)" fill="#1b1311"/>
        <path id="パス_1951" data-name="パス 1951" d="M332.253,149.052h5.777V150.5h-5.777c-.034,4.178-2.149,6.55-7.307,7.685l-.7-1.375c2.923-.55,4.625-1.565,5.45-2.768a7.375,7.375,0,0,0,.911-3.542h-7.238v-1.444H330.6v-2.974c-2.063.275-4.092.413-6.172.5l-.309-1.393a46.731,46.731,0,0,0,11.811-1.771l.843,1.427c-1.977.516-2.493.6-4.522.98Z" transform="translate(-288.739 -142.502)" fill="#1b1311"/>
        <path id="パス_1952" data-name="パス 1952" d="M338.9,147.936a19.074,19.074,0,0,0-5.278-2.527l.774-1.375a22.767,22.767,0,0,1,5.467,2.407Zm-5.192,7.7c4.848-.344,10.212-1.822,12.894-10.453l1.547.688c-1.375,3.954-3.61,10.384-13.84,11.467Z" transform="translate(-281.36 -142.056)" fill="#1b1311"/>
        <path id="パス_1953" data-name="パス 1953" d="M343.475,150.31a12.231,12.231,0,0,0,5.433-6.705l1.719.275a15.308,15.308,0,0,1-1.1,2.287h7.582c-1.754,10.522-9.215,11.914-12.052,12.447l-.67-1.427c3.868-.585,8.785-2.08,10.8-9.576H348.6a12.675,12.675,0,0,1-4.126,3.885Zm11.708-4.59a14.581,14.581,0,0,0-.928-2.424l1.135-.292a15.16,15.16,0,0,1,1,2.407l-1.2.309Zm2.355-.138a16.4,16.4,0,0,0-.98-2.407l1.152-.292a16.864,16.864,0,0,1,1.032,2.355Z" transform="translate(-274.276 -142.883)" fill="#1b1311"/>
        <path id="パス_1954" data-name="パス 1954" d="M368.269,158.873a20.1,20.1,0,0,1-7.341-2.562,21.3,21.3,0,0,1-7.238,2.63l-.67-1.547a17.83,17.83,0,0,0,6.636-2.012,13.947,13.947,0,0,1-3.284-4.006l1.186-.688a12.92,12.92,0,0,0,3.4,3.868,13.655,13.655,0,0,0,3.7-4.367h-10.35v-1.358h5.9v-2.441h-7.221v-1.358h7.221v-1.96h1.41v1.96h7.272v1.358h-7.272v2.441h4.745v1.358a15.683,15.683,0,0,1-4.126,5.192,16.147,16.147,0,0,0,6.636,1.977l-.6,1.513Z" transform="translate(-267.436 -142.746)" fill="#1b1311"/>
        <path id="パス_1955" data-name="パス 1955" d="M368.028,151.82a13.493,13.493,0,0,1-1.53.7V157.7c0,.464-.017,1.307-1.324,1.307H363.3l-.172-1.41h1.5c.292,0,.481,0,.481-.464v-4.075a16.649,16.649,0,0,1-2.063.619l-.138-1.461a18.947,18.947,0,0,0,2.2-.619V147.5h-2.063v-1.272h2.063V143.1H366.5v3.129h1.6V147.5h-1.6v3.61c.55-.224.928-.378,1.513-.619v1.324Zm-.98,6.258a11.514,11.514,0,0,0,3.886-6.292h-2.527v-1.152h2.734a11.823,11.823,0,0,0,.086-1.375h-2.562v-1.135h7.049a19.468,19.468,0,0,0,1.668-3.215l1.289.481a16.439,16.439,0,0,1-1.444,2.734H378.6v1.135H372.55a10.968,10.968,0,0,1-.069,1.375h6.482v1.152h-6.671c-.138.585-.258.98-.361,1.289h6.086v1.1a7.152,7.152,0,0,1-2.218,2.579,14.066,14.066,0,0,0,3.438.894l-.7,1.393a13.88,13.88,0,0,1-3.971-1.5,15.87,15.87,0,0,1-3.989,1.461l-.567-1.324a11.943,11.943,0,0,0,3.353-.946,6.775,6.775,0,0,1-1.633-1.719l1.117-.6a5.69,5.69,0,0,0,1.7,1.668,7.2,7.2,0,0,0,1.977-1.926h-4.986a13.461,13.461,0,0,1-3.49,4.917l-1-1Zm1.066-13.977c1,0,6.653,0,9.834-1l.6,1.221a48.216,48.216,0,0,1-10.04,1.083Zm1.65,3.9a9.97,9.97,0,0,0-.808-2.029l1.358-.344a9.141,9.141,0,0,1,.791,2.046Zm3.37-.155a9.666,9.666,0,0,0-.808-2.183l1.41-.309a10.368,10.368,0,0,1,.756,2.183Z" transform="translate(-260.301 -142.725)" fill="#1b1311"/>
      </g>
      <rect id="長方形_6493" data-name="長方形 6493" width="309.463" height="61.411" transform="translate(686.613 272.264)" fill="#fff"/>
      <g id="グループ_932" data-name="グループ 932" transform="translate(773.487 290.007)">
        <path id="パス_1956" data-name="パス 1956" d="M455.984,179.528v8.063A3.739,3.739,0,0,0,458.1,190.6a7.769,7.769,0,0,0,4.023,1h14.253l-.413,2.115H462.207a7.4,7.4,0,0,1-6.688-3.112,23.845,23.845,0,0,1-3.989,3.9l-1.066-2.424a19.307,19.307,0,0,0,3.3-2.665v-7.737h-2.991v-2.149h5.209Zm-.86-4.247a19.888,19.888,0,0,0-3.885-4.676l1.547-1.479a18.65,18.65,0,0,1,4.126,4.659l-1.788,1.513Zm20.717-2.648h-7.823v1.891h7v9.765h-7v2.063h8.1v1.891h-8.1v2.39h-2.2v-2.39h-8.149v-1.891h8.149v-2.063h-6.825v-9.765h6.825v-1.891H458v-1.891h7.823v-1.96h2.2v1.96h7.823Zm-10.023,3.679H461.09v2.166h4.728Zm0,3.851H461.09V182.5h4.728Zm7.066-3.851h-4.865v2.166h4.865Zm0,3.851h-4.865V182.5h4.865Z" transform="translate(-450.465 -168.611)" fill="#090405"/>
        <path id="パス_1957" data-name="パス 1957" d="M480.721,168.958a20.208,20.208,0,0,1-1.049,2.424h3.885a13.354,13.354,0,0,0,1.2-2.613l2.287.275a21.813,21.813,0,0,1-1.066,2.338h5.588v1.65h-5.949v1.7H490.9v1.427h-5.278v1.65H490.9v1.427h-5.278v1.788h6.636v1.685H476.629v-6.447c-.55.653-.963,1.1-1.427,1.565l-1.479-1.6.275-.275h-2.063v5.828c1-.378,1.427-.55,2.39-.928l.189,1.977c-.653.327-1.2.6-2.579,1.152v8.39a1.929,1.929,0,0,1-2.2,2.1h-2.7l-.378-2.373,2.235.034c.636,0,.86-.172.86-.739v-6.585c-1.65.6-2.149.739-3.026,1l-.361-2.3c.911-.241,1.651-.413,3.387-.963v-6.585h-3.163v-2.1h3.163v-5h2.2v5h2.424v1.7a21.5,21.5,0,0,0,4.075-6.877l2.3.241Zm6.6,18.018h4.247c-.361,6.86-1.186,7.513-3.4,7.513h-3.473l-.636-2.252,3.628.034c.911,0,1.289-.034,1.513-3.4h-4.59l.877-2.871h-4.212a12.063,12.063,0,0,1-6.86,8.579l-1.324-1.84c4.625-2.287,5.484-5.037,5.863-6.739H474.6v-1.874h13.565l-.86,2.854Zm-8.717-13.6v1.358h5.055v-1.7H478.8l-.189.361Zm5.055,2.785h-5.055v1.65h5.055Zm0,3.077h-5.055v1.788h5.055Z" transform="translate(-439.029 -168.683)" fill="#090405"/>
        <path id="パス_1958" data-name="パス 1958" d="M507.941,172.6h-11.5v1.616h9.112v5.261h-9.112v1.427h9.714v3.4h1.96v1.874h-1.96v4.848h-2.235v-1.324h-7.479v2.166a2.106,2.106,0,0,1-2.39,2.39h-4.436l-.31-2.235,4.023.034c.688,0,.911-.189.911-.86v-1.513H484.25v-1.736h9.989v-1.822H482.565v-1.788h11.674v-1.788h-9.9v-1.685h9.9v-1.427h-9.026v-5.261h9.026v-1.616H482.874v-1.874h11.364V168.8h2.2v1.891h11.5V172.6Zm-13.7,3.2h-6.825v2.063h6.825Zm9.026,0h-6.825v2.063h6.825Zm.653,6.791h-7.479v1.788h7.479Zm0,3.576h-7.479v1.822h7.479Z" transform="translate(-427.377 -168.597)" fill="#090405"/>
        <path id="パス_1959" data-name="パス 1959" d="M522.724,193.894c-4.676-1.7-7-2.888-10.3-5.914v6.378H510.26v-6.413c-3.215,3.112-6.413,4.539-10.315,5.9l-1.2-1.977a25.794,25.794,0,0,0,9.886-4.934h-9.954v-1.84h11.6V183.08h-9.8v-1.754h9.8V179.4H499.824v-1.822h6.464a24.081,24.081,0,0,0-.911-2.648h-6.722v-1.874h4.762a38.809,38.809,0,0,0-1.84-3.49l2.235-.739a22.061,22.061,0,0,1,1.96,4.229H507.8v-4.264h2.149v4.264h2.837v-4.264h2.149v4.264h1.96a30.5,30.5,0,0,0,2.011-4.229l2.235.739a38.148,38.148,0,0,1-1.926,3.49h4.848v1.874H517.24c-.361,1.186-.55,1.754-.86,2.648h6.636V179.4H512.478v1.926h9.886v1.754h-9.886v2.011h11.588v1.84h-9.9c3.112,2.648,5.553,3.748,9.9,4.9l-1.289,2.063Zm-8.648-16.316a16.229,16.229,0,0,0,.774-2.648h-7.187c.138.378.739,2.235.911,2.648Z" transform="translate(-415.805 -168.604)" fill="#090405"/>
        <path id="パス_1960" data-name="パス 1960" d="M538.731,169.9a38.888,38.888,0,0,1-6.722,6.963h8.235v2.011H529.378a43.9,43.9,0,0,1-4.109,2.527h11.863v12.929H534.88V192.99H522.02v1.341h-2.235v-10.35a45.142,45.142,0,0,1-4.436,1.564l-1.014-2.063a39.124,39.124,0,0,0,11.175-4.625H514.748v-2.012h9.628v-3.473h-7.616v-1.891h7.616v-2.665h2.252v2.665h6.241v1.788a30.821,30.821,0,0,0,3.851-4.487l1.977,1.1Zm-3.851,13.427H522.02v2.8h12.86Zm0,4.659H522.02v3.077h12.86Zm-6.31-11.123a35.253,35.253,0,0,0,4.212-3.473h-6.138v3.473Z" transform="translate(-404.527 -168.611)" fill="#090405"/>
      </g>
      <rect id="長方形_6494" data-name="長方形 6494" width="309.463" height="61.411" transform="translate(686.613 116.982)" fill="#090405"/>
      <g id="グループ_933" data-name="グループ 933" transform="translate(773.383 134.845)">
        <path id="パス_1961" data-name="パス 1961" d="M476.658,101.194l-.378,2.149H464.107c-5.33,0-7.823-1.547-10.178-5.123a16.2,16.2,0,0,1-2.063,5.828l-1.461-1.891c.688-1.341,2.149-4.126,2.149-10.917h2.012a32.927,32.927,0,0,1-.189,4.178,18.626,18.626,0,0,0,1.822,2.8V89.3h-5.4V87.234h5.4V83.761h-4.711V81.7H456.2V78.483h2.115V81.7h3.714v2.063h-3.714v3.473h4.35V89.3h-4.35v3.714H462.2v2.063h-3.886v4.986a12.653,12.653,0,0,0,5.76,1.135h12.585Zm-1.341-12.516h-9.473v7.186c0,.86.516.86.928.86h5.966c1.272,0,1.461,0,1.461-3.937l2.166.5c-.1,4.075-.309,5.553-2.923,5.553h-7.41A2.058,2.058,0,0,1,463.66,96.6V86.581h9.473V81.457h-10.04V79.394h12.189v9.267Z" transform="translate(-450.405 -78.397)" fill="#fff"/>
        <path id="パス_1962" data-name="パス 1962" d="M491.1,103.468a22.926,22.926,0,0,1-10.573-6.155V104h-2.287V97.4a25.716,25.716,0,0,1-10.625,6.189l-1-2.166a25.97,25.97,0,0,0,10.092-5.089h-10.04V94.442H478.22V92.465h2.287v1.977h11.6v1.891h-10.04a22.268,22.268,0,0,0,10.212,4.951l-1.2,2.2Zm-2.579-19.2V86H486.18a11.986,11.986,0,0,1-3.026,3.473c2.424.585,5.364,1.565,7.29,2.2l-1.427,1.96a61.954,61.954,0,0,0-8.149-2.751c-1.565.739-5.639,2.1-11.914,2.424l-.6-2.063a37.011,37.011,0,0,0,9.267-1.186c-3.026-.688-4.814-1-5.966-1.186A24.1,24.1,0,0,0,474.317,86h-3.885V84.264h5.278a13.409,13.409,0,0,0,1.375-1.96H469.52v3.61h-2.252V80.379h10.986V78.453h2.3v1.926H491.6v5.536h-2.252V82.3h-9.679a23.336,23.336,0,0,1-1.289,1.96h10.144ZM477.016,86c-.791.928-1.186,1.341-1.7,1.891,1.564.241,3.249.5,5.312.963a10.987,10.987,0,0,0,3.077-2.871h-6.688Z" transform="translate(-438.746 -78.419)" fill="#fff"/>
        <path id="パス_1963" data-name="パス 1963" d="M488.147,104.015h-2.3V89.642a19.2,19.2,0,0,1-2.3,2.94L482.4,90.021a25.813,25.813,0,0,0,5.674-11.588l2.338.447a29.3,29.3,0,0,1-2.252,6.55V104Zm20.064-18.5.138,2.115-9.4.688c.722,4.35,1.461,7.84,3.9,11.588.791,1.2,1.427,1.341,1.874,1.341.928,0,1.6-2.974,1.874-4.315L508.744,98c-.5,2.424-1.513,6-3.714,6-1.891,0-3.112-1.341-4.178-2.923-2.751-3.989-3.61-8.115-4.315-12.6l-6.189.464-.224-2.2,6.138-.413c-.464-4.659-.55-6.378-.6-7.874h2.39a74.348,74.348,0,0,0,.636,7.7l9.542-.653Zm-3.112-.911a26.123,26.123,0,0,0-4.676-4.212l1.41-1.6a22.81,22.81,0,0,1,4.9,4.04l-1.616,1.754Z" transform="translate(-427.389 -78.433)" fill="#fff"/>
        <path id="パス_1964" data-name="パス 1964" d="M523.232,104.075c-8.029-3.112-11-10.4-11.811-12.6a24.055,24.055,0,0,1-4.023,3.576v5.811c2.441-.378,4.865-.86,7.29-1.461l.034,2.011a105,105,0,0,1-13.737,2.373l-.447-2.115c1.066-.086,2.029-.172,4.59-.464V96.442a34.748,34.748,0,0,1-5.691,2.424l-.963-2.149a23.264,23.264,0,0,0,10.367-5.553H498.8V89.238h11.6V86.8h-9.662v-1.84h9.662V82.791H499.489v-1.96h10.917V78.493h2.252v2.338h10.917v1.96H512.659v2.166h9.611V86.8h-9.611v2.441h11.553v1.926H513.484a16.425,16.425,0,0,0,2.3,4.35,24.992,24.992,0,0,0,5.175-3.748l1.616,1.6a41.831,41.831,0,0,1-5.416,3.8,18.145,18.145,0,0,0,7.324,4.848l-1.289,2.1Z" transform="translate(-415.831 -78.39)" fill="#fff"/>
        <path id="パス_1965" data-name="パス 1965" d="M538.791,79.561a38.887,38.887,0,0,1-6.722,6.963H540.3v2.012H529.438a43.9,43.9,0,0,1-4.109,2.527h11.863v12.929H534.94V102.65H522.08v1.341h-2.235V93.641a45.137,45.137,0,0,1-4.436,1.565L514.4,93.143a39.123,39.123,0,0,0,11.175-4.625H514.808V86.506h9.628V83.033h-7.616V81.142h7.616V78.477h2.252v2.665h6.241V82.93a30.822,30.822,0,0,0,3.851-4.487l1.977,1.1ZM534.94,92.988H522.08v2.8h12.86Zm0,4.659H522.08v3.077h12.86Zm-6.31-11.123a35.256,35.256,0,0,0,4.212-3.473H526.7v3.473Z" transform="translate(-404.381 -78.426)" fill="#fff"/>
      </g>
      <g id="グループ_935" data-name="グループ 935" transform="translate(821.488 178.411)">
        <g id="グループ_934" data-name="グループ 934" transform="translate(0 36.517)">
          <path id="パス_1966" data-name="パス 1966" d="M481.927,125.03v4.848h1.96v1.633h-1.96v12.654h-1.685V131.512h-1.857v-1.633h1.857V125.03Zm7.616,10.212c0,1.926-.138,6.791-.739,7.943a1.65,1.65,0,0,1-1.668,1h-1.461l-.292-1.564h1.066c.413.017.7.034.963-.516.4-.842.533-4.539.533-5.312H486.4c-.344,2.871-.928,5.3-2.8,7.41l-1.255-1.1a10.6,10.6,0,0,0,2.407-6.31h-1.719v-1.53h1.84c.034-.739.069-1.135.086-1.616H486.6c-.017.55-.034.894-.086,1.616h3.009Zm6.739-8.441c-.241,4.59-.327,6.121-2.8,6.121h-2.2L490.9,131.2l2.3.034c.946.017,1.2,0,1.324-2.923h-4.075a8.793,8.793,0,0,1-5.45,5.158l-1.031-1.427a8.006,8.006,0,0,0,4.745-3.731h-4.573v-1.53h5.072a10.153,10.153,0,0,0,.241-1.771h1.719a14.312,14.312,0,0,1-.275,1.771h5.381Zm.756,8.441c-.086,5.244-.12,7.41-.825,8.321a1.767,1.767,0,0,1-1.513.6h-1.582l-.292-1.582h1.2c.756.034.928-.206,1.049-.636a27.078,27.078,0,0,0,.344-5.175h-1.685c-.292,3.215-1,5.416-3.129,7.444L489.3,143.2c2.338-2.218,2.6-4.229,2.871-6.43h-1.65v-1.53h1.754c.017-.55.017-.86,0-1.685h1.633c-.017.928-.017,1.221-.034,1.685h3.163Z" transform="translate(-478.385 -125.013)" fill="#fff"/>
          <path id="パス_1967" data-name="パス 1967" d="M508.484,143.824a19.4,19.4,0,0,1-7.719-4.436v4.779h-1.633v-4.8a18.974,18.974,0,0,1-7.737,4.418l-.911-1.479a19.185,19.185,0,0,0,7.41-3.7h-7.462V137.24h8.7v-1.513H491.79V134.4h7.341v-1.444h-7.84V131.6h4.848a14.9,14.9,0,0,0-.688-1.977h-5.037v-1.41h3.559A25.362,25.362,0,0,0,492.6,125.6l1.668-.55a17.306,17.306,0,0,1,1.461,3.181h1.53v-3.2h1.616v3.2h2.132v-3.2h1.616v3.2h1.461a24.68,24.68,0,0,0,1.513-3.181l1.668.55c-.292.619-.928,1.788-1.444,2.613h3.628v1.41h-5.106c-.275.894-.413,1.324-.636,1.977h4.969v1.358h-7.891V134.4h7.41v1.324h-7.41v1.513h8.682v1.375h-7.427a16.429,16.429,0,0,0,7.427,3.662l-.963,1.547ZM502,131.6a12.324,12.324,0,0,0,.585-1.977h-5.381c.1.292.55,1.668.688,1.977H502Z" transform="translate(-469.733 -124.999)" fill="#fff"/>
        </g>
        <line id="線_122" data-name="線 122" y1="23.846" transform="translate(20.768 4.418)" fill="none" stroke="#fff" stroke-miterlimit="10" stroke-width="5.158"/>
        <path id="パス_1968" data-name="パス 1968" d="M494.327,103.773l9.215,14.992H485.1Z" transform="translate(-473.559 -103.773)" fill="#fff"/>
        <line id="線_123" data-name="線 123" y2="23.863" transform="translate(20.768 65.417)" fill="none" stroke="#fff" stroke-miterlimit="10" stroke-width="5.158"/>
        <path id="パス_1969" data-name="パス 1969" d="M494.327,164.545,485.1,149.553h18.447Z" transform="translate(-473.559 -70.846)" fill="#fff"/>
      </g>
      <g id="グループ_936" data-name="グループ 936" transform="translate(229.983 245.805)">
        <path id="パス_1970" data-name="パス 1970" d="M143.037,146.154h7.255v1.2h-5.845a16.7,16.7,0,0,0,6.069,2.665l-.636,1.341c-3.782-1.221-5.5-2.441-6.843-3.731v2.82H141.7v-2.888a17.653,17.653,0,0,1-6.791,3.834l-.55-1.341a15.473,15.473,0,0,0,5.828-2.7H134.51v-1.2H141.7v-1.221c-3.215.137-4.9.12-5.863.12l-.292-1.238c.464,0,1.049.034,1.96.034a56.9,56.9,0,0,0,10.711-.877l.671,1.2a44.115,44.115,0,0,1-5.845.688Zm5.639,13.032a29.177,29.177,0,0,0-4.848-1.926c-1.6.98-4.573,1.771-8.424,1.908l-.413-1.41a19.049,19.049,0,0,0,6.929-1.049,45.135,45.135,0,0,0-5.588-1.152,22.5,22.5,0,0,0,2.2-2.1h-4.109v-1.289h5.226a18.316,18.316,0,0,0,1.221-1.7l1.358.516c-.464.636-.653.894-.894,1.186h8.992v1.289h-3.3a9.255,9.255,0,0,1-1.943,2.8,25.909,25.909,0,0,1,4.453,1.719l-.86,1.2ZM140.3,153.46a17.3,17.3,0,0,1-1.272,1.375c1.375.275,3.026.6,4.47,1a7.044,7.044,0,0,0,1.994-2.373Z" transform="translate(-134.321 -142.973)" fill="#1b1311"/>
        <path id="パス_1971" data-name="パス 1971" d="M150.862,146.027v1.221h-6.447v-1.221Zm-.567-2.476v1.238h-5.381v-1.238Zm0,4.917v1.221h-5.381v-1.221Zm0,2.441v1.238h-5.381V150.91Zm0,2.476V158.3h-4.023v.774h-1.358v-5.691Zm-1.324,1.186h-2.7V157.1h2.7Zm6.4-4.539,4.9-.327.034,1.341-4.934.344v5.639c0,.361.086.533.567.533h2.183a.566.566,0,0,0,.653-.533,20.973,20.973,0,0,0,.12-2.373l1.41.378c-.086,3.49-.447,3.9-1.84,3.9h-2.888c-.877,0-1.65-.189-1.65-1.289v-6.155l-3.009.206-.052-1.341,3.06-.223V145.7c-1.324.155-2.08.206-2.751.241l-.258-1.324a23.553,23.553,0,0,0,8.27-1.564l.739,1.186a20.858,20.858,0,0,1-4.556,1.255v4.539Z" transform="translate(-127.085 -142.915)" fill="#1b1311"/>
        <path id="パス_1972" data-name="パス 1972" d="M161.108,148.334a1.461,1.461,0,1,1-1.461-1.461A1.46,1.46,0,0,1,161.108,148.334Z" transform="translate(-117.181 -140.168)" fill="#1b1311"/>
        <path id="パス_1973" data-name="パス 1973" d="M137.791,163.788v5.037a2.315,2.315,0,0,0,1.324,1.874,4.879,4.879,0,0,0,2.51.619h8.906l-.258,1.324h-8.6A4.623,4.623,0,0,1,137.5,170.7a14.954,14.954,0,0,1-2.493,2.441l-.671-1.513a12.178,12.178,0,0,0,2.063-1.668v-4.831h-1.874v-1.341Zm-.533-2.648a12.308,12.308,0,0,0-2.424-2.923l.963-.928a11.93,11.93,0,0,1,2.579,2.906l-1.118.946Zm12.946-1.65h-4.883v1.186h4.367v6.1h-4.367v1.289h5.055v1.186h-5.055v1.5h-1.375v-1.5h-5.089v-1.186h5.089V166.78h-4.264v-6.1h4.264V159.49h-4.883V158.3h4.883v-1.221h1.375V158.3H150.2Zm-6.258,2.3h-2.957v1.358h2.957Zm0,2.407h-2.957v1.461h2.957Zm4.418-2.407h-3.043v1.358h3.043Zm0,2.407h-3.043v1.461h3.043Z" transform="translate(-134.335 -132.825)" fill="#1b1311"/>
        <path id="パス_1974" data-name="パス 1974" d="M153.247,157.178a13.358,13.358,0,0,1-.653,1.513h2.424a8.911,8.911,0,0,0,.756-1.633l1.427.172a13.389,13.389,0,0,1-.67,1.461h3.49v1.032h-3.714v1.066h3.3v.894h-3.3v1.032h3.3v.894h-3.3v1.118h4.143v1.049h-9.765v-4.023c-.344.413-.6.688-.894.98l-.928-1,.172-.172h-1.289v3.645c.619-.241.894-.344,1.5-.585l.12,1.238a17.685,17.685,0,0,1-1.616.722v5.244a1.2,1.2,0,0,1-1.375,1.307h-1.685l-.241-1.479h1.393c.4,0,.533-.086.533-.447V167.1c-1.032.378-1.341.464-1.891.619l-.223-1.444c.567-.155,1.032-.258,2.115-.6v-4.109h-1.977v-1.307h1.977v-3.129h1.375v3.129h1.513v1.066a13.477,13.477,0,0,0,2.544-4.3l1.444.155Zm4.126,11.261h2.648c-.223,4.281-.739,4.694-2.132,4.694h-2.166l-.4-1.41H157.6c.567,0,.808,0,.946-2.115h-2.871l.55-1.788h-2.63a7.566,7.566,0,0,1-4.281,5.364l-.825-1.152c2.888-1.427,3.421-3.146,3.662-4.212H149.43v-1.169h8.476l-.533,1.788Zm-5.45-8.493v.842h3.163v-1.066h-3.043l-.12.223Zm3.163,1.736h-3.163v1.032h3.163Zm0,1.926h-3.163v1.118h3.163Z" transform="translate(-127.2 -132.868)" fill="#1b1311"/>
      </g>
      <rect id="長方形_6495" data-name="長方形 6495" width="184.922" height="216.676" transform="translate(291.274 116.982)" fill="#fff"/>
      <rect id="長方形_6496" data-name="長方形 6496" width="184.922" height="216.676" transform="translate(27.869 116.982)" fill="#fff"/>
      <g id="グループ_937" data-name="グループ 937" transform="translate(66.139 212.469)">
        <path id="パス_1975" data-name="パス 1975" d="M51.345,126.481v-2.888h2.287v2.888H64.892v2.166H43.918v8.579c0,3.679-.739,8.287-3.129,11.828l-1.754-1.7a17.239,17.239,0,0,0,2.613-9.542v-11.33h9.7Zm7.376,10.264A55.033,55.033,0,0,1,64.411,148.3l-2.287,1c-.327-1-.585-1.736-1-2.716-4.539.739-13.651,1.41-17.278,1.6l-.361-2.338c1.65-.034,2.338-.052,2.888-.086A95.932,95.932,0,0,0,51.224,129.9l2.39.6a110.38,110.38,0,0,1-4.934,15.129c4.59-.275,7.547-.447,11.674-.928a61.076,61.076,0,0,0-3.679-6.963l2.029-1Z" transform="translate(-39.035 -123.576)" fill="#090405"/>
        <path id="パス_1976" data-name="パス 1976" d="M80.569,137.732h-20.7v1.736H79.761c-.052,1.65-.224,6.275-1.186,8.2a2.965,2.965,0,0,1-2.665,1.479H72.385l-.413-2.2,3.2.034c1.135,0,2.115,0,2.235-5.725H64.494v3.937H69.17v-2.923h2.166v4.814H57.686v1.324h-2.2v-6.138h2.2v2.923h4.659v-3.937H57.634V125.595h7.977a9.5,9.5,0,0,0,.653-2.012l2.441.1a16.727,16.727,0,0,1-.739,1.891h9.439v8.751H59.852v1.616h20.7V137.7ZM75.2,127.348H59.869v1.874H75.2Zm0,3.387H59.869v1.926H75.2Z" transform="translate(-27.203 -123.583)" fill="#090405"/>
        <path id="パス_1977" data-name="パス 1977" d="M71.032,146.6a15.18,15.18,0,0,0,6.791-4.762l1.891,1.066a20.545,20.545,0,0,1-7.29,5.588l-1.41-1.891Zm14.338,2.2H83.032v-7.926H72.494V124.781h2.252V138.9H96.907v1.977H85.371Zm9.353-24.705v12.963H77.445V124.093Zm-2.2,1.788H79.611v2.063H92.523Zm0,3.714H79.611v1.926H92.523Zm0,3.61H79.611v2.063H92.523Zm-2.1,8.562a20,20,0,0,0,6.825,4.728l-1.375,1.926a23.2,23.2,0,0,1-7.272-5.5Z" transform="translate(-16.034 -123.216)" fill="#090405"/>
        <path id="パス_1978" data-name="パス 1978" d="M99.355,126.354V123.6h2.338v2.751h11.278v2.235H92.031V136.1a33.018,33.018,0,0,1-.739,7,15.062,15.062,0,0,1-2.527,6.1l-1.84-1.84c2.476-3.576,2.8-8.527,2.8-11.45v-9.542h9.628Zm13.616,8.287h-8.115v11.588c0,1.685-.275,2.888-2.665,2.888H98.031l-.413-2.373,4.075.034c.5,0,.825-.086.825-.86V134.641H93.492v-2.149h19.479Z" transform="translate(-4.591 -123.569)" fill="#090405"/>
      </g>
      <g id="グループ_940" data-name="グループ 940" transform="translate(341.132 192.285)">
        <g id="グループ_938" data-name="グループ 938" transform="translate(2.682)">
          <path id="パス_1979" data-name="パス 1979" d="M225.921,115.743h-11.5v1.616h9.112v5.261h-9.112v1.427h9.714v3.4h1.96v1.874h-1.96v4.848H221.9v-1.324h-7.479v2.166a2.106,2.106,0,0,1-2.39,2.39h-4.436l-.309-2.235,4.023.034c.688,0,.911-.189.911-.86v-1.513H202.23V131.1h9.989v-1.822H200.545v-1.788h11.674V125.7h-9.9v-1.685h9.9v-1.427h-9.026v-5.261h9.026v-1.616H200.854v-1.874h11.364v-1.891h2.2v1.891h11.5v1.908Zm-13.7,3.2h-6.825V121h6.825Zm9.026,0h-6.825V121h6.825Zm.653,6.791h-7.479v1.788H221.9Zm0,3.576h-7.479v1.822H221.9Z" transform="translate(-200.545 -111.771)" fill="#090405"/>
          <path id="パス_1980" data-name="パス 1980" d="M227.431,118.153a14.271,14.271,0,0,0,4.676-6.31l2.235.361a10.274,10.274,0,0,1-.86,1.891h8.7v1.891h-1.84a11.521,11.521,0,0,1-3.163,5.072,18.568,18.568,0,0,0,5.364,2.2l-1.014,2.029a24.918,24.918,0,0,1-6-2.94,22.294,22.294,0,0,1-6.1,2.854l-1-1.685a18.668,18.668,0,0,1-2.029,4.3l-1.754-1a13.837,13.837,0,0,0,1.822-3.748h-2.441v12.31c0,1.479-.825,2.115-2.287,2.115h-3.129l-.5-2.149,2.974.034c.378,0,.928-.052.928-.774v-8.3a28.652,28.652,0,0,1-4.5,6.636l-1.186-1.822a24.054,24.054,0,0,0,5.364-8.029h-4.9v-2.029h6.963a26.47,26.47,0,0,0-4.711-3.628l1.341-1.6a14.92,14.92,0,0,1,2.579,1.685,18.832,18.832,0,0,0,2.476-2.716h-7.926v-1.977h10.573v1.96a30.631,30.631,0,0,1-3.662,3.885,10.691,10.691,0,0,1,1.186,1.186l-1.186,1.238h4.212v1.874c-.052.172-.086.241-.1.309a15.9,15.9,0,0,0,5.312-2.235,16.679,16.679,0,0,1-2.8-3.4,11.7,11.7,0,0,1-1.977,1.96l-1.6-1.41Zm13.874,8.8c0,3.662-.585,7.84-1.135,8.94a2.565,2.565,0,0,1-2.716,1.616h-3.473l-.464-2.149,3.335.034c.911,0,1.272-.241,1.565-1.014a25.454,25.454,0,0,0,.722-5.45h-4.848c-.6,3.4-2.287,6.327-6.6,8.579l-1.547-1.822c4.126-1.7,5.347-4.229,5.966-6.774h-4.436v-1.977h4.762c.1-.825.1-1.513.138-2.287h2.115c-.034,1.049-.052,1.565-.138,2.287h6.739ZM232.28,116l-.052.086a13.921,13.921,0,0,0,3.249,3.714A9.073,9.073,0,0,0,238,116Z" transform="translate(-189.195 -111.843)" fill="#090405"/>
          <path id="パス_1981" data-name="パス 1981" d="M257.522,121.83a80.826,80.826,0,0,1-.739,12.688c-.223.791-.688,2.476-3.61,2.476h-3.387l-.516-2.3,3.4.034A1.636,1.636,0,0,0,254.6,133.4c.516-1.7.6-6.516.653-9.576H237.51c-.172,8.579-2.424,11.777-3.353,13.1l-1.822-1.6c1.1-1.616,2.923-4.35,2.923-12.224V112.563h20.975V119.3H237.527v2.527h19.995ZM254,114.489H237.51v2.94H254Zm-2.51,19.462H239.625v-7.977h11.863Zm-2.115-6.1h-7.6v4.178h7.6Z" transform="translate(-177.68 -111.325)" fill="#090405"/>
        </g>
        <g id="グループ_939" data-name="グループ 939" transform="translate(0 44.374)">
          <path id="パス_1982" data-name="パス 1982" d="M211.278,159.35h-3.163l-6.688-19.462c.034.739.086,4.539.086,5.416v14.029h-2.527v-21.68h4.092l6.6,19.479,6.6-19.479h4.126v21.68h-2.562V145.3c0-.911.052-4.711.086-5.416Z" transform="translate(-198.985 -137.653)" fill="#090405"/>
          <path id="パス_1983" data-name="パス 1983" d="M229.4,149.354H216.693v9.989h-2.648v-21.68h2.648V147H229.4v-9.335h2.648v21.68H229.4Z" transform="translate(-188.153 -137.646)" fill="#090405"/>
          <path id="パス_1984" data-name="パス 1984" d="M236.438,137.663c5.037,0,9.06.86,9.06,10.78,0,7.891-1.874,10.9-8.424,10.9h-9.989v-21.68Zm-6.688,2.39v16.9h7.135c4.8,0,5.966-1.754,5.966-8.476,0-7.479-2.1-8.424-6.378-8.424Z" transform="translate(-178.774 -137.646)" fill="#090405"/>
          <path id="パス_1985" data-name="パス 1985" d="M254.569,137.663v2.39H242.758v7.272H253.95V149.7H242.758v9.662h-2.613V137.68h14.424Z" transform="translate(-169.381 -137.646)" fill="#090405"/>
        </g>
      </g>
      <line id="線_124" data-name="線 124" x2="71.417" transform="translate(212.773 225.329)" fill="none" stroke="#5b6a71" stroke-miterlimit="10" stroke-width="5.158"/>
      <path id="パス_1986" data-name="パス 1986" d="M176.5,134.925l-15.009,9.232V125.693Z" transform="translate(115.182 90.403)" fill="#5b6a71"/>
      <line id="線_125" data-name="線 125" x2="141.115" transform="translate(504.993 167.39)" fill="none" stroke="#5b6a71" stroke-miterlimit="10" stroke-width="5.158"/>
      <path id="パス_1987" data-name="パス 1987" d="M390.554,101.225l-15.009,9.215V91.993Z" transform="translate(269.136 66.165)" fill="#5b6a71"/>
      <path id="パス_1988" data-name="パス 1988" d="M498.215,52.872,489,37.863h18.447Z" transform="translate(350.738 27.232)" fill="#5b6a71"/>
      <line id="線_126" data-name="線 126" x2="295.142" transform="translate(504.993 225.329)" fill="none" stroke="#5b6a71" stroke-miterlimit="10" stroke-width="5.158"/>
      <path id="パス_1989" data-name="パス 1989" d="M480.3,134.925l-15.009,9.232V125.693Z" transform="translate(333.688 90.403)" fill="#5b6a71"/>
      <path id="パス_1990" data-name="パス 1990" d="M70.555,99.273l.316-74.484,728.316.082V47.253" transform="translate(49.775 17.829)" fill="none" stroke="#5b6a71" stroke-miterlimit="10" stroke-width="5.158"/>
      <g id="グループ_941" data-name="グループ 941" transform="translate(416.428)">
        <path id="パス_1991" data-name="パス 1991" d="M250.844,17.071a20.993,20.993,0,0,1-2.642-2.725V25.74h-2.12V14.733a17.593,17.593,0,0,1-2.338,2.228l-.963-2.175c2.641-1.981,5.256-5.091,6.163-8.173h-5.723V4.523h2.861V.2h2.12v4.32h2.943v1.9a20.645,20.645,0,0,1-2.806,5.392A21.868,21.868,0,0,0,252,15.282Zm2.036-6.935a10.528,10.528,0,0,1-1.6,2.918l-1.487-.937a10.419,10.419,0,0,0,1.487-2.806ZM264.273.063A18.516,18.516,0,0,1,267.217,2.4l-1.265.99h2.807V5.375h-7.6V7.6h6.576V23.317c0,1.35-.138,2.422-2.118,2.422h-2.835l-.358-2.118,2.312.026c.523,0,.88,0,.88-.77V19.135h-4.458v6.523h-2.12V19.135h-4.018V25.74h-2.118V7.6h6.136V5.375H252V3.395h7.044V.2h2.12V3.395h3.963a20.9,20.9,0,0,0-2.477-2.037Zm-5.23,9.385h-4.018v3h4.018Zm0,4.79h-4.018v3.108h4.018Zm6.578-4.79h-4.458v3h4.458Zm0,4.79h-4.458v3.108h4.458Z" transform="translate(-242.781 0.045)" fill="#1a1311"/>
        <path id="パス_1992" data-name="パス 1992" d="M271.6,20.524a102.969,102.969,0,0,1-12.411,2.532l-.275-2.2c1.21-.163,1.348-.191,1.678-.22V1.207h9.686V18.819c.193-.029,1.018-.249,1.212-.275ZM268.1,3.27h-5.34V7.15h5.34Zm0,5.833h-5.34v3.88h5.34Zm-5.34,11.2c1.13-.193,2.587-.442,5.34-.99V14.937h-5.34Zm5.505,3.686c3.083-2.091,7.045-5.338,7.456-15.85h-4.4V5.911h4.432V.16h2.228V5.911h6c0,1.348,0,14.859-1.377,17.942a2.571,2.571,0,0,1-2.7,1.762h-3.33l-.413-2.34,2.833.057c.8.026,1.322.026,1.6-.744,1.073-2.863,1.128-13.236,1.128-14.447h-3.77c-.44,10.9-4.4,14.859-7.843,17.557Z" transform="translate(-231.181 0.115)" fill="#1a1311"/>
        <path id="パス_1993" data-name="パス 1993" d="M295.769,10.1h-6.8v3.358h10.621v2.091H288.973V22.84h2.338a48.289,48.289,0,0,0,2.725-6.494l2.312.6a39.048,39.048,0,0,1-2.615,5.89h6.413V24.9H275.6V22.84h5.751a37.93,37.93,0,0,0-2.256-5.668l2.2-.717a36.465,36.465,0,0,1,2.477,6.385h2.943V15.547H276.039V13.457h10.677V10.1h-6.8V8.228c-1.927,1.018-2.835,1.4-3.8,1.843L274.829,7.9A28.055,28.055,0,0,0,286.963,0h1.982a32.057,32.057,0,0,0,12.107,7.953L299.789,10.1a31.268,31.268,0,0,1-4.02-1.981Zm-.193-2.092A34.814,34.814,0,0,1,287.9,2.091a29.871,29.871,0,0,1-7.568,5.916Z" transform="translate(-219.731)" fill="#1a1311"/>
        <path id="パス_1994" data-name="パス 1994" d="M299.642,10.96a22.2,22.2,0,0,0,4.185,6.274,23.324,23.324,0,0,0,4.319-6.494l1.984,1.128a24.7,24.7,0,0,1-4.625,6.879,24.958,24.958,0,0,0,11.118,4.46l-.965,2.338a26.421,26.421,0,0,1-11.806-5.257,28.13,28.13,0,0,1-11.8,5.312l-.964-2.367a27.749,27.749,0,0,0,11.091-4.513,24.191,24.191,0,0,1-4.6-6.8ZM304.981.144V3.252h11.614v2.23H291.141V3.252h11.5V.144ZM291.168,11.481a18.86,18.86,0,0,0,7.211-5.254l2.036,1.155a20.628,20.628,0,0,1-8.036,6.136Zm17.859-5.228a19.018,19.018,0,0,0,7.6,4.953l-1.265,2.147A22.385,22.385,0,0,1,307.1,7.492Z" transform="translate(-208.04 0.104)" fill="#1a1311"/>
        <path id="パス_1995" data-name="パス 1995" d="M312.784,25.728h-2.257V10.786a18.68,18.68,0,0,1-2.558,3.273l-1.155-2.421A27.345,27.345,0,0,0,312.839.08l2.338.44a33.763,33.763,0,0,1-2.393,6.3ZM329.213.19V6.023h3.438v2.2h-3.438V23.2c0,1.238-.275,2.532-2.642,2.532h-5.036l-.33-2.367,4.953.055c.468,0,.715-.11.715-.77V8.224H314.544v-2.2h12.329V.19Zm-8.778,18.437a30.74,30.74,0,0,0-4.541-6.714l1.926-1.295a26.291,26.291,0,0,1,4.623,6.66Z" transform="translate(-196.727 0.058)" fill="#1a1311"/>
      </g>
    </g>
  </g>
</svg>
