<svg xmlns="http://www.w3.org/2000/svg" width="335" height="817.497" viewBox="0 0 335 817.497">
  <g id="グループ_1431" data-name="グループ 1431" transform="translate(-20 -5074.503)">
    <text id="_公募期間_2023年6月8日_木_2022年7月7日_金_一次審査_2023年7月中旬_予定_公募結果発表_2023年10月上旬_予定_本サイト上で発表_成果発表会_2024年年3月上旬_予定_" data-name="◯公募期間：
2023年6月8日(木)〜2022年7月7日(金)
◯一次審査：
2023年7月中旬（予定）
◯公募結果発表：
2023年10月上旬（予定）※本サイト上で発表
◯成果発表会：
2024年年3月上旬（予定）" transform="translate(20 5616)" fill="#333" font-size="16" font-family="NotoSansJP-Bold, Noto Sans JP" font-weight="700"><tspan x="0" y="19">◯公募期間：</tspan><tspan font-family="NotoSansJP-Regular, Noto Sans JP" font-weight="400"><tspan x="0" y="55">2023年6月8日(木)〜2022年7月7日(金)</tspan></tspan><tspan x="0" y="91">◯一次審査：</tspan><tspan font-family="NotoSansJP-Regular, Noto Sans JP" font-weight="400"><tspan x="0" y="127">2023年7月中旬（予定）</tspan></tspan><tspan x="0" y="163">◯公募結果発表：</tspan><tspan font-family="NotoSansJP-Regular, Noto Sans JP" font-weight="400"><tspan x="0" y="199">2023年10月上旬（予定）※本</tspan><tspan y="199">サイト</tspan><tspan y="199">上</tspan><tspan y="199">で</tspan><tspan y="199">発表</tspan></tspan><tspan x="0" y="235">◯成果発表会：</tspan><tspan font-family="NotoSansJP-Regular, Noto Sans JP" font-weight="400"><tspan x="0" y="271">2024年年3月上旬（予定）</tspan></tspan></text>
    <g id="アートワーク_51" data-name="アートワーク 51" transform="translate(187.5 5333.894)">
      <g id="グループ_1052" data-name="グループ 1052" transform="translate(-167.5 -259.39)">
        <g id="グループ_1002" data-name="グループ 1002" transform="translate(214.396)">
          <g id="グループ_999" data-name="グループ 999" transform="translate(0 25.668)">
            <g id="グループ_998" data-name="グループ 998">
              <path id="パス_2185" data-name="パス 2185" d="M309.615,47.364a10.532,10.532,0,0,1-1.8.749l-.877-1.867a7.48,7.48,0,0,0,2.7-1.089h-2.489V43.63h4.171c.057-.085.1-.156.227-.381h-3.1V39.372h1.924v-.438h-3.224V37.379h3.224v-.51h2.093v.51h2.97v-.51h2.136v.51h2.956v1.556h-2.956v.438h1.669v3.876h-5.487a3.18,3.18,0,0,1-.2.381h6.973v1.528h-2.617a6.356,6.356,0,0,0,2.885,1.259l-.919,1.9a8.708,8.708,0,0,1-1.683-.763c-.169,2.037-.664,2.772-1.668,2.772h-2.419l-.3-1.754h1.669c.325,0,.566-.071.58-1.075h-1.98c-1.09,1.994-3.3,2.7-5.219,2.9l-.778-1.81a6.72,6.72,0,0,0,3.705-1.089h-2.178Zm.933-6.93v.439h6.6v-.439Zm0,1.344v.466h6.6v-.466Zm2.121,4.257a4.186,4.186,0,0,0,.142-.664l1.952.1c-.057.268-.071.339-.113.565h1.387a4.458,4.458,0,0,1-.807-.877h-2.772a9.356,9.356,0,0,1-.891.877Zm2.772-6.662v-.438h-2.97v.438Z" transform="translate(-306.942 -36.784)" fill="#2a2a2a"/>
              <path id="パス_2186" data-name="パス 2186" d="M340.016,50.081a12.822,12.822,0,0,1-4.865-2.277v2.447h-2.093v-2.4a13.855,13.855,0,0,1-4.823,2.207L327.217,48a11.7,11.7,0,0,0,4.03-1.088h-3.8V45.188h5.615v-.566h-4.144v-3.14c-.269.24-.4.339-.665.566l-1.032-1.91a7.725,7.725,0,0,0,2.644-3.309l2.262.17c-.1.212-.212.467-.425.863h1.867a4.3,4.3,0,0,0,.326-1.033l2.193.1a6.178,6.178,0,0,1-.4.934H340v1.527h-4.553v.566h4.143v.962h-4.143v.594h4.143v.962h-4.143v.594h4.964v1.556h-5.276v.566h5.629v1.726h-3.8a10.133,10.133,0,0,0,4.058,1.131Zm-9.023-10.693v.566h2.517v-.566Zm0,1.528v.594h2.517v-.594Zm0,1.556v.594h2.517v-.594Z" transform="translate(-313.055 -36.772)" fill="#2a2a2a"/>
              <path id="パス_2187" data-name="パス 2187" d="M348.382,37.477h5.742v5.007H350.3v7.991h-1.922Zm1.937,1.4v.651h1.952v-.651Zm0,1.7v.651h1.952v-.651Zm1.881,5.049v-.948h-1.188V43.008h7.241v1.668h-1.046v.948h1.245v1.711h-1.245v2.942h-1.9V47.335H354a4.438,4.438,0,0,1-1.825,3.041L350.7,48.99a2.845,2.845,0,0,0,1.329-1.655h-1.259V45.624Zm3.111,0v-.948h-1.2v.948Zm-.226-8.147h5.8V49.061c0,.254,0,1.414-1.2,1.414h-1.8l-.452-2.023h1.159c.311,0,.339-.057.339-.3V42.484h-3.847Zm1.938,1.4v.651h1.9v-.651Zm0,1.7v.651h1.9v-.651Z" transform="translate(-319.436 -36.968)" fill="#2a2a2a"/>
              <path id="パス_2188" data-name="パス 2188" d="M377.487,36.96a25.207,25.207,0,0,1-1.457,4.2c1.1-.042,1.372-.057,2.56-.141a16.284,16.284,0,0,0-.933-1.669l1.782-.821a15.86,15.86,0,0,1,2.051,4.158l-1.924.793c-.1-.354-.142-.5-.227-.764-.749.1-4.257.481-6.138.538l-.17-1.542a23.852,23.852,0,0,1-.805,3.988,13.988,13.988,0,0,1,1.372,1.118l-1.287,1.9c-.2-.226-.453-.495-1-1.032a10.075,10.075,0,0,1-2.248,2.631l-1.414-1.754a7.7,7.7,0,0,0,2.136-2.149,14.856,14.856,0,0,0-1.938-1.16,19.771,19.771,0,0,0,1-4.2h-.962V39.054h1.2c.1-1.287.126-1.768.141-2.207l2.022.057c-.057.523-.071.693-.24,2.15h2.207c-.029.622-.043,1.3-.141,2.234.2-.014.268-.014.933-.043a33.841,33.841,0,0,0,1.188-4.5Zm-6.761,4.087a18.194,18.194,0,0,1-.749,3.211c.226.128.353.184.707.4a12.06,12.06,0,0,0,.764-3.606Zm10.056,9.221h-2.065V49.7H375.7v.565h-1.952V43.834h7.03ZM375.7,45.615v2.136h3.013V45.615Z" transform="translate(-325.244 -36.748)" fill="#2a2a2a"/>
            </g>
          </g>
          <g id="グループ_1001" data-name="グループ 1001" transform="translate(0.631)" style="isolation: isolate">
            <g id="グループ_1000" data-name="グループ 1000">
              <path id="パス_2189" data-name="パス 2189" d="M316.757,1.757a4.367,4.367,0,0,1,.983,2.669h-1.852a3.413,3.413,0,0,0-.531-1.384,2.361,2.361,0,0,0-2.049-.937,2.836,2.836,0,0,0-2.5,1.452,8.357,8.357,0,0,0-1.03,4.157A4.07,4.07,0,0,1,311.4,6.3a4.687,4.687,0,0,1,2-.416,4.859,4.859,0,0,1,3.267,1.2,4.444,4.444,0,0,1,1.394,3.569,5.416,5.416,0,0,1-1.321,3.594,4.655,4.655,0,0,1-3.767,1.567,4.828,4.828,0,0,1-3.611-1.587q-1.519-1.587-1.519-5.343a14.385,14.385,0,0,1,.676-4.713q1.3-3.7,4.755-3.7A4.116,4.116,0,0,1,316.757,1.757Zm-1.405,11.394a3.838,3.838,0,0,0,.734-2.346,4.018,4.018,0,0,0-.655-2.181,2.6,2.6,0,0,0-2.383-1.034,3.108,3.108,0,0,0-2.119.8,3.045,3.045,0,0,0-.909,2.414,3.523,3.523,0,0,0,.826,2.378,2.867,2.867,0,0,0,2.295.963A2.57,2.57,0,0,0,315.352,13.151Z" transform="translate(-307.845 -0.139)" fill="#2a2a2a"/>
              <path id="パス_2190" data-name="パス 2190" d="M331.572,0h1.581L328.3,15.285h-1.581Z" transform="translate(-313.537)" fill="#2a2a2a"/>
              <path id="パス_2191" data-name="パス 2191" d="M338.28,6.713a2.947,2.947,0,0,1-.823-2.164,3.892,3.892,0,0,1,1.206-2.862,4.647,4.647,0,0,1,3.419-1.2,4.744,4.744,0,0,1,3.357,1.129,3.5,3.5,0,0,1,1.216,2.638,3.452,3.452,0,0,1-.707,2.258,4.223,4.223,0,0,1-1.227.957,4.8,4.8,0,0,1,1.463.979,3.758,3.758,0,0,1,.992,2.705,4.617,4.617,0,0,1-1.322,3.335,4.949,4.949,0,0,1-3.736,1.368,5.769,5.769,0,0,1-3.678-1.18,4.1,4.1,0,0,1-1.5-3.428,4.011,4.011,0,0,1,.645-2.285A4.028,4.028,0,0,1,339.5,7.494,3.715,3.715,0,0,1,338.28,6.713Zm6.04,6.738a2.552,2.552,0,0,0,.858-2.1,2.715,2.715,0,0,0-.885-2.2,3.386,3.386,0,0,0-2.268-.749,3.144,3.144,0,0,0-2.19.765,2.706,2.706,0,0,0-.848,2.118,2.885,2.885,0,0,0,.775,2.013,3.1,3.1,0,0,0,2.4.849A3.3,3.3,0,0,0,344.319,13.451Zm-.347-7.368a2.254,2.254,0,0,0,.7-1.653A2.181,2.181,0,0,0,344,2.9a2.67,2.67,0,0,0-2.024-.7,2.45,2.45,0,0,0-1.953.7,2.431,2.431,0,0,0-.6,1.637,1.958,1.958,0,0,0,.779,1.648,2.943,2.943,0,0,0,1.838.594A2.615,2.615,0,0,0,343.972,6.082Z" transform="translate(-316.616 -0.148)" fill="#2a2a2a"/>
            </g>
          </g>
        </g>
        <g id="グループ_1007" data-name="グループ 1007" transform="translate(214.396 91.652)">
          <g id="グループ_1004" data-name="グループ 1004" transform="translate(0 25.725)">
            <g id="グループ_1003" data-name="グループ 1003">
              <path id="パス_2192" data-name="パス 2192" d="M309.614,178.578a10.5,10.5,0,0,1-1.8.751l-.877-1.868a7.48,7.48,0,0,0,2.7-1.089h-2.489v-1.528h4.171c.057-.085.1-.156.227-.381h-3.1v-3.875h1.924v-.439h-3.224v-1.556h3.224v-.509h2.093v.509h2.97v-.509h2.136v.509h2.956v1.556h-2.956v.439h1.669v3.875h-5.487a3.176,3.176,0,0,1-.2.381h6.973v1.528h-2.617a6.355,6.355,0,0,0,2.885,1.259l-.919,1.9a8.767,8.767,0,0,1-1.683-.764c-.169,2.037-.664,2.772-1.668,2.772h-2.419l-.3-1.754h1.669c.325,0,.566-.071.58-1.075h-1.98c-1.09,1.994-3.3,2.7-5.219,2.9l-.778-1.81a6.725,6.725,0,0,0,3.705-1.09h-2.178Zm.933-6.93v.439h6.6v-.439Zm0,1.343v.467h6.6v-.467Zm2.121,4.258a4.2,4.2,0,0,0,.142-.665l1.952.1c-.057.268-.071.339-.113.566h1.386a4.5,4.5,0,0,1-.807-.877h-2.772a9.568,9.568,0,0,1-.891.877Zm2.772-6.662v-.439h-2.97v.439Z" transform="translate(-306.941 -168.056)" fill="#2a2a2a"/>
              <path id="パス_2193" data-name="パス 2193" d="M340.015,181.3a12.817,12.817,0,0,1-4.865-2.277v2.447h-2.093v-2.4a13.831,13.831,0,0,1-4.823,2.207l-1.018-2.051a11.689,11.689,0,0,0,4.03-1.089h-3.8V176.4h5.615v-.566h-4.144V172.7c-.269.24-.4.339-.665.566l-1.032-1.91a7.725,7.725,0,0,0,2.644-3.309l2.262.17c-.1.212-.212.467-.424.863h1.866a4.28,4.28,0,0,0,.326-1.032l2.193.1a6.2,6.2,0,0,1-.4.932H340V170.6h-4.553v.566h4.143v.962h-4.143v.594h4.143v.962h-4.143v.594h4.964v1.556h-5.276v.566h5.629v1.725h-3.8a10.139,10.139,0,0,0,4.058,1.132ZM330.992,170.6v.566h2.517V170.6Zm0,1.528v.594h2.517v-.594Zm0,1.556v.594h2.517v-.594Z" transform="translate(-313.054 -168.044)" fill="#2a2a2a"/>
              <path id="パス_2194" data-name="パス 2194" d="M349.255,176.5a20.192,20.192,0,0,1-.481,4.2l-1.386-.891a13.8,13.8,0,0,0,.495-3.508Zm.339-.792c-.863.1-1.4.142-1.881.184l-.113-1.867c.184,0,.551-.014.805-.028.212-.268.453-.608.651-.863a8.345,8.345,0,0,0-1.626-1.655l.82-1.824c.155.126.184.155.339.282a11.5,11.5,0,0,0,.834-1.9l1.741.367a13.384,13.384,0,0,1-1.443,2.644c.1.114.141.156.425.467.636-1.018.947-1.57,1.216-2.051l1.442.509v-1.032h3.041v-.863h2.065v.863h3.14V170.7H360a5.736,5.736,0,0,1-.255,1.075h1.16v3.295h-.636V179.4c0,.722-.113,1.188-1.146,1.188h-.919l-.4-1.981h.467c.241,0,.241-.1.241-.268v-1.994h-.736v5.148h-1.767v-5.148h-.736v4.229h-1.711v-5.5H353.3c.028.142.043.17.112.439l-1.485.509c-.028-.24-.042-.282-.085-.594l-.608.071v6h-1.64Zm2.814-3.2a12.847,12.847,0,0,1,.5,1.287v-2.022h1.2c-.057-.17-.269-.92-.312-1.075h-.99v-.269a34.094,34.094,0,0,1-2.631,3.522c.2-.015,1.117-.057,1.315-.071-.127-.411-.226-.679-.325-.934Zm.411,3.819a17.167,17.167,0,0,1,.367,3.225l-1.4.227a18.562,18.562,0,0,0-.226-3.268Zm3.2-1.725v-1.075h-1.245v1.075Zm-.212-3.9a9.423,9.423,0,0,1,.283,1.075h1.627A4.852,4.852,0,0,0,358,170.7Zm1.98,3.9h1.273v-1.075h-1.273Z" transform="translate(-319.136 -168.044)" fill="#2a2a2a"/>
              <path id="パス_2195" data-name="パス 2195" d="M371.138,179.934a8.229,8.229,0,0,0,1.344-.834,1.833,1.833,0,0,1-.523.085h-1.585a1.242,1.242,0,0,1-1.258-1.414v-3.72l-1.032.2-.057-2.122,1.089-.2v-3.8h2.107v3.409l2.4-.438.1,2.107-2.5.467v3.153c0,.17,0,.255.254.255h.4c.241,0,.311-.255.4-1.994l1.641.368a11.815,11.815,0,0,1-.5,2.843c1.3-1.3,1.938-2.574,1.98-7.609H373.19v-2.108h7.892c0,7.072,0,10.891-.778,12.193a1.758,1.758,0,0,1-1.47.735h-2.5l-.411-2.121H377.7c.41,0,.622-.029.777-.537.453-1.428.439-7.015.424-8.161h-1.371c-.085,5.2-.553,8.316-4.866,11Z" transform="translate(-325.359 -168.068)" fill="#2a2a2a"/>
            </g>
          </g>
          <g id="グループ_1006" data-name="グループ 1006" transform="translate(0.611)" style="isolation: isolate">
            <g id="グループ_1005" data-name="グループ 1005">
              <path id="パス_2196" data-name="パス 2196" d="M318.18,132.123v1.634a17.274,17.274,0,0,0-1.909,2.424,24.474,24.474,0,0,0-2.107,3.725,25.5,25.5,0,0,0-1.374,3.548q-.3,1.03-.78,3.319h-2.07a25.49,25.49,0,0,1,3.122-8.49,26.9,26.9,0,0,1,3-4.277h-8.241v-1.883Z" transform="translate(-307.816 -131.488)" fill="#2a2a2a"/>
              <path id="パス_2197" data-name="パス 2197" d="M331.573,131.214h1.581L328.305,146.5h-1.581Z" transform="translate(-313.517 -131.214)" fill="#2a2a2a"/>
              <path id="パス_2198" data-name="パス 2198" d="M347.435,132.123v1.634a17.322,17.322,0,0,0-1.91,2.424,24.528,24.528,0,0,0-2.107,3.725,25.417,25.417,0,0,0-1.374,3.548q-.3,1.03-.78,3.319h-2.07a25.491,25.491,0,0,1,3.122-8.49,26.9,26.9,0,0,1,3-4.277h-8.241v-1.883Z" transform="translate(-316.637 -131.488)" fill="#2a2a2a"/>
            </g>
          </g>
        </g>
        <g id="グループ_1014" data-name="グループ 1014" transform="translate(214.735 153.814)">
          <g id="グループ_1009" data-name="グループ 1009" transform="translate(0 25.005)">
            <g id="グループ_1008" data-name="グループ 1008">
              <path id="パス_2199" data-name="パス 2199" d="M307.427,263.966h13.125v2.291H307.427Z" transform="translate(-307.427 -258.407)" fill="#2a2a2a"/>
              <path id="パス_2200" data-name="パス 2200" d="M331.035,264.013a21.391,21.391,0,0,1-2.207,5.218l-1.611-1.627a16.582,16.582,0,0,0,2.064-4.723Zm-1.159-3.946A14.573,14.573,0,0,0,327.4,257.9l1.359-1.471a11.355,11.355,0,0,1,2.615,2.037Zm4.567.622h2.206V262.2a8.069,8.069,0,0,0,1.162,3.1,6.076,6.076,0,0,0,3.181,2.248l-1.131,2.037a7.313,7.313,0,0,1-4.129-4.116c-.284.806-1.019,2.814-4.669,4.172l-1.215-2.065c.976-.226,4.6-1.06,4.6-5.218Zm.835-4.356c-.114.41-.227.848-.509,1.626h5.883v2.009a13.809,13.809,0,0,1-1.6,3.833l-1.868-1.09a8.894,8.894,0,0,0,1.3-2.758h-4.611A10.247,10.247,0,0,1,331.7,262.9l-1.668-1.556a10.555,10.555,0,0,0,3.11-5.332Z" transform="translate(-313.394 -256.008)" fill="#2a2a2a"/>
              <path id="パス_2201" data-name="パス 2201" d="M350.7,260.209h-1.2l-.071-.2H348.01v-3.225H353.2v-.637h2.15v.637h5.332v3.225H358.6v-.085c-.48.057-.791.071-1.118.1l1.189.226a7.679,7.679,0,0,1-.453.905h2.787v1.613h-3.225a10.905,10.905,0,0,0,3.508,1.442l-1.046,1.782c-.256-.113-.425-.184-.764-.353v3.96h-2.065v-.354h-6.238v.354H349.17v-3.946c-.338.155-.508.226-.791.339l-.99-1.852a9.674,9.674,0,0,0,3.423-1.372h-3.154v-1.613h2.8c-.029-.057-.284-.523-.425-.791Zm7.906-1.146v-.749h-8.543v.5c5.488.029,6.888.029,8.26-.226Zm-7.426,6.238v.636h2.15V265.3Zm0,1.711v.708h2.15v-.708Zm2.15-3v-1.244h-.24a11.662,11.662,0,0,1-1.3,1.244Zm0-2.857v-.962l-1.273.015c.071.141.353.82.411.947Zm1.924,0h.891a4.836,4.836,0,0,0,.51-1.06c-.382.014-.962.057-1.4.071Zm0,1.613v1.244h1.67a11.707,11.707,0,0,1-1.33-1.244Zm0,2.531v.636h2.164V265.3Zm0,1.711v.708h2.164v-.708Z" transform="translate(-319.476 -256.051)" fill="#2a2a2a"/>
              <path id="パス_2202" data-name="パス 2202" d="M369.786,262.286a10.987,10.987,0,0,1-1.244.594l-.919-2.051a10.739,10.739,0,0,0,3.62-1.852h-3.211v-1.867h5.531v-.919h2.065v.919H381.1v1.867h-3.14a9.229,9.229,0,0,0,3.578,1.824l-.962,2.079a12.114,12.114,0,0,1-1.259-.651v5.007H381.2v1.909H367.892v-1.909h1.894Zm2.037.2v.665h5.487v-.665Zm0,2.051v.678h5.487v-.678Zm0,2.037v.664h5.487v-.664Zm1.74-5.756v-1.628a10.769,10.769,0,0,1-1.613,1.628Zm3.719,0a9.323,9.323,0,0,1-1.653-1.641v1.641Z" transform="translate(-325.577 -256.063)" fill="#2a2a2a"/>
            </g>
          </g>
          <g id="グループ_1011" data-name="グループ 1011" transform="translate(0.272)">
            <g id="グループ_1010" data-name="グループ 1010">
              <path id="パス_2203" data-name="パス 2203" d="M318.18,220.209v1.634a17.268,17.268,0,0,0-1.91,2.424,24.472,24.472,0,0,0-2.107,3.725,25.325,25.325,0,0,0-1.374,3.548q-.3,1.03-.78,3.319h-2.071a25.53,25.53,0,0,1,3.122-8.491,26.9,26.9,0,0,1,3-4.276h-8.241v-1.883Z" transform="translate(-307.816 -220.209)" fill="#2a2a2a"/>
              <path id="パス_2204" data-name="パス 2204" d="M334.193,234h-5.73a6.809,6.809,0,0,1-1.725,4.006l-1.152-.947a6.7,6.7,0,0,0,1.613-4.928V227.1h8.316v9.688a1.146,1.146,0,0,1-1.154,1.213h-2.318l-.2-1.335h2.04c.1,0,.3-.061.3-.4Zm-5.67-4.128h5.67V228.3h-5.67Zm0,2.938h5.67v-1.772h-5.67Z" transform="translate(-313.174 -222.288)" fill="#2a2a2a"/>
              <path id="パス_2205" data-name="パス 2205" d="M349.415,226.428v2.088h4.612v6.3h-1.286v-.68h-3.326v3.678H348.14v-3.678H344.9v.68h-1.264v-6.3h4.5v-2.088Zm-4.516,3.351v3.1h3.24v-3.1Zm4.516,0v3.1h3.326v-3.1Z" transform="translate(-318.616 -222.084)" fill="#2a2a2a"/>
              <path id="パス_2206" data-name="パス 2206" d="M362.091,230.643a8.042,8.042,0,0,1-1.152,1.165l-.813-1.044a9.511,9.511,0,0,0,2.84-4.407l1.384.1a10.9,10.9,0,0,1-.425,1.25H371.2c0,.073-.012.243-.012.352-.048,4.285-.048,4.759-.134,5.973-.242,3.3-.521,3.763-2.318,3.763h-1.675l-.34-1.262h1.711a1.164,1.164,0,0,0,.972-.352c.449-.631.474-3.824.511-7.271h-6.617a12.17,12.17,0,0,1-.741,1.141h5.561v5.9h-4.82v.789h-1.2Zm1.2.546v1.3H366.9v-1.3Zm0,2.319v1.311H366.9v-1.311Z" transform="translate(-323.588 -222.063)" fill="#2a2a2a"/>
            </g>
          </g>
          <g id="グループ_1013" data-name="グループ 1013" transform="translate(51.236 5.17)">
            <g id="グループ_1012" data-name="グループ 1012">
              <path id="パス_2207" data-name="パス 2207" d="M383.485,228.543a7.3,7.3,0,0,0-1.688,4.55,6.982,6.982,0,0,0,1.688,4.55h-.938a7.023,7.023,0,0,1-1.766-4.55,7.145,7.145,0,0,1,1.766-4.55Z" transform="translate(-380.78 -227.891)" fill="#2a2a2a"/>
              <path id="パス_2208" data-name="パス 2208" d="M390.751,229.157h-2.487v-.967h7.7V229.2a13.078,13.078,0,0,1-2.8,1.461c.119.089.266.207.414.335l-.494.4h3.633v.987a12.976,12.976,0,0,1-2.369,2.487l-.779-.809a8.7,8.7,0,0,0,1.766-1.678h-2.625v3.8c0,.858-.9.918-1.046.918h-1.866l-.2-1.066h1.727c.237,0,.316-.089.316-.356v-3.3h-4.106V231.4h4.816a14.728,14.728,0,0,0-2.329-1.451Zm.01,0a15.732,15.732,0,0,1,1.5.868,6.354,6.354,0,0,0,1.8-.868Z" transform="translate(-382.816 -227.785)" fill="#2a2a2a"/>
              <path id="パス_2209" data-name="パス 2209" d="M404.418,232.131A8.713,8.713,0,0,1,404,234a3.377,3.377,0,0,0,1.766,1.381V231.42H402.7v-.651h-.81v-2.28h3.84v-.879h1.085v.879h3.869v2.28h-.839v.651h-3.059v1.431h3.059v.978h-3.059v1.8a6.218,6.218,0,0,0,.661.04H411l-.207,1h-3.78a4.148,4.148,0,0,1-3.4-1.747,5.349,5.349,0,0,1-1.421,1.954l-.631-.937a6.117,6.117,0,0,0,1.816-3.958Zm5.251-1.7v-.966h-6.761v.966Z" transform="translate(-387.047 -227.61)" fill="#2a2a2a"/>
              <path id="パス_2210" data-name="パス 2210" d="M418.778,228.543a7.2,7.2,0,0,1,1.767,4.55,7.08,7.08,0,0,1-1.767,4.55h-.947a6.982,6.982,0,0,0,1.688-4.55,7.3,7.3,0,0,0-1.688-4.55Z" transform="translate(-391.951 -227.891)" fill="#2a2a2a"/>
            </g>
          </g>
        </g>
        <g id="グループ_1021" data-name="グループ 1021" transform="translate(214.672 320.136)">
          <g id="グループ_1016" data-name="グループ 1016" transform="translate(0 25.435)">
            <g id="グループ_1015" data-name="グループ 1015">
              <path id="パス_2211" data-name="パス 2211" d="M309.64,504.3a2.7,2.7,0,0,0,.231,1.186,1.575,1.575,0,0,0,1.552.864,1.719,1.719,0,0,0,1.2-.474,1.758,1.758,0,0,0,.513-1.362,1.534,1.534,0,0,0-.952-1.572,4.8,4.8,0,0,0-1.706-.222v-1.68a4.419,4.419,0,0,0,1.592-.222,1.375,1.375,0,0,0,.779-1.4,1.567,1.567,0,0,0-.4-1.112,1.46,1.46,0,0,0-1.122-.428,1.414,1.414,0,0,0-1.218.527,2.236,2.236,0,0,0-.374,1.408h-2.19a5.882,5.882,0,0,1,.3-1.688,3.765,3.765,0,0,1,.9-1.293,3.169,3.169,0,0,1,1.092-.643,4.745,4.745,0,0,1,1.556-.222,4.133,4.133,0,0,1,2.758.885,2.948,2.948,0,0,1,1.049,2.376,2.624,2.624,0,0,1-.627,1.778,2.121,2.121,0,0,1-.822.617,1.7,1.7,0,0,1,.922.552,2.947,2.947,0,0,1,.9,2.272,3.834,3.834,0,0,1-1.049,2.664,4,4,0,0,1-3.1,1.148,3.753,3.753,0,0,1-3.52-1.655,4.892,4.892,0,0,1-.576-2.305Z" transform="translate(-307.336 -495.111)" fill="#2a2a2a"/>
              <path id="パス_2212" data-name="パス 2212" d="M331.912,500.146h4.427v2.064h-4.484c-.1,2.079-.791,4.767-6.365,5.828l-.946-1.994c.678-.1,2.97-.439,4.185-1.627a2.984,2.984,0,0,0,.891-2.207h-5.431v-2.064h5.46v-1.457a35.606,35.606,0,0,1-4.512.212l-.425-2.008a31.353,31.353,0,0,0,9.534-1.2l1.144,2.065a33.522,33.522,0,0,1-3.478.666Z" transform="translate(-312.417 -495.026)" fill="#2a2a2a"/>
              <path id="パス_2213" data-name="パス 2213" d="M356.7,502.757v2.362H344.22v-2.362Z" transform="translate(-318.457 -497.156)" fill="#2a2a2a"/>
              <path id="パス_2214" data-name="パス 2214" d="M373.65,500.592a26.034,26.034,0,0,1,3.507,6.463l-2.276.99c-.2-.538-.3-.807-.453-1.188-2.39.325-8.612.636-9.6.693l-.269-2.348c.227,0,1.089,0,1.387-.013,1.966-6.365,2.037-6.606,2.617-9.519l2.488.241c-1.9,6.378-2.106,7.085-2.9,9.249,1.386-.015,1.8-.029,5.459-.184a20.886,20.886,0,0,0-1.937-3.465Z" transform="translate(-324.588 -495.02)" fill="#2a2a2a"/>
              <path id="パス_2215" data-name="パス 2215" d="M383.92,501.923c.339-.07.5-.1,1.569-.4V499.1h-1.456v-2.008h1.456v-2.25h2.023v2.25h1V499.1h-1v1.824c.411-.127.608-.2.891-.311l.042,2.008c-.339.155-.608.268-.933.381v4.2a1.01,1.01,0,0,1-1.075,1.062h-2.065l-.338-2.193h1.173c.256,0,.283-.085.283-.326v-2.051c-.82.255-1.046.311-1.342.382Zm3.7,4.032a11.73,11.73,0,0,0,3.578-3.013h-2.545V500.99h3.112V500.2h2.008v.791h3.578v1.952H394.4a9.86,9.86,0,0,0,3.083,2.885l-1.046,2.009a12.547,12.547,0,0,1-2.646-3.112v3.536h-2.008v-3.437a12.32,12.32,0,0,1-3,3.013Zm6.535-6.138a12.759,12.759,0,0,0,1.173-2.97,54.016,54.016,0,0,1-6.406.424l-.4-1.838a43.193,43.193,0,0,0,7.723-.693l.9,1.782a11.151,11.151,0,0,1-1.711.311l1.894.622a10.941,10.941,0,0,1-1.37,3.07Zm-3.863-2.249a13.21,13.21,0,0,1,.962,2.4l-1.852.566a9.03,9.03,0,0,0-.849-2.39Zm2.914-.24a10.07,10.07,0,0,1,.694,2.235l-1.839.325a11.328,11.328,0,0,0-.678-2.263Z" transform="translate(-330.427 -494.739)" fill="#2a2a2a"/>
              <path id="パス_2216" data-name="パス 2216" d="M409.309,502.653c-.325.127-.494.2-1.329.481v3.889c0,.9-.566,1.245-1.357,1.245h-1.91l-.353-2.164h1.1c.48,0,.494,0,.494-.424v-1.924c-.82.24-1.131.311-1.569.41l-.255-2.15c.466-.085.99-.184,1.824-.41v-2.461h-1.682v-2.008h1.682V494.86h2.023v2.277h1.259v2.008H407.98v1.924c.749-.212.933-.282,1.287-.4Zm8.034-.736h-2.207a6.776,6.776,0,0,0,2.772,4.343l-1.259,2.121a9.818,9.818,0,0,1-3.592-6.464H411.8c-.24,4.243-1.542,5.756-2.079,6.379l-1.584-1.726c.722-.976,1.626-2.234,1.626-5.629v-5.7h7.581Zm-2.079-4.667h-3.409v2.73h3.409Z" transform="translate(-336.521 -494.775)" fill="#2a2a2a"/>
              <path id="パス_2217" data-name="パス 2217" d="M426.92,500.524c-.92.509-1.344.693-1.8.9l-.919-2.065a11.172,11.172,0,0,0,1.8-.679,9.416,9.416,0,0,0-1.287-1.118l1.018-.99v-1.429h6.337a8.047,8.047,0,0,0,.835,1.047,12.864,12.864,0,0,0,1.413-1.456l1.542.877a21.132,21.132,0,0,1-1.682,1.74,4.208,4.208,0,0,0,.594.4,14.379,14.379,0,0,0,1.668-1.81l1.542.933a15.237,15.237,0,0,1-1.612,1.726c.806.381,1.317.594,1.726.749l-.876,2.022a12.187,12.187,0,0,1-1.81-.835v.637h-1.5v1.075h3.664v1.881h-3.664v1.542c0,.367.114.452.409.452h.977c.367,0,.537-.042.58-1.542l2.05.354c-.113,1.824-.24,3.126-1.556,3.126H432.9a1.1,1.1,0,0,1-1.146-1.09V504.13h-1.583c-.369,1.768-1.344,3.282-4.669,4.172l-1.074-2.065c1.725-.254,3.139-.99,3.535-2.107h-3.182v-1.881h3.465v-1.075h-1.33Zm-.325-3.734c.4.311.763.608,1.117.933a10.345,10.345,0,0,0,1.2-.933Zm6.915,2.517a13.9,13.9,0,0,1-2.348-2.191,11.579,11.579,0,0,1-2.333,2.191Zm-3.182,1.868v1.075h1.428v-1.075Z" transform="translate(-342.573 -494.739)" fill="#2a2a2a"/>
              <path id="パス_2218" data-name="パス 2218" d="M457.011,508.347a10.274,10.274,0,0,1-5.8-6.209,7.553,7.553,0,0,1-1.3,1.3v2.348a21.774,21.774,0,0,0,2.9-.538l.057,1.924c-.947.2-2.659.538-6.846,1.075l-.353-1.994c.566-.029,1.019-.057,2.179-.2v-1.372a22.11,22.11,0,0,1-2.7,1.089l-.708-2.065a10.816,10.816,0,0,0,4.243-1.783h-4.016v-1.683h5.672v-.65H445.7v-1.528h4.639v-.58H445v-1.7h5.332v-.947h2.15v.947h5.3v1.7h-5.3v.58h4.6v1.528h-4.6v.65h5.671v1.683H456.19l1.5,1.118a19.134,19.134,0,0,1-2.22,1.852,9.335,9.335,0,0,0,2.786,1.542Zm-3.833-6.421a6.638,6.638,0,0,0,.933,1.6,14.385,14.385,0,0,0,1.755-1.6Z" transform="translate(-348.673 -494.769)" fill="#2a2a2a"/>
            </g>
          </g>
          <g id="グループ_1018" data-name="グループ 1018" transform="translate(1.595)" style="isolation: isolate">
            <g id="グループ_1017" data-name="グループ 1017">
              <path id="パス_2219" data-name="パス 2219" d="M309.619,462.7v-1.436a7.618,7.618,0,0,0,2.83-.661,3.254,3.254,0,0,0,1.2-2.19h1.477v14.837h-2V462.7Z" transform="translate(-309.619 -458.352)" fill="#2a2a2a"/>
              <path id="パス_2220" data-name="パス 2220" d="M333.9,460.708a10.664,10.664,0,0,1,1,5.047,12.166,12.166,0,0,1-.9,5.026,4.431,4.431,0,0,1-4.288,2.851,4.291,4.291,0,0,1-3.995-2.33,10.669,10.669,0,0,1-1.092-5.223,12.921,12.921,0,0,1,.654-4.36q1.228-3.391,4.444-3.392A4.4,4.4,0,0,1,333.9,460.708Zm-1.884,9.927q.863-1.291.865-4.808a11.834,11.834,0,0,0-.627-4.177,2.378,2.378,0,0,0-2.428-1.639,2.539,2.539,0,0,0-2.423,1.556,10.736,10.736,0,0,0-.766,4.583,11.212,11.212,0,0,0,.49,3.663,2.663,2.663,0,0,0,4.888.822Z" transform="translate(-314.142 -458.325)" fill="#2a2a2a"/>
              <path id="パス_2221" data-name="パス 2221" d="M353.9,472.474h-5.73a6.8,6.8,0,0,1-1.725,4.007l-1.152-.947a6.694,6.694,0,0,0,1.615-4.929v-5.026h8.315v9.687a1.146,1.146,0,0,1-1.153,1.215h-2.319l-.194-1.336h2.04c.1,0,.3-.06.3-.4Zm-5.668-4.127H353.9v-1.579h-5.668Zm0,2.937H353.9v-1.772h-5.668Z" transform="translate(-320.376 -460.512)" fill="#2a2a2a"/>
              <path id="パス_2222" data-name="パス 2222" d="M368.686,464.919v3.666h4.553v1.3h-4.553v4.736h5.329v1.274H362.531v-1.274h4.82v-9.7Z" transform="translate(-325.572 -460.313)" fill="#2a2a2a"/>
              <path id="パス_2223" data-name="パス 2223" d="M381.8,469.117a8.056,8.056,0,0,1-1.152,1.166l-.814-1.044a9.5,9.5,0,0,0,2.841-4.407l1.383.1a11.018,11.018,0,0,1-.424,1.25h7.271c0,.073-.012.242-.012.352-.05,4.285-.05,4.758-.134,5.972-.242,3.3-.522,3.764-2.319,3.764h-1.676L386.428,475h1.712a1.165,1.165,0,0,0,.972-.352c.449-.631.474-3.824.508-7.272h-6.615a12.171,12.171,0,0,1-.741,1.141h5.559v5.9h-4.818v.789h-1.2Zm1.2.546v1.3h3.606v-1.3Zm0,2.318v1.311h3.606v-1.311Z" transform="translate(-330.79 -460.287)" fill="#2a2a2a"/>
            </g>
          </g>
          <g id="グループ_1020" data-name="グループ 1020" transform="translate(71.091 5.42)" style="isolation: isolate">
            <g id="グループ_1019" data-name="グループ 1019">
              <path id="パス_2224" data-name="パス 2224" d="M411.819,467.018a7.294,7.294,0,0,0-1.688,4.549,6.982,6.982,0,0,0,1.688,4.551h-.938a7.026,7.026,0,0,1-1.766-4.551,7.144,7.144,0,0,1,1.766-4.549Z" transform="translate(-409.114 -466.366)" fill="#2a2a2a"/>
              <path id="パス_2225" data-name="パス 2225" d="M419.085,467.632H416.6v-.967h7.7v1.006a13,13,0,0,1-2.8,1.461c.119.089.266.207.414.336l-.493.405h3.632v.986a13,13,0,0,1-2.369,2.487l-.78-.81a8.637,8.637,0,0,0,1.766-1.678H421.04v3.8c0,.859-.9.918-1.046.918h-1.866l-.2-1.066h1.727c.237,0,.316-.088.316-.355v-3.3h-4.106v-.986h4.816a14.628,14.628,0,0,0-2.329-1.451Zm.01,0a15.848,15.848,0,0,1,1.5.868,6.334,6.334,0,0,0,1.8-.868Z" transform="translate(-411.15 -466.26)" fill="#2a2a2a"/>
              <path id="パス_2226" data-name="パス 2226" d="M432.752,470.606a8.734,8.734,0,0,1-.414,1.866,3.38,3.38,0,0,0,1.766,1.381v-3.958h-3.069v-.652h-.81v-2.279h3.84v-.879h1.085v.879h3.869v2.279h-.839v.652h-3.059v1.431h3.059v.977h-3.059v1.8a6.53,6.53,0,0,0,.661.038h3.553l-.207,1h-3.78a4.15,4.15,0,0,1-3.4-1.747,5.355,5.355,0,0,1-1.421,1.954l-.631-.937a6.12,6.12,0,0,0,1.816-3.958Zm5.251-1.7v-.967h-6.761v.967Z" transform="translate(-415.381 -466.085)" fill="#2a2a2a"/>
              <path id="パス_2227" data-name="パス 2227" d="M447.112,467.018a7.2,7.2,0,0,1,1.766,4.549,7.08,7.08,0,0,1-1.766,4.551h-.947a6.983,6.983,0,0,0,1.688-4.551,7.3,7.3,0,0,0-1.688-4.549Z" transform="translate(-420.285 -466.366)" fill="#2a2a2a"/>
            </g>
          </g>
        </g>
        <g id="グループ_1030" data-name="グループ 1030" transform="translate(214.429 479.827)">
          <g id="グループ_1023" data-name="グループ 1023" transform="translate(40.241 25.206)">
            <g id="グループ_1022" data-name="グループ 1022">
              <path id="パス_2228" data-name="パス 2228" d="M369.92,735.339a1.813,1.813,0,0,1-.425.043h-1.344l-.367-2.193h.962c.212,0,.367,0,.481-.453a19.724,19.724,0,0,0,.156-2.546h-1.542V731a12.714,12.714,0,0,1-1.4,5.742l-1.839-1.711a8.058,8.058,0,0,0,1.132-4.2v-5.7h6.181c-.014-.311-.071-1.669-.085-1.952h2.164c0,.4,0,.707.028,1.952H375.7a8.892,8.892,0,0,0-1.287-1.216l1.613-.877a9.951,9.951,0,0,1,1.768,1.655l-.75.439h1.131v2.037H374.12a27.144,27.144,0,0,0,.41,3.38,13.948,13.948,0,0,0,.962-2.941l2.037.721a16.211,16.211,0,0,1-2.193,4.837c.212.482.509,1.018.807,1.018.523,0,.834-1.06,1.1-1.994l1.245,1.725c-.764,2.531-1.542,2.772-2.249,2.772-1.032,0-1.768-.792-2.39-1.783a10.776,10.776,0,0,1-2.758,1.854Zm1.57-7.058a33.88,33.88,0,0,1-.4,5.954,9.122,9.122,0,0,0,1.882-1.47,22.2,22.2,0,0,1-.976-5.6h-4.157v1.118Z" transform="translate(-364.601 -723.034)" fill="#2a2a2a"/>
              <path id="パス_2229" data-name="パス 2229" d="M397.591,736.723a12.9,12.9,0,0,1-4.7-3.31v3.451h-2.051V733.4a14.444,14.444,0,0,1-4.738,3.3l-1.09-2.121a11.328,11.328,0,0,0,4.032-1.967h-3.833v-1.922h5.629v-.623H386.22v-6.238h11.371v6.238h-4.7v.623h5.672v1.922h-3.9a10.255,10.255,0,0,0,4.087,2.009Zm-9.349-11.188v.736h2.6v-.736Zm0,2.122v.792h2.6v-.792Zm4.653-2.122v.736h2.658v-.736Zm0,2.122v.792h2.658v-.792Z" transform="translate(-370.757 -723.272)" fill="#2a2a2a"/>
              <path id="パス_2230" data-name="パス 2230" d="M407.866,728.982c-.92.508-1.344.693-1.8.9l-.92-2.065a11.175,11.175,0,0,0,1.8-.678,9.4,9.4,0,0,0-1.287-1.118l1.018-.99v-1.428h6.336a8.153,8.153,0,0,0,.835,1.046,12.736,12.736,0,0,0,1.414-1.457l1.542.877a20.724,20.724,0,0,1-1.683,1.739,4.1,4.1,0,0,0,.594.4,14.508,14.508,0,0,0,1.669-1.81l1.542.934a15.359,15.359,0,0,1-1.613,1.725c.806.381,1.316.594,1.726.749l-.877,2.022a12.411,12.411,0,0,1-1.81-.834v.636h-1.5v1.075h3.663v1.882h-3.663v1.542c0,.367.113.453.41.453h.976c.367,0,.538-.042.58-1.542l2.051.354c-.113,1.824-.24,3.126-1.556,3.126h-3.464a1.1,1.1,0,0,1-1.146-1.089v-2.843h-1.584c-.367,1.768-1.344,3.281-4.668,4.171l-1.074-2.064c1.725-.255,3.14-.99,3.536-2.107H405.73v-1.882h3.465v-1.075h-1.329Zm-.326-3.734c.4.311.764.608,1.118.934a10.394,10.394,0,0,0,1.2-.934Zm6.916,2.517a13.868,13.868,0,0,1-2.348-2.192,11.623,11.623,0,0,1-2.334,2.192Zm-3.182,1.866v1.075H412.7v-1.075Z" transform="translate(-376.827 -723.083)" fill="#2a2a2a"/>
              <path id="パス_2231" data-name="パス 2231" d="M437.957,736.805a10.275,10.275,0,0,1-5.8-6.21,7.646,7.646,0,0,1-1.3,1.3v2.348a21.352,21.352,0,0,0,2.9-.538l.057,1.924c-.948.2-2.659.538-6.846,1.075l-.353-1.993c.566-.028,1.018-.057,2.178-.2v-1.371a21.977,21.977,0,0,1-2.7,1.089l-.707-2.065a10.828,10.828,0,0,0,4.243-1.782H425.61V728.7h5.671v-.65h-4.639v-1.528h4.639v-.58H425.95v-1.7h5.332V723.3h2.15v.948h5.3v1.7h-5.3v.58h4.6v1.528h-4.6v.65H439.1v1.683h-1.966l1.5,1.118a18.982,18.982,0,0,1-2.22,1.852A9.291,9.291,0,0,0,439.2,734.9Zm-3.833-6.422a6.617,6.617,0,0,0,.933,1.6,14.5,14.5,0,0,0,1.755-1.6Z" transform="translate(-382.928 -723.114)" fill="#2a2a2a"/>
              <path id="パス_2232" data-name="パス 2232" d="M448.842,727.976a11.441,11.441,0,0,1-2.15,1.09l-1.075-2.15c3.451-1.358,4.922-2.545,5.756-3.72h2.518a12.716,12.716,0,0,0,5.685,3.692l-1.1,2.136a15.988,15.988,0,0,1-2.107-1.09v.863h-7.525Zm8.133,8.854c-.141-.269-.3-.566-.566-.99-2.4.339-7.213.537-9.759.608l-.339-2.193c.071.015,1.867.015,2.065.015a18.092,18.092,0,0,0,.99-2.448h-3.154v-2.037h12.758v2.037h-2.927a23.9,23.9,0,0,1,2.97,3.946Zm-2.15-9.928a14.605,14.605,0,0,1-2.207-1.994,10.693,10.693,0,0,1-2.178,1.994Zm.877,4.922h-3.974c-.51,1.188-.68,1.556-1.118,2.448,1.669-.015,3.2-.015,4.611-.156-.594-.793-.905-1.16-1.188-1.5Z" transform="translate(-389.028 -723.083)" fill="#2a2a2a"/>
            </g>
          </g>
          <g id="グループ_1025" data-name="グループ 1025" transform="translate(0 4.352)" style="isolation: isolate">
            <g id="グループ_1024" data-name="グループ 1024">
              <path id="パス_2233" data-name="パス 2233" d="M309.365,696.093a12.1,12.1,0,0,1-1.912,1.033l-.464-.976a8.788,8.788,0,0,0,4.114-2.916h1.12a8.868,8.868,0,0,0,4.114,2.985l-.522.965a9.225,9.225,0,0,1-1.95-1.053v.763h-4.5Zm-1.912,1.728h7.986v3.09c0,.782-.59.782-.927.782h-1.97l-.2-.976h1.835c.2,0,.251-.1.251-.261v-1.69h-3.293v3.554h-1.023v-3.554h-2.656Zm6.189-1.854a10.441,10.441,0,0,1-2.047-1.931,8.429,8.429,0,0,1-2.057,1.931Z" transform="translate(-306.989 -693.196)" fill="#2a2a2a"/>
              <path id="パス_2234" data-name="パス 2234" d="M322.645,694.6c-.792.078-1.159.1-1.574.106l-.221-.907a19.132,19.132,0,0,0,3.785-.483l.347.918a13.462,13.462,0,0,1-1.352.251v1.352h1.458v.908h-1.429a6.661,6.661,0,0,0,1.5,1.815l-.473.975a6.4,6.4,0,0,1-1.053-1.449v4.249h-.985V698.32a9.468,9.468,0,0,1-1.574,2.269l-.386-1.208a8.3,8.3,0,0,0,1.806-2.635h-1.661v-.908h1.816Zm6.991-.628v8.1h-.995v-.627h-2.3v.627h-.975v-8.1Zm-3.293.937v5.571h2.3v-5.571Z" transform="translate(-311.118 -693.221)" fill="#2a2a2a"/>
              <path id="パス_2235" data-name="パス 2235" d="M341.568,695.28a2.129,2.129,0,0,1,.478,1.3h-.9a1.681,1.681,0,0,0-.258-.674,1.151,1.151,0,0,0-1-.455,1.379,1.379,0,0,0-1.215.707,4.069,4.069,0,0,0-.5,2.024,1.985,1.985,0,0,1,.791-.689,2.273,2.273,0,0,1,.972-.2,2.368,2.368,0,0,1,1.591.583,2.164,2.164,0,0,1,.679,1.738,2.634,2.634,0,0,1-.644,1.75,2.265,2.265,0,0,1-1.834.763,2.354,2.354,0,0,1-1.758-.773,3.7,3.7,0,0,1-.74-2.6,7,7,0,0,1,.33-2.3,2.338,2.338,0,0,1,2.315-1.8A2,2,0,0,1,341.568,695.28Zm-.684,5.547a1.873,1.873,0,0,0,.356-1.143,1.954,1.954,0,0,0-.319-1.061,1.263,1.263,0,0,0-1.16-.5,1.512,1.512,0,0,0-1.031.391,1.484,1.484,0,0,0-.444,1.175,1.714,1.714,0,0,0,.4,1.158,1.394,1.394,0,0,0,1.117.469A1.252,1.252,0,0,0,340.884,700.828Z" transform="translate(-316.106 -693.622)" fill="#2a2a2a"/>
              <path id="パス_2236" data-name="パス 2236" d="M349.607,695.149a7.242,7.242,0,0,1-1.757,1.979l-.685-.859a5.772,5.772,0,0,0,2.144-3.09l1.1.27a6.879,6.879,0,0,1-.279.724h5.841v.975h-3.109v1.314h2.8v.946h-2.8v1.748h3.486v.976h-3.486V702.3h-1.014v-2.172H347.28v-.976h1.438v-2.693h3.129v-1.314Zm.145,2.26v1.748h2.1v-1.748Z" transform="translate(-319.102 -693.179)" fill="#2a2a2a"/>
            </g>
          </g>
          <g id="グループ_1027" data-name="グループ 1027" transform="translate(40.668)" style="isolation: isolate">
            <g id="グループ_1026" data-name="グループ 1026">
              <path id="パス_2237" data-name="パス 2237" d="M366.4,700.823a5.382,5.382,0,0,1-1.192-3.532h1.956a4.861,4.861,0,0,0,.541,2.1,2.845,2.845,0,0,0,2.633,1.176,3.449,3.449,0,0,0,2.373-.791,2.6,2.6,0,0,0,.894-2.039,2.373,2.373,0,0,0-.942-2.153,4.764,4.764,0,0,0-2.617-.614c-.125,0-.251,0-.38,0s-.258.009-.39.016v-1.655c.193.021.357.036.489.042s.274.01.426.01a3.9,3.9,0,0,0,1.727-.333,2.113,2.113,0,0,0,1.186-2.08,2.033,2.033,0,0,0-.791-1.718,2.952,2.952,0,0,0-1.841-.6,2.728,2.728,0,0,0-2.591,1.248,4.328,4.328,0,0,0-.448,1.956h-1.852a5.618,5.618,0,0,1,.666-2.83,4.2,4.2,0,0,1,4.027-2.081,5.457,5.457,0,0,1,3.527,1.015,3.564,3.564,0,0,1,1.249,2.939,3.28,3.28,0,0,1-.738,2.227,3.119,3.119,0,0,1-1.186.833,3.23,3.23,0,0,1,1.836,1.243,3.76,3.76,0,0,1,.661,2.253,4.592,4.592,0,0,1-1.405,3.476,5.539,5.539,0,0,1-3.985,1.343A4.682,4.682,0,0,1,366.4,700.823Z" transform="translate(-365.211 -686.948)" fill="#2a2a2a"/>
              <path id="パス_2238" data-name="パス 2238" d="M391.974,701.128h-5.73a6.8,6.8,0,0,1-1.725,4.006l-1.153-.947a6.691,6.691,0,0,0,1.614-4.928v-5.026H393.3v9.688a1.146,1.146,0,0,1-1.154,1.213h-2.318l-.194-1.335h2.04c.1,0,.3-.061.3-.4ZM386.3,697h5.669v-1.577H386.3Zm0,2.939h5.669v-1.773H386.3Z" transform="translate(-370.685 -689.144)" fill="#2a2a2a"/>
              <path id="パス_2239" data-name="パス 2239" d="M406.756,693.572v3.666h4.552v1.3h-4.552v4.734h5.329v1.275H400.6v-1.275h4.82v-9.7Z" transform="translate(-375.881 -688.945)" fill="#2a2a2a"/>
              <path id="パス_2240" data-name="パス 2240" d="M419.872,697.77a7.973,7.973,0,0,1-1.152,1.165l-.814-1.044a9.507,9.507,0,0,0,2.841-4.407l1.384.1a10.865,10.865,0,0,1-.425,1.25h7.272c0,.073-.013.243-.013.353-.048,4.285-.048,4.758-.133,5.973-.243,3.3-.522,3.762-2.319,3.762h-1.675l-.34-1.261h1.712a1.163,1.163,0,0,0,.971-.352c.449-.631.474-3.824.51-7.272h-6.616a12.276,12.276,0,0,1-.74,1.141h5.56v5.9h-4.82v.789h-1.2Zm1.2.546v1.3h3.606v-1.3Zm0,2.319v1.311h3.606v-1.311Z" transform="translate(-381.099 -688.919)" fill="#2a2a2a"/>
            </g>
          </g>
          <g id="グループ_1029" data-name="グループ 1029" transform="translate(91.977 5.441)" style="isolation: isolate">
            <g id="グループ_1028" data-name="グループ 1028">
              <path id="パス_2241" data-name="パス 2241" d="M441.374,695.671a7.293,7.293,0,0,0-1.688,4.55,6.977,6.977,0,0,0,1.688,4.549h-.938a7.023,7.023,0,0,1-1.766-4.549,7.144,7.144,0,0,1,1.766-4.55Z" transform="translate(-438.669 -695.019)" fill="#2a2a2a"/>
              <path id="パス_2242" data-name="パス 2242" d="M448.64,696.284h-2.487v-.967h7.7v1.007a13.049,13.049,0,0,1-2.8,1.461c.119.089.267.207.415.335l-.493.4H454.6v.987A12.968,12.968,0,0,1,452.233,702l-.781-.809a8.718,8.718,0,0,0,1.767-1.678h-2.625v3.8c0,.858-.9.917-1.046.917h-1.866l-.2-1.066h1.727c.237,0,.316-.089.316-.355v-3.3h-4.105v-.987h4.816a14.756,14.756,0,0,0-2.329-1.45Zm.01,0a15.883,15.883,0,0,1,1.5.868,6.324,6.324,0,0,0,1.8-.868Z" transform="translate(-440.705 -694.912)" fill="#2a2a2a"/>
              <path id="パス_2243" data-name="パス 2243" d="M462.307,699.258a8.716,8.716,0,0,1-.414,1.865,3.378,3.378,0,0,0,1.766,1.382v-3.958H460.59V697.9h-.81v-2.28h3.84v-.879H464.7v.879h3.869v2.28h-.839v.652h-3.059v1.431h3.059v.977h-3.059v1.8a6.482,6.482,0,0,0,.661.039h3.553l-.207,1H464.9a4.152,4.152,0,0,1-3.4-1.746,5.354,5.354,0,0,1-1.421,1.954l-.631-.937a6.116,6.116,0,0,0,1.815-3.958Zm5.251-1.7v-.967H460.8v.967Z" transform="translate(-444.936 -694.737)" fill="#2a2a2a"/>
              <path id="パス_2244" data-name="パス 2244" d="M476.667,695.671a7.2,7.2,0,0,1,1.767,4.55,7.082,7.082,0,0,1-1.767,4.549h-.948a6.977,6.977,0,0,0,1.688-4.549,7.293,7.293,0,0,0-1.688-4.55Z" transform="translate(-449.84 -695.019)" fill="#2a2a2a"/>
            </g>
          </g>
        </g>
        <path id="パス_2245" data-name="パス 2245" d="M188.077,624.31V469.345l-93.351,22.1L0,469.345V624.31l94.726,22.1Z" transform="translate(0 -141.511)" fill="#51a9aa" style="isolation: isolate"/>
        <path id="パス_2246" data-name="パス 2246" d="M0,373.821v-221.3H188.077v221.3l-93.351,22.1Z" transform="translate(0 -45.988)" fill="#d5e8e8" style="isolation: isolate"/>
        <path id="パス_2247" data-name="パス 2247" d="M0,157.838V6.4H188.077V157.838l-93.351,22.1Z" transform="translate(0 -1.93)" fill="#51a9aa" style="isolation: isolate"/>
        <line id="線_131" data-name="線 131" x1="13.112" transform="translate(187.223 480.997)" fill="#2a2a2a" stroke="#51a9aa" stroke-miterlimit="10" stroke-width="2.849"/>
        <line id="線_132" data-name="線 132" x1="13.112" transform="translate(187.703 99.466)" fill="#2a2a2a" stroke="#51a9aa" stroke-miterlimit="10" stroke-width="2.849"/>
        <line id="線_133" data-name="線 133" x1="13.112" transform="translate(187.223 326.398)" fill="#2a2a2a" stroke="#d5e8e8" stroke-miterlimit="10" stroke-width="2.849"/>
        <line id="線_134" data-name="線 134" x1="13.112" transform="translate(187.703 157.896)" fill="#2a2a2a" stroke="#d5e8e8" stroke-miterlimit="10" stroke-width="2.849"/>
        <g id="グループ_1036" data-name="グループ 1036" transform="translate(38.994 32.886)">
          <g id="グループ_1031" data-name="グループ 1031" transform="translate(0 87.824)">
            <path id="パス_2248" data-name="パス 2248" d="M70.648,175.259h-6.2v.579h5v3.1h-5v.518h5.343v1.817h.956v1.77h-.956v2.679H67.452v-.752H64.443v1.253c0,.768-.344,1.488-1.285,1.488h-3.4l-.392-1.927h2.4c.329,0,.407-.156.407-.439v-.376H56.72v-1.442h5.452v-.6H55.826v-1.567h6.346v-.564H56.751v-1.347h5.421v-.518h-4.9v-3.1h4.9v-.579H56.015v-1.646h6.157v-.8h2.271v.8h6.2Zm-11.14,1.8v.689h2.663v-.689Zm4.935,0v.689h2.742v-.689Zm0,3.745v.627h3.008v-.627Zm0,2.084v.643h3.008v-.643Z" transform="translate(-55.826 -172.815)" fill="#fff"/>
            <path id="パス_2249" data-name="パス 2249" d="M78.551,185.494A18.48,18.48,0,0,0,83.11,183.8H78.645v-1.817h6.235v-.627H79.664v-1.5h5.217v-.627H79.24v-1.755h3.165a4.191,4.191,0,0,0-.314-.8H78.645v-1.942H80.6a10.688,10.688,0,0,0-.689-1.426l2.271-.424a9.175,9.175,0,0,1,.674,1.85h.673v-1.8H85.6v1.8h.877v-1.8h2.084v1.8h.627a11.678,11.678,0,0,0,.674-1.85l2.271.424a12.939,12.939,0,0,1-.643,1.426h1.881v1.942H89.957l-.267.8h3.165v1.755H87.2v.627h5.233v1.5H87.2v.627h6.173V183.8H88.908a14.068,14.068,0,0,0,4.637,1.614l-1.16,2.162a11.438,11.438,0,0,1-5.186-2.742V187.7H84.881v-2.8c-1.1.972-2.115,1.708-5.217,2.695Zm5.953-8.821c.048.126.251.689.3.8h2.554a4.793,4.793,0,0,0,.251-.8Z" transform="translate(-62.678 -172.835)" fill="#fff"/>
            <path id="パス_2250" data-name="パス 2250" d="M105.9,177.615h-1.081v.643a7.6,7.6,0,0,0,1.6,2.163l-.863,2.224a10.341,10.341,0,0,1-.736-1.269v6.361h-2.162v-5.107a7.415,7.415,0,0,1-1.129,2.507l-.752-3.321a8.86,8.86,0,0,0,1.723-4.2H101.11v-2.163h1.551v-2.617h2.162v2.617h1.113v2.1h2.036v-.563h-1.441V175.7h1.441v-.548h-1.8v-1.677h1.8v-.643h1.85v.643h2.052v-.643h1.959v.643h1.755v1.677h-1.755v.548h1.347v1.285h-1.347v.563h2.115v1.6h-4.074v.518h3.337v3.995h.736v1.661h-.736v.987c0,.423,0,1.426-1.332,1.426h-2.554L111.106,186h1.6c.328,0,.439-.063.439-.329v-.344h-4.56v2.413h-2.052v-2.413h-.893v-1.661h.893v-3.995h3.291v-.518H105.9Zm2.679,3.494v.689h1.238v-.689Zm0,1.849v.7h1.238v-.7Zm1.238-7.8v.564h2.052v-.564Zm0,1.8v.594h2.052v-.594Zm2.052,4.151v.689h1.269v-.689Zm0,1.849v.7h1.269v-.7Z" transform="translate(-69.38 -172.821)" fill="#fff"/>
            <path id="パス_2251" data-name="パス 2251" d="M123.506,178.882a14.828,14.828,0,0,0,2.585-2.538h-2.3v-2.225h2.538v-1.238h2.241v1.238h2.021v2.225h-2.021v.079a13.614,13.614,0,0,0,2.24,1.88l-.987,1.942a15.085,15.085,0,0,1-1.253-1.254v3.134h-2.241v-3.134a10.689,10.689,0,0,1-1.927,2.288Zm3.62,4.293a11.183,11.183,0,0,1-1.583,4.261l-1.974-1.52a7.6,7.6,0,0,0,1.363-3.258Zm.2.219h2.319v1.63c0,.344.125.392.407.392h2.224c.611,0,.627-.142.815-1.285l2.256.532c-.219,1.677-.47,2.867-1.833,2.867h-4.826a1.3,1.3,0,0,1-1.363-1.331Zm3.039-2.13a6.65,6.65,0,0,1,.752.376v-8.366h7.066v8.758h-6.408a8.987,8.987,0,0,1,1.567,1.113l-1.535,1.692a12.741,12.741,0,0,0-2.962-2.021Zm2.929-6.031v.72h2.664v-.72Zm0,2.021v.752h2.664v-.752Zm0,2.084v.752h2.664v-.752Zm3.322,3.071a16.475,16.475,0,0,1,2.225,3.775l-2.193,1.222a15.219,15.219,0,0,0-2.005-3.932Z" transform="translate(-76.232 -172.835)" fill="#fff"/>
            <path id="パス_2252" data-name="パス 2252" d="M153.349,185.2c1.692-.125,5.186-.407,5.186-4.622,0-2.616-1.52-3.729-3.306-3.87-.079,1.363-.674,9.557-4.873,9.557-2.115,0-3.431-2.147-3.431-4.607a7.192,7.192,0,0,1,7.6-7.3c3.6,0,6.627,1.974,6.627,6.44a6.523,6.523,0,0,1-2.13,5.075,8.914,8.914,0,0,1-4.748,1.692Zm-3.948-3.572c0,.6.172,2.005,1.065,2.005,1.19,0,2.084-3.071,2.381-6.816A4.843,4.843,0,0,0,149.4,181.632Z" transform="translate(-83.293 -173.281)" fill="#fff"/>
            <path id="パス_2253" data-name="パス 2253" d="M169.269,184.785h8.21a51.406,51.406,0,0,0,1.77-7.16l2.679.407A46.987,46.987,0,0,1,180,184.785h4.058v2.35h-14.79Zm6.094-11.97h2.554v2.051H183.7v2.351h-14.07v-2.351h5.735Zm-1.394,4.872a26.516,26.516,0,0,1,1.363,6.221l-2.538.376a21.833,21.833,0,0,0-1.175-6.048Z" transform="translate(-90.03 -172.815)" fill="#fff"/>
            <path id="パス_2254" data-name="パス 2254" d="M193.737,177.781v-.627h-1.488v-3.478h5.8v-.861h2.381v.861h5.891v3.478H204.8v.627h-1.19a7.42,7.42,0,0,1-1.332,1.332,36.155,36.155,0,0,1,3.807.971l-1.6,1.818h2.146v1.943h-4.419a15.9,15.9,0,0,0,4.669,1.551l-1.144,2.24a15.064,15.064,0,0,1-5.4-2.726V187.7h-2.288v-2.758a15.7,15.7,0,0,1-5.3,2.632l-1.05-2.209a18.055,18.055,0,0,0,4.575-1.52h-4.4V181.9h6.173v-.831h2.288v.831h4.011a23.348,23.348,0,0,0-4.011-1.63,22.1,22.1,0,0,1-7.238,1.143l-.627-1.848a24.963,24.963,0,0,0,4.324-.251c-1.253-.251-1.66-.314-2.271-.392a11.632,11.632,0,0,0,1.05-1.144Zm3.071-1.63c.125-.188.329-.485.47-.689h-2.695v.689Zm1.426,1.63a8.31,8.31,0,0,1-.6.642c.72.063,1.19.126,1.8.2a5.085,5.085,0,0,0,1.41-.846Zm5.735-1.63v-.689h-4.011c-.157.235-.266.407-.455.689Z" transform="translate(-96.793 -172.815)" fill="#fff"/>
          </g>
          <g id="グループ_1033" data-name="グループ 1033" transform="translate(20.805)" style="isolation: isolate">
            <g id="グループ_1032" data-name="グループ 1032">
              <path id="パス_2255" data-name="パス 2255" d="M88.724,58.775a16.747,16.747,0,0,1-2.359,1.081l-.754-1.539a11.076,11.076,0,0,0,4.211-1.884H85.891V55.171h5.062a5.843,5.843,0,0,0,.328-.59h-3.9V49.962h2.965v-.655H85.891v-1.36h4.456v-.82H92v.82h3.736v-.82h1.637v.82h3.916v1.36H97.374v.655h2.441v4.619H93.05c-.1.2-.164.312-.311.59h8.551v1.262l-3.817.016a7.192,7.192,0,0,0,4.111,1.982l-.77,1.491a13.562,13.562,0,0,1-2.376-1.032,20.544,20.544,0,0,1-.295,2.424,1.509,1.509,0,0,1-1.507,1.213H94.065L93.8,60.839l2.179.082c.606.017.787-.294.835-1.949h-3.26c-1.081,2.244-3.522,3.277-6,3.588l-.7-1.639c2.2-.115,4.046-.8,4.865-1.949h-3Zm.312-7.667v.672h9.108v-.672Zm0,1.556v.786h9.108v-.786Zm3.309,5.079a7.689,7.689,0,0,0,.229-1l1.621.1a6.819,6.819,0,0,1-.18.9H96.7a6.522,6.522,0,0,1-1.326-1.31H91.821a7.693,7.693,0,0,1-1.425,1.31Zm3.391-7.781v-.655H92v.655Z" transform="translate(-85.612 -47.095)" fill="#fff"/>
              <path id="パス_2256" data-name="パス 2256" d="M124.149,62.087a15.552,15.552,0,0,1-6.258-3.031V62.48h-1.638V59.1A14.462,14.462,0,0,1,110,62.07l-.819-1.719a14.316,14.316,0,0,0,5.587-1.835h-5.374V57.139h6.865v-1h-5.144V51.9a8.509,8.509,0,0,1-.95.819l-1-1.426a9.677,9.677,0,0,0,3.277-4.178l1.818.231c-.212.475-.36.77-.59,1.212h2.965c.312-.868.344-.95.508-1.475l1.769.147c-.148.393-.344.885-.525,1.327H123.8v1.278H118.17v.916h5.16v1.115h-5.16v.917h5.16V53.9h-5.16v.967h6.11V56.14h-6.422v1h6.847v1.377H119.43a14.449,14.449,0,0,0,5.488,1.835ZM112.878,49.834c-.032.033-.147.2-.18.229v.687h3.9v-.916Zm3.719,2.031h-3.9v.917h3.9Zm0,2.031h-3.9v.967h3.9Z" transform="translate(-92.712 -47.081)" fill="#fff"/>
              <path id="パス_2257" data-name="パス 2257" d="M136.325,59a10.973,10.973,0,0,1-2.605,3.522l-1.13-1.261a11.154,11.154,0,0,0,2.244-2.916Zm-2.359-11.877h1.556V48.6h3.112V47.127h1.557V48.6h.966v1.556h-.966V56.6h.966V58.1h-8.42V56.6h1.229V50.158h-.934V48.6h.934Zm1.556,3.031v1.162h3.112V50.158Zm0,2.539v1.212h3.112V52.7Zm0,2.522V56.6h3.112V55.22Zm2.982,3.146a8.606,8.606,0,0,1,1.688,2.081l-1.2,1.048a16.458,16.458,0,0,0-1.621-2.261Zm7.551-.688h-2.948a10.822,10.822,0,0,1-1.949,4.849l-1.425-1.114c1.163-1.638,2.08-3.194,2.08-8.453V47.635h5.865v13.58c0,1.311-.885,1.311-1.393,1.311h-2.1l-.262-1.655h1.606c.376,0,.524-.131.524-.491ZM143.4,53.4l-.115,2.7h2.769V53.4Zm0-4.227v2.7h2.654v-2.7Z" transform="translate(-99.776 -47.095)" fill="#fff"/>
              <path id="パス_2258" data-name="パス 2258" d="M157.215,48.09h6.225v5.979h-4.6v8.715h-1.622Zm1.622,1.343v1.082h3.014V49.433Zm0,2.2V52.71h3.014V51.628ZM168.076,55v6.078h-7.6V55Zm-6.061,1.326v1.13h4.5v-1.13Zm0,2.229v1.178h4.5V58.558Zm7.732-4.489H164.9V48.09h6.488V61.244c0,.459,0,1.54-1.1,1.54h-2.507l-.262-1.638h1.851c.2,0,.376-.066.376-.393Zm-3.26-4.637v1.082h3.26V49.433Zm0,2.2V52.71h3.26V51.628Z" transform="translate(-107.201 -47.385)" fill="#fff"/>
            </g>
          </g>
          <g id="グループ_1035" data-name="グループ 1035" transform="translate(34.605 26.536)">
            <path id="パス_2259" data-name="パス 2259" d="M130.949,85.071H109.857a4.487,4.487,0,0,0-4.488,4.488v39.717a4.488,4.488,0,0,0,4.488,4.488h27.375a4.488,4.488,0,0,0,4.488-4.488V95.842Z" transform="translate(-105.369 -85.071)" fill="none" stroke="#fff" stroke-miterlimit="10" stroke-width="1.85"/>
            <path id="パス_2260" data-name="パス 2260" d="M155.672,130.535c-1.93,1.864-6.576,6.557-8.547,8.515l-8.531,8.531a35.726,35.726,0,0,1-4.44,1.247,35.638,35.638,0,0,1,1.247-4.44l8.531-8.531c1.982-1.992,6.624-6.587,8.515-8.547C153.856,126.807,156.173,129.126,155.672,130.535Z" transform="translate(-114.048 -97.785)" fill="#51a9aa" stroke="#fff" stroke-miterlimit="10" stroke-width="1.85"/>
            <path id="パス_2261" data-name="パス 2261" d="M141.991,85.071v7.508a3.918,3.918,0,0,0,3.918,3.918h6.853" transform="translate(-116.411 -85.071)" fill="none" stroke="#fff" stroke-miterlimit="10" stroke-width="1.85"/>
            <g id="グループ_1034" data-name="グループ 1034" transform="translate(6.652 13.277)">
              <path id="パス_2262" data-name="パス 2262" d="M114.892,104.079h12.253" transform="translate(-114.892 -104.079)" fill="#51a9aa" stroke="#fff" stroke-miterlimit="10" stroke-width="1.85"/>
              <path id="パス_2263" data-name="パス 2263" d="M114.892,113.1h23.047" transform="translate(-114.892 -106.799)" fill="#51a9aa" stroke="#fff" stroke-miterlimit="10" stroke-width="1.85"/>
              <path id="パス_2264" data-name="パス 2264" d="M114.892,122.119h23.047" transform="translate(-114.892 -109.518)" fill="#51a9aa" stroke="#fff" stroke-miterlimit="10" stroke-width="1.85"/>
              <path id="パス_2265" data-name="パス 2265" d="M114.892,131.14h23.047" transform="translate(-114.892 -112.238)" fill="#51a9aa" stroke="#fff" stroke-miterlimit="10" stroke-width="1.85"/>
            </g>
          </g>
        </g>
        <g id="グループ_1047" data-name="グループ 1047" transform="translate(12.926 188.204)">
          <g id="グループ_1040" data-name="グループ 1040" transform="translate(0 82.048)">
            <g id="グループ_1037" data-name="グループ 1037" transform="translate(16.683)">
              <path id="パス_2266" data-name="パス 2266" d="M42.39,394.442a8.753,8.753,0,0,0,1.685-3.289H42.638V390.01h1.521v-1.426c-.648.071-.956.094-1.238.117l-.282-1.1a12.86,12.86,0,0,0,3.477-.5l.365,1a8.162,8.162,0,0,1-1.19.295v1.6h1.025v1.143H45.29v.154A6.6,6.6,0,0,0,46.6,393.37l-.695.955a5.351,5.351,0,0,1-.613-1.1v4.951H44.159v-4.562a8.255,8.255,0,0,1-1.25,2.311Zm3.465.059a10.66,10.66,0,0,0,3.313-1.921c-.071-.106-.13-.2-.26-.378a9.113,9.113,0,0,1-2.015,1.038l-.578-1.049a6.14,6.14,0,0,0,2.641-1.356H47.707v-.424H46.6V388H49.4v-.884h1.191V388H53.4v2.416H52.292v.424h-.648a14.712,14.712,0,0,0,.212,1.463,13.986,13.986,0,0,0,1.1-1.145l.872.767a15.434,15.434,0,0,1-1.674,1.521,7.816,7.816,0,0,0,1.7,3.135l-.872,1.014a12.039,12.039,0,0,1-2.264-6.754h-.306a5.909,5.909,0,0,1-.7.744,6.229,6.229,0,0,1,1.332,4.018c0,1.179-.271,2.582-1.556,2.582H48.225l-.236-1.215h1.132c.437,0,.885,0,.814-1.768a16.375,16.375,0,0,1-3.513,2.382l-.59-1.038a11.381,11.381,0,0,0,3.937-2.522,3.783,3.783,0,0,0-.166-.566,12.265,12.265,0,0,1-3.218,2.063Zm6.437-4.644v-.872H47.707v.872Z" transform="translate(-42.39 -386.969)" fill="#1a1311"/>
              <path id="パス_2267" data-name="パス 2267" d="M68.72,397.963a39.624,39.624,0,0,0-5.411-3.678c-.648-.365-1.4-.8-1.4-1.615,0-.59.424-1.037,1.2-1.662a40.641,40.641,0,0,0,4.125-3.56l1.214.884a53.982,53.982,0,0,1-4.633,3.724.694.694,0,0,0-.365.554c0,.33.271.483.978.873a45.929,45.929,0,0,1,4.326,2.627,13.438,13.438,0,0,1,1.109.85Zm-.106-5.494a14.78,14.78,0,0,0-1.073-1.755l.92-.472a11.218,11.218,0,0,1,1.109,1.709Zm1.509-.719a11.2,11.2,0,0,0-1.109-1.685l.919-.472a8.923,8.923,0,0,1,1.1,1.627Z" transform="translate(-48.275 -387.071)" fill="#1a1311"/>
              <path id="パス_2268" data-name="パス 2268" d="M76.783,396.913c3.594-1.981,3.878-4.326,4.1-6.177H77.054V389.5h3.937c.012-.13.059-.967.059-1.557v-.849h1.344V388c0,.7-.023,1.132-.059,1.5H87.64a38.336,38.336,0,0,1-.483,7,1.8,1.8,0,0,1-1.733,1.651H83.243l-.2-1.332h1.968c.672,0,.754-.424.908-1.285a36.357,36.357,0,0,0,.306-4.8H82.217a8.564,8.564,0,0,1-4.679,7.367Z" transform="translate(-52.76 -386.964)" fill="#1a1311"/>
              <path id="パス_2269" data-name="パス 2269" d="M103.939,388.73v1.262H99.118v2.063h5.517v1.261H99.118v2.747c0,.471.048.636.742.636h1.78c.4,0,2.157-.035,2.522-.035l-.082,1.32H99.4a1.475,1.475,0,0,1-1.627-1.437v-3.23h-3.23v-1.261h3.23v-2.063H95.039V388.73Z" transform="translate(-58.115 -387.457)" fill="#1a1311"/>
              <path id="パス_2270" data-name="パス 2270" d="M121.76,391v1.215h-3.854l-.024.342c-.2,2.853-1.226,4.491-4.9,5.21l-.565-1.2c2.286-.319,3.984-.955,4.09-4.021l.012-.33h-4.6V391Zm-2.086-3.041v1.2H112.66v-1.2Zm.554,1.2a7.72,7.72,0,0,0-.295-1.9l.861-.13a10.436,10.436,0,0,1,.377,1.852Zm1.438-.27a9.291,9.291,0,0,0-.365-1.816l.813-.165a9.505,9.505,0,0,1,.413,1.8Z" transform="translate(-63.353 -386.908)" fill="#1a1311"/>
              <path id="パス_2271" data-name="パス 2271" d="M131.3,391.207c0,4.952-1.674,6.461-2.264,6.991l-1.025-1.025c.542-.437,1.922-1.509,1.922-5.705v-3.278H131.3Zm3.182,5.046c2.712-.649,3.324-3.961,3.442-4.562l1.2.518c-1.085,5.187-4.845,5.5-5.964,5.6v-9.972h1.319Z" transform="translate(-68.205 -387.188)" fill="#1a1311"/>
              <path id="パス_2272" data-name="パス 2272" d="M150.281,387.723c-.036.27-.071.5-.189,1.049h4.8v1.214H149.75a6.039,6.039,0,0,1-.4,1.014,2.97,2.97,0,0,1,1.368-.343,1.761,1.761,0,0,1,1.886,1.368,22.915,22.915,0,0,1,2.829-.944l.295,1.32a22.06,22.06,0,0,0-2.888.849,17.207,17.207,0,0,1,.035,2.193h-1.32a6.4,6.4,0,0,0,.047-.884c0-.33-.011-.564-.024-.777-.53.259-1.945.955-1.945,1.827,0,1,1.332,1,2.464,1,.154,0,1.344,0,2.947-.13v1.273c-.884.035-1.874.059-2.758.059a5.339,5.339,0,0,1-3.312-.671,1.911,1.911,0,0,1-.743-1.486c0-1.2,1.166-2.052,3.194-3.112a.862.862,0,0,0-.919-.719,3.512,3.512,0,0,0-2.452,1.474,16.827,16.827,0,0,1-1.367,1.85l-.967-1a10.731,10.731,0,0,0,2.664-4.162h-2.369v-1.214h2.711a7.955,7.955,0,0,0,.154-1.155Z" transform="translate(-73.544 -387.122)" fill="#1a1311"/>
              <path id="パス_2273" data-name="パス 2273" d="M168.128,391.13v.777h3.949v1.015h-4.008a6.154,6.154,0,0,1-.177.837h5.222v1.108h-4.1a6.554,6.554,0,0,0,4.1,2.016l-.483,1.261c-2.817-.684-4.326-2.063-4.927-3.277h-.189c-.413.9-1.25,2.464-5,3.265l-.471-1.238a8.085,8.085,0,0,0,3.477-1.273,2.58,2.58,0,0,0,.648-.754h-4.043v-1.108h4.526a7.455,7.455,0,0,0,.2-.837h-3.689v-1.015h3.773v-.777h-3.054v-1.072h3.054v-.731h1.191v.731h3.194v1.072Zm-1.144-4.019h1.3v.826h4.609v2.545h-1.214v-1.437H163.6v1.438h-1.2v-2.545h4.586Z" transform="translate(-78.467 -386.969)" fill="#1a1311"/>
              <path id="パス_2274" data-name="パス 2274" d="M178.879,396.007a11.8,11.8,0,0,0,1.379-.377v-2.9h-1.12v-1.155h1.12v-2.547H179.02v-1.166h3.713v1.166h-1.285v2.547h1.085v1.155h-1.085v2.5c.708-.247.967-.366,1.285-.506l.259,1.108a21.069,21.069,0,0,1-3.854,1.344Zm4.385-8.357h6.518V394.4h-2.016v2.217c0,.33.059.435.389.435h.613c.212,0,.259-.082.295-.295a8.854,8.854,0,0,0,.094-1.331l1.1.224c-.059,1.745-.177,2.594-.967,2.594h-1.732c-.5,0-.99-.046-.99-1.026V394.4h-.778c-.542,2.464-1.78,3.312-3.761,4l-.578-1.179c2.77-.719,3.042-2.263,3.136-2.817h-1.32Zm1.178,1.049v.9h4.137v-.9Zm0,1.875v.9h4.137v-.9Zm0,1.887v.895h4.137v-.895Z" transform="translate(-83.543 -387.132)" fill="#1a1311"/>
              <path id="パス_2275" data-name="パス 2275" d="M202.346,387.734h1.368v1.274h3.359v1.215h-3.359v2.5a5.889,5.889,0,0,1,.188,1.5c0,3.43-2.735,3.689-4.785,3.807l-.413-1.25c2.923-.059,3.536-.624,3.807-1.533a1.652,1.652,0,0,1-1.3.472,2.435,2.435,0,1,1,.036-4.868,2.3,2.3,0,0,1,1.167.282l-.024-.907h-5.634v-1.215h5.611Zm.117,5.387a.94.94,0,0,0-.235-.719,1.319,1.319,0,0,0-.956-.4,1.2,1.2,0,0,0-1.249,1.239,1.15,1.15,0,0,0,1.215,1.237,1.113,1.113,0,0,0,1.225-1.132Z" transform="translate(-88.934 -387.157)" fill="#1a1311"/>
              <path id="パス_2276" data-name="パス 2276" d="M221.555,388.021v1.12c-.555.507-1.426,1.344-1.981,1.851-.129.13-.247.236-.483.435a2.821,2.821,0,0,1,1.332-.247,2.908,2.908,0,0,1,3.206,3.089,3.531,3.531,0,0,1-1.426,2.923,4.552,4.552,0,0,1-2.876.73c-3.089,0-3.089-1.921-3.089-2.086a1.945,1.945,0,0,1,2.109-1.769,2.213,2.213,0,0,1,2.216,2.559,2.277,2.277,0,0,0,1.768-2.3,1.918,1.918,0,0,0-2.169-1.992,5.2,5.2,0,0,0-3.076,1.037c-.884.8-1.45,1.38-2.075,2.052l-.814-1.1c.283-.247,4.845-4.514,5.493-5.128l-4.679.048v-1.227Zm-2.134,8.418c0-.083-.035-1.25-1.12-1.25-.554,0-.884.318-.884.719,0,.884,1.333.884,1.957.884A1.561,1.561,0,0,0,219.421,396.439Z" transform="translate(-94.192 -387.244)" fill="#1a1311"/>
            </g>
            <g id="グループ_1038" data-name="グループ 1038" transform="translate(0 15.653)">
              <path id="パス_2277" data-name="パス 2277" d="M27.355,410.873a1.963,1.963,0,0,0,2.216,2.09c-.407,3.339-1.725,7.827-9.089,9.328l-1.066-2.132c5.933-.842,7.322-3.928,7.729-7.069H18.5v-2.216Zm3.606.07a1.578,1.578,0,1,1-1.571-1.584A1.569,1.569,0,0,1,30.96,410.943Zm-2.231,0a.656.656,0,0,0,.66.645.644.644,0,0,0,.645-.645.652.652,0,1,0-1.3,0Z" transform="translate(-18.505 -409.33)" fill="#1a1311"/>
              <path id="パス_2278" data-name="パス 2278" d="M50.152,411.547v10.758H39.072V411.547ZM47.8,413.665H41.358v6.523H47.8Z" transform="translate(-24.706 -409.99)" fill="#1a1311"/>
              <path id="パス_2279" data-name="パス 2279" d="M62.8,417.127a21.43,21.43,0,0,0-4.123-1.627l.743-1.908a20.587,20.587,0,0,1,4.208,1.487Zm-3.338,2.693c4.769-.462,7.574-1.528,9.4-7.532l2.047,1.067c-2.131,6.269-5.2,8.12-10.813,8.864Zm4.572-6.087A20.277,20.277,0,0,0,59.8,412.2l.8-1.892a21.752,21.752,0,0,1,4.32,1.374Zm4.012-1.782a14.04,14.04,0,0,0-.548-2.215l1.248-.2a12.116,12.116,0,0,1,.617,2.146Zm2.047-.321a10.418,10.418,0,0,0-.617-2.035l1.221-.2a11.622,11.622,0,0,1,.645,1.978Z" transform="translate(-30.617 -409.342)" fill="#1a1311"/>
              <path id="パス_2280" data-name="パス 2280" d="M89.912,414.82v1.936H86.462v4.685h3.97V423.4H80.487v-1.963H84.4v-4.685H80.949V414.82Z" transform="translate(-37.193 -410.977)" fill="#1a1311"/>
              <path id="パス_2281" data-name="パス 2281" d="M110.9,411.835c-1.164,7.925-5.484,10.015-10.183,10.7l-.911-2.061c3.422-.462,6.9-1.416,8.289-6.564h-4.348a11.992,11.992,0,0,1-3.338,3.043l-1.459-1.639a9.853,9.853,0,0,0,4.558-5.373l2.385.309a16.341,16.341,0,0,1-.743,1.585Z" transform="translate(-42.758 -409.506)" fill="#1a1311"/>
              <path id="パス_2282" data-name="パス 2282" d="M126.511,410.261V413.6a32.3,32.3,0,0,1,6.746,2.946l-1.192,2.342a27.217,27.217,0,0,0-5.554-2.917v6.648H124.07V410.261Z" transform="translate(-50.334 -409.602)" fill="#1a1311"/>
              <path id="パス_2283" data-name="パス 2283" d="M147.456,414.841h4.391v2.047H147.4c-.1,2.063-.785,4.727-6.312,5.779l-.939-1.978c.673-.1,2.946-.434,4.152-1.613a2.962,2.962,0,0,0,.884-2.188H139.8v-2.047h5.414V413.4a35.21,35.21,0,0,1-4.475.21l-.421-1.991a31.115,31.115,0,0,0,9.453-1.191l1.136,2.047a33.579,33.579,0,0,1-3.451.659Z" transform="translate(-55.076 -409.651)" fill="#1a1311"/>
              <path id="パス_2284" data-name="パス 2284" d="M172.234,417.431v2.343H159.863v-2.343Z" transform="translate(-61.126 -411.764)" fill="#1a1311"/>
              <path id="パス_2285" data-name="パス 2285" d="M189.247,415.283a25.865,25.865,0,0,1,3.479,6.411l-2.259.981c-.2-.532-.294-.8-.448-1.177-2.371.322-8.543.63-9.524.687l-.267-2.329c.225,0,1.081,0,1.375-.013,1.949-6.312,2.02-6.551,2.595-9.441l2.468.239c-1.88,6.326-2.09,7.027-2.876,9.173,1.375-.014,1.782-.029,5.414-.183a20.661,20.661,0,0,0-1.922-3.437Z" transform="translate(-67.266 -409.645)" fill="#1a1311"/>
              <path id="パス_2286" data-name="パス 2286" d="M201.392,418.079a16.7,16.7,0,0,1-.49,4.194l-1.431-.869a15.226,15.226,0,0,0,.449-3.465Zm4.685-1.066-1.739.534c-.028-.1-.084-.52-.1-.6-.085.015-.14.029-.687.085v5.891H201.77V417.21c-.308.013-1.753.14-2.089.168l-.07-1.838c.743-.014.827-.014,1.009-.027.154-.183.281-.337.631-.786a9.141,9.141,0,0,0-1.754-1.865l.968-1.726a2.4,2.4,0,0,1,.351.281,14.447,14.447,0,0,0,.94-1.838l1.838.532a18.084,18.084,0,0,1-1.586,2.482c.267.309.351.422.421.52a17.96,17.96,0,0,0,1.374-2.132l1.781.616a32.356,32.356,0,0,1-2.917,3.83c.182-.014,1.08-.056,1.277-.07-.071-.351-.126-.533-.225-.912l1.542-.49a16.328,16.328,0,0,1,.814,2.875v-6.789h6.242v10.519h.6v1.992h-8.038v-1.543l-.673.14a17.738,17.738,0,0,0-.337-3.115l1.388-.266a22.131,22.131,0,0,1,.407,2.791h.407Zm1.977-5.008v1.572h2.287v-1.572Zm0,3.395v1.558h2.287V415.4Zm0,3.423v1.739h2.287v-1.739Z" transform="translate(-73.067 -409.397)" fill="#1a1311"/>
              <path id="パス_2287" data-name="パス 2287" d="M224.93,421.521a1.819,1.819,0,0,1-.421.042h-1.332l-.365-2.174h.953c.211,0,.365,0,.476-.449a19.054,19.054,0,0,0,.154-2.525h-1.528v.8a12.605,12.605,0,0,1-1.389,5.7l-1.824-1.7a7.992,7.992,0,0,0,1.122-4.166v-5.652h6.13c-.014-.309-.071-1.655-.084-1.936h2.146c0,.393,0,.7.028,1.936h1.669a8.786,8.786,0,0,0-1.277-1.206l1.6-.87a9.746,9.746,0,0,1,1.753,1.641l-.743.435h1.122v2.019H229.1a26.94,26.94,0,0,0,.407,3.352,13.866,13.866,0,0,0,.954-2.917l2.019.715a16.037,16.037,0,0,1-2.174,4.8c.211.478.506,1.011.8,1.011.519,0,.828-1.052,1.094-1.978l1.235,1.711c-.758,2.512-1.53,2.751-2.231,2.751-1.023,0-1.753-.786-2.37-1.768a10.759,10.759,0,0,1-2.735,1.838Zm1.556-7a33.744,33.744,0,0,1-.392,5.906,9.048,9.048,0,0,0,1.865-1.458,21.941,21.941,0,0,1-.967-5.555h-4.124v1.108Z" transform="translate(-79.154 -409.318)" fill="#1a1311"/>
              <path id="パス_2288" data-name="パス 2288" d="M251.009,418.245a2.02,2.02,0,1,1-2.02-2.019A2.02,2.02,0,0,1,251.009,418.245Z" transform="translate(-87.389 -411.401)" fill="#1a1311"/>
            </g>
            <g id="グループ_1039" data-name="グループ 1039" transform="translate(33.34 33.881)">
              <path id="パス_2289" data-name="パス 2289" d="M71.834,440.714H68.117v-.856H66.728v-3.31H71.89v-.814h2.146v.814h5.232v3.31H77.78v.856H73.867v.6h4.447v1.5H73.756a6.212,6.212,0,0,1-.112.617H79.59v1.823H75.172c.407.464,1.178,1.291,4.516,1.656L78.832,449c-1.36-.254-4.418-.9-5.876-3.423a5.2,5.2,0,0,1-.659.967,9.616,9.616,0,0,1-5.2,2.469l-.856-2.048c.842-.113,3.6-.449,4.629-1.712h-4.5v-1.823h5.26c.028-.169.057-.265.112-.617H67.612v-1.5h4.222Zm0-2.4H68.761v.786h3.073Zm2.033.786h3.325v-.786H73.867Z" transform="translate(-66.237 -435.51)" fill="#1a1311"/>
              <path id="パス_2290" data-name="パス 2290" d="M91.346,439.4a17.642,17.642,0,0,1-1.431,2.271v7.181H87.783v-4.824c-.435.364-.617.518-.9.729l-.6-2.622a11.147,11.147,0,0,0,3.3-3.62Zm-.562-3.338a10.578,10.578,0,0,1-3.534,3.983l-.954-2.1a7.8,7.8,0,0,0,2.567-2.525Zm9.061,3.8v2.021H97.938v5.4a1.343,1.343,0,0,1-1.5,1.57H93.52l-.351-2.146h2.16c.337,0,.435-.112.435-.434v-4.39H91.191V439.86Zm-.505-3.814v1.992h-7.6v-1.992Z" transform="translate(-72.281 -435.414)" fill="#1a1311"/>
              <path id="パス_2291" data-name="パス 2291" d="M113.214,439.631h-6.326v-1.641h6.354v1.375h2.3v-3.731h2.174v3.731h2.525v2.146h-2.525v7.42h-2.174v-7.42h-2.329Zm-5.863-3.7h5.442v1.543h-5.442Zm0,4.208h5.442v1.543h-5.442Zm0,2.09h5.442v1.543h-5.442Zm0,2.133h5.442v4.068h-3.534v.505h-1.908Zm1.908,1.487v.981h1.711v-.981Z" transform="translate(-78.494 -435.48)" fill="#1a1311"/>
              <path id="パス_2292" data-name="パス 2292" d="M140.5,438.1h-5.765v.786h2.693v7.126h-7.1V438.89h2.679V438.1h-5.793V436.2H140.5Zm-12.764.618h1.922v7.966h8.374v-7.966h1.964v10.364h-1.964v-.547h-8.374v.547h-1.922Zm4.236,1.823v1.094h1.039v-1.094Zm0,2.651v1.178h1.039V443.2Zm2.763-2.651v1.094h1.052v-1.094Zm0,2.651v1.178h1.052V443.2Z" transform="translate(-84.623 -435.65)" fill="#1a1311"/>
              <path id="パス_2293" data-name="パス 2293" d="M153.573,446.687c1.515-.113,4.643-.366,4.643-4.138,0-2.343-1.36-3.338-2.959-3.465-.071,1.221-.6,8.557-4.363,8.557-1.894,0-3.071-1.922-3.071-4.124a6.438,6.438,0,0,1,6.8-6.536c3.226,0,5.933,1.766,5.933,5.764a5.843,5.843,0,0,1-1.907,4.546,7.99,7.99,0,0,1-4.25,1.514Zm-3.534-3.2c0,.533.154,1.8.953,1.8,1.065,0,1.866-2.749,2.132-6.1A4.334,4.334,0,0,0,150.039,443.488Z" transform="translate(-90.836 -435.886)" fill="#1a1311"/>
              <path id="パス_2294" data-name="パス 2294" d="M175.358,439.577h5.61v1.7h-5.61v.534h4.727V444.5c0,1.01-.59,1.291-1.164,1.291h-.267a12.816,12.816,0,0,0,2.511.828l-1.095,2.019a11.133,11.133,0,0,1-4.713-3.142v3.423H173.3v-3.465a12.562,12.562,0,0,1-4.671,3.212l-1.067-1.964a10.55,10.55,0,0,0,2.946-1.136h-1.88v-3.759H173.3v-.534H167.77v-1.7h.953l-1.178-1.458a6.635,6.635,0,0,0,2.09-2.526l2.089.239c-.1.282-.126.351-.21.59h2.595v1.36a6.824,6.824,0,0,0,1.361-2.188l2.048.239c-.085.268-.112.351-.2.59h3.646v1.809h-2.159a5.855,5.855,0,0,1,.407.7l-2.076.533a7.144,7.144,0,0,0-.547-1.234H176.3a8.744,8.744,0,0,1-.94,1.136Zm-.9-.575-.856-.716.056-.056h-1.15a3.047,3.047,0,0,1,.393.73l-1.964.5a6.7,6.7,0,0,0-.449-1.234h-.084a8.475,8.475,0,0,1-1.346,1.347H173.3V439Zm-3.787,4.361v2.1a9.193,9.193,0,0,0,2.4-2.1Zm6.523.9h.533c.252,0,.295-.1.295-.407v-.492h-2.4a8.4,8.4,0,0,0,1.767,1.7Z" transform="translate(-96.783 -435.468)" fill="#1a1311"/>
              <path id="パス_2295" data-name="パス 2295" d="M192.258,442.121a13.924,13.924,0,0,1-.505,2.454,3.668,3.668,0,0,0,1.838,1.556v-4.782h-3.942v-1.081h-1.291V436.65h5.218v-1h2.118v1h5.246v3.619h-1.319v1.081H195.68v1.472h4.067v1.922H195.68v1.809c.14.013.547.027.757.027h5.007l-.434,2.09h-4.952a5.654,5.654,0,0,1-4.98-2.244,8.164,8.164,0,0,1-1.823,2.554l-1.445-1.712c.534-.476,2.006-1.822,2.413-5.413Zm6.592-2.679v-.925h-8.4v.925Z" transform="translate(-102.893 -435.486)" fill="#1a1311"/>
            </g>
          </g>
          <g id="グループ_1042" data-name="グループ 1042" transform="translate(30.914)" style="isolation: isolate">
            <g id="グループ_1041" data-name="グループ 1041">
              <path id="パス_2296" data-name="パス 2296" d="M78.113,271.945H71.3v.786H76.77v3.211H71.3v.72h5.815v2h1.1v1.393h-1.1v2.785h-1.7v-.786H71.3v1.2a1.451,1.451,0,0,1-1.426,1.621H66.908l-.246-1.621h2.474c.475,0,.508-.165.508-.508v-.687h-5.93v-1.213h5.93v-.851H62.763v-1.262h6.881v-.819H63.8v-1.245h5.848v-.72H64.32v-3.211h5.324v-.786h-6.7v-1.36h6.7v-1.048H71.3v1.048h6.814Zm-12.139,1.949v.918h3.67v-.918Zm5.325,0v.918h3.768v-.918Zm0,4.014v.819h4.062v-.819Zm0,2.081v.851H75.41v-.851Z" transform="translate(-62.763 -269.471)" fill="#1a1311"/>
              <path id="パス_2297" data-name="パス 2297" d="M86.4,283.121a18.613,18.613,0,0,0,5.537-2.539H86.382v-1.359h6.782v-.983H87.528v-1.261h5.635V276h-5.98v-1.344h3.522a9.153,9.153,0,0,0-.443-1.277H86.382v-1.41h2.571c-.115-.245-.639-1.359-.95-2.031l1.7-.474a12.729,12.729,0,0,1,.983,2.505h1v-2.408h1.605v2.408h1.425v-2.408h1.606v2.408H97.39a17.691,17.691,0,0,0,.9-2.522l1.7.491a13.6,13.6,0,0,1-.9,2.031h2.522v1.41H97.651c-.049.18-.344,1.081-.409,1.277h3.719V276H94.818v.983h5.766v1.261H94.818v.983h6.8v1.359H96.079A14.285,14.285,0,0,0,101.7,283.1l-.95,1.491a14.992,14.992,0,0,1-5.929-3.243v3.44H93.164v-3.424a16.314,16.314,0,0,1-5.914,3.211Zm5.6-9.746c.082.2.393,1.1.459,1.277h3.047a6.767,6.767,0,0,0,.361-1.277Z" transform="translate(-69.884 -269.443)" fill="#1a1311"/>
              <path id="パス_2298" data-name="パス 2298" d="M109.295,279.122a10.948,10.948,0,0,0,2.162-5h-1.851v-1.557h1.966V269.49h1.557v3.079H114.6v1.557h-1.474v.425a8.129,8.129,0,0,0,1.933,3.113l-.786,1.572a12.321,12.321,0,0,1-1.147-2.179v7.8h-1.557v-7.371a10.694,10.694,0,0,1-1.654,3.931Zm7.716-9.632h1.523v.835h2.49v-.835h1.54v.835h2.047v1.245h-2.047v.868h1.474v1.131h-1.474v.966h2.424v1.278h-4.521v.819H124.1v4.357h.884v1.261H124.1v1.442c0,.654-.213,1.162-1.359,1.162h-2.179l-.131-1.474h1.572c.525,0,.557-.066.557-.443v-.688h-5.652v2.6h-1.507v-2.6h-1.048v-1.261h1.048v-4.357h3.652v-.819H114.6v-1.278h2.409v-.966h-1.606v-1.131h1.606v-.868h-2.147v-1.245h2.147Zm-.1,8.338v.983h2.146v-.983Zm0,2.114v1.048h2.146v-1.048Zm1.622-8.371v.868h2.49v-.868Zm0,2v.966h2.49v-.966Zm1.933,4.259v.983h2.1v-.983Zm0,2.114v1.048h2.1v-1.048Z" transform="translate(-76.793 -269.457)" fill="#1a1311"/>
              <path id="パス_2299" data-name="パス 2299" d="M132.959,276.3a17.218,17.218,0,0,0,3.129-3.6h-2.9v-1.474h2.98v-1.638h1.458v1.638h2.408V272.7h-2.408v.41a11.926,11.926,0,0,0,2.408,2.343l-.852,1.31a8.287,8.287,0,0,1-1.556-1.7v4.03h-1.458v-4.342a9.912,9.912,0,0,1-2.391,2.966Zm3.325,4.079a10.627,10.627,0,0,1-2,4.046l-1.229-1.13a7.881,7.881,0,0,0,1.655-3.309Zm.607.082H138.5v2.163c0,.409.066.441.541.441h3.26c.41,0,.606-.032.754-.2.131-.147.163-.295.425-1.67l1.54.442c-.229,1.687-.475,3-1.917,3h-5.16a1.023,1.023,0,0,1-1.048-1.065Zm2.867-1.835a16.548,16.548,0,0,1,2.932,2.2l-1.081,1.245a15.591,15.591,0,0,0-2.9-2.228Zm8.126-8.568v8.781h-7.028v-8.781Zm-5.5,1.41V272.6h3.948v-1.129Zm0,2.342v1.2h3.948v-1.2Zm0,2.457v1.18h3.948v-1.18Zm3.784,3.571a22.963,22.963,0,0,1,2.473,3.424l-1.376,1.065a19.684,19.684,0,0,0-2.276-3.686Z" transform="translate(-83.928 -269.485)" fill="#1a1311"/>
              <path id="パス_2300" data-name="パス 2300" d="M160.077,281.366a10.961,10.961,0,0,1-2.6,3.522l-1.13-1.261a11.141,11.141,0,0,0,2.244-2.916Zm-2.359-11.876h1.556v1.474h3.112V269.49h1.556v1.474h.966v1.556h-.966v6.438h.966v1.507h-8.42v-1.507h1.229V272.52h-.934v-1.556h.934Zm1.556,3.03v1.164h3.112V272.52Zm0,2.54v1.212h3.112V275.06Zm0,2.523v1.375h3.112v-1.375Zm2.981,3.145a8.6,8.6,0,0,1,1.688,2.08l-1.2,1.049a16.29,16.29,0,0,0-1.621-2.26Zm7.552-.688h-2.949a10.8,10.8,0,0,1-1.949,4.849l-1.425-1.113c1.163-1.639,2.081-3.195,2.081-8.452V270h5.865v13.58c0,1.31-.885,1.31-1.393,1.31h-2.1l-.262-1.654h1.606c.376,0,.524-.132.524-.492Zm-2.654-4.275-.115,2.7h2.769v-2.7Zm0-4.226v2.7h2.654v-2.7Z" transform="translate(-90.978 -269.457)" fill="#1a1311"/>
              <path id="パス_2301" data-name="パス 2301" d="M180.967,270.451h6.226v5.979h-4.6v8.715h-1.623Zm1.623,1.344v1.081H185.6v-1.081Zm0,2.195v1.081H185.6V273.99Zm9.238,3.374v6.078h-7.6v-6.078Zm-6.06,1.327v1.131h4.5v-1.131Zm0,2.227v1.18h4.5v-1.18Zm7.732-4.489H188.65v-5.979h6.488v13.155c0,.459,0,1.539-1.1,1.539h-2.507l-.262-1.638h1.852c.2,0,.376-.066.376-.393Zm-3.26-4.635v1.081h3.26v-1.081Zm0,2.195v1.081h3.26V273.99Z" transform="translate(-98.403 -269.747)" fill="#1a1311"/>
            </g>
          </g>
          <g id="グループ_1046" data-name="グループ 1046" transform="translate(4.007 36.124)">
            <g id="グループ_1043" data-name="グループ 1043" transform="translate(48.048 3.999)">
              <path id="パス_2302" data-name="パス 2302" d="M144.532,371.746c1.253,1.138-.634,4.554-2.421,3.934a21.826,21.826,0,0,1-3.763-2.007" transform="translate(-106.694 -340.411)" fill="none" stroke="#51a9aa" stroke-linecap="round" stroke-linejoin="round" stroke-width="1.54"/>
              <path id="パス_2303" data-name="パス 2303" d="M151.08,367.659c1.875,2.19-1.58,5.291-3.807,3.694-1.192-.854-1.894-1.739-3.265-2.889" transform="translate(-108.4 -339.179)" fill="none" stroke="#51a9aa" stroke-linecap="round" stroke-linejoin="round" stroke-width="1.54"/>
              <path id="パス_2304" data-name="パス 2304" d="M118.717,328.834h0a15.634,15.634,0,0,0-5.835.82c-.871.263-1.728.567-2.558.871-2.41.885-4.553,1.775-6.029,1.775l-2.641,0-8.62.019" transform="translate(-93.03 -327.461)" fill="none" stroke="#51a9aa" stroke-linecap="round" stroke-linejoin="round" stroke-width="1.54"/>
              <path id="パス_2305" data-name="パス 2305" d="M107.459,358.853c.12-1.349,3.516-5.45,5.032-6.358,2.074-1.242,5,1.443,3.771,3.144-1.023,1.414-3.279,4.667-4.706,6.623C110.441,363.791,107.248,361.232,107.459,358.853Z" transform="translate(-97.377 -334.511)" fill="none" stroke="#51a9aa" stroke-linecap="round" stroke-linejoin="round" stroke-width="1.54"/>
              <path id="パス_2306" data-name="パス 2306" d="M117.98,356.77c1.779-2.054,5.23.068,4.808,1.926-.451,1.984-3.3,5.95-4.364,7.676-1.387,2.252-6.684-.451-4.921-3.186" transform="translate(-99.095 -335.642)" fill="none" stroke="#51a9aa" stroke-linecap="round" stroke-linejoin="round" stroke-width="1.54"/>
              <path id="パス_2307" data-name="パス 2307" d="M131.916,364.412c1.285-1.06,4.739.47,4.725,2.228-.013,1.792-1.488,5.823-2.791,6.858-1.232.979-5.518-.425-5.12-2.143" transform="translate(-103.786 -338.095)" fill="none" stroke="#51a9aa" stroke-linecap="round" stroke-linejoin="round" stroke-width="1.54"/>
              <path id="パス_2308" data-name="パス 2308" d="M124.847,360.221c1.4-1.139,4.731.441,4.629,2.223-.119,2.1-2.741,6.78-3.849,8.586-1.309,2.135-6.628-.619-5.051-3.481" transform="translate(-101.248 -336.82)" fill="none" stroke="#51a9aa" stroke-linecap="round" stroke-linejoin="round" stroke-width="1.54"/>
              <path id="パス_2309" data-name="パス 2309" d="M176.694,358.058c-1.507.011-12.429-.034-12.429-.034" transform="translate(-114.508 -336.274)" fill="none" stroke="#51a9aa" stroke-linecap="round" stroke-linejoin="round" stroke-width="1.54"/>
              <path id="パス_2310" data-name="パス 2310" d="M162.922,331.747c-.364,0-1.848,0-3.673.013-1.567,0-3.378,0-4.95.014l-3.784.01c-1.051-.631-2.913-1.632-4.664-2.457-.9-.434-1.779-.821-2.5-1.088a6.915,6.915,0,0,0-1.249-.373c-1.069-.17-5.318-.724-8.913-.917-.972-.051-1.9-.074-2.7-.06a7.371,7.371,0,0,0-2.346.309,8.228,8.228,0,0,0-1.72,1.06h0a21.338,21.338,0,0,0-2.364,2.194s0,0,0,0c-1.456,1.544-2.834,3.3-3.876,4.637-.383.489-.724.922-1.005,1.272-2.1,2.6,2.01,5.835,4.278,3.877a.505.505,0,0,0,.073-.06c.558-.512,1.111-1.064,1.66-1.613,1.77-1.769,3.475-3.516,4.913-3.954a1.309,1.309,0,0,1,.4-.018c.576.013,1.623.138,2.7.295,1.516.221,3.1.507,3.5.636a24.627,24.627,0,0,1,2.668,1.692c.631.447,1.3.945,1.991,1.475,1.152.889,2.355,1.861,3.512,2.834,2,1.682,3.853,3.36,5.075,4.577a2.39,2.39,0,0,1,.557,2.53c-.534,1.664-2.466,3.051-3.84,2.18" transform="translate(-100.737 -326.885)" fill="none" stroke="#51a9aa" stroke-linecap="round" stroke-linejoin="round" stroke-width="1.54"/>
              <path id="パス_2311" data-name="パス 2311" d="M149.575,353.644l5.937,5.346c2.515,2.594-.96,6.389-3.09,4.662-.9-.731-2.973-2.661-4.818-4.472" transform="translate(-109.485 -334.953)" fill="none" stroke="#51a9aa" stroke-linecap="round" stroke-linejoin="round" stroke-width="1.54"/>
              <path id="パス_2312" data-name="パス 2312" d="M103.849,359.044a6.118,6.118,0,0,0-3.551-.971H93.087" transform="translate(-93.047 -336.289)" fill="none" stroke="#51a9aa" stroke-linecap="round" stroke-linejoin="round" stroke-width="1.54"/>
            </g>
            <g id="グループ_1044" data-name="グループ 1044" transform="translate(9.716 6.289)">
              <path id="パス_2313" data-name="パス 2313" d="M46.762,338.452c.217,0,.495-.02,1.06-.04V337h-.9a6.211,6.211,0,0,1-.842,2.475l-.812-.664a4.212,4.212,0,0,0,.7-2.723v-2.04h8.486v.733H46.97v1.326c0,.04-.01.11-.01.149H54.7V337H53.515l.455.337a10.628,10.628,0,0,1-1.02.752,12.894,12.894,0,0,0,1.753.416l-.425,1c-2.406-.673-3.525-1.268-4.535-2.505h-.912v1.367c.7-.04,1.258-.1,1.832-.168v.861c-.931.159-2.753.307-3.763.366Zm-.684-7.723h2.327v-.5h.931v.5h1.387v-.5h.9v.5H53.97v2.931H46.079Zm.951.7v.485h1.375v-.485Zm0,1.089v.495h1.375v-.495ZM53.7,335.2v.643H47.376V335.2Zm-4.366-3.763v.485h1.387v-.485Zm0,1.089v.495h1.387v-.495ZM50.94,337a5.418,5.418,0,0,0,1.06.7c.268-.169.773-.564.951-.7Zm.684-5.564v.485H53.03v-.485Zm0,1.089v.495H53.03v-.495Z" transform="translate(-40.297 -330.185)" fill="#51a9aa"/>
              <path id="パス_2314" data-name="パス 2314" d="M59.663,338.431a11.227,11.227,0,0,0,3.346-1.535H59.653v-.821h4.1v-.594H60.346v-.763h3.406v-.594H60.138v-.812h2.129A5.605,5.605,0,0,0,62,332.54H59.653v-.851h1.554c-.069-.148-.386-.821-.574-1.227l1.03-.288a7.716,7.716,0,0,1,.594,1.515h.6v-1.456h.97v1.456h.862v-1.456h.971v1.456h.643a10.722,10.722,0,0,0,.545-1.524l1.03.3a8.2,8.2,0,0,1-.544,1.227h1.525v.851h-2.4c-.029.109-.208.654-.248.773h2.248v.812H64.752v.594h3.485v.763H64.752v.594h4.109v.821H65.515a8.641,8.641,0,0,0,3.4,1.526l-.574.9a9.077,9.077,0,0,1-3.585-1.961v2.079h-1v-2.07a9.869,9.869,0,0,1-3.574,1.94Zm3.386-5.892c.05.119.238.664.278.773h1.842a4.158,4.158,0,0,0,.217-.773Z" transform="translate(-44.635 -330.164)" fill="#51a9aa"/>
              <path id="パス_2315" data-name="パス 2315" d="M38.192,351.168c.247,0,.3,0,.772-.01.2-.237.416-.544.574-.762a6.255,6.255,0,0,0-1.386-1.267l.515-.882c.159.119.207.159.316.248a11.259,11.259,0,0,0,.891-1.644l.912.327a15.142,15.142,0,0,1-1.119,1.911,5.122,5.122,0,0,1,.455.465c.386-.584.585-.881,1-1.614l.881.425c-.495.812-1.544,2.307-1.9,2.753l.99-.04c-.1-.356-.119-.406-.178-.584l.752-.277a10.348,10.348,0,0,1,.515,1.772l-.842.268c-.02-.159-.03-.228-.05-.357-.119.01-.445.039-.534.05v4.228H39.8V352.02c-.505.039-1.268.089-1.525.109Zm1.316,1.585a14.376,14.376,0,0,1-.386,2.772l-.93-.3a11.118,11.118,0,0,0,.415-2.623Zm2.357-.248a8.94,8.94,0,0,1,.318,2.1l-.872.138a10.53,10.53,0,0,0-.258-2.03Zm5.337,0v.97h-1.97v1.4h2.376v.93H41.816v-.93h2.406v-1.4H42.369v-.97h1.852v-.98h1.009v.98Zm-3.743-4.357a6.086,6.086,0,0,0,1.267,1.386,5.446,5.446,0,0,0,1.268-1.406H42.182v-.891h4.881v.891a5.377,5.377,0,0,1-1.505,1.97,5.616,5.616,0,0,0,2.227.773l-.346.98a9.62,9.62,0,0,1-2.723-1.1,8.922,8.922,0,0,1-2.227,1.09l-.5-.921a7.118,7.118,0,0,0,1.871-.8,7.128,7.128,0,0,1-1.257-1.574Z" transform="translate(-38.152 -335.195)" fill="#51a9aa"/>
              <path id="パス_2316" data-name="パス 2316" d="M54.117,348.179c-.1-.158-.326-.5-.623-.921l.93-.455a10.308,10.308,0,0,1,.881,1.375H56.92c-.079-.148-.336-.614-.614-1.02l.951-.435a10.687,10.687,0,0,1,.812,1.455h1.2a7.912,7.912,0,0,0,.723-1.405l1.02.366a6.782,6.782,0,0,1-.614,1.039h1.278v2.357h-.99V349.08H53.841v1.456h-1.02v-2.357Zm6.089,1.476v2.475H57.772c-.03.089-.2.544-.228.643h3.644v3.367H60.178v-.406H54.306v.406H53.3v-3.367h3.158a2.566,2.566,0,0,0,.248-.643H54.286v-2.475Zm-5.9,4v1.169h5.872v-1.169Zm.98-3.2v.861h3.931v-.861Z" transform="translate(-42.575 -335.157)" fill="#51a9aa"/>
              <path id="パス_2317" data-name="パス 2317" d="M67.642,351.307a5.867,5.867,0,0,1-.723.852l-.436-1.218a7.277,7.277,0,0,0,1.8-4.09L69.3,347a8.33,8.33,0,0,1-.653,2.445v6.713h-1.01Zm1.307,2.278a9.938,9.938,0,0,0,2.753-4.021H69.246v-1h2.763v-1.673H73.1v1.673h2.871v1H73.385a9.552,9.552,0,0,0,2.742,3.872l-.515,1.149a10.779,10.779,0,0,1-2.515-3.724v2.723h1.366v.98H73.1v1.594h-1.09v-1.594H70.671v-.98h1.337v-2.822a10.462,10.462,0,0,1-2.5,3.9Z" transform="translate(-46.694 -335.195)" fill="#51a9aa"/>
            </g>
            <g id="グループ_1045" data-name="グループ 1045" transform="translate(114.595 6.308)">
              <path id="パス_2318" data-name="パス 2318" d="M196.657,333.191a7.947,7.947,0,0,1-1.02.386l-.544-1.011a8.76,8.76,0,0,0,4.3-2.376h1.267a7.534,7.534,0,0,0,4.169,2.416l-.535.97c-.3-.1-.544-.189-1.118-.436v3.129a3.36,3.36,0,0,0,.425-.425l.773.633a12.6,12.6,0,0,1-1.99,1.465,8.913,8.913,0,0,0,2.218.624l-.436.99a7.839,7.839,0,0,1-5.05-3.139h-1.435v1.872c.881-.089,1.792-.189,2.654-.347l.068.94c-.752.129-1.643.278-4.772.585l-.149-1.02c.3,0,.664-.01,1.179-.059Zm2.792-.485v-.941h1.01v.941h1.851a11.58,11.58,0,0,1-2.317-1.763,11.92,11.92,0,0,1-2.426,1.763Zm-1.772.851v.614h4.495v-.614Zm0,1.338v.673h4.495v-.673Zm2.535,1.524a4.359,4.359,0,0,0,1.257,1.069,11.81,11.81,0,0,0,1.526-1.069Z" transform="translate(-190.349 -330.191)" fill="#51a9aa"/>
              <path id="パス_2319" data-name="パス 2319" d="M213.942,338.325c1.178-.05,3.594-.159,3.594-3.228a2.55,2.55,0,0,0-2.6-2.733,13.089,13.089,0,0,1-1.08,4.832,2.321,2.321,0,0,1-1.9,1.4c-1.3,0-1.95-1.485-1.95-2.871a4.31,4.31,0,0,1,4.624-4.4c3.287,0,4.148,2.258,4.148,3.882,0,3.93-3.515,4.119-4.545,4.168Zm-2.861-2.455c0,1.069.416,1.634.911,1.634,1.327,0,1.713-3.7,1.812-5.09A3.334,3.334,0,0,0,211.081,335.87Z" transform="translate(-194.845 -330.533)" fill="#51a9aa"/>
              <path id="パス_2320" data-name="パス 2320" d="M197.58,348.349h-4.119v.475h3.307v1.94h-3.307v.436h3.515v1.208h.664v.842h-.664v1.683h-1.03v-.475h-2.485v.723a.877.877,0,0,1-.861.98h-1.793l-.148-.98h1.5c.286,0,.307-.1.307-.307v-.416h-3.584v-.732h3.584v-.515H188.3v-.763h4.159v-.5h-3.535V351.2h3.535v-.436h-3.218v-1.94h3.218v-.475h-4.049v-.821h4.049v-.634h1v.634h4.119Zm-7.337,1.178v.555h2.218v-.555Zm3.218,0v.555h2.277v-.555Zm0,2.425v.5h2.455v-.5Zm0,1.258v.515h2.485v-.515Z" transform="translate(-188.302 -335.227)" fill="#51a9aa"/>
              <path id="パス_2321" data-name="パス 2321" d="M202.585,355.1a11.245,11.245,0,0,0,3.346-1.535h-3.356v-.821h4.1v-.594h-3.406v-.763h3.406V350.8H203.06v-.812h2.129a5.629,5.629,0,0,0-.268-.773h-2.346v-.851h1.554c-.069-.149-.386-.822-.574-1.228l1.03-.287a7.676,7.676,0,0,1,.594,1.515h.6v-1.456h.97v1.456h.862v-1.456h.97v1.456h.643a10.723,10.723,0,0,0,.545-1.524l1.03.3a8.191,8.191,0,0,1-.544,1.228h1.525v.851h-2.4c-.029.109-.208.654-.248.773h2.248v.812h-3.712v.594h3.485v.763h-3.485v.594h4.109v.821h-3.346a8.641,8.641,0,0,0,3.4,1.525l-.574.9a9.077,9.077,0,0,1-3.585-1.961v2.079h-1v-2.07a9.868,9.868,0,0,1-3.574,1.94Zm3.386-5.892c.05.119.238.664.278.773h1.841a4.08,4.08,0,0,0,.218-.773Z" transform="translate(-192.605 -335.21)" fill="#51a9aa"/>
              <path id="パス_2322" data-name="パス 2322" d="M216.393,352.077a16.437,16.437,0,0,0,3.97-1.445h-3.812v-.9h3.465v-1.1h-2.723v-.881h2.723v-.872h1.05v.872h2.168v.682a13.831,13.831,0,0,0,1.307-1.554l.9.5a13.553,13.553,0,0,1-2.2,2.357h2.7v.9h-3.911c-.287.2-.742.474-1.337.8h4.129V356.2h-1.01v-.425h-4.347v.425h-1.03v-3.722c-.821.317-1.158.426-1.6.564Zm3.079.228v.851h4.347V352.3Zm0,1.674v.91h4.347v-.91Zm1.595-5.347v1.1h.712a11.535,11.535,0,0,0,1.268-1.1Z" transform="translate(-196.772 -335.223)" fill="#51a9aa"/>
            </g>
            <path id="パス_2323" data-name="パス 2323" d="M73.037,324.811a3.651,3.651,0,0,0-3.651-3.651H27.894a3.651,3.651,0,0,0-3.652,3.651v27.1a3.652,3.652,0,0,0,3.652,3.652H69.386a3.651,3.651,0,0,0,3.651-3.652" transform="translate(-24.242 -321.16)" fill="none" stroke="#51a9aa" stroke-linecap="round" stroke-linejoin="round" stroke-width="1.54"/>
            <path id="パス_2324" data-name="パス 2324" d="M174.251,351.914a3.651,3.651,0,0,0,3.651,3.652h41.492a3.652,3.652,0,0,0,3.652-3.652v-27.1a3.651,3.651,0,0,0-3.652-3.651H177.9a3.651,3.651,0,0,0-3.651,3.651" transform="translate(-69.471 -321.16)" fill="none" stroke="#51a9aa" stroke-linecap="round" stroke-linejoin="round" stroke-width="1.54"/>
          </g>
        </g>
        <g id="グループ_1051" data-name="グループ 1051" transform="translate(29.289 362.121)">
          <g id="グループ_1048" data-name="グループ 1048" transform="translate(6.801 82.703)">
            <path id="パス_2325" data-name="パス 2325" d="M53.528,641.371a9.035,9.035,0,0,1-.856.335l-1-2.033a11.307,11.307,0,0,0,5.363-2.836H59.6c.817.883,1.993,1.94,5.283,2.862l-.976,2.007c-.428-.161-.669-.254-.99-.388v3.21l1.605,1.15a16.732,16.732,0,0,1-2.007,1.592,13.3,13.3,0,0,0,2.193.428l-.882,2.006a12.444,12.444,0,0,1-5.017-2.127l.027,1.325c-.9.133-2.582.387-6.528.668l-.24-2.02c.161,0,1.217-.053,1.458-.067Zm2.006.375v.587h5.4v-.587Zm0,1.685v.629h5.4v-.629Zm0,2.086v1.847c.8-.067,1.953-.161,2.715-.268a7.866,7.866,0,0,1-1.351-1.579Zm1.766-5.176V639.23h1.953v1.111h1.725a16.827,16.827,0,0,1-2.729-2.127,11.694,11.694,0,0,1-2.7,2.127Zm1.912,5.176a8.354,8.354,0,0,0,1.391.99c.361-.281.843-.656,1.217-.99Z" transform="translate(-51.669 -636.836)" fill="#fff"/>
            <path id="パス_2326" data-name="パス 2326" d="M77.206,647.394c1.444-.107,4.428-.348,4.428-3.946a2.941,2.941,0,0,0-2.822-3.3c-.067,1.164-.576,8.16-4.16,8.16-1.806,0-2.929-1.833-2.929-3.933a6.14,6.14,0,0,1,6.487-6.233c3.077,0,5.658,1.685,5.658,5.5a5.568,5.568,0,0,1-1.82,4.333A7.618,7.618,0,0,1,78,649.414Zm-3.37-3.05c0,.508.147,1.712.909,1.712,1.017,0,1.779-2.621,2.034-5.818A4.133,4.133,0,0,0,73.836,644.345Z" transform="translate(-57.715 -637.229)" fill="#fff"/>
            <path id="パス_2327" data-name="パス 2327" d="M98.991,649.047h-2.26v-5.457a22.567,22.567,0,0,1-4.468,1.992l-1.177-1.806a20.193,20.193,0,0,0,9.871-6.5l1.926,1.324a27.187,27.187,0,0,1-3.893,3.479Z" transform="translate(-63.554 -636.969)" fill="#fff"/>
            <path id="パス_2328" data-name="パス 2328" d="M110.871,647.442c4.788-1.231,7.637-5,8.8-9.859l2.435.615c-1.351,4.241-3.491,8.976-9.951,11.142Z" transform="translate(-69.519 -637.061)" fill="#fff"/>
            <path id="パス_2329" data-name="パス 2329" d="M129.355,643.451c.509-.522.668-.736,2.194-2.608,1.11-1.364,1.792-2.153,2.835-2.153a3.029,3.029,0,0,1,1.993,1.083l5.778,6.247-1.659,1.939-5.31-6.14c-.321-.36-.509-.588-.789-.588a.9.9,0,0,0-.669.469c-.441.575-2.3,3.2-2.688,3.718Zm9.577-2.742a18.275,18.275,0,0,0-1.3-1.914l1.016-.615A11.114,11.114,0,0,1,140,639.986Zm1.726-1a9.858,9.858,0,0,0-1.352-1.806l1.044-.643a9.637,9.637,0,0,1,1.377,1.726Z" transform="translate(-75.092 -636.963)" fill="#fff"/>
            <path id="パス_2330" data-name="パス 2330" d="M161.225,644.324v2.234h-11.8v-2.234Z" transform="translate(-81.144 -639.094)" fill="#fff"/>
            <path id="パス_2331" data-name="パス 2331" d="M172.986,644.44a17.965,17.965,0,0,0-3.946-1.565l.749-1.792a16.161,16.161,0,0,1,4.012,1.444Zm-3.237,2.541c4.307-.374,7.21-1.257,8.988-7.25l2.007.963c-2.114,6.314-5.377,7.986-10.406,8.587Zm4.414-5.765a17.718,17.718,0,0,0-4.094-1.471l.763-1.779a17.441,17.441,0,0,1,4.173,1.351Z" transform="translate(-87.057 -637.177)" fill="#fff"/>
            <path id="パス_2332" data-name="パス 2332" d="M198.639,641.394v8.694h-8.186v-1.845h6.153v-1.686h-5.818v-1.765h5.818V643.2h-6.02v-1.806Z" transform="translate(-93.514 -638.21)" fill="#fff"/>
            <path id="パス_2333" data-name="パス 2333" d="M212.153,642.3a17.638,17.638,0,0,0-4.213-2.073l.963-1.819a17.634,17.634,0,0,1,4.387,1.926Zm-4.025,4.776c5.2-.415,7.945-2.394,9.469-7.785l2.02,1c-2.073,6.982-6.207,8.427-10.781,9.082Z" transform="translate(-98.786 -637.31)" fill="#fff"/>
            <path id="パス_2334" data-name="パス 2334" d="M93.646,667.633h-5.3v.5h4.266v2.649H88.35v.441h4.561v1.551h.816v1.512h-.816v2.288H90.918v-.643H88.35V677c0,.655-.294,1.271-1.1,1.271h-2.9l-.334-1.645h2.047c.281,0,.348-.134.348-.374v-.321H81.756V674.7H86.41v-.509H80.993v-1.338H86.41v-.481H81.782v-1.15H86.41v-.441H82.223v-2.649H86.41v-.5H81.153v-1.4H86.41v-.682H88.35v.682h5.3Zm-9.51,1.539v.587H86.41v-.587Zm4.213,0v.587h2.341v-.587Zm0,3.2v.535h2.568v-.535Zm0,1.779v.548h2.568v-.548Z" transform="translate(-60.51 -645.492)" fill="#fff"/>
            <path id="パス_2335" data-name="パス 2335" d="M100.395,676.372a15.813,15.813,0,0,0,3.892-1.444h-3.812v-1.552H105.8v-.535h-4.454v-1.285H105.8v-.534h-4.815v-1.5h2.7a3.53,3.53,0,0,0-.268-.682h-2.943v-1.659h1.672a9.162,9.162,0,0,0-.588-1.218l1.939-.361a7.771,7.771,0,0,1,.576,1.579h.575v-1.539h1.766v1.539h.749v-1.539h1.778v1.539h.535a9.926,9.926,0,0,0,.576-1.579l1.94.361a11.055,11.055,0,0,1-.549,1.218h1.605v1.659h-2.916l-.228.682h2.7v1.5h-4.829v.534h4.468v1.285h-4.468v.535h5.27v1.552h-3.812a12.017,12.017,0,0,0,3.96,1.377l-.99,1.846a9.766,9.766,0,0,1-4.428-2.341v2.448H105.8v-2.394a10.418,10.418,0,0,1-4.454,2.3Zm5.082-7.53c.041.107.214.587.255.682h2.18a4.145,4.145,0,0,0,.214-.682Z" transform="translate(-66.36 -645.51)" fill="#fff"/>
            <path id="パス_2336" data-name="パス 2336" d="M119.816,675.766h7.009a43.651,43.651,0,0,0,1.512-6.113l2.288.348a39.99,39.99,0,0,1-1.646,5.765h3.465v2.006H119.816Zm5.2-10.22h2.18V667.3h4.936v2.007H120.123V667.3h4.9Zm-1.19,4.16a22.642,22.642,0,0,1,1.164,5.311l-2.167.321a18.617,18.617,0,0,0-1-5.163Z" transform="translate(-72.216 -645.492)" fill="#fff"/>
            <path id="パス_2337" data-name="パス 2337" d="M145.006,666.138c-.04.536-.08.923-.147,1.444h6.353v1.953h-6.634a10.453,10.453,0,0,1-.348,1.712,6.643,6.643,0,0,1,2.929-.735c1.9,0,3.852.963,3.852,3.491,0,3.745-4.173,3.932-7.276,3.932-.615,0-.99-.014-1.431-.027l-.415-2.034a21.205,21.205,0,0,0,2.247.094c2.368,0,4.628-.08,4.628-1.939,0-1.324-1.217-1.552-1.9-1.552a4.3,4.3,0,0,0-3.21,1.271,2.827,2.827,0,0,0-.161.468l-2.234-.576a18.364,18.364,0,0,0,1.057-4.106H139.87v-1.953h2.7c.067-.615.08-1.1.094-1.538Z" transform="translate(-78.262 -645.642)" fill="#fff"/>
            <path id="パス_2338" data-name="パス 2338" d="M165.57,665.585v3.464h4.9v2.1h-4.9v4.6h5.579v2.086H158.468v-2.086h4.949V665.585Z" transform="translate(-83.87 -645.504)" fill="#fff"/>
            <path id="パス_2339" data-name="パス 2339" d="M181.474,666.165a27.55,27.55,0,0,0-.495,5.578,22.73,22.73,0,0,0,.521,5.471l-2.166.281a20.977,20.977,0,0,1-.469-5.042,55.147,55.147,0,0,1,.441-6.46Zm4.374,2.608c.013-.722,0-1.35-.053-2.581h1.4a12.685,12.685,0,0,1,.308,1.832l.508-.094v.842h2.274v2.007h-2.234c.014,2.1.027,3.344-.548,4.414-.254.481-1.284,2.126-4.561,2.608l-.936-1.9c2.943-.495,3.892-1.284,3.892-3.544V670.78H182.01v-2.007Zm2.127-1.083a11.534,11.534,0,0,0-.455-2.046l1.136-.121a8.224,8.224,0,0,1,.509,1.993Zm1.806-.133a10.165,10.165,0,0,0-.509-2.086l1.125-.134a7.406,7.406,0,0,1,.508,2.06Z" transform="translate(-90.02 -645.429)" fill="#fff"/>
          </g>
          <g id="グループ_1050" data-name="グループ 1050" style="isolation: isolate">
            <g id="グループ_1049" data-name="グループ 1049">
              <path id="パス_2340" data-name="パス 2340" d="M57.282,521.1H50.468v.786h5.471V525.1H50.468v.721h5.815v2h1.1v1.392h-1.1v2.786h-1.7v-.786H50.468v1.2a1.452,1.452,0,0,1-1.426,1.622H46.077l-.246-1.622H48.3c.476,0,.508-.164.508-.508v-.688h-5.93v-1.213h5.93v-.851H41.932v-1.261h6.881v-.819H42.964v-1.245h5.848V525.1H43.489v-3.211h5.324V521.1h-6.7v-1.359h6.7v-1.048h1.655v1.048h6.814Zm-12.139,1.949v.918h3.67v-.918Zm5.325,0v.918h3.767v-.918Zm0,4.014v.819h4.062v-.819Zm0,2.081v.851h4.111v-.851Z" transform="translate(-41.932 -518.511)" fill="#fff"/>
              <path id="パス_2341" data-name="パス 2341" d="M65.567,532.276a18.629,18.629,0,0,0,5.537-2.539H65.55v-1.36h6.782v-.983H66.7v-1.261h5.635v-.983H66.353v-1.343h3.522a9.339,9.339,0,0,0-.443-1.278H65.55v-1.41h2.572c-.115-.245-.639-1.359-.95-2.031l1.7-.475a12.712,12.712,0,0,1,.983,2.506h1v-2.408h1.605v2.408h1.425v-2.408h1.606v2.408h1.064a17.833,17.833,0,0,0,.9-2.522l1.7.491a13.653,13.653,0,0,1-.9,2.031h2.522v1.41H76.82c-.049.18-.344,1.081-.409,1.278h3.718v1.343H73.986v.983h5.766v1.261H73.986v.983h6.8v1.36H75.248a14.3,14.3,0,0,0,5.619,2.523l-.95,1.49a14.99,14.99,0,0,1-5.93-3.243v3.441H72.332v-3.425a16.3,16.3,0,0,1-5.913,3.211Zm5.6-9.747c.082.2.393,1.1.459,1.278h3.047a6.727,6.727,0,0,0,.36-1.278Z" transform="translate(-49.053 -518.482)" fill="#fff"/>
              <path id="パス_2342" data-name="パス 2342" d="M88.862,531.641h8.879a49.414,49.414,0,0,0,1.966-8.092l1.868.295a47.406,47.406,0,0,1-2.113,7.8h4.783v1.7H88.862Zm6.75-13.138h1.8v2.621h6.274v1.7H89.452v-1.7h6.159Zm-2.293,5.16a30.87,30.87,0,0,1,1.654,6.912l-1.868.279a27.028,27.028,0,0,0-1.474-6.782Z" transform="translate(-56.082 -518.454)" fill="#fff"/>
              <path id="パス_2343" data-name="パス 2343" d="M118.8,519.552c-.016.524-.033,1.1-.115,2.048h8.142v1.621h-8.305a14.806,14.806,0,0,1-.557,2.916,8.112,8.112,0,0,1,4.145-1.081c3.538,0,4.521,2.506,4.521,4.128a3.953,3.953,0,0,1-2.785,3.735,16.793,16.793,0,0,1-5.619.622c-1,0-1.326-.033-1.835-.049l-.344-1.688c.557.033,1.425.082,2.392.082,3.472,0,6.258-.393,6.258-2.866,0-1.458-1.1-2.295-2.769-2.295a5.974,5.974,0,0,0-4.407,1.7l-.213.573-1.8-.377a22.2,22.2,0,0,0,1.18-5.406H113.3V521.6h3.539a18.267,18.267,0,0,0,.033-2.065Z" transform="translate(-63.45 -518.765)" fill="#fff"/>
              <path id="パス_2344" data-name="パス 2344" d="M144.074,518.691v4.947h6.143v1.753h-6.143v6.388h7.192v1.72h-15.5v-1.72h6.5V518.691Z" transform="translate(-70.224 -518.511)" fill="#fff"/>
              <path id="パス_2345" data-name="パス 2345" d="M163.012,519.53a38.787,38.787,0,0,0-.573,7.208,27.07,27.07,0,0,0,.541,6.225l-1.753.2a23.126,23.126,0,0,1-.573-6.045,67.538,67.538,0,0,1,.492-7.716Zm6.487,3.326c0-1.376-.033-2.26-.082-3.342h1.817c.066,2.047.1,3.145.1,3.342H174.3v1.622h-2.981c.05,3.407.082,4.767-.492,5.93-.573,1.179-2.391,2.638-5.684,3.129l-.672-1.621a8.873,8.873,0,0,0,3.031-.836c1.474-.721,2.031-1.573,2.031-3.882,0-.082-.033-2.293-.033-2.719h-5.242v-1.622Zm2.686-1.491a13.444,13.444,0,0,0-.557-2.6l1.163-.147a10.247,10.247,0,0,1,.622,2.6Zm2.031-.23a10.786,10.786,0,0,0-.59-2.539l1.18-.163a11.427,11.427,0,0,1,.573,2.555Z" transform="translate(-77.727 -518.433)" fill="#fff"/>
              <path id="パス_2346" data-name="パス 2346" d="M186.152,530.52a10.972,10.972,0,0,1-2.6,3.523l-1.13-1.262a11.137,11.137,0,0,0,2.244-2.916Zm-2.359-11.876h1.556v1.474h3.112v-1.474h1.556v1.474h.966v1.557h-.966v6.438h.966v1.507h-8.42v-1.507h1.229v-6.438h-.934v-1.557h.934Zm1.556,3.031v1.163h3.112v-1.163Zm0,2.539v1.212h3.112v-1.212Zm0,2.523v1.376h3.112v-1.376Zm2.981,3.145a8.58,8.58,0,0,1,1.688,2.08l-1.2,1.048a16.3,16.3,0,0,0-1.621-2.26Zm7.552-.689h-2.949a10.806,10.806,0,0,1-1.949,4.85l-1.425-1.114c1.163-1.639,2.081-3.194,2.081-8.453v-5.325H197.5v13.581c0,1.311-.884,1.311-1.393,1.311h-2.1l-.262-1.655h1.606c.376,0,.524-.131.524-.491Zm-2.654-4.275-.115,2.7h2.769v-2.7Zm0-4.226v2.7h2.654v-2.7Z" transform="translate(-84.289 -518.497)" fill="#fff"/>
              <path id="パス_2347" data-name="パス 2347" d="M207.043,519.606h6.225v5.978h-4.6V534.3h-1.622Zm1.622,1.343v1.081h3.013v-1.081Zm0,2.195v1.081h3.013v-1.081Zm9.238,3.374V532.6h-7.6v-6.078Zm-6.06,1.327v1.131h4.5v-1.131Zm0,2.228v1.18h4.5v-1.18Zm7.732-4.489h-4.849v-5.978h6.488V532.76c0,.459,0,1.54-1.1,1.54h-2.506l-.262-1.639H219.2c.2,0,.376-.066.376-.393Zm-3.26-4.635v1.081h3.26v-1.081Zm0,2.195v1.081h3.26v-1.081Z" transform="translate(-91.714 -518.787)" fill="#fff"/>
            </g>
          </g>
          <path id="パス_2348" data-name="パス 2348" d="M100.465,598.461l19.069-19.069,9.642,9.642,28.652-28.652H151.6" transform="translate(-59.58 -531.081)" fill="#51a9aa" stroke="#fff" stroke-linecap="round" stroke-linejoin="round" stroke-width="1.648"/>
        </g>
      </g>
    </g>
  </g>
</svg>
