<svg xmlns="http://www.w3.org/2000/svg" width="1017.09" height="551.379" viewBox="0 0 1017.09 551.379">
  <g id="グループ_1430" data-name="グループ 1430" transform="translate(-331 -4515.744)">
    <text id="_公募期間_2023年6月8日_木_2022年7月7日_金_一次審査_2023年7月中旬_予定_公募結果発表_2023年10月上旬_予定_本サイト上で発表_成果発表会_2024年年3月上旬_予定_" data-name="◯公募期間：2023年6月8日(木)〜2022年7月7日(金)
◯一次審査：2023年7月中旬（予定）
◯公募結果発表：2023年10月上旬（予定）※本サイト上で発表
◯成果発表会：2024年年3月上旬（予定）" transform="translate(331 4935.123)" fill="#333" font-size="16" font-family="NotoSansJP-Bold, Noto Sans JP" font-weight="700"><tspan x="0" y="19">◯公募期間</tspan><tspan y="19" font-family="NotoSansJP-Medium, Noto Sans JP" font-weight="500">：2023年6月8日(木)〜2022年7月7日(金)</tspan><tspan x="0" y="55">◯一次審査：</tspan><tspan y="55" font-family="NotoSansJP-Medium, Noto Sans JP" font-weight="500">2023年7月中旬（予定）</tspan><tspan x="0" y="91">◯公募結果発表</tspan><tspan y="91" font-family="NotoSansJP-Medium, Noto Sans JP" font-weight="500">：2023年10月上旬（予定）※本</tspan><tspan y="91" font-family="NotoSansJP-Medium, Noto Sans JP" font-weight="500">サイト</tspan><tspan y="91" font-family="NotoSansJP-Medium, Noto Sans JP" font-weight="500">上</tspan><tspan y="91" font-family="NotoSansJP-Medium, Noto Sans JP" font-weight="500">で</tspan><tspan y="91" font-family="NotoSansJP-Medium, Noto Sans JP" font-weight="500">発表</tspan><tspan x="0" y="127">◯成果発表会</tspan><tspan y="127" font-family="NotoSansJP-Medium, Noto Sans JP" font-weight="500">：2024年年3月上旬（予定）</tspan></text>
    <g id="アートワーク_50" data-name="アートワーク 50" transform="translate(840.045 4712.934)">
      <g id="グループ_995" data-name="グループ 995" transform="translate(-508.045 -197.189)">
        <g id="グループ_944" data-name="グループ 944" transform="translate(3.867 41.489)">
          <g id="グループ_943" data-name="グループ 943">
            <path id="パス_1996" data-name="パス 1996" d="M7.746,53.833a17.047,17.047,0,0,1-2.9,1.213L3.425,52.027a12.09,12.09,0,0,0,4.366-1.76H3.768V47.8h6.743c.091-.137.16-.252.366-.616H5.87V40.917H8.98v-.709H3.768V37.694H8.98v-.823h3.384v.823h4.8v-.823h3.452v.823h4.778v2.514H20.616v.709h2.7v6.264H14.444a5.133,5.133,0,0,1-.321.616H25.394v2.469H21.165c1.143.916,1.943,1.325,4.663,2.036l-1.485,3.063a14.139,14.139,0,0,1-2.722-1.235c-.273,3.292-1.074,4.481-2.7,4.481h-3.91l-.48-2.835h2.7c.526,0,.914-.113.937-1.738h-3.2c-1.761,3.223-5.327,4.367-8.436,4.688L5.277,55.8c3.2-.252,5.075-.983,5.99-1.761H7.746Zm1.508-11.2v.71H19.93v-.71Zm0,2.171v.754H19.93V44.8Zm3.429,6.882a6.9,6.9,0,0,0,.23-1.075l3.153.16c-.091.434-.114.549-.183.914h2.241a7.235,7.235,0,0,1-1.3-1.418h-4.48A15.318,15.318,0,0,1,10.9,51.684Zm4.481-10.767v-.709h-4.8v.709Z" transform="translate(-3.425 -36.733)" fill="#2a2a2a"/>
            <path id="パス_1997" data-name="パス 1997" d="M44.388,58.25a20.716,20.716,0,0,1-7.863-3.681v3.955H33.141V54.639a22.374,22.374,0,0,1-7.8,3.566L23.7,54.889a18.91,18.91,0,0,0,6.514-1.759h-6.15v-2.79h9.076v-.914h-6.7V44.351c-.434.388-.64.55-1.075.914L23.7,42.179a12.486,12.486,0,0,0,4.274-5.349l3.657.274c-.16.343-.343.754-.685,1.4h3.017a6.9,6.9,0,0,0,.526-1.67l3.544.161a10.14,10.14,0,0,1-.64,1.508h6.972v2.468H37v.914h6.7v1.555H37v.96h6.7v1.555H37v.961h8.024v2.514H36.5v.914h9.1v2.79H39.451a16.383,16.383,0,0,0,6.559,1.828ZM29.8,40.968v.914h4.068v-.914Zm0,2.469v.96h4.068v-.96Zm0,2.514v.961h4.068v-.961Z" transform="translate(-0.81 -36.739)" fill="#2a2a2a"/>
            <path id="パス_1998" data-name="パス 1998" d="M44.865,37.479h9.28V45.57H47.973V58.486H44.865ZM48,39.74v1.052h3.156V39.74Zm0,2.743v1.052h3.156V42.484Zm3.04,8.161V49.114h-1.92v-2.7h11.7v2.7H59.129v1.531h2.012v2.767H59.129v4.754H56.066V53.412H53.94a7.18,7.18,0,0,1-2.95,4.914l-2.377-2.24a4.6,4.6,0,0,0,2.148-2.675H48.728V50.645Zm5.03,0V49.114H54.123v1.531ZM55.7,37.479h9.373V56.2c0,.411,0,2.285-1.944,2.285h-2.9l-.73-3.268H61.37c.5,0,.548-.093.548-.48V45.57H55.7Zm3.132,2.261v1.052H61.9V39.74Zm0,2.743v1.052H61.9V42.484Z" transform="translate(1.92 -36.655)" fill="#2a2a2a"/>
            <path id="パス_1999" data-name="パス 1999" d="M80.037,37.092a40.74,40.74,0,0,1-2.355,6.789c1.783-.068,2.217-.09,4.138-.228a26.184,26.184,0,0,0-1.508-2.7l2.88-1.325a25.561,25.561,0,0,1,3.316,6.721L83.4,47.631c-.16-.572-.229-.8-.366-1.235-1.213.16-6.881.777-9.923.868l-.274-2.492a38.552,38.552,0,0,1-1.3,6.447,22.612,22.612,0,0,1,2.217,1.806L71.67,56.089c-.32-.366-.732-.8-1.622-1.669a16.336,16.336,0,0,1-3.635,4.253l-2.286-2.836a12.432,12.432,0,0,0,3.452-3.474,24.023,24.023,0,0,0-3.132-1.875,32.05,32.05,0,0,0,1.622-6.79H64.514V40.476h1.944c.159-2.081.2-2.857.228-3.566L69.955,37c-.091.844-.114,1.12-.388,3.474h3.566c-.046,1-.069,2.1-.228,3.612.32-.023.435-.023,1.508-.069a54.514,54.514,0,0,0,1.92-7.27ZM69.109,43.7a29.31,29.31,0,0,1-1.211,5.19c.366.207.571.3,1.143.64a19.5,19.5,0,0,0,1.235-5.83ZM85.363,58.6H82.026v-.914h-4.87V58.6H74V48.2H85.363Zm-8.208-7.521v3.451h4.87V51.083Z" transform="translate(4.405 -36.749)" fill="#2a2a2a"/>
          </g>
        </g>
        <g id="グループ_946" data-name="グループ 946" transform="translate(4.887 0.001)" style="isolation: isolate">
          <g id="グループ_945" data-name="グループ 945">
            <path id="パス_2000" data-name="パス 2000" d="M18.733,2.556a7.061,7.061,0,0,1,1.59,4.315H17.328a5.522,5.522,0,0,0-.858-2.238A3.819,3.819,0,0,0,13.158,3.12,4.583,4.583,0,0,0,9.122,5.467a13.508,13.508,0,0,0-1.665,6.719A6.568,6.568,0,0,1,10.079,9.9a7.559,7.559,0,0,1,3.23-.673,7.849,7.849,0,0,1,5.28,1.935,7.179,7.179,0,0,1,2.253,5.768,8.751,8.751,0,0,1-2.135,5.81,7.527,7.527,0,0,1-6.089,2.532A7.807,7.807,0,0,1,6.783,22.7q-2.456-2.566-2.454-8.636A23.256,23.256,0,0,1,5.421,6.45Q7.524.462,13.107.463,17.144.463,18.733,2.556Zm-2.27,18.416a6.209,6.209,0,0,0,1.185-3.792,6.5,6.5,0,0,0-1.059-3.525q-1.06-1.671-3.851-1.672a5.019,5.019,0,0,0-3.423,1.295,4.919,4.919,0,0,0-1.471,3.9,5.69,5.69,0,0,0,1.336,3.843,4.634,4.634,0,0,0,3.71,1.556A4.153,4.153,0,0,0,16.462,20.972Z" transform="translate(-4.329 0.059)" fill="#2a2a2a"/>
            <path id="パス_2001" data-name="パス 2001" d="M31.043,0H33.6L25.762,24.707H23.206Z" transform="translate(-1.894 -0.001)" fill="#2a2a2a"/>
            <path id="パス_2002" data-name="パス 2002" d="M35.59,10.549a4.763,4.763,0,0,1-1.33-3.5,6.291,6.291,0,0,1,1.95-4.627A7.507,7.507,0,0,1,41.737.492a7.661,7.661,0,0,1,5.425,1.826,5.647,5.647,0,0,1,1.966,4.263,5.574,5.574,0,0,1-1.143,3.649A6.845,6.845,0,0,1,46,11.777a7.7,7.7,0,0,1,2.364,1.582,6.071,6.071,0,0,1,1.6,4.373,7.461,7.461,0,0,1-2.137,5.389,8,8,0,0,1-6.038,2.212,9.325,9.325,0,0,1-5.944-1.908,6.621,6.621,0,0,1-2.431-5.541,6.488,6.488,0,0,1,1.042-3.693,6.511,6.511,0,0,1,3.095-2.379A5.987,5.987,0,0,1,35.59,10.549Zm9.762,10.89a4.124,4.124,0,0,0,1.388-3.388,4.392,4.392,0,0,0-1.429-3.55,5.476,5.476,0,0,0-3.666-1.211A5.078,5.078,0,0,0,38.1,14.528a4.369,4.369,0,0,0-1.371,3.422A4.668,4.668,0,0,0,37.986,21.2a5.015,5.015,0,0,0,3.877,1.371A5.328,5.328,0,0,0,45.352,21.439ZM44.791,9.53a3.639,3.639,0,0,0,1.124-2.671A3.53,3.53,0,0,0,44.842,4.38a4.325,4.325,0,0,0-3.273-1.129A3.964,3.964,0,0,0,38.412,4.38a3.934,3.934,0,0,0-.973,2.645A3.166,3.166,0,0,0,38.7,9.69a4.75,4.75,0,0,0,2.971.961A4.225,4.225,0,0,0,44.791,9.53Z" transform="translate(-0.577 0.062)" fill="#2a2a2a"/>
          </g>
        </g>
        <g id="グループ_948" data-name="グループ 948" transform="translate(177.467 41.581)">
          <g id="グループ_947" data-name="グループ 947">
            <path id="パス_2003" data-name="パス 2003" d="M161.512,53.833a17.048,17.048,0,0,1-2.9,1.213l-1.417-3.019a12.105,12.105,0,0,0,4.366-1.76h-4.023V47.8h6.742c.091-.137.161-.252.366-.616h-5.006V40.917h3.109v-.709h-5.211V37.694h5.211v-.823h3.384v.823h4.8v-.823h3.451v.823h4.779v2.514h-4.779v.709h2.7v6.264H168.21a5.133,5.133,0,0,1-.322.616H179.16v2.469h-4.229c1.141.916,1.942,1.325,4.663,2.036l-1.486,3.063a14.137,14.137,0,0,1-2.721-1.235c-.273,3.292-1.074,4.481-2.7,4.481h-3.91l-.479-2.835H171c.526,0,.916-.113.937-1.738h-3.2c-1.76,3.223-5.325,4.367-8.435,4.688L159.041,55.8c3.2-.252,5.076-.983,5.99-1.761h-3.52Zm1.508-11.2v.71H173.7v-.71Zm0,2.171v.754H173.7V44.8Zm3.429,6.882a6.778,6.778,0,0,0,.229-1.075l3.154.16c-.091.434-.114.549-.183.914h2.24a7.22,7.22,0,0,1-1.3-1.418h-4.481a15.2,15.2,0,0,1-1.439,1.418Zm4.481-10.767v-.709h-4.8v.709Z" transform="translate(-157.191 -36.825)" fill="#2a2a2a"/>
            <path id="パス_2004" data-name="パス 2004" d="M198.153,58.25a20.711,20.711,0,0,1-7.862-3.681v3.955h-3.384V54.639a22.37,22.37,0,0,1-7.8,3.566l-1.645-3.316a18.916,18.916,0,0,0,6.515-1.759H177.83v-2.79h9.077v-.914h-6.7V44.351c-.435.388-.64.55-1.075.914l-1.669-3.087a12.478,12.478,0,0,0,4.274-5.349l3.658.274c-.16.343-.343.754-.686,1.4h3.018a6.952,6.952,0,0,0,.526-1.67l3.544.161a10.142,10.142,0,0,1-.641,1.508h6.973v2.468h-7.361v.914h6.7v1.555h-6.7v.96h6.7v1.555h-6.7v.961h8.025v2.514h-8.527v.914h9.1v2.79h-6.15a16.386,16.386,0,0,0,6.561,1.828ZM183.569,40.968v.914h4.068v-.914Zm0,2.469v.96h4.068v-.96Zm0,2.514v.961h4.068v-.961Z" transform="translate(-154.576 -36.83)" fill="#2a2a2a"/>
            <path id="パス_2005" data-name="パス 2005" d="M200.656,50.5a32.642,32.642,0,0,1-.778,6.79l-2.24-1.441a22.361,22.361,0,0,0,.8-5.67Zm.548-1.28c-1.394.16-2.264.229-3.039.3l-.183-3.017c.3,0,.891-.024,1.3-.046.343-.434.733-.983,1.052-1.4a13.519,13.519,0,0,0-2.628-2.675l1.324-2.948c.252.2.3.251.55.456a18.7,18.7,0,0,0,1.348-3.063l2.812.594A21.646,21.646,0,0,1,201.41,41.7c.16.183.228.251.685.755,1.029-1.646,1.532-2.538,1.967-3.316l2.331.823V38.293h4.916V36.9h3.337v1.394h5.075v2.835H218.03a9.165,9.165,0,0,1-.413,1.738h1.876v5.327h-1.03v7c0,1.166-.183,1.92-1.852,1.92h-1.487l-.639-3.2h.754c.389,0,.389-.159.389-.434V50.249h-1.19V58.57h-2.856V50.249h-1.19v6.836h-2.765V48.192h-.435c.045.228.069.274.182.708l-2.4.823c-.045-.388-.068-.456-.137-.96l-.983.114V58.57H201.2Zm4.55-5.166a20.876,20.876,0,0,1,.8,2.08V42.866H208.5c-.091-.274-.434-1.487-.5-1.738h-1.6v-.435a54.818,54.818,0,0,1-4.253,5.692c.322-.024,1.806-.091,2.127-.114-.205-.664-.366-1.1-.526-1.509Zm.663,6.171a27.841,27.841,0,0,1,.595,5.214l-2.264.366a30.113,30.113,0,0,0-.366-5.281Zm5.167-2.787V45.7H209.57v1.738Zm-.343-6.31a15.055,15.055,0,0,1,.456,1.738h2.629a7.77,7.77,0,0,0,.457-1.738Zm3.2,6.31H216.5V45.7H214.44Z" transform="translate(-151.974 -36.83)" fill="#2a2a2a"/>
            <path id="パス_2006" data-name="パス 2006" d="M223.306,56a13.3,13.3,0,0,0,2.172-1.348,2.968,2.968,0,0,1-.846.138H222.07a2.009,2.009,0,0,1-2.034-2.286V46.49l-1.668.32-.091-3.429,1.759-.322V36.911h3.407V42.42l3.885-.708.161,3.405-4.046.755v5.1c0,.275,0,.413.411.413h.64c.388,0,.5-.413.64-3.224l2.652.595a19.086,19.086,0,0,1-.8,4.595c2.1-2.1,3.132-4.16,3.2-12.3H226.62V37.643h12.755c0,11.431,0,17.6-1.257,19.707a2.839,2.839,0,0,1-2.377,1.188H231.7l-.664-3.429h2.88c.663,0,1.006-.046,1.258-.868.732-2.309.709-11.338.685-13.191h-2.217c-.137,8.412-.892,13.442-7.865,17.786Z" transform="translate(-149.312 -36.82)" fill="#2a2a2a"/>
          </g>
        </g>
        <g id="グループ_950" data-name="グループ 950" transform="translate(178.455)" style="isolation: isolate">
          <g id="グループ_949" data-name="グループ 949">
            <path id="パス_2007" data-name="パス 2007" d="M174.817.909V3.55a27.994,27.994,0,0,0-3.087,3.919,39.7,39.7,0,0,0-3.405,6.021,40.985,40.985,0,0,0-2.221,5.734q-.488,1.665-1.261,5.365H161.5a41.2,41.2,0,0,1,5.045-13.722,43.443,43.443,0,0,1,4.843-6.914h-13.32V.909Z" transform="translate(-158.066 0.117)" fill="#2a2a2a"/>
            <path id="パス_2008" data-name="パス 2008" d="M184.81,0h2.557L179.53,24.706h-2.556Z" transform="translate(-155.627)" fill="#2a2a2a"/>
            <path id="パス_2009" data-name="パス 2009" d="M204.073.909V3.55a28,28,0,0,0-3.087,3.919,39.7,39.7,0,0,0-3.405,6.021,40.989,40.989,0,0,0-2.221,5.734q-.488,1.665-1.261,5.365h-3.346A41.2,41.2,0,0,1,195.8,10.867a43.442,43.442,0,0,1,4.843-6.914h-13.32V.909Z" transform="translate(-154.292 0.117)" fill="#2a2a2a"/>
          </g>
        </g>
        <g id="グループ_952" data-name="グループ 952" transform="translate(297.38 41.444)">
          <g id="グループ_951" data-name="グループ 951">
            <path id="パス_2010" data-name="パス 2010" d="M263.4,44.666h21.215v3.7H263.4Z" transform="translate(-263.404 -35.683)" fill="#2a2a2a"/>
            <path id="パス_2011" data-name="パス 2011" d="M289.365,49.648c-.115.456-1.67,5.738-3.568,8.435l-2.6-2.628a26.818,26.818,0,0,0,3.337-7.636ZM287.49,43.27a23.592,23.592,0,0,0-4-3.5l2.2-2.378a18.362,18.362,0,0,1,4.228,3.292Zm7.384,1.006h3.566v2.447a13.062,13.062,0,0,0,1.875,5.006,9.826,9.826,0,0,0,5.143,3.634l-1.829,3.291A11.827,11.827,0,0,1,296.954,52c-.457,1.3-1.646,4.549-7.544,6.745l-1.967-3.34c1.578-.366,7.43-1.713,7.43-8.434Zm1.349-7.042c-.183.664-.366,1.372-.823,2.629h9.509V43.11a22.31,22.31,0,0,1-2.583,6.194l-3.018-1.759a14.4,14.4,0,0,0,2.1-4.46h-7.452a16.6,16.6,0,0,1-3.52,4.756l-2.7-2.515c3.154-2.628,4.481-6.583,5.029-8.618Z" transform="translate(-260.851 -36.709)" fill="#2a2a2a"/>
            <path id="パス_2012" data-name="パス 2012" d="M308.714,43.412h-1.943l-.114-.319h-2.286V37.88h8.389V36.851h3.475V37.88h8.619v5.213h-3.361v-.138c-.777.091-1.28.113-1.805.159l1.92.367a12.76,12.76,0,0,1-.733,1.463h4.5v2.6h-5.214a17.647,17.647,0,0,0,5.671,2.334l-1.692,2.879c-.411-.183-.686-.3-1.234-.57v6.4h-3.338V58.02H309.491v.571h-3.246V52.212c-.548.252-.822.366-1.279.549l-1.6-2.994a15.607,15.607,0,0,0,5.531-2.218h-5.1v-2.6h4.526c-.045-.091-.457-.846-.685-1.28Zm12.779-1.853V40.347H307.685v.8c8.869.045,11.133.045,13.35-.366Zm-12,10.082v1.029h3.476V51.641Zm0,2.766V55.55h3.476V54.407Zm3.476-4.847V47.548h-.388a18.987,18.987,0,0,1-2.1,2.012Zm0-4.616V43.389l-2.058.023c.115.228.571,1.325.663,1.532Zm3.108,0h1.441a7.848,7.848,0,0,0,.823-1.715c-.618.023-1.555.09-2.264.115Zm0,2.6V49.56h2.7a18.843,18.843,0,0,1-2.148-2.012Zm0,4.093v1.029h3.5V51.641Zm0,2.766V55.55h3.5V54.407Z" transform="translate(-258.249 -36.691)" fill="#2a2a2a"/>
            <path id="パス_2013" data-name="パス 2013" d="M327.1,46.744a17.787,17.787,0,0,1-2.012.961L323.6,44.389a17.351,17.351,0,0,0,5.853-2.994h-5.19V38.377H333.2V36.891h3.338v1.486h8.847v3.018H340.31a14.919,14.919,0,0,0,5.784,2.949L344.539,47.7a19.478,19.478,0,0,1-2.036-1.052v8.093h3.041V57.83H324.034V54.745H327.1Zm3.292.32v1.076h8.869V47.063Zm0,3.316v1.1h8.869v-1.1Zm0,3.292v1.074h8.869V53.671Zm2.811-9.305V41.738a17.4,17.4,0,0,1-2.606,2.628Zm6.012,0a15.189,15.189,0,0,1-2.673-2.651v2.651Z" transform="translate(-255.639 -36.686)" fill="#2a2a2a"/>
          </g>
        </g>
        <g id="グループ_954" data-name="グループ 954" transform="translate(297.819 1.027)">
          <g id="グループ_953" data-name="グループ 953">
            <path id="パス_2014" data-name="パス 2014" d="M280.544.91V3.55a28.165,28.165,0,0,0-3.086,3.919,39.623,39.623,0,0,0-3.406,6.022,41.264,41.264,0,0,0-2.221,5.734q-.488,1.665-1.261,5.365h-3.346a41.2,41.2,0,0,1,5.045-13.723,43.569,43.569,0,0,1,4.843-6.914h-13.32V.91Z" transform="translate(-263.793 -0.91)" fill="#2a2a2a"/>
            <path id="パス_2015" data-name="パス 2015" d="M295.473,18.951h-9.261a10.984,10.984,0,0,1-2.787,6.475l-1.863-1.53c2-2.512,2.609-4.336,2.609-7.966V7.807h13.442V23.465a1.853,1.853,0,0,1-1.865,1.961H292l-.314-2.157h3.3c.156,0,.49-.1.49-.648ZM286.31,12.28h9.163V9.73H286.31Zm0,4.749h9.163V14.164H286.31Z" transform="translate(-261.501 -0.02)" fill="#2a2a2a"/>
            <path id="パス_2016" data-name="パス 2016" d="M308.953,7.129V10.5h7.457V20.687h-2.081v-1.1h-5.376v5.946h-2.06V19.587h-5.239v1.1h-2.04V10.5h7.279V7.129Zm-7.3,5.416v5h5.239v-5Zm7.3,0v5h5.376v-5Z" transform="translate(-259.172 -0.108)" fill="#2a2a2a"/>
            <path id="パス_2017" data-name="パス 2017" d="M319.279,13.984a12.9,12.9,0,0,1-1.863,1.884L316.1,14.181a15.357,15.357,0,0,0,4.592-7.122l2.237.156a17.624,17.624,0,0,1-.686,2.022H334c0,.117-.02.393-.02.569-.078,6.926-.078,7.692-.216,9.654-.393,5.337-.843,6.083-3.748,6.083h-2.707l-.55-2.041h2.767a1.879,1.879,0,0,0,1.569-.569c.726-1.021.765-6.18.824-11.753H321.222a19.565,19.565,0,0,1-1.2,1.844h8.987V22.56h-7.79v1.275h-1.943Zm1.943.885v2.1h5.828v-2.1Zm0,3.746v2.119h5.828V18.615Z" transform="translate(-257.046 -0.117)" fill="#2a2a2a"/>
          </g>
        </g>
        <g id="グループ_956" data-name="グループ 956" transform="translate(381.338 9.384)">
          <g id="グループ_955" data-name="グループ 955">
            <path id="パス_2018" data-name="パス 2018" d="M342.14,9.244a11.8,11.8,0,0,0-2.728,7.354,11.278,11.278,0,0,0,2.728,7.353h-1.516a11.348,11.348,0,0,1-2.855-7.353c0-2.137.606-4.435,2.855-7.354Z" transform="translate(-337.769 -8.192)" fill="#2a2a2a"/>
            <path id="パス_2019" data-name="パス 2019" d="M349.723,10.454H345.7V8.891h12.441v1.627a21.138,21.138,0,0,1-4.529,2.362c.192.143.43.335.669.542l-.8.654h5.871v1.6a20.967,20.967,0,0,1-3.828,4.02l-1.26-1.307a14.057,14.057,0,0,0,2.855-2.713h-4.243v6.142c0,1.388-1.452,1.483-1.691,1.483h-3.016l-.318-1.723h2.792c.383,0,.51-.143.51-.575V15.671h-6.636v-1.6h7.784a23.719,23.719,0,0,0-3.765-2.345Zm.016,0a25.322,25.322,0,0,1,2.425,1.406,10.243,10.243,0,0,0,2.9-1.406Z" transform="translate(-336.898 -8.237)" fill="#2a2a2a"/>
            <path id="パス_2020" data-name="パス 2020" d="M363.165,15.618a14.056,14.056,0,0,1-.669,3.014,5.459,5.459,0,0,0,2.855,2.234v-6.4H360.39V13.416h-1.308V9.731h6.206V8.312h1.754V9.731H373.3v3.685h-1.356V14.47h-4.945v2.312h4.945v1.579h-4.945v2.9a10.371,10.371,0,0,0,1.068.064h5.743l-.335,1.611h-6.109a6.705,6.705,0,0,1-5.488-2.824,8.637,8.637,0,0,1-2.3,3.158l-1.021-1.515a9.887,9.887,0,0,0,2.935-6.4Zm8.488-2.743V11.312H360.725v1.563Z" transform="translate(-335.088 -8.312)" fill="#2a2a2a"/>
            <path id="パス_2021" data-name="パス 2021" d="M376.351,9.244c2.234,2.92,2.855,5.217,2.855,7.354a11.436,11.436,0,0,1-2.855,7.353H374.82a11.278,11.278,0,0,0,2.728-7.353,11.8,11.8,0,0,0-2.728-7.354Z" transform="translate(-332.99 -8.192)" fill="#2a2a2a"/>
          </g>
        </g>
        <g id="グループ_958" data-name="グループ 958" transform="translate(552.19 41.733)">
          <g id="グループ_957" data-name="グループ 957">
            <path id="パス_2022" data-name="パス 2022" d="M492.827,51.666a4.35,4.35,0,0,0,.371,1.916,2.548,2.548,0,0,0,2.51,1.4,2.776,2.776,0,0,0,1.944-.765,2.851,2.851,0,0,0,.831-2.2,2.484,2.484,0,0,0-1.54-2.542,7.813,7.813,0,0,0-2.759-.36V46.4a7.125,7.125,0,0,0,2.573-.359,2.22,2.22,0,0,0,1.259-2.261,2.528,2.528,0,0,0-.642-1.8,2.354,2.354,0,0,0-1.812-.692,2.291,2.291,0,0,0-1.97.851,3.615,3.615,0,0,0-.605,2.275h-3.538a9.469,9.469,0,0,1,.491-2.728A6.128,6.128,0,0,1,491.4,39.6a5.048,5.048,0,0,1,1.768-1.038,7.614,7.614,0,0,1,2.512-.36,6.679,6.679,0,0,1,4.459,1.43,4.766,4.766,0,0,1,1.695,3.839,4.249,4.249,0,0,1-1.01,2.874,3.462,3.462,0,0,1-1.331,1,2.737,2.737,0,0,1,1.49.891,4.763,4.763,0,0,1,1.452,3.674,6.186,6.186,0,0,1-1.7,4.3,6.46,6.46,0,0,1-5.019,1.857q-4.093,0-5.689-2.675a7.949,7.949,0,0,1-.93-3.727Z" transform="translate(-489.101 -36.806)" fill="#2a2a2a"/>
            <path id="パス_2023" data-name="パス 2023" d="M518.437,45.118h7.156v3.338h-7.247c-.16,3.361-1.28,7.7-10.286,9.418l-1.532-3.224c1.1-.158,4.8-.708,6.766-2.628a4.814,4.814,0,0,0,1.441-3.565h-8.779V45.118h8.825V42.763a58.58,58.58,0,0,1-7.292.344l-.686-3.246a50.67,50.67,0,0,0,15.408-1.944l1.852,3.337a53.9,53.9,0,0,1-5.625,1.074Z" transform="translate(-486.927 -36.842)" fill="#2a2a2a"/>
            <path id="パス_2024" data-name="パス 2024" d="M546.15,44.983V48.8H525.987V44.983Z" transform="translate(-484.343 -35.931)" fill="#2a2a2a"/>
            <path id="パス_2025" data-name="パス 2025" d="M561.02,45.852A42.13,42.13,0,0,1,566.691,56.3l-3.682,1.6c-.319-.868-.48-1.3-.732-1.92-3.862.526-13.922,1.029-15.522,1.12l-.434-3.795c.366,0,1.76,0,2.24-.024,3.178-10.286,3.292-10.675,4.229-15.385l4.024.388c-3.063,10.311-3.406,11.454-4.686,14.951,2.241-.023,2.9-.045,8.824-.3a33.446,33.446,0,0,0-3.132-5.6Z" transform="translate(-481.72 -36.845)" fill="#2a2a2a"/>
            <path id="パス_2026" data-name="パス 2026" d="M565.685,48.579c.549-.115.8-.161,2.537-.64V44.005h-2.354V40.76h2.354V37.125h3.27V40.76h1.623v3.246h-1.623v2.95c.663-.205.983-.321,1.441-.5L573,49.7a16.179,16.179,0,0,1-1.508.618v6.79a1.631,1.631,0,0,1-1.737,1.713h-3.339l-.547-3.543h1.9c.411,0,.456-.137.456-.525V51.436c-1.325.41-1.691.5-2.171.616Zm5.989,6.514a18.954,18.954,0,0,0,5.784-4.869h-4.115V47.069h5.03v-1.28h3.246v1.28H587.4v3.154h-4.778a15.989,15.989,0,0,0,4.983,4.664l-1.691,3.246a20.268,20.268,0,0,1-4.274-5.029v5.714H578.4V53.264a19.989,19.989,0,0,1-4.846,4.869Zm10.562-9.922a20.631,20.631,0,0,0,1.9-4.8,87.089,87.089,0,0,1-10.356.686l-.64-2.973c1.166-.021,8.847-.137,12.481-1.12l1.463,2.881a18.338,18.338,0,0,1-2.766.5l3.064,1.007a17.656,17.656,0,0,1-2.217,4.96Zm-6.241-3.633a21.441,21.441,0,0,1,1.555,3.885l-3,.916a14.608,14.608,0,0,0-1.371-3.863Zm4.709-.389a16.225,16.225,0,0,1,1.12,3.612l-2.971.526a18.187,18.187,0,0,0-1.1-3.658Z" transform="translate(-479.223 -36.965)" fill="#2a2a2a"/>
            <path id="パス_2027" data-name="パス 2027" d="M594.265,49.683c-.526.205-.8.32-2.148.777v6.286c0,1.464-.914,2.012-2.195,2.012h-3.086l-.572-3.5h1.784c.777,0,.8,0,.8-.686V51.466c-1.325.388-1.829.5-2.537.663l-.412-3.475c.755-.137,1.6-.3,2.949-.663V44.014h-2.72V40.768h2.72V37.087h3.27v3.681h2.034v3.247h-2.034v3.108c1.211-.343,1.509-.458,2.08-.641Zm12.984-1.189h-3.565a10.947,10.947,0,0,0,4.481,7.018l-2.036,3.429a15.877,15.877,0,0,1-5.806-10.447h-2.034c-.388,6.859-2.493,9.3-3.36,10.309l-2.562-2.787c1.167-1.578,2.629-3.613,2.629-9.1V37.7h12.253Zm-3.361-7.544H598.38v4.411h5.508Z" transform="translate(-476.615 -36.949)" fill="#2a2a2a"/>
            <path id="パス_2028" data-name="パス 2028" d="M610.359,46.315c-1.487.823-2.172,1.12-2.9,1.463L605.97,44.44a18.1,18.1,0,0,0,2.9-1.1,15.174,15.174,0,0,0-2.08-1.805l1.646-1.6V37.629H618.68a13.18,13.18,0,0,0,1.349,1.691,20.677,20.677,0,0,0,2.286-2.355l2.492,1.418a33.883,33.883,0,0,1-2.72,2.811,6.457,6.457,0,0,0,.958.64,23.281,23.281,0,0,0,2.7-2.925l2.492,1.508a24.723,24.723,0,0,1-2.607,2.789c1.3.618,2.127.961,2.79,1.211L627,47.687a19.953,19.953,0,0,1-2.926-1.348v1.027h-2.423V49.1h5.92v3.04h-5.92v2.492c0,.595.183.733.663.733h1.577c.6,0,.869-.069.937-2.492l3.315.57c-.183,2.949-.388,5.052-2.515,5.052h-5.6a1.777,1.777,0,0,1-1.852-1.76V52.144h-2.561c-.594,2.857-2.172,5.3-7.545,6.743l-1.736-3.336c2.789-.412,5.075-1.6,5.715-3.407h-5.144V49.1h5.6V47.366h-2.148Zm-.526-6.036c.64.5,1.235.982,1.806,1.509a16.686,16.686,0,0,0,1.942-1.509Zm11.178,4.07a22.358,22.358,0,0,1-3.794-3.544,18.819,18.819,0,0,1-3.772,3.544Zm-5.143,3.017V49.1h2.309V47.366Z" transform="translate(-474.026 -36.965)" fill="#2a2a2a"/>
            <path id="パス_2029" data-name="パス 2029" d="M646.527,58.9c-4.688-2.309-7.568-5.007-9.373-10.036a12.445,12.445,0,0,1-2.1,2.1V54.76a34.4,34.4,0,0,0,4.688-.868L639.829,57c-1.532.321-4.3.868-11.065,1.738l-.571-3.223c.914-.045,1.646-.091,3.52-.321V52.977a35.73,35.73,0,0,1-4.366,1.761L626.2,51.4c4.435-1.051,6.424-2.537,6.858-2.88H626.57V45.8h9.166V44.748h-7.5V42.28h7.5v-.937h-8.618V38.6h8.618V37.066h3.475V38.6h8.572v2.743h-8.572v.937h7.43v2.468h-7.43V45.8h9.166V48.52H645.2l2.423,1.806a30.833,30.833,0,0,1-3.589,2.994,15.069,15.069,0,0,0,4.5,2.492Zm-6.2-10.379a10.719,10.719,0,0,0,1.508,2.583,23.525,23.525,0,0,0,2.836-2.583Z" transform="translate(-471.416 -36.952)" fill="#2a2a2a"/>
          </g>
        </g>
        <g id="グループ_963" data-name="グループ 963" transform="translate(558.257 1.06)">
          <g id="グループ_960" data-name="グループ 960" style="isolation: isolate">
            <g id="グループ_959" data-name="グループ 959">
              <path id="パス_2030" data-name="パス 2030" d="M494.475,7.958V5.638A12.338,12.338,0,0,0,499.05,4.57q1.294-.749,1.934-3.541h2.388V25.011h-3.229V7.958Z" transform="translate(-494.475 -0.927)" fill="#2a2a2a"/>
              <path id="パス_2031" data-name="パス 2031" d="M524.172,4.792a17.218,17.218,0,0,1,1.615,8.156,19.641,19.641,0,0,1-1.463,8.123,7.163,7.163,0,0,1-6.929,4.609,6.939,6.939,0,0,1-6.458-3.767,17.251,17.251,0,0,1-1.767-8.444,20.878,20.878,0,0,1,1.06-7.046Q512.215.941,517.412.939A7.115,7.115,0,0,1,524.172,4.792Zm-3.046,16.044q1.4-2.086,1.4-7.771a19.175,19.175,0,0,0-1.01-6.752,3.846,3.846,0,0,0-3.926-2.647,4.1,4.1,0,0,0-3.915,2.513,17.321,17.321,0,0,0-1.239,7.41,18.149,18.149,0,0,0,.791,5.918q1.213,3.414,4.143,3.415A4.319,4.319,0,0,0,521.126,20.836Z" transform="translate(-492.579 -0.939)" fill="#2a2a2a"/>
              <path id="パス_2032" data-name="パス 2032" d="M541.625,19.338h-9.262a10.991,10.991,0,0,1-2.786,6.476l-1.864-1.531c2-2.511,2.61-4.336,2.61-7.966V8.193h13.441V23.852a1.853,1.853,0,0,1-1.864,1.962h-3.748l-.314-2.159h3.3c.157,0,.491-.1.491-.648Zm-9.164-6.671h9.164V10.116h-9.164Zm0,4.749h9.164V14.55h-9.164Z" transform="translate(-490.188 -0.003)" fill="#2a2a2a"/>
              <path id="パス_2033" data-name="パス 2033" d="M554.895,7.533v5.926h7.359v2.1h-7.359v7.652h8.614v2.059H544.947V23.211h7.79V7.533Z" transform="translate(-487.965 -0.088)" fill="#2a2a2a"/>
              <path id="パス_2034" data-name="パス 2034" d="M565.43,14.373a12.941,12.941,0,0,1-1.864,1.883l-1.315-1.687a15.383,15.383,0,0,0,4.593-7.123l2.235.157a17.721,17.721,0,0,1-.685,2.02h11.753c0,.119-.02.393-.02.57-.078,6.926-.078,7.691-.216,9.654-.393,5.337-.843,6.082-3.747,6.082h-2.708l-.549-2.04h2.766a1.882,1.882,0,0,0,1.57-.569c.725-1.019.764-6.181.823-11.754H567.373a19.587,19.587,0,0,1-1.2,1.845h8.987v9.537h-7.789v1.276H565.43Zm1.943.882v2.1H573.2v-2.1Zm0,3.749v2.119H573.2V19Z" transform="translate(-485.733 -0.1)" fill="#2a2a2a"/>
            </g>
          </g>
          <g id="グループ_962" data-name="グループ 962" transform="translate(104.15 8.324)" style="isolation: isolate">
            <g id="グループ_961" data-name="グループ 961">
              <path id="パス_2035" data-name="パス 2035" d="M591.1,9.244A11.8,11.8,0,0,0,588.37,16.6a11.278,11.278,0,0,0,2.728,7.353h-1.516a11.348,11.348,0,0,1-2.855-7.353c0-2.137.606-4.435,2.855-7.354Z" transform="translate(-586.726 -8.192)" fill="#2a2a2a"/>
              <path id="パス_2036" data-name="パス 2036" d="M598.68,10.454h-4.019V8.891H607.1v1.627a21.138,21.138,0,0,1-4.529,2.362c.192.143.43.335.669.542l-.8.654h5.871v1.6a21.037,21.037,0,0,1-3.828,4.02l-1.261-1.307a14.057,14.057,0,0,0,2.855-2.713h-4.243v6.142c0,1.388-1.452,1.483-1.691,1.483h-3.015l-.318-1.723h2.792c.383,0,.51-.143.51-.575V15.671H593.48v-1.6h7.784A23.717,23.717,0,0,0,597.5,11.73Zm.016,0a25.321,25.321,0,0,1,2.425,1.406,10.243,10.243,0,0,0,2.9-1.406Z" transform="translate(-585.855 -8.237)" fill="#2a2a2a"/>
              <path id="パス_2037" data-name="パス 2037" d="M612.122,15.618a14.052,14.052,0,0,1-.669,3.014,5.459,5.459,0,0,0,2.855,2.234v-6.4h-4.961V13.416h-1.309V9.731h6.206V8.312H616V9.731h6.253v3.685H620.9V14.47h-4.945v2.312H620.9v1.579h-4.945v2.9a10.372,10.372,0,0,0,1.068.064h5.743l-.335,1.611h-6.109a6.705,6.705,0,0,1-5.488-2.824,8.638,8.638,0,0,1-2.3,3.158l-1.021-1.515a9.887,9.887,0,0,0,2.935-6.4Zm8.488-2.743V11.312H609.682v1.563Z" transform="translate(-584.045 -8.312)" fill="#2a2a2a"/>
              <path id="パス_2038" data-name="パス 2038" d="M625.308,9.244c2.234,2.92,2.856,5.217,2.856,7.354a11.439,11.439,0,0,1-2.856,7.353h-1.531A11.278,11.278,0,0,0,626.5,16.6a11.8,11.8,0,0,0-2.728-7.354Z" transform="translate(-581.947 -8.192)" fill="#2a2a2a"/>
            </g>
          </g>
        </g>
        <g id="グループ_965" data-name="グループ 965" transform="translate(878.712 41.329)">
          <g id="グループ_964" data-name="グループ 964">
            <path id="パス_2039" data-name="パス 2039" d="M786.914,56.5a2.921,2.921,0,0,1-.685.068h-2.172l-.6-3.544h1.555c.343,0,.6,0,.778-.732a31.858,31.858,0,0,0,.252-4.114h-2.493v1.3a20.559,20.559,0,0,1-2.263,9.281l-2.973-2.766a13.03,13.03,0,0,0,1.829-6.79V39.991h9.99c-.024-.5-.115-2.7-.138-3.153h3.5c0,.639,0,1.141.045,3.153h2.721a14.422,14.422,0,0,0-2.08-1.966l2.606-1.418a16,16,0,0,1,2.857,2.676l-1.211.708h1.828v3.293H793.7a43.629,43.629,0,0,0,.663,5.462,22.507,22.507,0,0,0,1.555-4.754l3.292,1.166a26.236,26.236,0,0,1-3.544,7.817c.343.779.822,1.646,1.3,1.646.846,0,1.349-1.714,1.783-3.222l2.013,2.79c-1.235,4.091-2.492,4.479-3.635,4.479-1.67,0-2.857-1.279-3.863-2.88a17.432,17.432,0,0,1-4.458,3Zm2.537-11.408c0,1.144,0,7.316-.64,9.625a14.767,14.767,0,0,0,3.04-2.378,35.833,35.833,0,0,1-1.577-9.052h-6.721v1.805Z" transform="translate(-778.318 -36.607)" fill="#2a2a2a"/>
            <path id="パス_2040" data-name="パス 2040" d="M819.057,58.246a20.84,20.84,0,0,1-7.59-5.349v5.577h-3.314v-5.6a23.348,23.348,0,0,1-7.659,5.328l-1.76-3.429a18.315,18.315,0,0,0,6.515-3.178h-6.195V48.486h9.1V47.479h-7.476V37.4h18.38V47.479h-7.59v1.007h9.167v3.108h-6.31a16.593,16.593,0,0,0,6.607,3.247Zm-15.11-18.082v1.188h4.207V40.164Zm0,3.429v1.281h4.207V43.593Zm7.52-3.429v1.188h4.3V40.164Zm0,3.429v1.281h4.3V43.593Z" transform="translate(-775.685 -36.505)" fill="#2a2a2a"/>
            <path id="パス_2041" data-name="パス 2041" d="M823.255,46.12c-1.486.822-2.172,1.12-2.9,1.463l-1.486-3.338a18.253,18.253,0,0,0,2.9-1.1,15.278,15.278,0,0,0-2.081-1.806l1.646-1.6V37.433h10.241a13.126,13.126,0,0,0,1.35,1.691,20.769,20.769,0,0,0,2.285-2.354l2.492,1.417A33.761,33.761,0,0,1,834.983,41a6.639,6.639,0,0,0,.96.64,23.3,23.3,0,0,0,2.7-2.926l2.492,1.509a24.78,24.78,0,0,1-2.606,2.789c1.3.618,2.126.96,2.789,1.211l-1.417,3.27a20.166,20.166,0,0,1-2.926-1.349V47.17h-2.423v1.738h5.92v3.041h-5.92v2.492c0,.594.183.732.663.732h1.578c.594,0,.868-.068.937-2.492l3.314.571c-.183,2.948-.388,5.052-2.514,5.052h-5.6a1.777,1.777,0,0,1-1.853-1.76V51.949h-2.559c-.595,2.857-2.172,5.3-7.545,6.743l-1.736-3.337c2.789-.412,5.075-1.6,5.714-3.406H819.8V48.908h5.6V47.17h-2.15Zm-.526-6.036c.641.5,1.235.982,1.806,1.509a16.714,16.714,0,0,0,1.943-1.509Zm11.179,4.07a22.362,22.362,0,0,1-3.795-3.544,18.85,18.85,0,0,1-3.772,3.544Zm-5.144,3.016v1.738h2.309V47.17Z" transform="translate(-773.088 -36.586)" fill="#2a2a2a"/>
            <path id="パス_2042" data-name="パス 2042" d="M859.423,58.7c-4.686-2.309-7.567-5.008-9.373-10.037a12.332,12.332,0,0,1-2.1,2.1v3.795a34.137,34.137,0,0,0,4.686-.869l.091,3.109c-1.531.322-4.3.869-11.064,1.738l-.571-3.222c.913-.045,1.646-.091,3.52-.321V52.782a35.59,35.59,0,0,1-4.366,1.76L839.1,51.2c4.436-1.05,6.423-2.537,6.858-2.879h-6.492V45.6h9.166v-1.05h-7.5V42.084h7.5v-.937h-8.616V38.4h8.616V36.871h3.476V38.4h8.571v2.742h-8.571v.937h7.43v2.469h-7.43V45.6h9.166v2.722H858.1l2.424,1.805a30.842,30.842,0,0,1-3.589,3,15.054,15.054,0,0,0,4.5,2.492Zm-6.195-10.379a10.737,10.737,0,0,0,1.508,2.583,23.627,23.627,0,0,0,2.835-2.583Z" transform="translate(-770.478 -36.573)" fill="#2a2a2a"/>
            <path id="パス_2043" data-name="パス 2043" d="M864.547,44.5a18.387,18.387,0,0,1-3.476,1.761l-1.737-3.474c5.58-2.2,7.956-4.115,9.305-6.013h4.069c.983,1.166,3.316,3.749,9.19,5.967l-1.783,3.451a25.8,25.8,0,0,1-3.406-1.76v1.394H864.547ZM877.69,58.807c-.228-.435-.48-.914-.913-1.6-3.887.548-11.66.869-15.774.982l-.549-3.543c.114.024,3.017.024,3.338.024a29.266,29.266,0,0,0,1.6-3.956h-5.1V47.422h20.621v3.292h-4.733a38.564,38.564,0,0,1,4.8,6.379Zm-3.475-16.047a23.6,23.6,0,0,1-3.565-3.222,17.322,17.322,0,0,1-3.52,3.222Zm1.418,7.955h-6.424c-.823,1.92-1.1,2.515-1.805,3.956,2.7-.024,5.166-.024,7.451-.252-.96-1.28-1.462-1.875-1.92-2.423Z" transform="translate(-767.868 -36.586)" fill="#2a2a2a"/>
          </g>
        </g>
        <g id="グループ_967" data-name="グループ 967" transform="translate(813.668 7.623)" style="isolation: isolate">
          <g id="グループ_966" data-name="グループ 966">
            <path id="パス_2044" data-name="パス 2044" d="M724.546,11.428a19.565,19.565,0,0,1-3.09,1.67l-.751-1.577a14.2,14.2,0,0,0,6.65-4.712h1.811a14.341,14.341,0,0,0,6.649,4.823l-.843,1.56a14.909,14.909,0,0,1-3.152-1.7v1.233h-7.273Zm-3.09,2.793h12.907v4.995c0,1.264-.953,1.264-1.5,1.264H729.68l-.327-1.577h2.966c.327,0,.405-.156.405-.421V15.751H727.4v5.743h-1.654V15.751h-4.291Zm10-3A16.923,16.923,0,0,1,728.151,8.1a13.635,13.635,0,0,1-3.324,3.122Z" transform="translate(-720.705 -6.745)" fill="#2a2a2a"/>
            <path id="パス_2045" data-name="パス 2045" d="M737.569,8.966c-1.279.125-1.873.156-2.544.172l-.359-1.467a30.869,30.869,0,0,0,6.118-.78l.561,1.482a21.79,21.79,0,0,1-2.184.405v2.186h2.356v1.468h-2.31a10.737,10.737,0,0,0,2.418,2.933l-.764,1.576a10.319,10.319,0,0,1-1.7-2.34v6.868h-1.593V14.976a15.3,15.3,0,0,1-2.544,3.668l-.624-1.952a13.409,13.409,0,0,0,2.918-4.26h-2.685V10.964h2.934Zm11.3-1.015v13.1h-1.608V20.032h-3.715v1.015h-1.575V7.951Zm-5.323,1.515v9h3.715v-9Z" transform="translate(-718.938 -6.734)" fill="#2a2a2a"/>
            <path id="パス_2046" data-name="パス 2046" d="M757.959,9.242a3.445,3.445,0,0,1,.772,2.1h-1.457a2.7,2.7,0,0,0-.417-1.089,1.86,1.86,0,0,0-1.614-.736,2.232,2.232,0,0,0-1.964,1.143,6.579,6.579,0,0,0-.812,3.272,3.209,3.209,0,0,1,1.278-1.114,3.692,3.692,0,0,1,1.573-.327,3.822,3.822,0,0,1,2.571.942,3.5,3.5,0,0,1,1.1,2.809,4.258,4.258,0,0,1-1.041,2.829,3.658,3.658,0,0,1-2.964,1.233,3.8,3.8,0,0,1-2.843-1.25q-1.2-1.248-1.194-4.2a11.331,11.331,0,0,1,.532-3.71,3.779,3.779,0,0,1,3.743-2.915A3.239,3.239,0,0,1,757.959,9.242Zm-1.106,8.966a3.018,3.018,0,0,0,.577-1.846,3.163,3.163,0,0,0-.515-1.716,2.046,2.046,0,0,0-1.875-.815,2.447,2.447,0,0,0-1.668.631,2.4,2.4,0,0,0-.717,1.9,2.768,2.768,0,0,0,.653,1.871,2.252,2.252,0,0,0,1.8.759A2.023,2.023,0,0,0,756.853,18.209Z" transform="translate(-716.804 -6.562)" fill="#2a2a2a"/>
            <path id="パス_2047" data-name="パス 2047" d="M764.828,9.936a11.709,11.709,0,0,1-2.839,3.2l-1.109-1.389a9.331,9.331,0,0,0,3.466-4.995l1.778.438a11.132,11.132,0,0,1-.453,1.17h9.443V9.936h-5.025v2.124h4.525v1.53h-4.525v2.825h5.635V17.99h-5.635V21.5H768.45V17.99h-7.383V16.414h2.326V12.059h5.057V9.936Zm.235,3.653v2.825h3.387V13.589Z" transform="translate(-715.523 -6.752)" fill="#2a2a2a"/>
          </g>
        </g>
        <g id="グループ_969" data-name="グループ 969" transform="translate(879.4 0.588)" style="isolation: isolate">
          <g id="グループ_968" data-name="グループ 968">
            <path id="パス_2048" data-name="パス 2048" d="M780.853,22.949a8.711,8.711,0,0,1-1.926-5.71h3.162a7.858,7.858,0,0,0,.874,3.4q1.179,1.9,4.256,1.9a5.571,5.571,0,0,0,3.834-1.278,4.2,4.2,0,0,0,1.446-3.3,3.84,3.84,0,0,0-1.522-3.481,7.7,7.7,0,0,0-4.229-.992c-.2,0-.406,0-.614.009s-.418.014-.631.025V10.848c.314.034.577.058.791.069s.441.015.689.015a6.32,6.32,0,0,0,2.792-.537,3.419,3.419,0,0,0,1.917-3.363,3.287,3.287,0,0,0-1.278-2.776,4.777,4.777,0,0,0-2.977-.974q-3.028,0-4.187,2.018a6.984,6.984,0,0,0-.723,3.162h-2.994a9.093,9.093,0,0,1,1.076-4.575Q782.458.524,787.118.521a8.817,8.817,0,0,1,5.7,1.642,5.763,5.763,0,0,1,2.019,4.751,5.3,5.3,0,0,1-1.195,3.6,5.045,5.045,0,0,1-1.917,1.347,5.22,5.22,0,0,1,2.968,2.008,6.079,6.079,0,0,1,1.068,3.641,7.423,7.423,0,0,1-2.27,5.618,8.955,8.955,0,0,1-6.442,2.17Q782.779,25.3,780.853,22.949Z" transform="translate(-778.927 -0.521)" fill="#2a2a2a"/>
            <path id="パス_2049" data-name="パス 2049" d="M811,18.951h-9.261a10.99,10.99,0,0,1-2.787,6.474l-1.864-1.53c2-2.512,2.61-4.335,2.61-7.966V7.806h13.441V23.464a1.851,1.851,0,0,1-1.864,1.961h-3.747l-.315-2.157h3.3c.157,0,.491-.1.491-.647Zm-9.164-6.672H811V9.729h-9.164Zm0,4.75H811V14.163h-9.164Z" transform="translate(-776.585 0.419)" fill="#2a2a2a"/>
            <path id="パス_2050" data-name="パス 2050" d="M824.266,7.146v5.926h7.359v2.1h-7.359v7.651h8.614v2.06H814.318v-2.06h7.79V7.146Z" transform="translate(-774.362 0.334)" fill="#2a2a2a"/>
            <path id="パス_2051" data-name="パス 2051" d="M834.8,13.984a12.938,12.938,0,0,1-1.863,1.883l-1.316-1.687a15.357,15.357,0,0,0,4.593-7.122l2.235.156a17.5,17.5,0,0,1-.685,2.021h11.753c0,.119-.02.393-.02.57-.078,6.926-.078,7.692-.216,9.654-.393,5.337-.843,6.082-3.747,6.082h-2.708l-.549-2.04h2.766a1.882,1.882,0,0,0,1.57-.569c.725-1.021.765-6.18.823-11.754H836.744a19.767,19.767,0,0,1-1.2,1.845h8.987V22.56h-7.789v1.275H834.8Zm1.943.884v2.1h5.828v-2.1Zm0,3.747v2.119h5.828V18.615Z" transform="translate(-772.13 0.322)" fill="#2a2a2a"/>
          </g>
        </g>
        <g id="グループ_971" data-name="グループ 971" transform="translate(962.333 9.383)">
          <g id="グループ_970" data-name="グループ 970">
            <path id="パス_2052" data-name="パス 2052" d="M856.756,9.244a11.794,11.794,0,0,0-2.728,7.354,11.278,11.278,0,0,0,2.728,7.353H855.24a11.352,11.352,0,0,1-2.855-7.353c0-2.138.606-4.435,2.855-7.354Z" transform="translate(-852.385 -8.191)" fill="#2a2a2a"/>
            <path id="パス_2053" data-name="パス 2053" d="M864.34,10.454h-4.02V8.891h12.442v1.627a21.044,21.044,0,0,1-4.53,2.361c.192.145.431.335.671.542l-.8.654h5.871v1.6a21.032,21.032,0,0,1-3.828,4.019l-1.261-1.307a14.083,14.083,0,0,0,2.855-2.712H867.5v6.142c0,1.386-1.452,1.482-1.691,1.482h-3.015l-.318-1.723h2.792c.383,0,.51-.143.51-.574V15.671h-6.636v-1.6h7.786a23.854,23.854,0,0,0-3.765-2.344Zm.015,0a25.485,25.485,0,0,1,2.426,1.4,10.25,10.25,0,0,0,2.9-1.4Z" transform="translate(-851.514 -8.236)" fill="#2a2a2a"/>
            <path id="パス_2054" data-name="パス 2054" d="M877.781,15.618a14.058,14.058,0,0,1-.668,3.014,5.462,5.462,0,0,0,2.854,2.234v-6.4h-4.961V13.415H873.7V9.73H879.9V8.311h1.754V9.73h6.253v3.685h-1.356V14.47H881.61v2.312h4.945v1.579H881.61v2.9a10.468,10.468,0,0,0,1.068.063h5.743l-.335,1.611h-6.109a6.708,6.708,0,0,1-5.488-2.822,8.656,8.656,0,0,1-2.3,3.157l-1.022-1.514a9.892,9.892,0,0,0,2.935-6.4Zm8.488-2.743V11.311H875.341v1.564Z" transform="translate(-849.704 -8.311)" fill="#2a2a2a"/>
            <path id="パス_2055" data-name="パス 2055" d="M890.967,9.244c2.234,2.92,2.856,5.216,2.856,7.354a11.443,11.443,0,0,1-2.856,7.353h-1.531a11.278,11.278,0,0,0,2.728-7.353,11.794,11.794,0,0,0-2.728-7.354Z" transform="translate(-847.606 -8.191)" fill="#2a2a2a"/>
          </g>
        </g>
        <path id="パス_2056" data-name="パス 2056" d="M896.091,80.059H572.652l46.133,150.885L572.652,384.052H896.091l46.133-153.108Z" transform="translate(73.866 10.327)" fill="#51a9aa" style="isolation: isolate"/>
        <path id="パス_2057" data-name="パス 2057" d="M625.423,384.052H163.541V80.059H625.423l46.133,150.885Z" transform="translate(21.095 10.327)" fill="#d5e8e8" style="isolation: isolate"/>
        <path id="パス_2058" data-name="パス 2058" d="M299.31,384.052H0V80.059H299.31l46.133,150.885Z" transform="translate(0 10.327)" fill="#51a9aa" style="isolation: isolate"/>
        <line id="線_127" data-name="線 127" y1="21.193" transform="translate(229.224 72.646)" fill="#2a2a2a" stroke="#51a9aa" stroke-miterlimit="10" stroke-width="4.605"/>
        <line id="線_128" data-name="線 128" y1="21.193" transform="translate(968.376 72.646)" fill="#2a2a2a" stroke="#51a9aa" stroke-miterlimit="10" stroke-width="4.605"/>
        <line id="線_129" data-name="線 129" y1="21.193" transform="translate(302.715 72.646)" fill="#2a2a2a" stroke="#d5e8e8" stroke-miterlimit="10" stroke-width="4.605"/>
        <line id="線_130" data-name="線 130" y1="21.193" transform="translate(640.577 72.646)" fill="#2a2a2a" stroke="#d5e8e8" stroke-miterlimit="10" stroke-width="4.605"/>
        <g id="グループ_979" data-name="グループ 979" transform="translate(72.461 119.167)">
          <g id="グループ_972" data-name="グループ 972" transform="translate(0 198.043)">
            <path id="パス_2059" data-name="パス 2059" d="M88.138,284.918H78.109v.937h8.079v5.014H78.109v.837h8.637v2.936h1.543V297.5H86.746v4.33H82.971v-1.216H78.109v2.027c0,1.242-.555,2.406-2.075,2.406H70.539l-.636-3.115h3.877c.532,0,.657-.254.657-.709v-.609H65.626V298.29h8.812v-.964H64.182v-2.531H74.438v-.912H65.677v-2.177h8.761v-.837H66.51v-5.014h7.928v-.937H64.486v-2.66h9.952v-1.29h3.671v1.29H88.138Zm-18.005,2.913v1.113h4.3v-1.113Zm7.976,0v1.113h4.432v-1.113Zm0,6.051V294.9h4.861v-1.014Zm0,3.369v1.039h4.861v-1.039Z" transform="translate(-64.182 -280.968)" fill="#fff"/>
            <path id="パス_2060" data-name="パス 2060" d="M86.907,301.421a29.907,29.907,0,0,0,7.369-2.736H87.058v-2.939h10.08v-1.012H88.7V292.3h8.435v-1.014H88.02v-2.836h5.115a6.818,6.818,0,0,0-.507-1.292h-5.57v-3.14h3.165a17.14,17.14,0,0,0-1.113-2.3l3.671-.684a14.8,14.8,0,0,1,1.088,2.988h1.089v-2.913H98.3v2.913H99.72v-2.913h3.368v2.913H104.1a18.949,18.949,0,0,0,1.089-2.988l3.671.684a21.34,21.34,0,0,1-1.039,2.3h3.038v3.14h-5.519l-.432,1.292h5.115v2.836h-9.143V292.3h8.46v2.431h-8.46v1.012h9.978v2.939h-7.216a22.743,22.743,0,0,0,7.494,2.608l-1.872,3.494c-3.951-1.215-5.749-2.05-8.384-4.431v4.635H97.138v-4.534c-1.773,1.572-3.42,2.761-8.435,4.358Zm9.622-14.258c.075.2.405,1.113.481,1.292h4.128a7.63,7.63,0,0,0,.405-1.292Z" transform="translate(-61.251 -280.959)" fill="#fff"/>
            <path id="パス_2061" data-name="パス 2061" d="M117.417,288.713H115.67v1.039a12.259,12.259,0,0,0,2.582,3.494l-1.393,3.6a16.713,16.713,0,0,1-1.189-2.05v10.281h-3.5v-8.255a12.024,12.024,0,0,1-1.823,4.052l-1.215-5.368a14.338,14.338,0,0,0,2.785-6.788h-2.253v-3.494h2.506V280.99h3.5v4.229h1.8v3.394h3.292V287.7h-2.331v-2.076h2.331v-.886h-2.913v-2.71h2.913V280.99h2.987v1.039h3.319V280.99h3.165v1.039h2.835v2.71h-2.835v.886h2.178V287.7h-2.178v.912h3.42v2.582h-6.584v.837h5.393v6.457h1.191v2.685H132.46v1.6c0,.684,0,2.3-2.152,2.3H126.18l-.356-2.81h2.582c.532,0,.71-.1.71-.533v-.557h-7.369v3.9h-3.319v-3.9h-1.442v-2.685h1.442v-6.457h5.319v-.837h-6.33Zm4.331,5.647v1.114h2v-1.114Zm0,2.988v1.139h2v-1.139Zm2-12.611v.911h3.319v-.911Zm0,2.912v.963h3.319v-.963Zm3.319,6.711v1.114h2.05v-1.114Zm0,2.988v1.139h2.05v-1.139Z" transform="translate(-58.383 -280.965)" fill="#fff"/>
            <path id="パス_2062" data-name="パス 2062" d="M131.862,290.733a23.852,23.852,0,0,0,4.178-4.1h-3.725v-3.6h4.1v-2h3.621v2h3.267v3.6H140.04v.126a22.149,22.149,0,0,0,3.621,3.039l-1.594,3.14a24.3,24.3,0,0,1-2.027-2.025v5.065H136.42v-5.065a17.452,17.452,0,0,1-3.116,3.7Zm5.849,6.939c-.178.938-.861,4.659-2.557,6.889l-3.192-2.457a12.326,12.326,0,0,0,2.2-5.268Zm.329.356h3.749v2.633c0,.558.2.633.657.633h3.6c.988,0,1.013-.228,1.316-2.076l3.648.86c-.356,2.711-.761,4.636-2.964,4.636h-7.8a2.106,2.106,0,0,1-2.2-2.153Zm4.913-3.445a11.209,11.209,0,0,1,1.215.607V281.668h11.42v14.156H145.23a14.553,14.553,0,0,1,2.535,1.8l-2.484,2.734a20.6,20.6,0,0,0-4.785-3.266Zm4.734-9.75V286h4.307v-1.166Zm0,3.267v1.215h4.307V288.1Zm0,3.368v1.217h4.307v-1.217Zm5.369,4.963a26.629,26.629,0,0,1,3.6,6.1l-3.546,1.976a24.543,24.543,0,0,0-3.241-6.357Z" transform="translate(-55.452 -280.959)" fill="#fff"/>
            <path id="パス_2063" data-name="パス 2063" d="M165.663,300.039c2.737-.2,8.384-.658,8.384-7.47,0-4.229-2.457-6.027-5.346-6.255-.125,2.2-1.089,15.448-7.874,15.448-3.421,0-5.546-3.47-5.546-7.446,0-5.6,3.924-11.8,12.281-11.8,5.824,0,10.711,3.191,10.711,10.407a10.552,10.552,0,0,1-3.442,8.206c-2.483,2.178-6.333,2.582-7.674,2.734Zm-6.382-5.774c0,.962.279,3.241,1.723,3.241,1.925,0,3.367-4.964,3.85-11.016C159.281,288.112,159.281,293.632,159.281,294.265Z" transform="translate(-52.431 -280.768)" fill="#fff"/>
            <path id="パス_2064" data-name="パス 2064" d="M177.623,300.314h13.27a82.573,82.573,0,0,0,2.862-11.572l4.331.659a75.856,75.856,0,0,1-3.115,10.913h6.559v3.8H177.623Zm9.853-19.346H191.6v3.317h9.344v3.8H178.206v-3.8h9.27Zm-2.253,7.875a42.906,42.906,0,0,1,2.2,10.054l-4.1.609a35.27,35.27,0,0,0-1.9-9.775Z" transform="translate(-49.549 -280.968)" fill="#fff"/>
            <path id="パス_2065" data-name="パス 2065" d="M203.347,289v-1.013h-2.406V282.36h9.372v-1.392h3.848v1.392h9.522v5.622h-2.457V289H219.3a12.014,12.014,0,0,1-2.154,2.152,57.662,57.662,0,0,1,6.154,1.57l-2.582,2.938h3.468V298.8h-7.142a25.627,25.627,0,0,0,7.547,2.506l-1.849,3.622a24.327,24.327,0,0,1-8.737-4.408v4.508h-3.7v-4.457a25.36,25.36,0,0,1-8.56,4.256l-1.7-3.572a29.167,29.167,0,0,0,7.4-2.456h-7.116v-3.141h9.978v-1.341h3.7v1.341h6.484a37.824,37.824,0,0,0-6.484-2.633c-3.241,1.366-8.026,1.745-11.7,1.847l-1.014-2.987a40.254,40.254,0,0,0,6.99-.405c-2.027-.4-2.684-.506-3.671-.633a18.783,18.783,0,0,0,1.7-1.848Zm4.963-2.634c.2-.3.534-.785.761-1.114h-4.355v1.114Zm2.3,2.634a13.242,13.242,0,0,1-.961,1.039c1.164.1,1.925.2,2.913.329A8.237,8.237,0,0,0,214.845,289Zm9.27-2.634v-1.114H213.4c-.253.38-.43.659-.734,1.114Z" transform="translate(-46.656 -280.968)" fill="#fff"/>
          </g>
          <g id="グループ_974" data-name="グループ 974" transform="translate(37.099)" style="isolation: isolate">
            <g id="グループ_973" data-name="グループ 973">
              <path id="パス_2066" data-name="パス 2066" d="M102.072,124.424a26.847,26.847,0,0,1-3.813,1.749l-1.217-2.489a17.88,17.88,0,0,0,6.806-3.045H97.492V118.6h8.181a9.691,9.691,0,0,0,.531-.953H99.9v-7.467h4.793v-1.058h-7.2v-2.2h7.2V105.6h2.675v1.323h6.037V105.6h2.646v1.323h6.329v2.2h-6.329v1.058H120v7.467H109.062c-.159.317-.265.5-.5.953h13.822v2.039l-6.168.026c.634.636,2.275,2.331,6.643,3.2l-1.243,2.41a21.867,21.867,0,0,1-3.839-1.669,33.292,33.292,0,0,1-.476,3.919,2.441,2.441,0,0,1-2.437,1.96h-4.156l-.423-2.728,3.521.132c.979.026,1.27-.476,1.349-3.151h-5.268c-1.749,3.627-5.693,5.3-9.691,5.8l-1.139-2.647c3.55-.185,6.539-1.3,7.865-3.151h-4.847Zm.5-12.391v1.086H117.3v-1.086Zm0,2.514v1.271H117.3v-1.271Zm5.349,8.21a12.585,12.585,0,0,0,.37-1.617l2.622.159a11,11,0,0,1-.29,1.458h4.341a10.585,10.585,0,0,1-2.143-2.119h-5.747a12.368,12.368,0,0,1-2.3,2.119Zm5.481-12.578v-1.058h-6.037v1.058Z" transform="translate(-97.042 -105.546)" fill="#fff"/>
              <path id="パス_2067" data-name="パス 2067" d="M144.816,129.806a25.143,25.143,0,0,1-10.115-4.9v5.535h-2.649v-5.455a23.379,23.379,0,0,1-10.115,4.794L120.616,127a23.09,23.09,0,0,0,9.03-2.966h-8.686v-2.224h11.093v-1.616H123.74v-6.857a13.648,13.648,0,0,1-1.537,1.323l-1.614-2.3c3.5-2.912,4.527-4.846,5.295-6.751l2.939.371c-.344.767-.583,1.243-.953,1.958h4.791c.506-1.4.559-1.534.823-2.382l2.86.239c-.24.634-.558,1.428-.849,2.143h8.765V110h-9.109v1.482h8.341v1.8h-8.341v1.482h8.341v1.8h-8.341v1.56h9.876v2.066h-10.38v1.616h11.067v2.224h-8.525A23.289,23.289,0,0,0,146.06,127ZM126.6,110c-.053.053-.238.317-.29.37v1.112h6.3V110Zm6.01,3.283h-6.3v1.482h6.3Zm0,3.284h-6.3v1.56h6.3Z" transform="translate(-94.005 -105.552)" fill="#fff"/>
              <path id="パス_2068" data-name="パス 2068" d="M150.056,124.8a17.735,17.735,0,0,1-4.211,5.693l-1.826-2.04a18.054,18.054,0,0,0,3.627-4.712Zm-3.811-19.2h2.513v2.382h5.032V105.6h2.517v2.382h1.56V110.5h-1.56v10.4h1.56v2.437H144.257V120.9h1.987V110.5h-1.511v-2.517h1.511Zm2.513,4.9v1.88h5.032V110.5Zm0,4.1v1.961h5.032V114.6Zm0,4.079V120.9h5.032v-2.223Zm4.821,5.084a13.949,13.949,0,0,1,2.728,3.362l-1.934,1.695a26.455,26.455,0,0,0-2.623-3.653Zm12.2-1.112h-4.765a17.484,17.484,0,0,1-3.151,7.837l-2.3-1.8c1.881-2.647,3.363-5.163,3.363-13.663V106.42H168.4v21.95c0,2.119-1.428,2.119-2.251,2.119h-3.389l-.423-2.676h2.6c.609,0,.847-.211.847-.794Zm-4.289-6.912-.185,4.369h4.474V115.74Zm0-6.832v4.369h4.289v-4.369Z" transform="translate(-90.982 -105.546)" fill="#fff"/>
              <path id="パス_2069" data-name="パス 2069" d="M168.644,106.561h10.062v9.664h-7.44v14.086h-2.622Zm2.622,2.17v1.748h4.872v-1.748Zm0,3.548v1.748h4.872v-1.748Zm14.933,5.454v9.823H173.914v-9.823Zm-9.8,2.145v1.828h7.281v-1.828Zm0,3.6v1.906h7.281V123.48Zm12.5-7.255h-7.836v-9.664h10.485v21.261c0,.742,0,2.489-1.773,2.489h-4.053l-.423-2.649h2.992c.317,0,.609-.106.609-.636Zm-5.268-7.494v1.748H188.9v-1.748Zm0,3.548v1.748H188.9v-1.748Z" transform="translate(-87.806 -105.422)" fill="#fff"/>
            </g>
          </g>
          <g id="グループ_978" data-name="グループ 978" transform="translate(50.062 74.464)">
            <path id="パス_2070" data-name="パス 2070" d="M150.7,171.508V185.52a7.313,7.313,0,0,0,7.312,7.312H170.8" transform="translate(-103.083 -171.508)" fill="none" stroke="#fff" stroke-miterlimit="10" stroke-width="3.454"/>
            <g id="グループ_977" data-name="グループ 977" transform="translate(0 0.924)">
              <g id="グループ_975" data-name="グループ 975">
                <path id="パス_2071" data-name="パス 2071" d="M156.266,172.326H116.9a8.375,8.375,0,0,0-8.376,8.376v74.125A8.376,8.376,0,0,0,116.9,263.2h51.091a8.376,8.376,0,0,0,8.376-8.376v-62.4Z" transform="translate(-108.524 -172.326)" fill="none" stroke="#fff" stroke-miterlimit="10" stroke-width="3.454"/>
                <path id="パス_2072" data-name="パス 2072" d="M181.922,227.167c-3.6,3.478-12.273,12.238-15.951,15.892-3.487,3.487-12.542,12.543-15.922,15.922a66.545,66.545,0,0,1-8.287,2.327,66.4,66.4,0,0,1,2.327-8.287L160.011,237.1c3.7-3.718,12.362-12.292,15.892-15.951C178.533,220.211,182.857,224.537,181.922,227.167Z" transform="translate(-104.237 -166.045)" fill="#51a9aa" stroke="#fff" stroke-miterlimit="10" stroke-width="3.454"/>
              </g>
              <g id="グループ_976" data-name="グループ 976" transform="translate(12.415 24.779)">
                <path id="パス_2073" data-name="パス 2073" d="M119.521,194.274h22.868" transform="translate(-119.521 -194.274)" fill="#51a9aa" stroke="#fff" stroke-miterlimit="10" stroke-width="3.454"/>
                <path id="パス_2074" data-name="パス 2074" d="M119.521,204.689h43.012" transform="translate(-119.521 -192.931)" fill="#51a9aa" stroke="#fff" stroke-miterlimit="10" stroke-width="3.454"/>
                <path id="パス_2075" data-name="パス 2075" d="M119.521,215.1h43.012" transform="translate(-119.521 -191.587)" fill="#51a9aa" stroke="#fff" stroke-miterlimit="10" stroke-width="3.454"/>
                <path id="パス_2076" data-name="パス 2076" d="M119.521,225.52h43.012" transform="translate(-119.521 -190.244)" fill="#51a9aa" stroke="#fff" stroke-miterlimit="10" stroke-width="3.454"/>
              </g>
            </g>
          </g>
        </g>
        <g id="グループ_990" data-name="グループ 990" transform="translate(367.472 119.166)">
          <g id="グループ_983" data-name="グループ 983" transform="translate(3.468 155.612)">
            <g id="グループ_980" data-name="グループ 980" transform="translate(25.444)">
              <path id="パス_2077" data-name="パス 2077" d="M351.1,254.761a13.376,13.376,0,0,0,2.572-5.017h-2.194V248h2.319v-2.176c-.989.108-1.456.143-1.889.181l-.43-1.673a19.631,19.631,0,0,0,5.305-.755l.558,1.529a12.2,12.2,0,0,1-1.817.449V248h1.564v1.745h-1.564v.234a10.1,10.1,0,0,0,2,3.148l-1.061,1.456a8.226,8.226,0,0,1-.935-1.672v7.553h-1.727V253.5a12.571,12.571,0,0,1-1.906,3.525Zm5.287.09a16.328,16.328,0,0,0,5.054-2.931c-.108-.163-.2-.307-.4-.576a13.82,13.82,0,0,1-3.074,1.582l-.883-1.6a9.376,9.376,0,0,0,4.029-2.068h-1.907v-.647h-1.69v-3.686h4.28v-1.349h1.817v1.349h4.28v3.686H366.2v.647h-.99a22.238,22.238,0,0,0,.325,2.231,21.281,21.281,0,0,0,1.672-1.744l1.331,1.169a23.478,23.478,0,0,1-2.554,2.32,11.957,11.957,0,0,0,2.59,4.785l-1.331,1.546c-2.572-3.146-3.291-7.482-3.452-10.305h-.467a8.852,8.852,0,0,1-1.062,1.134,9.513,9.513,0,0,1,2.033,6.134c0,1.8-.414,3.938-2.375,3.938H360l-.359-1.852h1.726c.665,0,1.349,0,1.241-2.7a24.972,24.972,0,0,1-5.359,3.633l-.9-1.583a17.364,17.364,0,0,0,6.007-3.849,5.688,5.688,0,0,0-.252-.863,18.851,18.851,0,0,1-4.91,3.146Zm9.82-7.087v-1.331h-7v1.331Z" transform="translate(-351.097 -243.359)" fill="#1a1311"/>
              <path id="パス_2078" data-name="パス 2078" d="M379.908,259.937a60.432,60.432,0,0,0-8.255-5.612c-.989-.558-2.139-1.223-2.139-2.465,0-.9.647-1.582,1.835-2.536a61.837,61.837,0,0,0,6.294-5.43l1.852,1.348a81.839,81.839,0,0,1-7.068,5.683,1.055,1.055,0,0,0-.557.846c0,.5.413.737,1.493,1.331a69.874,69.874,0,0,1,6.6,4.011,20.11,20.11,0,0,1,1.692,1.294Zm-.161-8.382a22.845,22.845,0,0,0-1.637-2.68l1.4-.719a17.086,17.086,0,0,1,1.69,2.608Zm2.3-1.1a17.02,17.02,0,0,0-1.691-2.572l1.4-.719a13.582,13.582,0,0,1,1.673,2.481Z" transform="translate(-348.721 -243.318)" fill="#1a1311"/>
              <path id="パス_2079" data-name="パス 2079" d="M383.547,258.541c5.486-3.022,5.917-6.6,6.259-9.425h-5.845v-1.888h6.006c.018-.2.09-1.476.09-2.374v-1.295h2.05v1.384c0,1.062-.035,1.726-.089,2.285h8.093a58.326,58.326,0,0,1-.738,10.682,2.743,2.743,0,0,1-2.643,2.518H393.4L393.1,258.4h3c1.024,0,1.15-.647,1.384-1.96a55.636,55.636,0,0,0,.469-7.32h-6.115c-.415,3.489-1.206,7.913-7.142,11.241Z" transform="translate(-346.911 -243.361)" fill="#1a1311"/>
              <path id="パス_2080" data-name="パス 2080" d="M414.641,245.1v1.925h-7.356v3.148H415.7V252.1h-8.417v4.191c0,.718.072.971,1.133.971h2.715c.611,0,3.291-.054,3.85-.054l-.128,2.014h-7.14a2.251,2.251,0,0,1-2.482-2.194V252.1h-4.927v-1.924h4.927v-3.148h-4.173V245.1Z" transform="translate(-344.749 -243.162)" fill="#1a1311"/>
              <path id="パス_2081" data-name="パス 2081" d="M431.717,249.624v1.853h-5.881L425.8,252c-.307,4.351-1.872,6.852-7.482,7.949l-.864-1.835c3.489-.487,6.078-1.458,6.24-6.134l.018-.5H416.7v-1.853Zm-3.183-4.639v1.835h-10.7v-1.835Zm.846,1.835a11.875,11.875,0,0,0-.45-2.9l1.313-.2a15.746,15.746,0,0,1,.576,2.824Zm2.194-.414a14.216,14.216,0,0,0-.558-2.771l1.241-.251a14.515,14.515,0,0,1,.63,2.751Z" transform="translate(-342.635 -243.384)" fill="#1a1311"/>
              <path id="パス_2082" data-name="パス 2082" d="M436.9,249.4c0,7.555-2.555,9.857-3.454,10.667l-1.564-1.565c.826-.666,2.931-2.3,2.931-8.706v-5H436.9Zm4.856,7.7c4.137-.989,5.071-6.043,5.251-6.96l1.835.791c-1.654,7.913-7.392,8.4-9.1,8.542V244.26h2.014Z" transform="translate(-340.677 -243.271)" fill="#1a1311"/>
              <path id="パス_2083" data-name="パス 2083" d="M455.553,244.214c-.054.414-.108.755-.288,1.6h7.319v1.853h-7.841a9.151,9.151,0,0,1-.612,1.547,4.53,4.53,0,0,1,2.086-.522,2.686,2.686,0,0,1,2.877,2.086,35.014,35.014,0,0,1,4.317-1.439l.449,2.015a33.794,33.794,0,0,0-4.405,1.294,26.515,26.515,0,0,1,.054,3.345H457.5a9.776,9.776,0,0,0,.072-1.348c0-.5-.018-.864-.036-1.188-.809.4-2.967,1.458-2.967,2.789,0,1.527,2.032,1.527,3.758,1.527.234,0,2.05,0,4.5-.2v1.943c-1.348.054-2.86.089-4.208.089-1.961,0-3.813-.035-5.054-1.025a2.908,2.908,0,0,1-1.134-2.266c0-1.835,1.78-3.128,4.875-4.747a1.317,1.317,0,0,0-1.4-1.1,5.356,5.356,0,0,0-3.74,2.248,25.752,25.752,0,0,1-2.086,2.824l-1.474-1.529a16.37,16.37,0,0,0,4.063-6.348h-3.614v-1.853h4.137a12.335,12.335,0,0,0,.234-1.762Z" transform="translate(-338.521 -243.298)" fill="#1a1311"/>
              <path id="パス_2084" data-name="パス 2084" d="M473.278,249.708V250.9H479.3v1.547h-6.115a9.1,9.1,0,0,1-.271,1.277h7.968v1.69h-6.259c1.493,1.942,4.191,2.715,6.259,3.075l-.737,1.924c-4.3-1.042-6.6-3.148-7.519-5h-.287c-.63,1.367-1.907,3.76-7.625,4.982L464,258.5a12.338,12.338,0,0,0,5.306-1.943,3.933,3.933,0,0,0,.989-1.15h-6.169v-1.69h6.906a11.107,11.107,0,0,0,.306-1.277h-5.629V250.9h5.754v-1.188H466.8v-1.636h4.658v-1.117h1.818v1.117h4.873v1.636Zm-1.745-6.133h1.979v1.258h7.031v3.886h-1.852v-2.194H466.371v2.194h-1.835v-3.886h7Z" transform="translate(-336.534 -243.359)" fill="#1a1311"/>
              <path id="パス_2085" data-name="パス 2085" d="M479.88,256.836a18.512,18.512,0,0,0,2.1-.576v-4.424h-1.709v-1.761h1.709v-3.886H480.1v-1.78h5.666v1.78H483.8v3.886h1.655v1.761H483.8v3.814c1.079-.378,1.476-.558,1.962-.773l.394,1.69a31.959,31.959,0,0,1-5.881,2.05Zm6.692-12.751h9.944V254.39h-3.074v3.38c0,.5.09.666.593.666h.936c.323,0,.4-.125.448-.45a13.412,13.412,0,0,0,.145-2.031l1.673.341c-.09,2.662-.27,3.957-1.476,3.957h-2.644c-.755,0-1.51-.072-1.51-1.565v-4.3H490.42c-.829,3.758-2.718,5.052-5.738,6.1l-.883-1.8c4.228-1.1,4.641-3.454,4.786-4.3h-2.014Zm1.8,1.6v1.367h6.313v-1.367Zm0,2.86v1.367h6.313v-1.367Zm0,2.878v1.367h6.313v-1.367Z" transform="translate(-334.485 -243.294)" fill="#1a1311"/>
              <path id="パス_2086" data-name="パス 2086" d="M505.276,244.164h2.085v1.943h5.126v1.852h-5.126v3.813a8.943,8.943,0,0,1,.288,2.285c0,5.234-4.172,5.629-7.3,5.809l-.629-1.906c4.461-.09,5.4-.954,5.809-2.338a2.524,2.524,0,0,1-1.978.719,3.715,3.715,0,1,1,.054-7.428,3.508,3.508,0,0,1,1.78.431l-.036-1.385h-8.6v-1.852h8.56Zm.18,8.219a1.426,1.426,0,0,0-.36-1.1,2.013,2.013,0,0,0-1.458-.612,1.823,1.823,0,0,0-1.906,1.889,1.755,1.755,0,0,0,1.853,1.888,1.7,1.7,0,0,0,1.871-1.726Z" transform="translate(-332.309 -243.283)" fill="#1a1311"/>
              <path id="パス_2087" data-name="パス 2087" d="M524.429,244.435v1.708c-.846.774-2.176,2.051-3.021,2.824-.2.2-.377.36-.737.666a4.279,4.279,0,0,1,2.032-.378c4.658,0,4.892,3.778,4.892,4.712a5.384,5.384,0,0,1-2.177,4.461,6.945,6.945,0,0,1-4.387,1.114c-4.712,0-4.712-2.931-4.712-3.183,0-1.762,1.708-2.7,3.219-2.7,1.744,0,3.508,1.223,3.381,3.9a3.473,3.473,0,0,0,2.7-3.507c0-2.59-2.049-3.039-3.309-3.039a7.936,7.936,0,0,0-4.694,1.582c-1.348,1.224-2.212,2.1-3.165,3.13l-1.241-1.672c.431-.378,7.391-6.889,8.38-7.824l-7.14.072v-1.871Zm-3.255,12.842c0-.128-.054-1.908-1.708-1.908-.846,0-1.349.487-1.349,1.1,0,1.348,2.032,1.348,2.985,1.348A2.335,2.335,0,0,0,521.174,257.277Z" transform="translate(-330.187 -243.248)" fill="#1a1311"/>
            </g>
            <g id="グループ_981" data-name="グループ 981" transform="translate(0 23.874)">
              <path id="パス_2088" data-name="パス 2088" d="M342.06,266.879c.087,2.546,1.734,3.187,3.381,3.187-.62,5.093-2.631,11.94-13.865,14.229l-1.626-3.251c9.05-1.285,11.168-5.992,11.789-10.784H328.56v-3.38Zm5.5.107a2.408,2.408,0,1,1-2.4-2.418A2.392,2.392,0,0,1,347.561,266.986Zm-3.4,0a1,1,0,0,0,1.006.984.982.982,0,0,0,.984-.984,1,1,0,1,0-1.99,0Z" transform="translate(-328.56 -264.525)" fill="#1a1311"/>
              <path id="パス_2089" data-name="パス 2089" d="M364.869,266.634v16.411h-16.9V266.634Zm-3.595,3.231h-9.82v9.949h9.82Z" transform="translate(-326.057 -264.259)" fill="#1a1311"/>
              <path id="パス_2090" data-name="パス 2090" d="M372.753,276.4a32.723,32.723,0,0,0-6.29-2.483L367.6,271a31.412,31.412,0,0,1,6.418,2.268Zm-5.092,4.108c7.275-.707,11.554-2.334,14.336-11.491l3.123,1.626c-3.253,9.565-7.938,12.39-16.5,13.523Zm6.975-9.287a30.862,30.862,0,0,0-6.462-2.332l1.22-2.888a33.3,33.3,0,0,1,6.59,2.1Zm6.119-2.716a21.354,21.354,0,0,0-.834-3.381l1.9-.3a18.448,18.448,0,0,1,.94,3.273Zm3.125-.493a16.128,16.128,0,0,0-.942-3.1l1.861-.3a17.719,17.719,0,0,1,.984,3.017Z" transform="translate(-323.671 -264.52)" fill="#1a1311"/>
              <path id="パス_2091" data-name="パス 2091" d="M401.422,269.723v2.952h-5.263v7.147h6.055v3H387.044v-3h5.969v-7.147H387.75v-2.952Z" transform="translate(-321.016 -263.86)" fill="#1a1311"/>
              <path id="パス_2092" data-name="パス 2092" d="M422.689,268.007c-1.776,12.088-8.366,15.276-15.533,16.325l-1.391-3.145c5.22-.707,10.526-2.161,12.645-10.014h-6.633a18.409,18.409,0,0,1-5.092,4.644l-2.225-2.5a15.03,15.03,0,0,0,6.953-8.194l3.638.471a25.092,25.092,0,0,1-1.135,2.418Z" transform="translate(-318.77 -264.454)" fill="#1a1311"/>
              <path id="パス_2093" data-name="パス 2093" d="M431.89,265.421v5.093a49.225,49.225,0,0,1,10.292,4.492l-1.819,3.573a41.467,41.467,0,0,0-8.473-4.449v10.141h-3.722v-18.85Z" transform="translate(-315.712 -264.415)" fill="#1a1311"/>
              <path id="パス_2094" data-name="パス 2094" d="M454.688,272.312h6.7v3.125H454.6c-.15,3.144-1.2,7.21-9.628,8.814l-1.434-3.017c1.027-.149,4.493-.664,6.334-2.46a4.512,4.512,0,0,0,1.347-3.337h-8.216v-3.125h8.259v-2.2a54.513,54.513,0,0,1-6.825.321l-.642-3.038a47.4,47.4,0,0,0,14.421-1.82l1.734,3.125a50.571,50.571,0,0,1-5.264,1Z" transform="translate(-313.798 -264.396)" fill="#1a1311"/>
              <path id="パス_2095" data-name="パス 2095" d="M480.809,272.187v3.573H461.938v-3.573Z" transform="translate(-311.356 -263.542)" fill="#1a1311"/>
              <path id="パス_2096" data-name="パス 2096" d="M494.913,273a39.5,39.5,0,0,1,5.306,9.779l-3.446,1.5c-.3-.814-.448-1.22-.684-1.8-3.615.492-13.03.963-14.528,1.049l-.406-3.552c.342,0,1.647,0,2.1-.021,2.974-9.628,3.081-9.992,3.958-14.4l3.765.364c-2.866,9.649-3.187,10.719-4.385,13.994,2.1-.023,2.716-.044,8.259-.28a31.355,31.355,0,0,0-2.932-5.241Z" transform="translate(-308.877 -264.398)" fill="#1a1311"/>
              <path id="パス_2097" data-name="パス 2097" d="M502.242,277.744a25.488,25.488,0,0,1-.749,6.4l-2.183-1.327a23.192,23.192,0,0,0,.685-5.285Zm7.146-1.627-2.653.813c-.042-.15-.129-.791-.149-.919-.129.02-.214.042-1.049.128v8.987H502.82v-8.709c-.471.021-2.675.213-3.187.256l-.107-2.8c1.134-.02,1.261-.02,1.54-.043.235-.278.428-.514.963-1.2a14.018,14.018,0,0,0-2.675-2.845l1.476-2.632a3.725,3.725,0,0,1,.535.429,22.017,22.017,0,0,0,1.434-2.8l2.8.814a27.672,27.672,0,0,1-2.418,3.788,9.867,9.867,0,0,1,.641.791,27.231,27.231,0,0,0,2.1-3.253l2.717.942a49.639,49.639,0,0,1-4.45,5.841c.278-.023,1.647-.086,1.946-.107-.106-.535-.193-.814-.341-1.391l2.353-.75a25.2,25.2,0,0,1,1.241,4.386V265.483h9.522v16.046h.919v3.039H507.57v-2.354l-1.026.215a27.173,27.173,0,0,0-.514-4.751l2.118-.405a33.858,33.858,0,0,1,.62,4.256h.621Zm3.017-7.638v2.4h3.487v-2.4Zm0,5.178v2.374h3.487v-2.374Zm0,5.22v2.652h3.487v-2.652Z" transform="translate(-306.535 -264.498)" fill="#1a1311"/>
              <path id="パス_2098" data-name="パス 2098" d="M526.4,283.146a2.748,2.748,0,0,1-.641.063h-2.033l-.555-3.316h1.454c.322,0,.557,0,.728-.685a29.66,29.66,0,0,0,.236-3.851h-2.334v1.219a19.223,19.223,0,0,1-2.118,8.688l-2.782-2.589a12.194,12.194,0,0,0,1.713-6.355V267.7h9.349c-.02-.471-.107-2.524-.128-2.952h3.273c0,.6,0,1.069.043,2.952h2.546a13.528,13.528,0,0,0-1.946-1.84l2.44-1.327a14.922,14.922,0,0,1,2.674,2.5l-1.134.663H538.9v3.081h-6.141a41.3,41.3,0,0,0,.621,5.114,21.062,21.062,0,0,0,1.454-4.452l3.082,1.092a24.591,24.591,0,0,1-3.317,7.318c.321.727.77,1.54,1.219,1.54.791,0,1.262-1.6,1.67-3.017l1.882,2.61c-1.156,3.83-2.332,4.193-3.4,4.193-1.562,0-2.674-1.2-3.616-2.695a16.329,16.329,0,0,1-4.172,2.8Zm2.375-10.677c0,1.069,0,6.846-.6,9.007a13.818,13.818,0,0,0,2.845-2.225,33.531,33.531,0,0,1-1.477-8.473h-6.291v1.691Z" transform="translate(-304.078 -264.53)" fill="#1a1311"/>
              <path id="パス_2099" data-name="パス 2099" d="M550.293,274.13a3.081,3.081,0,1,1-3.082-3.08A3.083,3.083,0,0,1,550.293,274.13Z" transform="translate(-300.754 -263.689)" fill="#1a1311"/>
            </g>
            <g id="グループ_982" data-name="グループ 982" transform="translate(50.849 51.673)">
              <path id="パス_2100" data-name="パス 2100" d="M382.135,297.053h-5.669v-1.306h-2.119V290.7h7.874v-1.242H385.5V290.7h7.981v5.049h-2.269v1.306h-5.969v.919h6.783v2.288h-6.953c-.023.173-.043.343-.172.942h9.073v2.782h-6.74c.621.707,1.8,1.969,6.889,2.526l-1.305,3.188c-2.075-.386-6.74-1.369-8.964-5.22a7.949,7.949,0,0,1-1.006,1.476,14.658,14.658,0,0,1-7.938,3.765L373.6,306.6c1.283-.173,5.5-.685,7.06-2.611h-6.868V301.2h8.024c.043-.256.086-.405.17-.942H375.7v-2.288h6.44Zm0-3.66H377.45v1.2h4.685Zm3.1,1.2h5.07v-1.2h-5.07Z" transform="translate(-373.599 -289.114)" fill="#1a1311"/>
              <path id="パス_2101" data-name="パス 2101" d="M400.235,295.229a26.666,26.666,0,0,1-2.182,3.466v10.956H394.8V302.29c-.664.557-.942.791-1.369,1.112l-.92-4a16.968,16.968,0,0,0,5.029-5.518Zm-.855-5.092a16.134,16.134,0,0,1-5.393,6.076L392.533,293a11.908,11.908,0,0,0,3.915-3.851Zm13.821,5.8v3.081h-2.909v8.238a2.05,2.05,0,0,1-2.291,2.4h-4.449l-.535-3.274h3.294c.514,0,.664-.17.664-.664v-6.7H400v-3.081Zm-.771-5.82v3.038h-11.6v-3.038Z" transform="translate(-371.159 -289.153)" fill="#1a1311"/>
              <path id="パス_2102" data-name="パス 2102" d="M421.605,295.46h-9.649v-2.5h9.692v2.1h3.508v-5.691h3.317v5.691h3.851v3.275h-3.851v11.317h-3.317V298.327h-3.551Zm-8.944-5.648h8.3v2.354h-8.3Zm0,6.418h8.3v2.353h-8.3Zm0,3.188h8.3v2.354h-8.3Zm0,3.251h8.3v6.206h-5.392v.769h-2.909Zm2.909,2.268v1.5h2.611v-1.5Z" transform="translate(-368.651 -289.126)" fill="#1a1311"/>
              <path id="パス_2103" data-name="パス 2103" d="M451.4,292.8H442.6V294h4.108v10.869H435.885V294h4.086v-1.2h-8.835v-2.909H451.4Zm-19.469.942h2.931V305.9h12.773V293.744h3v15.811h-3v-.835H434.857v.835h-2.931Zm6.46,2.782v1.667h1.584v-1.667Zm0,4.043v1.8h1.584v-1.8Zm4.216-4.043v1.667h1.605v-1.667Zm0,4.043v1.8h1.605v-1.8Z" transform="translate(-366.177 -289.058)" fill="#1a1311"/>
              <path id="パス_2104" data-name="パス 2104" d="M459.351,305.438c2.31-.172,7.081-.557,7.081-6.312,0-3.573-2.075-5.092-4.515-5.285-.107,1.862-.919,13.051-6.654,13.051-2.888,0-4.685-2.931-4.685-6.29,0-4.729,3.317-9.97,10.377-9.97,4.922,0,9.051,2.7,9.051,8.793a8.912,8.912,0,0,1-2.909,6.933c-2.1,1.839-5.349,2.182-6.483,2.31Zm-5.393-4.878c0,.813.236,2.739,1.455,2.739,1.627,0,2.846-4.194,3.253-9.309C453.958,295.359,453.958,300.024,453.958,300.559Z" transform="translate(-363.67 -288.962)" fill="#1a1311"/>
              <path id="パス_2105" data-name="パス 2105" d="M481.106,295.4h8.558v2.589h-8.558v.813h7.211v4.107c0,1.542-.9,1.97-1.776,1.97h-.408a19.6,19.6,0,0,0,3.831,1.262l-1.67,3.08a16.982,16.982,0,0,1-7.188-4.793v5.22H477.96v-5.285a19.129,19.129,0,0,1-7.125,4.9l-1.626-3a16.081,16.081,0,0,0,4.492-1.733h-2.867V298.8h7.125v-.813h-8.43V295.4h1.455l-1.8-2.225a10.113,10.113,0,0,0,3.188-3.852l3.188.365c-.15.428-.193.535-.321.9H479.2v2.076a10.463,10.463,0,0,0,2.074-3.338l3.125.365c-.129.406-.172.535-.3.9h5.563v2.762h-3.294a8.809,8.809,0,0,1,.621,1.069l-3.167.814a10.748,10.748,0,0,0-.834-1.883h-.449a13.592,13.592,0,0,1-1.434,1.733Zm-1.369-.877-1.305-1.092.086-.085h-1.754a4.583,4.583,0,0,1,.6,1.112l-3,.771a10.154,10.154,0,0,0-.684-1.883h-.128A13.019,13.019,0,0,1,471.5,295.4h6.461v-.877Zm-5.777,6.654v3.209a14.092,14.092,0,0,0,3.659-3.209Zm9.949,1.37h.814c.385,0,.449-.15.449-.621v-.749h-3.659a12.875,12.875,0,0,0,2.7,2.589Z" transform="translate(-361.269 -289.131)" fill="#1a1311"/>
              <path id="パス_2106" data-name="パス 2106" d="M495.092,299.244a21.194,21.194,0,0,1-.77,3.745,5.6,5.6,0,0,0,2.8,2.374v-7.3h-6.013v-1.648h-1.968V290.9H497.1v-1.52h3.231v1.52h8v5.518h-2.012v1.648h-6.013v2.246h6.2v2.932h-6.2V306c.215.023.836.044,1.156.044h7.638l-.663,3.188H500.89c-4.9,0-6.76-2.375-7.6-3.423a12.448,12.448,0,0,1-2.781,3.894l-2.2-2.611c.814-.727,3.06-2.782,3.681-8.259Zm10.057-4.087v-1.411H492.333v1.411Z" transform="translate(-358.803 -289.124)" fill="#1a1311"/>
            </g>
          </g>
          <g id="グループ_985" data-name="グループ 985" transform="translate(50.061)" style="isolation: isolate">
            <g id="グループ_984" data-name="グループ 984">
              <path id="パス_2107" data-name="パス 2107" d="M394.64,109.537H383.625v1.272h8.843V116h-8.843v1.166h9.4v3.23H394.8v2.25h-1.774v4.5h-2.755v-1.27h-6.644v1.933a2.346,2.346,0,0,1-2.3,2.622h-4.793l-.4-2.622h4c.768,0,.821-.265.821-.821v-1.112h-9.586v-1.96h9.586v-1.377H369.829V120.5h11.122v-1.324H371.5v-2.012h9.453V116h-8.605v-5.188h8.605v-1.272H370.121v-2.2h10.829v-1.695h2.675v1.695H394.64Zm-19.621,3.151v1.483h5.932v-1.483Zm8.606,0v1.483h6.089v-1.483Zm0,6.487V120.5h6.565v-1.324Zm0,3.362v1.377h6.644v-1.377Z" transform="translate(-369.829 -105.539)" fill="#1a1311"/>
              <path id="パス_2108" data-name="パス 2108" d="M393.474,127.66a30.094,30.094,0,0,0,8.948-4.1h-8.975v-2.2h10.961v-1.59H395.3v-2.038h9.108v-1.59h-9.664v-2.171h5.694a15.106,15.106,0,0,0-.716-2.065h-6.275v-2.278H397.6c-.185-.4-1.033-2.2-1.537-3.283l2.755-.768a20.647,20.647,0,0,1,1.588,4.051h1.616v-3.892h2.594v3.892h2.3v-3.892h2.6v3.892h1.721a28.82,28.82,0,0,0,1.456-4.077l2.754.794a21.816,21.816,0,0,1-1.456,3.283h4.078v2.278h-6.408c-.079.291-.555,1.748-.662,2.065h6.01v2.171h-9.928v1.59h9.32v2.038h-9.32v1.59h10.988v2.2h-8.949a23.112,23.112,0,0,0,9.082,4.077l-1.535,2.409a24.256,24.256,0,0,1-9.585-5.241v5.559h-2.675v-5.533a26.373,26.373,0,0,1-9.559,5.189Zm9.054-15.754c.132.317.636,1.774.741,2.065h4.926a10.869,10.869,0,0,0,.583-2.065Z" transform="translate(-366.783 -105.551)" fill="#1a1311"/>
              <path id="パス_2109" data-name="パス 2109" d="M416.36,121.168a17.7,17.7,0,0,0,3.5-8.078h-2.992v-2.514h3.177V105.6h2.517v4.978h2.382v2.514h-2.382v.69a13.13,13.13,0,0,0,3.124,5.031l-1.271,2.542a20.049,20.049,0,0,1-1.853-3.521v12.6H420.04V118.519a17.328,17.328,0,0,1-2.673,6.355Zm12.472-15.57h2.462v1.35h4.024V105.6h2.489v1.35h3.31v2.012h-3.31v1.4h2.383v1.828h-2.383v1.561h3.919v2.065h-7.308v1.324H440.3v7.044h1.43v2.038H440.3v2.331c0,1.058-.343,1.88-2.2,1.88h-3.521l-.212-2.383h2.541c.848,0,.9-.1.9-.715v-1.113h-9.135v4.211h-2.436v-4.211h-1.695v-2.038h1.695v-7.044h5.9v-1.324h-7.2v-2.065h3.893v-1.561h-2.6v-1.828h2.6v-1.4h-3.469v-2.012h3.469Zm-.159,13.477v1.588h3.468v-1.588Zm0,3.416v1.695h3.468v-1.695Zm2.621-13.531v1.4h4.024v-1.4Zm0,3.231v1.561h4.024v-1.561Zm3.124,6.883v1.588h3.389v-1.588Zm0,3.416v1.695h3.389v-1.695Z" transform="translate(-363.827 -105.545)" fill="#1a1311"/>
              <path id="パス_2110" data-name="パス 2110" d="M440.024,116.547a27.78,27.78,0,0,0,5.058-5.826H440.4V108.34h4.819v-2.649h2.357v2.649h3.892v2.382h-3.892v.663a19.212,19.212,0,0,0,3.892,3.787l-1.377,2.118a13.5,13.5,0,0,1-2.514-2.754v6.514h-2.357v-7.018a15.983,15.983,0,0,1-3.866,4.793Zm5.375,6.592a17.161,17.161,0,0,1-3.229,6.54l-1.987-1.826a12.732,12.732,0,0,0,2.675-5.349Zm.98.133h2.6v3.494c0,.663.106.716.873.716h5.269c.663,0,.981-.053,1.219-.317.211-.238.264-.478.688-2.7l2.489.715c-.37,2.728-.769,4.844-3.1,4.844h-8.341a1.654,1.654,0,0,1-1.695-1.719Zm4.634-2.965a26.74,26.74,0,0,1,4.74,3.547l-1.748,2.013a25.187,25.187,0,0,0-4.686-3.6Zm13.134-13.849v14.193h-11.36V106.459Zm-8.9,2.278v1.827h6.381v-1.827Zm0,3.785v1.934h6.381v-1.934Zm0,3.972V118.4h6.381v-1.907Zm6.117,5.773a37.174,37.174,0,0,1,4,5.534l-2.224,1.721a31.762,31.762,0,0,0-3.68-5.958Z" transform="translate(-360.775 -105.533)" fill="#1a1311"/>
              <path id="パス_2111" data-name="パス 2111" d="M469.445,124.8a17.742,17.742,0,0,1-4.211,5.692l-1.827-2.039a18.034,18.034,0,0,0,3.627-4.714Zm-3.813-19.2h2.514v2.383h5.031V105.6h2.517v2.383h1.561V110.5h-1.561v10.4h1.561v2.436h-13.61V120.9h1.987V110.5h-1.509v-2.515h1.509Zm2.514,4.9v1.88h5.031V110.5Zm0,4.1v1.959h5.031V114.6Zm0,4.078V120.9h5.031v-2.223Zm4.82,5.084a13.893,13.893,0,0,1,2.728,3.362l-1.934,1.695a26.43,26.43,0,0,0-2.62-3.653Zm12.205-1.113h-4.765a17.479,17.479,0,0,1-3.151,7.839l-2.3-1.8c1.88-2.649,3.362-5.163,3.362-13.663v-8.606h9.48V128.37c0,2.118-1.43,2.118-2.251,2.118h-3.389l-.423-2.675h2.594c.61,0,.847-.212.847-.795Zm-4.288-6.911-.186,4.369h4.474v-4.369Zm0-6.832v4.369h4.288v-4.369Z" transform="translate(-357.758 -105.545)" fill="#1a1311"/>
              <path id="パス_2112" data-name="パス 2112" d="M488.033,106.56h10.061v9.663h-7.44v14.088h-2.622Zm2.622,2.17v1.748h4.872V108.73Zm0,3.548v1.749h4.872v-1.749Zm14.933,5.455v9.822H493.3v-9.822Zm-9.8,2.143v1.829h7.281v-1.829Zm0,3.6v1.906h7.281v-1.906Zm12.5-7.256h-7.839V106.56h10.486v21.262c0,.741,0,2.488-1.774,2.488h-4.052l-.423-2.647h2.992c.318,0,.61-.107.61-.637Zm-5.269-7.493v1.748h5.269V108.73Zm0,3.548v1.749h5.269v-1.749Z" transform="translate(-354.582 -105.421)" fill="#1a1311"/>
            </g>
          </g>
          <g id="グループ_989" data-name="グループ 989" transform="translate(0 64.613)">
            <g id="グループ_986" data-name="グループ 986" transform="translate(80.242 6.678)">
              <path id="パス_2113" data-name="パス 2113" d="M453.714,215.049c2.093,1.9-1.058,7.606-4.044,6.57a36.509,36.509,0,0,1-6.284-3.352" transform="translate(-390.522 -162.718)" fill="none" stroke="#51a9aa" stroke-linecap="round" stroke-linejoin="round" stroke-width="2.572"/>
              <path id="パス_2114" data-name="パス 2114" d="M461.043,210.826c3.133,3.657-2.638,8.837-6.357,6.169-1.989-1.427-3.163-2.9-5.453-4.824" transform="translate(-389.768 -163.263)" fill="none" stroke="#51a9aa" stroke-linecap="round" stroke-linejoin="round" stroke-width="2.572"/>
              <path id="パス_2115" data-name="パス 2115" d="M439.46,170.736h-.008a26.088,26.088,0,0,0-9.744,1.371c-1.454.438-2.886.946-4.272,1.454-4.025,1.478-7.6,2.964-10.067,2.964l-4.411.008-14.4.031" transform="translate(-396.562 -168.443)" fill="none" stroke="#51a9aa" stroke-linecap="round" stroke-linejoin="round" stroke-width="2.572"/>
              <path id="パス_2116" data-name="パス 2116" d="M411.477,205.979c.2-2.253,5.871-9.1,8.4-10.618,3.465-2.075,8.354,2.409,6.3,5.25-1.708,2.361-5.476,7.793-7.858,11.061C416.457,214.225,411.125,209.952,411.477,205.979Z" transform="translate(-394.64 -165.327)" fill="none" stroke="#51a9aa" stroke-linecap="round" stroke-linejoin="round" stroke-width="2.572"/>
              <path id="パス_2117" data-name="パス 2117" d="M425.418,200.111c2.971-3.429,8.734.114,8.029,3.216-.752,3.314-5.513,9.937-7.288,12.819-2.318,3.761-11.162-.753-8.219-5.321" transform="translate(-393.881 -164.827)" fill="none" stroke="#51a9aa" stroke-linecap="round" stroke-linejoin="round" stroke-width="2.572"/>
              <path id="パス_2118" data-name="パス 2118" d="M438.785,207.694c2.145-1.77,7.914.785,7.892,3.72-.023,2.994-2.486,9.724-4.662,11.452-2.058,1.636-9.216-.709-8.551-3.579" transform="translate(-391.808 -163.742)" fill="none" stroke="#51a9aa" stroke-linecap="round" stroke-linejoin="round" stroke-width="2.572"/>
              <path id="パス_2119" data-name="パス 2119" d="M432.339,203.386c2.338-1.9,7.9.736,7.731,3.712-.2,3.5-4.578,11.321-6.427,14.339-2.187,3.566-11.07-1.034-8.435-5.813" transform="translate(-392.929 -164.306)" fill="none" stroke="#51a9aa" stroke-linecap="round" stroke-linejoin="round" stroke-width="2.572"/>
              <path id="パス_2120" data-name="パス 2120" d="M490.92,200.929c-2.518.018-20.756-.058-20.756-.058" transform="translate(-387.068 -164.547)" fill="none" stroke="#51a9aa" stroke-linecap="round" stroke-linejoin="round" stroke-width="2.572"/>
              <path id="パス_2121" data-name="パス 2121" d="M497.008,176.817c-.608,0-3.087.008-6.135.023-2.617,0-5.642.008-8.266.024l-6.32.016c-1.754-1.054-4.864-2.725-7.789-4.1-1.508-.724-2.971-1.371-4.172-1.817a11.577,11.577,0,0,0-2.086-.624c-1.786-.285-8.883-1.208-14.886-1.531-1.625-.085-3.171-.123-4.511-.1a12.317,12.317,0,0,0-3.918.516,13.758,13.758,0,0,0-2.871,1.77h-.008a35.8,35.8,0,0,0-3.948,3.664.008.008,0,0,0-.008.008c-2.432,2.579-4.734,5.5-6.474,7.744-.638.815-1.208,1.539-1.678,2.124-3.5,4.342,3.356,9.745,7.143,6.474a.7.7,0,0,0,.123-.1c.931-.854,1.855-1.777,2.771-2.694,2.956-2.956,5.8-5.873,8.206-6.6a2.234,2.234,0,0,1,.662-.032c.963.024,2.71.231,4.511.493,2.532.369,5.172.847,5.849,1.062a41.011,41.011,0,0,1,4.457,2.825c1.054.746,2.17,1.577,3.325,2.462,1.924,1.486,3.933,3.11,5.865,4.734,3.333,2.81,6.435,5.611,8.474,7.643a3.991,3.991,0,0,1,.931,4.226c-.893,2.778-4.117,5.1-6.411,3.641" transform="translate(-393.155 -168.697)" fill="none" stroke="#51a9aa" stroke-linecap="round" stroke-linejoin="round" stroke-width="2.572"/>
              <path id="パス_2122" data-name="パス 2122" d="M456.241,196.345l9.916,8.927c4.2,4.332-1.6,10.67-5.161,7.788-1.5-1.22-4.966-4.444-8.047-7.468" transform="translate(-389.289 -165.131)" fill="none" stroke="#51a9aa" stroke-linecap="round" stroke-linejoin="round" stroke-width="2.572"/>
              <path id="パス_2123" data-name="パス 2123" d="M414.594,202.542c-1.176-1.049-3.356-1.474-5.931-1.62H396.621" transform="translate(-396.554 -164.541)" fill="none" stroke="#51a9aa" stroke-linecap="round" stroke-linejoin="round" stroke-width="2.572"/>
            </g>
            <g id="グループ_987" data-name="グループ 987" transform="translate(16.227 10.501)">
              <path id="パス_2124" data-name="パス 2124" d="M349.709,185.882c.365,0,.828-.033,1.77-.065v-2.365h-1.5a10.414,10.414,0,0,1-1.406,4.134l-1.357-1.108a7.037,7.037,0,0,0,1.174-4.549v-3.406h14.173v1.224h-12.5v2.216c0,.065-.017.182-.017.248h12.933v1.24h-1.984l.76.562a17.758,17.758,0,0,1-1.7,1.257,21.389,21.389,0,0,0,2.926.7l-.711,1.67c-4.018-1.124-5.887-2.117-7.574-4.184h-1.521v2.283c1.174-.067,2.1-.166,3.06-.281v1.438c-1.555.264-4.6.513-6.285.612Zm-1.14-12.9h3.886v-.828h1.555v.828h2.316v-.828h1.5v.828h3.919v4.9h-13.18Zm1.587,1.174v.809h2.3v-.809Zm0,1.819v.826h2.3v-.826Zm11.146,4.465v1.075H350.734v-1.075Zm-7.293-6.284v.809h2.316v-.809Zm0,1.819v.826h2.316v-.826Zm2.679,7.475a9.026,9.026,0,0,0,1.769,1.174c.447-.281,1.29-.943,1.588-1.174Zm1.141-9.294v.809h2.348v-.809Zm0,1.819v.826h2.348v-.826Z" transform="translate(-338.913 -172.074)" fill="#51a9aa"/>
              <path id="パス_2125" data-name="パス 2125" d="M362.092,185.892a18.785,18.785,0,0,0,5.59-2.563h-5.605v-1.373h6.846v-.992h-5.689V179.69h5.689V178.7h-6.037v-1.356h3.556a9.257,9.257,0,0,0-.447-1.289h-3.919V174.63h2.6c-.115-.248-.645-1.373-.959-2.051l1.719-.479a12.807,12.807,0,0,1,.992,2.53h1.009V172.2h1.62v2.431h1.439V172.2h1.62v2.431h1.075a17.891,17.891,0,0,0,.91-2.547l1.719.5a13.534,13.534,0,0,1-.909,2.051h2.547v1.423h-4c-.05.182-.348,1.091-.413,1.289h3.754V178.7h-6.2v.992h5.821v1.274h-5.821v.992h6.863v1.373h-5.59a14.436,14.436,0,0,0,5.672,2.547l-.96,1.5a15.148,15.148,0,0,1-5.986-3.275v3.474h-1.671v-3.457a16.481,16.481,0,0,1-5.97,3.241Zm5.656-9.839c.082.2.4,1.108.463,1.289h3.076a6.784,6.784,0,0,0,.364-1.289Z" transform="translate(-336.995 -172.083)" fill="#51a9aa"/>
              <path id="パス_2126" data-name="パス 2126" d="M339.926,196.536c.414,0,.5,0,1.29-.017.331-.4.694-.909.96-1.274a10.461,10.461,0,0,0-2.316-2.117l.86-1.471c.264.2.347.264.528.413a18.927,18.927,0,0,0,1.489-2.746l1.521.546a25.275,25.275,0,0,1-1.868,3.192,8.773,8.773,0,0,1,.761.777c.645-.975.975-1.471,1.67-2.695l1.472.71c-.826,1.357-2.58,3.853-3.175,4.6l1.653-.067c-.165-.595-.2-.679-.3-.975l1.257-.463a17.147,17.147,0,0,1,.86,2.96l-1.406.446c-.034-.264-.05-.38-.084-.595-.2.017-.744.065-.893.082V204.9h-1.6v-6.946c-.843.065-2.117.149-2.546.182Zm2.2,2.646a24.177,24.177,0,0,1-.646,4.63l-1.555-.5a18.613,18.613,0,0,0,.7-4.383Zm3.936-.414a14.929,14.929,0,0,1,.529,3.507l-1.455.231a17.635,17.635,0,0,0-.43-3.39Zm8.913,0v1.621h-3.291v2.331h3.969v1.555H345.98V202.72H350v-2.331h-3.092v-1.621H350v-1.637h1.687v1.637Zm-6.251-7.276a10.17,10.17,0,0,0,2.117,2.316,9.084,9.084,0,0,0,2.117-2.348h-6.366V189.97h8.152v1.489a8.964,8.964,0,0,1-2.513,3.291,9.375,9.375,0,0,0,3.721,1.289l-.579,1.638a16.115,16.115,0,0,1-4.548-1.836,14.914,14.914,0,0,1-3.721,1.819l-.828-1.538a11.97,11.97,0,0,0,3.126-1.34,11.927,11.927,0,0,1-2.1-2.629Z" transform="translate(-339.861 -169.859)" fill="#51a9aa"/>
              <path id="パス_2127" data-name="パス 2127" d="M357.184,191.625c-.165-.265-.545-.843-1.042-1.539l1.555-.76a17.3,17.3,0,0,1,1.472,2.3h2.695c-.132-.248-.562-1.026-1.025-1.7l1.588-.728a17.85,17.85,0,0,1,1.356,2.432h2a13.276,13.276,0,0,0,1.208-2.348l1.7.612a11.411,11.411,0,0,1-1.025,1.736H369.8v3.936h-1.654V193.13H356.721v2.431h-1.7v-3.936Zm10.171,2.463v4.134h-4.069c-.05.149-.331.91-.38,1.076h6.086v5.622H367.3v-.679H357.5v.679h-1.687V199.3h5.276a4.258,4.258,0,0,0,.413-1.076h-4.035v-4.134ZM357.5,200.77v1.952H367.3V200.77Zm1.638-5.341v1.438H365.7v-1.438Z" transform="translate(-337.906 -169.876)" fill="#51a9aa"/>
              <path id="パス_2128" data-name="パス 2128" d="M371.068,196.767a9.723,9.723,0,0,1-1.207,1.423l-.728-2.034a12.157,12.157,0,0,0,3.01-6.83l1.7.248a13.953,13.953,0,0,1-1.092,4.085v11.213h-1.687Zm2.184,3.8a16.6,16.6,0,0,0,4.6-6.714h-4.1v-1.671h4.614v-2.794h1.819v2.794h4.8v1.671H380.66a15.956,15.956,0,0,0,4.581,6.466l-.86,1.919a18.007,18.007,0,0,1-4.2-6.218v4.548h2.283v1.637H380.18v2.663h-1.819v-2.663h-2.232v-1.637h2.232v-4.714a17.472,17.472,0,0,1-4.167,6.517Z" transform="translate(-336.085 -169.859)" fill="#51a9aa"/>
            </g>
            <g id="グループ_988" data-name="グループ 988" transform="translate(191.378 10.532)">
              <path id="パス_2129" data-name="パス 2129" d="M504.63,177.123a13.38,13.38,0,0,1-1.7.645l-.91-1.687a14.631,14.631,0,0,0,7.177-3.97h2.117a12.584,12.584,0,0,0,6.963,4.036l-.893,1.62c-.5-.165-.909-.314-1.868-.727v5.225a5.727,5.727,0,0,0,.711-.71l1.29,1.058a21.186,21.186,0,0,1-3.325,2.448,14.922,14.922,0,0,0,3.705,1.042l-.728,1.654a13.084,13.084,0,0,1-8.435-5.243h-2.4v3.126c1.472-.149,2.994-.315,4.432-.579l.116,1.572c-1.258.214-2.746.463-7.972.975l-.248-1.7c.5,0,1.109-.017,1.969-.1Zm4.663-.811V174.74h1.688v1.572h3.092a19.344,19.344,0,0,1-3.87-2.943,19.909,19.909,0,0,1-4.052,2.943Zm-2.96,1.423v1.025h7.509v-1.025Zm0,2.232v1.124h7.509v-1.124Zm4.234,2.547a7.3,7.3,0,0,0,2.1,1.786,19.693,19.693,0,0,0,2.547-1.786Z" transform="translate(-494.096 -172.111)" fill="#51a9aa"/>
              <path id="パス_2130" data-name="パス 2130" d="M524,184.976c1.969-.084,6-.265,6-5.392a4.26,4.26,0,0,0-4.35-4.565c-.264,2.746-.545,5.706-1.8,8.071-.281.513-1.258,2.331-3.176,2.331-2.167,0-3.258-2.48-3.258-4.8,0-3.985,2.812-7.343,7.723-7.343,5.49,0,6.93,3.771,6.93,6.483,0,6.566-5.871,6.88-7.591,6.962Zm-4.779-4.1c0,1.786.694,2.729,1.522,2.729,2.216,0,2.861-6.186,3.026-8.5C519.819,175.8,519.224,179.419,519.224,180.874Z" transform="translate(-492.109 -171.96)" fill="#51a9aa"/>
              <path id="パス_2131" data-name="パス 2131" d="M510.5,191.8h-6.88v.795h5.524v3.241h-5.524v.727h5.871v2.018H510.6v1.406h-1.109V202.8h-1.719V202h-4.151v1.207a1.465,1.465,0,0,1-1.438,1.637h-2.994l-.247-1.637h2.5c.479,0,.512-.166.512-.513V202h-5.987v-1.224h5.987v-.86H495v-1.273h6.947v-.828h-5.9v-1.257h5.9v-.727h-5.375v-3.241h5.375V191.8h-6.764v-1.372h6.764v-1.059h1.67v1.059h6.88Zm-12.254,1.969v.926h3.7v-.926Zm5.374,0v.926h3.8v-.926Zm0,4.051v.828h4.1v-.828Zm0,2.1v.86h4.151v-.86Z" transform="translate(-495.001 -169.885)" fill="#51a9aa"/>
              <path id="パス_2132" data-name="パス 2132" d="M509.764,203.12a18.763,18.763,0,0,0,5.59-2.564h-5.605v-1.372h6.846v-.992h-5.689v-1.274h5.689v-.992h-6.037V194.57h3.556a9.253,9.253,0,0,0-.447-1.29h-3.919v-1.423h2.6c-.115-.247-.645-1.372-.959-2.05l1.72-.48a12.871,12.871,0,0,1,.992,2.53h1.009v-2.431h1.62v2.431h1.439v-2.431h1.62v2.431h1.075a17.869,17.869,0,0,0,.91-2.546l1.719.5a13.658,13.658,0,0,1-.909,2.05h2.547v1.423h-4c-.05.182-.348,1.092-.414,1.29h3.755v1.356h-6.2v.992h5.822v1.274h-5.822v.992h6.864v1.372h-5.591a14.431,14.431,0,0,0,5.673,2.547l-.96,1.5a15.157,15.157,0,0,1-5.987-3.274v3.473h-1.67v-3.456a16.481,16.481,0,0,1-5.97,3.241Zm5.656-9.84c.082.2.4,1.109.463,1.29h3.076a6.771,6.771,0,0,0,.364-1.29Z" transform="translate(-493.099 -169.892)" fill="#51a9aa"/>
              <path id="パス_2133" data-name="パス 2133" d="M524.025,198.037a27.519,27.519,0,0,0,6.632-2.415h-6.367v-1.5h5.788v-1.836H525.53V190.81h4.548v-1.456h1.753v1.456h3.622v1.14a23.225,23.225,0,0,0,2.184-2.6l1.5.828a22.662,22.662,0,0,1-3.672,3.936h4.515v1.5h-6.533c-.479.331-1.24.794-2.232,1.34h6.9v7.955h-1.687v-.711h-7.259v.711h-1.721V198.7c-1.373.529-1.935.711-2.679.943Zm5.144.38v1.423h7.259v-1.423Zm0,2.794v1.522h7.259v-1.522Zm2.662-8.93v1.836h1.191a19.275,19.275,0,0,0,2.117-1.836Z" transform="translate(-491.257 -169.887)" fill="#51a9aa"/>
            </g>
            <path id="パス_2134" data-name="パス 2134" d="M406.978,168.88a6.1,6.1,0,0,0-6.1-6.1H331.586a6.1,6.1,0,0,0-6.1,6.1v45.262a6.1,6.1,0,0,0,6.1,6.1H400.88a6.1,6.1,0,0,0,6.1-6.1" transform="translate(-325.488 -162.782)" fill="none" stroke="#51a9aa" stroke-linecap="round" stroke-linejoin="round" stroke-width="2.572"/>
            <path id="パス_2135" data-name="パス 2135" d="M480.482,214.142a6.1,6.1,0,0,0,6.1,6.1h69.294a6.1,6.1,0,0,0,6.1-6.1V168.88a6.1,6.1,0,0,0-6.1-6.1H486.58a6.1,6.1,0,0,0-6.1,6.1" transform="translate(-305.495 -162.782)" fill="none" stroke="#51a9aa" stroke-linecap="round" stroke-linejoin="round" stroke-width="2.572"/>
          </g>
        </g>
        <g id="グループ_994" data-name="グループ 994" transform="translate(711.58 118.982)">
          <g id="グループ_991" data-name="グループ 991" transform="translate(0 175.416)">
            <path id="パス_2136" data-name="パス 2136" d="M633.8,269.346a16.72,16.72,0,0,1-1.62.633l-1.9-3.849a21.417,21.417,0,0,0,10.154-5.368H645.3c1.545,1.671,3.774,3.671,10,5.419l-1.848,3.8c-.811-.3-1.267-.481-1.874-.735v6.078l3.039,2.178a31.989,31.989,0,0,1-3.8,3.014,25.362,25.362,0,0,0,4.153.809l-1.671,3.8a23.6,23.6,0,0,1-9.5-4.027l.051,2.507c-1.7.253-4.889.735-12.359,1.266l-.455-3.823c.3,0,2.3-.1,2.76-.128Zm3.8.709v1.114h10.23v-1.114Zm0,3.192v1.19h10.23v-1.19Zm0,3.949v3.5c1.519-.125,3.7-.3,5.139-.506a14.9,14.9,0,0,1-2.556-2.99Zm3.342-9.8v-2.1h3.7v2.1h3.266a31.837,31.837,0,0,1-5.166-4.027,22.1,22.1,0,0,1-5.114,4.027Zm3.621,9.8a15.767,15.767,0,0,0,2.634,1.875c.684-.532,1.6-1.242,2.3-1.875Z" transform="translate(-630.281 -260.762)" fill="#fff"/>
            <path id="パス_2137" data-name="パス 2137" d="M664.151,279.811c2.736-.2,8.382-.658,8.382-7.472,0-4.229-2.456-6.025-5.344-6.255-.126,2.2-1.089,15.448-7.876,15.448-3.419,0-5.546-3.469-5.546-7.446,0-5.6,3.925-11.8,12.282-11.8,5.823,0,10.712,3.191,10.712,10.408a10.551,10.551,0,0,1-3.443,8.2c-2.482,2.178-6.333,2.583-7.674,2.734Zm-6.382-5.775c0,.963.278,3.241,1.723,3.241,1.924,0,3.367-4.963,3.849-11.014C657.769,267.883,657.769,273.4,657.769,274.036Z" transform="translate(-627.251 -260.565)" fill="#fff"/>
            <path id="パス_2138" data-name="パス 2138" d="M691.413,283.562h-4.28V273.23A42.741,42.741,0,0,1,678.676,277l-2.229-3.419a38.249,38.249,0,0,0,18.689-12.308l3.645,2.507a51.559,51.559,0,0,1-7.369,6.584Z" transform="translate(-624.326 -260.696)" fill="#fff"/>
            <path id="パス_2139" data-name="パス 2139" d="M699.62,280.3c9.066-2.33,14.46-9.472,16.663-18.663l4.61,1.164c-2.558,8.027-6.61,16.992-18.842,21.1Z" transform="translate(-621.337 -260.649)" fill="#fff"/>
            <path id="パス_2140" data-name="パス 2140" d="M721.267,272.981c.963-.988,1.267-1.394,4.153-4.939,2.1-2.582,3.394-4.078,5.37-4.078,1.746,0,3.241,1.47,3.773,2.052L745.5,277.842l-3.14,3.671L732.31,269.891c-.609-.684-.963-1.114-1.495-1.114a1.715,1.715,0,0,0-1.267.885c-.835,1.089-4.354,6.054-5.089,7.042Zm18.133-5.192a34.6,34.6,0,0,0-2.457-3.622L738.868,263a21.1,21.1,0,0,1,2.557,3.417Zm3.267-1.9a18.725,18.725,0,0,0-2.558-3.417l1.976-1.216a18.16,18.16,0,0,1,2.607,3.266Z" transform="translate(-618.545 -260.698)" fill="#fff"/>
            <path id="パス_2141" data-name="パス 2141" d="M767.113,269.531v4.229H744.777v-4.229Z" transform="translate(-615.512 -259.631)" fill="#fff"/>
            <path id="パス_2142" data-name="パス 2142" d="M775.217,274.341a34.065,34.065,0,0,0-7.469-2.964l1.418-3.393a30.6,30.6,0,0,1,7.6,2.734Zm-6.128,4.812c8.155-.71,13.65-2.38,17.018-13.725l3.8,1.822c-4,11.954-10.18,15.119-19.7,16.259Zm8.358-10.915a33.483,33.483,0,0,0-7.751-2.785l1.445-3.368a33.009,33.009,0,0,1,7.9,2.557Z" transform="translate(-612.549 -260.591)" fill="#fff"/>
            <path id="パス_2143" data-name="パス 2143" d="M808.326,266.1v16.461h-15.5v-3.5h11.649v-3.191H793.461v-3.343h11.014v-3.013H793.081V266.1Z" transform="translate(-609.314 -260.073)" fill="#fff"/>
            <path id="パス_2144" data-name="パス 2144" d="M821.286,269.97a33.4,33.4,0,0,0-7.979-3.925l1.824-3.443a33.46,33.46,0,0,1,8.306,3.645Zm-7.623,9.041c9.85-.786,15.042-4.533,17.93-14.739l3.823,1.9c-3.924,13.219-11.75,15.954-20.411,17.194Z" transform="translate(-606.673 -260.525)" fill="#fff"/>
            <path id="パス_2145" data-name="パス 2145" d="M688.582,298.339H678.553v.936h8.078v5.014h-8.078v.835h8.635v2.939h1.546v2.861h-1.546v4.331h-3.773V314.04h-4.861v2.025c0,1.241-.557,2.406-2.076,2.406h-5.5l-.633-3.115h3.875c.532,0,.659-.254.659-.709v-.607h-8.813v-2.331h8.813v-.961H664.625v-2.533h10.257V307.3h-8.763v-2.179h8.763v-.835h-7.928v-5.014h7.928v-.936h-9.953v-2.66h9.953v-1.29h3.671v1.29h10.029Zm-18.006,2.912v1.114h4.306v-1.114Zm7.977,0v1.114h4.432v-1.114Zm0,6.053v1.013h4.861V307.3Zm0,3.368v1.038h4.861v-1.038Z" transform="translate(-625.851 -256.424)" fill="#fff"/>
            <path id="パス_2146" data-name="パス 2146" d="M687.349,314.841a29.855,29.855,0,0,0,7.37-2.734H687.5v-2.938h10.08v-1.013h-8.434v-2.431h8.434v-1.014h-9.117v-2.837h5.115a6.911,6.911,0,0,0-.507-1.29H687.5v-3.14h3.166a17.43,17.43,0,0,0-1.113-2.3l3.671-.685a14.835,14.835,0,0,1,1.088,2.99H695.4v-2.913h3.343v2.913h1.418v-2.913h3.368v2.913h1.014a18.78,18.78,0,0,0,1.089-2.99l3.671.685a20.924,20.924,0,0,1-1.039,2.3h3.039v3.14h-5.521l-.43,1.29h5.115v2.837h-9.143v1.014h8.458v2.431h-8.458v1.013h9.978v2.938H704.09a22.726,22.726,0,0,0,7.494,2.608l-1.873,3.5c-3.95-1.216-5.749-2.051-8.383-4.432v4.635h-3.747v-4.533c-1.773,1.57-3.419,2.76-8.434,4.356Zm9.623-14.257c.076.2.405,1.114.482,1.29h4.128a7.738,7.738,0,0,0,.4-1.29Z" transform="translate(-622.92 -256.416)" fill="#fff"/>
            <path id="パス_2147" data-name="パス 2147" d="M710.1,313.735h13.269a82.814,82.814,0,0,0,2.862-11.573l4.331.658a75.9,75.9,0,0,1-3.115,10.915H734v3.8H710.1Zm9.85-19.346h4.128V297.7h9.345v3.8H710.677v-3.8h9.269Zm-2.253,7.875a42.845,42.845,0,0,1,2.2,10.055l-4.1.607a35.3,35.3,0,0,0-1.9-9.776Z" transform="translate(-619.986 -256.424)" fill="#fff"/>
            <path id="パス_2148" data-name="パス 2148" d="M743.307,295.149c-.076,1.012-.152,1.747-.279,2.734h12.028v3.7H742.5a19.926,19.926,0,0,1-.658,3.241,12.529,12.529,0,0,1,5.546-1.393c3.6,0,7.293,1.823,7.293,6.61,0,7.09-7.9,7.445-13.776,7.445-1.165,0-1.874-.025-2.71-.051l-.785-3.849a40.45,40.45,0,0,0,4.254.177c4.482,0,8.762-.152,8.762-3.671,0-2.506-2.3-2.938-3.6-2.938a8.15,8.15,0,0,0-6.078,2.406,5.2,5.2,0,0,0-.3.886l-4.228-1.089a34.711,34.711,0,0,0,2-7.774h-4.633v-3.7H738.7c.125-1.164.151-2.076.176-2.912Z" transform="translate(-616.956 -256.349)" fill="#fff"/>
            <path id="パス_2149" data-name="パス 2149" d="M768.812,294.434v6.557h9.268v3.976h-9.268v8.711h10.561v3.95H755.365v-3.95h9.371V294.434Z" transform="translate(-614.147 -256.419)" fill="#fff"/>
            <path id="パス_2150" data-name="パス 2150" d="M784.194,295.711a52.089,52.089,0,0,0-.936,10.561,43.011,43.011,0,0,0,.987,10.359l-4.1.531a39.815,39.815,0,0,1-.886-9.548,104.535,104.535,0,0,1,.835-12.232Zm8.281,4.938c.025-1.367,0-2.557-.1-4.887h2.659a23.969,23.969,0,0,1,.583,3.469l.962-.177v1.6h4.306v3.8h-4.229c.025,3.976.051,6.331-1.039,8.357-.481.911-2.431,4.026-8.636,4.938l-1.773-3.6c5.572-.937,7.37-2.43,7.37-6.71v-2.988h-7.37v-3.8Zm4.026-2.05a21.633,21.633,0,0,0-.861-3.875l2.154-.229a15.634,15.634,0,0,1,.961,3.774Zm3.419-.254a19.318,19.318,0,0,0-.962-3.95l2.128-.253a13.982,13.982,0,0,1,.961,3.9Z" transform="translate(-611.065 -256.456)" fill="#fff"/>
          </g>
          <g id="グループ_993" data-name="グループ 993" transform="translate(9.716)" style="isolation: isolate">
            <g id="グループ_992" data-name="グループ 992">
              <path id="パス_2151" data-name="パス 2151" d="M663.7,109.539H652.683v1.27h8.843V116h-8.843v1.165h9.4v3.23h1.774v2.251h-1.774v4.5h-2.754v-1.271h-6.645v1.933a2.347,2.347,0,0,1-2.3,2.623h-4.793l-.4-2.623h4c.769,0,.822-.264.822-.82v-1.113h-9.586v-1.959h9.586v-1.377H638.887V120.5h11.122v-1.324h-9.453v-2.012h9.453V116H641.4v-5.19h8.605v-1.27H639.179v-2.2h10.829v-1.693h2.675v1.693H663.7Zm-19.621,3.151v1.481h5.932V112.69Zm8.606,0v1.481h6.089V112.69Zm0,6.486V120.5h6.565v-1.324Zm0,3.362v1.377h6.645v-1.377Z" transform="translate(-638.887 -105.355)" fill="#fff"/>
              <path id="パス_2152" data-name="パス 2152" d="M662.532,127.661a30.1,30.1,0,0,0,8.948-4.1h-8.975v-2.2h10.961V119.77h-9.108v-2.039h9.108v-1.587H663.8v-2.172H669.5a15.109,15.109,0,0,0-.716-2.065h-6.275V109.63h4.157c-.185-.4-1.033-2.2-1.536-3.283l2.755-.769a20.6,20.6,0,0,1,1.589,4.052h1.616v-3.892h2.594v3.892h2.3v-3.892h2.6v3.892H680.3a28.887,28.887,0,0,0,1.456-4.078l2.754.795a21.911,21.911,0,0,1-1.456,3.283h4.078v2.277h-6.408c-.079.29-.555,1.748-.662,2.065h6.01v2.172h-9.928v1.587h9.32v2.039h-9.32v1.588h10.988v2.2h-8.95a23.1,23.1,0,0,0,9.082,4.077l-1.535,2.41a24.26,24.26,0,0,1-9.585-5.243v5.56h-2.675v-5.534a26.38,26.38,0,0,1-9.559,5.191Zm9.055-15.754c.132.317.636,1.774.741,2.065h4.926a10.843,10.843,0,0,0,.583-2.065Z" transform="translate(-635.841 -105.367)" fill="#fff"/>
              <path id="パス_2153" data-name="パス 2153" d="M685.817,126.694h14.352a79.944,79.944,0,0,0,3.177-13.08l3.019.476a76.636,76.636,0,0,1-3.415,12.6h7.73v2.754H685.817Zm10.909-21.236h2.913V109.7H709.78v2.752H686.77V109.7h9.957ZM693.02,113.8a49.891,49.891,0,0,1,2.673,11.172l-3.019.452a43.718,43.718,0,0,0-2.382-10.962Z" transform="translate(-632.834 -105.379)" fill="#fff"/>
              <path id="パス_2154" data-name="パス 2154" d="M719.151,106.517c-.026.847-.053,1.774-.185,3.309h13.16v2.623H718.7a23.891,23.891,0,0,1-.9,4.711,13.13,13.13,0,0,1,6.7-1.747c5.72,0,7.308,4.051,7.308,6.672a6.385,6.385,0,0,1-4.5,6.036c-2.145.716-4.21.981-9.082,1.007-1.616,0-2.145-.053-2.966-.079l-.555-2.727c.9.053,2.3.132,3.865.132,5.613,0,10.115-.637,10.115-4.634,0-2.356-1.774-3.708-4.474-3.708-2.515,0-5.428.822-7.123,2.755l-.344.927-2.913-.61a35.937,35.937,0,0,0,1.907-8.736h-5.481v-2.623h5.719a29.755,29.755,0,0,0,.053-3.336Z" transform="translate(-629.681 -105.246)" fill="#fff"/>
              <path id="パス_2155" data-name="パス 2155" d="M746.148,105.646v8h9.929v2.833h-9.929V126.8h11.623v2.781H732.723V126.8h10.512V105.646Z" transform="translate(-626.783 -105.355)" fill="#fff"/>
              <path id="パス_2156" data-name="パス 2156" d="M761.421,107.162a62.661,62.661,0,0,0-.928,11.65,43.754,43.754,0,0,0,.875,10.062l-2.834.318a37.383,37.383,0,0,1-.927-9.77,109.215,109.215,0,0,1,.795-12.472Zm10.485,5.376c0-2.225-.053-3.656-.132-5.4h2.938c.107,3.309.16,5.083.16,5.4h4.791v2.62h-4.819c.08,5.507.133,7.705-.795,9.584-.926,1.908-3.866,4.264-9.187,5.059l-1.086-2.623a14.271,14.271,0,0,0,4.9-1.35c2.383-1.165,3.284-2.541,3.284-6.274,0-.133-.053-3.709-.053-4.4h-8.473v-2.62Zm4.342-2.41a21.742,21.742,0,0,0-.9-4.21l1.88-.238a16.561,16.561,0,0,1,1.006,4.21Zm3.283-.37a17.509,17.509,0,0,0-.953-4.105l1.906-.264a18.467,18.467,0,0,1,.927,4.131Z" transform="translate(-623.573 -105.388)" fill="#fff"/>
              <path id="パス_2157" data-name="パス 2157" d="M785.409,124.8a17.749,17.749,0,0,1-4.21,5.693l-1.828-2.04A18.026,18.026,0,0,0,783,123.736ZM781.6,105.6h2.516v2.382h5.031V105.6h2.515v2.382h1.561V110.5h-1.561v10.4h1.561v2.437h-13.61V120.9H781.6V110.5h-1.509v-2.517H781.6Zm2.516,4.9v1.88h5.031V110.5Zm0,4.1v1.961h5.031V114.6Zm0,4.079V120.9h5.031v-2.223Zm4.818,5.084a13.867,13.867,0,0,1,2.728,3.362l-1.934,1.695a26.327,26.327,0,0,0-2.62-3.653Zm12.207-1.112H796.37a17.484,17.484,0,0,1-3.151,7.837l-2.3-1.8c1.88-2.647,3.363-5.163,3.363-13.663V106.42h9.479v21.95c0,2.119-1.43,2.119-2.251,2.119h-3.389l-.423-2.676h2.6c.608,0,.847-.211.847-.794Zm-4.289-6.912-.186,4.369h4.475V115.74Zm0-6.832v4.369h4.289v-4.369Z" transform="translate(-620.766 -105.361)" fill="#fff"/>
              <path id="パス_2158" data-name="パス 2158" d="M804,106.561h10.062v9.664H806.62v14.086H804Zm2.623,2.17v1.748h4.87v-1.748Zm0,3.548v1.748h4.87v-1.748Zm14.932,5.454v9.823H809.266v-9.823Zm-9.8,2.145v1.828h7.282v-1.828Zm0,3.6v1.906h7.282V123.48Zm12.5-7.255h-7.839v-9.664H826.9v21.261c0,.742,0,2.489-1.774,2.489h-4.052l-.423-2.649h2.993c.317,0,.609-.106.609-.636Zm-5.269-7.494v1.748h5.269v-1.748Zm0,3.548v1.748h5.269v-1.748Z" transform="translate(-617.59 -105.237)" fill="#fff"/>
            </g>
          </g>
          <path id="パス_2159" data-name="パス 2159" d="M678.348,246.471l39.962-39.962,20.206,20.206,60.044-60.044H785.5" transform="translate(-624.081 -97.483)" fill="#51a9aa" stroke="#fff" stroke-linecap="round" stroke-linejoin="round" stroke-width="3.454"/>
        </g>
      </g>
    </g>
  </g>
</svg>
