<svg xmlns="http://www.w3.org/2000/svg" width="335.574" height="459.698" viewBox="0 0 335.574 459.698">
  <g id="アートワーク_52" data-name="アートワーク 52" transform="translate(167.5 229.849)">
    <g id="グループ_1122" data-name="グループ 1122" transform="translate(-167.5 -229.849)">
      <rect id="長方形_6498" data-name="長方形 6498" width="298.071" height="171.688" transform="translate(36.929 30.895)" fill="#e5e5e5" stroke="#5a696f" stroke-miterlimit="10" stroke-width="1.148"/>
      <path id="パス_2513" data-name="パス 2513" d="M62.383,114.245l-44.029.1.048,229.49H31.633" transform="translate(0.299 1.858)" fill="none" stroke="#5b6a71" stroke-miterlimit="10" stroke-width="2.226"/>
      <g id="グループ_1108" data-name="グループ 1108" transform="translate(137.57)">
        <path id="パス_2514" data-name="パス 2514" d="M142.411,3.247V.32h1.331V3.247h6.9v1.28h-6.179a15.829,15.829,0,0,0,6.342,6.88l-.783,1.321a18.056,18.056,0,0,1-6.281-7.287v5.823h3.435v1.24h-3.435v2.917h-1.331V12.505h-3.4v-1.24h3.4V5.513a18.67,18.67,0,0,1-6.23,7.276l-.813-1.28A16.23,16.23,0,0,0,141.7,4.548h-6.128V3.267h6.85Z" transform="translate(-135.368 0.005)" fill="#1b1311"/>
        <path id="パス_2515" data-name="パス 2515" d="M154.021,13.24c7.144-1.057,9.024-5.031,9.614-9.716H152.578V2.142h11.047a1.138,1.138,0,0,1-.03-.295,1.692,1.692,0,1,1,1.6,1.7c-.7,5.742-3.252,9.716-10.488,11.108l-.671-1.413Zm10.4-11.382a.864.864,0,1,0,.864-.864A.857.857,0,0,0,164.418,1.857Z" transform="translate(-135.088 0.002)" fill="#1b1311"/>
        <path id="パス_2516" data-name="パス 2516" d="M181.225,2.14V13.858H168.908V2.14ZM179.66,3.573h-9.228v8.852h9.228Z" transform="translate(-134.822 0.035)" fill="#1b1311"/>
        <path id="パス_2517" data-name="パス 2517" d="M184.358,7.022A11.573,11.573,0,0,0,189.5.681l1.626.264A15,15,0,0,1,190.09,3.11h7.175c-1.657,9.959-8.72,11.27-11.4,11.779l-.63-1.352c3.659-.549,8.313-1.972,10.213-9.065h-6.23a12.074,12.074,0,0,1-3.9,3.679l-.945-1.118Zm11.077-4.339a14.271,14.271,0,0,0-.874-2.3l1.077-.274a14.572,14.572,0,0,1,.945,2.276l-1.138.295Zm2.226-.132a15.98,15.98,0,0,0-.925-2.276L197.824,0a16.055,16.055,0,0,1,.976,2.226l-1.138.325Z" transform="translate(-134.571)" fill="#1b1311"/>
        <path id="パス_2518" data-name="パス 2518" d="M213.538,5.292c-.569,4.99-2.419,8.7-10.59,9.533l-.6-1.352c4.746-.437,8.659-1.646,9.472-6.819h-11.4V5.292h13.12ZM212.623,1.4V2.762H201.577V1.41h11.047Z" transform="translate(-134.31 0.023)" fill="#1b1311"/>
        <path id="パス_2519" data-name="パス 2519" d="M226.047,6.783a32.954,32.954,0,0,1,4.218,7.419l-1.565.65a12.58,12.58,0,0,0-.589-1.575c-2.144.3-6.209.711-11.86.955l-.142-1.565c.63.02,1,.02,1.524,0A91.723,91.723,0,0,0,221.24.99l1.768.224a99.355,99.355,0,0,1-3.811,11.4c5.031-.193,7.774-.467,8.344-.539a29.4,29.4,0,0,0-2.795-4.685l1.28-.62Z" transform="translate(-134.055 0.016)" fill="#1b1311"/>
      </g>
      <g id="グループ_1109" data-name="グループ 1109" transform="translate(114.409 444.718)">
        <path id="パス_2520" data-name="パス 2520" d="M114.021,450.74c7.144-1.057,9.024-5.031,9.614-9.715H112.578v-1.382h11.047a1.138,1.138,0,0,1-.03-.295,1.692,1.692,0,1,1,1.6,1.7c-.7,5.742-3.252,9.716-10.488,11.108l-.671-1.413Zm10.4-11.382a.864.864,0,1,0,.864-.864A.857.857,0,0,0,124.418,439.357Z" transform="translate(-112.578 -437.599)" fill="#1b1311"/>
        <path id="パス_2521" data-name="パス 2521" d="M141.225,439.64v11.707H128.908V439.64Zm-1.565,1.433h-9.228v8.852h9.228Z" transform="translate(-112.312 -437.567)" fill="#1b1311"/>
        <path id="パス_2522" data-name="パス 2522" d="M149.112,445.811a23.531,23.531,0,0,0-4.634-1.921l.6-1.3a23,23,0,0,1,4.654,1.809Zm-4.014,4.655c6.718-.589,9.482-2.835,11.585-9.126l1.4.62c-2.094,6.016-4.929,9.157-12.348,10.041l-.63-1.524Zm5.3-8.445a22.991,22.991,0,0,0-4.634-1.85l.62-1.3a26.924,26.924,0,0,1,4.685,1.778l-.671,1.382Zm5.142-1.169a12.139,12.139,0,0,0-1.037-2.49l1.108-.325a9.2,9.2,0,0,1,1.087,2.429Zm2.165-.549a12.18,12.18,0,0,0-1.108-2.358l1.077-.346a10.763,10.763,0,0,1,1.118,2.3Z" transform="translate(-112.059 -437.6)" fill="#1b1311"/>
        <path id="パス_2523" data-name="パス 2523" d="M171.914,442.33v1.27h-4.146v6.555h4.868v1.27h-11.1v-1.27h4.868V443.6h-4.167v-1.27Z" transform="translate(-111.782 -437.523)" fill="#1b1311"/>
        <path id="パス_2524" data-name="パス 2524" d="M189.436,440.508c-1.189,6.748-4.665,10.732-11.514,11.89l-.62-1.352c6.555-1.087,8.984-4.339,10.234-9.177h-6.209a17.339,17.339,0,0,1-3.984,3.852l-.925-1.118a13.138,13.138,0,0,0,5.315-6.474l1.606.295a11.576,11.576,0,0,1-1.057,2.083Z" transform="translate(-111.54 -437.591)" fill="#1b1311"/>
        <path id="パス_2525" data-name="パス 2525" d="M197.763,438.22v4.309a34.033,34.033,0,0,1,8.293,3.628l-.783,1.443a34,34,0,0,0-7.52-3.557v8.526h-1.565V438.22h1.575Z" transform="translate(-111.218 -437.59)" fill="#1b1311"/>
        <path id="パス_2526" data-name="パス 2526" d="M216.593,443.676h5.468v1.362h-5.468c-.03,3.953-2.033,6.2-6.911,7.276l-.671-1.3c2.764-.518,4.38-1.484,5.152-2.622a7,7,0,0,0,.864-3.354h-6.85v-1.362h6.85v-2.815c-1.951.264-3.872.386-5.844.467l-.295-1.321a44.306,44.306,0,0,0,11.179-1.677l.793,1.352c-1.87.488-2.358.569-4.278.925v3.059Z" transform="translate(-111.023 -437.588)" fill="#1b1311"/>
        <path id="パス_2527" data-name="パス 2527" d="M238.329,444.41v1.565H223.888V444.41Z" transform="translate(-110.767 -437.489)" fill="#1b1311"/>
        <path id="パス_2528" data-name="パス 2528" d="M250.047,444.283a32.953,32.953,0,0,1,4.217,7.419l-1.565.65a12.58,12.58,0,0,0-.589-1.575c-2.144.3-6.209.711-11.86.955l-.142-1.565c.63.02,1,.02,1.524,0a91.727,91.727,0,0,0,3.608-11.677l1.768.224a99.356,99.356,0,0,1-3.811,11.4c5.031-.193,7.774-.467,8.344-.539a29.4,29.4,0,0,0-2.795-4.685l1.28-.62Z" transform="translate(-110.503 -437.586)" fill="#1b1311"/>
      </g>
      <g id="グループ_1110" data-name="グループ 1110" transform="translate(57.925 220.505)">
        <path id="パス_2529" data-name="パス 2529" d="M58.37,220.368v-.722H61.3v-.722h.823v.722h2.988v.722H62.12v.874h3.354v.7H62.1a5.574,5.574,0,0,1-.152.925h4.492v.752H62.659c.528.793,1.362,1.626,3.791,2.094l-.325.844c-2.337-.549-3.679-1.6-4.339-2.937h-.1c-.3.671-1.037,2.124-4.319,2.907L57,225.693c1.992-.4,3.232-1.037,3.8-2.073h-3.73v-.752h4.024a4.5,4.5,0,0,0,.173-.925H58.024v-.7H61.3v-.874Zm3.821-3.283v.772h4.024v2.114h-.843V218.63H58.126v1.341h-.833v-2.114h4v-.772Z" transform="translate(-56.998 -216.973)" fill="#1b1311"/>
        <path id="パス_2530" data-name="パス 2530" d="M66.818,222.331a8.961,8.961,0,0,0,2.632-3.222l.722.366a11.517,11.517,0,0,1-1.077,1.768v5.264h-.864V222.27a9.062,9.062,0,0,1-1.087,1Zm.03-2.978a6.253,6.253,0,0,0,2.307-2.378l.722.335a7.816,7.816,0,0,1-2.581,2.856Zm9.573,1.778H74.786v4.543c0,.579-.183.833-.9.833H72.133l-.152-.925,1.646.02c.213,0,.3-.041.3-.285v-4.187H70.273v-.823h6.148v.823Zm-.4-2.825H70.7v-.793h5.325Z" transform="translate(-56.838 -216.975)" fill="#1b1311"/>
        <path id="パス_2531" data-name="パス 2531" d="M81.379,218.782v.742H76.968v-.742Zm-.3-1.453v.732H77.3v-.732Zm0,2.846v.742H77.3v-.742Zm0,1.514v.711H77.3v-.711Zm0,1.484v2.907h-3v.447H77.3v-3.354Zm-.752.691H78.076v1.484h2.246Zm3.974,2.663h-.874v-5.681H81.379v-.864h2.043v-2.907H84.3v2.907h2.124v.864H84.3Z" transform="translate(-56.673 -216.973)" fill="#1b1311"/>
        <path id="パス_2532" data-name="パス 2532" d="M96.368,218.187h-4.3V219.2h2.256v5.142H89.041V219.2h2.246v-1.016H86.968v-.762h9.39v.762Zm-8.161.915v6.148h6.951V219.1h.823v7.409h-.823V226H88.208v.508h-.823V219.1Zm3.079.793H89.814v1.474h1.474Zm0,2.144H89.814v1.616h1.474Zm2.256-2.144H92.07v1.474h1.474Zm0,2.144H92.07v1.616h1.474Z" transform="translate(-56.51 -216.968)" fill="#1b1311"/>
        <path id="パス_2533" data-name="パス 2533" d="M102.032,219.484v.539h4.319v.722h-4.319v.742h3.618v1.778c0,.264,0,.752-.711.752h-.945l-.193-.793.783.02c.213,0,.234-.1.234-.274V222.2h-2.785v.03a8.333,8.333,0,0,0,4.451,3l-.407.8a9.407,9.407,0,0,1-4.045-2.774V226.5h-.8v-3.161a9.455,9.455,0,0,1-4.024,2.7l-.407-.793a8.085,8.085,0,0,0,4.431-3V222.2H98.475v1.7h-.844v-2.409h3.6v-.742H96.92v-.722h4.309v-.539h.478l-.569-.437a4.528,4.528,0,0,0,1.392-1.992l.783.132a3.544,3.544,0,0,1-.244.6h3.242v.732h-2.124a5.826,5.826,0,0,1,.407.833l-.772.295a7.478,7.478,0,0,0-.478-1.128h-.711a6.009,6.009,0,0,1-.823.965Zm-.589-1.7v.732H99.816a5.314,5.314,0,0,1,.366.823l-.8.295A8.339,8.339,0,0,0,99,218.518h-.478a5.579,5.579,0,0,1-1.138,1.209l-.559-.579a5.091,5.091,0,0,0,1.6-2.094l.8.142a6.059,6.059,0,0,1-.254.589Z" transform="translate(-56.351 -216.974)" fill="#1b1311"/>
        <path id="パス_2534" data-name="パス 2534" d="M111.168,220.744h-3v-.793h6.85v.793h-3.008V222.5h3.272v.772h-3.272v2.144a6.255,6.255,0,0,0,.823.051h3.6l-.163.813h-3.628a4.253,4.253,0,0,1-3.791-1.972,5.957,5.957,0,0,1-1.524,2.154l-.559-.722a7.221,7.221,0,0,0,2.063-4.248l.833.122a8.084,8.084,0,0,1-.467,1.88,3.691,3.691,0,0,0,1.972,1.728v-4.482Zm.864-3.669v.884h4.1V220.3h-.843v-1.545h-7.368V220.3h-.833v-2.337h4.065v-.884Z" transform="translate(-56.188 -216.973)" fill="#1b1311"/>
        <path id="パス_2535" data-name="パス 2535" d="M122.376,221.729a.864.864,0,1,1-.864-.864A.863.863,0,0,1,122.376,221.729Z" transform="translate(-55.963 -216.912)" fill="#1b1311"/>
        <path id="パス_2536" data-name="パス 2536" d="M75.128,230.5H70.88v.6h3.364v1.941H70.88v.528h3.587v1.26h.722v.691h-.722v1.789h-.823v-.488H70.88v.8a.781.781,0,0,1-.884.884H68.36l-.112-.823h1.484c.254.01.335-.061.335-.3v-.559H66.378v-.64h3.689v-.671H65.758v-.661h4.309v-.661H66.408v-.62h3.659v-.528H66.734V231.1h3.333v-.6h-4.2v-.691h4.2v-.7h.813v.7h4.248v.691Zm-5.061,1.179h-2.52v.762h2.52Zm3.333,0H70.88v.762H73.4Zm.244,2.51H70.88v.661h2.764Zm0,1.321H70.88v.671h2.764Z" transform="translate(-56.855 -216.778)" fill="#1b1311"/>
        <path id="パス_2537" data-name="パス 2537" d="M84.67,238.343a9.592,9.592,0,0,1-3.8-2.185v2.358h-.8v-2.368a9.417,9.417,0,0,1-3.811,2.175l-.447-.732a9.466,9.466,0,0,0,3.648-1.819H75.778v-.681h4.289v-.742H76.449v-.65h3.618v-.711H76.2v-.671h2.388a7.884,7.884,0,0,0-.335-.976h-2.48v-.691h1.758a13.011,13.011,0,0,0-.681-1.291l.823-.274a8.2,8.2,0,0,1,.722,1.565h.752v-1.575h.793v1.575h1.047v-1.575h.793v1.575h.722a11.725,11.725,0,0,0,.742-1.565l.823.274c-.142.3-.457.884-.711,1.291h1.789v.691h-2.52c-.132.437-.2.65-.315.976h2.449v.671H80.869v.711h3.648v.65H80.869v.742h4.278v.681H81.489a8.116,8.116,0,0,0,3.659,1.809l-.478.762Zm-3.191-6.026a5.846,5.846,0,0,0,.285-.976H79.111c.051.142.274.823.335.976Z" transform="translate(-56.693 -216.778)" fill="#1b1311"/>
        <path id="パス_2538" data-name="パス 2538" d="M87.906,238.516h-.864v-5.5a6.482,6.482,0,0,1-1.026,1.179l-.467-.894a9.171,9.171,0,0,0,2.49-4.217l.833.142a11.5,11.5,0,0,1-.965,2.378Zm7.043-6.88a13.366,13.366,0,0,1-3.9,1.972v3.435c0,.366.051.447.447.447h2.236c.376,0,.539,0,.549-1.85l.874.213c-.01,2.47-.64,2.47-1.179,2.47h-2.8c-.4,0-.976-.051-.976-.844v-8.4h.854v3.679a11.36,11.36,0,0,0,3.333-1.809l.569.691Z" transform="translate(-56.534 -216.778)" fill="#1b1311"/>
        <path id="パス_2539" data-name="パス 2539" d="M104.713,238.4a11.883,11.883,0,0,1-4.339-1.514,12.59,12.59,0,0,1-4.278,1.555l-.4-.915a10.54,10.54,0,0,0,3.923-1.189,8.244,8.244,0,0,1-1.941-2.368l.7-.407a7.638,7.638,0,0,0,2.012,2.287,8.073,8.073,0,0,0,2.185-2.581H96.461v-.8h3.486v-1.443H95.678v-.8h4.268v-1.159h.833v1.159h4.3v.8h-4.3v1.443h2.8v.8a9.27,9.27,0,0,1-2.439,3.069,9.545,9.545,0,0,0,3.923,1.169l-.356.894Z" transform="translate(-56.369 -216.778)" fill="#1b1311"/>
        <path id="パス_2540" data-name="パス 2540" d="M108.6,234.247a7.967,7.967,0,0,1-.9.417v3.059c0,.274-.01.772-.783.772H105.8l-.1-.833h.884c.173,0,.285,0,.285-.274v-2.409a9.842,9.842,0,0,1-1.22.366l-.081-.864a11.2,11.2,0,0,0,1.3-.366V231.7h-1.22v-.752h1.22v-1.85h.823v1.85h.945v.752h-.945v2.134l.894-.366v.783Zm-.579,3.7a6.806,6.806,0,0,0,2.3-3.72H108.82v-.681h1.616a6.983,6.983,0,0,0,.051-.813h-1.514v-.671h4.167a11.512,11.512,0,0,0,.986-1.9l.762.285a9.718,9.718,0,0,1-.854,1.616h.813v.671h-3.577a6.485,6.485,0,0,1-.041.813h3.831v.681h-3.943c-.081.346-.152.579-.213.762h3.6v.65a4.227,4.227,0,0,1-1.311,1.524,8.314,8.314,0,0,0,2.033.528l-.417.823a8.2,8.2,0,0,1-2.348-.884,9.382,9.382,0,0,1-2.358.864l-.335-.783a7.06,7.06,0,0,0,1.982-.559,4,4,0,0,1-.965-1.016l.661-.356a3.364,3.364,0,0,0,1.006.986,4.255,4.255,0,0,0,1.169-1.138H110.67a7.957,7.957,0,0,1-2.063,2.907Zm.63-8.262a24.291,24.291,0,0,0,5.813-.589l.356.722a28.5,28.5,0,0,1-5.935.64l-.234-.772Zm.976,2.307a5.89,5.89,0,0,0-.478-1.2l.8-.2a5.4,5.4,0,0,1,.467,1.209l-.793.193Zm1.992-.091a5.711,5.711,0,0,0-.478-1.291l.833-.183a6.127,6.127,0,0,1,.447,1.291Z" transform="translate(-56.208 -216.778)" fill="#1b1311"/>
      </g>
      <g id="グループ_1111" data-name="グループ 1111" transform="translate(194.898 225.591)">
        <path id="パス_2541" data-name="パス 2541" d="M197.439,231.072a21.431,21.431,0,0,0-4.2-4.248l.691-.589a18.23,18.23,0,0,1,2.022,1.636,9.058,9.058,0,0,0,3.364-3.557h-7.541v-.864h8.953a9.651,9.651,0,0,1-4.167,5.031,22.718,22.718,0,0,1,1.707,1.931l-.844.661Z" transform="translate(-191.778 -221.956)" fill="#1b1311"/>
        <path id="パス_2542" data-name="パス 2542" d="M203.711,227.728a8.631,8.631,0,0,0-.813-2.439l.8-.224a10.03,10.03,0,0,1,.874,2.449l-.864.213Zm0,2.8c3.252-.7,4.512-2.063,5.112-5.691l.894.152c-.589,2.917-1.453,5.335-5.65,6.291l-.356-.752Zm2.185-3.222a9.891,9.891,0,0,0-.671-2.409l.813-.193a10.139,10.139,0,0,1,.711,2.4Z" transform="translate(-191.597 -221.936)" fill="#1b1311"/>
        <path id="パス_2543" data-name="パス 2543" d="M217.172,225.843h3.415v.854h-3.415c-.02,2.47-1.27,3.872-4.319,4.543l-.417-.813a4.808,4.808,0,0,0,3.222-1.636,4.359,4.359,0,0,0,.539-2.094h-4.279v-.854H216.2v-1.758c-1.22.163-2.419.244-3.648.295l-.183-.823a27.623,27.623,0,0,0,6.982-1.047l.5.844c-1.169.3-1.474.356-2.673.579v1.911Z" transform="translate(-191.45 -221.971)" fill="#1b1311"/>
        <path id="パス_2544" data-name="パス 2544" d="M225.3,225.437a11.275,11.275,0,0,0-3.12-1.494l.457-.813a13.458,13.458,0,0,1,3.232,1.423l-.569.884Zm-3.069,4.553c2.866-.2,6.037-1.077,7.622-6.179l.915.406c-.813,2.337-2.134,6.138-8.181,6.779l-.356-1.006Z" transform="translate(-191.283 -221.961)" fill="#1b1311"/>
        <path id="パス_2545" data-name="パス 2545" d="M232.028,226.37a7.23,7.23,0,0,0,3.211-3.963l1.016.163a9.047,9.047,0,0,1-.65,1.352h4.482c-1.037,6.22-5.447,7.043-7.124,7.358l-.4-.844c2.287-.346,5.193-1.23,6.382-5.661h-3.892a7.493,7.493,0,0,1-2.439,2.3l-.589-.7Zm6.921-2.713a8.616,8.616,0,0,0-.549-1.433l.671-.173a8.959,8.959,0,0,1,.589,1.423l-.711.183Zm1.392-.081a9.7,9.7,0,0,0-.579-1.423l.681-.173a9.966,9.966,0,0,1,.61,1.392Z" transform="translate(-191.123 -221.98)" fill="#1b1311"/>
        <path id="パス_2546" data-name="パス 2546" d="M250.563,231.5a11.883,11.883,0,0,1-4.339-1.514,12.59,12.59,0,0,1-4.278,1.555l-.4-.915a10.54,10.54,0,0,0,3.923-1.189,8.244,8.244,0,0,1-1.941-2.368l.7-.407a7.637,7.637,0,0,0,2.012,2.287,8.072,8.072,0,0,0,2.185-2.581h-6.118v-.8H245.8v-1.443h-4.268v-.8H245.8V222.16h.833v1.159h4.3v.8h-4.3v1.443h2.8v.8A9.27,9.27,0,0,1,247,229.436a9.545,9.545,0,0,0,3.923,1.169l-.356.894Z" transform="translate(-190.969 -221.977)" fill="#1b1311"/>
        <path id="パス_2547" data-name="パス 2547" d="M254.486,227.342a7.973,7.973,0,0,1-.9.417v3.059c0,.274-.01.772-.783.772h-1.108l-.1-.833h.884c.173,0,.285,0,.285-.274v-2.409a9.838,9.838,0,0,1-1.22.366l-.081-.864a11.2,11.2,0,0,0,1.3-.366v-2.419h-1.22v-.752h1.22v-1.85h.823v1.85h.945v.752h-.945v2.134l.894-.366v.783Zm-.579,3.7a6.806,6.806,0,0,0,2.3-3.72H254.71v-.681h1.616a6.978,6.978,0,0,0,.051-.813h-1.514v-.671h4.167a11.511,11.511,0,0,0,.986-1.9l.762.285a9.717,9.717,0,0,1-.854,1.616h.813v.671h-3.577a6.49,6.49,0,0,1-.041.813h3.831v.681h-3.943c-.081.346-.152.579-.213.762h3.6v.65a4.227,4.227,0,0,1-1.311,1.524,8.314,8.314,0,0,0,2.033.528l-.417.823a8.2,8.2,0,0,1-2.348-.884,9.381,9.381,0,0,1-2.358.864l-.335-.783a7.059,7.059,0,0,0,1.982-.559,4,4,0,0,1-.965-1.016l.661-.356a3.364,3.364,0,0,0,1.006.986,4.254,4.254,0,0,0,1.169-1.138H256.56a7.957,7.957,0,0,1-2.063,2.907l-.589-.589Zm.63-8.262a24.292,24.292,0,0,0,5.813-.589l.356.722a28.5,28.5,0,0,1-5.935.64l-.234-.772Zm.976,2.307a5.891,5.891,0,0,0-.478-1.2l.8-.2a5.4,5.4,0,0,1,.468,1.209l-.793.193Zm1.992-.091a5.711,5.711,0,0,0-.478-1.291l.833-.183a6.127,6.127,0,0,1,.447,1.291l-.8.183Z" transform="translate(-190.807 -221.977)" fill="#1b1311"/>
      </g>
      <g id="グループ_1112" data-name="グループ 1112" transform="translate(172.875 128.852)">
        <path id="パス_2548" data-name="パス 2548" d="M175.26,128.67h4.289v.711h-3.455a9.873,9.873,0,0,0,3.587,1.575l-.376.793a9.484,9.484,0,0,1-4.045-2.205v1.667h-.793V129.5a10.435,10.435,0,0,1-4.014,2.266l-.325-.793a9.147,9.147,0,0,0,3.445-1.6h-3.354v-.711h4.248v-.722c-1.9.081-2.9.071-3.465.071l-.173-.732c.274,0,.62.02,1.159.02a33.635,33.635,0,0,0,6.331-.518l.4.711a26.08,26.08,0,0,1-3.455.407v.762Zm3.333,7.7a17.247,17.247,0,0,0-2.866-1.138,10.96,10.96,0,0,1-4.98,1.128l-.244-.833a11.26,11.26,0,0,0,4.1-.62,26.675,26.675,0,0,0-3.3-.681,13.3,13.3,0,0,0,1.3-1.24h-2.429v-.762h3.089a10.828,10.828,0,0,0,.722-1.006l.8.3c-.274.376-.386.528-.528.7h5.315v.762h-1.951a5.471,5.471,0,0,1-1.148,1.657,15.315,15.315,0,0,1,2.632,1.016l-.508.711Zm-4.949-3.384a10.232,10.232,0,0,1-.752.813c.813.163,1.789.356,2.642.589a4.163,4.163,0,0,0,1.179-1.4Z" transform="translate(-170.108 -126.79)" fill="#1b1311"/>
        <path id="パス_2549" data-name="パス 2549" d="M184,128.628v.722h-3.811v-.722Zm-.335-1.463v.732h-3.181v-.732Zm0,2.907v.722h-3.181v-.722Zm0,1.443v.732h-3.181v-.732Zm0,1.463v2.907h-2.378v.457h-.8v-3.364Zm-.783.7h-1.6v1.494h1.6ZM186.662,131l2.9-.193.02.793-2.917.2v3.333c0,.213.051.315.335.315h1.291a.335.335,0,0,0,.386-.315,12.391,12.391,0,0,0,.071-1.4l.833.224c-.051,2.063-.264,2.307-1.087,2.307h-1.707c-.518,0-.976-.112-.976-.762V131.86l-1.778.122-.03-.793,1.809-.132v-2.622c-.783.091-1.23.122-1.626.142l-.152-.783a13.922,13.922,0,0,0,4.888-.925l.437.7a12.328,12.328,0,0,1-2.693.742V131Z" transform="translate(-169.944 -126.789)" fill="#1b1311"/>
        <path id="パス_2550" data-name="パス 2550" d="M195.686,131.544a.864.864,0,1,1-.864-.864A.863.863,0,0,1,195.686,131.544Z" transform="translate(-169.72 -126.727)" fill="#1b1311"/>
        <path id="パス_2551" data-name="パス 2551" d="M172.151,144.853v2.978a1.368,1.368,0,0,0,.783,1.108,2.884,2.884,0,0,0,1.484.366h5.264l-.152.783h-5.081a2.732,2.732,0,0,1-2.47-1.148,8.84,8.84,0,0,1-1.474,1.443l-.4-.894a7.2,7.2,0,0,0,1.22-.986v-2.856H170.22v-.793Zm-.315-1.565a7.275,7.275,0,0,0-1.433-1.728l.569-.549a7.052,7.052,0,0,1,1.524,1.717l-.661.559Zm7.652-.976H176.6v.7h2.581v3.608H176.6v.762h2.988v.7H176.6v.884h-.813v-.884h-3.008v-.7h3.008v-.762h-2.52v-3.608h2.52v-.7H172.9v-.7h2.886v-.722h.813v.722h2.886Zm-3.7,1.362h-1.748v.8h1.748Zm0,1.423h-1.748v.864h1.748Zm2.612-1.423h-1.8v.8h1.8Zm0,1.423h-1.8v.864h1.8Z" transform="translate(-170.108 -126.561)" fill="#1b1311"/>
        <path id="パス_2552" data-name="パス 2552" d="M185.343,140.931a7.9,7.9,0,0,1-.386.894h1.433a5.267,5.267,0,0,0,.447-.965l.844.1a7.912,7.912,0,0,1-.4.864h2.063v.61h-2.2v.63H189.1v.528h-1.951v.61H189.1v.528h-1.951v.661H189.6v.62h-5.772v-2.378c-.2.244-.356.407-.528.579l-.549-.589.1-.1h-.762v2.154c.366-.142.528-.2.884-.346l.071.732a10.46,10.46,0,0,1-.955.427v3.1a.711.711,0,0,1-.813.772h-1l-.142-.874h.823c.234,0,.315-.051.315-.264V146.8c-.61.224-.793.274-1.118.366l-.132-.854c.335-.091.61-.152,1.25-.356v-2.429h-1.169v-.772h1.169V140.9h.813v1.85h.894v.63a7.967,7.967,0,0,0,1.5-2.541l.854.091Zm2.439,6.657h1.565c-.132,2.531-.437,2.774-1.26,2.774h-1.28l-.234-.833h1.341c.335,0,.478,0,.559-1.25h-1.7l.325-1.057h-1.555a4.473,4.473,0,0,1-2.53,3.171l-.488-.681a3.455,3.455,0,0,0,2.165-2.49h-1.606v-.691h5.01l-.315,1.057Zm-3.222-5.02v.5h1.87v-.63h-1.8l-.071.132Zm1.87,1.026h-1.87v.61h1.87Zm0,1.138h-1.87v.661h1.87Z" transform="translate(-169.947 -126.561)" fill="#1b1311"/>
      </g>
      <rect id="長方形_6499" data-name="長方形 6499" width="109.31" height="128.08" transform="translate(209.105 52.704)" fill="#fff"/>
      <rect id="長方形_6500" data-name="長方形 6500" width="109.31" height="128.08" transform="translate(53.403 52.704)" fill="#fff"/>
      <g id="グループ_1113" data-name="グループ 1113" transform="translate(75.913 108.527)">
        <path id="パス_2553" data-name="パス 2553" d="M81.974,108.5V106.79h1.352V108.5h6.657v1.281h-12.4v5.071a12.826,12.826,0,0,1-1.85,6.992L74.7,120.835a10.19,10.19,0,0,0,1.545-5.64v-6.7h5.732Zm4.36,6.067a32.531,32.531,0,0,1,3.364,6.829l-1.352.589c-.193-.589-.346-1.026-.589-1.606-2.683.437-8.069.833-10.213.945l-.213-1.382c.976-.02,1.382-.03,1.707-.051a56.707,56.707,0,0,0,2.866-9.37l1.413.356a65.245,65.245,0,0,1-2.917,8.943c2.713-.163,4.461-.264,6.9-.549a36.1,36.1,0,0,0-2.175-4.116l1.2-.589Z" transform="translate(-74.698 -106.79)" fill="#090405"/>
        <path id="パス_2554" data-name="パス 2554" d="M105.975,115.154H93.739v1.026H105.5c-.03.976-.132,3.709-.7,4.848a1.753,1.753,0,0,1-1.575.874h-2.083l-.244-1.3,1.89.02c.671,0,1.25,0,1.321-3.384H96.473v2.327h2.764v-1.728h1.28v2.846H92.449v.783h-1.3v-3.628h1.3v1.728H95.2v-2.327H92.418v-9.258h4.715a5.617,5.617,0,0,0,.386-1.189l1.443.061a9.887,9.887,0,0,1-.437,1.118h5.579v5.173H93.729v.955h12.236v1.037Zm-3.171-6.138H93.739v1.108H102.8Zm0,2H93.739v1.138H102.8Z" transform="translate(-74.43 -106.79)" fill="#090405"/>
        <path id="パス_2555" data-name="パス 2555" d="M106.688,120.593a8.973,8.973,0,0,0,4.014-2.815l1.118.63a12.144,12.144,0,0,1-4.309,3.3l-.833-1.118Zm8.476,1.3h-1.382v-4.685h-6.23V107.7h1.331v8.344h13.1v1.169h-6.819Zm5.528-14.6v7.663H110.479V107.29Zm-1.3,1.057h-7.632v1.22h7.632Zm0,2.2h-7.632v1.138h7.632Zm0,2.134h-7.632v1.22h7.632Zm-1.24,5.061a11.821,11.821,0,0,0,4.035,2.795l-.813,1.138a13.715,13.715,0,0,1-4.3-3.252Z" transform="translate(-74.178 -106.782)" fill="#090405"/>
        <path id="パス_2556" data-name="パス 2556" d="M129.936,108.426V106.8h1.382v1.626h6.667v1.321H125.606v4.441a19.517,19.517,0,0,1-.437,4.136,8.9,8.9,0,0,1-1.494,3.608l-1.087-1.087c1.463-2.114,1.657-5.041,1.657-6.768v-5.64h5.691Zm8.049,4.9h-4.8v6.85c0,1-.163,1.707-1.575,1.707h-2.459l-.244-1.4,2.409.02c.295,0,.488-.051.488-.508v-6.667H126.47v-1.27h11.514Z" transform="translate(-73.919 -106.79)" fill="#090405"/>
      </g>
      <g id="グループ_1116" data-name="グループ 1116" transform="translate(239.065 95.834)">
        <g id="グループ_1114" data-name="グループ 1114" transform="translate(0.884)">
          <path id="パス_2557" data-name="パス 2557" d="M251.108,96.646h-6.8V97.6H249.7v3.11h-5.386v.843h5.742v2.012h1.159v1.108h-1.159v2.866H248.73v-.783h-4.421v1.28a1.245,1.245,0,0,1-1.413,1.413h-2.622l-.183-1.321,2.378.02c.407,0,.539-.112.539-.508v-.894h-5.9v-1.026h5.9v-1.077h-6.9v-1.057h6.9V102.53h-5.854v-1h5.854v-.844h-5.335v-3.11h5.335v-.955h-6.718V95.518h6.718V94.4h1.3v1.118h6.8v1.128Zm-8.1,1.89h-4.035v1.22h4.035Zm5.335,0h-4.035v1.22h4.035Zm.386,4.014h-4.421v1.057h4.421Zm0,2.114h-4.421v1.077h4.421Z" transform="translate(-236.108 -94.298)" fill="#090405"/>
          <path id="パス_2558" data-name="パス 2558" d="M258.463,98.03a8.436,8.436,0,0,0,2.764-3.73l1.321.213a6.074,6.074,0,0,1-.508,1.118h5.142v1.118H266.1a6.81,6.81,0,0,1-1.87,3,10.976,10.976,0,0,0,3.171,1.3l-.6,1.2a14.73,14.73,0,0,1-3.547-1.738,13.177,13.177,0,0,1-3.608,1.687l-.589-1a11.034,11.034,0,0,1-1.2,2.541l-1.037-.589a8.179,8.179,0,0,0,1.077-2.215h-1.443v7.276c0,.874-.488,1.25-1.352,1.25h-1.85l-.295-1.27,1.758.02c.224,0,.549-.03.549-.457v-4.909a16.938,16.938,0,0,1-2.663,3.923l-.7-1.077a14.219,14.219,0,0,0,3.171-4.746h-2.9v-1.2h4.116A15.647,15.647,0,0,0,253.5,97.6l.793-.945a8.82,8.82,0,0,1,1.524,1,11.133,11.133,0,0,0,1.463-1.606H252.6V94.879h6.25v1.159a18.1,18.1,0,0,1-2.165,2.3,6.315,6.315,0,0,1,.7.7l-.7.732h2.49v1.108c-.03.1-.051.142-.061.183a9.4,9.4,0,0,0,3.14-1.321,9.858,9.858,0,0,1-1.657-2.012,6.916,6.916,0,0,1-1.169,1.159l-.945-.833Zm8.2,5.2a17.754,17.754,0,0,1-.671,5.285,1.516,1.516,0,0,1-1.606.955h-2.053l-.274-1.27,1.972.02c.539,0,.752-.142.925-.6a15.045,15.045,0,0,0,.427-3.222h-2.866a6.689,6.689,0,0,1-3.9,5.071L257.7,108.4a5.3,5.3,0,0,0,3.526-4h-2.622v-1.169h2.815c.061-.488.061-.894.081-1.352h1.25c-.02.62-.03.925-.081,1.352h3.984Zm-5.335-6.474-.03.051a8.229,8.229,0,0,0,1.921,2.2,5.363,5.363,0,0,0,1.494-2.246Z" transform="translate(-235.851 -94.3)" fill="#090405"/>
          <path id="パス_2559" data-name="パス 2559" d="M282.786,100.488a47.779,47.779,0,0,1-.437,7.5c-.132.467-.407,1.463-2.134,1.463h-2l-.3-1.362,2.012.02a.967.967,0,0,0,1.138-.783,32.387,32.387,0,0,0,.386-5.661H270.957c-.1,5.071-1.433,6.961-1.982,7.744l-1.077-.945c.65-.955,1.728-2.571,1.728-7.226V95.01h12.4v3.984H270.967v1.494h11.819ZM280.7,96.148h-9.746v1.738H280.7Zm-1.484,11.5h-7.012v-4.715h7.012Zm-1.25-3.608h-4.492v2.47h4.492Z" transform="translate(-235.591 -94.288)" fill="#090405"/>
        </g>
        <g id="グループ_1115" data-name="グループ 1115" transform="translate(0 26.23)">
          <path id="パス_2560" data-name="パス 2560" d="M242.5,132.935h-1.87l-3.953-11.5c.02.437.051,2.683.051,3.2v8.293h-1.494V120.11h2.419l3.9,11.514,3.9-11.514H247.9v12.815h-1.514v-8.293c0-.539.031-2.785.051-3.2Z" transform="translate(-235.238 -120.11)" fill="#090405"/>
          <path id="パス_2561" data-name="パス 2561" d="M259.363,127.031h-7.51v5.9h-1.565V120.12h1.565v5.518h7.51V120.12h1.565v12.815h-1.565Z" transform="translate(-234.993 -120.11)" fill="#090405"/>
          <path id="パス_2562" data-name="パス 2562" d="M268.857,120.12c2.978,0,5.356.508,5.356,6.372,0,4.665-1.108,6.443-4.98,6.443h-5.9V120.12Zm-3.953,1.413v9.99h4.218c2.835,0,3.526-1.037,3.526-5.01,0-4.421-1.24-4.98-3.77-4.98Z" transform="translate(-234.781 -120.11)" fill="#090405"/>
          <path id="パス_2563" data-name="パス 2563" d="M284.924,120.12v1.413h-6.982v4.3h6.616v1.4h-6.616v5.711H276.4V120.13h8.526Z" transform="translate(-234.568 -120.11)" fill="#090405"/>
        </g>
      </g>
      <line id="線_139" data-name="線 139" x2="42.216" transform="translate(162.702 116.739)" fill="none" stroke="#5b6a71" stroke-miterlimit="10" stroke-width="3.049"/>
      <path id="パス_2564" data-name="パス 2564" d="M206.14,114.957l-8.872,5.457v-10.9Z" transform="translate(3.209 1.781)" fill="#5b6a71"/>
      <path id="パス_2565" data-name="パス 2565" d="M36.48,340.242,27.608,345.7V334.8Z" transform="translate(0.449 5.446)" fill="#5b6a71"/>
      <rect id="長方形_6501" data-name="長方形 6501" width="298.071" height="171.688" transform="translate(36.929 259.229)" fill="#4fa1a1"/>
      <rect id="長方形_6502" data-name="長方形 6502" width="109.31" height="128.08" transform="translate(209.105 281.038)" fill="#fff"/>
      <rect id="長方形_6503" data-name="長方形 6503" width="109.31" height="128.08" transform="translate(53.403 281.038)" fill="#090405"/>
      <g id="グループ_1117" data-name="グループ 1117" transform="translate(67.874 337.472)">
        <path id="パス_2566" data-name="パス 2566" d="M82.306,345.555l-.224,1.27h-7.2c-3.15,0-4.624-.915-6.016-3.029a9.573,9.573,0,0,1-1.22,3.445l-.864-1.118c.407-.793,1.27-2.439,1.27-6.453h1.189a19.466,19.466,0,0,1-.112,2.47,11.011,11.011,0,0,0,1.077,1.656v-5.274H67.022V337.3h3.191V335.25H67.428v-1.22h2.785v-1.9h1.25v1.9h2.2v1.22h-2.2V337.3h2.571v1.22H71.463v2.2h2.3v1.22h-2.3v2.947a7.479,7.479,0,0,0,3.4.671h7.439Zm-.793-7.4h-5.6V342.4c0,.508.3.508.549.508h3.526c.752,0,.864,0,.864-2.327l1.281.295c-.061,2.409-.183,3.283-1.728,3.283h-4.38a1.216,1.216,0,0,1-1.4-1.321v-5.925h5.6v-3.029H74.288v-1.22h7.205v5.478Z" transform="translate(-66.788 -332.069)" fill="#fff"/>
        <path id="パス_2567" data-name="パス 2567" d="M97.48,346.887a13.552,13.552,0,0,1-6.25-3.638V347.2H89.878v-3.9a15.2,15.2,0,0,1-6.281,3.659l-.589-1.281a15.351,15.351,0,0,0,5.965-3.008H83.038v-1.118h6.829v-1.169h1.352v1.169h6.86v1.118H92.144a13.163,13.163,0,0,0,6.037,2.927l-.711,1.3Zm-1.524-11.352v1.026H94.573a7.086,7.086,0,0,1-1.789,2.053c1.433.346,3.171.925,4.309,1.3l-.843,1.159a36.62,36.62,0,0,0-4.817-1.626,20.157,20.157,0,0,1-7.043,1.433l-.356-1.219a21.879,21.879,0,0,0,5.478-.7c-1.789-.406-2.846-.589-3.526-.7a14.242,14.242,0,0,0,1.575-1.7h-2.3v-1.026h3.12a7.93,7.93,0,0,0,.813-1.159H84.725v2.134H83.394v-3.272h6.494V332.1H91.25v1.138h6.524v3.272H96.443v-2.134H90.721a13.815,13.815,0,0,1-.762,1.159h6Zm-6.8,1.026c-.467.549-.7.793-1.006,1.118.925.142,1.921.295,3.14.569a6.5,6.5,0,0,0,1.819-1.7H89.156Z" transform="translate(-66.524 -332.07)" fill="#fff"/>
        <path id="パス_2568" data-name="パス 2568" d="M102.192,347.192h-1.362v-8.5a11.348,11.348,0,0,1-1.362,1.738L98.8,338.92a15.258,15.258,0,0,0,3.354-6.85l1.382.264a17.321,17.321,0,0,1-1.331,3.872v10.976Zm11.86-10.935.081,1.25-5.559.406a16.375,16.375,0,0,0,2.307,6.85c.467.711.843.793,1.108.793.549,0,.945-1.758,1.108-2.551l1.27.63c-.295,1.433-.894,3.547-2.2,3.547a3.089,3.089,0,0,1-2.47-1.728,16.9,16.9,0,0,1-2.551-7.449l-3.659.274-.132-1.3,3.628-.244c-.274-2.754-.325-3.77-.356-4.655h1.413a43.948,43.948,0,0,0,.376,4.553l5.64-.386Zm-1.839-.539a15.438,15.438,0,0,0-2.764-2.49l.833-.945a13.481,13.481,0,0,1,2.9,2.388l-.955,1.037Z" transform="translate(-66.267 -332.07)" fill="#fff"/>
        <path id="パス_2569" data-name="パス 2569" d="M129.492,347.262a12.481,12.481,0,0,1-6.982-7.449,14.214,14.214,0,0,1-2.378,2.114v3.435c1.443-.224,2.876-.508,4.309-.864l.02,1.189a62.076,62.076,0,0,1-8.12,1.4l-.264-1.25c.63-.051,1.2-.1,2.713-.274V342.75a20.54,20.54,0,0,1-3.364,1.433l-.569-1.27a13.752,13.752,0,0,0,6.128-3.283h-5.935v-1.138h6.86v-1.443H116.2v-1.087h5.711v-1.28h-6.453v-1.159h6.453V332.14h1.331v1.382H129.7v1.159h-6.453v1.28h5.681v1.087h-5.681v1.443h6.829v1.138H123.73a9.711,9.711,0,0,0,1.362,2.571,14.772,14.772,0,0,0,3.059-2.215l.955.945a24.732,24.732,0,0,1-3.2,2.246,10.726,10.726,0,0,0,4.329,2.866l-.762,1.24Z" transform="translate(-66.006 -332.069)" fill="#fff"/>
        <path id="パス_2570" data-name="パス 2570" d="M145.209,332.751a22.986,22.986,0,0,1-3.974,4.116H146.1v1.189H139.68a25.946,25.946,0,0,1-2.429,1.494h7.012v7.642h-1.331V346.4h-7.6v.793H134.01v-6.118a26.684,26.684,0,0,1-2.622.925l-.6-1.22a23.128,23.128,0,0,0,6.606-2.734h-6.362v-1.189h5.691V334.8h-4.5v-1.118h4.5V332.11h1.331v1.575h3.689v1.057a18.22,18.22,0,0,0,2.276-2.652l1.169.65Zm-2.276,7.937h-7.6v1.657h7.6Zm0,2.754h-7.6v1.819h7.6Zm-3.73-6.575a20.839,20.839,0,0,0,2.49-2.053h-3.628v2.053Z" transform="translate(-65.747 -332.07)" fill="#fff"/>
      </g>
      <g id="グループ_1118" data-name="グループ 1118" transform="translate(223.648 337.411)">
        <path id="パス_2571" data-name="パス 2571" d="M223.33,338.471v4.766a2.21,2.21,0,0,0,1.25,1.778,4.592,4.592,0,0,0,2.378.589h8.425l-.244,1.25h-8.13a4.373,4.373,0,0,1-3.953-1.839,14.094,14.094,0,0,1-2.358,2.307l-.63-1.433a11.414,11.414,0,0,0,1.951-1.575v-4.573h-1.768v-1.27h3.079Zm-.508-2.5a11.757,11.757,0,0,0-2.3-2.764l.915-.874a11.024,11.024,0,0,1,2.439,2.754l-1.057.894Zm12.246-1.565h-4.624v1.118h4.136V341.3h-4.136v1.22h4.787v1.118h-4.787v1.413h-1.3v-1.413h-4.817v-1.118h4.817V341.3h-4.035v-5.772h4.035v-1.118h-4.624v-1.118h4.624V332.13h1.3v1.159h4.624Zm-5.925,2.175h-2.795v1.28h2.795Zm0,2.276h-2.795v1.382h2.795Zm4.177-2.276h-2.876v1.28h2.876Zm0,2.276h-2.876v1.382h2.876Z" transform="translate(-220.068 -332.008)" fill="#090405"/>
        <path id="パス_2572" data-name="パス 2572" d="M244.454,332.173a11.941,11.941,0,0,1-.62,1.433h2.3a7.892,7.892,0,0,0,.711-1.545l1.352.163a12.894,12.894,0,0,1-.63,1.382h3.3v.976H247.35v1.006h3.12v.844h-3.12v.976h3.12v.844h-3.12v1.057h3.923v1h-9.238v-3.811c-.325.386-.569.65-.844.925l-.874-.945.163-.163h-1.22v3.445c.589-.224.843-.325,1.413-.549l.112,1.169c-.386.193-.711.356-1.524.681v4.959a1.141,1.141,0,0,1-1.3,1.24h-1.6l-.224-1.4,1.321.02c.376,0,.508-.1.508-.437v-3.892c-.976.356-1.27.437-1.789.589l-.213-1.362c.539-.142.976-.244,2-.569v-3.892H236.1v-1.24h1.87v-2.957h1.3v2.957H240.7v1.006a12.709,12.709,0,0,0,2.409-4.065l1.362.142Zm3.9,10.65h2.51c-.213,4.055-.7,4.441-2.012,4.441H246.8l-.376-1.331,2.144.02c.539,0,.762-.02.894-2.012h-2.713l.518-1.7h-2.49a7.131,7.131,0,0,1-4.055,5.071l-.783-1.087c2.734-1.352,3.242-2.978,3.465-3.984h-2.571v-1.108h8.018l-.508,1.687Zm-5.152-8.039v.8h2.988v-1.006h-2.876l-.112.213Zm2.988,1.646H243.2v.976h2.988Zm0,1.819H243.2v1.057h2.988Z" transform="translate(-219.809 -332.01)" fill="#090405"/>
        <path id="パス_2573" data-name="パス 2573" d="M267.168,334.386h-6.8v.955h5.386v3.11h-5.386v.844h5.742v2.012h1.159v1.108h-1.159v2.866H264.79V344.5h-4.421v1.281a1.245,1.245,0,0,1-1.413,1.413h-2.622l-.183-1.321,2.378.02c.406,0,.539-.112.539-.508v-.894h-5.9v-1.026h5.9v-1.077h-6.9v-1.057h6.9V340.27h-5.854v-1h5.854v-.844h-5.335v-3.11h5.335v-.955h-6.718v-1.108h6.718V332.14h1.3v1.118h6.8v1.128Zm-8.1,1.89h-4.035v1.22h4.035Zm5.335,0h-4.035v1.22H264.4Zm.386,4.014h-4.421v1.057h4.421Zm0,2.114h-4.421v1.077h4.421Z" transform="translate(-219.546 -332.008)" fill="#090405"/>
        <path id="パス_2574" data-name="パス 2574" d="M282.486,346.957a15.347,15.347,0,0,1-6.087-3.5v3.77h-1.281v-3.791a15.129,15.129,0,0,1-6.1,3.486l-.711-1.169a15.248,15.248,0,0,0,5.844-2.917h-5.884v-1.087h6.86v-1.189h-5.793v-1.037h5.793V338.39h-6.179v-1.077h3.821a14.224,14.224,0,0,0-.539-1.565h-3.974V334.64h2.815a22.9,22.9,0,0,0-1.087-2.063l1.321-.437a13.041,13.041,0,0,1,1.159,2.5h1.2v-2.52h1.27v2.52h1.677v-2.52h1.27v2.52h1.159a18.032,18.032,0,0,0,1.189-2.5l1.321.437a22.573,22.573,0,0,1-1.138,2.063h2.866v1.108h-4.035c-.213.7-.325,1.037-.508,1.565h3.923v1.077h-6.23v1.138h5.844v1.037h-5.844v1.189h6.85v1.087h-5.854a12.928,12.928,0,0,0,5.854,2.9l-.762,1.22Zm-5.112-9.644a9.59,9.59,0,0,0,.457-1.565h-4.248c.081.224.437,1.321.539,1.565Z" transform="translate(-219.284 -332.008)" fill="#090405"/>
        <path id="パス_2575" data-name="パス 2575" d="M298.359,332.771a22.988,22.988,0,0,1-3.974,4.116h4.868v1.189H292.83a25.953,25.953,0,0,1-2.429,1.494h7.012v7.642h-1.331v-.793h-7.6v.793H287.16v-6.118a26.675,26.675,0,0,1-2.622.925l-.6-1.219a23.127,23.127,0,0,0,6.606-2.734h-6.362v-1.189h5.691v-2.053h-4.5v-1.118h4.5V332.13H291.2v1.575h3.689v1.057a18.218,18.218,0,0,0,2.276-2.652l1.169.65Zm-2.276,7.937h-7.6v1.657h7.6Zm0,2.754h-7.6v1.819h7.6Zm-3.73-6.575a20.841,20.841,0,0,0,2.49-2.053h-3.628v2.053Z" transform="translate(-219.029 -332.008)" fill="#090405"/>
      </g>
      <line id="線_140" data-name="線 140" y2="49.797" transform="translate(141.991 202.583)" fill="none" stroke="#5b6a71" stroke-miterlimit="10" stroke-width="3.049"/>
      <path id="パス_2576" data-name="パス 2576" d="M139.805,254.722l-5.447-8.872h10.9Z" transform="translate(2.186 3.999)" fill="#5b6a71"/>
      <line id="線_141" data-name="線 141" y2="131.332" transform="translate(185.965 202.583)" fill="none" stroke="#5b6a71" stroke-miterlimit="10" stroke-width="3.049"/>
      <path id="パス_2577" data-name="パス 2577" d="M183.075,332.132l-5.457-8.872h10.9Z" transform="translate(2.889 5.258)" fill="#5b6a71"/>
      <g id="グループ_1120" data-name="グループ 1120" transform="translate(162.702 339.393)">
        <g id="グループ_1119" data-name="グループ 1119" transform="translate(11.464)">
          <path id="パス_2578" data-name="パス 2578" d="M173.472,333.97v2.866h1.159v.965h-1.159v7.48h-1V337.8h-1.1v-.965h1.1V333.97Zm4.5,6.037c0,1.138-.081,4.014-.437,4.7a.975.975,0,0,1-.986.589h-.864l-.173-.925h.63c.244.01.417.02.569-.3a14.569,14.569,0,0,0,.315-3.14h-.915a7.466,7.466,0,0,1-1.657,4.38l-.742-.65a6.263,6.263,0,0,0,1.423-3.73h-1.016v-.9h1.087c.02-.437.041-.671.051-.955h.976c-.01.325-.02.528-.051.955h1.778Zm3.984-4.99c-.142,2.713-.193,3.618-1.657,3.618H179l-.224-1.016,1.362.02c.559.01.711,0,.783-1.728h-2.409a5.2,5.2,0,0,1-3.222,3.049l-.61-.844a4.733,4.733,0,0,0,2.8-2.205h-2.7v-.9h3a6,6,0,0,0,.142-1.047h1.016a8.445,8.445,0,0,1-.163,1.047h3.181Zm.447,4.99c-.051,3.1-.071,4.38-.488,4.919a1.044,1.044,0,0,1-.894.356h-.935l-.173-.935h.711c.447.02.549-.122.62-.376a16.009,16.009,0,0,0,.2-3.059h-1a6.193,6.193,0,0,1-1.85,4.4l-.772-.6a5.374,5.374,0,0,0,1.7-3.8h-.976v-.9h1.037c.01-.325.01-.508,0-1h.965c-.01.549-.01.722-.02,1h1.87Z" transform="translate(-171.378 -333.96)" fill="#fff"/>
          <path id="パス_2579" data-name="パス 2579" d="M194.089,345.088a11.469,11.469,0,0,1-4.563-2.622v2.825h-.965v-2.835a11.217,11.217,0,0,1-4.573,2.612l-.539-.874a11.341,11.341,0,0,0,4.38-2.185h-4.411V341.2h5.142V340.3h-4.339v-.783h4.339v-.854h-4.634v-.8h2.866a8.814,8.814,0,0,0-.407-1.169h-2.978v-.833h2.1a15,15,0,0,0-.813-1.545l.986-.325a10.233,10.233,0,0,1,.864,1.88h.9v-1.89h.955v1.89h1.26v-1.89h.955v1.89h.864a14.586,14.586,0,0,0,.894-1.88l.986.325c-.173.366-.549,1.057-.854,1.545h2.144v.833H191.64c-.163.528-.244.783-.376,1.169H194.2v.8h-4.665v.854h4.38v.783h-4.38v.894h5.132v.813h-4.39a9.711,9.711,0,0,0,4.39,2.165l-.569.915Zm-3.831-7.226a7.28,7.28,0,0,0,.346-1.169h-3.181c.061.173.325.986.406,1.169h2.429Z" transform="translate(-171.182 -333.96)" fill="#fff"/>
        </g>
        <line id="線_142" data-name="線 142" x2="7.276" transform="translate(36.138 5.671)" fill="none" stroke="#fff" stroke-miterlimit="10" stroke-width="3.049"/>
        <path id="パス_2580" data-name="パス 2580" d="M206.148,339.6l-5.661,3.476V336.11Z" transform="translate(-159.441 -333.925)" fill="#fff"/>
        <line id="線_143" data-name="線 143" x1="7.276" transform="translate(3.303 5.671)" fill="none" stroke="#fff" stroke-miterlimit="10" stroke-width="3.049"/>
        <path id="パス_2581" data-name="パス 2581" d="M160.1,339.6l5.671-3.486v6.961Z" transform="translate(-160.098 -333.925)" fill="#fff"/>
      </g>
      <g id="グループ_1121" data-name="グループ 1121" transform="translate(0 200.793)">
        <path id="パス_2582" data-name="パス 2582" d="M3.571,205.112A9.268,9.268,0,0,1,2.4,203.9v5.047H1.462v-4.876a7.748,7.748,0,0,1-1.036.988L0,204.1a7.739,7.739,0,0,0,2.731-3.621H.2v-.926H1.462V197.64H2.4v1.914h1.3v.84a9.155,9.155,0,0,1-1.243,2.389,9.74,9.74,0,0,0,1.621,1.537Zm.9-3.072a4.656,4.656,0,0,1-.707,1.293l-.658-.415a4.631,4.631,0,0,0,.658-1.243Zm5.046-4.46a8.123,8.123,0,0,1,1.3,1.036l-.56.439h1.243v.878H8.142v.987h2.913v6.96c0,.6-.061,1.072-.938,1.072H8.861l-.159-.939,1.024.012c.232,0,.39,0,.39-.341v-1.658H8.142v2.889H7.2v-2.889H5.424v2.926H4.486v-8.033H7.2v-.987H4.083v-.878H7.2V197.64h.939v1.414H9.9a9.31,9.31,0,0,0-1.1-.9ZM7.2,201.736H5.424v1.328H7.2Zm0,2.12H5.424v1.378H7.2Zm2.914-2.12H8.142v1.328h1.975Zm0,2.12H8.142v1.378h1.975Z" transform="translate(0 -197.579)" fill="#1a1311"/>
        <path id="パス_2583" data-name="パス 2583" d="M5.715,218.67a45.418,45.418,0,0,1-5.5,1.122L.1,218.817c.537-.073.6-.085.744-.1v-8.6H5.13v7.8c.085-.013.451-.111.537-.122Zm-1.548-7.642H1.8v1.719H4.167Zm0,2.583H1.8v1.72H4.167ZM1.8,218.573c.5-.085,1.145-.2,2.365-.438V216.2H1.8Zm2.438,1.633c1.365-.926,3.12-2.364,3.3-7.02H5.593V212.2H7.555v-2.548h.988V212.2H11.2c0,.6,0,6.581-.61,7.946a1.138,1.138,0,0,1-1.194.78H7.921l-.183-1.037,1.255.025c.354.011.585.011.707-.33.476-1.267.5-5.862.5-6.4H8.531c-.2,4.827-1.95,6.581-3.474,7.776Z" transform="translate(0.002 -197.383)" fill="#1a1311"/>
        <path id="パス_2584" data-name="パス 2584" d="M9.311,226H6.3v1.488h4.7v.926H6.3v3.231H7.337a21.618,21.618,0,0,0,1.207-2.877l1.023.268a17.289,17.289,0,0,1-1.159,2.609h2.84v.914H.377v-.914H2.924a16.675,16.675,0,0,0-1-2.511l.975-.317A16.038,16.038,0,0,1,4,231.648H5.3v-3.231H.573v-.926H5.3V226H2.291v-.828c-.853.451-1.255.622-1.682.817l-.573-.963a12.429,12.429,0,0,0,5.375-3.5h.877a14.2,14.2,0,0,0,5.364,3.522l-.561.95a13.827,13.827,0,0,1-1.779-.877Zm-.085-.926a15.427,15.427,0,0,1-3.4-2.621,13.254,13.254,0,0,1-3.352,2.621Z" transform="translate(0.001 -197.189)" fill="#1a1311"/>
        <path id="パス_2585" data-name="パス 2585" d="M4.019,238.429a9.809,9.809,0,0,0,1.853,2.779,10.347,10.347,0,0,0,1.914-2.877l.877.5a10.909,10.909,0,0,1-2.047,3.048,11.045,11.045,0,0,0,4.924,1.974l-.427,1.037a11.693,11.693,0,0,1-5.229-2.328,12.476,12.476,0,0,1-5.229,2.353l-.427-1.048a12.305,12.305,0,0,0,4.913-2,10.684,10.684,0,0,1-2.036-3.01Zm2.365-4.79v1.377h5.143V236H.252v-.987H5.347v-1.377ZM.265,238.66a8.354,8.354,0,0,0,3.193-2.327l.9.512A9.13,9.13,0,0,1,.8,239.562Zm7.911-2.316a8.435,8.435,0,0,0,3.364,2.2l-.561.95a9.928,9.928,0,0,1-3.657-2.6Z" transform="translate(0.004 -196.992)" fill="#1a1311"/>
        <path id="パス_2586" data-name="パス 2586" d="M2.668,256.951h-1v-6.619a8.233,8.233,0,0,1-1.133,1.45l-.512-1.071a12.105,12.105,0,0,0,2.67-5.12l1.036.2a15,15,0,0,1-1.061,2.791ZM9.946,245.64v2.583h1.523v.976H9.946v6.631c0,.548-.122,1.121-1.171,1.121H6.544L6.4,255.9l2.194.024c.206,0,.316-.048.316-.341V249.2H3.449v-.976h5.46V245.64Zm-3.888,8.166a13.666,13.666,0,0,0-2.011-2.974l.853-.573a11.627,11.627,0,0,1,2.048,2.95Z" transform="translate(0 -196.798)" fill="#1a1311"/>
      </g>
    </g>
  </g>
</svg>
