<svg xmlns="http://www.w3.org/2000/svg" xmlns:xlink="http://www.w3.org/1999/xlink" width="928.892" height="422.408" viewBox="0 0 928.892 422.408"><defs><clipPath id="a"><rect width="928.892" height="422.408" fill="none"/></clipPath><clipPath id="b"><rect width="268" height="103.676" transform="translate(0 258.494)" fill="none"/></clipPath><clipPath id="c"><rect width="268" height="103.676" transform="translate(660.892 258.494)" fill="none"/></clipPath><clipPath id="d"><rect width="268" height="103.676" transform="translate(322.736)" fill="none"/></clipPath><clipPath id="e"><rect width="76.056" height="15.409" transform="translate(430.368 347.486)" fill="none"/></clipPath><clipPath id="f"><rect width="76.056" height="15.409" transform="translate(95.972 168.663)" fill="none"/></clipPath><clipPath id="g"><rect width="76.055" height="15.409" transform="translate(756.864 129.525)" fill="none"/></clipPath></defs><g clip-path="url(#a)"><path d="M761.02,308.8H287.342v-2H761.02a33.839,33.839,0,0,0,33.868-33.868h2A35.839,35.839,0,0,1,761.02,308.8Z" fill="#5c6b73"/><rect width="197.629" height="83.771" transform="translate(370.44 267.827)" fill="#fff"/><path d="M796.888,243.2h-2V79.806A33.839,33.839,0,0,0,761.02,45.938H587.4v-2H761.02a35.839,35.839,0,0,1,35.868,35.868Z" fill="#5c6b73"/><path d="M170.756,308.8a35.839,35.839,0,0,1-35.868-35.868V79.806a35.839,35.839,0,0,1,35.868-35.868H308.344v2H170.756a33.839,33.839,0,0,0-33.868,33.868V272.929A33.839,33.839,0,0,0,170.756,306.8Z" fill="#5c6b73"/><g style="isolation:isolate"><g clip-path="url(#b)"><path d="M17.008,362.17H250.992A17.008,17.008,0,0,0,268,345.162V275.5a17.008,17.008,0,0,0-17.008-17.008H17.008A17.008,17.008,0,0,0,0,275.5v69.661A17.008,17.008,0,0,0,17.008,362.17" fill="#51a9aa"/></g></g><g style="isolation:isolate"><g clip-path="url(#c)"><path d="M677.9,362.17H911.883a17.008,17.008,0,0,0,17.008-17.008V275.5a17.008,17.008,0,0,0-17.008-17.008H677.9A17.008,17.008,0,0,0,660.891,275.5v69.661A17.008,17.008,0,0,0,677.9,362.17" fill="#51a9aa"/></g></g><g style="isolation:isolate"><g clip-path="url(#d)"><path d="M339.744,103.676H573.728a17.008,17.008,0,0,0,17.008-17.008V17.007A17.008,17.008,0,0,0,573.728,0H339.744a17.008,17.008,0,0,0-17.008,17.008V86.668a17.008,17.008,0,0,0,17.008,17.008" fill="#51a9aa"/></g></g><path d="M406.022,49.79a10.093,10.093,0,0,0,.837-2.263l1.985.341c-.093.216-.745,1.767-.837,1.922h2.759v1.767h-2.883v2.3h2.573v1.674h-2.573V57.7h2.573v1.674h-2.573v2.573h3.1v1.147a17.917,17.917,0,0,0,4.558-3.751l1.675,1.457a17.58,17.58,0,0,1-4.9,4.186l-1.333-1.644v.466h-7.937v1.178h-2.077V54.565a11.8,11.8,0,0,1-.745,1.116l-.806-1.3c-.372,6.263-1.613,8.371-2.387,9.643l-1.706-2.078c.775-1.55,1.829-3.658,1.829-11.317V41.139h12.961v5.768h-10.6v3.875c0,1.116-.032,1.86-.032,2.357a21.231,21.231,0,0,0,2.481-5.923l1.8.559a16.568,16.568,0,0,1-.621,2.015Zm4.62-10.449H395.883V37.233h14.759Zm-2.883,3.534h-8.247V45.17h8.247ZM405.9,51.557h-2.853v2.3H405.9Zm0,3.969h-2.853V57.7H405.9Zm0,3.845h-2.853v2.574H405.9Zm18.666-22.138V39.4h-5.923a26.477,26.477,0,0,1-.774,2.7h5.58V58.844H412.41V42.1H415.6a24.282,24.282,0,0,0,.713-2.7h-4.868v-2.17Zm-3.442,6.945h-6.356v2.729h6.356Zm0,4.713h-6.356v2.7h6.356Zm0,4.713h-6.356v3.1h6.356Zm-.713,5.7a18.453,18.453,0,0,0,4.651,3.751l-1.426,1.954a20.348,20.348,0,0,1-4.9-4.124Z" fill="#fff"/><path d="M427.658,48.364a19.972,19.972,0,0,0,9.829-7.07l2.543.528c-.558.744-.775,1.053-1.21,1.549h11.008v1.954a20.814,20.814,0,0,1-6.139,5.457A40.25,40.25,0,0,0,455.9,53.945l-.868,2.511c-.838-.155-1.675-.31-3.441-.713v9.24h-2.481V63.742H433.333v1.241h-2.45V55.774c-2.108.465-2.356.527-3.442.744l-.868-2.449a48.526,48.526,0,0,0,12.434-3.38,34.426,34.426,0,0,1-4.248-3.534,26.1,26.1,0,0,1-5.984,3.348ZM442.48,36.209v2.449h12.34v6.481h-2.605V40.953H430.2v4.186h-2.543V38.658h12.217V36.209Zm7.193,19.069a37.1,37.1,0,0,1-8.372-3.162,57.88,57.88,0,0,1-8.464,3.162Zm-.558,2.077H433.333v4.217h15.782ZM436.836,45.449a3.706,3.706,0,0,1-.371.341,24.068,24.068,0,0,0,4.836,3.752,17.135,17.135,0,0,0,5.209-4.093Z" fill="#fff"/><path d="M467.123,36.829a22.167,22.167,0,0,1-3.038,5.457,36.2,36.2,0,0,1,2.077,12.558c0,2.728-.372,7.1-2.109,8.96a3.714,3.714,0,0,1-2.821,1.147h-2.419L458.38,62.5l2.6.031a1.821,1.821,0,0,0,1.922-1.085,19.074,19.074,0,0,0,.992-6.976c0-1.427-.061-2.2-.093-2.729a20.879,20.879,0,0,1-4.992,5.426L457.7,54.875a21.014,21.014,0,0,0,5.736-6.14,28.421,28.421,0,0,0-1.054-4.464,25.515,25.515,0,0,1-3.131,2.759l-1.457-1.953a18.173,18.173,0,0,0,3.565-3.163,14.7,14.7,0,0,0-3.008-4.155l1.768-1.426a11.935,11.935,0,0,1,2.821,3.6,13.975,13.975,0,0,0,1.922-3.69Zm5.488,5.147A14.512,14.512,0,0,1,471.8,43.4h4.465a14.287,14.287,0,0,0,1.055-2.263l2.17.527a13.561,13.561,0,0,1-.9,1.736h7.5v1.644h-7.379V46.5h6.759v1.426h-6.759v1.458h6.759v1.426h-6.759v1.612h7.814V54.1h-17.8V47.557a19.175,19.175,0,0,1-1.457,1.55l-1.52-1.643a20.849,20.849,0,0,0,4.806-6.294l1.488.589V40.116h-4.743V38.069h4.743V36.24h2.327v1.829h5.642V36.24h2.264v1.829h4.341v2.047h-4.341v1.8h-2.264v-1.8h-5.642v1.8h-1.923Zm-6.542,20.65a33.8,33.8,0,0,0,7.906-1.457,15.513,15.513,0,0,1-3.472-2.946l2.015-.868H467.4v-1.83H484.61v1.768a23.138,23.138,0,0,1-5.239,4,34.551,34.551,0,0,0,7.5,1.457l-.776,2.325a34.445,34.445,0,0,1-9.518-2.48,41.012,41.012,0,0,1-9.737,2.356Zm10.573-17.58h-5.7V46.5h5.7Zm0,2.883h-5.7v1.458h5.7Zm0,2.884h-5.7v1.612h5.7Zm-4.031,6.542a16.532,16.532,0,0,0,4.062,2.853,15.435,15.435,0,0,0,4.527-2.853Z" fill="#fff"/><path d="M496.51,37.046a21.827,21.827,0,0,1-7.1,8.5l-1.023-2.48a17.538,17.538,0,0,0,5.922-7.008ZM488.48,51.96c4.031-2.884,6.109-7.689,6.635-8.867l2.14.961a24.982,24.982,0,0,1-2.884,5.3V64.983H491.86V52.549a15.2,15.2,0,0,1-2.419,2.171Zm28.494-.124H513.44v2.233h4.217v2.2H513.44v6.139c0,1.241-.155,2.542-2.48,2.542h-4.093l-.4-2.573,3.534.031c.682,0,.9-.155.9-.961V56.27H496.386v-2.2H510.9V51.836H497.379V49.728h19.6Zm-1.457-4.031h-16.65V37.17h16.65Zm-14.572,8.93a29.059,29.059,0,0,1,3.721,4.589l-2.078,1.519a34.173,34.173,0,0,0-3.627-4.713ZM513.1,39.31H501.223v2.264H513.1Zm0,4.061H501.223v2.3H513.1Z" fill="#fff"/><path d="M99.937,297.927c-.651,7.6-2.76,20.867-20.31,24.153l-1.116-2.634c15.782-2.636,17.3-13.489,18.015-18.883H75.473v-2.636Z" fill="#fff"/><path d="M129.076,302.144c-.9,4.837-2.791,8.155-7.813,10.6l-1.489-2.108c3.007-1.271,4.806-2.759,5.984-6.108H107.9v-2.388Zm-20.5,18.511c6.914-3.193,7.658-7.876,7.658-13.891l2.636.062c-.217,7.162-1.52,12.03-8.65,15.813Z" fill="#fff"/><path d="M146.65,304.687a34.4,34.4,0,0,0-9.518-4.558l1.395-2.481a41.132,41.132,0,0,1,9.86,4.341Zm-9.363,13.89c8.743-.619,18.417-3.286,23.254-18.851l2.791,1.24c-2.481,7.132-6.512,18.728-24.96,20.681Z" fill="#fff"/><path d="M172.845,323.507h-2.636V306.733a19.728,19.728,0,0,1-3.132,3.6l-1.426-2.728a27.992,27.992,0,0,0,7.6-12.867l2.542.433a35.075,35.075,0,0,1-2.945,7.256Zm21.487-20.991a40.772,40.772,0,0,1-11.906,6.015v10.48c0,1.116.154,1.364,1.363,1.364h6.822c1.147,0,1.643,0,1.674-5.643l2.666.651c-.03,7.535-1.953,7.535-3.6,7.535H182.8c-1.209,0-2.977-.155-2.977-2.574V294.7h2.606v11.224a34.689,34.689,0,0,0,10.17-5.519Z" fill="#fff"/><path d="M761.634,295.819v27.6h-2.6V322.2h-21.3v1.21h-2.574v-27.6Zm-23.9,24.06h21.3V298.144h-21.3Zm5.425-20.556h2.388V302.7h5.892v-3.379h2.325V302.7H757.6v2.17h-3.845v4.93h4.247V312h-4.247v6.635h-2.325V312h-6.512a13.365,13.365,0,0,1-3.938,6.635l-2.139-1.736a9.776,9.776,0,0,0,3.628-4.9h-3.69v-2.2h4.186a19.578,19.578,0,0,0,.185-2.6v-2.326h-3.906V302.7h3.906Zm2.388,7.937a24.109,24.109,0,0,1-.217,2.542h6.109v-4.93h-5.892Z" fill="#fff"/><path d="M769.752,297.525a50.853,50.853,0,0,0-.589,7.844c0,4.713.373,9.705,2.046,12.371a2.457,2.457,0,0,0,2.078,1.085c2.325,0,4.061-3.658,5.426-7.255l2.294,1.489c-1.891,5.053-4.4,8.743-8,8.743-6.078,0-6.728-10.914-6.728-16.061,0-3.193.248-6.418.433-8.526Zm20.185,21.022c.031-.714.062-1.427.062-2.419,0-10.511-3.039-13.767-5.767-16.712l2.48-1.364c1.829,1.7,6.388,5.922,6.388,18.2,0,.837-.031,1.4-.062,1.984Z" fill="#fff"/><path d="M802.55,306.733v9.147c.683,3.441,4,4.4,7.411,4.4H825.03l-.434,2.511H810.364c-5.985,0-7.844-2.635-8.867-4.062a32.805,32.805,0,0,1-4.465,4.776l-1.334-2.76a24.459,24.459,0,0,0,4.341-3.783v-7.783h-4v-2.449Zm-.433-4.929a29.644,29.644,0,0,0-5.581-4.993l1.673-1.767a30.724,30.724,0,0,1,5.706,4.806Zm1.86,14.045c5.767-3.907,9.363-10.976,10.17-17.7h-6.76V295.7h9.24c.155,6.077,1.7,14.418,8.527,20.34l-1.829,2.171a27.847,27.847,0,0,1-8.032-14.821,29.324,29.324,0,0,1-9.394,14.666Z" fill="#fff"/><path d="M852.556,301.648a69.915,69.915,0,0,1-.992,7.535,33.571,33.571,0,0,1,4,1.7l-.992,2.759c-1.427-.744-2.419-1.208-3.689-1.767-2.264,8.372-7.194,9.984-9.148,10.636l-1.612-2.171c3.535-1.054,6.543-2.883,8.217-9.488a32.778,32.778,0,0,0-7.566-1.829c-1.736,7.224-3.6,11.411-8.061,11.411-3.5,0-5.024-2.823-5.024-5.458,0-3.442,2.574-8.216,10.946-8.464a69.867,69.867,0,0,0,.992-7.535l-9.922.093v-2.636H842.7c-.869,6.791-.962,7.535-1.458,10.17a37.079,37.079,0,0,1,7.659,1.644,50.175,50.175,0,0,0,.713-6.853ZM830.2,315.043c0,1.3.59,2.945,2.48,2.945,2.2,0,3.815-1.922,5.457-9.146-7.813.31-7.937,5.426-7.937,6.2" fill="#fff"/><path d="M329.662,178.231c-.143.215-.215.323-.573.824l-1.077-1.506c-.466,5.883-1.435,8.5-3.085,11.264l-2.332-3.372c2.081-4.054,2.188-8.143,2.188-13.668V161.98h15.749v7H330.7l2.654.754a15.936,15.936,0,0,1-.645,2.044h2.941a15.44,15.44,0,0,0,.9-2.439l2.906.467c-.287.645-.718,1.542-.969,1.972h2.691v2.548H338.2v2.116h2.655v2.3H338.2v2.188h2.655v2.3H338.2v2.475h3.265V186.8a21.432,21.432,0,0,0,4.986-3.981l2.368,2.08a18.891,18.891,0,0,1-5.883,4.879l-1.471-1.83v.431H332.64v1.4h-2.978Zm-6.241-21.022h17.757v3.013H323.421Zm4.806,11.766V172.1c0,1.363-.035,2.188-.072,2.8a23.058,23.058,0,0,0,2.512-5.919Zm0-2.439h8.9v-2.188h-8.9Zm4.413,9.9H335.4v-2.116H332.64Zm0,4.484H335.4v-2.188H332.64Zm0,4.771H335.4v-2.475H332.64Zm19.838-2.941h-9.363V163.02h3.7a16.852,16.852,0,0,0,.574-2.69H342v-3.121h15.21v3.121H350.72a21.778,21.778,0,0,1-.717,2.69h6.026v19.731h-3.515a20.322,20.322,0,0,0,5.452,4.2l-2.008,2.906a24.572,24.572,0,0,1-5.848-4.843Zm-5.919-14.206h6.1v-2.511h-6.1Zm0,5.381h6.1v-2.547h-6.1Zm0,5.7h6.1V176.8h-6.1Z" fill="#2a2b2a"/><path d="M392.122,179.953c-1.256-.251-2.153-.431-3.552-.718v10.547h-3.587v-1.471H367.369v1.471h-3.587V179.271c-1.614.4-2.44.574-3.444.79l-1.22-3.552a68.309,68.309,0,0,0,13.74-3.731,38.441,38.441,0,0,1-4.3-3.551,30.838,30.838,0,0,1-6.636,3.731l-1.579-3.086c7.282-2.8,9.83-6.242,10.87-7.712l3.766.538a16.216,16.216,0,0,1-1.112,1.435h12.377v2.654a23.419,23.419,0,0,1-6.637,6.134,47.189,47.189,0,0,0,13.739,3.3Zm-17.865-23.928h3.731v2.619h14.134v7.82h-3.767v-4.448H364.033v4.448h-3.695v-7.82h13.919Zm-6.888,29.129h17.614v-3.91H367.369Zm17.184-6.959a43.983,43.983,0,0,1-8.359-3.336,59.05,59.05,0,0,1-8.5,3.336Zm-13.489-11.049-.107.107a31.42,31.42,0,0,0,5.273,3.947,15.288,15.288,0,0,0,5.13-4.054Z" fill="#2a2b2a"/><path d="M398.117,173.065a18.829,18.829,0,0,1-1.686,2.188l-1.651-4.376c2.153-2.834,4.162-6.278,5.166-14.816l3.839.323a41.707,41.707,0,0,1-2.045,9.363v24.035h-3.623ZM428.9,157.173v3.48h-7.82v5.99h6.708v23.139H424.3v-1.471H408.018v1.471h-3.444V166.643h6.637v-5.99h-6.924v-3.48Zm-20.878,27.694h3.193V169.98h-3.193Zm6.529-18.224h3.192v-5.991h-3.192Zm0,18.224h3.192V169.98h-3.192Zm6.529,0H424.3V169.98h-3.229Z" fill="#2a2b2a"/><path d="M433.779,172.778c-.5.789-.9,1.363-1.758,2.547l-1.793-4.807c1.291-1.686,4.053-5.2,5.417-14.422l3.838.252a59.142,59.142,0,0,1-2.117,8.645V189.71h-3.587ZM450.5,156.1h3.623v2.62H464.81v3.049H454.119v2.475h8.933v18.977H446.263V164.24H450.5v-2.475H440.308v-3.049H450.5Zm14.314,29.238v3.12H443.752v1.256h-3.444V164.24h3.444v21.094Zm-15.247-15.892H459.68v-2.26H449.563Zm0,5.488H459.68v-2.476H449.563Zm0,5.31H459.68v-2.655H449.563Z" fill="#2a2b2a"/><path d="M466.859,184.472h2.332V172.2h-2.332v-3.013h33.9V172.2H483.217v17.578h-3.408V186.84c-2.117.252-7.856.79-12.592.969Zm3.157-27.371h27.407v10.332H470.016Zm2.583,17.255h7.21V172.2H472.6Zm0,4.807h7.21v-2.152H472.6Zm7.21,2.655H472.6V184.4c2.152-.072,3.658-.144,7.21-.5Zm-6.027-20.412h19.91V159.72h-19.91Zm0,3.659h19.91v-1.686h-19.91ZM488.67,177.8a13.489,13.489,0,0,0,3.264,4.448,13.674,13.674,0,0,0,3.516-5.165H484.257v-3.014h15v3.085a17.844,17.844,0,0,1-4.557,7.032,24.355,24.355,0,0,0,6.063,2.26l-1.9,3.336a23.183,23.183,0,0,1-6.924-3.265,21.664,21.664,0,0,1-7.031,3.265l-1.363-3.157a23.076,23.076,0,0,0,5.668-2.368,15.578,15.578,0,0,1-3.731-5.632Z" fill="#2a2b2a"/><path d="M502.234,185.728a23.69,23.69,0,0,0,14.923-17.363H502.951v-3.8h14.565v-8.573H521.5v8.573h14.887v3.8H522.18c1.471,7.641,5.74,14.816,15.067,17.363l-2.548,3.946c-10.869-4.843-13.739-11.766-14.959-16.035-2.475,6.528-7.748,13.2-14.995,15.819Z" fill="#2a2b2a"/><path d="M543.062,171.307a29.054,29.054,0,0,1-2.978,3.479l-1.973-4.2a30.543,30.543,0,0,0,8-14.421l3.839.466a42.96,42.96,0,0,1-3.086,8.25v24.86h-3.8ZM558.021,156.1v12.629a53.046,53.046,0,0,0,11.408-6.458l2.583,3.372a67.873,67.873,0,0,1-13.991,7v11.407c0,.968,0,1.328,1.4,1.328H567.1c.969,0,1.184-.323,1.327-.718a47.693,47.693,0,0,0,.323-5.6l3.767,1.006c-.036,1.542-.215,6.134-.969,7.318-.825,1.363-1.793,1.722-3.479,1.722h-10.26c-1.04,0-3.623,0-3.623-3.3V156.1Z" fill="#2a2b2a"/><path d="M589.881,184.257c4.269-.179,13.022-.573,13.022-11.694,0-2.834-.969-9.363-9.435-9.9-.574,5.955-1.184,12.376-3.91,17.506-.61,1.112-2.727,5.058-6.888,5.058-4.7,0-7.067-5.381-7.067-10.4,0-8.646,6.1-15.928,16.753-15.928,11.91,0,15.031,8.179,15.031,14.063,0,14.241-12.735,14.923-16.466,15.1Zm-10.368-8.9c0,3.875,1.507,5.919,3.3,5.919,4.807,0,6.207-13.417,6.565-18.439-8.573,1.507-9.865,9.363-9.865,12.52" fill="#2a2b2a"/><path d="M381.148,208.2c.395-3.731.467-4.915.574-6.242l3.731.359c-.107,1.435-.251,3.264-.61,5.883h5.847c-.286,3.193-.968,11.874-3.048,17.04a45.851,45.851,0,0,1,4.412,4.3l-2.726,2.941c-1.005-1.148-2.117-2.439-3.48-3.766a25.847,25.847,0,0,1-6.242,7.031l-2.547-3.193a16.524,16.524,0,0,0,6.1-6.278,55.535,55.535,0,0,0-5.309-3.838,70.14,70.14,0,0,0,2.834-10.691h-3.265V208.2Zm3.121,3.551a71.754,71.754,0,0,1-2.224,9.112c.9.646,1.543,1.113,2.691,2.009a52.2,52.2,0,0,0,2.188-11.121Zm25.542-8.358v3.623a39.628,39.628,0,0,1-6.708,7.067V216.2h7.856v3.659H403.1v12.52c0,1.434-.646,3.372-3.731,3.372h-5.919l-.574-3.767h5.56a.875.875,0,0,0,.933-.968V219.863H390.69V216.2h8.682v-4.52h1.578a33.883,33.883,0,0,0,4.556-4.664H391.838V203.4Z" fill="#2a2b2a"/><path d="M435.608,203.181h4.125v6.959H445.9v3.731h-6.171v2.942c0,2.224-.394,8.932-4.986,12.843-3.587,3.013-8.932,4.089-11.623,4.555l-1.686-3.73c3.48-.5,8.4-1.435,11.265-4.341,2.654-2.69,2.9-7.39,2.9-9.291v-2.978H424.129V223.2H420v-9.328h-6.063V210.14H420V203.4h4.125v6.744h11.479Z" fill="#2a2b2a"/><path d="M469.62,234.535h-4.269V218.284a54.846,54.846,0,0,1-13.273,6.278l-2.045-3.444c4.843-1.578,15.5-5.094,25.9-17.686l3.874,2.368a106.9,106.9,0,0,1-10.188,9.435Z" fill="#2a2b2a"/><path d="M516.044,208.132c-1.041,6.026-3.982,23.569-25.649,26.331l-1.686-3.659c11.694-1.722,18.582-6.171,21.99-18.87H497.892c-3.228,4.09-5.955,6.709-8.645,8.251l-2.655-3.049a25.719,25.719,0,0,0,11.659-14.1l4.412.861a21.129,21.129,0,0,1-2.045,4.233Z" fill="#2a2b2a"/><path d="M530.828,213.8c0,15.067-5.094,19.659-6.888,21.273l-3.12-3.121c1.65-1.327,5.847-4.591,5.847-17.362v-9.973h4.161Zm9.686,15.354c8.251-1.973,10.116-12.053,10.475-13.883l3.659,1.579c-3.3,15.784-14.744,16.753-18.152,17.039V203.541h4.018Z" fill="#2a2b2a"/><path d="M384.3,388.556c-.072.109-.108.163-.288.414l-.54-.755a11.468,11.468,0,0,1-1.549,5.653l-1.17-1.692c1.044-2.036,1.1-4.087,1.1-6.861V380.4h7.9v3.511h-4.933l1.332.378a7.782,7.782,0,0,1-.324,1.026h1.477a7.9,7.9,0,0,0,.45-1.224l1.458.234c-.144.324-.359.774-.486.99h1.35v1.279h-1.494v1.062h1.332v1.152h-1.332v1.1h1.332v1.152h-1.332V392.3h1.639v.557a10.753,10.753,0,0,0,2.5-2l1.187,1.044a9.469,9.469,0,0,1-2.952,2.449l-.738-.919v.217H385.8v.7H384.3Zm-3.133-10.55h8.912v1.512h-8.912Zm2.412,5.9v1.566c0,.685-.017,1.1-.036,1.4a11.564,11.564,0,0,0,1.261-2.971Zm0-1.225h4.466v-1.1H383.58Zm2.215,4.97h1.387v-1.062H385.8Zm0,2.251h1.387v-1.1H385.8Zm0,2.395h1.387V391.06H385.8Zm9.957-1.477h-4.7v-9.9h1.854a8.319,8.319,0,0,0,.288-1.35h-2.7v-1.566h7.635v1.566H394.87a11.174,11.174,0,0,1-.36,1.35h3.024v9.9h-1.763a10.141,10.141,0,0,0,2.736,2.106L397.5,394.39a12.325,12.325,0,0,1-2.935-2.43Zm-2.971-7.13h3.061v-1.261h-3.061Zm0,2.7h3.061v-1.278h-3.061Zm0,2.864h3.061v-1.423h-3.061Z" fill="#51a9aa"/><path d="M415.642,389.421c-.63-.126-1.08-.216-1.782-.361v5.294h-1.8v-.738h-8.84v.738h-1.8v-5.275c-.81.2-1.224.288-1.729.395l-.612-1.782a34.216,34.216,0,0,0,6.9-1.873,19.271,19.271,0,0,1-2.16-1.782,15.473,15.473,0,0,1-3.331,1.873l-.793-1.549c3.655-1.4,4.934-3.133,5.456-3.871l1.891.27a7.92,7.92,0,0,1-.559.72h6.212v1.332a11.734,11.734,0,0,1-3.331,3.079,23.678,23.678,0,0,0,6.9,1.657Zm-8.966-12.01h1.873v1.314h7.093v3.925h-1.89v-2.232H401.544v2.232h-1.855v-3.925h6.987Zm-3.457,14.62h8.841v-1.962h-8.841Zm8.625-3.492a22.117,22.117,0,0,1-4.2-1.675,29.66,29.66,0,0,1-4.267,1.675Zm-6.771-5.546-.054.054a15.721,15.721,0,0,0,2.647,1.98,7.677,7.677,0,0,0,2.575-2.034Z" fill="#51a9aa"/><path d="M417.87,378.023h15.61v1.746h-6.914v6.555h7.473v1.765h-7.473v6.337h-1.89v-6.337h-7.437v-1.765h7.437v-6.555H417.87Zm2.574,2.377a24.245,24.245,0,0,1,1.909,4.789l-1.783.612a33.829,33.829,0,0,0-1.8-4.807Zm12.046.5a26.408,26.408,0,0,1-2.143,5.006l-1.674-.685a25.727,25.727,0,0,0,1.909-4.807Z" fill="#51a9aa"/><path d="M442.532,384.235c-.27.36-.45.576-.828,1.008l-1.495-1.17c.324-.36.45-.5.738-.864h-1.782v5.42c.792-.288,1.278-.505,2.017-.811l.269,1.62a63.406,63.406,0,0,1-6.355,2.612l-.288-2.017c.684-.181,1.17-.307,2.539-.757v-6.067h-2.161v-1.765h2.161v-4h1.818v4h1.927v1.549a12.835,12.835,0,0,0,2.448-5.672l1.782.271a15.912,15.912,0,0,1-.521,2.051h7.021c.019,2.486.073,10.156-.7,12.443-.414,1.242-.971,2.215-3.457,2.215h-2.52l-.325-1.91h2.5c.973,0,1.584-.053,2.017-1.026.63-1.422.685-7.851.666-9.921h-5.9a15.322,15.322,0,0,1-1.242,2.3h5.275v1.692h-5.6Zm6.14,4.88a45.513,45.513,0,0,1-6.752,2.61l-.54-1.963a46.379,46.379,0,0,0,7.021-2.3Z" fill="#51a9aa"/><path d="M459.542,381.463c.035-.217.126-.829.162-1.1h-5.923v-1.639h6.1c.036-.341.054-.593.108-1.386l1.89.108c-.017.18-.09,1.08-.107,1.278h7.832v1.639h-8.013c-.035.27-.126.882-.161,1.1h7.544v1.511h-7.815c-.126.6-.2.9-.27,1.225h9.2v1.585h-2.881v1.458h2.647v1.639h-2.647v3.564c0,.721,0,1.819-1.476,1.819h-3.295l-.378-1.819h2.755c.467,0,.486-.216.486-.521v-3.043h-6.23a14.043,14.043,0,0,1-4.772,4.861l-1.152-1.6a11.946,11.946,0,0,0,3.709-3.258h-3.4v-1.639h4.429a10.292,10.292,0,0,0,.631-1.458H453.24V384.2h5.744c.2-.774.252-1.044.288-1.225H454.3v-1.511Zm.144,7.849a10.97,10.97,0,0,1,2.9,2.251l-1.35,1.4a24,24,0,0,0-2.81-2.377Zm5.618-2.07v-1.458H460.46a13.94,13.94,0,0,1-.54,1.458Z" fill="#51a9aa"/><path d="M475.4,382.272a29.4,29.4,0,0,1-3.655,1.765l-.918-1.819c5.4-1.782,7.112-3.853,7.9-4.807h1.891a16.891,16.891,0,0,0,7.778,4.771l-.954,1.855a19.3,19.3,0,0,1-3.6-1.765v1.333H475.4Zm3.042,2.629v7.544H474.1v.973h-1.746V384.9Zm-4.339,5.888h2.629v-4.231H474.1Zm9.183-8.859a19.4,19.4,0,0,1-3.637-2.917,20.46,20.46,0,0,1-3.673,2.917Zm3.494,2.971v5.942c0,.63,0,1.926-1.495,1.926h-2.268l-.271-1.926H484.4c.451,0,.612-.144.612-.486v-3.764h-3.079v7.743h-1.8V384.9Z" fill="#51a9aa"/><path d="M496.856,391.581c2.143-.09,6.535-.288,6.535-5.869a4.637,4.637,0,0,0-4.735-4.97c-.288,2.989-.594,6.212-1.962,8.787-.307.558-1.369,2.538-3.457,2.538-2.359,0-3.548-2.7-3.548-5.222,0-4.338,3.062-7.994,8.409-7.994,5.978,0,7.544,4.106,7.544,7.059,0,7.147-6.391,7.49-8.264,7.58Zm-5.2-4.465c0,1.944.756,2.971,1.656,2.971,2.413,0,3.115-6.734,3.295-9.255-4.3.757-4.951,4.7-4.951,6.284" fill="#51a9aa"/><path d="M521.428,381.372h-11.47v12.964H508V379.607h5.312a11.462,11.462,0,0,0,.792-2.448l2.035.378a11.318,11.318,0,0,1-.774,2.07h7.994v13.109c0,1.314-.5,1.62-1.584,1.62h-2.846l-.252-2H521c.4,0,.432-.325.432-.6Zm-1.6,9.561H511.56v-7.49h8.265Zm-6.536-1.657h4.79V385.1h-4.79Z" fill="#51a9aa"/><path d="M534.279,377.447v5.437h6.752v1.927h-6.752v7.023h7.9v1.89H525.149v-1.89H532.3V377.447Z" fill="#51a9aa"/><path d="M553.521,385.874A1.872,1.872,0,1,1,551.649,384a1.859,1.859,0,0,1,1.872,1.873" fill="#51a9aa"/><path d="M412.706,415.152c-.307,4.483-1.837,5.941-6.176,7.256l-.864-1.819c3.4-.792,5.06-1.656,5.041-5.582Zm-6.843-8.373h7.563v-1.35h1.909v1.35h7.544v1.783h-7.544v1.35h6.535v1.6H406.908v-1.6h6.518v-1.35h-7.563Zm.433,5.87h16.1v3.529h-1.927v-1.909H408.2v1.909H406.3Zm16.619,5.618a9.624,9.624,0,0,1-.469,2.7,1.63,1.63,0,0,1-1.511,1.063h-3.764a1.431,1.431,0,0,1-1.639-1.423v-5.564h1.855v4.79c0,.252.018.432.342.432h2.665c.126,0,.324-.144.4-.45.09-.361.2-1.729.234-2Z" fill="#51a9aa"/><path d="M433.029,405.447v5.437h6.752v1.927h-6.752v7.023h7.9v1.89H423.9v-1.89h7.149V405.447Z" fill="#51a9aa"/><path d="M445.032,408.49a12.832,12.832,0,0,0-1.3-2.5l1.746-.648A18.7,18.7,0,0,1,446.959,408l-1.332.486h4.232a13.823,13.823,0,0,0-1.351-2.791l1.765-.576a15.565,15.565,0,0,1,1.4,2.845l-1.783.522h3.763a24.972,24.972,0,0,0,1.531-3.223l1.963.594a17.212,17.212,0,0,1-1.387,2.629h1.873v7.8H451.28v1.459h7.563v1.746H451.28v2.845h-1.764v-2.845h-7.562v-1.746h7.562v-1.459h-6.338v-7.8Zm-.071,3.15h4.555v-1.512h-4.555Zm0,2.99h4.555v-1.566h-4.555Zm6.319-2.99h4.592v-1.512H451.28Zm0,2.99h4.592v-1.566H451.28Z" fill="#51a9aa"/><path d="M461.395,413.964a9.545,9.545,0,0,1-.847,1.1l-.828-2.2c1.08-1.422,2.089-3.15,2.593-7.436l1.926.163a20.9,20.9,0,0,1-1.026,4.7v12.063h-1.818Zm15.448-7.977v1.747h-3.925v3.007h3.366v11.613h-1.746v-.738h-8.175v.738h-1.728V410.741h3.331v-3.007h-3.475v-1.747Zm-10.48,13.9h1.6v-7.473h-1.6Zm3.278-9.146h1.6v-3.007h-1.6Zm0,9.146h1.6v-7.473h-1.6Zm3.277,0h1.62v-7.473h-1.62Z" fill="#51a9aa"/><path d="M485.606,419.581c2.143-.09,6.535-.288,6.535-5.869a4.637,4.637,0,0,0-4.735-4.97c-.288,2.989-.594,6.212-1.962,8.787-.307.558-1.369,2.538-3.457,2.538-2.359,0-3.548-2.7-3.548-5.222,0-4.338,3.062-7.994,8.409-7.994,5.978,0,7.544,4.106,7.544,7.059,0,7.147-6.391,7.49-8.264,7.58Zm-5.2-4.465c0,1.944.756,2.971,1.656,2.971,2.413,0,3.115-6.734,3.295-9.255-4.3.757-4.951,4.7-4.951,6.284" fill="#51a9aa"/><path d="M510.178,409.372h-11.47v12.964h-1.962V407.607h5.312a11.466,11.466,0,0,0,.792-2.448l2.035.378a11.32,11.32,0,0,1-.774,2.07H512.1v13.109c0,1.314-.5,1.62-1.584,1.62h-2.846l-.252-2h2.323c.4,0,.432-.325.432-.6Zm-1.6,9.561H500.31v-7.49h8.265Zm-6.536-1.657h4.79V413.1h-4.79Z" fill="#51a9aa"/><path d="M523.029,405.447v5.437h6.752v1.927h-6.752v7.023h7.9v1.89H513.9v-1.89h7.149V405.447Z" fill="#51a9aa"/><path d="M389.485,296.044a9.875,9.875,0,0,1-.919,1.171l-.954-2.106c1.44-1.639,2.467-4.484,2.936-7.545l1.944.234a28.032,28.032,0,0,1-1.171,4.591v12.136h-1.836Zm15.431-3.762H392.168v-1.729h12.748Zm-.739,6.122v6.121h-1.854v-.756h-7.311v.756h-1.854V298.4Zm-.27-3.566H393.482v-1.656h10.425Zm0,2.611H393.482v-1.656h10.425Zm-.252-7.833H393.68V287.96h9.975Zm-8.643,12.533h7.311v-2.125h-7.311Z" fill="#2a2b2a"/><path d="M413.5,303.336a10.471,10.471,0,0,0,3.133-2.322h-1.513v-9.885h2.125a8.332,8.332,0,0,0,.378-1.35H414.47v1.008h-3.33v1.08h2.952V297.5H411.32a11.875,11.875,0,0,0,2.7,2.9l-1.062,1.566a11.205,11.205,0,0,1-1.819-2.593v5.168h-1.711v-5.366a14.241,14.241,0,0,1-2.863,4.159l-.809-1.674a14.65,14.65,0,0,0,3.276-4.159H406.44v-5.636h2.989v-1.08h-3.51V289.04h3.51v-1.458h1.711v1.458h3.33v-.882h8.41v1.621h-3.44a8.443,8.443,0,0,1-.432,1.35h3.4v9.885h-1.8a10.625,10.625,0,0,0,2.664,2.017l-1.025,1.53a17.351,17.351,0,0,1-2.99-2.359l1.279-1.188h-3.89L418,302.04a11.492,11.492,0,0,1-3.367,2.593Zm-5.366-7.382h1.3v-2.539h-1.3Zm3.007,0h1.314v-2.539H411.14Zm5.707-2.088h3.745V292.66h-3.745Zm0,2.718h3.745v-1.278h-3.745Zm0,2.827h3.745v-1.332h-3.745Z" fill="#2a2b2a"/><path d="M424.6,288.2h6.9v6.067h-5.132v10.227H424.6Zm1.765,2.448h3.385v-1.1h-3.385Zm0,2.3h3.385v-1.135h-3.385Zm9.6,10.586a7.2,7.2,0,0,1-3.565-3.114,7.609,7.609,0,0,1-4.3,3.547l-.936-1.494a6.487,6.487,0,0,0,3.529-2.233h-3.15v-1.369h3.835a3.549,3.549,0,0,0,.126-1.242H427.88v-1.35h1.692c-.162-.361-.5-1.009-.685-1.332l1.747-.289a10.85,10.85,0,0,1,.63,1.621h2.215a12.9,12.9,0,0,0,.523-1.621l1.818.163a8.178,8.178,0,0,1-.648,1.458h1.854v1.35h-3.852a5.412,5.412,0,0,1-.163,1.242H437.3v1.369h-3.331a6.853,6.853,0,0,0,2.808,1.836l-.36.63h1.549c.3,0,.45-.107.45-.557v-7.887h-5.15V288.2h6.914v15a1.2,1.2,0,0,1-1.3,1.3h-2.124l-.469-1.548Zm-.972-12.891h3.421v-1.1h-3.421Zm0,2.3h3.421v-1.135h-3.421Z" fill="#2a2b2a"/><path d="M443.611,295.775a14.317,14.317,0,0,1-1.171,1.494l-.864-2.232c1.243-1.459,2.377-3.2,3.151-7.473l1.908.288a23.529,23.529,0,0,1-1.169,4.25v12.369h-1.855Zm6.878,3.781a12.831,12.831,0,0,1-3.061,4.375l-1.386-1.3a10.375,10.375,0,0,0,2.808-3.762Zm-4.268-3.169c.685.035,1.747.072,3.926.035.144-.143.288-.269.756-.719a44.065,44.065,0,0,0-3.709-3.3l1.08-1.3c.288.217.486.36,1.1.847.594-.7,1.26-1.584,1.548-2.017-1.926.126-3.061.126-3.637.126l-.216-1.62a49.9,49.9,0,0,0,10.533-.919l.613,1.495a32.448,32.448,0,0,1-5.079.756,22.069,22.069,0,0,1-2.448,3.331,16.655,16.655,0,0,1,1.386,1.368,42.736,42.736,0,0,0,3.4-4.249l1.567.918a36.317,36.317,0,0,1-4.484,5.2c.54-.036,3.205-.144,3.818-.2-.342-.7-.577-1.116-.847-1.566l1.531-.685a17.079,17.079,0,0,1,2.034,4.142l-1.674.719c-.09-.252-.126-.341-.432-1.116-.5.072-1.585.2-3.583.324v6.5h-1.837v-6.41c-1.458.055-2.9.09-5.2.09Zm9.85,2.431a13.6,13.6,0,0,0,2.881,3.853l-1.315,1.386a14.163,14.163,0,0,1-3.079-4.537Z" fill="#2a2b2a"/><path d="M467.625,288.3c-.054.414-.108.757-.288,1.6h7.328v1.854h-7.851a8.981,8.981,0,0,1-.612,1.549,4.526,4.526,0,0,1,2.089-.523,2.69,2.69,0,0,1,2.881,2.089,34.858,34.858,0,0,1,4.321-1.44l.45,2.016a33.792,33.792,0,0,0-4.411,1.3,26.24,26.24,0,0,1,.054,3.35h-2.017a9.845,9.845,0,0,0,.073-1.351c0-.5-.019-.864-.037-1.188-.81.4-2.97,1.459-2.97,2.791,0,1.53,2.034,1.53,3.762,1.53.235,0,2.053,0,4.5-.2v1.945c-1.35.054-2.863.09-4.213.09-1.962,0-3.817-.036-5.06-1.026a2.92,2.92,0,0,1-1.134-2.269c0-1.837,1.782-3.133,4.879-4.754a1.318,1.318,0,0,0-1.4-1.1,5.359,5.359,0,0,0-3.745,2.251,25.916,25.916,0,0,1-2.089,2.827l-1.476-1.531a16.412,16.412,0,0,0,4.07-6.356h-3.62V289.9h4.141a12.28,12.28,0,0,0,.234-1.765Z" fill="#2a2b2a"/><path d="M477.648,300.258a19.788,19.788,0,0,0,2.2-.469v-6.067h-1.926v-1.837h1.926v-4.267h1.819v4.267h1.511v1.837h-1.511v5.563c.918-.269,1.1-.324,1.511-.467l.127,1.637a34.938,34.938,0,0,1-5.383,1.765Zm6-10.75h2.467a16.6,16.6,0,0,0-.937-1.728l1.8-.342a10.449,10.449,0,0,1,.937,2.07h2.268a8.412,8.412,0,0,0,1.008-2.07l1.891.342a13.41,13.41,0,0,1-1.027,1.728h2.395v6.645h-10.8Zm.487,7.635h9.812v7.328H492.2v-.72H485.93v.72h-1.8Zm1.187-4.951h2.917v-1.314h-2.917Zm0,2.61h2.917V293.47h-2.917Zm.612,4.97H492.2v-1.206H485.93Zm0,2.5H492.2V301.05H485.93Zm3.89-10.083h2.971v-1.314H489.82Zm0,2.61h2.971V293.47H489.82Z" fill="#2a2b2a"/><path d="M505.065,288.265h2.089v1.946h5.131v1.854h-5.131v3.817a8.969,8.969,0,0,1,.288,2.287c0,5.239-4.177,5.636-7.31,5.815l-.63-1.908c4.465-.09,5.4-.954,5.815-2.341a2.526,2.526,0,0,1-1.98.72,3.72,3.72,0,1,1,.054-7.436,3.519,3.519,0,0,1,1.783.432l-.036-1.386h-8.607v-1.854h8.57Zm.18,8.229a1.439,1.439,0,0,0-.359-1.1,2.02,2.02,0,0,0-1.459-.612,1.825,1.825,0,0,0-1.909,1.891,1.757,1.757,0,0,0,1.855,1.89,1.7,1.7,0,0,0,1.872-1.728Z" fill="#2a2b2a"/><path d="M516.1,296.189c.143-1.116.306-2.774.324-3.764a8.36,8.36,0,0,1-1.441,1.135l-1.224-1.549a11.437,11.437,0,0,0,3.943-4.465l2.071.487c-.216.431-.325.629-.559,1.026h11.416V290.8H517.933c-.072.072-.63.756-1.242,1.351h12.117c.018.378.036.792.036,1.385,0,.307-.018,1.3-.071,2.648h2.034v1.71H528.7c-.036.828-.108,1.783-.162,2.413h1.782v1.711h-1.944c-.306,2.16-1.387,2.448-2,2.448H523.3l-.288-1.692h2.845c.431,0,.467-.235.557-.756H517c-.108.5-.162.7-.289,1.17l-1.889-.324a37.58,37.58,0,0,0,1.043-4.97h-1.873v-1.71Zm4.861,4.123c.126-.828.234-1.891.288-2.413h-3.529c-.018.108-.054.343-.4,2.413Zm-2.808-6.464a20.432,20.432,0,0,1-.2,2.341h3.421c.073-1.009.09-1.549.108-2.341Zm8.48,6.464c.018-.235.144-2.07.162-2.413H523.1c-.055.558-.2,1.783-.271,2.413Zm-3.331-6.464c-.019.378-.091,2-.091,2.341h3.638c.036-1.333.036-1.693.017-2.341Z" fill="#2a2b2a"/><path d="M536.095,288.68a51.571,51.571,0,0,0-.719,8.318,26.112,26.112,0,0,0,.683,6.483l-2,.252a27.657,27.657,0,0,1-.684-6.644,65.411,65.411,0,0,1,.666-8.589Zm4.43,7.887a4.459,4.459,0,0,0-.828,2.341c0,1.926,2.034,1.926,4.3,1.926a24.4,24.4,0,0,0,3.547-.217v2c-1.188.109-2.557.109-3.295.109-2.359,0-6.41,0-6.41-3.745a5.965,5.965,0,0,1,1.027-3.152Zm6.716-4.951h-8.913v-1.873h8.913Z" fill="#2a2b2a"/><path d="M391.051,327.745c-.072.109-.108.163-.288.414l-.54-.755a11.447,11.447,0,0,1-1.549,5.653l-1.169-1.692c1.044-2.036,1.1-4.087,1.1-6.861v-4.915h7.9V323.1h-4.933l1.332.378a8.1,8.1,0,0,1-.324,1.026h1.476a7.694,7.694,0,0,0,.45-1.224l1.458.234c-.143.324-.359.774-.486.99h1.351v1.279h-1.494v1.062h1.332V328h-1.332v1.1h1.332v1.152h-1.332v1.243h1.638v.558a10.758,10.758,0,0,0,2.5-2l1.188,1.044a9.468,9.468,0,0,1-2.952,2.449l-.739-.918v.216h-4.429v.7h-1.495Zm-3.132-10.55h8.912v1.512h-8.912Zm2.412,5.9v1.566c0,.685-.018,1.1-.036,1.405a11.553,11.553,0,0,0,1.26-2.971Zm0-1.225H394.8v-1.1h-4.466Zm2.215,4.97h1.387v-1.062h-1.387Zm0,2.251h1.387V328h-1.387Zm0,2.395h1.387v-1.242h-1.387Zm9.957-1.477h-4.7v-9.9h1.855a8.534,8.534,0,0,0,.288-1.35h-2.7V317.2h7.635v1.566h-3.259a10.98,10.98,0,0,1-.361,1.35h3.025v9.9h-1.764a10.126,10.126,0,0,0,2.737,2.106l-1.008,1.459a12.351,12.351,0,0,1-2.936-2.43Zm-2.971-7.13h3.061v-1.261h-3.061Zm0,2.7h3.061v-1.278h-3.061Zm0,2.864h3.061v-1.423h-3.061Z" fill="#2a2b2a"/><path d="M422.393,328.61c-.63-.126-1.08-.216-1.782-.361v5.294h-1.8V332.8h-8.84v.738h-1.8v-5.275c-.81.2-1.224.288-1.729.395l-.612-1.782a34.215,34.215,0,0,0,6.9-1.873,19.271,19.271,0,0,1-2.16-1.782,15.474,15.474,0,0,1-3.331,1.873l-.793-1.549c3.655-1.4,4.934-3.133,5.456-3.871l1.891.271a8.01,8.01,0,0,1-.559.719h6.212V322a11.735,11.735,0,0,1-3.331,3.079,23.678,23.678,0,0,0,6.9,1.657Zm-8.966-12.01H415.3v1.314h7.093v3.925H420.5v-2.232H408.3v2.232H406.44v-3.925h6.987Zm-3.457,14.62h8.841v-1.962H409.97Zm8.625-3.493a22.072,22.072,0,0,1-4.2-1.674,29.583,29.583,0,0,1-4.267,1.674Zm-6.771-5.545-.054.054a15.72,15.72,0,0,0,2.647,1.98,7.676,7.676,0,0,0,2.575-2.034Z" fill="#2a2b2a"/><path d="M427.754,317.591a31.832,31.832,0,0,0-.738,7.526,37.208,37.208,0,0,0,.63,7.2l-2.035.271a47.107,47.107,0,0,1-.558-7.635,39.844,39.844,0,0,1,.612-7.6Zm6.626,2.791v-3.026h1.927v3.026h3.421v1.873H436.36l.073,4.627a16.259,16.259,0,0,1,3.781,2.7l-1.314,1.728a17.946,17.946,0,0,0-2.486-2.287c0,1.458-.107,3.529-3.583,3.529-3.871,0-4.033-2.7-4.033-3.151,0-1.746,1.549-3.367,4.052-3.367a6.6,6.6,0,0,1,1.62.2l-.09-3.978H429v-1.873Zm.126,7.688a3.557,3.557,0,0,0-1.549-.324c-1.386,0-2.268.666-2.268,1.6,0,.288.126,1.458,2.088,1.458,1.693,0,1.729-.738,1.729-1.511Z" fill="#2a2b2a"/><path d="M442.081,331.526c.3.018.612.036,1.061.036a18.955,18.955,0,0,0,5.042-.666,10.864,10.864,0,0,1-2.341-1.638,12.142,12.142,0,0,1-2.772,1.062l-.847-1.549a10.177,10.177,0,0,0,5.456-2.575,1.151,1.151,0,0,1-.7-1.188v-1.962h1.62v1.44c0,.359.162.359.288.359h2.864a.423.423,0,0,0,.414-.359c.035-.108.143-.684.179-.81l1.6.234c-.324,1.944-.612,2.358-1.6,2.358h-2.575a11.158,11.158,0,0,1-.882.918h6.68v1.495a11.987,11.987,0,0,1-3.043,2.25,29.223,29.223,0,0,0,6.338.721l-.7,1.818a24.936,24.936,0,0,1-7.779-1.584,26.583,26.583,0,0,1-7.759,1.476Zm2.772-11.037c-.162-.576-.234-.811-.378-1.351-.306,0-1.171.018-1.423.018l-.395-1.584c4.033,0,10.821-.09,14.494-1.1l.99,1.62a9.561,9.561,0,0,1-1.368.289,16.405,16.405,0,0,1-1.207,2.107h2.9v3.421h-1.638a13.5,13.5,0,0,1,1.512,2.034l-1.584,1.026a23.952,23.952,0,0,0-2.593-3.367l1.4-.954a10.008,10.008,0,0,1,1.116,1.1v-1.765h-6.3a8.7,8.7,0,0,1,1.261,1.225l-1.224,1.134a19.288,19.288,0,0,0-1.584-1.674l.792-.685h-5.493v1.927h-1.818v-3.421Zm1.8,3.043a9.98,9.98,0,0,1-2.774,3.511l-1.4-1.1a8.377,8.377,0,0,0,2.683-2.988Zm2.935-3.043c-.09-.433-.216-1.045-.306-1.459-.99.036-1.981.054-2.989.072.252.847.27.918.4,1.387Zm-2.414,8.192a10.684,10.684,0,0,0,2.99,1.548,8.035,8.035,0,0,0,2.682-1.548Zm6.393-8.192c.288-.433.72-1.225,1.062-1.854-.558.053-2.88.251-3.637.288.054.252.288,1.349.324,1.566Z" fill="#2a2b2a"/><path d="M476.754,324.09H464.509c-.179,4.754-.971,6.86-3.294,9.4l-1.441-1.35c2.125-2,2.863-3.764,2.935-8.049h-2.664v-1.53H467.5v-.828h-5.852v-1.225H467.5v-.774h-6.716v-1.512h3.475a11.243,11.243,0,0,0-.739-1.387l2.053-.216c.234.451.594,1.279.721,1.6h4.2a8.367,8.367,0,0,0,.756-1.621l2.016.234a5.562,5.562,0,0,1-.7,1.387h3.511v1.512h-6.752v.774h5.852v1.225h-5.852v.828h7.437Zm-1.585.864v8.535h-1.746v-.7H466.9v.7h-1.746v-8.535Zm-8.265,2.179h6.519v-.846H466.9Zm0,2.07h6.519v-.882H466.9Zm0,2.089h6.519v-.9H466.9Z" fill="#2a2b2a"/><path d="M481.3,322.668a26.2,26.2,0,0,1-1.764,8.1l-1.747-1.314a19.3,19.3,0,0,0,1.567-6.985Zm1.261-6.015a28.453,28.453,0,0,1,7.454,2.125l-.828,1.963a23.819,23.819,0,0,0-7.221-2.377Zm.306,5.006h1.944v9.057c0,.558.2.558.469.558h3.15a.8.8,0,0,0,.7-.36,16.366,16.366,0,0,0,.505-3.079l1.89.72c-.486,4.034-1.17,4.61-2.466,4.61h-4.52c-.864,0-1.674-.271-1.674-1.711Zm9.4,0a29.333,29.333,0,0,1,2.81,8.049l-2.072.738a33.489,33.489,0,0,0-2.52-8.066Z" fill="#2a2b2a"/><path d="M503.625,317.3c-.054.414-.108.757-.288,1.6h7.328v1.854h-7.851a8.981,8.981,0,0,1-.612,1.549,4.526,4.526,0,0,1,2.089-.523,2.69,2.69,0,0,1,2.881,2.089,34.858,34.858,0,0,1,4.321-1.44l.45,2.016a33.792,33.792,0,0,0-4.411,1.3,26.24,26.24,0,0,1,.054,3.35h-2.017a9.845,9.845,0,0,0,.073-1.351c0-.5-.019-.864-.037-1.188-.81.4-2.97,1.459-2.97,2.791,0,1.53,2.034,1.53,3.762,1.53.235,0,2.053,0,4.5-.2v1.945c-1.35.054-2.863.09-4.213.09-1.962,0-3.817-.036-5.06-1.026a2.92,2.92,0,0,1-1.134-2.269c0-1.837,1.782-3.133,4.879-4.754a1.318,1.318,0,0,0-1.4-1.1,5.359,5.359,0,0,0-3.745,2.251,25.916,25.916,0,0,1-2.089,2.827l-1.476-1.531a16.412,16.412,0,0,0,4.07-6.356h-3.62V318.9h4.141a12.28,12.28,0,0,0,.234-1.765Z" fill="#2a2b2a"/><path d="M513.738,331.815a31.555,31.555,0,0,0,2.81-5.618l1.494,1.045a29.738,29.738,0,0,1-3.061,6.319Zm.973-10.083a13.3,13.3,0,0,1,2.881,1.656l-1.08,1.531a13.861,13.861,0,0,0-2.7-1.674Zm.864-4.97a14.54,14.54,0,0,1,2.7,1.675l-1.134,1.584a15.208,15.208,0,0,0-2.611-1.765Zm2.791,9.165h5.348V324h1.836v1.926h5.258v1.639h-4.051a11.8,11.8,0,0,0,4.483,3.511l-1.062,1.71a16.324,16.324,0,0,1-4.628-4.213v4.987h-1.836v-4.987a16.254,16.254,0,0,1-5.023,4.321l-1.082-1.6a17,17,0,0,0,2.666-1.567,7.826,7.826,0,0,0,2.25-2.16h-4.159Zm.18-3.025c2.251-.954,3.133-1.872,3.439-4.033H520.6v1.764H518.78v-3.384h11.631v3.384h-1.763v-1.764h-1.585v3.169c0,.27.053.414.341.414h1.441c.2,0,.379-.036.414-.2.055-.235.126-.793.181-1.207l1.512.324C530.7,324,530.016,324,529.44,324h-3.08c-.467,0-.99-.2-.99-.756v-4.376h-1.62a6.827,6.827,0,0,1-4.25,5.582Z" fill="#2a2b2a"/><path d="M534.115,324.27a14.7,14.7,0,0,1-1.494,1.747l-.99-2.107a15.314,15.314,0,0,0,4.014-7.238l1.927.235a21.557,21.557,0,0,1-1.549,4.14v12.478h-1.908Zm7.508-7.634v6.338a26.657,26.657,0,0,0,5.727-3.241l1.3,1.692a34.037,34.037,0,0,1-7.022,3.512v5.725c0,.487,0,.666.7.666h3.853c.486,0,.594-.162.666-.36a24.012,24.012,0,0,0,.162-2.809l1.89.5a12.022,12.022,0,0,1-.486,3.673,1.72,1.72,0,0,1-1.746.865h-5.149c-.523,0-1.819,0-1.819-1.657V316.636Z" fill="#2a2b2a"/><g style="isolation:isolate"><g clip-path="url(#e)"><path d="M468.4,362.9l38.028-15.409H430.368Z" fill="#e0e0e0"/></g></g><path d="M795.888,253.493l-9.357-15.218h18.714Z" fill="#5c6b73"/><path d="M272.125,307.8l15.218-9.357v18.714Z" fill="#5c6b73"/><path d="M317.7,44.938,302.484,54.3V35.581Z" fill="#5c6b73"/><rect width="49.823" height="131.426" transform="translate(109.089 95.632)" fill="#fff"/><g style="isolation:isolate"><g clip-path="url(#f)"><path d="M134,184.072l38.028-15.409H95.972Z" fill="#e0e0e0"/></g></g><rect width="49.823" height="129.769" transform="translate(770.977 87.128)" fill="#fff"/><g style="isolation:isolate"><g clip-path="url(#g)"><path d="M794.891,144.934l38.028-15.409H756.863Z" fill="#e0e0e0"/></g></g><path d="M717.547,169.623c-.072.108-.108.162-.288.414l-.54-.756a11.455,11.455,0,0,1-1.549,5.654L714,173.242c1.044-2.034,1.1-4.087,1.1-6.86v-4.915H723v3.511H718.07l1.332.378a8,8,0,0,1-.325,1.026h1.477a7.8,7.8,0,0,0,.45-1.224l1.458.234c-.143.324-.359.774-.486.99h1.35v1.278h-1.494v1.063h1.332v1.152h-1.332v1.1h1.332v1.152h-1.332v1.242h1.639v.559a10.805,10.805,0,0,0,2.5-2l1.187,1.044a9.446,9.446,0,0,1-2.952,2.449l-.738-.918v.216h-4.43v.7h-1.494Zm-3.133-10.551h8.912v1.513h-8.912Zm2.412,5.906v1.566c0,.685-.017,1.1-.036,1.4a11.566,11.566,0,0,0,1.261-2.971Zm0-1.224h4.466v-1.1h-4.466Zm2.215,4.969h1.387v-1.062h-1.387Zm0,2.251h1.387v-1.1h-1.387Zm0,2.394h1.387v-1.242h-1.387ZM729,171.892h-4.7v-9.9h1.855a8.524,8.524,0,0,0,.288-1.351h-2.7v-1.566h7.635v1.566h-3.259a10.913,10.913,0,0,1-.36,1.351h3.024v9.9h-1.763A10.183,10.183,0,0,0,731.753,174l-1.008,1.459a12.325,12.325,0,0,1-2.935-2.431Zm-2.97-7.13h3.061V163.5h-3.061Zm0,2.7h3.061v-1.278h-3.061Zm0,2.862h3.061V168.9h-3.061Z" fill="#51a9aa"/><path d="M748.888,170.488c-.63-.126-1.08-.217-1.781-.361v5.294h-1.8v-.738h-8.839v.738h-1.8v-5.276c-.81.2-1.224.289-1.729.4l-.612-1.782a34.243,34.243,0,0,0,6.9-1.872,19.143,19.143,0,0,1-2.159-1.783,15.5,15.5,0,0,1-3.331,1.873l-.794-1.549c3.656-1.4,4.935-3.133,5.456-3.871l1.891.27a8.1,8.1,0,0,1-.558.72h6.211v1.333a11.736,11.736,0,0,1-3.331,3.078,23.694,23.694,0,0,0,6.9,1.657Zm-8.966-12.01h1.873v1.314h7.093v3.926H747v-2.233H734.79v2.233h-1.855v-3.926h6.987ZM736.466,173.1h8.841v-1.963h-8.841Zm8.625-3.494a22.06,22.06,0,0,1-4.2-1.674,29.544,29.544,0,0,1-4.266,1.674Zm-6.771-5.545-.054.054a15.762,15.762,0,0,0,2.646,1.98,7.677,7.677,0,0,0,2.575-2.034Z" fill="#51a9aa"/><path d="M751.116,159.09h15.611v1.747h-6.914v6.553h7.472v1.765h-7.472v6.338h-1.891v-6.338h-7.437V167.39h7.437v-6.553h-6.806Zm2.574,2.377a24.185,24.185,0,0,1,1.909,4.789l-1.783.612a33.69,33.69,0,0,0-1.8-4.807Zm12.047.5a26.518,26.518,0,0,1-2.143,5.005l-1.675-.684a25.727,25.727,0,0,0,1.909-4.807Z" fill="#51a9aa"/><path d="M775.778,165.3c-.27.359-.45.576-.828,1.008l-1.495-1.171c.324-.36.45-.5.738-.864h-1.782v5.42c.792-.288,1.278-.5,2.017-.81l.269,1.62a63.628,63.628,0,0,1-6.355,2.611l-.288-2.017c.684-.18,1.17-.306,2.539-.756v-6.068h-2.161v-1.764h2.161v-4h1.818v4h1.927v1.548a12.828,12.828,0,0,0,2.448-5.671l1.782.27a15.922,15.922,0,0,1-.521,2.052h7.021c.019,2.485.073,10.155-.7,12.442-.414,1.242-.971,2.215-3.457,2.215h-2.52l-.325-1.909h2.5c.973,0,1.584-.054,2.017-1.027.63-1.422.685-7.85.666-9.92h-5.905a15.367,15.367,0,0,1-1.242,2.3h5.275v1.693h-5.6Zm6.14,4.879a45.435,45.435,0,0,1-6.752,2.611l-.54-1.963a46.408,46.408,0,0,0,7.021-2.3Z" fill="#51a9aa"/><path d="M792.788,162.529c.035-.216.126-.828.162-1.1h-5.923v-1.639h6.1c.036-.341.054-.594.108-1.386l1.89.108c-.017.18-.09,1.08-.107,1.278h7.832v1.639H794.84c-.035.27-.126.882-.161,1.1h7.544v1.513h-7.815c-.126.594-.2.9-.27,1.224h9.2v1.585h-2.881v1.458H803.1v1.639h-2.647v3.565c0,.72,0,1.818-1.476,1.818h-3.295l-.378-1.818h2.755c.467,0,.486-.217.486-.522v-3.043h-6.23a14.053,14.053,0,0,1-4.772,4.861l-1.152-1.6a11.96,11.96,0,0,0,3.709-3.258h-3.4v-1.639h4.429a10.286,10.286,0,0,0,.631-1.458h-5.276v-1.585h5.744c.2-.774.252-1.044.288-1.224h-4.97v-1.513Zm.144,7.851a10.944,10.944,0,0,1,2.9,2.25l-1.35,1.4a23.9,23.9,0,0,0-2.81-2.377Zm5.618-2.071v-1.458h-4.844a13.948,13.948,0,0,1-.54,1.458Z" fill="#51a9aa"/><path d="M808.646,163.339a29.323,29.323,0,0,1-3.655,1.765l-.919-1.819c5.4-1.782,7.112-3.853,7.9-4.807h1.891a16.9,16.9,0,0,0,7.778,4.771l-.954,1.855a19.3,19.3,0,0,1-3.6-1.765v1.333h-8.444Zm3.042,2.629v7.544h-4.339v.973H805.6v-8.517Zm-4.339,5.888h2.629v-4.231h-2.629ZM816.532,163a19.361,19.361,0,0,1-3.637-2.917A20.414,20.414,0,0,1,809.222,163Zm3.493,2.971v5.942c0,.63,0,1.927-1.494,1.927h-2.269l-.27-1.927h1.656c.45,0,.612-.144.612-.486V167.66h-3.079V175.4h-1.8v-9.435Z" fill="#51a9aa"/><path d="M830.1,172.648c2.143-.09,6.535-.288,6.535-5.869a4.637,4.637,0,0,0-4.735-4.97c-.288,2.989-.594,6.212-1.962,8.787-.307.558-1.369,2.538-3.457,2.538-2.359,0-3.548-2.7-3.548-5.221,0-4.339,3.062-7.995,8.409-7.995,5.978,0,7.544,4.106,7.544,7.058,0,7.149-6.391,7.491-8.264,7.581Zm-5.2-4.465c0,1.944.756,2.971,1.656,2.971,2.413,0,3.115-6.734,3.295-9.255-4.3.756-4.951,4.7-4.951,6.284" fill="#51a9aa"/><path d="M854.674,162.439H843.2V175.4h-1.962V160.675h5.312a11.531,11.531,0,0,0,.792-2.449l2.035.378a11.369,11.369,0,0,1-.774,2.071H856.6v13.108c0,1.314-.5,1.62-1.584,1.62h-2.846l-.252-2h2.323c.4,0,.432-.325.432-.6Zm-1.6,9.561h-8.265v-7.49h8.265Zm-6.536-1.656h4.79v-4.177h-4.79Z" fill="#51a9aa"/><path d="M867.525,158.514v5.437h6.752v1.927h-6.752V172.9h7.9v1.891H858.4V172.9h7.149V158.514Z" fill="#51a9aa"/><path d="M739.2,196.219c-.307,4.484-1.837,5.942-6.176,7.256l-.864-1.818c3.4-.793,5.06-1.657,5.041-5.582Zm-6.843-8.372h7.563V186.5h1.909v1.351h7.544v1.782h-7.544v1.351h6.535v1.6H733.4v-1.6h6.518v-1.351h-7.563Zm.433,5.869h16.1v3.53h-1.927v-1.909H734.7v1.909h-1.908Zm16.619,5.618a9.634,9.634,0,0,1-.469,2.7,1.629,1.629,0,0,1-1.511,1.062h-3.764a1.43,1.43,0,0,1-1.639-1.422v-5.564h1.855V200.9c0,.252.018.433.342.433h2.665c.126,0,.324-.145.4-.451.09-.36.2-1.728.234-2Z" fill="#51a9aa"/><path d="M759.525,186.514v5.437h6.752v1.927h-6.752V200.9h7.9v1.891H750.4V200.9h7.149V186.514Z" fill="#51a9aa"/><path d="M771.529,189.557a12.9,12.9,0,0,0-1.3-2.5l1.746-.648a18.69,18.69,0,0,1,1.476,2.665l-1.332.486h4.232A13.825,13.825,0,0,0,775,186.766l1.765-.576a15.507,15.507,0,0,1,1.4,2.844l-1.783.523h3.764a25.157,25.157,0,0,0,1.53-3.223l1.963.594a17.167,17.167,0,0,1-1.387,2.629h1.873v7.8h-6.356v1.459h7.562v1.746h-7.562V203.4h-1.765v-2.845H768.45v-1.746h7.562v-1.459h-6.338v-7.8Zm-.072,3.151h4.555V191.2h-4.555Zm0,2.989h4.555v-1.566h-4.555Zm6.32-2.989h4.592V191.2h-4.592Zm0,2.989h4.592v-1.566h-4.592Z" fill="#51a9aa"/><path d="M787.891,195.031a9.548,9.548,0,0,1-.847,1.1l-.828-2.2c1.08-1.422,2.089-3.151,2.593-7.436l1.927.162a20.913,20.913,0,0,1-1.027,4.7v12.064h-1.818Zm15.448-7.977V188.8h-3.925v3.006h3.366v11.614h-1.746v-.738H792.86v.738h-1.729V191.807h3.331V188.8h-3.475v-1.747Zm-10.479,13.9h1.6v-7.472h-1.6Zm3.277-9.147h1.6V188.8h-1.6Zm0,9.147h1.6v-7.472h-1.6Zm3.277,0h1.62v-7.472h-1.62Z" fill="#51a9aa"/><path d="M812.1,200.648c2.143-.09,6.535-.288,6.535-5.869a4.637,4.637,0,0,0-4.735-4.97c-.288,2.989-.594,6.212-1.962,8.787-.307.558-1.369,2.538-3.457,2.538-2.359,0-3.548-2.7-3.548-5.221,0-4.339,3.062-7.995,8.409-7.995,5.978,0,7.544,4.106,7.544,7.058,0,7.149-6.391,7.491-8.264,7.581Zm-5.2-4.465c0,1.944.756,2.971,1.656,2.971,2.413,0,3.115-6.734,3.295-9.255-4.3.756-4.951,4.7-4.951,6.284" fill="#51a9aa"/><path d="M836.674,190.439H825.2V203.4h-1.962V188.675h5.312a11.531,11.531,0,0,0,.792-2.449l2.035.378a11.369,11.369,0,0,1-.774,2.071H838.6v13.108c0,1.314-.5,1.62-1.584,1.62h-2.846l-.252-2h2.323c.4,0,.432-.325.432-.6Zm-1.6,9.561h-8.265v-7.49h8.265Zm-6.536-1.656h4.79v-4.177h-4.79Z" fill="#51a9aa"/><path d="M849.525,186.514v5.437h6.752v1.927h-6.752V200.9h7.9v1.891H840.4V200.9h7.149V186.514Z" fill="#51a9aa"/><path d="M681.547,112.461c-.073.108-.109.162-.289.414l-.54-.756a11.449,11.449,0,0,1-1.548,5.653L678,116.08c1.044-2.034,1.1-4.087,1.1-6.86V104.3H687v3.511h-4.933l1.332.378a7.947,7.947,0,0,1-.324,1.027h1.476A7.81,7.81,0,0,0,685,108l1.458.233c-.144.325-.36.775-.487.991h1.351V110.5h-1.494v1.062h1.332v1.153h-1.332v1.1h1.332v1.153h-1.332v1.242h1.638v.558a10.732,10.732,0,0,0,2.5-2l1.188,1.045a9.5,9.5,0,0,1-2.952,2.449l-.739-.918v.215h-4.429v.7h-1.494Zm-3.133-10.551h8.912v1.513h-8.912Zm2.412,5.9v1.567c0,.684-.018,1.1-.036,1.4a11.5,11.5,0,0,0,1.26-2.971Zm0-1.223h4.466v-1.1h-4.466Zm2.215,4.968h1.387V110.5h-1.387Zm0,2.251h1.387v-1.1h-1.387Zm0,2.4h1.387v-1.242h-1.387ZM693,114.729h-4.7v-9.9h1.854a8.434,8.434,0,0,0,.288-1.351h-2.7V101.91h7.635v1.566h-3.259a11.088,11.088,0,0,1-.36,1.351h3.024v9.9h-1.764a10.156,10.156,0,0,0,2.737,2.107l-1.008,1.459a12.332,12.332,0,0,1-2.936-2.431Zm-2.971-7.13h3.061v-1.261h-3.061Zm0,2.7h3.061v-1.278h-3.061Zm0,2.862h3.061v-1.422h-3.061Z" fill="#2a2b2a"/><path d="M712.888,113.325c-.63-.126-1.08-.216-1.782-.361v5.294h-1.8v-.738h-8.84v.738h-1.8v-5.275c-.81.2-1.224.288-1.729.395l-.612-1.782a34.26,34.26,0,0,0,6.9-1.872,19.149,19.149,0,0,1-2.16-1.783,15.43,15.43,0,0,1-3.331,1.873l-.793-1.549c3.655-1.4,4.934-3.133,5.456-3.871l1.891.271a8.008,8.008,0,0,1-.559.719h6.212v1.333a11.75,11.75,0,0,1-3.331,3.078,23.68,23.68,0,0,0,6.9,1.658Zm-8.966-12.01h1.873v1.314h7.093v3.926H711v-2.233H698.79v2.233h-1.855v-3.926h6.987Zm-3.457,14.621h8.841v-1.963h-8.841Zm8.625-3.493a22.116,22.116,0,0,1-4.2-1.675,29.524,29.524,0,0,1-4.267,1.675Zm-6.771-5.546-.054.054a15.72,15.72,0,0,0,2.647,1.98,7.677,7.677,0,0,0,2.575-2.034Z" fill="#2a2b2a"/><path d="M716.286,109.4a10.486,10.486,0,0,1-1.314,1.548l-.792-2.214a13.246,13.246,0,0,0,3.277-7.436l1.854.269a15.19,15.19,0,0,1-1.188,4.449v12.207h-1.837Zm2.377,4.141a18.054,18.054,0,0,0,5.006-7.31H719.2v-1.818h5.024V101.37h1.98v3.043h5.222v1.818h-4.7a17.375,17.375,0,0,0,4.987,7.04l-.936,2.089a19.633,19.633,0,0,1-4.574-6.77v4.951h2.486v1.783h-2.486v2.9h-1.98v-2.9H721.8v-1.783h2.431V108.41a19.014,19.014,0,0,1-4.538,7.094Z" fill="#2a2b2a"/><path d="M733.567,112.731a18.073,18.073,0,0,1-.649,4.591l-.972-.557a12.986,12.986,0,0,0,.684-4.034Zm8.084-6.824a7.188,7.188,0,0,1-1.368.937l-.847-1.747v.936h-1.62v1.332h1.62v1.351h-1.62v1.423h1.908c0,.288-.054,5.383-.54,6.733a1.712,1.712,0,0,1-1.927,1.369h-1.818l-.252-1.566h1.549a.93.93,0,0,0,1.026-.7,23.506,23.506,0,0,0,.342-4.357h-5.186v-9.651h6.806v1.44h-1.908v1.3h1.62v.378a9.93,9.93,0,0,0,3.943-3.728h2.269a9.581,9.581,0,0,0,4.069,3.638l-.9,1.674a10.305,10.305,0,0,1-1.315-.828v1.009h-2.2V108h3.511v5.383h-2.826a9.168,9.168,0,0,0,3.726,3.169l-1.044,1.693a9.9,9.9,0,0,1-4.123-4.124,6.548,6.548,0,0,1-4.178,4.124l-.936-1.639a5.185,5.185,0,0,0,3.655-3.223h-2.719V108h3.278v-1.152h-2Zm-6.806,6.824a19.361,19.361,0,0,1,.107,3.151l-1.026.126a21.375,21.375,0,0,0,.145-2.323c0-.377-.019-.629-.036-.954Zm-.27-8.03h1.765v-1.3h-1.765Zm0,2.664h1.765v-1.332h-1.765Zm0,2.774h1.765v-1.423h-1.765Zm1.6,2.448a15.469,15.469,0,0,1,.271,2.953l-.847.126a13.4,13.4,0,0,0-.18-2.935Zm1.116-.18a9.832,9.832,0,0,1,.307,2.448l-.667.145a11.773,11.773,0,0,0-.252-2.5Zm6.357-2.863h-1.729v2.287h1.6a9.167,9.167,0,0,0,.126-1.639Zm3.186-4.249a15.826,15.826,0,0,1-2.3-2.557,14.393,14.393,0,0,1-2.2,2.557Zm-1.53,4.951a8.9,8.9,0,0,1-.145,1.585h2.108v-2.287h-1.963Z" fill="#2a2b2a"/><path d="M751.891,109.868a9.646,9.646,0,0,1-.847,1.1l-.828-2.2c1.08-1.422,2.089-3.15,2.593-7.435l1.927.162a20.924,20.924,0,0,1-1.027,4.7v12.064h-1.818Zm15.448-7.977v1.747h-3.925v3.007h3.366v11.614h-1.746v-.739H756.86v.739h-1.729V106.645h3.331v-3.007h-3.475v-1.747Zm-10.479,13.9h1.6V108.32h-1.6Zm3.277-9.147h1.6v-3.007h-1.6Zm0,9.147h1.6V108.32h-1.6Zm3.277,0h1.62V108.32h-1.62Z" fill="#2a2b2a"/><path d="M769.782,109.724c-.252.4-.45.684-.882,1.279l-.9-2.413c.648-.846,2.034-2.611,2.719-7.239l1.927.126a29.944,29.944,0,0,1-1.063,4.34v12.4h-1.8Zm8.391-8.373h1.818v1.315h5.366v1.53h-5.366v1.243h4.484v9.525h-8.427v-9.525h2.125V104.2H773.06v-1.53h5.113Zm7.184,14.675v1.567H774.788v.629H773.06V105.439h1.728v10.587ZM777.7,108.05h5.078v-1.135H777.7Zm0,2.754h5.078v-1.242H777.7Zm0,2.666h5.078v-1.333H777.7Z" fill="#2a2b2a"/><path d="M790.591,102.4a51.567,51.567,0,0,0-.72,8.319,26.1,26.1,0,0,0,.684,6.481l-2,.252a27.6,27.6,0,0,1-.685-6.644,65.4,65.4,0,0,1,.666-8.588Zm4.43,7.886a4.454,4.454,0,0,0-.828,2.341c0,1.927,2.034,1.927,4.3,1.927a24.6,24.6,0,0,0,3.547-.216v2c-1.187.108-2.556.108-3.295.108-2.358,0-6.409,0-6.409-3.745a5.962,5.962,0,0,1,1.026-3.151Zm6.716-4.951h-8.913v-1.873h8.913Z" fill="#2a2b2a"/><path d="M805.891,105.043a25.066,25.066,0,0,1-.433,5.1l-1.35-.757a16.373,16.373,0,0,0,.4-4.339Zm3.042,3.079a18.942,18.942,0,0,0-.81-2.809v12.928h-1.854V101.334h1.854v3.961l1.3-.558a15.559,15.559,0,0,1,1.027,2.773Zm2.791,5.348a9.527,9.527,0,0,1-1.368,4.195l-1.53-.99a6.257,6.257,0,0,0,1.242-3.439Zm1.062-8.985a8.4,8.4,0,0,1-1.728,1.926l-1.278-1.17a8.744,8.744,0,0,0,2.682-4.087l1.8.288a6.927,6.927,0,0,1-.54,1.4h7.437c.017,7.939-1.28,8.227-2.215,8.227H816.91l-.432-1.872h1.674a.781.781,0,0,0,.846-.648,27.264,27.264,0,0,0,.361-4.069h-.99c-.577,2.773-2.648,5.114-4.2,6.589l-1.423-1.061c.523-.414,3.421-2.719,3.835-5.528h-1.116a12.473,12.473,0,0,1-4.573,5.87l-1.387-1.261c3.205-1.98,3.8-3.475,4.16-4.609Zm1.081,9.254v2.233c0,.234.018.343.288.343h1.963c.162,0,.377,0,.5-.576a6.929,6.929,0,0,0,.235-1.334l1.782.487c-.414,2.5-1.332,3.025-2.2,3.025h-2.809a1.3,1.3,0,0,1-1.333-1.369v-2.809Zm-.648-2.538a11.6,11.6,0,0,1,3.583,1.243l-.7,1.638a14.312,14.312,0,0,0-3.529-1.314Zm6.338,1.35a13.953,13.953,0,0,1,1.98,3.89l-1.674.918a11.439,11.439,0,0,0-1.891-4.07Z" fill="#2a2b2a"/><path d="M828.356,102.072c-.018.18-.018.54-.09,3.853a7.953,7.953,0,0,1,5.491-2.755,2.812,2.812,0,0,1,2.9,2.521,14.015,14.015,0,0,1,.036,1.674l-.126,4.573c-.055,1.765.09,2.72,2.593,2.755l-.469,1.963c-3.007-.288-4.339-1.008-4.2-4.663l.18-4.52c.054-1.368-.162-2.394-1.243-2.394s-3.133.828-5.2,3.438c-.036,1.1-.054,2.2-.054,3.836,0,2.214.054,4.051.072,5.005h-2.035c0-.4.054-5.077.073-5.851a25.47,25.47,0,0,1-2.269,3.132l-1.224-1.908a17.043,17.043,0,0,0,3.51-4.7l.019-1.369H823.35v-1.908h2.972c0-.252.035-2.612.035-2.683Z" fill="#2a2b2a"/><path d="M840.467,108.248h3.961v5.762a3.875,3.875,0,0,0,3.818,1.89h9.236l-.342,1.836h-8.48c-3.277,0-4.375-1.385-4.987-2.178a19.11,19.11,0,0,1-2.521,2.575l-.936-2.2a15.691,15.691,0,0,0,2.412-1.675v-4.213h-2.161Zm1.477-6.644a16.361,16.361,0,0,1,3.3,3.025L843.888,106a18.766,18.766,0,0,0-3.186-3.133Zm3.043,11.649a13.609,13.609,0,0,0,5.96-9.507H847.13v-1.782h5.708c.233,6.284,2.43,9.255,4.789,11.4l-1.3,1.675a15.554,15.554,0,0,1-4.519-8.049,16.643,16.643,0,0,1-5.437,7.941Z" fill="#2a2b2a"/><path d="M873.4,105.421c-.217,2.161-.378,3.043-.6,4.268a12.357,12.357,0,0,1,2.287,1.007l-.684,2c-.45-.252-1.315-.7-2.071-1.026a7.844,7.844,0,0,1-5.113,5.779l-1.207-1.566c1.891-.612,3.493-1.441,4.43-4.951a19.467,19.467,0,0,0-3.763-.847,13.033,13.033,0,0,1-2.125,4.9,3.316,3.316,0,0,1-2.7,1.315,3.025,3.025,0,0,1-2.917-3.24c0-2.522,2.431-4.736,6.158-4.844a30.454,30.454,0,0,0,.45-3.925h-5.473v-1.873h7.706c-.036.288-.054.559-.306,2.971-.108,1.062-.307,2.2-.433,2.881a20.074,20.074,0,0,1,3.818.792,28.445,28.445,0,0,0,.432-3.853Zm-12.586,7.706c0,.919.5,1.333,1.1,1.333,1.673,0,2.484-3.133,2.826-4.556-3.385.216-3.925,2.4-3.925,3.223" fill="#2a2b2a"/><path d="M877.134,106.555a12.492,12.492,0,0,1,2.935,1.674l-1.1,1.549a16.106,16.106,0,0,0-2.791-1.746Zm3.6,5.707a29.273,29.273,0,0,1-3.151,5.888l-1.315-1.548a22.7,22.7,0,0,0,3.026-5.51Zm-2.629-10.568a16.007,16.007,0,0,1,2.737,1.656l-1.1,1.6a12.3,12.3,0,0,0-2.7-1.837Zm6.1,8.12c-.108,4.213-.63,6.355-3.043,8.462l-1.441-1.368c2.2-1.639,2.666-3.223,2.719-7.094Zm7.761,0c-.235-.414-.361-.63-.954-1.53-2.27.269-2.972.305-9.543.63l-.2-1.746c.378,0,1.6-.037,2.124-.055a17.414,17.414,0,0,0,1.28-2.736h-3.4v-1.693H886.3v-1.369h1.89v1.369h5.167v1.693h-6.662a22.571,22.571,0,0,1-1.349,2.682c1.925-.036,2.97-.072,4.609-.2a15.486,15.486,0,0,0-1.009-1.189l1.387-.881a22.346,22.346,0,0,1,3.276,4Zm-4.466,7.958h-1.782v-7.814h1.782Zm3.367-7.958v6.067c0,.109,0,.433.271.433h.414c.252,0,.288-.09.323-.414.018-.126.072-.99.091-1.963l1.637.45a18.216,18.216,0,0,1-.3,2.953.943.943,0,0,1-1.027.81h-2.052a.96.96,0,0,1-1.027-.936v-7.4Z" fill="#2a2b2a"/><path d="M897.043,101.927h6.932c-.162,6.194,1.242,10.822,7.706,14.315l-1.332,1.891a15.455,15.455,0,0,1-7.437-9.363c-1.206,3.907-2.719,6.23-7.454,9.363l-1.278-1.783a13.846,13.846,0,0,0,7.778-12.479h-4.915Z" fill="#2a2b2a"/><path d="M69.295,111.255c-.468,5.24-2.035,12.208-11.866,14.026l-.81-1.908c8.733-1.333,9.741-7.022,10.263-10.209H55.017v-1.909Z" fill="#2a2b2a"/><path d="M86.214,113.65c-.63,3.1-1.638,4.736-4.429,6.374l-1.134-1.476A6.219,6.219,0,0,0,83.73,115.4H73.773V113.65ZM74.187,124.2c3.007-1.368,4.465-3.241,4.411-7.724l1.909.036c-.234,5.275-1.909,7.418-5.113,9.11Z" fill="#2a2b2a"/><path d="M96.2,115.378a20.078,20.078,0,0,0-5.437-2.647l.972-1.765a19.964,19.964,0,0,1,5.581,2.467Zm-5.257,7.436c6.733-.486,10.642-3.079,13.144-10.731l2.034.918c-2.646,7.688-6.535,11.091-14.511,12.082Z" fill="#2a2b2a"/><path d="M109.719,116.89a14.711,14.711,0,0,1-1.494,1.747l-.991-2.107a15.32,15.32,0,0,0,4.015-7.238l1.927.234a21.531,21.531,0,0,1-1.549,4.141v12.478h-1.908Zm7.508-7.634v6.338a26.659,26.659,0,0,0,5.726-3.241l1.3,1.693a34.072,34.072,0,0,1-7.022,3.51v5.726c0,.486,0,.666.7.666h3.853c.487,0,.594-.162.667-.36a24.019,24.019,0,0,0,.162-2.809l1.89.5a12.1,12.1,0,0,1-.486,3.674,1.722,1.722,0,0,1-1.746.864h-5.15c-.522,0-1.819,0-1.819-1.657V109.256Z" fill="#2a2b2a"/><path d="M130.834,110.066c-.018,1.531-.162,9.219-.162,9.687,0,2.791.666,3.673,3.025,3.673,4.069,0,5.041-2.413,5.707-5.491l1.981.558c-.432,2.034-1.441,6.823-7.418,6.823-2.7,0-3.98-.881-4.646-1.908-.756-1.152-.756-2.7-.756-5.887,0-1.6,0-4,.072-7.491Z" fill="#2a2b2a"/><path d="M149.626,110.03c-.072.522-.108.918-.288,2.215h4.7v1.836H149.05c-.2,1.279-1.44,7.869-2.935,11.254l-1.908-.684a45.114,45.114,0,0,0,2.916-10.57h-2.5v-1.836h2.737c.162-1.494.179-1.711.2-2.287Zm3.709,9.741a3.1,3.1,0,0,0-1.134,2.107c0,1.548,2.521,1.548,3.6,1.548a33.471,33.471,0,0,0,3.817-.18l-.018,1.945a27.768,27.768,0,0,1-3.115.09c-1.926,0-6.14,0-6.14-3.349a4.758,4.758,0,0,1,1.531-3.205Zm6.068-3.349c-.45-.036-.918-.054-1.638-.054a13.634,13.634,0,0,0-5.4.828l-.612-1.656c1.674-.7,3.259-1.153,7.67-1.1Z" fill="#2a2b2a"/><path d="M164.655,120.366c-.072.107-.108.162-.288.414l-.54-.757a11.457,11.457,0,0,1-1.548,5.654l-1.171-1.692c1.045-2.035,1.1-4.088,1.1-6.861v-4.915h7.9v3.511h-4.934l1.333.378a7.935,7.935,0,0,1-.324,1.026h1.476a7.874,7.874,0,0,0,.451-1.224l1.458.234c-.144.324-.36.774-.486.99h1.35V118.4h-1.494v1.062h1.332v1.152h-1.332v1.1h1.332v1.152h-1.332v1.243h1.638v.558a10.758,10.758,0,0,0,2.5-2l1.188,1.045a9.481,9.481,0,0,1-2.953,2.448l-.738-.918v.216H166.15v.7h-1.495Zm-3.133-10.552h8.913v1.513h-8.913Zm2.413,5.906v1.566c0,.685-.018,1.1-.036,1.4a11.588,11.588,0,0,0,1.26-2.971Zm0-1.224H168.4v-1.1h-4.465Zm2.215,4.969h1.387V118.4H166.15Zm0,2.251h1.387v-1.1H166.15Zm0,2.395h1.387v-1.242H166.15Zm9.957-1.477h-4.7v-9.9h1.855a8.42,8.42,0,0,0,.288-1.35h-2.7v-1.567h7.635v1.567h-3.26a10.941,10.941,0,0,1-.36,1.35h3.025v9.9h-1.764a10.178,10.178,0,0,0,2.737,2.107l-1.009,1.458a12.326,12.326,0,0,1-2.935-2.431Zm-2.971-7.13H176.2v-1.261h-3.061Zm0,2.7H176.2v-1.278h-3.061Zm0,2.863H176.2v-1.422h-3.061Z" fill="#2a2b2a"/><path d="M196,121.23c-.63-.126-1.08-.217-1.782-.361v5.294h-1.8v-.738h-8.84v.738h-1.8v-5.276c-.81.2-1.224.289-1.728.4l-.613-1.782a34.261,34.261,0,0,0,6.9-1.872,19.259,19.259,0,0,1-2.16-1.783,15.474,15.474,0,0,1-3.331,1.873l-.792-1.549c3.654-1.4,4.933-3.133,5.455-3.871l1.891.27a8.305,8.305,0,0,1-.558.72h6.211v1.333a11.757,11.757,0,0,1-3.33,3.078,23.665,23.665,0,0,0,6.9,1.657Zm-8.966-12.01H188.9v1.314H196v3.926h-1.89v-2.233H181.9v2.233h-1.854v-3.926h6.986Zm-3.457,14.621h8.841v-1.963h-8.841Zm8.624-3.494A22.047,22.047,0,0,1,188,118.673a29.639,29.639,0,0,1-4.267,1.674Zm-6.77-5.545-.054.054a15.734,15.734,0,0,0,2.647,1.98A7.688,7.688,0,0,0,190.6,114.8Z" fill="#2a2b2a"/><path d="M203.788,109.958c-.18,1.711-.27,2.485-.378,3.187h2.161a4.08,4.08,0,0,1,2.755.955c.594.558,1.062,1.494,1.062,4.141,0,.36,0,3.637-1.044,5.546a3.281,3.281,0,0,1-3.061,1.53,23.422,23.422,0,0,1-2.719-.216v-1.909a11.457,11.457,0,0,0,2.323.253,1.779,1.779,0,0,0,1.962-1.153,15.772,15.772,0,0,0,.559-4.321c0-2-.217-2.971-2.251-2.953l-2.053.018c-.666,3.259-1.693,7.418-3.115,9.957l-1.926-.792a33.429,33.429,0,0,0,3.043-9.129l-2.809.036v-1.926l3.1-.019c.216-2.16.234-2.412.306-3.349Zm6.807,2.773a11.9,11.9,0,0,0-1.063-2.844l1.422-.379a10.635,10.635,0,0,1,1.153,2.719Zm1.314,7.383a14.934,14.934,0,0,0-1.729-6.356l1.909-.7a17.253,17.253,0,0,1,2.089,6.7Zm1.188-7.743a13.1,13.1,0,0,0-1.116-2.772l1.386-.415a13.153,13.153,0,0,1,1.17,2.737Z" fill="#2a2b2a"/><path d="M55.233,140.183h5a14.921,14.921,0,0,0,.7-2.071l2.052.144a18.013,18.013,0,0,1-.756,1.927h6.608v14.944H66.954v-1.062H57.123v1.062h-1.89Zm11.721,1.746H57.123v2.143h9.831Zm0,3.854H57.123v2.395h9.831Zm-9.831,6.535h9.831v-2.449H57.123Z" fill="#2a2b2a"/><path d="M76.51,141.641a27.093,27.093,0,0,0-.469,4.573,11.312,11.312,0,0,1,6.158-1.836c3.259,0,4.861,1.98,4.861,4.393,0,5.4-6.319,5.581-9.9,5.581a21.075,21.075,0,0,1-2.917-.144l-.072-1.908c.63.054,2.286.216,3.817.216,1.567,0,4.861-.18,6.338-1.765a3.4,3.4,0,0,0,.7-2.016c0-1.423-1.1-2.521-3.223-2.521a8.721,8.721,0,0,0-5.762,2.2,4.387,4.387,0,0,0-.018.486l-2-.054a35.386,35.386,0,0,1,.468-7.418Zm8.066.252a32.431,32.431,0,0,0-7.778-1.207l.306-1.872a36.07,36.07,0,0,1,7.868,1.1Z" fill="#2a2b2a"/><path d="M89.144,152.247a13.038,13.038,0,0,0,3.655-3.368H89.666v-1.656h3.655v-1.675H89.576V143.91h2a14.749,14.749,0,0,0-.54-2.575h-1.1V139.7h3.385v-1.5H95.05v1.5h3.114v1.638h-.846a24.542,24.542,0,0,1-.648,2.575h1.764v1.638H95.05v1.675h2.97v1.656H95.392a9.275,9.275,0,0,0,2.214,2.053l-.9,1.621a9.623,9.623,0,0,1-1.656-1.927v4.519H93.321v-4.483a13.719,13.719,0,0,1-3.187,3.241Zm3.529-10.912a20.469,20.469,0,0,1,.558,2.575H95.05a21.648,21.648,0,0,0,.558-2.575Zm13.738-1.44a14.7,14.7,0,0,1-5.563,1.35v2.737h5.563v1.728h-1.765v9.435h-1.872V145.71h-1.926v.487c0,5.023-.991,6.95-2.414,8.948l-1.746-1.206c1.567-1.873,2.359-3.709,2.359-7.689v-6.7a13.382,13.382,0,0,0,6.338-1.351Z" fill="#2a2b2a"/><path d="M113.536,152.336a11.964,11.964,0,0,1-1.8-3.133,10.34,10.34,0,0,1-3.277,5.96l-1.135-1.6a9.386,9.386,0,0,0,2.953-6.518h-2.719v-1.729H110.4c.018-.4.018-1.458.018-2.3v-.451h-2.557v-1.8h2.557V138.22h1.837v2.539h2.269v1.8h-2.269v.414c0,.613,0,1.621-.036,2.341h2.593v1.729h-2.5a11.706,11.706,0,0,0,2.718,4.1Zm10.155-13.468V149.1h-2.2v3.745c0,.323.162.4.343.4h.306c.306,0,.432-.073.468-.325a8.839,8.839,0,0,0,.054-1.728l1.746.324c-.126,2.467-.2,3.457-1.3,3.457h-2.359c-.81,0-1.008-.612-1.008-1.152V149.1h-.972a7.024,7.024,0,0,1-4.628,6l-1.116-1.6a5.515,5.515,0,0,0,4.123-4.393h-1.764V138.868Zm-6.536,2.881h4.771v-1.314h-4.771Zm0,2.863h4.771v-1.386h-4.771Zm0,2.917h4.771v-1.44h-4.771Z" fill="#2a2b2a"/><path d="M128.655,149.366c-.072.107-.108.162-.288.414l-.54-.757a11.457,11.457,0,0,1-1.548,5.654l-1.171-1.692c1.045-2.035,1.1-4.088,1.1-6.861v-4.915h7.9v3.511h-4.934l1.333.378a7.935,7.935,0,0,1-.324,1.026h1.476a7.874,7.874,0,0,0,.451-1.224l1.458.234c-.144.324-.36.774-.486.99h1.35V147.4h-1.494v1.062h1.332v1.152h-1.332v1.1h1.332v1.152h-1.332v1.243h1.638v.558a10.758,10.758,0,0,0,2.5-2l1.188,1.045a9.481,9.481,0,0,1-2.953,2.448l-.738-.918v.216H130.15v.7h-1.495Zm-3.133-10.552h8.913v1.513h-8.913Zm2.413,5.906v1.566c0,.685-.018,1.1-.036,1.4a11.588,11.588,0,0,0,1.26-2.971Zm0-1.224H132.4v-1.1h-4.465Zm2.215,4.969h1.387V147.4H130.15Zm0,2.251h1.387v-1.1H130.15Zm0,2.395h1.387v-1.242H130.15Zm9.957-1.477h-4.7v-9.9h1.855a8.42,8.42,0,0,0,.288-1.35h-2.7v-1.567h7.635v1.567h-3.26a10.941,10.941,0,0,1-.36,1.35h3.025v9.9h-1.764a10.178,10.178,0,0,0,2.737,2.107l-1.009,1.458a12.326,12.326,0,0,1-2.935-2.431Zm-2.971-7.13H140.2v-1.261h-3.061Zm0,2.7H140.2v-1.278h-3.061Zm0,2.863H140.2v-1.422h-3.061Z" fill="#2a2b2a"/><path d="M160,150.23c-.63-.126-1.08-.217-1.782-.361v5.294h-1.8v-.738h-8.84v.738h-1.8v-5.276c-.81.2-1.224.289-1.728.4l-.613-1.782a34.261,34.261,0,0,0,6.9-1.872,19.257,19.257,0,0,1-2.16-1.783,15.473,15.473,0,0,1-3.331,1.873l-.792-1.549c3.654-1.4,4.933-3.133,5.455-3.871l1.891.27a8.307,8.307,0,0,1-.558.72h6.211v1.333a11.757,11.757,0,0,1-3.33,3.078,23.664,23.664,0,0,0,6.9,1.657Zm-8.966-12.01H152.9v1.314H160v3.926h-1.89v-2.233H145.9v2.233h-1.854v-3.926h6.986Zm-3.457,14.621h8.841v-1.963h-8.841Zm8.624-3.494A22.048,22.048,0,0,1,152,147.673a29.64,29.64,0,0,1-4.267,1.674Zm-6.77-5.545-.054.054a15.734,15.734,0,0,0,2.647,1.98A7.688,7.688,0,0,0,154.6,143.8Z" fill="#2a2b2a"/><path d="M169.229,138.922c-.054.414-.108.756-.288,1.6h7.328v1.854h-7.851a9.112,9.112,0,0,1-.611,1.549,4.535,4.535,0,0,1,2.088-.523,2.69,2.69,0,0,1,2.881,2.089,35.028,35.028,0,0,1,4.321-1.44l.45,2.016a33.685,33.685,0,0,0-4.411,1.3,26.225,26.225,0,0,1,.054,3.349h-2.017a9.678,9.678,0,0,0,.073-1.351c0-.5-.018-.864-.037-1.188-.81.4-2.97,1.458-2.97,2.791,0,1.53,2.034,1.53,3.763,1.53.234,0,2.052,0,4.5-.2v1.945c-1.35.054-2.863.09-4.213.09-1.963,0-3.817-.036-5.06-1.026a2.92,2.92,0,0,1-1.134-2.269c0-1.837,1.782-3.133,4.88-4.754a1.319,1.319,0,0,0-1.4-1.1,5.365,5.365,0,0,0-3.745,2.251,25.922,25.922,0,0,1-2.089,2.827l-1.476-1.531a16.38,16.38,0,0,0,4.069-6.356h-3.619v-1.854h4.141a12.283,12.283,0,0,0,.234-1.765Z" fill="#2a2b2a"/><path d="M179.505,141.263h6.158v1.621h-6.158Zm7.436,5.672c-.072.036-.2.09-.288.126l-.99-1.621a10.842,10.842,0,0,0,3.925-2.2h-3.331v-1.6h4.249v-1.26c-2.3.108-3.1.108-4.069.108l-.18-1.638a43.519,43.519,0,0,0,9.183-.7l.576,1.549a21.089,21.089,0,0,1-3.818.576v1.368h4.286v1.6h-3.295a9.473,9.473,0,0,0,3.655,2l-.792,1.638a9.14,9.14,0,0,1-3.854-2.827v2.863h1.927a22.682,22.682,0,0,1-.486,2.269h2.323c-.163,5.689-.63,5.9-2.611,5.9H191.1l-.306-1.782h2.377c.72,0,.756-.018.972-2.485H191.19a12.521,12.521,0,0,0,.793-2.233h-2.215c-.522,4.034-1.873,5.42-3.511,6.5l-.973-1.008v.306h-3.6v.7H180.1v-5.833h5.185V153.6c1.351-.918,2.377-2,2.755-5.006h-1.1Zm-6.842-8.283h5.186v1.621H180.1Zm0,5.2h5.186v1.621H180.1Zm0,2.755h5.186v1.6H180.1Zm1.584,6.212h1.981v-2.035h-1.981Zm8.823-5.906V144.09a11.528,11.528,0,0,1-3.529,2.827Z" fill="#2a2b2a"/><path d="M197.9,138.832h9.272v5.8h-6.788c-.144.918-.342,1.981-.414,2.287h7.2a35.375,35.375,0,0,1-.774,6.5,2.4,2.4,0,0,1-2.629,1.728h-3.475l-.36-1.926h3.349a1.724,1.724,0,0,0,1.188-.4c.379-.451.451-1.369.721-4.16h-7.436a40.752,40.752,0,0,0,1.044-5.816h6.518V140.6H197.9Zm13.558-.63h1.98v16.943h-1.98Z" fill="#2a2b2a"/><path d="M47.655,209.738c-.072.108-.108.162-.288.414l-.54-.757a11.457,11.457,0,0,1-1.548,5.654l-1.171-1.692c1.045-2.035,1.1-4.088,1.1-6.861v-4.915h7.9v3.511H48.177l1.333.378a7.935,7.935,0,0,1-.324,1.026h1.476a7.873,7.873,0,0,0,.451-1.224l1.458.234c-.144.324-.36.775-.486.99h1.35v1.279H51.941v1.062h1.332v1.153H51.941v1.1h1.332v1.153H51.941v1.242h1.638v.558a10.758,10.758,0,0,0,2.5-2l1.188,1.045a9.481,9.481,0,0,1-2.953,2.448l-.738-.918v.216H49.15v.7h-1.5Zm-3.133-10.552h8.913V200.7H44.522Zm2.413,5.906v1.566c0,.685-.018,1.1-.036,1.4a11.589,11.589,0,0,0,1.26-2.971Zm0-1.224H51.4v-1.1H46.935Zm2.215,4.969h1.387v-1.062H49.15Zm0,2.251h1.387v-1.1H49.15Zm0,2.4h1.387v-1.242H49.15Zm9.957-1.477h-4.7v-9.9h1.855a8.422,8.422,0,0,0,.288-1.35h-2.7v-1.567h7.635v1.567h-3.26a10.941,10.941,0,0,1-.36,1.35h3.025v9.9H59.125a10.178,10.178,0,0,0,2.737,2.107l-1.009,1.458a12.326,12.326,0,0,1-2.935-2.431Zm-2.971-7.13H59.2v-1.261H56.136Zm0,2.7H59.2V206.3H56.136Zm0,2.863H59.2v-1.422H56.136Z" fill="#51a9aa"/><path d="M79,210.6c-.63-.126-1.08-.217-1.782-.361v5.294h-1.8V214.8h-8.84v.738h-1.8v-5.276c-.81.2-1.224.289-1.728.4l-.613-1.782a34.261,34.261,0,0,0,6.9-1.872,19.261,19.261,0,0,1-2.16-1.783,15.474,15.474,0,0,1-3.331,1.873l-.792-1.549c3.654-1.4,4.933-3.133,5.455-3.871l1.891.27a8.3,8.3,0,0,1-.558.72h6.211v1.333a11.756,11.756,0,0,1-3.33,3.078,23.665,23.665,0,0,0,6.9,1.657Zm-8.966-12.01H71.9v1.314H79v3.926h-1.89V201.6H64.9v2.233H63.045v-3.926h6.986Zm-3.457,14.621h8.841V211.25H66.574Zm8.624-3.494A22.048,22.048,0,0,1,71,208.045a29.639,29.639,0,0,1-4.267,1.674Zm-6.77-5.545-.054.054a15.732,15.732,0,0,0,2.647,1.98,7.688,7.688,0,0,0,2.575-2.034Z" fill="#51a9aa"/><path d="M80.558,209.45a12.371,12.371,0,0,0,3.241-3.259,16.007,16.007,0,0,0-.558-2.539,16.826,16.826,0,0,1-1.656,1.548l-1.045-1.4a11.517,11.517,0,0,0,1.963-1.855,8.95,8.95,0,0,0-1.675-2.341l1.261-1.008a7.692,7.692,0,0,1,1.548,1.837,7.534,7.534,0,0,0,.9-1.837l1.621.414a17.907,17.907,0,0,1-1.674,3.115,17.333,17.333,0,0,1,.792,2.989,13.074,13.074,0,0,0,2.592-3.655l.937.342v-.864H86.158v-1.459h2.647v-.882h1.656v.882h3.223v-.882h1.6v.882h2.16v1.459h-2.16v.954h-1.6v-.954H90.461v.954H89l.342.126c-.108.18-.234.415-.342.612h2.5c.144-.252.432-.81.558-1.116l1.53.378c-.09.144-.342.523-.486.738h4.069v1.135H93.108v.738h3.655v.9H93.108v.757h3.655v.972H93.108v.846h4.339v1.17H87.022V205.56c-.2.234-.324.378-.684.792l-1.062-1.188a21.783,21.783,0,0,1,.306,3.709,13,13,0,0,1-1.027,5.456,2.25,2.25,0,0,1-1.854,1.134H80.972l-.27-1.728h1.639a.933.933,0,0,0,1.026-.666,12.922,12.922,0,0,0,.612-4.61,10.61,10.61,0,0,1-2.7,2.7Zm15.881,1.71a16.326,16.326,0,0,1-2.683,2.035,12.9,12.9,0,0,0,3.835.63L97,215.5a14.281,14.281,0,0,1-5.24-1.332,22.057,22.057,0,0,1-5.707,1.3l-.54-1.62a22.651,22.651,0,0,0,4.429-.7,6.922,6.922,0,0,1-1.674-1.512l1.188-.468H86.23v-1.314H96.439ZM88.607,204.5h2.971v-.738H88.607Zm0,1.657h2.971V205.4H88.607Zm0,1.818h2.971v-.846H88.607Zm1.3,3.187a8.336,8.336,0,0,0,2,1.3,8.67,8.67,0,0,0,2.07-1.3Z" fill="#51a9aa"/><path d="M98.2,202.373a9.082,9.082,0,0,0,3.331-3.871l1.621.7a11.718,11.718,0,0,1-4.213,4.97Zm5.258,1.009a14.045,14.045,0,0,1-1.549,2.988v9.147h-1.836v-6.842a8.863,8.863,0,0,1-1.026.864l-.684-2.034a11.68,11.68,0,0,0,3.492-4.807Zm11.631,3.1v1.548H113.2v.99h2.323v1.6H113.2v3.295c0,.972-.161,1.6-1.62,1.6h-2.484l-.307-1.8h2.053c.5,0,.522-.216.522-.63V210.62h-8.408v-1.6h8.408v-.99h-7.814v-1.548Zm-.738-.919H104.266V199.2h10.083Zm-7.922,8.985a31.745,31.745,0,0,0-2.161-2.755l1.476-1.026a21.233,21.233,0,0,1,2.215,2.665Zm-.486-12.748H112.6v-1.08h-6.662Zm0,2.323H112.6v-1.1h-6.662Z" fill="#51a9aa"/><path d="M131.377,201.113v12.459H118.359v-1.944h10.893v-8.571H118.431v-1.944Z" fill="#51a9aa"/><path d="M135.135,212.96a18.674,18.674,0,0,0,10.388-10.8H136.16v-1.963h12.1a19.5,19.5,0,0,1-3.457,7.473c2.107,1.692,4.159,3.457,6.086,5.347l-1.692,1.711a52.61,52.61,0,0,0-5.618-5.51,18.852,18.852,0,0,1-7.2,5.438Z" fill="#51a9aa"/><path d="M159.868,199.2v4.609a39.69,39.69,0,0,1,9,3.908l-.972,2.07a37.12,37.12,0,0,0-8.031-3.835V215.1h-2.161V199.2Z" fill="#51a9aa"/><path d="M178.211,212.762c2.142-.09,6.536-.288,6.536-5.869a4.638,4.638,0,0,0-4.736-4.97c-.288,2.989-.594,6.212-1.962,8.787-.307.558-1.369,2.538-3.458,2.538-2.358,0-3.546-2.7-3.546-5.221,0-4.339,3.061-7.995,8.408-7.995,5.978,0,7.544,4.106,7.544,7.058,0,7.149-6.392,7.491-8.264,7.581Zm-5.2-4.465c0,1.944.756,2.971,1.657,2.971,2.412,0,3.114-6.734,3.295-9.255-4.3.756-4.952,4.7-4.952,6.284" fill="#51a9aa"/><path d="M190.053,206.911a8.539,8.539,0,0,1-1.062,1.3l-.9-2.269c2.035-2.2,2.755-5.473,3.025-7.328l1.909.18a23.751,23.751,0,0,1-1.134,4.448V215.5h-1.837ZM205.43,211.7c-.306,2.431-.883,3.763-2.017,3.763-1.566,0-2.3-1.746-2.556-2.358a25.066,25.066,0,0,1-1.6-6.968h-3.709v4.015c1.53-.18,2.683-.414,3.583-.594l.108,1.674a40.608,40.608,0,0,1-6.392.918l-.27-1.728c.45-.018.666-.018,1.152-.072V199.619a49.947,49.947,0,0,0,10.462-.865l.648,1.675a22.414,22.414,0,0,1-4.1.594c.018,1.062.107,2.287.215,3.349h4.448v1.765h-4.249c.756,6.3,1.854,7,2.016,7,.27,0,.468-1.441.576-2.323ZM200.5,214.9h-7.652V213.14H200.5Zm-4.951-10.533h3.547c-.054-.5-.216-2.773-.252-3.241-2.107.09-2.413.09-3.295.09Z" fill="#51a9aa"/><path d="M210.358,209.125a26.993,26.993,0,0,1-2.773,6.248l-1.387-1.548a19.9,19.9,0,0,0,2.611-5.618Zm-3.116-5.455a12.98,12.98,0,0,1,2.846,1.674l-1.117,1.459a15.35,15.35,0,0,0-2.665-1.711Zm.883-4.9a13.254,13.254,0,0,1,2.773,1.675l-1.135,1.638a14.17,14.17,0,0,0-2.736-1.818Zm9.741,13.216a9.4,9.4,0,0,0,1.278-1.494c-.378-2-.4-2.593-.594-7.8h-5.708v4.879a24.58,24.58,0,0,1-.342,3.763,10.438,10.438,0,0,1-1.512,4.2l-1.6-1.206a10.879,10.879,0,0,0,1.693-6.266v-7.112h7.454c-.018-.45-.036-1.98-.036-2.323h1.675c0,.324.035,1.963.035,2.323h2.125a9.76,9.76,0,0,0-1.782-1.278l.99-1.225a12.627,12.627,0,0,1,2.124,1.44l-.81,1.063h.594V202.7h-3.223a38.574,38.574,0,0,0,.306,5.221,24.569,24.569,0,0,0,1.333-4.339l1.584.522a21.985,21.985,0,0,1-2.43,6.68c.144.612.54,2.376.882,2.376.27,0,.684-1.206.792-1.512l1.116,1.35c-.63,1.657-1.26,2.539-2.016,2.539-1.171,0-1.8-1.854-2.143-2.9a15.3,15.3,0,0,1-3.619,2.862L215,214.041a12.411,12.411,0,0,0,2.214-1.477h-3.745v-6.05h4.394Zm-4.538-8.156h4.7v1.584h-4.7ZM215,211.16h1.278V207.9H215Z" fill="#51a9aa"/></g></svg>