<svg xmlns="http://www.w3.org/2000/svg" xmlns:xlink="http://www.w3.org/1999/xlink" width="105" height="205.771" viewBox="0 0 105 205.771">
  <defs>
    <clipPath id="clip-path">
      <rect id="長方形_7713" data-name="長方形 7713" width="103.86" height="22.221" fill="#fff"/>
    </clipPath>
    <clipPath id="clip-path-2">
      <rect id="長方形_7800" data-name="長方形 7800" width="95.646" height="70.772" fill="#fff"/>
    </clipPath>
  </defs>
  <g id="グループ_2898" data-name="グループ 2898" transform="translate(-1348 -16354)">
    <g id="グループ_2720" data-name="グループ 2720" transform="translate(1348 16354)">
      <g id="グループ_2248" data-name="グループ 2248" clip-path="url(#clip-path)">
        <path id="パス_1328" data-name="パス 1328" d="M172.369,8.156a.971.971,0,0,0-1.785-.764,20.9,20.9,0,0,1-6.861,8.25.971.971,0,1,0,1.052,1.632,17.241,17.241,0,0,0,2.117-1.618V26.921a.971.971,0,0,0,1.942,0V13.669a23.668,23.668,0,0,0,3.535-5.514" transform="translate(-136.096 -5.671)" fill="#fff"/>
        <path id="パス_1329" data-name="パス 1329" d="M222.241,14.462H231.9a.971.971,0,0,0,.971-.971V7.774A.971.971,0,0,0,231.9,6.8h-9.654a.971.971,0,0,0-.971.971v5.717a.971.971,0,0,0,.971.971m.971-5.717h7.713V12.52h-7.713Z" transform="translate(-184.433 -5.67)" fill="#fff"/>
        <path id="パス_1330" data-name="パス 1330" d="M228.815,60.7h-4.746V59.175h4.746a.971.971,0,0,0,0-1.942H217.381a.971.971,0,0,0,0,1.942h4.746V60.7h-4.746a.971.971,0,0,0,0,1.942h4.559c-.709,2-3.259,4.286-4.337,5.106a.971.971,0,0,0,1.174,1.547,18.858,18.858,0,0,0,4.321-4.624,18.861,18.861,0,0,0,4.322,4.624.971.971,0,0,0,1.174-1.547c-1.078-.819-3.628-3.106-4.337-5.106h4.559a.971.971,0,0,0,0-1.942" transform="translate(-180.382 -47.705)" fill="#fff"/>
        <path id="パス_1331" data-name="パス 1331" d="M339.206,8.205a.971.971,0,0,0-.971.971V25.518h-2.052l-5.357-9.8c0-.006,0-.011,0-.017V7.774a.971.971,0,0,0-.971-.971c-.025,0-.049.005-.073.007s-.048-.007-.073-.007a.971.971,0,0,0-.971.971V15.7c0,.006,0,.011,0,.017l-5.357,9.8h-2.552V9.176a.971.971,0,1,0-1.942,0V26.489a.971.971,0,0,0,.971.971h19.345a.971.971,0,0,0,.971-.971V9.176a.971.971,0,0,0-.971-.971m-9.422,9.656,4.186,7.657H325.6Z" transform="translate(-265.801 -5.67)" fill="#fff"/>
        <path id="パス_1332" data-name="パス 1332" d="M494.7,12.57l-.346-.967h8.237l-.172.592a.971.971,0,1,0,1.864.543l.33-1.135H508.6a.971.971,0,0,0,0-1.942H505.18l.471-1.616a.971.971,0,1,0-1.864-.543l-.629,2.159h-9.5l-.684-1.909a.971.971,0,1,0-1.828.655l.449,1.255h-3.275a.971.971,0,1,0,0,1.942h3.97l.581,1.622a.971.971,0,1,0,1.828-.655" transform="translate(-406.217 -5.67)" fill="#fff"/>
        <path id="パス_1333" data-name="パス 1333" d="M545.111,47.979H539V46.757a.971.971,0,1,0-1.942,0v1.222H531.52a.971.971,0,1,0,0,1.942h5.537v8.09h-4.89a.971.971,0,1,0,0,1.942h11.721a.971.971,0,0,0,0-1.942H539v-8.09h6.113a.971.971,0,0,0,0-1.942" transform="translate(-442.222 -38.163)" fill="#fff"/>
        <path id="パス_1334" data-name="パス 1334" d="M483.421,50.214a.971.971,0,0,0-.971.971v1.237l-3.4-1.758a.971.971,0,1,0-.891,1.725l4.293,2.219v2.567l-4.715,1.1a.971.971,0,1,0,.442,1.89l4.274-1v3.5a.971.971,0,0,0,1.942,0V51.185a.971.971,0,0,0-.971-.971" transform="translate(-397.576 -41.854)" fill="#fff"/>
        <path id="パス_1335" data-name="パス 1335" d="M.566,5.828,4.558,7.662A.971.971,0,0,0,5.368,5.9L1.377,4.064A.971.971,0,0,0,.566,5.828" transform="translate(-0.001 -3.313)" fill="#fff"/>
        <path id="パス_1336" data-name="パス 1336" d="M6.814,57.308a.971.971,0,0,0-1.271.519,46.643,46.643,0,0,1-5.326,9.33.971.971,0,1,0,1.511,1.22,47.8,47.8,0,0,0,5.605-9.8.971.971,0,0,0-.519-1.271" transform="translate(-0.001 -47.704)" fill="#fff"/>
        <path id="パス_1337" data-name="パス 1337" d="M54.264,48.378H39.81a.971.971,0,1,0,0,1.942h1.508c-.059,1.157-.55,4.769-4.182,9.474a.971.971,0,1,0,1.537,1.186,23.466,23.466,0,0,0,3.959-7.289.961.961,0,0,0,.451.116h2.08a15.74,15.74,0,0,1-2.829,5.568.971.971,0,0,0,1.5,1.233,17.818,17.818,0,0,0,3.34-6.8h1.379a15.741,15.741,0,0,1-2.83,5.568.971.971,0,0,0,1.5,1.233,17.813,17.813,0,0,0,3.34-6.8h1.1l-.474,5.6c-.134.219-.545.242-1.121.056a.971.971,0,0,0-.594,1.849,4.168,4.168,0,0,0,1.268.218A2.57,2.57,0,0,0,52,61.221a2.247,2.247,0,0,0,1.081-1.348.989.989,0,0,0,.027-.159l.575-6.8a.97.97,0,0,0-.967-1.053H43.086a10.894,10.894,0,0,0,.177-1.546h11a.971.971,0,0,0,0-1.942" transform="translate(-30.785 -40.324)" fill="#fff"/>
        <path id="パス_1338" data-name="パス 1338" d="M61.015,7.011H72.2a.971.971,0,0,0,.971-.971V.971A.971.971,0,0,0,72.2,0H61.015a.971.971,0,0,0-.971.971v5.07a.971.971,0,0,0,.971.971m.971-1.942V4.044a.645.645,0,0,0,.36.109h8.881V5.07Zm9.241-3.128v.917H62.345a.644.644,0,0,0-.36.109V1.942Z" transform="translate(-50.048 0)" fill="#fff"/>
        <path id="パス_1339" data-name="パス 1339" d="M.567,28.649l3.991,1.834a.971.971,0,1,0,.811-1.764L1.377,26.885a.971.971,0,0,0-.811,1.764" transform="translate(-0.001 -22.335)" fill="#fff"/>
      </g>
    </g>
    <g id="グループ_2721" data-name="グループ 2721" transform="translate(1352 16489)">
      <g id="グループ_2375" data-name="グループ 2375" clip-path="url(#clip-path-2)">
        <path id="パス_1478" data-name="パス 1478" d="M89.107,35.277a38.394,38.394,0,0,0-15.438-13.6,91.59,91.59,0,0,0-17.151-6.675,24.094,24.094,0,0,1-3.867-1.324C52.271,12.936,50.444,2,49.539.836a2.178,2.178,0,0,0-3.432,0c-.9,1.163-2.731,12.1-3.112,12.848a24.105,24.105,0,0,1-3.867,1.324,91.574,91.574,0,0,0-17.151,6.675,38.392,38.392,0,0,0-15.438,13.6C2.459,41.7.32,49.542,0,59.253a2.184,2.184,0,0,0,1.047,1.94c21.142,12.77,72.408,12.77,93.551,0a2.183,2.183,0,0,0,1.047-1.939c-.32-9.711-2.458-17.555-6.538-23.977M59.474,19.649C61.652,22.189,71.74,35.3,75.757,64.3c-.6.14-1.226.277-1.864.411-2.461-14.847-5.725-24.41-8.074-29.878-3.85-8.963-6.55-10.7-8.152-10.573a2.4,2.4,0,0,0-2.117,2.653c0,.414,2.563,22.094,4.115,39.851q-1.011.085-2.054.157c-1.254-16.785-4.815-48.3-4.936-49.368.777.269,1.71.544,2.832.875,1.148.339,2.477.732,3.967,1.215M59.5,30.317c2.162,3.444,5.548,10.6,8.509,23.113-1.789.325-4.062.723-5.9.9C61.011,43.11,59.518,30.488,59.5,30.317m2.946,27.568c2.031-.193,4.4-.612,6.346-.967.557,2.615,1.093,5.434,1.595,8.475-2.217.39-4.6.738-7.165,1.026q-.4-4.521-.775-8.534M23.611,24.859a88.36,88.36,0,0,1,16.529-6.425c1.122-.331,2.055-.607,2.832-.875-.12,1.066-1.639,14.5-2.261,20.333C40.043,22.5,39.271,21.731,38.635,21.1a2.168,2.168,0,0,0-2.324-.488c-.907.346-1.977,1.162-4.151,6.658-5.86.282-14.415,3.715-21.478,8.319a35.812,35.812,0,0,1,12.929-10.73m6.92,18.694A147.406,147.406,0,0,1,36.39,26.419c.62,6.018,1.254,20.141,1.506,40.5a122.513,122.513,0,0,1-12.673-1.53,196.818,196.818,0,0,1,5.307-21.834M3.6,58.544a48.421,48.421,0,0,1,2.923-15.25C13.367,36.883,24.117,31.952,30.775,31c-1.064,3.022-3.723,11.725-3.885,12.284l-.009-.021c-3.232,1.485-5.487,5.032-7.475,8.161-1.969,3.1-3.828,6.026-5.684,5.645a2.072,2.072,0,0,1-1.737-1.747C11,51.238,15.143,44.661,19.626,41.078l-2.23-2.79c-6.3,5.038-10.054,12.7-8.884,17.865a5.828,5.828,0,0,0,5.628,4.529c3.612.057,5.982-3.729,8.281-7.347a46.726,46.726,0,0,1,2.816-4.108c-1.591,5.947-2.973,11.824-3.521,15.481C11.578,62.564,5.666,59.68,3.6,58.544m38,8.583c1.249-16.7,6.165-58.912,6.22-59.243.055.331,4.972,42.552,6.221,59.243a105.185,105.185,0,0,1-12.441,0m36.474-31.57c2.279,2.094,5.582,6.355,7.528,13.5-.88.314-2.028.632-3.04.875-1.292-5.492-4.343-13.967-4.488-14.377m5.235,17.871c.929-.218,2.052-.515,3.085-.864a51.373,51.373,0,0,1,.8,8.225c-.815.326-1.72.667-2.716,1.015a81.838,81.838,0,0,0-1.168-8.377m7.406,5.8c-.459-10.178-3.405-16.992-5.911-21.015-2.824-4.533-6.6-7.827-8.971-7.832h0a2.124,2.124,0,0,0-1.765.9c-.879,1.248-.342,2.739,1.093,6.723A91.23,91.23,0,0,1,80.986,62.93q-.843.25-1.747.5a122.784,122.784,0,0,0-8.27-31.088,71.833,71.833,0,0,0-5.458-10.487c2.014.824,4.193,1.807,6.524,3.006,12.9,6.636,19.274,17.353,20.007,33.685-.337.186-.779.419-1.324.687" transform="translate(0 0.001)" fill="#fff"/>
      </g>
    </g>
    <text id="Yumata_sannso_Mountain_Hut" data-name="Yumata sannso
 Mountain Hut" transform="translate(1349 16413)" fill="#c4c4c4" font-size="14" font-family="ShipporiMinchoB1-Regular, Shippori Mincho B1"><tspan x="0" y="0">Yumata sannso</tspan><tspan x="0" y="15" xml:space="preserve"> Mountain Hut</tspan></text>
    <line id="線_1246" data-name="線 1246" y2="16" transform="translate(1400.5 16445.5)" fill="none" stroke="#fff" stroke-width="1"/>
  </g>
</svg>
