<svg xmlns="http://www.w3.org/2000/svg" xmlns:xlink="http://www.w3.org/1999/xlink" width="120" height="222.098" viewBox="0 0 120 222.098">
  <defs>
    <clipPath id="clip-path">
      <rect id="長方形_7661" data-name="長方形 7661" width="117.304" height="103.098" fill="#fff"/>
    </clipPath>
    <clipPath id="clip-path-2">
      <rect id="長方形_7714" data-name="長方形 7714" width="106.434" height="25.881" fill="#fff"/>
    </clipPath>
  </defs>
  <g id="グループ_2896" data-name="グループ 2896" transform="translate(-220 -16359)">
    <g id="グループ_2714" data-name="グループ 2714" transform="translate(221 16478)">
      <g id="グループ_2161" data-name="グループ 2161" clip-path="url(#clip-path)">
        <path id="パス_1290" data-name="パス 1290" d="M72.024,31.666c.2-.209.364-.054.472-.263s.2-.2.24-.348a3.79,3.79,0,0,1,.456-.641s.116-.278.263.015a6.637,6.637,0,0,1,.209.772c.1.248.069.619.309.781s.07.386.271.6a6.072,6.072,0,0,1,.4.6.555.555,0,0,0,.278.185.993.993,0,0,0,.356.047,3.172,3.172,0,0,0,.371-.239,1.428,1.428,0,0,0,.17-.449.9.9,0,0,0-.131-.819.334.334,0,0,1-.34-.263,2.106,2.106,0,0,0-.209-.61c-.022-.015-.378-1-.525-1.2a1.635,1.635,0,0,1-.185-.487c-.023-.015-.07-.147-.047-.154s.664-.425.711-.573.154-.115.278-.24a2.529,2.529,0,0,1,.41-.255c.03-.031,1.051-.557,1.051-.557a.559.559,0,0,0,.356-.1c.131-.116.378-.1.44-.124s.155.124.155.271-.2.727-.116.95-.047.448-.047.58-.1.248-.054.386.039.194.124.2a.752.752,0,0,0,.363-.123,1.729,1.729,0,0,0,.572-.765,8.086,8.086,0,0,0,.34-1.352,2.112,2.112,0,0,0,.317-.973c-.023-.494.131-.472-.239-.664s-.239-.332-.541-.263-.619-.008-.826.069-.109-.1-.464.147a7.847,7.847,0,0,0-.873.549c-.248.231-.371.147-.556.339s-.286.131-.448.294-.17.1-.356.231-.345.131-.42.224-.074.039-.175.177l-.031.043c0-.006.014-.031-.14.143-.247.278-.193.163-.316.293l-.124.131s-.023.023-.069,0a3.15,3.15,0,0,0-.34-.448c-.208-.185-.015-.24-.24-.317s-.255-.194-.317-.194a.246.246,0,0,1-.123-.046s.541-.441.541-.526.138-.093.147-.17.263-.108.378-.231a.756.756,0,0,1,.286-.194c.069-.03.24-.1.263-.147s.2-.069.26-.093.258.023.327-.023.448-.023.455-.2a.942.942,0,0,0-.015-.263.512.512,0,0,0,.086-.425c-.062-.247-.1-.51-.317-.6s-.457-.232-.634-.147-1.283.943-1.36,1-.726.556-.8.657a5.943,5.943,0,0,1-.54.641,4.089,4.089,0,0,0-.727.58,1.44,1.44,0,0,1-.425.379c-.078.046-.379.039-.541.324s-.3.271-.232.479a.971.971,0,0,0,.286.487,1.839,1.839,0,0,0,.541.194c.1,0,.17.162.363,0s.356-.224.464-.394a1.034,1.034,0,0,1,.41-.386c.1-.023.108.138.155.192a1.054,1.054,0,0,0,.332.248c.116.039-.015.147.139.231s.155.137.17.18l.054.152a8.63,8.63,0,0,0-1.135,1.206c-.194.356-.317.077-.364.224s-.123.178-.123.325.007.069.123.263a.561.561,0,0,0,.356.262c.139.062.216.418.417.209m-.718,1.167a1.773,1.773,0,0,1,.023-.487,1.09,1.09,0,0,0-.248-.294.843.843,0,0,0-.347-.162h-.123c-.055.031-.426.054-.487.24s-.162.069-.194.255-.139.14,0,.4a1.161,1.161,0,0,1,.2.54c.016.2.016.588.039.75s.015.479.023.626.077.363,0,.487-.162.162-.162.278-.086.285-.069.4.093.093.169.186a.426.426,0,0,0,.232.155c.046,0,.085.177.317.17s.417-.023.471-.109.147-.332.186-.409a1.69,1.69,0,0,0,.086-.418c.007-.108.03-.772.039-.811s-.047-.811-.1-1.128-.008-.533-.054-.672M64.248,89.55c-.506,0-.528-.078-.77,0a7.477,7.477,0,0,1-.869.022,4.928,4.928,0,0,1-.891.055,5.8,5.8,0,0,0-.871.033c-.2.033-.394,0-.526.044a1.785,1.785,0,0,1-.408.044l-.065-.11a3.6,3.6,0,0,1,.11-.473c.076-.253.2-.418.2-.505s.033-.341.033-.341a.391.391,0,0,0-.12-.5c-.275-.176-.275-.2-.4-.176s-.231.034-.3.055-.11-.175-.23-.01-.507.264-.507.439-.044.231-.044.584a3.788,3.788,0,0,1-.088.7,4.994,4.994,0,0,1-.089.562l.121-.363s.073-.219.094-.282c-.018.182-.05.473-.071.612-.034.209-.1.165-.188.22a1.783,1.783,0,0,1-.737.308,2.279,2.279,0,0,0-.319.011,8.328,8.328,0,0,0-.22-.814,10.364,10.364,0,0,1-.254-1.057l-.01-.253s.439-.143.494-.253.066,0,.254-.11a2.079,2.079,0,0,1,.583-.22c.066,0,.341-.11.66-.188s.45-.143.649-.186a4.753,4.753,0,0,1,.759-.055,2.328,2.328,0,0,0,.473-.078c.22-.044.539.176.737.121s.408.11.782.077.748.044.824-.1.3-.2.3-.418.23-.517.077-.649a1.206,1.206,0,0,0-.539-.275c-.143-.01-.484-.165-.638-.131s-.418.033-.627.088-.389-.033-.772.055-.438-.077-.823.088-.506.011-.9.155a4.7,4.7,0,0,1-.7.143c-.131.055-.286-.084-.572.079s-.363.063-.573.2a2.2,2.2,0,0,1-.418.176c-.131.065-.242.044-.286.088a.359.359,0,0,1-.2.088,1.055,1.055,0,0,1-.4-.088A3.183,3.183,0,0,0,55.7,86.8s-.22-.066-.264-.022a2.543,2.543,0,0,1-.286.176.441.441,0,0,0-.3.176c-.154.176-.308,0-.285.253s-.121.078.076.319.254.132.4.44a3.225,3.225,0,0,1,.264.616c.055.22.33,1.738.33,1.738s0,.341.127.463a1.029,1.029,0,0,1,.17.2l-.065.089s-.672.021-.759.175-.408.176-.408.176a2.559,2.559,0,0,0-.693.231,11.11,11.11,0,0,0-1.156.605c-.12.154-.407.088-.572.264s-.253.209-.264.308-.1.1,0,.253,0,.055.2.188a1.349,1.349,0,0,0,.429.154c.034.021.066.044.275.044a.772.772,0,0,0,.727-.242,7.139,7.139,0,0,1,1.76-.715.921.921,0,0,1,.737-.4,3.1,3.1,0,0,0,.969-.209c.12-.044.505-.231.494-.352s.5-.144.638-.254a1.608,1.608,0,0,1,.463-.186,1.943,1.943,0,0,0,.309-.133,2.363,2.363,0,0,1,.549-.143,3.67,3.67,0,0,0,.781-.154,1.82,1.82,0,0,1,.55-.1c.066-.011,1.133.1,1.342.12s.286-.044.341.022a.517.517,0,0,0,.286.121c.088.01.45.044.638.044a1.65,1.65,0,0,0,.5-.089c.033-.021.352-.131.429-.242s.121-.121.121-.242.109-.429.088-.494.121-.451-.385-.451M53.89,35.266c-.024.077.111.238.215.344a1,1,0,0,0,.5.228.61.61,0,0,0,.563-.324,1.862,1.862,0,0,0,.324-1.535c-.134-.887-.572-.629-.81-.839s-.381.029-.62.086-.153.486-.153.486a.685.685,0,0,1-.018.5,4.074,4.074,0,0,0,0,1.054M40.974,32.693c.5.15.567.127.831,0s.22-.335.289-.566a1.613,1.613,0,0,0-.485-1.2,1.194,1.194,0,0,0-1.11.093.892.892,0,0,0-.1.855,1.909,1.909,0,0,0,.578.82m11.159,2.345c.124.143.3.257.505.047s.353.124.362-.381.477-.791.067-1.125a1.75,1.75,0,0,0-.935-.352s-.276.124-.286.324-.171.028-.18.381-.162.191.075.505.267.458.391.6m29.727,1.948c-.278-.165-.288-.135-.453-.391s-.093,0-.247-.052-.165,0-.258-.082-.185-.042-.516-.258l-.125-.083a1.734,1.734,0,0,0-.307.071.4.4,0,0,1-.124,0c-.031,0-.226.062-.309.062s-.133.113-.273.207-.036.35-.056.442a.817.817,0,0,0,.1.33l-.113.164-.4.237a1.982,1.982,0,0,1-.566.4,2.016,2.016,0,0,0-.418.244,1.251,1.251,0,0,1-.005-.439c.047-.17.148-.209.124-.324s.107-.14.049-.224.028-.07.083-.217a1.282,1.282,0,0,0,.1-.572,2.523,2.523,0,0,0-.182-.317c0-.007-.01-.024-.025-.043.018-.009.025-.019.025-.075,0-.118.157-.041.187-.133s.278-.145.866-.464c.177-.1.262-.138.3-.155,0,0,.006-.02.05-.062.186-.175.278-.093.454-.226s.381-.113.567-.268a.728.728,0,0,0,.258-.319c.093-.165.206-.083.309-.237a3.676,3.676,0,0,0,.371-.5c.207-.35.114-.258.114-.33s-.083-.175-.124-.314-.113-.057-.278-.263-.175,0-.257,0-.371.083-.453.083-.165.154-.217.226a2.855,2.855,0,0,0-.354.413c-.087.164-.491.535-.677.5s-.186.113-.268.117-.329.223-.412.254a2.3,2.3,0,0,1-.556.3c-.319.1-.134.252-.422.344a.921.921,0,0,0-.382.2l.021.095-.034-.031s-.047.116-.634.317a2.212,2.212,0,0,0-1.028.524c-.154.195-.865,1-1,1.169s-.8.61-.82.835-.154.2-.223.339-.237.124-.223.217-.326-.433-.063.2.186.6.309.68a1.169,1.169,0,0,0,.379.124c.131.03.139-.039.224,0a.4.4,0,0,0,.332-.032,2.186,2.186,0,0,0,.44-.378,3.815,3.815,0,0,0,.293-.364c.008-.022-.285-.332.286-.943a9.584,9.584,0,0,1,1.167-1.159c.023.046.093-.194.154.17a1.461,1.461,0,0,1-.147.811,3.236,3.236,0,0,0-.231.966c.031.239-.131.371-.155.471s-.1-.061-.054.255-.023.425.1.634.069.41.51.41.549.069.78-.039a.864.864,0,0,0,.464-.394c.123-.208.224-.509.293-.587s.394-.363.394-.363c.067-.059.211-.023.293-.086a2.479,2.479,0,0,0,.278-.175c.042-.051.443-.36.6-.545s.375-.485.632-.546.083.051.124.122a2.06,2.06,0,0,0,.226.238,1.649,1.649,0,0,0,.3.226.547.547,0,0,0,.248.113c.134.042.186.062.341.1a.685.685,0,0,0,.391-.051c.113-.031.278-.361.412-.63s-.051-.308-.113-.658-.175-.123-.453-.288m-6.272-3.38c-.061.155-.248.241-.27.325s-.131.147-.178.2a1.894,1.894,0,0,1-.169.166.886.886,0,0,1-.413.425c-.292.132-.469.078-.531.224s-.123.115-.108.293-.348-.039.116.294.479.324.6.34.047.247.294,0,.309-.349.371-.41a2.612,2.612,0,0,0,.386-.322c.154-.18.224.005.339-.243a.607.607,0,0,1,.332-.324,2.381,2.381,0,0,1,.41-.224,2.671,2.671,0,0,1,.34-.054,2.577,2.577,0,0,0,.61-.224c.086-.015.232.085.239-.271s.015-.556-.162-.626-.178-.154-.41-.116a4.05,4.05,0,0,0-.68.086c-.232.077-.464.039-.61.147s-.448.155-.51.309m19.408-16.33c.34-.356.711-.85.711-.85a8.188,8.188,0,0,1,.943-.757c.17-.062.293-.17.4-.17a.812.812,0,0,0,.371-.108,3.274,3.274,0,0,0,.325-.155,1.453,1.453,0,0,1,.587-.17c.371-.061.526-1.035.417-1.19a.923.923,0,0,0-.432-.324c-.185-.077-.386.078-.572.078a6.766,6.766,0,0,0-.9.324c-.14.032-.386.17-.449.185s-.123.077-.432.448-1.423,1.391-1.576,1.577a2.6,2.6,0,0,1-.619.464,1.493,1.493,0,0,1-.418.14,2.794,2.794,0,0,1-.464.093,5.653,5.653,0,0,0-.587.139c-.309.062-.123.093-.223.155s.007.324.007.324a2.99,2.99,0,0,0,0,.371c.015.047.278.185.432.34s.31.061.773,0a1.272,1.272,0,0,0,.665-.248,4.024,4.024,0,0,0,1.035-.664m22.274,6.977c-.131-.211-.633-.422-.9-1.056s0-.291-.449-.951c-.06-.089-.114-.167-.162-.24l-.392-.579s-.607-.606-.554-.95-.211-.5-.317-.74-.369,0-.528-.29.132-.87-.317-1.056-.5-.422-.686-.845-.449-.739-.66-1.24-1.056-1.11-.9-1.505-.633-.716-.633-.716-.317-.208-.317-.445.052-.924-.343-1.215a1.175,1.175,0,0,1-.528-.659c-.079-.212-.079-.951-.528-1.135a1.551,1.551,0,0,1-.687-.766s-.448-1.24-.871-1.4-.1-1-.475-1.029-.186-.343-.607-.792-.317-.845-.713-1.162-.475-.792-.606-.871-.159-1.636-.74-1.584-.581-.74-.581-.74-.264-.712-.765-.712-.792-.133-.951,0-.9-.962-1.478-.059-.634.851-1.109.8-.819-.448-1.215.133-1.215.686-1.69,1.293-.871.37-1.135.66-.845.211-1,.555a.8.8,0,0,1-.792.581,1.29,1.29,0,0,0-1.029.607c-.053.211-.581.237-.713.422s-1.056.053-.976.739c0,0-.1-.135-.461.237s-.685.253-.9.577-.636.144-.84.48-.3.072-.8.372-.984.432-1.188.588-.24-.036-.648.18a.833.833,0,0,1-.417.094,1.39,1.39,0,0,0-.452-.884c-.574-.5-.6-.321-.756-.642a13.288,13.288,0,0,0-.62-1.352c-.366-.641-.114-1.168-.824-1.7a2.657,2.657,0,0,1-.917-1.329s-.435-.94-.779-1.1-.435-.642-.688-.642-1.351-.5-1.672-.481a5.929,5.929,0,0,0-1.742.252c-.527.229-.894.253-1.123.367s-1.054-.3-1.558.275a3.572,3.572,0,0,1-1.444.826c-.206.114-.573.068-.848.71A9.97,9.97,0,0,1,71.277,5.6c-.092.184-.206-.115-.5.458s-.5.253-.848,1.009-.733,0-.527,1.123a19.532,19.532,0,0,0,.321,2.291c.184.344.206,2.086,1.008,2.589s.963.963,1.009,1.215a1.786,1.786,0,0,0,.5,1.123,7.974,7.974,0,0,1,.8,1.307c.132.148.052.356.184.486a1.377,1.377,0,0,0-.413.337c-.336.42.168.085-1.008.56s-1.288.336-1.653.924-.728.4-1.148.715a15.648,15.648,0,0,0-1.961,1.1c-.476.476-.582.141-1.283.88a.274.274,0,0,1-.19.008c-.22-.079-.488.3-.615.316s-.5.536-1.04.615-.363.253-.616.221-.661.536-.772.536-.6.5-.993.41-.726.347-.773.378-.52.71-.883.6-.583.442-.678.394-.8.321-.8.321a9.509,9.509,0,0,0-1.926-1.082,2.384,2.384,0,0,1-1.33-.793c-.077-.129-.135-.288-.272-.349-.087-.038-.188-.027-.277-.062-.2-.084-.234-.363-.384-.526-.231-.248-.635-.145-.971-.19-.666-.089-1.072-.781-1.669-1.088a1.79,1.79,0,0,1-.593-.349c-.133-.157-.184-.389-.364-.489-.2-.113-.481,0-.682-.119-.151-.091-.2-.282-.31-.423-.227-.3-.659-.338-1-.5-.58-.277-.958-.959-1.6-1.038a3.141,3.141,0,0,1-.451-.043c-.361-.1-.548-.527-.9-.653-.226-.081-.491-.027-.7-.143-.236-.128-.322-.416-.432-.66a1.1,1.1,0,0,0-.123-.209,2.591,2.591,0,0,0,.033-.454,4.593,4.593,0,0,1,.711-1.966q.627-1.15,1.247-2.3L47.6,9.871a1.971,1.971,0,0,0,.309-.892.535.535,0,0,0-.091-.085c-.065-.047-.145-.085-.176-.159a.324.324,0,0,1-.011-.15c.011-.137.023-.272.035-.409l-.654-1.356c-.258-.535-.517-1.07-.825-1.578a.821.821,0,0,1-.409-.371,2.023,2.023,0,0,0-.122-.261c-.083-.117-.221-.18-.32-.284a1.233,1.233,0,0,1-.2-.36c-.053-.122-.113-.241-.177-.359-.322-.364-.659-.713-1-1.054l-.07-.069a.857.857,0,0,1-.234-.048c-.211-.09-.29-.35-.475-.485a1.78,1.78,0,0,0-.523-.181,1.054,1.054,0,0,1-.678-.731l0,0A.278.278,0,0,1,41.446.9L40.91.921A.312.312,0,0,1,40.745.9a.3.3,0,0,1-.12-.221A2.2,2.2,0,0,1,39.243.293a1.475,1.475,0,0,0-.256-.236c-.355-.2-.755.194-1.162.238-.3.034-.6-.128-.888-.059a1.156,1.156,0,0,0-.514.354,2.229,2.229,0,0,0-.833,1.419,4.423,4.423,0,0,1,.021.658c-.119.7-1.133.916-1.35,1.594A7.012,7.012,0,0,1,34.12,5a2.028,2.028,0,0,1-.412.5,1.916,1.916,0,0,0-.5,1.372c-.236-.1-.4.232-.475.478s-.377.52-.529.313a2.332,2.332,0,0,1-.041.987.821.821,0,0,1-.659.576.561.561,0,0,0-.182-.017c-.226.015-.438.175-.662.134-.244-.045-.378-.3-.557-.475-.4-.387-1.057-.345-1.538-.632-.365-.217-.605-.609-.982-.8-.332-.17-.833-.291-.807-.663-.672.147-1.3-.794-1.925-.505.037-.4-.016-.924-.406-1.008-.27-.058-.553.16-.815.072-.3-.1-.478-.568-.78-.47L22.8,4.389c-.65.115-1.13-.559-1.71-.892.042.009.085.021.128.029l-.169-.052.038.022a5.961,5.961,0,0,1-2.4-1.152,5.028,5.028,0,0,0-.719-.535l-.05-.023a5.155,5.155,0,0,0-1.691-.99C15.838.682,15.331.551,15.3.15a1.589,1.589,0,0,0-1.381.269c-.159.172-.248.421-.459.523a1.183,1.183,0,0,0-.21.095c-.191.143-.1.457-.213.665-.095.169-.31.231-.442.373a1.544,1.544,0,0,0-.241.708,3.358,3.358,0,0,1-.575,1.023,8.5,8.5,0,0,0-1.358,3.226,1.352,1.352,0,0,1-.173.525c-.209.3-.636.365-.911.611a1.723,1.723,0,0,0-.346.512,4.832,4.832,0,0,0-.548,1.429,3.554,3.554,0,0,1-.159.884,2.179,2.179,0,0,1-.192.327A12.508,12.508,0,0,0,7.161,13a.405.405,0,0,0-.037.024,2.075,2.075,0,0,0-.783,1.256,1.9,1.9,0,0,1-.114.478c-.167.348-.615.5-.756.863-.112.286,0,.645-.183.894-.127.176-.36.237-.524.379a1.538,1.538,0,0,0-.374.834,6.732,6.732,0,0,1-.979,2.138,2.328,2.328,0,0,0-.419.794,3.587,3.587,0,0,1-.105.682c-.124.3-.444.457-.641.712-.442.571-.258,1.58-.9,1.906a.555.555,0,0,0-.2.125c-.075.1-.049.24-.105.349-.071.138-.244.177-.387.238s-.285.221-.208.356A.606.606,0,0,0,0,25.634a1.43,1.43,0,0,0,.272.752c.193.3.511.618.856.52a.931.931,0,0,0,.647.54.647.647,0,0,1,.314.107.881.881,0,0,1,.133.221c.213.373.739.367,1.151.49a3.138,3.138,0,0,1,.92.529l.68.5a1.124,1.124,0,0,0,.3.179,1.2,1.2,0,0,0,.27.043,1.651,1.651,0,0,0,.142.231c.375.506.891.2,1.336.828s1.266.211,1.9.609a3.456,3.456,0,0,1,1.008.727c.538.516.913.07,1.335.563a2.262,2.262,0,0,0,1.266.844c.633.211.656.328,1.172.891s.609.07,1.312.422.492.422.844.937.445-.164,1.1.211.89.539.89.539l.153.154c-.1.384-.216.756-.316.775a.87.87,0,0,0-.633.758c0,.422-.716.8-.8,1.054s-.379-.21-.422.59-1.054,1.559-.969,2.318,0,.674-.295,1.307-.97,1.18-1.012,1.559-.675.716,0,1.348a2.415,2.415,0,0,0,.285.231,1.443,1.443,0,0,0,.264.605c-.243.29-.645.555.041.934.244.133.4.223.5.3a3.453,3.453,0,0,0,.3.764c.3.52.3.59.425.806s.085.62.288.874.462.442.465.617h0c0,.333.024.959.255,1.025.295.084-.043.042.337.463s.59.085.674.548-.379.716.422,1.307.758.632.8.969-.084.675.337.969a2.009,2.009,0,0,0,1.349.379c.295-.084.758.043.926-.21s.422-.211.675-.675.927-1.9,1.265-2.528.843-1.012.8-1.307,0,.126.422-.422-.337-.547.674-1.6.507-1.054,1.307-2.318.927-.779.927-1.611.211-.917.59-1.423a9.2,9.2,0,0,0,.747-1.719c.165.156.347.268.417.13a.447.447,0,0,1,.3-.257s.1.186.755.2.77-.043.941.128a3.342,3.342,0,0,1,.385.485,2.166,2.166,0,0,0,.627.4c.057.014-.143.314.257.228s.327-.071.727.271.628.341.684.341.328.3.585.342.456-.257.541.128.029.427.228.47.157.128.385.214a2.013,2.013,0,0,0,.812.3c.357,0,.328-.086.541.2s.185.427.414.527.285.485.684.528.342-.257.713.214.47.513.641.541a1.179,1.179,0,0,1,.869.243,5.72,5.72,0,0,0,.7.456c.085.071.3.242.3.242a.3.3,0,0,0,.314.3c.314.011.328-.192.5.066.154.231.467.315.684.648a4.152,4.152,0,0,1,.158,1.363c-.074.971-.319,1.12.009,1.494s.066,1.158-.009,1.494a5.752,5.752,0,0,0,.17,1.9c.129.224-.354.747,0,1.2a1.2,1.2,0,0,1,.39,1.008c0,.486-.3.075-.15.6s.262.672.15.9-.552.373-.444,1.008.349,5.153.49,5.638a1.326,1.326,0,0,1,0,.822s-.2.074-.2.485-.3.411-.263.821a1.4,1.4,0,0,1-.089.614,5.382,5.382,0,0,0-.824-.2,1.184,1.184,0,0,0-.635.019l-.373.223s-.9.019-1.083-.187-.579-.018-.728-.056a6.173,6.173,0,0,1-1.737-.243c-.785-.28-.9.28-1.045.392a1.019,1.019,0,0,1-1.065.149c-.467-.243-.5.318-.6.411s-.317.243-.857.056-.133.112-.749.579-.784.374-.784.374-.411.877-.729,1.046-.149.429-.167.5a.811.811,0,0,1-.28.523c-.262.244-.112.737-.112.737a1.564,1.564,0,0,1-.206.552,2.58,2.58,0,0,0,.174,1.512.514.514,0,0,1,.032.559c-.112.262.112.877.13,1.009a2.577,2.577,0,0,0,.635,1.026c.448.5.168.467.3.785s.13.2.523.821.206.038.485.373.412.224.749.616a4.786,4.786,0,0,0,1.212.765,3.388,3.388,0,0,0,.785.112,8.486,8.486,0,0,1,.728.709.67.67,0,0,0,.729.262s4.593.056,5.246.056.616.317.616.317a3.276,3.276,0,0,1,.242.9c.018.373,0,1.1,0,1.1v4.649c0,.952.337.99.337.99l.168,9.709-.392.242a1.8,1.8,0,0,0-.094.971c.075.653.785.6.785.6l.186.206c.187.2,1.12,0,1.4,0a5.608,5.608,0,0,0,.859-.131h9.752c.526,0,.447-.164.447-.164a1.726,1.726,0,0,0,.463.177.275.275,0,0,0,.287-.177l1.053.015a.952.952,0,0,0,.543.158,1.232,1.232,0,0,0,.415-.125s3.4.175,3.7.111.079-.287.207-.335.479.143.479.143,1.692-.014,1.771,0a2.055,2.055,0,0,0,.846-.156c.175-.128.494.153.494.153s.735.006.926,0a1.466,1.466,0,0,0,.526-.169c.192-.079.431.158.431.158s1.723.034,2.059-.014,1.181.048,2,0c.487-.029.47-.131.378-.21a1.515,1.515,0,0,0,.356-.907v-1.58a1.938,1.938,0,0,1-.4-.862c0-.351.1-5.155.1-5.155s.16-.111.064-.431l-.144-.478.144-3-.208-.239-.032-5.569s.558-.351.479-.575a.45.45,0,0,1-.024-.258h2.307s.606-.1,1.028-.131,2.109,0,2.109,0,.105-.128.316-.012a.723.723,0,0,0,.475.048,4.8,4.8,0,0,1,.606-.247c.079,0,2.742.171,2.742.171l6.38-.171s.343.369.528.171a.9.9,0,0,1,.606-.171h.817s1-.316,1.055-.632a2.623,2.623,0,0,0,0-.686l-.29-.633-.765-1.635s.238-.237-.158-.342a.61.61,0,0,1-.448-.475,1.833,1.833,0,0,0-.264-1.108,4.52,4.52,0,0,1-.5-.711l-.264-.659a.342.342,0,0,0-.158-.264c-.159-.1-.08-1.055-.343-1.186a.715.715,0,0,1-.342-.4s-.211-.9-.369-.9-.106-1.16-.237-1.16-.475-.343-.475-.343l-.4-.606s-.027-.633-.448-.633H83.506a.756.756,0,0,0-.529-.264h-.763s-.765-.131-.9,0a1.323,1.323,0,0,1-.5.211,1.876,1.876,0,0,0-.844-.158c-.369.053-.4.184-.658.053a2.483,2.483,0,0,0-.739-.164l-.633.164s-.237-.158-.237.185-.316,1.081-.553.9-.131-1-.131-1l-.291-.243H74.462a2.012,2.012,0,0,1-.614-.364c-.2-.211-.335-.658-.546-.738a1.327,1.327,0,0,1-.217-.123V65.56s-.02-.475-.152-.528,0-9.545,0-9.545.093-.475.152-.764a2.2,2.2,0,0,0,0-.659.647.647,0,0,1-.178-.343V52.192l.08-.475s.066.138.125-.168.112-.676.112-.676c.037-.243.3-.193.539-.4s.633-.131,1.029-.369a2.156,2.156,0,0,0,.845-.687c.264-.369.581-.369.871-.475a7.978,7.978,0,0,0,1.373-.818c.291-.2.358-.271.359-.291h.038A5.763,5.763,0,0,0,79.2,47.2a2.76,2.76,0,0,1,1.452-.686c.74-.106.37-.291.423-.292a7.4,7.4,0,0,1,1.267-.9,3.4,3.4,0,0,0,.818-.449s.5-.5.924-.476.475-.633.871-.633a1.177,1.177,0,0,0,.792-.369c.159-.132.4.052.818-.159a1.057,1.057,0,0,0,.528-.634s.37-.317.581,0a1.914,1.914,0,0,0,.766.528s.475.45.475.687-.37.29,0,.581.739.237.765.37.317.369.37.686-.106.317.4,1.057.606.739.606.923-.052.766.264.766a.4.4,0,0,1,.4.237s-.106.4.159.5.369-.053.422.184a5.219,5.219,0,0,0,.516,1.03,2.883,2.883,0,0,1,.514,1.109.676.676,0,0,0,.29.581,2.437,2.437,0,0,0,.343.211s.343-.211.343.291-.5.4,0,.765.739.475.792.739a.578.578,0,0,0,.634.423c.264-.053.422.211.634-.132s.422-.026.448-.422.528-.5.607-.818-.264-.792.131-.871.554-.217.581-.478.026-.6.238-.737.184-.956.184-.956l.528-.311a1.75,1.75,0,0,1,.66-1.03c.528-.342.052-.316.29-.686s.818-.792.792-1.188a2.051,2.051,0,0,1,.211-.871s.528-.712.581-.845.422-.528.581-.871.607-.818.448-1.214.027-.977-.211-1.268-.131-.871-.317-1-.211-.554-.211-.554-.185-.713-.4-.871a.972.972,0,0,1-.264-.554,3.475,3.475,0,0,0-.317-.74c-.185-.291-.1-.581-.264-.871a5.1,5.1,0,0,0-.686-.765,1.563,1.563,0,0,1-.211-1.056.946.946,0,0,0,.058-.252l.258-.118a1.376,1.376,0,0,0,.687-.448c.211-.317.184-.37.581-.4s.158,0,.845-.4.792-.606.845-.792.871.053,1.082-.237.159-.422.528-.448.027-.37.607-.528a2.4,2.4,0,0,0,.792-.317,3.34,3.34,0,0,0,.5-.343c.211-.133.422-.343.58-.37a1.085,1.085,0,0,0,.74-.211c.343-.264.555-.765.818-.818s.158.185.607-.146a2.884,2.884,0,0,1,1-.541c.133,0,.159.132.343-.1s.026-.343.475-.4.4-.053.687-.4.4-.449.528-.475a2.064,2.064,0,0,0,.475-.317l.264.027a.948.948,0,0,0,.529-.237,2.772,2.772,0,0,1,.369-.317l.9-.237,1-.687s.845-.185,1.057-.606.475-.581.342-.793M36.049,74.078c-.074.142-.373.137-.485-.124s-.206-.055-.841-.111a1.631,1.631,0,0,0-1.064.2c-.336.13-.243-.2-.243-.2a2.212,2.212,0,0,0-.012-.671c-.067-.2.068-.133.143-.431s.262,0,.467-.262.374-.149,1.288-.28.3.28.392.448a6.375,6.375,0,0,1,.448.765c.224.467-.018.523-.094.665m6.105-2.43c.168-.328.318-.064.616-.133s.467.273.467.273.018,2.353,0,2.383-.018.362-.28.437a1.346,1.346,0,0,1-.579,0,.988.988,0,0,0-.112-.355,1.525,1.525,0,0,1-.13-.374s0-.691.038-.952.018-.336-.168-.754-.018-.2.149-.526m1.2,7.087c-.018.13-.094.373-.186.747a.812.812,0,0,0,.093.635,3.969,3.969,0,0,1-.093.933c-.094.2-.374.112-.841.09s-.391-.015-.559-.351-.318-.635-.392-.8a5.447,5.447,0,0,1-.168-.765s.15-.561,0-.765-.523.261-.523.261-.224.3-.336.486.038.765-.074.915a1.32,1.32,0,0,0-.15.728c0,.3-.653.28-.653.28s-.765.094-.915-.187-.653,0-.653,0l-.018-.915.168-.112c.168-.112.149-.355.13-.6a.551.551,0,0,1,.168-.448c.093-.13.018-.579.018-.579s.056-.84.056-1.4-.168-.729-.168-.729V73.6a.975.975,0,0,0-.317-.672c-.28-.3,0-.448,0-.635a.384.384,0,0,1,.336-.374c.167,0,.317-.261.317-.261s.765-.074.971-.13a.364.364,0,0,1,.429.224c.038.13.449.422.449.422s.056,2.583.018,2.938.242.467.374.654.317.112.6.243.429-.056.691-.186.149.018.112.223.187.243.187.412.149.261.355.279.15.224.13.43.448.821.448.821.018.617,0,.747m30.017-.018,0-.153c0-.116,0-.244.005-.381l0-.386c0-.314.008-.659.012-1.015l0-.21c0-.144,0-.288.005-.432v-.093c.006-.477.011-.944.016-1.351l0-.193c0-.067,0-.134,0-.2l0-.13c0-.113,0-.219,0-.313v0c0-.123,0-.225,0-.306v-.14c0-.032,0-.05,0-.05l.007-.567a1.347,1.347,0,0,1,.55-.356,1.036,1.036,0,0,0,.58-.132c.08-.078.237.053.291-.131a11.544,11.544,0,0,1,2.5-.106l.29-.016s.236.491.4.254l.158-.237.5-.016s.317.307.422.2.528.348.528.348a.845.845,0,0,0,0,.707,4.127,4.127,0,0,1,.316.633c.027.079-.025.553.106.685s-.158.317,0,.58a.928.928,0,0,1,.158.422s-.4.29,0,.317a8.417,8.417,0,0,0,.87,0,6.622,6.622,0,0,1,0-1.4c.079-.817.053-.923-.131-1.134s-.053-.686-.053-.686l.1-.211,3.8-.078,1.161.052a.559.559,0,0,0,.449.106c.263-.053.369.449.369.449a.667.667,0,0,0,.369.738,1.469,1.469,0,0,1,.606.9s-.264.686,0,.9.58.261.633.38a.919.919,0,0,1,.184.437,1.4,1.4,0,0,0,.185.633,1.121,1.121,0,0,1,.37.764,1.211,1.211,0,0,0,.316.712,4.983,4.983,0,0,1,.553.922c.053.264-.078.238.106.475s.053.185.237.5.474.764.263.922a2.6,2.6,0,0,1-1.239.184,11.176,11.176,0,0,0-2.108,0,1.3,1.3,0,0,1-.712.184c-.264,0-.184-.263-.764-.263s-.818.263-.976-.159a3.279,3.279,0,0,1-.184-1.239c.027-.263.184-1-.079-1.213s-.132-.686-.132-.975.185-.291-.053-.606-.447-.739-.844-.475-.633.264-.553.686.131-.422.264.817a15.963,15.963,0,0,1,.027,2.558.327.327,0,0,0-.29.289c-.027.264-.633.369-.712.369a2.182,2.182,0,0,1-.922-.026,3.116,3.116,0,0,0-.9-.159c-.131,0-1.741-.105-1.741-.105s-.316.475-.342-.686a18.52,18.52,0,0,1,.133-2.4,3.056,3.056,0,0,1-.343-.4c-.053-.1-.1-.791-.422-.606s-.791.106-.791.422v1.161a8.769,8.769,0,0,1-.211,1.635,1,1,0,0,1-.422.659,1.149,1.149,0,0,1-.87.237,1.757,1.757,0,0,1-.633-.237c-.131-.079-.316-.237-.553-.106s-.523.264-.533.193v0a1.691,1.691,0,0,0-.038-.2c-.111-.4.016-.814-.144-1.1a1.5,1.5,0,0,1-.175-.574c0-.068,0-.237.005-.474m-.012,23.639-.024-.012-.01-.01.035.022M81.462,9.293h0a1.153,1.153,0,0,0,.356-.275c.022-.114.457-.848.824-.367a4.67,4.67,0,0,1,.642,1.261c.114.3-.137.573.068,1.055a1.58,1.58,0,0,1,.095.312.715.715,0,0,0-.142.13c-.2.227-.36.144-.588.4s-.648-.2-.889.248-.468.2-.972.7a2.949,2.949,0,0,1-.98.719c-.2.089-.359-.026-.362.192h0a1.448,1.448,0,0,0-.234.208c-.533.588-.924.476-1.4.756s-.841.084-1.373.532-.782.421-1.033.642c-.138-.224-.257-.415-.257-.415s-.321-.32.458-.733,1.192-.871,1.65-.963,1.031.115,1.306-.481.5-.343.55-.985c.04-.557.13-.976,0-1.152a5.225,5.225,0,0,1,.684-.383c.6-.275.369-.787.852-1.017a4.677,4.677,0,0,0,.74-.38M78.61,3.632c.206-.115.573.138.527.5s-.527,0-.527,0-.207-.39,0-.5M73.34,5.213c.138-.092.325-.252.552-.412s.522-.482.571-.229a.579.579,0,0,1,.021.089c.027.163.018.507-.48.644-.664.184-.8,0-.664-.092m-.528,7.036a5.655,5.655,0,0,1-.046-1.192c.069-.046-.458-.366.482-.412s1.535-.229,1.65-.55.114-.413.367-.435.619-.78,1.512-1.077.894.275,1.329-.6.619-1.077.779-1.169,1.123-.756,1.261-.893.023-.917.481-.5a1.758,1.758,0,0,1,.5,1.375,2.987,2.987,0,0,1-.206,1.123c-.115.206-.78.343-.78.527,0,.068-.076.159-.16.262a1.042,1.042,0,0,0-1.009.494c-.275.573-.481.665-.733.688s-2.037.243-2.062.809c-.1.008-.19.053-.23.245-.092.435-.8.343-.046.756s.688.321.756.413-.16.527-.5.71-1.146.138-1.513.3-.114,1.031-.94.161-.87-.78-.894-1.031M37.129,2.419a.39.39,0,0,1,.3-.3c.077-.01.155.01.229-.005s.148-.1.113-.164a1.2,1.2,0,0,1,.465.079.7.7,0,0,0,.684-.275.951.951,0,0,0,.8.217l.483.3c.12.075.256.184.234.324s-.179.2-.313.237a.924.924,0,0,1-.688.011.83.83,0,0,0-.184-.1c-.159-.04-.3.107-.376.255a1,1,0,0,1-.256.415.569.569,0,0,1-.43.057.622.622,0,0,1-.327-.147A.29.29,0,0,1,37.793,3h-.522a.12.12,0,0,1-.143-.135,1.155,1.155,0,0,1,0-.442m.663,3.389c.133.006.288.026.352.142.071.131-.023.309.05.438a.539.539,0,0,0,.223.162,1.264,1.264,0,0,1,.427.529,1.437,1.437,0,0,0,.41.545.472.472,0,0,0,.623-.045c-.022.218.257.331.477.338s.487,0,.6.195a1.689,1.689,0,0,0,.1.222c.168.212.566-.027.765.155.072.067.1.172.157.249a.606.606,0,0,0,.375.166l.934.172a1.7,1.7,0,0,1,.438.124,2.792,2.792,0,0,0,.328.174,2.776,2.776,0,0,0,.532.044c.429.053.885.424,1.239.176.141.084.075.308-.043.421s-.281.2-.316.364.087.365-.01.509c-.108.16-.375.09-.526.212-.2.16-.047.48-.094.731-.063.338-.483.507-.579.837-.078.266.062.61-.142.8-.167.155-.487.105-.59.309-.031.062-.037.143-.092.186-.106.086-.244-.046-.342-.138a1.334,1.334,0,0,0-1.018-.233.479.479,0,0,1-.321-.055.876.876,0,0,1-.137-.173c-.192-.251-.558-.261-.85-.383a1.431,1.431,0,0,1-.783-1.07,3.476,3.476,0,0,1,.078-1.37.771.771,0,0,0,.022-.312.622.622,0,0,0-.25-.342,1.866,1.866,0,0,0-.795-.366c-.342-.067-.742-.06-.963-.327-.068-.083-.11-.184-.17-.272a1.59,1.59,0,0,0-1.213-.5.447.447,0,0,1-.216-.061c-.171-.124-.084-.4-.167-.593-.07-.163-.25-.244-.38-.365-.431-.4-.237-1.113-.382-1.684l2.25.1m-4.244,4.285q-.035-.271-.072-.541l.6-.029c0-.183,0-.368,0-.551a.668.668,0,0,0,.694-.421,2.883,2.883,0,0,1,1.216,1.092.555.555,0,0,0,.151.228.475.475,0,0,0,.317.052l.877-.059c-.088.29.374.413.537.669s-.018.6-.247.808-.517.373-.626.66c-.1.254-.062.6-.3.729-.19.1-.416-.02-.6-.138l-1.612-1.054a2.823,2.823,0,0,0-.515-.285,1.816,1.816,0,0,0-.757-.624c.1-.223.1-.549.326-.536M25.188,46.3a9.674,9.674,0,0,1-1.18,1.78c-.59.547-.633.126-1.306-.042s-.548-.254-1.18-.844-.758-.168-.928-.632-.378-.673-1.01-1.18-.633,0-.8.347.168.623.464,1.086a2.129,2.129,0,0,0,.632.716,11.129,11.129,0,0,1,.927,1.265c.464.59.673.127.885.59a.889.889,0,0,0,.759.471,2.044,2.044,0,0,1,0,1.545c-.3,1.088-.337.386-.59.85s-.3,1.18-.464,1.39a1.286,1.286,0,0,1-.759.422c-.421.126-.379.464-.632,1.1s-.506-.042-.675-.421a4.948,4.948,0,0,1-.632-1.981c-.042-.928-.506-.632-.716-.928s-.253-.884-.674-1.685-.38-.59-1.1-1.1-.042-.758-.126-1.644-.674-.758-.716-1.106a5.1,5.1,0,0,1,0-1.634c.126-.8.3-.547.675-1.1s-.168-1.18.253-1.179.422-.591.8-1.265.168-.59.421-.8.548-.168.969.421.254,0,.548.38.168.421.632.843,1.054,1.137,1.18,1.264a11.721,11.721,0,0,1,1.433.8c.506.422.8.042,1.18.422s.505.21,1.306.713.843.55.422,1.13M27,43.149c-.253.632-.675.21-.8.21a6.426,6.426,0,0,1-1.77-.336,7.582,7.582,0,0,1-1.517-.632,8.341,8.341,0,0,1-1.264-1.181c-.758-.8-1.012-.295-1.6-1s-.253-.727-.463-1.485-.422-.254-.759-.717c-.174-.241.094-.412.391-.522a6.146,6.146,0,0,1,1.119.24c.3.164.68.164.984.656s.68.094,1.078.563a6.128,6.128,0,0,0,1.594.984c.421.258.843.328,1.616.773s.469.375,1.031.235a.371.371,0,0,1,.213,0,2.243,2.243,0,0,1,.175.2,1.167,1.167,0,0,1,.01.484s.13.106.3.237a6.139,6.139,0,0,1-.34,1.3m16.872,5.88-.452-.217c.019-.13.276.037-.361-.322a6.81,6.81,0,0,1-1.069-.641c-.313-.243-.043.2-.584-.3a3.475,3.475,0,0,0-.655-.571c-.471-.341-.6-.4-.442-.556s.57-.242.57-.826.5-.671-.013-.955-.514-.585-.742-.271-.5.086-.612.357-.712.157-.727.327-.228.057-.257.243-.385.242-.357.414-.043-.071-.427-.186a3.6,3.6,0,0,1-1.069-.428c-.6-.327-.77-.655-1.055-.712s-.243.071-.571-.257-.371-.114-.613-.456-.2-.471-.542-.414-.341-.314-.67-.442-.6-.456-.841-.484-.77-.471-.912-.342-.214-.227-.214-.227.441-.357.47-.6.485-.285.086-.484.014-.457-.527-.442-.613-.415-1.055,0a.977.977,0,0,1-.338.242c-.12-.224-.855.25-1.309-.269s-.75.141-1.1-.153-.844-.6-.961-1.043-.586.047-.82-.375-.516,0-.938-.609-.7.141-.936-.351-.891-.375-1.125-.608.234-.469.328-.492a2.3,2.3,0,0,0,.68-.281c.234-.164.094-.211.234-.539s.327.07.843,0,.469-.3.609-.727-.141-.3-.633-.492-.679.117-1.03.094-.656.211-1.008.211a3.549,3.549,0,0,0-.891.234c-.3.07-.211-.117-.609-.3s-.586.539-.7.7-.445.117-.824-.375-.535.023-.816-.164a6.28,6.28,0,0,1-1.383-.914c-.444-.469-.444-.07-.936-.422s-.445-.117-.445-.375-.047-.187-.07-.445,1.055-.117,1.382-.141,1.43,0,1.922-.094.352-.352.234-.8-.563-.329-.656-.47-.211-.188-.656-.422-.633-.047-.961.3-1.382.258-1.64.258-.4-.07-.563-.492-.352-.164-.891-.094-.07.4-.258.7-.469.258-.68,0-.352-.141-.75-.117-.492-.023-.7-.4-.516-.375-.75-.586a1.243,1.243,0,0,0-1.1-.538c-.7.023.069-.422-.516-.609a.514.514,0,0,1-.329-.565c.588-.382.907-1.233,1.606-1.292a5.042,5.042,0,0,0,.555,0c.181-.035.363-.2.31-.382-.075-.256-.476-.2-.673-.376-.079-.073-.119-.182-.2-.255a.645.645,0,0,0-.422-.112,2.005,2.005,0,0,0-1.7.5.963.963,0,0,1-.274.3c-.309.158-.66-.237-1-.161-.174.039-.335.2-.5.144-.1-.034-.157-.131-.236-.2-.423-.346-1.076.341-1.57.107a3.756,3.756,0,0,1-.318-.226,1.949,1.949,0,0,0-.318-.136,1.687,1.687,0,0,1-1.023-1.714,3.265,3.265,0,0,1,.508-1.236,2.816,2.816,0,0,1,.759-.955,1.415,1.415,0,0,1,.793-.25,1.751,1.751,0,0,0,.393-.013.784.784,0,0,0,.5-.848A3.917,3.917,0,0,0,6,20.6a1.255,1.255,0,0,1-.011-1.039c.243-.421.892-.636.854-1.12a3.467,3.467,0,0,1-.086-.434.653.653,0,0,1,.094-.271,4.217,4.217,0,0,1,.632-.887.672.672,0,0,1,.607-.285c.422.109.45.879.886.878a.636.636,0,0,0,.432-.275l.467-.529a.607.607,0,0,0,.143-.216.6.6,0,0,0,0-.265l-.094-.73a.677.677,0,0,0-.079-.283.744.744,0,0,0-.313-.227c-.35-.175-.71-.471-.7-.861a.8.8,0,0,1,.026-.171,2.183,2.183,0,0,1,.477-.432.752.752,0,0,0,.365-.7,1.046,1.046,0,0,1,.722.531,3.646,3.646,0,0,0,.533.755.676.676,0,0,0,.844.1.94.94,0,0,0,.23-.741l.015-1.03a.988.988,0,0,0-.037-.351c-.138-.378-.652-.444-.927-.738-.352-.376-.214-.978-.053-1.469a3.691,3.691,0,0,1,.717-1.435,1.367,1.367,0,0,0,.351-.444,2.68,2.68,0,0,0,.043-.559c.068-.539.657-.87.819-1.389a1.7,1.7,0,0,1,.187-.573.608.608,0,0,1,.673-.147,1.8,1.8,0,0,1,.6.418l.909.846c.218.2.53.418.785.265a.58.58,0,0,0,.136-.7,2.388,2.388,0,0,1-.252-.731,2.165,2.165,0,0,0,.019-.567.78.78,0,0,0-.287-.357,8.116,8.116,0,0,0-.847-.6.763.763,0,0,1-.218-.172.553.553,0,0,1,.085-.655,1.123,1.123,0,0,1,.365-.286c.021.019.043.038.065.055.705.553,1.784.507,2.4,1.159.273.289.447.707.82.842.3.11.672,0,.947.169.2.127.3.377.479.537.372.33.976.183,1.411.425.406.225.607.756,1.052.886.3.085.634-.034.909.1a1.5,1.5,0,0,1,.36.312c.713.7,1.85.758,2.681,1.317a.661.661,0,0,1,.243.249c.122.263-.089.556-.106.847-.022.375.279.688.378,1.052a3.973,3.973,0,0,1,.053.772,4.181,4.181,0,0,0,1.159,2.236.841.841,0,0,0,.268.246.508.508,0,0,0,.626-.207.727.727,0,0,0,.006-.693c-.156-.314-.481-.522-.616-.846a1.545,1.545,0,0,1-.093-.43,14.816,14.816,0,0,1-.093-1.766,24.652,24.652,0,0,0,4.811,2.462,1.976,1.976,0,0,1,.5.245c.192.145.322.357.509.509a.535.535,0,0,0,.658.073v0c.584.419,1.149.863,1.688,1.336a3.13,3.13,0,0,0,1.812,1.011,2.683,2.683,0,0,1,.942.041,1.394,1.394,0,0,1,.379.27L40.993,17.4c.187.168.46.344.666.2.073.178.146.358.219.536l.785.4a1.648,1.648,0,0,0,.667.224.671.671,0,0,0,.341-.081,1.629,1.629,0,0,0,.365.415c.4.317.965.511,1.1,1,.067.237.009.5.088.733.114.34.493.552.568.9.049.232-.015.544.2.652.143.073.332-.01.469.073s.142.268.22.4a.434.434,0,0,0,.751-.1c.066-.243-.095-.481-.177-.717s-.013-.591.238-.6a.44.44,0,0,1,.212.061c.516.258.98.719,1.556.693a.943.943,0,0,1,.507.026c.141.078.2.251.312.367.274.282.77.167,1.1.382a1.934,1.934,0,0,1,.36.38,5.213,5.213,0,0,0,1.786,1.063,6.638,6.638,0,0,1,1.453.97.662.662,0,0,0,.229.153c.174.054.4-.041.53.086.1.1.079.278.173.385a.5.5,0,0,0,.367.109,2.151,2.151,0,0,1,1.407.647c.024.026.05.052.077.077a.694.694,0,0,1-.02.311,4,4,0,0,0-.311,1.349,3.727,3.727,0,0,0,.167.965,3.629,3.629,0,0,1,0,1.42c-.043.261-.22-.038,0,.821a5.91,5.91,0,0,1,0,1.68c.069.261-.095,1.008.174,1.382a1.648,1.648,0,0,1,.231.933,7.782,7.782,0,0,0,0,.971,8.525,8.525,0,0,1,0,1.008,4.724,4.724,0,0,0,.015,1.158,2.776,2.776,0,0,1-.3,2.053c-.466.486-.839.336-1.138.6s-.559.3-1.082.672-1.42.635-1.644.9-.447,0-.709.673.112.859-.635.859-.858-.074-1.344.373a6.526,6.526,0,0,1-.971.747c-.111.074-.6.112-.746.485s-.486.188-.822.6-.746.411-.821.709-1.232.373-1.232.784-.074.486-.485.56-.709.411-.821.411-1.2-.224-1.2-.224M71.988,98.418c0,.058-.051,1.79-.085,2.44a1.927,1.927,0,0,1-.984.1,1.781,1.781,0,0,0-1.149.2,5.493,5.493,0,0,1-1.181-.173c-.175-.111-.24.157-.24.157a10.7,10.7,0,0,1-2.074-.077c-.287-.144-.208.077-.208.077a.583.583,0,0,1-.383-.157c-.159-.159-.287.143-.287.143s-2.25.034-2.3,0a3.034,3.034,0,0,0-.717-.254.614.614,0,0,0-.639.144s-.542.192-.654.069a1.206,1.206,0,0,0-.526-.325.605.605,0,0,0-.543.181c-.127.182-.175.2-.478-.006s-.431.048-.654,0-.335-.255-.479-.4-.4.048-.463,0a2.541,2.541,0,0,1-.719-.575c-.192-.287-.575-.111-1.037-.127a.742.742,0,0,1-.54-.186l-.035-.044c-.523-.653-1.27-.355-1.531-.355s-.635.018-1.214.018-.579.43-.56.56a8.307,8.307,0,0,0,.467.915,4.44,4.44,0,0,1-1.381.018c-.729-.112-.318.33-.318.33a2.331,2.331,0,0,1-.691-.274c-.224-.168-.187.15-.467.253s-.373-.178-.635-.365-.97.36-.97.36-.486.033-.617-.079-.6.112-.8-.038-.433.094-.433.094-.355.112-.374-.15-.447-.335-.447-.391-.131-2.708-.076-3.23-.186-.485-.186-.541.15-5.788.15-6.031-.244-.56-.336-.841,0-.261.13-.653a.579.579,0,0,0-.215-.635,23.716,23.716,0,0,1,.159-2.94c.13-.158-.018-.682-.018-1.036s.149-.467.224-.691.242-.262.411-.392.335.448.373.523a1.837,1.837,0,0,0,.541.523,1.625,1.625,0,0,1,.635.523,1.253,1.253,0,0,0,.523.467.431.431,0,0,0,.673-.2c.15-.318-.038-.411-.206-.766s0-.223,0-.6-.391-.579-.467-.671-.335-.094-.335-.579-.523-.374-.6-.673-.355-.28-.373-.429-.262-.094-.336-.71a9.147,9.147,0,0,0-.168-.933c-.037-.243-.355-.317-.392-.616s-.3-.392-.3-.765a.728.728,0,0,0-.242-.561l-.1-7.489c.038-1.241-.009-3.079-.009-3.079s.374.224.448-.074.336.223.336.223.037.747.335.747.3.15.336.448-.186.485.262.523.559.635.672.785.112.858.747,1.232.3.747.374.859a1.545,1.545,0,0,0,.411.523c.224.149.447.934.447.934s.187.671.673.447.584-.186.684-.784.385-.673,0-1.008-.385.3-.646-.673.074-.635-.523-1.158a5.61,5.61,0,0,1-1.009-1.008c-.037-.112-.411-.859-.672-1.344a4.632,4.632,0,0,1-.56-1.2c-.038-.3.411-.709-.261-.971A2.875,2.875,0,0,1,46,65.273c-.112-.15-.486-.523-.486-.523a.812.812,0,0,0-.149-.821,2.17,2.17,0,0,1-.374-1.083l-.037-5s-.187-.859.523-.3.373.56.709.9.411.9.747.635a3.528,3.528,0,0,0,.672-1.12,4.483,4.483,0,0,0-.447-.961,2.64,2.64,0,0,1-.438-1.28c-.16-.784-.16-.3-.5-1.045s.412-1.232-.037-1.755.023-.742-.436-1.286L46.3,50.8c.631-.242.743.066.967-.3s.252-.651.644-.648.532,0,.671-.249.364-.14.364-.391.029-.2.477-.365,0-.644.447-.168.5.543.533.79-.28.527.167.919.313.476.45.784.222.98.642,1.036.309.2.476.448.168.308.421.392c.212.07.228-.232.445-.112v0s.235.059.193-.256-.1-.43-.094-.473a.976.976,0,0,0-.055-.173,1.238,1.238,0,0,1-.125-.384c-.2-.868.028-.616-.392-1.036s-.672-.483-.672-.76.14-.949-.056-1.229-.808-.84-.783-.923.334.14.642-.28.112.028.309-.421.447-.559.644-.532.615.16.728,0a4.834,4.834,0,0,1,.785-.584s.084-.532.42-.532.448-.14.56,0,.5.868.728,1.232-.224.588.2.7.056.336.224.56-.084.9,0,1.148-.385.469.059.864.785.424.909.788.292.448.4.141a4.113,4.113,0,0,0,.112-.995s.28.042,0-.686a2.588,2.588,0,0,1-.224-1.4c.028-.421.644-.085,0-1.009a13.083,13.083,0,0,1-.785-1.406c-.364-.554-.5-.806-.308-.918a10,10,0,0,1,1.441-.448c.184-.028.3-.2.435-.223s.9,0,.9,0,.056.756,1.149.7.252.5.672.728.029.448.729.5.84.14.924.42.28.673,0,.98-.5.5-.5.868-.028.84-.028.98,0-.28.2.364-.056,1.148.2,1.064.448.336.448-.7-.112-1.2,0-1.512.224-.728.224-.728.392-.253.448-.421.167.533.447.533.056.364.392.335.616.168.7.112-.168.7.2.729-.279.812.224.98.141.784.141.868-.028.7-.028.98a2.582,2.582,0,0,1-.252.784,1.252,1.252,0,0,1-.077.162s-.5,1.3-.109,1.413a.627.627,0,0,0,.68-.232c0-.046.063-.7.263-.788a1.031,1.031,0,0,0,.358-.334c.051-.19-.03-.432.147-.623.223-.243.364.065.364-.691a3.9,3.9,0,0,1,.308-1.32c0-.008,0-.022,0-.043a.943.943,0,0,1,.881.243,2.085,2.085,0,0,0,.87.659c.08.079.264.131.449.263s.606-.078.817.237a4.468,4.468,0,0,1,.528.87c.026.158-.132.712,0,1.028a2.368,2.368,0,0,1,.211.791,9.109,9.109,0,0,1-.159.923s-.289.053-.263.448a5.41,5.41,0,0,0,.052,1.055c.08.1.422-.133.475.4s-.079.764,0,1.028.264,3.876.264,3.876-.317.132-.4.87.131,4.219.131,4.219.211.079-.053.87a5.1,5.1,0,0,0-.263,1.45l.077.711c0,.336.016.582.1.661.1.1.055.543.1.654a2.451,2.451,0,0,1,.064.5,1,1,0,0,0-.367.67c-.016.4-.3.623-.319.718a2.993,2.993,0,0,0-.256.766,4.416,4.416,0,0,1-.446,1.069,4.9,4.9,0,0,0-.223.686c0,.112-.34.575-.3.75a1.655,1.655,0,0,1,0,1.085c-.194.463-.625.654-.625.909a3.349,3.349,0,0,1,0,.7c-.048.1-.382.352-.415.415s.048.256.064.383-.24.192-.16.431a.537.537,0,0,0,.271.319s.048.463.224.575.648.35.643.064a7.45,7.45,0,0,1,.091-.894,3.573,3.573,0,0,0,.7-1.421c0-.511.431-.782.335-1.037s-.079-.383-.032-.4.367-.16.367-.16.319-.111.334-.223.272.479.272.686a12.659,12.659,0,0,0-.129,2.377,7.758,7.758,0,0,1,.3.91l-.122,4.6c0-.072.016-.148.062.217.064.511,0,2.537,0,2.537s.272.494-.063.574-.479.128-.51.335-.287.4-.383.543-.192.192-.192.319a1.183,1.183,0,0,1,0,.335c-.032.079-.5.654-.719,1a1.458,1.458,0,0,0-.271.862c0,.271-.1.494,0,.622s.192.335.606,0,.4-.415.415-.526a.987.987,0,0,1,.24-.431c.048,0,.383-.24.527-.192s.415-.064.455.4-.1.559,0,.654-.2.256.007.383a.964.964,0,0,1,.3.5l-.127,3.559s-.255,0-.048.415a1.458,1.458,0,0,1,.175.765M99.9,39.75c.37.5.555.291.66.634s-.343.4,0,.713.4.184.581.475.528-.079.369.634a1.412,1.412,0,0,1-.448.871c-.132.211-.449.317-.449.448s-.106.475-.133.687-.581.5-.607.765.053.4-.158.607-.581.264-.634.475a2.332,2.332,0,0,1-.37.739c-.237.37-.369-.1-.422.449s-.476.5-.607.871-.554.765-.554,1.082-.37.634-.423,1-.528.529-.528.845.08.607-.29.793-.4.131-.633,0-.449-.634-.607-.818-.079-.106-.29-.5-.212-.923-.37-1.267a3.578,3.578,0,0,0-.475-.871,1.278,1.278,0,0,1-.29-.818c0-.132-.317-.818.1-.792s.449.1.766-.106.369-.423.818-.5.4-.264.607-.476,1.082-.237,1.187-.422a1.9,1.9,0,0,0,.476-.872c.053-.447.714-.87.079-.9s-.9-.29-1.136.08a2.327,2.327,0,0,1-.448.581c-.211.211-.449.182-.554.236s-.422.08-.528.185-.237.053-.37.185.132-.079-.131.131-.37.159-.554.237-.421-.078-.567.08-.094.264-.517.159a1.838,1.838,0,0,1-1-.74c-.185-.29.106.291-.185-.29s-.185-.765-.343-.9a4.515,4.515,0,0,1-.634-.845c-.237-.369-.448-.184-.448-.581s.158-.712.105-.87.026-.212.4-.45.448-.66.765-.554.37-.317.634-.237.952-.713,1.07-.687a4.562,4.562,0,0,0,1.491-.765c.291-.291.343-.528.607-.528s.569.131.786-.291.244-.554.64-.554a2.092,2.092,0,0,0,.765-.133c.291-.078.554-.342.66-.184s.448.184.448.184a1.577,1.577,0,0,1,.237.871c.027.607.106.554-.5.9a3.685,3.685,0,0,0-1.135,1.056c-.37.423-.951.581-1.215.9s-.29.238-.528.476-.765.131-1.24.264-.766.079-.793.369-.131.185,0,.581.343.4.581.423a1.819,1.819,0,0,0,.924,0,6.219,6.219,0,0,0,.713-.343s.191-.053.465-.132.485.106.7-.185.053-.528.554-.687.687.053.845-.289a1.854,1.854,0,0,1,.845-.766c.37-.211.423-.542.793-.482s.079-.653.448-.152m14.969-15.391a4.544,4.544,0,0,0-.951.607c-.079.132-.923.053-1,.264s-.423.317-.475.422-.026-.1-.317.212-.053-.133-.581.264-1.188.343-1.268.659a.736.736,0,0,1-.712.476c-.264,0-.423.184-.554.448s-.607.106-.713.317-.079.185-.554.344-.659-.238-.765.211-.027.739-.528.528-.871-.7-1.056.07-.4.774-.581.854-.793-.343-.9,0a1.352,1.352,0,0,1-.449.686c-.184.159-.778.29-.785.449s-.165.264-.4.264a.686.686,0,0,0-.634.4c-.106.264-.449.4-.687.58a8.9,8.9,0,0,0-.739.5c-.185.184-.343.053-.475.317s-.343.158-.5.342-.29.079-.422.185-.317-.159-.448.158-.688.578-.688.578l-.131,0a2.01,2.01,0,0,0-1,.713,1.369,1.369,0,0,1-.792.606s-.37-.316-1,.238A7.853,7.853,0,0,1,93.3,37.163a15.918,15.918,0,0,0-1.637.9c-.211.212-.607.159-.818.476s-1.426.607-1.426.607a.422.422,0,0,0-.528.131c-.184.291-1,.713-1.135.9s-.792.106-.924.343-.554.607-.554.739a2.607,2.607,0,0,1-.291.607,3.281,3.281,0,0,0-.792.133,5.888,5.888,0,0,1-.581.264c-.078.052-.475-.053-.686.158s-.924.237-.924.237-.036.064-.085.159A3.866,3.866,0,0,1,82,43.42c-.185,0-.29.66-.634.554s-1.241.687-1.346.687-1.743.924-1.955,1-.369.555-.686.555-.343.158-1.082.448c-.436.171-.422.377-.419.508a2.4,2.4,0,0,1-.229.129,1.352,1.352,0,0,0-.572.194.635.635,0,0,1-.182,0c-.163-.033-.717-.675-.946-.566-.041.019-.087-.261-.217-.326s-.261-.261-.359-.348-.228.054-.24-.2.152-1.685-.315-1.631-.729-.065-.892.424-.391.729-.391.947-.37.141,0,.652.359.315.5.608-.054.478.293.641.349-.108.588.261a1.194,1.194,0,0,0,.45.39L70.817,49.49a8.254,8.254,0,0,0-.733-.7.953.953,0,0,1-.528-.185,2.667,2.667,0,0,1-.474-.554s-.053-.342-.37-.342a.81.81,0,0,1-.553-.316H67.8a.572.572,0,0,0-.311-.614,5.644,5.644,0,0,1-1.009-.673c-.616-.448-.168-.616-.784-.616s-.588-.167-1.149-.7-.812-.364-1.12-.7-.421-.168-.7-.7-.729-.448-1.177-.812A3.6,3.6,0,0,1,60.489,41.4a3.522,3.522,0,0,0-.736-1,1,1,0,0,0-.048-.471,2.819,2.819,0,0,1-.221-.694l.138-2.554s.352-.284.352-.536.142-.284.22-.394.442-.095.489-.3.126-.283.236-.268.615.39.82,0,.488-.487.568-.739.268-.709.3-.867.346-.82,0-1.12-.221-.52-.411-.536-.378-.536-.615,0-.107.442-.456.8-.412.016-.553.474-.489.456-.584.678a.519.519,0,0,1-.5.236c-.047-.032,0-1.892,0-1.892l-.095-1.86s.8-.111.568-.6a3.907,3.907,0,0,0-.363-.647l.174-1.419.01-.5c.137-.015.621-.033.809-.332s.363-.236.647-.3.268-.441.836-.5.773-.947,1.072-.978.551-.236.8-.252.142-.19.631-.363.473-.11.536-.489.236-.126.568-.12a.553.553,0,0,0,.3-.076,1.66,1.66,0,0,1,.054.738,2.4,2.4,0,0,1-.756,1.121,3.627,3.627,0,0,0-.392,1.035c0,.309-.28.812.168.756A2.79,2.79,0,0,0,66.2,26.7c.085-.085.141.028.589-.364s.868-.669.979-.978.141.25.28-.45a4.519,4.519,0,0,1,.168-.84,2.273,2.273,0,0,1,.336-.392c.084-.056.56-.616.56-.616a1.837,1.837,0,0,1,0-1.2c.252-.42,1.148-.644,1.176-.728s-.056-.168.476-.532.952-.365,1.288-.729a6.874,6.874,0,0,1,1.849-.9,9.934,9.934,0,0,0,1.568-.953c.56-.42.841-.391,1.232-.728s1.149-.168,1.653-.729a7.342,7.342,0,0,1,1.624-1.008c.224-.2-.168-.98.7-.532s-.056,1.232-.364,1.652-.841.616-.868.924-.448.532-.477.673-1.2.924-.448.924a1.32,1.32,0,0,0,1.2-.5,1.629,1.629,0,0,1,.9-.392,3.347,3.347,0,0,0,.728-.42s.588-1.261.673-1.344a8.447,8.447,0,0,0,1.4-2.017,2.276,2.276,0,0,1,.588-1.064,2.687,2.687,0,0,0,.544-.636.945.945,0,0,0,.5-.112c.192-.18.4-.012.516-.361s.216-.2.613-.432.66-.252.7-.42.492-.144.7-.372.071-.288.348-.349a1.3,1.3,0,0,0,.529-.2c.06-.06.156.036.408-.18s.336-.276.444-.276.492-.216.528.133.228.528.421.54a2.4,2.4,0,0,0,.816-.192c.168-.085.588-.06.708-.457s.4-.809.432-.949a5.1,5.1,0,0,1,.2-.505l.038-.03a2.933,2.933,0,0,0,.581-.528c.291-.29.4-.607.713-.607s.66-.08.686-.344a.745.745,0,0,1,.476-.528,4.962,4.962,0,0,0,.5-.237.839.839,0,0,0,.739-.37c.212-.4.026-.4.607-.423s.554.264.792-.158a2.73,2.73,0,0,1,.554-.687,1.206,1.206,0,0,0,.819-.316c.369-.343.606-.159.739-.4a1.633,1.633,0,0,1,.448-.448s.528-.634,1.03-.4.739.317.765.555a2.528,2.528,0,0,1-.132.818c-.052.159-.369.211-.555.448s-.422.5-.422.66-.159.211.027.409.29.252.4.357-.131.212.238.133.193,0,.452-.184.233-.107.392-.3-.37-.462.264-.435a6.115,6.115,0,0,0,.792,0,2.012,2.012,0,0,1,.712.818c.053.212-.184.237.185.528s.264.4.528.607.237.66.5.9.132.607.37.792.264.37.422.528.159.687.159.766v.818c0,.37-.159.422-.212.555s-.528-.08-.1.475.422.74.659.66-.211-.264.555-.264.766.272.9.281-.131-.281.132.009.448,1.135.845,1.426a.962.962,0,0,1,.5.845,1.049,1.049,0,0,1-.264.765c-.211.264-.475.132-.5.423s-.027.633-.027.739a.244.244,0,0,0,.211.264c.185.053.291.106.475,0s.106-.133.423-.291.5-.29.845,0,.449.317.5.607-.053.554,0,.66-.343.264-.422.4-.106-.158-.238.264-.131.186-.131.423-.079,1.214.422,1.162a9.244,9.244,0,0,1,1.083-.133c.422,0,.659-.233.923.135s.291,0,.423.5.264.448.105.792-.422.079-.659.475-.634.133-.818.4-.766.4-.951.634-.581-.053-.739.211-1,.686-.766.924a1.29,1.29,0,0,0,1.321.131c.4-.237.871-.158,1.162-.343s.29-.342.765-.528.924-.185,1-.475.687-.623.687-.623l-.027.279s.211.634.4.739.606.159.158.423m-12.54-6.381c-.033-.032-.214.193-.4.235s-.351.277-.512.3-.64.256-.7.266-.437.31-.587.32-.224.213-.427.267a6.1,6.1,0,0,0-.98.8s-.458.437-.415.394-.012-.214,0-.32-.172-.246-.172-.394.054-.181.213-.374a.464.464,0,0,0,.075-.13,1.612,1.612,0,0,0,.361-.8c-.018-.325.322-.371.275-.7A2.125,2.125,0,0,0,98.7,16.8c-.247-.309-.154-.433-.417-.4s-.8-.124-.9.309a.329.329,0,0,0-.17.371c.047.278-.192.077.082.386s.321.248.4.34.14-.047.14.231a1.983,1.983,0,0,1-.2.681V18.9s-.51-1.206-.927-1.221-.634-.109-.711.046-.263.278-.263.4-.046-.278,0,.356-.231.479.093.727.526.324.556.4a2.165,2.165,0,0,1,.124.325c0,.046-.232.046.015.432a5.044,5.044,0,0,1,.4.789s.278.7.015.912-1.53.772-1.838,1.251-.99,1.143-1.1,1.391-.464.078-.464.449a2.063,2.063,0,0,0,.077.88.446.446,0,0,0,.567.248c.3-.093.422.139.654-.293s.247-.433.263-.6.186-.339.216-.479.464-.442.464-.442.988-1.474,1.359-1.057a9.8,9.8,0,0,1,.7.865c.108.155.17.649.341.681s.247.509.247.509,0,.85.17.943a.674.674,0,0,1,.278.325.6.6,0,0,1,.309.432c.062.356,0,.446.386.456s.619.07.619-.1a2.237,2.237,0,0,0-.02-.224c.04-.019.048-.069.133-.138.136-.109,0-.267-.02-.363a3.913,3.913,0,0,1-.021-.64c0-.383-.075-.49-.066-.778s-.35-.726-.329-.886-.053-.128-.106-.363-.181-.234-.3-.512-.021-.043-.213-.2-.128-.309-.267-.576-.117-.1-.416-.416-.128-.363-.107-.41.267-.283.329-.369a7.787,7.787,0,0,1,.652-.61,5.686,5.686,0,0,0,.755-.68,5.948,5.948,0,0,1,1.2-.587,4,4,0,0,1,1.023-.17,1.151,1.151,0,0,0,.673-.427c.181-.3.053-.5-.107-.9s-.619-.262-.65-.294m-8.12,1.57c-.077.293.077.216.325.474a2.655,2.655,0,0,1,.464.608c.169.278.216.046.216.046a3.349,3.349,0,0,0,.4.325c.155.093.232,0,.433-.263s.046-.557,0-.742-.216-.278-.294-.619-.541-.371-.541-.371c-.373-.128-.34.062-.634.016s0,0-.2.139-.093.093-.17.386M21.05,3.474a1.175,1.175,0,0,0-.5-.155ZM80.314,36.139a.09.09,0,0,0-.048-.018c.033.02.079.047.048.018m-.048-.018c-.027-.015-.045-.027-.005,0ZM36.449,17.812c.067.14-.165.124.067.435s.249.108.357.325-.325.636,0,.853.574.637.713.234.3-.528.094-.853-.311-.217-.264-.605a1.235,1.235,0,0,0-.264-.822c-.108-.2.015-.449-.093-.666a3.85,3.85,0,0,1-.186-.45s-.357-.449-.558-.093-.372.605-.248.947a4.346,4.346,0,0,0,.382.7m52.29,6.265a1.574,1.574,0,0,0-.48-.664c-.091-.027-.227.118-.536-.263s-.755.345-.755.345l-.127.081c-.1.146-.227-.236-.3.227s-.092.609-.1.746.109.236.2.473a1.84,1.84,0,0,1,.245.663c0,.255-.146.992-.109,1.328s-.092.783-.018.937.1.21.072.291-.209.146-.246.364a8.8,8.8,0,0,0-.045,1.191c.017.191.054.291-.027.445s-.1-.027-.127.355-.236.7-.037.855.264-.336.336-.118-.1.29.073.318a1.462,1.462,0,0,0,.491,0,.9.9,0,0,0,.464-.482,4.587,4.587,0,0,0,.418-1.236c.073-.437.245-1.365.264-1.738s.327-1.382.336-1.5.009-1.119,0-1.583.133-.728.007-1.036M73.122,36.125a.582.582,0,0,0,.286-.2.781.781,0,0,0,.115-.248,1.922,1.922,0,0,0,.077-.425,1.381,1.381,0,0,1,.325-.7c.255-.34.247-.54.231-.626s-.093-.31-.093-.31-.131-.214-.162-.2-.107-.135-.2-.162a.4.4,0,0,0,.095-.484c-.163-.348-.217-.456-.418-.456s-.425-.1-.572,0-.487.169-.565.224-.409.1-.44.231a.226.226,0,0,0-.216.27c.039.256.116.155.147.332s.062.194.286.349a1.635,1.635,0,0,0,.71.208,1.336,1.336,0,0,0,.2-.079,1.559,1.559,0,0,1-.219.482c-.207.27-.446.332-.492.494s-.147.147-.147.293-.077.069,0,.239a1.537,1.537,0,0,0,.131.278c.093.155-.031.062.154.224s.08.116.354.2.319.086.412.062m-8.8,38.7c-.4-.114-.448-.15-.562-.114s-.466-.044-.633.123-.421.141-.509.207-.21.021-.254.065a1.991,1.991,0,0,1-.536-.065c-.228-.066-.237.031-.5-.119s-.237-.185-.536-.2a1.416,1.416,0,0,0-.913.16c-.281.192-.377.279-.377.367v.184c0,.035.175-.027,0,.114s-.184-.053-.308.211-.131.193-.123.324.08.132.123.308c0,.05,0,.119,0,.219.009.685-.052.624,0,.73a.542.542,0,0,1,.087.263,1.31,1.31,0,0,0,.027.219,4.022,4.022,0,0,1-.017.589c0,.052-.2.149-.1.228s-.1.1-.035.236a1.059,1.059,0,0,1,.035.387c.009.079-.088.122,0,.2a2.628,2.628,0,0,1,.245.2c.123.122.272.193.369.141s.3.061.386.184.018.141.317.141.394-.045.438,0,.264-.027.413,0,.291-.023.369.014a1.093,1.093,0,0,0,.58.055c.211-.052.465,0,.483-.175s.149-.2.149-.3.079-.281,0-.333.017-.264-.228-.264-.246-.061-.439-.052-.43-.045-.6-.045-.263-.2-.421-.183a1.155,1.155,0,0,1-.272-.009c-.07,0-.228-.219-.228-.219s-.053-.387.114-.308.131-.079.255.017.3-.158.413-.078a.766.766,0,0,0,.632-.114c.07-.106.272-.207.289-.143s.106-.077.106.213-.053.263.008.377.062.264.211.369.58.255.721.149.6,0,.605-.289.08-.413.044-.527-.219-.342-.236-.421.184-.387.078-.545.044-.114-.008-.377a1.776,1.776,0,0,1,.035-.65l.142-.4s.5-.43.3-.685.263-.264-.141-.378m-1.695,2.09c-.114.088-.219.053-.36.088s-.2-.017-.264.036a.708.708,0,0,1-.28.061s.017-.1-.194,0-.466.105-.544.175-.158-.044-.184.114-.163.334-.182.167,0-.624,0-.624a1.106,1.106,0,0,1,.068-.421c.079-.185.175-.228.175-.291s.352-.044.386-.131.3.044.342,0,.22-.018.3-.031.237.012.422,0a.611.611,0,0,1,.342.092c.053.308-.027.351,0,.431s.063.017.018.175.069.07-.045.158M61,68.233c-.149-.176-.342-.062-.447-.167s-.606-.009-.632,0a.5.5,0,0,1-.519.141c-.386-.07-1.51.114-1.718.079s-.249.043-.389.008-.289.061-.342.061a1.035,1.035,0,0,1-.439.07c-.21-.035-.149.228-.289.36s-.228.106-.632.342-.264.449-.255.5a.571.571,0,0,1,.07.439c-.08.22.255.975.272,1.027s.246,1.238.263,1.414.211.07.308.061.131.017.131.167a1.3,1.3,0,0,0,0,.368c.036.194.369.228.606.351s.185.027.307,0,.378-.008.553-.053a3.863,3.863,0,0,1,.9-.158,5.188,5.188,0,0,0,.957-.21c.246-.045.175-.176.228-.264a.841.841,0,0,0,.131-.454c.009-.242-.166-.1-.236-.152a3.691,3.691,0,0,0-.782.026l-1.071.125c-.1.01-.114-.028-.378-.143s-.158.079-.28.123-.123.008-.237-.07.009-.106.035-.255-.026-.194-.017-.333a.734.734,0,0,0-.149-.352s-.184-.474-.2-.536a.782.782,0,0,1,0-.2.6.6,0,0,1,.018-.1s-.018-.2-.027-.255-.053-.264-.061-.316,0-.272.078-.237.677-.272,1.326-.342a3.652,3.652,0,0,1,1.466.061.32.32,0,0,0,.255.062l.167.5s-.026.236-.132.211-.026.1-.114.078-.1,0-.166-.03a3.553,3.553,0,0,0-.475,0,1.033,1.033,0,0,0-.219,0,4.643,4.643,0,0,1-.483.07c-.078-.017-.333.131-.491.1s-.291.1-.545.1a.825.825,0,0,0-.474.194v.141l.053.307.2.233.123.048a1.126,1.126,0,0,0,.289.1,1.552,1.552,0,0,0,.386-.1c.131-.061.474-.078.826-.158a2.12,2.12,0,0,1,.755,0l.141.009v.28c0,.194.061,0,.185-.158s.044.131.044.131-.053.176-.053.2.061.061.106.088.035.027.254.07.141-.009.228-.088.167-.062.3-.2.089-.166.281-.527a1.211,1.211,0,0,0,.194-.641c0-.1.061-.1.078-.228s.07-.114.088-.324a1.629,1.629,0,0,0,.018-.291c0-.193-.036-.078-.062-.228a1.079,1.079,0,0,1,.009-.335c.009-.186.07-.112.1-.2s-.044-.106-.1-.211-.158-.158-.308-.333m3.57-4.893a3.427,3.427,0,0,1-.677-.2.818.818,0,0,1-.415-.211,2.193,2.193,0,0,0-.7-.457c-.185-.043-.313-.313-.313-.313s-.067-.7-.482-.871-.439-.55-.507-.609-.206-.372-.27-.355c0,0-.22.126.11-.271s.618-.744.7-.854a4.3,4.3,0,0,0,.4-.55c.034-.1.219-.524.219-.524s.186-.068.195-.212.068-.508.068-.508a2.062,2.062,0,0,0-.4-.236.842.842,0,0,0-.33.051c-.11.051-.2.034-.236.11s-.035.034-.128.1-.254.153-.262.212-.085-.161-.068.144a.89.89,0,0,1-.177.541c-.034.085-.355.38-.372.549s-.389.508-.448.66-.27-.051-.27-.051-.576-.38-.745-.287-.364.059-.389.11-.2-.071-.218.059a1.114,1.114,0,0,0-.034-.428,1.525,1.525,0,0,1-.046-.788,4.833,4.833,0,0,1,.191-.788,3.962,3.962,0,0,0,.1-.49s.181-.562.081-.734,0-.208-.037-.443.142-.109.066-.435.088-.426.088-.534a4.359,4.359,0,0,0,.064-.779c-.055-.017-.018.009-.073-.154s-.127-.263-.2-.191-.209-.18-.235.046a1.039,1.039,0,0,0-.127.172c-.036.072-.317-.009-.4,0s-.28.1-.308.181-.063.054,0,.371-.152.471-.036.752-.133.9-.035,1.177a1.349,1.349,0,0,1-.023.671c-.006.118-.142.526-.142.617a1.723,1.723,0,0,0-.2.724c.028.38-.032.987,0,1.123s-.351,1.178-.324,1.577-.03.724,0,.843a7.228,7.228,0,0,0-.08,1.114,2.877,2.877,0,0,1-.117.915c0,.1-.544.67-.326.869a3.822,3.822,0,0,0,.606.4c.127.085.752.278.906,0a3.27,3.27,0,0,0,.281-.694c.009-.064-.018-.824-.018-.906s-.009-1.423.018-1.486a2.8,2.8,0,0,0,.1-.834c-.046-.172.072-.181.027-.389a1.236,1.236,0,0,1,0-.526,1.685,1.685,0,0,0,.109-.3s.006-.03.016-.067a.378.378,0,0,0,.1.075c.035.017-.042.161.3.2s.077.034.346.211a4.657,4.657,0,0,0,.431.271,2.373,2.373,0,0,1,.44.414c.025.035.947,1.2.981,1.261s.27.321.245.516a.6.6,0,0,0,.1.457c.076.085.431.389.669.372s.244.373.651.483.3.236.549.244.406.169.516.169a1.614,1.614,0,0,0,.7-.118c.127-.11.33-.136.3-.3s.283-.254,0-.525-.264-.33-.509-.356M53.175,65.151c.108-.036.335-.027.443-.072a1.637,1.637,0,0,0,.344-.271,9.392,9.392,0,0,0,.879-.906c.1-.163.417-.454.489-.6a5.047,5.047,0,0,0,.254-.5,3.818,3.818,0,0,1,.291-.568c.036-.039.343-.718.389-.8a4.1,4.1,0,0,1,.462-.8,1.073,1.073,0,0,0,.263-.435c.009-.028.245-.145.263-.172a1.182,1.182,0,0,0,.091-.779c-.127-.263-.127-.309-.309-.309-.095,0-.216-.009-.323-.013l.034-.032s.118-.3.072-.4.009-.291-.181-.335-.335-.118-.525,0a4.4,4.4,0,0,1-.444.245c-.2.1-.28.235-.48.217a4.475,4.475,0,0,1-1.069-.526c-.389-.226-.517-.118-.634,0s-.291,0-.326.173-.272.154-.191.343.263.037.4.281a.8.8,0,0,0,.4.354,4.051,4.051,0,0,0,.861.317c.154,0,.281.154.589.063.283-.084.322-.165.44-.121a.492.492,0,0,1,0,.221,1.34,1.34,0,0,1-.235.525,2.772,2.772,0,0,1-.2.29c-.009.036-.155.054-.155.235a1.541,1.541,0,0,1-.09.426s-.044,0-.09.163-.1.163-.119.262a.454.454,0,0,1-.1.327c-.136.208-.245.308-.271.489s-.218.289-.272.452a3.416,3.416,0,0,1-.371.543c-.018.037-.7.915-.806,1.042s-.444.289-.354.389.208.027.271.1.2.208.309.171M78.8,30.708c-.085.015-.131-.015-.239.069a1.173,1.173,0,0,1-.332.14c-.054.022-.108,0-.232.03s-.339.015-.44.1a.339.339,0,0,1-.27.039s-.457.046-.433.378.007.286.216.494.371.166.426.311-.155.153.154.169a4.473,4.473,0,0,0,.789-.07c.147-.015.44-.147.509-.147h.345a1.485,1.485,0,0,0,.435-.617.662.662,0,0,0-.177-.642c-.109-.108-.178-.255-.317-.255a4.07,4.07,0,0,0-.433,0M61.365,93.651a2.063,2.063,0,0,0-.52,0c-.063.036-.03-.047-.217,0a.646.646,0,0,1-.33,0s.33,0,.1-.481.143-.793-.022-1.034a.955.955,0,0,0-.528-.418c-.11,0,.152-.605-.568-.078s-.731.484-.719.573.022.033.055.175.1-.044.08.264.024.33,0,.44-.13-.021,0,.187a.815.815,0,0,1,.108.45.24.24,0,0,0,0,.188.371.371,0,0,1-.01.275c-.023.033-.045.11-.244.165s-.462.253-.627.131l-.165-.12a.584.584,0,0,0,.11-.639c-.176-.34-.2-.429-.385-.429s-.4-.11-.539.055-.341.144-.452.341-.154.11-.209.319-.143.286-.143.363-.088.022-.176.231a1.15,1.15,0,0,0,.154.913.765.765,0,0,0,.649.319c.231-.033.264-.033.364.066s.143.1.2,0,.253,0,.308,0a2.74,2.74,0,0,0,1-.209,8.607,8.607,0,0,0,.957-.55,1.234,1.234,0,0,1,.88-.385c.3.022.351.154.56-.033a1.755,1.755,0,0,0,.429-.759c0-.11-.021-.314-.1-.322m2.211.883c0-.275-.121-.253-.188-.682s-.175-.1-.23-.352-.078-.319-.121-.561a2.1,2.1,0,0,0-.243-.55c-.076-.176-.285.055-.549-.165a.533.533,0,0,0-.638.044c-.034.033-.1.243-.231.286s-.154.088-.264.363.165.342.2.418l.011.055a1.941,1.941,0,0,0,.231.262c.164.162.044.431.044.541s.033.309.066.848a1.08,1.08,0,0,0,.451.8c.1.131.165.12.309.214s.263.027.373-.005.265.021.33,0a.765.765,0,0,0,.33-.22c.188-.176.209-.2.286-.727s-.165-.3-.165-.572M53.421,79.99a1.242,1.242,0,0,1-.184.289,1.433,1.433,0,0,1,.1.106c.027.035.123.175.2.272s.29.061.43.061.176-.008.4-.167.194-.017.22.027.061.079.114.158a.521.521,0,0,0,.465.211A1.2,1.2,0,0,0,55.5,80.9a1.087,1.087,0,0,0,.237-.1.537.537,0,0,0,.211-.211c.1-.15.131-.1.193-.114s.184.061.246,0,.167,0,.211,0a4.356,4.356,0,0,0,.782-.088c.474-.088.141-.009.343-.264s.131-.114.184-.351-.027-.114-.114-.317-.491-.052-.588-.07a1.323,1.323,0,0,1-.272-.052c-.044-.026-.167-.07-.194-.123s-.219.114-.219.114h-.2c-.036,0-.342.167-.448.123s-.342.281-.567.272a.647.647,0,0,0-.522.2s-.009.088-.114.017,0,0-.026-.088a.366.366,0,0,1-.017-.07.537.537,0,0,1,.017-.211c.008-.061.07-.017.131-.052s.08,0,.08,0a.27.27,0,0,0,.184-.079c.069-.079.149-.008.219-.044s.123.009.194-.044.246-.017.351-.08.106,0,.2-.026a.319.319,0,0,0,.2-.123c.1-.1.272-.027.307-.044a.656.656,0,0,1,.184,0,1.305,1.305,0,0,0,.333-.036c.123-.035.123-.008.194-.044s.184-.008.3-.184.027-.1.158-.448.027-.377.027-.527.1-.167.131-.527-.027-.263.009-.694a3.832,3.832,0,0,1,.141-.843c.087-.369-.158-.316-.228-.439s-.114-.052-.211-.2-.08,0-.114-.069-.308.052-.378.008-.237.1-.342.017-.272.184-.342.106-.852.254-1.027.158-.79.246-.948.3a1.467,1.467,0,0,1-.545.088c-.166-.017-.114.158-.377.333s.088.519.088.519,0,.1-.035.438.1.237.122.667a15.468,15.468,0,0,1-.185,1.748,3.221,3.221,0,0,1-.044.544m1.317-3.108c.027-.053.1-.289.1-.289a.85.85,0,0,1,.158-.123,1.38,1.38,0,0,0,.2-.175s.12.175.424.035.383-.167.489-.035.114.1.149.1.141-.008.184.053a2.5,2.5,0,0,1,.07.51.414.414,0,0,0-.044.316c.035.219-.061.211-.053.422s.052.333,0,.36-.008-.009-.131.035-.245,0-.3.053-.141-.017-.246.079-.422.1-.435.131-.084-.027-.153.044a.276.276,0,0,1-.176.07h-.061s-.114-.1-.114-.123-.07-.8-.061-1.018a3.146,3.146,0,0,1,0-.439M56.25,86.25c.231.219.209.329.4.2A2.13,2.13,0,0,1,57,86.217c.154-.077.143.4.407-.2s1.045-1.287,1.243-1.695.264-.351.3-.649.131-.572,0-.638-.121-.462-.363-.186c-.188.214-.451.01-.539.131s-.33.066-.375.187-.12.055-.164.242-.144.11-.144.286.11-.033,0,.319a1.376,1.376,0,0,1-.3.528c-.078.121-.11.044-.286.254s-.462.329-.507.6-.319.44-.34.528-.275.155-.121.243.209-.143.44.077M45.03,33.791c.08-.208.45-.474.092-.509s-.462-.138-.751.057.37-.347.37-.347a2.761,2.761,0,0,0-.994.486,5.614,5.614,0,0,1-1.352.716c-.1.046-1.167-.023-1.5.2a2.177,2.177,0,0,1-.832.271,2.477,2.477,0,0,0-.82.134,3.569,3.569,0,0,1-.96.162H38.2s-.3-.093-.243.266-.185.509.046.693.277.5.74.393a2.3,2.3,0,0,0,.74-.255c.115-.069,1.941-.417,1.941-.417a1.488,1.488,0,0,0,.773-.149,3.629,3.629,0,0,1,.8-.231,16.994,16.994,0,0,0,2.034-1.467M24.183,24.262c-.078-.171-.2-.078-.3-.184s-.157-.21-.092-.328.421-.657.223-.867-.263-.394-.459-.342c-.084.023-.156-.048-.224-.1.56-.241,1.85-.8,2.577-1.2a11.3,11.3,0,0,1,1.432-.815c.3-.065,1.1-.276.513-1.157,0,0-.288-.355-1.012-.053s-.1.487-1.524,1.131-3.667,1.748-3.667,1.748-1.078.341-1.038.657-.368.539.394.5a7.083,7.083,0,0,0,2.05-.7c-.171.421-.3.855-.3.855l-.034.061a18.6,18.6,0,0,1-1.2,1.989c-.289.3-.644.591-.7.841s-.279.552-.284.815-.228.776.153.841.8.276,1.223-.433.959-1.919,1.143-2.3a5.433,5.433,0,0,1,.394-.684s.446.21.578.092.236-.2.158-.368m-2.362-7.526c.014-.315-.929-.752-.929-.752a5.4,5.4,0,0,1-1.615-.383,5.506,5.506,0,0,1-1.749-1.2c-.3-.342-.287-.424-.669-.4s-.356.739-.247,1.012.492.3.848.724a6.484,6.484,0,0,0,1.477,1.047,6.957,6.957,0,0,0,.944.185A8.756,8.756,0,0,1,21,17.544c.424.218.807-.492.82-.807m-3.2,6.495a11.931,11.931,0,0,0-1.066-.874c-.1-.069-.643-.411-.643-.411a3.913,3.913,0,0,0-1.75-.765c-1.039-.164-2.038-.4-2.394-.4a2.285,2.285,0,0,1-1.244-.314c-.273-.232-.889-.451-1.134-.247s-.534.52-.247.89-.2.492.451.546,1.436.055,1.477.055a8.172,8.172,0,0,1,2.68.424,6,6,0,0,1,1.517,1,.99.99,0,0,1,.492.328c.3.287.492.26.684.575a3.141,3.141,0,0,0,.725.82c.315.26.657.56,1,.437s.451-.164.492-.437.2-.492-.083-.78-.642-.533-.957-.848m10.95,3.279a1.819,1.819,0,0,0,.644.233.726.726,0,0,0,.579-.252c.074-.141.243-.365.187-.5s-.448-.308-.55-.317-.56-.1-.56-.1a5.015,5.015,0,0,1-1.5-.318,2.835,2.835,0,0,0-1.129-.382.9.9,0,0,0-.383.523.766.766,0,0,0,.159.737,2.77,2.77,0,0,1,.373.309.223.223,0,0,1-.289.112c-.168-.075-1.755-.411-1.755-.411s-.5-.345-.774-.019-.168.338-.13.449-.151.232-.173.27a.5.5,0,0,0,.266.382c.2.1.785-.018.99,0a8.249,8.249,0,0,1,.832.2s.27,0,.27.065-.215.615-.57.728a4.689,4.689,0,0,1-1.026.215c-.2,0-.831-.038-.877.084s-.215.047-.15.2.215.093.215.252.149.345.438.383a2.183,2.183,0,0,0,.821,0c.439-.065.99-.15.99-.15s.206.038.253-.018.252.27.42.411a1.438,1.438,0,0,1,.383.411,4.607,4.607,0,0,0,.438,1.494c.271.326.308.391.6.4a1.3,1.3,0,0,0,.607-.066,1.8,1.8,0,0,0,.224-.494c0-.065.177-.074-.076-.765a6.045,6.045,0,0,0-.933-1.886c-.3-.243-.55-.373-.588-.438s-.093-.309.094-.262a1.568,1.568,0,0,1,.57.336c.065.084,1.167.924,1.419.831s.841.094.877-.335.392-.487,0-.771-.57-.63-1.055-.7a2.2,2.2,0,0,1-.775-.252c-.085-.029-.262-.2-.253-.233s.262-.243.262-.345.467-.14.644,0M75.4,31.072s.047.394.054.5.078.095.123.125a.612.612,0,0,0,.248.069c.093.008.162-.03.325-.123s.108-.138.254-.618,0-.047,0-.14.04-.03.07-.139.131-.131.147-.209a1.753,1.753,0,0,0,.031-.348c.008-.224.008-.093.016-.256s0,0,.039-.147.115-.061.193-.193.255-.185.278-.464-.007-.039-.123-.256-.1-.123-.356-.348a.329.329,0,0,0-.456-.054,3.76,3.76,0,0,1-.457.216c-.18.052-.167.308-.158.4,0,.019,0,.033,0,.033s.032.073-.022.112.085.263.078.464a4.389,4.389,0,0,1-.248.873c-.162.533-.039.494-.039.494m-29.219,5.4a2.618,2.618,0,0,1,.81-.42c.028,0,.086.009.3.134a.8.8,0,0,0,.477.1c.1,0,.028-.2.467-.057a5.82,5.82,0,0,1,.868.3c.028.048.114.2.228.191s-.372.867-.639,1.154-1.572,1.364-1.6,1.412-.162.171-.706.276-1.117.009-1.107.153.23.152.307.152.419,0,.152.115-.563-.077-.372.191-.028.257.315.314.133.115.553.115a5.569,5.569,0,0,0,1.41-.162,3.9,3.9,0,0,0,1.03-.724c.162-.192,1.058-.9,1.191-1.259s.61-.849.63-.982a.843.843,0,0,1,.134-.3s.342.009.4.086.18-.029.572.086.543.133.657.334a.688.688,0,0,0,.306.3,1.681,1.681,0,0,0,.372.009s.372-.429.372-.639-.487-.705-.8-.953a1.5,1.5,0,0,0-.878-.486,2.231,2.231,0,0,1-.829-.372,3.8,3.8,0,0,1-.772-.134,1.411,1.411,0,0,0-.61-.306,4.552,4.552,0,0,1-.515,0c-.162-.018-.6.07-.372-.432s.658-.54.534-.93a1.877,1.877,0,0,0-.572-.738s-.525-.235-.839.051-.382.171-.429.534a1.716,1.716,0,0,1-.382.887c-.134.105-.771.534-.858.591s-1.525.677-1.487,1.1.324.429.324.429-.114.181.315.171a1.438,1.438,0,0,0,1.049-.285M15.654,18.829a2.224,2.224,0,0,1,.465.273,5.165,5.165,0,0,0,1.354.492,8.676,8.676,0,0,1,.957.4c.574.2.684-.178.807-.52s-.055-.274-.411-.643a1.372,1.372,0,0,0-1.025-.356,1.807,1.807,0,0,1-.562-.123,4.265,4.265,0,0,1-.943-.574c-.232-.178-.479-.041-.766.328s.123.725.123.725m23.32,12.9c.1-.219-.011-.52-.161-.52a12.335,12.335,0,0,0-1.41.139c-.555.093-2.6.324-2.6.324s-.277.046-.231-.151a.631.631,0,0,1,.22-.323,4.474,4.474,0,0,0,.6-.763c.058-.184.393-.981.474-1.132s.74-1.2.937-1.463.427-.236.439-.489.3-.82-.324-.878c0,0-.567-.658-.89,0s-.924,2.08-1.144,2.461-1.271,1.7-1.271,1.7a13.963,13.963,0,0,0-1.294,1.156c-.231.3-.416.543-.173.809a1.747,1.747,0,0,0,.462.37.715.715,0,0,0,.809.127,4.242,4.242,0,0,1,1.156-.231,22.76,22.76,0,0,0,2.843-.636c.613-.219,1.455-.277,1.559-.5m-6.8-6.885c.121-.065.149-.13.271-.15s1.437-.326,1.558-.56.318-.251.15-.7-.112-.472-.271-.645-.541-.266-.681-.378-1.139-.784-1.289-.9a4.542,4.542,0,0,0-1.111-.345c-.149-.019-.447-.28-.588-.289s-.476-.215-.579-.2-.186-.114-.392,0-.364.048-.373.254.018.467-.1.523c0,0-.476-.2-.606,0s-.206.065-.271.391-.187.617-.187.664-.094.242-.14.438a.527.527,0,0,1-.206.318c-.084.084-.14-.065-.177.214s-.2.17-.085.468-.027.364.253.438.566.159.712.084.183-.158.426-.121a11.911,11.911,0,0,1,1.307.355,6.524,6.524,0,0,1,1.167.5.3.3,0,0,0,.224.28c.2.047.709.047.822-.233s.047-.336.168-.4M31.933,23.8a1.844,1.844,0,0,0-.458.085,2.119,2.119,0,0,1-.514.055,3.064,3.064,0,0,1-.765-.223c-.065-.038-.439-.112-.682-.233a3.61,3.61,0,0,0-.9-.168s-.085-.075,0-.112.187-.4.2-.5a4.408,4.408,0,0,1,.233-.514c.074-.158-.056-.167-.112-.261s-.2-.28-.2-.28c-.059-.08.27.1.355.206s.224.028.579.074a10.632,10.632,0,0,1,1.092.261,1,1,0,0,1,.523.262,4.726,4.726,0,0,0,.476.457,3.314,3.314,0,0,0,.915.438l-.094.21a2.577,2.577,0,0,1-.653.238" transform="translate(0 0)" fill="#fff"/>
      </g>
    </g>
    <g id="グループ_2250" data-name="グループ 2250" transform="translate(227 16359)" clip-path="url(#clip-path-2)">
      <path id="パス_1340" data-name="パス 1340" d="M36.561,14.491a.7.7,0,0,1-.273-.581.43.43,0,0,0,.027-.184c-.033-.134-.251-.173-.251-.31a.226.226,0,0,0,.1-.213,2.945,2.945,0,0,1-1.573-.807.243.243,0,0,1-.082-.129.253.253,0,0,1,.073-.177l.359-.47a13.291,13.291,0,0,1-3.329.1c-.139-.013-.325-.1-.268-.232-.619.29-1.418-.2-2.012.142a2.361,2.361,0,0,0-.488.456c-.361.375-.827.638-1.181,1.021a1.293,1.293,0,0,0-.33,1.425c-.2.01-.44.044-.526.225-.106.222.1.458.287.621a13.359,13.359,0,0,1,1.461,1.51.517.517,0,0,0,.194.168c.072.028.153.022.227.045.273.084.316.5.579.608.188.079.4-.03.6-.039a2.038,2.038,0,0,1,.606.142.569.569,0,0,0,.583-.1c.058-.068.088-.158.15-.223.185-.193.505-.063.733.075a.147.147,0,0,1-.051.223c.306.031.552-.228.8-.416a3.645,3.645,0,0,1,2.843-.4c.242-.319.871.121,1.122-.191.028-.035.049-.078.089-.1a.2.2,0,0,1,.111-.008l.437.052a.226.226,0,0,0,.18-.029c.146-.131-.186-.341-.13-.529.037-.124.213-.134.333-.086s.241.135.363.1c-.014-.353-.427-.52-.669-.709a10.919,10.919,0,0,1-1.089-.977" transform="translate(-22.437 -9.625)" fill="#fff"/>
      <path id="パス_1341" data-name="パス 1341" d="M37.666,46.882a.154.154,0,0,1-.219.1.3.3,0,0,1-.144-.231L35.45,48.384a3.8,3.8,0,0,0-.909,1.021,1.291,1.291,0,0,0,0,1.308c.207.3.592.495.658.853.042.227-.059.476.037.686a.567.567,0,0,0,.311.268.983.983,0,0,0,.793-.026,1.527,1.527,0,0,1-.56.966,11.664,11.664,0,0,0-1.467,1.9.4.4,0,0,0-.079.215.4.4,0,0,0,.049.153l.224.468a.209.209,0,0,0,.071.095c.067.041.152,0,.216-.049,1.477-1.013,2.713-2.333,4.094-3.472.7-.581,1.447-1.115,2.189-1.649a1.294,1.294,0,0,1,.369-.208,2.162,2.162,0,0,1,.325-.051,1.606,1.606,0,0,0,.778-.338.208.208,0,0,0,.085-.112c.017-.088-.071-.158-.146-.207a3.515,3.515,0,0,1-1.445-1.942.258.258,0,0,0-.076-.142.231.231,0,0,0-.128-.035c-.371-.02-.742.084-1.111.04a2.787,2.787,0,0,1-.519-.131l-1.291-.414a.509.509,0,0,1,.487-.225,1.974,1.974,0,0,0,.565,0,.228.228,0,0,0,.15-.1.193.193,0,0,0-.087-.235.562.562,0,0,0-.263-.065,2.454,2.454,0,0,1,1.01-.936l-1.151.289a1.186,1.186,0,0,1,.523-.293,7.873,7.873,0,0,0,1.657-.843l-2.208.915a1.122,1.122,0,0,0-.69.534c.124-.174.184-.335-.086-.2-.086.043-.226.121-.235.226-.008.084.085.151.077.239" transform="translate(-28.686 -37.85)" fill="#fff"/>
      <path id="パス_1342" data-name="パス 1342" d="M4.085,105.942a1.647,1.647,0,0,0-.783.207c-.15.112-.245.286-.4.388-.328.215-.791.04-1.145.211a1.271,1.271,0,0,0-.409.377l-.681.846a2.178,2.178,0,0,0-.66,1.47.626.626,0,0,0,.14.364c.2.223.552.183.851.213.893.09,1.507.908,2.006,1.654a.428.428,0,0,0-.377-.174,3.5,3.5,0,0,0,2.24.965c.252.012.612.13.531.368a.8.8,0,0,0,.825-.015c.129-.083.231-.2.355-.293a2.106,2.106,0,0,1,.629-.273,20.29,20.29,0,0,0,2.8-1.124,3.215,3.215,0,0,1-1.167.128c-.1-.034.025-.179.134-.195l4.3-.6.82-.114,3.686-.512-.15-.293q.871-.355,1.751-.684l-.359-.109c.016-.157.214-.211.37-.233a6.335,6.335,0,0,0,1.8-.526,1.071,1.071,0,0,0-.994-.538l.21-.207a.984.984,0,0,1-.15-.652l-2.611.373a.542.542,0,0,1-.011-.347.394.394,0,0,1-.239.216.175.175,0,0,1-.091-.2l.86-.062a2,2,0,0,0-1.5.344.535.535,0,0,0,.064.346,2.635,2.635,0,0,0-1.515-.175l.572.09c-.765.381-1.7.188-2.5.478-.548.2-1.144.615-1.648.323.018-.255.36-.33.613-.3s.562.084.719-.118l-1.069-.083c.034-.228.314-.312.543-.346l2.239-.338-2.485.092,4.653-.766-8.41.852a2.869,2.869,0,0,1-1.652-.159,9,9,0,0,1-1-.831c-.3-.223-.788-.179-1.032-.442a.822.822,0,0,1-.667.393" transform="translate(0 -88.45)" fill="#fff"/>
      <path id="パス_1343" data-name="パス 1343" d="M145.728,88.99a.437.437,0,0,0-.08.112.287.287,0,0,0,.08-.112" transform="translate(-122.053 -74.574)" fill="#fff"/>
      <path id="パス_1344" data-name="パス 1344" d="M150.1,70.938a2.254,2.254,0,0,0-.413.955,2.912,2.912,0,0,1,.413-.955" transform="translate(-125.437 -59.446)" fill="#fff"/>
      <path id="パス_1345" data-name="パス 1345" d="M170.3,27.313a12.132,12.132,0,0,1-2.573-.84q-1.57-.646-3.137-1.295a7.725,7.725,0,0,1-1.393-.693,5.624,5.624,0,0,1-1.118-1.048,2.1,2.1,0,0,1,.835-.186,5.159,5.159,0,0,1,1.749.385q.019-.342.037-.683l2.584-.549q.015-.166.031-.333h.409a1.28,1.28,0,0,0,.012-.767c-.028-.259.081-.6.341-.607-.552-.261-.827-1-1.428-1.1-.2-.034-.475-.046-.5-.245a2.3,2.3,0,0,1-.687.4l-1.335.576c-.1.042-.224.078-.294,0-.516.591-1.584.321-2.138.877-.223.224-.428.6-.732.513-.22-.062-.3-.341-.268-.568a2.581,2.581,0,0,0,.09-.677.562.562,0,0,1-.015-.238.388.388,0,0,1,.194-.2l2.014-1.217c.2-.118.417-.28.409-.509a2.026,2.026,0,0,1-1.832-.573l.263-.336a.583.583,0,0,1-.4-.464,2.048,2.048,0,0,1,.787.454.333.333,0,0,0,.185.112c.183.013.221-.246.251-.427.074-.46.5-.763.819-1.1a1.22,1.22,0,0,0,.372-.682c.033-.307-.068-.726.218-.842a.31.31,0,0,1-.163-.32,2.993,2.993,0,0,1-.647.215c0-.014.01-.028.014-.042a.913.913,0,0,0-.2-.671,1.441,1.441,0,0,0,.013-.457.816.816,0,0,1-.014-.291.2.2,0,0,1,.2-.171l.189,1.249a1.55,1.55,0,0,0,.1-1.2c-.06-.408-.01-.925.37-1.086a.4.4,0,0,0,.17-.094c.139-.175-.212-.376-.2-.6a.39.39,0,0,1,.105-.206l.659-.824a1.036,1.036,0,0,0,.264-.494c.042-.341-.254-.625-.544-.808a4,4,0,0,0-1.783-.6.571.571,0,0,1-.327-.092.736.736,0,0,1-.143-.213.965.965,0,0,0-.9-.472,2.03,2.03,0,0,1-.721.065c-.293-.085-.5-.436-.8-.4a.83.83,0,0,0-.231.078c-.954.408-2.114.075-3.044.535a2.749,2.749,0,0,0-.627.447,8.412,8.412,0,0,0-1.746,2.588,1.089,1.089,0,0,1-.3.421.394.394,0,0,1-.411.043c-.026-.248,0-.569-.018-.728a1.832,1.832,0,0,0-.2-.821,7.145,7.145,0,0,0-.491-.551.581.581,0,0,1-.086-.681,4.125,4.125,0,0,0-2.783,1.373,8.732,8.732,0,0,0-1.626,2.717l.219-.3c.113.155-.07.346-.2.486-.5.532-.36,1.442-.837,1.994a5.568,5.568,0,0,1-.426.388,3.725,3.725,0,0,0-.572.761l-.888,1.42c-.041.065-.081.13-.121.2.061-.09.124-.179.186-.267l1.455-2.032c-.021,1.159-1.466,1.825-1.7,2.959-.038.182-.151.438-.319.357-.047-.023-.078-.07-.124-.1a.214.214,0,0,0-.278.14.618.618,0,0,0,.017.348l.18.737a.171.171,0,0,1-.224-.209c-.193.062-.214.325-.179.525a.885.885,0,0,1,0,.461.434.434,0,0,1,.128-.091l-.48.918.282-.191a16.6,16.6,0,0,1,.151,1.972,2.019,2.019,0,0,0,.674-.735.651.651,0,0,0,.818-.3,3.865,3.865,0,0,0,.309-.911,2.459,2.459,0,0,1,.83-1.186.662.662,0,0,0,.247-.265.782.782,0,0,0-.09-.5c-.056-.164-.044-.395.121-.451a.267.267,0,0,1,.308.174.777.777,0,0,1,.02.385l-.273-.272a3.508,3.508,0,0,1,.158,1.131,4.588,4.588,0,0,0,.015,1.415,1.522,1.522,0,0,1-.491.157l.031-1.263a6.98,6.98,0,0,0-.438,3.34,1.483,1.483,0,0,0,.255.769.982.982,0,0,0,.251.218.925.925,0,0,0,.086.309,1.965,1.965,0,0,0,.29.329.4.4,0,0,1,.112.4l-.165-.218a.962.962,0,0,1,.139.407l-.8-.919.633,1.054a1.737,1.737,0,0,1,.342,1.128l.021.986a.592.592,0,0,1-.121.459c-.036.033-.082.061-.095.109a.182.182,0,0,0,.047.142,8.186,8.186,0,0,0,.571.725,1.057,1.057,0,0,0,.278.245,1.121,1.121,0,0,0,.418.1,5.251,5.251,0,0,1,2.411.64,7.675,7.675,0,0,0,1.388,1.009.652.652,0,0,0-.16-.665,6.21,6.21,0,0,1-.488-.532,1.95,1.95,0,0,1-.232-.649,7.423,7.423,0,0,1-.244-3.269.843.843,0,0,0,.464.305,2.685,2.685,0,0,1-.457-1.256q.367.093.736.173c.1.023.244.028.285-.071.052-.125-.116-.219-.243-.262-.2-.067-.4-.2-.426-.406a.992.992,0,0,1,.133-.448.422.422,0,0,0,0-.349,1.161,1.161,0,0,0,.161-.273.469.469,0,0,0,.043-.215.594.594,0,0,0-.167-.311l-1.037-1.244a.947.947,0,0,1-.165-.246,1.429,1.429,0,0,1-.061-.342,2.876,2.876,0,0,0-.377-.953,3.241,3.241,0,0,1-.538-1.7,4.2,4.2,0,0,0,.132-1.342l-1.427.39a.131.131,0,1,1,.189-.125l.6-1.447a.6.6,0,0,1,.167-.262,1.091,1.091,0,0,1,.414-.114c.4-.1.6-.52.817-.87a8.068,8.068,0,0,1,.851-1.092c.43-.491.979-1.029,1.624-.929l.074.011a1.862,1.862,0,0,1-.01.333.689.689,0,0,1-.094.3c-.049.074-.12.131-.168.205a.421.421,0,0,0,.29.612,2.091,2.091,0,0,1,.262-.469,1.9,1.9,0,0,0,.754.986c-.021-.179-.178-.3-.289-.447s-.161-.383-.008-.478c.043.388.568.5.795.82.081.114.121.253.193.373a1.583,1.583,0,0,0,.558.485q.8.5,1.617.972c.022.052.045.1.07.154a1.066,1.066,0,0,1,.189.621.493.493,0,0,1-.031.106,1.742,1.742,0,0,0-.718.248,3.343,3.343,0,0,1-.9.619c-.791.256-2.01.489-1.406,1.563l.713,1.267a.871.871,0,0,0,.263.328.3.3,0,0,0,.386-.032l.079-.288a.931.931,0,0,0,.882.323.133.133,0,0,1,.108-.157.784.784,0,0,1-.273.658l-.651.751a1.766,1.766,0,0,1-.6.511,2.791,2.791,0,0,1-.744.128,2.407,2.407,0,0,0-1,.374c.545.311.031,1.361.559,1.7l-.392-.048a8.411,8.411,0,0,0,2.4.853,1.726,1.726,0,0,1,.248.059,2.085,2.085,0,0,1,.25.118.239.239,0,0,0,.057.156c.065.075.158.13.194.222a.4.4,0,0,1-.087.345,2.444,2.444,0,0,1-1.538,1.025,1.014,1.014,0,0,1-1.073-.318,4.644,4.644,0,0,1-.189-.469,1.626,1.626,0,0,0-1.187-.713,1.47,1.47,0,0,1,.463.8,2.893,2.893,0,0,0,.071.344,2.141,2.141,0,0,1,.115.317,1.594,1.594,0,0,1-.007.317.975.975,0,0,0,.829.964.249.249,0,0,0,.186.27.723.723,0,0,0,.357-.013l.955-.2a2.212,2.212,0,0,0,.768-.27l.519-.27a7.189,7.189,0,0,0,.8-.462,4.149,4.149,0,0,0,1.667-3.162c.069,0,.138.005.208.011,0,.008,0,.017,0,.025a1.687,1.687,0,0,0,.094.671,2.03,2.03,0,0,0,.93.816,7.527,7.527,0,0,1,1.088.791,7.665,7.665,0,0,0,.8.669,5.071,5.071,0,0,0,1,.465l1.173.447a2.543,2.543,0,0,0,1.447.244.524.524,0,0,0,.179.176.179.179,0,0,0,.227-.045.262.262,0,0,0,.026-.141q0-.288,0-.575c.055.111.218.108.328.051a1.394,1.394,0,0,1,.324-.177c.085-.018.173,0,.259-.011s.179-.068.18-.155a2.152,2.152,0,0,0,.651.054,1.061,1.061,0,0,1-.063-.348,1.43,1.43,0,0,1,.806-.123l-.181-.926a1.843,1.843,0,0,0,1.243.005M157.052,10.5l.525-1.373a.472.472,0,0,1,.693-.356l.9.223a.246.246,0,0,1,.141.071.249.249,0,0,1,.022.195,17.093,17.093,0,0,0-.175,3.954l-.224.5a.432.432,0,0,1-.213.257.394.394,0,0,1-.347-.1,2.116,2.116,0,0,1-.4-.39.524.524,0,0,0-.149-.15.233.233,0,0,0-.052-.02,2.066,2.066,0,0,1-.059-.4c-.026-.554.138-1.2-.25-1.6-.172-.175-.448-.3-.467-.542a.618.618,0,0,1,.058-.264" transform="translate(-120.643 -5.815)" fill="#fff"/>
      <path id="パス_1346" data-name="パス 1346" d="M343.536,97.313l.05.017a.094.094,0,0,0-.05-.017" transform="translate(-287.883 -81.548)" fill="#fff"/>
      <path id="パス_1347" data-name="パス 1347" d="M410.914,120.472a.048.048,0,0,0-.022-.022c-.01.013-.021.026-.031.04-.018.037.071.019.053-.018" transform="translate(-344.3 -100.937)" fill="#fff"/>
      <path id="パス_1348" data-name="パス 1348" d="M330.938,49.249a2.918,2.918,0,0,0,1.47-1.472.652.652,0,0,0-.4-.163l.327-.4c-.359.243-.842-.208-1.258-.087-.483.14-.511.911-.958,1.117.077,0,.136.172.044.226-.109.064-.245-.009-.349-.081l-.169.471a2.735,2.735,0,0,0-1.665.764c-.133-.172-.405-.071-.591.042l-1.4.853a1.4,1.4,0,0,1-.619.251.482.482,0,0,1-.516-.337.158.158,0,0,1,.081-.234l.348.031a.638.638,0,0,0,.194-.361.479.479,0,0,1,.23-.332c.129-.053.313.081.248.2a9.239,9.239,0,0,0,.878-1.785.349.349,0,0,0,.425-.216,1.235,1.235,0,0,0,.05-.524,3.7,3.7,0,0,1,.277-1.5c-.2-.487.051-1.03.126-1.552a4.861,4.861,0,0,0-.047-1.249,14.48,14.48,0,0,1-.18-2.862,2.322,2.322,0,0,0-.212-1.718,1.924,1.924,0,0,0-1.024-.9c-.221-.049-.484-.016-.641-.179a1.345,1.345,0,0,1-.174-.331,1.2,1.2,0,0,0-.773-.512,4.8,4.8,0,0,0-2.752.02,1.738,1.738,0,0,0-1.279.236,1.268,1.268,0,0,1-1.179-.089l.143.351c-.292.039-.305.455-.237.742a12.619,12.619,0,0,0,.916,2.827,24.351,24.351,0,0,0,1.768,2.6,5.194,5.194,0,0,1,1.082,2.9,6.612,6.612,0,0,0-.025,1.959l-1.6-.81a4.4,4.4,0,0,0-2.279-.667.556.556,0,0,1-.44-.071c-.1-.092-.018-.3.089-.293l-1.028-.34a.592.592,0,0,0-.689.1l-1.1.785a2.123,2.123,0,0,0-.965,1.384l-.864,2.467a1.05,1.05,0,0,0,.182,1.267,6.889,6.889,0,0,0,1.885,1.916c.381.224.8.372,1.186.592a5.907,5.907,0,0,0,1.8.983,1.642,1.642,0,0,0,1.485-.529l1.211-.293c.053.015.107.03.161.043a1,1,0,0,0,.717-.034,1.367,1.367,0,0,1,.243-.136,2.9,2.9,0,0,1,.363-.022.822.822,0,0,0,.3-.138l.632-.407a.36.36,0,0,0,.115-.1.866.866,0,0,0,.06-.241.627.627,0,0,1,.311-.318c.586-.36,1.173-.721,1.776-1.053a.34.34,0,0,0-.015-.138l.749-.421-.485-.028a6.046,6.046,0,0,1,2.824-1.594.139.139,0,0,1,.09,0,2.775,2.775,0,0,1,1.141-.627m-8.91,1.234c-.008-.021-.014-.042-.023-.063-.382-.942-1.512-1.554-1.549-2.57a2.982,2.982,0,0,1,1.347,1.284c.159.3.271.631.432.927a2.532,2.532,0,0,1-.208.421" transform="translate(-263.205 -30.364)" fill="#fff"/>
      <path id="パス_1349" data-name="パス 1349" d="M412.8,110.39a.063.063,0,0,0-.043.018l.043-.018" transform="translate(-345.891 -92.507)" fill="#fff"/>
      <path id="パス_1350" data-name="パス 1350" d="M414.253,79.908a1.42,1.42,0,0,0-.09-.51,2.478,2.478,0,0,0-.226-.247,1.341,1.341,0,0,1-.134-.864,4.2,4.2,0,0,0-.4-1.562c-.358-.883-.748-1.753-1.138-2.623l-.689-1.536a7.577,7.577,0,0,0-.7-1.462c-.347-.457-.979-.321-1.466-.443-.211-.053-.406-.16-.619-.206a2.134,2.134,0,0,0-.694,0q-.531.062-1.06.142a.675.675,0,0,0-.279.085,1.316,1.316,0,0,0-.251.306c-.084.1-.231.185-.345.117a1.422,1.422,0,0,1-.177.687,1.388,1.388,0,0,0-.006.89.226.226,0,0,0,.092.136.429.429,0,0,0,.174.019.3.3,0,0,1,.262.306,1.239,1.239,0,0,1,.966.542.268.268,0,0,0,.092.1.383.383,0,0,0,.18.009.668.668,0,0,1,.453.268,5.478,5.478,0,0,1,.671.8,5.851,5.851,0,0,1,.306.567,6.275,6.275,0,0,0,.8,1.3.409.409,0,0,1,.129.244.654.654,0,0,1-.037.162,1.03,1.03,0,0,0,.287.786c.165.237.311.557.153.8a4.026,4.026,0,0,0-1.408-.26.651.651,0,0,0-.743-.016.262.262,0,0,0-.168-.154.717.717,0,0,0,.056.321,2.727,2.727,0,0,0-.609-.2l.017.395-.3-.192c-.035.261.214.464.434.609l1.807,1.19a2.218,2.218,0,0,1,.345.261c.054.053.029.193-.026.141.247.257.7.1,1.016.266.39.205.486.852.925.891.227.02.445-.15.668-.105a.842.842,0,0,1,.272.135,2.457,2.457,0,0,0,1.127.37.63.63,0,0,0,.44-.092.718.718,0,0,0,.194-.315,3.5,3.5,0,0,0,.264-.889,1.181,1.181,0,0,0-.218-.879c-.161.065-.319-.12-.348-.292" transform="translate(-340.153 -59.018)" fill="#fff"/>
      <path id="パス_1351" data-name="パス 1351" d="M503.654,8.055a.964.964,0,0,0-.042.352c.034.144.174.233.264.351a2.228,2.228,0,0,1,.19.394c.2.418.654.669.869,1.08a1.469,1.469,0,0,0,0-.524,2.647,2.647,0,0,0,1.261.671,6.249,6.249,0,0,0,1.462.314,6.846,6.846,0,0,0,1.151-.063,2.625,2.625,0,0,0,.651-.129,2.649,2.649,0,0,0,1.167-1.2,5.219,5.219,0,0,1-.683.456,1.2,1.2,0,0,1,.3-.371l.692-.649c-.1.056-.7.507-.761.261-.014-.062.377-.35.4-.532a.275.275,0,0,1-.207.091l-.037-.212-.718.277a.78.78,0,0,1-.3.072c-.47-.016-.6-.792-1.07-.844a.777.777,0,0,1-.218-.025c-.194-.081-.143-.368-.218-.564a.539.539,0,0,0-.374-.3,1.432,1.432,0,0,0-.5-.018.692.692,0,0,1-.317-.019c-.141-.056-.228-.2-.359-.273a.833.833,0,0,0-.357-.078l-1.156-.077a1.792,1.792,0,0,1-.917-.231,2.107,2.107,0,0,1-.1.714c-.1.263-.312.526-.222.793.117.021.159.172.142.289" transform="translate(-421.925 -5.245)" fill="#fff"/>
      <path id="パス_1352" data-name="パス 1352" d="M501.429,139.9a1.692,1.692,0,0,0-.214.242,1.8,1.8,0,0,0,.214-.242" transform="translate(-420.018 -117.233)" fill="#fff"/>
      <path id="パス_1353" data-name="パス 1353" d="M502.21,20.812a.161.161,0,0,0,.026-.081.32.32,0,0,0-.04-.143,2.682,2.682,0,0,0-.257-.46h.007a.457.457,0,0,0-.182-.195.657.657,0,0,0-.379-.17,1.186,1.186,0,0,1-.315-.026.8.8,0,0,1-.268-.232,1.494,1.494,0,0,0-1.112-.4,5.219,5.219,0,0,0-1.193.22,19.528,19.528,0,0,1-3.495.561.765.765,0,0,1,.607-.474,8.387,8.387,0,0,0-2.071.438.606.606,0,0,1-.3.052,2.3,2.3,0,0,1-.314-.139.889.889,0,0,0-.512.053,6.367,6.367,0,0,1-2.378.091q-.6-.061-1.2-.145-.244-.035-.486-.074a1.043,1.043,0,0,0,.117-.322,3.28,3.28,0,0,0,0-.821,6.378,6.378,0,0,1,.055-1.336,2.9,2.9,0,0,0,.052-1.1,1.651,1.651,0,0,1-.107-.514c.015-.175.185-.354.349-.29a.86.86,0,0,1,.357-.663,2.548,2.548,0,0,1,.7-.347l2.155-.813a2.353,2.353,0,0,0-1.343.184l.358-.4-.253.009-.047-.352a3.624,3.624,0,0,0-.983-.3c-.019-.242.342-.289.513-.46.2-.2.1-.533,0-.794a.346.346,0,0,1-.264.133.3.3,0,0,0-.135-.235c-.058-.037-.128-.054-.182-.1a.662.662,0,0,1-.158-.263.923.923,0,0,0-.491-.459,4.928,4.928,0,0,1-.529-.17.371.371,0,0,1-.208-.456,10.539,10.539,0,0,1-2.477,1.077,1.485,1.485,0,0,0,.667.22.6.6,0,0,0-.347.163.736.736,0,0,0-.105.23,1.538,1.538,0,0,1-1.082.964,8.539,8.539,0,0,1-.877.083,1.047,1.047,0,0,0-.763.387,1.572,1.572,0,0,0-.073,1.079l-1.027.076c-.091.007-.2,0-.246-.077a.237.237,0,0,1-.006-.159,6.961,6.961,0,0,1,.33-1.14.412.412,0,0,1,.2.236,4.658,4.658,0,0,1,.362-1.657,1.468,1.468,0,0,1,.158-.349c.075-.109.178-.2.262-.3l.016-.022,1.61-.1c.382-.025.832-.093,1-.435.148-.3.038-.728.31-.917a2,2,0,0,1,.271-.12,1.35,1.35,0,0,0,.361-.322,2.952,2.952,0,0,1,1.844-.919,2.471,2.471,0,0,0-.6-.265,5.479,5.479,0,0,1,3.607-.714.342.342,0,0,1-.275-.307l.988-.043a.244.244,0,0,1-.238-.176q.857-.057,1.712-.132l-.707-.142a.45.45,0,0,0-.356-.564c-.164-.02-.362.044-.474-.077-.047-.05-.064-.122-.112-.171a.369.369,0,0,0-.345-.042,14.783,14.783,0,0,0-2.417.749,1.786,1.786,0,0,1-1.477.167l-.152.337a1.83,1.83,0,0,1-.15-.319,1.419,1.419,0,0,1-.823.4.749.749,0,0,0-.354.088,1.477,1.477,0,0,0-.194.224.492.492,0,0,1-.851-.377,1.8,1.8,0,0,1,.836-.129,15.036,15.036,0,0,0-1.946-.064,1.257,1.257,0,0,1,.916-.79l-.233.379a10.1,10.1,0,0,1,2-1.785l-.278.358a6.835,6.835,0,0,1,2.777-1.832,1.743,1.743,0,0,0,.932-.535.49.49,0,0,1-.414-.362c-.053-.167.036-.417-.023-.558-.05-.118-.265-.22-.343-.352-.126-.213-.077-.568-.3-.716-.349-.231-1.072.211-1.435.271-.456.076-.912.053-1.367.168.109.168.354.145.553.135s.463.085.442.284l-.322.1a.384.384,0,0,1-.054.582,1.02,1.02,0,0,1-.649.146q-.013.2-.025.407a.769.769,0,0,0,.4.015c.032.086-.052.176-.141.2s-.184.012-.273.033a.732.732,0,0,0-.38.321Q485.389,3.743,484.7,4.8l.189-.118c.052.167-.1.323-.231.434l-1.073.9a1.319,1.319,0,0,1-.393.256c-.351.123-.741-.064-1.108,0a3.811,3.811,0,0,1-.384.079,1.483,1.483,0,0,1-.6-.166,2.738,2.738,0,0,0-1.4-.155c.056.082-.1.136-.2.136a1.143,1.143,0,0,0-.762.415,5.266,5.266,0,0,0-.994,1.4c-.145.3-.261.609-.377.92l-.031.082a1.7,1.7,0,0,0-.144.6.576.576,0,0,0,.285.519.354.354,0,0,0,.494-.213,1.9,1.9,0,0,0,1.275.861,4.034,4.034,0,0,0,.965.077q.152,2.108.3,4.217a4.9,4.9,0,0,1,0,1.089c.049-.006.1-.015.145-.026a1.262,1.262,0,0,0-.329.284c-.366-.3-.734-.594-1.088-.905a.559.559,0,0,1,.151-.68c.094-.072.227-.138.225-.257a1.385,1.385,0,0,1-.222-.647,7.987,7.987,0,0,0-.429-1.341,3.091,3.091,0,0,0-.8-1.341,2.631,2.631,0,0,0-.786-.407,4.409,4.409,0,0,0-2.136-.3,1.124,1.124,0,0,1-.288.023c-.073-.008-.144-.033-.217-.041-.3-.032-.542.212-.739.435a2.8,2.8,0,0,0-.8,1.362.307.307,0,0,1-.03.115.352.352,0,0,1-.161.111.681.681,0,0,0-.3.306.173.173,0,0,0-.023.1c.01.073.1.114.118.184.029.091-.058.178-.07.273-.017.133.111.234.224.306l.391.248a1.88,1.88,0,0,1,.5.4,2.621,2.621,0,0,0,.285.384c.26.23.658.165.994.253.5.129.926.607,1.423.487a.31.31,0,0,1,.123-.017c.114.019.141.168.208.263.12.173.372.164.582.167a4.491,4.491,0,0,1,.921.139.451.451,0,0,1,.335.208,1.988,1.988,0,0,1,.527,1.036l-.092.037a.251.251,0,0,1-.079-.171.772.772,0,0,0-.322.358,22.432,22.432,0,0,0-2.1,1.42,4.714,4.714,0,0,1-1.641.773,1.672,1.672,0,0,0-.527.156.42.42,0,0,0-.218.462c-.191-.188-.513-.1-.749.025a1.116,1.116,0,0,1-.749.232c-.079.1-.012.257.085.342a2.082,2.082,0,0,1,.3.241c.171.219.057.534.06.812.007.535.479,1,.432,1.53a.533.533,0,0,1-.233-.544c-.174.122-.162.381-.113.588a1.489,1.489,0,0,0,.274.613.7.7,0,0,0,.591.273l.024-.388a.583.583,0,0,0,.629.358c.262-.018.507-.132.766-.174a4.12,4.12,0,0,0,.692-.093c.51-.175.707-.756,1.035-1.2a1.805,1.805,0,0,1-.509.341c-.093-.289.17-.56.412-.743a15.488,15.488,0,0,1,1.417-.956.207.207,0,0,1-.078.237c.767-.285.89-1.433,1.638-1.765A.174.174,0,0,1,480.3,20a.183.183,0,0,1,.1.1,6.125,6.125,0,0,1,.477,1.88,5.8,5.8,0,0,0,.5,1.457.886.886,0,0,1-.437-.424,2.477,2.477,0,0,0,.771,2.244,1.693,1.693,0,0,0,.35.286,2.154,2.154,0,0,0,.472.183l.327.1a.906.906,0,0,0,.4.056.31.31,0,0,0,.271-.266c.006-.193-.227-.335-.212-.527.007-.084.062-.161.055-.245-.013-.159-.213-.21-.354-.283a.938.938,0,0,1-.419-.667,5.512,5.512,0,0,0-.157-.8,6.887,6.887,0,0,0-.557-.907,2.609,2.609,0,0,1-.293-1.028,22.35,22.35,0,0,0-.078-2.4.519.519,0,0,1-.017-.206.477.477,0,0,1,.113-.2l1.31-1.607c.232-.285.464-.57.67-.874a.4.4,0,0,1,.323.186c.1.168.058.417.218.527s.34.006.5-.075a2.9,2.9,0,0,1,1.412-.313l-.16,1.8a3.093,3.093,0,0,1-.138.782c-.02.055-.043.11-.067.164a.812.812,0,0,0-.217-.168.913.913,0,0,0-.317-.041,1.312,1.312,0,0,1-1.035-.618.749.749,0,0,0-.7.492l-.2-.193c-.568.066-.92.632-1.187,1.138a.568.568,0,0,0-.041.683l.409.781a3.385,3.385,0,0,1,.056.365,1.226,1.226,0,0,0,.086.435c.151.305.539.382.854.511a.278.278,0,0,1,.138.1.36.36,0,0,1,0,.257.959.959,0,0,0,.422.965,1.9,1.9,0,0,0,1.4.067,17.113,17.113,0,0,0,2.184-.559c.33-.116.654-.253.988-.358.3-.094.6-.162.91-.229l3.833-.85a12.567,12.567,0,0,1,2.6-.432,14.361,14.361,0,0,0,2.16-.012,10.87,10.87,0,0,1,1.129-.155c1.14-.05,2.291.489,3.4.2a.724.724,0,0,0-.324-.5m-19.98-5.324a.1.1,0,0,1-.02-.037c-.023-.08.065-.144.137-.186a3.9,3.9,0,0,0,.9-.783.938.938,0,0,1-.036.161,1.613,1.613,0,0,1-.983.845m-.08-.868c.05.051.084.126.153.147.106.034.2-.08.258-.173a1.6,1.6,0,0,1,.682-.563,2.042,2.042,0,0,1,.014.373l-1.305.67a.267.267,0,1,1,.2-.455" transform="translate(-396.101 -0.001)" fill="#fff"/>
    </g>
    <text id="Mitumata_sannso_Mountain_Hut" data-name="Mitumata sannso 
Mountain Hut" transform="translate(280 16418)" fill="#d9d9d9" font-size="14" font-family="ShipporiMinchoB1-Regular, Shippori Mincho B1"><tspan x="-59.85" y="0">Mitumata sannso </tspan><tspan x="-47.117" y="15">Mountain Hut</tspan></text>
    <line id="線_1244" data-name="線 1244" y2="16" transform="translate(280.5 16450.5)" fill="none" stroke="#fff" stroke-width="1"/>
  </g>
</svg>
