<svg xmlns="http://www.w3.org/2000/svg" xmlns:xlink="http://www.w3.org/1999/xlink" width="123" height="240" viewBox="0 0 123 240">
  <defs>
    <clipPath id="clip-path">
      <rect id="長方形_7660" data-name="長方形 7660" width="123" height="110" fill="#fff"/>
    </clipPath>
    <clipPath id="clip-path-2">
      <rect id="長方形_7715" data-name="長方形 7715" width="106" height="38" fill="#fff"/>
    </clipPath>
  </defs>
  <g id="グループ_2871" data-name="グループ 2871" transform="translate(-138 -4111)">
    <g id="グループ_2214" data-name="グループ 2214" transform="translate(138 4241)">
      <g id="グループ_2159" data-name="グループ 2159" clip-path="url(#clip-path)">
        <path id="パス_1258" data-name="パス 1258" d="M54.088,28.919c.332-1.077.931-3.4,1.327-4.3s1.232-2.763,1.538-3.436A34.148,34.148,0,0,0,58.608,16.7a10.583,10.583,0,0,0-.086-3.611,17.984,17.984,0,0,0-1.341-3.819c-.349-.645-2.511-4.409-2.636-4.656S52.018.527,51.966.327s.278-.315.647-.324a11.057,11.057,0,0,1,3.119.437A8.512,8.512,0,0,1,57.7,1.522c.57.438,1.8,1.372,1.8,1.372-.054-.759-.223-1.35.267-1.765a1.978,1.978,0,0,1,1.867-.116,10.006,10.006,0,0,1,2.142.924,12.381,12.381,0,0,0,2.6,1.472,20.69,20.69,0,0,0,3.062-1.249,6.692,6.692,0,0,1,2.428-.824,1.923,1.923,0,0,1,1.451.9,4.449,4.449,0,0,1,.124.893A37.56,37.56,0,0,1,78.921.269a3.039,3.039,0,0,1,1.957.185c.078.04.106.223.009.392S77.65,6.171,77.455,6.479s-2.918,5-3.313,6.883a5.408,5.408,0,0,0-.1,2.772c.055.3,1.153,3.419,1.48,4.125s1.564,3.659,1.768,4.213.929,3.009,1.064,3.647.634,2.612.634,2.612c1.5-.642,4.065-1.832,4.629-2.13s3.431-1.959,4.008-2.234a4.789,4.789,0,0,1,3.024-.524c1.186.293,1.556.819,1.387,1.714a3.532,3.532,0,0,1-1.474,2.1,6.16,6.16,0,0,0-1.216.932,4.206,4.206,0,0,0,1.712-.751c.774-.518,4.475-3.936,5.595-4.474,1.354-.65,3.236-.647,3.927-.105a1.478,1.478,0,0,1,.323,2.06,15.176,15.176,0,0,1-2.042,2.259,14.6,14.6,0,0,0,4.105-2.269,27.273,27.273,0,0,1,2.759-2.677,4.726,4.726,0,0,1,1.731-.834,3.622,3.622,0,0,1,1.873.259,1.334,1.334,0,0,1,.516,1.4,14.126,14.126,0,0,1-1.133,1.935c-.023.143.189.067.233.03a26.863,26.863,0,0,0,3.693-3.439c.654-1.026,2.706-3.9,3.176-4.639s2.452-3.564,3.053-4.327,2.28-2.8,3.185-3.8,2.291-2.155,2.794-2.048a1.868,1.868,0,0,1,1.222,1.406c.113.978-.788,3.667-2.01,6.858s-3.334,8.018-3.869,9.564-3,9.116-3.355,10.134-1.548,5.5-3.657,7.978-3.133,3.45-6.7,4.675a25.955,25.955,0,0,1-8.685,1.347c-1.835-.028-4.4-.609-5.993-.618a13.069,13.069,0,0,0-6,1.259,11.585,11.585,0,0,0-3.742,2.87,4.1,4.1,0,0,0-.787,1.968c-.051.857-.094,2.058-.083,2.522s.266,2.168.229,2.882-.22,2.751-.22,2.751a4.251,4.251,0,0,1-2.137.782,3.318,3.318,0,0,1-1.787-.29c-.433-.168-2.067-1.152-3.127-1.037A3.581,3.581,0,0,0,71.912,65.4c-.321.4-.939,1.44-1.114,1.6a6.487,6.487,0,0,0-.887,1c.711.242,1.2.266,1.726.494a5.14,5.14,0,0,0,2.518.716,5.682,5.682,0,0,0,2.728-.965c.307-.212,1.241-1.451,1.657-1.586s1.63-.535,1.9-.6.471-.223.49-.179-.214.406-.322.721a11.372,11.372,0,0,1-1.282,2.8,15.271,15.271,0,0,1-3.488,3.934,18.6,18.6,0,0,1-5.383,2.383,17.207,17.207,0,0,1-4.071.691,17.96,17.96,0,0,1-5.712-.8,19.362,19.362,0,0,1-5.834-3.451,13.24,13.24,0,0,1-2.986-4.35A15.761,15.761,0,0,1,50.95,65.2a5.818,5.818,0,0,1,2.518.871c.388.312,1.138,1.1,1.54,1.5a5.671,5.671,0,0,0,2.824,1.549,5.242,5.242,0,0,0,2.917-.545,10.507,10.507,0,0,1,1.393-.532c.107-.014.128-.122-.115-.318a10.684,10.684,0,0,1-1.206-1.647A3.715,3.715,0,0,0,59,64.494a3.863,3.863,0,0,0-2.321-.024,9.109,9.109,0,0,0-1.166.558,2.422,2.422,0,0,1-1.186.251,5.275,5.275,0,0,1-2.184-.694,5.2,5.2,0,0,1-1.439-.916,24.488,24.488,0,0,1-.251-4.047,21.85,21.85,0,0,0-.259-4.855,11.57,11.57,0,0,0-2.019-3.28c-.7-.53-2.41-1.791-3.751-1.848s-3.253.291-6.807.322-8.362-.331-11.968-2.717-5.726-4.4-6.692-5.986a47.018,47.018,0,0,1-3.32-7.373c-.542-1.77-1.988-5.479-2.522-6.893S8.129,15.843,7.752,15A33.788,33.788,0,0,1,5.783,8.839,1.748,1.748,0,0,1,6.846,7c.91-.057,1.834.491,3.231,2.17s6.294,7.73,6.995,8.676,2.981,4.332,4.326,5.754A26.35,26.35,0,0,0,24.3,25.977c-.849-1.121-1.623-2.154-1.121-3.2A1.772,1.772,0,0,1,25.147,21.6,3.583,3.583,0,0,1,27.52,23c.833.836,3.5,3.536,4.133,4.02a5.892,5.892,0,0,0,1.712,1c.142-.048-.286-.377-.468-.524s-1.167-.98-1.218-1.638A1.619,1.619,0,0,1,32.689,24a3.745,3.745,0,0,1,2.645.035,12.3,12.3,0,0,1,3.23,2.116,28.421,28.421,0,0,0,3.061,2.512,2.95,2.95,0,0,0,1.172.453c.053-.037-.316-.272-.674-.554a4.139,4.139,0,0,1-1.34-1.775,1.48,1.48,0,0,1,.647-1.846,3.693,3.693,0,0,1,3.078-.275,16.382,16.382,0,0,1,4.513,2.466,9.825,9.825,0,0,0,4.028,1.848,3.427,3.427,0,0,0,1.04-.066" transform="translate(-4.389 0)" fill="#fff"/>
        <path id="パス_1259" data-name="パス 1259" d="M231.028,316.011c.528.169,1.806.633,1.955.675s.1.608.371,1.151c.051.1.382.092.416.038a2.638,2.638,0,0,0,.18-.7c.05-.392.458-.187.61-.164s1.619.146,2.6.143a20.172,20.172,0,0,0,2.182-.289c.078.028.064.814.153.977a.32.32,0,0,0,.34.21c.174,0,.328-.119.375-.392s.014-.927.235-1.013,1-.273,1.287-.361.6-.25.679-.176a12.173,12.173,0,0,1-.589,1.716c-.15.467-1.491,4.547-2.178,6.18s-1.95,4.582-2.145,4.924a.916.916,0,0,1-1,.525c-.548-.011-.9-.834-1.279-1.7-.584-1.341-.859-2.06-1.694-4.12s-2.023-5.6-2.2-6.15c-.147-.467-.469-1.535-.3-1.48" transform="translate(-175.338 -240.039)" fill="#fff"/>
        <path id="パス_1260" data-name="パス 1260" d="M231.446,381.244a4.83,4.83,0,0,1-1.043.03.134.134,0,0,1-.064-.08.116.116,0,0,1,.026-.095,1.073,1.073,0,0,1,.392-.182,39.282,39.282,0,0,1,4.284-1.262c4.795-1.029,5.673-1.259,7.356-1.755,1.5-.468,2.725-.887,4.034-1.379,1-.377,1.931-.821,2.918-1.234,1.474-.618,2.942-1.25,4.4-1.914.891-.407,1.75-.884,2.622-1.33,1.5-.769,2.975-1.6,4.43-2.454,1.408-.827,2.8-1.679,4.132-2.635.736-.53,1.5-1.023,2.251-1.531a2.762,2.762,0,0,1,.279-.17c.142-.073.874.977.779,1.1-.123.16-2.028,1.578-2.891,2.212-1.318.969-2.645,1.633-4.035,2.49-.818.5-1.514.809-2.345,1.295-.48.262-1.422.709-2.065,1.048-.69.363-1.343.634-2.056.952-1.476.659-2.238,1.047-3.748,1.622-.8.3-1.509.582-2.3.9-.709.283-1.775.7-2.5.927-1.107.351-2,.65-3.109.977-.608.179-1.592.453-2.213.587-.852.184-1.081.257-1.934.437-1.759.371-2.852.582-4.627.872-.554.091-2.393.518-2.967.574" transform="translate(-174.851 -277.442)" fill="#fff"/>
        <path id="パス_1261" data-name="パス 1261" d="M275.577,431.231a.031.031,0,0,0,.009-.061c-.643-.191-1.334-.369-1.9-.54a9.866,9.866,0,0,1-1.408-.483c-.091-.047-.276-.195-.19-.242.063-.035.882-.285,1.269-.38a.681.681,0,0,1,.334,0c.649.168,1.307.283,1.968.394.626.105,3.993.952,5.024,1.077.667.081,1.278.145,1.97.221.432.048.862.077,1.3.085a.512.512,0,0,0,.482-.408c.113-.476.232-1.09.338-1.568.227-1.405,1.685-.76,1.446.813-.05.322-.116.751-.139,1.077a.241.241,0,0,0,.212.257c.252.03.92.041,1.174.049,1,.032,1.71.066,2.709.1.4.012.8-.009,1.2.011a.986.986,0,0,1,.447.121.461.461,0,0,1,.244.547c-.06.253-.174.466-.511.473-.473.009-1.052.016-1.525.014-1.163-.005-3.776-.151-3.938-.163-.127-.01-.27.17-.291.292-.039.233-.095.854-.132,1.087-.084.521-.178,1.309-.542,1.441-.075.027-.393.165-.6.009a1.348,1.348,0,0,1-.32-1.062c.008-.453.035-.777.038-1.231,0-.248-.016-.38-.255-.4-.271-.022-.553-.037-.826-.035-1.163.006-2.163-.01-3.324-.07-.152-.008-1.729-.052-2.455-.072-1.385-.038-2.172-.052-3.349-.087-1.816-.053-3.788-.125-5.593-.342-1.21-.146-4.278-.6-4.36-.643a.182.182,0,0,1-.125-.163,12.706,12.706,0,0,1,2.052-.531c.2-.041,1.815.157,2.429.2.47.035,4.428.159,5.171.187.357.013,1.57.034,1.975.025" transform="translate(-200.367 -325.527)" fill="#fff"/>
        <path id="パス_1262" data-name="パス 1262" d="M120.809,359.865c1.049.814,2.171,1.521,3.278,2.25.682.449,1.352.917,2.039,1.359q1.145.736,2.311,1.438c1,.6,2,1.178,3.006,1.764.752.44,1.5.885,2.258,1.317.773.441,1.551.871,2.33,1.3.842.466,1.681.937,2.531,1.389,1.363.725,2.738,1.426,4.149,2.056.73.326,1.46.65,2.188.978.182.082.359.174.535.268.089.048.089.192,0,.218-.539.159-1.077.32-1.621.46a.875.875,0,0,1-.575-.132c-.264-.122-6.08-3.3-6.958-3.772-1.789-.967-12.484-7.219-13.936-8.084-.7-.417-2.309-1.563-2.4-1.653a.377.377,0,0,1-.071-.5c.057-.112.781-.784.936-.664" transform="translate(-90.95 -273.34)" fill="#fff"/>
        <path id="パス_1263" data-name="パス 1263" d="M387.32,314.018a2.9,2.9,0,0,1,.3-.233c.872-.653,1.743-1.308,2.556-2.034,1.26-1.125,2.641-2.105,3.894-3.237.66-.6,1.306-1.207,1.951-1.818.685-.649,1.378-1.291,2.038-1.964.915-.932,1.876-1.821,2.7-2.841.364-.451.781-.858,1.135-1.319.4-.518.826-1.012,1.243-1.515.093-.111.2-.213.289-.326.271-.334.5-.224.749-.027.14.113.258.255.391.378.206.191.216.215.03.433-.47.553-.887,1.149-1.347,1.708-.829,1.008-1.657,2.021-2.579,2.948-1.139,1.144-2.278,2.29-3.459,3.389-1.142,1.063-2.288,2.124-3.5,3.112-.45.367-.866.775-1.315,1.143-.828.678-1.666,1.343-2.5,2.01-.469.373-.944.738-1.417,1.1a3.546,3.546,0,0,1-.314.217c-.159.088-1.257-.813-.842-1.129" transform="translate(-293.948 -226.753)" fill="#fff"/>
        <path id="パス_1264" data-name="パス 1264" d="M182.831,376.211a1.642,1.642,0,0,1-.8-.242q-.937-.5-1.867-1.014c-.621-.341-1.243-.679-1.888-.974a14.4,14.4,0,0,1-1.8-1.015c-1.116-.718-2.277-1.357-3.424-2.021-1.7-.982-3.4-1.949-5.066-2.989-.832-.52-1.648-1.058-2.448-1.624-.355-.251-.725-.483-1.084-.728a2,2,0,0,1-.3-.238.515.515,0,0,1-.141-.549,2.364,2.364,0,0,1,.162-.4.441.441,0,0,1,.649-.186c.252.142.492.307.737.461q2.4,1.505,4.8,3.01c1.386.865,2.77,1.735,4.168,2.579,1.01.61,2.044,1.179,3.065,1.771,1.148.666,2.339,1.246,3.541,1.806.9.421,1.8.863,2.7,1.3a1.519,1.519,0,0,1,.235.136.214.214,0,0,1,.007.333,3.4,3.4,0,0,1-1.245.588" transform="translate(-124.483 -276.61)" fill="#fff"/>
        <path id="パス_1265" data-name="パス 1265" d="M470.873,222.272a.475.475,0,0,1-.1.35c-.687.984-1.189,2.076-1.8,3.1-.605,1.011-1.149,2.058-1.727,3.085-.169.3-.358.588-.547.876-.666,1.016-1.262,2.078-1.97,3.068-.2.28-.345.6-.546.877q-1.053,1.454-2.129,2.889c-.8,1.057-1.636,2.083-2.39,3.172-.157.227-.543.225-1,0-.238-.158-.488-.328-.353-.583a3.178,3.178,0,0,1,.306-.449c.565-.733,1.146-1.453,1.7-2.2q1.151-1.55,2.265-3.129c.532-.756,1.061-1.518,1.536-2.309.887-1.476,1.85-2.906,2.68-4.417.515-.938,1.034-1.873,1.566-2.8.378-.661.781-1.308,1.174-1.961a1.194,1.194,0,0,1,.094-.133.269.269,0,0,1,.337-.1,4.029,4.029,0,0,1,.8.464.286.286,0,0,1,.113.19" transform="translate(-347.876 -168.32)" fill="#fff"/>
        <path id="パス_1266" data-name="パス 1266" d="M393.477,329.916c-.647.662-1.3,1.324-1.97,1.956-.582.545-1.2,1.049-1.806,1.572-1,.869-1.982,1.759-3,2.6-.937.774-1.916,1.5-2.877,2.244-.072.056-.15.1-.221.16-1.206.967-2.516,1.785-3.8,2.639-.816.542-1.9,1.157-2.719,1.691-.215.14-.836-1.057-.677-1.155.479-.3,1.138-.731,1.609-1.039,1.186-.774,2.37-1.551,3.543-2.343.541-.366,1.06-.765,1.581-1.159q.716-.542,1.416-1.1c.792-.637,1.6-1.254,2.361-1.928,1.425-1.265,2.871-2.508,4.211-3.865.484-.49.98-.97,1.474-1.45a4.19,4.19,0,0,1,.451-.392c.207-.151.326.051.552.269.051.049.354.271.387.325.169.276-.21.667-.512.977" transform="translate(-285.712 -249.369)" fill="#fff"/>
        <path id="パス_1267" data-name="パス 1267" d="M428.968,256.286c-.179-.154-.454-.374-.648-.564a.422.422,0,0,1-.059-.541,5.225,5.225,0,0,1,.352-.444c.925-1.071,1.871-2.126,2.779-3.212a41.688,41.688,0,0,0,2.582-3.438c.487-.722,1.008-1.422,1.477-2.156.547-.856,1.059-1.734,1.576-2.609.47-.8.927-1.6,1.39-2.4.254-.44.5-.885.766-1.318s.342-.449.776-.194c.188.11.372.227.553.348a.282.282,0,0,1,.107.331,2.423,2.423,0,0,1-.155.351q-.749,1.327-1.506,2.651c-.74,1.292-1.552,2.539-2.355,3.792-.538.84-1.125,1.65-1.668,2.487q-.533.822-1.122,1.6a11.972,11.972,0,0,1-.818.982c-.43.459-.821.946-1.2,1.442-.165.215-.37.4-.547.605-.59.689-1.173,1.385-1.763,2.074a1.01,1.01,0,0,1-.257.237.223.223,0,0,1-.257-.026" transform="translate(-325.042 -181.726)" fill="#fff"/>
        <path id="パス_1268" data-name="パス 1268" d="M449.764,274.749a.335.335,0,0,1-.072-.017,2.032,2.032,0,0,1-.684-.683.286.286,0,0,1,.017-.311,1.284,1.284,0,0,1,.163-.217c.5-.5.947-1.052,1.42-1.577.608-.673,1.246-1.321,1.876-1.974,1-1.032,1.935-2.115,2.851-3.218l1.948-2.345a48.5,48.5,0,0,0,3.289-4.4c.467-.712.99-1.388,1.489-2.08a3.069,3.069,0,0,1,.2-.256.3.3,0,0,1,.432-.091,4.261,4.261,0,0,1,.819.536.241.241,0,0,1,.049.381c-.3.451-.6.909-.929,1.342q-1.665,2.186-3.352,4.355c-.823,1.06-1.659,2.109-2.571,3.1-.6.653-1.172,1.337-1.764,2-.326.365-.66.724-1.007,1.071-.836.834-1.56,1.77-2.374,2.624-.438.46-.872.924-1.311,1.383a4.5,4.5,0,0,1-.361.33.38.38,0,0,1-.131.048" transform="translate(-340.817 -195.616)" fill="#fff"/>
        <path id="パス_1269" data-name="パス 1269" d="M365.986,363.052a1.34,1.34,0,0,1,.275-.172c1.131-.5,2.173-1.171,3.251-1.772.476-.265.948-.538,1.43-.79.871-.455,1.695-.987,2.54-1.485.375-.221.734-.47,1.1-.711,1.134-.755,2.27-1.506,3.4-2.27.8-.54,1.558-1.13,2.3-1.747.125-.1.262-.2.394-.292a6.5,6.5,0,0,0,.526-.386c.728-.656,1.506-1.255,2.2-1.947a3.154,3.154,0,0,1,.469-.37.3.3,0,0,1,.442.03c.175.183.342.376.5.575a.286.286,0,0,1-.018.437,3.009,3.009,0,0,1-.316.3c-.68.573-1.352,1.157-2.045,1.713-1.019.818-2.04,1.634-3.085,2.418-.682.512-1.4.97-2.114,1.444-.422.283-.863.538-1.281.827-1.285.889-2.638,1.671-3.985,2.459-1.16.678-2.342,1.319-3.531,1.946-.625.329-1.283.6-1.929.887-.225.1-.651-.985-.515-1.091" transform="translate(-277.804 -266.64)" fill="#fff"/>
        <path id="パス_1270" data-name="パス 1270" d="M366.464,322.476c.072-.056.148-.105.22-.16.721-.551,1.427-1.123,2.166-1.649s1.423-1.126,2.131-1.695c.608-.489,1.185-1.016,1.773-1.529,1.04-.907,2.026-1.872,3.025-2.822.657-.625,1.333-1.233,1.959-1.888.814-.853,1.587-1.745,2.374-2.623a.834.834,0,0,1,.553-.348c.16.026.375.253.615.449a.609.609,0,0,1,.247.548,4.389,4.389,0,0,1-.413.5c-.739.8-1.5,1.581-2.232,2.385-.685.751-1.4,1.472-2.123,2.188-1.108,1.1-2.279,2.133-3.472,3.14-.763.644-1.489,1.331-2.3,1.913-.93.665-1.83,1.372-2.8,1.986-.137.087-.263.194-.391.295-.185.146-.363.3-.554.44-.449.324-1.107-.789-.777-1.133" transform="translate(-278.119 -235.293)" fill="#fff"/>
        <path id="パス_1271" data-name="パス 1271" d="M458.247,285.767a.623.623,0,0,1,.139.03,4.794,4.794,0,0,1,.847.588.261.261,0,0,1,.026.349c-.086.116-.185.223-.277.336-.525.648-1.042,1.3-1.576,1.942-.512.613-1.031,1.22-1.564,1.814q-1.38,1.54-2.841,3c-1.05,1.054-2.089,2.119-3.135,3.177-.906.915-1.8,1.839-2.728,2.735-.665.643-1.367,1.246-2.056,1.863a.453.453,0,0,1-.677.028,2.116,2.116,0,0,1-.316-.3.532.532,0,0,1,0-.7,2.963,2.963,0,0,1,.279-.259c.647-.584,1.3-1.159,1.938-1.754.49-.458.962-.937,1.435-1.414.728-.735,1.459-1.467,2.172-2.216.688-.723,1.423-1.4,2.124-2.106,1-1,1.94-2.057,2.878-3.116.88-.993,1.654-2.067,2.509-3.077.2-.235.363-.5.545-.747a.391.391,0,0,1,.282-.179" transform="translate(-337.012 -217.067)" fill="#fff"/>
        <path id="パス_1272" data-name="パス 1272" d="M406.1,265.452c-.013-.016-.3-.431-.158-.6.364-.455.7-.931,1.094-1.363.711-.788,1.414-1.583,2.06-2.424.712-.926,1.474-1.812,2.2-2.73.393-.5.759-1.017,1.135-1.527.14-.19.264-.393.42-.57a7.349,7.349,0,0,0,.7-.971c.549-.875,1.089-1.756,1.633-2.635q.515-.832,1.032-1.664a1.6,1.6,0,0,1,.159-.22.229.229,0,0,1,.291-.08c.288.153.576.308.854.477a.2.2,0,0,1,.044.326,3.1,3.1,0,0,0-.348.67,19.613,19.613,0,0,1-1.256,2.16c-.548.766-1.022,1.584-1.545,2.369-.392.588-.806,1.162-1.22,1.735-1.073,1.489-2.315,2.838-3.5,4.237-.386.457-.752.932-1.135,1.391-.51.612-1.029,1.218-1.545,1.826-.069.081-.506.088-.912-.407" transform="translate(-308.128 -190.384)" fill="#fff"/>
        <path id="パス_1273" data-name="パス 1273" d="M104.7,308.705c.71.873,1.405,1.758,2.174,2.581q.576.617,1.161,1.226c.626.657,1.237,1.33,1.886,1.965.935.914,1.873,1.827,2.855,2.689.886.778,1.831,1.49,2.756,2.223.726.575,1.462,1.137,2.194,1.706.043.034.085.068.126.1.3.262.293.262.08.618-.084.14-.152.289-.236.428a.3.3,0,0,1-.417.134,1.258,1.258,0,0,1-.234-.138c-.981-.75-1.959-1.5-2.941-2.253-1.056-.8-2.025-1.71-3.009-2.6-.821-.741-1.6-1.524-2.382-2.31q-1.689-1.7-3.3-3.474c-.219-.242-.418-.5-.625-.755q-.43-.528-.857-1.058a3.628,3.628,0,0,1-.224-.307c-.287-.372.675-1.156.995-.781" transform="translate(-78.682 -234.416)" fill="#fff"/>
        <path id="パス_1274" data-name="パス 1274" d="M56.2,243.158a.206.206,0,0,1,.191.082,4.282,4.282,0,0,1,.239.363c.413.7.812,1.416,1.239,2.112.437.711.9,1.4,1.349,2.109.6.953,1.29,1.842,1.939,2.76.283.4.549.811.839,1.2.808,1.095,1.651,2.161,2.545,3.189.583.67,1.138,1.365,1.705,2.049.255.307.671.759.93,1.063.21.242-.89.94-1.133.635-.692-.792-1.574-1.706-2.191-2.561-.264-.366-.549-.719-.839-1.066-1.388-1.656-2.624-3.427-3.883-5.18-.815-1.135-1.562-2.315-2.294-3.5-.427-.7-.879-1.375-1.311-2.067-.392-.631-.386-.634.279-1.015a1.009,1.009,0,0,1,.394-.174" transform="translate(-41.952 -184.7)" fill="#fff"/>
        <path id="パス_1275" data-name="パス 1275" d="M153.729,404.253a10.4,10.4,0,0,1-1.556-.569c-.667-.287-3.953-1.654-4.168-1.749-.88-.389-1.954-.856-2.823-1.269-1.18-.561-2.173-1.04-3.343-1.621-.455-.226-1.486-.818-1.606-.9a.473.473,0,0,1-.189-.258c-.078-.266.551-.937.671-.9.245.071,1.712.942,1.761.965,2.19,1.089,3.017,1.3,4.335,1.909.741.343,1.5.744,2.242,1.084.363.167,3.5,1.5,4.12,1.745.473.187,1.084.385,1.556.575.067.027.471.188.53.231.089.066.068.132,0,.21a.383.383,0,0,1-.078.076,7.1,7.1,0,0,1-1.452.475" transform="translate(-106.303 -301.545)" fill="#fff"/>
        <path id="パス_1276" data-name="パス 1276" d="M142.379,362.386c.741.557,1.913,1.3,2.693,1.8q2.247,1.442,4.488,2.893,3.269,2.119,6.532,4.246c.579.376,1.165.739,1.744,1.115.206.134.275.262.2.323-.124.1-.245.028-.357-.019-.569-.24-1.143-.467-1.691-.755q-2.461-1.29-4.928-2.567c-.952-.491-7.961-5.017-9.376-6.033-.231-.166.472-1.172.693-1.006" transform="translate(-107.52 -275.252)" fill="#fff"/>
        <path id="パス_1277" data-name="パス 1277" d="M314.908,367.086c-.847.626-2.124,1.691-2.981,2.3a36.961,36.961,0,0,1-3.176,2.009c-.519.3-1.08.516-1.621.774q-.935.445-1.868.9c-1.031.5-2.071.971-3.14,1.384-.49.189-.959.435-1.442.644s-.973.405-1.461.606a.507.507,0,0,1-.313.071.091.091,0,0,1-.07-.121.359.359,0,0,1,.181-.2c.571-.353,1.132-.727,1.719-1.052q2.716-1.508,5.4-3.069,1.958-1.137,3.835-2.395c.695-.463,1.36-.97,2.039-1.456q.886-.634,1.774-1.265c.059-.042.118-.084.181-.121.379-.227,1.187.806.94.989" transform="translate(-226.847 -278.061)" fill="#fff"/>
        <path id="パス_1278" data-name="パス 1278" d="M333.687,387.174c-.38.246-.939.578-1.329.807-.25.147-1.707.958-2.532,1.338-.99.455-2.032.9-3.06,1.264-.548.192-4.1,1.514-5.138,1.887-.2.073-.752.26-.96.324-.073.022-.149.019-.181-.062s.039-.133.1-.173a3.366,3.366,0,0,1,.322-.2c.192-.1,3.391-1.634,3.857-1.878,1.544-.805,3.48-1.828,5.019-2.642,1.027-.542,2.315-1.253,3.31-1.852.251-.151.765.993.6,1.189" transform="translate(-243.278 -293.181)" fill="#fff"/>
        <path id="パス_1279" data-name="パス 1279" d="M133.381,380.412c.457.326,1.322.819,1.806,1.106,1.014.6,2.04,1.184,3.049,1.794,1.1.666,2.189,1.359,3.286,2.033.927.569,1.861,1.127,2.793,1.689a.588.588,0,0,1,.247.2.125.125,0,0,1,0,.1.113.113,0,0,1-.085.055,1.3,1.3,0,0,1-.263-.048,16.838,16.838,0,0,1-1.849-.793c-.53-.232-1.046-.5-1.568-.751l-1.812-.875c-1.5-.728-2.971-1.519-4.431-2.326-.555-.307-1.087-.656-1.628-.987-.077-.047-.153-.1-.225-.153-.3-.232.377-1.264.678-1.049" transform="translate(-100.678 -288.936)" fill="#fff"/>
        <path id="パス_1280" data-name="パス 1280" d="M357.734,314.672a1.845,1.845,0,0,1-.373-.384.517.517,0,0,0-.8-.035c-.473.5-.944,1-1.393,1.521-.655.762-1.4,1.437-2.111,2.141-.2.2-.411.4-.627.586q-1.109.964-2.228,1.915c-.552.472-1.1.944-1.663,1.407-.391.324-.8.623-1.191.952-1.4,1.189-2.865,2.29-4.343,3.376-.19.14-.388.269-.571.417a.855.855,0,0,0-.169.18.282.282,0,0,0-.011.3,4.936,4.936,0,0,0,.512.709.27.27,0,0,0,.346.049,5.131,5.131,0,0,0,.434-.3c.982-.748,1.973-1.486,2.931-2.265,1.747-1.421,3.477-2.862,5.2-4.307.877-.734,1.761-1.459,2.6-2.235.681-.627,1.356-1.259,1.986-1.938q.481-.519.953-1.046c.194-.216.39-.431.571-.657a.261.261,0,0,0-.056-.382" transform="translate(-259.778 -238.572)" fill="#fff"/>
        <path id="パス_1281" data-name="パス 1281" d="M182.742,377.75a.367.367,0,0,0-.464-.182,1.469,1.469,0,0,0-.154.055c-.812.319-3.959,1.77-5.005,2.137a72.8,72.8,0,0,1-8.641,2.716c-1.176.312-2.374.534-3.564.789q-1.331.286-2.668.55c-1.069.211-5.248.988-6.28,1.088-.379.037-2.565.411-3.286.473-1.3.112-2.586.378-3.89.484-.959.077-1.915.2-2.877.235-.545.021-3.586.131-4.331.113-.4-.01-.8-.052-1.195-.083a.109.109,0,0,1-.081-.054c-.024-.067.032-.094.082-.112.086-.03.172-.059.26-.081.759-.185,1.982-.47,2.743-.647,1.668-.388,2.96-.645,4.45-.971.337-.074.67-.164,1.006-.245,1.043-.248,2.091-.472,3.126-.749.894-.239,1.778-.522,2.657-.813,1.328-.44,2.136-.8,3.455-1.262.685-.241,1.633-.577,2.308-.845.422-.168,1.551-.634,1.957-.819.507-.23,1.052-.444,1.709-.754,1.2-.566,2.173-1.076,3.338-1.708.7-.381,1.409-.756,2.1-1.163.922-.546,1.823-1.126,2.74-1.68,1.15-.7,2.282-1.419,3.377-2.2.325-.232.67-.436.994-.67a8.051,8.051,0,0,0,.85-.632c0-.03-.007-.057-.011-.081-.031-.155-.576-.918-.778-.914a.517.517,0,0,0-.252.1c-.246.154-.489.313-.729.476-.857.58-1.718,1.156-2.569,1.745q-1.769,1.224-3.618,2.323c-1.356.809-2.71,1.626-4.14,2.3-.557.265-1.1.575-1.669.8-1.386.546-2.708,1.241-4.112,1.746-.871.313-1.732.652-2.6.973-.238.088-.487.147-.728.227-1.17.392-2.334.8-3.509,1.175-1.3.415-2.579.88-3.912,1.179-.8.179-1.586.392-2.384.563-.3.064-2.555.592-3.754.886a50.95,50.95,0,0,1-6.914,1.338c-.289.032-1.693.1-1.82.1a.233.233,0,0,1-.23-.195,2.184,2.184,0,0,1-.035-.269c-.046-.45.038-.958-.011-1.407a1.226,1.226,0,0,0-.285-.694.555.555,0,0,0-.861-.03,1.052,1.052,0,0,0-.29.632,4.918,4.918,0,0,0-.008,1.032c.011.217-.024.612-.034.829-.015.328-.1.414-.422.448-.271.029-.875.044-1.147.071-.741.074-1.21.059-1.953.1a24.723,24.723,0,0,1-2.725.033,1.041,1.041,0,0,0-.269.018.451.451,0,0,0-.322.269.74.74,0,0,0,.533,1.046c.16.027,4.588.022,5.552,0,.2-.005.4-.01.6,0,.357.026.5.144.534.493a6.418,6.418,0,0,0,.695,2.25c.3.247.58.17.736-.194.028-.066.019-1.865.021-2.264,0-.277.105-.392.383-.439a3.664,3.664,0,0,1,.543-.043c.872-.017,2.305-.105,3.179-.04.85.064,4.347.073,5.363.06,1.544-.019,5.966-.247,6.289-.292,1.151-.159,4.82-.656,5.286-.732,1.04-.168,2.093-.316,3.132-.484.932-.151,5.259-.851,6.651-1.118,1.571-.3,3.116-.714,4.662-1.119.667-.175,1.326-.382,1.985-.585,1.268-.39,2.544-.751,3.791-1.2q.948-.345,1.887-.712c1.4-.551,2.807-1.1,4.2-1.669a14.393,14.393,0,0,0,1.324-.641c.329-.175.351-.268.228-.614a2.649,2.649,0,0,0-.2-.446" transform="translate(-95.111 -280.844)" fill="#fff"/>
        <path id="パス_1282" data-name="パス 1282" d="M40.641,247.674a.184.184,0,0,0,.186.032,1.973,1.973,0,0,0,.854-.652,2.437,2.437,0,0,1-.17-.226c-.02-.03-.19-.249-.213-.277-.23-.281-.47-.554-.688-.844-.843-1.115-1.672-2.239-2.52-3.35-.315-.413-.589-.855-.9-1.27a52.954,52.954,0,0,1-3.227-4.812c-.578-.984-1.16-1.965-1.732-2.952-.5-.862-.994-1.729-1.489-2.595-.036-.063-.063-.131-.1-.192a.279.279,0,0,0-.325-.141,1.981,1.981,0,0,0-.758.415.278.278,0,0,0-.056.35c.091.2.185.395.292.584q.658,1.159,1.325,2.313.734,1.273,1.473,2.543a41.1,41.1,0,0,0,2.3,3.567c.793,1.082,1.63,2.134,2.438,3.206.83,1.1,1.645,2.214,2.474,3.316.229.3.48.592.728.881a.9.9,0,0,0,.108.1" transform="translate(-22.367 -174.999)" fill="#fff"/>
        <path id="パス_1283" data-name="パス 1283" d="M93.9,316.006c-.418-.285-1.03-.793-1.424-1.114q-1.033-.842-2.061-1.691c-.988-.813-1.934-1.671-2.856-2.556-.889-.853-1.734-1.75-2.55-2.672-1.128-1.275-2.294-2.518-3.437-3.78-.334-.368-.648-.753-.963-1.137-.2-.243-.412-.477-.622-.713a.184.184,0,0,0-.264-.012,4.23,4.23,0,0,0-.522.6.193.193,0,0,0-.029.072.585.585,0,0,0,.137.5c.139.167.279.335.429.493,1.01,1.069,1.967,2.184,2.929,3.3.534.617,1.046,1.254,1.592,1.86.485.539,1.013,1.04,1.5,1.574a44.566,44.566,0,0,0,3.915,3.645c.331.284.676.552,1.025.814.692.52,2.51,1.847,2.609,1.911.287.186.753-.976.59-1.087" transform="translate(-60.089 -229.611)" fill="#fff"/>
        <path id="パス_1284" data-name="パス 1284" d="M11.705,228.659a1.954,1.954,0,0,0,1.147-.837h0c-.431-.586-.838-1.19-1.287-1.762-.505-.644-.934-1.341-1.433-1.991-.463-.6-.929-1.2-1.366-1.824-.678-.967-1.339-1.946-2-2.927-.414-.618-.816-1.244-1.216-1.872a51.441,51.441,0,0,1-2.726-5.081c-.495-1.01-.967-2.031-1.45-3.047a2.24,2.24,0,0,0-.13-.239.314.314,0,0,0-.461-.15,5.006,5.006,0,0,0-.584.291.335.335,0,0,0-.168.462,6.015,6.015,0,0,0,.3.639q1.491,2.844,2.988,5.686c.381.722.754,1.45,1.173,2.151.568.95,1.174,1.876,1.766,2.811.472.745,1.271,1.947,1.777,2.67s1.015,1.464,1.53,2.191c.588.829,1.187,1.649,1.784,2.471a1.443,1.443,0,0,0,.349.36" transform="translate(0 -158.666)" fill="#fff"/>
        <path id="パス_1285" data-name="パス 1285" d="M67.385,306.45c-.245-.23-.294-.252-.558-.478s-.511-.431-.769-.645-.533-.456-.806-.677c-.684-.553-1.784-1.481-2.43-2.078-.782-.722-1.561-1.447-2.3-2.219-.889-.932-1.837-1.808-2.725-2.741-.693-.728-1.347-1.492-2.016-2.242-.53-.595-1.369-1.591-1.85-2.226-.682-.9-1.346-1.817-2.01-2.732-.271.146-1.057.525-1.086.853a.875.875,0,0,0,.184.4c.158.216.311.436.487.637.9,1.03,1.727,2.113,2.554,3.2a41.467,41.467,0,0,0,2.816,3.183c.845.9,1.71,1.781,2.551,2.685a38.038,38.038,0,0,0,3.5,3.27c.724.605,1.489,1.161,2.237,1.736.374.288.753.57,1.128.856a1.2,1.2,0,0,0,.381.2c.156.048.657-.576.741-.885a.113.113,0,0,0-.032-.1" transform="translate(-38.592 -220.595)" fill="#fff"/>
        <path id="パス_1286" data-name="パス 1286" d="M16.5,267.1a1.948,1.948,0,0,0,.421-.557.3.3,0,0,0-.055-.338c-.108-.11-.219-.217-.324-.33-.455-.494-.9-1-1.354-1.491-.733-.794-1.465-1.588-2.126-2.445-.379-.491-.768-.975-1.176-1.442-.769-.879-1.477-1.807-2.183-2.735-.737-.969-1.395-1.993-2.065-3.006-.359-.542-1.1-1.786-1.134-1.848-.462-.781-.94-1.553-1.377-2.347-.277-.505-.269-.607-.91-.288-.049.024-.1.047-.146.073-.335.188-.365.272-.213.6.045.1.1.195.15.29.2.366.409.728.6,1.1.811,1.584,1.728,3.107,2.675,4.612.864,1.371,4.34,5.374,5.017,6.156.178.206,3.251,3.589,3.713,3.973a.433.433,0,0,0,.295.1.3.3,0,0,0,.194-.076" transform="translate(-2.861 -189.967)" fill="#fff"/>
        <path id="パス_1287" data-name="パス 1287" d="M76.222,334.924c-.176-.128-.362-.243-.544-.362-.684-.447-1.38-.875-2.048-1.344-.831-.583-1.644-1.194-2.456-1.8-.769-.578-1.538-1.158-2.289-1.759-.723-.578-1.427-1.179-2.132-1.779-.581-.494-1.144-1.008-1.727-1.5-.861-.727-1.674-1.505-2.5-2.275-.5-.472-.981-.971-1.493-1.434-.314-.284-.586-.611-.884-.911a.305.305,0,0,0-.441,0,3.233,3.233,0,0,0-.5.679,2.425,2.425,0,0,0,.438.63c.535.55,1.078,1.09,1.6,1.648a47.313,47.313,0,0,0,4.245,3.954c.77.639,1.536,1.285,2.307,1.924.335.278.67.558,1.02.818,1.166.866,2.323,1.744,3.546,2.531.977.63,1.951,1.264,2.93,1.89a2.353,2.353,0,0,0,.487.238c.1.033.8-.839.435-1.148" transform="translate(-44.948 -244.335)" fill="#fff"/>
        <path id="パス_1288" data-name="パス 1288" d="M15.128,290.692c-.216-.209-.428-.421-.662-.611-.183-.148-2.755-2.631-3.521-3.325-.283-.256-2.049-2.224-2.524-2.7a28.855,28.855,0,0,1-2.881-3.4c-.7-.951-1.375-1.916-2.06-2.875q-.822-1.15-1.642-2.3c-.179-.251-.344-.512-.526-.76a.267.267,0,0,0-.425-.071c-.22.159-.428.337-.633.516a.309.309,0,0,0-.066.4,2.245,2.245,0,0,0,.165.281c.36.523.716,1.049,1.087,1.565.508.707,3.089,4.214,3.907,5.234.488.609,5.534,5.97,6.876,7.114.511.435,1.7,1.612,1.841,1.694.18.107.922-.418,1.065-.753" transform="translate(-0.109 -208.562)" fill="#fff"/>
        <path id="パス_1289" data-name="パス 1289" d="M80.614,356.345a3.925,3.925,0,0,0-.365-.236c-.869-.492-1.742-.978-2.611-1.472-.995-.565-2-1.109-2.976-1.709-1.607-.991-3.2-2.011-4.724-3.126-.191-.139-.384-.276-.559-.433-.636-.571-1.315-1.088-2-1.594Q65.6,346.463,63.9,345.06q-.543-.45-1.07-.922h-.006c-.354.038-.641.655-.708,1.067a1.823,1.823,0,0,0,.313.366c.052.051.1.1.158.15.533.465,1.042.957,1.578,1.42,1.554,1.343,3.2,2.57,4.847,3.788.7.517,1.411,1.022,2.126,1.521a42.546,42.546,0,0,0,4.028,2.5c1.42.773,2.873,1.484,4.273,2.292a3.7,3.7,0,0,0,.393.188.384.384,0,0,0,.412-.052,1.919,1.919,0,0,0,.462-.793.254.254,0,0,0-.095-.238" transform="translate(-47.154 -261.406)" fill="#fff"/>
      </g>
    </g>
    <g id="グループ_2253" data-name="グループ 2253" transform="translate(151 4111)">
      <g id="グループ_2252" data-name="グループ 2252" clip-path="url(#clip-path-2)">
        <path id="パス_1354" data-name="パス 1354" d="M7.113,14.792a9.24,9.24,0,0,1,.922,3.539A18.475,18.475,0,0,1,7.6,24.24a.678.678,0,0,0,0,.478.75.75,0,0,0,.363.276c.794.378,1.861.722,2.484.126a1.909,1.909,0,0,0,.413-1.4c.126-6.689.244-13.461-1.412-19.969a16.06,16.06,0,0,1-.426-1.932A1.264,1.264,0,0,1,9.173.882,1.588,1.588,0,0,1,9.9.436c.934-.364,2.088-.706,2.885-.123a2.73,2.73,0,0,1,.619.722A31.723,31.723,0,0,1,16.513,6.4a10.191,10.191,0,0,1,.761,5.991.811.811,0,0,0,.988-.633,2.652,2.652,0,0,0-.185-1.257,1.441,1.441,0,0,1,.077-1.239,1.3,1.3,0,0,1,1.321-.383,3.735,3.735,0,0,1,1.278.663l3.474,2.424a1.759,1.759,0,0,1,.686.7,1.546,1.546,0,0,1-.264,1.291,2.738,2.738,0,0,1-1.31,1.341c-.745.278-1.595-.017-2.388.1-1.111.16-2.087,1.109-3.182.874-.355.642.093,1.406.558,1.984C21.592,22.312,26.362,25.074,30,28.846c.211.219.431.523.283.783-2.286-.114-4.086-1.815-6.218-2.594-2.039-.745-4.564-.737-5.981-2.3-.712-.784-1.049-1.891-1.983-2.435a4.38,4.38,0,0,0-.474,2.358,18.452,18.452,0,0,1-1.428,6.512,1.327,1.327,0,0,1-.777.877,1.054,1.054,0,0,1-1.112-.61,6.408,6.408,0,0,1-.347-1.265c-.459-1.653-2.187-2.682-3.824-3.439a3.559,3.559,0,0,0-2.959-.374c-1.029.508-1.449,1.941-2.6,2.065a4.656,4.656,0,0,1,.673-3.889,11.56,11.56,0,0,0,1.711-3.707c-.731.12-1.243.779-1.961.953A3.147,3.147,0,0,1,.8,21.2c-.338-.19-.707-.421-.785-.783a1.2,1.2,0,0,1,.064-.578,13.154,13.154,0,0,1,2.337-4.516,17.718,17.718,0,0,0,1.209-1.564c.241-.386.438-1.129,1-1.21,1-.144,2.131,1.565,2.491,2.245" transform="translate(0 0)" fill="#fff"/>
        <path id="パス_1355" data-name="パス 1355" d="M173.607,25.579a1.4,1.4,0,0,0,1.606-.128,2.711,2.711,0,0,0,.845-1.4c.137-.447.229-.905.322-1.362.123-.6.243-1.207.365-1.81.14-.686.278-1.372.365-2.066a18.011,18.011,0,0,0-.043-4.3,3.972,3.972,0,0,1-.038-1.028,8.563,8.563,0,0,1,.916-1.99,1.249,1.249,0,0,0,.109-.865,1.39,1.39,0,0,0-.3-.464,5.488,5.488,0,0,0-4.775-1.671,1.666,1.666,0,0,0-.8.288.62.62,0,0,0-.223.727l.646-.515a7.84,7.84,0,0,0-2.28,2.831,1.424,1.424,0,0,1-.325.5.489.489,0,0,1-.58.061.587.587,0,0,1-.173-.449,4.029,4.029,0,0,0-.531-2.282,3.155,3.155,0,0,0-3.046-.75,4.476,4.476,0,0,0-2.187.965,2.193,2.193,0,0,0-.765,2.072,1.529,1.529,0,0,1,.1.665,1.817,1.817,0,0,1-.349.577.516.516,0,0,0-.043.622,6.332,6.332,0,0,0,1.3-1.008,3.185,3.185,0,0,1-.669,2.364,7.35,7.35,0,0,0-1.209,2.222,5.334,5.334,0,0,0,.036,1.963,9.846,9.846,0,0,0,.523,2.291,9.6,9.6,0,0,0,2.839,3.432.712.712,0,0,0,.323.19c.1.017.194,0,.29.01.255.036.4.286.538.489a2.628,2.628,0,0,0,3.186.776,7.05,7.05,0,0,0,1.346-1.039,2.646,2.646,0,0,1,1.442-.708,1.133,1.133,0,0,1,1.243.789M170.03,15.451A2.7,2.7,0,0,0,170,14.378a6.743,6.743,0,0,0,2.213-.478,4.792,4.792,0,0,1,.258,1.96,1.3,1.3,0,0,1-.063.338.808.808,0,0,1-.512.481,3.09,3.09,0,0,1-1.694-.144c-.441-.265-.268-.673-.168-1.084m-.072,6.938a.706.706,0,0,1-.234-.17.652.652,0,0,1-.114-.258c-.142-.57-.263-1.929.726-1.692.555.133.453.323,1.052.069a3.592,3.592,0,0,1,1.28-.348.257.257,0,0,1,.168.035.249.249,0,0,1,.071.119,6.216,6.216,0,0,1,.286,1.315c.016.151.013.333-.122.419s-.286.035-.433.051a1.331,1.331,0,0,0-.585.317,2.113,2.113,0,0,1-2.095.143" transform="translate(-128.607 -6.82)" fill="#fff"/>
        <path id="パス_1356" data-name="パス 1356" d="M156,99.22c-.41-.421-.675-1.223-1.253-1.457a1.261,1.261,0,0,0-1.309.392,9.442,9.442,0,0,0-.783,1.158c-.757,1.074-2.182,1.786-2.44,3.049a.679.679,0,0,0,.06.525c.343.508,1.306-.021,1.805.357.461-.323.116-1.071.446-1.512a.71.71,0,0,1,1.117.091c.233.463-.21.962-.613,1.307l-.97.831c-.114.1-.234.213-.225.354s.133.231.251.308a2.055,2.055,0,0,0,2.039.276l.093.92a.459.459,0,0,1-.049.322.511.511,0,0,1-.217.139,2.594,2.594,0,0,1-1.9.274c-.576-.225-.866-.809-1.177-1.314a6.88,6.88,0,0,0-.743-.99,1.741,1.741,0,0,0-.6-.474,1.3,1.3,0,0,0-1.47.479,1.9,1.9,0,0,0-.229,1.523,3.481,3.481,0,0,0,3,2.563c.289.031.638.061.763.305a1.218,1.218,0,0,1,.07.254c.15.577.88.827,1.513.877a5.657,5.657,0,0,0,4.343-1.552,3.662,3.662,0,0,0,.721-.962,4.111,4.111,0,0,0,.376-1.744,8.362,8.362,0,0,0-1.19-4.517A9.406,9.406,0,0,0,156,99.22" transform="translate(-117.483 -78.978)" fill="#fff"/>
        <path id="パス_1357" data-name="パス 1357" d="M219.452,104.523a17.536,17.536,0,0,1-.062-5.552c.15-.652.375-1.4-.047-1.934a2.075,2.075,0,0,0-.673-.491c-.484-.258-.976-.5-1.48-.715a4.557,4.557,0,0,0-1.643-.452,5.136,5.136,0,0,0-1.99.479,1.957,1.957,0,0,0-1.082.738c-.2.381.057.976.51.935a.476.476,0,0,0,.078.742.549.549,0,0,0,.756-.238c.047-.122.057-.283.187-.332a.337.337,0,0,1,.2.008,2.357,2.357,0,0,1,1.669,2.882,8.175,8.175,0,0,1-.945-.68c-.743-.542-1.654-.872-2.347-1.475s-1.014-1.631-2.156-.847a2.57,2.57,0,0,0-.864,1.207,10.488,10.488,0,0,1-.564,1.373c-.137.237-.308.457-.429.7a2.877,2.877,0,0,0-.269,1.055,7.365,7.365,0,0,0,1.83,5.062,4.447,4.447,0,0,0,1.5,1.319,2.129,2.129,0,0,0,1.98,0c.22-.134.432-.33.7-.313a.6.6,0,0,1,.486.692,3.057,3.057,0,0,1-.354.861,3.09,3.09,0,0,0,.1,2.553,7.619,7.619,0,0,0,1.6,2.14,2.1,2.1,0,0,0,1.75.837c.807-.155,1.11-1.065,1.237-1.824a34.417,34.417,0,0,0,.331-8.734m-3.4,3.323a1.031,1.031,0,0,1-.285-1.1c.054-.151.145-.289.2-.44a2,2,0,0,0,.08-.69.863.863,0,0,0-.158-.6c-.349-.379-3.31.676-2.831-.588a.77.77,0,0,1,.673-.378,1.988,1.988,0,0,0,.8-.16c.238-.141.357-.4.549-.6s.559-.306.738-.1a.623.623,0,0,1,.1.2,10.54,10.54,0,0,1,.572,2.231,3.489,3.489,0,0,1-.437,2.224" transform="translate(-165.591 -77.102)" fill="#fff"/>
        <path id="パス_1358" data-name="パス 1358" d="M287.566,47.757a5.253,5.253,0,0,0-2.228-3.033c-1.216-.738-2.282-1.457-3.817-1.32a1.755,1.755,0,0,0-1,.342,1.414,1.414,0,0,0-.4.661,2.6,2.6,0,0,0-.08,1.284,8.437,8.437,0,0,0,.647,1.672,14.026,14.026,0,0,1,.611,1.982q.345,1.334.673,2.671a2.376,2.376,0,0,1,0,1.623,2.617,2.617,0,0,1-.608.708l-2.213,2.017a1.61,1.61,0,0,1-.771.465,1.644,1.644,0,0,1-1.232-.521c-.624-.515-1.252-1.03-1.876-1.545a3.176,3.176,0,0,0-1.284,2.416,3.662,3.662,0,0,1-.14,1.579,2.039,2.039,0,0,0-.2.417,1.038,1.038,0,0,0,.4.868,11.745,11.745,0,0,0,2.9,2.2,1.425,1.425,0,0,0,.856.236c.831-.118.862-1.343,1.6-1.715a1.666,1.666,0,0,1,1.711.45c1.555,1.309,2.246,3.265,3.012,5.084a.732.732,0,0,0,.158.267.64.64,0,0,0,.877-.143,2.063,2.063,0,0,0,.311-.892,4.783,4.783,0,0,1,1.341-2.406,7.368,7.368,0,0,0,1.266-1.284,4.019,4.019,0,0,0,.45-1.7,31.747,31.747,0,0,0,.181-8,24.444,24.444,0,0,0-1.149-4.379m-4.793,11.606c-.106.387-.4,1.111-.926,1.106-.551-.005-.96-.76-1.242-1.112a.74.74,0,0,1-.116-.179c-.1-.26.135-.517.336-.717a7.9,7.9,0,0,0,1.835-2.723A18.356,18.356,0,0,1,282.876,58a4.646,4.646,0,0,1-.1,1.366" transform="translate(-217.546 -35.074)" fill="#fff"/>
        <path id="パス_1359" data-name="パス 1359" d="M363.773,91.327c-.042-.409-.556-.588-.97-.72-1.405-.446-2.593-1.349-3.957-1.9a3.084,3.084,0,0,0-2.039-.228,10.651,10.651,0,0,0-1.436.8c-.448.22-.955.318-1.4.538a.329.329,0,0,0-.176.147.3.3,0,0,0,.036.232c.769,1.615,3.062,1.309,4.412,2.166-.582.551-1.237,1.017-1.775,1.617a10.935,10.935,0,0,0-.75.931c-.116.158-.448.882-.611.938a11.177,11.177,0,0,0,3-1.856,7.141,7.141,0,0,1,3.155-1.563c.792-.116,1.719-.036,2.275-.575a.682.682,0,0,0,.238-.53" transform="translate(-281.269 -71.453)" fill="#fff"/>
        <path id="パス_1360" data-name="パス 1360" d="M414.5,26.9a1.441,1.441,0,0,1,.952.2c.419.388-.693.865-.924,1.1q-.916.93-1.863,1.836c-.321.312-.812.643-1.206.41-.181-.107-.272-.305-.433-.437a.954.954,0,0,0-1.227.156,1.682,1.682,0,0,0-.37,1.208,2.66,2.66,0,0,0,2.159,2.648,4.967,4.967,0,0,0,2.714-.9c3.069-1.613,6.664-2.062,10.158-2.481a1.965,1.965,0,0,0-1.315-1.694,4.383,4.383,0,0,0-2.945.385.621.621,0,0,1-.14-1,2.383,2.383,0,0,1,1.1-.537,1.556,1.556,0,0,0,1-.665c.35-.731-.569-1.429-.782-2.205a1.376,1.376,0,0,0-.166-.478c-.246-.321-.766-.221-1.187-.219a4.221,4.221,0,0,1-2.06-.775,11.772,11.772,0,0,0-5-1.751,8.227,8.227,0,0,1-2.779-.34,2.7,2.7,0,0,0-1.045-.377,1.632,1.632,0,0,0-.761.251,4.544,4.544,0,0,0-1.46,1.178,4.8,4.8,0,0,0-.727,1.618c-1.183,4.176-.44,8.651-1.462,12.865a13.326,13.326,0,0,0-.761,4.332,11.382,11.382,0,0,1,.176,1.665,4.991,4.991,0,0,1-.528,1.72q-.377.862-.764,1.725a2.252,2.252,0,0,0-.277,1.5.9.9,0,0,0,1.281.537,1.191,1.191,0,0,0,.274-.355,30.8,30.8,0,0,0,3.408-11.75c.5-4.058.652-8.156,1.441-12.172,2.024.589,3.4,2.73,5.518,2.8" transform="translate(-320.018 -16.969)" fill="#fff"/>
        <path id="パス_1361" data-name="パス 1361" d="M445.429,98.417a6.037,6.037,0,0,0-1.615-2.319l-3.618.354a4.645,4.645,0,0,1-1.8-.058,1.414,1.414,0,0,1-1.1-1.211c0-.649.652-1.239.471-1.867A.931.931,0,0,0,438.855,93a2.414,2.414,0,0,0,.378-1.084l.108-.637a.536.536,0,0,0,0-.326.515.515,0,0,0-.28-.248,2.592,2.592,0,0,0-1.309-.116,3.213,3.213,0,0,1-1.315-.05.892.892,0,0,1-.673-.945q1.988-.6,3.985-1.2c.093-.19-.072-.417-.285-.488a1.314,1.314,0,0,0-.657.009l-4.9.905c-.367.068-.838.094-1.024-.212a.591.591,0,0,1-.067-.327,1.5,1.5,0,0,1,1.056-1.189,4.785,4.785,0,0,1,1.724-.178c.026-.153.052-.306.072-.459a2.461,2.461,0,0,1,2.547.826,1.263,1.263,0,0,0,.518.365,2.729,2.729,0,0,0,.667,0,2.627,2.627,0,0,1,1.439.738,1.523,1.523,0,0,0,1.527.355,1.624,1.624,0,0,0-.921-1.642,5.437,5.437,0,0,0-2.029-.511c-.161-.424-.316-.848-.471-1.272a14.443,14.443,0,0,0,4.218-.479,1.006,1.006,0,0,0,.378-.161.745.745,0,0,0,.243-.386,2.012,2.012,0,0,0-.026-1.382c-.16-.41-5.025.943-5.538,1.06a34.33,34.33,0,0,1-4.425,1.174c-1,.088-2.019-.1-3.018.039s-2.044.756-2.132,1.694a.316.316,0,0,0,.083.293c.124.1.326.028.481.081a.487.487,0,0,1,.269.364,2.336,2.336,0,0,1-.01,1.345,1.569,1.569,0,0,0-.125.626.868.868,0,0,0,.621.661,2.7,2.7,0,0,0,.983.089,30.553,30.553,0,0,0,3.338-.31l0,1.351c-1.3.44-2.593.879-3.9,1.319a2.317,2.317,0,0,0-.973.516,1.027,1.027,0,0,0-.217,1.046,1.138,1.138,0,0,0,.875.686c.585.094,1.154-.252,1.75-.284a5.786,5.786,0,0,1,1.444.259,1.515,1.515,0,0,0,1.382-.26,1.634,1.634,0,0,1,.046,1.041.918.918,0,0,1-.823.623,1.909,1.909,0,0,0-.487-.011,1.248,1.248,0,0,0-.424.3,2.334,2.334,0,0,1-1.268.374,7.007,7.007,0,0,1-2.484-.06,1.468,1.468,0,0,0-.688-.094c-.538.122-.58.8-.838,1.26-.166.29-.456.53-.5.856-.078.528.512.913,1.03,1.131a2.591,2.591,0,0,0,1.542.262,3.307,3.307,0,0,0,.849-.39,8.452,8.452,0,0,1,3.318-1.017,2.909,2.909,0,0,0,.833-.144c.217-.086.4-.228.605-.324a3.052,3.052,0,0,1,1.051-.206,13.749,13.749,0,0,1,4.073.1,15.145,15.145,0,0,1,3.618,1.574,1.424,1.424,0,0,0,.735.226.883.883,0,0,0,.756-.7,1.836,1.836,0,0,0-.155-1.045" transform="translate(-339.612 -66.959)" fill="#fff"/>
      </g>
    </g>
    <text id="Suisho_goya_Mountain_Hut" data-name="Suisho goya
Mountain Hut" transform="translate(201 4178)" fill="#707070" font-size="14" font-family="ShipporiMinchoB1-Regular, Shippori Mincho B1"><tspan x="-40.656" y="0">Suisho goya</tspan><tspan x="-47.117" y="15">Mountain Hut</tspan></text>
    <line id="線_1182" data-name="線 1182" y2="16" transform="translate(201.5 4213)" fill="none" stroke="#fff" stroke-width="1"/>
  </g>
</svg>
