<?xml version="1.0" encoding="UTF-8"?>
<svg id="_レイヤー_2" data-name="レイヤー 2" xmlns="http://www.w3.org/2000/svg" xmlns:xlink="http://www.w3.org/1999/xlink" viewBox="0 0 103.86 205.77">
  <defs>
    <style>
      .cls-1 {
        isolation: isolate;
      }

      .cls-2 {
        stroke: #fff;
      }

      .cls-2, .cls-3 {
        fill: none;
      }

      .cls-4 {
        fill: #c4c4c4;
      }

      .cls-4, .cls-3, .cls-5 {
        stroke-width: 0px;
      }

      .cls-6 {
        clip-path: url(#clippath-1);
      }

      .cls-5 {
        fill: #fff;
      }

      .cls-7 {
        clip-path: url(#clippath);
      }
    </style>
    <clipPath id="clippath">
      <rect class="cls-3" width="103.86" height="22.22"/>
    </clipPath>
    <clipPath id="clippath-1">
      <rect class="cls-3" x="4.11" y="135" width="95.65" height="70.77"/>
    </clipPath>
  </defs>
  <g id="_レイヤー_1-2" data-name="レイヤー 1">
    <g>
      <g id="_グループ_2720" data-name="グループ 2720">
        <g class="cls-7">
          <g id="_グループ_2248" data-name="グループ 2248">
            <path id="_パス_1328" data-name="パス 1328" class="cls-5" d="m36.27,2.49c.2-.5-.04-1.06-.54-1.26-.48-.2-1.04.03-1.25.5-1.53,3.3-3.9,6.14-6.86,8.25-.46.28-.6.88-.31,1.34.28.46.88.6,1.34.31,0,0,.02-.01.03-.02.75-.48,1.45-1.02,2.12-1.62v11.26c0,.54.43.97.97.97s.97-.43.97-.97V8c1.43-1.67,2.62-3.52,3.54-5.51"/>
            <path id="_パス_1329" data-name="パス 1329" class="cls-5" d="m37.81,8.79h9.66c.54,0,.97-.43.97-.97V2.1c0-.54-.43-.97-.97-.97,0,0,0,0,0,0h-9.65c-.54,0-.97.43-.97.97v5.72c0,.54.43.97.97.97m.97-5.72h7.71v3.78h-7.71v-3.78Z"/>
            <path id="_パス_1330" data-name="パス 1330" class="cls-5" d="m48.43,12.99h-4.75v-1.53h4.75c.54,0,.97-.43.97-.97s-.43-.97-.97-.97h-11.43c-.54,0-.97.43-.97.97s.43.97.97.97h4.75v1.53h-4.75c-.54,0-.97.43-.97.97s.43.97.97.97h4.56c-.71,2-3.26,4.29-4.34,5.11-.43.32-.51.93-.19,1.36.32.43.93.51,1.36.19,1.69-1.29,3.15-2.85,4.32-4.62,1.17,1.77,2.63,3.34,4.32,4.62.43.32,1.04.24,1.36-.19.32-.43.24-1.04-.19-1.36-1.08-.82-3.63-3.11-4.34-5.11h4.56c.54,0,.97-.43.97-.97s-.43-.97-.97-.97"/>
            <path id="_パス_1331" data-name="パス 1331" class="cls-5" d="m73.4,2.53c-.54,0-.97.43-.97.97h0v16.34h-2.05l-5.36-9.8V2.1c0-.54-.43-.97-.97-.97h0s-.05,0-.07,0-.05,0-.07,0c-.54,0-.97.43-.97.97h0v7.94l-5.36,9.8h-2.55V3.51c0-.54-.43-.97-.97-.97-.54,0-.97.43-.97.97h0v17.32c0,.54.43.97.97.97h19.35c.54,0,.97-.43.97-.97h0V3.51c0-.54-.43-.97-.97-.97h0m-9.42,9.66l4.19,7.66h-8.37l4.18-7.66Z"/>
            <path id="_パス_1332" data-name="パス 1332" class="cls-5" d="m88.48,6.9l-.35-.97h8.24l-.17.59c-.16.51.12,1.06.63,1.22.51.16,1.06-.12,1.22-.63,0-.01,0-.03.01-.04l.33-1.14h3.99c.54,0,.97-.43.97-.97s-.43-.97-.97-.97h-3.42l.47-1.62c.16-.51-.12-1.06-.63-1.22-.51-.16-1.06.12-1.22.63,0,.01,0,.03-.01.04l-.63,2.16h-9.5l-.68-1.91c-.17-.51-.73-.78-1.23-.6-.51.17-.78.73-.6,1.23,0,0,0,.02,0,.03l.45,1.26h-3.27c-.54,0-.97.43-.97.97s.43.97.97.97h3.97l.58,1.62c.17.51.73.78,1.23.6.51-.17.78-.73.6-1.23,0,0,0-.02,0-.03"/>
            <path id="_パス_1333" data-name="パス 1333" class="cls-5" d="m102.89,9.82h-6.11v-1.22c0-.54-.43-.97-.97-.97s-.97.43-.97.97v1.22h-5.54c-.54,0-.97.43-.97.97s.43.97.97.97h5.54v8.09h-4.89c-.54,0-.97.43-.97.97s.43.97.97.97h11.72c.54,0,.97-.43.97-.97s-.43-.97-.97-.97h-4.89v-8.09h6.11c.54,0,.97-.43.97-.97s-.43-.97-.97-.97"/>
            <path id="_パス_1334" data-name="パス 1334" class="cls-5" d="m85.85,8.36c-.54,0-.97.43-.97.97h0v1.24l-3.4-1.76c-.47-.26-1.06-.08-1.32.39-.26.47-.08,1.06.39,1.32.01,0,.03.01.04.02l4.29,2.22v2.57l-4.71,1.1c-.53.11-.87.62-.76,1.14s.62.87,1.14.76c.02,0,.04,0,.06-.01l4.27-1v3.5c0,.54.44.97.97.97.53,0,.97-.43.97-.97v-11.48c0-.54-.43-.97-.97-.97h0"/>
            <path id="_パス_1335" data-name="パス 1335" class="cls-5" d="m.56,2.52l3.99,1.83c.5.2,1.06-.05,1.26-.54.18-.46-.01-.99-.45-1.22L1.38.75c-.49-.21-1.06.01-1.28.51-.21.48,0,1.03.47,1.26"/>
            <path id="_パス_1336" data-name="パス 1336" class="cls-5" d="m6.81,9.6c-.49-.21-1.06.02-1.27.52-1.41,3.3-3.2,6.44-5.33,9.33-.34.42-.27,1.03.15,1.37.42.34,1.03.27,1.37-.15,2.25-3.03,4.13-6.32,5.61-9.8.21-.49-.02-1.06-.52-1.27"/>
            <path id="_パス_1337" data-name="パス 1337" class="cls-5" d="m23.48,8.05h-14.45c-.54,0-.97.43-.97.97s.43.97.97.97h1.51c-.06,1.16-.55,4.77-4.18,9.47-.34.42-.28,1.03.14,1.37.42.34,1.03.28,1.37-.14.01-.01.02-.03.03-.04,1.74-2.18,3.08-4.64,3.96-7.29.14.08.29.11.45.12h2.08c-.56,2.03-1.52,3.92-2.83,5.57-.33.42-.26,1.03.16,1.36.41.33,1,.27,1.34-.13,1.59-2,2.73-4.32,3.34-6.8h1.38c-.56,2.03-1.52,3.92-2.83,5.57-.33.42-.26,1.03.16,1.36.41.33,1,.27,1.34-.13,1.59-2,2.73-4.32,3.34-6.8h1.1l-.47,5.6c-.13.22-.54.24-1.12.06-.51-.16-1.06.12-1.22.63s.12,1.06.63,1.22h0c.41.14.84.21,1.27.22.44,0,.87-.1,1.26-.31.53-.29.91-.77,1.08-1.35.01-.05.02-.11.03-.16l.58-6.8c.05-.53-.35-1-.88-1.05-.03,0-.06,0-.08,0h-9.63c.1-.51.15-1.03.18-1.55h11c.54,0,.97-.43.97-.97s-.43-.97-.97-.97"/>
            <path id="_パス_1338" data-name="パス 1338" class="cls-5" d="m10.97,7.01h11.18c.54,0,.97-.43.97-.97h0V.97C23.12.43,22.69,0,22.15,0h0s-11.18,0-11.18,0c-.54,0-.97.43-.97.97h0v5.07c0,.54.43.97.97.97h0m.97-1.94v-1.03c.11.07.23.11.36.11h8.88v.92h-9.24Zm9.24-3.13v.92h-8.88c-.13,0-.25.04-.36.11v-1.03h9.24Z"/>
            <path id="_パス_1339" data-name="パス 1339" class="cls-5" d="m.57,6.31l3.99,1.83c.48.24,1.06.03,1.3-.45.24-.48.03-1.06-.45-1.3-.01,0-.03-.01-.04-.02l-3.99-1.83c-.49-.21-1.06.01-1.28.51-.21.48,0,1.03.47,1.26"/>
          </g>
        </g>
      </g>
      <g id="_グループ_2721" data-name="グループ 2721">
        <g class="cls-6">
          <g id="_グループ_2375" data-name="グループ 2375">
            <path id="_パス_1478" data-name="パス 1478" class="cls-5" d="m93.21,170.28c-3.81-5.85-9.15-10.56-15.44-13.6-5.48-2.8-11.22-5.03-17.15-6.68-1.32-.33-2.62-.77-3.87-1.32-.38-.74-2.21-11.68-3.11-12.84-.74-.95-2.11-1.12-3.06-.37-.14.11-.27.24-.37.37-.9,1.16-2.73,12.1-3.11,12.85-1.25.55-2.54.99-3.87,1.32-5.93,1.64-11.67,3.88-17.15,6.68-6.29,3.04-11.63,7.75-15.44,13.6-4.08,6.42-6.22,14.26-6.54,23.97-.03.79.37,1.53,1.05,1.94,21.14,12.77,72.41,12.77,93.55,0,.67-.41,1.07-1.15,1.05-1.94-.32-9.71-2.46-17.56-6.54-23.98m-29.63-15.63c2.18,2.54,12.27,15.65,16.28,44.65-.6.14-1.23.28-1.86.41-2.46-14.85-5.72-24.41-8.07-29.88-3.85-8.96-6.55-10.7-8.15-10.57-1.32.15-2.27,1.34-2.12,2.65,0,0,0,0,0,0,0,.41,2.56,22.09,4.12,39.85-.67.06-1.36.11-2.05.16-1.25-16.78-4.81-48.3-4.94-49.37.78.27,1.71.54,2.83.88,1.15.34,2.48.73,3.97,1.22m.03,10.67c2.16,3.44,5.55,10.6,8.51,23.11-1.79.33-4.06.72-5.9.9-1.1-11.22-2.59-23.84-2.61-24.01m2.95,27.57c2.03-.19,4.4-.61,6.35-.97.56,2.62,1.09,5.43,1.6,8.48-2.22.39-4.6.74-7.17,1.03-.27-3.01-.52-5.86-.78-8.53m-38.84-33.03c5.28-2.69,10.82-4.84,16.53-6.43,1.12-.33,2.06-.61,2.83-.88-.12,1.07-1.64,14.5-2.26,20.33-.67-15.39-1.44-16.16-2.08-16.79-.61-.61-1.52-.8-2.32-.49-.91.35-1.98,1.16-4.15,6.66-5.86.28-14.42,3.72-21.48,8.32,3.4-4.55,7.83-8.23,12.93-10.73m6.92,18.69c1.6-5.83,3.56-11.55,5.86-17.13.62,6.02,1.25,20.14,1.51,40.5-4.25-.29-8.48-.8-12.67-1.53,1.35-7.37,3.12-14.66,5.31-21.83m-26.93,14.99c.15-5.21,1.13-10.36,2.92-15.25,6.84-6.41,17.59-11.34,24.25-12.29-1.06,3.02-3.72,11.72-3.89,12.28v-.02c-3.24,1.49-5.5,5.03-7.48,8.16-1.97,3.1-3.83,6.03-5.68,5.65-.9-.14-1.6-.85-1.74-1.75-.98-4.08,3.16-10.66,7.64-14.24l-2.23-2.79c-6.3,5.04-10.05,12.7-8.88,17.87.6,2.63,2.93,4.5,5.63,4.53,3.61.06,5.98-3.73,8.28-7.35.86-1.42,1.8-2.79,2.82-4.11-1.59,5.95-2.97,11.82-3.52,15.48-10.14-2.14-16.05-5.03-18.12-6.16m38,8.58c1.25-16.7,6.17-58.91,6.22-59.24.06.33,4.97,42.55,6.22,59.24-4.14.25-8.3.25-12.44,0m36.47-31.57c2.28,2.09,5.58,6.35,7.53,13.5-.88.31-2.03.63-3.04.88-1.29-5.49-4.34-13.97-4.49-14.38m5.24,17.87c.93-.22,2.05-.51,3.08-.86.49,2.72.75,5.47.8,8.22-.82.33-1.72.67-2.72,1.01-.24-2.81-.63-5.61-1.17-8.38m7.41,5.8c-.46-10.18-3.4-16.99-5.91-21.01-2.82-4.53-6.6-7.83-8.97-7.83h0c-.7,0-1.36.33-1.76.9-.88,1.25-.34,2.74,1.09,6.72,3.1,7.99,5.06,16.39,5.82,24.93-.56.17-1.14.33-1.75.5-1.38-10.68-4.16-21.13-8.27-31.09-1.53-3.64-3.35-7.15-5.46-10.49,2.01.82,4.19,1.81,6.52,3.01,12.9,6.64,19.27,17.35,20.01,33.69-.34.19-.78.42-1.32.69"/>
          </g>
        </g>
      </g>
      <g id="Yumata_sannso_Mountain_Hut" data-name="Yumata sannso Mountain Hut" class="cls-1">
        <g class="cls-1">
          <path class="cls-4" d="m8.16,59c-.08,0-.11-.07-.11-.2s.04-.2.11-.2h.21c.42,0,.73-.07.92-.21.19-.14.29-.36.29-.67v-1.95c0-.12-.03-.24-.08-.36l-1.27-2.44c-.31-.59-.6-1.15-.88-1.69-.28-.54-.49-.94-.63-1.2-.31-.58-.71-.87-1.19-.87h-.22c-.06,0-.1-.06-.1-.2s.03-.2.1-.2h3.82s.08.02.09.05c.01.03.02.08.02.15,0,.13-.04.2-.11.2h-.22c-.73,0-1.09.17-1.09.5,0,.1.04.23.11.38l1.32,2.45.98,1.82c.07.1.14.15.21.15.07,0,.14-.05.2-.15.33-.61.69-1.29,1.09-2.06.4-.77.74-1.41,1.01-1.93.08-.17.11-.3.11-.41,0-.24-.12-.43-.35-.56s-.45-.2-.66-.2h-.24c-.07,0-.1-.06-.1-.2s.03-.2.1-.2h3.5s.08.02.09.05c.01.03.02.08.02.15,0,.13-.04.2-.11.2h-.21c-.24,0-.51.1-.79.31s-.52.48-.71.83c-.33.6-.75,1.37-1.26,2.33-.51.96-.95,1.77-1.3,2.43-.07.12-.1.24-.1.36v2.24c0,.33.1.56.3.69.2.13.5.2.9.2h.21c.08,0,.11.07.11.2s-.04.2-.11.2h-3.96Z"/>
          <path class="cls-4" d="m23.19,58.51s.05.07.05.13c0,.09-.03.15-.1.17l-1.67.27h-.08c-.15.01-.22-.08-.22-.27v-.41c0-.16-.05-.24-.15-.24-.07,0-.13.04-.2.11-.55.57-1.18.85-1.89.85-.8,0-1.38-.21-1.71-.62-.34-.41-.51-.91-.51-1.51v-3.26c-.01-.2-.06-.34-.15-.43-.09-.09-.2-.15-.33-.18-.13-.03-.33-.06-.59-.08-.07,0-.1-.03-.12-.06-.01-.03-.02-.07-.02-.12,0-.1.03-.16.08-.18.18-.06.44-.13.78-.21s.67-.16,1-.24c.03,0,.06-.01.1-.01.15,0,.22.09.22.27v1.75c0,1.51,0,2.38.01,2.6.02.43.14.8.36,1.13.22.32.59.48,1.1.48.34,0,.68-.09,1.01-.27.33-.18.62-.45.86-.81.07-.11.11-.23.11-.36l-.06-3.25c0-.2-.04-.34-.13-.43-.09-.09-.19-.15-.32-.18-.12-.03-.32-.06-.6-.1-.08,0-.12-.08-.12-.22,0-.06.03-.11.08-.13.18-.06.44-.13.78-.21s.67-.16.99-.24c.03,0,.06-.01.1-.01.15,0,.22.09.22.27l.03,5.32c0,.35.19.56.56.63.11.02.21.03.29.03.12,0,.2.01.23.04Z"/>
          <path class="cls-4" d="m36.62,58.62c.07,0,.11.07.11.2,0,.12-.04.18-.11.18h-3.14c-.07,0-.1-.06-.1-.18,0-.07,0-.11.02-.15.01-.03.04-.05.08-.05h.18c.27,0,.49-.04.65-.11.16-.07.24-.23.24-.48v-1.9c0-.66,0-1.19-.03-1.58-.04-1.14-.52-1.71-1.44-1.71-.37,0-.71.09-1.05.28s-.63.47-.88.85c-.07.09-.1.17-.1.24v.07c0,.15.01.44.01.87,0,.77-.02,1.74-.06,2.88,0,.23.08.39.25.47s.39.12.66.12h.18c.06,0,.1.07.1.2,0,.12-.03.18-.1.18h-3.14c-.07,0-.11-.06-.11-.18,0-.13.04-.2.11-.2h.18c.27,0,.49-.04.65-.11.16-.07.24-.23.24-.48v-1.83c0-.71,0-1.26-.03-1.65-.04-1.14-.52-1.71-1.44-1.71-.36,0-.71.09-1.04.27-.33.18-.62.46-.88.83-.07.12-.1.24-.1.36v3.72c-.01.23.07.39.24.47s.39.12.66.12h.18c.08,0,.11.07.11.2,0,.12-.04.18-.11.18h-3.13c-.07,0-.1-.06-.1-.18,0-.07,0-.11.02-.15.01-.03.04-.05.08-.05h.18c.27,0,.49-.04.66-.12s.25-.24.25-.47l-.06-4.27c0-.2-.04-.34-.13-.43s-.2-.15-.32-.18c-.12-.03-.32-.06-.59-.1-.08,0-.13-.08-.13-.22,0-.07.02-.11.07-.13.19-.06.45-.13.8-.22.34-.09.68-.17,1.01-.25.03,0,.06-.01.1-.01.15,0,.22.09.22.27v.39c0,.16.05.24.14.24.06,0,.13-.04.21-.13.53-.56,1.15-.84,1.86-.84.5,0,.92.1,1.26.31s.59.48.77.83c.04.1.09.15.15.15.06,0,.12-.04.18-.11.6-.78,1.31-1.18,2.14-1.18.73,0,1.28.21,1.67.62.38.41.59.92.62,1.51,0,.15.01.44.01.87,0,.77-.02,1.74-.06,2.88,0,.23.08.39.25.47s.39.12.66.12h.18Z"/>
          <path class="cls-4" d="m44.76,57.98v.08c-.15.4-.36.69-.64.85-.28.17-.55.25-.8.25-.23,0-.43-.06-.6-.18s-.3-.29-.39-.5c-.05-.11-.11-.17-.17-.17-.04,0-.09.03-.17.08-.32.26-.67.46-1.07.59-.4.13-.79.2-1.17.2-.54,0-.98-.13-1.31-.38-.33-.25-.5-.6-.5-1.04,0-.35.07-.64.22-.9s.39-.48.73-.67c.21-.12.46-.23.78-.33.31-.1.74-.22,1.29-.37.49-.13.82-.22.98-.27.17-.05.25-.15.25-.32v-.35c0-.45-.02-.78-.07-.99s-.14-.41-.28-.57c-.21-.25-.56-.38-1.05-.38-.35,0-.61.08-.78.25s-.33.42-.45.77c-.16.45-.39.67-.69.67-.17,0-.32-.05-.46-.16s-.2-.25-.2-.43.06-.39.19-.62c.13-.24.38-.46.77-.66.39-.2.94-.3,1.66-.3.42,0,.82.07,1.2.22s.65.32.8.54c.14.2.24.4.29.61s.08.46.08.75c0,.44,0,.83-.01,1.16v2.03c-.01.38.06.64.2.77.14.13.29.2.43.2.12,0,.25-.04.39-.12.14-.08.25-.2.34-.36.03-.05.06-.07.1-.07.08,0,.11.03.11.1Zm-3.59.36c.31-.13.59-.31.85-.55.09-.1.14-.16.14-.18h0s.03-1.55.03-1.55c0-.11-.03-.19-.09-.24-.06-.05-.14-.06-.25-.03-.96.24-1.66.49-2.11.75s-.67.61-.67,1.06c0,.26.09.48.27.67s.48.27.9.27c.3,0,.6-.06.92-.19Z"/>
          <path class="cls-4" d="m46.61,58.8c-.28-.27-.41-.67-.41-1.22v-4.48c0-.09-.03-.17-.08-.22-.05-.05-.12-.08-.22-.08h-.55c-.09,0-.17-.02-.22-.07-.05-.05-.08-.11-.08-.2,0-.15.08-.26.24-.34.41-.16.73-.41.97-.76.23-.35.42-.9.57-1.66.05-.19.12-.28.21-.28.1,0,.15.1.15.29v2.2c0,.09.03.17.08.22s.12.08.22.08h1.25c.2,0,.29.08.29.25,0,.08-.03.15-.08.2-.05.05-.12.07-.22.07h-1.26c-.09,0-.17.03-.22.08-.05.05-.08.12-.08.22v4.4c.02.32.11.57.28.76s.38.29.64.29c.21,0,.39-.03.53-.1.13-.07.27-.17.4-.32.05-.06.09-.08.14-.08s.09.02.13.07c.04.05.06.09.06.14,0,.04,0,.07-.03.1-.37.57-.89.85-1.55.85-.51,0-.91-.13-1.18-.4Z"/>
          <path class="cls-4" d="m57.03,57.98v.08c-.15.4-.36.69-.64.85-.28.17-.55.25-.8.25-.23,0-.43-.06-.6-.18s-.3-.29-.39-.5c-.06-.11-.11-.17-.17-.17-.04,0-.09.03-.17.08-.32.26-.67.46-1.07.59-.4.13-.79.2-1.17.2-.54,0-.98-.13-1.31-.38s-.5-.6-.5-1.04c0-.35.07-.64.22-.9.15-.25.39-.48.73-.67.21-.12.46-.23.78-.33.31-.1.74-.22,1.29-.37.5-.13.82-.22.98-.27.17-.05.25-.15.25-.32v-.35c0-.45-.02-.78-.07-.99s-.14-.41-.28-.57c-.21-.25-.56-.38-1.05-.38-.34,0-.61.08-.78.25-.18.17-.33.42-.45.77-.16.45-.39.67-.69.67-.17,0-.32-.05-.46-.16-.13-.11-.2-.25-.2-.43s.06-.39.19-.62c.13-.24.38-.46.77-.66.39-.2.94-.3,1.66-.3.42,0,.82.07,1.2.22.38.14.65.32.8.54.14.2.24.4.29.61.05.21.08.46.08.75,0,.44,0,.83-.01,1.16v2.03c-.01.38.06.64.2.77.14.13.29.2.43.2.12,0,.25-.04.39-.12.13-.08.25-.2.34-.36.03-.05.06-.07.1-.07.08,0,.11.03.11.1Zm-3.59.36c.31-.13.6-.31.85-.55.09-.1.14-.16.14-.18h0s.03-1.55.03-1.55c0-.11-.03-.19-.09-.24-.06-.05-.14-.06-.24-.03-.96.24-1.66.49-2.11.75s-.67.61-.67,1.06c0,.26.09.48.27.67.18.18.48.27.9.27.3,0,.6-.06.92-.19Z"/>
          <path class="cls-4" d="m62.17,59.06c-.09,0-.15-.06-.18-.2l-.42-1.71v-.07c-.01-.06.02-.1.1-.14.02,0,.04-.01.07-.01.07,0,.12.04.17.11.22.29.44.55.66.78s.52.44.92.64c.4.2.85.3,1.36.3.42,0,.76-.12,1.03-.36.27-.24.4-.54.4-.9,0-.21-.06-.41-.18-.59-.12-.18-.29-.32-.52-.42-.23-.11-.7-.27-1.41-.48-.36-.08-.66-.17-.88-.27-.92-.38-1.39-.96-1.39-1.74,0-.21.05-.45.16-.73.11-.29.31-.54.62-.78.3-.23.73-.35,1.28-.35.3,0,.56.04.78.1.22.07.35.11.39.12.18.07.29.1.35.1.18,0,.35-.06.52-.18.08-.06.15-.08.2-.08.08,0,.13.06.17.17l.46,1.5s0,.04.01.08c0,.04,0,.08-.03.1l-.07.06s-.05.01-.08.01c-.06,0-.11-.02-.15-.07-.34-.38-.71-.72-1.11-1.01-.4-.29-.9-.44-1.48-.44-.31,0-.56.06-.76.18s-.35.27-.43.43c-.09.17-.13.33-.13.48,0,.21.07.38.2.52.13.15.36.29.67.44.2.1.57.23,1.13.39.61.19,1.05.34,1.33.46.82.37,1.23.94,1.23,1.69,0,.59-.22,1.07-.66,1.43-.44.37-1.04.55-1.79.55-.4,0-.91-.1-1.51-.29-.22-.07-.36-.1-.41-.1-.11,0-.24.05-.39.15-.07.07-.13.1-.2.1Z"/>
          <path class="cls-4" d="m75.33,57.98v.08c-.15.4-.36.69-.64.85s-.55.25-.8.25c-.23,0-.43-.06-.6-.18s-.3-.29-.39-.5c-.06-.11-.11-.17-.17-.17-.04,0-.09.03-.17.08-.32.26-.67.46-1.07.59-.4.13-.79.2-1.17.2-.54,0-.98-.13-1.31-.38-.33-.25-.5-.6-.5-1.04,0-.35.08-.64.22-.9.15-.25.39-.48.73-.67.21-.12.46-.23.78-.33.31-.1.74-.22,1.29-.37.49-.13.82-.22.98-.27.17-.05.25-.15.25-.32v-.35c0-.45-.02-.78-.07-.99-.05-.21-.14-.41-.28-.57-.21-.25-.55-.38-1.05-.38-.35,0-.61.08-.79.25-.18.17-.33.42-.45.77-.16.45-.39.67-.69.67-.17,0-.32-.05-.46-.16-.14-.11-.2-.25-.2-.43s.06-.39.19-.62c.13-.24.38-.46.77-.66.39-.2.94-.3,1.66-.3.42,0,.82.07,1.2.22.38.14.65.32.8.54.14.2.24.4.29.61.05.21.08.46.08.75,0,.44,0,.83-.01,1.16v2.03c-.01.38.06.64.2.77.14.13.29.2.43.2.12,0,.25-.04.38-.12.14-.08.25-.2.34-.36.03-.05.06-.07.1-.07.07,0,.11.03.11.1Zm-3.59.36c.31-.13.59-.31.85-.55.09-.1.14-.16.14-.18h0s.03-1.55.03-1.55c0-.11-.03-.19-.09-.24-.06-.05-.14-.06-.25-.03-.96.24-1.66.49-2.11.75s-.67.61-.67,1.06c0,.26.09.48.27.67s.48.27.9.27c.3,0,.6-.06.92-.19Z"/>
          <path class="cls-4" d="m83.76,58.62c.08,0,.11.07.11.2,0,.12-.04.18-.11.18h-3.13c-.07,0-.1-.06-.1-.18,0-.13.03-.2.1-.2h.2c.27,0,.49-.04.64-.11.16-.07.24-.23.24-.48v-2.6s-.03-.9-.03-.9c0-.5-.11-.9-.33-1.23-.22-.32-.59-.48-1.11-.48-.36,0-.7.09-1.03.27-.33.18-.62.46-.88.83-.07.12-.1.24-.1.36v3.74c-.01.23.07.39.24.47s.39.12.66.12h.18c.06,0,.1.07.1.2,0,.12-.03.18-.1.18h-3.14c-.07,0-.11-.06-.11-.18,0-.13.04-.2.11-.2h.18c.27,0,.49-.04.66-.12s.25-.24.25-.47l-.04-4.28c0-.2-.04-.34-.13-.43-.09-.09-.2-.15-.32-.18-.13-.03-.33-.06-.61-.1-.06,0-.09-.03-.11-.06-.01-.03-.02-.09-.02-.16,0-.06.02-.11.07-.13.19-.06.45-.13.8-.21s.68-.16,1.01-.24c.02,0,.05-.01.1-.01.15,0,.22.09.22.27v.38c0,.16.05.24.14.24.07,0,.14-.04.21-.11.53-.56,1.15-.84,1.85-.84.74,0,1.29.2,1.67.61.38.41.58.91.61,1.5,0,.17.01.5.01,1.01,0,.76-.01,1.68-.04,2.76,0,.24.08.4.25.48.16.08.38.11.65.11h.18Z"/>
          <path class="cls-4" d="m85.72,59.06c-.09,0-.15-.06-.18-.2l-.42-1.71v-.07c-.01-.06.02-.1.1-.14.02,0,.04-.01.07-.01.07,0,.12.04.17.11.22.29.44.55.66.78.21.23.52.44.92.64.4.2.85.3,1.37.3.42,0,.76-.12,1.03-.36.27-.24.4-.54.4-.9,0-.21-.06-.41-.18-.59-.12-.18-.29-.32-.52-.42-.23-.11-.7-.27-1.41-.48-.36-.08-.66-.17-.88-.27-.92-.38-1.39-.96-1.39-1.74,0-.21.05-.45.16-.73.11-.29.31-.54.62-.78.3-.23.73-.35,1.28-.35.3,0,.56.04.78.1.22.07.35.11.38.12.18.07.29.1.35.1.18,0,.35-.06.52-.18.08-.06.15-.08.2-.08.07,0,.13.06.17.17l.46,1.5s0,.04.01.08,0,.08-.03.1l-.07.06s-.05.01-.08.01c-.05,0-.11-.02-.15-.07-.34-.38-.71-.72-1.11-1.01-.4-.29-.9-.44-1.48-.44-.31,0-.56.06-.76.18-.2.12-.35.27-.43.43s-.13.33-.13.48c0,.21.07.38.2.52.14.15.36.29.67.44.2.1.57.23,1.13.39.61.19,1.05.34,1.33.46.82.37,1.23.94,1.23,1.69,0,.59-.22,1.07-.66,1.43-.44.37-1.04.55-1.79.55-.4,0-.91-.1-1.51-.29-.22-.07-.36-.1-.41-.1-.11,0-.24.05-.39.15-.07.07-.13.1-.2.1Z"/>
          <path class="cls-4" d="m93.61,58.67c-.5-.35-.88-.8-1.15-1.34-.27-.54-.4-1.09-.4-1.65,0-.6.13-1.17.39-1.71.26-.54.64-.98,1.14-1.32.5-.34,1.08-.5,1.76-.5s1.26.17,1.76.5c.5.34.89.77,1.15,1.32.27.54.4,1.11.4,1.71,0,.56-.13,1.11-.4,1.65s-.65.99-1.15,1.34c-.5.35-1.09.53-1.76.53s-1.24-.17-1.74-.53Zm3.32-.83c.39-.57.58-1.29.58-2.16,0-.91-.19-1.65-.57-2.21-.38-.55-.91-.83-1.58-.83s-1.19.28-1.57.84c-.38.56-.57,1.29-.57,2.2,0,.56.09,1.07.26,1.53.17.46.42.83.74,1.09.32.27.7.4,1.14.4.66,0,1.19-.29,1.58-.86Z"/>
        </g>
        <g class="cls-1">
          <path class="cls-4" d="m5.39,74c-.08,0-.11-.07-.11-.21,0-.12.04-.18.11-.18h.2c.31,0,.59-.11.84-.32s.38-.48.38-.8v-7.39c0-.33-.1-.55-.29-.68s-.5-.19-.93-.19h-.2c-.07,0-.1-.06-.1-.2s.03-.2.1-.2h2.37c.18,0,.29.08.35.22l3.18,7.59c.04.12.1.18.2.18.07,0,.14-.06.2-.18l3.35-7.59c.07-.15.18-.22.34-.22h2.25s.08.02.09.05c.01.03.02.08.02.15,0,.13-.04.2-.11.2h-.21c-.44,0-.75.07-.92.2-.18.13-.27.36-.27.67v7.63c0,.33.09.56.28.69s.49.2.91.2h.21c.07,0,.1.06.1.18,0,.14-.03.21-.1.21h-3.93c-.06,0-.08-.07-.08-.21,0-.12.03-.18.08-.18h.24c.43,0,.74-.07.92-.2.19-.14.28-.36.28-.68v-6.72c0-.08-.01-.15-.04-.19-.03-.04-.07-.06-.11-.06-.08,0-.14.06-.2.18l-3.4,7.84c-.07.15-.13.22-.18.22s-.12-.07-.18-.22l-3.32-7.83c-.06-.12-.12-.18-.18-.18-.05,0-.08.02-.11.06-.03.04-.04.1-.04.19v6.47c0,.32.13.58.39.8s.53.32.81.32h.22c.06,0,.08.06.08.18,0,.14-.03.21-.08.21h-3.39Z"/>
          <path class="cls-4" d="m20.92,73.67c-.5-.35-.88-.8-1.15-1.34s-.4-1.09-.4-1.65c0-.6.13-1.17.39-1.71.26-.54.64-.98,1.14-1.32.5-.34,1.08-.5,1.76-.5s1.26.17,1.76.5c.5.34.89.77,1.16,1.32.27.54.4,1.11.4,1.71,0,.56-.13,1.11-.4,1.65-.27.54-.65.99-1.16,1.34-.5.35-1.09.53-1.76.53s-1.24-.17-1.74-.53Zm3.32-.83c.39-.57.58-1.29.58-2.16,0-.91-.19-1.65-.57-2.21-.38-.55-.91-.83-1.58-.83s-1.19.28-1.57.84c-.38.56-.57,1.29-.57,2.2,0,.56.09,1.07.26,1.53.17.46.42.83.74,1.09.32.27.7.4,1.14.4.66,0,1.19-.29,1.58-.86Z"/>
          <path class="cls-4" d="m34.53,73.51s.05.07.05.13c0,.09-.03.15-.1.17l-1.67.27h-.08c-.15.01-.22-.08-.22-.27v-.41c0-.16-.05-.24-.15-.24-.06,0-.13.04-.2.11-.55.57-1.18.85-1.89.85-.8,0-1.37-.21-1.71-.62-.34-.41-.51-.91-.51-1.51v-3.26c-.01-.2-.06-.34-.15-.43-.09-.09-.2-.15-.33-.18-.13-.03-.33-.06-.59-.08-.07,0-.11-.03-.12-.06-.01-.03-.02-.07-.02-.12,0-.1.03-.16.08-.18.18-.06.44-.13.78-.21.34-.08.67-.16,1-.24.03,0,.06-.01.1-.01.15,0,.22.09.22.27v1.75c0,1.51,0,2.38.01,2.6.02.43.14.8.36,1.13.22.32.59.48,1.1.48.34,0,.68-.09,1.01-.27.33-.18.62-.45.86-.81.08-.11.11-.23.11-.36l-.06-3.25c0-.2-.04-.34-.13-.43-.09-.09-.19-.15-.31-.18-.12-.03-.32-.06-.6-.1-.08,0-.13-.08-.13-.22,0-.06.03-.11.08-.13.18-.06.44-.13.78-.21.34-.08.67-.16.99-.24.03,0,.06-.01.1-.01.15,0,.22.09.22.27l.03,5.32c0,.35.19.56.56.63.11.02.21.03.29.03.12,0,.2.01.23.04Z"/>
          <path class="cls-4" d="m43.44,73.62c.08,0,.11.07.11.2,0,.12-.04.18-.11.18h-3.13c-.07,0-.1-.06-.1-.18,0-.13.03-.2.1-.2h.2c.27,0,.49-.04.64-.11.16-.07.24-.23.24-.48v-2.6s-.03-.9-.03-.9c0-.5-.11-.9-.33-1.23-.22-.32-.59-.48-1.11-.48-.36,0-.7.09-1.03.27-.33.18-.62.46-.88.83-.07.12-.1.24-.1.36v3.74c-.01.23.07.39.24.47s.39.12.66.12h.18c.06,0,.1.07.1.2,0,.12-.03.18-.1.18h-3.14c-.07,0-.11-.06-.11-.18,0-.13.04-.2.11-.2h.18c.27,0,.49-.04.66-.12s.25-.24.25-.47l-.04-4.28c0-.2-.04-.34-.13-.43-.09-.09-.2-.15-.32-.18-.13-.03-.33-.06-.61-.1-.06,0-.09-.03-.11-.06-.01-.03-.02-.09-.02-.16,0-.06.02-.11.07-.13.19-.06.45-.13.8-.21s.68-.16,1.01-.24c.02,0,.05-.01.1-.01.15,0,.22.09.22.27v.38c0,.16.05.24.14.24.07,0,.14-.04.21-.11.53-.56,1.15-.84,1.85-.84.74,0,1.29.2,1.67.61.38.41.58.91.61,1.5,0,.17.01.5.01,1.01,0,.76-.01,1.68-.04,2.76,0,.24.08.4.25.48.16.08.38.11.65.11h.18Z"/>
          <path class="cls-4" d="m45.73,73.8c-.28-.27-.41-.67-.41-1.22v-4.48c0-.09-.03-.17-.08-.22s-.12-.08-.22-.08h-.54c-.09,0-.17-.02-.22-.07-.05-.05-.08-.11-.08-.2,0-.15.08-.26.24-.34.41-.16.73-.41.97-.76.23-.35.42-.9.57-1.66.05-.19.12-.28.21-.28.1,0,.15.1.15.29v2.2c0,.09.03.17.08.22.05.05.12.08.22.08h1.25c.2,0,.29.08.29.25,0,.08-.03.15-.08.2-.05.05-.12.07-.22.07h-1.26c-.09,0-.17.03-.22.08-.05.05-.08.12-.08.22v4.4c.02.32.11.57.28.76s.38.29.64.29c.21,0,.39-.03.52-.1s.27-.17.4-.32c.05-.06.09-.08.14-.08s.09.02.13.07c.04.05.06.09.06.14,0,.04,0,.07-.03.1-.37.57-.89.85-1.55.85-.51,0-.91-.13-1.18-.4Z"/>
          <path class="cls-4" d="m56.15,72.98v.08c-.15.4-.36.69-.64.85-.28.17-.55.25-.8.25-.23,0-.43-.06-.6-.18s-.3-.29-.39-.5c-.06-.11-.11-.17-.17-.17-.04,0-.09.03-.17.08-.32.26-.67.46-1.07.59-.4.13-.79.2-1.17.2-.54,0-.98-.13-1.31-.38s-.5-.6-.5-1.04c0-.35.07-.64.22-.9.15-.25.39-.48.73-.67.21-.12.46-.23.78-.33.31-.1.74-.22,1.29-.37.5-.13.82-.22.98-.27.17-.05.25-.15.25-.32v-.35c0-.45-.02-.78-.07-.99s-.14-.41-.28-.57c-.21-.25-.56-.38-1.05-.38-.34,0-.61.08-.78.25-.18.17-.33.42-.45.77-.16.45-.39.67-.69.67-.17,0-.32-.05-.46-.16-.13-.11-.2-.25-.2-.43s.06-.39.19-.62c.13-.24.38-.46.77-.66.39-.2.94-.3,1.66-.3.42,0,.82.07,1.2.22.38.14.65.32.8.54.14.2.24.4.29.61.05.21.08.46.08.75,0,.44,0,.83-.01,1.16v2.03c-.01.38.06.64.2.77.14.13.29.2.43.2.12,0,.25-.04.39-.12.13-.08.25-.2.34-.36.03-.05.06-.07.1-.07.08,0,.11.03.11.1Zm-3.59.36c.31-.13.6-.31.85-.55.09-.1.14-.16.14-.18h0s.03-1.55.03-1.55c0-.11-.03-.19-.09-.24-.06-.05-.14-.06-.24-.03-.96.24-1.66.49-2.11.75s-.67.61-.67,1.06c0,.26.09.48.27.67.18.18.48.27.9.27.3,0,.6-.06.92-.19Z"/>
          <path class="cls-4" d="m57.01,74c-.08,0-.11-.07-.11-.2s.04-.2.11-.2h.18c.27,0,.49-.04.65-.11.16-.07.25-.23.25-.48l-.04-4.27c0-.2-.04-.34-.13-.43-.09-.09-.19-.15-.31-.18-.12-.02-.32-.05-.61-.09-.06,0-.09-.02-.11-.04s-.02-.06-.02-.13c0-.05,0-.09.01-.13,0-.04.03-.06.06-.07.19-.06.45-.13.8-.21.34-.08.68-.16,1.01-.24.02,0,.05-.01.1-.01.15,0,.22.09.22.27v5.53c-.01.24.07.4.23.48.16.08.38.11.66.11h.18c.07,0,.1.07.1.2s-.03.2-.1.2h-3.14Zm.88-8.88c-.16-.16-.24-.35-.24-.59s.08-.43.24-.59c.16-.16.35-.24.59-.24s.43.08.59.24c.16.16.24.35.24.59s-.08.43-.24.59c-.16.16-.35.24-.59.24s-.43-.08-.59-.24Z"/>
          <path class="cls-4" d="m69.02,73.62c.07,0,.11.07.11.2,0,.12-.04.18-.11.18h-3.14c-.07,0-.1-.06-.1-.18,0-.13.03-.2.1-.2h.2c.27,0,.48-.04.64-.11.16-.07.24-.23.24-.48v-2.6s-.03-.9-.03-.9c0-.5-.11-.9-.33-1.23-.22-.32-.59-.48-1.11-.48-.36,0-.7.09-1.03.27-.33.18-.62.46-.88.83-.07.12-.1.24-.1.36v3.74c-.01.23.07.39.24.47s.39.12.66.12h.18c.07,0,.1.07.1.2,0,.12-.03.18-.1.18h-3.14c-.07,0-.11-.06-.11-.18,0-.13.04-.2.11-.2h.18c.27,0,.49-.04.66-.12s.25-.24.25-.47l-.04-4.28c0-.2-.04-.34-.13-.43-.09-.09-.2-.15-.32-.18-.13-.03-.33-.06-.61-.1-.06,0-.09-.03-.11-.06-.01-.03-.02-.09-.02-.16,0-.06.02-.11.07-.13.19-.06.45-.13.8-.21.34-.08.68-.16,1.01-.24.02,0,.05-.01.1-.01.15,0,.22.09.22.27v.38c0,.16.05.24.14.24.07,0,.14-.04.21-.11.53-.56,1.15-.84,1.85-.84.74,0,1.29.2,1.67.61.38.41.58.91.61,1.5,0,.17.01.5.01,1.01,0,.76-.01,1.68-.04,2.76,0,.24.08.4.25.48.16.08.38.11.65.11h.18Z"/>
          <path class="cls-4" d="m84.79,73.61s.08.02.09.05c.01.03.02.08.02.15,0,.13-.04.2-.11.2h-3.96c-.07,0-.1-.07-.1-.2s.03-.2.1-.2h.22c.42,0,.73-.07.92-.2.19-.14.29-.36.29-.67v-3.49c0-.09-.03-.17-.08-.22-.05-.05-.12-.08-.22-.08h-5.04c-.09,0-.17.03-.22.08-.05.05-.08.12-.08.22v3.47c0,.33.09.55.28.68s.5.19.92.19h.21s.08.02.09.05c.01.03.02.08.02.15,0,.13-.04.2-.11.2h-3.96c-.07,0-.1-.07-.1-.2s.03-.2.1-.2h.22c.42,0,.73-.07.92-.2.19-.13.29-.36.29-.67v-7.63c0-.33-.1-.55-.29-.69-.2-.13-.5-.2-.91-.2h-.22c-.07,0-.1-.07-.1-.2s.03-.2.1-.2h3.96s.08.02.09.05c.01.03.02.08.02.15,0,.13-.04.2-.11.2h-.21c-.44,0-.75.07-.93.2s-.27.36-.27.69v3.04c0,.09.03.17.08.22.05.05.12.08.22.08h5.04c.09,0,.17-.03.22-.08.05-.05.08-.12.08-.22v-3.02c0-.33-.1-.56-.29-.69-.2-.13-.5-.2-.91-.2h-.22c-.07,0-.1-.06-.1-.2s.03-.2.1-.2h3.96s.08.02.09.05c.01.03.02.08.02.15,0,.13-.04.2-.11.2h-.21c-.44,0-.75.07-.93.2s-.27.36-.27.69v7.63c0,.33.09.55.28.68s.5.19.92.19h.21Z"/>
          <path class="cls-4" d="m93.48,73.51s.05.07.05.13c0,.09-.03.15-.1.17l-1.67.27h-.08c-.15.01-.22-.08-.22-.27v-.41c0-.16-.05-.24-.15-.24-.06,0-.13.04-.2.11-.55.57-1.18.85-1.89.85-.8,0-1.37-.21-1.71-.62-.34-.41-.51-.91-.51-1.51v-3.26c-.01-.2-.06-.34-.15-.43-.09-.09-.2-.15-.33-.18-.13-.03-.33-.06-.59-.08-.07,0-.11-.03-.12-.06-.01-.03-.02-.07-.02-.12,0-.1.03-.16.08-.18.18-.06.44-.13.78-.21.34-.08.67-.16,1-.24.03,0,.06-.01.1-.01.15,0,.22.09.22.27v1.75c0,1.51,0,2.38.01,2.6.02.43.14.8.36,1.13.22.32.59.48,1.1.48.34,0,.68-.09,1.01-.27.33-.18.62-.45.86-.81.08-.11.11-.23.11-.36l-.06-3.25c0-.2-.04-.34-.13-.43-.09-.09-.19-.15-.31-.18-.12-.03-.32-.06-.6-.1-.08,0-.13-.08-.13-.22,0-.06.03-.11.08-.13.18-.06.44-.13.78-.21.34-.08.67-.16.99-.24.03,0,.06-.01.1-.01.15,0,.22.09.22.27l.03,5.32c0,.35.19.56.56.63.11.02.21.03.29.03.12,0,.2.01.23.04Z"/>
          <path class="cls-4" d="m95.82,73.8c-.28-.27-.41-.67-.41-1.22v-4.48c0-.09-.03-.17-.08-.22-.05-.05-.12-.08-.22-.08h-.55c-.09,0-.17-.02-.22-.07-.05-.05-.08-.11-.08-.2,0-.15.08-.26.24-.34.41-.16.73-.41.96-.76.23-.35.43-.9.57-1.66.05-.19.12-.28.21-.28.1,0,.15.1.15.29v2.2c0,.09.03.17.08.22s.12.08.22.08h1.25c.2,0,.29.08.29.25,0,.08-.03.15-.08.2-.05.05-.12.07-.22.07h-1.26c-.09,0-.17.03-.22.08s-.08.12-.08.22v4.4c.02.32.11.57.28.76s.38.29.64.29c.21,0,.39-.03.52-.1.14-.07.27-.17.4-.32.05-.06.09-.08.14-.08s.09.02.13.07c.04.05.06.09.06.14,0,.04,0,.07-.03.1-.37.57-.89.85-1.55.85-.51,0-.91-.13-1.18-.4Z"/>
        </g>
      </g>
      <line id="_線_1246" data-name="線 1246" class="cls-2" x1="51.93" y1="91.5" x2="51.93" y2="107.5"/>
    </g>
  </g>
</svg>