<svg xmlns="http://www.w3.org/2000/svg" xmlns:xlink="http://www.w3.org/1999/xlink" width="123.227" height="225.426" viewBox="0 0 123.227 225.426">
  <defs>
    <clipPath id="clip-path">
      <rect id="長方形_7660" data-name="長方形 7660" width="123.227" height="110.425" fill="#fff"/>
    </clipPath>
    <clipPath id="clip-path-2">
      <rect id="長方形_7715" data-name="長方形 7715" width="99.3" height="38.078" fill="#fff"/>
    </clipPath>
  </defs>
  <g id="グループ_2897" data-name="グループ 2897" transform="translate(-778 -16354)">
    <g id="グループ_2718" data-name="グループ 2718" transform="translate(778 16469)">
      <g id="グループ_2159" data-name="グループ 2159" clip-path="url(#clip-path)">
        <path id="パス_1258" data-name="パス 1258" d="M54.177,29.031c.332-1.082.933-3.411,1.329-4.315s1.235-2.773,1.541-3.449a34.324,34.324,0,0,0,1.659-4.5,10.645,10.645,0,0,0-.086-3.625,18.077,18.077,0,0,0-1.344-3.834c-.349-.648-2.515-4.426-2.64-4.674S52.1.529,52.051.328,52.329.012,52.7,0a11.057,11.057,0,0,1,3.125.439,8.522,8.522,0,0,1,1.97,1.086c.571.44,1.8,1.377,1.8,1.377-.054-.762-.223-1.355.268-1.772a1.978,1.978,0,0,1,1.871-.116,10.014,10.014,0,0,1,2.146.927,12.4,12.4,0,0,0,2.6,1.477,20.7,20.7,0,0,0,3.068-1.254,6.7,6.7,0,0,1,2.432-.827,1.927,1.927,0,0,1,1.453.905,4.475,4.475,0,0,1,.124.9,37.6,37.6,0,0,1,5.5-2.87,3.039,3.039,0,0,1,1.961.186c.078.04.107.224.009.394S77.782,6.195,77.587,6.5s-2.923,5.015-3.32,6.909a5.44,5.44,0,0,0-.1,2.782c.055.3,1.155,3.433,1.482,4.141s1.567,3.673,1.771,4.229.931,3.02,1.065,3.661.635,2.622.635,2.622c1.5-.644,4.072-1.839,4.638-2.138s3.437-1.967,4.015-2.243a4.79,4.79,0,0,1,3.03-.526c1.188.294,1.559.822,1.389,1.721a3.546,3.546,0,0,1-1.477,2.111,6.174,6.174,0,0,0-1.219.936,4.209,4.209,0,0,0,1.715-.754c.775-.52,4.483-3.951,5.605-4.491,1.357-.653,3.242-.65,3.935-.105a1.486,1.486,0,0,1,.324,2.068,15.223,15.223,0,0,1-2.046,2.268,14.622,14.622,0,0,0,4.113-2.278,27.347,27.347,0,0,1,2.764-2.687,4.731,4.731,0,0,1,1.734-.838,3.622,3.622,0,0,1,1.876.26,1.34,1.34,0,0,1,.517,1.41A14.187,14.187,0,0,1,108.9,27.5c-.023.144.189.067.233.03a26.933,26.933,0,0,0,3.7-3.453c.656-1.03,2.711-3.918,3.182-4.657s2.456-3.578,3.058-4.344,2.284-2.81,3.19-3.81,2.3-2.163,2.8-2.056a1.874,1.874,0,0,1,1.224,1.411c.113.982-.789,3.682-2.014,6.884s-3.34,8.049-3.876,9.6-3,9.151-3.361,10.173-1.551,5.525-3.663,8.009-3.139,3.463-6.713,4.693a25.954,25.954,0,0,1-8.7,1.352c-1.838-.028-4.405-.611-6-.621a13.07,13.07,0,0,0-6.007,1.264A11.61,11.61,0,0,0,82.2,54.864a4.12,4.12,0,0,0-.788,1.976c-.051.86-.094,2.066-.083,2.531s.266,2.177.23,2.894-.221,2.761-.221,2.761a4.254,4.254,0,0,1-2.141.785,3.318,3.318,0,0,1-1.791-.291c-.433-.169-2.071-1.156-3.133-1.041a3.585,3.585,0,0,0-2.236,1.172c-.321.4-.941,1.445-1.116,1.61a6.508,6.508,0,0,0-.889,1.005c.713.243,1.205.267,1.73.5a5.142,5.142,0,0,0,2.523.718,5.686,5.686,0,0,0,2.733-.969c.308-.213,1.243-1.457,1.66-1.592s1.633-.537,1.908-.6.472-.224.491-.18-.214.408-.323.724a11.428,11.428,0,0,1-1.284,2.813,15.321,15.321,0,0,1-3.494,3.949,18.62,18.62,0,0,1-5.393,2.392,17.206,17.206,0,0,1-4.079.694,17.959,17.959,0,0,1-5.722-.807,19.389,19.389,0,0,1-5.845-3.464,13.293,13.293,0,0,1-2.991-4.367,15.844,15.844,0,0,1-.91-2.627,5.821,5.821,0,0,1,2.522.874c.389.313,1.14,1.1,1.543,1.511a5.678,5.678,0,0,0,2.829,1.555,5.242,5.242,0,0,0,2.922-.547,10.513,10.513,0,0,1,1.4-.534c.107-.014.128-.122-.115-.319a10.724,10.724,0,0,1-1.208-1.654,3.725,3.725,0,0,0-1.828-1.591,3.862,3.862,0,0,0-2.325-.024,9.117,9.117,0,0,0-1.168.56,2.422,2.422,0,0,1-1.189.252,5.278,5.278,0,0,1-2.188-.7,5.213,5.213,0,0,1-1.441-.92,24.631,24.631,0,0,1-.252-4.063,21.978,21.978,0,0,0-.259-4.874,11.619,11.619,0,0,0-2.023-3.293c-.7-.532-2.414-1.8-3.758-1.856s-3.259.292-6.82.323-8.377-.332-11.99-2.728-5.737-4.421-6.7-6.009a47.246,47.246,0,0,1-3.326-7.4c-.543-1.777-1.992-5.5-2.527-6.92S8.133,15.9,7.755,15.054A33.968,33.968,0,0,1,5.783,8.873,1.754,1.754,0,0,1,6.848,7.022c.911-.057,1.837.493,3.237,2.178s6.305,7.76,7.008,8.71,2.987,4.349,4.334,5.776a26.408,26.408,0,0,0,2.911,2.392c-.85-1.125-1.626-2.163-1.123-3.212a1.775,1.775,0,0,1,1.967-1.183,3.588,3.588,0,0,1,2.378,1.4c.834.839,3.5,3.55,4.141,4.036a5.9,5.9,0,0,0,1.715,1.006c.142-.048-.286-.378-.469-.526s-1.169-.983-1.22-1.644A1.626,1.626,0,0,1,32.739,24.1a3.744,3.744,0,0,1,2.65.035,12.318,12.318,0,0,1,3.236,2.124,28.485,28.485,0,0,0,3.067,2.522,2.951,2.951,0,0,0,1.174.455c.053-.037-.317-.273-.675-.557A4.154,4.154,0,0,1,40.847,26.9a1.487,1.487,0,0,1,.648-1.853,3.694,3.694,0,0,1,3.084-.276A16.4,16.4,0,0,1,49.1,27.243,9.833,9.833,0,0,0,53.134,29.1a3.426,3.426,0,0,0,1.042-.067" transform="translate(-4.387 0)" fill="#fff"/>
        <path id="パス_1259" data-name="パス 1259" d="M231.028,316.011c.529.169,1.81.636,1.958.677s.1.61.372,1.156c.051.1.383.092.417.038a2.652,2.652,0,0,0,.18-.7c.05-.393.459-.188.611-.165s1.622.147,2.6.143a20.172,20.172,0,0,0,2.186-.29c.078.028.064.817.153.981a.321.321,0,0,0,.341.211c.174,0,.328-.12.375-.394s.014-.931.235-1.017,1-.275,1.289-.362.6-.251.68-.177a12.236,12.236,0,0,1-.59,1.723c-.15.469-1.493,4.565-2.182,6.2s-1.953,4.6-2.149,4.943a.917.917,0,0,1-1,.527c-.549-.011-.906-.837-1.281-1.7-.585-1.347-.861-2.068-1.7-4.135s-2.027-5.62-2.2-6.174c-.147-.469-.47-1.541-.3-1.486" transform="translate(-175.235 -239.745)" fill="#fff"/>
        <path id="パス_1260" data-name="パス 1260" d="M231.448,381.306a4.828,4.828,0,0,1-1.045.03.135.135,0,0,1-.064-.08.117.117,0,0,1,.026-.1,1.074,1.074,0,0,1,.392-.182,39.29,39.29,0,0,1,4.292-1.267c4.8-1.033,5.684-1.264,7.369-1.762,1.5-.469,2.73-.89,4.042-1.385,1-.379,1.934-.824,2.924-1.239,1.477-.62,2.948-1.255,4.4-1.922.892-.408,1.753-.887,2.627-1.335,1.507-.772,2.98-1.606,4.438-2.464,1.411-.831,2.808-1.686,4.139-2.645.738-.532,1.5-1.027,2.255-1.537a2.761,2.761,0,0,1,.28-.171c.142-.073.875.981.78,1.1-.123.16-2.032,1.584-2.9,2.22-1.321.973-2.65,1.639-4.043,2.5-.819.506-1.517.812-2.349,1.3-.481.263-1.425.712-2.069,1.052-.691.364-1.346.636-2.059.956-1.478.661-2.242,1.051-3.755,1.628-.8.3-1.511.584-2.305.9-.71.284-1.779.7-2.507.931-1.109.353-2,.652-3.115.981-.61.179-1.594.455-2.217.59-.853.184-1.083.258-1.937.439-1.762.372-2.857.584-4.635.875-.555.091-2.4.52-2.972.577" transform="translate(-174.749 -277.103)" fill="#fff"/>
        <path id="パス_1261" data-name="パス 1261" d="M275.6,431.242a.031.031,0,0,0,.009-.061c-.644-.192-1.336-.371-1.907-.542a9.867,9.867,0,0,1-1.41-.485c-.091-.047-.276-.2-.191-.243.063-.035.883-.286,1.272-.381a.681.681,0,0,1,.334,0c.65.169,1.31.284,1.972.4.627.105,4,.955,5.033,1.081.668.081,1.28.146,1.974.221.433.048.863.077,1.3.085a.513.513,0,0,0,.483-.41c.114-.478.233-1.094.338-1.574.227-1.411,1.689-.763,1.448.816-.05.323-.116.754-.139,1.081a.242.242,0,0,0,.212.258c.253.031.922.042,1.176.049,1,.032,1.713.066,2.714.1.4.012.8-.009,1.2.011a.987.987,0,0,1,.448.122.463.463,0,0,1,.244.549c-.06.254-.175.468-.512.475-.474.009-1.054.016-1.528.014-1.165-.005-3.782-.151-3.946-.164-.127-.01-.271.17-.291.293-.039.234-.095.858-.132,1.091-.084.523-.178,1.314-.543,1.447-.075.027-.394.166-.6.01a1.355,1.355,0,0,1-.321-1.066c.008-.455.035-.78.038-1.236,0-.249-.016-.381-.256-.4-.272-.022-.554-.037-.827-.035-1.165.006-2.167-.01-3.33-.07-.152-.008-1.732-.052-2.459-.073-1.387-.038-2.176-.052-3.355-.087-1.82-.054-3.795-.125-5.6-.344-1.212-.146-4.286-.607-4.368-.646a.183.183,0,0,1-.125-.164,12.711,12.711,0,0,1,2.056-.533c.2-.041,1.819.157,2.434.2.471.035,4.436.16,5.181.187.358.013,1.572.034,1.979.025" transform="translate(-200.25 -325.129)" fill="#fff"/>
        <path id="パス_1262" data-name="パス 1262" d="M120.811,359.865c1.051.817,2.175,1.527,3.284,2.259.683.451,1.355.921,2.043,1.364q1.147.739,2.316,1.443c1,.6,2.007,1.182,3.011,1.771.754.442,1.5.889,2.263,1.322.774.443,1.554.875,2.334,1.308.843.468,1.684.941,2.535,1.394,1.365.728,2.743,1.432,4.156,2.064.731.327,1.463.652,2.192.982.182.082.36.175.536.269.089.048.089.193,0,.219-.54.159-1.079.321-1.624.462a.876.876,0,0,1-.576-.132c-.264-.123-6.091-3.31-6.971-3.787-1.792-.971-12.507-7.247-13.961-8.115-.7-.419-2.313-1.569-2.4-1.659a.379.379,0,0,1-.071-.5c.057-.113.783-.787.937-.667" transform="translate(-90.897 -273.006)" fill="#fff"/>
        <path id="パス_1263" data-name="パス 1263" d="M387.32,314.078a2.908,2.908,0,0,1,.3-.234c.874-.655,1.746-1.313,2.56-2.042,1.262-1.13,2.645-2.114,3.9-3.249.661-.6,1.308-1.211,1.955-1.825.686-.652,1.38-1.3,2.042-1.972.916-.936,1.879-1.828,2.7-2.852.365-.453.782-.861,1.138-1.325.4-.52.828-1.016,1.245-1.52.093-.112.2-.214.289-.327.271-.335.505-.225.75-.027.141.114.258.256.391.38.206.192.216.216.03.435-.471.555-.889,1.153-1.349,1.715-.831,1.012-1.66,2.029-2.584,2.959-1.141,1.148-2.282,2.3-3.466,3.4-1.144,1.067-2.292,2.132-3.5,3.124-.45.368-.867.778-1.317,1.147-.829.681-1.67,1.349-2.509,2.018-.47.374-.945.741-1.42,1.109a3.553,3.553,0,0,1-.314.217c-.159.088-1.259-.816-.843-1.134" transform="translate(-293.776 -226.476)" fill="#fff"/>
        <path id="パス_1264" data-name="パス 1264" d="M182.865,376.257a1.643,1.643,0,0,1-.8-.242q-.939-.5-1.871-1.017c-.622-.342-1.245-.682-1.892-.977A14.421,14.421,0,0,1,176.5,373c-1.118-.721-2.281-1.363-3.431-2.029-1.7-.986-3.408-1.957-5.075-3-.834-.522-1.651-1.062-2.453-1.631-.356-.252-.726-.485-1.086-.731a2.007,2.007,0,0,1-.3-.239.517.517,0,0,1-.142-.551,2.376,2.376,0,0,1,.162-.4.442.442,0,0,1,.65-.186c.253.142.493.308.739.463q2.4,1.511,4.809,3.021c1.389.869,2.775,1.741,4.176,2.589,1.012.612,2.048,1.184,3.07,1.778,1.15.668,2.343,1.251,3.547,1.813.906.423,1.8.866,2.7,1.3a1.519,1.519,0,0,1,.235.137.215.215,0,0,1,.007.334,3.4,3.4,0,0,1-1.247.591" transform="translate(-124.41 -276.272)" fill="#fff"/>
        <path id="パス_1265" data-name="パス 1265" d="M470.9,222.274a.477.477,0,0,1-.1.351c-.689.988-1.191,2.084-1.807,3.115-.607,1.015-1.151,2.066-1.73,3.1-.169.3-.359.59-.548.879-.667,1.02-1.264,2.086-1.973,3.08-.2.281-.345.6-.547.88q-1.055,1.459-2.133,2.9c-.8,1.061-1.639,2.091-2.394,3.185-.157.228-.544.225-1.006,0-.238-.159-.489-.33-.354-.585a3.191,3.191,0,0,1,.306-.45c.566-.735,1.148-1.458,1.7-2.2q1.153-1.556,2.27-3.141c.533-.759,1.063-1.523,1.539-2.318.888-1.482,1.854-2.918,2.685-4.434.516-.941,1.036-1.88,1.569-2.813.379-.663.782-1.313,1.176-1.969a1.2,1.2,0,0,1,.094-.134.269.269,0,0,1,.338-.1,4.035,4.035,0,0,1,.8.466.287.287,0,0,1,.113.191" transform="translate(-347.673 -168.115)" fill="#fff"/>
        <path id="パス_1266" data-name="パス 1266" d="M393.508,329.922c-.648.664-1.3,1.329-1.974,1.964-.583.547-1.206,1.053-1.809,1.578-1,.872-1.986,1.766-3.008,2.612-.939.777-1.919,1.5-2.882,2.253-.072.056-.15.1-.221.16-1.208.971-2.52,1.792-3.808,2.65-.817.544-1.9,1.162-2.724,1.7-.215.14-.837-1.061-.678-1.159.48-.3,1.14-.734,1.612-1.043,1.188-.777,2.374-1.557,3.55-2.352.542-.367,1.062-.768,1.584-1.163q.718-.544,1.419-1.109c.793-.639,1.6-1.259,2.365-1.935,1.428-1.27,2.877-2.517,4.219-3.88.485-.492.981-.974,1.476-1.456a4.2,4.2,0,0,1,.452-.394c.208-.152.327.051.553.27.051.049.355.272.388.326.169.277-.21.67-.513.981" transform="translate(-285.545 -249.064)" fill="#fff"/>
        <path id="パス_1267" data-name="パス 1267" d="M428.969,256.352c-.18-.155-.455-.376-.649-.566a.424.424,0,0,1-.06-.543,5.249,5.249,0,0,1,.352-.445c.927-1.076,1.874-2.134,2.784-3.224a41.845,41.845,0,0,0,2.587-3.451c.488-.725,1.01-1.428,1.479-2.164.548-.859,1.061-1.741,1.579-2.619.471-.8.928-1.608,1.392-2.412.255-.442.5-.888.767-1.323s.342-.451.778-.195c.188.111.372.228.554.35a.283.283,0,0,1,.107.332,2.438,2.438,0,0,1-.156.352q-.751,1.333-1.508,2.661c-.741,1.3-1.555,2.549-2.359,3.807-.539.843-1.127,1.656-1.671,2.5q-.534.825-1.124,1.609A12.014,12.014,0,0,1,433,252c-.431.461-.822.949-1.2,1.448-.166.216-.371.4-.548.607-.591.692-1.175,1.39-1.766,2.082a1.012,1.012,0,0,1-.257.238.223.223,0,0,1-.258-.026" transform="translate(-324.852 -181.503)" fill="#fff"/>
        <path id="パス_1268" data-name="パス 1268" d="M449.766,274.815a.335.335,0,0,1-.073-.017,2.038,2.038,0,0,1-.685-.686.287.287,0,0,1,.017-.312,1.29,1.29,0,0,1,.164-.217c.5-.5.948-1.056,1.423-1.583.609-.676,1.248-1.326,1.879-1.982,1-1.036,1.939-2.123,2.856-3.23l1.952-2.354a48.684,48.684,0,0,0,3.3-4.416c.468-.715.992-1.394,1.492-2.088a3.088,3.088,0,0,1,.2-.257.3.3,0,0,1,.432-.091,4.269,4.269,0,0,1,.821.538.243.243,0,0,1,.049.382c-.3.453-.6.913-.931,1.347q-1.668,2.194-3.358,4.372c-.825,1.064-1.662,2.117-2.576,3.109-.6.656-1.174,1.342-1.768,2.008-.327.366-.661.727-1.008,1.075-.838.838-1.563,1.777-2.378,2.634-.439.462-.874.928-1.314,1.388a4.5,4.5,0,0,1-.362.331.38.38,0,0,1-.131.048" transform="translate(-340.618 -195.376)" fill="#fff"/>
        <path id="パス_1269" data-name="パス 1269" d="M365.986,363.1a1.342,1.342,0,0,1,.276-.173c1.133-.507,2.177-1.176,3.257-1.779.477-.266.95-.54,1.433-.793.872-.457,1.7-.991,2.545-1.49.376-.222.736-.471,1.1-.714,1.136-.758,2.274-1.512,3.4-2.279.8-.542,1.56-1.134,2.3-1.754.125-.1.262-.2.394-.293a6.5,6.5,0,0,0,.527-.388c.729-.658,1.509-1.259,2.206-1.954a3.159,3.159,0,0,1,.47-.371.3.3,0,0,1,.443.03c.176.184.343.377.5.577a.287.287,0,0,1-.018.439,3.016,3.016,0,0,1-.317.3c-.681.576-1.355,1.161-2.049,1.72-1.021.821-2.044,1.64-3.091,2.427-.683.514-1.407.973-2.118,1.45-.423.284-.865.54-1.283.831-1.287.893-2.643,1.677-3.992,2.468-1.162.681-2.347,1.324-3.537,1.953-.626.331-1.286.6-1.933.89-.225.1-.652-.989-.516-1.1" transform="translate(-277.641 -266.314)" fill="#fff"/>
        <path id="パス_1270" data-name="パス 1270" d="M366.465,322.526c.072-.056.148-.106.22-.161.722-.554,1.43-1.128,2.17-1.656s1.426-1.131,2.135-1.7c.609-.49,1.187-1.02,1.776-1.535,1.042-.91,2.029-1.879,3.031-2.833.659-.627,1.336-1.237,1.962-1.9.815-.856,1.59-1.752,2.379-2.633a.835.835,0,0,1,.554-.349c.16.026.376.254.616.451a.612.612,0,0,1,.247.55,4.4,4.4,0,0,1-.414.506c-.74.8-1.5,1.587-2.236,2.394-.686.754-1.4,1.478-2.126,2.2-1.11,1.105-2.283,2.141-3.479,3.152-.764.646-1.492,1.336-2.308,1.92-.932.667-1.833,1.377-2.8,1.994-.138.088-.263.195-.392.3-.186.146-.364.3-.555.441-.45.325-1.109-.792-.779-1.138" transform="translate(-277.956 -235.006)" fill="#fff"/>
        <path id="パス_1271" data-name="パス 1271" d="M458.273,285.767a.624.624,0,0,1,.14.03,4.8,4.8,0,0,1,.848.59.262.262,0,0,1,.026.35c-.086.117-.185.224-.277.337-.526.65-1.044,1.307-1.579,1.95-.512.615-1.033,1.225-1.567,1.821q-1.383,1.546-2.846,3.016c-1.052,1.058-2.093,2.128-3.141,3.189-.907.919-1.806,1.846-2.733,2.745-.666.645-1.369,1.251-2.06,1.87a.453.453,0,0,1-.679.029,2.12,2.12,0,0,1-.316-.3.535.535,0,0,1,0-.7,2.975,2.975,0,0,1,.28-.26c.648-.586,1.3-1.164,1.941-1.761.491-.46.964-.94,1.438-1.419.73-.738,1.461-1.473,2.176-2.225.689-.726,1.425-1.4,2.128-2.114,1-1.009,1.943-2.065,2.883-3.128.881-1,1.657-2.075,2.514-3.089.2-.236.364-.5.546-.75a.392.392,0,0,1,.283-.18" transform="translate(-336.815 -216.802)" fill="#fff"/>
        <path id="パス_1272" data-name="パス 1272" d="M406.1,265.509c-.013-.016-.3-.433-.158-.6.365-.457.705-.935,1.1-1.368.712-.791,1.416-1.589,2.064-2.433.713-.93,1.477-1.819,2.2-2.74.393-.5.76-1.021,1.138-1.533.141-.191.264-.395.42-.572a7.376,7.376,0,0,0,.7-.975c.55-.879,1.091-1.763,1.636-2.645q.516-.835,1.034-1.67a1.6,1.6,0,0,1,.159-.221.229.229,0,0,1,.291-.08c.288.154.577.309.856.479a.2.2,0,0,1,.044.327,3.114,3.114,0,0,0-.348.673,19.7,19.7,0,0,1-1.258,2.169c-.549.769-1.024,1.59-1.547,2.378-.393.59-.808,1.166-1.222,1.742-1.075,1.494-2.319,2.849-3.5,4.254-.387.459-.753.935-1.137,1.4-.511.615-1.031,1.223-1.547,1.834-.069.081-.507.088-.914-.408" transform="translate(-307.948 -190.152)" fill="#fff"/>
        <path id="パス_1273" data-name="パス 1273" d="M104.7,308.706c.711.877,1.408,1.765,2.178,2.591q.577.619,1.163,1.231c.627.66,1.239,1.335,1.889,1.972.936.917,1.876,1.834,2.86,2.7.888.781,1.834,1.5,2.761,2.232.727.577,1.465,1.142,2.2,1.712.043.034.086.068.126.1.3.263.294.263.08.62-.084.14-.152.29-.237.43a.3.3,0,0,1-.418.135,1.26,1.26,0,0,1-.234-.139c-.983-.753-1.963-1.51-2.946-2.261-1.058-.807-2.029-1.717-3.014-2.608-.823-.744-1.605-1.53-2.386-2.319q-1.692-1.708-3.308-3.487c-.22-.243-.419-.5-.626-.758q-.431-.53-.858-1.062a3.636,3.636,0,0,1-.225-.309c-.288-.374.677-1.16,1-.784" transform="translate(-78.636 -234.129)" fill="#fff"/>
        <path id="パス_1274" data-name="パス 1274" d="M56.2,243.158a.207.207,0,0,1,.192.082,4.3,4.3,0,0,1,.24.364c.414.706.814,1.422,1.241,2.12.437.714.906,1.408,1.351,2.117.6.957,1.292,1.85,1.942,2.771.283.4.55.814.841,1.209.809,1.1,1.654,2.17,2.55,3.2.585.673,1.14,1.371,1.708,2.057.255.308.672.762.932,1.067.21.243-.892.943-1.135.638-.693-.795-1.577-1.712-2.195-2.571-.265-.368-.55-.722-.841-1.07-1.391-1.663-2.629-3.44-3.89-5.2-.816-1.139-1.565-2.324-2.3-3.518-.428-.7-.881-1.38-1.313-2.075-.393-.633-.387-.636.28-1.018a1.01,1.01,0,0,1,.4-.175" transform="translate(-41.928 -184.475)" fill="#fff"/>
        <path id="パス_1275" data-name="パス 1275" d="M153.754,404.281a10.4,10.4,0,0,1-1.559-.571c-.669-.288-3.96-1.66-4.176-1.756-.882-.391-1.957-.859-2.828-1.274-1.183-.563-2.177-1.044-3.349-1.628-.456-.227-1.489-.822-1.608-.9a.474.474,0,0,1-.189-.259c-.078-.267.552-.94.673-.906.245.071,1.715.945,1.764.969,2.194,1.093,3.023,1.3,4.343,1.916.743.345,1.5.746,2.246,1.088.363.167,3.5,1.5,4.128,1.751.474.187,1.086.387,1.559.577.067.027.472.189.531.232.089.066.068.133,0,.211a.384.384,0,0,1-.078.076,7.1,7.1,0,0,1-1.454.477" transform="translate(-106.241 -301.176)" fill="#fff"/>
        <path id="パス_1276" data-name="パス 1276" d="M142.38,362.386c.742.559,1.917,1.308,2.7,1.81q2.251,1.447,4.5,2.9,3.275,2.128,6.544,4.263c.58.377,1.167.742,1.747,1.119.207.134.275.263.2.325-.125.1-.246.028-.357-.019-.57-.241-1.145-.469-1.694-.758q-2.465-1.3-4.937-2.577c-.954-.493-7.976-5.036-9.393-6.057-.232-.167.473-1.177.695-1.01" transform="translate(-107.457 -274.915)" fill="#fff"/>
        <path id="パス_1277" data-name="パス 1277" d="M314.938,367.09c-.849.628-2.128,1.7-2.987,2.312a37.016,37.016,0,0,1-3.182,2.017c-.52.3-1.082.518-1.624.777q-.937.447-1.871.9c-1.033.5-2.075.974-3.146,1.389-.491.19-.961.436-1.444.646s-.975.407-1.463.608a.507.507,0,0,1-.313.072.091.091,0,0,1-.07-.121.36.36,0,0,1,.181-.2c.572-.355,1.134-.729,1.722-1.057q2.721-1.514,5.411-3.081,1.961-1.142,3.843-2.4c.7-.465,1.362-.974,2.043-1.462q.888-.636,1.778-1.27c.059-.042.119-.084.181-.122.38-.228,1.189.809.941.993" transform="translate(-226.714 -277.721)" fill="#fff"/>
        <path id="パス_1278" data-name="パス 1278" d="M333.711,387.179c-.381.247-.941.58-1.332.81-.25.147-1.711.962-2.536,1.343-.991.457-2.036.907-3.066,1.269-.549.193-4.1,1.52-5.147,1.895-.205.074-.753.261-.961.326-.073.022-.149.019-.181-.063s.039-.134.1-.174a3.37,3.37,0,0,1,.322-.2c.192-.1,3.4-1.641,3.865-1.885,1.547-.808,3.486-1.836,5.028-2.652,1.029-.544,2.319-1.257,3.316-1.859.251-.152.766,1,.6,1.194" transform="translate(-243.136 -292.823)" fill="#fff"/>
        <path id="パス_1279" data-name="パス 1279" d="M133.382,380.412c.458.327,1.325.822,1.809,1.11,1.016.6,2.044,1.188,3.054,1.8,1.1.669,2.193,1.365,3.293,2.041.929.571,1.865,1.132,2.8,1.7a.59.59,0,0,1,.248.2.126.126,0,0,1,0,.1.113.113,0,0,1-.085.055,1.3,1.3,0,0,1-.264-.048,16.854,16.854,0,0,1-1.853-.8c-.531-.233-1.048-.5-1.571-.754L139,384.944c-1.5-.731-2.976-1.525-4.439-2.335-.556-.308-1.089-.659-1.631-.991-.077-.048-.153-.1-.226-.153-.306-.233.377-1.269.679-1.053" transform="translate(-100.619 -288.583)" fill="#fff"/>
        <path id="パス_1280" data-name="パス 1280" d="M357.762,314.674a1.851,1.851,0,0,1-.373-.386.517.517,0,0,0-.8-.035c-.474.5-.946,1-1.4,1.527-.657.765-1.4,1.442-2.115,2.149-.2.2-.412.4-.629.589q-1.111.967-2.233,1.923c-.553.474-1.106.947-1.666,1.413-.392.325-.806.625-1.193.955-1.4,1.194-2.871,2.3-4.351,3.389-.19.14-.389.27-.573.419a.858.858,0,0,0-.17.181.283.283,0,0,0-.011.3,4.955,4.955,0,0,0,.513.712.27.27,0,0,0,.346.049,5.13,5.13,0,0,0,.435-.3c.984-.751,1.977-1.492,2.936-2.274,1.75-1.427,3.484-2.873,5.214-4.324.879-.737,1.765-1.465,2.608-2.244.682-.63,1.359-1.264,1.989-1.946q.482-.521.954-1.051c.195-.217.391-.432.572-.659a.262.262,0,0,0-.056-.383" transform="translate(-259.626 -238.281)" fill="#fff"/>
        <path id="パス_1281" data-name="パス 1281" d="M182.848,377.781a.368.368,0,0,0-.465-.183,1.474,1.474,0,0,0-.154.055c-.813.32-3.966,1.776-5.015,2.145a72.833,72.833,0,0,1-8.657,2.726c-1.178.313-2.379.536-3.571.792q-1.334.287-2.673.552c-1.071.211-5.257.992-6.291,1.092-.38.037-2.569.412-3.292.474-1.306.112-2.591.38-3.9.486-.961.078-1.918.2-2.882.236-.546.021-3.592.132-4.339.113-.4-.01-.8-.052-1.2-.083a.11.11,0,0,1-.081-.054c-.024-.067.032-.094.082-.112.086-.03.172-.06.261-.081.76-.185,1.986-.472,2.748-.65,1.671-.389,2.965-.647,4.459-.975.338-.074.671-.165,1.008-.245,1.045-.249,2.1-.474,3.132-.752.9-.24,1.781-.524,2.662-.816,1.33-.442,2.14-.8,3.462-1.267.686-.242,1.636-.579,2.312-.848.423-.169,1.553-.637,1.961-.822.508-.231,1.054-.446,1.712-.757,1.2-.568,2.177-1.08,3.344-1.715.7-.382,1.411-.759,2.1-1.167.923-.548,1.826-1.13,2.745-1.686,1.153-.7,2.286-1.424,3.383-2.208.326-.233.672-.437,1-.672a8.066,8.066,0,0,0,.851-.634c0-.03-.007-.057-.011-.081-.031-.156-.577-.922-.78-.917a.517.517,0,0,0-.252.1c-.247.154-.489.315-.73.478-.859.582-1.721,1.161-2.573,1.752q-1.772,1.229-3.625,2.332c-1.358.813-2.715,1.632-4.147,2.313-.559.266-1.1.578-1.672.8-1.389.548-2.713,1.246-4.119,1.753-.872.315-1.736.654-2.606.976-.239.088-.488.147-.73.228-1.172.393-2.339.8-3.516,1.18-1.3.417-2.584.883-3.919,1.184-.8.179-1.589.393-2.388.565-.3.065-2.56.595-3.761.89a50.951,50.951,0,0,1-6.927,1.343c-.289.032-1.7.1-1.823.1a.233.233,0,0,1-.231-.2,2.2,2.2,0,0,1-.035-.27c-.046-.451.038-.961-.011-1.413a1.232,1.232,0,0,0-.286-.7.555.555,0,0,0-.862-.03,1.057,1.057,0,0,0-.291.635,4.947,4.947,0,0,0-.008,1.036c.011.218-.024.615-.034.833-.015.329-.1.416-.423.45-.272.029-.877.044-1.149.071-.743.074-1.212.059-1.957.1a24.716,24.716,0,0,1-2.73.033,1.041,1.041,0,0,0-.27.018.452.452,0,0,0-.323.27.743.743,0,0,0,.534,1.05c.161.027,4.6.022,5.562,0,.2-.005.4-.01.6,0,.358.026.5.145.535.495a6.452,6.452,0,0,0,.7,2.259c.306.248.581.17.737-.195.028-.066.019-1.872.021-2.273,0-.278.106-.394.383-.441a3.661,3.661,0,0,1,.544-.043c.873-.017,2.309-.106,3.185-.04.852.064,4.355.073,5.373.06,1.547-.019,5.977-.248,6.3-.293,1.153-.159,4.829-.658,5.3-.734,1.042-.169,2.1-.317,3.138-.486.934-.151,5.269-.855,6.663-1.122,1.574-.3,3.122-.717,4.67-1.124.668-.176,1.328-.384,1.989-.588,1.27-.391,2.549-.753,3.8-1.209q.949-.346,1.89-.715c1.406-.553,2.812-1.106,4.211-1.676a14.4,14.4,0,0,0,1.326-.644c.329-.175.352-.269.228-.617a2.662,2.662,0,0,0-.2-.448" transform="translate(-95.055 -280.501)" fill="#fff"/>
        <path id="パス_1282" data-name="パス 1282" d="M40.661,247.741a.184.184,0,0,0,.187.032,1.977,1.977,0,0,0,.855-.655,2.447,2.447,0,0,1-.171-.227c-.02-.03-.19-.25-.213-.278-.231-.282-.471-.556-.69-.847-.844-1.119-1.675-2.248-2.525-3.362-.316-.415-.59-.858-.9-1.275a53.165,53.165,0,0,1-3.233-4.83c-.579-.988-1.162-1.973-1.736-2.964-.5-.866-1-1.736-1.492-2.6-.036-.063-.063-.132-.1-.193a.279.279,0,0,0-.325-.141,1.983,1.983,0,0,0-.76.416.279.279,0,0,0-.056.352c.091.2.185.4.293.586q.659,1.164,1.328,2.322.736,1.278,1.476,2.553a41.263,41.263,0,0,0,2.3,3.581c.795,1.087,1.633,2.142,2.442,3.218.831,1.106,1.648,2.222,2.478,3.329.229.305.481.594.73.884a.9.9,0,0,0,.109.1" transform="translate(-22.354 -174.785)" fill="#fff"/>
        <path id="パス_1283" data-name="パス 1283" d="M93.925,316.059c-.419-.286-1.032-.8-1.427-1.118q-1.035-.845-2.065-1.7c-.99-.816-1.937-1.678-2.861-2.566-.89-.856-1.737-1.756-2.555-2.682-1.13-1.28-2.3-2.527-3.444-3.794-.334-.37-.649-.756-.965-1.141-.2-.244-.413-.479-.624-.715a.184.184,0,0,0-.265-.012,4.242,4.242,0,0,0-.523.6.2.2,0,0,0-.029.072.588.588,0,0,0,.137.5c.139.168.28.336.43.495,1.012,1.073,1.971,2.192,2.934,3.308.535.62,1.048,1.259,1.6,1.867.486.541,1.015,1.044,1.506,1.581a44.683,44.683,0,0,0,3.922,3.659c.332.285.677.554,1.027.817.693.522,2.514,1.854,2.614,1.918.288.187.754-.98.591-1.091" transform="translate(-60.054 -229.331)" fill="#fff"/>
        <path id="パス_1284" data-name="パス 1284" d="M11.727,228.735a1.958,1.958,0,0,0,1.149-.841h0c-.432-.588-.84-1.2-1.289-1.769-.506-.647-.936-1.347-1.436-2-.464-.6-.931-1.207-1.368-1.832-.68-.971-1.342-1.954-2-2.939-.415-.62-.818-1.249-1.218-1.879a51.674,51.674,0,0,1-2.731-5.1c-.5-1.014-.969-2.039-1.453-3.059a2.251,2.251,0,0,0-.13-.24.315.315,0,0,0-.461-.15,5.012,5.012,0,0,0-.585.292.336.336,0,0,0-.168.464,6.043,6.043,0,0,0,.3.641q1.494,2.855,2.994,5.708c.382.725.755,1.456,1.175,2.159.569.953,1.177,1.884,1.77,2.822.473.748,1.274,1.954,1.781,2.68s1.017,1.47,1.533,2.2c.589.832,1.189,1.656,1.788,2.481a1.447,1.447,0,0,0,.35.361" transform="translate(0 -158.472)" fill="#fff"/>
        <path id="パス_1285" data-name="パス 1285" d="M67.416,306.512c-.245-.23-.295-.253-.559-.479s-.512-.433-.77-.647-.534-.458-.807-.679c-.685-.555-1.787-1.486-2.435-2.086-.784-.725-1.564-1.453-2.3-2.228-.891-.936-1.841-1.815-2.73-2.752-.694-.73-1.349-1.5-2.02-2.251-.531-.6-1.372-1.6-1.853-2.235-.683-.905-1.348-1.824-2.014-2.743-.272.146-1.058.527-1.088.856a.879.879,0,0,0,.185.4c.158.217.312.437.488.64.9,1.033,1.73,2.121,2.559,3.21a41.6,41.6,0,0,0,2.821,3.2c.846.9,1.713,1.788,2.555,2.7a38.142,38.142,0,0,0,3.505,3.283c.725.607,1.492,1.165,2.242,1.743.375.289.754.572,1.13.86a1.2,1.2,0,0,0,.382.205c.157.048.658-.579.743-.888a.114.114,0,0,0-.032-.1" transform="translate(-38.569 -220.325)" fill="#fff"/>
        <path id="パス_1286" data-name="パス 1286" d="M16.524,267.166a1.956,1.956,0,0,0,.422-.559.3.3,0,0,0-.055-.34c-.108-.111-.22-.218-.325-.332-.456-.5-.9-1-1.357-1.5-.734-.8-1.467-1.595-2.13-2.454-.38-.493-.769-.978-1.178-1.447-.771-.883-1.479-1.814-2.187-2.746-.739-.972-1.4-2-2.069-3.018-.359-.544-1.1-1.793-1.136-1.855-.463-.784-.942-1.559-1.379-2.356-.278-.507-.27-.61-.911-.289-.049.024-.1.047-.146.074-.335.189-.366.273-.214.607.045.1.1.2.15.291.2.368.41.731.6,1.1.813,1.59,1.731,3.119,2.68,4.63.865,1.377,4.348,5.395,5.027,6.18.179.206,3.257,3.6,3.719,3.989a.433.433,0,0,0,.3.1.3.3,0,0,0,.195-.076" transform="translate(-2.86 -189.735)" fill="#fff"/>
        <path id="パス_1287" data-name="パス 1287" d="M76.253,334.975c-.176-.129-.362-.244-.545-.364-.685-.449-1.383-.879-2.052-1.349-.833-.586-1.647-1.2-2.461-1.811-.771-.58-1.541-1.163-2.294-1.766-.724-.58-1.43-1.184-2.136-1.786-.582-.5-1.147-1.012-1.73-1.505-.862-.73-1.677-1.511-2.5-2.284-.5-.474-.983-.975-1.5-1.44-.314-.285-.587-.613-.886-.914a.305.305,0,0,0-.442,0,3.245,3.245,0,0,0-.5.681,2.434,2.434,0,0,0,.439.632c.536.552,1.08,1.095,1.607,1.655A47.442,47.442,0,0,0,65.51,328.7c.772.642,1.539,1.29,2.311,1.931.336.279.671.56,1.022.821,1.168.869,2.328,1.75,3.552,2.541.979.632,1.955,1.268,2.935,1.9a2.356,2.356,0,0,0,.487.239c.1.034.8-.842.435-1.152" transform="translate(-44.921 -244.036)" fill="#fff"/>
        <path id="パス_1288" data-name="パス 1288" d="M15.156,290.755c-.216-.21-.428-.423-.663-.613-.183-.148-2.76-2.641-3.528-3.338-.283-.257-2.053-2.233-2.529-2.709a28.954,28.954,0,0,1-2.886-3.417c-.7-.955-1.377-1.923-2.064-2.886q-.824-1.155-1.645-2.311c-.179-.252-.345-.514-.527-.763a.267.267,0,0,0-.426-.071c-.221.16-.428.338-.634.518a.31.31,0,0,0-.066.4,2.252,2.252,0,0,0,.166.282c.361.525.718,1.053,1.089,1.571.509.71,3.1,4.231,3.914,5.254.489.611,5.544,5.993,6.889,7.141.512.437,1.706,1.618,1.844,1.7.181.108.924-.419,1.067-.756" transform="translate(-0.109 -208.307)" fill="#fff"/>
        <path id="パス_1289" data-name="パス 1289" d="M80.648,356.392a3.929,3.929,0,0,0-.366-.237c-.871-.494-1.745-.982-2.615-1.478-1-.567-2.007-1.113-2.982-1.716-1.61-1-3.2-2.019-4.733-3.138-.191-.14-.385-.277-.56-.435-.637-.573-1.318-1.092-2-1.6q-1.778-1.316-3.483-2.724-.544-.452-1.072-.925h-.006c-.355.038-.642.657-.71,1.071a1.828,1.828,0,0,0,.314.368c.052.051.1.1.158.151.534.467,1.044.96,1.581,1.426,1.557,1.349,3.2,2.58,4.856,3.8.7.519,1.414,1.026,2.13,1.527a42.6,42.6,0,0,0,4.036,2.505c1.422.776,2.878,1.489,4.281,2.3a3.7,3.7,0,0,0,.394.188.385.385,0,0,0,.413-.052,1.928,1.928,0,0,0,.463-.8.255.255,0,0,0-.1-.239" transform="translate(-47.126 -261.086)" fill="#fff"/>
      </g>
    </g>
    <g id="グループ_2717" data-name="グループ 2717" transform="translate(790 16354)">
      <g id="グループ_2252" data-name="グループ 2252" clip-path="url(#clip-path-2)">
        <path id="パス_1354" data-name="パス 1354" d="M6.663,14.822a9.774,9.774,0,0,1,.864,3.546,19.766,19.766,0,0,1-.407,5.921.724.724,0,0,0,0,.479.711.711,0,0,0,.34.276c.744.378,1.743.723,2.327.126a2.006,2.006,0,0,0,.387-1.405c.118-6.7.228-13.489-1.323-20.01a17.061,17.061,0,0,1-.4-1.936A1.343,1.343,0,0,1,8.593.884,1.477,1.477,0,0,1,9.272.437c.875-.365,1.956-.707,2.7-.123a2.7,2.7,0,0,1,.579.724A32.393,32.393,0,0,1,15.47,6.416a10.861,10.861,0,0,1,.713,6c.394.166.84-.215.926-.634a2.827,2.827,0,0,0-.174-1.259,1.534,1.534,0,0,1,.072-1.242A1.168,1.168,0,0,1,18.245,8.9a3.424,3.424,0,0,1,1.2.664L22.7,11.994a1.714,1.714,0,0,1,.642.7,1.636,1.636,0,0,1-.248,1.293,2.667,2.667,0,0,1-1.227,1.343c-.7.279-1.494-.017-2.237.1-1.041.16-1.955,1.112-2.981.876-.332.644.087,1.409.523,1.988C20.227,22.358,24.7,25.126,28.1,28.9c.2.219.4.524.265.785-2.141-.114-3.828-1.819-5.825-2.6-1.91-.746-4.276-.739-5.6-2.3-.667-.786-.982-1.9-1.858-2.44a4.649,4.649,0,0,0-.444,2.362A19.588,19.588,0,0,1,13.3,31.237c-.144.368-.347.775-.728.879a.975.975,0,0,1-1.041-.611,6.776,6.776,0,0,1-.325-1.267c-.43-1.656-2.048-2.687-3.582-3.446a3.147,3.147,0,0,0-2.772-.375c-.964.509-1.358,1.945-2.44,2.069a4.937,4.937,0,0,1,.63-3.9,11.974,11.974,0,0,0,1.6-3.715c-.685.121-1.164.78-1.837.955a2.807,2.807,0,0,1-2.056-.589c-.316-.191-.662-.422-.735-.784a1.278,1.278,0,0,1,.06-.579,13.531,13.531,0,0,1,2.19-4.526A17.664,17.664,0,0,0,3.4,13.785c.226-.387.41-1.131.934-1.212.936-.145,2,1.568,2.334,2.249" transform="translate(0 0)" fill="#fff"/>
        <path id="パス_1355" data-name="パス 1355" d="M172.858,25.614a1.247,1.247,0,0,0,1.505-.128,2.764,2.764,0,0,0,.791-1.4c.129-.448.215-.907.3-1.365l.342-1.814c.13-.687.26-1.375.34-2.07a19.269,19.269,0,0,0-.039-4.314,4.206,4.206,0,0,1-.035-1.031,8.815,8.815,0,0,1,.857-1.994,1.314,1.314,0,0,0,.1-.866,1.373,1.373,0,0,0-.283-.465,4.95,4.95,0,0,0-4.473-1.675,1.5,1.5,0,0,0-.751.288.641.641,0,0,0-.207.729l.6-.516a7.794,7.794,0,0,0-2.137,2.837,1.419,1.419,0,0,1-.3.5.434.434,0,0,1-.542.061.612.612,0,0,1-.163-.45,4.26,4.26,0,0,0-.5-2.287,2.822,2.822,0,0,0-2.853-.752,4.063,4.063,0,0,0-2.048.967,2.281,2.281,0,0,0-.717,2.076,1.647,1.647,0,0,1,.1.666,1.844,1.844,0,0,1-.327.578.543.543,0,0,0-.041.623,5.987,5.987,0,0,0,1.213-1.01,3.346,3.346,0,0,1-.626,2.369,7.568,7.568,0,0,0-1.134,2.226,5.727,5.727,0,0,0,.036,1.967,10.355,10.355,0,0,0,.489,2.3,9.506,9.506,0,0,0,2.659,3.439.656.656,0,0,0,.3.19c.089.017.181,0,.271.01.24.036.373.286.5.49a2.362,2.362,0,0,0,2.984.778,6.653,6.653,0,0,0,1.261-1.041,2.42,2.42,0,0,1,1.35-.71,1.062,1.062,0,0,1,1.164.791m-3.351-10.149a2.873,2.873,0,0,0-.031-1.075,5.978,5.978,0,0,0,2.074-.479,5.121,5.121,0,0,1,.24,1.964,1.345,1.345,0,0,1-.058.339.787.787,0,0,1-.481.482,2.713,2.713,0,0,1-1.586-.145c-.414-.266-.252-.675-.158-1.087m-.069,6.952a.663.663,0,0,1-.219-.171.671.671,0,0,1-.107-.258c-.133-.571-.247-1.933.681-1.7.52.133.424.324.984.069a3.205,3.205,0,0,1,1.2-.349.231.231,0,0,1,.158.035.24.24,0,0,1,.065.12,6.646,6.646,0,0,1,.269,1.318c.015.152.012.333-.113.42s-.269.035-.407.051a1.229,1.229,0,0,0-.547.317,1.871,1.871,0,0,1-1.963.144" transform="translate(-130.702 -6.817)" fill="#fff"/>
        <path id="パス_1356" data-name="パス 1356" d="M155.479,99.223c-.385-.422-.633-1.225-1.175-1.46a1.132,1.132,0,0,0-1.225.393,9.385,9.385,0,0,0-.734,1.161c-.709,1.076-2.044,1.79-2.286,3.056a.728.728,0,0,0,.056.526c.322.509,1.223-.021,1.691.358.431-.324.109-1.074.419-1.515a.639.639,0,0,1,1.046.091c.217.464-.2.964-.575,1.31l-.91.832a.485.485,0,0,0-.209.355.458.458,0,0,0,.234.309,1.824,1.824,0,0,0,1.911.277l.086.922a.357.357,0,0,1-.249.462,2.3,2.3,0,0,1-1.779.275c-.538-.226-.81-.811-1.1-1.316a6.882,6.882,0,0,0-.7-.992,1.642,1.642,0,0,0-.562-.475,1.168,1.168,0,0,0-1.375.48,2.025,2.025,0,0,0-.216,1.526,3.338,3.338,0,0,0,2.813,2.568c.27.031.6.061.714.306a1.263,1.263,0,0,1,.066.254c.14.578.823.829,1.416.878a5.1,5.1,0,0,0,4.069-1.555,3.709,3.709,0,0,0,.676-.964,4.407,4.407,0,0,0,.353-1.747,8.851,8.851,0,0,0-1.116-4.527,9.415,9.415,0,0,0-1.34-1.788" transform="translate(-119.397 -78.939)" fill="#fff"/>
        <path id="パス_1357" data-name="パス 1357" d="M218.743,104.542a18.852,18.852,0,0,1-.057-5.563c.142-.653.353-1.4-.044-1.938a1.942,1.942,0,0,0-.629-.492q-.679-.387-1.388-.716a4.052,4.052,0,0,0-1.54-.453,4.558,4.558,0,0,0-1.863.48,1.83,1.83,0,0,0-1.013.739c-.192.382.052.978.478.937a.477.477,0,1,0,.779.5c.044-.122.055-.284.176-.332a.3.3,0,0,1,.188.008,2.384,2.384,0,0,1,1.563,2.888,7.845,7.845,0,0,1-.884-.682c-.7-.543-1.549-.873-2.2-1.478s-.948-1.635-2.02-.849a2.572,2.572,0,0,0-.809,1.209,11.048,11.048,0,0,1-.529,1.376c-.128.238-.287.458-.4.7a3.077,3.077,0,0,0-.252,1.058,7.692,7.692,0,0,0,1.712,5.073,4.29,4.29,0,0,0,1.4,1.322,1.881,1.881,0,0,0,1.855,0c.205-.134.4-.33.649-.314.309.021.491.386.457.694a3.167,3.167,0,0,1-.332.863,3.314,3.314,0,0,0,.093,2.558,7.662,7.662,0,0,0,1.5,2.145c.436.474,1.009.968,1.64.839.754-.155,1.039-1.067,1.158-1.828a36.842,36.842,0,0,0,.309-8.752m-3.184,3.329a1.081,1.081,0,0,1-.267-1.1c.051-.152.137-.29.188-.441a2.121,2.121,0,0,0,.074-.692.906.906,0,0,0-.146-.6c-.328-.38-3.1.677-2.654-.589a.715.715,0,0,1,.63-.379,1.75,1.75,0,0,0,.751-.161c.224-.142.335-.4.514-.6s.524-.307.691-.1a.592.592,0,0,1,.092.2,11.055,11.055,0,0,1,.536,2.235,3.709,3.709,0,0,1-.41,2.228" transform="translate(-168.288 -77.064)" fill="#fff"/>
        <path id="パス_1358" data-name="パス 1358" d="M286.686,47.766a5.263,5.263,0,0,0-2.089-3.039c-1.138-.739-2.139-1.46-3.577-1.323a1.579,1.579,0,0,0-.932.342,1.447,1.447,0,0,0-.376.662,2.809,2.809,0,0,0-.076,1.287,8.925,8.925,0,0,0,.605,1.675,15.023,15.023,0,0,1,.575,1.986c.214.891.428,1.782.628,2.676a1.918,1.918,0,0,1-.573,2.335L278.8,56.39a1.475,1.475,0,0,1-.721.466,1.493,1.493,0,0,1-1.155-.522l-1.758-1.548a3.263,3.263,0,0,0-1.2,2.421,3.935,3.935,0,0,1-.129,1.582,2.017,2.017,0,0,0-.189.418,1.067,1.067,0,0,0,.373.87,11.112,11.112,0,0,0,2.719,2.2,1.281,1.281,0,0,0,.8.236c.777-.119.81-1.346,1.5-1.719a1.5,1.5,0,0,1,1.605.451c1.457,1.311,2.1,3.271,2.82,5.095a.8.8,0,0,0,.148.267.573.573,0,0,0,.821-.143,2.139,2.139,0,0,0,.29-.894,4.9,4.9,0,0,1,1.259-2.411,7.328,7.328,0,0,0,1.185-1.286,4.194,4.194,0,0,0,.42-1.7,33.835,33.835,0,0,0,.171-8.017,25.885,25.885,0,0,0-1.075-4.388M282.194,59.4c-.1.388-.37,1.114-.865,1.109-.517-.005-.9-.761-1.165-1.114a.714.714,0,0,1-.109-.18c-.094-.26.125-.518.317-.718a8.047,8.047,0,0,0,1.718-2.729,19.857,19.857,0,0,1,.2,2.263,4.917,4.917,0,0,1-.1,1.369" transform="translate(-221.091 -35.057)" fill="#fff"/>
        <path id="パス_1359" data-name="パス 1359" d="M363.141,91.333c-.038-.409-.52-.589-.91-.721-1.316-.447-2.428-1.352-3.705-1.9a2.724,2.724,0,0,0-1.912-.228,9.878,9.878,0,0,0-1.346.8c-.418.221-.892.318-1.31.539a.316.316,0,0,0-.161.147.309.309,0,0,0,.031.232c.722,1.618,2.869,1.311,4.134,2.17-.543.552-1.156,1.019-1.662,1.62a11.266,11.266,0,0,0-.705.932c-.107.158-.417.884-.572.94a10.411,10.411,0,0,0,2.808-1.86,6.529,6.529,0,0,1,2.955-1.567c.743-.116,1.608-.036,2.131-.577a.7.7,0,0,0,.223-.532" transform="translate(-285.853 -71.418)" fill="#fff"/>
        <path id="パス_1360" data-name="パス 1360" d="M413.74,26.917a1.277,1.277,0,0,1,.891.2c.392.389-.649.867-.864,1.1q-.861.932-1.746,1.84c-.3.312-.762.645-1.131.411-.169-.107-.255-.306-.4-.438a.852.852,0,0,0-1.149.156,1.756,1.756,0,0,0-.348,1.21,2.629,2.629,0,0,0,2.022,2.653,4.443,4.443,0,0,0,2.542-.9c2.877-1.617,6.243-2.066,9.516-2.486a1.955,1.955,0,0,0-1.231-1.7,3.874,3.874,0,0,0-2.762.386c-.368-.14-.386-.7-.131-1a2.2,2.2,0,0,1,1.034-.538,1.456,1.456,0,0,0,.933-.667c.329-.733-.531-1.432-.731-2.21a1.377,1.377,0,0,0-.156-.479c-.231-.321-.717-.221-1.113-.219a3.807,3.807,0,0,1-1.929-.777,10.568,10.568,0,0,0-4.687-1.755,7.236,7.236,0,0,1-2.6-.34,2.421,2.421,0,0,0-.978-.378,1.45,1.45,0,0,0-.713.252,4.325,4.325,0,0,0-1.368,1.18,4.977,4.977,0,0,0-.681,1.621c-1.11,4.185-.412,8.669-1.37,12.891a14.146,14.146,0,0,0-.713,4.341,11.617,11.617,0,0,1,.166,1.669,5.358,5.358,0,0,1-.495,1.724L402.83,46.4a2.381,2.381,0,0,0-.261,1.508c.14.5.8.87,1.2.538a1.15,1.15,0,0,0,.257-.356,32.485,32.485,0,0,0,3.2-11.774c.461-4.066.608-8.173,1.347-12.2,1.9.59,3.184,2.736,5.171,2.8" transform="translate(-325.233 -16.96)" fill="#fff"/>
        <path id="パス_1361" data-name="パス 1361" d="M444.278,98.449a6.086,6.086,0,0,0-1.515-2.324l-3.389.354a4.085,4.085,0,0,1-1.685-.059,1.394,1.394,0,0,1-1.026-1.214c0-.651.609-1.242.441-1.87a.834.834,0,0,0,1.011-.313,2.433,2.433,0,0,0,.358-1.086l.1-.638a.631.631,0,0,0-.005-.326.5.5,0,0,0-.264-.249,2.272,2.272,0,0,0-1.223-.116,2.821,2.821,0,0,1-1.233-.05.9.9,0,0,1-.634-.947l3.737-1.2a.4.4,0,0,0-.266-.489,1.154,1.154,0,0,0-.616.009l-4.588.907c-.345.068-.787.094-.959-.212a.606.606,0,0,1-.062-.327,1.459,1.459,0,0,1,.987-1.191,4.2,4.2,0,0,1,1.615-.179l.069-.46c.813-.391,1.763.175,2.386.828a1.175,1.175,0,0,0,.484.365,2.4,2.4,0,0,0,.627,0,2.4,2.4,0,0,1,1.345.74,1.363,1.363,0,0,0,1.43.356,1.645,1.645,0,0,0-.863-1.645,4.826,4.826,0,0,0-1.9-.512l-.44-1.275a12.675,12.675,0,0,0,3.95-.48.957.957,0,0,0,.359-.161.812.812,0,0,0,.227-.387,2.172,2.172,0,0,0-.025-1.384c-.148-.411-4.709.945-5.187,1.062a30.47,30.47,0,0,1-4.149,1.176c-.939.088-1.893-.1-2.826.039a2.19,2.19,0,0,0-2,1.7.34.34,0,0,0,.078.294c.117.1.3.028.45.082a.494.494,0,0,1,.255.364,2.539,2.539,0,0,1-.009,1.348,1.7,1.7,0,0,0-.122.628.856.856,0,0,0,.583.663,2.373,2.373,0,0,0,.92.089,26.853,26.853,0,0,0,3.132-.311l0,1.354-3.651,1.321a2.124,2.124,0,0,0-.914.517,1.055,1.055,0,0,0,.615,1.736c.552.094,1.083-.252,1.642-.284a5.1,5.1,0,0,1,1.352.26,1.341,1.341,0,0,0,1.292-.261,1.743,1.743,0,0,1,.046,1.043.869.869,0,0,1-.771.625,1.675,1.675,0,0,0-.456-.011,1.166,1.166,0,0,0-.4.3,2.1,2.1,0,0,1-1.192.375,6.149,6.149,0,0,1-2.327-.06,1.281,1.281,0,0,0-.645-.094c-.5.122-.541.806-.782,1.262-.154.291-.428.531-.472.857-.072.529.478.915.965,1.133a2.291,2.291,0,0,0,1.445.262,3.017,3.017,0,0,0,.795-.391,7.545,7.545,0,0,1,3.111-1.019,2.591,2.591,0,0,0,.781-.144c.2-.086.37-.229.565-.325a2.7,2.7,0,0,1,.988-.206,12.028,12.028,0,0,1,3.812.1,13.751,13.751,0,0,1,3.391,1.577,1.273,1.273,0,0,0,.686.226.848.848,0,0,0,.707-.7,1.955,1.955,0,0,0-.141-1.047" transform="translate(-345.145 -66.927)" fill="#fff"/>
      </g>
    </g>
    <text id="Suisho_goya_Mountain_Hut" data-name="Suisho goya
Mountain Hut" transform="translate(840 16413)" fill="#d9d9d9" font-size="14" font-family="ShipporiMinchoB1-Regular, Shippori Mincho B1"><tspan x="-40.656" y="0">Suisho goya</tspan><tspan x="-47.117" y="15">Mountain Hut</tspan></text>
    <line id="線_1245" data-name="線 1245" y2="16" transform="translate(840.5 16445.5)" fill="none" stroke="#fff" stroke-width="1"/>
  </g>
</svg>
