<?xml version="1.0" encoding="UTF-8"?>
<svg id="_レイヤー_2" data-name="レイヤー 2" xmlns="http://www.w3.org/2000/svg" xmlns:xlink="http://www.w3.org/1999/xlink" viewBox="0 0 103 184">
  <defs>
    <style>
      .cls-1 {
        fill: #707070;
      }

      .cls-1, .cls-2, .cls-3 {
        stroke-width: 0px;
      }

      .cls-4 {
        isolation: isolate;
      }

      .cls-2 {
        fill: none;
      }

      .cls-5 {
        clip-path: url(#clippath-1);
      }

      .cls-3 {
        fill: #fff;
      }

      .cls-6 {
        clip-path: url(#clippath);
      }
    </style>
    <clipPath id="clippath">
      <rect class="cls-2" width="103" height="22"/>
    </clipPath>
    <clipPath id="clippath-1">
      <rect class="cls-2" x="4" y="114" width="95" height="70"/>
    </clipPath>
  </defs>
  <g id="_レイヤー_1-2" data-name="レイヤー 1">
    <g>
      <g class="cls-6">
        <g>
          <path class="cls-3" d="m35.97,2.46c.19-.5-.06-1.05-.55-1.24-.47-.18-1,.03-1.22.49-1.52,3.27-3.86,6.08-6.8,8.17-.44.3-.55.9-.25,1.34.29.42.86.55,1.3.28.74-.48,1.44-1.01,2.1-1.6v11.15c0,.53.43.96.97.96.53,0,.96-.43.96-.96V7.92c1.42-1.65,2.6-3.49,3.51-5.46"/>
          <path class="cls-3" d="m37.5,8.7h9.57c.53,0,.96-.43.96-.96V2.08c0-.53-.43-.96-.96-.96h-9.57c-.53,0-.96.43-.96.96v5.66c0,.53.43.96.96.96m.96-5.66h7.65v3.74h-7.65v-3.74Z"/>
          <path class="cls-3" d="m48.03,12.87h-4.71v-1.51h4.71c.53,0,.96-.43.96-.96s-.43-.96-.96-.96h-11.34c-.53,0-.96.43-.96.96s.43.96.96.96h4.71v1.51h-4.71c-.53,0-.96.43-.96.96s.43.96.96.96h4.52c-.7,1.98-3.23,4.24-4.3,5.05-.41.33-.48.94-.15,1.35.32.4.89.48,1.31.18,1.68-1.27,3.13-2.82,4.29-4.58,1.16,1.76,2.61,3.3,4.29,4.58.41.33,1.02.27,1.35-.15s.27-1.02-.15-1.35c-.01-.01-.03-.02-.04-.03-1.07-.81-3.6-3.07-4.3-5.06h4.52c.53,0,.96-.43.96-.96s-.43-.96-.96-.96h0"/>
          <path class="cls-3" d="m72.8,2.51c-.53,0-.96.43-.96.96h0v16.18h-2.04l-5.31-9.7V2.08c0-.53-.43-.96-.96-.96h0s-.05,0-.07,0-.05,0-.07,0c-.53,0-.96.43-.96.96h0v7.87l-5.31,9.7h-2.53V3.47c0-.53-.43-.96-.97-.96-.53,0-.96.43-.96.96v17.14c0,.53.43.96.96.96h19.18c.53,0,.96-.43.96-.96h0V3.47c0-.53-.43-.96-.96-.96h0m-9.34,9.56l4.15,7.58h-8.3l4.15-7.58Z"/>
          <path class="cls-3" d="m87.75,6.83l-.34-.96h8.17l-.17.59c-.14.51.16,1.04.68,1.18.5.14,1.02-.15,1.17-.64l.33-1.12h3.95c.53,0,.96-.43.96-.96s-.43-.96-.96-.96h-3.39l.47-1.6c.13-.52-.18-1.04-.7-1.17-.49-.12-.99.15-1.15.63l-.62,2.14h-9.42l-.68-1.89c-.19-.5-.75-.74-1.25-.55-.48.19-.73.71-.57,1.2l.45,1.24h-3.25c-.53,0-.96.43-.96.96s.43.96.96.96h3.94l.58,1.61c.19.5.75.74,1.25.55.48-.19.73-.71.57-1.2"/>
          <path class="cls-3" d="m102.04,9.72h-6.06v-1.21c-.02-.53-.46-.95-.99-.93-.51.02-.91.42-.93.93v1.21h-5.49c-.53,0-.96.43-.96.96s.43.96.96.96h5.49v8.01h-4.85c-.53,0-.96.43-.96.96s.43.96.96.96h11.62c.53,0,.96-.43.96-.96s-.43-.96-.96-.96h-4.85v-8.01h6.06c.53,0,.96-.43.96-.96s-.43-.96-.96-.96"/>
          <path class="cls-3" d="m85.14,8.28c-.53,0-.96.43-.96.96h0v1.23l-3.37-1.74c-.47-.24-1.05-.06-1.3.41s-.06,1.05.41,1.3h0l4.26,2.2v2.54l-4.68,1.09c-.52.12-.84.64-.72,1.15s.64.84,1.15.72h0l4.24-.99v3.47c.02.53.46.95.99.93.51-.02.91-.42.93-.93v-11.38c0-.53-.43-.96-.96-.96h0"/>
          <path class="cls-3" d="m.56,2.49l3.96,1.82c.48.23,1.05.03,1.28-.44.23-.48.03-1.05-.44-1.28-.01,0-.03-.01-.04-.02L1.37.74c-.48-.23-1.05-.03-1.28.44-.23.48-.03,1.05.44,1.28.01,0,.03.01.04.02"/>
          <path class="cls-3" d="m6.76,9.51c-.49-.21-1.05.02-1.26.51-1.4,3.27-3.17,6.37-5.28,9.24-.33.41-.27,1.02.15,1.35.41.33,1.02.27,1.35-.15,2.23-3,4.1-6.26,5.56-9.7.21-.49-.03-1.05-.51-1.26h0"/>
          <path class="cls-3" d="m23.29,7.97h-14.33c-.53,0-.96.43-.96.96s.43.96.96.96h1.5c-.06,1.15-.54,4.72-4.15,9.38-.32.42-.25,1.03.17,1.35s1.03.25,1.35-.17c1.73-2.15,3.06-4.6,3.93-7.22.14.07.29.11.45.12h2.06c-.56,2.01-1.51,3.88-2.81,5.51-.34.41-.28,1.02.13,1.35s1.02.28,1.35-.13c1.57-1.98,2.7-4.28,3.31-6.73h1.37c-.56,2.01-1.51,3.88-2.81,5.51-.34.41-.28,1.02.13,1.35s1.02.28,1.35-.13h0c1.57-1.98,2.7-4.28,3.31-6.73h1.09l-.47,5.55c-.13.22-.54.24-1.11.06-.51-.16-1.05.12-1.21.62-.16.51.12,1.05.62,1.21.41.14.83.21,1.26.22.44,0,.87-.1,1.25-.31.52-.28.91-.76,1.07-1.33.01-.05.02-.1.03-.16l.57-6.73c.04-.53-.35-.99-.88-1.04-.03,0-.05,0-.08,0h-9.55c.09-.51.15-1.02.17-1.53h10.91c.53,0,.96-.43.96-.96s-.43-.96-.96-.96h0"/>
          <path class="cls-3" d="m10.88,6.94h11.09c.53,0,.96-.43.96-.96V.96C22.93.43,22.5,0,21.97,0h-11.09c-.53,0-.96.43-.96.96h0v5.02c0,.53.43.96.96.96h0m.96-1.92v-1.02c.11.07.23.11.36.11h8.81v.91h-9.16Zm9.16-3.1v.91h-8.81c-.13,0-.25.04-.36.11v-1.02h9.16Z"/>
          <path class="cls-3" d="m.56,6.25l3.96,1.82c.48.23,1.05.03,1.28-.44.23-.48.03-1.05-.44-1.28-.01,0-.03-.01-.04-.02l-3.95-1.82c-.48-.23-1.05-.03-1.28.44-.23.48-.03,1.05.44,1.28.01,0,.03.01.04.02"/>
        </g>
      </g>
      <g class="cls-5">
        <path class="cls-3" d="m92.5,148.89c-3.79-5.79-9.09-10.44-15.33-13.45-5.44-2.76-11.15-4.98-17.03-6.6-1.31-.33-2.6-.77-3.84-1.31-.38-.74-2.19-11.56-3.1-12.71-.74-.94-2.1-1.1-3.05-.36-.14.11-.26.23-.36.36-.9,1.15-2.71,11.97-3.09,12.71-1.24.54-2.53.98-3.84,1.31-5.88,1.62-11.59,3.84-17.03,6.6-6.24,3.01-11.54,7.66-15.33,13.45-4.05,6.35-6.18,14.11-6.49,23.72-.03.78.37,1.51,1.04,1.92,21,12.63,71.92,12.63,92.92,0,.67-.4,1.07-1.14,1.04-1.92-.32-9.61-2.44-17.36-6.5-23.72m-29.43-15.46c2.16,2.51,12.18,15.48,16.17,44.17-.6.14-1.22.27-1.85.41-2.44-14.69-5.69-24.14-8.02-29.55-3.82-8.86-6.51-10.58-8.1-10.45-1.3.14-2.24,1.32-2.1,2.62,0,.41,2.55,21.85,4.09,39.42-.67.06-1.35.11-2.04.16-1.25-16.6-4.78-47.77-4.9-48.83.77.27,1.7.54,2.81.87,1.14.33,2.46.72,3.94,1.2m.02,10.55c2.15,3.41,5.51,10.49,8.45,22.86-1.78.32-4.03.72-5.86.89-1.09-11.1-2.57-23.58-2.59-23.75m2.93,27.27c2.02-.19,4.37-.61,6.3-.96.55,2.59,1.08,5.37,1.58,8.38-2.2.39-4.57.73-7.12,1.01-.26-2.98-.52-5.79-.77-8.44m-38.57-32.67c5.25-2.66,10.75-4.79,16.42-6.35,1.11-.33,2.04-.6,2.81-.87-.12,1.05-1.63,14.34-2.24,20.11-.66-15.23-1.43-15.98-2.06-16.61-.61-.6-1.51-.79-2.31-.48-.9.34-1.96,1.15-4.12,6.59-5.82.28-14.32,3.67-21.33,8.23,3.38-4.51,7.78-8.14,12.84-10.61m6.87,18.49c1.59-5.76,3.53-11.42,5.82-16.95.62,5.95,1.25,19.92,1.5,40.06-4.22-.29-8.42-.79-12.59-1.51,1.34-7.29,3.1-14.51,5.27-21.6m-26.75,14.83c.15-5.15,1.13-10.24,2.9-15.08,6.8-6.34,17.47-11.22,24.08-12.17-1.06,2.99-3.7,11.6-3.86,12.15v-.02c-3.22,1.47-5.46,4.98-7.43,8.07-1.96,3.06-3.8,5.96-5.65,5.58-.89-.13-1.59-.84-1.73-1.73-.98-4.03,3.14-10.54,7.59-14.08l-2.22-2.76c-6.26,4.98-9.99,12.56-8.82,17.67.6,2.61,2.91,4.46,5.59,4.48,3.59.06,5.94-3.69,8.22-7.27.86-1.4,1.79-2.76,2.8-4.06-1.58,5.88-2.95,11.7-3.5,15.31-10.07-2.12-15.94-4.97-17.99-6.1m37.74,8.49c1.24-16.51,6.12-58.27,6.18-58.59.06.33,4.94,42.09,6.18,58.6-4.12.24-8.24.24-12.36,0m36.23-31.23c2.26,2.07,5.54,6.29,7.48,13.35-.87.31-2.01.62-3.02.87-1.28-5.43-4.31-13.81-4.46-14.22m5.2,17.68c.92-.22,2.04-.51,3.06-.85.48,2.69.75,5.41.79,8.14-.81.32-1.71.66-2.7,1-.24-2.78-.63-5.55-1.16-8.28m7.36,5.74c-.46-10.07-3.38-16.81-5.87-20.79-2.8-4.48-6.55-7.74-8.91-7.75-.69-.01-1.35.32-1.75.89-.87,1.24-.34,2.71,1.08,6.65,3.08,7.9,5.03,16.2,5.79,24.65-.56.16-1.14.33-1.74.49-1.37-10.57-4.13-20.91-8.21-30.75-1.52-3.6-3.33-7.07-5.42-10.37,2,.82,4.17,1.79,6.48,2.97,12.81,6.57,19.14,17.17,19.87,33.32-.33.18-.77.41-1.32.68"/>
      </g>
      <g class="cls-4">
        <g class="cls-4">
          <path class="cls-1" d="m7.73,51c-.08,0-.11-.07-.11-.2s.04-.2.11-.2h.21c.42,0,.73-.07.92-.21.19-.14.29-.36.29-.67v-1.95c0-.12-.03-.24-.08-.36l-1.27-2.44c-.31-.59-.6-1.15-.88-1.69-.28-.54-.49-.94-.63-1.2-.31-.58-.71-.87-1.19-.87h-.22c-.07,0-.1-.06-.1-.2s.03-.2.1-.2h3.82s.08.02.09.05c.01.03.02.08.02.15,0,.13-.04.2-.11.2h-.22c-.73,0-1.09.17-1.09.5,0,.1.04.23.11.38l1.32,2.45.98,1.82c.07.1.14.15.21.15.07,0,.14-.05.2-.15.33-.61.69-1.29,1.09-2.06.4-.77.74-1.41,1.01-1.93.07-.17.11-.3.11-.41,0-.24-.12-.43-.35-.56-.23-.13-.45-.2-.66-.2h-.24c-.07,0-.1-.06-.1-.2s.03-.2.1-.2h3.5s.08.02.09.05c.01.03.02.08.02.15,0,.13-.04.2-.11.2h-.21c-.24,0-.51.1-.79.31-.29.21-.52.48-.71.83-.33.6-.75,1.37-1.26,2.33-.51.96-.95,1.77-1.3,2.43-.07.12-.1.24-.1.36v2.24c0,.33.1.56.3.69s.5.2.9.2h.21c.07,0,.11.07.11.2s-.04.2-.11.2h-3.96Z"/>
          <path class="cls-1" d="m22.76,50.51s.05.07.05.13c0,.09-.03.15-.1.17l-1.67.27h-.08c-.15.01-.22-.08-.22-.27v-.41c0-.16-.05-.24-.15-.24-.07,0-.13.04-.2.11-.55.57-1.18.85-1.89.85-.8,0-1.37-.21-1.72-.62-.34-.41-.51-.91-.51-1.51v-3.26c-.01-.2-.06-.34-.15-.43-.09-.09-.2-.15-.33-.18-.13-.03-.33-.06-.59-.08-.07,0-.1-.03-.12-.06-.01-.03-.02-.07-.02-.12,0-.1.03-.16.08-.18.18-.06.44-.13.78-.21s.67-.16,1-.24c.03,0,.06-.01.1-.01.15,0,.22.09.22.27v1.75c0,1.51,0,2.38.01,2.6.02.43.14.8.36,1.13.22.32.59.48,1.1.48.35,0,.68-.09,1.02-.27.33-.18.62-.45.86-.81.07-.11.11-.23.11-.36l-.06-3.25c0-.2-.04-.34-.13-.43-.09-.09-.19-.15-.31-.18-.12-.03-.32-.06-.6-.1-.08,0-.13-.08-.13-.22,0-.06.03-.11.08-.13.18-.06.44-.13.78-.21s.67-.16.99-.24c.03,0,.06-.01.1-.01.15,0,.22.09.22.27l.03,5.32c0,.35.19.56.56.63.11.02.21.03.29.03.12,0,.2.01.23.04Z"/>
          <path class="cls-1" d="m36.19,50.62c.07,0,.11.07.11.2,0,.12-.04.18-.11.18h-3.14c-.07,0-.1-.06-.1-.18,0-.07,0-.11.02-.15.01-.03.04-.05.08-.05h.18c.27,0,.49-.04.65-.11.16-.07.24-.23.24-.48v-1.9c0-.66,0-1.19-.03-1.58-.04-1.14-.52-1.71-1.44-1.71-.36,0-.71.09-1.05.28-.34.19-.63.47-.88.85-.07.09-.1.17-.1.24v.07c0,.15.01.44.01.87,0,.77-.02,1.74-.06,2.88,0,.23.08.39.25.47.17.08.39.12.66.12h.18c.06,0,.1.07.1.2,0,.12-.03.18-.1.18h-3.14c-.07,0-.11-.06-.11-.18,0-.13.04-.2.11-.2h.18c.27,0,.49-.04.65-.11.16-.07.25-.23.25-.48v-1.83c0-.71,0-1.26-.03-1.65-.04-1.14-.52-1.71-1.44-1.71-.36,0-.71.09-1.04.27-.33.18-.62.46-.88.83-.07.12-.1.24-.1.36v3.72c-.01.23.07.39.24.47s.39.12.66.12h.18c.07,0,.11.07.11.2,0,.12-.04.18-.11.18h-3.14c-.07,0-.1-.06-.1-.18,0-.07,0-.11.02-.15.01-.03.04-.05.08-.05h.18c.27,0,.49-.04.66-.12s.25-.24.25-.47l-.06-4.27c0-.2-.04-.34-.13-.43s-.2-.15-.32-.18c-.13-.03-.32-.06-.6-.1-.08,0-.13-.08-.13-.22,0-.07.02-.11.07-.13.19-.06.45-.13.8-.22.35-.09.68-.17,1.01-.25.03,0,.06-.01.1-.01.15,0,.22.09.22.27v.39c0,.16.05.24.14.24.06,0,.13-.04.21-.13.53-.56,1.15-.84,1.86-.84.5,0,.92.1,1.26.31s.59.48.77.83c.04.1.09.15.15.15.06,0,.12-.04.18-.11.6-.78,1.31-1.18,2.14-1.18.73,0,1.28.21,1.67.62.38.41.59.92.62,1.51,0,.15.01.44.01.87,0,.77-.02,1.74-.06,2.88,0,.23.08.39.25.47s.39.12.66.12h.18Z"/>
          <path class="cls-1" d="m44.32,49.98v.08c-.15.4-.36.69-.64.85-.28.17-.55.25-.8.25-.23,0-.43-.06-.6-.18s-.3-.29-.39-.5c-.06-.11-.11-.17-.17-.17-.04,0-.09.03-.17.08-.32.26-.67.46-1.07.59-.4.13-.79.2-1.17.2-.54,0-.98-.13-1.31-.38-.33-.25-.5-.6-.5-1.04,0-.35.07-.64.22-.9.15-.25.39-.48.73-.67.21-.12.46-.23.78-.33.31-.1.74-.22,1.29-.37.49-.13.82-.22.98-.27.17-.05.25-.15.25-.32v-.35c0-.45-.02-.78-.07-.99-.05-.21-.14-.41-.28-.57-.21-.25-.56-.38-1.05-.38-.35,0-.61.08-.78.25s-.33.42-.45.77c-.16.45-.39.67-.69.67-.17,0-.32-.05-.46-.16s-.2-.25-.2-.43.06-.39.19-.62c.13-.24.38-.46.77-.66.39-.2.94-.3,1.66-.3.42,0,.82.07,1.2.22.38.14.65.32.8.54.14.2.24.4.29.61s.08.46.08.75c0,.44,0,.83-.01,1.16v2.03c-.01.38.06.64.2.77.14.13.29.2.43.2.12,0,.25-.04.39-.12.14-.08.25-.2.34-.36.03-.05.06-.07.1-.07.07,0,.11.03.11.1Zm-3.59.36c.31-.13.59-.31.85-.55.09-.1.14-.16.14-.18h0s.03-1.55.03-1.55c0-.11-.03-.19-.09-.24-.06-.05-.14-.06-.25-.03-.96.24-1.66.49-2.11.75s-.67.61-.67,1.06c0,.26.09.48.27.67.18.18.48.27.9.27.3,0,.6-.06.92-.19Z"/>
          <path class="cls-1" d="m46.18,50.8c-.28-.27-.41-.67-.41-1.22v-4.48c0-.09-.03-.17-.08-.22-.05-.05-.12-.08-.22-.08h-.55c-.09,0-.17-.02-.22-.07-.05-.05-.08-.11-.08-.2,0-.15.08-.26.24-.34.41-.16.73-.41.97-.76.23-.35.42-.9.57-1.66.05-.19.12-.28.21-.28.1,0,.15.1.15.29v2.2c0,.09.03.17.08.22s.12.08.22.08h1.25c.2,0,.29.08.29.25,0,.08-.03.15-.08.2-.05.05-.12.07-.22.07h-1.26c-.09,0-.17.03-.22.08-.05.05-.08.12-.08.22v4.4c.02.32.11.57.28.76s.38.29.64.29c.21,0,.39-.03.52-.1s.27-.17.4-.32c.05-.06.09-.08.14-.08s.09.02.13.07c.04.05.06.09.06.14,0,.04,0,.07-.03.1-.37.57-.89.85-1.55.85-.51,0-.91-.13-1.18-.4Z"/>
          <path class="cls-1" d="m56.6,49.98v.08c-.15.4-.36.69-.64.85-.28.17-.55.25-.8.25-.23,0-.43-.06-.6-.18s-.3-.29-.39-.5c-.05-.11-.11-.17-.17-.17-.04,0-.09.03-.17.08-.32.26-.67.46-1.07.59-.4.13-.79.2-1.17.2-.54,0-.98-.13-1.31-.38-.33-.25-.5-.6-.5-1.04,0-.35.07-.64.22-.9.15-.25.39-.48.73-.67.21-.12.46-.23.78-.33.31-.1.74-.22,1.29-.37.49-.13.82-.22.98-.27.17-.05.25-.15.25-.32v-.35c0-.45-.02-.78-.07-.99s-.14-.41-.28-.57c-.21-.25-.56-.38-1.05-.38-.35,0-.61.08-.78.25s-.33.42-.45.77c-.16.45-.39.67-.69.67-.17,0-.32-.05-.46-.16s-.2-.25-.2-.43.06-.39.19-.62c.13-.24.38-.46.77-.66.39-.2.94-.3,1.66-.3.42,0,.82.07,1.2.22s.65.32.8.54c.14.2.24.4.29.61s.08.46.08.75c0,.44,0,.83-.01,1.16v2.03c-.01.38.06.64.2.77.14.13.29.2.43.2.12,0,.25-.04.39-.12.14-.08.25-.2.34-.36.03-.05.06-.07.1-.07.08,0,.11.03.11.1Zm-3.59.36c.31-.13.59-.31.85-.55.09-.1.14-.16.14-.18h0s.03-1.55.03-1.55c0-.11-.03-.19-.09-.24-.06-.05-.14-.06-.25-.03-.96.24-1.66.49-2.11.75s-.67.61-.67,1.06c0,.26.09.48.27.67.18.18.48.27.9.27.3,0,.6-.06.92-.19Z"/>
          <path class="cls-1" d="m61.74,51.06c-.09,0-.15-.06-.18-.2l-.42-1.71v-.07c-.01-.06.02-.1.1-.14.02,0,.04-.01.07-.01.07,0,.12.04.17.11.22.29.44.55.66.78s.52.44.92.64c.4.2.85.3,1.36.3.42,0,.76-.12,1.03-.36.27-.24.4-.54.4-.9,0-.21-.06-.41-.18-.59s-.29-.32-.52-.42c-.23-.11-.71-.27-1.41-.48-.36-.08-.66-.17-.88-.27-.92-.38-1.39-.96-1.39-1.74,0-.21.05-.45.16-.73.11-.29.31-.54.62-.78.3-.23.73-.35,1.28-.35.3,0,.56.04.78.1.22.07.35.11.39.12.18.07.29.1.35.1.18,0,.35-.06.52-.18.08-.06.15-.08.2-.08.08,0,.13.06.17.17l.46,1.5s0,.04.01.08,0,.08-.03.1l-.07.06s-.05.01-.08.01c-.06,0-.11-.02-.15-.07-.34-.38-.71-.72-1.11-1.01-.4-.29-.9-.44-1.48-.44-.31,0-.56.06-.76.18-.2.12-.35.27-.43.43-.09.17-.13.33-.13.48,0,.21.07.38.2.52.13.15.36.29.66.44.2.1.57.23,1.13.39.61.19,1.05.34,1.33.46.82.37,1.23.94,1.23,1.69,0,.59-.22,1.07-.66,1.43-.44.37-1.04.55-1.79.55-.4,0-.9-.1-1.51-.29-.22-.07-.36-.1-.41-.1-.11,0-.24.05-.39.15-.07.07-.13.1-.2.1Z"/>
          <path class="cls-1" d="m74.9,49.98v.08c-.15.4-.36.69-.64.85-.28.17-.54.25-.8.25-.23,0-.43-.06-.6-.18s-.3-.29-.39-.5c-.06-.11-.11-.17-.17-.17-.04,0-.09.03-.17.08-.32.26-.67.46-1.07.59-.4.13-.79.2-1.17.2-.54,0-.98-.13-1.31-.38-.33-.25-.5-.6-.5-1.04,0-.35.08-.64.22-.9.15-.25.39-.48.73-.67.21-.12.46-.23.78-.33.31-.1.74-.22,1.29-.37.5-.13.82-.22.98-.27.17-.05.25-.15.25-.32v-.35c0-.45-.02-.78-.07-.99-.05-.21-.14-.41-.28-.57-.21-.25-.55-.38-1.05-.38-.34,0-.61.08-.78.25s-.33.42-.45.77c-.16.45-.39.67-.69.67-.17,0-.32-.05-.46-.16s-.2-.25-.2-.43.06-.39.19-.62c.13-.24.38-.46.77-.66.39-.2.94-.3,1.66-.3.42,0,.82.07,1.2.22.38.14.65.32.8.54.14.2.24.4.29.61s.08.46.08.75c0,.44,0,.83-.01,1.16v2.03c-.01.38.06.64.2.77.14.13.29.2.43.2.12,0,.25-.04.38-.12.13-.08.25-.2.34-.36.03-.05.06-.07.1-.07.07,0,.11.03.11.1Zm-3.59.36c.31-.13.59-.31.85-.55.09-.1.14-.16.14-.18h0s.03-1.55.03-1.55c0-.11-.03-.19-.09-.24-.06-.05-.14-.06-.25-.03-.96.24-1.66.49-2.11.75s-.66.61-.66,1.06c0,.26.09.48.27.67.18.18.48.27.9.27.3,0,.6-.06.92-.19Z"/>
          <path class="cls-1" d="m83.33,50.62c.07,0,.11.07.11.2,0,.12-.04.18-.11.18h-3.14c-.07,0-.1-.06-.1-.18,0-.13.03-.2.1-.2h.2c.27,0,.48-.04.64-.11.16-.07.24-.23.24-.48v-2.6s-.03-.9-.03-.9c0-.5-.11-.9-.33-1.23-.22-.32-.59-.48-1.11-.48-.36,0-.7.09-1.03.27-.33.18-.62.46-.88.83-.07.12-.1.24-.1.36v3.74c-.01.23.07.39.24.47s.39.12.66.12h.18c.07,0,.1.07.1.2,0,.12-.03.18-.1.18h-3.14c-.07,0-.11-.06-.11-.18,0-.13.04-.2.11-.2h.18c.27,0,.49-.04.66-.12s.25-.24.25-.47l-.04-4.28c0-.2-.04-.34-.13-.43-.09-.09-.2-.15-.32-.18-.13-.03-.33-.06-.61-.1-.06,0-.09-.03-.11-.06-.01-.03-.02-.09-.02-.16,0-.06.02-.11.07-.13.19-.06.45-.13.8-.21.34-.08.68-.16,1.01-.24.02,0,.05-.01.1-.01.15,0,.22.09.22.27v.38c0,.16.05.24.14.24.07,0,.14-.04.21-.11.53-.56,1.15-.84,1.85-.84.74,0,1.29.2,1.67.61.38.41.58.91.61,1.5,0,.17.01.5.01,1.01,0,.76-.01,1.68-.04,2.76,0,.24.08.4.25.48.16.08.38.11.65.11h.18Z"/>
          <path class="cls-1" d="m85.29,51.06c-.09,0-.15-.06-.18-.2l-.42-1.71v-.07c-.01-.06.02-.1.1-.14.02,0,.04-.01.07-.01.07,0,.12.04.17.11.22.29.44.55.66.78s.52.44.92.64c.4.2.85.3,1.36.3.42,0,.76-.12,1.03-.36.27-.24.4-.54.4-.9,0-.21-.06-.41-.18-.59-.12-.18-.29-.32-.52-.42-.23-.11-.7-.27-1.41-.48-.36-.08-.66-.17-.88-.27-.92-.38-1.39-.96-1.39-1.74,0-.21.05-.45.16-.73.11-.29.31-.54.62-.78.3-.23.73-.35,1.28-.35.3,0,.56.04.78.1.22.07.35.11.39.12.18.07.29.1.35.1.18,0,.35-.06.52-.18.08-.06.15-.08.2-.08.08,0,.13.06.17.17l.46,1.5s0,.04.01.08c0,.04,0,.08-.03.1l-.07.06s-.05.01-.08.01c-.06,0-.11-.02-.15-.07-.34-.38-.71-.72-1.11-1.01-.4-.29-.9-.44-1.48-.44-.31,0-.56.06-.76.18s-.35.27-.43.43c-.09.17-.13.33-.13.48,0,.21.07.38.2.52.13.15.36.29.67.44.2.1.57.23,1.13.39.61.19,1.05.34,1.33.46.82.37,1.23.94,1.23,1.69,0,.59-.22,1.07-.66,1.43-.44.37-1.04.55-1.79.55-.4,0-.91-.1-1.51-.29-.22-.07-.36-.1-.41-.1-.11,0-.24.05-.39.15-.07.07-.13.1-.2.1Z"/>
          <path class="cls-1" d="m93.18,50.67c-.5-.35-.88-.8-1.15-1.34s-.4-1.09-.4-1.65c0-.6.13-1.17.39-1.71.26-.54.64-.98,1.14-1.32.5-.34,1.08-.5,1.76-.5s1.26.17,1.76.5c.5.34.89.77,1.16,1.32.27.54.4,1.11.4,1.71,0,.56-.13,1.11-.4,1.65-.27.54-.65.99-1.16,1.34-.5.35-1.09.53-1.76.53s-1.24-.17-1.74-.53Zm3.32-.83c.39-.57.58-1.29.58-2.16,0-.91-.19-1.65-.57-2.21-.38-.55-.91-.83-1.58-.83s-1.19.28-1.57.84c-.38.56-.57,1.29-.57,2.2,0,.56.09,1.07.26,1.53.17.46.42.83.74,1.09.32.27.7.4,1.14.4.66,0,1.19-.29,1.58-.86Z"/>
        </g>
        <g class="cls-4">
          <path class="cls-1" d="m4.96,66c-.07,0-.11-.07-.11-.21,0-.12.04-.18.11-.18h.2c.31,0,.59-.11.84-.32s.38-.48.38-.8v-7.39c0-.33-.1-.55-.29-.68s-.5-.19-.93-.19h-.2c-.07,0-.1-.06-.1-.2s.03-.2.1-.2h2.37c.18,0,.29.08.35.22l3.18,7.59c.04.12.1.18.2.18.07,0,.14-.06.2-.18l3.35-7.59c.06-.15.18-.22.34-.22h2.25s.08.02.09.05c.01.03.02.08.02.15,0,.13-.04.2-.11.2h-.21c-.44,0-.75.07-.92.2-.18.13-.27.36-.27.67v7.63c0,.33.09.56.28.69s.49.2.91.2h.21c.07,0,.1.06.1.18,0,.14-.03.21-.1.21h-3.93c-.06,0-.08-.07-.08-.21,0-.12.03-.18.08-.18h.24c.43,0,.74-.07.92-.2.19-.14.28-.36.28-.68v-6.72c0-.08-.01-.15-.04-.19-.03-.04-.07-.06-.11-.06-.07,0-.14.06-.2.18l-3.4,7.84c-.07.15-.13.22-.18.22s-.12-.07-.18-.22l-3.32-7.83c-.06-.12-.12-.18-.18-.18-.05,0-.08.02-.11.06-.03.04-.04.1-.04.19v6.47c0,.32.13.58.39.8s.53.32.81.32h.22c.06,0,.08.06.08.18,0,.14-.03.21-.08.21h-3.39Z"/>
          <path class="cls-1" d="m20.49,65.67c-.5-.35-.88-.8-1.15-1.34s-.4-1.09-.4-1.65c0-.6.13-1.17.39-1.71.26-.54.64-.98,1.14-1.32.5-.34,1.08-.5,1.76-.5s1.26.17,1.76.5c.5.34.89.77,1.15,1.32.27.54.4,1.11.4,1.71,0,.56-.13,1.11-.4,1.65s-.65.99-1.15,1.34c-.5.35-1.09.53-1.76.53s-1.24-.17-1.74-.53Zm3.32-.83c.39-.57.58-1.29.58-2.16,0-.91-.19-1.65-.57-2.21-.38-.55-.91-.83-1.58-.83s-1.19.28-1.57.84c-.38.56-.57,1.29-.57,2.2,0,.56.09,1.07.26,1.53.17.46.42.83.74,1.09.32.27.7.4,1.14.4.66,0,1.19-.29,1.57-.86Z"/>
          <path class="cls-1" d="m34.1,65.51s.05.07.05.13c0,.09-.03.15-.1.17l-1.67.27h-.08c-.15.01-.22-.08-.22-.27v-.41c0-.16-.05-.24-.15-.24-.07,0-.13.04-.2.11-.55.57-1.18.85-1.89.85-.8,0-1.37-.21-1.72-.62-.34-.41-.51-.91-.51-1.51v-3.26c-.01-.2-.06-.34-.15-.43-.09-.09-.2-.15-.33-.18-.13-.03-.33-.06-.59-.08-.07,0-.1-.03-.12-.06-.01-.03-.02-.07-.02-.12,0-.1.03-.16.08-.18.18-.06.44-.13.78-.21s.67-.16,1-.24c.03,0,.06-.01.1-.01.15,0,.22.09.22.27v1.75c0,1.51,0,2.38.01,2.6.02.43.14.8.36,1.13.22.32.59.48,1.1.48.35,0,.68-.09,1.02-.27.33-.18.62-.45.86-.81.07-.11.11-.23.11-.36l-.06-3.25c0-.2-.04-.34-.13-.43-.09-.09-.19-.15-.31-.18-.12-.03-.32-.06-.6-.1-.08,0-.13-.08-.13-.22,0-.06.03-.11.08-.13.18-.06.44-.13.78-.21s.67-.16.99-.24c.03,0,.06-.01.1-.01.15,0,.22.09.22.27l.03,5.32c0,.35.19.56.56.63.11.02.21.03.29.03.12,0,.2.01.23.04Z"/>
          <path class="cls-1" d="m43.01,65.62c.07,0,.11.07.11.2,0,.12-.04.18-.11.18h-3.14c-.07,0-.1-.06-.1-.18,0-.13.03-.2.1-.2h.2c.27,0,.49-.04.64-.11.16-.07.24-.23.24-.48v-2.6s-.03-.9-.03-.9c0-.5-.11-.9-.33-1.23-.22-.32-.59-.48-1.11-.48-.35,0-.7.09-1.03.27-.33.18-.62.46-.88.83-.07.12-.1.24-.1.36v3.74c-.01.23.07.39.24.47s.39.12.66.12h.18c.07,0,.1.07.1.2,0,.12-.03.18-.1.18h-3.14c-.07,0-.11-.06-.11-.18,0-.13.04-.2.11-.2h.18c.27,0,.49-.04.66-.12s.25-.24.25-.47l-.04-4.28c0-.2-.04-.34-.13-.43-.09-.09-.2-.15-.32-.18-.13-.03-.33-.06-.61-.1-.06,0-.09-.03-.1-.06-.01-.03-.02-.09-.02-.16,0-.06.02-.11.07-.13.19-.06.45-.13.8-.21.35-.08.68-.16,1.01-.24.02,0,.05-.01.1-.01.15,0,.22.09.22.27v.38c0,.16.05.24.14.24.07,0,.14-.04.21-.11.53-.56,1.15-.84,1.85-.84.74,0,1.29.2,1.67.61.38.41.58.91.61,1.5,0,.17.01.5.01,1.01,0,.76-.01,1.68-.04,2.76,0,.24.08.4.25.48.16.08.38.11.65.11h.18Z"/>
          <path class="cls-1" d="m45.3,65.8c-.28-.27-.41-.67-.41-1.22v-4.48c0-.09-.03-.17-.08-.22-.05-.05-.12-.08-.22-.08h-.55c-.09,0-.17-.02-.22-.07-.05-.05-.08-.11-.08-.2,0-.15.08-.26.24-.34.41-.16.73-.41.97-.76.23-.35.42-.9.57-1.66.05-.19.12-.28.21-.28.1,0,.15.1.15.29v2.2c0,.09.03.17.08.22s.12.08.22.08h1.25c.2,0,.29.08.29.25,0,.08-.03.15-.08.2-.05.05-.12.07-.22.07h-1.26c-.09,0-.17.03-.22.08-.05.05-.08.12-.08.22v4.4c.02.32.11.57.28.76s.38.29.64.29c.21,0,.39-.03.52-.1s.27-.17.4-.32c.05-.06.09-.08.14-.08s.09.02.13.07c.04.05.06.09.06.14,0,.04,0,.07-.03.1-.37.57-.89.85-1.55.85-.51,0-.91-.13-1.18-.4Z"/>
          <path class="cls-1" d="m55.72,64.98v.08c-.15.4-.36.69-.64.85s-.55.25-.8.25c-.23,0-.43-.06-.6-.18s-.3-.29-.39-.5c-.06-.11-.11-.17-.17-.17-.04,0-.09.03-.17.08-.32.26-.67.46-1.07.59-.4.13-.79.2-1.17.2-.54,0-.98-.13-1.31-.38-.33-.25-.5-.6-.5-1.04,0-.35.07-.64.22-.9.15-.25.39-.48.73-.67.21-.12.46-.23.78-.33.31-.1.74-.22,1.29-.37.49-.13.82-.22.98-.27.17-.05.25-.15.25-.32v-.35c0-.45-.02-.78-.07-.99-.05-.21-.14-.41-.28-.57-.21-.25-.56-.38-1.05-.38-.35,0-.61.08-.78.25s-.33.42-.45.77c-.16.45-.39.67-.69.67-.17,0-.32-.05-.46-.16s-.2-.25-.2-.43.06-.39.19-.62c.13-.24.38-.46.77-.66.39-.2.94-.3,1.66-.3.42,0,.82.07,1.2.22.38.14.65.32.8.54.14.2.24.4.29.61.05.21.08.46.08.75,0,.44,0,.83-.01,1.16v2.03c-.01.38.06.64.2.77.14.13.29.2.43.2.12,0,.25-.04.38-.12.14-.08.25-.2.34-.36.03-.05.06-.07.1-.07.07,0,.11.03.11.1Zm-3.59.36c.31-.13.59-.31.85-.55.09-.1.14-.16.14-.18h0s.03-1.55.03-1.55c0-.11-.03-.19-.09-.24-.06-.05-.14-.06-.25-.03-.96.24-1.66.49-2.11.75s-.67.61-.67,1.06c0,.26.09.48.27.67.18.18.48.27.9.27.3,0,.6-.06.92-.19Z"/>
          <path class="cls-1" d="m56.58,66c-.08,0-.11-.07-.11-.2s.04-.2.11-.2h.18c.27,0,.49-.04.65-.11.16-.07.24-.23.24-.48l-.04-4.27c0-.2-.04-.34-.13-.43-.09-.09-.19-.15-.31-.18-.12-.02-.32-.05-.61-.09-.06,0-.09-.02-.1-.04s-.02-.06-.02-.13c0-.05,0-.09.01-.13,0-.04.03-.06.06-.07.19-.06.45-.13.8-.21s.68-.16,1.01-.24c.02,0,.05-.01.1-.01.15,0,.22.09.22.27v5.53c-.01.24.07.4.23.48.16.08.39.11.67.11h.18c.07,0,.1.07.1.2s-.03.2-.1.2h-3.14Zm.88-8.88c-.16-.16-.24-.35-.24-.59s.08-.43.24-.59c.16-.16.35-.24.59-.24s.43.08.59.24c.16.16.24.35.24.59s-.08.43-.24.59c-.16.16-.35.24-.59.24s-.43-.08-.59-.24Z"/>
          <path class="cls-1" d="m68.59,65.62c.08,0,.11.07.11.2,0,.12-.04.18-.11.18h-3.14c-.07,0-.1-.06-.1-.18,0-.13.03-.2.1-.2h.2c.27,0,.49-.04.64-.11.16-.07.24-.23.24-.48v-2.6s-.03-.9-.03-.9c0-.5-.11-.9-.33-1.23-.22-.32-.59-.48-1.11-.48-.35,0-.7.09-1.03.27-.33.18-.62.46-.88.83-.06.12-.1.24-.1.36v3.74c-.01.23.07.39.24.47s.39.12.66.12h.18c.07,0,.1.07.1.2,0,.12-.03.18-.1.18h-3.14c-.08,0-.11-.06-.11-.18,0-.13.04-.2.11-.2h.18c.27,0,.49-.04.66-.12s.25-.24.25-.47l-.04-4.28c0-.2-.04-.34-.13-.43-.09-.09-.2-.15-.32-.18-.13-.03-.33-.06-.61-.1-.05,0-.09-.03-.1-.06-.01-.03-.02-.09-.02-.16,0-.06.02-.11.07-.13.19-.06.45-.13.8-.21s.68-.16,1.01-.24c.02,0,.05-.01.1-.01.15,0,.22.09.22.27v.38c0,.16.05.24.14.24.06,0,.13-.04.21-.11.53-.56,1.15-.84,1.85-.84.74,0,1.29.2,1.67.61.38.41.58.91.61,1.5,0,.17.01.5.01,1.01,0,.76-.01,1.68-.04,2.76,0,.24.08.4.25.48.16.08.38.11.65.11h.18Z"/>
          <path class="cls-1" d="m84.37,65.61s.08.02.09.05c.01.03.02.08.02.15,0,.13-.04.2-.11.2h-3.96c-.06,0-.1-.07-.1-.2s.03-.2.1-.2h.22c.42,0,.72-.07.92-.2.19-.14.29-.36.29-.67v-3.49c0-.09-.03-.17-.08-.22-.05-.05-.12-.08-.22-.08h-5.04c-.09,0-.17.03-.22.08s-.08.12-.08.22v3.47c0,.33.09.55.28.68.19.13.49.19.92.19h.21s.08.02.09.05c.01.03.02.08.02.15,0,.13-.04.2-.11.2h-3.96c-.06,0-.1-.07-.1-.2s.03-.2.1-.2h.22c.42,0,.72-.07.92-.2.19-.13.29-.36.29-.67v-7.63c0-.33-.1-.55-.29-.69-.2-.13-.5-.2-.91-.2h-.22c-.06,0-.1-.07-.1-.2s.03-.2.1-.2h3.96s.08.02.09.05c.01.03.02.08.02.15,0,.13-.04.2-.11.2h-.21c-.44,0-.75.07-.93.2s-.27.36-.27.69v3.04c0,.09.03.17.08.22.05.05.12.08.22.08h5.04c.09,0,.17-.03.22-.08s.08-.12.08-.22v-3.02c0-.33-.1-.56-.29-.69-.2-.13-.5-.2-.91-.2h-.22c-.06,0-.1-.06-.1-.2s.03-.2.1-.2h3.96s.08.02.09.05c.01.03.02.08.02.15,0,.13-.04.2-.11.2h-.21c-.44,0-.75.07-.93.2s-.27.36-.27.69v7.63c0,.33.09.55.28.68s.49.19.92.19h.21Z"/>
          <path class="cls-1" d="m93.05,65.51s.05.07.05.13c0,.09-.03.15-.1.17l-1.67.27h-.08c-.15.01-.22-.08-.22-.27v-.41c0-.16-.05-.24-.15-.24-.07,0-.13.04-.2.11-.55.57-1.18.85-1.89.85-.8,0-1.38-.21-1.72-.62-.34-.41-.51-.91-.51-1.51v-3.26c-.01-.2-.06-.34-.15-.43-.09-.09-.2-.15-.33-.18s-.33-.06-.59-.08c-.06,0-.1-.03-.12-.06-.01-.03-.02-.07-.02-.12,0-.1.03-.16.08-.18.18-.06.44-.13.78-.21.34-.08.67-.16,1-.24.03,0,.06-.01.1-.01.15,0,.22.09.22.27v1.75c0,1.51,0,2.38.01,2.6.02.43.14.8.36,1.13.22.32.58.48,1.1.48.35,0,.68-.09,1.02-.27.33-.18.62-.45.86-.81.07-.11.11-.23.11-.36l-.06-3.25c0-.2-.04-.34-.13-.43-.09-.09-.19-.15-.32-.18-.12-.03-.32-.06-.6-.1-.08,0-.13-.08-.13-.22,0-.06.03-.11.08-.13.18-.06.44-.13.78-.21.34-.08.67-.16.99-.24.03,0,.06-.01.1-.01.15,0,.22.09.22.27l.03,5.32c0,.35.19.56.56.63.11.02.21.03.29.03.12,0,.2.01.23.04Z"/>
          <path class="cls-1" d="m95.39,65.8c-.28-.27-.41-.67-.41-1.22v-4.48c0-.09-.03-.17-.08-.22-.05-.05-.12-.08-.22-.08h-.55c-.09,0-.17-.02-.22-.07-.05-.05-.08-.11-.08-.2,0-.15.08-.26.24-.34.41-.16.73-.41.97-.76.23-.35.42-.9.57-1.66.05-.19.12-.28.21-.28.1,0,.15.1.15.29v2.2c0,.09.03.17.08.22s.12.08.22.08h1.25c.2,0,.29.08.29.25,0,.08-.03.15-.08.2-.05.05-.12.07-.22.07h-1.26c-.09,0-.17.03-.22.08-.05.05-.08.12-.08.22v4.4c.02.32.11.57.28.76s.38.29.64.29c.21,0,.39-.03.53-.1.13-.07.27-.17.4-.32.05-.06.09-.08.14-.08s.09.02.13.07c.04.05.06.09.06.14,0,.04,0,.07-.03.1-.37.57-.89.85-1.55.85-.51,0-.91-.13-1.18-.4Z"/>
        </g>
      </g>
      <path class="cls-3" d="m52,102h-1v-16h1v16Z"/>
    </g>
  </g>
</svg>