<svg xmlns="http://www.w3.org/2000/svg" xmlns:xlink="http://www.w3.org/1999/xlink" width="116.121" height="102.059" viewBox="0 0 116.121 102.059">
  <defs>
    <clipPath id="clip-path">
      <rect id="長方形_7946" data-name="長方形 7946" width="116.121" height="102.058" fill="#fff"/>
    </clipPath>
  </defs>
  <g id="グループ_2592" data-name="グループ 2592" clip-path="url(#clip-path)">
    <path id="パス_1688" data-name="パス 1688" d="M71.3,31.347c.2-.207.36-.053.467-.26s.2-.2.237-.344a3.752,3.752,0,0,1,.451-.635s.115-.275.26.015a6.571,6.571,0,0,1,.207.765c.1.245.069.612.306.773s.069.382.268.589a6.014,6.014,0,0,1,.4.6.549.549,0,0,0,.276.184.983.983,0,0,0,.352.046,3.141,3.141,0,0,0,.367-.237,1.414,1.414,0,0,0,.168-.444.894.894,0,0,0-.13-.811.33.33,0,0,1-.337-.26,2.085,2.085,0,0,0-.207-.6c-.022-.015-.374-.987-.52-1.185a1.618,1.618,0,0,1-.184-.482c-.023-.015-.07-.145-.046-.152s.658-.421.7-.567.152-.114.275-.237a2.5,2.5,0,0,1,.406-.252c.03-.03,1.04-.551,1.04-.551a.553.553,0,0,0,.352-.1c.13-.115.374-.1.436-.123s.153.123.153.268-.2.719-.115.94-.046.444-.046.574-.1.245-.053.382.038.192.123.2a.744.744,0,0,0,.359-.122,1.711,1.711,0,0,0,.566-.758,8,8,0,0,0,.337-1.339,2.091,2.091,0,0,0,.314-.963c-.023-.489.13-.467-.237-.658s-.237-.329-.536-.26-.612-.008-.818.069-.108-.1-.459.145a7.769,7.769,0,0,0-.864.544c-.245.229-.367.145-.551.336s-.284.13-.444.291-.169.1-.352.229-.342.13-.416.222-.074.038-.174.176l-.03.042c0-.006.014-.03-.138.141-.244.275-.191.161-.313.29l-.123.13s-.023.023-.069,0a3.118,3.118,0,0,0-.337-.443c-.206-.184-.015-.238-.237-.314S72.132,27,72.071,27a.244.244,0,0,1-.122-.045s.536-.437.536-.521.137-.092.145-.168.26-.107.374-.229a.749.749,0,0,1,.284-.192c.069-.03.237-.1.26-.145s.2-.069.257-.092.255.023.324-.023.444-.023.451-.2a.933.933,0,0,0-.015-.26.507.507,0,0,0,.085-.421c-.062-.244-.1-.5-.314-.6s-.452-.23-.628-.145-1.27.933-1.347.994-.718.551-.788.651a5.884,5.884,0,0,1-.535.634,4.048,4.048,0,0,0-.719.574,1.425,1.425,0,0,1-.421.375c-.077.045-.375.038-.536.321s-.3.268-.23.474a.961.961,0,0,0,.283.482,1.821,1.821,0,0,0,.536.192c.1,0,.168.16.359,0s.352-.222.459-.39a1.024,1.024,0,0,1,.406-.382c.1-.023.107.137.153.19a1.044,1.044,0,0,0,.329.245c.115.038-.015.145.137.229s.153.135.168.179l.053.15a8.543,8.543,0,0,0-1.124,1.193c-.192.352-.314.077-.36.222s-.122.176-.122.322.007.069.122.26a.555.555,0,0,0,.352.259c.137.062.214.414.413.207M70.587,32.5a1.755,1.755,0,0,1,.023-.482,1.079,1.079,0,0,0-.245-.291.834.834,0,0,0-.344-.16H69.9c-.054.03-.422.054-.482.237s-.16.069-.192.252-.137.138,0,.4a1.15,1.15,0,0,1,.2.535c.016.2.016.582.038.742s.015.474.023.619.077.359,0,.482-.16.16-.16.275-.085.283-.069.4.092.092.167.184a.422.422,0,0,0,.23.153c.045,0,.084.175.314.168s.412-.023.466-.108.145-.329.184-.4a1.673,1.673,0,0,0,.085-.414c.007-.107.03-.765.038-.8s-.046-.8-.1-1.117-.008-.528-.053-.666M63.6,88.647c-.5,0-.522-.077-.763,0a7.4,7.4,0,0,1-.86.022,4.878,4.878,0,0,1-.882.054,5.746,5.746,0,0,0-.863.032c-.194.032-.39,0-.52.043a1.768,1.768,0,0,1-.4.044l-.065-.109a3.567,3.567,0,0,1,.109-.468c.076-.25.2-.414.2-.5s.032-.338.032-.338a.387.387,0,0,0-.119-.49c-.273-.175-.273-.2-.392-.175s-.229.033-.295.055-.109-.174-.228-.01-.5.261-.5.435S58,87.471,58,87.82a3.75,3.75,0,0,1-.087.7,4.945,4.945,0,0,1-.088.556l.12-.359s.073-.217.093-.279c-.018.18-.049.468-.071.606-.033.207-.1.164-.186.218a1.765,1.765,0,0,1-.729.3,2.256,2.256,0,0,0-.316.011,8.246,8.246,0,0,0-.218-.806,10.259,10.259,0,0,1-.251-1.046l-.01-.25s.435-.141.489-.25.066,0,.251-.109a2.058,2.058,0,0,1,.577-.218c.066,0,.338-.109.654-.186s.446-.141.643-.185a4.705,4.705,0,0,1,.752-.054,2.305,2.305,0,0,0,.468-.077c.218-.043.534.175.729.12s.4.109.774.077.741.043.816-.1.295-.2.295-.414.228-.511.076-.643a1.194,1.194,0,0,0-.534-.272c-.141-.01-.479-.163-.632-.13s-.413.032-.62.087-.385-.032-.765.055-.434-.076-.815.087-.5.011-.893.153a4.648,4.648,0,0,1-.7.141c-.13.054-.283-.083-.566.079s-.359.063-.567.194a2.182,2.182,0,0,1-.413.175c-.13.065-.239.043-.284.087a.355.355,0,0,1-.2.087,1.045,1.045,0,0,1-.391-.087,3.151,3.151,0,0,0-.273-.164s-.218-.066-.261-.022a2.518,2.518,0,0,1-.284.174.437.437,0,0,0-.295.175c-.152.175-.3,0-.283.25s-.12.077.076.316.251.131.392.436a3.192,3.192,0,0,1,.261.61c.054.218.327,1.72.327,1.72s0,.338.125.458a1.019,1.019,0,0,1,.168.2l-.065.088s-.665.021-.752.174-.4.175-.4.175a2.533,2.533,0,0,0-.686.229,11,11,0,0,0-1.144.6c-.119.152-.4.087-.566.261s-.25.207-.261.3-.1.1,0,.25,0,.055.2.186a1.335,1.335,0,0,0,.425.152c.033.021.066.043.273.043a.764.764,0,0,0,.719-.239,7.067,7.067,0,0,1,1.742-.708.912.912,0,0,1,.729-.392,3.072,3.072,0,0,0,.959-.207c.119-.043.5-.229.489-.348s.49-.142.631-.251a1.592,1.592,0,0,1,.458-.185,1.922,1.922,0,0,0,.306-.131,2.339,2.339,0,0,1,.544-.141,3.634,3.634,0,0,0,.773-.152,1.8,1.8,0,0,1,.545-.1c.066-.011,1.122.1,1.329.119s.284-.043.338.022a.512.512,0,0,0,.284.12c.087.01.446.043.631.043a1.633,1.633,0,0,0,.49-.088c.032-.021.348-.13.425-.239s.12-.12.12-.24.108-.425.087-.489.12-.447-.381-.447M53.346,34.91c-.024.076.11.236.213.34a.988.988,0,0,0,.491.226.6.6,0,0,0,.557-.321,1.843,1.843,0,0,0,.321-1.519c-.132-.878-.566-.622-.8-.83s-.377.028-.613.085-.151.481-.151.481a.678.678,0,0,1-.018.5,4.033,4.033,0,0,0,0,1.043M40.56,32.363c.492.148.561.126.823,0s.218-.332.287-.561a1.6,1.6,0,0,0-.48-1.19,1.182,1.182,0,0,0-1.1.092.883.883,0,0,0-.1.846,1.89,1.89,0,0,0,.572.812m11.046,2.321c.123.141.3.254.5.046s.349.123.358-.377.472-.783.067-1.114a1.732,1.732,0,0,0-.925-.349s-.273.123-.284.321-.169.028-.178.377-.16.189.075.5.264.453.387.6m29.427,1.929c-.276-.164-.286-.133-.449-.387s-.092,0-.244-.051-.163,0-.255-.081-.184-.041-.51-.255l-.124-.082a1.716,1.716,0,0,0-.3.071.4.4,0,0,1-.123,0c-.03,0-.224.062-.306.062s-.132.112-.27.2-.035.346-.056.438a.809.809,0,0,0,.1.327l-.112.163-.4.235a1.962,1.962,0,0,1-.561.4,2,2,0,0,0-.414.241A1.238,1.238,0,0,1,77,37.459c.046-.168.146-.207.123-.321s.106-.138.048-.222.028-.07.082-.215a1.269,1.269,0,0,0,.1-.566,2.5,2.5,0,0,0-.18-.314c0-.007-.01-.024-.024-.042.018-.009.024-.019.024-.075,0-.117.155-.04.186-.132s.275-.143.858-.459c.175-.1.259-.137.3-.153,0,0,.006-.02.049-.062.184-.174.275-.092.449-.224s.377-.112.561-.265a.72.72,0,0,0,.255-.316c.092-.163.2-.082.306-.235a3.639,3.639,0,0,0,.367-.5c.2-.347.113-.255.113-.327s-.082-.174-.123-.311-.112-.057-.275-.26-.174,0-.254,0-.367.082-.449.082-.163.152-.215.224a2.826,2.826,0,0,0-.35.409c-.086.162-.486.53-.67.5s-.184.112-.265.116-.326.221-.408.251a2.28,2.28,0,0,1-.551.3c-.316.1-.132.249-.418.341a.911.911,0,0,0-.378.194l.021.094-.033-.03s-.046.115-.627.314a2.189,2.189,0,0,0-1.018.519c-.152.193-.856.989-.986,1.157s-.795.6-.811.826-.152.2-.221.336-.235.123-.221.215-.323-.429-.063.2.184.6.306.673a1.158,1.158,0,0,0,.375.123c.13.03.137-.038.222,0a.4.4,0,0,0,.329-.031,2.163,2.163,0,0,0,.436-.374,3.774,3.774,0,0,0,.29-.36c.008-.022-.282-.329.284-.933A9.489,9.489,0,0,1,75.7,36.457c.023.045.092-.192.152.168a1.446,1.446,0,0,1-.145.8,3.2,3.2,0,0,0-.229.956c.03.237-.13.367-.153.466s-.1-.06-.053.252-.023.421.1.628.069.406.5.406.544.068.773-.038a.855.855,0,0,0,.459-.39c.122-.206.222-.5.29-.581s.39-.359.39-.359c.067-.058.209-.023.29-.085a2.454,2.454,0,0,0,.275-.174c.041-.051.439-.356.6-.54s.371-.48.625-.541.082.051.123.121a2.04,2.04,0,0,0,.224.236,1.633,1.633,0,0,0,.3.224.541.541,0,0,0,.245.112c.132.041.184.062.337.1a.678.678,0,0,0,.387-.05c.112-.03.275-.357.408-.623s-.05-.3-.112-.652-.174-.122-.449-.285m-6.209-3.346c-.061.153-.245.239-.267.322s-.13.145-.177.2a1.877,1.877,0,0,1-.167.164.877.877,0,0,1-.409.421c-.289.13-.464.077-.526.222s-.122.114-.107.29-.344-.038.115.291.474.321.6.337.046.244.291,0,.306-.345.367-.406a2.586,2.586,0,0,0,.382-.319c.152-.179.222.005.336-.24a.6.6,0,0,1,.329-.321,2.356,2.356,0,0,1,.406-.222,2.643,2.643,0,0,1,.337-.054,2.551,2.551,0,0,0,.6-.222c.085-.015.23.084.237-.268s.015-.551-.16-.619-.177-.152-.406-.115a4.01,4.01,0,0,0-.673.085c-.23.077-.459.038-.6.145s-.444.153-.505.306M94.036,17.1c.337-.352.7-.841.7-.841a8.105,8.105,0,0,1,.933-.75c.168-.062.29-.168.4-.168a.8.8,0,0,0,.367-.107,3.242,3.242,0,0,0,.322-.153,1.438,1.438,0,0,1,.581-.168c.367-.061.52-1.025.412-1.178a.914.914,0,0,0-.428-.321c-.184-.077-.382.077-.566.077a6.7,6.7,0,0,0-.888.321c-.138.031-.382.168-.444.184s-.122.077-.428.444S93.592,15.817,93.44,16a2.573,2.573,0,0,1-.612.459,1.478,1.478,0,0,1-.414.138,2.766,2.766,0,0,1-.459.092,5.6,5.6,0,0,0-.581.137c-.306.062-.122.092-.221.153s.007.321.007.321a2.959,2.959,0,0,0,0,.367c.015.046.276.184.428.337s.307.06.766,0a1.259,1.259,0,0,0,.658-.245,3.983,3.983,0,0,0,1.025-.658m22.049,6.906c-.13-.209-.626-.418-.888-1.045s0-.288-.445-.941c-.06-.088-.113-.166-.16-.237l-.388-.573s-.6-.6-.549-.94-.209-.5-.314-.732-.365,0-.523-.287.131-.862-.314-1.045-.5-.418-.679-.836-.445-.731-.654-1.228-1.045-1.1-.889-1.49-.627-.709-.627-.709-.314-.206-.314-.441.052-.915-.34-1.2a1.163,1.163,0,0,1-.522-.653c-.079-.21-.079-.941-.523-1.124a1.536,1.536,0,0,1-.68-.759s-.444-1.228-.863-1.385-.1-.993-.47-1.019-.184-.34-.6-.784-.314-.836-.706-1.15-.47-.784-.6-.863-.157-1.62-.732-1.568-.575-.732-.575-.732-.261-.705-.757-.705-.784-.131-.941,0S100.145.607,99.57,1.5s-.628.842-1.1.79-.811-.444-1.2.131S96.067,3.1,95.6,3.7s-.863.366-1.124.654-.836.209-.994.549a.791.791,0,0,1-.784.575,1.277,1.277,0,0,0-1.019.6c-.053.209-.575.235-.706.418s-1.045.052-.966.731c0,0-.1-.133-.456.235s-.678.25-.892.571-.629.142-.831.475-.3.072-.8.368-.974.428-1.176.582-.237-.035-.642.178a.824.824,0,0,1-.413.093,1.376,1.376,0,0,0-.448-.875c-.568-.5-.59-.318-.749-.636a13.158,13.158,0,0,0-.613-1.339c-.362-.634-.113-1.156-.816-1.679a2.63,2.63,0,0,1-.908-1.315s-.431-.93-.771-1.088-.431-.636-.681-.636-1.338-.5-1.656-.476a5.869,5.869,0,0,0-1.724.249c-.521.227-.885.25-1.112.363s-1.043-.295-1.543.272a3.536,3.536,0,0,1-1.429.817c-.2.113-.567.067-.839.7a9.871,9.871,0,0,1-.952,1.452c-.091.182-.2-.114-.5.453s-.5.25-.839,1S68.494,7,68.7,8.11a19.334,19.334,0,0,0,.318,2.268c.182.341.2,2.065,1,2.563s.953.953,1,1.2a1.768,1.768,0,0,0,.5,1.112,7.894,7.894,0,0,1,.794,1.293c.131.146.052.352.182.481a1.363,1.363,0,0,0-.409.334c-.333.416.166.084-1,.555s-1.275.333-1.636.915-.72.391-1.136.708a15.491,15.491,0,0,0-1.941,1.094c-.471.471-.576.139-1.27.872a.271.271,0,0,1-.188.008c-.218-.078-.483.3-.608.313s-.5.531-1.03.608-.359.25-.609.219-.655.531-.765.531-.593.5-.983.406-.718.343-.766.374-.514.7-.874.593-.577.438-.671.39-.789.318-.789.318a9.413,9.413,0,0,0-1.907-1.071,2.36,2.36,0,0,1-1.316-.785c-.076-.128-.133-.286-.269-.345-.086-.037-.187-.026-.274-.062-.2-.083-.232-.359-.38-.521-.229-.245-.629-.143-.961-.188-.66-.088-1.061-.773-1.652-1.077a1.772,1.772,0,0,1-.587-.346c-.131-.155-.183-.385-.36-.484-.2-.112-.476,0-.675-.118-.149-.09-.2-.279-.307-.419-.225-.3-.653-.335-.991-.5-.574-.274-.948-.949-1.58-1.028a3.109,3.109,0,0,1-.446-.042c-.357-.1-.543-.521-.892-.647-.224-.081-.486-.027-.695-.141-.234-.127-.319-.412-.428-.654a1.09,1.09,0,0,0-.122-.207,2.565,2.565,0,0,0,.032-.45,4.547,4.547,0,0,1,.7-1.946q.621-1.138,1.235-2.279l1.181-2.19a1.951,1.951,0,0,0,.306-.883.53.53,0,0,0-.09-.084c-.065-.046-.143-.084-.175-.157a.321.321,0,0,1-.011-.148c.011-.135.023-.269.034-.4l-.648-1.343c-.255-.53-.511-1.059-.817-1.562a.812.812,0,0,1-.4-.367,2,2,0,0,0-.121-.258c-.082-.116-.219-.178-.317-.281a1.22,1.22,0,0,1-.2-.356c-.052-.121-.112-.239-.176-.355-.319-.36-.653-.706-.995-1.043l-.07-.069a.848.848,0,0,1-.232-.047c-.209-.089-.287-.346-.47-.48a1.762,1.762,0,0,0-.517-.18,1.044,1.044,0,0,1-.671-.723l0,0a.275.275,0,0,1-.525-.139L40.5.912a.309.309,0,0,1-.164-.023A.3.3,0,0,1,40.215.67,2.175,2.175,0,0,1,38.848.291a1.46,1.46,0,0,0-.253-.234c-.351-.2-.748.192-1.15.236-.294.033-.591-.127-.879-.058a1.144,1.144,0,0,0-.508.35,2.206,2.206,0,0,0-.824,1.4,4.378,4.378,0,0,1,.021.652c-.118.695-1.122.907-1.337,1.578a6.944,6.944,0,0,1-.142.731,2.008,2.008,0,0,1-.408.49A1.9,1.9,0,0,0,32.876,6.8c-.234-.1-.4.23-.47.473s-.373.514-.523.31a2.308,2.308,0,0,1-.041.977.813.813,0,0,1-.653.57.556.556,0,0,0-.18-.017c-.224.015-.434.174-.655.132-.242-.044-.374-.3-.552-.47-.4-.383-1.046-.342-1.522-.625-.361-.215-.6-.6-.972-.8-.329-.168-.824-.288-.8-.656-.665.145-1.287-.786-1.906-.5.036-.392-.016-.915-.4-1-.267-.058-.548.158-.807.072-.3-.1-.473-.562-.772-.465l-.052-.459c-.643.114-1.119-.553-1.693-.883.042.009.084.021.127.029l-.167-.051.038.021A5.9,5.9,0,0,1,18.5,2.32a4.977,4.977,0,0,0-.711-.53l-.049-.023a5.1,5.1,0,0,0-1.674-.98c-.383-.112-.886-.241-.92-.639a1.573,1.573,0,0,0-1.367.266c-.157.17-.245.417-.454.518a1.171,1.171,0,0,0-.208.094c-.189.141-.095.452-.211.658-.094.167-.307.229-.438.369a1.529,1.529,0,0,0-.238.7,3.324,3.324,0,0,1-.569,1.013,8.411,8.411,0,0,0-1.345,3.194,1.339,1.339,0,0,1-.172.52c-.207.3-.63.361-.9.605a1.706,1.706,0,0,0-.343.507,4.783,4.783,0,0,0-.543,1.414,3.518,3.518,0,0,1-.157.875,2.157,2.157,0,0,1-.19.324,12.382,12.382,0,0,0-.918,1.666.4.4,0,0,0-.036.024,2.054,2.054,0,0,0-.775,1.243,1.876,1.876,0,0,1-.113.473c-.165.344-.609.5-.749.854-.111.284,0,.639-.181.885-.126.175-.356.235-.519.375a1.522,1.522,0,0,0-.37.825,6.664,6.664,0,0,1-.97,2.116,2.3,2.3,0,0,0-.415.786,3.551,3.551,0,0,1-.1.675c-.123.294-.44.453-.634.705-.438.565-.255,1.565-.895,1.886a.55.55,0,0,0-.2.124c-.075.095-.048.237-.1.345-.07.136-.242.176-.383.236s-.282.219-.206.352a.6.6,0,0,0-.435.6,1.416,1.416,0,0,0,.269.744c.191.3.505.611.847.514a.921.921,0,0,0,.641.535.641.641,0,0,1,.311.106.872.872,0,0,1,.132.219c.211.369.731.363,1.139.485a3.106,3.106,0,0,1,.911.523l.673.5a1.113,1.113,0,0,0,.3.177,1.185,1.185,0,0,0,.267.042,1.634,1.634,0,0,0,.14.229c.371.5.882.195,1.322.82s1.253.209,1.879.6a3.421,3.421,0,0,1,1,.719c.533.51.9.07,1.322.557a2.24,2.24,0,0,0,1.253.835c.627.209.65.325,1.16.882s.6.069,1.3.418.487.418.835.928.441-.162,1.091.209.881.534.881.534l.151.152c-.1.38-.214.748-.313.768a.861.861,0,0,0-.626.751c0,.418-.709.793-.792,1.043s-.375-.208-.418.584-1.043,1.544-.959,2.295,0,.667-.292,1.293-.96,1.168-1,1.543-.668.709,0,1.335a2.391,2.391,0,0,0,.283.229,1.428,1.428,0,0,0,.261.6c-.24.287-.639.55.04.924.241.132.393.221.5.292a3.418,3.418,0,0,0,.294.757c.3.515.3.584.421.8s.084.613.286.865.457.438.46.61h0c0,.33.024.949.252,1.015.292.083-.042.041.334.458s.584.084.667.543-.375.709.418,1.293.751.625.792.959-.083.668.334.959A1.989,1.989,0,0,0,20.1,56.4c.292-.083.751.042.917-.208s.418-.209.668-.668.918-1.877,1.252-2.5.834-1,.792-1.293,0,.125.418-.418-.334-.542.667-1.585.5-1.043,1.293-2.295.918-.771.918-1.595.209-.908.584-1.408a9.11,9.11,0,0,0,.74-1.7c.163.154.344.265.412.129a.442.442,0,0,1,.3-.254s.1.184.748.2.762-.042.931.127a3.308,3.308,0,0,1,.381.48,2.144,2.144,0,0,0,.62.395c.056.014-.141.311.254.226s.324-.07.719.268.621.338.677.338.325.3.579.339.451-.254.536.127.028.423.226.465.155.127.381.212a1.992,1.992,0,0,0,.8.3c.353,0,.325-.085.536.2s.184.423.409.522.283.48.677.522.339-.254.706.212.465.507.634.536a1.167,1.167,0,0,1,.86.24,5.661,5.661,0,0,0,.692.451c.084.071.3.24.3.24a.3.3,0,0,0,.311.3c.311.011.325-.19.493.066.152.229.462.312.677.642a4.11,4.11,0,0,1,.156,1.349c-.074.961-.316,1.109.009,1.479s.066,1.146-.009,1.479a5.694,5.694,0,0,0,.168,1.884c.128.222-.35.739,0,1.183a1.186,1.186,0,0,1,.386,1c0,.481-.3.075-.148.592s.259.665.148.887-.547.369-.44,1,.345,5.1.485,5.582a1.312,1.312,0,0,1,0,.814s-.194.074-.194.48-.3.407-.26.813a1.385,1.385,0,0,1-.088.608,5.327,5.327,0,0,0-.816-.2,1.173,1.173,0,0,0-.629.019l-.369.221s-.888.019-1.072-.185-.573-.018-.72-.055a6.111,6.111,0,0,1-1.719-.24c-.777-.277-.888.277-1.035.388A1.009,1.009,0,0,1,35,69.234c-.462-.24-.5.315-.591.407s-.314.241-.848.055-.131.111-.741.573-.776.37-.776.37-.407.869-.721,1.035-.147.425-.165.5a.8.8,0,0,1-.278.518c-.259.241-.111.729-.111.729a1.548,1.548,0,0,1-.2.547,2.554,2.554,0,0,0,.173,1.5.509.509,0,0,1,.031.554c-.111.259.111.869.129,1a2.551,2.551,0,0,0,.628,1.016c.444.5.166.462.3.777s.129.2.518.813.2.037.48.369.408.222.741.61a4.737,4.737,0,0,0,1.2.758,3.353,3.353,0,0,0,.777.111,8.4,8.4,0,0,1,.72.7.663.663,0,0,0,.721.259s4.546.056,5.193.056.61.314.61.314a3.243,3.243,0,0,1,.239.888c.018.369,0,1.091,0,1.091v4.6c0,.942.334.98.334.98l.167,9.611-.388.24a1.777,1.777,0,0,0-.093.961c.075.647.777.591.777.591l.185.2c.185.2,1.109,0,1.386,0a5.551,5.551,0,0,0,.85-.13h9.653c.52,0,.443-.162.443-.162a1.709,1.709,0,0,0,.458.175.272.272,0,0,0,.285-.175l1.042.015a.942.942,0,0,0,.538.156,1.22,1.22,0,0,0,.411-.124s3.364.174,3.665.11.079-.285.2-.332.474.141.474.141,1.675-.014,1.753,0a2.035,2.035,0,0,0,.837-.154c.174-.127.489.151.489.151s.727.006.917,0a1.452,1.452,0,0,0,.52-.168c.19-.079.427.156.427.156s1.706.033,2.038-.014,1.169.047,1.975,0c.482-.028.465-.13.374-.208a1.5,1.5,0,0,0,.352-.9V98.942a1.919,1.919,0,0,1-.4-.853c0-.347.095-5.1.095-5.1s.158-.11.064-.427l-.142-.473.142-2.97-.206-.237-.031-5.513s.553-.347.474-.569a.445.445,0,0,1-.024-.255h2.284s.6-.1,1.018-.13,2.088,0,2.088,0,.1-.127.313-.012a.715.715,0,0,0,.47.047,4.748,4.748,0,0,1,.6-.244c.079,0,2.715.169,2.715.169l6.316-.169s.34.365.523.169A.893.893,0,0,1,90,82.2h.809s.992-.313,1.044-.626a2.6,2.6,0,0,0,0-.679l-.287-.627-.758-1.618s.235-.235-.156-.339a.6.6,0,0,1-.444-.47,1.815,1.815,0,0,0-.261-1.1,4.473,4.473,0,0,1-.5-.7l-.261-.653a.338.338,0,0,0-.156-.261c-.157-.1-.079-1.044-.34-1.174a.708.708,0,0,1-.339-.391s-.209-.888-.365-.888-.1-1.148-.235-1.148-.47-.34-.47-.34l-.391-.6s-.026-.626-.444-.626H82.663a.748.748,0,0,0-.523-.261h-.756s-.758-.13-.888,0a1.309,1.309,0,0,1-.5.209,1.857,1.857,0,0,0-.835-.156c-.365.052-.391.183-.652.052a2.458,2.458,0,0,0-.731-.162l-.626.162s-.235-.156-.235.183-.313,1.07-.548.888-.13-.992-.13-.992l-.288-.241H73.71a1.992,1.992,0,0,1-.608-.36c-.2-.209-.332-.652-.541-.73a1.313,1.313,0,0,1-.215-.122V64.9s-.02-.47-.15-.522,0-9.448,0-9.448.092-.47.15-.757a2.177,2.177,0,0,0,0-.653.64.64,0,0,1-.177-.34V51.665l.079-.47s.066.137.124-.166.111-.669.111-.669c.036-.24.3-.191.534-.4s.626-.13,1.019-.365a2.134,2.134,0,0,0,.836-.68c.261-.365.575-.365.862-.47a7.9,7.9,0,0,0,1.359-.81c.288-.2.354-.268.355-.288h.037a5.705,5.705,0,0,0,.914-.627,2.732,2.732,0,0,1,1.438-.679c.732-.1.366-.288.419-.289a7.33,7.33,0,0,1,1.254-.888,3.366,3.366,0,0,0,.81-.445s.5-.5.915-.471.47-.627.863-.627a1.165,1.165,0,0,0,.784-.365c.157-.131.392.052.81-.157a1.047,1.047,0,0,0,.523-.628s.366-.314.575,0a1.9,1.9,0,0,0,.759.522s.47.445.47.68-.366.287,0,.575.731.235.758.366.314.365.366.679-.1.314.392,1.046.6.731.6.914-.052.759.261.759a.392.392,0,0,1,.393.235s-.105.391.157.5.365-.053.418.183a5.167,5.167,0,0,0,.511,1.02,2.854,2.854,0,0,1,.508,1.1.669.669,0,0,0,.287.575,2.412,2.412,0,0,0,.34.209s.34-.209.34.288-.5.391,0,.758.731.47.784.731a.573.573,0,0,0,.627.419c.261-.052.418.209.628-.131s.418-.025.444-.418.522-.5.6-.81-.261-.784.13-.863.549-.215.575-.473.026-.6.236-.729.183-.946.183-.946l.522-.308a1.732,1.732,0,0,1,.654-1.02c.522-.339.051-.313.287-.679s.81-.784.784-1.176a2.031,2.031,0,0,1,.209-.863s.522-.705.575-.836.418-.522.575-.862.6-.81.444-1.2.026-.967-.209-1.255-.13-.863-.314-.993-.209-.549-.209-.549-.183-.706-.392-.863a.962.962,0,0,1-.261-.549,3.44,3.44,0,0,0-.314-.732c-.183-.288-.1-.575-.261-.863a5.049,5.049,0,0,0-.679-.758A1.548,1.548,0,0,1,98.76,34.8a.937.937,0,0,0,.057-.249l.255-.117a1.362,1.362,0,0,0,.68-.444c.209-.314.183-.366.575-.392s.156,0,.836-.392.784-.6.836-.784.862.053,1.071-.235.157-.418.523-.444.026-.366.6-.523a2.372,2.372,0,0,0,.784-.314,3.306,3.306,0,0,0,.5-.34c.209-.131.418-.34.574-.366a1.074,1.074,0,0,0,.732-.209c.34-.261.549-.758.81-.81s.156.183.6-.144a2.855,2.855,0,0,1,.993-.536c.131,0,.157.131.34-.1s.026-.34.47-.392.392-.052.68-.392.391-.444.522-.47a2.043,2.043,0,0,0,.47-.314l.261.026a.939.939,0,0,0,.524-.235,2.743,2.743,0,0,1,.365-.314l.889-.235.993-.68s.836-.183,1.046-.6.47-.575.339-.785m-80.4,49.323c-.074.14-.369.136-.48-.123s-.2-.055-.832-.11a1.615,1.615,0,0,0-1.053.2c-.333.129-.24-.2-.24-.2a2.19,2.19,0,0,0-.012-.664c-.067-.2.068-.131.141-.427s.259,0,.462-.259.37-.147,1.275-.277.3.277.388.444a6.309,6.309,0,0,1,.444.758c.222.462-.018.518-.093.659m6.044-2.406c.166-.325.315-.064.61-.131s.462.27.462.27.018,2.329,0,2.358-.018.358-.278.433a1.332,1.332,0,0,1-.573,0,.978.978,0,0,0-.111-.351,1.51,1.51,0,0,1-.129-.37s0-.684.037-.942.018-.333-.166-.746-.018-.2.147-.52m1.183,7.015c-.018.129-.093.369-.185.739a.8.8,0,0,0,.092.629,3.929,3.929,0,0,1-.092.924c-.093.2-.37.111-.832.089s-.387-.015-.554-.348-.315-.629-.388-.795a5.392,5.392,0,0,1-.166-.758s.148-.555,0-.758-.518.258-.518.258-.222.3-.333.481.037.758-.074.906a1.307,1.307,0,0,0-.148.72c0,.3-.647.277-.647.277s-.758.093-.906-.185-.647,0-.647,0l-.018-.906.166-.111c.167-.111.147-.351.129-.591a.546.546,0,0,1,.167-.444c.092-.129.018-.573.018-.573s.055-.831.055-1.386-.166-.721-.166-.721V72.857a.965.965,0,0,0-.314-.665c-.277-.3,0-.444,0-.628a.38.38,0,0,1,.333-.37c.165,0,.314-.258.314-.258s.758-.074.961-.129a.36.36,0,0,1,.425.222c.037.129.444.418.444.418s.055,2.557.018,2.908.24.462.37.648.314.111.591.24.425-.055.684-.185.147.018.111.221.185.241.185.408.147.258.351.276.148.222.129.426.444.813.444.813.018.61,0,.74m29.714-.018,0-.151c0-.115,0-.241.005-.377l0-.382c0-.311.008-.653.012-1l0-.208c0-.142,0-.285.005-.428v-.092c.006-.472.011-.934.016-1.338l0-.191c0-.067,0-.132,0-.195l0-.129c0-.112,0-.217,0-.31v0c0-.122,0-.223,0-.3v-.138c0-.031,0-.049,0-.049l.007-.561a1.333,1.333,0,0,1,.545-.352,1.025,1.025,0,0,0,.574-.131c.079-.078.235.053.288-.13a11.427,11.427,0,0,1,2.48-.1l.287-.016s.234.486.391.251l.156-.235.5-.016s.314.3.418.2.522.344.522.344a.836.836,0,0,0,0,.7,4.086,4.086,0,0,1,.313.626c.026.078-.025.548.1.678s-.156.314,0,.574a.919.919,0,0,1,.156.418s-.391.287,0,.314a8.332,8.332,0,0,0,.862,0,6.555,6.555,0,0,1,0-1.383c.079-.809.052-.914-.13-1.123S80.105,72,80.105,72l.1-.209,3.759-.078,1.149.051a.553.553,0,0,0,.444.1c.26-.052.365.444.365.444a.66.66,0,0,0,.365.73,1.454,1.454,0,0,1,.6.888s-.261.679,0,.888.574.258.627.376a.91.91,0,0,1,.183.433,1.387,1.387,0,0,0,.183.627,1.109,1.109,0,0,1,.366.757,1.2,1.2,0,0,0,.313.705,4.933,4.933,0,0,1,.548.913c.052.261-.078.235.1.47s.053.183.235.5.469.757.26.913a2.576,2.576,0,0,1-1.227.183,11.064,11.064,0,0,0-2.087,0,1.288,1.288,0,0,1-.705.183c-.261,0-.183-.26-.757-.26s-.81.26-.966-.157a3.246,3.246,0,0,1-.183-1.227c.026-.26.183-.992-.079-1.2s-.13-.679-.13-.965.183-.288-.052-.6-.443-.731-.835-.47-.626.261-.548.679.13-.418.261.809a15.8,15.8,0,0,1,.026,2.532.324.324,0,0,0-.287.286c-.026.261-.627.365-.705.365a2.16,2.16,0,0,1-.913-.025,3.085,3.085,0,0,0-.888-.157c-.13,0-1.723-.1-1.723-.1s-.313.47-.339-.679a18.334,18.334,0,0,1,.131-2.375,3.025,3.025,0,0,1-.34-.392c-.053-.1-.1-.783-.418-.6s-.783.1-.783.418V77.9a8.681,8.681,0,0,1-.209,1.618.993.993,0,0,1-.418.653,1.138,1.138,0,0,1-.861.235,1.74,1.74,0,0,1-.627-.235c-.13-.079-.313-.235-.548-.1s-.518.261-.528.191v0a1.673,1.673,0,0,0-.037-.2c-.11-.4.016-.806-.142-1.091a1.48,1.48,0,0,1-.174-.568c0-.068,0-.235.005-.469m-.012,23.4-.024-.012-.01-.01.034.022M80.64,9.2h0a1.142,1.142,0,0,0,.352-.272c.022-.113.453-.839.816-.363a4.623,4.623,0,0,1,.635,1.248c.113.295-.136.567.068,1.044a1.565,1.565,0,0,1,.094.309.708.708,0,0,0-.14.129c-.2.225-.356.142-.582.391s-.642-.2-.88.245-.463.195-.962.694a2.919,2.919,0,0,1-.97.712c-.194.088-.355-.025-.358.19h0a1.434,1.434,0,0,0-.231.206c-.528.582-.915.471-1.386.749s-.832.083-1.359.527-.774.417-1.023.636c-.136-.222-.254-.411-.254-.411s-.318-.317.453-.725,1.18-.862,1.633-.953,1.021.114,1.293-.476.5-.34.545-.975c.039-.552.129-.966,0-1.14a5.174,5.174,0,0,1,.677-.379c.59-.272.365-.779.843-1.007A4.629,4.629,0,0,0,80.64,9.2M77.817,3.6c.2-.114.567.136.521.5s-.521,0-.521,0-.2-.386,0-.5M72.6,5.16c.136-.091.322-.249.547-.408s.516-.477.565-.227a.574.574,0,0,1,.021.088c.026.162.018.5-.475.638-.658.182-.794,0-.658-.091m-.522,6.965a5.6,5.6,0,0,1-.045-1.18c.069-.045-.453-.362.477-.407s1.519-.227,1.633-.545.113-.409.363-.431.612-.772,1.5-1.066.885.272,1.315-.59.612-1.066.771-1.157S79.2,6,79.336,5.864s.023-.908.476-.5a1.74,1.74,0,0,1,.5,1.361,2.957,2.957,0,0,1-.2,1.112c-.114.2-.772.34-.772.521,0,.068-.076.157-.158.259a1.031,1.031,0,0,0-1,.489c-.273.567-.476.658-.725.681s-2.017.241-2.041.8c-.1.008-.188.052-.228.242-.091.431-.794.34-.045.749s.681.318.749.408-.158.522-.5.7-1.135.136-1.5.295-.113,1.021-.93.159-.861-.772-.885-1.021M36.754,2.395a.387.387,0,0,1,.293-.295c.076-.01.153.01.227-.005s.146-.095.112-.162a1.192,1.192,0,0,1,.46.079.694.694,0,0,0,.677-.272.941.941,0,0,0,.795.215l.478.3c.119.075.253.183.232.321s-.177.2-.31.235a.915.915,0,0,1-.681.011.821.821,0,0,0-.183-.1c-.157-.039-.3.106-.372.252a1,1,0,0,1-.253.411.563.563,0,0,1-.426.056A.615.615,0,0,1,37.48,3.3a.287.287,0,0,1-.068-.33H36.9a.119.119,0,0,1-.141-.134,1.143,1.143,0,0,1,0-.438m.657,3.355c.131.006.286.025.348.14.071.13-.023.306.049.434a.533.533,0,0,0,.221.16,1.251,1.251,0,0,1,.423.524,1.423,1.423,0,0,0,.405.54.467.467,0,0,0,.617-.044c-.021.216.254.328.472.335s.482,0,.59.193a1.674,1.674,0,0,0,.1.22c.166.21.56-.027.758.154.072.066.095.17.155.246a.6.6,0,0,0,.371.164l.924.17a1.684,1.684,0,0,1,.434.123,2.765,2.765,0,0,0,.325.173,2.748,2.748,0,0,0,.527.043c.425.053.876.42,1.227.175.139.083.075.3-.042.417s-.278.2-.313.36.086.361-.01.5c-.107.158-.371.089-.521.21-.2.158-.046.475-.093.723-.063.335-.478.5-.573.828-.078.263.062.6-.14.79-.165.153-.482.1-.584.306-.031.062-.036.141-.091.185-.1.085-.241-.045-.339-.137a1.321,1.321,0,0,0-1.008-.231.474.474,0,0,1-.318-.055.867.867,0,0,1-.135-.172c-.19-.248-.553-.258-.841-.379a1.416,1.416,0,0,1-.775-1.059,3.441,3.441,0,0,1,.078-1.356.763.763,0,0,0,.022-.309.616.616,0,0,0-.247-.339,1.847,1.847,0,0,0-.787-.362c-.338-.067-.734-.06-.953-.324-.068-.082-.109-.182-.168-.269a1.574,1.574,0,0,0-1.2-.5.443.443,0,0,1-.214-.06c-.169-.123-.083-.4-.166-.587-.069-.161-.247-.241-.376-.361-.427-.4-.235-1.1-.378-1.667l2.227.095m-4.2,4.242q-.035-.268-.072-.536l.6-.028c0-.182,0-.364,0-.546a.661.661,0,0,0,.687-.417,2.853,2.853,0,0,1,1.2,1.081.55.55,0,0,0,.149.226.47.47,0,0,0,.314.052l.869-.058c-.087.287.37.408.532.662s-.018.6-.244.8-.511.369-.619.654c-.1.251-.062.6-.3.721-.188.1-.412-.02-.589-.136l-1.6-1.043a2.794,2.794,0,0,0-.509-.283,1.8,1.8,0,0,0-.75-.617c.1-.221.1-.544.323-.531M24.934,45.832a9.576,9.576,0,0,1-1.168,1.762c-.584.542-.626.125-1.293-.041s-.543-.251-1.168-.835-.75-.166-.919-.626-.374-.667-1-1.168-.627,0-.793.343.166.616.459,1.075a2.107,2.107,0,0,0,.626.709A11.016,11.016,0,0,1,20.6,48.3c.459.584.667.125.876.584a.88.88,0,0,0,.752.466,2.023,2.023,0,0,1,0,1.529c-.293,1.077-.334.382-.584.841s-.292,1.168-.459,1.376a1.273,1.273,0,0,1-.752.418c-.417.125-.375.459-.625,1.084s-.5-.041-.668-.417a4.9,4.9,0,0,1-.625-1.961c-.042-.918-.5-.626-.709-.918s-.25-.875-.667-1.668-.376-.584-1.085-1.084-.041-.751-.125-1.627-.667-.751-.709-1.094a5.046,5.046,0,0,1,0-1.617c.125-.792.292-.542.668-1.084s-.167-1.168.25-1.167.418-.585.793-1.252.166-.584.417-.793.543-.167.959.417.251,0,.543.376.166.417.625.834,1.043,1.126,1.168,1.251a11.6,11.6,0,0,1,1.418.793c.5.418.793.041,1.168.418s.5.208,1.293.706.834.545.418,1.119m1.794-3.118c-.25.625-.668.208-.793.208a6.361,6.361,0,0,1-1.752-.333,7.506,7.506,0,0,1-1.5-.625,8.257,8.257,0,0,1-1.251-1.169c-.751-.792-1-.292-1.586-.991s-.25-.719-.458-1.47-.418-.251-.752-.71c-.173-.238.093-.408.387-.517a6.084,6.084,0,0,1,1.108.237c.3.162.673.162.974.65s.673.093,1.067.557a6.066,6.066,0,0,0,1.578.974c.417.255.834.325,1.6.766s.464.371,1.021.232a.367.367,0,0,1,.211,0,2.219,2.219,0,0,1,.174.194,1.155,1.155,0,0,1,.01.479s.129.1.3.235a6.077,6.077,0,0,1-.337,1.283m16.7,5.821-.448-.215c.019-.129.273.036-.357-.319a6.741,6.741,0,0,1-1.058-.634c-.31-.24-.042.2-.578-.3a3.439,3.439,0,0,0-.649-.565c-.466-.338-.593-.394-.438-.55s.564-.24.564-.818.494-.664-.013-.945-.508-.579-.734-.268-.493.085-.606.353-.705.155-.719.324-.226.056-.254.24-.381.24-.353.41-.042-.071-.423-.184a3.563,3.563,0,0,1-1.058-.424c-.593-.324-.763-.649-1.044-.705s-.24.071-.565-.254-.367-.113-.606-.451-.2-.466-.537-.41-.338-.311-.663-.438-.592-.451-.832-.479-.763-.466-.9-.339-.212-.225-.212-.225.437-.353.465-.593.48-.283.085-.479.014-.452-.522-.438-.607-.411-1.044,0a.967.967,0,0,1-.335.239c-.119-.222-.846.247-1.3-.266s-.742.139-1.091-.151-.835-.591-.951-1.032-.58.046-.812-.371-.51,0-.928-.6-.695.139-.927-.348-.882-.371-1.114-.6.232-.464.325-.487a2.28,2.28,0,0,0,.673-.278c.232-.163.093-.209.232-.534s.324.07.834,0,.464-.3.6-.719-.139-.3-.627-.487-.672.116-1.02.093-.65.209-1,.209a3.513,3.513,0,0,0-.882.232c-.3.07-.209-.116-.6-.3s-.58.534-.7.7-.441.116-.816-.371-.53.023-.808-.162a6.217,6.217,0,0,1-1.369-.9c-.44-.464-.44-.069-.927-.418s-.441-.116-.441-.371-.046-.186-.069-.441,1.044-.116,1.368-.139,1.415,0,1.9-.093.348-.348.232-.788-.557-.326-.65-.465-.209-.186-.65-.418-.626-.046-.951.3-1.368.255-1.623.255-.395-.07-.557-.487-.348-.162-.882-.093-.069.395-.255.7-.464.255-.673,0S12.8,31.08,12.4,31.1s-.487-.023-.7-.394-.51-.371-.742-.58a1.23,1.23,0,0,0-1.09-.533c-.7.023.069-.418-.51-.6a.509.509,0,0,1-.326-.559c.582-.378.9-1.221,1.59-1.279a4.992,4.992,0,0,0,.55,0c.18-.034.359-.2.307-.378-.075-.253-.471-.194-.666-.372-.079-.073-.118-.181-.2-.252a.639.639,0,0,0-.418-.111,1.985,1.985,0,0,0-1.685.493.953.953,0,0,1-.271.3c-.306.156-.654-.235-.989-.159-.173.038-.332.2-.5.142-.1-.033-.155-.13-.234-.2-.419-.343-1.065.338-1.555.106a3.718,3.718,0,0,1-.315-.224,1.929,1.929,0,0,0-.315-.134,1.67,1.67,0,0,1-1.013-1.7,3.232,3.232,0,0,1,.5-1.224,2.788,2.788,0,0,1,.751-.945,1.4,1.4,0,0,1,.785-.247,1.733,1.733,0,0,0,.389-.013.776.776,0,0,0,.5-.839,3.877,3.877,0,0,0-.32-1.008,1.243,1.243,0,0,1-.011-1.029c.24-.417.883-.629.845-1.109a3.432,3.432,0,0,1-.085-.43.647.647,0,0,1,.093-.268A4.175,4.175,0,0,1,7.4,16.68.665.665,0,0,1,8,16.4c.418.108.446.871.877.87A.63.63,0,0,0,9.308,17l.462-.524a.6.6,0,0,0,.141-.214.591.591,0,0,0,0-.262l-.093-.722a.671.671,0,0,0-.079-.28.736.736,0,0,0-.31-.225c-.346-.174-.7-.466-.691-.852a.8.8,0,0,1,.026-.169,2.161,2.161,0,0,1,.472-.428.744.744,0,0,0,.361-.692,1.035,1.035,0,0,1,.714.526,3.609,3.609,0,0,0,.528.748.669.669,0,0,0,.835.1.93.93,0,0,0,.228-.733l.015-1.02a.978.978,0,0,0-.036-.347c-.137-.374-.646-.44-.918-.73-.349-.372-.212-.969-.052-1.454a3.654,3.654,0,0,1,.71-1.42,1.353,1.353,0,0,0,.347-.44,2.653,2.653,0,0,0,.042-.554c.068-.534.651-.862.811-1.375a1.683,1.683,0,0,1,.186-.567.6.6,0,0,1,.666-.145,1.786,1.786,0,0,1,.592.414l.9.837c.216.2.525.414.777.262a.574.574,0,0,0,.135-.695,2.364,2.364,0,0,1-.249-.723,2.143,2.143,0,0,0,.019-.561.773.773,0,0,0-.285-.353,8.034,8.034,0,0,0-.838-.6.755.755,0,0,1-.216-.17A.547.547,0,0,1,14.6,2.98a1.112,1.112,0,0,1,.361-.284c.021.019.042.037.065.055.7.548,1.766.5,2.376,1.147.27.286.443.7.812.833.3.109.665,0,.937.167.2.126.295.373.474.532.368.327.966.182,1.4.421.4.223.6.749,1.041.877.293.084.628-.033.9.1a1.48,1.48,0,0,1,.356.309c.706.7,1.831.751,2.654,1.3a.654.654,0,0,1,.24.246c.121.26-.088.551-.105.838-.022.371.276.681.374,1.041a3.932,3.932,0,0,1,.052.765,4.139,4.139,0,0,0,1.147,2.213.832.832,0,0,0,.265.243.5.5,0,0,0,.619-.2.719.719,0,0,0,.006-.686c-.154-.311-.476-.517-.609-.837a1.53,1.53,0,0,1-.092-.426,14.667,14.667,0,0,1-.092-1.748,24.4,24.4,0,0,0,4.763,2.437,1.956,1.956,0,0,1,.5.243c.19.143.319.353.5.5a.53.53,0,0,0,.652.073v0c.578.415,1.137.854,1.671,1.323a3.1,3.1,0,0,0,1.794,1,2.655,2.655,0,0,1,.932.04,1.38,1.38,0,0,1,.375.267l1.615,1.451c.186.166.455.341.66.2.073.176.144.354.217.531l.777.394a1.632,1.632,0,0,0,.661.222.664.664,0,0,0,.338-.08,1.613,1.613,0,0,0,.361.411c.391.314.955.506,1.09.989.067.235.009.493.087.725.113.337.488.547.562.895.048.23-.015.539.195.646.141.073.329-.01.464.073s.14.265.218.4a.429.429,0,0,0,.743-.1c.066-.24-.094-.476-.176-.71s-.013-.585.236-.6a.436.436,0,0,1,.21.061c.51.255.971.712,1.54.686a.934.934,0,0,1,.5.025c.139.078.2.248.309.363.271.279.763.165,1.09.378a1.914,1.914,0,0,1,.356.376,5.16,5.16,0,0,0,1.768,1.052,6.571,6.571,0,0,1,1.438.96.655.655,0,0,0,.227.151c.173.054.393-.04.525.085.1.1.079.275.171.381a.5.5,0,0,0,.363.108,2.129,2.129,0,0,1,1.393.641c.024.025.049.052.076.076a.687.687,0,0,1-.02.308,3.962,3.962,0,0,0-.308,1.336,3.69,3.69,0,0,0,.165.955,3.592,3.592,0,0,1,0,1.405c-.042.258-.218-.037,0,.813a5.851,5.851,0,0,1,0,1.663c.069.258-.094,1,.173,1.368a1.631,1.631,0,0,1,.229.924,7.7,7.7,0,0,0,0,.961,8.438,8.438,0,0,1,0,1,4.676,4.676,0,0,0,.015,1.146,2.748,2.748,0,0,1-.3,2.033c-.461.481-.83.333-1.127.591s-.554.3-1.071.666-1.405.629-1.627.887-.443,0-.7.666.111.85-.629.85-.849-.074-1.33.369a6.46,6.46,0,0,1-.961.739c-.11.074-.591.111-.738.48s-.481.186-.814.592-.739.407-.813.7-1.22.369-1.22.776-.074.481-.48.555-.7.407-.813.407-1.183-.222-1.183-.222M71.262,97.425c0,.058-.051,1.771-.084,2.415a1.907,1.907,0,0,1-.974.1,1.763,1.763,0,0,0-1.137.2,5.438,5.438,0,0,1-1.169-.172c-.174-.11-.237.155-.237.155a10.594,10.594,0,0,1-2.053-.076c-.285-.142-.206.076-.206.076a.577.577,0,0,1-.379-.155c-.157-.157-.285.141-.285.141s-2.227.033-2.275,0a3,3,0,0,0-.71-.251.607.607,0,0,0-.633.142s-.537.19-.648.069a1.194,1.194,0,0,0-.521-.322.6.6,0,0,0-.538.18c-.126.18-.173.2-.473-.006s-.427.047-.648,0-.332-.252-.474-.394-.4.047-.458,0a2.515,2.515,0,0,1-.711-.569c-.19-.284-.569-.11-1.027-.126a.735.735,0,0,1-.535-.185l-.034-.043c-.518-.647-1.257-.351-1.515-.351s-.628.018-1.2.018-.573.426-.555.555a8.224,8.224,0,0,0,.462.906,4.395,4.395,0,0,1-1.367.018c-.721-.111-.315.327-.315.327a2.308,2.308,0,0,1-.684-.271c-.222-.167-.185.148-.462.25s-.369-.177-.628-.361-.96.356-.96.356-.481.032-.61-.079-.591.111-.791-.037-.429.093-.429.093-.351.111-.37-.148-.443-.332-.443-.387-.13-2.68-.075-3.2-.185-.48-.185-.536.148-5.73.148-5.97-.241-.555-.333-.832,0-.258.129-.647a.573.573,0,0,0-.213-.629,23.478,23.478,0,0,1,.157-2.91c.129-.156-.018-.675-.018-1.026s.147-.462.222-.684.24-.259.406-.388.332.444.369.518a1.818,1.818,0,0,0,.536.517,1.609,1.609,0,0,1,.629.518,1.241,1.241,0,0,0,.517.462.427.427,0,0,0,.666-.2c.148-.315-.037-.407-.2-.759s0-.221,0-.591-.387-.573-.462-.665-.332-.093-.332-.573-.518-.37-.592-.666-.351-.277-.369-.425-.259-.093-.333-.7a9.058,9.058,0,0,0-.167-.924c-.036-.24-.351-.314-.388-.609s-.3-.388-.3-.758a.72.72,0,0,0-.24-.555l-.1-7.414c.037-1.229-.009-3.048-.009-3.048s.37.222.444-.074.333.221.333.221.036.739.332.739.3.148.333.444-.185.48.259.518.554.628.665.777.111.85.739,1.22.3.739.37.85a1.53,1.53,0,0,0,.407.518c.222.147.443.924.443.924s.186.665.666.443.578-.185.677-.776.381-.666,0-1-.381.3-.64-.666.074-.628-.518-1.146a5.553,5.553,0,0,1-1-1c-.036-.111-.407-.85-.665-1.331a4.585,4.585,0,0,1-.555-1.183c-.037-.3.407-.7-.258-.961a2.846,2.846,0,0,1-1.146-.7c-.111-.148-.481-.518-.481-.518a.8.8,0,0,0-.147-.813,2.148,2.148,0,0,1-.37-1.072L44.5,57.258s-.186-.851.518-.3.369.555.7.887.407.888.739.628a3.492,3.492,0,0,0,.665-1.109,4.438,4.438,0,0,0-.443-.951,2.614,2.614,0,0,1-.434-1.267c-.158-.776-.158-.3-.491-1.035s.408-1.22-.036-1.737.023-.734-.432-1.273l.547-.816c.624-.239.735.066.957-.295s.249-.645.638-.642.527,0,.665-.246.36-.138.36-.387.028-.195.472-.361,0-.638.443-.166.5.538.528.782-.277.522.165.91.31.471.446.776.22.971.636,1.026.306.195.471.444.166.3.417.388c.21.07.226-.23.441-.111v0s.233.058.191-.253-.1-.426-.093-.468a.966.966,0,0,0-.054-.172,1.225,1.225,0,0,1-.124-.38c-.194-.86.027-.61-.388-1.026s-.665-.478-.665-.753.138-.939-.055-1.217-.8-.831-.775-.914.331.138.636-.277.111.027.306-.417.443-.554.638-.527.609.158.72,0a4.786,4.786,0,0,1,.777-.578s.083-.527.416-.527.444-.138.555,0,.5.86.72,1.22-.222.582.194.693.055.333.222.555-.083.887,0,1.137-.381.464.058.855.777.42.9.78.289.444.4.139a4.072,4.072,0,0,0,.111-.985s.277.041,0-.679a2.562,2.562,0,0,1-.222-1.386c.027-.417.638-.084,0-1a12.95,12.95,0,0,1-.777-1.392c-.36-.549-.5-.8-.3-.909a9.9,9.9,0,0,1,1.426-.444c.182-.027.293-.194.431-.221s.888,0,.888,0,.056.749,1.137.693.249.5.665.72.028.444.721.5.831.138.915.416.277.666,0,.971-.5.5-.5.859-.027.831-.027.97,0-.277.194.36-.056,1.137.194,1.053.444.333.444-.693-.111-1.191,0-1.5.222-.72.222-.72.388-.25.444-.417.165.528.443.528.055.36.388.332.61.166.693.111-.166.693.194.721-.276.8.222.97.139.776.139.86-.028.693-.028.971a2.556,2.556,0,0,1-.249.776,1.239,1.239,0,0,1-.077.16s-.49,1.291-.108,1.4a.621.621,0,0,0,.673-.23c0-.045.063-.691.26-.78a1.02,1.02,0,0,0,.354-.331c.05-.188-.029-.428.145-.616.221-.24.36.065.36-.684a3.859,3.859,0,0,1,.3-1.306c0-.008,0-.022,0-.042a.934.934,0,0,1,.873.24,2.064,2.064,0,0,0,.861.653c.079.078.261.13.444.26s.6-.078.809.235a4.423,4.423,0,0,1,.523.862c.025.156-.131.705,0,1.018a2.344,2.344,0,0,1,.209.783,9.017,9.017,0,0,1-.157.914s-.287.052-.26.444a5.357,5.357,0,0,0,.051,1.044c.079.1.418-.131.47.391s-.079.757,0,1.018.261,3.837.261,3.837-.314.131-.391.861.13,4.177.13,4.177.209.079-.052.861a5.05,5.05,0,0,0-.26,1.436l.077.7c0,.333.016.576.1.655.1.095.055.538.1.648a2.426,2.426,0,0,1,.064.49.993.993,0,0,0-.363.663c-.016.4-.3.616-.316.711a2.962,2.962,0,0,0-.253.759,4.372,4.372,0,0,1-.442,1.058,4.848,4.848,0,0,0-.221.679c0,.111-.337.569-.3.742a1.639,1.639,0,0,1,0,1.074c-.192.458-.618.648-.618.9a3.316,3.316,0,0,1,0,.695c-.047.095-.378.348-.411.411s.047.253.064.379-.237.19-.158.427a.532.532,0,0,0,.268.316s.047.458.222.569.642.347.637.064a7.375,7.375,0,0,1,.09-.885,3.537,3.537,0,0,0,.7-1.406c0-.505.427-.774.332-1.027s-.079-.379-.031-.394.363-.158.363-.158.316-.11.331-.221.269.474.269.679a12.532,12.532,0,0,0-.127,2.353,7.681,7.681,0,0,1,.3.9l-.121,4.556c0-.072.016-.146.062.215.064.505,0,2.512,0,2.512s.269.489-.063.568-.474.127-.505.332-.285.4-.379.538-.19.19-.19.316a1.171,1.171,0,0,1,0,.332c-.031.079-.49.648-.711.995a1.443,1.443,0,0,0-.268.853c0,.268-.095.489,0,.615s.19.332.6,0,.4-.41.411-.52a.977.977,0,0,1,.237-.427c.047,0,.379-.237.521-.19s.411-.064.45.394-.1.554,0,.648-.2.253.007.379a.954.954,0,0,1,.3.49l-.126,3.523s-.252,0-.047.41a1.443,1.443,0,0,1,.174.758M98.89,39.349c.366.5.549.288.654.628s-.34.392,0,.706.391.183.575.47.522-.079.365.627a1.4,1.4,0,0,1-.444.863c-.131.209-.444.314-.444.444s-.1.47-.131.68-.575.5-.6.758.052.392-.156.6-.575.261-.628.47a2.308,2.308,0,0,1-.366.731c-.235.366-.365-.1-.418.445s-.471.5-.6.863-.549.758-.549,1.071-.366.627-.419.993-.523.524-.523.836.079.6-.287.785-.391.13-.627,0-.445-.627-.6-.81-.079-.1-.287-.5-.21-.914-.366-1.254a3.542,3.542,0,0,0-.47-.862,1.265,1.265,0,0,1-.287-.81c0-.131-.314-.81.1-.784s.445.1.759-.1.365-.419.81-.5.391-.261.6-.471,1.071-.235,1.175-.418a1.878,1.878,0,0,0,.471-.863c.052-.443.707-.862.079-.888s-.889-.287-1.125.079a2.3,2.3,0,0,1-.444.575c-.209.209-.444.18-.549.234s-.418.08-.522.184-.235.052-.366.184.131-.079-.13.13-.366.157-.549.235-.417-.078-.561.079-.093.261-.511.157a1.82,1.82,0,0,1-.993-.732c-.183-.287.1.288-.183-.287s-.184-.758-.34-.889a4.47,4.47,0,0,1-.628-.836c-.235-.365-.444-.183-.444-.575s.156-.705.1-.861.026-.21.392-.445.444-.654.758-.549.366-.314.627-.235.942-.706,1.059-.68a4.516,4.516,0,0,0,1.476-.758c.288-.288.34-.523.6-.523s.563.13.778-.288.241-.549.634-.549a2.071,2.071,0,0,0,.758-.131c.288-.078.549-.339.654-.183s.444.183.444.183a1.561,1.561,0,0,1,.235.863c.026.6.1.549-.5.889a3.648,3.648,0,0,0-1.124,1.045c-.366.419-.941.575-1.2.889s-.287.235-.522.471-.758.13-1.228.261-.759.078-.785.365-.13.184,0,.575.34.392.575.419a1.8,1.8,0,0,0,.915,0,6.158,6.158,0,0,0,.706-.34s.189-.052.46-.131.48.1.689-.183.053-.522.549-.68.68.053.836-.286a1.835,1.835,0,0,1,.836-.759c.366-.209.419-.537.785-.477s.078-.647.444-.15m14.818-15.236a4.5,4.5,0,0,0-.941.6c-.078.13-.914.053-.993.261s-.419.314-.47.418-.026-.1-.314.21-.052-.131-.575.261-1.176.34-1.255.653a.729.729,0,0,1-.705.471c-.261,0-.419.183-.549.444s-.6.1-.706.314-.078.183-.549.34-.653-.235-.758.209-.026.731-.522.522-.863-.7-1.045.07-.393.767-.575.845-.785-.34-.889,0a1.339,1.339,0,0,1-.445.679c-.183.157-.77.287-.777.445s-.164.261-.4.261a.68.68,0,0,0-.627.392c-.105.261-.444.391-.68.574a8.807,8.807,0,0,0-.731.5c-.183.183-.34.052-.47.314s-.34.156-.5.339-.287.079-.418.184-.314-.157-.444.156-.681.572-.681.572l-.13,0a1.99,1.99,0,0,0-.993.706,1.355,1.355,0,0,1-.784.6s-.366-.313-.994.236a7.773,7.773,0,0,1-1.437,1.1,15.757,15.757,0,0,0-1.62.888c-.209.21-.6.157-.81.471s-1.411.6-1.411.6a.418.418,0,0,0-.523.13c-.183.288-.993.706-1.124.889s-.784.1-.915.34-.549.6-.549.731a2.581,2.581,0,0,1-.288.6,3.248,3.248,0,0,0-.784.131,5.829,5.829,0,0,1-.575.261c-.078.052-.47-.053-.679.156s-.915.235-.915.235-.035.064-.084.157a3.827,3.827,0,0,1-.909.6c-.184,0-.287.654-.627.549s-1.229.68-1.333.68-1.725.915-1.935.993-.365.55-.679.55-.34.156-1.071.444c-.432.169-.418.373-.415.5a2.379,2.379,0,0,1-.227.127,1.339,1.339,0,0,0-.566.192.628.628,0,0,1-.18,0c-.161-.032-.71-.668-.936-.56-.04.019-.086-.258-.215-.323s-.258-.258-.355-.344-.226.054-.237-.194.15-1.668-.312-1.615-.721-.065-.883.42-.387.721-.387.937-.366.139,0,.646.355.312.494.6-.054.473.29.634.345-.107.582.258a1.182,1.182,0,0,0,.446.386L70.1,48.991a8.171,8.171,0,0,0-.725-.693.943.943,0,0,1-.523-.183,2.64,2.64,0,0,1-.469-.549s-.053-.339-.366-.339a.8.8,0,0,1-.548-.313h-.354a.566.566,0,0,0-.308-.607,5.587,5.587,0,0,1-1-.666c-.609-.444-.167-.61-.776-.61s-.582-.165-1.137-.693-.8-.36-1.109-.693-.417-.166-.693-.693-.721-.443-1.165-.8a3.565,3.565,0,0,1-1.053-1.164,3.486,3.486,0,0,0-.728-.992.99.99,0,0,0-.047-.466,2.791,2.791,0,0,1-.219-.687l.136-2.528s.348-.281.348-.531.14-.281.218-.39.438-.094.484-.3.125-.28.234-.265.609.386.812,0,.483-.482.562-.731.265-.7.3-.859.343-.812,0-1.109-.219-.514-.407-.531-.374-.531-.608,0-.106.438-.451.8-.408.016-.548.469-.484.452-.578.671a.514.514,0,0,1-.5.234c-.046-.031,0-1.873,0-1.873l-.094-1.841s.8-.11.562-.593a3.868,3.868,0,0,0-.359-.641l.173-1.4.01-.5c.136-.015.614-.032.8-.329s.359-.234.641-.3.265-.437.827-.5.765-.937,1.061-.968.546-.234.8-.249.14-.188.624-.359.468-.109.531-.484.234-.125.562-.119a.548.548,0,0,0,.3-.076,1.644,1.644,0,0,1,.054.73,2.374,2.374,0,0,1-.749,1.11,3.59,3.59,0,0,0-.388,1.025c0,.306-.277.8.166.749a2.762,2.762,0,0,0,1.136-.72c.084-.084.139.027.583-.36s.86-.662.97-.969.139.247.277-.446a4.472,4.472,0,0,1,.166-.831,2.25,2.25,0,0,1,.333-.388c.083-.055.555-.61.555-.61a1.818,1.818,0,0,1,0-1.192c.249-.416,1.136-.638,1.164-.72s-.056-.166.471-.527.942-.361,1.275-.721a6.8,6.8,0,0,1,1.83-.887,9.833,9.833,0,0,0,1.552-.943c.555-.416.832-.387,1.22-.72s1.137-.166,1.636-.721a7.268,7.268,0,0,1,1.608-1c.222-.194-.166-.971.693-.527s-.056,1.22-.36,1.635-.832.61-.86.915-.444.527-.472.666S76.985,19,77.733,19a1.307,1.307,0,0,0,1.192-.5,1.612,1.612,0,0,1,.888-.388,3.313,3.313,0,0,0,.72-.416s.582-1.248.666-1.331a8.363,8.363,0,0,0,1.386-2,2.253,2.253,0,0,1,.582-1.053,2.66,2.66,0,0,0,.539-.629.936.936,0,0,0,.5-.111c.19-.179.392-.012.51-.357s.214-.2.606-.428.654-.249.689-.416.487-.142.69-.368.071-.285.344-.345a1.284,1.284,0,0,0,.523-.2c.06-.059.154.035.4-.179s.333-.273.44-.273.487-.214.522.131.226.522.417.535a2.373,2.373,0,0,0,.808-.19c.166-.084.582-.059.7-.452s.4-.8.428-.939a5.041,5.041,0,0,1,.2-.5l.037-.029a2.9,2.9,0,0,0,.575-.523c.288-.287.393-.6.706-.6s.654-.079.679-.34a.737.737,0,0,1,.471-.522,4.913,4.913,0,0,0,.5-.235.83.83,0,0,0,.731-.366c.21-.392.026-.392.6-.419s.549.261.784-.156a2.7,2.7,0,0,1,.549-.68,1.194,1.194,0,0,0,.811-.313c.365-.34.6-.157.731-.392a1.616,1.616,0,0,1,.444-.444s.522-.627,1.02-.392.731.314.758.549a2.5,2.5,0,0,1-.131.81c-.052.157-.365.209-.549.444s-.418.5-.418.654-.157.209.026.4.287.249.391.353-.13.21.236.131.191,0,.448-.183.231-.106.388-.3-.366-.457.261-.431a6.053,6.053,0,0,0,.784,0,1.992,1.992,0,0,1,.705.81c.052.21-.183.235.184.523s.261.392.523.6.235.654.5.889.131.6.366.784.261.366.418.523.157.68.157.759v.81c0,.366-.157.418-.21.549s-.522-.079-.1.47.418.732.653.654-.209-.261.549-.261.759.269.889.278-.13-.278.131.009.444,1.124.836,1.411a.952.952,0,0,1,.5.836,1.038,1.038,0,0,1-.261.758c-.209.261-.47.131-.5.419s-.026.627-.026.731a.241.241,0,0,0,.209.261c.183.052.288.1.47,0s.105-.131.419-.288.5-.287.836,0,.444.314.5.6-.052.549,0,.654-.34.261-.418.391-.1-.156-.236.261-.13.184-.13.419-.079,1.2.418,1.15a9.152,9.152,0,0,1,1.072-.131c.418,0,.653-.231.914.133s.288,0,.419.494.261.444.1.784-.418.079-.653.47-.627.131-.81.392-.759.391-.941.628-.575-.052-.731.209-.994.679-.759.915a1.277,1.277,0,0,0,1.307.13c.391-.235.863-.156,1.15-.34s.287-.339.758-.522.915-.183.993-.47.68-.616.68-.616l-.026.276s.209.627.392.731.6.157.156.419M101.294,17.8c-.032-.031-.212.191-.391.233s-.348.274-.506.3-.633.253-.7.263-.433.307-.581.317-.222.211-.423.264a6.04,6.04,0,0,0-.971.792s-.454.433-.41.39-.012-.212,0-.317-.17-.243-.17-.39.053-.179.211-.37a.459.459,0,0,0,.075-.129,1.6,1.6,0,0,0,.357-.789c-.018-.322.319-.367.272-.689a2.1,2.1,0,0,0-.352-1.04c-.244-.306-.152-.429-.412-.4s-.8-.123-.888.306a.325.325,0,0,0-.168.367c.046.275-.19.077.081.382s.318.245.393.337.138-.046.138.229a1.963,1.963,0,0,1-.2.674v.184s-.505-1.193-.918-1.208-.628-.108-.7.045-.26.276-.26.4-.045-.275,0,.352-.229.474.092.719.52.321.551.4a2.143,2.143,0,0,1,.123.322c0,.045-.23.045.015.428a4.993,4.993,0,0,1,.4.781s.275.688.015.9-1.514.765-1.82,1.239-.98,1.132-1.086,1.377-.459.077-.459.444a2.042,2.042,0,0,0,.077.871.441.441,0,0,0,.561.245c.3-.092.418.137.648-.29s.244-.429.26-.6.184-.336.214-.474.459-.438.459-.438.979-1.459,1.346-1.046a9.7,9.7,0,0,1,.689.856c.107.153.169.643.337.674s.244.5.244.5,0,.841.168.933a.667.667,0,0,1,.275.322.589.589,0,0,1,.306.428c.062.352,0,.442.382.451s.612.07.612-.1a2.213,2.213,0,0,0-.02-.222c.039-.019.047-.069.131-.137.134-.108,0-.264-.02-.359a3.872,3.872,0,0,1-.021-.633c0-.379-.075-.485-.066-.77s-.346-.718-.326-.877-.052-.127-.1-.359-.18-.232-.3-.506-.021-.042-.211-.2-.127-.306-.264-.57-.116-.095-.412-.412-.127-.359-.106-.406.264-.28.326-.365a7.71,7.71,0,0,1,.646-.6,5.629,5.629,0,0,0,.748-.673,5.888,5.888,0,0,1,1.184-.581,3.955,3.955,0,0,1,1.013-.168,1.139,1.139,0,0,0,.666-.423c.18-.3.052-.5-.106-.891s-.612-.259-.644-.291m-8.038,1.554c-.077.29.077.214.322.469a2.628,2.628,0,0,1,.459.6c.168.275.214.045.214.045a3.315,3.315,0,0,0,.4.322c.153.092.23,0,.429-.26s.045-.551,0-.734-.214-.275-.291-.612-.536-.367-.536-.367c-.369-.127-.337.062-.627.016s0,0-.2.137-.092.092-.168.382M20.838,3.439a1.163,1.163,0,0,0-.5-.153ZM79.5,35.774a.089.089,0,0,0-.047-.018c.032.02.079.046.047.018m-.048-.018c-.027-.015-.044-.026-.005,0ZM36.081,17.632c.066.138-.164.123.066.431s.246.107.353.322-.322.629,0,.844.568.631.706.231.293-.523.093-.844-.308-.215-.261-.6a1.223,1.223,0,0,0-.261-.814c-.107-.2.015-.445-.092-.66A3.81,3.81,0,0,1,36.5,16.1s-.353-.445-.553-.092-.368.6-.245.937a4.3,4.3,0,0,0,.378.69m51.763,6.2a1.558,1.558,0,0,0-.475-.658c-.09-.026-.225.117-.531-.26s-.748.342-.748.342l-.126.081c-.1.144-.225-.234-.3.225s-.091.6-.1.739.108.234.2.468a1.822,1.822,0,0,1,.243.657c0,.252-.144.982-.108,1.314s-.091.775-.018.927.1.208.072.288-.207.144-.243.36a8.707,8.707,0,0,0-.044,1.179c.017.189.054.288-.027.441s-.1-.027-.126.351-.234.693-.036.846.261-.333.333-.117-.1.287.073.315a1.448,1.448,0,0,0,.486,0,.892.892,0,0,0,.459-.477,4.54,4.54,0,0,0,.414-1.224c.073-.433.243-1.351.261-1.72s.324-1.368.333-1.485.009-1.108,0-1.567.131-.72.007-1.026M72.384,35.761a.576.576,0,0,0,.284-.2.773.773,0,0,0,.114-.245,1.9,1.9,0,0,0,.077-.421,1.367,1.367,0,0,1,.322-.688c.252-.337.244-.535.229-.619s-.092-.307-.092-.307-.13-.212-.16-.2-.106-.134-.2-.16a.393.393,0,0,0,.094-.479c-.161-.344-.215-.451-.413-.451s-.421-.1-.566,0-.482.167-.559.222-.4.1-.436.229a.223.223,0,0,0-.214.267c.038.253.115.153.145.329s.062.192.284.345a1.619,1.619,0,0,0,.7.206,1.323,1.323,0,0,0,.2-.079,1.543,1.543,0,0,1-.217.477c-.2.267-.442.329-.487.489s-.145.145-.145.29-.077.069,0,.237a1.522,1.522,0,0,0,.13.275c.092.153-.031.062.152.222s.08.115.35.2.316.085.407.062M63.669,74.072c-.4-.113-.443-.148-.556-.113s-.461-.043-.627.122-.417.139-.5.2-.208.021-.251.065a1.971,1.971,0,0,1-.531-.065c-.226-.066-.235.03-.5-.118s-.235-.183-.531-.2a1.4,1.4,0,0,0-.9.158c-.278.19-.373.276-.373.363v.183c0,.034.174-.026,0,.113s-.183-.053-.3.209-.13.191-.122.321.079.131.122.3c0,.049,0,.118,0,.217.009.678-.052.618,0,.722a.537.537,0,0,1,.087.26,1.3,1.3,0,0,0,.026.217,3.982,3.982,0,0,1-.017.583c0,.051-.2.147-.1.226s-.1.1-.034.234a1.048,1.048,0,0,1,.034.383c.009.078-.087.121,0,.2a2.6,2.6,0,0,1,.243.2c.122.121.269.191.365.139s.3.06.382.183.018.139.314.139.39-.044.434,0,.261-.026.409,0,.288-.023.365.014a1.082,1.082,0,0,0,.574.055c.209-.052.46,0,.478-.174s.147-.2.147-.3.079-.278,0-.33.017-.261-.226-.261-.243-.061-.435-.051-.426-.044-.591-.044-.26-.2-.417-.182a1.143,1.143,0,0,1-.269-.009c-.069,0-.226-.217-.226-.217s-.053-.383.113-.3.13-.079.252.017.3-.156.409-.078a.758.758,0,0,0,.626-.113c.069-.105.269-.2.286-.141s.1-.077.1.211-.052.26.008.373.062.261.209.365.574.252.713.147.591,0,.6-.287.079-.409.044-.521-.217-.339-.234-.417.183-.383.078-.54.043-.113-.008-.373a1.758,1.758,0,0,1,.034-.644l.14-.4s.494-.426.295-.678.26-.261-.139-.374m-1.678,2.069c-.113.087-.217.053-.356.087s-.2-.017-.261.035a.7.7,0,0,1-.277.061s.017-.1-.192,0-.461.1-.539.174-.156-.043-.183.113-.162.331-.181.165,0-.617,0-.617a1.1,1.1,0,0,1,.068-.417c.078-.183.174-.226.174-.288s.348-.043.382-.13.3.043.339,0,.218-.018.3-.03.235.012.418,0a.605.605,0,0,1,.339.091c.053.3-.026.348,0,.427s.063.017.018.173.069.07-.044.156m-1.608-8.6c-.147-.175-.339-.062-.443-.166s-.6-.009-.626,0a.491.491,0,0,1-.513.139c-.382-.07-1.5.113-1.7.079s-.246.043-.385.008-.287.061-.339.061a1.024,1.024,0,0,1-.435.07c-.208-.034-.147.226-.286.356s-.226.1-.626.339-.261.444-.252.5a.566.566,0,0,1,.07.435c-.079.218.252.965.269,1.017s.243,1.226.26,1.4.209.07.3.061.13.017.13.165a1.288,1.288,0,0,0,0,.364c.035.192.365.226.6.348s.183.026.3,0,.374-.008.548-.052a3.824,3.824,0,0,1,.887-.156A5.137,5.137,0,0,0,59.1,72.3c.243-.044.174-.175.226-.261a.832.832,0,0,0,.13-.449c.009-.24-.165-.1-.234-.15a3.653,3.653,0,0,0-.774.025l-1.06.124c-.1.01-.113-.028-.374-.141s-.156.079-.277.122-.122.008-.235-.069.009-.105.034-.252-.025-.192-.017-.33a.726.726,0,0,0-.147-.348s-.183-.469-.2-.531a.774.774,0,0,1,0-.2.6.6,0,0,1,.018-.1s-.018-.2-.026-.252-.052-.261-.061-.313,0-.269.078-.235.67-.269,1.313-.339a3.615,3.615,0,0,1,1.452.06.316.316,0,0,0,.252.062l.165.5s-.026.234-.131.209-.025.1-.113.078-.1,0-.165-.03a3.518,3.518,0,0,0-.47,0,1.022,1.022,0,0,0-.217,0,4.6,4.6,0,0,1-.478.069c-.078-.017-.33.13-.486.1s-.288.1-.54.1a.817.817,0,0,0-.469.192v.139l.053.3.2.231.122.047a1.115,1.115,0,0,0,.286.1,1.536,1.536,0,0,0,.382-.1c.13-.061.469-.078.817-.156a2.1,2.1,0,0,1,.748,0l.139.009v.277c0,.192.061,0,.183-.156s.043.13.043.13-.053.175-.053.2.061.061.1.087.034.026.251.069.139-.009.226-.087.165-.062.3-.2.088-.165.278-.522a1.2,1.2,0,0,0,.192-.634c0-.1.061-.095.078-.226s.07-.113.087-.321a1.612,1.612,0,0,0,.018-.288c0-.191-.035-.078-.062-.226a1.068,1.068,0,0,1,.009-.332c.009-.185.07-.111.1-.2s-.043-.1-.1-.209-.156-.156-.3-.33M63.917,62.7a3.393,3.393,0,0,1-.67-.2.81.81,0,0,1-.41-.209,2.171,2.171,0,0,0-.7-.452c-.184-.042-.31-.31-.31-.31s-.067-.7-.477-.863-.435-.545-.5-.6-.2-.368-.267-.351c0,0-.218.125.109-.268s.611-.737.7-.845a4.257,4.257,0,0,0,.393-.545c.033-.1.217-.519.217-.519s.185-.068.193-.21.068-.5.068-.5a2.041,2.041,0,0,0-.393-.234.834.834,0,0,0-.327.051c-.109.05-.2.033-.234.109s-.034.033-.126.1-.251.151-.259.21-.084-.159-.067.142a.881.881,0,0,1-.176.536c-.033.084-.351.376-.368.544s-.385.5-.444.654-.267-.05-.267-.05-.57-.376-.738-.285-.36.058-.385.109-.2-.071-.216.058a1.1,1.1,0,0,0-.033-.424,1.51,1.51,0,0,1-.045-.78,4.784,4.784,0,0,1,.189-.78,3.922,3.922,0,0,0,.1-.485s.179-.556.081-.726,0-.206-.036-.439.14-.108.065-.431.087-.422.087-.529a4.315,4.315,0,0,0,.064-.772c-.054-.017-.018.009-.073-.152s-.125-.26-.2-.189-.207-.179-.233.045a1.028,1.028,0,0,0-.126.17c-.035.072-.314-.009-.395,0s-.277.1-.3.179-.062.054,0,.367-.15.466-.035.744-.131.888-.034,1.165a1.336,1.336,0,0,1-.023.664c-.006.117-.14.521-.14.61a1.706,1.706,0,0,0-.2.717c.027.376-.031.977,0,1.112S56.62,60,56.646,60.4s-.029.717,0,.834a7.155,7.155,0,0,0-.08,1.1,2.848,2.848,0,0,1-.116.906c0,.1-.539.663-.323.861a3.782,3.782,0,0,0,.6.4c.126.084.744.275.9,0a3.236,3.236,0,0,0,.278-.687c.009-.064-.018-.816-.018-.9s-.009-1.408.018-1.471a2.769,2.769,0,0,0,.1-.825c-.045-.17.072-.179.026-.385a1.223,1.223,0,0,1,0-.52,1.668,1.668,0,0,0,.108-.3s.006-.029.016-.067a.375.375,0,0,0,.1.075c.034.017-.041.159.294.2s.076.033.343.209a4.609,4.609,0,0,0,.427.268,2.35,2.35,0,0,1,.436.409c.025.034.937,1.189.971,1.248s.267.318.242.51a.6.6,0,0,0,.1.452c.076.084.427.385.662.368s.242.369.645.478.3.234.544.242.4.168.51.168a1.6,1.6,0,0,0,.695-.117c.126-.109.327-.134.3-.292s.28-.251,0-.52-.261-.327-.5-.352M52.639,64.494c.107-.035.332-.026.439-.072a1.621,1.621,0,0,0,.341-.268,9.3,9.3,0,0,0,.87-.9c.1-.161.412-.449.484-.592a5,5,0,0,0,.251-.493,3.779,3.779,0,0,1,.288-.562c.035-.038.34-.711.385-.792a4.054,4.054,0,0,1,.457-.789,1.062,1.062,0,0,0,.26-.431c.009-.027.242-.143.26-.17a1.17,1.17,0,0,0,.09-.771c-.126-.26-.126-.306-.306-.306-.094,0-.214-.009-.32-.013l.033-.031s.117-.3.072-.394.009-.288-.18-.332-.332-.117-.519,0a4.353,4.353,0,0,1-.44.242c-.2.1-.278.233-.475.215a4.429,4.429,0,0,1-1.058-.521c-.385-.224-.511-.117-.627,0s-.288,0-.323.172-.269.152-.189.34.26.036.394.278a.787.787,0,0,0,.395.35,4.011,4.011,0,0,0,.852.314c.152,0,.278.152.583.063.28-.083.319-.164.436-.12a.487.487,0,0,1,0,.219,1.326,1.326,0,0,1-.233.52,2.742,2.742,0,0,1-.2.287c-.009.035-.153.054-.153.233a1.526,1.526,0,0,1-.089.422s-.043,0-.089.161-.1.162-.118.259a.45.45,0,0,1-.1.324c-.134.206-.242.3-.268.484s-.216.287-.269.448a3.38,3.38,0,0,1-.367.538c-.018.036-.689.906-.8,1.032s-.44.287-.35.385.206.026.268.1.2.206.306.169M78.007,30.4c-.084.015-.13-.015-.237.069a1.161,1.161,0,0,1-.329.138c-.054.022-.107,0-.23.03s-.336.015-.436.1a.336.336,0,0,1-.267.038s-.452.045-.429.374.007.284.214.489.367.164.422.308-.153.151.152.167a4.428,4.428,0,0,0,.781-.07c.145-.015.436-.145.5-.145h.342a1.47,1.47,0,0,0,.431-.611.655.655,0,0,0-.175-.636c-.108-.107-.177-.252-.314-.252a4.029,4.029,0,0,0-.429,0M60.746,92.707a2.041,2.041,0,0,0-.515,0c-.063.035-.03-.046-.215,0a.64.64,0,0,1-.327,0s.327,0,.1-.476.141-.785-.022-1.024a.946.946,0,0,0-.522-.413c-.109,0,.15-.6-.562-.077s-.723.479-.712.567.022.032.054.174.1-.043.079.261.024.327,0,.436-.128-.021,0,.186a.806.806,0,0,1,.107.446.238.238,0,0,0,0,.186.368.368,0,0,1-.01.272c-.023.032-.044.109-.241.163s-.457.25-.62.13l-.163-.119a.578.578,0,0,0,.109-.633c-.175-.337-.2-.425-.381-.425s-.392-.109-.534.055-.338.142-.447.338-.152.109-.207.316-.141.284-.141.359-.087.022-.175.229a1.138,1.138,0,0,0,.152.9.757.757,0,0,0,.643.316c.229-.032.261-.032.36.066s.141.1.2,0,.25,0,.3,0a2.713,2.713,0,0,0,.992-.207,8.522,8.522,0,0,0,.947-.545,1.222,1.222,0,0,1,.872-.381c.294.022.348.152.555-.032a1.737,1.737,0,0,0,.425-.752c0-.109-.021-.311-.1-.319m2.189.874c0-.272-.12-.25-.186-.675s-.174-.1-.228-.349-.077-.316-.12-.555a2.084,2.084,0,0,0-.24-.545c-.076-.175-.283.054-.544-.163a.528.528,0,0,0-.631.043c-.033.032-.1.24-.229.284s-.152.087-.261.359.163.338.2.414l.011.054a1.92,1.92,0,0,0,.229.259c.163.161.044.427.044.536s.032.306.065.839a1.069,1.069,0,0,0,.446.795c.1.13.163.119.306.212s.26.027.369-.005.262.021.327,0a.757.757,0,0,0,.327-.218c.186-.175.207-.2.284-.719s-.163-.294-.163-.566m-10.054-14.4a1.23,1.23,0,0,1-.183.286s.07.07.1.1.122.174.2.269.287.06.426.06.175-.008.391-.165.192-.017.218.026.06.079.113.156a.515.515,0,0,0,.46.209,1.185,1.185,0,0,0,.339-.043,1.077,1.077,0,0,0,.235-.1.532.532,0,0,0,.209-.209c.1-.148.13-.1.191-.113s.183.061.243,0,.165,0,.209,0a4.312,4.312,0,0,0,.774-.087c.469-.087.139-.009.339-.261s.13-.113.183-.347-.026-.113-.113-.314-.486-.052-.582-.07a1.311,1.311,0,0,1-.269-.052c-.043-.026-.165-.069-.192-.122s-.217.113-.217.113h-.2c-.035,0-.339.165-.444.122s-.339.278-.561.269a.64.64,0,0,0-.517.2s-.009.087-.113.017,0,0-.026-.087a.362.362,0,0,1-.017-.069.531.531,0,0,1,.017-.209c.008-.061.069-.017.13-.051s.079,0,.079,0a.268.268,0,0,0,.183-.079c.069-.078.147-.008.217-.044s.122.009.192-.043.243-.017.347-.079.1,0,.2-.025a.316.316,0,0,0,.2-.122c.095-.1.269-.026.3-.043a.649.649,0,0,1,.183,0,1.292,1.292,0,0,0,.33-.035c.122-.034.122-.008.192-.043s.183-.008.3-.183.026-.095.156-.443.026-.373.026-.522.1-.165.13-.521-.026-.26.009-.687a3.793,3.793,0,0,1,.139-.834c.087-.365-.156-.313-.226-.435s-.113-.052-.209-.2-.079,0-.113-.069-.3.052-.374.008-.234.1-.339.017-.269.183-.339.1-.843.251-1.017.156-.782.243-.938.3a1.452,1.452,0,0,1-.54.087c-.164-.017-.113.156-.373.33s.087.514.087.514,0,.095-.034.434.1.235.121.661a15.311,15.311,0,0,1-.183,1.73,3.187,3.187,0,0,1-.043.539m1.3-3.077c.026-.053.1-.286.1-.286a.841.841,0,0,1,.156-.122,1.366,1.366,0,0,0,.2-.174s.119.174.42.034.379-.166.484-.034.113.095.147.095.139-.008.183.052a2.475,2.475,0,0,1,.07.5.41.41,0,0,0-.043.313c.034.217-.061.209-.053.418s.052.33,0,.356-.008-.009-.13.034-.243,0-.3.053-.139-.017-.243.079-.418.095-.431.13-.083-.026-.151.043a.273.273,0,0,1-.175.069H54.36s-.113-.1-.113-.122-.069-.791-.06-1.008a3.116,3.116,0,0,1,0-.435m1.5,9.274c.229.217.207.326.391.2a2.108,2.108,0,0,1,.349-.229c.152-.076.141.392.4-.2s1.035-1.274,1.231-1.678.261-.348.295-.642.13-.566,0-.632-.12-.457-.359-.185c-.187.212-.447.01-.534.13s-.327.066-.371.186-.119.055-.162.239-.142.109-.142.284.109-.032,0,.316a1.362,1.362,0,0,1-.294.522c-.077.12-.109.043-.284.251s-.457.326-.5.6-.316.436-.337.522-.272.153-.12.24.207-.141.436.077M44.576,33.45c.08-.206.446-.469.091-.5s-.457-.137-.743.057.366-.343.366-.343a2.733,2.733,0,0,0-.984.481,5.557,5.557,0,0,1-1.339.709c-.1.045-1.155-.023-1.487.194a2.155,2.155,0,0,1-.823.268,2.452,2.452,0,0,0-.812.132,3.533,3.533,0,0,1-.95.16h-.08s-.3-.092-.24.263-.184.5.045.686.274.492.732.389a2.273,2.273,0,0,0,.732-.252c.114-.069,1.922-.413,1.922-.413a1.473,1.473,0,0,0,.766-.147,3.593,3.593,0,0,1,.79-.229,16.822,16.822,0,0,0,2.014-1.453M23.939,24.017c-.078-.169-.195-.078-.3-.183s-.155-.208-.091-.325.417-.651.221-.859-.26-.39-.455-.339c-.083.022-.154-.047-.222-.1.555-.238,1.831-.795,2.551-1.184a11.183,11.183,0,0,1,1.417-.807c.3-.065,1.094-.274.507-1.145,0,0-.285-.351-1-.052s-.1.482-1.509,1.12-3.63,1.73-3.63,1.73-1.067.338-1.028.651-.364.534.39.494a7.012,7.012,0,0,0,2.03-.69c-.169.417-.3.846-.3.846l-.033.061A18.41,18.41,0,0,1,21.3,25.2c-.286.3-.638.585-.69.832s-.276.547-.281.807-.226.768.151.832.794.273,1.211-.429.949-1.9,1.132-2.277a5.378,5.378,0,0,1,.39-.677s.442.208.572.091.234-.195.156-.364M21.6,16.568c.014-.312-.92-.744-.92-.744a5.348,5.348,0,0,1-1.6-.379,5.451,5.451,0,0,1-1.731-1.19c-.3-.339-.284-.42-.663-.394s-.352.731-.244,1,.487.3.839.717a6.418,6.418,0,0,0,1.462,1.036,6.887,6.887,0,0,0,.934.183,8.669,8.669,0,0,1,1.11.569c.42.216.8-.487.812-.8M18.433,23a11.811,11.811,0,0,0-1.055-.865c-.095-.069-.637-.407-.637-.407a3.874,3.874,0,0,0-1.732-.758c-1.029-.162-2.018-.393-2.37-.393a2.262,2.262,0,0,1-1.232-.311c-.27-.23-.88-.447-1.123-.244s-.529.515-.244.881-.2.487.447.541,1.421.055,1.462.055a8.09,8.09,0,0,1,2.653.42,5.938,5.938,0,0,1,1.5.988.98.98,0,0,1,.487.325c.3.285.487.257.677.569a3.11,3.11,0,0,0,.717.812c.312.257.651.555.989.433s.447-.162.487-.433.2-.487-.082-.772-.636-.528-.947-.839m10.839,3.246a1.8,1.8,0,0,0,.638.231.718.718,0,0,0,.573-.249c.074-.139.24-.361.185-.5s-.443-.3-.545-.314-.555-.1-.555-.1A4.964,4.964,0,0,1,28.08,25a2.806,2.806,0,0,0-1.118-.378.886.886,0,0,0-.379.518.759.759,0,0,0,.157.729,2.741,2.741,0,0,1,.369.306.221.221,0,0,1-.287.111c-.166-.075-1.737-.407-1.737-.407s-.5-.342-.767-.019-.166.335-.129.445-.149.23-.172.267a.493.493,0,0,0,.263.378c.195.1.777-.018.98,0a8.166,8.166,0,0,1,.823.195s.267,0,.267.065-.213.609-.564.72a4.642,4.642,0,0,1-1.016.213c-.195,0-.823-.037-.869.083s-.213.046-.148.195.213.092.213.249.147.342.434.379a2.161,2.161,0,0,0,.813,0c.435-.065.98-.148.98-.148s.2.037.25-.018.249.267.416.407a1.424,1.424,0,0,1,.379.407,4.56,4.56,0,0,0,.434,1.479c.268.323.3.387.591.4a1.281,1.281,0,0,0,.6-.066,1.783,1.783,0,0,0,.222-.489c0-.065.176-.074-.075-.758a5.984,5.984,0,0,0-.924-1.867c-.3-.24-.545-.369-.582-.434s-.092-.306.093-.259a1.552,1.552,0,0,1,.564.333c.065.083,1.155.915,1.4.822s.832.093.869-.332.388-.482,0-.764-.564-.623-1.044-.688a2.179,2.179,0,0,1-.767-.249c-.084-.028-.259-.194-.25-.231s.259-.24.259-.342.462-.138.638,0m45.369,4.515s.046.39.053.5.077.094.122.124a.606.606,0,0,0,.245.068c.092.008.16-.03.322-.122s.107-.137.251-.611,0-.046,0-.138.039-.03.07-.137.13-.13.145-.207a1.736,1.736,0,0,0,.03-.344c.008-.222.008-.092.016-.253s0,0,.038-.145.114-.06.191-.191.252-.184.276-.459-.007-.038-.122-.253-.1-.122-.352-.344a.325.325,0,0,0-.451-.054,3.722,3.722,0,0,1-.452.214c-.179.052-.165.3-.156.4,0,.019,0,.032,0,.032s.031.073-.022.111.084.26.077.459a4.344,4.344,0,0,1-.245.865c-.16.528-.038.489-.038.489M45.716,36.1a2.592,2.592,0,0,1,.8-.416c.028,0,.085.009.293.132a.8.8,0,0,0,.472.1c.095,0,.028-.2.462-.057a5.761,5.761,0,0,1,.86.293c.028.047.113.2.226.189s-.368.859-.632,1.142-1.557,1.35-1.585,1.4-.16.169-.7.273-1.106.009-1.1.151.228.15.3.15.415,0,.15.114-.557-.076-.368.189-.028.254.312.311.132.114.548.114a5.513,5.513,0,0,0,1.4-.16,3.864,3.864,0,0,0,1.02-.717c.16-.19,1.047-.888,1.179-1.246s.6-.84.623-.972a.835.835,0,0,1,.132-.293s.339.009.4.085.179-.028.566.085.538.132.651.331a.681.681,0,0,0,.3.292,1.664,1.664,0,0,0,.368.009s.368-.425.368-.632-.482-.7-.793-.943a1.483,1.483,0,0,0-.869-.481,2.209,2.209,0,0,1-.821-.368,3.757,3.757,0,0,1-.765-.132,1.4,1.4,0,0,0-.6-.3,4.508,4.508,0,0,1-.509,0c-.16-.018-.594.07-.368-.428s.652-.535.529-.921a1.859,1.859,0,0,0-.566-.73s-.52-.233-.83.05-.378.169-.425.529a1.7,1.7,0,0,1-.378.878c-.132.1-.764.529-.849.585s-1.509.67-1.472,1.085.321.425.321.425-.113.18.312.169a1.423,1.423,0,0,0,1.038-.283M15.5,18.639a2.2,2.2,0,0,1,.46.27A5.113,5.113,0,0,0,17.3,19.4a8.588,8.588,0,0,1,.947.394c.568.2.677-.177.8-.515s-.054-.271-.407-.637a1.358,1.358,0,0,0-1.015-.352,1.789,1.789,0,0,1-.556-.122,4.221,4.221,0,0,1-.933-.568c-.23-.177-.474-.04-.759.325s.122.717.122.717M38.581,31.413c.1-.217-.011-.515-.159-.515a12.21,12.21,0,0,0-1.4.137c-.549.092-2.574.321-2.574.321s-.274.045-.229-.149a.625.625,0,0,1,.218-.32,4.429,4.429,0,0,0,.594-.756c.057-.183.389-.971.469-1.121s.732-1.192.927-1.449.423-.233.435-.484.3-.812-.321-.87c0,0-.561-.652-.881,0s-.915,2.059-1.133,2.436-1.258,1.682-1.258,1.682a13.822,13.822,0,0,0-1.281,1.144c-.229.3-.412.538-.172.8a1.729,1.729,0,0,0,.457.366.708.708,0,0,0,.8.126,4.2,4.2,0,0,1,1.144-.229,22.531,22.531,0,0,0,2.815-.63c.606-.217,1.441-.274,1.544-.492M31.851,24.6c.12-.064.147-.129.268-.148s1.422-.323,1.543-.554.315-.248.148-.7-.111-.467-.268-.639-.536-.263-.674-.374-1.128-.776-1.276-.9a4.5,4.5,0,0,0-1.1-.342c-.147-.019-.443-.277-.582-.287s-.471-.213-.573-.195-.185-.113-.388,0-.36.047-.369.251.018.462-.1.517c0,0-.471-.195-.6,0s-.2.065-.268.387-.185.61-.185.657-.093.24-.138.434a.522.522,0,0,1-.2.315c-.083.083-.138-.065-.176.212s-.194.168-.084.463-.027.36.25.434.561.157.705.083.182-.156.422-.12a11.792,11.792,0,0,1,1.294.351,6.459,6.459,0,0,1,1.155.5.292.292,0,0,0,.222.277c.2.046.7.046.813-.231s.046-.333.166-.4m-.24-1.035a1.825,1.825,0,0,0-.453.084,2.1,2.1,0,0,1-.508.055,3.033,3.033,0,0,1-.758-.221c-.065-.037-.435-.111-.675-.231a3.573,3.573,0,0,0-.9-.166s-.084-.075,0-.111.185-.4.2-.49a4.364,4.364,0,0,1,.231-.508c.074-.156-.055-.166-.111-.258s-.194-.277-.194-.277c-.058-.08.267.1.351.2s.222.027.573.074a10.525,10.525,0,0,1,1.081.258.985.985,0,0,1,.518.259,4.678,4.678,0,0,0,.471.453,3.281,3.281,0,0,0,.906.434l-.093.208a2.551,2.551,0,0,1-.647.236" transform="translate(0 0)" fill="#fff"/>
  </g>
</svg>
