<svg height="220" viewBox="0 0 120 220" width="120" xmlns="http://www.w3.org/2000/svg" xmlns:xlink="http://www.w3.org/1999/xlink"><clipPath id="a"><path d="m0 0h117v103h-117z"/></clipPath><clipPath id="b"><path d="m0 0h106v25h-106z"/></clipPath><g clip-path="url(#a)" transform="translate(1 117)"><path d="m71.838 31.636c.2-.209.363-.054.471-.263s.2-.2.239-.347a3.786 3.786 0 0 1 .452-.64s.116-.278.262.015a6.64 6.64 0 0 1 .208.772c.1.247.069.618.308.78s.07.386.27.595a6.066 6.066 0 0 1 .4.6.553.553 0 0 0 .278.185.989.989 0 0 0 .355.047 3.163 3.163 0 0 0 .37-.239 1.428 1.428 0 0 0 .17-.448.9.9 0 0 0 -.131-.819.333.333 0 0 1 -.339-.263 2.106 2.106 0 0 0 -.208-.61c-.022-.015-.377-1-.524-1.2a1.635 1.635 0 0 1 -.185-.487c-.023-.015-.07-.147-.047-.154s.663-.424.709-.572.153-.115.277-.239a2.522 2.522 0 0 1 .409-.254c.03-.031 1.048-.556 1.048-.556a.557.557 0 0 0 .355-.1c.131-.116.377-.1.439-.124s.155.124.155.271-.2.726-.116.949-.047.448-.047.579-.1.247-.054.386.039.193.124.2a.749.749 0 0 0 .362-.123 1.726 1.726 0 0 0 .57-.765 8.089 8.089 0 0 0 .339-1.351 2.112 2.112 0 0 0 .316-.972c-.023-.494.131-.471-.239-.664s-.239-.332-.54-.263-.617-.008-.824.069-.109-.1-.463.147a7.824 7.824 0 0 0 -.871.549c-.247.231-.37.147-.555.339s-.286.131-.447.294-.17.1-.355.231-.345.131-.419.224-.074.039-.175.177l-.031.043c0-.006.014-.031-.139.143-.246.278-.192.163-.315.293l-.124.131s-.023.023-.069 0a3.147 3.147 0 0 0 -.339-.447c-.207-.185-.015-.24-.239-.317s-.254-.193-.316-.193a.246.246 0 0 1 -.123-.046s.54-.441.54-.525.138-.093.146-.17.262-.108.377-.231a.754.754 0 0 1 .286-.193c.069-.03.239-.1.262-.147s.2-.069.259-.093.257.023.326-.023.447-.023.454-.2a.943.943 0 0 0 -.015-.263.512.512 0 0 0 .085-.424c-.062-.246-.1-.509-.316-.6s-.455-.232-.632-.147-1.28.942-1.357 1-.724.556-.794.657a5.935 5.935 0 0 1 -.539.64 4.08 4.08 0 0 0 -.725.579 1.437 1.437 0 0 1 -.424.379c-.077.046-.378.039-.54.324s-.3.271-.232.479a.97.97 0 0 0 .286.487 1.832 1.832 0 0 0 .54.193c.1 0 .17.162.362 0s.355-.224.462-.394a1.032 1.032 0 0 1 .409-.386c.1-.023.108.138.155.192a1.052 1.052 0 0 0 .331.247c.116.039-.015.147.138.231s.155.136.17.18l.054.152a8.616 8.616 0 0 0 -1.132 1.2c-.193.355-.316.077-.363.224s-.123.178-.123.325.007.069.123.263a.559.559 0 0 0 .355.262c.138.062.216.417.416.209m-.713 1.174a1.774 1.774 0 0 1 .023-.487 1.088 1.088 0 0 0 -.247-.293.84.84 0 0 0 -.346-.162h-.123c-.055.031-.425.054-.486.239s-.162.069-.193.254-.138.14 0 .4a1.161 1.161 0 0 1 .2.54c.016.2.016.587.039.749s.015.479.023.625.077.363 0 .487-.162.162-.162.278-.085.285-.069.4.093.093.169.185a.425.425 0 0 0 .232.155c.046 0 .084.177.316.17s.416-.023.47-.109.146-.332.185-.408a1.691 1.691 0 0 0 .085-.417c.007-.108.03-.772.039-.81s-.047-.811-.1-1.127-.008-.532-.054-.672m-7.04 56.663c-.505 0-.526-.077-.768 0a7.446 7.446 0 0 1 -.867.022 4.907 4.907 0 0 1 -.888.055 5.779 5.779 0 0 0 -.869.033c-.2.033-.393 0-.524.044a1.778 1.778 0 0 1 -.407.044l-.065-.11a3.6 3.6 0 0 1 .11-.472c.076-.252.2-.417.2-.5s.032-.341.032-.341a.391.391 0 0 0 -.12-.495c-.275-.176-.275-.2-.4-.176s-.231.034-.3.055-.11-.175-.23-.01-.505.264-.505.439-.044.231-.044.583a3.79 3.79 0 0 1 -.087.7 5 5 0 0 1 -.088.561l.121-.363s.073-.219.094-.282c-.018.182-.05.472-.071.612-.034.209-.1.165-.187.22a1.777 1.777 0 0 1 -.735.308 2.27 2.27 0 0 0 -.318.011 8.331 8.331 0 0 0 -.22-.813 10.369 10.369 0 0 1 -.253-1.056l-.01-.252s.438-.142.493-.253.066 0 .253-.11a2.072 2.072 0 0 1 .581-.22c.066 0 .34-.11.659-.187s.449-.142.647-.186a4.733 4.733 0 0 1 .757-.055 2.318 2.318 0 0 0 .472-.077c.22-.044.538.176.735.121s.407.11.779.077.746.044.822-.1.3-.2.3-.417.23-.516.076-.649a1.2 1.2 0 0 0 -.538-.275c-.142-.01-.483-.165-.636-.131s-.417.033-.625.088-.388-.032-.77.055-.437-.076-.821.088-.5.011-.9.155a4.676 4.676 0 0 1 -.7.143c-.131.055-.286-.083-.57.079s-.362.063-.571.2a2.2 2.2 0 0 1 -.417.176c-.131.065-.241.044-.286.088a.358.358 0 0 1 -.2.088 1.051 1.051 0 0 1 -.394-.088 3.175 3.175 0 0 0 -.275-.165s-.22-.066-.263-.022a2.536 2.536 0 0 1 -.286.176.44.44 0 0 0 -.3.176c-.154.176-.307 0-.285.252s-.121.077.076.319.253.132.4.44a3.225 3.225 0 0 1 .263.616c.055.22.329 1.736.329 1.736s0 .341.126.462a1.028 1.028 0 0 1 .17.2l-.065.089s-.67.021-.757.175-.407.176-.407.176a2.549 2.549 0 0 0 -.691.231 11.075 11.075 0 0 0 -1.153.6c-.12.154-.406.088-.57.264s-.252.209-.263.307-.1.1 0 .252 0 .055.2.187a1.344 1.344 0 0 0 .428.154c.034.021.066.044.275.044a.769.769 0 0 0 .725-.241 7.113 7.113 0 0 1 1.755-.715.918.918 0 0 1 .735-.4 3.091 3.091 0 0 0 .967-.209c.12-.044.5-.231.493-.351s.494-.144.636-.253a1.6 1.6 0 0 1 .462-.186 1.936 1.936 0 0 0 .308-.132 2.354 2.354 0 0 1 .548-.142 3.655 3.655 0 0 0 .779-.154 1.812 1.812 0 0 1 .549-.1c.066-.011 1.13.1 1.339.12s.286-.044.34.022a.515.515 0 0 0 .286.121c.087.01.449.044.636.044a1.643 1.643 0 0 0 .494-.089c.033-.021.351-.131.428-.241s.121-.121.121-.242.109-.429.087-.494.121-.451-.384-.451m-10.335-54.231c-.024.076.111.238.214.343a1 1 0 0 0 .5.228.608.608 0 0 0 .561-.324 1.862 1.862 0 0 0 .323-1.533c-.133-.886-.57-.628-.808-.838s-.38.029-.618.086-.152.486-.152.486a.686.686 0 0 1 -.018.5 4.077 4.077 0 0 0 0 1.053m-12.882-2.57c.5.15.565.127.829 0s.22-.335.289-.566a1.613 1.613 0 0 0 -.484-1.2 1.189 1.189 0 0 0 -1.107.093.892.892 0 0 0 -.1.854 1.907 1.907 0 0 0 .576.82m11.127 2.336c.124.142.3.256.5.047s.352.124.361-.381.476-.79.067-1.124a1.743 1.743 0 0 0 -.928-.348s-.275.124-.286.324-.171.028-.18.381-.162.19.075.5.266.457.39.6m29.65 1.946c-.278-.165-.288-.134-.452-.391s-.093 0-.246-.052-.165 0-.257-.082-.185-.042-.514-.258l-.125-.082a1.727 1.727 0 0 0 -.306.071.4.4 0 0 1 -.124 0c-.031 0-.226.062-.308.062s-.133.113-.272.207-.036.349-.056.442a.817.817 0 0 0 .1.33l-.113.164-.4.237a1.977 1.977 0 0 1 -.565.4 2.01 2.01 0 0 0 -.417.243 1.252 1.252 0 0 1 -.005-.439c.047-.17.148-.209.124-.324s.107-.139.049-.224.028-.07.082-.217a1.283 1.283 0 0 0 .1-.571 2.522 2.522 0 0 0 -.182-.317c0-.007-.01-.024-.025-.043.018-.009.025-.019.025-.075 0-.118.156-.041.187-.133s.277-.145.864-.463c.177-.1.261-.138.3-.155 0 0 .006-.02.05-.062.185-.175.277-.093.452-.226s.38-.113.565-.268a.727.727 0 0 0 .257-.319c.093-.165.205-.082.308-.237a3.673 3.673 0 0 0 .37-.5c.206-.35.114-.258.114-.33s-.082-.175-.124-.314-.113-.057-.277-.263-.175 0-.256 0-.37.082-.452.082-.165.154-.217.226a2.852 2.852 0 0 0 -.353.412c-.086.164-.49.534-.675.5s-.185.113-.267.117-.328.223-.411.253a2.3 2.3 0 0 1 -.555.3c-.318.1-.133.252-.421.344a.918.918 0 0 0 -.381.2l.021.095-.033-.031s-.047.116-.632.317a2.2 2.2 0 0 0 -1.026.523c-.154.194-.863 1-.994 1.168s-.8.61-.817.834-.153.2-.222.339-.237.124-.223.217-.325-.433-.063.2.185.6.308.679a1.165 1.165 0 0 0 .378.124c.131.03.138-.039.224 0a.4.4 0 0 0 .331-.032 2.181 2.181 0 0 0 .439-.378 3.809 3.809 0 0 0 .293-.363c.008-.022-.284-.332.286-.942a9.566 9.566 0 0 1 1.164-1.158c.023.046.093-.193.154.17a1.462 1.462 0 0 1 -.147.81 3.237 3.237 0 0 0 -.231.965c.031.239-.131.37-.155.47s-.1-.061-.054.255-.023.424.1.633.069.409.508.409.548.069.778-.039a.862.862 0 0 0 .463-.394c.123-.208.224-.509.293-.586s.393-.362.393-.362c.067-.059.21-.023.293-.086a2.472 2.472 0 0 0 .277-.175c.042-.051.442-.359.6-.545s.374-.485.63-.546.082.051.124.122a2.057 2.057 0 0 0 .226.238 1.645 1.645 0 0 0 .3.226.545.545 0 0 0 .247.113c.133.042.185.062.34.1a.683.683 0 0 0 .39-.051c.113-.031.277-.36.411-.629s-.051-.308-.113-.658-.175-.123-.452-.288m-6.256-3.377c-.061.155-.247.241-.269.325s-.131.147-.178.2a1.89 1.89 0 0 1 -.169.166.884.884 0 0 1 -.412.424c-.291.132-.468.077-.53.224s-.123.115-.108.293-.347-.039.116.293.478.324.6.34.047.246.294 0 .308-.348.37-.409a2.607 2.607 0 0 0 .385-.322c.154-.18.224.005.338-.242a.606.606 0 0 1 .331-.324 2.373 2.373 0 0 1 .409-.224 2.66 2.66 0 0 1 .339-.054 2.567 2.567 0 0 0 .609-.224c.085-.015.232.084.239-.271s.015-.556-.162-.625-.178-.154-.409-.116a4.034 4.034 0 0 0 -.678.086c-.232.077-.463.039-.609.147s-.447.155-.509.309m19.358-16.293c.339-.355.709-.849.709-.849a8.169 8.169 0 0 1 .94-.756c.17-.062.293-.17.4-.17a.809.809 0 0 0 .37-.108 3.264 3.264 0 0 0 .324-.155 1.447 1.447 0 0 1 .586-.17c.37-.061.524-1.034.416-1.189a.921.921 0 0 0 -.431-.324c-.185-.077-.385.077-.57.077a6.74 6.74 0 0 0 -.894.324c-.139.031-.385.17-.447.185s-.123.077-.431.448-1.419 1.39-1.572 1.575a2.592 2.592 0 0 1 -.617.463 1.487 1.487 0 0 1 -.417.139 2.783 2.783 0 0 1 -.463.093 5.63 5.63 0 0 0 -.585.139c-.308.062-.123.093-.223.155s.007.324.007.324a2.991 2.991 0 0 0 0 .371c.015.047.278.185.431.34s.309.061.771 0a1.267 1.267 0 0 0 .663-.247 4.012 4.012 0 0 0 1.033-.664m22.216 6.97c-.131-.211-.631-.422-.894-1.055s0-.29-.448-.95c-.06-.089-.114-.167-.162-.239l-.391-.578s-.606-.606-.553-.949-.21-.5-.316-.739-.368 0-.527-.29.132-.87-.316-1.055-.5-.422-.684-.844-.448-.738-.659-1.239-1.053-1.109-.9-1.5-.631-.716-.631-.716-.316-.208-.316-.445.052-.923-.343-1.213a1.173 1.173 0 0 1 -.526-.659c-.079-.212-.079-.95-.527-1.134a1.549 1.549 0 0 1 -.685-.766s-.447-1.239-.869-1.4-.1-1-.473-1.028-.185-.343-.606-.791-.316-.844-.712-1.161-.474-.791-.6-.871-.159-1.635-.738-1.582-.58-.739-.58-.739-.263-.712-.763-.712-.79-.132-.948 0-.894-.961-1.474-.059-.632.85-1.106.8-.817-.448-1.211.132-1.212.685-1.685 1.292-.869.37-1.132.66-.842.211-1 .554a.8.8 0 0 1 -.79.58 1.286 1.286 0 0 0 -1.027.607c-.053.211-.579.237-.712.422s-1.053.053-.974.738c0 0-.1-.134-.459.237s-.683.253-.9.576-.634.143-.838.479-.3.072-.8.372-.981.432-1.185.587-.239-.036-.646.18a.829.829 0 0 1 -.416.094 1.389 1.389 0 0 0 -.451-.883c-.572-.5-.595-.321-.754-.641a13.286 13.286 0 0 0 -.618-1.351c-.365-.64-.114-1.167-.822-1.694a2.655 2.655 0 0 1 -.915-1.328s-.434-.939-.777-1.1-.434-.641-.686-.641-1.348-.5-1.668-.481a5.9 5.9 0 0 0 -1.737.252c-.525.229-.891.252-1.12.367s-1.051-.3-1.554.275a3.561 3.561 0 0 1 -1.44.825c-.205.114-.571.068-.846.709a9.962 9.962 0 0 1 -.962 1.464c-.092.183-.205-.115-.5.457s-.5.253-.846 1.008-.731 0-.526 1.122a19.543 19.543 0 0 0 .32 2.289c.183.344.205 2.084 1.005 2.587s.961.962 1.006 1.213a1.786 1.786 0 0 0 .5 1.122 7.969 7.969 0 0 1 .8 1.305c.132.147.052.355.183.486a1.374 1.374 0 0 0 -.412.337c-.336.42.168.084-1.005.56s-1.285.336-1.649.924-.726.395-1.145.715a15.6 15.6 0 0 0 -1.956 1.1c-.475.475-.58.14-1.28.88a.273.273 0 0 1 -.189.008c-.22-.079-.487.3-.613.316s-.5.535-1.038.614-.362.252-.614.221-.66.535-.77.535-.6.5-.99.409-.724.346-.771.378-.518.71-.88.6-.581.442-.676.394-.795.321-.795.321a9.48 9.48 0 0 0 -1.921-1.081 2.377 2.377 0 0 1 -1.326-.792c-.076-.129-.134-.288-.271-.348-.086-.038-.188-.027-.276-.062-.2-.083-.234-.362-.383-.525-.231-.247-.633-.145-.969-.189-.665-.089-1.069-.78-1.665-1.087a1.785 1.785 0 0 1 -.591-.349c-.132-.157-.184-.389-.363-.489-.2-.113-.48 0-.68-.119-.15-.091-.2-.282-.309-.422-.227-.3-.658-.338-1-.5-.578-.277-.955-.958-1.592-1.037a3.128 3.128 0 0 1 -.449-.043c-.36-.1-.547-.526-.9-.653-.226-.081-.49-.027-.7-.142-.236-.128-.321-.415-.431-.66a1.1 1.1 0 0 0 -.123-.209 2.593 2.593 0 0 0 .032-.454 4.594 4.594 0 0 1 .709-1.964q.625-1.149 1.244-2.3l1.19-2.21a1.972 1.972 0 0 0 .308-.891.534.534 0 0 0 -.09-.084c-.065-.047-.144-.085-.176-.159a.324.324 0 0 1 -.011-.15c.011-.136.023-.272.035-.408l-.653-1.355c-.257-.534-.515-1.069-.823-1.576a.819.819 0 0 1 -.408-.371 2.023 2.023 0 0 0 -.122-.261c-.082-.117-.221-.18-.319-.284a1.232 1.232 0 0 1 -.2-.36c-.053-.122-.113-.241-.177-.358-.321-.363-.658-.713-1-1.053l-.07-.069a.853.853 0 0 1 -.234-.048c-.21-.09-.29-.349-.474-.485a1.774 1.774 0 0 0 -.521-.181 1.053 1.053 0 0 1 -.676-.73.277.277 0 0 1 -.528-.143l-.538.02a.311.311 0 0 1 -.161-.02.3.3 0 0 1 -.12-.221 2.189 2.189 0 0 1 -1.377-.386 1.472 1.472 0 0 0 -.255-.236c-.354-.2-.753.193-1.159.238-.3.034-.6-.128-.885-.059a1.153 1.153 0 0 0 -.512.353 2.227 2.227 0 0 0 -.831 1.418 4.426 4.426 0 0 1 .021.658c-.119.7-1.13.915-1.347 1.592a7.015 7.015 0 0 1 -.143.738 2.026 2.026 0 0 1 -.411.495 1.916 1.916 0 0 0 -.5 1.37c-.236-.1-.4.232-.474.478s-.376.519-.527.312a2.333 2.333 0 0 1 -.041.987.819.819 0 0 1 -.658.575.559.559 0 0 0 -.182-.017c-.226.015-.437.175-.66.133-.244-.045-.377-.3-.556-.474-.4-.387-1.054-.345-1.534-.631-.364-.217-.6-.609-.98-.8-.331-.17-.83-.29-.8-.662-.67.147-1.3-.793-1.92-.5.037-.4-.016-.923-.4-1.007-.269-.058-.552.16-.813.072-.3-.1-.477-.567-.778-.469l-.052-.463c-.648.115-1.127-.558-1.705-.891.042.009.085.021.128.029l-.168-.061.038.022a5.941 5.941 0 0 1 -2.4-1.151 5.015 5.015 0 0 0 -.717-.535l-.05-.023a5.139 5.139 0 0 0 -1.688-.99c-.383-.113-.892-.243-.927-.644a1.583 1.583 0 0 0 -1.377.269c-.159.172-.247.421-.457.522a1.179 1.179 0 0 0 -.209.095c-.19.143-.1.456-.212.664-.095.169-.309.231-.441.373a1.544 1.544 0 0 0 -.24.708 3.356 3.356 0 0 1 -.574 1.019 8.5 8.5 0 0 0 -1.355 3.223 1.353 1.353 0 0 1 -.173.524c-.208.3-.634.364-.909.611a1.721 1.721 0 0 0 -.346.511 4.832 4.832 0 0 0 -.546 1.431 3.556 3.556 0 0 1 -.159.883 2.178 2.178 0 0 1 -.191.327 12.5 12.5 0 0 0 -.925 1.681.4.4 0 0 0 -.037.024 2.073 2.073 0 0 0 -.781 1.254 1.9 1.9 0 0 1 -.114.477c-.167.347-.614.5-.754.862-.112.286 0 .644-.183.893-.127.176-.359.237-.522.379a1.537 1.537 0 0 0 -.373.833 6.731 6.731 0 0 1 -.978 2.135 2.327 2.327 0 0 0 -.418.793 3.589 3.589 0 0 1 -.1.681c-.124.3-.443.457-.639.712-.441.57-.257 1.579-.9 1.9a.554.554 0 0 0 -.2.125c-.075.1-.049.239-.1.348-.071.138-.244.177-.386.238s-.296.225-.219.355a.605.605 0 0 0 -.438.6 1.43 1.43 0 0 0 .271.751c.192.3.509.617.854.519a.929.929 0 0 0 .645.54.645.645 0 0 1 .313.107.88.88 0 0 1 .133.221c.212.373.737.367 1.148.49a3.128 3.128 0 0 1 .918.528l.678.5a1.121 1.121 0 0 0 .3.178 1.192 1.192 0 0 0 .269.043 1.649 1.649 0 0 0 .141.231c.374.506.888.2 1.332.828s1.263.211 1.894.609a3.447 3.447 0 0 1 1.005.726c.537.515.911.07 1.332.562a2.256 2.256 0 0 0 1.262.843c.631.211.654.328 1.169.89s.608.07 1.309.421.491.421.842.937.444-.164 1.1.211.887.539.887.539l.152.154c-.1.384-.215.755-.315.775a.869.869 0 0 0 -.631.758c0 .422-.715.8-.8 1.053s-.378-.21-.421.59-1.051 1.558-.966 2.316 0 .673-.294 1.305-.968 1.179-1.009 1.558-.673.716 0 1.347a2.409 2.409 0 0 0 .285.231 1.443 1.443 0 0 0 .263.6c-.242.29-.643.555.041.933.243.133.4.223.5.3a3.453 3.453 0 0 0 .3.763c.3.519.3.59.424.805s.084.619.288.873.46.442.463.616c0 .333.024.958.254 1.024.294.083-.043.042.336.462s.589.084.672.548-.378.716.421 1.305.756.631.8.968-.083.674.337.968a2 2 0 0 0 1.346.379c.294-.083.756.043.924-.21s.421-.211.673-.674.925-1.895 1.261-2.526.841-1.011.8-1.305 0 .126.421-.422-.336-.547.672-1.6.505-1.053 1.3-2.316.925-.778.925-1.61.21-.916.588-1.421a9.2 9.2 0 0 0 .745-1.718c.165.156.346.268.416.13a.446.446 0 0 1 .3-.257s.1.185.753.2.768-.043.938.128a3.338 3.338 0 0 1 .384.485 2.159 2.159 0 0 0 .625.4c.057.014-.142.313.256.228s.326-.071.725.271.626.341.682.341.327.3.583.342.454-.257.54.128.029.427.228.469.157.128.384.214a2.005 2.005 0 0 0 .81.3c.356 0 .327-.086.54.2s.185.427.413.526.285.485.682.527.342-.257.712.214.469.512.639.541a1.175 1.175 0 0 1 .867.242 5.7 5.7 0 0 0 .7.455c.084.071.3.242.3.242a.3.3 0 0 0 .313.3c.313.011.327-.191.5.066.153.231.466.315.682.648a4.155 4.155 0 0 1 .157 1.361c-.074.97-.318 1.119.009 1.493s.066 1.157-.009 1.492a5.755 5.755 0 0 0 .17 1.9c.129.224-.353.746 0 1.194a1.2 1.2 0 0 1 .389 1.007c0 .486-.3.075-.149.6s.261.671.149.895-.551.373-.443 1.007.348 5.148.489 5.633a1.327 1.327 0 0 1 0 .821s-.2.074-.2.485-.3.41-.262.821a1.4 1.4 0 0 1 -.088.614 5.361 5.361 0 0 0 -.822-.2 1.179 1.179 0 0 0 -.633.019l-.372.223s-.895.019-1.081-.186-.577-.018-.726-.056a6.148 6.148 0 0 1 -1.732-.242c-.783-.28-.894.28-1.043.392a1.015 1.015 0 0 1 -1.062.149c-.465-.242-.5.318-.6.41s-.316.243-.855.056-.132.112-.747.578-.782.374-.782.374-.41.877-.727 1.045-.148.429-.167.5a.81.81 0 0 1 -.28.522c-.259.25-.112.75-.112.75a1.564 1.564 0 0 1 -.205.552 2.581 2.581 0 0 0 .174 1.511.514.514 0 0 1 .032.559c-.112.262.112.877.13 1.008a2.575 2.575 0 0 0 .633 1.025c.447.5.168.466.3.784s.13.2.521.821.205.038.484.373.411.224.747.616a4.772 4.772 0 0 0 1.208.765 3.373 3.373 0 0 0 .783.112 8.47 8.47 0 0 1 .726.709.667.667 0 0 0 .727.262s4.581.056 5.232.056.615.317.615.317a3.277 3.277 0 0 1 .241.9c.018.373 0 1.1 0 1.1v4.645c0 .951.336.989.336.989l.168 9.7-.391.242a1.8 1.8 0 0 0 -.094.97c.075.653.783.6.783.6l.186.206c.186.2 1.117 0 1.4 0a5.585 5.585 0 0 0 .857-.131h9.726c.524 0 .446-.164.446-.164a1.72 1.72 0 0 0 .461.177.274.274 0 0 0 .287-.177l1.05.015a.948.948 0 0 0 .542.158 1.227 1.227 0 0 0 .414-.125s3.39.175 3.693.111.079-.287.206-.335.478.142.478.142 1.687-.014 1.767 0a2.047 2.047 0 0 0 .844-.156c.175-.128.493.153.493.153s.733.006.924 0a1.461 1.461 0 0 0 .524-.169c.191-.079.43.158.43.158s1.719.034 2.053-.014 1.178.048 1.99 0c.486-.029.469-.131.377-.21a1.515 1.515 0 0 0 .355-.906v-1.594a1.938 1.938 0 0 1 -.4-.861c0-.35.1-5.15.1-5.15s.16-.111.064-.431l-.143-.477.143-3-.217-.236-.032-5.564s.557-.35.478-.574a.45.45 0 0 1 -.024-.258h2.3s.6-.1 1.026-.131 2.1 0 2.1 0 .1-.128.315-.012a.72.72 0 0 0 .474.048 4.78 4.78 0 0 1 .6-.246c.079 0 2.735.171 2.735.171l6.364-.171s.343.369.527.171a.9.9 0 0 1 .6-.171h.815s1-.316 1.052-.631a2.625 2.625 0 0 0 0-.685l-.289-.632-.763-1.633s.237-.237-.157-.342a.61.61 0 0 1 -.447-.474 1.834 1.834 0 0 0 -.263-1.107 4.516 4.516 0 0 1 -.5-.711l-.263-.659a.342.342 0 0 0 -.157-.264c-.159-.1-.079-1.054-.343-1.185a.714.714 0 0 1 -.342-.4s-.211-.9-.368-.9-.106-1.159-.237-1.159-.474-.343-.474-.343l-.394-.606s-.026-.632-.447-.632h-3.797a.754.754 0 0 0 -.527-.264h-.762s-.763-.131-.894 0a1.318 1.318 0 0 1 -.5.211 1.868 1.868 0 0 0 -.842-.158c-.368.053-.394.184-.657.053a2.474 2.474 0 0 0 -.737-.164l-.631.164s-.237-.158-.237.184-.315 1.08-.552.9-.131-1-.131-1l-.29-.243h-2.261a2.006 2.006 0 0 1 -.613-.363c-.2-.211-.334-.658-.545-.737a1.323 1.323 0 0 1 -.217-.123v-3.56s-.02-.474-.151-.527 0-9.536 0-9.536.093-.474.151-.764a2.2 2.2 0 0 0 0-.659.646.646 0 0 1 -.178-.343v-1.529l.079-.474s.066.138.125-.168.112-.675.112-.675c.037-.242.3-.192.538-.4s.631-.131 1.027-.369a2.151 2.151 0 0 0 .843-.686c.263-.369.579-.369.869-.474a7.955 7.955 0 0 0 1.369-.818c.291-.2.357-.271.358-.29h.038a5.747 5.747 0 0 0 .921-.633 2.751 2.751 0 0 1 1.448-.685c.738-.106.369-.29.422-.291a7.386 7.386 0 0 1 1.263-.9 3.391 3.391 0 0 0 .816-.449s.5-.5.922-.475.474-.632.869-.632a1.173 1.173 0 0 0 .79-.369c.159-.132.4.052.816-.159a1.056 1.056 0 0 0 .527-.633s.369-.317.579 0a1.909 1.909 0 0 0 .764.527s.474.449.474.686-.369.29 0 .58.737.237.763.369.316.369.369.685-.106.317.4 1.056.6.738.6.922-.052.766.263.766a.4.4 0 0 1 .4.237s-.106.4.158.5.368-.053.421.184a5.218 5.218 0 0 0 .514 1.029 2.883 2.883 0 0 1 .512 1.108.676.676 0 0 0 .29.58 2.43 2.43 0 0 0 .343.211s.343-.211.343.29-.5.395 0 .765.737.474.79.738a.577.577 0 0 0 .632.422c.263-.053.421.211.632-.132s.421-.025.447-.422.526-.5.606-.818-.263-.791.131-.871.553-.217.579-.477.026-.6.238-.736.184-.955.184-.955l.526-.31a1.749 1.749 0 0 1 .659-1.029c.526-.342.052-.316.29-.685s.816-.791.79-1.187a2.052 2.052 0 0 1 .21-.871s.526-.712.579-.844.421-.527.579-.87.606-.818.447-1.213.026-.976-.21-1.266-.131-.871-.316-1-.21-.554-.21-.554a2.343 2.343 0 0 0 -.4-.871.971.971 0 0 1 -.263-.554 3.475 3.475 0 0 0 -.316-.739c-.184-.29-.1-.58-.263-.871a5.094 5.094 0 0 0 -.684-.765 1.564 1.564 0 0 1 -.21-1.055.947.947 0 0 0 .058-.251l.257-.118a1.372 1.372 0 0 0 .685-.448c.21-.317.184-.37.579-.4s.158 0 .843-.4.79-.606.843-.791.869.053 1.079-.237.159-.421.527-.448.026-.37.606-.527a2.388 2.388 0 0 0 .79-.317 3.331 3.331 0 0 0 .5-.343c.21-.132.421-.343.578-.37a1.081 1.081 0 0 0 .738-.211c.343-.264.553-.765.816-.818s.158.184.606-.146a2.875 2.875 0 0 1 1-.541c.132 0 .158.132.343-.1s.026-.343.474-.4.4-.053.685-.4.394-.448.526-.474a2.058 2.058 0 0 0 .474-.317l.263.027a.945.945 0 0 0 .528-.237 2.766 2.766 0 0 1 .368-.317l.9-.237 1-.686s.843-.184 1.054-.606.474-.58.341-.792m-81.013 49.791c-.074.141-.372.137-.484-.124s-.205-.055-.839-.111a1.625 1.625 0 0 0 -1.061.2c-.335.13-.242-.2-.242-.2a2.214 2.214 0 0 0 -.012-.67c-.067-.2.068-.132.142-.431s.261 0 .465-.262.373-.149 1.285-.28.3.28.391.448a6.371 6.371 0 0 1 .447.765c.224.466-.018.522-.094.665m6.089-2.428c.168-.328.317-.064.615-.132s.466.273.466.273.018 2.351 0 2.38-.018.362-.28.437a1.34 1.34 0 0 1 -.577 0 .988.988 0 0 0 -.112-.354 1.526 1.526 0 0 1 -.13-.374s0-.69.038-.951.018-.336-.168-.753-.018-.2.148-.525m1.192 7.08c-.018.13-.093.373-.186.746a.813.813 0 0 0 .093.634 3.972 3.972 0 0 1 -.093.932c-.094.2-.373.112-.839.09s-.39-.015-.558-.351-.317-.634-.391-.8a5.45 5.45 0 0 1 -.168-.765s.149-.56 0-.765-.521.261-.521.261-.224.3-.335.486.038.765-.074.914a1.32 1.32 0 0 0 -.149.727c0 .3-.651.28-.651.28s-.763.094-.913-.186-.652 0-.652 0l-.018-.914.168-.112c.168-.112.148-.354.13-.6a.551.551 0 0 1 .168-.448c.092-.13.018-.578.018-.578s.056-.839.056-1.4-.168-.728-.168-.728v-2.555a.975.975 0 0 0 -.316-.671c-.28-.3 0-.448 0-.634a.383.383 0 0 1 .335-.374c.167 0 .316-.261.316-.261s.763-.074.969-.13a.363.363 0 0 1 .428.224c.038.13.447.421.447.421s.056 2.581.018 2.935.242.466.373.654.316.112.6.242.428-.056.689-.186.148.018.112.223.186.243.186.411.148.26.354.279.149.224.13.43.447.82.447.82.018.616 0 .746m29.939-.018v-.153c0-.116 0-.243.005-.381v-.386c0-.313.008-.659.012-1.014v-.21c0-.143 0-.288.005-.432v-.093c.006-.476.011-.943.016-1.35v-.192c0-.067 0-.133 0-.2v-.13c0-.113 0-.219 0-.312 0-.123 0-.225 0-.305v-.139c0-.032 0-.05 0-.05l.007-.566a1.343 1.343 0 0 1 .549-.355 1.032 1.032 0 0 0 .578-.132c.079-.078.237.053.29-.131a11.5 11.5 0 0 1 2.5-.106l.29-.016s.236.491.394.253l.176-.24.5-.016s.316.306.421.2.526.347.526.347a.845.845 0 0 0 0 .707 4.126 4.126 0 0 1 .315.632c.026.079-.025.553.106.684s-.157.317 0 .579a.928.928 0 0 1 .158.421s-.394.29 0 .317a8.381 8.381 0 0 0 .868 0 6.626 6.626 0 0 1 0-1.4c.079-.817.053-.922-.131-1.133s-.053-.685-.053-.685l.1-.211 3.787-.078 1.158.052a.557.557 0 0 0 .447.106c.262-.053.368.448.368.448a.667.667 0 0 0 .368.737 1.468 1.468 0 0 1 .6.9s-.263.685 0 .9.578.261.631.38a.919.919 0 0 1 .184.437 1.4 1.4 0 0 0 .184.632 1.12 1.12 0 0 1 .369.763 1.21 1.21 0 0 0 .315.712 4.98 4.98 0 0 1 .552.921c.053.264-.078.237.106.474s.053.184.237.5.473.764.262.922a2.592 2.592 0 0 1 -1.236.184 11.128 11.128 0 0 0 -2.1 0 1.3 1.3 0 0 1 -.71.184c-.263 0-.184-.263-.762-.263s-.816.263-.974-.159a3.281 3.281 0 0 1 -.184-1.238c.026-.263.184-1-.079-1.211s-.131-.685-.131-.974.184-.29-.053-.606-.446-.738-.842-.474-.631.264-.552.685.131-.421.263.817a15.974 15.974 0 0 1 .026 2.556.326.326 0 0 0 -.29.289c-.026.264-.631.369-.71.369a2.173 2.173 0 0 1 -.92-.025 3.1 3.1 0 0 0 -.895-.159c-.131 0-1.736-.105-1.736-.105s-.315.474-.341-.685a18.532 18.532 0 0 1 .132-2.4 3.052 3.052 0 0 1 -.343-.4c-.053-.1-.1-.79-.421-.606s-.789.106-.789.422v1.16a8.774 8.774 0 0 1 -.21 1.633 1 1 0 0 1 -.421.659 1.145 1.145 0 0 1 -.868.237 1.751 1.751 0 0 1 -.631-.237c-.131-.079-.315-.237-.552-.106s-.521.264-.532.192a1.691 1.691 0 0 0 -.038-.2c-.111-.4.016-.813-.143-1.1a1.5 1.5 0 0 1 -.175-.573c0-.068 0-.237.005-.473m-.012 23.617-.024-.012-.01-.01zm8.096-92.974a1.151 1.151 0 0 0 .355-.275c.022-.114.456-.847.822-.367a4.669 4.669 0 0 1 .64 1.259c.114.3-.137.572.068 1.054a1.58 1.58 0 0 1 .095.312.714.714 0 0 0 -.141.13c-.2.227-.359.143-.587.4s-.646-.2-.886.247-.466.2-.97.7a2.941 2.941 0 0 1 -.978.719c-.2.089-.358-.025-.361.191a1.445 1.445 0 0 0 -.233.208c-.532.587-.922.475-1.4.755s-.839.083-1.369.531-.779.42-1.031.641c-.137-.224-.256-.414-.256-.414s-.32-.32.456-.732 1.189-.87 1.646-.962 1.029.115 1.3-.481.5-.343.549-.984c.04-.557.13-.975 0-1.151a5.209 5.209 0 0 1 .682-.383c.595-.275.368-.786.85-1.016a4.662 4.662 0 0 0 .738-.38m-2.833-5.657c.205-.115.571.138.525.5s-.525 0-.525 0-.206-.39 0-.5m-5.257 1.579c.137-.092.324-.252.551-.411s.52-.482.569-.229a.58.58 0 0 1 .021.089c.026.163.018.506-.479.643-.663.183-.8 0-.663-.092m-.526 7.029a5.659 5.659 0 0 1 -.046-1.191c.069-.046-.456-.365.481-.411s1.531-.229 1.646-.55.114-.412.366-.435.617-.779 1.508-1.076.891.275 1.325-.6.618-1.074.778-1.164 1.12-.755 1.257-.892.023-.916.48-.5a1.758 1.758 0 0 1 .5 1.373 2.989 2.989 0 0 1 -.205 1.122c-.115.206-.778.343-.778.526 0 .068-.076.159-.159.262a1.038 1.038 0 0 0 -1.006.494c-.275.572-.48.664-.731.687s-2.032.243-2.056.808c-.1.008-.189.053-.23.244-.092.435-.8.343-.046.755s.686.321.754.412-.159.526-.5.71-1.143.138-1.509.3-.114 1.03-.937.161-.868-.779-.891-1.03m-35.59-9.82a.39.39 0 0 1 .295-.3c.076-.01.155.01.229-.005s.147-.1.113-.164a1.2 1.2 0 0 1 .463.079.7.7 0 0 0 .682-.275.947.947 0 0 0 .8.217l.482.3c.12.075.255.184.234.324s-.179.2-.312.237a.92.92 0 0 1 -.686.011.827.827 0 0 0 -.184-.1c-.159-.04-.3.107-.375.254a1 1 0 0 1 -.255.414.567.567 0 0 1 -.429.057.619.619 0 0 1 -.326-.147.29.29 0 0 1 -.064-.324h-.52a.12.12 0 0 1 -.142-.135 1.156 1.156 0 0 1 0-.442m.656 3.377c.132.006.288.025.351.141.071.131-.023.309.05.438a.537.537 0 0 0 .222.162 1.262 1.262 0 0 1 .426.528 1.436 1.436 0 0 0 .408.545.47.47 0 0 0 .621-.045c-.022.218.256.331.476.338s.486 0 .595.194a1.689 1.689 0 0 0 .1.222c.168.212.564-.027.763.155.072.067.1.172.157.248a.6.6 0 0 0 .374.166l.931.172a1.694 1.694 0 0 1 .437.124 2.784 2.784 0 0 0 .327.174 2.765 2.765 0 0 0 .531.044c.428.053.882.424 1.236.176.14.083.075.308-.043.421s-.281.2-.315.363.086.364-.01.509c-.108.16-.374.09-.525.212-.2.16-.047.48-.093.73-.063.338-.482.506-.577.836-.078.266.062.61-.141.8-.167.155-.486.105-.589.309-.031.062-.037.142-.091.186-.106.086-.243-.046-.342-.138a1.329 1.329 0 0 0 -1.015-.233.477.477 0 0 1 -.32-.055.875.875 0 0 1 -.136-.173c-.191-.25-.557-.261-.848-.383a1.429 1.429 0 0 1 -.781-1.069 3.478 3.478 0 0 1 .078-1.368.771.771 0 0 0 .022-.311.622.622 0 0 0 -.249-.342 1.86 1.86 0 0 0 -.793-.365c-.341-.067-.74-.06-.961-.327-.07-.084-.108-.184-.17-.272a1.585 1.585 0 0 0 -1.209-.5.445.445 0 0 1 -.215-.061c-.171-.124-.083-.4-.167-.593-.07-.163-.249-.243-.379-.364-.43-.4-.237-1.112-.381-1.682l2.244.1m-4.233 4.281q-.035-.27-.072-.541l.6-.029c0-.183 0-.367 0-.551a.666.666 0 0 0 .692-.421 2.877 2.877 0 0 1 1.22 1.083.555.555 0 0 0 .15.228.473.473 0 0 0 .316.052l.875-.059c-.087.29.373.412.536.668s-.018.6-.246.807-.515.373-.624.66c-.1.254-.062.6-.3.728-.189.1-.415-.02-.594-.138l-1.613-1.052a2.814 2.814 0 0 0 -.513-.285 1.812 1.812 0 0 0 -.755-.623c.1-.223.1-.549.325-.536m-8.338 36.17a9.666 9.666 0 0 1 -1.177 1.779c-.588.547-.631.126-1.3-.042s-.547-.254-1.177-.843-.756-.168-.926-.631-.377-.673-1.007-1.179-.631 0-.8.346.168.622.462 1.085a2.125 2.125 0 0 0 .63.716 11.117 11.117 0 0 1 .925 1.263c.462.59.672.126.882.59a.886.886 0 0 0 .757.47 2.045 2.045 0 0 1 0 1.543c-.295 1.087-.337.386-.589.849s-.295 1.179-.462 1.389a1.282 1.282 0 0 1 -.757.422c-.42.126-.378.463-.63 1.094s-.5-.042-.673-.42a4.949 4.949 0 0 1 -.63-1.979c-.042-.927-.5-.631-.715-.927s-.252-.884-.672-1.684-.379-.59-1.094-1.094-.042-.758-.126-1.642-.672-.758-.715-1.1a5.1 5.1 0 0 1 0-1.632c.126-.8.295-.547.673-1.094s-.168-1.179.252-1.178.421-.591.8-1.264.168-.589.42-.8.547-.168.967.42.253 0 .547.38.168.421.63.842 1.051 1.136 1.177 1.263a11.685 11.685 0 0 1 1.429.8c.5.421.8.042 1.177.421s.5.21 1.3.713.841.55.421 1.129m1.807-3.147c-.252.631-.673.21-.8.21a6.4 6.4 0 0 1 -1.765-.336 7.555 7.555 0 0 1 -1.514-.631 8.325 8.325 0 0 1 -1.26-1.18c-.756-.8-1.009-.294-1.6-1s-.252-.726-.461-1.483-.421-.253-.757-.717c-.174-.24.093-.411.39-.521a6.122 6.122 0 0 1 1.116.239c.3.164.678.164.982.656s.678.094 1.075.562a6.11 6.11 0 0 0 1.59.983c.42.258.841.328 1.612.773s.468.375 1.029.234a.369.369 0 0 1 .212 0 2.24 2.24 0 0 1 .175.2 1.168 1.168 0 0 1 .01.484s.13.106.3.237a6.142 6.142 0 0 1 -.339 1.3m16.828 5.874-.451-.217c.019-.13.275.037-.36-.322a6.79 6.79 0 0 1 -1.066-.64c-.312-.242-.043.2-.582-.3a3.467 3.467 0 0 0 -.654-.57c-.47-.341-.6-.4-.441-.555s.568-.242.568-.826.5-.67-.013-.954-.512-.584-.74-.271-.5.086-.611.356-.71.157-.725.327-.228.057-.256.242-.384.242-.356.413-.043-.071-.426-.185a3.586 3.586 0 0 1 -1.066-.428c-.6-.327-.768-.655-1.052-.712s-.242.071-.569-.257-.37-.114-.611-.455-.2-.47-.541-.413-.34-.313-.668-.442-.6-.455-.839-.484-.768-.47-.91-.342-.213-.227-.213-.227.44-.356.469-.6.484-.285.085-.484.014-.456-.526-.442-.612-.414-1.052 0a.975.975 0 0 1 -.337.241c-.12-.224-.853.249-1.306-.269s-.748.141-1.1-.153-.842-.6-.959-1.042-.584.047-.818-.375-.514 0-.935-.609-.7.141-.934-.351-.888-.375-1.122-.608.234-.468.327-.492a2.3 2.3 0 0 0 .678-.281c.234-.164.094-.211.234-.539s.326.07.841 0 .468-.3.608-.726-.14-.3-.631-.492-.677.117-1.028.094-.655.211-1.005.211a3.535 3.535 0 0 0 -.888.234c-.3.07-.21-.117-.608-.3s-.584.539-.7.7-.444.117-.822-.375-.534.023-.814-.164a6.263 6.263 0 0 1 -1.379-.913c-.443-.468-.443-.07-.934-.421s-.444-.117-.444-.375-.047-.187-.07-.445 1.052-.117 1.378-.141 1.426 0 1.917-.094.351-.351.234-.8-.561-.329-.654-.469-.21-.187-.655-.422-.631-.047-.958.3-1.378.258-1.635.258-.4-.07-.561-.492-.351-.164-.888-.094-.07.4-.257.7-.468.258-.678 0-.351-.14-.748-.117-.491-.023-.7-.4-.514-.375-.748-.585a1.239 1.239 0 0 0 -1.1-.538c-.7.023.069-.422-.514-.609a.514.514 0 0 1 -.328-.564c.586-.382.9-1.232 1.6-1.291a5.021 5.021 0 0 0 .554 0c.181-.035.362-.2.309-.382-.075-.256-.475-.2-.671-.376-.079-.073-.119-.182-.2-.255a.643.643 0 0 0 -.421-.112 2 2 0 0 0 -1.7.5.962.962 0 0 1 -.273.3c-.308.158-.659-.237-1-.161-.174.039-.334.2-.5.143-.1-.034-.156-.131-.236-.2-.422-.346-1.073.341-1.566.107a3.747 3.747 0 0 1 -.317-.226 1.942 1.942 0 0 0 -.317-.135 1.686 1.686 0 0 1 -1.008-1.703 3.265 3.265 0 0 1 .506-1.235 2.813 2.813 0 0 1 .757-.954 1.41 1.41 0 0 1 .791-.249 1.743 1.743 0 0 0 .392-.013.783.783 0 0 0 .5-.847 3.918 3.918 0 0 0 -.322-1.017 1.256 1.256 0 0 1 -.011-1.039c.242-.42.889-.635.852-1.119a3.469 3.469 0 0 1 -.085-.434.653.653 0 0 1 .094-.271 4.213 4.213 0 0 1 .63-.886.67.67 0 0 1 .606-.285c.421.109.449.879.883.878a.635.635 0 0 0 .431-.275l.466-.528a.606.606 0 0 0 .142-.216.6.6 0 0 0 0-.265l-.087-.731a.678.678 0 0 0 -.079-.283.742.742 0 0 0 -.312-.227c-.349-.175-.708-.47-.7-.86a.8.8 0 0 1 .026-.171 2.179 2.179 0 0 1 .476-.432.751.751 0 0 0 .364-.7 1.043 1.043 0 0 1 .72.53 3.642 3.642 0 0 0 .532.754.673.673 0 0 0 .842.1.94.94 0 0 0 .23-.74l.015-1.029a.988.988 0 0 0 -.037-.35c-.138-.378-.651-.444-.925-.737-.352-.369-.214-.969-.052-1.464a3.69 3.69 0 0 1 .715-1.434 1.365 1.365 0 0 0 .35-.444 2.681 2.681 0 0 0 .043-.559c.068-.539.656-.87.817-1.388a1.7 1.7 0 0 1 .187-.572.605.605 0 0 1 .671-.147 1.8 1.8 0 0 1 .6.417l.907.845c.218.2.529.417.783.265a.58.58 0 0 0 .136-.7 2.389 2.389 0 0 1 -.251-.73 2.166 2.166 0 0 0 .019-.566.78.78 0 0 0 -.287-.356 8.1 8.1 0 0 0 -.845-.6.761.761 0 0 1 -.218-.172.553.553 0 0 1 .084-.655 1.12 1.12 0 0 1 .364-.286c.021.019.043.038.065.055.7.553 1.78.507 2.394 1.158.272.289.446.707.818.841.3.11.67 0 .944.169.2.127.3.377.478.537.371.33.974.183 1.408.425.4.225.606.755 1.049.885.295.084.632-.034.907.1a1.492 1.492 0 0 1 .359.312c.712.7 1.845.758 2.674 1.315a.66.66 0 0 1 .242.248c.122.263-.088.556-.106.846-.022.375.278.687.377 1.051a3.975 3.975 0 0 1 .053.772 4.18 4.18 0 0 0 1.156 2.234.839.839 0 0 0 .267.245.506.506 0 0 0 .624-.207.727.727 0 0 0 .006-.692c-.156-.314-.48-.521-.614-.845a1.546 1.546 0 0 1 -.092-.43 14.827 14.827 0 0 1 -.093-1.764 24.573 24.573 0 0 0 4.8 2.46 1.97 1.97 0 0 1 .5.245c.191.145.321.356.507.508a.533.533 0 0 0 .657.073c.582.419 1.146.862 1.683 1.335a3.121 3.121 0 0 0 1.807 1.01 2.671 2.671 0 0 1 .939.041 1.39 1.39 0 0 1 .378.27l1.627 1.464c.187.168.458.344.665.2.073.178.145.357.219.535l.783.4a1.642 1.642 0 0 0 .666.224.668.668 0 0 0 .34-.081 1.627 1.627 0 0 0 .364.414c.394.317.963.51 1.1 1 .067.237.009.5.087.732.114.34.492.552.566.9.049.232-.015.544.2.652.142.073.331-.01.468.073s.141.268.22.4a.432.432 0 0 0 .749-.1c.066-.242-.095-.481-.177-.717s-.013-.59.238-.6a.438.438 0 0 1 .211.061c.514.258.978.719 1.552.692a.94.94 0 0 1 .505.025c.14.078.2.251.311.367.273.282.768.167 1.1.382a1.931 1.931 0 0 1 .359.38 5.2 5.2 0 0 0 1.781 1.062 6.62 6.62 0 0 1 1.449.969.66.66 0 0 0 .229.153c.174.054.4-.041.529.086.1.1.079.278.173.385a.5.5 0 0 0 .366.109 2.144 2.144 0 0 1 1.4.647c.024.025.05.052.076.076a.694.694 0 0 1 -.02.31 4 4 0 0 0 -.31 1.348 3.73 3.73 0 0 0 .167.964 3.631 3.631 0 0 1 0 1.418c-.043.261-.219-.038 0 .821a5.914 5.914 0 0 1 0 1.679c.069.261-.094 1.007.174 1.381a1.649 1.649 0 0 1 .231.932 7.788 7.788 0 0 0 0 .97 8.531 8.531 0 0 1 0 1.007 4.727 4.727 0 0 0 .015 1.157 2.777 2.777 0 0 1 -.3 2.052c-.465.486-.837.336-1.135.6s-.558.3-1.079.672-1.416.634-1.64.9-.446 0-.707.672.112.858-.633.858-.856-.074-1.341.373a6.51 6.51 0 0 1 -.969.746c-.111.074-.6.112-.744.485s-.485.187-.82.6-.744.41-.819.709-1.229.373-1.229.783-.074.486-.484.56-.707.41-.819.41-1.192-.224-1.192-.224m28.036 49.331c0 .058-.051 1.788-.084 2.437a1.919 1.919 0 0 1 -.982.1 1.774 1.774 0 0 0 -1.146.2 5.471 5.471 0 0 1 -1.178-.173c-.175-.111-.239.157-.239.157a10.656 10.656 0 0 1 -2.068-.076c-.287-.144-.207.076-.207.076a.58.58 0 0 1 -.382-.157c-.159-.159-.287.142-.287.142s-2.244.034-2.292 0a3.023 3.023 0 0 0 -.716-.253.611.611 0 0 0 -.637.143s-.541.191-.652.069a1.2 1.2 0 0 0 -.525-.325.6.6 0 0 0 -.542.181c-.127.182-.175.2-.477-.006s-.43.048-.653 0-.334-.255-.478-.4-.4.048-.461 0a2.535 2.535 0 0 1 -.717-.574c-.191-.287-.573-.111-1.035-.127a.74.74 0 0 1 -.539-.186l-.034-.044c-.521-.653-1.266-.354-1.527-.354s-.633.018-1.211.018-.577.43-.559.56a8.3 8.3 0 0 0 .466.914 4.421 4.421 0 0 1 -1.377.018c-.727-.112-.317.33-.317.33a2.323 2.323 0 0 1 -.689-.274c-.224-.168-.186.149-.466.252s-.372-.178-.633-.364-.968.359-.968.359-.485.033-.615-.079-.6.112-.8-.038-.432.094-.432.094-.354.112-.373-.15-.446-.335-.446-.391-.131-2.705-.075-3.227-.186-.485-.186-.541.149-5.783.149-6.025-.243-.56-.335-.84 0-.26.13-.652a.579.579 0 0 0 -.205-.629 23.733 23.733 0 0 1 .159-2.937c.13-.158-.018-.681-.018-1.035s.148-.466.224-.69.242-.262.409-.392.335.448.372.522a1.833 1.833 0 0 0 .54.522 1.621 1.621 0 0 1 .633.522 1.251 1.251 0 0 0 .521.466.43.43 0 0 0 .671-.2c.149-.318-.038-.41-.205-.766s0-.223 0-.6-.39-.578-.466-.671-.334-.094-.334-.578-.521-.374-.6-.672-.354-.28-.372-.429-.261-.094-.335-.71a9.152 9.152 0 0 0 -.168-.932c-.037-.242-.354-.317-.391-.615s-.3-.392-.3-.765a.727.727 0 0 0 -.242-.56l-.098-7.482c.038-1.24-.009-3.076-.009-3.076s.373.224.447-.074.335.223.335.223.037.746.335.746.3.15.335.448-.186.485.261.522.558.634.67.784.112.857.745 1.231.3.746.373.858a1.544 1.544 0 0 0 .41.522c.224.149.446.933.446.933s.187.671.671.447.582-.186.682-.783.384-.672 0-1.007-.384.3-.644-.672.074-.634-.521-1.157a5.6 5.6 0 0 1 -1.006-1.007c-.037-.112-.41-.858-.67-1.343a4.631 4.631 0 0 1 -.559-1.194c-.038-.3.41-.708-.26-.97a2.867 2.867 0 0 1 -1.155-.709c-.112-.15-.485-.522-.485-.522a.812.812 0 0 0 -.148-.821 2.171 2.171 0 0 1 -.373-1.082l-.037-5s-.187-.858.521-.3.372.56.707.895.41.9.745.634a3.526 3.526 0 0 0 .67-1.119 4.483 4.483 0 0 0 -.446-.96 2.641 2.641 0 0 1 -.44-1.274c-.16-.783-.16-.3-.5-1.044s.411-1.231-.037-1.753.023-.741-.435-1.285l.551-.824c.629-.241.741.066.965-.3s.251-.651.643-.648.531 0 .67-.248.363-.14.363-.391.029-.2.476-.364 0-.643.446-.168.5.543.532.789-.28.526.167.918.312.475.449.783.222.98.64 1.035.308.2.475.448.168.308.42.392c.212.07.228-.232.444-.112s.235.059.192-.256-.1-.43-.094-.472a.976.976 0 0 0 -.055-.173 1.238 1.238 0 0 1 -.125-.384c-.2-.867.028-.616-.391-1.035s-.67-.482-.67-.76.139-.948-.056-1.228-.806-.839-.781-.922.333.14.64-.28.112.028.308-.42.446-.559.642-.532.614.16.726 0a4.822 4.822 0 0 1 .783-.583s.083-.532.419-.532.447-.139.559 0 .5.867.726 1.231-.224.588.2.7.056.336.224.56-.083.895 0 1.147-.384.468.059.863.783.424.907.787.292.448.4.14a4.116 4.116 0 0 0 .112-.994s.28.042 0-.685a2.59 2.59 0 0 1 -.224-1.4c.027-.42.643-.084 0-1.008a13.077 13.077 0 0 1 -.783-1.405c-.363-.554-.5-.805-.307-.917a9.966 9.966 0 0 1 1.437-.448c.183-.028.295-.2.434-.223s.894 0 .894 0 .056.755 1.146.7.251.5.67.727.029.448.727.5.838.14.922.42.28.672 0 .98-.5.5-.5.867-.027.839-.027.979 0-.28.2.364-.056 1.147.2 1.063.447.336.447-.7-.112-1.2 0-1.511.224-.727.224-.727.391-.253.447-.421.167.533.446.533.056.363.391.335.615.168.7.112-.168.7.2.728-.278.811.224.979.14.783.14.867-.028.7-.028.98a2.582 2.582 0 0 1 -.251.783 1.252 1.252 0 0 1 -.077.162s-.494 1.3-.109 1.412a.625.625 0 0 0 .678-.232c0-.046.063-.7.262-.787a1.029 1.029 0 0 0 .357-.334c.051-.189-.03-.432.146-.622.222-.242.363.065.363-.69a3.9 3.9 0 0 1 .307-1.318c0-.008 0-.022 0-.043a.94.94 0 0 1 .879.242 2.08 2.08 0 0 0 .868.659c.079.078.263.131.447.263s.6-.078.815.237a4.466 4.466 0 0 1 .527.87c.025.158-.132.712 0 1.027a2.369 2.369 0 0 1 .21.79 9.114 9.114 0 0 1 -.158.923s-.289.053-.262.448a5.414 5.414 0 0 0 .052 1.054c.079.1.421-.132.474.395s-.079.764 0 1.027.263 3.872.263 3.872-.316.132-.394.869.131 4.215.131 4.215.211.079-.053.869a5.1 5.1 0 0 0 -.262 1.449l.077.711c0 .336.016.581.1.661.1.1.055.543.1.654a2.452 2.452 0 0 1 .064.495 1 1 0 0 0 -.366.669c-.016.4-.3.622-.318.718a2.993 2.993 0 0 0 -.255.766 4.416 4.416 0 0 1 -.445 1.068 4.9 4.9 0 0 0 -.223.685c0 .112-.339.574-.3.749a1.656 1.656 0 0 1 0 1.084c-.193.462-.623.654-.623.908a3.351 3.351 0 0 1 0 .7c-.048.1-.381.351-.414.414s.048.256.064.383-.239.191-.16.431a.537.537 0 0 0 .27.319s.048.462.224.574.646.35.642.064a7.454 7.454 0 0 1 .09-.893 3.572 3.572 0 0 0 .7-1.419c0-.51.43-.781.334-1.036s-.079-.383-.031-.4.366-.16.366-.16.318-.111.333-.223.271.478.271.685a12.667 12.667 0 0 0 -.128 2.375 7.759 7.759 0 0 1 .3.909l-.122 4.6c0-.072.016-.148.062.217.064.51 0 2.535 0 2.535s.271.494-.063.573-.478.128-.509.335-.287.4-.382.543-.191.191-.191.319a1.184 1.184 0 0 1 0 .335c-.032.079-.494.654-.717 1a1.458 1.458 0 0 0 -.27.861c0 .271-.1.494 0 .621s.191.335.6 0 .4-.414.414-.525a.987.987 0 0 1 .239-.431c.048 0 .382-.239.525-.191s.414-.064.454.4-.1.559 0 .654-.2.256.007.383a.964.964 0 0 1 .3.495l-.127 3.555s-.254 0-.048.414a1.459 1.459 0 0 1 .175.765m27.832-58.611c.369.5.553.29.659.633s-.343.4 0 .713.394.184.579.474.526-.079.368.633a1.412 1.412 0 0 1 -.447.871c-.132.211-.447.317-.447.448s-.106.474-.132.686-.579.5-.606.765.053.4-.158.607-.579.264-.632.474a2.331 2.331 0 0 1 -.369.738c-.237.37-.368-.1-.421.449s-.475.5-.606.871-.553.765-.553 1.081-.369.633-.422 1-.527.528-.527.844.079.607-.29.792-.394.131-.631 0-.448-.633-.606-.818-.079-.106-.29-.5-.211-.922-.369-1.265a3.576 3.576 0 0 0 -.474-.87 1.278 1.278 0 0 1 -.29-.818c0-.132-.316-.818.1-.791s.448.1.764-.106.368-.422.816-.5.394-.264.606-.475 1.079-.237 1.184-.422a1.9 1.9 0 0 0 .475-.871c.053-.447.713-.87.079-.9s-.9-.29-1.133.08a2.324 2.324 0 0 1 -.447.58c-.211.211-.447.182-.553.236s-.421.08-.526.185-.237.053-.369.185.132-.079-.131.131-.369.159-.553.237-.42-.078-.565.08-.094.264-.515.159a1.834 1.834 0 0 1 -1-.739c-.184-.29.106.29-.184-.29s-.185-.765-.343-.9a4.511 4.511 0 0 1 -.632-.844c-.237-.369-.447-.184-.447-.58s.158-.712.1-.869.026-.212.4-.449.447-.66.763-.554.369-.317.632-.237.949-.713 1.067-.686a4.547 4.547 0 0 0 1.487-.765c.29-.29.343-.527.606-.527s.567.131.784-.29.243-.554.638-.554a2.084 2.084 0 0 0 .763-.132c.29-.078.553-.342.659-.184s.447.184.447.184a1.577 1.577 0 0 1 .237.871c.026.607.106.554-.5.9a3.678 3.678 0 0 0 -1.132 1.055c-.369.422-.948.58-1.212.9s-.29.237-.526.476-.763.131-1.237.264-.764.079-.791.369-.131.185 0 .58.343.4.579.422a1.811 1.811 0 0 0 .922 0 6.2 6.2 0 0 0 .714-.349s.19-.053.464-.132.484.106.694-.184.053-.527.553-.686.685.053.842-.289a1.85 1.85 0 0 1 .843-.766c.369-.211.422-.542.791-.482s.078-.652.447-.152m14.93-15.376a4.531 4.531 0 0 0 -.948.607c-.078.132-.921.053-1 .264s-.422.317-.474.422-.026-.1-.316.212-.053-.132-.579.264-1.185.343-1.264.659a.734.734 0 0 1 -.71.475c-.263 0-.422.184-.553.448s-.606.106-.712.317-.078.184-.553.343-.658-.237-.763.211-.026.738-.526.527-.869-.7-1.053.07-.4.774-.579.853-.791-.343-.9 0a1.351 1.351 0 0 1 -.448.685c-.184.159-.776.29-.783.449s-.165.264-.4.264a.685.685 0 0 0 -.632.4c-.106.264-.447.4-.685.579a8.871 8.871 0 0 0 -.737.5c-.184.184-.343.053-.474.317s-.343.158-.5.342-.29.079-.421.185-.316-.159-.447.158-.686.577-.686.577h-.131a2 2 0 0 0 -1 .713 1.365 1.365 0 0 1 -.79.606s-.369-.316-1 .238a7.834 7.834 0 0 1 -1.448 1.108 15.868 15.868 0 0 0 -1.632.9c-.21.212-.606.159-.816.475s-1.422.607-1.422.607a.42.42 0 0 0 -.527.131c-.184.29-1 .713-1.132.9s-.79.106-.922.343-.553.607-.553.738a2.607 2.607 0 0 1 -.29.607 3.267 3.267 0 0 0 -.79.132 5.869 5.869 0 0 1 -.579.264c-.078.052-.474-.053-.684.158s-.922.237-.922.237-.036.064-.084.159a3.856 3.856 0 0 1 -.916.606c-.185 0-.29.66-.632.554s-1.238.686-1.343.686-1.738.924-1.949 1-.368.555-.684.555-.343.158-1.079.448c-.435.171-.421.376-.418.507a2.4 2.4 0 0 1 -.229.128 1.347 1.347 0 0 0 -.571.194.632.632 0 0 1 -.182 0c-.163-.033-.716-.674-.943-.565-.041.019-.086-.261-.217-.326s-.26-.261-.358-.347-.228.054-.239-.2.151-1.684-.314-1.63-.727-.065-.889.423-.39.728-.39.946-.369.14 0 .651.358.315.5.608-.054.478.293.64.348-.108.587.261a1.191 1.191 0 0 0 .449.39l-2.542 1.134a8.238 8.238 0 0 0 -.731-.7.949.949 0 0 1 -.527-.184 2.664 2.664 0 0 1 -.473-.554s-.053-.342-.369-.342a.808.808 0 0 1 -.552-.316h-.357a.572.572 0 0 0 -.31-.613 5.628 5.628 0 0 1 -1.006-.672c-.614-.448-.168-.616-.782-.616s-.587-.167-1.146-.7-.81-.363-1.117-.7-.42-.168-.7-.7-.727-.447-1.174-.812a3.6 3.6 0 0 1 -1.061-1.175 3.518 3.518 0 0 0 -.734-1 1 1 0 0 0 -.048-.47 2.819 2.819 0 0 1 -.221-.693l.137-2.551s.351-.284.351-.536.141-.284.219-.394.441-.095.488-.3.126-.283.236-.268.614.39.818 0 .487-.487.566-.738.267-.709.3-.866.345-.82 0-1.119-.221-.519-.41-.536-.377-.535-.613 0-.107.442-.454.8-.411.016-.552.474-.488.456-.582.677a.517.517 0 0 1 -.5.236c-.047-.032 0-1.891 0-1.891l-.094-1.858s.8-.111.566-.6a3.9 3.9 0 0 0 -.362-.647l.174-1.417.01-.5c.137-.015.619-.033.807-.332s.362-.236.645-.3.267-.441.833-.5.771-.946 1.069-.977.55-.236.8-.252.141-.189.629-.362.472-.11.535-.489.236-.126.566-.12a.551.551 0 0 0 .3-.076 1.661 1.661 0 0 1 .054.737 2.4 2.4 0 0 1 -.754 1.12 3.627 3.627 0 0 0 -.391 1.034c0 .309-.28.812.168.755a2.783 2.783 0 0 0 1.144-.727c.085-.084.14.028.588-.363s.866-.668.977-.977.14.25.28-.45a4.521 4.521 0 0 1 .168-.839 2.27 2.27 0 0 1 .335-.392c.083-.056.559-.616.559-.616a1.838 1.838 0 0 1 0-1.2c.251-.419 1.145-.643 1.173-.727s-.056-.168.475-.532.949-.364 1.285-.728a6.851 6.851 0 0 1 1.844-.895 9.9 9.9 0 0 0 1.565-.951c.559-.419.839-.391 1.229-.727s1.146-.168 1.649-.728a7.321 7.321 0 0 1 1.62-1.007c.224-.2-.168-.979.7-.532s-.056 1.231-.363 1.65-.839.616-.866.923-.447.531-.476.672-1.2.923-.446.923a1.316 1.316 0 0 0 1.2-.5 1.623 1.623 0 0 1 .894-.392 3.337 3.337 0 0 0 .726-.419s.587-1.259.671-1.343a8.439 8.439 0 0 0 1.4-2.015 2.275 2.275 0 0 1 .587-1.063 2.683 2.683 0 0 0 .543-.635.942.942 0 0 0 .5-.112c.191-.18.4-.012.514-.36s.215-.2.611-.432.659-.252.694-.42.491-.143.7-.372.071-.288.347-.348a1.292 1.292 0 0 0 .527-.2c.06-.06.156.036.407-.18s.335-.276.443-.276.491-.216.526.132.228.527.42.54a2.387 2.387 0 0 0 .814-.191c.168-.084.587-.06.706-.456s.4-.808.431-.948a5.1 5.1 0 0 1 .2-.5l.038-.03a2.928 2.928 0 0 0 .579-.527c.29-.29.4-.607.712-.607s.659-.08.684-.343a.744.744 0 0 1 .475-.527 4.946 4.946 0 0 0 .5-.237.836.836 0 0 0 .737-.37c.211-.4.026-.4.606-.422s.553.264.79-.158a2.726 2.726 0 0 1 .553-.686 1.2 1.2 0 0 0 .817-.316c.368-.343.6-.159.737-.4a1.63 1.63 0 0 1 .447-.448s.526-.633 1.028-.4.737.317.763.554a2.529 2.529 0 0 1 -.132.818c-.052.159-.368.211-.553.448s-.421.5-.421.66-.159.211.026.408.29.252.394.356-.131.212.238.132.192 0 .451-.184.233-.107.391-.3-.369-.461.263-.435a6.089 6.089 0 0 0 .79 0 2.009 2.009 0 0 1 .71.818c.053.212-.184.237.185.527s.263.4.527.607.237.66.5.9.132.607.369.791.263.37.421.527.158.686.158.766v.818c0 .37-.158.422-.211.554s-.526-.08-.1.474.421.739.658.66-.21-.264.553-.264.764.272.9.281-.131-.281.132.009.447 1.134.843 1.424a.961.961 0 0 1 .5.844 1.049 1.049 0 0 1 -.263.765c-.21.264-.474.132-.5.422s-.026.632-.026.738a.244.244 0 0 0 .21.264c.184.053.29.106.474 0s.106-.132.422-.29.5-.29.842 0 .447.317.5.607-.053.554 0 .66-.343.264-.421.4-.106-.158-.238.264-.131.185-.131.423-.079 1.213.421 1.161a9.206 9.206 0 0 1 1.081-.132c.421 0 .658-.233.921.134s.29 0 .422.5.263.448.1.791-.421.079-.658.474-.632.132-.816.4-.764.4-.948.633-.58-.053-.737.211-1 .685-.764.923a1.285 1.285 0 0 0 1.317.131c.394-.237.869-.158 1.159-.343s.29-.342.763-.527.922-.184 1-.474.685-.622.685-.622l-.026.279s.211.633.4.738.6.159.158.423m-12.508-6.375c-.032-.032-.213.192-.394.235s-.351.277-.51.3-.638.256-.7.266-.436.309-.586.32-.224.213-.426.267a6.088 6.088 0 0 0 -.978.8s-.457.437-.414.394-.012-.214 0-.32-.172-.245-.172-.394.054-.181.212-.374a.463.463 0 0 0 .075-.13 1.611 1.611 0 0 0 .36-.8c-.018-.325.321-.371.275-.7a2.126 2.126 0 0 0 -.355-1.05c-.246-.309-.153-.433-.416-.4s-.8-.124-.895.309a.328.328 0 0 0 -.17.371c.047.278-.191.077.081.386s.32.247.4.34.139-.047.139.231a1.983 1.983 0 0 1 -.2.68v.185s-.509-1.2-.925-1.22-.632-.109-.709.046-.262.278-.262.4-.046-.278 0 .355-.231.478.093.726.524.324.555.4a2.165 2.165 0 0 1 .124.325c0 .046-.232.046.015.432a5.042 5.042 0 0 1 .4.788s.277.694.015.911-1.526.772-1.834 1.25-.987 1.142-1.095 1.39-.462.077-.462.448a2.064 2.064 0 0 0 .077.879.444.444 0 0 0 .565.247c.3-.093.421.139.653-.293s.246-.433.262-.6.185-.339.216-.479.462-.442.462-.442.986-1.472 1.356-1.056a9.787 9.787 0 0 1 .694.864c.108.155.17.649.34.68s.246.509.246.509 0 .849.17.942a.673.673 0 0 1 .277.325.594.594 0 0 1 .308.432c.062.355 0 .446.385.455s.617.07.617-.1a2.239 2.239 0 0 0 -.02-.224c.04-.019.048-.069.132-.138.135-.109 0-.267-.02-.363a3.915 3.915 0 0 1 -.021-.639c0-.383-.075-.49-.066-.777s-.349-.725-.328-.885-.053-.128-.106-.362-.181-.234-.3-.511-.021-.043-.212-.2-.128-.308-.266-.575-.117-.1-.415-.415-.128-.362-.107-.409.266-.283.328-.369a7.771 7.771 0 0 1 .651-.61 5.675 5.675 0 0 0 .753-.679 5.928 5.928 0 0 1 1.193-.586 3.978 3.978 0 0 1 1.02-.17 1.148 1.148 0 0 0 .671-.427c.181-.3.053-.5-.107-.9s-.617-.262-.649-.294m-8.1 1.568c-.077.293.077.216.324.473a2.652 2.652 0 0 1 .462.608c.169.278.215.046.215.046a3.342 3.342 0 0 0 .4.325c.155.093.232 0 .432-.263s.046-.556 0-.741-.215-.278-.293-.618-.54-.371-.54-.371c-.372-.128-.339.062-.632.016s0 0-.2.139-.093.093-.17.386m-72.98-16.078a1.171 1.171 0 0 0 -.5-.155zm59.106 32.629a.089.089 0 0 0 -.048-.018c.032.02.079.047.048.018m-.048-.018c-.027-.015-.045-.027-.005 0zm-43.7-18.291c.067.139-.165.124.067.435s.248.108.356.325-.324.635 0 .852.572.636.712.233.295-.527.093-.852-.31-.217-.263-.6a1.235 1.235 0 0 0 -.263-.822c-.108-.2.015-.449-.093-.666a3.85 3.85 0 0 1 -.186-.45s-.356-.449-.557-.093-.371.6-.247.946a4.344 4.344 0 0 0 .381.7m52.155 6.259a1.572 1.572 0 0 0 -.479-.664c-.091-.027-.227.118-.535-.263s-.753.345-.753.345l-.127.081c-.1.146-.227-.236-.3.227s-.091.609-.1.745.109.236.2.472a1.841 1.841 0 0 1 .245.663c0 .254-.145.991-.109 1.327s-.091.782-.018.936.1.21.072.291-.208.146-.245.363a8.8 8.8 0 0 0 -.045 1.19c.017.19.054.29-.027.445s-.1-.027-.127.354-.236.7-.037.854.263-.336.336-.118-.1.29.073.318a1.456 1.456 0 0 0 .49 0 .9.9 0 0 0 .463-.481 4.588 4.588 0 0 0 .417-1.235c.073-.437.245-1.363.263-1.736s.326-1.38.336-1.5.009-1.118 0-1.581.132-.727.007-1.035m-15.581 12.035a.581.581 0 0 0 .286-.2.781.781 0 0 0 .115-.247 1.923 1.923 0 0 0 .077-.424 1.381 1.381 0 0 1 .324-.694c.254-.34.246-.54.231-.625s-.092-.31-.092-.31-.131-.214-.162-.2-.107-.135-.2-.162a.4.4 0 0 0 .094-.484c-.163-.347-.217-.455-.417-.455s-.424-.1-.57 0-.486.169-.563.224-.408.1-.439.231a.225.225 0 0 0 -.215.27c.039.256.116.155.146.332s.062.193.286.348a1.629 1.629 0 0 0 .708.208 1.332 1.332 0 0 0 .2-.079 1.559 1.559 0 0 1 -.218.481c-.206.27-.445.332-.491.494s-.146.147-.146.293-.077.069 0 .239a1.536 1.536 0 0 0 .131.278c.093.155-.031.062.153.224s.08.116.353.2.318.086.41.062m-8.782 38.66c-.4-.114-.446-.15-.56-.114s-.465-.044-.631.123-.42.14-.508.207-.21.021-.253.065a1.983 1.983 0 0 1 -.535-.065c-.228-.066-.237.031-.5-.119s-.237-.184-.535-.2a1.411 1.411 0 0 0 -.911.16c-.281.191-.376.279-.376.367v.184c0 .035.175-.027 0 .114s-.184-.053-.307.211-.131.192-.123.324.079.132.123.308v.219c.009.684-.052.623 0 .729a.542.542 0 0 1 .087.263 1.311 1.311 0 0 0 .026.219 4.025 4.025 0 0 1 -.017.589c0 .052-.2.149-.1.228s-.1.1-.035.236a1.059 1.059 0 0 1 .035.387c.009.078-.087.122 0 .2a2.623 2.623 0 0 1 .245.2c.123.122.271.193.368.141s.3.061.385.184.018.141.316.141.393-.045.437 0 .263-.027.412 0 .29-.023.368.014a1.089 1.089 0 0 0 .578.055c.21-.052.463 0 .482-.175s.148-.2.148-.3.079-.281 0-.333.017-.264-.228-.264-.242-.061-.432-.053-.429-.045-.6-.045-.262-.2-.42-.183a1.15 1.15 0 0 1 -.272-.009c-.07 0-.228-.219-.228-.219s-.053-.387.114-.308.131-.079.254.017.3-.158.412-.078a.763.763 0 0 0 .63-.114c.07-.106.271-.207.289-.143s.106-.077.106.213-.053.263.008.377.062.264.21.368.578.255.719.149.6 0 .6-.289.079-.412.044-.526-.219-.342-.236-.421.184-.387.078-.545.044-.114-.008-.377a1.777 1.777 0 0 1 .034-.65l.141-.4s.5-.43.3-.684.262-.264-.14-.378m-1.69 2.088c-.114.088-.219.053-.359.088s-.2-.017-.263.036a.705.705 0 0 1 -.28.061s.017-.1-.193 0-.464.105-.543.175-.157-.044-.184.114-.163.334-.182.167 0-.623 0-.623a1.106 1.106 0 0 1 .068-.42c.078-.184.175-.228.175-.29s.351-.044.385-.131.3.044.342 0 .22-.018.3-.031.237.012.421 0a.609.609 0 0 1 .342.092c.053.307-.026.351 0 .431s.063.017.018.175.069.07-.045.158m-1.62-8.675c-.148-.176-.341-.062-.446-.167s-.6-.009-.63 0a.494.494 0 0 1 -.517.141c-.385-.07-1.506.114-1.714.079s-.248.043-.388.008-.289.061-.342.061a1.031 1.031 0 0 1 -.438.07c-.209-.035-.148.228-.289.359s-.228.106-.63.342-.263.448-.254.5a.572.572 0 0 1 .07.439c-.079.22.254.974.271 1.026s.245 1.237.262 1.413.21.07.307.061.131.017.131.167a1.3 1.3 0 0 0 0 .368c.036.193.368.228.6.351s.184.027.306 0 .377-.008.552-.053a3.847 3.847 0 0 1 .894-.158 5.167 5.167 0 0 0 .954-.21c.245-.045.175-.176.228-.264a.841.841 0 0 0 .131-.453c.009-.242-.166-.1-.236-.152a3.675 3.675 0 0 0 -.78.025l-1.068.125c-.1.01-.114-.028-.377-.142s-.158.079-.28.123-.123.008-.237-.07.009-.106.035-.255-.025-.193-.017-.333a.733.733 0 0 0 -.148-.351s-.184-.473-.2-.535a.783.783 0 0 1 0-.2.6.6 0 0 1 .018-.1s-.018-.2-.026-.254-.053-.264-.061-.316 0-.272.078-.237.675-.272 1.322-.342a3.637 3.637 0 0 1 1.463.061.318.318 0 0 0 .254.062l.167.5s-.026.236-.132.211-.025.1-.114.078-.1 0-.166-.03a3.536 3.536 0 0 0 -.474 0 1.028 1.028 0 0 0 -.219 0 4.626 4.626 0 0 1 -.482.07c-.078-.017-.332.131-.49.1s-.29.1-.544.1a.822.822 0 0 0 -.473.193v.14l.053.306.2.233.123.048a1.122 1.122 0 0 0 .289.1 1.546 1.546 0 0 0 .385-.1c.131-.061.473-.078.823-.158a2.111 2.111 0 0 1 .753 0l.14.009v.28c0 .193.061 0 .184-.158s.044.131.044.131-.053.176-.053.2.061.061.106.088.035.027.253.07.14-.009.228-.088.167-.062.3-.2.088-.166.281-.526a1.212 1.212 0 0 0 .193-.64c0-.1.061-.1.078-.228s.07-.114.087-.324a1.629 1.629 0 0 0 .018-.29c0-.192-.036-.078-.062-.228a1.08 1.08 0 0 1 .009-.335c.009-.186.07-.112.1-.2s-.044-.106-.1-.211-.158-.158-.307-.333m3.567-4.887a3.414 3.414 0 0 1 -.675-.2.816.816 0 0 1 -.414-.211 2.187 2.187 0 0 0 -.7-.456c-.185-.043-.312-.312-.312-.312s-.067-.7-.481-.871-.438-.55-.506-.609-.205-.372-.269-.354c0 0-.219.126.11-.271s.616-.743.7-.853a4.3 4.3 0 0 0 .4-.55c.033-.1.219-.523.219-.523s.186-.068.194-.212.068-.507.068-.507a2.056 2.056 0 0 0 -.4-.236.839.839 0 0 0 -.329.051c-.11.051-.2.034-.236.11s-.035.034-.127.1-.253.153-.261.212-.084-.161-.068.144a.89.89 0 0 1 -.177.541c-.033.084-.354.38-.371.549s-.388.507-.447.66-.269-.051-.269-.051-.574-.38-.743-.287-.363.059-.388.11-.2-.071-.218.059a1.114 1.114 0 0 0 -.033-.428 1.526 1.526 0 0 1 -.046-.787 4.835 4.835 0 0 1 .19-.787 3.964 3.964 0 0 0 .1-.49s.181-.561.081-.733 0-.208-.037-.443.141-.109.066-.435.087-.426.087-.534a4.362 4.362 0 0 0 .064-.779c-.055-.017-.018.009-.073-.154s-.126-.263-.2-.19-.208-.18-.235.046a1.038 1.038 0 0 0 -.127.172c-.036.072-.316-.009-.4 0s-.28.1-.307.181-.063.054 0 .371-.151.47-.036.751-.132.9-.034 1.176a1.35 1.35 0 0 1 -.023.67c-.006.118-.141.525-.141.616a1.723 1.723 0 0 0 -.2.724c.027.38-.032.987 0 1.122s-.35 1.177-.323 1.575-.03.724 0 .842a7.233 7.233 0 0 0 -.08 1.113 2.879 2.879 0 0 1 -.117.914c0 .1-.543.669-.325.868a3.811 3.811 0 0 0 .6.4c.127.085.75.278.9 0a3.27 3.27 0 0 0 .281-.693c.009-.064-.018-.824-.018-.905s-.009-1.421.018-1.484a2.8 2.8 0 0 0 .1-.833c-.046-.172.072-.181.026-.389a1.237 1.237 0 0 1 0-.525 1.685 1.685 0 0 0 .109-.3s.006-.03.016-.067a.378.378 0 0 0 .1.075c.034.017-.042.161.3.2s.076.034.346.211a4.644 4.644 0 0 0 .43.271 2.369 2.369 0 0 1 .439.413c.025.035.944 1.2.979 1.259s.269.321.244.515a.6.6 0 0 0 .1.456c.076.085.43.389.667.371s.244.373.65.483.3.236.548.244.4.169.514.169a1.608 1.608 0 0 0 .7-.118c.127-.11.329-.135.3-.3s.283-.253 0-.524-.263-.33-.508-.355m-11.363 1.81c.108-.036.334-.027.442-.072a1.634 1.634 0 0 0 .344-.271 9.377 9.377 0 0 0 .876-.905c.1-.163.416-.453.488-.6a5.046 5.046 0 0 0 .253-.5 3.817 3.817 0 0 1 .29-.567c.036-.039.343-.718.388-.8a4.093 4.093 0 0 1 .46-.8 1.073 1.073 0 0 0 .262-.435c.009-.028.244-.145.262-.172a1.183 1.183 0 0 0 .09-.778c-.127-.263-.127-.308-.308-.308-.095 0-.215-.009-.322-.013l.033-.032s.118-.3.072-.4.009-.29-.181-.335-.334-.118-.523 0a4.383 4.383 0 0 1 -.443.244c-.2.1-.28.235-.479.217a4.46 4.46 0 0 1 -1.066-.525c-.388-.226-.515-.118-.632 0s-.29 0-.325.173-.271.154-.19.343.262.037.4.281a.793.793 0 0 0 .4.353 4.037 4.037 0 0 0 .859.317c.154 0 .281.154.587.063.283-.083.321-.165.439-.121a.493.493 0 0 1 0 .221 1.339 1.339 0 0 1 -.235.524 2.769 2.769 0 0 1 -.2.29c-.009.036-.155.054-.155.235a1.542 1.542 0 0 1 -.089.426s-.044 0-.089.163-.1.163-.119.262a.455.455 0 0 1 -.1.327c-.135.208-.244.308-.27.489s-.218.289-.271.452a3.413 3.413 0 0 1 -.37.543c-.018.037-.694.914-.8 1.041s-.443.289-.353.389.207.026.27.1.2.208.308.171m25.568-34.389c-.084.015-.131-.015-.239.069a1.169 1.169 0 0 1 -.331.14c-.054.022-.108 0-.232.03s-.339.015-.439.1a.338.338 0 0 1 -.269.039s-.455.046-.432.378.007.286.215.494.37.166.425.311-.155.153.154.169a4.454 4.454 0 0 0 .787-.07c.146-.015.439-.147.508-.147h.345a1.483 1.483 0 0 0 .434-.617.662.662 0 0 0 -.177-.642c-.109-.108-.178-.254-.316-.254a4.052 4.052 0 0 0 -.432 0m-17.395 62.883a2.054 2.054 0 0 0 -.518 0c-.063.036-.03-.047-.217 0a.644.644 0 0 1 -.329 0s.329 0 .1-.481.142-.792-.022-1.033a.953.953 0 0 0 -.526-.417c-.11 0 .151-.6-.566-.077s-.729.484-.717.572.022.033.055.175.1-.044.079.264.024.33 0 .44-.129-.021 0 .187a.815.815 0 0 1 .108.45.24.24 0 0 0 0 .187.371.371 0 0 1 -.01.275c-.023.032-.045.11-.243.165s-.46.252-.625.131l-.165-.12a.584.584 0 0 0 .11-.638c-.176-.34-.2-.429-.384-.429s-.4-.11-.538.055-.34.144-.45.341-.153.11-.208.319-.142.286-.142.362-.087.022-.176.231a1.15 1.15 0 0 0 .154.912.762.762 0 0 0 .647.319c.231-.032.263-.032.363.066s.142.1.2 0 .252 0 .307 0a2.729 2.729 0 0 0 1-.209 8.581 8.581 0 0 0 .954-.55 1.23 1.23 0 0 1 .878-.385c.3.022.351.154.559-.033a1.754 1.754 0 0 0 .428-.759c0-.11-.021-.314-.1-.322m2.206.882c0-.275-.121-.252-.187-.681s-.175-.1-.23-.352-.077-.319-.121-.56a2.1 2.1 0 0 0 -.242-.55c-.076-.176-.285.055-.548-.165a.531.531 0 0 0 -.636.044c-.034.033-.1.242-.231.286s-.154.088-.263.362.165.341.2.417l.011.055a1.938 1.938 0 0 0 .231.262c.164.162.044.431.044.541s.032.309.066.847a1.079 1.079 0 0 0 .449.8c.1.131.165.12.308.214s.262.027.372-.005.264.021.329 0a.763.763 0 0 0 .329-.22c.187-.176.208-.2.286-.726s-.165-.3-.165-.571m-10.138-14.526a1.242 1.242 0 0 1 -.184.289 1.432 1.432 0 0 1 .1.106c.026.035.123.175.2.272s.29.061.429.061.176-.008.394-.167.193-.017.22.027.061.079.114.158a.519.519 0 0 0 .464.211 1.193 1.193 0 0 0 .341-.044 1.083 1.083 0 0 0 .237-.1.536.536 0 0 0 .21-.211c.1-.15.131-.1.192-.114s.184.061.245 0 .167 0 .21 0a4.338 4.338 0 0 0 .779-.088c.473-.088.14-.009.342-.264s.131-.114.184-.35-.026-.114-.114-.317-.49-.052-.586-.07a1.318 1.318 0 0 1 -.271-.052c-.044-.026-.167-.07-.193-.123s-.219.114-.219.114h-.2c-.036 0-.342.167-.447.123s-.341.281-.565.272a.645.645 0 0 0 -.52.2s-.009.088-.114.017 0 0-.026-.088a.367.367 0 0 1 -.017-.07.537.537 0 0 1 .017-.211c.008-.061.07-.017.131-.052s.079 0 .079 0a.269.269 0 0 0 .184-.079c.069-.079.148-.008.219-.044s.123.009.193-.044.245-.017.35-.08.106 0 .2-.025a.318.318 0 0 0 .2-.123c.1-.1.271-.027.306-.044a.653.653 0 0 1 .184 0 1.3 1.3 0 0 0 .332-.036c.123-.035.123-.008.193-.044s.184-.008.3-.184.026-.1.158-.447.026-.377.026-.526.1-.167.131-.526-.026-.263.009-.693a3.834 3.834 0 0 1 .14-.842c.087-.368-.158-.316-.228-.439s-.114-.052-.21-.2-.079 0-.114-.069-.307.052-.377.008-.236.1-.342.017-.271.184-.342.106-.85.253-1.025.158-.788.245-.945.3a1.461 1.461 0 0 1 -.544.088c-.166-.017-.114.158-.376.333s.087.518.087.518 0 .1-.035.438.1.237.122.667a15.478 15.478 0 0 1 -.184 1.746 3.223 3.223 0 0 1 -.044.544m1.318-3.113c.026-.053.1-.289.1-.289a.848.848 0 0 1 .157-.123 1.377 1.377 0 0 0 .2-.175s.12.175.423.035.382-.167.488-.035.114.1.149.1.14-.008.184.053a2.5 2.5 0 0 1 .07.509.414.414 0 0 0 -.044.316c.034.219-.061.211-.053.421s.052.333 0 .36-.008-.009-.131.035-.245 0-.3.053-.14-.017-.245.079-.421.1-.434.131-.083-.027-.152.044a.275.275 0 0 1 -.176.07h-.061s-.114-.1-.114-.123-.07-.8-.061-1.017a3.148 3.148 0 0 1 0-.439m1.508 9.36c.231.219.208.329.394.2a2.124 2.124 0 0 1 .352-.231c.154-.076.142.4.406-.2s1.043-1.286 1.24-1.693.263-.351.3-.648.131-.571 0-.637-.121-.461-.362-.186c-.188.214-.45.01-.538.131s-.329.066-.374.187-.12.055-.164.241-.143.11-.143.286.11-.033 0 .319a1.375 1.375 0 0 1 -.3.527c-.077.121-.11.044-.286.254s-.461.329-.505.6-.318.44-.339.527-.274.155-.121.242.208-.143.439.077m-11.194-52.41c.08-.208.449-.473.091-.508s-.46-.138-.749.057.369-.346.369-.346a2.752 2.752 0 0 0 -.991.486 5.6 5.6 0 0 1 -1.349.716c-.1.046-1.164-.023-1.5.2a2.169 2.169 0 0 1 -.83.271 2.467 2.467 0 0 0 -.818.133 3.554 3.554 0 0 1 -.957.162h-.079s-.3-.093-.242.266-.185.508.046.692.276.5.738.393a2.288 2.288 0 0 0 .738-.254c.115-.069 1.936-.416 1.936-.416a1.481 1.481 0 0 0 .771-.149 3.615 3.615 0 0 1 .8-.231 16.951 16.951 0 0 0 2.029-1.466m-20.796-9.526c-.078-.171-.2-.078-.3-.184s-.156-.21-.091-.328.42-.657.222-.866-.262-.394-.458-.342c-.083.023-.156-.048-.224-.1.559-.24 1.845-.8 2.57-1.2a11.261 11.261 0 0 1 1.428-.814c.3-.065 1.1-.276.511-1.156 0 0-.288-.354-1.009-.053s-.1.487-1.521 1.13-3.657 1.746-3.657 1.746-1.075.341-1.036.657-.367.539.393.5a7.057 7.057 0 0 0 2.045-.7c-.171.42-.3.854-.3.854l-.034.061a18.585 18.585 0 0 1 -1.2 1.987c-.289.3-.642.591-.7.84s-.278.552-.284.814-.228.775.152.84.8.276 1.22-.433.957-1.917 1.14-2.3a5.43 5.43 0 0 1 .393-.683s.445.21.576.092.236-.2.157-.368m-2.356-7.519c.014-.315-.927-.751-.927-.751a5.381 5.381 0 0 1 -1.611-.383 5.492 5.492 0 0 1 -1.744-1.2c-.3-.342-.287-.424-.668-.4s-.355.738-.246 1.011.491.3.846.724a6.467 6.467 0 0 0 1.473 1.046 6.929 6.929 0 0 0 .941.184 8.728 8.728 0 0 1 1.118.574c.423.218.805-.492.818-.806m-3.191 6.489a11.9 11.9 0 0 0 -1.063-.873c-.1-.069-.641-.41-.641-.41a3.9 3.9 0 0 0 -1.745-.765c-1.037-.164-2.033-.4-2.388-.4a2.276 2.276 0 0 1 -1.241-.314c-.273-.232-.886-.451-1.131-.246s-.533.519-.246.889-.2.492.45.546 1.432.055 1.473.055a8.139 8.139 0 0 1 2.673.423 5.983 5.983 0 0 1 1.513 1 .987.987 0 0 1 .491.328c.3.287.491.26.682.574a3.137 3.137 0 0 0 .723.82c.314.26.656.56 1 .437s.45-.164.491-.437.2-.492-.082-.779-.64-.533-.954-.847m10.921 3.276a1.812 1.812 0 0 0 .642.233.723.723 0 0 0 .577-.251c.074-.141.242-.365.186-.5s-.446-.308-.549-.317-.559-.1-.559-.1a4.994 4.994 0 0 1 -1.5-.318 2.825 2.825 0 0 0 -1.126-.382.894.894 0 0 0 -.382.522.767.767 0 0 0 .159.736 2.763 2.763 0 0 1 .372.309.222.222 0 0 1 -.289.112c-.168-.075-1.75-.41-1.75-.41s-.5-.345-.772-.019-.168.338-.13.449-.15.232-.173.27a.5.5 0 0 0 .265.382c.2.1.783-.018.987 0a8.216 8.216 0 0 1 .83.2s.269 0 .269.065-.214.615-.568.727a4.67 4.67 0 0 1 -1.024.215c-.2 0-.829-.038-.875.083s-.214.047-.149.2.214.093.214.251.148.345.437.383a2.174 2.174 0 0 0 .819 0c.438-.065.987-.15.987-.15s.205.038.252-.018.251.27.419.41a1.436 1.436 0 0 1 .382.41 4.608 4.608 0 0 0 .437 1.493c.27.326.307.391.6.4a1.289 1.289 0 0 0 .606-.066 1.8 1.8 0 0 0 .224-.494c0-.065.177-.074-.075-.765a6.043 6.043 0 0 0 -.931-1.885c-.3-.242-.549-.373-.587-.438s-.093-.309.093-.262a1.563 1.563 0 0 1 .568.336c.065.083 1.164.923 1.415.83s.839.094.875-.335.391-.487 0-.771-.568-.629-1.052-.694a2.194 2.194 0 0 1 -.773-.251c-.084-.029-.261-.2-.252-.233s.261-.242.261-.345.465-.14.642 0m45.712 4.557s.047.394.054.5.077.095.123.125a.61.61 0 0 0 .247.069c.093.008.162-.03.324-.123s.108-.138.253-.617 0-.047 0-.14.04-.03.07-.138.131-.131.146-.209a1.754 1.754 0 0 0 .031-.347c.008-.224.008-.093.016-.256s0 0 .039-.147.115-.061.192-.192.254-.185.278-.463-.007-.039-.123-.256-.1-.123-.355-.347a.328.328 0 0 0 -.454-.054 3.748 3.748 0 0 1 -.455.216c-.18.052-.167.308-.158.4v.033s.032.073-.022.112.084.263.077.463a4.39 4.39 0 0 1 -.247.873c-.162.532-.039.494-.039.494m-29.141 5.389a2.61 2.61 0 0 1 .808-.419c.028 0 .085.009.295.133a.8.8 0 0 0 .476.1c.1 0 .028-.2.465-.057a5.8 5.8 0 0 1 .866.3c.028.048.114.2.228.19s-.371.866-.637 1.152-1.568 1.362-1.6 1.41-.162.171-.7.276-1.114.009-1.1.153.23.152.306.152.418 0 .151.115-.561-.076-.371.19-.028.257.314.314.133.115.552.115a5.546 5.546 0 0 0 1.407-.162 3.893 3.893 0 0 0 1.028-.724c.162-.191 1.055-.9 1.188-1.257s.609-.848.628-.981a.843.843 0 0 1 .133-.3s.341.009.4.086.18-.029.57.086.542.133.656.334a.686.686 0 0 0 .3.3 1.674 1.674 0 0 0 .371.009s.371-.429.371-.638-.486-.7-.8-.952a1.494 1.494 0 0 0 -.875-.486 2.224 2.224 0 0 1 -.827-.372 3.779 3.779 0 0 1 -.77-.133 1.407 1.407 0 0 0 -.609-.305 4.533 4.533 0 0 1 -.513 0c-.162-.018-.6.07-.371-.432s.657-.54.533-.93a1.875 1.875 0 0 0 -.57-.737s-.524-.235-.837.051-.381.171-.428.533a1.716 1.716 0 0 1 -.381.886c-.133.105-.769.533-.856.591s-1.521.676-1.483 1.1.323.429.323.429-.114.181.314.171a1.432 1.432 0 0 0 1.046-.285m-30.449-17.628a2.217 2.217 0 0 1 .463.273 5.146 5.146 0 0 0 1.351.492 8.645 8.645 0 0 1 .954.4c.572.2.682-.178.8-.519s-.055-.274-.41-.642a1.367 1.367 0 0 0 -1.022-.355 1.8 1.8 0 0 1 -.56-.123 4.252 4.252 0 0 1 -.94-.573c-.232-.178-.478-.041-.764.328s.123.724.123.724m23.264 12.884c.1-.219-.011-.519-.161-.519a12.284 12.284 0 0 0 -1.407.139c-.553.093-2.593.324-2.593.324s-.276.046-.231-.151a.63.63 0 0 1 .22-.323 4.468 4.468 0 0 0 .6-.763c.058-.184.392-.98.473-1.131s.738-1.2.934-1.462.426-.235.438-.489.3-.819-.323-.878c0 0-.565-.658-.887 0s-.922 2.078-1.141 2.459-1.267 1.7-1.267 1.7a13.934 13.934 0 0 0 -1.291 1.154c-.231.3-.415.543-.173.808a1.743 1.743 0 0 0 .46.37.712.712 0 0 0 .807.127 4.225 4.225 0 0 1 1.153-.231 22.67 22.67 0 0 0 2.836-.635c.611-.219 1.452-.277 1.555-.5m-6.781-6.878c.121-.065.148-.13.27-.149s1.433-.326 1.554-.559.317-.25.149-.7-.112-.471-.27-.644-.54-.266-.679-.378-1.136-.783-1.286-.9a4.525 4.525 0 0 0 -1.108-.345c-.148-.019-.446-.28-.586-.289s-.475-.215-.577-.2-.186-.114-.391 0-.363.048-.372.253.018.466-.1.522c0 0-.475-.2-.6 0s-.205.065-.27.391-.186.616-.186.663-.093.242-.139.438a.527.527 0 0 1 -.205.318c-.083.083-.139-.065-.177.214s-.2.17-.084.467-.027.364.252.438.565.159.71.083.183-.158.425-.121a11.865 11.865 0 0 1 1.3.354 6.5 6.5 0 0 1 1.164.5.294.294 0 0 0 .224.28c.2.047.708.047.819-.233s.047-.336.168-.4m-.249-1.044a1.836 1.836 0 0 0 -.456.084 2.11 2.11 0 0 1 -.512.055 3.052 3.052 0 0 1 -.763-.223c-.065-.038-.438-.112-.68-.233a3.6 3.6 0 0 0 -.9-.168s-.084-.075 0-.112.186-.4.2-.495a4.408 4.408 0 0 1 .233-.513c.074-.158-.056-.167-.112-.261s-.2-.28-.2-.28c-.059-.08.269.1.354.206s.224.028.577.074a10.59 10.59 0 0 1 1.09.261.992.992 0 0 1 .521.262 4.717 4.717 0 0 0 .475.457 3.3 3.3 0 0 0 .913.438l-.093.21a2.568 2.568 0 0 1 -.652.238" fill="#fff"/></g><g clip-path="url(#b)" fill="#fff" transform="translate(7)"><path d="m36.521 14.389c-.155-.155-.317-.35-.272-.562a.4.4 0 0 0 .027-.177c-.032-.129-.25-.167-.25-.3a.216.216 0 0 0 .1-.206 2.965 2.965 0 0 1 -1.566-.78.234.234 0 0 1 -.081-.125.241.241 0 0 1 .072-.171l.357-.454a13.643 13.643 0 0 1 -3.315.1c-.138-.013-.324-.1-.267-.224-.617.281-1.413-.19-2 .138a2.324 2.324 0 0 0 -.486.44c-.36.363-.824.617-1.176.987a1.223 1.223 0 0 0 -.329 1.376c-.2.01-.438.042-.524.218-.105.215.1.443.286.6a13.093 13.093 0 0 1 1.446 1.451.51.51 0 0 0 .193.163c.072.027.152.021.226.043.272.081.314.48.577.587.187.077.4-.029.6-.038a2.082 2.082 0 0 1 .6.137.58.58 0 0 0 .581-.1c.058-.066.088-.153.149-.215.184-.186.5-.061.73.072a.14.14 0 0 1 -.051.216c.305.03.55-.22.793-.4a3.727 3.727 0 0 1 2.832-.383c.241-.308.867.117 1.118-.184.028-.034.049-.075.089-.095a.2.2 0 0 1 .111-.008l.435.051a.23.23 0 0 0 .179-.028c.145-.127-.185-.33-.13-.511.037-.12.212-.13.332-.083s.24.131.362.093c-.014-.341-.425-.5-.666-.685a10.77 10.77 0 0 1 -1.084-.943" transform="translate(-22.454 -9.689)"/><path d="m37.652 46.823c-.008.091-.133.137-.218.1a.287.287 0 0 1 -.143-.224l-1.845 1.577a3.712 3.712 0 0 0 -.906.986 1.215 1.215 0 0 0 0 1.263c.206.289.589.478.656.824.042.219-.059.46.037.663a.56.56 0 0 0 .31.259 1.006 1.006 0 0 0 .789-.025 1.466 1.466 0 0 1 -.557.933 11.317 11.317 0 0 0 -1.461 1.833.374.374 0 0 0 -.079.208.379.379 0 0 0 .049.148l.223.452a.2.2 0 0 0 .07.092c.067.039.151 0 .216-.047 1.471-.978 2.7-2.253 4.077-3.354.7-.562 1.442-1.077 2.18-1.593a1.3 1.3 0 0 1 .367-.2 2.215 2.215 0 0 1 .324-.05 1.625 1.625 0 0 0 .775-.326.2.2 0 0 0 .084-.109c.017-.085-.071-.152-.146-.2a3.407 3.407 0 0 1 -1.439-1.876.247.247 0 0 0 -.076-.138.235.235 0 0 0 -.127-.033c-.369-.02-.739.081-1.106.039a2.847 2.847 0 0 1 -.517-.126l-1.289-.399a.512.512 0 0 1 .485-.217 2.026 2.026 0 0 0 .563 0 .227.227 0 0 0 .149-.1.184.184 0 0 0 -.086-.227.574.574 0 0 0 -.262-.063 2.417 2.417 0 0 1 1.006-.9l-1.146.279a1.191 1.191 0 0 1 .521-.283 7.936 7.936 0 0 0 1.65-.814l-2.2.884a1.113 1.113 0 0 0 -.687.516c.123-.168.183-.323-.086-.192-.086.042-.225.117-.234.218-.008.081.085.146.077.23" transform="translate(-28.708 -38.099)"/><path d="m4.068 105.928a1.68 1.68 0 0 0 -.78.2c-.149.108-.244.276-.4.375-.327.208-.788.039-1.14.2a1.253 1.253 0 0 0 -.407.365l-.678.817a2.076 2.076 0 0 0 -.657 1.42.594.594 0 0 0 .14.352c.2.216.55.177.847.206a3.087 3.087 0 0 1 2 1.6.432.432 0 0 0 -.375-.168 3.544 3.544 0 0 0 2.231.932c.251.012.61.125.528.356a.821.821 0 0 0 .822-.015c.129-.08.23-.2.353-.283a2.131 2.131 0 0 1 .626-.264 20.577 20.577 0 0 0 2.792-1.085 3.3 3.3 0 0 1 -1.162.124c-.1-.033.025-.173.133-.188l4.282-.577.816-.11 3.671-.494-.15-.283q.867-.343 1.744-.661l-.357-.105c.016-.152.213-.2.369-.225a6.458 6.458 0 0 0 1.794-.508 1.075 1.075 0 0 0 -.99-.52l.21-.2a.928.928 0 0 1 -.15-.63l-2.6.36a.508.508 0 0 1 -.011-.336.389.389 0 0 1 -.238.209.168.168 0 0 1 -.091-.189l.856-.06a2.042 2.042 0 0 0 -1.494.333.5.5 0 0 0 .063.334 2.7 2.7 0 0 0 -1.509-.169l.57.087c-.762.368-1.694.182-2.495.462-.545.191-1.14.594-1.641.312.018-.246.358-.319.61-.286s.56.081.716-.114l-1.064-.08c.034-.22.313-.3.54-.334l2.23-.326-2.475.089 4.634-.74-8.376.823a2.94 2.94 0 0 1 -1.646-.154 8.91 8.91 0 0 1 -1-.8c-.3-.215-.785-.173-1.028-.427a.824.824 0 0 1 -.664.379" transform="translate(0 -89.032)"/><path d="m145.728 88.99a.422.422 0 0 0 -.08.108.277.277 0 0 0 .08-.108" transform="translate(-122.149 -75.064)"/><path d="m150.1 70.938a2.144 2.144 0 0 0 -.412.922 2.77 2.77 0 0 1 .412-.922" transform="translate(-125.536 -59.837)"/><path d="m170.189 26.62a12.35 12.35 0 0 1 -2.562-.812q-1.563-.624-3.125-1.251a7.792 7.792 0 0 1 -1.388-.67 5.536 5.536 0 0 1 -1.114-1.012 2.148 2.148 0 0 1 .832-.18 5.273 5.273 0 0 1 1.742.372q.019-.33.037-.66l2.574-.53q.015-.161.031-.321h.407a1.2 1.2 0 0 0 .012-.741c-.028-.251.08-.575.34-.587-.549-.252-.823-.963-1.423-1.063-.2-.033-.474-.044-.5-.237a2.305 2.305 0 0 1 -.684.383l-1.33.557c-.1.04-.223.075-.293 0-.514.571-1.578.31-2.129.847-.222.216-.426.577-.729.5-.219-.059-.3-.33-.267-.549a2.422 2.422 0 0 0 .09-.654.527.527 0 0 1 -.015-.23.381.381 0 0 1 .193-.188l2.006-1.176c.2-.114.415-.271.408-.492a2.058 2.058 0 0 1 -1.825-.553l.262-.325a.569.569 0 0 1 -.4-.448 2.055 2.055 0 0 1 .783.438.334.334 0 0 0 .185.108c.182.013.221-.238.25-.412.074-.444.5-.737.815-1.063a1.169 1.169 0 0 0 .371-.659c.033-.3-.067-.7.218-.813a.3.3 0 0 1 -.162-.309 3.046 3.046 0 0 1 -.644.208c0-.013.01-.027.014-.041a.864.864 0 0 0 -.2-.648 1.351 1.351 0 0 0 .013-.442.766.766 0 0 1 -.014-.282.2.2 0 0 1 .2-.165l.188 1.206a1.457 1.457 0 0 0 .1-1.156c-.06-.394-.01-.893.369-1.049a.4.4 0 0 0 .169-.091c.138-.169-.211-.363-.2-.578a.373.373 0 0 1 .1-.2l.656-.8a.992.992 0 0 0 .263-.477c.042-.329-.252-.6-.542-.781a4.073 4.073 0 0 0 -1.776-.576.582.582 0 0 1 -.326-.089.71.71 0 0 1 -.143-.206.97.97 0 0 0 -.893-.456 2.081 2.081 0 0 1 -.718.063c-.292-.082-.495-.422-.8-.39a.845.845 0 0 0 -.231.075c-.95.394-2.106.072-3.032.516a2.739 2.739 0 0 0 -.625.432 8.118 8.118 0 0 0 -1.739 2.5 1.053 1.053 0 0 1 -.295.406.4.4 0 0 1 -.409.041c-.026-.239 0-.549-.018-.7a1.728 1.728 0 0 0 -.2-.793 6.981 6.981 0 0 0 -.489-.532.548.548 0 0 1 -.086-.658 4.157 4.157 0 0 0 -2.772 1.327 8.388 8.388 0 0 0 -1.619 2.624l.218-.29c.113.15-.07.334-.2.47-.5.514-.359 1.393-.833 1.926a5.492 5.492 0 0 1 -.424.374 3.61 3.61 0 0 0 -.57.735l-.884 1.372c-.041.063-.081.126-.121.19.061-.087.123-.173.186-.258l1.449-1.963c-.021 1.119-1.46 1.762-1.7 2.858-.038.176-.151.423-.318.345-.047-.022-.078-.068-.124-.092a.214.214 0 0 0 -.276.136.58.58 0 0 0 .017.336l.18.712c-.118.061-.277-.084-.223-.2-.192.06-.213.314-.179.507a.83.83 0 0 1 0 .445.433.433 0 0 1 .127-.088l-.479.887.281-.184a15.557 15.557 0 0 1 .151 1.9 1.973 1.973 0 0 0 .672-.71.657.657 0 0 0 .815-.289 3.657 3.657 0 0 0 .308-.88 2.377 2.377 0 0 1 .827-1.145.648.648 0 0 0 .246-.256c.059-.157-.034-.325-.09-.484s-.043-.382.12-.436a.268.268 0 0 1 .306.168.729.729 0 0 1 .02.372l-.272-.263a3.293 3.293 0 0 1 .157 1.093 4.3 4.3 0 0 0 .015 1.367 1.549 1.549 0 0 1 -.489.152l.031-1.22a6.556 6.556 0 0 0 -.436 3.226 1.4 1.4 0 0 0 .253.743.97.97 0 0 0 .25.21.873.873 0 0 0 .085.3 1.919 1.919 0 0 0 .289.318.378.378 0 0 1 .112.387l-.164-.211a.91.91 0 0 1 .138.394l-.8-.888.63 1.018a2.214 2.214 0 0 1 .293.6 2.184 2.184 0 0 1 .048.487l.021.953a.56.56 0 0 1 -.12.443c-.036.032-.082.059-.095.105a.172.172 0 0 0 .047.137 7.947 7.947 0 0 0 .569.7 1.043 1.043 0 0 0 .277.237 1.145 1.145 0 0 0 .416.1 5.356 5.356 0 0 1 2.4.618 7.639 7.639 0 0 0 1.382.974.617.617 0 0 0 -.159-.643 6.072 6.072 0 0 1 -.486-.513 1.847 1.847 0 0 1 -.231-.627 6.963 6.963 0 0 1 -.243-3.158.842.842 0 0 0 .462.295 2.545 2.545 0 0 1 -.455-1.213q.365.09.733.167c.1.022.243.027.284-.069.051-.12-.115-.211-.242-.254-.2-.065-.4-.193-.424-.392a.937.937 0 0 1 .133-.433.4.4 0 0 0 0-.337 1.114 1.114 0 0 0 .161-.264.442.442 0 0 0 .043-.207.569.569 0 0 0 -.166-.3l-1.033-1.2a.913.913 0 0 1 -.164-.237 1.343 1.343 0 0 1 -.061-.33 2.73 2.73 0 0 0 -.376-.921 3.065 3.065 0 0 1 -.536-1.645 3.942 3.942 0 0 0 .132-1.3l-1.422.377a.131.131 0 0 1 -.014-.219.138.138 0 0 1 .2.1l.595-1.4a.575.575 0 0 1 .166-.253 1.112 1.112 0 0 1 .412-.11c.4-.1.6-.5.814-.84a7.831 7.831 0 0 1 .848-1.055c.428-.474.975-.994 1.618-.9l.074.011a1.744 1.744 0 0 1 -.01.322.651.651 0 0 1 -.094.289c-.049.071-.12.126-.167.2a.4.4 0 0 0 .289.592 2 2 0 0 1 .261-.453 1.843 1.843 0 0 0 .751.952c-.021-.173-.177-.294-.288-.432s-.161-.37-.008-.462c.043.375.566.484.791.792.081.11.121.244.192.36a1.564 1.564 0 0 0 .555.469q.8.481 1.611.939c.022.05.044.1.07.148a1.008 1.008 0 0 1 .188.6.465.465 0 0 1 -.031.1 1.771 1.771 0 0 0 -.715.239 3.335 3.335 0 0 1 -.9.6c-.788.247-2 .472-1.4 1.51l.71 1.224a.847.847 0 0 0 .262.317.305.305 0 0 0 .385-.031l.078-.278a.942.942 0 0 0 .879.312.129.129 0 0 1 .108-.152c.062.232-.111.455-.272.636l-.648.725a1.745 1.745 0 0 1 -.6.493 2.858 2.858 0 0 1 -.741.123 2.443 2.443 0 0 0 -1 .361c.543.3.031 1.315.557 1.643l-.39-.046a8.548 8.548 0 0 0 2.388.824 1.764 1.764 0 0 1 .247.057 2.106 2.106 0 0 1 .249.114.227.227 0 0 0 .056.151c.064.073.158.125.193.215a.374.374 0 0 1 -.087.334 2.439 2.439 0 0 1 -1.532.99 1.029 1.029 0 0 1 -1.069-.307 4.411 4.411 0 0 1 -.188-.453 1.628 1.628 0 0 0 -1.182-.688 1.411 1.411 0 0 1 .461.772 2.722 2.722 0 0 0 .07.332 2.029 2.029 0 0 1 .115.306 1.493 1.493 0 0 1 -.007.306.951.951 0 0 0 .826.931.241.241 0 0 0 .186.26.742.742 0 0 0 .355-.012l.951-.19a3.039 3.039 0 0 0 .424-.106 3 3 0 0 0 .341-.155l.516-.261a7.22 7.22 0 0 0 .8-.446 3.974 3.974 0 0 0 1.66-3.055c.068 0 .137.005.207.01v.024a1.584 1.584 0 0 0 .093.649 2 2 0 0 0 .927.788 7.492 7.492 0 0 1 1.084.764 7.585 7.585 0 0 0 .8.646 5.124 5.124 0 0 0 .993.449l1.168.432a2.6 2.6 0 0 0 1.441.236.515.515 0 0 0 .178.17.182.182 0 0 0 .226-.044.246.246 0 0 0 .026-.136q0-.278 0-.556c.055.107.217.1.327.049a1.4 1.4 0 0 1 .322-.171c.084-.018.172 0 .258-.011s.178-.066.18-.149a2.208 2.208 0 0 0 .648.053 1 1 0 0 1 -.063-.336 1.463 1.463 0 0 1 .8-.119l-.18-.894a1.889 1.889 0 0 0 1.237.005m-13.17-16.235.523-1.326a.608.608 0 0 1 .242-.343.645.645 0 0 1 .448 0l.891.215a.248.248 0 0 1 .141.068.234.234 0 0 1 .022.188 16.021 16.021 0 0 0 -.177 3.817l-.223.48a.42.42 0 0 1 -.212.248.4.4 0 0 1 -.345-.1 2.079 2.079 0 0 1 -.4-.377.514.514 0 0 0 -.148-.144.236.236 0 0 0 -.052-.019 1.94 1.94 0 0 1 -.059-.388c-.026-.535.137-1.16-.249-1.543-.171-.169-.446-.287-.465-.523a.582.582 0 0 1 .058-.255" transform="translate(-120.738 -5.853)"/><path d="m343.536 97.313.05.016a.1.1 0 0 0 -.05-.016" transform="translate(-288.11 -82.085)"/><path d="m410.914 120.471a.047.047 0 0 0 -.022-.021c-.01.013-.021.025-.031.038-.018.036.07.019.052-.017" transform="translate(-344.571 -101.601)"/><path d="m330.869 48.806a2.864 2.864 0 0 0 1.464-1.422.66.66 0 0 0 -.4-.157l.326-.383c-.357.235-.839-.2-1.253-.084-.481.136-.509.88-.954 1.079.077 0 .136.166.044.218-.109.061-.244-.009-.347-.079l-.168.455a2.762 2.762 0 0 0 -1.658.738c-.133-.166-.4-.069-.589.04l-1.4.824a1.422 1.422 0 0 1 -.616.243.48.48 0 0 1 -.514-.326.151.151 0 0 1 .081-.226l.347.03a.611.611 0 0 0 .193-.349.464.464 0 0 1 .229-.321c.128-.051.312.078.247.2a8.817 8.817 0 0 0 .874-1.725.35.35 0 0 0 .423-.209 1.159 1.159 0 0 0 .05-.506 3.477 3.477 0 0 1 .276-1.444c-.2-.47.051-.995.125-1.5a4.556 4.556 0 0 0 -.047-1.207 13.575 13.575 0 0 1 -.18-2.764 2.184 2.184 0 0 0 -.211-1.659 1.9 1.9 0 0 0 -1.019-.865c-.22-.048-.482-.015-.638-.173a1.285 1.285 0 0 1 -.174-.32 1.2 1.2 0 0 0 -.77-.494 4.927 4.927 0 0 0 -2.741.02 1.776 1.776 0 0 0 -1.274.228 1.3 1.3 0 0 1 -1.174-.086l.142.339c-.291.038-.3.44-.236.717a11.933 11.933 0 0 0 .913 2.731 23.5 23.5 0 0 0 1.76 2.507 4.927 4.927 0 0 1 1.078 2.8 6.2 6.2 0 0 0 -.025 1.892l-1.6-.783a4.48 4.48 0 0 0 -2.27-.644.568.568 0 0 1 -.438-.069c-.1-.089-.018-.286.088-.283l-1.024-.329a.808.808 0 0 0 -.384-.057.794.794 0 0 0 -.3.151l-1.092.758a2.8 2.8 0 0 0 -.442.354 2.706 2.706 0 0 0 -.518.983l-.86 2.383a1.318 1.318 0 0 0 -.116.69 1.34 1.34 0 0 0 .3.534 6.757 6.757 0 0 0 1.877 1.851c.38.216.8.359 1.181.572a5.94 5.94 0 0 0 1.788.95 1.664 1.664 0 0 0 1.479-.511l1.206-.283c.053.015.106.029.16.042a1.026 1.026 0 0 0 .714-.032 1.374 1.374 0 0 1 .242-.131 2.975 2.975 0 0 1 .362-.021.831.831 0 0 0 .295-.134l.63-.393a.356.356 0 0 0 .114-.1.816.816 0 0 0 .06-.233.615.615 0 0 1 .31-.307c.584-.348 1.168-.7 1.769-1.017a.319.319 0 0 0 -.015-.133l.746-.407-.483-.027a6.071 6.071 0 0 1 2.813-1.54.143.143 0 0 1 .09 0 2.789 2.789 0 0 1 1.136-.606m-8.871 1.204c-.008-.02-.014-.041-.023-.061-.38-.91-1.506-1.5-1.543-2.482a2.933 2.933 0 0 1 1.342 1.241c.159.289.27.61.431.9a2.415 2.415 0 0 1 -.207.402" transform="translate(-263.412 -30.563)"/><path d="m412.8 110.39a.063.063 0 0 0 -.043.017z" transform="translate(-346.163 -93.116)"/><path d="m414.219 79.585a1.335 1.335 0 0 0 -.09-.492 2.424 2.424 0 0 0 -.225-.238 1.261 1.261 0 0 1 -.134-.835 3.957 3.957 0 0 0 -.4-1.509c-.357-.853-.745-1.693-1.133-2.533l-.686-1.484a7.224 7.224 0 0 0 -.7-1.413c-.346-.441-.975-.31-1.46-.428-.21-.051-.4-.155-.616-.2a2.191 2.191 0 0 0 -.691 0q-.529.06-1.056.137a.687.687 0 0 0 -.277.082 1.28 1.28 0 0 0 -.25.3.293.293 0 0 1 -.344.113 1.341 1.341 0 0 1 -.177.663 1.3 1.3 0 0 0 -.006.86.218.218 0 0 0 .092.132.44.44 0 0 0 .173.018.288.288 0 0 1 .261.3 1.244 1.244 0 0 1 .962.524.262.262 0 0 0 .091.1.393.393 0 0 0 .179.009.67.67 0 0 1 .451.259 5.335 5.335 0 0 1 .668.772 5.6 5.6 0 0 1 .3.548 6.032 6.032 0 0 0 .793 1.256.392.392 0 0 1 .129.236.616.616 0 0 1 -.037.156c-.072.27.122.53.286.759s.309.538.152.772a4.12 4.12 0 0 0 -1.4-.251.665.665 0 0 0 -.74-.016.258.258 0 0 0 -.167-.149.674.674 0 0 0 .056.31 2.776 2.776 0 0 0 -.606-.192l.016.381-.3-.186c-.035.253.213.448.432.588l1.8 1.149a2.2 2.2 0 0 1 .343.252c.054.051.029.187-.025.136.246.249.7.1 1.011.257.389.2.484.823.921.861.226.019.443-.145.665-.1a.849.849 0 0 1 .271.131 2.5 2.5 0 0 0 1.123.357.644.644 0 0 0 .439-.089.69.69 0 0 0 .193-.3 3.307 3.307 0 0 0 .263-.859 1.115 1.115 0 0 0 -.217-.849c-.161.063-.317-.116-.347-.282" transform="translate(-340.421 -59.406)"/><path d="m503.653 7.994a.9.9 0 0 0 -.042.34c.034.139.174.225.263.339a2.122 2.122 0 0 1 .189.381c.2.4.651.646.865 1.043a1.377 1.377 0 0 0 0-.506 2.663 2.663 0 0 0 1.256.648 6.39 6.39 0 0 0 1.456.3 7.027 7.027 0 0 0 1.146-.06 2.685 2.685 0 0 0 .648-.124 2.6 2.6 0 0 0 1.166-1.155 5.214 5.214 0 0 1 -.68.44 1.166 1.166 0 0 1 .3-.358l.689-.627c-.1.054-.7.49-.758.252-.014-.059.375-.338.4-.514a.278.278 0 0 1 -.206.088l-.037-.205-.715.267a.8.8 0 0 1 -.3.069c-.468-.015-.6-.765-1.066-.815a.8.8 0 0 1 -.217-.024c-.194-.078-.143-.355-.217-.545a.534.534 0 0 0 -.372-.294 1.469 1.469 0 0 0 -.5-.018.71.71 0 0 1 -.315-.018c-.14-.054-.227-.192-.358-.263a.851.851 0 0 0 -.355-.075l-1.151-.075a1.828 1.828 0 0 1 -.914-.223 1.978 1.978 0 0 1 -.1.689c-.1.254-.311.508-.221.766.117.021.159.166.142.279" transform="translate(-422.257 -5.28)"/><path d="m501.428 139.9a1.652 1.652 0 0 0 -.213.234 1.751 1.751 0 0 0 .213-.234" transform="translate(-420.349 -118.004)"/><path d="m502.09 20.1a.152.152 0 0 0 .025-.078.3.3 0 0 0 -.04-.138 2.571 2.571 0 0 0 -.256-.444h.007a.447.447 0 0 0 -.181-.188.664.664 0 0 0 -.378-.164 1.216 1.216 0 0 1 -.314-.026.792.792 0 0 1 -.267-.224 1.516 1.516 0 0 0 -1.107-.387 5.342 5.342 0 0 0 -1.188.213 20 20 0 0 1 -3.481.541.759.759 0 0 1 .6-.458 8.578 8.578 0 0 0 -2.063.423.62.62 0 0 1 -.294.05 2.332 2.332 0 0 1 -.313-.134.911.911 0 0 0 -.51.051 6.533 6.533 0 0 1 -2.369.087q-.6-.059-1.191-.14-.243-.033-.484-.072a.987.987 0 0 0 .116-.311 3.074 3.074 0 0 0 0-.793 5.978 5.978 0 0 1 .054-1.291 2.723 2.723 0 0 0 .052-1.063 1.553 1.553 0 0 1 -.107-.5c.015-.169.185-.342.348-.28a.824.824 0 0 1 .355-.641 2.57 2.57 0 0 1 .693-.335l2.146-.785a2.409 2.409 0 0 0 -1.337.178l.356-.386-.252.008-.047-.34a3.693 3.693 0 0 0 -.979-.29c-.019-.233.34-.279.511-.445.2-.192.1-.515 0-.767a.348.348 0 0 1 -.263.128.29.29 0 0 0 -.135-.227c-.058-.036-.127-.052-.181-.093a.635.635 0 0 1 -.158-.254.908.908 0 0 0 -.489-.443 5.017 5.017 0 0 1 -.526-.164c-.163-.084-.292-.281-.207-.44a10.667 10.667 0 0 1 -2.467 1.041 1.51 1.51 0 0 0 .664.212.6.6 0 0 0 -.346.157.7.7 0 0 0 -.1.222 1.517 1.517 0 0 1 -1.078.931 8.761 8.761 0 0 1 -.874.081 1.053 1.053 0 0 0 -.759.374 1.476 1.476 0 0 0 -.073 1.042l-1.023.074c-.091.007-.2 0-.245-.075a.222.222 0 0 1 -.006-.154 6.568 6.568 0 0 1 .328-1.1.4.4 0 0 1 .2.228 4.385 4.385 0 0 1 .361-1.6 1.4 1.4 0 0 1 .157-.337c.075-.106.177-.19.261-.289l.016-.021 1.6-.1c.38-.024.828-.09 1-.42.147-.286.038-.7.309-.886a2.025 2.025 0 0 1 .27-.116 1.332 1.332 0 0 0 .359-.311 2.974 2.974 0 0 1 1.836-.887 2.5 2.5 0 0 0 -.6-.256 5.6 5.6 0 0 1 3.592-.689.334.334 0 0 1 -.274-.3l.984-.041a.242.242 0 0 1 -.238-.17q.853-.055 1.705-.127l-.7-.137a.435.435 0 0 0 -.355-.545c-.163-.019-.36.043-.472-.074-.046-.049-.064-.118-.112-.165a.377.377 0 0 0 -.343-.041 15.059 15.059 0 0 0 -2.407.724 1.828 1.828 0 0 1 -1.471.161l-.151.326a1.745 1.745 0 0 1 -.15-.308 1.431 1.431 0 0 1 -.82.387.765.765 0 0 0 -.352.085 1.441 1.441 0 0 0 -.193.216.515.515 0 0 1 -.558.112.487.487 0 0 1 -.29-.476 1.838 1.838 0 0 1 .833-.125 15.437 15.437 0 0 0 -1.938-.061 1.242 1.242 0 0 1 .913-.763l-.232.366a9.964 9.964 0 0 1 1.99-1.724l-.277.345a6.828 6.828 0 0 1 2.766-1.77 1.749 1.749 0 0 0 .928-.516.483.483 0 0 1 -.412-.35c-.053-.161.036-.4-.023-.539-.05-.114-.263-.212-.342-.34-.125-.205-.077-.548-.3-.692-.348-.223-1.068.2-1.429.262-.455.073-.909.051-1.362.162.108.162.352.14.551.131s.461.082.44.274l-.32.092a.364.364 0 0 1 -.053.562 1.041 1.041 0 0 1 -.646.141q-.013.2-.025.393a.789.789 0 0 0 .4.014c.031.083-.052.17-.14.194s-.183.012-.272.032a.724.724 0 0 0 -.379.31q-.746.983-1.434 2.006l.189-.114c.051.161-.1.312-.23.42l-1.069.865a1.319 1.319 0 0 1 -.392.247c-.35.119-.738-.061-1.1 0a3.9 3.9 0 0 1 -.383.077 1.512 1.512 0 0 1 -.6-.16 2.805 2.805 0 0 0 -1.4-.149c.056.08-.1.132-.2.131a1.149 1.149 0 0 0 -.758.4 5.09 5.09 0 0 0 -.99 1.354c-.144.288-.26.589-.376.889l-.03.079a1.6 1.6 0 0 0 -.143.582.553.553 0 0 0 .284.5.356.356 0 0 0 .492-.206 1.891 1.891 0 0 0 1.27.832 4.139 4.139 0 0 0 .961.074q.151 2.036.3 4.073a4.591 4.591 0 0 1 0 1.052c.048-.006.1-.015.144-.025a1.245 1.245 0 0 0 -.328.274c-.365-.287-.731-.574-1.083-.874a.53.53 0 0 1 .151-.657c.094-.07.226-.133.225-.248a1.311 1.311 0 0 1 -.221-.625 7.548 7.548 0 0 0 -.427-1.3 2.97 2.97 0 0 0 -.8-1.3 2.651 2.651 0 0 0 -.783-.393 4.516 4.516 0 0 0 -2.127-.293 1.153 1.153 0 0 1 -.287.022c-.073-.008-.143-.032-.216-.04a.958.958 0 0 0 -.736.42 2.685 2.685 0 0 0 -.794 1.315.289.289 0 0 1 -.03.111.351.351 0 0 1 -.16.107.668.668 0 0 0 -.3.3.163.163 0 0 0 -.023.1c.01.071.1.11.117.178.029.088-.058.172-.07.264-.017.128.111.226.224.3l.389.24a1.863 1.863 0 0 1 .495.388 2.539 2.539 0 0 0 .283.371c.258.222.655.16.99.244.493.124.922.587 1.417.47a.318.318 0 0 1 .123-.016c.114.019.141.162.207.254.12.167.37.159.58.161a4.6 4.6 0 0 1 .917.135.609.609 0 0 1 .194.066.588.588 0 0 1 .139.136 1.9 1.9 0 0 1 .525 1l-.091.036a.24.24 0 0 1 -.079-.165.754.754 0 0 0 -.32.346 22.4 22.4 0 0 0 -2.094 1.372 4.76 4.76 0 0 1 -1.634.747 1.7 1.7 0 0 0 -.525.151.4.4 0 0 0 -.217.446c-.19-.181-.511-.1-.746.024a1.135 1.135 0 0 1 -.746.224c-.079.1-.012.248.085.33a2.064 2.064 0 0 1 .3.233c.171.212.056.516.06.784.007.517.477.963.43 1.478a.508.508 0 0 1 -.232-.526c-.173.118-.162.368-.112.568a1.418 1.418 0 0 0 .272.592.71.71 0 0 0 .588.264l.024-.375a.583.583 0 0 0 .626.346c.261-.018.505-.128.763-.168a4.224 4.224 0 0 0 .689-.09c.508-.169.7-.73 1.031-1.156a1.8 1.8 0 0 1 -.507.329c-.093-.279.17-.541.41-.718a15.469 15.469 0 0 1 1.412-.923.2.2 0 0 1 -.078.228c.764-.275.887-1.384 1.632-1.7a.178.178 0 0 1 .116-.019.18.18 0 0 1 .095.092 5.773 5.773 0 0 1 .475 1.816 5.488 5.488 0 0 0 .5 1.407.87.87 0 0 1 -.435-.41 2.35 2.35 0 0 0 .768 2.168 1.676 1.676 0 0 0 .348.276 2.185 2.185 0 0 0 .47.176l.326.094a.928.928 0 0 0 .4.054.3.3 0 0 0 .27-.257c.006-.186-.227-.323-.211-.509.007-.081.062-.156.055-.237-.013-.153-.212-.2-.352-.274a.9.9 0 0 1 -.417-.644 5.186 5.186 0 0 0 -.156-.77 6.621 6.621 0 0 0 -.555-.876 2.463 2.463 0 0 1 -.292-.993 20.947 20.947 0 0 0 -.077-2.321.486.486 0 0 1 -.016-.2.458.458 0 0 1 .113-.19l1.3-1.552c.231-.275.462-.551.667-.845a.4.4 0 0 1 .321.18c.1.162.058.4.217.509s.339.006.5-.072a2.958 2.958 0 0 1 1.406-.3l-.159 1.735a2.907 2.907 0 0 1 -.137.756c-.02.054-.043.106-.067.158a.806.806 0 0 0 -.216-.162.936.936 0 0 0 -.316-.04 1.314 1.314 0 0 1 -1.031-.6.745.745 0 0 0 -.7.475l-.2-.186c-.566.063-.916.611-1.182 1.1a.535.535 0 0 0 -.041.659l.407.755a3.18 3.18 0 0 1 .056.353 1.153 1.153 0 0 0 .086.42c.151.295.537.369.85.494a.277.277 0 0 1 .137.093.338.338 0 0 1 0 .248.915.915 0 0 0 .42.932 1.946 1.946 0 0 0 1.39.064 17.475 17.475 0 0 0 2.175-.54c.329-.112.651-.244.984-.345.3-.09.6-.156.906-.221l3.817-.821a12.871 12.871 0 0 1 2.587-.418 14.744 14.744 0 0 0 2.151-.012 11.142 11.142 0 0 1 1.124-.15c1.135-.048 2.282.472 3.381.2a.7.7 0 0 0 -.323-.486m-19.9-5.143a.092.092 0 0 1 -.02-.036c-.023-.077.064-.139.136-.179a3.85 3.85 0 0 0 .9-.756.885.885 0 0 1 -.036.156 1.593 1.593 0 0 1 -.979.816m-.079-.839c.05.049.084.121.152.142.106.032.195-.078.257-.167a1.58 1.58 0 0 1 .679-.544 1.914 1.914 0 0 1 .014.36l-1.3.647a.272.272 0 0 1 -.237-.361.285.285 0 0 1 .434-.078" transform="translate(-396.413 -.001)"/></g><text fill="#707070" font-family="ShipporiMinchoB1-Regular, Shippori Mincho B1" font-size="14" transform="translate(60 54)"><tspan x="-59.85" y="0">Mitumata sannso</tspan><tspan x="-47.117" y="15">Mountain Hut</tspan></text><path d="m.5 16h-1v-16h1z" fill="#fff" transform="translate(60.5 89)"/></svg>