<svg height="184" viewBox="0 0 104 184" width="104" xmlns="http://www.w3.org/2000/svg" xmlns:xlink="http://www.w3.org/1999/xlink"><clipPath id="a"><path d="m0 0h103v22h-103z"/></clipPath><clipPath id="b"><path d="m0 0h95v70h-95z"/></clipPath><g clip-path="url(#a)" fill="#fff"><path d="m172.294 8.142a.963.963 0 0 0 -1.77-.756 20.7 20.7 0 0 1 -6.8 8.168.962.962 0 0 0 1.043 1.616 17.1 17.1 0 0 0 2.1-1.6v11.151a.963.963 0 0 0 1.926 0v-13.121a23.426 23.426 0 0 0 3.506-5.459" transform="translate(-136.321 -5.682)"/><path d="m222.233 14.386h9.574a.962.962 0 0 0 .963-.961v-5.661a.962.962 0 0 0 -.963-.961h-9.574a.962.962 0 0 0 -.963.961v5.66a.962.962 0 0 0 .963.961m.963-5.66h7.649v3.738h-7.645z" transform="translate(-184.737 -5.682)"/><path d="m228.712 60.668h-4.707v-1.513h4.707a.961.961 0 1 0 0-1.922h-11.34a.961.961 0 1 0 0 1.922h4.707v1.513h-4.707a.961.961 0 1 0 0 1.922h4.521c-.7 1.98-3.232 4.244-4.3 5.055a.962.962 0 0 0 1.164 1.531 18.685 18.685 0 0 0 4.286-4.578 18.687 18.687 0 0 0 4.286 4.578.962.962 0 1 0 1.164-1.531c-1.069-.811-3.6-3.075-4.3-5.055h4.521a.961.961 0 1 0 0-1.922" transform="translate(-180.68 -47.799)"/><path d="m339.038 8.191a.962.962 0 0 0 -.963.961v16.18h-2.035l-5.313-9.7c0-.006 0-.011 0-.017v-7.851a.962.962 0 0 0 -.963-.961c-.025 0-.048.005-.073.007s-.048-.007-.073-.007a.962.962 0 0 0 -.963.961v7.85.017l-5.313 9.7h-2.531v-16.179a.963.963 0 0 0 -1.926 0v17.141a.962.962 0 0 0 .963.961h19.184a.962.962 0 0 0 .963-.961v-17.141a.962.962 0 0 0 -.963-.961m-9.344 9.56 4.151 7.581h-8.3z" transform="translate(-266.241 -5.682)"/><path d="m494.641 12.512-.344-.957h8.169l-.171.586a.963.963 0 0 0 1.849.538l.328-1.123h3.954a.961.961 0 1 0 0-1.922h-3.394l.467-1.6a.963.963 0 0 0 -1.848-.538l-.623 2.138h-9.419l-.678-1.89a.963.963 0 0 0 -1.813.648l.446 1.242h-3.248a.961.961 0 1 0 0 1.922h3.938l.576 1.606a.963.963 0 0 0 1.813-.648" transform="translate(-406.888 -5.681)"/><path d="m544.991 47.958h-6.062v-1.21a.963.963 0 0 0 -1.925 0v1.21h-5.492a.961.961 0 1 0 0 1.922h5.488v8.01h-4.85a.961.961 0 1 0 0 1.922h11.624a.961.961 0 1 0 0-1.922h-4.849v-8.01h6.062a.961.961 0 1 0 0-1.922" transform="translate(-442.953 -38.239)"/><path d="m483.368 50.214a.962.962 0 0 0 -.963.961v1.225l-3.374-1.741a.961.961 0 1 0 -.884 1.708l4.257 2.2v2.542l-4.676 1.09a.961.961 0 1 0 .438 1.872l4.238-.988v3.47a.963.963 0 0 0 1.925 0v-11.378a.962.962 0 0 0 -.963-.961" transform="translate(-398.233 -41.937)"/><path d="m.562 5.81 3.958 1.816a.961.961 0 1 0 .8-1.747l-3.954-1.816a.961.961 0 1 0 -.8 1.747" transform="translate(-.001 -3.32)"/><path d="m6.757 57.307a.963.963 0 0 0 -1.26.514 46.157 46.157 0 0 1 -5.282 9.237.962.962 0 0 0 1.5 1.208 47.3 47.3 0 0 0 5.559-9.7.961.961 0 0 0 -.515-1.258" transform="translate(-.001 -47.798)"/><path d="m54.121 48.378h-14.335a.961.961 0 1 0 0 1.922h1.5c-.058 1.146-.545 4.722-4.147 9.38a.962.962 0 0 0 1.524 1.175 23.22 23.22 0 0 0 3.926-7.216.954.954 0 0 0 .447.115h2.062a15.573 15.573 0 0 1 -2.806 5.512.962.962 0 0 0 1.487 1.221 17.629 17.629 0 0 0 3.313-6.733h1.367a15.574 15.574 0 0 1 -2.806 5.512.962.962 0 0 0 1.487 1.221 17.624 17.624 0 0 0 3.313-6.733h1.087l-.47 5.546c-.133.217-.541.239-1.111.055a.961.961 0 1 0 -.589 1.83 4.14 4.14 0 0 0 1.258.216 2.553 2.553 0 0 0 1.251-.306 2.225 2.225 0 0 0 1.072-1.334.978.978 0 0 0 .027-.158l.57-6.728a.961.961 0 0 0 -.959-1.042h-9.554a10.768 10.768 0 0 0 .175-1.533h10.91a.961.961 0 1 0 0-1.922" transform="translate(-30.835 -40.404)"/><path d="m61.007 6.942h11.093a.962.962 0 0 0 .963-.961v-5.02a.962.962 0 0 0 -.963-.961h-11.093a.962.962 0 0 0 -.963.961v5.02a.962.962 0 0 0 .963.961m.963-1.922v-1.02a.641.641 0 0 0 .357.108h8.808v.908zm9.164-3.1v.91h-8.808a.639.639 0 0 0 -.357.108v-1.016z" transform="translate(-50.131)"/><path d="m.562 28.631 3.958 1.815a.961.961 0 1 0 .8-1.747l-3.954-1.815a.961.961 0 1 0 -.8 1.747" transform="translate(-.001 -22.379)"/></g><g clip-path="url(#b)" transform="translate(3 114)"><path d="m88.5 34.892a38.083 38.083 0 0 0 -15.329-13.446 91.205 91.205 0 0 0 -17.035-6.6 24 24 0 0 1 -3.841-1.309c-.378-.743-2.195-11.56-3.095-12.71a2.169 2.169 0 0 0 -3.409 0c-.9 1.15-2.713 11.968-3.091 12.708a24.01 24.01 0 0 1 -3.841 1.309 91.189 91.189 0 0 0 -17.035 6.6 38.082 38.082 0 0 0 -15.329 13.448c-4.052 6.353-6.177 14.108-6.495 23.715a2.158 2.158 0 0 0 1.04 1.919c21 12.631 71.919 12.631 92.918 0a2.157 2.157 0 0 0 1.042-1.918c-.319-9.608-2.443-17.363-6.5-23.716m-29.428-15.457c2.163 2.512 12.183 15.478 16.173 44.165-.6.138-1.218.274-1.851.407-2.444-14.685-5.687-24.143-8.02-29.552-3.824-8.862-6.506-10.579-8.097-10.455a2.377 2.377 0 0 0 -2.1 2.624c0 .41 2.546 21.853 4.087 39.417q-1 .084-2.04.156c-1.246-16.6-4.783-47.769-4.9-48.829.771.266 1.7.538 2.813.866 1.141.335 2.461.724 3.94 1.2m.023 10.553c2.147 3.407 5.51 10.486 8.452 22.861-1.777.322-4.035.715-5.864.889-1.088-11.098-2.572-23.582-2.588-23.75m2.926 27.267c2.017-.191 4.371-.606 6.3-.956.553 2.586 1.085 5.374 1.584 8.382-2.2.385-4.573.73-7.117 1.015q-.392-4.471-.77-8.441m-38.572-32.666a87.989 87.989 0 0 1 16.417-6.355c1.114-.327 2.041-.6 2.813-.866-.12 1.054-1.627 14.338-2.245 20.111-.663-15.225-1.43-15.984-2.062-16.608a2.16 2.16 0 0 0 -2.309-.483c-.9.342-1.963 1.149-4.123 6.586-5.821.279-14.318 3.674-21.333 8.229a35.535 35.535 0 0 1 12.842-10.614m6.873 18.49a145.386 145.386 0 0 1 5.82-16.948c.616 5.952 1.246 19.921 1.5 40.056a122.173 122.173 0 0 1 -12.587-1.513 193.992 193.992 0 0 1 5.271-21.6m-26.749 14.832a47.717 47.717 0 0 1 2.9-15.083c6.8-6.342 17.472-11.219 24.085-12.165-1.057 2.989-3.7 11.6-3.859 12.15l-.009-.021c-3.21 1.469-5.449 4.977-7.425 8.072-1.956 3.065-3.8 5.96-5.646 5.583a2.054 2.054 0 0 1 -1.725-1.727c-.975-4.035 3.137-10.54 7.59-14.084l-2.215-2.76c-6.261 4.983-9.986 12.564-8.824 17.67a5.784 5.784 0 0 0 5.59 4.48c3.587.057 5.942-3.688 8.225-7.266a46.209 46.209 0 0 1 2.8-4.064c-1.581 5.882-2.953 11.7-3.5 15.312-10.069-2.12-15.941-4.973-17.989-6.1m37.743 8.49c1.242-16.513 6.125-58.267 6.18-58.592.055.327 4.938 42.088 6.179 58.6a104.913 104.913 0 0 1 -12.357 0m36.227-31.23c2.264 2.071 5.544 6.286 7.477 13.355-.874.31-2.014.625-3.02.865-1.283-5.432-4.313-13.815-4.457-14.22m5.2 17.676c.923-.216 2.038-.509 3.064-.854a50.608 50.608 0 0 1 .793 8.136c-.81.323-1.708.66-2.7 1a80.628 80.628 0 0 0 -1.16-8.285m7.356 5.74c-.456-10.067-3.382-16.807-5.871-20.786-2.8-4.484-6.552-7.742-8.91-7.746a2.113 2.113 0 0 0 -1.753.887c-.873 1.235-.34 2.709 1.085 6.65a89.924 89.924 0 0 1 5.788 24.654q-.838.247-1.736.492a121.044 121.044 0 0 0 -8.214-30.749 70.946 70.946 0 0 0 -5.421-10.372c2 .815 4.165 1.787 6.48 2.973 12.813 6.566 19.142 17.166 19.87 33.319-.335.184-.774.414-1.315.68" fill="#fff" transform="translate(0 .001)"/></g><text fill="#707070" font-family="ShipporiMinchoB1-Regular, Shippori Mincho B1" font-size="14" transform="translate(0 51)"><tspan x="0" y="0">Yumata sannso</tspan><tspan x="0" xml:space="preserve" y="15"> Mountain Hut</tspan></text><path d="m.5 16h-1v-16h1z" fill="#fff" transform="translate(51.5 86)"/></svg>