<?xml version="1.0" encoding="UTF-8"?>
<svg id="_レイヤー_2" data-name="レイヤー 2" xmlns="http://www.w3.org/2000/svg" xmlns:xlink="http://www.w3.org/1999/xlink" viewBox="0 0 123 240">
  <defs>
    <style>
      .cls-1 {
        fill: #707070;
      }

      .cls-1, .cls-2, .cls-3 {
        stroke-width: 0px;
      }

      .cls-4 {
        isolation: isolate;
      }

      .cls-5 {
        stroke: #fff;
      }

      .cls-5, .cls-2 {
        fill: none;
      }

      .cls-6 {
        clip-path: url(#clippath-1);
      }

      .cls-3 {
        fill: #fff;
      }

      .cls-7 {
        clip-path: url(#clippath);
      }
    </style>
    <clipPath id="clippath">
      <rect class="cls-2" y="130" width="123" height="110"/>
    </clipPath>
    <clipPath id="clippath-1">
      <rect class="cls-2" x="8.5" width="106" height="38"/>
    </clipPath>
  </defs>
  <g id="_レイヤー_1-2" data-name="レイヤー 1">
    <g>
      <g id="_グループ_2214" data-name="グループ 2214">
        <g class="cls-7">
          <g id="_グループ_2159" data-name="グループ 2159">
            <path id="_パス_1258" data-name="パス 1258" class="cls-3" d="m49.7,158.92c.33-1.08.93-3.4,1.33-4.3s1.23-2.76,1.54-3.44c.66-1.45,1.21-2.95,1.66-4.48.18-1.2.15-2.42-.09-3.61-.3-1.32-.75-2.6-1.34-3.82-.35-.65-2.51-4.41-2.64-4.66s-2.53-4.09-2.58-4.29.28-.31.65-.32c1.06,0,2.11.14,3.12.44.7.27,1.36.64,1.97,1.08.57.44,1.8,1.37,1.8,1.37-.05-.76-.22-1.35.27-1.76.56-.35,1.26-.39,1.87-.12.75.22,1.47.53,2.14.92.8.59,1.68,1.09,2.6,1.47,1.05-.33,2.08-.75,3.06-1.25.75-.43,1.57-.71,2.43-.82.6.06,1.13.39,1.45.9.07.29.11.59.12.89,1.74-1.1,3.58-2.06,5.48-2.86.65-.16,1.34-.09,1.96.19.08.04.11.22,0,.39-.1.17-3.24,5.33-3.43,5.63s-2.92,5-3.31,6.88c-.27.9-.31,1.86-.1,2.77.06.3,1.15,3.42,1.48,4.12s1.56,3.66,1.77,4.21.93,3.01,1.06,3.65.63,2.61.63,2.61c1.5-.64,4.07-1.83,4.63-2.13s3.43-1.96,4.01-2.23c.92-.5,1.99-.69,3.02-.52,1.19.29,1.56.82,1.39,1.71-.21.86-.74,1.61-1.47,2.1-.44.26-.85.57-1.22.93.62-.12,1.2-.38,1.71-.75.77-.52,4.47-3.94,5.6-4.47,1.35-.65,3.24-.65,3.93-.1.66.48.8,1.4.32,2.06-.6.82-1.29,1.58-2.04,2.26,1.48-.53,2.87-1.3,4.11-2.27.86-.96,1.78-1.85,2.76-2.68.51-.39,1.1-.68,1.73-.83.64-.08,1.28,0,1.87.26.44.32.65.87.52,1.4-.33.67-.7,1.32-1.13,1.93-.02.14.19.07.23.03,1.34-1.03,2.57-2.18,3.69-3.44.65-1.03,2.71-3.9,3.18-4.64s2.45-3.56,3.05-4.33,2.28-2.8,3.18-3.8,2.29-2.15,2.79-2.05c.63.22,1.09.75,1.22,1.41.11.98-.79,3.67-2.01,6.86-1.22,3.19-3.33,8.02-3.87,9.56s-3,9.12-3.36,10.13-1.55,5.5-3.66,7.98-3.13,3.45-6.7,4.67c-2.8.94-5.73,1.39-8.68,1.35-1.83-.03-4.4-.61-5.99-.62-2.07-.06-4.13.37-6,1.26-1.43.69-2.7,1.67-3.74,2.87-.43.58-.7,1.25-.79,1.97-.05.86-.09,2.06-.08,2.52s.27,2.17.23,2.88-.22,2.75-.22,2.75c-.63.45-1.37.72-2.14.78-.61.07-1.23-.03-1.79-.29-.43-.17-2.07-1.15-3.13-1.04-.86.11-1.66.53-2.23,1.18-.32.4-.94,1.44-1.11,1.6-.33.3-.63.64-.89,1,.71.24,1.2.27,1.73.49.76.45,1.63.7,2.52.72.98-.08,1.92-.41,2.73-.96.31-.21,1.24-1.45,1.66-1.59s1.63-.54,1.9-.6.47-.22.49-.18-.21.41-.32.72c-.3.99-.73,1.93-1.28,2.8-.93,1.5-2.11,2.83-3.49,3.93-1.66,1.08-3.47,1.88-5.38,2.38-1.32.39-2.69.62-4.07.69-1.93.04-3.86-.23-5.71-.8-2.13-.8-4.11-1.97-5.83-3.45-1.28-1.23-2.29-2.71-2.99-4.35-.38-.84-.68-1.71-.9-2.61.9.09,1.76.39,2.52.87.39.31,1.14,1.1,1.54,1.5.77.78,1.75,1.32,2.82,1.55,1,.1,2.02-.09,2.92-.54.45-.21.92-.39,1.39-.53.11-.01.13-.12-.12-.32-.45-.51-.86-1.06-1.21-1.65-.41-.72-1.05-1.27-1.82-1.58-.75-.25-1.56-.25-2.32-.02-.4.16-.79.34-1.17.56-.37.18-.78.27-1.19.25-.77-.07-1.52-.31-2.18-.69-.53-.22-1.01-.53-1.44-.92-.2-1.34-.28-2.69-.25-4.05.09-1.62,0-3.25-.26-4.85-.49-1.2-1.17-2.31-2.02-3.28-.7-.53-2.41-1.79-3.75-1.85s-3.25.29-6.81.32-8.36-.33-11.97-2.72-5.73-4.4-6.69-5.99c-1.32-2.36-2.43-4.82-3.32-7.37-.54-1.77-1.99-5.48-2.52-6.89s-4.99-11.15-5.36-11.99c-.85-1.99-1.51-4.05-1.97-6.16-.1-.78.33-1.54,1.06-1.84.91-.06,1.83.49,3.23,2.17s6.29,7.73,6.99,8.68,2.98,4.33,4.33,5.75c.91.86,1.88,1.65,2.9,2.38-.85-1.12-1.62-2.15-1.12-3.2.28-.82,1.11-1.32,1.97-1.18.95.13,1.8.64,2.37,1.4.83.84,3.5,3.54,4.13,4.02.51.43,1.09.77,1.71,1,.14-.05-.29-.38-.47-.52s-1.17-.98-1.22-1.64c-.17-.78.26-1.57,1.01-1.86.86-.31,1.8-.3,2.65.03,1.18.53,2.27,1.25,3.23,2.12.96.91,1.98,1.75,3.06,2.51.35.23.75.39,1.17.45.05-.04-.32-.27-.67-.55-.6-.46-1.06-1.07-1.34-1.77-.28-.69,0-1.48.65-1.85.94-.54,2.06-.64,3.08-.27,1.62.58,3.15,1.41,4.51,2.47,1.18.91,2.56,1.55,4.03,1.85.35.03.7,0,1.04-.07"/>
            <path id="_パス_1259" data-name="パス 1259" class="cls-3" d="m55.69,205.97c.53.17,1.81.63,1.96.67s.1.61.37,1.15c.05.1.38.09.42.04.09-.22.15-.46.18-.7.05-.39.46-.19.61-.16s1.62.15,2.6.14c.73-.06,1.46-.15,2.18-.29.08.03.06.81.15.98.05.14.19.23.34.21.17,0,.33-.12.38-.39s.01-.93.24-1.01,1-.27,1.29-.36.6-.25.68-.18c-.15.59-.35,1.16-.59,1.72-.15.47-1.49,4.55-2.18,6.18s-1.95,4.58-2.15,4.92c-.17.38-.59.6-1,.52-.55-.01-.9-.83-1.28-1.7-.58-1.34-.86-2.06-1.69-4.12s-2.02-5.6-2.2-6.15c-.15-.47-.47-1.54-.3-1.48"/>
            <path id="_パス_1260" data-name="パス 1260" class="cls-3" d="m56.6,233.8c-.35.05-.7.06-1.04.03-.03-.02-.05-.05-.06-.08,0-.03,0-.07.03-.1.12-.09.25-.15.39-.18,1.4-.5,2.83-.92,4.28-1.26,4.79-1.03,5.67-1.26,7.36-1.76,1.5-.47,2.73-.89,4.03-1.38,1-.38,1.93-.82,2.92-1.23,1.47-.62,2.94-1.25,4.4-1.91.89-.41,1.75-.88,2.62-1.33,1.5-.77,2.98-1.6,4.43-2.45,1.41-.83,2.8-1.68,4.13-2.64.74-.53,1.5-1.02,2.25-1.53.09-.06.18-.12.28-.17.14-.07.87.98.78,1.1-.12.16-2.03,1.58-2.89,2.21-1.32.97-2.64,1.63-4.04,2.49-.82.5-1.51.81-2.35,1.3-.48.26-1.42.71-2.07,1.05-.69.36-1.34.63-2.06.95-1.48.66-2.24,1.05-3.75,1.62-.8.3-1.51.58-2.3.9-.71.28-1.77.7-2.5.93-1.11.35-2,.65-3.11.98-.61.18-1.59.45-2.21.59-.85.18-1.08.26-1.93.44-1.76.37-2.85.58-4.63.87-.55.09-2.39.52-2.97.57"/>
            <path id="_パス_1261" data-name="パス 1261" class="cls-3" d="m75.21,235.7s.03-.01.03-.03c0-.01,0-.03-.02-.03-.64-.19-1.33-.37-1.9-.54-.48-.13-.95-.29-1.41-.48-.09-.05-.28-.2-.19-.24.06-.04.88-.29,1.27-.38.11-.03.22-.03.33,0,.65.17,1.31.28,1.97.39.63.11,3.99.95,5.02,1.08.67.08,1.28.14,1.97.22.43.05.86.08,1.3.08.24,0,.43-.18.48-.41.11-.48.23-1.09.34-1.57.23-1.4,1.68-.76,1.45.81-.05.32-.12.75-.14,1.08,0,.13.08.24.21.26.25.03.92.04,1.17.05,1,.03,1.71.07,2.71.1.4.01.8,0,1.2.01.16,0,.31.05.45.12.2.1.31.33.24.55-.06.25-.17.47-.51.47-.47,0-1.05.02-1.52.01-1.16,0-3.78-.15-3.94-.16-.13-.01-.27.17-.29.29-.04.23-.1.85-.13,1.09-.08.52-.18,1.31-.54,1.44-.08.03-.39.17-.6,0-.25-.29-.37-.68-.32-1.06,0-.45.04-.78.04-1.23,0-.25-.02-.38-.26-.4-.27-.02-.55-.04-.83-.04-1.16,0-2.16-.01-3.32-.07-.15,0-1.73-.05-2.45-.07-1.39-.04-2.17-.05-3.35-.09-1.82-.05-3.79-.12-5.59-.34-1.21-.15-4.28-.6-4.36-.64-.07-.02-.12-.09-.12-.16.67-.23,1.35-.41,2.05-.53.2-.04,1.82.16,2.43.2.47.04,4.43.16,5.17.19.36.01,1.57.03,1.98.02"/>
            <path id="_パス_1262" data-name="パス 1262" class="cls-3" d="m29.86,216.52c1.05.81,2.17,1.52,3.28,2.25.68.45,1.35.92,2.04,1.36.76.49,1.53.97,2.31,1.44,1,.6,2,1.18,3.01,1.76.75.44,1.5.89,2.26,1.32.77.44,1.55.87,2.33,1.3.84.47,1.68.94,2.53,1.39,1.36.73,2.74,1.43,4.15,2.06.73.33,1.46.65,2.19.98.18.08.36.17.54.27.09.05.09.19,0,.22-.54.16-1.08.32-1.62.46-.2.02-.4-.02-.57-.13-.26-.12-6.08-3.3-6.96-3.77-1.79-.97-12.48-7.22-13.94-8.08-.7-.42-2.31-1.56-2.4-1.65-.15-.12-.18-.34-.07-.5.06-.11.78-.78.94-.66"/>
            <path id="_パス_1263" data-name="パス 1263" class="cls-3" d="m93.37,217.26c.09-.08.2-.16.3-.23.87-.65,1.74-1.31,2.56-2.03,1.26-1.12,2.64-2.11,3.89-3.24.66-.6,1.31-1.21,1.95-1.82.68-.65,1.38-1.29,2.04-1.96.92-.93,1.88-1.82,2.7-2.84.36-.45.78-.86,1.14-1.32.4-.52.83-1.01,1.24-1.52.09-.11.2-.21.29-.33.27-.33.5-.22.75-.03.14.11.26.26.39.38.21.19.22.21.03.43-.47.55-.89,1.15-1.35,1.71-.83,1.01-1.66,2.02-2.58,2.95-1.14,1.14-2.28,2.29-3.46,3.39-1.14,1.06-2.29,2.12-3.5,3.11-.45.37-.87.77-1.32,1.14-.83.68-1.67,1.34-2.5,2.01-.47.37-.94.74-1.42,1.1-.1.08-.21.15-.31.22-.16.09-1.26-.81-.84-1.13"/>
            <path id="_パス_1264" data-name="パス 1264" class="cls-3" d="m58.35,229.6c-.28-.01-.56-.09-.8-.24-.62-.33-1.25-.67-1.87-1.01-.62-.34-1.24-.68-1.89-.97-.62-.29-1.23-.63-1.8-1.02-1.12-.72-2.28-1.36-3.42-2.02-1.7-.98-3.4-1.95-5.07-2.99-.83-.52-1.65-1.06-2.45-1.62-.35-.25-.73-.48-1.08-.73-.11-.07-.21-.15-.3-.24-.15-.14-.21-.35-.14-.55.04-.14.1-.27.16-.4.1-.22.36-.32.58-.22.02.01.05.02.07.04.25.14.49.31.74.46,1.6,1,3.2,2.01,4.8,3.01,1.39.86,2.77,1.73,4.17,2.58,1.01.61,2.04,1.18,3.07,1.77,1.15.67,2.34,1.25,3.54,1.81.9.42,1.8.86,2.7,1.3.08.04.16.08.24.14.09.07.11.21.04.3,0,.01-.02.02-.03.03-.37.28-.79.48-1.24.59"/>
            <path id="_パス_1265" data-name="パス 1265" class="cls-3" d="m123,183.95c.01.13-.02.25-.1.35-.69.98-1.19,2.08-1.8,3.1-.61,1.01-1.15,2.06-1.73,3.09-.17.3-.36.59-.55.88-.67,1.02-1.26,2.08-1.97,3.07-.2.28-.35.6-.55.88-.7.97-1.41,1.93-2.13,2.89-.8,1.06-1.64,2.08-2.39,3.17-.16.23-.54.23-1,0-.24-.16-.49-.33-.35-.58.09-.16.19-.31.31-.45.57-.73,1.15-1.45,1.7-2.2.77-1.03,1.52-2.08,2.27-3.13.53-.76,1.06-1.52,1.54-2.31.89-1.48,1.85-2.91,2.68-4.42.52-.94,1.03-1.87,1.57-2.8.38-.66.78-1.31,1.17-1.96.03-.05.06-.09.09-.13.07-.11.22-.15.34-.1.28.12.55.28.8.46.06.05.1.11.11.19"/>
            <path id="_パス_1266" data-name="パス 1266" class="cls-3" d="m107.76,210.55c-.65.66-1.3,1.32-1.97,1.96-.58.55-1.2,1.05-1.81,1.57-1,.87-1.98,1.76-3,2.6-.94.77-1.92,1.5-2.88,2.24-.07.06-.15.1-.22.16-1.21.97-2.52,1.79-3.8,2.64-.82.54-1.9,1.16-2.72,1.69-.21.14-.84-1.06-.68-1.15.48-.3,1.14-.73,1.61-1.04,1.19-.77,2.37-1.55,3.54-2.34.54-.37,1.06-.77,1.58-1.16.48-.36.95-.73,1.42-1.1.79-.64,1.6-1.25,2.36-1.93,1.42-1.27,2.87-2.51,4.21-3.86.48-.49.98-.97,1.47-1.45.14-.14.29-.27.45-.39.21-.15.33.05.55.27.05.05.35.27.39.33.17.28-.21.67-.51.98"/>
            <path id="_パス_1267" data-name="パス 1267" class="cls-3" d="m103.93,204.56c-.18-.15-.45-.37-.65-.56-.15-.14-.17-.37-.06-.54.11-.15.23-.3.35-.44.92-1.07,1.87-2.13,2.78-3.21.92-1.1,1.78-2.25,2.58-3.44.49-.72,1.01-1.42,1.48-2.16.55-.86,1.06-1.73,1.58-2.61.47-.8.93-1.6,1.39-2.4.25-.44.5-.88.77-1.32s.34-.45.78-.19c.19.11.37.23.55.35.11.07.15.21.11.33-.04.12-.09.24-.15.35-.5.88-1,1.77-1.51,2.65-.74,1.29-1.55,2.54-2.36,3.79-.54.84-1.12,1.65-1.67,2.49-.36.55-.73,1.08-1.12,1.6-.25.34-.53.67-.82.98-.43.46-.82.95-1.2,1.44-.17.21-.37.4-.55.6-.59.69-1.17,1.38-1.76,2.07-.07.09-.16.17-.26.24-.08.05-.19.04-.26-.03"/>
            <path id="_パス_1268" data-name="パス 1268" class="cls-3" d="m108.95,209.13s-.05,0-.07-.02c-.28-.17-.51-.4-.68-.68-.06-.1-.05-.22.02-.31.05-.08.1-.15.16-.22.5-.5.95-1.05,1.42-1.58.61-.67,1.25-1.32,1.88-1.97,1-1.03,1.93-2.11,2.85-3.22l1.95-2.35c1.18-1.4,2.28-2.87,3.29-4.4.47-.71.99-1.39,1.49-2.08.06-.09.13-.17.2-.26.08-.14.27-.19.41-.1,0,0,.01,0,.02.01.29.15.57.33.82.54.12.07.16.21.09.33-.01.02-.02.04-.04.05-.3.45-.6.91-.93,1.34-1.11,1.46-2.23,2.91-3.35,4.36-.82,1.06-1.66,2.11-2.57,3.1-.6.65-1.17,1.34-1.76,2-.33.36-.66.72-1.01,1.07-.84.83-1.56,1.77-2.37,2.62-.44.46-.87.92-1.31,1.38-.11.12-.23.23-.36.33-.04.02-.08.04-.13.05"/>
            <path id="_パス_1269" data-name="パス 1269" class="cls-3" d="m88.18,226.41c.08-.07.18-.13.27-.17,1.13-.5,2.17-1.17,3.25-1.77.48-.27.95-.54,1.43-.79.87-.45,1.7-.99,2.54-1.48.38-.22.73-.47,1.1-.71,1.13-.76,2.27-1.51,3.4-2.27.8-.54,1.56-1.13,2.3-1.75.12-.1.26-.2.39-.29.18-.12.36-.25.53-.39.73-.66,1.51-1.26,2.2-1.95.14-.14.3-.26.47-.37.12-.11.31-.11.42,0,0,0,.01.01.02.02.17.18.34.38.5.58.12.11.12.29.02.4-.01.01-.02.02-.04.03-.1.11-.2.21-.32.3-.68.57-1.35,1.16-2.05,1.71-1.02.82-2.04,1.63-3.08,2.42-.68.51-1.4.97-2.11,1.44-.42.28-.86.54-1.28.83-1.29.89-2.64,1.67-3.98,2.46-1.16.68-2.34,1.32-3.53,1.95-.62.33-1.28.6-1.93.89-.23.1-.65-.98-.52-1.09"/>
            <path id="_パス_1270" data-name="パス 1270" class="cls-3" d="m88.35,217.18c.07-.06.15-.11.22-.16.72-.55,1.43-1.12,2.17-1.65s1.42-1.13,2.13-1.7c.61-.49,1.18-1.02,1.77-1.53,1.04-.91,2.03-1.87,3.02-2.82.66-.62,1.33-1.23,1.96-1.89.81-.85,1.59-1.74,2.37-2.62.13-.19.33-.31.55-.35.16.03.38.25.61.45.17.13.27.33.25.55-.13.18-.26.34-.41.5-.74.8-1.5,1.58-2.23,2.39-.68.75-1.4,1.47-2.12,2.19-1.11,1.1-2.28,2.13-3.47,3.14-.76.64-1.49,1.33-2.3,1.91-.93.67-1.83,1.37-2.8,1.99-.14.09-.26.19-.39.3-.18.15-.36.3-.55.44-.45.32-1.11-.79-.78-1.13"/>
            <path id="_パス_1271" data-name="パス 1271" class="cls-3" d="m121.24,198.7s.09.01.14.03c.3.16.59.36.85.59.1.09.11.24.03.35-.09.12-.18.22-.28.34-.52.65-1.04,1.3-1.58,1.94-.51.61-1.03,1.22-1.56,1.81-.92,1.03-1.87,2.03-2.84,3-1.05,1.05-2.09,2.12-3.14,3.18-.91.92-1.8,1.84-2.73,2.73-.67.64-1.37,1.25-2.06,1.86-.16.19-.44.22-.64.06-.01-.01-.03-.02-.04-.04-.12-.09-.22-.19-.32-.3-.18-.2-.18-.5,0-.7.09-.09.18-.18.28-.26.65-.58,1.3-1.16,1.94-1.75.49-.46.96-.94,1.43-1.41.73-.73,1.46-1.47,2.17-2.22.69-.72,1.42-1.4,2.12-2.11,1-1,1.94-2.06,2.88-3.12.88-.99,1.65-2.07,2.51-3.08.2-.23.36-.5.55-.75.06-.1.17-.16.28-.18"/>
            <path id="_パス_1272" data-name="パス 1272" class="cls-3" d="m97.97,205.07s-.3-.43-.16-.6c.36-.45.7-.93,1.09-1.36.71-.79,1.41-1.58,2.06-2.42.71-.93,1.47-1.81,2.2-2.73.39-.5.76-1.02,1.14-1.53.14-.19.26-.39.42-.57.26-.3.49-.63.7-.97.55-.88,1.09-1.76,1.63-2.63.34-.55.69-1.11,1.03-1.66.05-.08.1-.15.16-.22.06-.1.19-.13.29-.08.29.15.58.31.85.48.1.05.14.17.09.27-.01.02-.03.04-.04.06-.14.21-.26.43-.35.67-.37.75-.79,1.47-1.26,2.16-.55.77-1.02,1.58-1.55,2.37-.39.59-.81,1.16-1.22,1.73-1.07,1.49-2.32,2.84-3.5,4.24-.39.46-.75.93-1.14,1.39-.51.61-1.03,1.22-1.55,1.83-.07.08-.51.09-.91-.41"/>
            <path id="_パス_1273" data-name="パス 1273" class="cls-3" d="m26.02,204.29c.71.87,1.4,1.76,2.17,2.58.38.41.77.82,1.16,1.23.63.66,1.24,1.33,1.89,1.96.93.91,1.87,1.83,2.86,2.69.89.78,1.83,1.49,2.76,2.22.73.58,1.46,1.14,2.19,1.71.04.03.08.07.13.1.3.26.29.26.08.62-.08.14-.15.29-.24.43-.07.15-.25.21-.4.14,0,0-.01,0-.02,0-.08-.04-.16-.08-.23-.14-.98-.75-1.96-1.5-2.94-2.25-1.06-.8-2.03-1.71-3.01-2.6-.82-.74-1.6-1.52-2.38-2.31-1.13-1.13-2.23-2.29-3.3-3.47-.22-.24-.42-.5-.62-.76-.29-.35-.57-.7-.86-1.06-.08-.1-.15-.2-.22-.31-.29-.37.68-1.16,1-.78"/>
            <path id="_パス_1274" data-name="パス 1274" class="cls-3" d="m14.25,188.46c.07,0,.15.02.19.08.09.12.17.24.24.36.41.7.81,1.42,1.24,2.11.44.71.9,1.4,1.35,2.11.6.95,1.29,1.84,1.94,2.76.28.4.55.81.84,1.2.81,1.1,1.65,2.16,2.55,3.19.58.67,1.14,1.36,1.71,2.05.25.31.67.76.93,1.06.21.24-.89.94-1.13.64-.69-.79-1.57-1.71-2.19-2.56-.26-.37-.55-.72-.84-1.07-1.39-1.66-2.62-3.43-3.88-5.18-.81-1.13-1.56-2.32-2.29-3.5-.43-.7-.88-1.38-1.31-2.07-.39-.63-.39-.63.28-1.01.12-.09.25-.15.39-.17"/>
            <path id="_パス_1275" data-name="パス 1275" class="cls-3" d="m47.43,232.71c-.53-.15-1.05-.34-1.56-.57-.67-.29-3.95-1.65-4.17-1.75-.88-.39-1.95-.86-2.82-1.27-1.18-.56-2.17-1.04-3.34-1.62-.46-.23-1.49-.82-1.61-.9-.09-.06-.16-.15-.19-.26-.08-.27.55-.94.67-.9.24.07,1.71.94,1.76.96,2.19,1.09,3.02,1.3,4.34,1.91.74.34,1.5.74,2.24,1.08.36.17,3.5,1.5,4.12,1.74.47.19,1.08.39,1.56.58.07.03.47.19.53.23.09.07.07.13,0,.21-.02.03-.05.05-.08.08-.47.21-.95.37-1.45.48"/>
            <path id="_パス_1276" data-name="パス 1276" class="cls-3" d="m34.86,217.13c.74.56,1.91,1.3,2.69,1.8,1.5.96,2.99,1.93,4.49,2.89,2.18,1.41,4.36,2.83,6.53,4.25.58.38,1.16.74,1.74,1.11.21.13.27.26.2.32-.12.1-.24.03-.36-.02-.57-.24-1.14-.47-1.69-.76-1.64-.86-3.28-1.72-4.93-2.57-.95-.49-7.96-5.02-9.38-6.03-.23-.17.47-1.17.69-1.01"/>
            <path id="_パス_1277" data-name="パス 1277" class="cls-3" d="m88.06,219.02c-.85.63-2.12,1.69-2.98,2.3-1.02.72-2.08,1.39-3.18,2.01-.52.3-1.08.52-1.62.77-.62.3-1.25.6-1.87.9-1.03.5-2.07.97-3.14,1.38-.49.19-.96.43-1.44.64s-.97.4-1.46.61c-.09.06-.2.08-.31.07-.05,0-.08-.06-.07-.11,0,0,0-.01,0-.02.03-.09.1-.16.18-.2.57-.35,1.13-.73,1.72-1.05,1.81-1.01,3.61-2.03,5.4-3.07,1.31-.76,2.58-1.56,3.83-2.39.7-.46,1.36-.97,2.04-1.46.59-.42,1.18-.84,1.77-1.27.06-.04.12-.08.18-.12.38-.23,1.19.81.94.99"/>
            <path id="_パス_1278" data-name="パス 1278" class="cls-3" d="m90.41,223.99c-.38.25-.94.58-1.33.81-.25.15-1.71.96-2.53,1.34-.99.45-2.03.9-3.06,1.26-.55.19-4.1,1.51-5.14,1.89-.2.07-.75.26-.96.32-.07.02-.15.02-.18-.06s.04-.13.1-.17c.1-.07.21-.14.32-.2.19-.1,3.39-1.63,3.86-1.88,1.54-.8,3.48-1.83,5.02-2.64,1.03-.54,2.32-1.25,3.31-1.85.25-.15.77.99.6,1.19"/>
            <path id="_パス_1279" data-name="パス 1279" class="cls-3" d="m32.7,221.48c.46.33,1.32.82,1.81,1.11,1.01.6,2.04,1.18,3.05,1.79,1.1.67,2.19,1.36,3.29,2.03.93.57,1.86,1.13,2.79,1.69.1.04.18.11.25.2.01.03.01.07,0,.1-.02.03-.05.05-.09.05-.09,0-.18-.02-.26-.05-.63-.23-1.25-.49-1.85-.79-.53-.23-1.05-.5-1.57-.75l-1.81-.88c-1.5-.73-2.97-1.52-4.43-2.33-.55-.31-1.09-.66-1.63-.99-.08-.05-.15-.1-.23-.15-.3-.23.38-1.26.68-1.05"/>
            <path id="_パス_1280" data-name="パス 1280" class="cls-3" d="m97.96,206.1c-.14-.11-.27-.24-.37-.38-.17-.23-.49-.28-.72-.11-.03.02-.05.04-.08.07-.47.5-.94,1-1.39,1.52-.65.76-1.4,1.44-2.11,2.14-.2.2-.41.4-.63.59-.74.64-1.48,1.28-2.23,1.92-.55.47-1.1.94-1.66,1.41-.39.32-.8.62-1.19.95-1.4,1.19-2.86,2.29-4.34,3.38-.19.14-.39.27-.57.42-.06.05-.12.11-.17.18-.06.09-.07.21-.01.3.15.25.32.49.51.71.09.1.23.12.35.05.15-.09.29-.19.43-.3.98-.75,1.97-1.49,2.93-2.27,1.75-1.42,3.48-2.86,5.2-4.31.88-.73,1.76-1.46,2.6-2.23.68-.63,1.36-1.26,1.99-1.94.32-.35.64-.69.95-1.05.19-.22.39-.43.57-.66.09-.11.08-.28-.04-.37,0,0-.01-.01-.02-.01"/>
            <path id="_パス_1281" data-name="パス 1281" class="cls-3" d="m87.63,226.91c-.08-.17-.29-.25-.46-.18-.05.02-.1.03-.15.05-.81.32-3.96,1.77-5.01,2.14-2.82,1.08-5.71,1.99-8.64,2.72-1.18.31-2.37.53-3.56.79-.89.19-1.78.37-2.67.55-1.07.21-5.25.99-6.28,1.09-.38.04-2.57.41-3.29.47-1.3.11-2.59.38-3.89.48-.96.08-1.91.2-2.88.23-.54.02-3.59.13-4.33.11-.4-.01-.8-.05-1.2-.08-.03,0-.06-.02-.08-.05-.02-.07.03-.09.08-.11.09-.03.17-.06.26-.08.76-.18,1.98-.47,2.74-.65,1.67-.39,2.96-.64,4.45-.97.34-.07.67-.16,1.01-.24,1.04-.25,2.09-.47,3.13-.75.89-.24,1.78-.52,2.66-.81,1.33-.44,2.14-.8,3.46-1.26.68-.24,1.63-.58,2.31-.85.42-.17,1.55-.63,1.96-.82.51-.23,1.05-.44,1.71-.75,1.2-.57,2.17-1.08,3.34-1.71.7-.38,1.41-.76,2.1-1.16.92-.55,1.82-1.13,2.74-1.68,1.15-.7,2.28-1.42,3.38-2.2.32-.23.67-.44.99-.67.3-.19.58-.4.85-.63,0-.03,0-.06-.01-.08-.03-.15-.58-.92-.78-.91-.09.01-.18.04-.25.1-.25.15-.49.31-.73.48-.86.58-1.72,1.16-2.57,1.74-1.18.82-2.39,1.59-3.62,2.32-1.36.81-2.71,1.63-4.14,2.3-.56.27-1.1.58-1.67.8-1.39.55-2.71,1.24-4.11,1.75-.87.31-1.73.65-2.6.97-.24.09-.49.15-.73.23-1.17.39-2.33.8-3.51,1.17-1.3.42-2.58.88-3.91,1.18-.8.18-1.59.39-2.38.56-.3.06-2.55.59-3.75.89-2.27.6-4.58,1.05-6.91,1.34-.29.03-1.69.1-1.82.1-.11,0-.21-.08-.23-.2-.02-.09-.03-.18-.04-.27-.05-.45.04-.96-.01-1.41-.02-.26-.12-.5-.29-.69-.18-.24-.53-.29-.78-.11-.03.02-.06.05-.08.08-.17.17-.27.39-.29.63-.04.34-.04.69,0,1.03.01.22-.02.61-.03.83-.01.33-.1.41-.42.45-.27.03-.88.04-1.15.07-.74.07-1.21.06-1.95.1-.91.06-1.82.07-2.72.03-.09,0-.18,0-.27.02-.15.03-.27.13-.32.27-.18.37-.02.81.35.99.06.03.12.05.18.06.16.03,4.59.02,5.55,0,.2,0,.4-.01.6,0,.36.03.5.14.53.49.09.79.33,1.55.7,2.25.3.25.58.17.74-.19.03-.07.02-1.86.02-2.26,0-.28.1-.39.38-.44.18-.03.36-.04.54-.04.87-.02,2.3-.11,3.18-.04.85.06,4.35.07,5.36.06,1.54-.02,5.97-.25,6.29-.29,1.15-.16,4.82-.66,5.29-.73,1.04-.17,2.09-.32,3.13-.48.93-.15,5.26-.85,6.65-1.12,1.57-.3,3.12-.71,4.66-1.12.67-.17,1.33-.38,1.99-.58,1.27-.39,2.54-.75,3.79-1.2.63-.23,1.26-.47,1.89-.71,1.4-.55,2.81-1.1,4.2-1.67.45-.19.89-.4,1.32-.64.33-.17.35-.27.23-.61-.05-.15-.12-.3-.2-.45"/>
            <path id="_パス_1282" data-name="パス 1282" class="cls-3" d="m18.27,202.68c.05.04.12.06.19.03.34-.13.64-.36.85-.65-.06-.07-.12-.15-.17-.23-.02-.03-.19-.25-.21-.28-.23-.28-.47-.55-.69-.84-.84-1.12-1.67-2.24-2.52-3.35-.31-.41-.59-.85-.9-1.27-1.16-1.54-2.24-3.15-3.23-4.81-.58-.98-1.16-1.96-1.73-2.95-.5-.86-.99-1.73-1.49-2.6-.04-.06-.06-.13-.1-.19-.06-.12-.2-.18-.33-.14-.28.08-.54.22-.76.41-.1.09-.12.24-.06.35.09.2.18.4.29.58.44.77.88,1.54,1.33,2.31.49.85.98,1.7,1.47,2.54.7,1.23,1.47,2.42,2.3,3.57.79,1.08,1.63,2.13,2.44,3.21.83,1.1,1.65,2.21,2.47,3.32.23.3.48.59.73.88.03.04.07.07.11.1"/>
            <path id="_パス_1283" data-name="パス 1283" class="cls-3" d="m33.81,216.4c-.42-.29-1.03-.79-1.42-1.11-.69-.56-1.38-1.12-2.06-1.69-.99-.81-1.93-1.67-2.86-2.56-.89-.85-1.73-1.75-2.55-2.67-1.13-1.27-2.29-2.52-3.44-3.78-.33-.37-.65-.75-.96-1.14-.2-.24-.41-.48-.62-.71-.07-.08-.18-.08-.26-.02,0,0,0,0,0,0-.19.18-.37.38-.52.6-.01.02-.02.05-.03.07-.03.18.02.36.14.5.14.17.28.33.43.49,1.01,1.07,1.97,2.18,2.93,3.3.53.62,1.05,1.25,1.59,1.86.49.54,1.01,1.04,1.5,1.57,1.23,1.29,2.54,2.51,3.92,3.64.33.28.68.55,1.03.81.69.52,2.51,1.85,2.61,1.91.29.19.75-.98.59-1.09"/>
            <path id="_パス_1284" data-name="パス 1284" class="cls-3" d="m11.7,199.99c.47-.13.88-.42,1.15-.84h0c-.43-.59-.84-1.19-1.29-1.76-.51-.64-.93-1.34-1.43-1.99-.46-.6-.93-1.2-1.37-1.82-.68-.97-1.34-1.95-2-2.93-.41-.62-.82-1.24-1.22-1.87-1-1.64-1.91-3.34-2.73-5.08-.5-1.01-.97-2.03-1.45-3.05-.04-.08-.08-.16-.13-.24-.06-.16-.25-.24-.41-.18-.02,0-.04.02-.05.03-.2.08-.4.18-.58.29-.17.07-.25.27-.18.44,0,0,0,.02.01.02.09.22.19.43.3.64.99,1.9,1.99,3.79,2.99,5.69.38.72.75,1.45,1.17,2.15.57.95,1.17,1.88,1.77,2.81.47.74,1.27,1.95,1.78,2.67s1.02,1.46,1.53,2.19c.59.83,1.19,1.65,1.78,2.47.09.14.21.26.35.36"/>
            <path id="_パス_1285" data-name="パス 1285" class="cls-3" d="m28.79,215.86c-.25-.23-.29-.25-.56-.48s-.51-.43-.77-.64-.53-.46-.81-.68c-.68-.55-1.78-1.48-2.43-2.08-.78-.72-1.56-1.45-2.3-2.22-.89-.93-1.84-1.81-2.72-2.74-.69-.73-1.35-1.49-2.02-2.24-.53-.6-1.37-1.59-1.85-2.23-.68-.9-1.35-1.82-2.01-2.73-.27.15-1.06.52-1.09.85.03.15.09.28.18.4.16.22.31.44.49.64.9,1.03,1.73,2.11,2.55,3.2.88,1.11,1.82,2.17,2.82,3.18.85.9,1.71,1.78,2.55,2.68,1.1,1.16,2.27,2.25,3.5,3.27.72.61,1.49,1.16,2.24,1.74.37.29.75.57,1.13.86.11.09.24.16.38.2.16.05.66-.58.74-.89,0-.04,0-.07-.03-.1"/>
            <path id="_パス_1286" data-name="パス 1286" class="cls-3" d="m13.64,207.13c.17-.16.32-.35.42-.56.05-.11.03-.25-.06-.34-.11-.11-.22-.22-.32-.33-.45-.49-.9-1-1.35-1.49-.73-.79-1.47-1.59-2.13-2.45-.38-.49-.77-.98-1.18-1.44-.77-.88-1.48-1.81-2.18-2.73-.74-.97-1.4-1.99-2.07-3.01-.36-.54-1.1-1.79-1.13-1.85-.46-.78-.94-1.55-1.38-2.35-.28-.51-.27-.61-.91-.29-.05.02-.1.05-.15.07-.34.19-.37.27-.21.6.05.1.1.2.15.29.2.37.41.73.6,1.1.81,1.58,1.73,3.11,2.67,4.61.86,1.37,4.34,5.37,5.02,6.16.18.21,3.25,3.59,3.71,3.97.08.07.19.1.3.1.07,0,.14-.03.19-.08"/>
            <path id="_パス_1287" data-name="パス 1287" class="cls-3" d="m31.27,220.59c-.18-.13-.36-.24-.54-.36-.68-.45-1.38-.88-2.05-1.34-.83-.58-1.64-1.19-2.46-1.8-.77-.58-1.54-1.16-2.29-1.76-.72-.58-1.43-1.18-2.13-1.78-.58-.49-1.14-1.01-1.73-1.5-.86-.73-1.67-1.51-2.5-2.27-.5-.47-.98-.97-1.49-1.43-.31-.28-.59-.61-.88-.91-.12-.12-.31-.13-.43,0,0,0,0,0,0,0-.2.2-.36.43-.5.68.11.23.26.44.44.63.53.55,1.08,1.09,1.6,1.65,1.33,1.4,2.75,2.72,4.24,3.95.77.64,1.54,1.29,2.31,1.92.33.28.67.56,1.02.82,1.17.87,2.32,1.74,3.55,2.53.98.63,1.95,1.26,2.93,1.89.15.1.32.18.49.24.1.03.8-.84.43-1.15"/>
            <path id="_パス_1288" data-name="パス 1288" class="cls-3" d="m15.02,212.13c-.22-.21-.43-.42-.66-.61-.18-.15-2.76-2.63-3.52-3.33-.28-.26-2.05-2.22-2.52-2.7-1.05-1.06-2.01-2.19-2.88-3.4-.7-.95-1.38-1.92-2.06-2.88-.55-.77-1.1-1.53-1.64-2.3-.18-.25-.34-.51-.53-.76-.07-.13-.23-.18-.36-.12-.02.01-.05.03-.07.05-.22.16-.43.34-.63.52-.12.1-.15.27-.07.4.05.1.1.19.17.28.36.52.72,1.05,1.09,1.57.51.71,3.09,4.21,3.91,5.23.49.61,5.53,5.97,6.88,7.11.51.43,1.7,1.61,1.84,1.69.18.11.92-.42,1.06-.75"/>
            <path id="_パス_1289" data-name="パス 1289" class="cls-3" d="m33.46,224.94c-.12-.09-.24-.16-.36-.24-.87-.49-1.74-.98-2.61-1.47-1-.57-2-1.11-2.98-1.71-1.61-.99-3.2-2.01-4.72-3.13-.19-.14-.38-.28-.56-.43-.64-.57-1.32-1.09-2-1.59-1.19-.87-2.35-1.78-3.48-2.71-.36-.3-.72-.61-1.07-.92h0c-.35.04-.64.65-.71,1.07.09.14.19.26.31.37.05.05.1.1.16.15.53.46,1.04.96,1.58,1.42,1.55,1.34,3.2,2.57,4.85,3.79.7.52,1.41,1.02,2.13,1.52,1.3.91,2.64,1.74,4.03,2.5,1.42.77,2.87,1.48,4.27,2.29.13.07.26.13.39.19.14.06.3.04.41-.05.22-.22.37-.5.46-.79.01-.09-.02-.18-.1-.24"/>
          </g>
        </g>
      </g>
      <g id="_グループ_2253" data-name="グループ 2253">
        <g class="cls-6">
          <g id="_グループ_2252" data-name="グループ 2252">
            <path id="_パス_1354" data-name="パス 1354" class="cls-3" d="m15.61,14.79c.54,1.11.85,2.31.92,3.54.17,1.98.03,3.98-.43,5.91-.06.15-.06.32,0,.48.09.13.22.22.36.28.79.38,1.86.72,2.48.13.32-.39.47-.9.41-1.4.13-6.69.24-13.46-1.41-19.97-.18-.63-.32-1.28-.43-1.93-.07-.32-.02-.66.15-.94.2-.21.45-.37.73-.45.93-.36,2.09-.71,2.89-.12.25.2.46.45.62.72,1.21,1.68,2.25,3.48,3.11,5.37.85,1.87,1.12,3.96.76,5.99.44.11.87-.16.98-.6,0-.01,0-.02,0-.04.04-.43-.02-.86-.18-1.26-.16-.4-.13-.86.08-1.24.33-.37.84-.52,1.32-.38.46.14.9.36,1.28.66l3.47,2.42c.29.16.53.41.69.7.11.45.01.92-.26,1.29-.27.59-.73,1.06-1.31,1.34-.75.28-1.59-.02-2.39.1-1.11.16-2.09,1.11-3.18.87-.35.64.09,1.41.56,1.98,3.26,4.06,8.03,6.82,11.67,10.59.21.22.43.52.28.78-2.29-.11-4.09-1.82-6.22-2.59-2.04-.75-4.56-.74-5.98-2.3-.71-.78-1.05-1.89-1.98-2.43-.37.73-.54,1.54-.47,2.36-.08,2.24-.56,4.45-1.43,6.51-.11.4-.4.72-.78.88-.47.07-.92-.18-1.11-.61-.16-.41-.27-.83-.35-1.26-.46-1.65-2.19-2.68-3.82-3.44-.88-.55-1.97-.69-2.96-.37-1.03.51-1.45,1.94-2.6,2.07-.36-1.33-.12-2.76.67-3.89.79-1.12,1.37-2.38,1.71-3.71-.73.12-1.24.78-1.96.95-.78.09-1.57-.12-2.2-.58-.34-.19-.71-.42-.79-.78-.03-.19,0-.39.06-.58.48-1.64,1.27-3.18,2.34-4.52.43-.5.84-1.02,1.21-1.56.24-.39.44-1.13,1-1.21,1-.14,2.13,1.56,2.49,2.24"/>
            <path id="_パス_1355" data-name="パス 1355" class="cls-3" d="m53.5,18.76c.51.3,1.15.25,1.61-.13.42-.37.71-.86.85-1.4.14-.45.23-.91.32-1.36.12-.6.24-1.21.37-1.81.14-.69.28-1.37.37-2.07.16-1.43.14-2.87-.04-4.3-.06-.34-.07-.69-.04-1.03.22-.7.53-1.37.92-1.99.14-.27.18-.57.11-.86-.07-.17-.17-.33-.3-.46-1.22-1.3-3.01-1.92-4.77-1.67-.29.03-.56.12-.8.29-.23.16-.32.46-.22.73l.65-.52c-.97.75-1.75,1.72-2.28,2.83-.07.19-.18.36-.32.5-.16.15-.39.17-.58.06-.12-.12-.18-.28-.17-.45.05-.8-.13-1.59-.53-2.28-.81-.77-1.97-1.06-3.05-.75-.8.12-1.56.45-2.19.97-.61.5-.9,1.29-.76,2.07.08.21.12.44.1.66-.08.21-.2.41-.35.58-.15.17-.17.43-.04.62.48-.28.91-.62,1.3-1.01.1.85-.14,1.7-.67,2.36-.53.67-.94,1.42-1.21,2.22-.11.65-.1,1.32.04,1.96.08.78.26,1.55.52,2.29.66,1.35,1.64,2.53,2.84,3.43.09.09.2.16.32.19.1.02.19,0,.29.01.26.04.4.29.54.49.75.97,2.07,1.29,3.19.78.49-.29.94-.64,1.35-1.04.4-.38.9-.63,1.44-.71.55-.08,1.08.26,1.24.79m-3.58-10.13c.06-.36.05-.72-.03-1.07.76-.03,1.51-.2,2.21-.48.22.63.31,1.3.26,1.96,0,.11-.03.23-.06.34-.09.23-.28.41-.51.48-.57.11-1.15.06-1.69-.14-.44-.26-.27-.67-.17-1.08m-.07,6.94c-.09-.04-.17-.1-.23-.17-.06-.08-.1-.16-.11-.26-.14-.57-.26-1.93.73-1.69.55.13.45.32,1.05.07.4-.19.84-.31,1.28-.35.06,0,.12,0,.17.03.03.03.06.07.07.12.14.43.24.87.29,1.32.02.15.01.33-.12.42s-.29.03-.43.05c-.22.05-.42.16-.59.32-.62.42-1.42.47-2.1.14"/>
            <path id="_パス_1356" data-name="パス 1356" class="cls-3" d="m47.02,20.24c-.41-.42-.68-1.22-1.25-1.46-.48-.14-.99.02-1.31.39-.29.37-.55.75-.78,1.16-.76,1.07-2.18,1.79-2.44,3.05-.05.18-.03.37.06.53.34.51,1.31-.02,1.8.36.46-.32.12-1.07.45-1.51.27-.29.71-.31,1-.04.04.04.08.08.11.13.23.46-.21.96-.61,1.31l-.97.83c-.11.1-.23.21-.23.35s.13.23.25.31c.58.45,1.36.56,2.04.28l.09.92c.02.11,0,.22-.05.32-.06.06-.13.11-.22.14-.57.33-1.25.43-1.9.27-.58-.22-.87-.81-1.18-1.31-.22-.35-.47-.68-.74-.99-.16-.2-.37-.36-.6-.47-.54-.18-1.14.01-1.47.48-.29.45-.37,1.01-.23,1.52.37,1.39,1.57,2.41,3,2.56.29.03.64.06.76.31.03.08.06.17.07.25.15.58.88.83,1.51.88,1.6.12,3.18-.44,4.34-1.55.29-.28.54-.6.72-.96.25-.55.38-1.14.38-1.74.04-1.59-.37-3.15-1.19-4.52-.4-.65-.88-1.25-1.43-1.78"/>
            <path id="_パス_1357" data-name="パス 1357" class="cls-3" d="m62.36,27.42c-.32-1.84-.34-3.71-.06-5.55.15-.65.38-1.4-.05-1.93-.19-.21-.42-.37-.67-.49-.48-.26-.98-.5-1.48-.71-.51-.25-1.07-.41-1.64-.45-.69.02-1.37.19-1.99.48-.43.11-.82.38-1.08.74-.2.38.06.98.51.93-.19.18-.19.49,0,.67.03.03.05.05.09.07.27.15.6.05.75-.22,0,0,0-.01.01-.02.05-.12.06-.28.19-.33.07-.02.14-.01.2,0,1.26.34,2,1.63,1.67,2.88-.33-.2-.65-.43-.95-.68-.74-.54-1.65-.87-2.35-1.47s-1.01-1.63-2.16-.85c-.4.31-.7.73-.86,1.21-.16.47-.34.93-.56,1.37-.14.24-.31.46-.43.7-.16.33-.25.69-.27,1.06-.05,1.86.6,3.67,1.83,5.06.39.55.91,1,1.5,1.32.62.33,1.36.33,1.98,0,.22-.13.43-.33.7-.31.32.06.54.37.49.69-.07.3-.19.59-.35.86-.34.83-.3,1.76.1,2.55.4.8.94,1.53,1.6,2.14.41.55,1.07.86,1.75.84.81-.15,1.11-1.07,1.24-1.82.48-2.89.59-5.82.33-8.73m-3.4,3.32c-.31-.28-.42-.71-.29-1.1.05-.15.15-.29.2-.44.07-.22.09-.46.08-.69.02-.21-.03-.43-.16-.6-.35-.38-3.31.68-2.83-.59.14-.24.4-.38.67-.38.27,0,.55-.05.8-.16.24-.14.36-.4.55-.6s.56-.31.74-.1c.05.06.08.13.1.2.27.72.46,1.47.57,2.23.11.77-.05,1.55-.44,2.22"/>
            <path id="_パス_1358" data-name="パス 1358" class="cls-3" d="m78.52,12.68c-.34-1.25-1.14-2.33-2.23-3.03-1.22-.74-2.28-1.46-3.82-1.32-.36,0-.71.13-1,.34-.19.18-.33.41-.4.66-.13.41-.16.86-.08,1.28.16.58.37,1.14.65,1.67.25.64.46,1.31.61,1.98.23.89.45,1.78.67,2.67.19.52.19,1.1,0,1.62-.16.27-.36.51-.61.71l-2.21,2.02c-.21.23-.48.39-.77.47-.47,0-.91-.18-1.23-.52-.62-.51-1.25-1.03-1.88-1.54-.77.57-1.24,1.46-1.28,2.42.07.53.02,1.07-.14,1.58-.08.13-.15.27-.2.42-.02.34.13.66.4.87.85.88,1.82,1.62,2.9,2.2.25.17.55.25.86.24.83-.12.86-1.34,1.6-1.72.61-.19,1.27-.02,1.71.45,1.55,1.31,2.25,3.27,3.01,5.08.03.1.09.19.16.27.28.2.67.13.88-.14.17-.27.28-.57.31-.89.2-.92.67-1.75,1.34-2.41.47-.37.9-.81,1.27-1.28.27-.53.43-1.11.45-1.7.4-2.65.46-5.34.18-8-.25-1.49-.63-2.96-1.15-4.38m-4.79,11.61c-.11.39-.4,1.11-.93,1.11-.55,0-.96-.76-1.24-1.11-.05-.05-.09-.11-.12-.18-.1-.26.14-.52.34-.72.8-.77,1.42-1.7,1.83-2.72.12.75.19,1.5.22,2.26.03.46,0,.92-.1,1.37"/>
            <path id="_パス_1359" data-name="パス 1359" class="cls-3" d="m91,19.87c-.04-.41-.56-.59-.97-.72-1.4-.45-2.59-1.35-3.96-1.9-.63-.31-1.35-.39-2.04-.23-.5.23-.98.5-1.44.8-.45.22-.95.32-1.4.54-.07.03-.14.08-.18.15-.02.08,0,.16.04.23.77,1.61,3.06,1.31,4.41,2.17-.58.55-1.24,1.02-1.77,1.62-.27.3-.52.61-.75.93-.12.16-.45.88-.61.94,1.09-.46,2.1-1.08,3-1.86.9-.78,1.99-1.31,3.15-1.56.79-.12,1.72-.04,2.27-.57.15-.13.24-.33.24-.53"/>
            <path id="_パス_1360" data-name="パス 1360" class="cls-3" d="m102.98,9.93c.33-.05.67.02.95.2.42.39-.69.86-.92,1.1-.61.62-1.23,1.23-1.86,1.84-.32.31-.81.64-1.21.41-.18-.11-.27-.31-.43-.44-.39-.26-.91-.19-1.23.16-.28.34-.41.77-.37,1.21-.02,1.29.89,2.41,2.16,2.65.97-.03,1.92-.34,2.71-.9,3.07-1.61,6.66-2.06,10.16-2.48-.06-.78-.58-1.44-1.32-1.69-1-.22-2.04-.08-2.95.39-.3-.16-.42-.53-.26-.84.03-.06.07-.11.12-.16.31-.27.69-.46,1.1-.54.41-.08.77-.32,1-.67.35-.73-.57-1.43-.78-2.2-.03-.17-.08-.33-.17-.48-.25-.32-.77-.22-1.19-.22-.74-.07-1.45-.34-2.06-.77-1.51-.96-3.22-1.55-5-1.75-.94.05-1.88-.07-2.78-.34-.32-.2-.67-.33-1.05-.38-.27.02-.53.11-.76.25-.56.29-1.06.69-1.46,1.18-.34.49-.59,1.04-.73,1.62-1.18,4.18-.44,8.65-1.46,12.86-.49,1.39-.75,2.86-.76,4.33.1.55.16,1.11.18,1.67-.07.6-.25,1.18-.53,1.72-.25.57-.51,1.15-.76,1.72-.26.45-.36.98-.28,1.5.14.48.65.75,1.12.6.06-.02.11-.04.16-.07.11-.1.21-.22.27-.35,1.91-3.65,3.07-7.64,3.41-11.75.5-4.06.65-8.16,1.44-12.17,2.02.59,3.4,2.73,5.52,2.8"/>
            <path id="_パス_1361" data-name="パス 1361" class="cls-3" d="m114.32,31.46c-.35-.89-.9-1.68-1.61-2.32l-3.62.35c-.6.1-1.21.08-1.8-.06-.59-.13-1.03-.61-1.1-1.21,0-.65.65-1.24.47-1.87.39.15.84.02,1.09-.32.21-.33.34-.7.38-1.08l.11-.64c.03-.11.03-.22,0-.33-.06-.11-.16-.2-.28-.25-.42-.15-.87-.19-1.31-.12-.44.07-.88.06-1.32-.05-.43-.11-.71-.51-.67-.94,1.33-.4,2.65-.8,3.98-1.2.09-.19-.07-.42-.29-.49-.22-.05-.44-.05-.66,0l-4.9.9c-.37.07-.84.09-1.02-.21-.05-.1-.08-.21-.07-.33.1-.57.51-1.03,1.06-1.19.56-.16,1.14-.22,1.72-.18.03-.15.05-.31.07-.46.94-.25,1.94.07,2.55.83.14.16.32.29.52.36.22.03.45.03.67,0,.55.09,1.05.35,1.44.74.4.39.99.53,1.53.36.07-.69-.3-1.35-.92-1.64-.64-.3-1.33-.47-2.03-.51-.16-.42-.32-.85-.47-1.27,1.42.05,2.84-.11,4.22-.48.14-.03.26-.08.38-.16.12-.1.2-.24.24-.39.15-.45.15-.94-.03-1.38-.16-.41-5.02.94-5.54,1.06-1.45.49-2.93.88-4.42,1.17-1,.09-2.02-.1-3.02.04s-2.04.76-2.13,1.69c-.02.11,0,.22.08.29.12.1.33.03.48.08.14.07.24.21.27.36.13.44.13.91-.01,1.35-.08.2-.13.41-.12.63.07.32.31.57.62.66.32.09.65.12.98.09,1.12-.04,2.23-.15,3.34-.31v1.35c-1.3.44-2.59.88-3.9,1.32-.36.09-.69.27-.97.52-.26.28-.35.68-.22,1.05.15.37.48.63.88.69.58.09,1.15-.25,1.75-.28.49.02.98.11,1.44.26.48.15.99.05,1.38-.26.13.33.14.7.05,1.04-.12.36-.45.6-.82.62-.16-.02-.32-.03-.49-.01-.16.07-.31.17-.42.3-.38.24-.82.37-1.27.37-.82.13-1.67.11-2.48-.06-.22-.09-.45-.12-.69-.09-.54.12-.58.8-.84,1.26-.17.29-.46.53-.5.86-.08.53.51.91,1.03,1.13.47.24,1.01.34,1.54.26.3-.09.59-.22.85-.39,1.02-.56,2.15-.91,3.32-1.02.28,0,.56-.06.83-.14.22-.09.4-.23.61-.32.34-.13.69-.2,1.05-.21,1.36-.17,2.73-.14,4.07.1,1.27.36,2.49.89,3.62,1.57.22.14.47.22.73.23.38-.05.68-.33.76-.7.05-.36,0-.72-.15-1.04"/>
          </g>
        </g>
      </g>
      <g id="Suisho_goya_Mountain_Hut" data-name="Suisho goya Mountain Hut" class="cls-4">
        <g class="cls-4">
          <path class="cls-1" d="m24.34,67.05c-.45-.09-.85-.2-1.2-.33-.11-.04-.23-.06-.35-.06-.19,0-.37.08-.56.22-.07.06-.13.08-.2.08-.08,0-.15-.07-.2-.21l-.56-2.35v-.08s.03-.09.13-.13h.08c.07-.01.12.02.15.1.89,1.6,2.14,2.39,3.75,2.39.62,0,1.19-.15,1.71-.46.53-.3.79-.82.79-1.56,0-.34-.09-.66-.28-.96-.19-.3-.46-.55-.81-.73-.29-.15-.57-.27-.84-.36-.27-.09-.6-.2-.99-.32-.58-.17-.99-.31-1.23-.42-.72-.34-1.21-.71-1.48-1.12-.27-.41-.4-.86-.4-1.36,0-.36.08-.74.25-1.15.17-.41.47-.77.9-1.08.43-.31,1.02-.46,1.76-.46.29,0,.58.03.87.09s.61.15.95.27c.16.05.28.07.38.07.18,0,.34-.06.49-.18.07-.06.14-.08.21-.08.09,0,.15.06.18.18l.59,2.02v.1c.01.06-.02.1-.1.13-.06.02-.1.03-.13.03-.06,0-.1-.03-.14-.08-.11-.19-.31-.44-.6-.76s-.68-.62-1.16-.9-1.03-.42-1.62-.42-1.02.13-1.32.4c-.3.27-.49.54-.57.81s-.13.48-.13.62c0,.66.4,1.2,1.19,1.6.35.17.88.36,1.57.56.41.12.76.23,1.06.34.29.1.58.22.86.36,1.08.56,1.62,1.43,1.62,2.6,0,.51-.14.98-.41,1.39-.28.41-.67.74-1.2.97-.52.24-1.13.36-1.83.36-.35,0-.75-.04-1.2-.13Z"/>
          <path class="cls-1" d="m37.5,66.51s.05.07.05.13c0,.09-.03.15-.1.17l-1.67.27h-.08c-.15.01-.22-.08-.22-.27v-.41c0-.16-.05-.24-.15-.24-.07,0-.13.04-.2.11-.55.57-1.18.85-1.89.85-.8,0-1.37-.21-1.71-.62-.34-.41-.51-.91-.51-1.51v-3.26c-.01-.2-.06-.34-.15-.43-.09-.09-.2-.15-.33-.18s-.33-.06-.59-.08c-.07,0-.1-.03-.12-.06-.01-.03-.02-.07-.02-.12,0-.1.03-.16.08-.18.18-.06.44-.13.78-.21s.67-.16,1-.24c.03,0,.06-.01.1-.01.15,0,.22.09.22.27v1.75c0,1.51,0,2.38.01,2.6.02.43.14.8.36,1.13s.59.48,1.1.48c.35,0,.68-.09,1.02-.27.33-.18.62-.45.86-.81.08-.11.11-.23.11-.36l-.06-3.25c0-.2-.04-.34-.13-.43-.09-.09-.19-.15-.32-.18-.12-.03-.32-.06-.6-.1-.08,0-.13-.08-.13-.22,0-.06.03-.11.08-.13.18-.06.44-.13.78-.21s.67-.16.99-.24c.03,0,.06-.01.1-.01.15,0,.22.09.22.27l.03,5.32c0,.35.19.56.56.63.11.02.21.03.29.03.12,0,.2.01.23.04Z"/>
          <path class="cls-1" d="m38.84,67c-.08,0-.11-.07-.11-.2s.04-.2.11-.2h.18c.27,0,.49-.04.65-.11.16-.07.24-.23.24-.48l-.04-4.27c0-.2-.04-.34-.13-.43-.09-.09-.19-.15-.31-.18-.12-.02-.32-.05-.61-.09-.06,0-.09-.02-.1-.04-.01-.02-.02-.06-.02-.13,0-.05,0-.09.01-.13,0-.04.03-.06.06-.07.19-.06.45-.13.8-.21.34-.08.68-.16,1.01-.24.02,0,.05-.01.1-.01.15,0,.22.09.22.27v5.53c-.01.24.07.4.23.48.16.08.39.11.67.11h.18c.07,0,.1.07.1.2s-.03.2-.1.2h-3.14Zm.88-8.88c-.16-.16-.24-.35-.24-.59s.08-.43.24-.59c.16-.16.35-.24.59-.24s.43.08.59.24.24.35.24.59-.08.43-.24.59-.35.24-.59.24-.43-.08-.59-.24Z"/>
          <path class="cls-1" d="m43.95,67.06c-.09,0-.15-.06-.18-.2l-.42-1.71v-.07c-.01-.06.02-.1.1-.14.02,0,.04-.01.07-.01.07,0,.12.04.17.11.22.29.44.55.66.78s.52.44.92.64c.4.2.85.3,1.37.3.42,0,.76-.12,1.03-.36.27-.24.4-.54.4-.9,0-.21-.06-.41-.18-.59-.12-.18-.29-.32-.52-.42-.23-.11-.7-.27-1.41-.48-.36-.08-.66-.17-.88-.27-.92-.38-1.39-.96-1.39-1.74,0-.21.05-.45.16-.73.11-.29.31-.54.62-.78.3-.23.73-.35,1.28-.35.3,0,.56.04.78.1.22.07.35.11.38.12.18.07.29.1.35.1.18,0,.35-.06.52-.18.08-.06.15-.08.2-.08.07,0,.13.06.17.17l.46,1.5s0,.04.01.08c0,.04,0,.08-.03.1l-.07.06s-.05.01-.08.01c-.06,0-.11-.02-.15-.07-.34-.38-.71-.72-1.11-1.01-.4-.29-.9-.44-1.48-.44-.31,0-.56.06-.76.18-.2.12-.35.27-.43.43s-.13.33-.13.48c0,.21.07.38.2.52.13.15.36.29.67.44.2.1.57.23,1.13.39.61.19,1.05.34,1.33.46.82.37,1.23.94,1.23,1.69,0,.59-.22,1.07-.66,1.43-.44.37-1.04.55-1.79.55-.4,0-.91-.1-1.51-.29-.22-.07-.36-.1-.41-.1-.11,0-.24.05-.39.15-.07.07-.13.1-.2.1Z"/>
          <path class="cls-1" d="m57.78,66.62c.07,0,.1.07.1.2,0,.12-.03.18-.1.18h-3.14c-.07,0-.11-.06-.11-.18,0-.13.04-.2.11-.2h.18c.27,0,.49-.04.65-.11.16-.07.25-.23.25-.48v-2.38c-.01-.44-.02-.81-.04-1.11-.03-.5-.14-.91-.35-1.23-.21-.32-.57-.48-1.08-.48-.36,0-.7.09-1.03.27-.33.18-.62.46-.88.82-.07.11-.11.23-.11.36v3.74c0,.24.08.4.25.48.16.08.39.11.67.11h.17c.08,0,.13.07.13.2,0,.12-.04.18-.13.18h-3.12c-.07,0-.11-.06-.11-.18,0-.13.04-.2.11-.2h.17c.28,0,.5-.04.67-.11.16-.07.25-.23.25-.48l-.04-7.73c0-.2-.04-.34-.13-.43-.09-.09-.19-.15-.32-.18-.12-.03-.32-.06-.6-.1-.09,0-.14-.05-.14-.13v-.1c0-.07.03-.11.08-.13.19-.06.45-.13.8-.21.34-.08.68-.16,1.01-.24.02,0,.05-.01.1-.01.15,0,.22.09.22.27v3.84c-.01.17.03.25.13.25.06,0,.13-.04.21-.13.54-.57,1.16-.85,1.86-.85s1.27.2,1.63.61c.36.41.55.91.58,1.52,0,.15.01.44.01.87v2.88c.01.23.1.39.27.47s.39.12.66.12h.18Z"/>
          <path class="cls-1" d="m60.63,66.67c-.5-.35-.88-.8-1.15-1.34-.27-.54-.4-1.09-.4-1.65,0-.6.13-1.17.39-1.71.26-.54.64-.98,1.14-1.32.5-.34,1.08-.5,1.76-.5s1.26.17,1.76.5.89.77,1.16,1.32c.27.54.4,1.11.4,1.71,0,.56-.13,1.11-.4,1.65-.27.54-.65.99-1.16,1.34-.5.35-1.09.53-1.76.53s-1.24-.17-1.74-.53Zm3.32-.83c.39-.57.58-1.29.58-2.16,0-.91-.19-1.65-.57-2.21-.38-.55-.91-.83-1.58-.83s-1.19.28-1.57.84c-.38.56-.57,1.29-.57,2.2,0,.56.09,1.07.26,1.53.17.46.42.83.74,1.09.32.27.7.4,1.14.4.66,0,1.19-.29,1.57-.86Z"/>
          <path class="cls-1" d="m77.77,60.04c.11.12.17.25.17.39,0,.15-.05.28-.15.39-.1.11-.25.17-.44.17-.12,0-.24-.03-.35-.1-.13-.06-.25-.08-.35-.08-.12,0-.28.09-.49.28-.07.06-.1.13-.1.21,0,.07.02.13.06.2.17.31.25.65.25,1.02,0,.31-.07.64-.2,1-.14.36-.4.68-.79.96-.39.28-.93.42-1.62.42-.22,0-.45-.02-.69-.07-.04,0-.09-.01-.15-.01-.08,0-.16.02-.24.06-.15.08-.27.15-.35.23-.08.08-.13.15-.13.2,0,.08.07.14.2.19s.38.11.74.17c1.22.22,2.15.43,2.79.62.4.12.73.3.99.52.26.23.39.52.39.86,0,.46-.19.83-.57,1.13s-.85.52-1.41.65c-.56.13-1.12.2-1.69.2-.71,0-1.3-.09-1.77-.27-.47-.18-.82-.4-1.04-.66-.22-.26-.34-.52-.34-.77,0-.29.13-.53.38-.73.25-.2.64-.4,1.16-.6.1-.04.15-.08.15-.13,0-.06-.06-.1-.18-.14-.31-.08-.54-.19-.69-.32s-.23-.27-.23-.42c0-.29.31-.58.92-.87.11-.06.17-.11.17-.17s-.05-.12-.14-.18c-.33-.22-.58-.5-.75-.83s-.26-.69-.26-1.07c0-.43.12-.82.35-1.18.23-.36.55-.64.95-.85s.84-.31,1.32-.31c.74,0,1.36.21,1.86.62.08.07.15.1.21.1.06,0,.13-.04.2-.13.21-.25.43-.46.67-.63.24-.17.48-.25.71-.25.21,0,.36.06.48.18Zm-2.3,7.1c-.46-.16-1.2-.33-2.21-.5-.03,0-.07-.01-.13-.01-.09,0-.18.02-.25.06-.94.44-1.41.87-1.41,1.3,0,.39.23.69.69.88.46.2,1.05.29,1.77.29.52,0,.97-.06,1.34-.18s.64-.28.83-.47.27-.38.27-.57c0-.33-.3-.59-.9-.8Zm-.55-3.3c.27-.38.41-.84.41-1.37,0-.49-.14-.92-.41-1.28-.27-.36-.68-.54-1.23-.54-.59,0-1.01.19-1.27.57-.26.38-.39.81-.39,1.29,0,.53.14.98.41,1.35.27.37.7.55,1.29.55.52,0,.92-.19,1.2-.57Z"/>
          <path class="cls-1" d="m80.6,66.67c-.5-.35-.88-.8-1.15-1.34-.27-.54-.4-1.09-.4-1.65,0-.6.13-1.17.39-1.71.26-.54.64-.98,1.14-1.32.5-.34,1.08-.5,1.76-.5s1.26.17,1.76.5.89.77,1.16,1.32c.27.54.4,1.11.4,1.71,0,.56-.13,1.11-.4,1.65-.27.54-.65.99-1.16,1.34-.5.35-1.09.53-1.76.53s-1.24-.17-1.74-.53Zm3.32-.83c.39-.57.58-1.29.58-2.16,0-.91-.19-1.65-.57-2.21-.38-.55-.91-.83-1.58-.83s-1.19.28-1.57.84c-.38.56-.57,1.29-.57,2.2,0,.56.09,1.07.26,1.53.17.46.42.83.74,1.09.32.27.7.4,1.14.4.66,0,1.19-.29,1.57-.86Z"/>
          <path class="cls-1" d="m93.97,60.28c.07,0,.1.07.1.2s-.03.2-.1.2c-.52,0-.91.25-1.15.76-.18.36-1.08,2.59-2.7,6.66-.39.88-.79,1.45-1.2,1.71-.41.26-.82.39-1.25.39-.25,0-.46-.06-.63-.17-.17-.11-.25-.25-.25-.42s.05-.32.16-.43.26-.17.46-.17c.16,0,.33.04.52.11.15.06.29.1.43.1.2,0,.41-.1.63-.31.22-.21.41-.48.56-.81l.38-.92c.03-.07.04-.13.04-.2s-.01-.13-.04-.2l-2.32-5.52c-.11-.25-.24-.41-.39-.48-.15-.07-.36-.11-.62-.11-.07,0-.1-.07-.1-.2s.03-.2.1-.2h3.11c.08,0,.11.07.11.2s-.04.2-.11.2c-.3,0-.54.04-.73.13s-.29.2-.29.35c0,.05.01.11.04.18l1.6,3.92c.02.06.05.1.08.13.04.03.08.05.11.05.07,0,.14-.06.2-.2.35-.84.67-1.61.94-2.3.28-.69.47-1.2.6-1.51.02-.05.03-.11.03-.18,0-.19-.11-.33-.32-.43-.21-.1-.46-.15-.73-.15-.07,0-.1-.07-.1-.2,0-.06,0-.11.02-.15s.04-.05.08-.05h2.74Z"/>
          <path class="cls-1" d="m101.73,65.98v.08c-.15.4-.36.69-.64.85-.28.17-.55.25-.8.25-.23,0-.43-.06-.6-.18s-.3-.29-.39-.5c-.06-.11-.11-.17-.17-.17-.04,0-.09.03-.17.08-.32.26-.67.46-1.07.59-.4.13-.79.2-1.17.2-.54,0-.98-.13-1.31-.38s-.5-.6-.5-1.04c0-.35.08-.64.22-.9.15-.25.39-.48.73-.67.21-.12.46-.23.78-.33.31-.1.74-.22,1.29-.37.49-.13.82-.22.98-.27.17-.05.25-.15.25-.32v-.35c0-.45-.02-.78-.07-.99-.05-.21-.14-.41-.28-.57-.21-.25-.56-.38-1.05-.38-.35,0-.61.08-.78.25-.18.17-.33.42-.45.77-.16.45-.39.67-.69.67-.17,0-.32-.05-.46-.16-.14-.11-.2-.25-.2-.43s.06-.39.19-.62c.13-.24.38-.46.77-.66.39-.2.94-.3,1.66-.3.42,0,.82.07,1.2.22.38.14.65.32.8.54.14.2.24.4.29.61.05.21.08.46.08.75,0,.44,0,.83-.01,1.16v2.03c-.01.38.06.64.2.77.14.13.29.2.43.2.12,0,.25-.04.39-.12.13-.08.25-.2.34-.36.03-.05.06-.07.1-.07.08,0,.11.03.11.1Zm-3.59.36c.31-.13.59-.31.85-.55.09-.1.14-.16.14-.18h0s.03-1.55.03-1.55c0-.11-.03-.19-.09-.24-.06-.05-.14-.06-.25-.03-.96.24-1.66.49-2.11.75s-.67.61-.67,1.06c0,.26.09.48.27.67s.48.27.9.27c.3,0,.6-.06.92-.19Z"/>
        </g>
        <g class="cls-4">
          <path class="cls-1" d="m14.96,82c-.07,0-.11-.07-.11-.21,0-.12.04-.18.11-.18h.2c.31,0,.59-.11.84-.32s.38-.48.38-.8v-7.39c0-.33-.1-.55-.29-.68s-.5-.19-.93-.19h-.2c-.07,0-.1-.06-.1-.2s.03-.2.1-.2h2.37c.18,0,.29.08.35.22l3.18,7.59c.04.12.1.18.2.18.07,0,.14-.06.2-.18l3.35-7.59c.06-.15.18-.22.34-.22h2.25s.08.02.09.05c.01.03.02.08.02.15,0,.13-.04.2-.11.2h-.21c-.44,0-.75.07-.92.2-.18.13-.27.36-.27.67v7.63c0,.33.09.56.28.69s.49.2.91.2h.21c.07,0,.1.06.1.18,0,.14-.03.21-.1.21h-3.93c-.06,0-.08-.07-.08-.21,0-.12.03-.18.08-.18h.24c.43,0,.74-.07.92-.2.19-.14.28-.36.28-.68v-6.72c0-.08-.01-.15-.04-.19-.03-.04-.07-.06-.11-.06-.07,0-.14.06-.2.18l-3.4,7.84c-.07.15-.13.22-.18.22s-.12-.07-.18-.22l-3.32-7.83c-.06-.12-.12-.18-.18-.18-.05,0-.08.02-.11.06-.03.04-.04.1-.04.19v6.47c0,.32.13.58.39.8s.53.32.81.32h.22c.06,0,.08.06.08.18,0,.14-.03.21-.08.21h-3.39Z"/>
          <path class="cls-1" d="m30.49,81.67c-.5-.35-.88-.8-1.15-1.34s-.4-1.09-.4-1.65c0-.6.13-1.17.39-1.71.26-.54.64-.98,1.14-1.32.5-.34,1.08-.5,1.76-.5s1.26.17,1.76.5c.5.34.89.77,1.15,1.32.27.54.4,1.11.4,1.71,0,.56-.13,1.11-.4,1.65s-.65.99-1.15,1.34c-.5.35-1.09.53-1.76.53s-1.24-.17-1.74-.53Zm3.32-.83c.39-.57.58-1.29.58-2.16,0-.91-.19-1.65-.57-2.21-.38-.55-.91-.83-1.58-.83s-1.19.28-1.57.84c-.38.56-.57,1.29-.57,2.2,0,.56.09,1.07.26,1.53.17.46.42.83.74,1.09.32.27.7.4,1.14.4.66,0,1.19-.29,1.57-.86Z"/>
          <path class="cls-1" d="m44.1,81.51s.05.07.05.13c0,.09-.03.15-.1.17l-1.67.27h-.08c-.15.01-.22-.08-.22-.27v-.41c0-.16-.05-.24-.15-.24-.07,0-.13.04-.2.11-.55.57-1.18.85-1.89.85-.8,0-1.37-.21-1.72-.62-.34-.41-.51-.91-.51-1.51v-3.26c-.01-.2-.06-.34-.15-.43-.09-.09-.2-.15-.33-.18-.13-.03-.33-.06-.59-.08-.07,0-.1-.03-.12-.06-.01-.03-.02-.07-.02-.12,0-.1.03-.16.08-.18.18-.06.44-.13.78-.21s.67-.16,1-.24c.03,0,.06-.01.1-.01.15,0,.22.09.22.27v1.75c0,1.51,0,2.38.01,2.6.02.43.14.8.36,1.13.22.32.59.48,1.1.48.35,0,.68-.09,1.02-.27.33-.18.62-.45.86-.81.07-.11.11-.23.11-.36l-.06-3.25c0-.2-.04-.34-.13-.43-.09-.09-.19-.15-.31-.18-.12-.03-.32-.06-.6-.1-.08,0-.13-.08-.13-.22,0-.06.03-.11.08-.13.18-.06.44-.13.78-.21s.67-.16.99-.24c.03,0,.06-.01.1-.01.15,0,.22.09.22.27l.03,5.32c0,.35.19.56.56.63.11.02.21.03.29.03.12,0,.2.01.23.04Z"/>
          <path class="cls-1" d="m53.01,81.62c.07,0,.11.07.11.2,0,.12-.04.18-.11.18h-3.14c-.07,0-.1-.06-.1-.18,0-.13.03-.2.1-.2h.2c.27,0,.49-.04.64-.11.16-.07.24-.23.24-.48v-2.6s-.03-.9-.03-.9c0-.5-.11-.9-.33-1.23-.22-.32-.59-.48-1.11-.48-.35,0-.7.09-1.03.27-.33.18-.62.46-.88.83-.07.12-.1.24-.1.36v3.74c-.01.23.07.39.24.47s.39.12.66.12h.18c.07,0,.1.07.1.2,0,.12-.03.18-.1.18h-3.14c-.07,0-.11-.06-.11-.18,0-.13.04-.2.11-.2h.18c.27,0,.49-.04.66-.12s.25-.24.25-.47l-.04-4.28c0-.2-.04-.34-.13-.43-.09-.09-.2-.15-.32-.18-.13-.03-.33-.06-.61-.1-.06,0-.09-.03-.1-.06-.01-.03-.02-.09-.02-.16,0-.06.02-.11.07-.13.19-.06.45-.13.8-.21.35-.08.68-.16,1.01-.24.02,0,.05-.01.1-.01.15,0,.22.09.22.27v.38c0,.16.05.24.14.24.07,0,.14-.04.21-.11.53-.56,1.15-.84,1.85-.84.74,0,1.29.2,1.67.61.38.41.58.91.61,1.5,0,.17.01.5.01,1.01,0,.76-.01,1.68-.04,2.76,0,.24.08.4.25.48.16.08.38.11.65.11h.18Z"/>
          <path class="cls-1" d="m55.3,81.8c-.28-.27-.41-.67-.41-1.22v-4.48c0-.09-.03-.17-.08-.22-.05-.05-.12-.08-.22-.08h-.55c-.09,0-.17-.02-.22-.07-.05-.05-.08-.11-.08-.2,0-.15.08-.26.24-.34.41-.16.73-.41.97-.76.23-.35.42-.9.57-1.66.05-.19.12-.28.21-.28.1,0,.15.1.15.29v2.2c0,.09.03.17.08.22s.12.08.22.08h1.25c.2,0,.29.08.29.25,0,.08-.03.15-.08.2-.05.05-.12.07-.22.07h-1.26c-.09,0-.17.03-.22.08-.05.05-.08.12-.08.22v4.4c.02.32.11.57.28.76s.38.29.64.29c.21,0,.39-.03.52-.1s.27-.17.4-.32c.05-.06.09-.08.14-.08s.09.02.13.07c.04.05.06.09.06.14,0,.04,0,.07-.03.1-.37.57-.89.85-1.55.85-.51,0-.91-.13-1.18-.4Z"/>
          <path class="cls-1" d="m65.72,80.98v.08c-.15.4-.36.69-.64.85s-.55.25-.8.25c-.23,0-.43-.06-.6-.18s-.3-.29-.39-.5c-.06-.11-.11-.17-.17-.17-.04,0-.09.03-.17.08-.32.26-.67.46-1.07.59-.4.13-.79.2-1.17.2-.54,0-.98-.13-1.31-.38-.33-.25-.5-.6-.5-1.04,0-.35.07-.64.22-.9.15-.25.39-.48.73-.67.21-.12.46-.23.78-.33.31-.1.74-.22,1.29-.37.5-.13.82-.22.98-.27.17-.05.25-.15.25-.32v-.35c0-.45-.02-.78-.07-.99s-.14-.41-.28-.57c-.21-.25-.55-.38-1.05-.38-.34,0-.61.08-.78.25-.18.17-.33.42-.45.77-.16.45-.39.67-.69.67-.17,0-.32-.05-.46-.16s-.2-.25-.2-.43.06-.39.19-.62c.13-.24.38-.46.77-.66.39-.2.94-.3,1.66-.3.42,0,.82.07,1.2.22s.65.32.8.54c.14.2.24.4.29.61.05.21.08.46.08.75,0,.44,0,.83-.01,1.16v2.03c-.01.38.06.64.2.77.14.13.29.2.43.2.12,0,.25-.04.38-.12.14-.08.25-.2.34-.36.03-.05.06-.07.1-.07.07,0,.11.03.11.1Zm-3.59.36c.31-.13.59-.31.85-.55.09-.1.14-.16.14-.18h0s.03-1.55.03-1.55c0-.11-.03-.19-.09-.24-.06-.05-.14-.06-.25-.03-.96.24-1.66.49-2.11.75s-.67.61-.67,1.06c0,.26.09.48.27.67.18.18.48.27.9.27.3,0,.6-.06.92-.19Z"/>
          <path class="cls-1" d="m66.58,82c-.08,0-.11-.07-.11-.2s.04-.2.11-.2h.18c.27,0,.49-.04.65-.11.16-.07.24-.23.24-.48l-.04-4.27c0-.2-.04-.34-.13-.43-.09-.09-.19-.15-.31-.18-.12-.02-.32-.05-.61-.09-.06,0-.09-.02-.1-.04-.01-.02-.02-.06-.02-.13,0-.05,0-.09.01-.13,0-.04.03-.06.06-.07.19-.06.45-.13.8-.21.34-.08.68-.16,1.01-.24.02,0,.05-.01.1-.01.15,0,.22.09.22.27v5.53c-.01.24.07.4.23.48.16.08.39.11.67.11h.18c.07,0,.1.07.1.2s-.03.2-.1.2h-3.14Zm.88-8.88c-.16-.16-.24-.35-.24-.59s.08-.43.24-.59c.16-.16.35-.24.59-.24s.43.08.59.24.24.35.24.59-.08.43-.24.59-.35.24-.59.24-.43-.08-.59-.24Z"/>
          <path class="cls-1" d="m78.59,81.62c.08,0,.11.07.11.2,0,.12-.04.18-.11.18h-3.14c-.07,0-.1-.06-.1-.18,0-.13.03-.2.1-.2h.2c.27,0,.49-.04.64-.11.16-.07.24-.23.24-.48v-2.6s-.03-.9-.03-.9c0-.5-.11-.9-.33-1.23-.22-.32-.59-.48-1.11-.48-.36,0-.7.09-1.03.27-.33.18-.62.46-.88.83-.07.12-.1.24-.1.36v3.74c-.01.23.07.39.24.47s.39.12.66.12h.18c.07,0,.1.07.1.2,0,.12-.03.18-.1.18h-3.14c-.07,0-.11-.06-.11-.18,0-.13.04-.2.11-.2h.18c.27,0,.49-.04.66-.12s.25-.24.25-.47l-.04-4.28c0-.2-.04-.34-.13-.43-.09-.09-.2-.15-.32-.18-.13-.03-.33-.06-.61-.1-.06,0-.09-.03-.11-.06-.01-.03-.02-.09-.02-.16,0-.06.02-.11.07-.13.19-.06.45-.13.8-.21.34-.08.68-.16,1.01-.24.02,0,.05-.01.1-.01.15,0,.22.09.22.27v.38c0,.16.05.24.14.24.07,0,.13-.04.21-.11.53-.56,1.15-.84,1.85-.84.74,0,1.29.2,1.67.61.38.41.58.91.61,1.5,0,.17.01.5.01,1.01,0,.76-.01,1.68-.04,2.76,0,.24.08.4.25.48.16.08.38.11.65.11h.18Z"/>
          <path class="cls-1" d="m94.36,81.61s.08.02.09.05c.01.03.02.08.02.15,0,.13-.04.2-.11.2h-3.96c-.07,0-.1-.07-.1-.2s.03-.2.1-.2h.22c.42,0,.73-.07.92-.2.19-.14.29-.36.29-.67v-3.49c0-.09-.03-.17-.08-.22-.05-.05-.12-.08-.22-.08h-5.04c-.09,0-.17.03-.22.08-.05.05-.08.12-.08.22v3.47c0,.33.09.55.28.68s.49.19.92.19h.21s.08.02.09.05c.01.03.02.08.02.15,0,.13-.04.2-.11.2h-3.96c-.07,0-.1-.07-.1-.2s.03-.2.1-.2h.22c.42,0,.73-.07.92-.2.19-.13.29-.36.29-.67v-7.63c0-.33-.1-.55-.29-.69-.2-.13-.5-.2-.91-.2h-.22c-.07,0-.1-.07-.1-.2s.03-.2.1-.2h3.96s.08.02.09.05c.01.03.02.08.02.15,0,.13-.04.2-.11.2h-.21c-.44,0-.75.07-.93.2-.18.13-.27.36-.27.69v3.04c0,.09.03.17.08.22.05.05.12.08.22.08h5.04c.09,0,.17-.03.22-.08.05-.05.08-.12.08-.22v-3.02c0-.33-.1-.56-.29-.69-.2-.13-.5-.2-.91-.2h-.22c-.07,0-.1-.06-.1-.2s.03-.2.1-.2h3.96s.08.02.09.05c.01.03.02.08.02.15,0,.13-.04.2-.11.2h-.21c-.44,0-.75.07-.93.2-.18.13-.27.36-.27.69v7.63c0,.33.09.55.28.68s.49.19.92.19h.21Z"/>
          <path class="cls-1" d="m103.05,81.51s.05.07.05.13c0,.09-.03.15-.1.17l-1.67.27h-.08c-.15.01-.22-.08-.22-.27v-.41c0-.16-.05-.24-.15-.24-.07,0-.13.04-.2.11-.55.57-1.18.85-1.89.85-.8,0-1.37-.21-1.71-.62-.34-.41-.51-.91-.51-1.51v-3.26c-.01-.2-.06-.34-.15-.43-.09-.09-.2-.15-.33-.18s-.33-.06-.59-.08c-.07,0-.1-.03-.12-.06-.01-.03-.02-.07-.02-.12,0-.1.03-.16.08-.18.18-.06.44-.13.78-.21s.67-.16,1-.24c.03,0,.06-.01.1-.01.15,0,.22.09.22.27v1.75c0,1.51,0,2.38.01,2.6.02.43.14.8.36,1.13s.59.48,1.1.48c.35,0,.68-.09,1.02-.27.33-.18.62-.45.86-.81.08-.11.11-.23.11-.36l-.06-3.25c0-.2-.04-.34-.13-.43-.09-.09-.19-.15-.32-.18-.12-.03-.32-.06-.6-.1-.08,0-.13-.08-.13-.22,0-.06.03-.11.08-.13.18-.06.44-.13.78-.21s.67-.16.99-.24c.03,0,.06-.01.1-.01.15,0,.22.09.22.27l.03,5.32c0,.35.19.56.56.63.11.02.21.03.29.03.12,0,.2.01.23.04Z"/>
          <path class="cls-1" d="m105.39,81.8c-.28-.27-.41-.67-.41-1.22v-4.48c0-.09-.03-.17-.08-.22-.05-.05-.12-.08-.22-.08h-.55c-.09,0-.17-.02-.22-.07-.05-.05-.08-.11-.08-.2,0-.15.08-.26.24-.34.41-.16.73-.41.97-.76.23-.35.42-.9.57-1.66.05-.19.12-.28.21-.28.1,0,.15.1.15.29v2.2c0,.09.03.17.08.22.05.05.12.08.22.08h1.25c.2,0,.29.08.29.25,0,.08-.03.15-.08.2-.05.05-.12.07-.22.07h-1.26c-.09,0-.17.03-.22.08-.05.05-.08.12-.08.22v4.4c.02.32.11.57.28.76s.38.29.64.29c.21,0,.39-.03.52-.1.14-.07.27-.17.4-.32.05-.06.09-.08.14-.08s.09.02.13.07c.04.05.06.09.06.14,0,.04,0,.07-.03.1-.37.57-.89.85-1.55.85-.51,0-.91-.13-1.18-.4Z"/>
        </g>
      </g>
      <line id="_線_1182" data-name="線 1182" class="cls-5" x1="61.5" y1="102" x2="61.5" y2="118"/>
    </g>
  </g>
</svg>