<?xml version="1.0" encoding="UTF-8"?>
<svg id="_レイヤー_2" data-name="レイヤー 2" xmlns="http://www.w3.org/2000/svg" xmlns:xlink="http://www.w3.org/1999/xlink" viewBox="0 0 117.3 222.1">
  <defs>
    <style>
      .cls-1 {
        isolation: isolate;
      }

      .cls-2 {
        stroke: #fff;
      }

      .cls-2, .cls-3 {
        fill: none;
      }

      .cls-3, .cls-4, .cls-5 {
        stroke-width: 0px;
      }

      .cls-6 {
        clip-path: url(#clippath-1);
      }

      .cls-4 {
        fill: #fff;
      }

      .cls-7 {
        clip-path: url(#clippath);
      }

      .cls-5 {
        fill: #d9d9d9;
      }
    </style>
    <clipPath id="clippath">
      <rect class="cls-3" y="119" width="117.3" height="103.1"/>
    </clipPath>
    <clipPath id="clippath-1">
      <rect class="cls-3" x="5.44" width="106.43" height="25.88"/>
    </clipPath>
  </defs>
  <g id="_レイヤー_1-2" data-name="レイヤー 1">
    <g>
      <g id="_グループ_2714" data-name="グループ 2714">
        <g class="cls-7">
          <g id="_グループ_2161" data-name="グループ 2161">
            <path id="_パス_1290" data-name="パス 1290" class="cls-4" d="m72.02,150.67c.2-.21.36-.05.47-.26s.2-.2.24-.35c.13-.23.28-.44.46-.64,0,0,.12-.28.26.01.09.25.15.51.21.77.1.25.07.62.31.78.24.16.07.39.27.6.15.19.28.39.4.6.07.09.17.15.28.19.11.04.24.05.36.05.13-.07.25-.15.37-.24.08-.14.14-.29.17-.45.09-.28.04-.58-.13-.82-.16,0-.31-.1-.34-.26-.04-.21-.11-.42-.21-.61-.02-.01-.38-1-.53-1.2-.09-.15-.15-.32-.18-.49-.02-.01-.07-.15-.05-.15s.66-.42.71-.57.15-.11.28-.24c.13-.1.27-.18.41-.25.03-.03,1.05-.56,1.05-.56.13,0,.25-.03.36-.1.13-.12.38-.1.44-.12s.15.12.15.27-.2.73-.12.95-.05.45-.05.58-.1.25-.05.39.04.19.12.2c.13,0,.25-.05.36-.12.26-.2.46-.46.57-.76.15-.44.27-.89.34-1.35.18-.29.29-.63.32-.97-.02-.49.13-.47-.24-.66s-.24-.33-.54-.26-.62,0-.83.07-.11-.1-.46.15c-.3.16-.59.35-.87.55-.25.23-.37.15-.56.34s-.29.13-.45.29-.17.1-.36.23-.35.13-.42.22-.07.04-.18.18l-.03.04s.01-.03-.14.14c-.25.28-.19.16-.32.29l-.12.13s-.02.02-.07,0c-.1-.16-.21-.31-.34-.45-.21-.18-.01-.24-.24-.32s-.25-.19-.32-.19c-.04,0-.09-.02-.12-.05,0,0,.54-.44.54-.53s.14-.09.15-.17.26-.11.38-.23c.08-.09.18-.15.29-.19.07-.03.24-.1.26-.15s.2-.07.26-.09.26.02.33-.02.45-.02.46-.2c0-.09,0-.18-.01-.26.09-.12.12-.28.09-.42-.06-.25-.1-.51-.32-.6s-.46-.23-.63-.15-1.28.94-1.36,1-.73.56-.8.66c-.16.23-.35.44-.54.64-.26.17-.51.36-.73.58-.12.15-.26.28-.43.38-.08.05-.38.04-.54.32s-.3.27-.23.48c.04.19.14.36.29.49.17.09.35.16.54.19.1,0,.17.16.36,0s.36-.22.46-.39c.1-.16.24-.3.41-.39.1-.02.11.14.15.19.09.1.21.19.33.25.12.04-.01.15.14.23s.15.14.17.18l.05.15c-.42.36-.8.77-1.14,1.21-.19.36-.32.08-.36.22s-.12.18-.12.33,0,.07.12.26c.08.13.21.23.36.26.14.06.22.42.42.21m-.72,1.17c-.01-.16,0-.33.02-.49-.06-.11-.15-.21-.25-.29-.1-.08-.22-.14-.35-.16h-.12c-.06.03-.43.05-.49.24-.06.19-.16.07-.19.26s-.14.14,0,.4c.11.16.18.35.2.54.02.2.02.59.04.75s.01.48.02.63.08.36,0,.49-.16.16-.16.28-.09.28-.07.4.09.09.17.19c.06.08.14.13.23.15.05,0,.08.18.32.17s.42-.02.47-.11.15-.33.19-.41c.05-.14.08-.28.09-.42,0-.11.03-.77.04-.81s-.05-.81-.1-1.13,0-.53-.05-.67m-7.06,56.73c-.51,0-.53-.08-.77,0-.29.02-.58.03-.87.02-.29.05-.59.06-.89.06-.29-.01-.58,0-.87.03-.2.03-.39,0-.53.04-.13.03-.27.05-.41.04l-.06-.11c.03-.16.06-.32.11-.47.08-.25.2-.42.2-.5s.03-.34.03-.34c.09-.17.04-.39-.12-.5-.28-.18-.28-.2-.4-.18s-.23.03-.3.06-.11-.18-.23-.01-.51.26-.51.44-.04.23-.04.58c0,.24-.04.47-.09.7-.02.19-.05.38-.09.56l.12-.36s.07-.22.09-.28c-.02.18-.05.47-.07.61-.03.21-.1.17-.19.22-.22.16-.47.26-.74.31-.11,0-.21,0-.32.01-.06-.27-.13-.55-.22-.81-.1-.35-.19-.7-.25-1.06v-.25s.43-.14.48-.25.07,0,.25-.11c.18-.1.38-.18.58-.22.07,0,.34-.11.66-.19s.45-.14.65-.19c.25-.04.5-.06.76-.06.16,0,.32-.04.47-.08.22-.04.54.18.74.12s.41.11.78.08.75.04.82-.1.3-.2.3-.42.23-.52.08-.65c-.15-.14-.34-.23-.54-.28-.14-.01-.48-.17-.64-.13s-.42.03-.63.09-.39-.03-.77.06-.44-.08-.82.09-.51.01-.9.15c-.23.07-.46.11-.7.14-.13.06-.29-.08-.57.08s-.36.06-.57.2c-.13.07-.27.13-.42.18-.13.07-.24.04-.29.09-.06.05-.13.08-.2.09-.14,0-.27-.03-.4-.09-.09-.06-.18-.11-.27-.16,0,0-.22-.07-.26-.02-.09.06-.19.12-.29.18-.12.02-.23.08-.3.18-.15.18-.31,0-.28.25s-.12.08.08.32.25.13.4.44c.11.2.2.4.26.62.06.22.33,1.74.33,1.74,0,0,0,.34.13.46.06.06.12.13.17.2l-.06.09s-.67.02-.76.18-.41.18-.41.18c-.24.04-.47.12-.69.23-.4.18-.78.38-1.16.61-.12.15-.41.09-.57.26s-.25.21-.26.31-.1.1,0,.25,0,.06.2.19c.13.08.28.13.43.15.03.02.07.04.28.04.27.05.54-.04.73-.24.55-.32,1.14-.56,1.76-.71.17-.24.44-.39.74-.4.33-.02.66-.09.97-.21.12-.04.51-.23.49-.35s.5-.14.64-.25c.14-.09.3-.15.46-.19.11-.04.21-.08.31-.13.18-.07.36-.12.55-.14.27-.02.53-.07.78-.15.18-.06.36-.1.55-.1.07-.01,1.13.1,1.34.12s.29-.04.34.02c.08.07.18.11.29.12.09.01.45.04.64.04.17,0,.34-.03.5-.09.03-.02.35-.13.43-.24s.12-.12.12-.24.11-.43.09-.49.12-.45-.39-.45m-10.37-54.28c-.02.08.11.24.22.34.14.12.32.2.5.23.23,0,.45-.12.56-.32.33-.44.45-1,.32-1.53-.13-.89-.57-.63-.81-.84s-.38.03-.62.09-.15.49-.15.49c.06.16.05.34-.02.5-.05.35-.05.7,0,1.05m-12.92-2.57c.5.15.57.13.83,0s.22-.33.29-.57c.01-.45-.16-.89-.49-1.2-.36-.15-.78-.12-1.11.09-.18.25-.22.57-.1.85.12.32.32.6.58.82m11.16,2.35c.12.14.3.26.51.05s.35.12.36-.38.48-.79.07-1.12c-.27-.21-.6-.33-.94-.35,0,0-.28.12-.29.32s-.17.03-.18.38-.16.19.08.51.27.46.39.6m29.73,1.95c-.28-.17-.29-.13-.45-.39s-.09,0-.25-.05-.17,0-.26-.08-.18-.04-.52-.26l-.12-.08c-.1.01-.21.04-.31.07-.04,0-.08,0-.12,0-.03,0-.23.06-.31.06s-.13.11-.27.21-.04.35-.06.44c0,.12.04.23.1.33l-.11.16-.4.24c-.16.17-.36.3-.57.4-.15.06-.29.15-.42.24-.03-.14-.03-.29,0-.44.05-.17.15-.21.12-.32s.11-.14.05-.22.03-.07.08-.22c.08-.18.11-.38.1-.57-.05-.11-.11-.22-.18-.32,0,0-.01-.02-.03-.04.02,0,.03-.02.03-.08,0-.12.16-.04.19-.13s.28-.15.87-.46c.18-.1.26-.14.3-.15,0,0,0-.02.05-.06.19-.17.28-.09.45-.23s.38-.11.57-.27c.11-.08.2-.19.26-.32.09-.17.21-.08.31-.24.14-.16.26-.32.37-.5.21-.35.11-.26.11-.33s-.08-.17-.12-.31-.11-.06-.28-.26-.18,0-.26,0-.37.08-.45.08-.17.15-.22.23c-.13.13-.25.26-.35.41-.09.16-.49.53-.68.5s-.19.11-.27.12-.33.22-.41.25c-.17.13-.36.23-.56.3-.32.1-.13.25-.42.34-.14.04-.27.1-.38.2l.02.1-.03-.03s-.05.12-.63.32c-.38.08-.74.26-1.03.52-.15.19-.86,1-1,1.17s-.8.61-.82.83-.15.2-.22.34-.24.12-.22.22-.33-.43-.06.2.19.6.31.68c.12.06.25.1.38.12.13.03.14-.04.22,0,.11.04.23.03.33-.03.16-.11.31-.23.44-.38.11-.12.2-.24.29-.36,0-.02-.29-.33.29-.94.36-.42.75-.81,1.17-1.16.02.05.09-.19.15.17.03.28-.02.56-.15.81-.13.31-.2.63-.23.97.03.24-.13.37-.15.47s-.1-.06-.05.26-.02.42.1.63.07.41.51.41.55.07.78-.04c.2-.07.36-.21.46-.39.12-.21.22-.51.29-.59s.39-.36.39-.36c.07-.06.21-.02.29-.09.1-.05.19-.11.28-.17.04-.05.44-.36.6-.54s.38-.49.63-.55.08.05.12.12c.07.09.14.16.23.24.09.09.19.16.3.23.07.06.16.1.25.11.13.04.19.06.34.1.13.02.27,0,.39-.05.11-.03.28-.36.41-.63s-.05-.31-.11-.66-.18-.12-.45-.29m-6.27-3.38c-.06.15-.25.24-.27.33s-.13.15-.18.2c-.05.06-.11.11-.17.17-.08.18-.23.33-.41.42-.29.13-.47.08-.53.22s-.12.12-.11.29-.35-.04.12.29.48.32.6.34.05.25.29,0,.31-.35.37-.41c.14-.09.27-.2.39-.32.15-.18.22,0,.34-.24.06-.15.18-.26.33-.32.13-.09.27-.16.41-.22.11-.03.23-.04.34-.05.21-.05.42-.12.61-.22.09-.01.23.08.24-.27s.01-.56-.16-.63-.18-.15-.41-.12c-.23,0-.46.04-.68.09-.23.08-.46.04-.61.15s-.45.15-.51.31m19.41-16.33c.34-.36.71-.85.71-.85.3-.28.61-.53.94-.76.17-.06.29-.17.4-.17.13,0,.26-.04.37-.11.11-.05.22-.1.32-.15.18-.1.38-.16.59-.17.37-.06.53-1.03.42-1.19-.11-.15-.26-.26-.43-.32-.18-.08-.39.08-.57.08-.31.09-.61.19-.9.32-.14.03-.39.17-.45.19s-.12.08-.43.45-1.42,1.39-1.58,1.58c-.18.18-.39.34-.62.46-.13.07-.27.11-.42.14-.15.04-.31.08-.46.09-.2.04-.39.08-.59.14-.31.06-.12.09-.22.16s0,.32,0,.32c0,.12,0,.25,0,.37.01.05.28.18.43.34s.31.06.77,0c.24-.02.47-.1.67-.25.38-.17.73-.39,1.04-.66m22.27,6.98c-.13-.21-.63-.42-.9-1.06s0-.29-.45-.95c-.06-.09-.11-.17-.16-.24l-.39-.58s-.61-.61-.55-.95-.21-.5-.32-.74-.37,0-.53-.29.13-.87-.32-1.06-.5-.42-.69-.84-.45-.74-.66-1.24-1.06-1.11-.9-1.51-.63-.72-.63-.72c0,0-.32-.21-.32-.44s.05-.92-.34-1.22c-.25-.15-.44-.38-.53-.66-.08-.21-.08-.95-.53-1.14-.31-.17-.55-.44-.69-.77,0,0-.45-1.24-.87-1.4s-.1-1-.47-1.03-.19-.34-.61-.79-.32-.85-.71-1.16-.47-.79-.61-.87-.16-1.64-.74-1.58-.58-.74-.58-.74c0,0-.26-.71-.76-.71s-.79-.13-.95,0-.9-.96-1.48-.06-.63.85-1.11.8-.82-.45-1.21.13-1.21.69-1.69,1.29-.87.37-1.14.66-.85.21-1,.55c-.1.35-.43.59-.79.58-.42.02-.81.25-1.03.61-.05.21-.58.24-.71.42s-1.06.05-.98.74c0,0-.1-.14-.46.24s-.68.25-.9.58-.64.14-.84.48-.3.07-.8.37-.98.43-1.19.59-.24-.04-.65.18c-.13.07-.27.1-.42.09-.04-.34-.2-.66-.45-.88-.57-.5-.6-.32-.76-.64-.18-.46-.39-.91-.62-1.35-.37-.64-.11-1.17-.82-1.7-.44-.34-.76-.8-.92-1.33,0,0-.43-.94-.78-1.1s-.43-.64-.69-.64-1.35-.5-1.67-.48c-.59,0-1.18.08-1.74.25-.53.23-.89.25-1.12.37s-1.05-.3-1.56.28c-.41.39-.9.67-1.44.83-.21.11-.57.07-.85.71-.27.52-.59,1.01-.95,1.47-.09.18-.21-.11-.5.46s-.5.25-.85,1.01-.73,0-.53,1.12c.06.77.17,1.53.32,2.29.18.34.21,2.09,1.01,2.59s.96.96,1.01,1.22c.03.42.21.82.5,1.12.31.41.58.85.8,1.31.13.15.05.36.18.49-.16.08-.3.2-.41.34-.34.42.17.08-1.01.56s-1.29.34-1.65.92-.73.4-1.15.72c-.68.32-1.33.69-1.96,1.1-.48.48-.58.14-1.28.88-.06.03-.13.03-.19,0-.22-.08-.49.3-.61.32s-.5.54-1.04.61-.36.25-.62.22-.66.54-.77.54-.6.5-.99.41-.73.35-.77.38-.52.71-.88.6-.58.44-.68.39-.8.32-.8.32c-.6-.43-1.24-.8-1.93-1.08-.52-.11-.99-.39-1.33-.79-.08-.13-.13-.29-.27-.35-.09-.04-.19-.03-.28-.06-.2-.08-.23-.36-.38-.53-.23-.25-.63-.15-.97-.19-.67-.09-1.07-.78-1.67-1.09-.22-.08-.42-.2-.59-.35-.13-.16-.18-.39-.36-.49-.2-.11-.48,0-.68-.12-.15-.09-.2-.28-.31-.42-.23-.3-.66-.34-1-.5-.58-.28-.96-.96-1.6-1.04-.15,0-.3-.02-.45-.04-.36-.1-.55-.53-.9-.65-.23-.08-.49-.03-.7-.14-.24-.13-.32-.42-.43-.66-.03-.07-.07-.14-.12-.21.02-.15.04-.3.03-.45.08-.7.33-1.37.71-1.97.42-.77.83-1.53,1.25-2.3l1.19-2.21c.17-.27.28-.57.31-.89-.03-.03-.06-.06-.09-.09-.06-.05-.15-.09-.18-.16-.02-.05-.02-.1-.01-.15.01-.14.02-.27.03-.41l-.65-1.36c-.26-.53-.52-1.07-.83-1.58-.18-.07-.32-.2-.41-.37-.03-.09-.08-.18-.12-.26-.08-.12-.22-.18-.32-.28-.09-.11-.15-.23-.2-.36-.05-.12-.11-.24-.18-.36-.32-.36-.66-.71-1-1.05l-.07-.07c-.08,0-.16-.02-.23-.05-.21-.09-.29-.35-.47-.49-.16-.09-.34-.15-.52-.18-.33-.11-.59-.39-.68-.73h0c-.06.14-.22.21-.36.15-.12-.05-.18-.17-.17-.29l-.54.02c-.06,0-.11,0-.17-.02-.07-.05-.11-.13-.12-.22-.49.03-.98-.11-1.38-.39-.08-.09-.16-.17-.26-.24-.35-.2-.76.19-1.16.24-.3.03-.6-.13-.89-.06-.2.07-.38.19-.51.35-.45.35-.75.86-.83,1.42.02.22.03.44.02.66-.12.7-1.13.92-1.35,1.59-.03.25-.08.5-.14.74-.11.19-.25.36-.41.5-.34.37-.52.87-.5,1.37-.24-.1-.4.23-.47.48s-.38.52-.53.31c.06.33.04.66-.04.99-.09.3-.35.53-.66.58-.06-.02-.12-.02-.18-.02-.23.02-.44.18-.66.13-.24-.05-.38-.3-.56-.48-.4-.39-1.06-.35-1.54-.63-.36-.22-.6-.61-.98-.8-.33-.17-.83-.29-.81-.66-.67.15-1.3-.79-1.92-.51.04-.4-.02-.92-.41-1.01-.27-.06-.55.16-.82.07-.3-.1-.48-.57-.78-.47l-.05-.47c-.65.11-1.13-.56-1.71-.89.04,0,.08.02.13.03l-.17-.05.04.02c-.88-.2-1.7-.59-2.4-1.15-.22-.2-.46-.38-.72-.54l-.05-.02c-.5-.44-1.07-.77-1.69-.99-.39-.11-.9-.25-.93-.65-.48-.13-.99-.03-1.38.27-.16.17-.25.42-.46.52-.07.02-.14.06-.21.1-.19.14-.1.46-.21.67-.1.17-.31.23-.44.37-.14.21-.22.46-.24.71-.13.37-.32.72-.57,1.02-.67.97-1.13,2.07-1.36,3.23-.02.19-.08.36-.17.53-.21.3-.64.36-.91.61-.15.15-.26.32-.35.51-.26.44-.44.93-.55,1.43-.02.3-.07.6-.16.88-.05.11-.12.22-.19.33-.35.54-.66,1.1-.93,1.68-.01,0-.03.02-.04.02-.41.31-.69.76-.78,1.26-.02.16-.06.32-.11.48-.17.35-.62.5-.76.86-.11.29,0,.65-.18.89-.13.18-.36.24-.52.38-.21.23-.34.52-.37.83-.2.76-.53,1.49-.98,2.14-.19.23-.33.5-.42.79-.01.23-.05.46-.11.68-.12.3-.44.46-.64.71-.44.57-.26,1.58-.9,1.91-.07.03-.14.07-.2.12-.08.1-.05.24-.11.35-.07.14-.24.18-.39.24s-.28.22-.21.36c-.27.07-.46.32-.45.61.02.27.11.53.27.75.19.3.51.62.86.52.12.27.36.47.65.54.11,0,.22.04.31.11.05.07.1.14.13.22.21.37.74.37,1.15.49.33.12.65.3.92.53l.68.5c.09.07.19.14.3.18.09.02.18.04.27.04.04.08.09.16.14.23.38.51.89.2,1.34.83s1.27.21,1.9.61c.38.18.72.43,1.01.73.54.52.91.07,1.34.56.31.42.76.72,1.27.84.63.21.66.33,1.17.89s.61.07,1.31.42.49.42.84.94.45-.16,1.1.21.89.54.89.54l.15.15c-.1.38-.22.76-.32.78-.35.1-.6.4-.63.76,0,.42-.72.8-.8,1.05s-.38-.21-.42.59-1.05,1.56-.97,2.32,0,.67-.3,1.31-.97,1.18-1.01,1.56-.68.72,0,1.35c.09.08.18.16.28.23.04.22.13.43.26.6-.24.29-.65.56.04.93.24.13.4.22.5.3.07.27.17.52.3.76.3.52.3.59.43.81s.09.62.29.87.46.44.47.62h0c0,.33.02.96.25,1.03.3.08-.04.04.34.46s.59.08.67.55-.38.72.42,1.31.76.63.8.97-.08.67.34.97c.39.28.87.42,1.35.38.3-.08.76.04.93-.21s.42-.21.67-.67.93-1.9,1.26-2.53.84-1.01.8-1.31,0,.13.42-.42-.34-.55.67-1.6.51-1.05,1.31-2.32.93-.78.93-1.61.21-.92.59-1.42c.31-.55.56-1.12.75-1.72.17.16.35.27.42.13.05-.13.17-.22.3-.26,0,0,.1.19.75.2s.77-.04.94.13c.14.15.27.31.39.49.18.17.4.3.63.4.06.01-.14.31.26.23.4-.09.33-.07.73.27s.63.34.68.34.33.3.58.34.46-.26.54.13.03.43.23.47.16.13.38.21c.25.16.52.26.81.3.36,0,.33-.09.54.2s.19.43.41.53.28.49.68.53.34-.26.71.21.47.51.64.54c.31-.04.62.05.87.24.22.17.46.32.7.46.08.07.3.24.3.24,0,.17.13.3.3.3,0,0,0,0,.01,0,.31.01.33-.19.5.07.15.23.47.31.68.65.13.44.18.9.16,1.36-.07.97-.32,1.12,0,1.49s.07,1.16,0,1.49c-.05.64,0,1.28.17,1.9.13.22-.35.75,0,1.2.28.26.43.63.39,1.01,0,.49-.3.08-.15.6s.26.67.15.9-.55.37-.44,1.01.35,5.15.49,5.64c.09.27.09.55,0,.82,0,0-.2.07-.2.49s-.3.41-.26.82c.02.21-.01.42-.09.61-.27-.09-.54-.16-.82-.2-.21-.05-.43-.05-.63.02l-.37.22s-.9.02-1.08-.19-.58-.02-.73-.06c-.59,0-1.17-.08-1.74-.24-.78-.28-.9.28-1.04.39-.3.25-.71.31-1.06.15-.47-.24-.5.32-.6.41s-.32.24-.86.06-.13.11-.75.58-.78.37-.78.37c0,0-.41.88-.73,1.05s-.15.43-.17.5c-.02.2-.12.39-.28.52-.26.24-.11.74-.11.74-.03.2-.1.38-.21.55-.1.51-.03,1.04.17,1.51.12.16.13.38.03.56-.11.26.11.88.13,1.01.13.39.35.74.64,1.03.45.5.17.47.3.79s.13.2.52.82.21.04.49.37.41.22.75.62c.36.31.77.57,1.21.76.26.07.52.11.78.11.26.22.5.46.73.71.16.23.46.34.73.26,0,0,4.59.06,5.25.06s.62.32.62.32c.12.29.2.59.24.9.02.37,0,1.1,0,1.1v4.65c0,.95.34.99.34.99l.17,9.71-.39.24c-.12.31-.15.64-.09.97.08.65.78.6.78.6l.19.21c.19.2,1.12,0,1.4,0,.29-.02.58-.07.86-.13h9.75c.53,0,.45-.16.45-.16.15.08.3.14.46.18.12.01.24-.06.29-.18h1.05c.16.12.35.18.54.17.14-.02.29-.06.42-.12,0,0,3.4.18,3.7.11s.08-.29.21-.33.48.14.48.14c0,0,1.69-.01,1.77,0,.29,0,.58-.04.85-.16.18-.13.49.15.49.15,0,0,.74,0,.93,0,.18-.02.36-.08.53-.17.19-.08.43.16.43.16,0,0,1.72.03,2.06-.01s1.18.05,2,0c.49-.03.47-.13.38-.21.22-.25.34-.57.36-.91v-1.58c-.2-.25-.34-.55-.4-.86,0-.35.1-5.15.1-5.15,0,0,.16-.11.06-.43l-.14-.48.14-3-.21-.24-.03-5.57s.56-.35.48-.57c-.03-.08-.04-.17-.02-.26h2.31s.61-.1,1.03-.13,2.11,0,2.11,0c0,0,.11-.13.32-.01.15.07.32.09.47.05.2-.1.4-.18.61-.25.08,0,2.74.17,2.74.17l6.38-.17s.34.37.53.17c.17-.13.39-.19.61-.17h.82s1-.32,1.06-.63c.03-.23.03-.46,0-.69l-.29-.63-.76-1.64s.24-.24-.16-.34c-.23-.06-.4-.24-.45-.47.03-.39-.06-.78-.26-1.11-.19-.22-.36-.46-.5-.71l-.26-.66c0-.11-.07-.21-.16-.26-.16-.1-.08-1.06-.34-1.19-.16-.09-.28-.23-.34-.4,0,0-.21-.9-.37-.9s-.11-1.16-.24-1.16-.47-.34-.47-.34l-.4-.61s-.03-.63-.45-.63h-3.82c-.13-.16-.32-.25-.53-.26h-.76s-.76-.13-.9,0c-.15.1-.32.18-.5.21-.27-.12-.55-.17-.84-.16-.37.05-.4.18-.66.05-.24-.09-.49-.15-.74-.16l-.63.16s-.24-.16-.24.18-.32,1.08-.55.9-.13-1-.13-1l-.29-.24h-2.27c-.22-.08-.43-.21-.61-.36-.2-.21-.33-.66-.55-.74-.08-.03-.15-.08-.22-.12v-3.58s-.02-.47-.15-.53,0-9.54,0-9.54c0,0,.09-.47.15-.76.03-.22.03-.44,0-.66-.09-.09-.15-.21-.18-.34v-1.53l.08-.47s.07.14.12-.17.11-.68.11-.68c.04-.24.3-.19.54-.4s.63-.13,1.03-.37c.34-.15.63-.39.85-.69.26-.37.58-.37.87-.47.48-.23.94-.5,1.37-.82.29-.2.36-.27.36-.29h.04c.33-.18.64-.39.92-.63.41-.37.91-.61,1.45-.69.74-.11.37-.29.42-.29.39-.34.81-.65,1.27-.9.29-.11.57-.26.82-.45,0,0,.5-.5.92-.48s.47-.63.87-.63c.3-.02.59-.15.79-.37.16-.13.4.05.82-.16.25-.13.45-.36.53-.63,0,0,.37-.32.58,0,.21.24.47.42.77.53,0,0,.47.45.47.69s-.37.29,0,.58.74.24.76.37.32.37.37.69-.11.32.4,1.06.61.74.61.92-.05.77.26.77c.17-.01.33.08.4.24,0,0-.11.4.16.5s.37-.05.42.18c.13.36.31.71.52,1.03.25.33.42.71.51,1.11,0,.23.1.45.29.58.11.08.22.15.34.21,0,0,.34-.21.34.29s-.5.4,0,.76.74.47.79.74c.08.28.35.46.63.42.26-.05.42.21.63-.13s.42-.03.45-.42.53-.5.61-.82-.26-.79.13-.87.55-.22.58-.48.03-.6.24-.74.18-.96.18-.96l.53-.31c.09-.41.32-.78.66-1.03.53-.34.05-.32.29-.69s.82-.79.79-1.19c0-.3.08-.6.21-.87,0,0,.53-.71.58-.85s.42-.53.58-.87.61-.82.45-1.21.03-.98-.21-1.27-.13-.87-.32-1-.21-.55-.21-.55c0,0-.18-.71-.4-.87-.15-.15-.24-.35-.26-.55-.08-.26-.18-.51-.32-.74-.18-.29-.1-.58-.26-.87-.2-.28-.43-.53-.69-.76-.19-.32-.27-.69-.21-1.06.03-.08.05-.17.06-.25l.26-.12c.27-.08.51-.23.69-.45.21-.32.18-.37.58-.4s.16,0,.85-.4.79-.61.85-.79.87.05,1.08-.24.16-.42.53-.45.03-.37.61-.53c.28-.06.55-.16.79-.32.18-.1.34-.21.5-.34.21-.13.42-.34.58-.37.26.02.53-.05.74-.21.34-.26.56-.76.82-.82s.16.18.61-.15c.29-.24.63-.43,1-.54.13,0,.16.13.34-.1s.03-.34.47-.4.4-.05.69-.4.4-.45.53-.48c.17-.08.33-.19.47-.32l.26.03c.2-.02.38-.1.53-.24.11-.12.24-.22.37-.32l.9-.24,1-.69s.85-.18,1.06-.61.47-.58.34-.79m-81.21,49.83c-.07.14-.37.14-.49-.12s-.21-.06-.84-.11c-.37-.06-.74.01-1.06.2-.34.13-.24-.2-.24-.2.03-.22.03-.45-.01-.67-.07-.2.07-.13.14-.43s.26,0,.47-.26.37-.15,1.29-.28.3.28.39.45c.17.24.32.5.45.76.22.47-.02.52-.09.67m6.1-2.43c.17-.33.32-.06.62-.13s.47.27.47.27c0,0,.02,2.35,0,2.38s-.02.36-.28.44c-.19.04-.39.04-.58,0-.01-.12-.05-.24-.11-.36-.06-.12-.1-.24-.13-.37,0,0,0-.69.04-.95s.02-.34-.17-.75-.02-.2.15-.53m1.2,7.09c-.02.13-.09.37-.19.75-.06.22-.02.45.09.64,0,.31-.03.63-.09.93-.09.2-.37.11-.84.09s-.39-.01-.56-.35-.32-.64-.39-.8c-.07-.25-.13-.51-.17-.76,0,0,.15-.56,0-.76s-.52.26-.52.26c0,0-.22.3-.34.49s.04.76-.07.92c-.12.22-.17.48-.15.73,0,.3-.65.28-.65.28,0,0-.76.09-.92-.19s-.65,0-.65,0l-.02-.92.17-.11c.17-.11.15-.36.13-.6-.02-.17.05-.33.17-.45.09-.13.02-.58.02-.58,0,0,.06-.84.06-1.4s-.17-.73-.17-.73v-2.56c-.01-.26-.13-.5-.32-.67-.28-.3,0-.45,0-.64,0-.19.15-.35.34-.37.17,0,.32-.26.32-.26,0,0,.76-.07.97-.13.18-.04.36.05.43.22.04.13.45.42.45.42,0,0,.06,2.58.02,2.94s.24.47.37.65.32.11.6.24.43-.06.69-.19.15.02.11.22.19.24.19.41.15.26.35.28.15.22.13.43.45.82.45.82c0,0,.02.62,0,.75m30.02-.02v-.15c0-.12,0-.24,0-.38v-.39c0-.31,0-.66.01-1.01v-.21c0-.14,0-.29,0-.43v-.09c0-.48.01-.94.02-1.35v-.84h0v-1.06c.16-.16.35-.28.56-.36.2.01.4-.03.58-.13.08-.08.24.05.29-.13.83-.13,1.67-.16,2.5-.11l.29-.02s.24.49.4.25l.16-.24.5-.02s.32.31.42.2.53.35.53.35c-.1.22-.1.48,0,.71.12.2.23.41.32.63.03.08-.03.55.11.68s-.16.32,0,.58c.09.13.14.27.16.42,0,0-.4.29,0,.32.29.01.58.01.87,0-.05-.47-.05-.93,0-1.4.08-.82.05-.92-.13-1.13s-.05-.69-.05-.69l.1-.21,3.8-.08,1.16.05c.13.1.29.14.45.11.26-.05.37.45.37.45-.06.3.09.61.37.74.31.21.53.53.61.9,0,0-.26.69,0,.9s.58.26.63.38c.1.13.16.28.18.44.01.22.07.44.18.63.22.2.35.47.37.76.02.27.14.52.32.71.22.29.4.6.55.92.05.26-.08.24.11.47s.05.18.24.5.47.76.26.92c-.39.16-.82.22-1.24.18-.7-.07-1.41-.07-2.11,0-.21.13-.46.19-.71.18-.26,0-.18-.26-.76-.26s-.82.26-.98-.16c-.14-.4-.2-.82-.18-1.24.03-.26.18-1-.08-1.21s-.13-.69-.13-.97.18-.29-.05-.61-.45-.74-.84-.47-.63.26-.55.69.13-.42.26.82c.08.85.09,1.71.03,2.56-.15.02-.27.14-.29.29-.03.26-.63.37-.71.37-.31.06-.62.05-.92-.03-.29-.1-.59-.15-.9-.16-.13,0-1.74-.11-1.74-.11,0,0-.32.47-.34-.69,0-.8.04-1.6.13-2.4-.13-.12-.24-.26-.34-.4-.05-.1-.1-.79-.42-.61s-.79.11-.79.42v1.16c-.02.55-.09,1.1-.21,1.64-.05.27-.2.51-.42.66-.25.19-.56.28-.87.24-.22-.04-.44-.12-.63-.24-.13-.08-.32-.24-.55-.11s-.52.26-.53.19h0c0-.07-.02-.13-.04-.2-.11-.4.02-.81-.14-1.1-.1-.18-.16-.37-.18-.57,0-.07,0-.24,0-.47m-.01,23.64h-.02s-.01-.02-.01-.02l.04.02m8.12-93.07h0c.14-.07.26-.16.36-.27.02-.11.46-.85.82-.37.28.39.49.81.64,1.26.11.3-.14.57.07,1.06.04.1.07.21.1.31-.05.04-.1.08-.14.13-.2.23-.36.14-.59.4s-.65-.2-.89.25-.47.2-.97.7c-.27.31-.61.55-.98.72-.2.09-.36-.03-.36.19h0c-.09.06-.16.13-.23.21-.53.59-.92.48-1.4.76s-.84.08-1.37.53-.78.42-1.03.64c-.14-.22-.26-.41-.26-.41,0,0-.32-.32.46-.73s1.19-.87,1.65-.96,1.03.11,1.31-.48.5-.34.55-.98c.04-.56.13-.98,0-1.15.22-.14.45-.27.68-.38.6-.27.37-.79.85-1.02.26-.1.51-.23.74-.38m-2.85-5.67c.21-.12.57.14.53.5s-.53,0-.53,0c0,0-.21-.39,0-.5m-5.27,1.58c.14-.09.32-.25.55-.41s.52-.48.57-.23c0,.03.02.06.02.09.03.16.02.51-.48.64-.66.18-.8,0-.66-.09m-.53,7.04c-.06-.39-.07-.79-.05-1.19.07-.05-.46-.37.48-.41s1.54-.23,1.65-.55.11-.41.37-.44.62-.78,1.51-1.08.89.27,1.33-.6.62-1.08.78-1.17,1.12-.76,1.26-.89.02-.92.48-.5c.36.36.54.87.5,1.38,0,.38-.07.77-.21,1.12-.11.21-.78.34-.78.53,0,.07-.08.16-.16.26-.4-.05-.8.15-1.01.49-.28.57-.48.66-.73.69s-2.04.24-2.06.81c-.1,0-.19.05-.23.24-.09.44-.8.34-.05.76s.69.32.76.41-.16.53-.5.71-1.15.14-1.51.3-.11,1.03-.94.16-.87-.78-.89-1.03m-35.68-9.83c.03-.15.15-.27.3-.3.08,0,.15,0,.23,0s.15-.1.11-.16c.16,0,.32.02.47.08.26.05.53-.06.68-.27.22.19.51.27.8.22l.48.3c.12.08.26.18.23.32s-.18.2-.31.24c-.22.09-.47.1-.69.01-.06-.04-.12-.07-.18-.1-.16-.04-.3.11-.38.25-.05.16-.14.3-.26.41-.13.08-.28.1-.43.06-.12-.02-.23-.07-.33-.15-.09-.08-.12-.21-.07-.32h-.52c-.06.01-.13-.03-.14-.09,0-.01,0-.03,0-.04-.03-.15-.03-.3,0-.44m.66,3.39c.13,0,.29.03.35.14.07.13-.02.31.05.44.06.07.14.13.22.16.19.13.34.32.43.53.09.21.23.4.41.55.19.14.46.12.62-.05-.02.22.26.33.48.34s.49,0,.6.19c.03.08.06.15.1.22.17.21.57-.03.76.15.07.07.1.17.16.25.1.1.23.16.38.17l.93.17c.15.02.3.06.44.12.11.07.21.12.33.17.18.03.35.05.53.04.43.05.88.42,1.24.18.14.08.08.31-.04.42s-.28.2-.32.36.09.36,0,.51c-.11.16-.38.09-.53.21-.2.16-.05.48-.09.73-.06.34-.48.51-.58.84-.08.27.06.61-.14.8-.17.15-.49.1-.59.31-.03.06-.04.14-.09.19-.11.09-.24-.05-.34-.14-.29-.21-.66-.3-1.02-.23-.11.02-.22,0-.32-.06-.05-.05-.1-.11-.14-.17-.19-.25-.56-.26-.85-.38-.42-.21-.71-.61-.78-1.07-.07-.46-.04-.92.08-1.37.03-.1.04-.21.02-.31-.04-.14-.13-.26-.25-.34-.23-.18-.5-.31-.79-.37-.34-.07-.74-.06-.96-.33-.07-.08-.11-.18-.17-.27-.31-.33-.76-.52-1.21-.5-.08,0-.15-.02-.22-.06-.17-.12-.08-.4-.17-.59-.07-.16-.25-.24-.38-.37-.43-.4-.24-1.11-.38-1.68l2.25.1m-4.24,4.28c-.02-.18-.05-.36-.07-.54l.6-.03v-.55c.3.03.58-.14.69-.42.5.24.92.62,1.22,1.09.03.09.08.17.15.23.1.05.21.07.32.05l.88-.06c-.09.29.37.41.54.67s-.02.6-.25.81-.52.37-.63.66c-.1.25-.06.6-.3.73-.19.1-.42-.02-.6-.14l-1.61-1.05c-.16-.11-.33-.21-.51-.28-.19-.27-.45-.49-.76-.62.1-.22.1-.55.33-.54m-8.35,36.19c-.33.64-.72,1.23-1.18,1.78-.59.55-.63.13-1.31-.04s-.55-.25-1.18-.84-.76-.17-.93-.63-.38-.67-1.01-1.18-.63,0-.8.35.17.62.46,1.09c.15.28.37.53.63.72.34.4.65.82.93,1.26.46.59.67.13.89.59.15.28.44.46.76.47.2.5.2,1.05,0,1.54-.3,1.09-.34.39-.59.85s-.3,1.18-.46,1.39c-.2.22-.46.37-.76.42-.42.13-.38.46-.63,1.1s-.51-.04-.67-.42c-.35-.61-.56-1.28-.63-1.98-.04-.93-.51-.63-.72-.93s-.25-.88-.67-1.69-.38-.59-1.1-1.1-.04-.76-.13-1.64-.67-.76-.72-1.11c-.09-.54-.09-1.09,0-1.63.13-.8.3-.55.67-1.1.37-.55-.17-1.18.25-1.18.42,0,.42-.59.8-1.26s.17-.59.42-.8.55-.17.97.42.25,0,.55.38.17.42.63.84,1.05,1.14,1.18,1.26c.5.23.97.5,1.43.8.51.42.8.04,1.18.42s.5.21,1.31.71.84.55.42,1.13m1.81-3.14c-.25.63-.67.21-.8.21-.6-.03-1.2-.14-1.77-.34-.53-.16-1.04-.37-1.52-.63-.46-.35-.88-.74-1.26-1.18-.76-.8-1.01-.29-1.6-1s-.25-.73-.46-1.49-.42-.25-.76-.72c-.17-.24.09-.41.39-.52.38.05.75.13,1.12.24.3.16.68.16.98.66s.68.09,1.08.56c.48.41,1.02.74,1.59.98.42.26.84.33,1.62.77s.47.38,1.03.24c.07-.02.14-.02.21,0,.06.06.12.13.17.2.04.16.04.32.01.48,0,0,.13.11.3.24-.07.44-.18.88-.34,1.3m16.87,5.88l-.45-.22c.02-.13.28.04-.36-.32-.38-.18-.73-.4-1.07-.64-.31-.24-.04.2-.58-.3-.19-.22-.41-.41-.65-.57-.47-.34-.6-.4-.44-.56s.57-.24.57-.83.5-.67-.01-.96-.51-.58-.74-.27-.5.09-.61.36-.71.16-.73.33-.23.06-.26.24-.38.24-.36.41-.04-.07-.43-.19c-.38-.08-.74-.23-1.07-.43-.6-.33-.77-.65-1.06-.71s-.24.07-.57-.26-.37-.11-.61-.46-.2-.47-.54-.41-.34-.31-.67-.44-.6-.46-.84-.48-.77-.47-.91-.34-.21-.23-.21-.23c0,0,.44-.36.47-.6s.49-.28.09-.48.01-.46-.53-.44-.61-.42-1.06,0c-.09.1-.21.19-.34.24-.12-.22-.85.25-1.31-.27s-.75.14-1.1-.15-.84-.6-.96-1.04-.59.05-.82-.38-.52,0-.94-.61-.7.14-.94-.35-.89-.38-1.12-.61.23-.47.33-.49c.24-.06.47-.15.68-.28.23-.16.09-.21.23-.54s.33.07.84,0,.47-.3.61-.73-.14-.3-.63-.49-.68.12-1.03.09-.66.21-1.01.21c-.31.04-.61.12-.89.23-.3.07-.21-.12-.61-.3s-.59.54-.7.7-.44.12-.82-.38-.53.02-.82-.16c-.5-.24-.96-.55-1.38-.91-.44-.47-.44-.07-.94-.42s-.44-.12-.44-.38-.05-.19-.07-.44,1.06-.12,1.38-.14,1.43,0,1.92-.09.35-.35.23-.8-.56-.33-.66-.47-.21-.19-.66-.42-.63-.05-.96.3-1.38.26-1.64.26-.4-.07-.56-.49-.35-.16-.89-.09-.07.4-.26.7-.47.26-.68,0-.35-.14-.75-.12-.49-.02-.7-.4-.52-.38-.75-.59c-.25-.36-.66-.56-1.1-.54-.7.02.07-.42-.52-.61-.23-.09-.37-.32-.33-.57.59-.38.91-1.23,1.61-1.29.18.01.37.01.56,0,.18-.03.36-.2.31-.38-.07-.26-.48-.2-.67-.38-.08-.07-.12-.18-.2-.25-.12-.09-.27-.12-.42-.11-.61-.11-1.24.08-1.7.5-.07.12-.16.22-.27.3-.31.16-.66-.24-1-.16-.17.04-.34.2-.5.14-.1-.03-.16-.13-.24-.2-.42-.35-1.08.34-1.57.11-.11-.07-.22-.15-.32-.23-.1-.05-.21-.1-.32-.14-.68-.29-1.09-.98-1.02-1.71.08-.44.26-.86.51-1.24.18-.37.44-.7.76-.95.23-.16.51-.25.79-.25.13.01.26,0,.39-.01.35-.13.55-.48.5-.85-.06-.35-.17-.7-.33-1.02-.15-.33-.16-.71-.01-1.04.24-.42.89-.64.85-1.12-.04-.14-.07-.29-.09-.43.01-.1.04-.19.09-.27.17-.32.38-.62.63-.89.14-.2.37-.3.61-.28.42.11.45.88.89.88.18-.03.33-.13.43-.27l.47-.53c.06-.06.11-.13.14-.22.02-.09.02-.18,0-.26l-.09-.73c0-.1-.03-.2-.08-.28-.08-.1-.19-.18-.31-.23-.35-.18-.71-.47-.7-.86,0-.06.01-.12.03-.17.14-.17.3-.31.48-.43.24-.15.39-.42.36-.7.31.06.57.25.72.53.14.27.32.53.53.76.22.23.57.27.84.1.18-.2.26-.47.23-.74l.02-1.03c0-.12,0-.24-.04-.35-.14-.38-.65-.44-.93-.74-.35-.38-.21-.98-.05-1.47.13-.53.38-1.02.72-1.43.15-.12.27-.27.35-.44.03-.18.05-.37.04-.56.07-.54.66-.87.82-1.39.03-.2.09-.39.19-.57.17-.18.44-.24.67-.15.23.1.43.24.6.42l.91.85c.22.2.53.42.79.26.2-.17.26-.46.14-.7-.12-.23-.21-.48-.25-.73.03-.19.04-.38.02-.57-.06-.15-.16-.27-.29-.36-.27-.22-.55-.42-.85-.6-.08-.04-.16-.1-.22-.17-.12-.21-.08-.48.09-.65.1-.12.22-.22.36-.29.02.02.04.04.06.06.7.55,1.78.51,2.4,1.16.27.29.45.71.82.84.3.11.67,0,.95.17.2.13.3.38.48.54.37.33.98.18,1.41.43.41.22.61.76,1.05.89.3.09.63-.03.91.1.14.08.26.19.36.31.71.7,1.85.76,2.68,1.32.1.06.19.15.24.25.12.26-.09.56-.11.85-.02.38.28.69.38,1.05.04.25.06.51.05.77.15.85.55,1.63,1.16,2.24.07.1.16.18.27.25.23.09.5,0,.63-.21.12-.22.12-.48,0-.69-.16-.31-.48-.52-.62-.85-.05-.14-.08-.28-.09-.43-.07-.59-.1-1.18-.09-1.77,1.51.99,3.12,1.82,4.81,2.46.18.06.35.14.5.24.19.15.32.36.51.51.18.17.45.2.66.07h0c.58.42,1.15.86,1.69,1.34.47.53,1.11.89,1.81,1.01.31-.04.63-.03.94.04.14.07.27.16.38.27l1.63,1.47c.19.17.46.34.67.2.07.18.15.36.22.54l.78.4c.2.12.43.2.67.22.12,0,.24-.02.34-.08.1.16.22.3.37.42.4.32.97.51,1.1,1,.07.24,0,.5.09.73.11.34.49.55.57.9.05.23-.01.54.2.65.14.07.33-.01.47.07s.14.27.22.4c.14.19.42.23.61.09.06-.05.11-.11.14-.19.07-.24-.1-.48-.18-.72s-.01-.59.24-.6c.07,0,.15.02.21.06.52.26.98.72,1.56.69.17-.04.34-.03.51.03.14.08.2.25.31.37.27.28.77.17,1.1.38.14.11.26.24.36.38.52.47,1.13.83,1.79,1.06.52.26,1.01.58,1.45.97.06.07.14.12.23.15.17.05.4-.04.53.09.1.1.08.28.17.39.1.08.24.12.37.11.53.03,1.03.26,1.41.65.02.03.05.05.08.08.02.1.01.21-.02.31-.18.43-.29.88-.31,1.35.01.33.07.65.17.97.09.47.09.95,0,1.42-.04.26-.22-.04,0,.82.08.56.08,1.12,0,1.68.07.26-.1,1.01.17,1.38.17.28.25.61.23.93-.02.32-.02.65,0,.97.02.34.02.67,0,1.01-.04.39-.04.77.01,1.16.17.7.06,1.43-.3,2.05-.47.49-.84.34-1.14.6s-.56.3-1.08.67-1.42.63-1.64.9-.45,0-.71.67.11.86-.63.86-.86-.07-1.34.37c-.3.28-.62.53-.97.75-.11.07-.6.11-.75.49s-.49.19-.82.6-.75.41-.82.71-1.23.37-1.23.78-.07.49-.49.56-.71.41-.82.41-1.2-.22-1.2-.22m28.12,49.38c0,.06-.05,1.79-.08,2.44-.31.12-.65.15-.98.1-.39-.06-.8,0-1.15.2-.4-.01-.79-.07-1.18-.17-.18-.11-.24.16-.24.16-.69.04-1.39.02-2.07-.08-.29-.14-.21.08-.21.08-.14,0-.28-.06-.38-.16-.16-.16-.29.14-.29.14,0,0-2.25.03-2.3,0-.23-.11-.47-.2-.72-.25-.22-.08-.47-.02-.64.14,0,0-.54.19-.65.07-.14-.15-.33-.26-.53-.32-.2-.03-.4.03-.54.18-.13.18-.17.2-.48,0s-.43.05-.65,0-.33-.25-.48-.4-.4.05-.46,0c-.27-.15-.52-.34-.72-.57-.19-.29-.58-.11-1.04-.13-.2.01-.39-.05-.54-.19l-.03-.04c-.52-.65-1.27-.36-1.53-.36s-.63.02-1.21.02-.58.43-.56.56c.14.31.29.62.47.92-.46.08-.92.08-1.38.02-.73-.11-.32.33-.32.33-.24-.05-.48-.15-.69-.27-.22-.17-.19.15-.47.25s-.37-.18-.63-.36-.97.36-.97.36c0,0-.49.03-.62-.08s-.6.11-.8-.04-.43.09-.43.09c0,0-.35.11-.37-.15s-.45-.33-.45-.39-.13-2.71-.08-3.23-.19-.49-.19-.54.15-5.79.15-6.03-.24-.56-.34-.84,0-.26.13-.65c.07-.24-.02-.49-.22-.64,0-.98.05-1.96.16-2.94.13-.16-.02-.68-.02-1.04s.15-.47.22-.69.24-.26.41-.39.33.45.37.52c.14.21.33.39.54.52.25.12.47.3.63.52.13.2.31.36.52.47.19.15.46.11.6-.07.03-.04.05-.08.07-.13.15-.32-.04-.41-.21-.77s0-.22,0-.6-.39-.58-.47-.67-.33-.09-.33-.58-.52-.37-.6-.67-.35-.28-.37-.43-.26-.09-.34-.71c-.04-.31-.1-.63-.17-.93-.04-.24-.35-.32-.39-.62s-.3-.39-.3-.76c0-.21-.08-.42-.24-.56l-.1-7.49c.04-1.24,0-3.08,0-3.08,0,0,.37.22.45-.07s.34.22.34.22c0,0,.04.75.33.75s.3.15.34.45-.19.49.26.52.56.64.67.79.11.86.75,1.23.3.75.37.86c.1.2.24.38.41.52.22.15.45.93.45.93,0,0,.19.67.67.45s.58-.19.68-.78.38-.67,0-1.01-.38.3-.65-.67.07-.64-.52-1.16c-.38-.29-.72-.63-1.01-1.01-.04-.11-.41-.86-.67-1.34-.24-.37-.43-.78-.56-1.2-.04-.3.41-.71-.26-.97-.44-.14-.83-.38-1.16-.7-.11-.15-.49-.52-.49-.52.11-.28.05-.6-.15-.82-.22-.32-.35-.7-.37-1.08l-.04-5s-.19-.86.52-.3.37.56.71.9.41.9.75.63c.29-.33.52-.71.67-1.12-.11-.34-.26-.66-.45-.96-.25-.38-.41-.82-.44-1.28-.16-.78-.16-.3-.5-1.04s.41-1.23-.04-1.76.02-.74-.44-1.29l.55-.83c.63-.24.74.07.97-.3s.25-.65.64-.65.53,0,.67-.25.36-.14.36-.39.03-.2.48-.37,0-.64.45-.17.5.54.53.79-.28.53.17.92.31.48.45.78.22.98.64,1.04.31.2.48.45.17.31.42.39c.21.07.23-.23.44-.11h0s.24.06.19-.26-.1-.43-.09-.47c-.01-.06-.03-.12-.06-.17-.06-.12-.1-.25-.12-.38-.2-.87.03-.62-.39-1.04s-.67-.48-.67-.76.14-.95-.06-1.23-.81-.84-.78-.92.33.14.64-.28.11.03.31-.42.45-.56.64-.53.62.16.73,0c.24-.22.5-.42.78-.58,0,0,.08-.53.42-.53s.45-.14.56,0,.5.87.73,1.23-.22.59.2.7.06.34.22.56-.08.9,0,1.15-.38.47.06.86.78.42.91.79.29.45.4.14c.08-.33.12-.66.11-.99,0,0,.28.04,0-.69-.2-.44-.28-.92-.22-1.4.03-.42.64-.08,0-1.01-.29-.45-.55-.92-.78-1.41-.36-.55-.5-.81-.31-.92.47-.19.95-.34,1.44-.45.18-.03.3-.2.44-.22s.9,0,.9,0c0,0,.06.76,1.15.7s.25.5.67.73.03.45.73.5.84.14.92.42.28.67,0,.98-.5.5-.5.87-.03.84-.03.98,0-.28.2.36-.06,1.15.2,1.06.45.34.45-.7-.11-1.2,0-1.51.22-.73.22-.73c0,0,.39-.25.45-.42s.17.53.45.53.06.36.39.33.62.17.7.11-.17.7.2.73-.28.81.22.98.14.78.14.87-.03.7-.03.98c-.04.27-.13.54-.25.78-.02.06-.05.11-.08.16,0,0-.5,1.3-.11,1.41.25.07.52-.02.68-.23,0-.05.06-.7.26-.79.14-.08.27-.2.36-.33.05-.19-.03-.43.15-.62.22-.24.36.06.36-.69.02-.45.13-.9.31-1.32v-.04c.32-.08.65.02.88.24.23.29.53.52.87.66.08.08.26.13.45.26s.61-.08.82.24c.21.27.39.56.53.87.03.16-.13.71,0,1.03.12.25.19.52.21.79-.04.31-.09.62-.16.92,0,0-.29.05-.26.45-.02.35,0,.71.05,1.06.08.1.42-.13.47.4s-.08.76,0,1.03.26,3.88.26,3.88c0,0-.32.13-.4.87s.13,4.22.13,4.22c0,0,.21.08-.05.87-.16.47-.25.96-.26,1.45l.08.71c0,.34.02.58.1.66.1.1.06.54.1.65.04.16.06.33.06.5-.21.17-.34.41-.37.67-.02.4-.3.62-.32.72-.12.24-.21.5-.26.77-.1.37-.25.73-.45,1.07-.09.22-.17.45-.22.69,0,.11-.34.57-.3.75.12.35.12.73,0,1.08-.19.46-.62.65-.62.91.02.23.02.47,0,.7-.05.1-.38.35-.42.42s.05.26.06.38-.24.19-.16.43c.04.14.14.25.27.32,0,0,.05.46.22.57s.65.35.64.06c.01-.3.04-.6.09-.89.34-.42.58-.9.7-1.42,0-.51.43-.78.33-1.04s-.08-.38-.03-.4.37-.16.37-.16c0,0,.32-.11.33-.22s.27.48.27.69c-.12.79-.16,1.58-.13,2.38.12.3.22.6.3.91l-.12,4.6c0-.07.02-.15.06.22.06.51,0,2.54,0,2.54,0,0,.27.49-.06.57s-.48.13-.51.33-.29.4-.38.54-.19.19-.19.32c.02.11.02.22,0,.33-.03.08-.5.65-.72,1-.18.25-.27.55-.27.86,0,.27-.1.49,0,.62s.19.33.61,0,.4-.42.42-.53c.04-.16.12-.31.24-.43.05,0,.38-.24.53-.19s.42-.06.46.4-.1.56,0,.65-.2.26,0,.38c.15.13.25.31.3.5l-.13,3.56s-.25,0-.05.42c.13.23.19.5.18.76m27.92-58.66c.37.5.56.29.66.63s-.34.4,0,.71.4.18.58.47.53-.08.37.63c-.04.33-.2.64-.45.87-.13.21-.45.32-.45.45s-.11.47-.13.69-.58.5-.61.76.05.4-.16.61-.58.26-.63.47c-.08.27-.2.52-.37.74-.24.37-.37-.1-.42.45s-.48.5-.61.87-.55.76-.55,1.08-.37.63-.42,1-.53.53-.53.85.08.61-.29.79-.4.13-.63,0-.45-.63-.61-.82-.08-.11-.29-.5-.21-.92-.37-1.27c-.12-.31-.28-.6-.47-.87-.19-.23-.29-.52-.29-.82,0-.13-.32-.82.1-.79s.45.1.77-.11.37-.42.82-.5.4-.26.61-.48,1.08-.24,1.19-.42c.23-.24.4-.54.48-.87.05-.45.71-.87.08-.9s-.9-.29-1.14.08c-.12.22-.27.41-.45.58-.21.21-.45.18-.55.24s-.42.08-.53.19-.24.05-.37.19.13-.08-.13.13-.37.16-.55.24-.42-.08-.57.08-.09.26-.52.16c-.41-.12-.76-.38-1-.74-.18-.29.11.29-.18-.29s-.18-.76-.34-.9c-.24-.26-.46-.54-.63-.85-.24-.37-.45-.18-.45-.58s.16-.71.11-.87.03-.21.4-.45.45-.66.76-.55.37-.32.63-.24.95-.71,1.07-.69c.54-.16,1.05-.42,1.49-.76.29-.29.34-.53.61-.53s.57.13.79-.29.24-.55.64-.55c.26,0,.52-.04.76-.13.29-.08.55-.34.66-.18s.45.18.45.18c.16.26.24.56.24.87.03.61.11.55-.5.9-.45.27-.84.63-1.14,1.06-.37.42-.95.58-1.21.9s-.29.24-.53.48-.76.13-1.24.26-.77.08-.79.37-.13.19,0,.58.34.4.58.42c.3.08.62.08.92,0,.24-.1.48-.21.71-.34,0,0,.19-.05.46-.13s.49.11.7-.19.05-.53.55-.69.69.05.85-.29c.19-.34.49-.61.85-.77.37-.21.42-.54.79-.48s.08-.65.45-.15m14.97-15.39c-.34.16-.66.37-.95.61-.08.13-.92.05-1,.26s-.42.32-.47.42-.03-.1-.32.21-.05-.13-.58.26-1.19.34-1.27.66c-.11.29-.4.49-.71.48-.26,0-.42.18-.55.45s-.61.11-.71.32-.08.18-.55.34-.66-.24-.76.21-.03.74-.53.53-.87-.7-1.06.07-.4.77-.58.85-.79-.34-.9,0c-.08.27-.23.51-.45.69-.18.16-.78.29-.79.45s-.17.26-.4.26c-.27,0-.52.15-.63.4-.11.26-.45.4-.69.58-.25.15-.5.32-.74.5-.18.18-.34.05-.47.32s-.34.16-.5.34-.29.08-.42.19-.32-.16-.45.16-.69.58-.69.58h-.13c-.4.13-.75.38-1,.71-.18.29-.46.51-.79.61,0,0-.37-.32-1,.24-.44.43-.94.8-1.47,1.11-.56.27-1.11.57-1.64.9-.21.21-.61.16-.82.48s-1.43.61-1.43.61c-.18-.09-.41-.04-.53.13-.18.29-1,.71-1.14.9s-.79.11-.92.34-.55.61-.55.74c-.07.21-.17.42-.29.61-.27.01-.53.06-.79.13-.19.1-.38.19-.58.26-.08.05-.47-.05-.69.16s-.92.24-.92.24c0,0-.04.06-.08.16-.28.24-.59.45-.92.6-.18,0-.29.66-.63.55s-1.24.69-1.35.69-1.74.92-1.96,1-.37.56-.69.56-.34.16-1.08.45c-.44.17-.42.38-.42.51-.07.05-.15.09-.23.13-.2.02-.4.09-.57.19-.06,0-.12,0-.18,0-.16-.03-.72-.67-.95-.57-.04.02-.09-.26-.22-.33s-.26-.26-.36-.35-.23.05-.24-.2.15-1.69-.32-1.63-.73-.06-.89.42-.39.73-.39.95-.37.14,0,.65.36.31.5.61-.05.48.29.64.35-.11.59.26c.11.17.27.3.45.39l-2.55,1.14c-.23-.25-.47-.48-.73-.7-.19,0-.37-.07-.53-.19-.18-.16-.34-.35-.47-.55,0,0-.05-.34-.37-.34-.22-.03-.42-.14-.55-.32h-.36c.04-.25-.08-.5-.31-.61-.36-.19-.7-.41-1.01-.67-.62-.45-.17-.62-.78-.62s-.59-.17-1.15-.7-.81-.36-1.12-.7-.42-.17-.7-.7-.73-.45-1.18-.81c-.44-.31-.8-.71-1.06-1.18-.18-.37-.43-.71-.74-1,.02-.16,0-.32-.05-.47-.1-.22-.18-.45-.22-.69l.14-2.55s.35-.28.35-.54.14-.28.22-.39.44-.1.49-.3.13-.28.24-.27.62.39.82,0,.49-.49.57-.74.27-.71.3-.87.35-.82,0-1.12-.22-.52-.41-.54-.38-.54-.62,0-.11.44-.46.8-.41.02-.55.47-.49.46-.58.68c-.11.17-.3.26-.5.24-.05-.03,0-1.89,0-1.89l-.1-1.86s.8-.11.57-.6c-.1-.23-.22-.44-.36-.65l.17-1.42v-.5c.15-.01.63-.03.82-.33s.36-.24.65-.3.27-.44.84-.5.77-.95,1.07-.98.55-.24.8-.25.14-.19.63-.36.47-.11.54-.49.24-.13.57-.12c.11,0,.21-.02.3-.08.07.24.09.49.05.74-.14.44-.4.83-.76,1.12-.18.32-.32.67-.39,1.03,0,.31-.28.81.17.76.44-.15.83-.4,1.14-.73.08-.08.14.03.59-.36s.87-.67.98-.98.14.25.28-.45c.03-.28.09-.57.17-.84.1-.14.21-.27.34-.39.08-.06.56-.62.56-.62-.13-.39-.13-.81,0-1.2.25-.42,1.15-.64,1.18-.73s-.06-.17.48-.53.95-.36,1.29-.73c.57-.39,1.19-.69,1.85-.9.55-.27,1.08-.59,1.57-.95.56-.42.84-.39,1.23-.73s1.15-.17,1.65-.73c.5-.41,1.04-.74,1.62-1.01.22-.2-.17-.98.7-.53s-.06,1.23-.36,1.65-.84.62-.87.92-.45.53-.48.67-1.2.92-.45.92c.46.06.92-.13,1.2-.5.25-.22.57-.36.9-.39.26-.11.5-.25.73-.42,0,0,.59-1.26.67-1.34.56-.6,1.03-1.28,1.4-2.02.1-.4.3-.77.59-1.06.21-.18.4-.4.54-.64.17,0,.35-.03.5-.11.19-.18.4-.01.52-.36s.22-.2.61-.43.66-.25.7-.42.49-.14.7-.37.07-.29.35-.35c.19-.03.37-.1.53-.2.06-.06.16.04.41-.18s.34-.28.44-.28.49-.22.53.13.23.53.42.54c.28-.02.56-.08.82-.19.17-.09.59-.06.71-.46s.4-.81.43-.95c.06-.17.12-.34.2-.51l.04-.03c.22-.15.41-.33.58-.53.29-.29.4-.61.71-.61s.66-.08.69-.34c.06-.25.24-.44.48-.53.17-.07.34-.15.5-.24.29.01.57-.13.74-.37.21-.4.03-.4.61-.42s.55.26.79-.16c.15-.26.33-.49.55-.69.3,0,.6-.11.82-.32.37-.34.61-.16.74-.4.12-.18.27-.33.45-.45,0,0,.53-.63,1.03-.4s.74.32.76.56c0,.28-.04.55-.13.82-.05.16-.37.21-.56.45s-.42.5-.42.66-.16.21.03.41.29.25.4.36-.13.21.24.13.19,0,.45-.18.23-.11.39-.3-.37-.46.26-.43c.26.02.53.02.79,0,.31.2.55.49.71.82.05.21-.18.24.18.53s.26.4.53.61.24.66.5.9.13.61.37.79.26.37.42.53.16.69.16.77v.82c0,.37-.16.42-.21.56s-.53-.08-.1.48.42.74.66.66-.21-.26.56-.26.77.27.9.28-.13-.28.13,0,.45,1.14.85,1.43c.31.17.5.49.5.85.02.28-.08.56-.26.76-.21.26-.47.13-.5.42s-.03.63-.03.74c-.01.13.08.25.21.26.18.05.29.11.47,0s.11-.13.42-.29.5-.29.85,0,.45.32.5.61-.05.55,0,.66-.34.26-.42.4-.11-.16-.24.26-.13.19-.13.42-.08,1.21.42,1.16c.36-.07.72-.11,1.08-.13.42,0,.66-.23.92.14s.29,0,.42.5.26.45.11.79-.42.08-.66.48-.63.13-.82.4-.77.4-.95.63-.58-.05-.74.21-1,.69-.77.92c.38.28.89.33,1.32.13.4-.24.87-.16,1.16-.34s.29-.34.76-.53.92-.18,1-.48.69-.62.69-.62l-.03.28s.21.63.4.74.61.16.16.42m-12.54-6.38s-.21.19-.4.24-.35.28-.51.3-.64.26-.7.27-.44.31-.59.32-.22.21-.43.27c-.35.23-.68.5-.98.8,0,0-.46.44-.42.39s-.01-.21,0-.32-.17-.25-.17-.39.05-.18.21-.37c.03-.04.06-.08.07-.13.19-.23.32-.51.36-.8-.02-.33.32-.37.28-.7-.03-.38-.15-.74-.37-1.06-.25-.31-.15-.43-.42-.4s-.8-.12-.9.31c-.14.07-.21.22-.17.37.05.28-.19.08.08.39s.32.25.4.34.14-.05.14.23c-.03.24-.09.47-.2.68v.18s-.51-1.21-.93-1.22-.63-.11-.71.05-.26.28-.26.4-.05-.28,0,.36-.23.48.09.73.53.32.56.4c.05.1.09.21.12.33,0,.05-.23.05.01.43.16.25.29.51.4.79,0,0,.28.7.01.91s-1.53.77-1.84,1.25-.99,1.14-1.1,1.39-.46.08-.46.45c-.04.3-.01.6.08.88.09.22.34.33.57.25.3-.09.42.14.65-.29s.25-.43.26-.6.19-.34.22-.48.46-.44.46-.44c0,0,.99-1.47,1.36-1.06.25.27.48.56.7.86.11.16.17.65.34.68s.25.51.25.51c0,0,0,.85.17.94.13.08.22.19.28.33.16.09.28.25.31.43.06.36,0,.45.39.46s.62.07.62-.1c0-.07,0-.15-.02-.22.04-.02.05-.07.13-.14.14-.11,0-.27-.02-.36-.02-.21-.03-.43-.02-.64,0-.38-.07-.49-.07-.78s-.35-.73-.33-.89-.05-.13-.11-.36-.18-.23-.3-.51-.02-.04-.21-.2-.13-.31-.27-.58-.12-.1-.42-.42-.13-.36-.11-.41.27-.28.33-.37c.21-.22.42-.42.65-.61.27-.2.52-.43.75-.68.38-.24.78-.44,1.2-.59.33-.1.68-.16,1.02-.17.27-.06.51-.21.67-.43.18-.3.05-.5-.11-.9s-.62-.26-.65-.29m-8.12,1.57c-.08.29.08.22.32.47.18.18.34.38.46.61.17.28.22.05.22.05.12.12.26.23.4.33.15.09.23,0,.43-.26s.05-.56,0-.74-.22-.28-.29-.62-.54-.37-.54-.37c-.37-.13-.34.06-.63.02s0,0-.2.14-.09.09-.17.39m-73.16-16.08c-.15-.09-.32-.14-.5-.15l.5.15Zm59.26,32.66s-.03-.02-.05-.02c.03.02.08.05.05.02m-.05-.02s-.04-.03,0,0h0Zm-43.82-18.31c.07.14-.17.12.07.43s.25.11.36.33-.33.64,0,.85.57.64.71.23.3-.53.09-.85-.31-.22-.26-.6c.01-.3-.08-.59-.26-.82-.11-.2.01-.45-.09-.67-.07-.15-.13-.3-.19-.45,0,0-.36-.45-.56-.09-.2.36-.37.6-.25.95.11.24.23.48.38.7m52.29,6.26c-.1-.26-.26-.49-.48-.66-.09-.03-.23.12-.54-.26s-.75.34-.75.34l-.13.08c-.1.15-.23-.24-.3.23s-.09.61-.1.75.11.24.2.47c.12.2.21.43.25.66,0,.25-.15.99-.11,1.33s-.09.78-.02.94.1.21.07.29-.21.15-.25.36c-.04.4-.06.79-.04,1.19.02.19.05.29-.03.44s-.1-.03-.13.35-.24.7-.04.85.26-.34.34-.12-.1.29.07.32c.16.03.33.03.49,0,.21-.1.38-.27.46-.48.2-.39.34-.81.42-1.24.07-.44.25-1.36.26-1.74s.33-1.38.34-1.5,0-1.12,0-1.58.13-.73,0-1.04m-15.62,12.04c.11-.04.21-.11.29-.2.05-.08.09-.16.11-.25.04-.14.07-.28.08-.42.04-.26.15-.5.32-.7.25-.34.25-.54.23-.63s-.09-.31-.09-.31c0,0-.13-.21-.16-.2s-.11-.13-.2-.16c.14-.12.18-.32.1-.48-.16-.35-.22-.46-.42-.46s-.43-.1-.57,0-.49.17-.57.22-.41.1-.44.23c-.12,0-.22.11-.22.23,0,.01,0,.03,0,.04.04.26.12.15.15.33s.06.19.29.35c.22.12.46.19.71.21.07-.02.14-.05.2-.08-.04.17-.12.33-.22.48-.21.27-.45.33-.49.49s-.15.15-.15.29-.08.07,0,.24c.03.1.08.19.13.28.09.15-.03.06.15.22s.08.12.35.2.32.09.41.06m-8.8,38.7c-.4-.11-.45-.15-.56-.11s-.47-.04-.63.12-.42.14-.51.21-.21.02-.25.07c-.18,0-.36-.02-.54-.07-.23-.07-.24.03-.5-.12s-.24-.18-.54-.2c-.31-.05-.64,0-.91.16-.28.19-.38.28-.38.37v.18s.17-.03,0,.11-.18-.05-.31.21-.13.19-.12.32.08.13.12.31v.22c0,.68-.05.62,0,.73.05.08.08.17.09.26,0,.07.01.15.03.22,0,.2,0,.39-.02.59,0,.05-.2.15-.1.23s-.1.1-.03.24c.04.13.05.26.03.39,0,.08-.09.12,0,.2.09.06.17.13.24.2.12.12.27.19.37.14s.3.06.39.18.02.14.32.14.39-.04.44,0,.26-.03.41,0,.29-.02.37.01c.18.07.39.09.58.06.21-.05.47,0,.48-.18s.15-.2.15-.3.08-.28,0-.33.02-.26-.23-.26-.25-.06-.44-.05-.43-.04-.6-.04-.26-.2-.42-.18c-.09,0-.18,0-.27,0-.07,0-.23-.22-.23-.22,0,0-.05-.39.11-.31s.13-.08.26.02.3-.16.41-.08c.22.06.45.01.63-.11.07-.11.27-.21.29-.14s.11-.08.11.21-.05.26,0,.38.06.26.21.37.58.25.72.15.6,0,.61-.29.08-.41.04-.53-.22-.34-.24-.42.18-.39.08-.54.04-.11,0-.38c-.03-.22-.02-.44.04-.65l.14-.4s.5-.43.3-.68.26-.26-.14-.38m-1.69,2.09c-.11.09-.22.05-.36.09s-.2-.02-.26.04c-.09.04-.18.06-.28.06,0,0,.02-.1-.19,0s-.47.11-.54.18-.16-.04-.18.11-.16.33-.18.17,0-.62,0-.62c0-.14.02-.29.07-.42.08-.18.17-.23.17-.29s.35-.04.39-.13.3.04.34,0,.22-.02.3-.03.24.01.42,0c.12,0,.24.03.34.09.05.31-.03.35,0,.43s.06.02.02.18.07.07-.04.16m-1.62-8.68c-.15-.18-.34-.06-.45-.17s-.61,0-.63,0c-.13.14-.33.2-.52.14-.39-.07-1.51.11-1.72.08s-.25.04-.39,0-.29.06-.34.06c-.14.05-.29.08-.44.07-.21-.04-.15.23-.29.36s-.23.11-.63.34-.26.45-.26.5c.08.13.11.29.07.44-.08.22.26.97.27,1.03s.25,1.24.26,1.41.21.07.31.06.13.02.13.17c-.02.12-.02.25,0,.37.04.19.37.23.61.35s.19.03.31,0,.38,0,.55-.05c.29-.09.59-.14.9-.16.32-.04.65-.11.96-.21.25-.04.17-.18.23-.26.09-.14.13-.29.13-.45,0-.24-.17-.1-.24-.15-.26-.02-.52-.01-.78.03l-1.07.12c-.1.01-.11-.03-.38-.14s-.16.08-.28.12-.12,0-.24-.07,0-.11.03-.25-.03-.19-.02-.33c-.02-.13-.07-.25-.15-.35,0,0-.18-.47-.2-.54,0-.07,0-.13,0-.2,0-.03,0-.07.02-.1,0,0-.02-.2-.03-.25s-.05-.26-.06-.32,0-.27.08-.24.68-.27,1.33-.34c.49-.08.99-.06,1.47.06.07.06.17.08.26.06l.17.5s-.03.24-.13.21-.03.1-.11.08-.1,0-.17-.03c-.16-.01-.32-.01-.47,0-.07,0-.15,0-.22,0-.16.03-.32.06-.48.07-.08-.02-.33.13-.49.1s-.29.1-.54.1c-.17.01-.34.08-.47.19v.14l.05.31.2.23.12.05c.09.05.19.08.29.1.13-.02.26-.05.39-.1.13-.06.47-.08.83-.16.25-.05.51-.05.76,0h.14v.29c0,.19.06,0,.19-.16s.04.13.04.13c0,0-.05.18-.05.2s.06.06.11.09.03.03.25.07.14,0,.23-.09.17-.06.3-.2.09-.17.28-.53c.12-.19.19-.41.19-.64,0-.1.06-.1.08-.23s.07-.11.09-.32c.01-.1.02-.19.02-.29,0-.19-.04-.08-.06-.23-.01-.11-.01-.22,0-.33,0-.19.07-.11.1-.2s-.04-.11-.1-.21-.16-.16-.31-.33m3.57-4.89c-.23-.04-.46-.11-.68-.2-.16-.03-.3-.1-.42-.21-.2-.2-.44-.35-.7-.46-.19-.04-.31-.31-.31-.31,0,0-.07-.7-.48-.87s-.44-.55-.51-.61-.21-.37-.27-.35c0,0-.22.13.11-.27s.62-.74.7-.85c.15-.17.28-.36.4-.55.03-.1.22-.52.22-.52,0,0,.19-.07.19-.21s.07-.51.07-.51c-.12-.09-.26-.17-.4-.24-.11,0-.22.01-.33.05-.11.05-.2.03-.24.11s-.03.03-.13.1-.25.15-.26.21-.08-.16-.07.14c0,.19-.06.38-.18.54-.03.08-.35.38-.37.55s-.39.51-.45.66-.27-.05-.27-.05c0,0-.58-.38-.74-.29s-.36.06-.39.11-.2-.07-.22.06c.02-.14,0-.29-.03-.43-.08-.25-.1-.53-.05-.79.04-.27.11-.53.19-.79.04-.16.08-.32.1-.49,0,0,.18-.56.08-.73s0-.21-.04-.44.14-.11.07-.44.09-.43.09-.53c.04-.26.07-.52.06-.78-.06-.02-.02,0-.07-.15s-.13-.26-.2-.19-.21-.18-.24.05c-.05.05-.09.11-.13.17-.04.07-.32,0-.4,0s-.28.1-.31.18-.06.05,0,.37-.15.47-.04.75-.13.9-.03,1.18c.05.22.04.45-.02.67,0,.12-.14.53-.14.62-.12.22-.19.47-.2.72.03.38-.03.99,0,1.12s-.35,1.18-.32,1.58-.03.72,0,.84c-.06.37-.08.74-.08,1.11.01.31-.03.62-.12.92,0,.1-.54.67-.33.87.19.15.39.29.61.4.13.08.75.28.91,0,.12-.22.21-.45.28-.69,0-.06-.02-.82-.02-.91s0-1.42.02-1.49c.08-.27.11-.55.1-.83-.05-.17.07-.18.03-.39-.04-.17-.04-.35,0-.53.05-.1.08-.2.11-.3,0,0,0-.03.02-.07.03.03.06.06.1.08.03.02-.04.16.3.2s.08.03.35.21c.14.1.28.19.43.27.16.12.31.26.44.41.03.03.95,1.2.98,1.26s.27.32.24.52c-.03.16,0,.32.1.46.08.08.43.39.67.37s.24.37.65.48.3.24.55.24.41.17.52.17c.24.01.48-.03.7-.12.13-.11.33-.14.3-.3s.28-.25,0-.53-.26-.33-.51-.36m-11.4,1.83c.11-.04.33-.03.44-.07.13-.07.24-.17.34-.27.31-.28.61-.58.88-.91.1-.16.42-.45.49-.6.09-.16.18-.33.25-.5.08-.2.18-.39.29-.57.04-.04.34-.72.39-.8.12-.28.28-.55.46-.8.12-.12.21-.27.26-.44,0-.03.24-.15.26-.17.12-.24.15-.52.09-.78-.13-.26-.13-.31-.31-.31-.1,0-.22,0-.32-.01l.03-.03s.12-.3.07-.4,0-.29-.18-.33-.33-.12-.53,0c-.14.09-.29.17-.44.24-.2.1-.28.24-.48.22-.38-.13-.74-.3-1.07-.53-.39-.23-.52-.12-.63,0s-.29,0-.33.17-.27.15-.19.34.26.04.4.28c.09.16.23.29.4.35.27.14.56.24.86.32.15,0,.28.15.59.06.28-.08.32-.17.44-.12.02.07.02.15,0,.22-.04.19-.12.37-.24.53-.06.1-.13.2-.2.29,0,.04-.15.05-.15.24,0,.15-.04.29-.09.43,0,0-.04,0-.09.16s-.1.16-.12.26c.01.12-.03.24-.1.33-.14.21-.24.31-.27.49s-.22.29-.27.45c-.11.19-.23.37-.37.54-.02.04-.7.92-.81,1.04s-.44.29-.35.39.21.03.27.1.2.21.31.17m25.63-34.43c-.08.01-.13-.01-.24.07-.1.06-.21.11-.33.14-.05.02-.11,0-.23.03s-.34.01-.44.1c-.08.05-.18.06-.27.04,0,0-.46.05-.43.38s0,.29.22.49.37.17.43.31-.15.15.15.17c.26,0,.53-.02.79-.07.15-.01.44-.15.51-.15h.35c.2-.16.35-.38.43-.62.06-.23,0-.48-.18-.64-.11-.11-.18-.25-.32-.25-.14,0-.29,0-.43,0m-17.44,62.94c-.17-.02-.35-.02-.52,0-.06.04-.03-.05-.22,0-.11.03-.22.03-.33,0,0,0,.33,0,.1-.48s.14-.79-.02-1.03c-.12-.2-.31-.35-.53-.42-.11,0,.15-.61-.57-.08s-.73.48-.72.57.02.03.06.18.1-.04.08.26.02.33,0,.44-.13-.02,0,.19c.08.14.12.29.11.45-.03.06-.03.13,0,.19.03.09.03.19,0,.28-.02.03-.04.11-.24.17s-.46.25-.63.13l-.17-.12c.16-.17.21-.42.11-.64-.18-.34-.2-.43-.38-.43s-.4-.11-.54.06-.34.14-.45.34-.15.11-.21.32-.14.29-.14.36-.09.02-.18.23c-.08.31-.02.64.15.91.15.21.39.33.65.32.23-.03.26-.03.36.07s.14.1.2,0,.25,0,.31,0c.34,0,.68-.08,1-.21.33-.16.65-.35.96-.55.23-.24.55-.38.88-.39.3.02.35.15.56-.03.2-.21.35-.47.43-.76,0-.11-.02-.31-.1-.32m2.21.88c0-.28-.12-.25-.19-.68s-.17-.1-.23-.35-.08-.32-.12-.56c-.05-.19-.14-.38-.24-.55-.08-.18-.28.06-.55-.17-.2-.13-.46-.11-.64.04-.03.03-.1.24-.23.29s-.15.09-.26.36.17.34.2.42v.06c.08.09.16.18.24.26.16.16.04.43.04.54s.03.31.07.85c.02.32.19.61.45.8.1.13.17.12.31.21s.26.03.37,0,.26.02.33,0c.13-.04.24-.12.33-.22.19-.18.21-.2.29-.73s-.17-.3-.17-.57m-10.16-14.54c-.05.1-.11.2-.18.29.04.03.07.07.1.11.03.04.12.18.2.27s.29.06.43.06.18,0,.4-.17.19-.02.22.03.06.08.11.16c.11.15.28.23.47.21.11,0,.23-.02.33-.05.08-.02.16-.06.24-.1.09-.05.16-.12.21-.21.1-.15.13-.1.19-.11s.18.06.25,0,.17,0,.21,0c.26,0,.52-.04.78-.09.47-.09.14,0,.34-.26s.13-.11.18-.35-.03-.11-.11-.32-.49-.05-.59-.07c-.09,0-.18-.03-.27-.05-.04-.03-.17-.07-.19-.12s-.22.11-.22.11h-.2s-.34.17-.45.12-.34.28-.57.27c-.2-.02-.39.06-.52.2,0,0,0,.09-.11.02s0,0-.03-.09c0-.02-.01-.05-.02-.07,0-.07,0-.14.02-.21,0-.06.07-.02.13-.05s.08,0,.08,0c.07,0,.14-.03.18-.08.07-.08.15,0,.22-.04s.12,0,.19-.04.25-.02.35-.08.11,0,.2-.03c.08-.01.15-.06.2-.12.1-.1.27-.03.31-.04.06,0,.12,0,.18,0,.11,0,.22,0,.33-.04.12-.04.12,0,.19-.04s.18,0,.3-.18.03-.1.16-.45.03-.38.03-.53.1-.17.13-.53-.03-.26,0-.69c.02-.29.06-.57.14-.84.09-.37-.16-.32-.23-.44s-.11-.05-.21-.2-.08,0-.11-.07-.31.05-.38,0-.24.1-.34.02-.27.18-.34.11-.85.25-1.03.16-.79.25-.95.3c-.17.06-.36.09-.54.09-.17-.02-.11.16-.38.33s.09.52.09.52c0,0,0,.1-.03.44s.1.24.12.67c-.03.59-.09,1.17-.19,1.75,0,.18-.01.36-.04.54m1.32-3.11c.03-.05.1-.29.1-.29.05-.05.1-.09.16-.12.07-.05.14-.11.2-.18,0,0,.12.18.42.04s.38-.17.49-.04.11.1.15.1.14,0,.18.05c.04.17.06.34.07.51-.06.1-.07.21-.04.32.03.22-.06.21-.05.42s.05.33,0,.36,0,0-.13.04-.24,0-.3.05-.14-.02-.25.08-.42.1-.44.13-.08-.03-.15.04c-.05.04-.11.07-.18.07h-.06s-.11-.1-.11-.12-.07-.8-.06-1.02c-.01-.15-.01-.29,0-.44m1.51,9.36c.23.22.21.33.4.2.11-.09.23-.17.35-.23.15-.08.14.4.41-.2s1.04-1.29,1.24-1.69.26-.35.3-.65.13-.57,0-.64-.12-.46-.36-.19c-.19.21-.45.01-.54.13s-.33.07-.38.19-.12.06-.16.24-.14.11-.14.29.11-.03,0,.32c-.06.2-.16.38-.3.53-.08.12-.11.04-.29.25s-.46.33-.51.6-.32.44-.34.53-.28.15-.12.24.21-.14.44.08m-11.22-52.45c.08-.21.45-.47.09-.51s-.46-.14-.75.06.37-.35.37-.35c-.36.09-.7.26-.99.49-.42.3-.87.54-1.35.72-.1.05-1.17-.02-1.5.2-.26.15-.54.24-.83.27-.28,0-.56.04-.82.13-.31.1-.63.15-.96.16h-.08s-.3-.09-.24.27-.19.51.05.69.28.5.74.39c.26-.04.51-.13.74-.26.12-.07,1.94-.42,1.94-.42.27.02.53-.03.77-.15.26-.11.53-.18.8-.23.71-.44,1.39-.93,2.03-1.47m-20.85-9.53c-.08-.17-.2-.08-.3-.18s-.16-.21-.09-.33.42-.66.22-.87-.26-.39-.46-.34c-.08.02-.16-.05-.22-.1.56-.24,1.85-.8,2.58-1.2.46-.31.94-.58,1.43-.82.3-.07,1.1-.28.51-1.16,0,0-.29-.35-1.01-.05s-.1.49-1.52,1.13-3.67,1.75-3.67,1.75c0,0-1.08.34-1.04.66s-.37.54.39.5c.72-.13,1.41-.36,2.05-.7-.17.42-.3.85-.3.85l-.03.06c-.36.69-.76,1.35-1.2,1.99-.29.3-.64.59-.7.84s-.28.55-.28.82-.23.78.15.84.8.28,1.22-.43.96-1.92,1.14-2.3c.11-.24.25-.47.39-.68,0,0,.45.21.58.09s.24-.2.16-.37m-2.36-7.53c.01-.32-.93-.75-.93-.75-.55-.04-1.1-.17-1.61-.38-.66-.28-1.25-.69-1.75-1.2-.3-.34-.29-.42-.67-.4s-.36.74-.25,1.01.49.3.85.72c.44.42.94.77,1.48,1.05.31.08.63.15.94.18.38.17.76.36,1.12.58.42.22.81-.49.82-.81m-3.2,6.5c-.34-.31-.69-.6-1.07-.87-.1-.07-.64-.41-.64-.41-.51-.4-1.11-.66-1.75-.76-1.04-.16-2.04-.4-2.39-.4-.44.02-.87-.09-1.24-.31-.27-.23-.89-.45-1.13-.25s-.53.52-.25.89-.2.49.45.55,1.44.06,1.48.06c.91,0,1.82.13,2.68.42.55.25,1.07.59,1.52,1,.19.06.37.17.49.33.3.29.49.26.68.58.19.31.44.59.73.82.32.26.66.56,1,.44s.45-.16.49-.44.2-.49-.08-.78-.64-.53-.96-.85m10.95,3.28c.2.12.42.2.64.23.22,0,.43-.08.58-.25.07-.14.24-.36.19-.5s-.45-.31-.55-.32-.56-.1-.56-.1c-.51-.03-1.02-.14-1.5-.32-.35-.21-.73-.34-1.13-.38-.19.12-.32.31-.38.52-.08.26-.02.54.16.74.13.09.26.2.37.31-.05.11-.18.16-.29.11-.17-.08-1.75-.41-1.75-.41,0,0-.5-.34-.77-.02s-.17.34-.13.45-.15.23-.17.27c.02.16.12.31.27.38.2.1.78-.02.99,0,.28.05.56.12.83.2,0,0,.27,0,.27.07s-.22.61-.57.73c-.33.11-.68.18-1.03.22-.2,0-.83-.04-.88.08s-.22.05-.15.2.22.09.22.25.15.34.44.38c.27.05.55.05.82,0,.44-.07.99-.15.99-.15,0,0,.21.04.25-.02s.25.27.42.41c.15.11.28.25.38.41.06.52.21,1.02.44,1.49.27.33.31.39.6.4.2.03.41,0,.61-.07.1-.15.17-.32.22-.49,0-.07.18-.07-.08-.76-.2-.68-.51-1.32-.93-1.89-.3-.24-.55-.37-.59-.44s-.09-.31.09-.26c.21.07.41.18.57.34.07.08,1.17.92,1.42.83s.84.09.88-.33.39-.49,0-.77-.57-.63-1.06-.7c-.27-.04-.53-.12-.77-.25-.08-.03-.26-.2-.25-.23s.26-.24.26-.34.47-.14.64,0m45.82,4.55s.05.39.05.5.08.09.12.12c.08.04.16.06.25.07.09,0,.16-.03.32-.12s.11-.14.25-.62,0-.05,0-.14.04-.03.07-.14.13-.13.15-.21c.02-.11.03-.23.03-.35,0-.22,0-.09.02-.26s0,0,.04-.15.11-.06.19-.19.25-.18.28-.46,0-.04-.12-.26-.1-.12-.36-.35c-.11-.14-.31-.16-.46-.05-.15.08-.3.15-.46.22-.18.05-.17.31-.16.4v.03s.03.07-.02.11.08.26.08.46c-.05.3-.14.59-.25.87-.16.53-.04.49-.04.49m-29.22,5.4c.24-.19.52-.33.81-.42.03,0,.09,0,.3.13.14.08.31.12.48.1.1,0,.03-.2.47-.06.3.08.59.18.87.3.03.05.11.2.23.19s-.37.87-.64,1.15-1.57,1.36-1.6,1.41-.16.17-.71.28-1.12,0-1.11.15.23.15.31.15.42,0,.15.12-.56-.08-.37.19-.03.26.31.31.13.12.55.12c.47,0,.95-.05,1.41-.16.38-.18.73-.43,1.03-.72.16-.19,1.06-.9,1.19-1.26s.61-.85.63-.98c.02-.11.07-.21.13-.3,0,0,.34,0,.4.09s.18-.03.57.09.54.13.66.33c.07.13.17.24.31.3.12.02.25.02.37,0,0,0,.37-.43.37-.64s-.49-.71-.8-.95c-.23-.26-.54-.43-.88-.49-.3-.07-.58-.19-.83-.37-.26-.02-.52-.06-.77-.13-.18-.15-.38-.26-.61-.31-.17,0-.34,0-.51,0-.16-.02-.6.07-.37-.43s.66-.54.53-.93c-.13-.29-.32-.54-.57-.74,0,0-.53-.24-.84.05s-.38.17-.43.53c-.04.33-.17.63-.38.89-.13.1-.77.53-.86.59s-1.53.68-1.49,1.1.32.43.32.43c0,0-.11.18.31.17.37.05.75-.06,1.05-.28m-30.53-17.64c.17.07.32.16.46.27.43.23.88.39,1.35.49.33.11.65.25.96.4.57.2.68-.18.81-.52s-.06-.27-.41-.64c-.28-.25-.65-.38-1.02-.36-.19-.01-.38-.05-.56-.12-.34-.15-.65-.34-.94-.57-.23-.18-.48-.04-.77.33s.12.73.12.73m23.32,12.9c.1-.22-.01-.52-.16-.52-.47.02-.94.07-1.41.14-.56.09-2.6.32-2.6.32,0,0-.28.05-.23-.15.04-.13.11-.24.22-.32.23-.23.43-.49.6-.76.06-.18.39-.98.47-1.13s.74-1.2.94-1.46.43-.24.44-.49.3-.82-.32-.88c0,0-.57-.66-.89,0s-.92,2.08-1.14,2.46-1.27,1.7-1.27,1.7c-.45.36-.89.74-1.29,1.16-.23.3-.42.54-.17.81.13.15.29.27.46.37.22.21.54.26.81.13.37-.13.76-.21,1.16-.23.96-.15,1.91-.36,2.84-.64.61-.22,1.46-.28,1.56-.5m-6.8-6.89c.12-.07.15-.13.27-.15s1.44-.33,1.56-.56.32-.25.15-.7-.11-.47-.27-.65-.54-.27-.68-.38-1.14-.78-1.29-.9c-.35-.16-.73-.28-1.11-.34-.15-.02-.45-.28-.59-.29s-.48-.22-.58-.2-.19-.11-.39,0-.36.05-.37.25.02.47-.1.52c0,0-.48-.2-.61,0s-.21.07-.27.39-.19.62-.19.66-.09.24-.14.44c-.03.13-.1.24-.21.32-.08.08-.14-.07-.18.21s-.2.17-.08.47-.03.36.25.44.57.16.71.08.18-.16.43-.12c.44.09.88.21,1.31.35.4.13.8.3,1.17.5,0,.13.1.25.22.28.2.05.71.05.82-.23.11-.28.05-.34.17-.4m-.24-1.05c-.16,0-.31.04-.46.08-.17.04-.34.06-.51.06-.26-.04-.52-.12-.76-.22-.07-.04-.44-.11-.68-.23-.29-.09-.59-.15-.9-.17,0,0-.08-.08,0-.11s.19-.4.2-.5c.07-.18.14-.35.23-.51.07-.16-.06-.17-.11-.26s-.2-.28-.2-.28c-.06-.08.27.1.35.21s.22.03.58.07c.37.07.73.15,1.09.26.2.03.38.12.52.26.15.16.31.32.48.46.28.19.59.34.92.44l-.09.21c-.21.11-.43.19-.65.24"/>
          </g>
        </g>
      </g>
      <g class="cls-6">
        <g id="_グループ_2250" data-name="グループ 2250">
          <path id="_パス_1340" data-name="パス 1340" class="cls-4" d="m19.56,4.87c-.18-.14-.28-.35-.27-.58.02-.06.03-.12.03-.18-.03-.13-.25-.17-.25-.31.07-.05.11-.13.1-.21-.59-.1-1.14-.38-1.57-.81-.04-.03-.07-.08-.08-.13,0-.07.03-.13.07-.18l.36-.47c-1.1.17-2.22.21-3.33.1-.14-.01-.33-.1-.27-.23-.62.29-1.42-.2-2.01.14-.18.13-.35.28-.49.46-.36.38-.83.64-1.18,1.02-.39.36-.53.93-.33,1.43-.2.01-.44.04-.53.23-.11.22.1.46.29.62.53.46,1.01.97,1.46,1.51.05.07.12.13.19.17.07.03.15.02.23.05.27.08.32.5.58.61.19.08.4-.03.6-.04.21.02.41.06.61.14.2.08.42.04.58-.1.06-.07.09-.16.15-.22.18-.19.5-.06.73.08.05.06.04.16-.02.21,0,0-.02.01-.03.02.31.03.55-.23.8-.42.85-.52,1.88-.66,2.84-.4.24-.32.87.12,1.12-.19.03-.03.05-.08.09-.1.04-.01.07-.02.11,0l.44.05c.06.02.13,0,.18-.03.15-.13-.19-.34-.13-.53.04-.12.21-.13.33-.09s.24.14.36.1c-.01-.35-.43-.52-.67-.71-.38-.3-.75-.63-1.09-.98"/>
          <path id="_パス_1341" data-name="パス 1341" class="cls-4" d="m14.42,9.03c-.02.08-.1.13-.19.11-.01,0-.02,0-.03-.01-.08-.05-.14-.14-.14-.23l-1.85,1.63c-.36.28-.67.63-.91,1.02-.24.4-.24.9,0,1.31.21.3.59.49.66.85.04.23-.06.48.04.69.07.13.18.22.31.27.26.1.54.09.79-.03-.06.38-.26.73-.56.97-.55.58-1.04,1.22-1.47,1.9-.05.06-.07.14-.08.22,0,.05.02.11.05.15l.22.47s.04.07.07.1c.07.04.15,0,.22-.05,1.48-1.01,2.71-2.33,4.09-3.47.7-.58,1.45-1.12,2.19-1.65.11-.09.24-.16.37-.21.11-.03.22-.04.33-.05.28-.04.55-.16.78-.34.04-.03.07-.07.08-.11.02-.09-.07-.16-.15-.21-.7-.46-1.21-1.14-1.44-1.94,0-.05-.04-.1-.08-.14-.04-.02-.08-.04-.13-.03-.37-.02-.74.08-1.11.04-.18-.03-.35-.07-.52-.13l-1.29-.41c.11-.16.3-.25.49-.22.19.03.38.03.56,0,.06-.01.12-.05.15-.1.03-.09,0-.19-.09-.24-.08-.04-.17-.07-.26-.06.24-.4.59-.73,1.01-.94l-1.15.29c.15-.14.33-.24.52-.29.58-.21,1.14-.5,1.66-.84l-2.21.92c-.29.08-.54.27-.69.53.12-.17.18-.33-.09-.2-.09.04-.23.12-.24.23,0,.08.08.15.08.24"/>
          <path id="_パス_1342" data-name="パス 1342" class="cls-4" d="m9.52,17.49c-.27,0-.54.07-.78.21-.15.11-.24.29-.4.39-.33.21-.79.04-1.14.21-.16.09-.3.22-.41.38l-.68.85c-.4.39-.64.91-.66,1.47,0,.13.06.26.14.36.2.22.55.18.85.21.89.09,1.51.91,2.01,1.65-.09-.12-.23-.18-.38-.17.61.58,1.4.92,2.24.96.25.01.61.13.53.37.26.15.57.14.82-.01.13-.08.23-.2.36-.29.19-.12.41-.22.63-.27.96-.3,1.9-.68,2.8-1.12-.38.11-.77.16-1.17.13-.1-.03.02-.18.13-.19l4.3-.6.82-.11,3.69-.51-.15-.29c.58-.24,1.16-.46,1.75-.68l-.36-.11c.02-.16.21-.21.37-.23.62-.09,1.23-.26,1.8-.53-.2-.35-.59-.56-.99-.54l.21-.21c-.12-.19-.18-.42-.15-.65l-2.61.37c-.04-.11-.05-.23-.01-.35-.05.1-.13.18-.24.22-.07-.04-.11-.12-.09-.2l.86-.06c-.53-.09-1.07.03-1.5.34-.02.12,0,.24.06.35-.48-.21-1-.27-1.52-.18l.57.09c-.77.38-1.7.19-2.5.48-.55.2-1.14.61-1.65.32.02-.25.36-.33.61-.3s.56.08.72-.12l-1.07-.08c.03-.23.31-.31.54-.35l2.24-.34-2.48.09,4.65-.77-8.41.85c-.55.11-1.13.06-1.65-.16-.35-.25-.69-.53-1-.83-.3-.22-.79-.18-1.03-.44-.14.23-.39.38-.67.39"/>
          <path id="_パス_1343" data-name="パス 1343" class="cls-4" d="m29.11,14.42s-.06.07-.08.11c.04-.03.06-.07.08-.11"/>
          <path id="_パス_1344" data-name="パス 1344" class="cls-4" d="m30.1,11.49c-.21.28-.35.61-.41.96.08-.34.22-.66.41-.96"/>
          <path id="_パス_1345" data-name="パス 1345" class="cls-4" d="m55.09,21.5c-.89-.18-1.75-.46-2.57-.84-1.05-.43-2.09-.86-3.14-1.3-.49-.18-.95-.42-1.39-.69-.42-.3-.79-.65-1.12-1.05.26-.12.55-.18.84-.19.6.03,1.19.16,1.75.39.01-.23.02-.46.04-.68l2.58-.55c0-.11.02-.22.03-.33h.41c.08-.25.09-.52.01-.77-.03-.26.08-.6.34-.61-.55-.26-.83-1-1.43-1.1-.2-.03-.48-.05-.5-.25-.2.17-.44.31-.69.4l-1.34.58c-.1.04-.22.08-.29,0-.52.59-1.58.32-2.14.88-.22.22-.43.6-.73.51-.22-.06-.3-.34-.27-.57.06-.22.09-.45.09-.68-.02-.08-.03-.16-.01-.24.04-.09.11-.16.19-.2l2.01-1.22c.2-.12.42-.28.41-.51-.67.13-1.36-.09-1.83-.57l.26-.34c-.21-.07-.37-.25-.4-.46.29.09.56.25.79.45.05.06.11.1.18.11.18.01.22-.25.25-.43.07-.46.5-.76.82-1.1.19-.18.33-.42.37-.68.03-.31-.07-.73.22-.84-.12-.06-.18-.19-.16-.32-.21.1-.42.17-.65.22,0-.01,0-.03.01-.04.03-.24-.05-.48-.2-.67.03-.15.03-.3.01-.46-.02-.1-.03-.19-.01-.29.01-.1.1-.17.2-.17l.19,1.25c.19-.37.23-.8.1-1.2-.06-.41,0-.93.37-1.09.06-.02.12-.05.17-.09.14-.18-.21-.38-.2-.6.01-.08.05-.15.1-.21l.66-.82c.13-.14.22-.31.26-.49.04-.34-.25-.62-.54-.81-.54-.34-1.15-.54-1.78-.6-.12,0-.23-.03-.33-.09-.06-.06-.11-.13-.14-.21-.19-.32-.53-.5-.9-.47-.23.06-.48.09-.72.07-.29-.09-.5-.44-.8-.4-.08.01-.16.04-.23.08-.95.41-2.11.07-3.04.53-.23.12-.44.27-.63.45-.74.75-1.33,1.62-1.75,2.59-.06.16-.17.31-.3.42-.12.09-.28.11-.41.04-.03-.25,0-.57-.02-.73,0-.29-.07-.57-.2-.82-.15-.19-.32-.38-.49-.55-.17-.18-.21-.46-.09-.68-1.07.08-2.07.57-2.78,1.37-.7.8-1.25,1.72-1.63,2.72l.22-.3c.11.15-.07.35-.2.49-.5.53-.36,1.44-.84,1.99-.14.14-.28.27-.43.39-.22.23-.41.48-.57.76l-.89,1.42c-.04.07-.08.13-.12.2.06-.09.12-.18.19-.27l1.46-2.03c-.02,1.16-1.47,1.83-1.7,2.96-.04.18-.15.44-.32.36-.05-.02-.08-.07-.12-.1-.11-.04-.23.02-.27.13,0,0,0,0,0,.01-.03.12-.02.24.02.35l.18.74c-.09.03-.19-.01-.22-.1-.01-.03-.01-.07,0-.11-.19.06-.21.33-.18.52.04.15.04.31,0,.46.04-.04.08-.07.13-.09l-.48.92.28-.19c.09.65.14,1.31.15,1.97.28-.18.51-.44.67-.74.31.12.66,0,.82-.3.14-.29.24-.6.31-.91.15-.47.44-.88.83-1.19.11-.06.19-.16.25-.26.03-.17,0-.35-.09-.5-.06-.16-.04-.4.12-.45.13-.03.26.05.31.17.04.12.05.26.02.39l-.27-.27c.11.37.17.75.16,1.13-.07.47-.06.95.01,1.41-.15.08-.32.13-.49.16l.03-1.26c-.42,1.06-.57,2.21-.44,3.34.01.28.1.54.26.77.07.09.16.16.25.22.01.11.04.21.09.31.08.12.18.23.29.33.11.1.15.26.11.4l-.16-.22c.08.12.12.26.14.41l-.8-.92.63,1.05c.24.32.36.72.34,1.13l.02.99c.03.16-.02.33-.12.46-.04.03-.08.06-.1.11,0,.05.01.1.05.14.18.25.37.49.57.73.08.1.17.18.28.25.13.06.27.09.42.1.84.02,1.67.24,2.41.64.42.39.89.73,1.39,1.01.08-.23.01-.49-.16-.67-.17-.17-.34-.35-.49-.53-.12-.2-.19-.42-.23-.65-.32-1.06-.41-2.17-.24-3.27.12.15.28.26.46.31-.26-.37-.41-.81-.46-1.26.24.06.49.12.74.17.1.02.24.03.29-.07.05-.12-.12-.22-.24-.26-.2-.07-.4-.2-.43-.41,0-.16.05-.31.13-.45.05-.11.05-.24,0-.35.07-.08.12-.18.16-.27.03-.07.05-.14.04-.22-.02-.12-.08-.23-.17-.31l-1.04-1.24c-.07-.07-.12-.16-.16-.25-.03-.11-.05-.23-.06-.34-.07-.34-.2-.66-.38-.95-.33-.51-.52-1.09-.54-1.7.12-.44.16-.89.13-1.34l-1.43.39c-.06-.03-.09-.11-.06-.18.03-.06.11-.09.18-.06.04.02.07.06.07.11l.6-1.45c.03-.1.09-.19.17-.26.13-.07.27-.1.41-.11.4-.1.6-.52.82-.87.25-.39.54-.75.85-1.09.43-.49.98-1.03,1.62-.93h.07c0,.12,0,.23,0,.34,0,.11-.04.21-.09.3-.05.07-.12.13-.17.2-.11.2-.03.46.17.57.04.02.08.03.12.04.07-.17.15-.32.26-.47.13.4.4.75.75.99-.02-.18-.18-.3-.29-.45s-.16-.38,0-.48c.04.39.57.5.79.82.08.11.12.25.19.37.15.2.34.37.56.48.53.33,1.07.66,1.62.97.02.05.04.1.07.15.13.18.19.4.19.62,0,.04-.02.07-.03.11-.25.03-.5.11-.72.25-.26.25-.57.46-.9.62-.79.26-2.01.49-1.41,1.56l.71,1.27c.06.13.15.24.26.33.12.08.28.07.39-.03l.08-.29c.21.26.55.38.88.32-.01-.07.03-.14.1-.16,0,0,0,0,0,0,.02.25-.08.5-.27.66l-.65.75c-.16.21-.36.39-.6.51-.24.08-.49.12-.74.13-.36.05-.7.18-1,.37.54.31.03,1.36.56,1.7l-.39-.05c.75.4,1.56.69,2.4.85.08.01.17.03.25.06.09.03.17.07.25.12,0,.06.02.11.06.16.07.08.16.13.19.22.03.12,0,.25-.09.34-.36.53-.91.9-1.54,1.02-.39.12-.81,0-1.07-.32-.07-.15-.13-.31-.19-.47-.27-.4-.7-.66-1.19-.71.24.21.4.49.46.8.02.12.04.23.07.34.05.1.09.21.12.32,0,.11,0,.21,0,.32,0,.48.35.89.83.96-.01.12.07.24.19.27.12.03.24.02.36-.01l.96-.2c.27-.04.53-.13.77-.27l.52-.27c.28-.14.54-.29.8-.46,1-.75,1.62-1.91,1.67-3.16.07,0,.14,0,.21.01v.02c-.01.23.02.46.09.67.22.36.54.65.93.82.39.23.75.5,1.09.79.25.24.52.46.8.67.32.19.65.35,1,.47l1.17.45c.45.22.95.31,1.45.24.04.07.11.13.18.18.08.04.17.02.23-.05.02-.04.03-.09.03-.14v-.58c.05.11.22.11.33.05.1-.07.21-.13.32-.18.09-.02.17,0,.26-.01s.18-.07.18-.16c.21.05.43.07.65.05-.04-.11-.06-.23-.06-.35.25-.12.53-.16.81-.12l-.18-.93c.4.15.84.15,1.24,0m-13.27-16.81l.52-1.37c.03-.26.27-.44.53-.41.06,0,.11.03.17.05l.9.22c.05,0,.1.03.14.07.03.06.04.13.02.19-.21,1.31-.27,2.63-.18,3.95l-.22.5c-.03.11-.11.2-.21.26-.13.02-.25-.01-.35-.1-.15-.11-.28-.24-.4-.39-.04-.06-.09-.11-.15-.15-.02,0-.03-.02-.05-.02-.03-.13-.05-.27-.06-.4-.03-.55.14-1.2-.25-1.6-.17-.18-.45-.3-.47-.54,0-.09.02-.18.06-.26"/>
          <path id="_パス_1346" data-name="パス 1346" class="cls-4" d="m61.09,15.77l.05.02s-.03-.02-.05-.02"/>
          <path id="_パス_1347" data-name="パス 1347" class="cls-4" d="m72.05,19.54s-.01-.02-.02-.02c-.01.01-.02.03-.03.04-.02.04.07.02.05-.02"/>
          <path id="_パス_1348" data-name="パス 1348" class="cls-4" d="m73.17,18.89c.65-.29,1.18-.82,1.47-1.47-.11-.1-.25-.16-.4-.16l.33-.4c-.36.24-.84-.21-1.26-.09-.48.14-.51.91-.96,1.12.08,0,.14.17.04.23-.11.06-.24,0-.35-.08l-.17.47c-.63.06-1.21.33-1.67.76-.13-.17-.4-.07-.59.04l-1.4.85c-.18.13-.4.22-.62.25-.23.03-.45-.12-.52-.34-.05-.07-.03-.17.05-.22.01,0,.02-.01.03-.02l.35.03c.1-.1.17-.22.19-.36.02-.14.11-.26.23-.33.13-.05.31.08.25.2.36-.56.65-1.16.88-1.78.18.05.36-.04.42-.22.05-.17.07-.35.05-.52-.01-.51.08-1.02.28-1.5-.2-.49.05-1.03.13-1.55.04-.42.02-.84-.05-1.25-.15-.95-.21-1.9-.18-2.86.15-.58.08-1.19-.21-1.72-.22-.41-.58-.74-1.02-.9-.22-.05-.48-.02-.64-.18-.07-.1-.13-.21-.17-.33-.18-.27-.46-.45-.77-.51-.9-.26-1.86-.26-2.75.02-.44-.09-.9,0-1.28.24-.38.17-.82.13-1.18-.09l.14.35c-.29.04-.3.46-.24.74.19.98.5,1.92.92,2.83.53.9,1.12,1.77,1.77,2.6.65.83,1.02,1.85,1.08,2.9-.11.65-.11,1.31-.02,1.96l-1.6-.81c-.68-.43-1.47-.66-2.28-.67-.15.04-.31.01-.44-.07-.1-.09-.02-.3.09-.29l-1.03-.34c-.23-.12-.51-.08-.69.1l-1.1.78c-.5.31-.85.81-.96,1.38l-.86,2.47c-.23.41-.16.93.18,1.27.5.76,1.14,1.41,1.89,1.92.38.22.8.37,1.19.59.54.43,1.15.76,1.8.98.55.09,1.11-.11,1.48-.53l1.21-.29c.05.01.11.03.16.04.23.08.49.07.72-.03.08-.05.16-.1.24-.14.12-.01.24-.02.36-.02.11-.03.21-.07.3-.14l.63-.41s.08-.06.11-.1c.03-.08.05-.16.06-.24.06-.14.17-.25.31-.32.59-.36,1.17-.72,1.78-1.05,0-.05,0-.09-.02-.14l.75-.42-.48-.03c.78-.78,1.76-1.33,2.82-1.59.03,0,.06,0,.09,0,.33-.3.72-.51,1.14-.63m-8.91,1.23s-.01-.04-.02-.06c-.38-.94-1.51-1.55-1.55-2.57.57.27,1.05.72,1.35,1.28.16.3.27.63.43.93-.06.15-.13.29-.21.42"/>
          <path id="_パス_1349" data-name="パス 1349" class="cls-4" d="m72.34,17.88s-.03,0-.04.02l.04-.02"/>
          <path id="_パス_1350" data-name="パス 1350" class="cls-4" d="m79.53,20.89c0-.17-.03-.35-.09-.51-.07-.09-.15-.17-.23-.25-.14-.26-.19-.57-.13-.86-.03-.54-.17-1.07-.4-1.56-.36-.88-.75-1.75-1.14-2.62l-.69-1.54c-.18-.51-.42-1-.7-1.46-.35-.46-.98-.32-1.47-.44-.21-.05-.41-.16-.62-.21-.23-.04-.46-.04-.69,0-.35.04-.71.09-1.06.14-.1,0-.19.04-.28.08-.1.09-.18.19-.25.31-.08.1-.23.18-.35.12,0,.24-.06.48-.18.69-.1.29-.1.6,0,.89.01.06.05.1.09.14.06.02.12.02.17.02.15.02.27.15.26.31.39.02.75.22.97.54.02.04.05.08.09.1.06.02.12.02.18,0,.18.02.35.12.45.27.25.24.47.51.67.8.11.18.21.37.31.57.21.46.48.9.8,1.3.07.06.12.15.13.24,0,.06-.02.11-.04.16-.02.29.08.58.29.79.17.24.31.56.15.8-.45-.17-.93-.26-1.41-.26-.22-.16-.52-.17-.74-.02-.03-.07-.09-.13-.17-.15,0,.11.01.22.06.32-.19-.09-.4-.16-.61-.2l.02.39-.3-.19c-.04.26.21.46.43.61l1.81,1.19c.12.08.24.16.35.26.05.05.03.19-.03.14.25.26.7.1,1.02.27.39.21.49.85.92.89.23.02.45-.15.67-.11.1.03.19.07.27.14.34.21.73.34,1.13.37.15.02.31,0,.44-.09.09-.09.16-.19.19-.32.13-.28.22-.58.26-.89.05-.31-.03-.63-.22-.88-.16.07-.32-.12-.35-.29"/>
          <path id="_パス_1351" data-name="パス 1351" class="cls-4" d="m87.16,2.81c-.04.11-.05.23-.04.35.03.14.17.23.26.35.08.12.14.26.19.39.2.42.65.67.87,1.08.03-.17.03-.35,0-.52.35.33.79.57,1.26.67.47.16.96.27,1.46.31.38.01.77,0,1.15-.06.22-.02.44-.06.65-.13.51-.26.92-.68,1.17-1.2-.22.17-.44.32-.68.46.07-.14.18-.27.3-.37l.69-.65c-.1.06-.7.51-.76.26-.01-.06.38-.35.4-.53-.05.06-.13.09-.21.09l-.04-.21-.72.28c-.09.04-.2.07-.3.07-.47-.02-.6-.79-1.07-.84-.07,0-.15,0-.22-.03-.19-.08-.14-.37-.22-.56-.07-.15-.21-.26-.37-.3-.16-.04-.33-.04-.5-.02-.11.02-.21.01-.32-.02-.14-.06-.23-.2-.36-.27-.11-.05-.23-.08-.36-.08l-1.16-.08c-.32,0-.64-.07-.92-.23,0,.24-.03.48-.1.71-.1.26-.31.53-.22.79.12.02.16.17.14.29"/>
          <path id="_パス_1352" data-name="パス 1352" class="cls-4" d="m86.85,22.67c-.08.07-.15.15-.21.24.08-.07.15-.16.21-.24"/>
          <path id="_パス_1353" data-name="パス 1353" class="cls-4" d="m111.54,20.81s.02-.05.03-.08c0-.05-.02-.1-.04-.14-.07-.16-.16-.32-.26-.46h0c-.04-.08-.1-.15-.18-.19-.1-.1-.24-.16-.38-.17-.11,0-.21,0-.32-.03-.11-.06-.2-.14-.27-.23-.3-.28-.7-.43-1.11-.4-.4.03-.81.1-1.19.22-1.15.29-2.32.48-3.49.56.1-.26.33-.44.61-.47-.71.06-1.4.21-2.07.44-.09.04-.2.06-.3.05-.11-.04-.21-.08-.31-.14-.17-.03-.35-.01-.51.05-.78.18-1.59.21-2.38.09-.4-.04-.8-.09-1.2-.15-.16-.02-.32-.05-.49-.07.06-.1.1-.21.12-.32.03-.27.03-.55,0-.82-.03-.45-.01-.89.05-1.34.09-.36.11-.73.05-1.1-.06-.16-.1-.34-.11-.51.02-.18.18-.35.35-.29.01-.26.14-.51.36-.66.21-.15.45-.27.7-.35l2.15-.81c-.46-.07-.92,0-1.34.18l.36-.4h-.25s-.05-.34-.05-.34c-.31-.15-.64-.25-.98-.3-.02-.24.34-.29.51-.46.2-.2.1-.53,0-.79-.06.08-.16.13-.26.13,0-.1-.06-.18-.14-.23-.06-.04-.13-.05-.18-.1-.07-.07-.13-.16-.16-.26-.1-.21-.28-.37-.49-.46-.18-.05-.36-.1-.53-.17-.18-.08-.27-.27-.21-.46-.78.46-1.61.83-2.48,1.08.2.13.43.2.67.22-.13.01-.25.07-.35.16-.05.07-.08.15-.11.23-.18.48-.58.84-1.08.96-.29.04-.58.07-.88.08-.3.01-.58.16-.76.39-.15.34-.18.72-.07,1.08l-1.03.08c-.09,0-.2,0-.25-.08-.02-.05-.02-.11,0-.16.08-.39.19-.77.33-1.14.09.05.17.13.2.24.02-.57.14-1.13.36-1.66.04-.12.09-.24.16-.35.08-.11.18-.2.26-.3l.02-.02,1.61-.1c.38-.02.83-.09,1-.44.15-.3.04-.73.31-.92.09-.05.18-.09.27-.12.14-.08.26-.19.36-.32.48-.52,1.14-.84,1.84-.92-.19-.11-.39-.2-.6-.26,1.08-.65,2.36-.9,3.61-.71-.15-.03-.26-.15-.27-.31l.99-.04c-.11,0-.21-.07-.24-.18.57-.04,1.14-.08,1.71-.13l-.71-.14c.07-.24-.07-.49-.31-.55-.01,0-.03,0-.04,0-.16-.02-.36.04-.47-.08-.05-.05-.06-.12-.11-.17-.1-.07-.23-.09-.35-.04-.83.18-1.63.43-2.42.75-.44.27-.98.33-1.48.17l-.15.34c-.06-.1-.11-.21-.15-.32-.22.22-.51.36-.82.4-.12,0-.25.03-.35.09-.07.07-.14.14-.19.22-.18.2-.5.21-.7.03-.11-.1-.17-.25-.16-.4.26-.11.55-.15.84-.13-.65-.06-1.3-.08-1.95-.06.15-.4.5-.7.92-.79l-.23.38c.58-.68,1.26-1.28,2-1.78l-.28.36c.76-.83,1.71-1.46,2.78-1.83.36-.08.69-.26.93-.54-.2-.02-.36-.17-.41-.36-.05-.17.04-.42-.02-.56-.05-.12-.27-.22-.34-.35-.13-.21-.08-.57-.3-.72-.35-.23-1.07.21-1.43.27-.46.08-.91.05-1.37.17.11.17.35.14.55.13s.46.08.44.28l-.32.1c.15.15.14.4,0,.54-.01.01-.03.03-.05.04-.19.12-.42.17-.65.15,0,.13-.02.27-.02.41.13.04.27.05.4.02.03.09-.05.18-.14.2s-.18.01-.27.03c-.16.06-.29.17-.38.32-.51.68-.99,1.37-1.45,2.07l.19-.12c.05.17-.1.32-.23.43l-1.07.9c-.11.11-.25.19-.39.26-.35.12-.74-.06-1.11,0-.13.03-.25.06-.38.08-.21-.01-.41-.07-.6-.17-.45-.17-.93-.23-1.4-.16.06.08-.1.14-.2.14-.3.03-.57.18-.76.41-.41.41-.74.88-.99,1.4-.14.3-.26.61-.38.92l-.03.08c-.08.19-.13.39-.14.6,0,.21.1.41.29.52.18.09.39.01.47-.16,0-.02.01-.03.02-.05.28.45.75.77,1.27.86.32.06.64.09.96.08.1,1.41.2,2.81.3,4.22.04.36.04.73,0,1.09.05,0,.1-.01.14-.03-.13.07-.24.17-.33.28-.37-.3-.73-.59-1.09-.9-.11-.23-.05-.52.15-.68.09-.07.23-.14.23-.26-.13-.19-.2-.42-.22-.65-.1-.46-.25-.91-.43-1.34-.15-.51-.42-.97-.8-1.34-.24-.18-.5-.32-.79-.41-.68-.28-1.41-.38-2.14-.3-.09.02-.19.03-.29.02-.07,0-.14-.03-.22-.04-.3-.03-.54.21-.74.44-.39.37-.67.84-.8,1.36,0,.04-.01.08-.03.11-.04.05-.1.09-.16.11-.13.07-.24.17-.3.31-.02.03-.03.07-.02.1.01.07.1.11.12.18.03.09-.06.18-.07.27-.02.13.11.23.22.31l.39.25c.19.1.36.24.5.4.08.14.18.26.29.38.26.23.66.16.99.25.5.13.93.61,1.42.49.04-.01.08-.02.12-.02.11.02.14.17.21.26.12.17.37.16.58.17.31.01.62.06.92.14.14.01.26.09.33.21.27.29.46.65.53,1.04l-.09.04s-.08-.11-.08-.17c-.14.08-.26.21-.32.36-.73.43-1.43.91-2.1,1.42-.49.36-1.05.62-1.64.77-.18.02-.36.08-.53.16-.17.09-.26.28-.22.46-.19-.19-.51-.1-.75.02-.21.17-.48.25-.75.23-.08.1-.01.26.08.34.11.07.21.15.3.24.17.22.06.53.06.81,0,.53.48,1,.43,1.53-.18-.12-.27-.33-.23-.54-.17.12-.16.38-.11.59.04.22.14.43.27.61.14.18.36.28.59.27l.02-.39c.1.25.36.4.63.36.26-.02.51-.13.77-.17.23-.01.46-.04.69-.09.51-.17.71-.76,1.04-1.2-.15.14-.32.26-.51.34-.09-.29.17-.56.41-.74.45-.34.93-.66,1.42-.96.03.09,0,.18-.08.24.77-.28.89-1.43,1.64-1.76.03-.02.07-.02.11-.02.05.02.08.05.1.1.26.6.42,1.23.48,1.88.1.51.27,1,.5,1.46-.19-.09-.35-.24-.44-.42-.14.83.15,1.68.77,2.24.1.11.22.21.35.29.15.08.31.14.47.18l.33.1c.13.05.26.07.4.06.14-.02.25-.13.27-.27,0-.19-.23-.33-.21-.53,0-.08.06-.16.05-.25-.01-.16-.21-.21-.35-.28-.23-.15-.38-.39-.42-.67-.03-.27-.08-.54-.16-.8-.16-.32-.35-.62-.56-.91-.17-.32-.27-.67-.29-1.03.02-.8,0-1.6-.08-2.4-.02-.07-.03-.14-.02-.21.02-.07.06-.14.11-.2l1.31-1.61c.23-.28.46-.57.67-.87.13,0,.25.07.32.19.1.17.06.42.22.53s.34,0,.5-.08c.44-.22.92-.33,1.41-.31l-.16,1.8c-.01.27-.06.53-.14.78-.02.06-.04.11-.07.16-.06-.07-.14-.12-.22-.17-.1-.03-.21-.05-.32-.04-.42-.03-.81-.26-1.04-.62-.31,0-.59.2-.7.49l-.2-.19c-.57.07-.92.63-1.19,1.14-.16.19-.18.47-.04.68l.41.78c.03.12.04.24.06.36,0,.15.03.3.09.43.15.31.54.38.85.51.06.02.1.05.14.1.03.08.03.17,0,.26-.06.38.1.76.42.97.44.2.94.22,1.4.07.74-.14,1.47-.32,2.18-.56.33-.12.65-.25.99-.36.3-.09.6-.16.91-.23l3.83-.85c.85-.23,1.72-.38,2.6-.43.72.05,1.44.05,2.16-.01.37-.07.75-.12,1.13-.16,1.14-.05,2.29.49,3.4.2-.03-.21-.15-.39-.32-.5m-19.98-5.32s-.02-.02-.02-.04c-.02-.08.07-.14.14-.19.34-.21.64-.48.9-.78,0,.05-.02.11-.04.16-.2.41-.55.71-.98.85m-.08-.87c.05.05.08.13.15.15.11.03.2-.08.26-.17.17-.25.41-.44.68-.56.02.12.02.25.01.37l-1.3.67c-.15,0-.26-.13-.26-.28,0-.15.13-.26.28-.26.07,0,.13.03.18.08"/>
        </g>
      </g>
      <g class="cls-1">
        <path class="cls-5" d="m2.43,59c-.07,0-.11-.07-.11-.21,0-.12.04-.18.11-.18h.2c.31,0,.59-.11.84-.32s.38-.48.38-.8v-7.39c0-.33-.1-.55-.29-.68s-.5-.19-.93-.19h-.2c-.07,0-.1-.06-.1-.2s.03-.2.1-.2h2.37c.18,0,.29.08.35.22l3.18,7.59c.04.12.1.18.2.18.07,0,.14-.06.2-.18l3.35-7.59c.06-.15.18-.22.34-.22h2.25s.08.02.09.05c.01.03.02.08.02.15,0,.13-.04.2-.11.2h-.21c-.44,0-.75.07-.92.2-.18.13-.27.36-.27.67v7.63c0,.33.09.56.28.69s.49.2.91.2h.21c.07,0,.1.06.1.18,0,.14-.03.21-.1.21h-3.93c-.06,0-.08-.07-.08-.21,0-.12.03-.18.08-.18h.24c.43,0,.74-.07.92-.2.19-.14.28-.36.28-.68v-6.72c0-.08-.01-.15-.04-.19s-.07-.06-.11-.06c-.07,0-.14.06-.2.18l-3.4,7.84c-.07.15-.13.22-.18.22s-.12-.07-.18-.22l-3.32-7.83c-.06-.12-.12-.18-.18-.18-.05,0-.08.02-.11.06-.03.04-.04.1-.04.19v6.47c0,.32.13.58.39.8.26.21.53.32.81.32h.22c.06,0,.08.06.08.18,0,.14-.03.21-.08.21h-3.39Z"/>
        <path class="cls-5" d="m16.39,59c-.08,0-.11-.07-.11-.2s.04-.2.11-.2h.18c.27,0,.49-.04.65-.11.16-.07.25-.23.25-.48l-.04-4.27c0-.2-.04-.34-.13-.43-.09-.09-.19-.15-.31-.18-.12-.02-.32-.05-.61-.09-.06,0-.09-.02-.11-.04-.01-.02-.02-.06-.02-.13,0-.05,0-.09.01-.13,0-.04.03-.06.06-.07.19-.06.45-.13.8-.21.34-.08.68-.16,1.01-.24.02,0,.05-.01.1-.01.15,0,.22.09.22.27v5.53c-.01.24.07.4.23.48.16.08.38.11.67.11h.18c.07,0,.1.07.1.2s-.03.2-.1.2h-3.14Zm.88-8.88c-.16-.16-.24-.35-.24-.59s.08-.43.24-.59.35-.24.59-.24.43.08.59.24c.16.16.24.35.24.59s-.08.43-.24.59c-.16.16-.35.24-.59.24s-.43-.08-.59-.24Z"/>
        <path class="cls-5" d="m21.83,58.8c-.28-.27-.41-.67-.41-1.22v-4.48c0-.09-.03-.17-.08-.22-.05-.05-.12-.08-.22-.08h-.55c-.09,0-.17-.02-.22-.07-.05-.05-.08-.11-.08-.2,0-.15.08-.26.24-.34.41-.16.73-.41.97-.76.23-.35.42-.9.57-1.66.05-.19.12-.28.21-.28.1,0,.15.1.15.29v2.2c0,.09.03.17.08.22.05.05.12.08.22.08h1.25c.2,0,.29.08.29.25,0,.08-.03.15-.08.2-.05.05-.12.07-.22.07h-1.26c-.09,0-.17.03-.22.08-.05.05-.08.12-.08.22v4.4c.02.32.11.57.28.76s.38.29.64.29c.21,0,.39-.03.52-.1.14-.07.27-.17.4-.32.05-.06.09-.08.14-.08s.09.02.13.07c.04.05.06.09.06.14,0,.04,0,.07-.03.1-.37.57-.89.85-1.55.85-.51,0-.91-.13-1.18-.4Z"/>
        <path class="cls-5" d="m26.07,59.06c-.09,0-.15-.06-.18-.2l-.42-1.71v-.07c-.01-.06.02-.1.1-.14.02,0,.04-.01.07-.01.07,0,.12.04.17.11.22.29.44.55.66.78s.52.44.92.64c.4.2.85.3,1.37.3.42,0,.76-.12,1.03-.36.27-.24.4-.54.4-.9,0-.21-.06-.41-.18-.59-.12-.18-.29-.32-.52-.42-.23-.11-.7-.27-1.41-.48-.36-.08-.66-.17-.88-.27-.92-.38-1.39-.96-1.39-1.74,0-.21.05-.45.16-.73.11-.29.31-.54.62-.78.3-.23.73-.35,1.28-.35.3,0,.56.04.78.1.22.07.35.11.38.12.18.07.29.1.35.1.18,0,.35-.06.52-.18.08-.06.15-.08.2-.08.07,0,.13.06.17.17l.46,1.5s0,.04.01.08c0,.04,0,.08-.03.1l-.07.06s-.05.01-.08.01c-.06,0-.11-.02-.15-.07-.34-.38-.71-.72-1.11-1.01-.4-.29-.9-.44-1.48-.44-.31,0-.56.06-.76.18-.2.12-.35.27-.43.43s-.13.33-.13.48c0,.21.07.38.2.52.13.15.36.29.67.44.2.1.57.23,1.13.39.61.19,1.05.34,1.33.46.82.37,1.23.94,1.23,1.69,0,.59-.22,1.07-.66,1.43-.44.37-1.04.55-1.79.55-.4,0-.91-.1-1.51-.29-.22-.07-.36-.1-.41-.1-.11,0-.24.05-.39.15-.07.07-.13.1-.2.1Z"/>
        <path class="cls-5" d="m39.51,58.51s.05.07.05.13c0,.09-.03.15-.1.17l-1.67.27h-.08c-.15.01-.22-.08-.22-.27v-.41c0-.16-.05-.24-.15-.24-.07,0-.13.04-.2.11-.55.57-1.18.85-1.89.85-.8,0-1.38-.21-1.72-.62-.34-.41-.51-.91-.51-1.51v-3.26c-.01-.2-.06-.34-.15-.43-.09-.09-.2-.15-.33-.18-.13-.03-.33-.06-.59-.08-.07,0-.11-.03-.12-.06-.01-.03-.02-.07-.02-.12,0-.1.03-.16.08-.18.18-.06.44-.13.78-.21s.67-.16,1-.24c.03,0,.06-.01.1-.01.15,0,.22.09.22.27v1.75c0,1.51,0,2.38.01,2.6.02.43.14.8.36,1.13.22.32.58.48,1.1.48.34,0,.68-.09,1.01-.27.33-.18.62-.45.86-.81.07-.11.11-.23.11-.36l-.06-3.25c0-.2-.04-.34-.13-.43-.09-.09-.19-.15-.31-.18-.12-.03-.32-.06-.6-.1-.08,0-.13-.08-.13-.22,0-.06.03-.11.08-.13.18-.06.44-.13.78-.21s.67-.16.99-.24c.03,0,.06-.01.1-.01.15,0,.22.09.22.27l.03,5.32c0,.35.19.56.56.63.11.02.21.03.29.03.12,0,.2.01.23.04Z"/>
        <path class="cls-5" d="m52.94,58.62c.07,0,.11.07.11.2,0,.12-.04.18-.11.18h-3.14c-.07,0-.1-.06-.1-.18,0-.07,0-.11.02-.15.01-.03.04-.05.08-.05h.18c.27,0,.49-.04.65-.11.16-.07.24-.23.24-.48v-1.9c0-.66,0-1.19-.03-1.58-.04-1.14-.52-1.71-1.44-1.71-.36,0-.71.09-1.05.28s-.63.47-.88.85c-.07.09-.1.17-.1.24v.07c0,.15.01.44.01.87,0,.77-.02,1.74-.06,2.88,0,.23.08.39.25.47.17.08.39.12.66.12h.18c.06,0,.1.07.1.2,0,.12-.03.18-.1.18h-3.14c-.07,0-.11-.06-.11-.18,0-.13.04-.2.11-.2h.18c.27,0,.49-.04.65-.11.16-.07.25-.23.25-.48v-1.83c0-.71,0-1.26-.03-1.65-.04-1.14-.52-1.71-1.44-1.71-.36,0-.71.09-1.04.27-.33.18-.62.46-.88.83-.07.12-.1.24-.1.36v3.72c-.01.23.07.39.24.47s.39.12.66.12h.18c.08,0,.11.07.11.2,0,.12-.04.18-.11.18h-3.14c-.07,0-.1-.06-.1-.18,0-.07,0-.11.02-.15.01-.03.04-.05.08-.05h.18c.27,0,.49-.04.66-.12s.25-.24.25-.47l-.06-4.27c0-.2-.04-.34-.13-.43s-.2-.15-.32-.18c-.13-.03-.32-.06-.59-.1-.08,0-.13-.08-.13-.22,0-.07.02-.11.07-.13.19-.06.45-.13.8-.22.34-.09.68-.17,1.01-.25.03,0,.06-.01.1-.01.15,0,.22.09.22.27v.39c0,.16.05.24.14.24.06,0,.13-.04.21-.13.53-.56,1.15-.84,1.86-.84.5,0,.92.1,1.26.31s.59.48.77.83c.04.1.09.15.15.15.06,0,.12-.04.18-.11.6-.78,1.31-1.18,2.14-1.18.73,0,1.28.21,1.67.62.38.41.59.92.62,1.51,0,.15.01.44.01.87,0,.77-.02,1.74-.06,2.88,0,.23.08.39.25.47s.39.12.66.12h.18Z"/>
        <path class="cls-5" d="m61.07,57.98v.08c-.15.4-.36.69-.64.85s-.55.25-.8.25c-.23,0-.43-.06-.6-.18s-.3-.29-.39-.5c-.06-.11-.11-.17-.17-.17-.04,0-.09.03-.17.08-.32.26-.67.46-1.07.59-.4.13-.79.2-1.17.2-.54,0-.98-.13-1.31-.38-.33-.25-.5-.6-.5-1.04,0-.35.07-.64.22-.9s.39-.48.73-.67c.21-.12.46-.23.78-.33.31-.1.74-.22,1.29-.37.5-.13.82-.22.98-.27.17-.05.25-.15.25-.32v-.35c0-.45-.02-.78-.07-.99s-.14-.41-.28-.57c-.21-.25-.55-.38-1.05-.38-.34,0-.61.08-.78.25-.18.17-.33.42-.45.77-.16.45-.39.67-.69.67-.17,0-.32-.05-.46-.16-.13-.11-.2-.25-.2-.43s.06-.39.19-.62c.13-.24.38-.46.77-.66.39-.2.94-.3,1.66-.3.42,0,.82.07,1.2.22s.65.32.8.54c.14.2.24.4.29.61.05.21.08.46.08.75,0,.44,0,.83-.01,1.16v2.03c-.01.38.06.64.2.77.14.13.29.2.43.2.12,0,.25-.04.38-.12.14-.08.25-.2.34-.36.03-.05.06-.07.1-.07.07,0,.11.03.11.1Zm-3.59.36c.31-.13.59-.31.85-.55.09-.1.14-.16.14-.18h0s.03-1.55.03-1.55c0-.11-.03-.19-.09-.24-.06-.05-.14-.06-.25-.03-.96.24-1.66.49-2.11.75s-.67.61-.67,1.06c0,.26.09.48.27.67.18.18.48.27.9.27.3,0,.6-.06.92-.19Z"/>
        <path class="cls-5" d="m62.93,58.8c-.28-.27-.41-.67-.41-1.22v-4.48c0-.09-.03-.17-.08-.22-.05-.05-.12-.08-.22-.08h-.55c-.09,0-.17-.02-.22-.07-.05-.05-.08-.11-.08-.2,0-.15.08-.26.24-.34.41-.16.73-.41.97-.76.23-.35.42-.9.57-1.66.05-.19.12-.28.21-.28.1,0,.15.1.15.29v2.2c0,.09.03.17.08.22.05.05.12.08.22.08h1.25c.2,0,.29.08.29.25,0,.08-.03.15-.08.2-.05.05-.12.07-.22.07h-1.26c-.09,0-.17.03-.22.08-.05.05-.08.12-.08.22v4.4c.02.32.11.57.28.76s.38.29.64.29c.21,0,.39-.03.52-.1.14-.07.27-.17.4-.32.05-.06.09-.08.14-.08s.09.02.13.07c.04.05.06.09.06.14,0,.04,0,.07-.03.1-.37.57-.89.85-1.55.85-.51,0-.91-.13-1.18-.4Z"/>
        <path class="cls-5" d="m73.35,57.98v.08c-.15.4-.36.69-.64.85s-.55.25-.8.25c-.23,0-.43-.06-.6-.18s-.3-.29-.39-.5c-.06-.11-.11-.17-.17-.17-.04,0-.09.03-.17.08-.32.26-.67.46-1.07.59-.4.13-.79.2-1.17.2-.54,0-.98-.13-1.31-.38-.33-.25-.5-.6-.5-1.04,0-.35.07-.64.22-.9s.39-.48.73-.67c.21-.12.46-.23.78-.33.31-.1.74-.22,1.29-.37.5-.13.82-.22.98-.27.17-.05.25-.15.25-.32v-.35c0-.45-.02-.78-.07-.99s-.14-.41-.28-.57c-.21-.25-.55-.38-1.05-.38-.34,0-.61.08-.78.25-.18.17-.33.42-.45.77-.16.45-.39.67-.69.67-.17,0-.32-.05-.46-.16-.13-.11-.2-.25-.2-.43s.06-.39.19-.62c.13-.24.38-.46.77-.66.39-.2.94-.3,1.66-.3.42,0,.82.07,1.2.22s.65.32.8.54c.14.2.24.4.29.61.05.21.08.46.08.75,0,.44,0,.83-.01,1.16v2.03c-.01.38.06.64.2.77.14.13.29.2.43.2.12,0,.25-.04.38-.12.14-.08.25-.2.34-.36.03-.05.06-.07.1-.07.07,0,.11.03.11.1Zm-3.59.36c.31-.13.59-.31.85-.55.09-.1.14-.16.14-.18h0s.03-1.55.03-1.55c0-.11-.03-.19-.09-.24-.06-.05-.14-.06-.25-.03-.96.24-1.66.49-2.11.75s-.67.61-.67,1.06c0,.26.09.48.27.67.18.18.48.27.9.27.3,0,.6-.06.92-.19Z"/>
        <path class="cls-5" d="m78.49,59.06c-.09,0-.15-.06-.18-.2l-.42-1.71v-.07c-.01-.06.02-.1.1-.14.02,0,.04-.01.07-.01.07,0,.12.04.17.11.22.29.44.55.66.78s.52.44.92.64c.4.2.85.3,1.37.3.42,0,.76-.12,1.03-.36.27-.24.4-.54.4-.9,0-.21-.06-.41-.18-.59-.12-.18-.29-.32-.52-.42-.23-.11-.7-.27-1.41-.48-.36-.08-.66-.17-.88-.27-.92-.38-1.39-.96-1.39-1.74,0-.21.05-.45.16-.73.11-.29.31-.54.62-.78.3-.23.73-.35,1.28-.35.3,0,.56.04.78.1.22.07.35.11.38.12.18.07.29.1.35.1.18,0,.35-.06.52-.18.08-.06.15-.08.2-.08.07,0,.13.06.17.17l.46,1.5s0,.04.01.08c0,.04,0,.08-.03.1l-.07.06s-.05.01-.08.01c-.06,0-.11-.02-.15-.07-.34-.38-.71-.72-1.11-1.01-.4-.29-.9-.44-1.48-.44-.31,0-.56.06-.76.18-.2.12-.35.27-.43.43s-.13.33-.13.48c0,.21.07.38.2.52.13.15.36.29.67.44.2.1.57.23,1.13.39.61.19,1.05.34,1.33.46.82.37,1.23.94,1.23,1.69,0,.59-.22,1.07-.66,1.43-.44.37-1.04.55-1.79.55-.4,0-.91-.1-1.51-.29-.22-.07-.36-.1-.41-.1-.11,0-.24.05-.39.15-.07.07-.13.1-.2.1Z"/>
        <path class="cls-5" d="m91.65,57.98v.08c-.15.4-.36.69-.64.85s-.55.25-.8.25c-.23,0-.43-.06-.6-.18s-.3-.29-.39-.5c-.06-.11-.11-.17-.17-.17-.04,0-.09.03-.17.08-.32.26-.67.46-1.07.59-.4.13-.79.2-1.17.2-.54,0-.98-.13-1.31-.38-.33-.25-.5-.6-.5-1.04,0-.35.07-.64.22-.9s.39-.48.73-.67c.21-.12.46-.23.78-.33.31-.1.74-.22,1.29-.37.5-.13.82-.22.98-.27.17-.05.25-.15.25-.32v-.35c0-.45-.02-.78-.07-.99s-.14-.41-.28-.57c-.21-.25-.55-.38-1.05-.38-.34,0-.61.08-.78.25-.18.17-.33.42-.45.77-.16.45-.39.67-.69.67-.17,0-.32-.05-.46-.16-.13-.11-.2-.25-.2-.43s.06-.39.19-.62c.13-.24.38-.46.77-.66.39-.2.94-.3,1.66-.3.42,0,.82.07,1.2.22s.65.32.8.54c.14.2.24.4.29.61.05.21.08.46.08.75,0,.44,0,.83-.01,1.16v2.03c-.01.38.06.64.2.77.14.13.29.2.43.2.12,0,.25-.04.38-.12.14-.08.25-.2.34-.36.03-.05.06-.07.1-.07.07,0,.11.03.11.1Zm-3.59.36c.31-.13.59-.31.85-.55.09-.1.14-.16.14-.18h0s.03-1.55.03-1.55c0-.11-.03-.19-.09-.24-.06-.05-.14-.06-.25-.03-.96.24-1.66.49-2.11.75s-.67.61-.67,1.06c0,.26.09.48.27.67.18.18.48.27.9.27.3,0,.6-.06.92-.19Z"/>
        <path class="cls-5" d="m100.08,58.62c.08,0,.11.07.11.2,0,.12-.04.18-.11.18h-3.14c-.07,0-.1-.06-.1-.18,0-.13.03-.2.1-.2h.2c.27,0,.49-.04.64-.11.16-.07.24-.23.24-.48v-2.6s-.03-.9-.03-.9c0-.5-.11-.9-.33-1.23-.22-.32-.59-.48-1.11-.48-.36,0-.7.09-1.03.27-.33.18-.62.46-.88.83-.07.12-.1.24-.1.36v3.74c-.01.23.07.39.24.47s.39.12.66.12h.18c.07,0,.1.07.1.2,0,.12-.03.18-.1.18h-3.14c-.07,0-.11-.06-.11-.18,0-.13.04-.2.11-.2h.18c.27,0,.49-.04.66-.12s.25-.24.25-.47l-.04-4.28c0-.2-.04-.34-.13-.43-.09-.09-.2-.15-.32-.18-.13-.03-.33-.06-.61-.1-.06,0-.09-.03-.11-.06-.01-.03-.02-.09-.02-.16,0-.06.02-.11.07-.13.19-.06.45-.13.8-.21.34-.08.68-.16,1.01-.24.02,0,.05-.01.1-.01.15,0,.22.09.22.27v.38c0,.16.05.24.14.24.07,0,.13-.04.21-.11.53-.56,1.15-.84,1.85-.84.74,0,1.29.2,1.67.61.38.41.58.91.61,1.5,0,.17.01.5.01,1.01,0,.76-.01,1.68-.04,2.76,0,.24.08.4.25.48.16.08.38.11.65.11h.18Z"/>
        <path class="cls-5" d="m102.04,59.06c-.09,0-.15-.06-.18-.2l-.42-1.71v-.07c-.01-.06.02-.1.1-.14.02,0,.04-.01.07-.01.07,0,.12.04.17.11.22.29.44.55.66.78.21.23.52.44.92.64.4.2.85.3,1.36.3.42,0,.76-.12,1.03-.36.27-.24.4-.54.4-.9,0-.21-.06-.41-.18-.59s-.29-.32-.52-.42c-.23-.11-.71-.27-1.41-.48-.36-.08-.66-.17-.88-.27-.92-.38-1.39-.96-1.39-1.74,0-.21.05-.45.16-.73.11-.29.31-.54.62-.78s.73-.35,1.28-.35c.3,0,.56.04.78.1.22.07.35.11.39.12.18.07.29.1.35.1.18,0,.35-.06.52-.18.08-.06.15-.08.2-.08.08,0,.13.06.17.17l.46,1.5s0,.04.01.08c0,.04,0,.08-.03.1l-.07.06s-.05.01-.08.01c-.06,0-.11-.02-.15-.07-.34-.38-.71-.72-1.11-1.01s-.9-.44-1.48-.44c-.31,0-.56.06-.76.18-.2.12-.35.27-.43.43-.09.17-.13.33-.13.48,0,.21.07.38.2.52.14.15.36.29.67.44.2.1.57.23,1.13.39.61.19,1.05.34,1.33.46.82.37,1.23.94,1.23,1.69,0,.59-.22,1.07-.66,1.43-.44.37-1.04.55-1.79.55-.4,0-.91-.1-1.51-.29-.22-.07-.36-.1-.41-.1-.11,0-.24.05-.39.15-.07.07-.13.1-.2.1Z"/>
        <path class="cls-5" d="m109.93,58.67c-.5-.35-.88-.8-1.15-1.34-.27-.54-.4-1.09-.4-1.65,0-.6.13-1.17.39-1.71.26-.54.64-.98,1.14-1.32.5-.34,1.08-.5,1.76-.5s1.26.17,1.76.5.89.77,1.16,1.32c.27.54.4,1.11.4,1.71,0,.56-.13,1.11-.4,1.65-.27.54-.65.99-1.16,1.34-.5.35-1.09.53-1.76.53s-1.24-.17-1.74-.53Zm3.32-.83c.39-.57.58-1.29.58-2.16,0-.91-.19-1.65-.57-2.21-.38-.55-.91-.83-1.58-.83s-1.19.28-1.57.84c-.38.56-.57,1.29-.57,2.2,0,.56.09,1.07.26,1.53.17.46.42.83.74,1.09.32.27.7.4,1.14.4.66,0,1.19-.29,1.57-.86Z"/>
      </g>
      <g class="cls-1">
        <path class="cls-5" d="m12.11,74c-.08,0-.11-.07-.11-.21,0-.12.04-.18.11-.18h.2c.31,0,.59-.11.84-.32s.38-.48.38-.8v-7.39c0-.33-.1-.55-.29-.68s-.5-.19-.93-.19h-.2c-.07,0-.1-.06-.1-.2s.03-.2.1-.2h2.37c.18,0,.29.08.35.22l3.18,7.59c.04.12.1.18.2.18.07,0,.14-.06.2-.18l3.35-7.59c.07-.15.18-.22.34-.22h2.25s.08.02.09.05c.01.03.02.08.02.15,0,.13-.04.2-.11.2h-.21c-.44,0-.75.07-.92.2-.18.13-.27.36-.27.67v7.63c0,.33.09.56.28.69s.49.2.91.2h.21c.07,0,.1.06.1.18,0,.14-.03.21-.1.21h-3.93c-.06,0-.08-.07-.08-.21,0-.12.03-.18.08-.18h.24c.43,0,.74-.07.92-.2.19-.14.28-.36.28-.68v-6.72c0-.08-.01-.15-.04-.19-.03-.04-.07-.06-.11-.06-.08,0-.14.06-.2.18l-3.4,7.84c-.07.15-.13.22-.18.22s-.12-.07-.18-.22l-3.32-7.83c-.06-.12-.12-.18-.18-.18-.05,0-.08.02-.11.06s-.04.1-.04.19v6.47c0,.32.13.58.39.8.26.21.53.32.81.32h.22c.06,0,.08.06.08.18,0,.14-.03.21-.08.21h-3.39Z"/>
        <path class="cls-5" d="m27.64,73.67c-.5-.35-.88-.8-1.15-1.34-.27-.54-.4-1.09-.4-1.65,0-.6.13-1.17.39-1.71.26-.54.64-.98,1.14-1.32s1.08-.5,1.76-.5,1.26.17,1.76.5c.5.34.89.77,1.15,1.32.27.54.4,1.11.4,1.71,0,.56-.13,1.11-.4,1.65-.27.54-.65.99-1.15,1.34-.5.35-1.09.53-1.76.53s-1.24-.17-1.74-.53Zm3.32-.83c.39-.57.58-1.29.58-2.16,0-.91-.19-1.65-.57-2.21-.38-.55-.91-.83-1.58-.83s-1.19.28-1.57.84c-.38.56-.57,1.29-.57,2.2,0,.56.09,1.07.26,1.53s.42.83.74,1.09c.32.27.7.4,1.14.4.66,0,1.19-.29,1.58-.86Z"/>
        <path class="cls-5" d="m41.25,73.51s.05.07.05.13c0,.09-.03.15-.1.17l-1.67.27h-.08c-.15.01-.22-.08-.22-.27v-.41c0-.16-.05-.24-.15-.24-.07,0-.13.04-.2.11-.55.57-1.18.85-1.89.85-.8,0-1.38-.21-1.72-.62-.34-.41-.51-.91-.51-1.51v-3.26c-.01-.2-.06-.34-.15-.43-.09-.09-.2-.15-.33-.18-.13-.03-.33-.06-.59-.08-.07,0-.11-.03-.12-.06-.01-.03-.02-.07-.02-.12,0-.1.03-.16.08-.18.18-.06.44-.13.78-.21s.67-.16,1-.24c.03,0,.06-.01.1-.01.15,0,.22.09.22.27v1.75c0,1.51,0,2.38.01,2.6.02.43.14.8.36,1.13.22.32.58.48,1.1.48.34,0,.68-.09,1.01-.27.33-.18.62-.45.86-.81.07-.11.11-.23.11-.36l-.06-3.25c0-.2-.04-.34-.13-.43-.09-.09-.19-.15-.31-.18-.12-.03-.32-.06-.6-.1-.08,0-.13-.08-.13-.22,0-.06.03-.11.08-.13.18-.06.44-.13.78-.21s.67-.16.99-.24c.03,0,.06-.01.1-.01.15,0,.22.09.22.27l.03,5.32c0,.35.19.56.56.63.11.02.21.03.29.03.12,0,.2.01.23.04Z"/>
        <path class="cls-5" d="m50.16,73.62c.07,0,.11.07.11.2,0,.12-.04.18-.11.18h-3.14c-.07,0-.1-.06-.1-.18,0-.13.03-.2.1-.2h.2c.27,0,.49-.04.64-.11.16-.07.24-.23.24-.48v-2.6s-.03-.9-.03-.9c0-.5-.11-.9-.33-1.23-.22-.32-.59-.48-1.11-.48-.35,0-.7.09-1.03.27-.33.18-.62.46-.88.83-.07.12-.1.24-.1.36v3.74c-.01.23.07.39.24.47s.39.12.66.12h.18c.07,0,.1.07.1.2,0,.12-.03.18-.1.18h-3.14c-.08,0-.11-.06-.11-.18,0-.13.04-.2.11-.2h.18c.27,0,.49-.04.66-.12s.25-.24.25-.47l-.04-4.28c0-.2-.04-.34-.13-.43-.09-.09-.2-.15-.32-.18-.13-.03-.33-.06-.61-.1-.06,0-.09-.03-.1-.06-.01-.03-.02-.09-.02-.16,0-.06.02-.11.07-.13.19-.06.45-.13.8-.21s.68-.16,1.01-.24c.02,0,.05-.01.1-.01.15,0,.22.09.22.27v.38c0,.16.05.24.14.24.07,0,.14-.04.21-.11.53-.56,1.15-.84,1.85-.84.74,0,1.29.2,1.67.61.38.41.58.91.61,1.5,0,.17.01.5.01,1.01,0,.76-.01,1.68-.04,2.76,0,.24.08.4.25.48.16.08.38.11.65.11h.18Z"/>
        <path class="cls-5" d="m52.45,73.8c-.28-.27-.41-.67-.41-1.22v-4.48c0-.09-.03-.17-.08-.22-.05-.05-.12-.08-.22-.08h-.55c-.09,0-.17-.02-.22-.07-.05-.05-.08-.11-.08-.2,0-.15.08-.26.24-.34.41-.16.73-.41.97-.76.23-.35.42-.9.57-1.66.05-.19.12-.28.21-.28.1,0,.15.1.15.29v2.2c0,.09.03.17.08.22.05.05.12.08.22.08h1.25c.2,0,.29.08.29.25,0,.08-.03.15-.08.2-.05.05-.12.07-.22.07h-1.26c-.09,0-.17.03-.22.08-.05.05-.08.12-.08.22v4.4c.02.32.11.57.28.76s.38.29.64.29c.21,0,.39-.03.52-.1.14-.07.27-.17.4-.32.05-.06.09-.08.14-.08s.09.02.13.07c.04.05.06.09.06.14,0,.04,0,.07-.03.1-.37.57-.89.85-1.55.85-.51,0-.91-.13-1.18-.4Z"/>
        <path class="cls-5" d="m62.87,72.98v.08c-.15.4-.36.69-.64.85-.28.17-.55.25-.8.25-.23,0-.43-.06-.6-.18s-.3-.29-.39-.5c-.06-.11-.11-.17-.17-.17-.04,0-.09.03-.17.08-.32.26-.67.46-1.07.59-.4.13-.79.2-1.17.2-.54,0-.98-.13-1.31-.38s-.5-.6-.5-1.04c0-.35.08-.64.22-.9.15-.25.39-.48.73-.67.21-.12.46-.23.78-.33.31-.1.74-.22,1.29-.37.49-.13.82-.22.98-.27.17-.05.25-.15.25-.32v-.35c0-.45-.02-.78-.07-.99-.05-.21-.14-.41-.28-.57-.21-.25-.56-.38-1.05-.38-.35,0-.61.08-.78.25-.18.17-.33.42-.45.77-.16.45-.39.67-.69.67-.17,0-.32-.05-.46-.16-.14-.11-.2-.25-.2-.43s.06-.39.19-.62c.13-.24.38-.46.77-.66.39-.2.94-.3,1.66-.3.42,0,.82.07,1.2.22.38.14.65.32.8.54.14.2.24.4.29.61.05.21.08.46.08.75,0,.44,0,.83-.01,1.16v2.03c-.01.38.06.64.2.77.14.13.29.2.43.2.12,0,.25-.04.39-.12.13-.08.25-.2.34-.36.03-.05.06-.07.1-.07.08,0,.11.03.11.1Zm-3.59.36c.31-.13.59-.31.85-.55.09-.1.14-.16.14-.18h0s.03-1.55.03-1.55c0-.11-.03-.19-.09-.24-.06-.05-.14-.06-.25-.03-.96.24-1.66.49-2.11.75s-.67.61-.67,1.06c0,.26.09.48.27.67s.48.27.9.27c.3,0,.6-.06.92-.19Z"/>
        <path class="cls-5" d="m63.73,74c-.08,0-.11-.07-.11-.2s.04-.2.11-.2h.18c.27,0,.49-.04.65-.11.16-.07.25-.23.25-.48l-.04-4.27c0-.2-.04-.34-.13-.43-.09-.09-.19-.15-.31-.18-.12-.02-.32-.05-.61-.09-.06,0-.09-.02-.11-.04-.01-.02-.02-.06-.02-.13,0-.05,0-.09.01-.13,0-.04.03-.06.06-.07.19-.06.45-.13.8-.21.34-.08.68-.16,1.01-.24.02,0,.05-.01.1-.01.15,0,.22.09.22.27v5.53c-.01.24.07.4.23.48.16.08.38.11.67.11h.18c.07,0,.1.07.1.2s-.03.2-.1.2h-3.14Zm.88-8.88c-.16-.16-.24-.35-.24-.59s.08-.43.24-.59.35-.24.59-.24.43.08.59.24c.16.16.24.35.24.59s-.08.43-.24.59c-.16.16-.35.24-.59.24s-.43-.08-.59-.24Z"/>
        <path class="cls-5" d="m75.74,73.62c.07,0,.11.07.11.2,0,.12-.04.18-.11.18h-3.14c-.07,0-.1-.06-.1-.18,0-.13.03-.2.1-.2h.2c.27,0,.49-.04.64-.11.16-.07.24-.23.24-.48v-2.6s-.03-.9-.03-.9c0-.5-.11-.9-.33-1.23-.22-.32-.59-.48-1.11-.48-.35,0-.7.09-1.03.27-.33.18-.62.46-.88.83-.07.12-.1.24-.1.36v3.74c-.01.23.07.39.24.47s.39.12.66.12h.18c.07,0,.1.07.1.2,0,.12-.03.18-.1.18h-3.14c-.08,0-.11-.06-.11-.18,0-.13.04-.2.11-.2h.18c.27,0,.49-.04.66-.12s.25-.24.25-.47l-.04-4.28c0-.2-.04-.34-.13-.43-.09-.09-.2-.15-.32-.18-.13-.03-.33-.06-.61-.1-.06,0-.09-.03-.1-.06-.01-.03-.02-.09-.02-.16,0-.06.02-.11.07-.13.19-.06.45-.13.8-.21s.68-.16,1.01-.24c.02,0,.05-.01.1-.01.15,0,.22.09.22.27v.38c0,.16.05.24.14.24.07,0,.14-.04.21-.11.53-.56,1.15-.84,1.85-.84.74,0,1.29.2,1.67.61.38.41.58.91.61,1.5,0,.17.01.5.01,1.01,0,.76-.01,1.68-.04,2.76,0,.24.08.4.25.48.16.08.38.11.65.11h.18Z"/>
        <path class="cls-5" d="m91.52,73.61s.08.02.09.05c.01.03.02.08.02.15,0,.13-.04.2-.11.2h-3.96c-.07,0-.1-.07-.1-.2s.03-.2.1-.2h.22c.42,0,.73-.07.92-.2.19-.14.29-.36.29-.67v-3.49c0-.09-.03-.17-.08-.22-.05-.05-.12-.08-.22-.08h-5.04c-.09,0-.17.03-.22.08-.05.05-.08.12-.08.22v3.47c0,.33.09.55.28.68.19.13.5.19.92.19h.21s.08.02.09.05c.01.03.02.08.02.15,0,.13-.04.2-.11.2h-3.96c-.07,0-.1-.07-.1-.2s.03-.2.1-.2h.22c.42,0,.73-.07.92-.2.19-.13.29-.36.29-.67v-7.63c0-.33-.1-.55-.29-.69s-.5-.2-.91-.2h-.22c-.07,0-.1-.07-.1-.2s.03-.2.1-.2h3.96s.08.02.09.05c.01.03.02.08.02.15,0,.13-.04.2-.11.2h-.21c-.44,0-.75.07-.93.2-.18.13-.27.36-.27.69v3.04c0,.09.03.17.08.22.05.05.12.08.22.08h5.04c.09,0,.17-.03.22-.08s.08-.12.08-.22v-3.02c0-.33-.1-.56-.29-.69-.2-.13-.5-.2-.91-.2h-.22c-.07,0-.1-.06-.1-.2s.03-.2.1-.2h3.96s.08.02.09.05c.01.03.02.08.02.15,0,.13-.04.2-.11.2h-.21c-.44,0-.75.07-.93.2-.18.13-.27.36-.27.69v7.63c0,.33.09.55.28.68s.5.19.92.19h.21Z"/>
        <path class="cls-5" d="m100.2,73.51s.05.07.05.13c0,.09-.03.15-.1.17l-1.67.27h-.08c-.15.01-.22-.08-.22-.27v-.41c0-.16-.05-.24-.15-.24-.07,0-.13.04-.2.11-.55.57-1.18.85-1.89.85-.8,0-1.38-.21-1.72-.62-.34-.41-.51-.91-.51-1.51v-3.26c-.01-.2-.06-.34-.15-.43-.09-.09-.2-.15-.33-.18-.13-.03-.33-.06-.59-.08-.07,0-.11-.03-.12-.06-.01-.03-.02-.07-.02-.12,0-.1.03-.16.08-.18.18-.06.44-.13.78-.21s.67-.16,1-.24c.03,0,.06-.01.1-.01.15,0,.22.09.22.27v1.75c0,1.51,0,2.38.01,2.6.02.43.14.8.36,1.13.22.32.58.48,1.1.48.34,0,.68-.09,1.01-.27.33-.18.62-.45.86-.81.07-.11.11-.23.11-.36l-.06-3.25c0-.2-.04-.34-.13-.43-.09-.09-.19-.15-.31-.18-.12-.03-.32-.06-.6-.1-.08,0-.13-.08-.13-.22,0-.06.03-.11.08-.13.18-.06.44-.13.78-.21s.67-.16.99-.24c.03,0,.06-.01.1-.01.15,0,.22.09.22.27l.03,5.32c0,.35.19.56.56.63.11.02.21.03.29.03.12,0,.2.01.23.04Z"/>
        <path class="cls-5" d="m102.54,73.8c-.28-.27-.41-.67-.41-1.22v-4.48c0-.09-.03-.17-.08-.22s-.12-.08-.22-.08h-.55c-.09,0-.17-.02-.22-.07-.05-.05-.08-.11-.08-.2,0-.15.08-.26.24-.34.41-.16.73-.41.97-.76.23-.35.42-.9.57-1.66.05-.19.12-.28.21-.28.1,0,.15.1.15.29v2.2c0,.09.03.17.08.22.05.05.12.08.22.08h1.25c.2,0,.29.08.29.25,0,.08-.03.15-.08.2-.05.05-.12.07-.22.07h-1.26c-.09,0-.17.03-.22.08s-.08.12-.08.22v4.4c.02.32.11.57.28.76s.38.29.64.29c.21,0,.39-.03.53-.1.13-.07.27-.17.4-.32.05-.06.09-.08.14-.08s.09.02.13.07c.04.05.06.09.06.14,0,.04,0,.07-.03.1-.37.57-.89.85-1.55.85-.51,0-.91-.13-1.18-.4Z"/>
      </g>
      <line id="_線_1244" data-name="線 1244" class="cls-2" x1="58.65" y1="91.5" x2="58.65" y2="107.5"/>
    </g>
  </g>
</svg>