<?xml version="1.0" encoding="UTF-8"?>
<svg id="_レイヤー_2" data-name="レイヤー 2" xmlns="http://www.w3.org/2000/svg" xmlns:xlink="http://www.w3.org/1999/xlink" viewBox="0 0 123.23 225.43">
  <defs>
    <style>
      .cls-1 {
        isolation: isolate;
      }

      .cls-2 {
        stroke: #fff;
      }

      .cls-2, .cls-3 {
        fill: none;
      }

      .cls-3, .cls-4, .cls-5 {
        stroke-width: 0px;
      }

      .cls-6 {
        clip-path: url(#clippath-1);
      }

      .cls-4 {
        fill: #fff;
      }

      .cls-7 {
        clip-path: url(#clippath);
      }

      .cls-5 {
        fill: #d9d9d9;
      }
    </style>
    <clipPath id="clippath">
      <rect class="cls-3" y="115" width="123.23" height="110.43"/>
    </clipPath>
    <clipPath id="clippath-1">
      <rect class="cls-3" x="11.96" width="99.3" height="38.08"/>
    </clipPath>
  </defs>
  <g id="_レイヤー_1-2" data-name="レイヤー 1">
    <g id="_グループ_2897" data-name="グループ 2897">
      <g id="_グループ_2718" data-name="グループ 2718">
        <g class="cls-7">
          <g id="_グループ_2159" data-name="グループ 2159">
            <path id="_パス_1258" data-name="パス 1258" class="cls-4" d="m49.79,144.03c.33-1.08.93-3.41,1.33-4.32s1.24-2.77,1.54-3.45c.66-1.46,1.21-2.96,1.66-4.5.18-1.2.15-2.43-.09-3.62-.3-1.32-.75-2.61-1.34-3.83-.35-.65-2.51-4.43-2.64-4.67s-2.54-4.11-2.58-4.31.28-.32.65-.33c1.06,0,2.11.14,3.12.44.7.27,1.36.64,1.97,1.09.57.44,1.8,1.38,1.8,1.38-.05-.76-.22-1.36.27-1.77.56-.35,1.27-.39,1.87-.12.75.22,1.47.54,2.15.93.8.6,1.68,1.09,2.6,1.48,1.05-.34,2.08-.75,3.07-1.25.75-.43,1.58-.71,2.43-.83.6.06,1.14.39,1.45.91.07.3.11.6.12.9,1.75-1.11,3.59-2.07,5.5-2.87.66-.16,1.35-.09,1.96.19.08.04.11.22,0,.39s-3.25,5.34-3.44,5.65-2.92,5.01-3.32,6.91c-.27.9-.31,1.86-.1,2.78.06.3,1.15,3.43,1.48,4.14s1.57,3.67,1.77,4.23.93,3.02,1.07,3.66.64,2.62.64,2.62c1.5-.64,4.07-1.84,4.64-2.14s3.44-1.97,4.01-2.24c.92-.5,1.99-.69,3.03-.53,1.19.29,1.56.82,1.39,1.72-.21.86-.74,1.62-1.48,2.11-.44.26-.85.57-1.22.94.62-.12,1.21-.38,1.71-.75.78-.52,4.48-3.95,5.61-4.49,1.36-.65,3.24-.65,3.93-.1.66.48.8,1.41.32,2.07-.6.82-1.29,1.58-2.05,2.27,1.48-.53,2.87-1.3,4.11-2.28.86-.96,1.78-1.86,2.76-2.69.51-.4,1.1-.68,1.73-.84.64-.08,1.28,0,1.88.26.44.32.65.88.52,1.41-.33.68-.7,1.33-1.13,1.94-.02.14.19.07.23.03,1.34-1.03,2.58-2.19,3.7-3.45.66-1.03,2.71-3.92,3.18-4.66s2.46-3.58,3.06-4.34,2.28-2.81,3.19-3.81,2.3-2.16,2.8-2.06c.63.22,1.1.76,1.22,1.41.11.98-.79,3.68-2.01,6.88s-3.34,8.05-3.88,9.6-3,9.15-3.36,10.17-1.55,5.53-3.66,8.01-3.14,3.46-6.71,4.69c-2.8.94-5.74,1.4-8.7,1.35-1.84-.03-4.4-.61-6-.62-2.07-.06-4.13.37-6.01,1.26-1.44.69-2.71,1.68-3.75,2.89-.43.58-.7,1.26-.79,1.98-.05.86-.09,2.07-.08,2.53s.27,2.18.23,2.89-.22,2.76-.22,2.76c-.63.45-1.37.72-2.14.79-.61.07-1.23-.03-1.79-.29-.43-.17-2.07-1.16-3.13-1.04-.86.11-1.66.52-2.24,1.17-.32.4-.94,1.44-1.12,1.61-.33.3-.63.64-.89,1,.71.24,1.21.27,1.73.5.76.45,1.63.7,2.52.72.98-.08,1.92-.42,2.73-.97.31-.21,1.24-1.46,1.66-1.59s1.63-.54,1.91-.6.47-.22.49-.18-.21.41-.32.72c-.3.99-.73,1.94-1.28,2.81-.93,1.51-2.11,2.84-3.49,3.95-1.66,1.08-3.48,1.89-5.39,2.39-1.33.39-2.7.63-4.08.69-1.94.04-3.87-.23-5.72-.81-2.14-.8-4.12-1.97-5.85-3.46-1.28-1.24-2.3-2.73-2.99-4.37-.38-.85-.68-1.73-.91-2.63.9.09,1.76.39,2.52.87.39.31,1.14,1.1,1.54,1.51.77.78,1.76,1.32,2.83,1.56,1.01.1,2.02-.09,2.92-.55.45-.21.92-.39,1.4-.53.11-.01.13-.12-.12-.32-.45-.51-.86-1.07-1.21-1.65-.41-.72-1.06-1.28-1.83-1.59-.75-.25-1.57-.26-2.33-.02-.4.16-.79.35-1.17.56-.37.18-.78.27-1.19.25-.77-.07-1.52-.31-2.19-.7-.53-.23-1.01-.54-1.44-.92-.2-1.35-.28-2.7-.25-4.06.09-1.63,0-3.26-.26-4.87-.49-1.2-1.17-2.32-2.02-3.29-.7-.53-2.41-1.8-3.76-1.86s-3.26.29-6.82.32-8.38-.33-11.99-2.73-5.74-4.42-6.7-6.01c-1.32-2.37-2.43-4.84-3.33-7.4-.54-1.78-1.99-5.5-2.53-6.92s-5-11.19-5.38-12.04c-.85-1.99-1.51-4.06-1.97-6.18-.1-.79.33-1.55,1.07-1.85.91-.06,1.84.49,3.24,2.18,1.4,1.69,6.3,7.76,7.01,8.71s2.99,4.35,4.33,5.78c.91.87,1.88,1.66,2.91,2.39-.85-1.12-1.63-2.16-1.12-3.21.28-.82,1.11-1.32,1.97-1.18.95.13,1.8.63,2.38,1.4.83.84,3.5,3.55,4.14,4.04.51.43,1.09.77,1.72,1.01.14-.05-.29-.38-.47-.53s-1.17-.98-1.22-1.64c-.17-.78.26-1.57,1.01-1.85.86-.31,1.8-.3,2.65.03,1.18.53,2.28,1.25,3.24,2.12.96.91,1.99,1.75,3.07,2.52.35.23.75.39,1.17.45.05-.04-.32-.27-.67-.56-.6-.46-1.07-1.07-1.34-1.78-.28-.69,0-1.49.65-1.85.94-.54,2.07-.64,3.08-.28,1.63.58,3.15,1.41,4.52,2.47,1.19.92,2.57,1.55,4.03,1.86.35.03.7,0,1.04-.07"/>
            <path id="_パス_1259" data-name="パス 1259" class="cls-4" d="m55.79,191.27c.53.17,1.81.64,1.96.68s.1.61.37,1.16c.05.1.38.09.42.04.09-.22.15-.46.18-.7.05-.39.46-.19.61-.17s1.62.15,2.6.14c.73-.06,1.46-.15,2.19-.29.08.03.06.82.15.98.05.14.19.23.34.21.17,0,.33-.12.38-.39s.01-.93.24-1.02,1-.27,1.29-.36.6-.25.68-.18c-.15.59-.35,1.16-.59,1.72-.15.47-1.49,4.57-2.18,6.2s-1.95,4.6-2.15,4.94c-.17.38-.59.6-1,.53-.55-.01-.91-.84-1.28-1.7-.59-1.35-.86-2.07-1.7-4.14s-2.03-5.62-2.2-6.17c-.15-.47-.47-1.54-.3-1.49"/>
            <path id="_パス_1260" data-name="パス 1260" class="cls-4" d="m56.7,219.2c-.35.05-.7.06-1.04.03-.03-.02-.05-.05-.06-.08,0-.04,0-.07.03-.1.12-.09.25-.15.39-.18,1.41-.5,2.84-.93,4.29-1.27,4.8-1.03,5.68-1.26,7.37-1.76,1.5-.47,2.73-.89,4.04-1.39,1-.38,1.93-.82,2.92-1.24,1.48-.62,2.95-1.26,4.4-1.92.89-.41,1.75-.89,2.63-1.33,1.51-.77,2.98-1.61,4.44-2.46,1.41-.83,2.81-1.69,4.14-2.64.74-.53,1.5-1.03,2.26-1.54.09-.06.18-.12.28-.17.14-.07.88.98.78,1.1-.12.16-2.03,1.58-2.9,2.22-1.32.97-2.65,1.64-4.04,2.5-.82.51-1.52.81-2.35,1.3-.48.26-1.42.71-2.07,1.05-.69.36-1.35.64-2.06.96-1.48.66-2.24,1.05-3.76,1.63-.8.3-1.51.58-2.3.9-.71.28-1.78.7-2.51.93-1.11.35-2,.65-3.12.98-.61.18-1.59.45-2.22.59-.85.18-1.08.26-1.94.44-1.76.37-2.86.58-4.63.88-.55.09-2.4.52-2.97.58"/>
            <path id="_パス_1261" data-name="パス 1261" class="cls-4" d="m75.35,221.11s.03-.01.03-.03c0-.01,0-.03-.02-.03-.64-.19-1.34-.37-1.91-.54-.48-.13-.95-.29-1.41-.48-.09-.05-.28-.2-.19-.24.06-.04.88-.29,1.27-.38.11-.03.22-.03.33,0,.65.17,1.31.28,1.97.4.63.11,4,.95,5.03,1.08.67.08,1.28.15,1.97.22.43.05.86.08,1.3.08.24,0,.44-.18.48-.41.11-.48.23-1.09.34-1.57.23-1.41,1.69-.76,1.45.82-.05.32-.12.75-.14,1.08,0,.13.08.24.21.26.25.03.92.04,1.18.05,1,.03,1.71.07,2.71.1.4.01.8,0,1.2.01.16,0,.31.05.45.12.21.1.31.33.24.55-.06.25-.17.47-.51.48-.47,0-1.05.02-1.53.01-1.17,0-3.78-.15-3.95-.16-.13-.01-.27.17-.29.29-.04.23-.1.86-.13,1.09-.08.52-.18,1.31-.54,1.45-.08.03-.39.17-.6.01-.25-.29-.37-.68-.32-1.07,0-.45.04-.78.04-1.24,0-.25-.02-.38-.26-.4-.27-.02-.55-.04-.83-.04-1.17,0-2.17-.01-3.33-.07-.15,0-1.73-.05-2.46-.07-1.39-.04-2.18-.05-3.36-.09-1.82-.05-3.8-.12-5.6-.34-1.21-.15-4.29-.61-4.37-.65-.07-.02-.12-.09-.12-.16.67-.23,1.36-.41,2.06-.53.2-.04,1.82.16,2.43.2.47.04,4.44.16,5.18.19.36.01,1.57.03,1.98.02"/>
            <path id="_パス_1262" data-name="パス 1262" class="cls-4" d="m29.91,201.86c1.05.82,2.18,1.53,3.28,2.26.68.45,1.36.92,2.04,1.36.76.49,1.54.97,2.32,1.44,1,.6,2.01,1.18,3.01,1.77.75.44,1.5.89,2.26,1.32.77.44,1.55.88,2.33,1.31.84.47,1.68.94,2.54,1.39,1.37.73,2.74,1.43,4.16,2.06.73.33,1.46.65,2.19.98.18.08.36.17.54.27.09.05.09.19,0,.22-.54.16-1.08.32-1.62.46-.2.02-.41-.02-.58-.13-.26-.12-6.09-3.31-6.97-3.79-1.79-.97-12.51-7.25-13.96-8.11-.7-.42-2.31-1.57-2.4-1.66-.15-.12-.18-.34-.07-.5.06-.11.78-.79.94-.67"/>
            <path id="_パス_1263" data-name="パス 1263" class="cls-4" d="m93.54,202.6c.09-.08.19-.16.3-.23.87-.65,1.75-1.31,2.56-2.04,1.26-1.13,2.64-2.11,3.9-3.25.66-.6,1.31-1.21,1.95-1.83.69-.65,1.38-1.3,2.04-1.97.92-.94,1.88-1.83,2.7-2.85.36-.45.78-.86,1.14-1.33.4-.52.83-1.02,1.24-1.52.09-.11.2-.21.29-.33.27-.33.51-.23.75-.03.14.11.26.26.39.38.21.19.22.22.03.43-.47.55-.89,1.15-1.35,1.71-.83,1.01-1.66,2.03-2.58,2.96-1.14,1.15-2.28,2.3-3.47,3.4-1.14,1.07-2.29,2.13-3.5,3.12-.45.37-.87.78-1.32,1.15-.83.68-1.67,1.35-2.51,2.02-.47.37-.95.74-1.42,1.11-.1.08-.21.15-.31.22-.16.09-1.26-.82-.84-1.13"/>
            <path id="_パス_1264" data-name="パス 1264" class="cls-4" d="m58.46,214.98c-.28-.01-.56-.09-.8-.24-.63-.33-1.25-.67-1.87-1.02-.62-.34-1.24-.68-1.89-.98-.62-.3-1.23-.64-1.8-1.02-1.12-.72-2.28-1.36-3.43-2.03-1.7-.99-3.41-1.96-5.07-3-.83-.52-1.65-1.06-2.45-1.63-.36-.25-.73-.48-1.09-.73-.11-.07-.21-.15-.3-.24-.15-.14-.21-.36-.14-.55.04-.14.1-.27.16-.4.1-.22.36-.32.58-.22.02.01.04.02.07.04.25.14.49.31.74.46,1.6,1.01,3.2,2.01,4.81,3.02,1.39.87,2.77,1.74,4.18,2.59,1.01.61,2.05,1.18,3.07,1.78,1.15.67,2.34,1.25,3.55,1.81.91.42,1.8.87,2.7,1.3.08.04.16.08.24.14.09.07.11.21.04.3,0,.01-.02.02-.03.03-.37.28-.8.48-1.25.59"/>
            <path id="_パス_1265" data-name="パス 1265" class="cls-4" d="m123.23,169.16c.01.13-.02.25-.1.35-.69.99-1.19,2.08-1.81,3.12-.61,1.01-1.15,2.07-1.73,3.1-.17.3-.36.59-.55.88-.67,1.02-1.26,2.09-1.97,3.08-.2.28-.35.6-.55.88-.7.97-1.41,1.94-2.13,2.9-.8,1.06-1.64,2.09-2.39,3.18-.16.23-.54.23-1.01,0-.24-.16-.49-.33-.35-.59.09-.16.19-.31.31-.45.57-.74,1.15-1.46,1.7-2.2.77-1.04,1.53-2.08,2.27-3.14.53-.76,1.06-1.52,1.54-2.32.89-1.48,1.85-2.92,2.68-4.43.52-.94,1.04-1.88,1.57-2.81.38-.66.78-1.31,1.18-1.97.03-.05.06-.09.09-.13.07-.11.22-.16.34-.1.28.12.55.28.8.47.06.05.1.11.11.19"/>
            <path id="_パス_1266" data-name="パス 1266" class="cls-4" d="m107.96,195.86c-.65.66-1.3,1.33-1.97,1.96-.58.55-1.21,1.05-1.81,1.58-1,.87-1.99,1.77-3.01,2.61-.94.78-1.92,1.5-2.88,2.25-.07.06-.15.1-.22.16-1.21.97-2.52,1.79-3.81,2.65-.82.54-1.9,1.16-2.72,1.7-.21.14-.84-1.06-.68-1.16.48-.3,1.14-.73,1.61-1.04,1.19-.78,2.37-1.56,3.55-2.35.54-.37,1.06-.77,1.58-1.16.48-.36.95-.73,1.42-1.11.79-.64,1.6-1.26,2.36-1.93,1.43-1.27,2.88-2.52,4.22-3.88.48-.49.98-.97,1.48-1.46.14-.14.29-.27.45-.39.21-.15.33.05.55.27.05.05.36.27.39.33.17.28-.21.67-.51.98"/>
            <path id="_パス_1267" data-name="パス 1267" class="cls-4" d="m104.12,189.85c-.18-.15-.45-.38-.65-.57-.15-.14-.17-.37-.06-.54.11-.15.23-.3.35-.45.93-1.08,1.87-2.13,2.78-3.22.92-1.11,1.78-2.26,2.59-3.45.49-.73,1.01-1.43,1.48-2.16.55-.86,1.06-1.74,1.58-2.62.47-.8.93-1.61,1.39-2.41.26-.44.5-.89.77-1.32s.34-.45.78-.2c.19.11.37.23.55.35.11.07.15.21.11.33-.04.12-.09.24-.16.35-.5.89-1,1.78-1.51,2.66-.74,1.3-1.55,2.55-2.36,3.81-.54.84-1.13,1.66-1.67,2.5-.36.55-.73,1.09-1.12,1.61-.26.34-.53.67-.82.98-.43.46-.82.95-1.2,1.45-.17.22-.37.4-.55.61-.59.69-1.17,1.39-1.77,2.08-.07.09-.16.17-.26.24-.08.05-.19.04-.26-.03"/>
            <path id="_パス_1268" data-name="パス 1268" class="cls-4" d="m109.15,194.44s-.05,0-.07-.02c-.28-.17-.52-.41-.68-.69-.06-.1-.05-.22.02-.31.05-.08.1-.15.16-.22.5-.5.95-1.06,1.42-1.58.61-.68,1.25-1.33,1.88-1.98,1-1.04,1.94-2.12,2.86-3.23l1.95-2.35c1.18-1.41,2.28-2.88,3.3-4.42.47-.71.99-1.39,1.49-2.09.06-.09.13-.17.2-.26.08-.14.27-.19.41-.1,0,0,.01,0,.02.01.29.15.57.33.82.54.12.07.15.22.09.33-.01.02-.02.03-.04.05-.3.45-.6.91-.93,1.35-1.11,1.46-2.23,2.92-3.36,4.37-.83,1.06-1.66,2.12-2.58,3.11-.6.66-1.17,1.34-1.77,2.01-.33.37-.66.73-1.01,1.08-.84.84-1.56,1.78-2.38,2.63-.44.46-.87.93-1.31,1.39-.11.12-.24.23-.36.33-.04.02-.08.04-.13.05"/>
            <path id="_パス_1269" data-name="パス 1269" class="cls-4" d="m88.35,211.79c.08-.07.18-.13.28-.17,1.13-.51,2.18-1.18,3.26-1.78.48-.27.95-.54,1.43-.79.87-.46,1.7-.99,2.55-1.49.38-.22.74-.47,1.1-.71,1.14-.76,2.27-1.51,3.4-2.28.8-.54,1.56-1.13,2.3-1.75.12-.1.26-.2.39-.29.18-.12.36-.25.53-.39.73-.66,1.51-1.26,2.21-1.95.14-.14.3-.26.47-.37.12-.11.31-.11.42,0,0,0,.01.01.02.02.18.18.34.38.5.58.12.11.13.29.02.41-.01.01-.02.02-.04.03-.1.11-.2.21-.32.3-.68.58-1.36,1.16-2.05,1.72-1.02.82-2.04,1.64-3.09,2.43-.68.51-1.41.97-2.12,1.45-.42.28-.86.54-1.28.83-1.29.89-2.64,1.68-3.99,2.47-1.16.68-2.35,1.32-3.54,1.95-.63.33-1.29.6-1.93.89-.23.1-.65-.99-.52-1.1"/>
            <path id="_パス_1270" data-name="パス 1270" class="cls-4" d="m88.51,202.52c.07-.06.15-.11.22-.16.72-.55,1.43-1.13,2.17-1.66s1.43-1.13,2.14-1.7c.61-.49,1.19-1.02,1.78-1.54,1.04-.91,2.03-1.88,3.03-2.83.66-.63,1.34-1.24,1.96-1.9.82-.86,1.59-1.75,2.38-2.63.13-.19.33-.31.55-.35.16.03.38.25.62.45.17.13.27.34.25.55-.13.18-.26.35-.41.51-.74.8-1.5,1.59-2.24,2.39-.69.75-1.4,1.48-2.13,2.2-1.11,1.11-2.28,2.14-3.48,3.15-.76.65-1.49,1.34-2.31,1.92-.93.67-1.83,1.38-2.8,1.99-.14.09-.26.2-.39.3-.19.15-.36.3-.55.44-.45.33-1.11-.79-.78-1.14"/>
            <path id="_パス_1271" data-name="パス 1271" class="cls-4" d="m121.46,183.96s.09.01.14.03c.3.17.59.36.85.59.1.09.11.24.03.35-.09.12-.18.22-.28.34-.53.65-1.04,1.31-1.58,1.95-.51.61-1.03,1.23-1.57,1.82-.92,1.03-1.87,2.04-2.85,3.02-1.05,1.06-2.09,2.13-3.14,3.19-.91.92-1.81,1.85-2.73,2.74-.67.64-1.37,1.25-2.06,1.87-.16.19-.44.22-.64.07-.01-.01-.03-.02-.04-.04-.12-.09-.22-.19-.32-.3-.17-.2-.17-.5,0-.7.09-.09.18-.18.28-.26.65-.59,1.3-1.16,1.94-1.76.49-.46.96-.94,1.44-1.42.73-.74,1.46-1.47,2.18-2.23.69-.73,1.42-1.4,2.13-2.11,1-1.01,1.94-2.07,2.88-3.13.88-1,1.66-2.08,2.51-3.09.2-.24.36-.5.55-.75.06-.1.17-.17.28-.18"/>
            <path id="_パス_1272" data-name="パス 1272" class="cls-4" d="m98.15,190.36s-.3-.43-.16-.6c.36-.46.7-.93,1.1-1.37.71-.79,1.42-1.59,2.06-2.43.71-.93,1.48-1.82,2.2-2.74.39-.5.76-1.02,1.14-1.53.14-.19.26-.39.42-.57.26-.31.49-.63.7-.98.55-.88,1.09-1.76,1.64-2.65.34-.56.69-1.11,1.03-1.67.05-.08.1-.15.16-.22.06-.1.19-.13.29-.08.29.15.58.31.86.48.1.05.14.17.09.27-.01.02-.03.04-.04.06-.14.21-.26.44-.35.67-.37.75-.79,1.47-1.26,2.17-.55.77-1.02,1.59-1.55,2.38-.39.59-.81,1.17-1.22,1.74-1.08,1.49-2.32,2.85-3.5,4.25-.39.46-.75.93-1.14,1.4-.51.61-1.03,1.22-1.55,1.83-.07.08-.51.09-.91-.41"/>
            <path id="_パス_1273" data-name="パス 1273" class="cls-4" d="m26.06,189.58c.71.88,1.41,1.77,2.18,2.59.38.41.77.82,1.16,1.23.63.66,1.24,1.33,1.89,1.97.94.92,1.88,1.83,2.86,2.7.89.78,1.83,1.5,2.76,2.23.73.58,1.46,1.14,2.2,1.71.04.03.09.07.13.1.3.26.29.26.08.62-.08.14-.15.29-.24.43-.07.15-.25.21-.4.14,0,0-.01,0-.02,0-.08-.04-.16-.08-.23-.14-.98-.75-1.96-1.51-2.95-2.26-1.06-.81-2.03-1.72-3.01-2.61-.82-.74-1.61-1.53-2.39-2.32-1.13-1.14-2.23-2.3-3.31-3.49-.22-.24-.42-.5-.63-.76-.29-.35-.57-.71-.86-1.06-.08-.1-.16-.2-.22-.31-.29-.37.68-1.16,1-.78"/>
            <path id="_パス_1274" data-name="パス 1274" class="cls-4" d="m14.27,173.68c.07,0,.15.02.19.08.09.12.17.24.24.36.41.71.81,1.42,1.24,2.12.44.71.91,1.41,1.35,2.12.6.96,1.29,1.85,1.94,2.77.28.4.55.81.84,1.21.81,1.1,1.65,2.17,2.55,3.2.58.67,1.14,1.37,1.71,2.06.25.31.67.76.93,1.07.21.24-.89.94-1.14.64-.69-.8-1.58-1.71-2.19-2.57-.26-.37-.55-.72-.84-1.07-1.39-1.66-2.63-3.44-3.89-5.2-.82-1.14-1.56-2.32-2.3-3.52-.43-.7-.88-1.38-1.31-2.07-.39-.63-.39-.64.28-1.02.12-.09.26-.15.4-.18"/>
            <path id="_パス_1275" data-name="パス 1275" class="cls-4" d="m47.51,218.11c-.53-.15-1.06-.34-1.56-.57-.67-.29-3.96-1.66-4.18-1.76-.88-.39-1.96-.86-2.83-1.27-1.18-.56-2.18-1.04-3.35-1.63-.46-.23-1.49-.82-1.61-.9-.09-.06-.16-.15-.19-.26-.08-.27.55-.94.67-.91.24.07,1.71.95,1.76.97,2.19,1.09,3.02,1.3,4.34,1.92.74.35,1.5.75,2.25,1.09.36.17,3.5,1.5,4.13,1.75.47.19,1.09.39,1.56.58.07.03.47.19.53.23.09.07.07.13,0,.21-.02.03-.05.05-.08.08-.47.21-.95.37-1.45.48"/>
            <path id="_パス_1276" data-name="パス 1276" class="cls-4" d="m34.92,202.47c.74.56,1.92,1.31,2.7,1.81,1.5.96,3,1.93,4.5,2.9,2.18,1.42,4.36,2.84,6.54,4.26.58.38,1.17.74,1.75,1.12.21.13.27.26.2.33-.12.1-.25.03-.36-.02-.57-.24-1.15-.47-1.69-.76-1.64-.87-3.29-1.73-4.94-2.58-.95-.49-7.98-5.04-9.39-6.06-.23-.17.47-1.18.7-1.01"/>
            <path id="_パス_1277" data-name="パス 1277" class="cls-4" d="m88.22,204.37c-.85.63-2.13,1.7-2.99,2.31-1.03.73-2.09,1.4-3.18,2.02-.52.3-1.08.52-1.62.78-.62.3-1.25.6-1.87.9-1.03.5-2.08.97-3.15,1.39-.49.19-.96.44-1.44.65s-.98.41-1.46.61c-.09.06-.2.08-.31.07-.05,0-.08-.06-.07-.11,0,0,0-.01,0-.02.03-.09.1-.16.18-.2.57-.36,1.13-.73,1.72-1.06,1.81-1.01,3.62-2.04,5.41-3.08,1.31-.76,2.59-1.56,3.84-2.4.7-.46,1.36-.97,2.04-1.46.59-.42,1.18-.85,1.78-1.27.06-.04.12-.08.18-.12.38-.23,1.19.81.94.99"/>
            <path id="_パス_1278" data-name="パス 1278" class="cls-4" d="m90.57,209.36c-.38.25-.94.58-1.33.81-.25.15-1.71.96-2.54,1.34-.99.46-2.04.91-3.07,1.27-.55.19-4.1,1.52-5.15,1.89-.2.07-.75.26-.96.33-.07.02-.15.02-.18-.06s.04-.13.1-.17c.1-.07.21-.14.32-.2.19-.1,3.4-1.64,3.86-1.89,1.55-.81,3.49-1.84,5.03-2.65,1.03-.54,2.32-1.26,3.32-1.86.25-.15.77,1,.6,1.19"/>
            <path id="_パス_1279" data-name="パス 1279" class="cls-4" d="m32.76,206.83c.46.33,1.32.82,1.81,1.11,1.02.6,2.04,1.19,3.05,1.8,1.1.67,2.19,1.36,3.29,2.04.93.57,1.87,1.13,2.8,1.7.1.04.19.11.25.2.01.03.01.07,0,.1-.02.03-.05.05-.09.05-.09,0-.18-.02-.26-.05-.63-.23-1.25-.5-1.85-.8-.53-.23-1.05-.5-1.57-.75l-1.81-.87c-1.5-.73-2.98-1.52-4.44-2.33-.56-.31-1.09-.66-1.63-.99-.08-.05-.15-.1-.23-.15-.31-.23.38-1.27.68-1.05"/>
            <path id="_パス_1280" data-name="パス 1280" class="cls-4" d="m98.14,191.39c-.14-.11-.27-.24-.37-.39-.17-.23-.49-.28-.72-.11-.03.02-.05.04-.08.07-.47.5-.95,1-1.4,1.53-.66.77-1.4,1.44-2.11,2.15-.2.2-.41.4-.63.59-.74.64-1.48,1.29-2.23,1.92-.55.47-1.11.95-1.67,1.41-.39.33-.81.62-1.19.95-1.4,1.19-2.87,2.3-4.35,3.39-.19.14-.39.27-.57.42-.07.05-.12.11-.17.18-.06.09-.07.21-.01.3.15.25.32.49.51.71.09.1.23.12.35.05.15-.09.3-.19.43-.3.98-.75,1.98-1.49,2.94-2.27,1.75-1.43,3.48-2.87,5.21-4.32.88-.74,1.77-1.46,2.61-2.24.68-.63,1.36-1.26,1.99-1.95.32-.35.64-.7.95-1.05.2-.22.39-.43.57-.66.09-.11.08-.28-.04-.37,0,0-.01,0-.02-.01"/>
            <path id="_パス_1281" data-name="パス 1281" class="cls-4" d="m87.79,212.28c-.08-.17-.29-.25-.46-.18-.05.02-.1.03-.15.05-.81.32-3.97,1.78-5.01,2.14-2.83,1.09-5.72,2-8.66,2.73-1.18.31-2.38.54-3.57.79-.89.19-1.78.38-2.67.55-1.07.21-5.26.99-6.29,1.09-.38.04-2.57.41-3.29.47-1.31.11-2.59.38-3.9.49-.96.08-1.92.2-2.88.24-.55.02-3.59.13-4.34.11-.4-.01-.8-.05-1.2-.08-.03,0-.06-.02-.08-.05-.02-.07.03-.09.08-.11.09-.03.17-.06.26-.08.76-.18,1.99-.47,2.75-.65,1.67-.39,2.96-.65,4.46-.98.34-.07.67-.17,1.01-.24,1.04-.25,2.1-.47,3.13-.75.9-.24,1.78-.52,2.66-.82,1.33-.44,2.14-.8,3.46-1.27.69-.24,1.64-.58,2.31-.85.42-.17,1.55-.64,1.96-.82.51-.23,1.05-.45,1.71-.76,1.2-.57,2.18-1.08,3.34-1.71.7-.38,1.41-.76,2.1-1.17.92-.55,1.83-1.13,2.74-1.69,1.15-.7,2.29-1.42,3.38-2.21.33-.23.67-.44,1-.67.3-.19.58-.4.85-.63,0-.03,0-.06-.01-.08-.03-.16-.58-.92-.78-.92-.09.01-.18.04-.25.1-.25.15-.49.32-.73.48-.86.58-1.72,1.16-2.57,1.75-1.18.82-2.39,1.6-3.62,2.33-1.36.81-2.71,1.63-4.15,2.31-.56.27-1.1.58-1.67.8-1.39.55-2.71,1.25-4.12,1.75-.87.32-1.74.65-2.61.98-.24.09-.49.15-.73.23-1.17.39-2.34.8-3.52,1.18-1.3.42-2.58.88-3.92,1.18-.8.18-1.59.39-2.39.57-.3.07-2.56.6-3.76.89-2.28.61-4.59,1.06-6.93,1.34-.29.03-1.7.1-1.82.1-.12,0-.21-.09-.23-.2-.02-.09-.03-.18-.04-.27-.05-.45.04-.96-.01-1.41-.02-.26-.12-.5-.29-.7-.18-.24-.53-.29-.78-.11-.03.02-.06.05-.08.08-.17.17-.27.4-.29.64-.04.34-.04.69,0,1.04.01.22-.02.61-.03.83-.01.33-.1.42-.42.45-.27.03-.88.04-1.15.07-.74.07-1.21.06-1.96.1-.91.06-1.82.07-2.73.03-.09,0-.18,0-.27.02-.15.03-.27.13-.32.27-.18.37-.02.81.35.99.06.03.12.05.18.06.16.03,4.6.02,5.56,0,.2,0,.4-.01.6,0,.36.03.5.14.54.49.09.79.33,1.56.7,2.26.31.25.58.17.74-.2.03-.07.02-1.87.02-2.27,0-.28.11-.39.38-.44.18-.03.36-.04.54-.04.87-.02,2.31-.11,3.18-.04.85.06,4.35.07,5.37.06,1.55-.02,5.98-.25,6.3-.29,1.15-.16,4.83-.66,5.3-.73,1.04-.17,2.1-.32,3.14-.49.93-.15,5.27-.86,6.66-1.12,1.57-.3,3.12-.72,4.67-1.12.67-.18,1.33-.38,1.99-.59,1.27-.39,2.55-.75,3.8-1.21.63-.23,1.26-.47,1.89-.71,1.41-.55,2.81-1.11,4.21-1.68.45-.19.9-.41,1.33-.64.33-.17.35-.27.23-.62-.05-.16-.12-.31-.2-.45"/>
            <path id="_パス_1282" data-name="パス 1282" class="cls-4" d="m18.31,187.96c.05.04.12.06.19.03.34-.13.64-.36.85-.65-.06-.07-.12-.15-.17-.23-.02-.03-.19-.25-.21-.28-.23-.28-.47-.56-.69-.85-.84-1.12-1.67-2.25-2.53-3.36-.32-.41-.59-.86-.9-1.27-1.16-1.55-2.24-3.16-3.23-4.83-.58-.99-1.16-1.97-1.74-2.96-.5-.87-1-1.74-1.49-2.6-.04-.06-.06-.13-.1-.19-.06-.12-.2-.18-.33-.14-.28.08-.54.22-.76.42-.1.09-.12.24-.06.35.09.2.18.4.29.59.44.78.88,1.55,1.33,2.32.49.85.98,1.7,1.48,2.55.7,1.23,1.47,2.43,2.3,3.58.79,1.09,1.63,2.14,2.44,3.22.83,1.11,1.65,2.22,2.48,3.33.23.3.48.59.73.88.03.04.07.07.11.1"/>
            <path id="_パス_1283" data-name="パス 1283" class="cls-4" d="m33.87,201.73c-.42-.29-1.03-.8-1.43-1.12-.69-.56-1.38-1.13-2.07-1.7-.99-.82-1.94-1.68-2.86-2.57-.89-.86-1.74-1.76-2.56-2.68-1.13-1.28-2.3-2.53-3.44-3.79-.33-.37-.65-.76-.96-1.14-.2-.24-.41-.48-.62-.71-.07-.08-.18-.08-.26-.02,0,0,0,0,0,0-.19.18-.37.38-.52.6-.01.02-.02.05-.03.07-.03.18.02.36.14.5.14.17.28.34.43.49,1.01,1.07,1.97,2.19,2.93,3.31.54.62,1.05,1.26,1.6,1.87.49.54,1.01,1.04,1.51,1.58,1.23,1.3,2.54,2.52,3.92,3.66.33.29.68.55,1.03.82.69.52,2.51,1.85,2.61,1.92.29.19.75-.98.59-1.09"/>
            <path id="_パス_1284" data-name="パス 1284" class="cls-4" d="m11.73,185.26c.47-.13.89-.43,1.15-.84h0c-.43-.59-.84-1.2-1.29-1.77-.51-.65-.94-1.35-1.44-2-.46-.6-.93-1.21-1.37-1.83-.68-.97-1.34-1.95-2-2.94-.41-.62-.82-1.25-1.22-1.88-1-1.65-1.92-3.35-2.73-5.1-.5-1.01-.97-2.04-1.45-3.06-.04-.08-.08-.16-.13-.24-.06-.16-.25-.24-.41-.18-.02,0-.04.02-.05.03-.2.08-.4.18-.58.29-.17.07-.25.27-.18.44,0,0,0,.02.01.02.09.22.19.43.3.64,1,1.9,1.99,3.81,2.99,5.71.38.73.76,1.46,1.18,2.16.57.95,1.18,1.88,1.77,2.82.47.75,1.27,1.95,1.78,2.68.51.73,1.02,1.47,1.53,2.2.59.83,1.19,1.66,1.79,2.48.09.14.21.26.35.36"/>
            <path id="_パス_1285" data-name="パス 1285" class="cls-4" d="m28.85,201.19c-.25-.23-.29-.25-.56-.48s-.51-.43-.77-.65-.53-.46-.81-.68c-.68-.55-1.79-1.49-2.44-2.09-.78-.73-1.56-1.45-2.3-2.23-.89-.94-1.84-1.82-2.73-2.75-.69-.73-1.35-1.5-2.02-2.25-.53-.6-1.37-1.6-1.85-2.23-.68-.9-1.35-1.82-2.01-2.74-.27.15-1.06.53-1.09.86.03.15.09.28.19.4.16.22.31.44.49.64.9,1.03,1.73,2.12,2.56,3.21.88,1.11,1.83,2.18,2.82,3.2.85.9,1.71,1.79,2.56,2.7,1.1,1.17,2.27,2.26,3.51,3.28.72.61,1.49,1.17,2.24,1.74.38.29.75.57,1.13.86.11.09.24.16.38.2.16.05.66-.58.74-.89,0-.04,0-.07-.03-.1"/>
            <path id="_パス_1286" data-name="パス 1286" class="cls-4" d="m13.66,192.43c.17-.16.32-.35.42-.56.06-.11.03-.25-.06-.34-.11-.11-.22-.22-.33-.33-.46-.5-.9-1-1.36-1.5-.73-.8-1.47-1.6-2.13-2.45-.38-.49-.77-.98-1.18-1.45-.77-.88-1.48-1.81-2.19-2.75-.74-.97-1.4-2-2.07-3.02-.36-.54-1.1-1.79-1.14-1.85-.46-.78-.94-1.56-1.38-2.36-.28-.51-.27-.61-.91-.29-.05.02-.1.05-.15.07-.34.19-.37.27-.21.61.05.1.1.2.15.29.2.37.41.73.6,1.1.81,1.59,1.73,3.12,2.68,4.63.86,1.38,4.35,5.39,5.03,6.18.18.21,3.26,3.6,3.72,3.99.08.07.19.11.3.1.07,0,.14-.03.19-.08"/>
            <path id="_パス_1287" data-name="パス 1287" class="cls-4" d="m31.33,205.94c-.18-.13-.36-.24-.54-.36-.68-.45-1.38-.88-2.05-1.35-.83-.59-1.65-1.2-2.46-1.81-.77-.58-1.54-1.16-2.29-1.77-.72-.58-1.43-1.18-2.14-1.79-.58-.5-1.15-1.01-1.73-1.51-.86-.73-1.68-1.51-2.5-2.28-.5-.47-.98-.98-1.5-1.44-.31-.29-.59-.61-.89-.91-.12-.12-.31-.13-.43-.01,0,0,0,0-.01.01-.2.2-.36.43-.5.68.11.23.26.45.44.63.54.55,1.08,1.1,1.61,1.65,1.34,1.41,2.76,2.74,4.26,3.98.77.64,1.54,1.29,2.31,1.93.34.28.67.56,1.02.82,1.17.87,2.33,1.75,3.55,2.54.98.63,1.96,1.27,2.93,1.9.15.1.32.18.49.24.1.03.8-.84.43-1.15"/>
            <path id="_パス_1288" data-name="パス 1288" class="cls-4" d="m15.05,197.45c-.22-.21-.43-.42-.66-.61-.18-.15-2.76-2.64-3.53-3.34-.28-.26-2.05-2.23-2.53-2.71-1.05-1.06-2.01-2.21-2.89-3.42-.7-.95-1.38-1.92-2.06-2.89-.55-.77-1.1-1.54-1.64-2.31-.18-.25-.35-.51-.53-.76-.07-.13-.23-.19-.36-.12-.02.01-.05.03-.07.05-.22.16-.43.34-.63.52-.12.1-.15.27-.07.4.05.1.1.19.17.28.36.52.72,1.05,1.09,1.57.51.71,3.1,4.23,3.91,5.25.49.61,5.54,5.99,6.89,7.14.51.44,1.71,1.62,1.84,1.7.18.11.92-.42,1.07-.76"/>
            <path id="_パス_1289" data-name="パス 1289" class="cls-4" d="m33.52,210.31c-.12-.09-.24-.16-.37-.24-.87-.49-1.75-.98-2.61-1.48-1-.57-2.01-1.11-2.98-1.72-1.61-1-3.2-2.02-4.73-3.14-.19-.14-.39-.28-.56-.43-.64-.57-1.32-1.09-2-1.6-1.19-.88-2.35-1.79-3.48-2.72-.36-.3-.72-.61-1.07-.92h0c-.35.04-.64.66-.71,1.07.09.14.19.26.31.37.05.05.1.1.16.15.53.47,1.04.96,1.58,1.43,1.56,1.35,3.2,2.58,4.86,3.8.7.52,1.41,1.03,2.13,1.53,1.3.91,2.65,1.75,4.04,2.51,1.42.78,2.88,1.49,4.28,2.3.13.07.26.13.39.19.14.07.3.04.41-.05.22-.23.38-.5.46-.8.01-.09-.03-.18-.1-.24"/>
          </g>
        </g>
      </g>
      <g id="_グループ_2717" data-name="グループ 2717">
        <g class="cls-6">
          <g id="_グループ_2252" data-name="グループ 2252">
            <path id="_パス_1354" data-name="パス 1354" class="cls-4" d="m18.63,14.82c.51,1.12.8,2.32.86,3.55.16,1.98.03,3.98-.41,5.92-.05.16-.05.32,0,.48.08.13.2.22.34.28.74.38,1.74.72,2.33.13.3-.4.44-.9.39-1.41.12-6.7.23-13.49-1.32-20.01-.17-.64-.3-1.28-.4-1.94-.07-.32-.02-.65.14-.93.18-.21.42-.36.68-.45.88-.37,1.96-.71,2.7-.12.23.21.43.45.58.72,1.14,1.7,2.12,3.5,2.92,5.38.8,1.89,1.05,3.97.71,6,.39.17.84-.22.93-.63.04-.43-.02-.86-.17-1.26-.15-.41-.13-.86.07-1.24.3-.37.79-.52,1.24-.38.44.14.85.36,1.2.66l3.25,2.43c.28.17.5.41.64.7.1.45.01.92-.25,1.29-.24.58-.67,1.05-1.23,1.34-.7.28-1.49-.02-2.24.1-1.04.16-1.95,1.11-2.98.88-.33.64.09,1.41.52,1.99,3.05,4.06,7.53,6.83,10.93,10.61.2.22.4.52.26.78-2.14-.11-3.83-1.82-5.82-2.6-1.91-.75-4.28-.74-5.6-2.3-.67-.79-.98-1.9-1.86-2.44-.35.73-.51,1.55-.44,2.36-.07,2.24-.52,4.45-1.34,6.53-.14.37-.35.78-.73.88-.45.06-.88-.19-1.04-.61-.15-.41-.26-.84-.32-1.27-.43-1.66-2.05-2.69-3.58-3.45-.81-.55-1.84-.69-2.77-.38-.96.51-1.36,1.94-2.44,2.07-.34-1.33-.11-2.74.63-3.9.74-1.14,1.28-2.39,1.6-3.72-.68.12-1.16.78-1.84.95-.74.08-1.48-.13-2.06-.59-.32-.19-.66-.42-.74-.78-.02-.2,0-.39.06-.58.44-1.63,1.18-3.17,2.19-4.53.41-.5.79-1.02,1.14-1.56.23-.39.41-1.13.93-1.21.94-.15,2,1.57,2.33,2.25"/>
            <path id="_パス_1355" data-name="パス 1355" class="cls-4" d="m54.12,18.8c.47.3,1.09.25,1.51-.13.4-.38.67-.87.79-1.4.13-.45.21-.91.3-1.36l.34-1.81c.13-.69.26-1.38.34-2.07.15-1.43.14-2.88-.04-4.31-.05-.34-.07-.69-.04-1.03.2-.7.49-1.37.86-1.99.13-.27.17-.57.1-.87-.06-.17-.16-.33-.28-.47-1.11-1.29-2.79-1.92-4.47-1.68-.27.03-.53.13-.75.29-.22.17-.3.47-.21.73l.6-.52c-.92.77-1.65,1.74-2.14,2.84-.06.19-.17.36-.3.5-.14.15-.37.17-.54.06-.11-.12-.17-.28-.16-.45.05-.79-.12-1.59-.5-2.29-.73-.77-1.84-1.06-2.85-.75-.76.12-1.47.46-2.05.97-.58.52-.85,1.31-.72,2.08.08.21.11.44.1.67-.07.21-.18.41-.33.58-.14.18-.16.43-.04.62.45-.28.86-.62,1.21-1.01.1.84-.13,1.69-.63,2.37-.5.67-.88,1.43-1.13,2.23-.1.65-.09,1.32.04,1.97.08.78.24,1.55.49,2.3.61,1.34,1.52,2.51,2.66,3.44.08.09.18.16.3.19.09.02.18,0,.27.01.24.04.37.29.5.49.66.96,1.93,1.29,2.98.78.46-.29.89-.64,1.26-1.04.36-.38.84-.63,1.35-.71.53-.07,1.03.27,1.16.79m-3.35-10.15c.06-.36.05-.72-.03-1.07.71-.03,1.42-.2,2.07-.48.21.63.29,1.3.24,1.96,0,.12-.02.23-.06.34-.08.23-.26.4-.48.48-.53.11-1.08.06-1.59-.15-.41-.27-.25-.68-.16-1.09m-.07,6.95c-.08-.04-.16-.1-.22-.17-.05-.08-.09-.17-.11-.26-.13-.57-.25-1.93.68-1.7.52.13.42.32.98.07.37-.19.78-.31,1.2-.35.06,0,.11,0,.16.03.03.03.06.07.07.12.13.43.22.87.27,1.32.01.15.01.33-.11.42s-.27.03-.41.05c-.21.06-.4.17-.55.32-.57.42-1.33.47-1.96.14"/>
            <path id="_パス_1356" data-name="パス 1356" class="cls-4" d="m48.05,20.28c-.38-.42-.63-1.22-1.18-1.46-.45-.14-.94.02-1.23.39-.27.37-.52.76-.73,1.16-.71,1.08-2.04,1.79-2.29,3.06-.05.18-.03.36.06.53.32.51,1.22-.02,1.69.36.43-.32.11-1.07.42-1.51.23-.27.63-.31.9-.08.06.05.11.11.15.17.22.46-.2.96-.57,1.31l-.91.83c-.12.08-.2.21-.21.36.03.13.11.25.23.31.53.45,1.27.56,1.91.28l.09.92c.06.19-.03.39-.22.45,0,0-.02,0-.03,0-.53.33-1.17.43-1.78.28-.54-.23-.81-.81-1.1-1.32-.2-.35-.44-.68-.7-.99-.15-.2-.34-.36-.56-.47-.51-.18-1.08.02-1.38.48-.27.46-.35,1.01-.22,1.53.31,1.36,1.43,2.38,2.81,2.57.27.03.6.06.71.31.03.08.05.17.07.25.14.58.82.83,1.42.88,1.52.12,3.01-.45,4.07-1.56.28-.28.5-.61.68-.96.24-.55.36-1.15.35-1.75.04-1.58-.35-3.14-1.12-4.53-.37-.65-.82-1.25-1.34-1.79"/>
            <path id="_パス_1357" data-name="パス 1357" class="cls-4" d="m62.42,27.48c-.29-1.84-.31-3.72-.06-5.56.14-.65.35-1.4-.04-1.94-.17-.21-.39-.37-.63-.49-.45-.26-.92-.5-1.39-.72-.48-.25-1-.41-1.54-.45-.65.03-1.28.19-1.86.48-.41.12-.77.38-1.01.74-.19.38.05.98.48.94-.19.18-.2.48-.02.67s.48.2.67.02c.06-.05.1-.12.12-.19.04-.12.05-.28.18-.33.06-.02.13-.01.19,0,1.21.39,1.89,1.66,1.56,2.89-.31-.21-.61-.43-.88-.68-.7-.54-1.55-.87-2.2-1.48s-.95-1.64-2.02-.85c-.38.32-.66.74-.81,1.21-.15.47-.32.93-.53,1.38-.13.24-.29.46-.4.7-.15.33-.23.69-.25,1.06-.06,1.84.55,3.64,1.71,5.07.36.54.84.99,1.4,1.32.58.33,1.28.33,1.85,0,.21-.13.4-.33.65-.31.31.02.49.39.46.69-.07.3-.18.59-.33.86-.31.83-.28,1.75.09,2.56.37.8.88,1.52,1.5,2.14.44.47,1.01.97,1.64.84.75-.15,1.04-1.07,1.16-1.83.45-2.89.55-5.83.31-8.75m-3.18,3.33c-.29-.29-.39-.71-.27-1.1.05-.15.14-.29.19-.44.06-.23.09-.46.07-.69.02-.21-.03-.42-.15-.6-.33-.38-3.1.68-2.65-.59.12-.23.37-.38.63-.38.26,0,.52-.05.75-.16.22-.14.34-.4.51-.6s.52-.31.69-.1c.04.06.07.13.09.2.26.72.44,1.47.54,2.24.1.77-.04,1.55-.41,2.23"/>
            <path id="_パス_1358" data-name="パス 1358" class="cls-4" d="m77.56,12.71c-.31-1.23-1.05-2.31-2.09-3.04-1.14-.74-2.14-1.46-3.58-1.32-.34.01-.67.13-.93.34-.18.18-.31.41-.38.66-.12.42-.15.86-.08,1.29.15.58.35,1.14.61,1.67.24.65.43,1.31.58,1.99.21.89.43,1.78.63,2.68.38.82.14,1.79-.57,2.33l-2.07,2.02c-.19.22-.44.39-.72.47-.44,0-.87-.19-1.15-.52l-1.76-1.55c-.73.6-1.17,1.48-1.2,2.42.06.53.02,1.07-.13,1.58-.08.13-.14.27-.19.42-.02.33.12.65.37.87.78.87,1.7,1.61,2.72,2.2.23.17.51.25.8.24.78-.12.81-1.35,1.5-1.72.58-.19,1.21-.01,1.61.45,1.46,1.31,2.1,3.27,2.82,5.09.03.1.08.19.15.27.25.19.61.14.8-.12,0,0,.01-.02.02-.03.16-.27.26-.58.29-.89.18-.91.62-1.74,1.26-2.41.44-.38.84-.81,1.18-1.29.26-.53.4-1.11.42-1.7.37-2.66.43-5.35.17-8.02-.23-1.49-.59-2.96-1.08-4.39m-4.49,11.63c-.1.39-.37,1.11-.86,1.11-.52,0-.9-.76-1.17-1.11-.05-.05-.08-.11-.11-.18-.09-.26.12-.52.32-.72.75-.78,1.34-1.71,1.72-2.73.11.75.18,1.51.2,2.26.03.46,0,.92-.1,1.37"/>
            <path id="_パス_1359" data-name="パス 1359" class="cls-4" d="m89.25,19.92c-.04-.41-.52-.59-.91-.72-1.32-.45-2.43-1.35-3.7-1.9-.59-.31-1.27-.39-1.91-.23-.47.23-.92.5-1.35.8-.42.22-.89.32-1.31.54-.07.03-.13.08-.16.15-.02.08,0,.16.03.23.72,1.62,2.87,1.31,4.13,2.17-.54.55-1.16,1.02-1.66,1.62-.25.3-.49.61-.7.93-.11.16-.42.88-.57.94,1.03-.46,1.98-1.09,2.81-1.86.83-.77,1.85-1.31,2.95-1.57.74-.12,1.61-.04,2.13-.58.15-.14.23-.33.22-.53"/>
            <path id="_パス_1360" data-name="パス 1360" class="cls-4" d="m100.47,9.96c.31-.05.63.03.89.2.39.39-.65.87-.86,1.1-.57.62-1.16,1.23-1.75,1.84-.3.31-.76.65-1.13.41-.17-.11-.26-.31-.4-.44-.36-.26-.87-.19-1.15.16-.26.35-.39.78-.35,1.21-.05,1.25.8,2.36,2.02,2.65.92-.03,1.81-.34,2.54-.9,2.88-1.62,6.24-2.07,9.52-2.49-.05-.76-.53-1.42-1.23-1.7-.94-.22-1.92-.08-2.76.39-.37-.14-.39-.7-.13-1,.29-.27.65-.45,1.03-.54.39-.09.73-.33.93-.67.33-.73-.53-1.43-.73-2.21-.02-.17-.07-.33-.16-.48-.23-.32-.72-.22-1.11-.22-.7-.07-1.37-.34-1.93-.78-1.4-.95-3.01-1.55-4.69-1.75-.88.05-1.76-.07-2.6-.34-.29-.2-.63-.32-.98-.38-.26.02-.5.11-.71.25-.53.29-1,.69-1.37,1.18-.32.5-.55,1.04-.68,1.62-1.11,4.18-.41,8.67-1.37,12.89-.46,1.4-.7,2.87-.71,4.34.1.55.15,1.11.17,1.67-.07.6-.23,1.18-.49,1.72l-.72,1.74c-.25.46-.34.99-.26,1.51.14.5.8.87,1.2.54.11-.1.19-.22.26-.36,1.8-3.69,2.89-7.68,3.2-11.77.46-4.07.61-8.17,1.35-12.2,1.9.59,3.18,2.74,5.17,2.8"/>
            <path id="_パス_1361" data-name="パス 1361" class="cls-4" d="m111.1,31.52c-.32-.88-.84-1.68-1.52-2.32l-3.39.35c-.56.1-1.13.08-1.68-.06-.56-.15-.97-.63-1.03-1.21,0-.65.61-1.24.44-1.87.37.15.79.02,1.01-.31.2-.33.33-.7.36-1.09l.1-.64c.03-.11.03-.22,0-.33-.05-.11-.15-.2-.26-.25-.39-.15-.81-.19-1.22-.12-.41.07-.83.06-1.23-.05-.41-.12-.67-.52-.63-.95l3.74-1.2c.06-.21-.06-.42-.27-.49-.2-.05-.42-.05-.62,0l-4.59.91c-.35.07-.79.09-.96-.21-.05-.1-.07-.21-.06-.33.07-.55.46-1.02.99-1.19.52-.16,1.07-.23,1.61-.18l.07-.46c.81-.39,1.76.18,2.39.83.13.16.29.29.48.36.21.03.42.03.63,0,.52.09.99.35,1.35.74.37.39.92.53,1.43.36.08-.67-.26-1.33-.86-1.64-.59-.3-1.24-.47-1.9-.51l-.44-1.28c1.33.05,2.67-.11,3.95-.48.13-.03.25-.08.36-.16.11-.11.19-.24.23-.39.14-.45.13-.94-.02-1.38-.15-.41-4.71.94-5.19,1.06-1.35.49-2.74.88-4.15,1.18-.94.09-1.89-.1-2.83.04-.97.06-1.78.75-2,1.7-.02.1,0,.21.08.29.12.1.3.03.45.08.14.07.23.21.26.36.12.44.12.91,0,1.35-.08.2-.12.41-.12.63.06.31.28.57.58.66.3.09.61.12.92.09,1.05-.04,2.09-.15,3.13-.31v1.35l-3.65,1.32c-.34.09-.66.27-.91.52-.38.44-.34,1.1.1,1.49.15.13.33.21.52.25.55.09,1.08-.25,1.64-.28.46.03.92.11,1.35.26.45.15.94.05,1.29-.26.12.33.14.7.05,1.04-.1.35-.41.6-.77.62-.15-.02-.3-.03-.46-.01-.15.07-.29.17-.4.3-.35.24-.77.37-1.19.38-.77.13-1.56.11-2.33-.06-.2-.09-.43-.12-.64-.09-.5.12-.54.81-.78,1.26-.15.29-.43.53-.47.86-.07.53.48.92.96,1.13.44.24.95.34,1.45.26.28-.09.55-.22.8-.39.95-.56,2.01-.91,3.11-1.02.27,0,.53-.06.78-.14.2-.09.37-.23.57-.32.31-.13.65-.2.99-.21,1.27-.17,2.55-.14,3.81.1,1.2.37,2.34.9,3.39,1.58.2.14.44.22.69.23.36-.06.65-.34.71-.7.05-.36,0-.72-.14-1.05"/>
          </g>
        </g>
      </g>
      <g id="Suisho_goya_Mountain_Hut" data-name="Suisho goya Mountain Hut" class="cls-1">
        <g class="cls-1">
          <path class="cls-5" d="m24.46,59.05c-.45-.09-.85-.2-1.2-.33-.11-.04-.23-.06-.35-.06-.19,0-.37.08-.56.22-.07.06-.13.08-.2.08-.08,0-.15-.07-.2-.21l-.56-2.35v-.08s.03-.09.13-.13h.08c.07-.01.12.02.15.1.89,1.6,2.14,2.39,3.75,2.39.62,0,1.19-.15,1.71-.46.53-.3.79-.82.79-1.56,0-.34-.09-.66-.28-.96-.19-.3-.46-.55-.81-.73-.29-.15-.57-.27-.84-.36-.27-.09-.6-.2-.99-.32-.58-.17-.99-.31-1.23-.42-.72-.34-1.21-.71-1.48-1.12-.27-.41-.4-.86-.4-1.36,0-.36.08-.74.25-1.15.17-.41.47-.77.9-1.08.43-.31,1.02-.46,1.76-.46.29,0,.58.03.87.09s.61.15.95.27c.16.05.28.07.38.07.18,0,.34-.06.49-.18.07-.06.14-.08.21-.08.09,0,.15.06.18.18l.59,2.02v.1c.01.06-.02.1-.1.13-.06.02-.1.03-.13.03-.06,0-.1-.03-.14-.08-.11-.19-.31-.44-.6-.76s-.68-.62-1.16-.9-1.03-.42-1.62-.42-1.02.13-1.32.4c-.3.27-.49.54-.57.81s-.13.48-.13.62c0,.66.4,1.2,1.19,1.6.35.17.88.36,1.57.56.41.12.76.23,1.06.34.29.1.58.22.86.36,1.08.56,1.62,1.43,1.62,2.6,0,.51-.14.98-.41,1.39-.28.41-.67.74-1.2.97-.52.24-1.13.36-1.83.36-.35,0-.75-.04-1.2-.13Z"/>
          <path class="cls-5" d="m37.62,58.51s.05.07.05.13c0,.09-.03.15-.1.17l-1.67.27h-.08c-.15.01-.22-.08-.22-.27v-.41c0-.16-.05-.24-.15-.24-.07,0-.13.04-.2.11-.55.57-1.18.85-1.89.85-.8,0-1.37-.21-1.71-.62-.34-.41-.51-.91-.51-1.51v-3.26c-.01-.2-.06-.34-.15-.43-.09-.09-.2-.15-.33-.18s-.33-.06-.59-.08c-.07,0-.1-.03-.12-.06-.01-.03-.02-.07-.02-.12,0-.1.03-.16.08-.18.18-.06.44-.13.78-.21s.67-.16,1-.24c.03,0,.06-.01.1-.01.15,0,.22.09.22.27v1.75c0,1.51,0,2.38.01,2.6.02.43.14.8.36,1.13s.59.48,1.1.48c.35,0,.68-.09,1.02-.27.33-.18.62-.45.86-.81.08-.11.11-.23.11-.36l-.06-3.25c0-.2-.04-.34-.13-.43-.09-.09-.19-.15-.32-.18-.12-.03-.32-.06-.6-.1-.08,0-.13-.08-.13-.22,0-.06.03-.11.08-.13.18-.06.44-.13.78-.21s.67-.16.99-.24c.03,0,.06-.01.1-.01.15,0,.22.09.22.27l.03,5.32c0,.35.19.56.56.63.11.02.21.03.29.03.12,0,.2.01.23.04Z"/>
          <path class="cls-5" d="m38.96,59c-.08,0-.11-.07-.11-.2s.04-.2.11-.2h.18c.27,0,.49-.04.65-.11.16-.07.24-.23.24-.48l-.04-4.27c0-.2-.04-.34-.13-.43-.09-.09-.19-.15-.31-.18-.12-.02-.32-.05-.61-.09-.06,0-.09-.02-.1-.04-.01-.02-.02-.06-.02-.13,0-.05,0-.09.01-.13,0-.04.03-.06.06-.07.19-.06.45-.13.8-.21.34-.08.68-.16,1.01-.24.02,0,.05-.01.1-.01.15,0,.22.09.22.27v5.53c-.01.24.07.4.23.48.16.08.39.11.67.11h.18c.07,0,.1.07.1.2s-.03.2-.1.2h-3.14Zm.88-8.88c-.16-.16-.24-.35-.24-.59s.08-.43.24-.59c.16-.16.35-.24.59-.24s.43.08.59.24.24.35.24.59-.08.43-.24.59-.35.24-.59.24-.43-.08-.59-.24Z"/>
          <path class="cls-5" d="m44.06,59.06c-.09,0-.15-.06-.18-.2l-.42-1.71v-.07c-.01-.06.02-.1.1-.14.02,0,.04-.01.07-.01.07,0,.12.04.17.11.22.29.44.55.66.78s.52.44.92.64c.4.2.85.3,1.37.3.42,0,.76-.12,1.03-.36.27-.24.4-.54.4-.9,0-.21-.06-.41-.18-.59-.12-.18-.29-.32-.52-.42-.23-.11-.7-.27-1.41-.48-.36-.08-.66-.17-.88-.27-.92-.38-1.39-.96-1.39-1.74,0-.21.05-.45.16-.73.11-.29.31-.54.62-.78.3-.23.73-.35,1.28-.35.3,0,.56.04.78.1.22.07.35.11.38.12.18.07.29.1.35.1.18,0,.35-.06.52-.18.08-.06.15-.08.2-.08.07,0,.13.06.17.17l.46,1.5s0,.04.01.08c0,.04,0,.08-.03.1l-.07.06s-.05.01-.08.01c-.06,0-.11-.02-.15-.07-.34-.38-.71-.72-1.11-1.01-.4-.29-.9-.44-1.48-.44-.31,0-.56.06-.76.18-.2.12-.35.27-.43.43s-.13.33-.13.48c0,.21.07.38.2.52.13.15.36.29.67.44.2.1.57.23,1.13.39.61.19,1.05.34,1.33.46.82.37,1.23.94,1.23,1.69,0,.59-.22,1.07-.66,1.43-.44.37-1.04.55-1.79.55-.4,0-.91-.1-1.51-.29-.22-.07-.36-.1-.41-.1-.11,0-.24.05-.39.15-.07.07-.13.1-.2.1Z"/>
          <path class="cls-5" d="m57.9,58.62c.07,0,.1.07.1.2,0,.12-.03.18-.1.18h-3.14c-.07,0-.11-.06-.11-.18,0-.13.04-.2.11-.2h.18c.27,0,.49-.04.65-.11.16-.07.25-.23.25-.48v-2.38c-.01-.44-.02-.81-.04-1.11-.03-.5-.14-.91-.35-1.23-.21-.32-.57-.48-1.08-.48-.36,0-.7.09-1.03.27-.33.18-.62.46-.88.82-.07.11-.11.23-.11.36v3.74c0,.24.08.4.25.48.16.08.39.11.67.11h.17c.08,0,.13.07.13.2,0,.12-.04.18-.13.18h-3.12c-.07,0-.11-.06-.11-.18,0-.13.04-.2.11-.2h.17c.28,0,.5-.04.67-.11.16-.07.25-.23.25-.48l-.04-7.73c0-.2-.04-.34-.13-.43-.09-.09-.19-.15-.32-.18-.12-.03-.32-.06-.6-.1-.09,0-.14-.05-.14-.13v-.1c0-.07.03-.11.08-.13.19-.06.45-.13.8-.21.34-.08.68-.16,1.01-.24.02,0,.05-.01.1-.01.15,0,.22.09.22.27v3.84c-.01.17.03.25.13.25.06,0,.13-.04.21-.13.54-.57,1.16-.85,1.86-.85s1.27.2,1.63.61c.36.41.55.91.58,1.52,0,.15.01.44.01.87v2.88c.01.23.1.39.27.47s.39.12.66.12h.18Z"/>
          <path class="cls-5" d="m60.75,58.67c-.5-.35-.88-.8-1.15-1.34-.27-.54-.4-1.09-.4-1.65,0-.6.13-1.17.39-1.71.26-.54.64-.98,1.14-1.32.5-.34,1.08-.5,1.76-.5s1.26.17,1.76.5.89.77,1.16,1.32c.27.54.4,1.11.4,1.71,0,.56-.13,1.11-.4,1.65-.27.54-.65.99-1.16,1.34-.5.35-1.09.53-1.76.53s-1.24-.17-1.74-.53Zm3.32-.83c.39-.57.58-1.29.58-2.16,0-.91-.19-1.65-.57-2.21-.38-.55-.91-.83-1.58-.83s-1.19.28-1.57.84c-.38.56-.57,1.29-.57,2.2,0,.56.09,1.07.26,1.53.17.46.42.83.74,1.09.32.27.7.4,1.14.4.66,0,1.19-.29,1.57-.86Z"/>
          <path class="cls-5" d="m77.89,52.04c.11.12.17.25.17.39,0,.15-.05.28-.15.39-.1.11-.25.17-.44.17-.12,0-.24-.03-.35-.1-.13-.06-.25-.08-.35-.08-.12,0-.28.09-.49.28-.07.06-.1.13-.1.21,0,.07.02.13.06.2.17.31.25.65.25,1.02,0,.31-.07.64-.2,1-.14.36-.4.68-.79.96-.39.28-.93.42-1.62.42-.22,0-.45-.02-.69-.07-.04,0-.09-.01-.15-.01-.08,0-.16.02-.24.06-.15.08-.27.15-.35.23-.08.08-.13.15-.13.2,0,.08.07.14.2.19s.38.11.74.17c1.22.22,2.15.43,2.79.62.4.12.73.3.99.52.26.23.39.52.39.86,0,.46-.19.83-.57,1.13s-.85.52-1.41.65c-.56.13-1.12.2-1.69.2-.71,0-1.3-.09-1.77-.27-.47-.18-.82-.4-1.04-.66-.22-.26-.34-.52-.34-.77,0-.29.13-.53.38-.73.25-.2.64-.4,1.16-.6.1-.04.15-.08.15-.13,0-.06-.06-.1-.18-.14-.31-.08-.54-.19-.69-.32s-.23-.27-.23-.42c0-.29.31-.58.92-.87.11-.06.17-.11.17-.17s-.05-.12-.14-.18c-.33-.22-.58-.5-.75-.83s-.26-.69-.26-1.07c0-.43.12-.82.35-1.18.23-.36.55-.64.95-.85s.84-.31,1.32-.31c.74,0,1.36.21,1.86.62.08.07.15.1.21.1.06,0,.13-.04.2-.13.21-.25.43-.46.67-.63.24-.17.48-.25.71-.25.21,0,.36.06.48.18Zm-2.3,7.1c-.46-.16-1.2-.33-2.21-.5-.03,0-.07-.01-.13-.01-.09,0-.18.02-.25.06-.94.44-1.41.87-1.41,1.3,0,.39.23.69.69.88.46.2,1.05.29,1.77.29.52,0,.97-.06,1.34-.18s.64-.28.83-.47.27-.38.27-.57c0-.33-.3-.59-.9-.8Zm-.55-3.3c.27-.38.41-.84.41-1.37,0-.49-.14-.92-.41-1.28-.27-.36-.68-.54-1.23-.54-.59,0-1.01.19-1.27.57-.26.38-.39.81-.39,1.29,0,.53.14.98.41,1.35.27.37.7.55,1.29.55.52,0,.92-.19,1.2-.57Z"/>
          <path class="cls-5" d="m80.71,58.67c-.5-.35-.88-.8-1.15-1.34-.27-.54-.4-1.09-.4-1.65,0-.6.13-1.17.39-1.71.26-.54.64-.98,1.14-1.32.5-.34,1.08-.5,1.76-.5s1.26.17,1.76.5.89.77,1.16,1.32c.27.54.4,1.11.4,1.71,0,.56-.13,1.11-.4,1.65-.27.54-.65.99-1.16,1.34-.5.35-1.09.53-1.76.53s-1.24-.17-1.74-.53Zm3.32-.83c.39-.57.58-1.29.58-2.16,0-.91-.19-1.65-.57-2.21-.38-.55-.91-.83-1.58-.83s-1.19.28-1.57.84c-.38.56-.57,1.29-.57,2.2,0,.56.09,1.07.26,1.53.17.46.42.83.74,1.09.32.27.7.4,1.14.4.66,0,1.19-.29,1.57-.86Z"/>
          <path class="cls-5" d="m94.09,52.28c.07,0,.1.07.1.2s-.03.2-.1.2c-.52,0-.91.25-1.15.76-.18.36-1.08,2.59-2.7,6.66-.39.88-.79,1.45-1.2,1.71-.41.26-.82.39-1.25.39-.25,0-.46-.06-.63-.17-.17-.11-.25-.25-.25-.42s.05-.32.16-.43.26-.17.46-.17c.16,0,.33.04.52.11.15.06.29.1.43.1.2,0,.41-.1.63-.31.22-.21.41-.48.56-.81l.38-.92c.03-.07.04-.13.04-.2s-.01-.13-.04-.2l-2.32-5.52c-.11-.25-.24-.41-.39-.48-.15-.07-.36-.11-.62-.11-.07,0-.1-.07-.1-.2s.03-.2.1-.2h3.11c.08,0,.11.07.11.2s-.04.2-.11.2c-.3,0-.54.04-.73.13s-.29.2-.29.35c0,.05.01.11.04.18l1.6,3.92c.02.06.05.1.08.13.04.03.08.05.11.05.07,0,.14-.06.2-.2.35-.84.67-1.61.94-2.3.28-.69.47-1.2.6-1.51.02-.05.03-.11.03-.18,0-.19-.11-.33-.32-.43-.21-.1-.46-.15-.73-.15-.07,0-.1-.07-.1-.2,0-.06,0-.11.02-.15s.04-.05.08-.05h2.74Z"/>
          <path class="cls-5" d="m101.84,57.98v.08c-.15.4-.36.69-.64.85-.28.17-.55.25-.8.25-.23,0-.43-.06-.6-.18s-.3-.29-.39-.5c-.06-.11-.11-.17-.17-.17-.04,0-.09.03-.17.08-.32.26-.67.46-1.07.59-.4.13-.79.2-1.17.2-.54,0-.98-.13-1.31-.38s-.5-.6-.5-1.04c0-.35.08-.64.22-.9.15-.25.39-.48.73-.67.21-.12.46-.23.78-.33.31-.1.74-.22,1.29-.37.49-.13.82-.22.98-.27.17-.05.25-.15.25-.32v-.35c0-.45-.02-.78-.07-.99-.05-.21-.14-.41-.28-.57-.21-.25-.56-.38-1.05-.38-.35,0-.61.08-.78.25-.18.17-.33.42-.45.77-.16.45-.39.67-.69.67-.17,0-.32-.05-.46-.16-.14-.11-.2-.25-.2-.43s.06-.39.19-.62c.13-.24.38-.46.77-.66.39-.2.94-.3,1.66-.3.42,0,.82.07,1.2.22.38.14.65.32.8.54.14.2.24.4.29.61.05.21.08.46.08.75,0,.44,0,.83-.01,1.16v2.03c-.01.38.06.64.2.77.14.13.29.2.43.2.12,0,.25-.04.39-.12.13-.08.25-.2.34-.36.03-.05.06-.07.1-.07.08,0,.11.03.11.1Zm-3.59.36c.31-.13.59-.31.85-.55.09-.1.14-.16.14-.18h0s.03-1.55.03-1.55c0-.11-.03-.19-.09-.24-.06-.05-.14-.06-.25-.03-.96.24-1.66.49-2.11.75s-.67.61-.67,1.06c0,.26.09.48.27.67s.48.27.9.27c.3,0,.6-.06.92-.19Z"/>
        </g>
        <g class="cls-1">
          <path class="cls-5" d="m15.07,74c-.07,0-.11-.07-.11-.21,0-.12.04-.18.11-.18h.2c.31,0,.59-.11.84-.32s.38-.48.38-.8v-7.39c0-.33-.1-.55-.29-.68s-.5-.19-.93-.19h-.2c-.07,0-.1-.06-.1-.2s.03-.2.1-.2h2.37c.18,0,.29.08.35.22l3.18,7.59c.04.12.1.18.2.18.07,0,.14-.06.2-.18l3.35-7.59c.06-.15.18-.22.34-.22h2.25s.08.02.09.05c.01.03.02.08.02.15,0,.13-.04.2-.11.2h-.21c-.44,0-.75.07-.92.2-.18.13-.27.36-.27.67v7.63c0,.33.09.56.28.69s.49.2.91.2h.21c.07,0,.1.06.1.18,0,.14-.03.21-.1.21h-3.93c-.06,0-.08-.07-.08-.21,0-.12.03-.18.08-.18h.24c.43,0,.74-.07.92-.2.19-.14.28-.36.28-.68v-6.72c0-.08-.01-.15-.04-.19-.03-.04-.07-.06-.11-.06-.07,0-.14.06-.2.18l-3.4,7.84c-.07.15-.13.22-.18.22s-.12-.07-.18-.22l-3.32-7.83c-.06-.12-.12-.18-.18-.18-.05,0-.08.02-.11.06-.03.04-.04.1-.04.19v6.47c0,.32.13.58.39.8s.53.32.81.32h.22c.06,0,.08.06.08.18,0,.14-.03.21-.08.21h-3.39Z"/>
          <path class="cls-5" d="m30.6,73.67c-.5-.35-.88-.8-1.15-1.34s-.4-1.09-.4-1.65c0-.6.13-1.17.39-1.71.26-.54.64-.98,1.14-1.32.5-.34,1.08-.5,1.76-.5s1.26.17,1.76.5c.5.34.89.77,1.15,1.32.27.54.4,1.11.4,1.71,0,.56-.13,1.11-.4,1.65s-.65.99-1.15,1.34c-.5.35-1.09.53-1.76.53s-1.24-.17-1.74-.53Zm3.32-.83c.39-.57.58-1.29.58-2.16,0-.91-.19-1.65-.57-2.21-.38-.55-.91-.83-1.58-.83s-1.19.28-1.57.84c-.38.56-.57,1.29-.57,2.2,0,.56.09,1.07.26,1.53.17.46.42.83.74,1.09.32.27.7.4,1.14.4.66,0,1.19-.29,1.57-.86Z"/>
          <path class="cls-5" d="m44.21,73.51s.05.07.05.13c0,.09-.03.15-.1.17l-1.67.27h-.08c-.15.01-.22-.08-.22-.27v-.41c0-.16-.05-.24-.15-.24-.07,0-.13.04-.2.11-.55.57-1.18.85-1.89.85-.8,0-1.37-.21-1.72-.62-.34-.41-.51-.91-.51-1.51v-3.26c-.01-.2-.06-.34-.15-.43-.09-.09-.2-.15-.33-.18-.13-.03-.33-.06-.59-.08-.07,0-.1-.03-.12-.06-.01-.03-.02-.07-.02-.12,0-.1.03-.16.08-.18.18-.06.44-.13.78-.21s.67-.16,1-.24c.03,0,.06-.01.1-.01.15,0,.22.09.22.27v1.75c0,1.51,0,2.38.01,2.6.02.43.14.8.36,1.13.22.32.59.48,1.1.48.35,0,.68-.09,1.02-.27.33-.18.62-.45.86-.81.07-.11.11-.23.11-.36l-.06-3.25c0-.2-.04-.34-.13-.43-.09-.09-.19-.15-.31-.18-.12-.03-.32-.06-.6-.1-.08,0-.13-.08-.13-.22,0-.06.03-.11.08-.13.18-.06.44-.13.78-.21s.67-.16.99-.24c.03,0,.06-.01.1-.01.15,0,.22.09.22.27l.03,5.32c0,.35.19.56.56.63.11.02.21.03.29.03.12,0,.2.01.23.04Z"/>
          <path class="cls-5" d="m53.12,73.62c.07,0,.11.07.11.2,0,.12-.04.18-.11.18h-3.14c-.07,0-.1-.06-.1-.18,0-.13.03-.2.1-.2h.2c.27,0,.49-.04.64-.11.16-.07.24-.23.24-.48v-2.6s-.03-.9-.03-.9c0-.5-.11-.9-.33-1.23-.22-.32-.59-.48-1.11-.48-.35,0-.7.09-1.03.27-.33.18-.62.46-.88.83-.07.12-.1.24-.1.36v3.74c-.01.23.07.39.24.47s.39.12.66.12h.18c.07,0,.1.07.1.2,0,.12-.03.18-.1.18h-3.14c-.07,0-.11-.06-.11-.18,0-.13.04-.2.11-.2h.18c.27,0,.49-.04.66-.12s.25-.24.25-.47l-.04-4.28c0-.2-.04-.34-.13-.43-.09-.09-.2-.15-.32-.18-.13-.03-.33-.06-.61-.1-.06,0-.09-.03-.1-.06-.01-.03-.02-.09-.02-.16,0-.06.02-.11.07-.13.19-.06.45-.13.8-.21.35-.08.68-.16,1.01-.24.02,0,.05-.01.1-.01.15,0,.22.09.22.27v.38c0,.16.05.24.14.24.07,0,.14-.04.21-.11.53-.56,1.15-.84,1.85-.84.74,0,1.29.2,1.67.61.38.41.58.91.61,1.5,0,.17.01.5.01,1.01,0,.76-.01,1.68-.04,2.76,0,.24.08.4.25.48.16.08.38.11.65.11h.18Z"/>
          <path class="cls-5" d="m55.41,73.8c-.28-.27-.41-.67-.41-1.22v-4.48c0-.09-.03-.17-.08-.22-.05-.05-.12-.08-.22-.08h-.55c-.09,0-.17-.02-.22-.07-.05-.05-.08-.11-.08-.2,0-.15.08-.26.24-.34.41-.16.73-.41.97-.76.23-.35.42-.9.57-1.66.05-.19.12-.28.21-.28.1,0,.15.1.15.29v2.2c0,.09.03.17.08.22s.12.08.22.08h1.25c.2,0,.29.08.29.25,0,.08-.03.15-.08.2-.05.05-.12.07-.22.07h-1.26c-.09,0-.17.03-.22.08-.05.05-.08.12-.08.22v4.4c.02.32.11.57.28.76s.38.29.64.29c.21,0,.39-.03.52-.1s.27-.17.4-.32c.05-.06.09-.08.14-.08s.09.02.13.07c.04.05.06.09.06.14,0,.04,0,.07-.03.1-.37.57-.89.85-1.55.85-.51,0-.91-.13-1.18-.4Z"/>
          <path class="cls-5" d="m65.83,72.98v.08c-.15.4-.36.69-.64.85s-.55.25-.8.25c-.23,0-.43-.06-.6-.18s-.3-.29-.39-.5c-.06-.11-.11-.17-.17-.17-.04,0-.09.03-.17.08-.32.26-.67.46-1.07.59-.4.13-.79.2-1.17.2-.54,0-.98-.13-1.31-.38-.33-.25-.5-.6-.5-1.04,0-.35.07-.64.22-.9.15-.25.39-.48.73-.67.21-.12.46-.23.78-.33.31-.1.74-.22,1.29-.37.5-.13.82-.22.98-.27.17-.05.25-.15.25-.32v-.35c0-.45-.02-.78-.07-.99s-.14-.41-.28-.57c-.21-.25-.55-.38-1.05-.38-.35,0-.61.08-.78.25s-.33.42-.45.77c-.16.45-.39.67-.69.67-.17,0-.32-.05-.46-.16s-.2-.25-.2-.43.06-.39.19-.62c.13-.24.38-.46.77-.66.39-.2.94-.3,1.66-.3.42,0,.82.07,1.2.22s.65.32.8.54c.14.2.24.4.29.61.05.21.08.46.08.75,0,.44,0,.83-.01,1.16v2.03c-.01.38.06.64.2.77.14.13.29.2.43.2.12,0,.25-.04.38-.12.14-.08.25-.2.34-.36.03-.05.06-.07.1-.07.07,0,.11.03.11.1Zm-3.59.36c.31-.13.59-.31.85-.55.09-.1.14-.16.14-.18h0s.03-1.55.03-1.55c0-.11-.03-.19-.09-.24-.06-.05-.14-.06-.25-.03-.96.24-1.66.49-2.11.75s-.67.61-.67,1.06c0,.26.09.48.27.67.18.18.48.27.9.27.3,0,.6-.06.92-.19Z"/>
          <path class="cls-5" d="m66.69,74c-.08,0-.11-.07-.11-.2s.04-.2.11-.2h.18c.27,0,.49-.04.65-.11.16-.07.24-.23.24-.48l-.04-4.27c0-.2-.04-.34-.13-.43-.09-.09-.19-.15-.31-.18-.12-.02-.32-.05-.61-.09-.06,0-.09-.02-.1-.04-.01-.02-.02-.06-.02-.13,0-.05,0-.09.01-.13,0-.04.03-.06.06-.07.19-.06.45-.13.8-.21.34-.08.68-.16,1.01-.24.02,0,.05-.01.1-.01.15,0,.22.09.22.27v5.53c-.01.24.07.4.23.48.16.08.39.11.67.11h.18c.07,0,.1.07.1.2s-.03.2-.1.2h-3.14Zm.88-8.88c-.16-.16-.24-.35-.24-.59s.08-.43.24-.59c.16-.16.35-.24.59-.24s.43.08.59.24.24.35.24.59-.08.43-.24.59-.35.24-.59.24-.43-.08-.59-.24Z"/>
          <path class="cls-5" d="m78.7,73.62c.08,0,.11.07.11.2,0,.12-.04.18-.11.18h-3.14c-.07,0-.1-.06-.1-.18,0-.13.03-.2.1-.2h.2c.27,0,.49-.04.64-.11.16-.07.24-.23.24-.48v-2.6s-.03-.9-.03-.9c0-.5-.11-.9-.33-1.23-.22-.32-.59-.48-1.11-.48-.36,0-.7.09-1.03.27-.33.18-.62.46-.88.83-.07.12-.1.24-.1.36v3.74c-.01.23.07.39.24.47s.39.12.66.12h.18c.07,0,.1.07.1.2,0,.12-.03.18-.1.18h-3.14c-.07,0-.11-.06-.11-.18,0-.13.04-.2.11-.2h.18c.27,0,.49-.04.66-.12s.25-.24.25-.47l-.04-4.28c0-.2-.04-.34-.13-.43-.09-.09-.2-.15-.32-.18-.13-.03-.33-.06-.61-.1-.06,0-.09-.03-.11-.06-.01-.03-.02-.09-.02-.16,0-.06.02-.11.07-.13.19-.06.45-.13.8-.21.34-.08.68-.16,1.01-.24.02,0,.05-.01.1-.01.15,0,.22.09.22.27v.38c0,.16.05.24.14.24.07,0,.13-.04.21-.11.53-.56,1.15-.84,1.85-.84.74,0,1.29.2,1.67.61.38.41.58.91.61,1.5,0,.17.01.5.01,1.01,0,.76-.01,1.68-.04,2.76,0,.24.08.4.25.48.16.08.38.11.65.11h.18Z"/>
          <path class="cls-5" d="m94.48,73.61s.08.02.09.05c.01.03.02.08.02.15,0,.13-.04.2-.11.2h-3.96c-.07,0-.1-.07-.1-.2s.03-.2.1-.2h.22c.42,0,.73-.07.92-.2.19-.14.29-.36.29-.67v-3.49c0-.09-.03-.17-.08-.22-.05-.05-.12-.08-.22-.08h-5.04c-.09,0-.17.03-.22.08-.05.05-.08.12-.08.22v3.47c0,.33.09.55.28.68s.49.19.92.19h.21s.08.02.09.05c.01.03.02.08.02.15,0,.13-.04.2-.11.2h-3.96c-.07,0-.1-.07-.1-.2s.03-.2.1-.2h.22c.42,0,.73-.07.92-.2.19-.13.29-.36.29-.67v-7.63c0-.33-.1-.55-.29-.69-.2-.13-.5-.2-.91-.2h-.22c-.07,0-.1-.07-.1-.2s.03-.2.1-.2h3.96s.08.02.09.05c.01.03.02.08.02.15,0,.13-.04.2-.11.2h-.21c-.44,0-.75.07-.93.2-.18.13-.27.36-.27.69v3.04c0,.09.03.17.08.22.05.05.12.08.22.08h5.04c.09,0,.17-.03.22-.08.05-.05.08-.12.08-.22v-3.02c0-.33-.1-.56-.29-.69-.2-.13-.5-.2-.91-.2h-.22c-.07,0-.1-.06-.1-.2s.03-.2.1-.2h3.96s.08.02.09.05c.01.03.02.08.02.15,0,.13-.04.2-.11.2h-.21c-.44,0-.75.07-.93.2-.18.13-.27.36-.27.69v7.63c0,.33.09.55.28.68s.49.19.92.19h.21Z"/>
          <path class="cls-5" d="m103.16,73.51s.05.07.05.13c0,.09-.03.15-.1.17l-1.67.27h-.08c-.15.01-.22-.08-.22-.27v-.41c0-.16-.05-.24-.15-.24-.07,0-.13.04-.2.11-.55.57-1.18.85-1.89.85-.8,0-1.37-.21-1.71-.62-.34-.41-.51-.91-.51-1.51v-3.26c-.01-.2-.06-.34-.15-.43-.09-.09-.2-.15-.33-.18s-.33-.06-.59-.08c-.07,0-.1-.03-.12-.06-.01-.03-.02-.07-.02-.12,0-.1.03-.16.08-.18.18-.06.44-.13.78-.21s.67-.16,1-.24c.03,0,.06-.01.1-.01.15,0,.22.09.22.27v1.75c0,1.51,0,2.38.01,2.6.02.43.14.8.36,1.13s.59.48,1.1.48c.35,0,.68-.09,1.02-.27.33-.18.62-.45.86-.81.08-.11.11-.23.11-.36l-.06-3.25c0-.2-.04-.34-.13-.43-.09-.09-.19-.15-.32-.18-.12-.03-.32-.06-.6-.1-.08,0-.13-.08-.13-.22,0-.06.03-.11.08-.13.18-.06.44-.13.78-.21s.67-.16.99-.24c.03,0,.06-.01.1-.01.15,0,.22.09.22.27l.03,5.32c0,.35.19.56.56.63.11.02.21.03.29.03.12,0,.2.01.23.04Z"/>
          <path class="cls-5" d="m105.5,73.8c-.28-.27-.41-.67-.41-1.22v-4.48c0-.09-.03-.17-.08-.22-.05-.05-.12-.08-.22-.08h-.55c-.09,0-.17-.02-.22-.07-.05-.05-.08-.11-.08-.2,0-.15.08-.26.24-.34.41-.16.73-.41.97-.76.23-.35.42-.9.57-1.66.05-.19.12-.28.21-.28.1,0,.15.1.15.29v2.2c0,.09.03.17.08.22.05.05.12.08.22.08h1.25c.2,0,.29.08.29.25,0,.08-.03.15-.08.2-.05.05-.12.07-.22.07h-1.26c-.09,0-.17.03-.22.08-.05.05-.08.12-.08.22v4.4c.02.32.11.57.28.76s.38.29.64.29c.21,0,.39-.03.52-.1.14-.07.27-.17.4-.32.05-.06.09-.08.14-.08s.09.02.13.07c.04.05.06.09.06.14,0,.04,0,.07-.03.1-.37.57-.89.85-1.55.85-.51,0-.91-.13-1.18-.4Z"/>
        </g>
      </g>
      <line id="_線_1245" data-name="線 1245" class="cls-2" x1="61.61" y1="91.5" x2="61.61" y2="107.5"/>
    </g>
  </g>
</svg>