<svg xmlns="http://www.w3.org/2000/svg" width="146.58" height="28.11" viewBox="0 0 146.58 28.11">
  <path id="パス_3148" data-name="パス 3148" d="M16.83-10.26v-6.45h6.78v6.45Zm-10.53,0v-6.45h6.75v6.45Zm10.53-9.96v-5.19H13.05v5.19H2.7V-5.1H6.3V-6.75h6.75V2.61h3.78V-6.75h6.78v1.5h3.75V-20.22Zm24.9,9.9H39.72v-1.92h2.01Zm2.4-3.81H37.44v5.7h6.69ZM35.58-1.74V-20.91H50.04l-1.38,1.38a14.286,14.286,0,0,1,2.31,1.59H47.73c-.06-.84-.09-1.68-.12-2.55H44.67c.06.87.09,1.71.15,2.55H36.69v2.52h8.34a43.356,43.356,0,0,0,1.29,7.86,18.051,18.051,0,0,1-1.5,1.53l-.06-1.53c-3.12.42-6.24.81-8.43,1.02l.33,2.61c1.98-.33,4.35-.66,6.75-1.02-.33.21-.66.42-.99.6a14.423,14.423,0,0,1,1.95,2.16,18.113,18.113,0,0,0,3.12-2.55,4.3,4.3,0,0,0,2.25,1.98c1.98.9,3.54-.24,4.02-3.93a12.718,12.718,0,0,1-2.22-1.68c-.12,1.74-.36,2.91-.72,2.82-.51-.12-.96-.69-1.35-1.62a22.593,22.593,0,0,0,3.15-6.87l-2.73-.54a17.968,17.968,0,0,1-1.41,3.75c-.24-1.35-.42-2.91-.57-4.59h5.37v-2.52H51.84l1.2-1.26a10.1,10.1,0,0,0-2.46-1.71h3.66V-1.74ZM32.19-24.12V2.7h3.39V1.44H54.24V2.7h3.54V-24.12Zm38.34,4.59a22.424,22.424,0,0,1-1.11,3.3l1.98.42H65.52l1.5-.42A11.829,11.829,0,0,0,66-19.53ZM70.14-7.56h4.95v-3H70.14v-2.31h5.22v-2.94H72.33c.42-.9.9-2.1,1.44-3.39l-1.74-.33h3.09v-2.91H70.14v-2.73H66.69v2.73H61.65v2.91h3.36l-1.83.42a13.9,13.9,0,0,1,.9,3.3H61.32v2.94h5.37v2.31H61.41v3h4.56a19.683,19.683,0,0,1-5.4,5.79A13.185,13.185,0,0,1,62.88.75a21.191,21.191,0,0,0,3.81-4.23V2.55h3.45V-3.84A28.075,28.075,0,0,1,72.33-1.5L74.4-4.05c-.69-.54-3.18-2.52-4.26-3.27Zm18.84-7.98H79.62v-4.2a48.615,48.615,0,0,0,9.21-2.76l-2.85-2.61a35.309,35.309,0,0,1-7.65,2.64l-2.07-.57v10.38c0,4.14-.36,9.24-3.81,12.9A8.221,8.221,0,0,1,75,2.67c3.96-4.11,4.59-10.44,4.62-14.91h3.06V2.43h3.45V-12.24h2.85Zm11.64-6.21v1.47H95.91v-1.47Zm-4.71,5.31V-18h4.71v1.56Zm8.07,2.52V-24.27H92.43V2.61h3.48V-13.92Zm3.27,4.89h-4.71v-1.2h4.71Zm-4.71,5.22h4.71v1.29c-1.62.12-3.21.21-4.71.3Zm4.71-1.95h-4.71V-7.05h4.71Zm5.01-4.47v-2.46H97.65v2.46h1.77v8.19l-2.07.12L97.5.75c2.67-.24,6.18-.48,9.75-.75V1.77h3.21v-12Zm-2.91-6.15V-18h4.86v1.62Zm4.86-5.37v1.47h-4.86v-1.47Zm3.51-2.52H105.96v10.41h8.25V-1.59c0,.45-.15.6-.57.6-.45.03-1.8.03-3.06-.03a12.615,12.615,0,0,1,1.05,3.54c2.19,0,3.66-.09,4.74-.69,1.05-.57,1.35-1.59,1.35-3.36ZM134.25-8.46c-.63-.6-2.94-2.67-4.38-3.84a29.119,29.119,0,0,0,3.54-6.42l-2.01-1.29-.63.15h-1.35v-5.52h-3.54v5.52h-4.26v3.24h7.23a22.409,22.409,0,0,1-8.37,8.37,14.3,14.3,0,0,1,1.68,3.39,24.825,24.825,0,0,0,3.72-2.88V2.61h3.54V-8.7c1.02,1.11,2.04,2.31,2.67,3.15Zm8.64,6.72V-12.72h5.67v-3.45h-5.67v-8.97h-3.66v8.97h-5.7v3.45h5.7V-1.74H132.3V1.74h16.98V-1.74Z" transform="translate(-2.7 25.41)" fill="#333"/>
</svg>
