<?xml version="1.0" encoding="UTF-8"?><svg xmlns="http://www.w3.org/2000/svg" viewBox="0 0 900 800"><defs><style>.cls-1,.cls-2{font-size:27px;letter-spacing:.1em;}.cls-1,.cls-2,.cls-3,.cls-4,.cls-5,.cls-6{font-family:Bahnschrift-SemiBold, Bahnschrift;font-variation-settings:'wght' 600, 'wdth' 100;font-weight:600;}.cls-1,.cls-3,.cls-4,.cls-6,.cls-7{fill:#fff;}.cls-2,.cls-5{fill:#b60000;}.cls-3,.cls-5{font-size:14px;}.cls-4{font-size:99.28px;letter-spacing:.1em;}.cls-6{font-size:24.7px;letter-spacing:.1em;}.cls-8{fill:#46be00;}.cls-8,.cls-9,.cls-7,.cls-10,.cls-11{stroke-width:0px;}.cls-9{fill:#544742;}.cls-10{fill:#ee7c26;}.cls-11{fill:#00c1d4;}</style></defs><g id="_レイヤー_6"><path class="cls-7" d="M772.6,100.58c.39-.58.92-1.27,1.2-1.27.37,0,1.71,1.1,1.71,1.56,0,.25-.3.42-1.03.42h-6.51v.73c0,.39.02,2.03.02,2.37,0,.39-.32.48-.8.48-.28,0-.48-.14-.48-.44,0-.34.07-2.03.07-2.51v-.62h-7.25c-.23,0-.39-.07-.39-.35,0-.27.16-.35.39-.35h7.23c0-.53-.04-1.1-.07-1.45-.02-.16.07-.25.23-.25.67,0,1.96.07,1.96.5,0,.3-.35.48-.9.55,0,.14-.02.37-.02.65h4.62ZM759.92,95.82c.25.07.58.21.78.27.19.05.28,0,.42-.23.34-.53.99-1.77,1.29-2.32.23-.39.76-.21.64.25-.3,1.08-1.08,2.62-1.08,3.11s.23.88.23,1.63c0,.69-.35,1.04-.9,1.04-.51,0-.65-.46-.65-.78,0-.28.11-.9-.02-1.33-.18-.55-.53-.76-.97-1.13-.28-.25-.04-.62.27-.51ZM759.69,91.98c-.3-.34-.12-.76.39-.62.96.25,1.82.65,1.91,1.41.05.46-.19.83-.67.9-.44.05-.62-.39-.92-.83-.21-.32-.48-.58-.71-.87ZM761.43,89.42c-.25-.37-.05-.76.46-.6.94.28,1.82.78,1.84,1.57.02.5-.27.85-.78.87-.46.02-.62-.46-.88-.9-.2-.34-.43-.64-.64-.94ZM766.43,98.83c0,.39-.27.58-.78.58-.32,0-.48-.18-.48-.5.02-.62.07-3.66.04-5.68-.5.67-1.08,1.33-1.75,1.89-.39.34-.76,0-.44-.42,1.54-1.87,2.58-3.94,2.9-5.64.04-.19.14-.25.34-.23.6.09,1.57.48,1.59.81,0,.25-.25.35-.76.35-.12.28-.3.64-.49,1.03.05.04.12.07.18.11h2.21c.3-.57.62-1.19.76-1.98.02-.16.12-.3.32-.27.64.11,1.56.5,1.59.8.02.25-.19.39-.74.42-.27.41-.55.74-.83,1.03h2.33c.34-.48.76-1.03.99-1.03.32,0,1.5.97,1.5,1.36,0,.25-.28.37-.9.37h-3.36v.02c0,.18-.11.3-.34.39v.97h1.63c.3-.46.69-.94.9-.94.3,0,1.41.92,1.41,1.29.02.25-.25.35-.85.35h-3.1v1.47h1.63c.3-.46.69-.94.9-.94.3,0,1.41.92,1.41,1.29.02.25-.25.35-.85.35h-3.1v1.5h2.58c.34-.5.76-1.06,1.01-1.06.34,0,1.54.99,1.54,1.4,0,.23-.28.37-.92.37h-8.08v.51ZM769.14,93.22v-1.38h-2.37c-.09.04-.19.05-.32.07-.02.27-.02.78-.04,1.31h2.72ZM769.14,93.93h-2.72v1.47h2.72v-1.47ZM769.14,96.11h-2.72l.02,1.5h2.71v-1.5Z"/><path class="cls-7" d="M792.85,91.95c.3.16.55.37.55.55,0,.21-.25.32-.76.35-.28.88-.65,1.63-1.25,2.32.83.6,1.89.99,3.22,1.19.58.09.37.35.05.5-.42.18-.55.32-.71.53-.18.27-.27.41-.85.21-1.08-.3-1.95-.85-2.64-1.57-.87.67-2.02,1.2-3.48,1.5-.53.11-.65-.37-.2-.58,1.43-.5,2.33-1.01,3.06-1.7-.5-.78-.85-1.7-1.08-2.72-.19.21-.41.41-.64.6-.14.11-.28.14-.39.12.3.28.58.64.58.83,0,.23-.25.32-.67.32h-1.52c-.05.46-.11.96-.18,1.38h.18c.27-.41.57-.8.74-.8.28,0,1.15.87,1.17,1.19,0,.25-.27.32-.65.32h-1.59l-.04.11c-.35,1.11-1.2,1.26-1.68,1.26-.23,0-.32-.11-.44-.25s-.21-.19-.39-.25c-.42-.12-.34-.51.04-.5.28.02.5.04.85.04.3,0,.46-.16.57-.41h-3.77l-.05.19c-.09.37-.48.53-.88.48-.32-.04-.42-.18-.35-.48.07-.3.35-1.24.6-2.28h-1.22c-.23,0-.39-.07-.39-.35,0-.27.16-.35.39-.35h1.36c.14-.69.23-1.4.28-1.91-.41.44-.87.88-1.4,1.24-.42.28-.74-.04-.46-.42,1.03-1.17,1.75-2.37,2.1-3.59.05-.18.16-.27.37-.21.62.12,1.49.53,1.49.83,0,.25-.21.35-.78.35l-.16.27h3.7c.34-.48.76-1.03.99-1.03.32,0,1.49.97,1.5,1.36,0,.25-.3.37-.9.37h-5.78c-.09.12-.19.27-.3.41h.02c.19.07.51.21.78.39h3.32c.16-.19.34-.34.44-.34.35,0,1.15.71,1.15.97,0,.19-.21.35-.5.5-.02.23-.04.5-.05.81h.14c.28-.42.6-.83.78-.83.11,0,.27.09.44.23-.04-.09-.02-.21.07-.35.83-1.19,1.43-2.44,1.7-3.63.04-.16.14-.27.39-.23.65.11,1.43.39,1.43.67,0,.23-.14.35-.69.44-.19.37-.44.81-.73,1.26h2.87c.32-.5.73-1.03.96-1.03.34,0,1.43.97,1.45,1.36,0,.25-.32.37-.85.37h-1.31ZM784.89,103.09c-.04.28-.58.25-1.03.16-.96.55-2.44,1.2-3.84,1.52-.46.09-.65-.35-.23-.58,1.45-.73,2.39-1.33,3.29-2.21.16-.14.25-.16.41-.07.6.28,1.47.83,1.4,1.19ZM784.65,100.53c.48,0,.94-.02,1.38-.04.97-.83,1.73-1.68,2.44-2.79.05-.14.21-.14.35-.11.73.3,1.56.83,1.45,1.18-.07.25-.48.23-.87.14-.55.44-1.25,1.03-1.98,1.52,1.42-.07,2.69-.18,3.86-.28-.18-.18-.37-.34-.57-.46-.23-.18-.12-.53.23-.5,1.64.14,2.53.94,2.78,1.59.14.42-.04.81-.44.96-.3.11-.51,0-.76-.25-.18-.19-.37-.46-.6-.73-1.22.25-2.63.42-4.1.55.11.07.18.14.18.25,0,.27-.23.35-.57.41v2.35c0,.37-.26.51-.76.51-.28,0-.48-.16-.48-.46,0-.28.02-.73.02-1.29,0-.5-.05-1.17-.11-1.63-1.73.09-3.54.14-5.27.16-.14.39-.35.73-.62.69-.37-.07-.51-.71-.5-1.66.02-.16.09-.21.23-.19,1.52.07,2.94.09,4.26.09-.09-.05-.18-.11-.28-.19-.23-.21-.49-.55-.81-.83-.3-.25-.62-.57-.94-.76-.2-.16-.11-.51.25-.5.92.07,1.61.34,2.05.67.37-.5.64-1.01.9-1.57.05-.12.19-.14.34-.09.64.28,1.4.85,1.31,1.15-.05.21-.44.18-.78.11-.34.3-.83.71-1.24,1.01l.02.05c.18.39.04.78-.35.94h-.02ZM781.37,94.39c-.09.44-.19.92-.28,1.38h1.36l.23-1.38h-1.31ZM781.78,92.44c-.05.19-.14.65-.27,1.24h1.29l.21-1.24h-1.24ZM784.89,95.77c.09-.41.16-.88.21-1.38h-1.36l-.23,1.38h1.38ZM783.85,93.68h1.33c.04-.46.04-.9.04-1.24h-.76c-.07.11-.21.19-.42.25l-.18.99ZM792.92,103.43c.21.44.14.88-.26,1.08-.46.23-.9-.19-1.57-.73-.5-.41-1.01-.74-1.52-1.03-.35-.21-.32-.65.19-.65,1.24,0,2.74.5,3.17,1.33ZM791.6,91.95h-2.26c.25.99.65,1.82,1.26,2.49.51-.69.81-1.4.99-2.42l.02-.07Z"/><path class="cls-7" d="M799.8,94.5c.05,1.18-.41,2.32-1.29,2.37-.39.02-.71-.23-.73-.64-.05-.76.62-.83.92-1.91.14-.44.11-1.03.09-1.43s.48-.46.64-.11c.19.48.34,1.11.37,1.72ZM801.57,96.65c0,1.27.07,6.79.07,7.53,0,.41-.26.62-.85.62-.35,0-.55-.19-.55-.53,0-.8.18-5.91.18-7.25,0-.76.05-5.96-.25-7.75-.04-.16.07-.25.23-.25,1.18,0,2.12.11,2.12.55,0,.3-.37.5-.92.62-.04,1.26-.04,5.75-.04,6.46ZM803.89,94.73c-.14.44-.57.67-1.03.51-.44-.14-.42-.6-.5-1.11-.05-.34-.16-.71-.25-1.04-.11-.42.21-.73.65-.39.72.58,1.36,1.31,1.11,2.03ZM807.65,93.49c-.07.3-.55.46-.96.55v7.87c0,.87.09.94,2.92.94,2.55-.02,3.47-.27,4.05-.27.39,0,.55.18.55.5,0,.3-.14.62-.57.74-.62.16-2.1.27-4.05.27-3.8,0-4.16-.37-4.16-1.95,0-.81.07-6.74-.07-8.65h-1.38c-.23,0-.39-.07-.39-.35,0-.27.16-.35.39-.35h4.08c.02-1.1.02-2.69-.09-3.43-.02-.18.09-.27.25-.27.3,0,2.09.05,2.09.53,0,.37-.39.51-.94.64v2.53h2.42c.37-.55.85-1.18,1.11-1.18.35,0,1.56,1.06,1.56,1.49,0,.27-.34.41-.92.41h-5.91Z"/><path class="cls-7" d="M773.4,119.9c.3.16.55.37.55.55,0,.21-.25.32-.76.35-.28.88-.65,1.63-1.26,2.32.83.6,1.89.99,3.22,1.19.58.09.37.35.05.5-.42.18-.55.32-.71.53-.18.27-.27.41-.85.21-1.08-.3-1.95-.85-2.64-1.57-.87.67-2.02,1.2-3.48,1.5-.53.11-.65-.37-.19-.58,1.43-.5,2.33-1.01,3.06-1.7-.5-.78-.85-1.7-1.08-2.72-.19.21-.41.41-.64.6-.14.11-.28.14-.39.12.3.28.58.64.58.83,0,.23-.25.32-.67.32h-1.52c-.05.46-.11.96-.18,1.38h.18c.27-.41.57-.8.74-.8.28,0,1.15.87,1.17,1.19,0,.25-.27.32-.65.32h-1.59l-.04.11c-.35,1.11-1.2,1.26-1.68,1.26-.23,0-.32-.11-.44-.25-.12-.14-.21-.19-.39-.25-.42-.12-.34-.51.04-.5.28.02.5.04.85.04.3,0,.46-.16.57-.41h-3.77l-.05.19c-.09.37-.48.53-.88.48-.32-.04-.42-.18-.35-.48.07-.3.35-1.24.6-2.28h-1.22c-.23,0-.39-.07-.39-.35,0-.27.16-.35.39-.35h1.36c.14-.69.23-1.4.28-1.91-.41.44-.87.88-1.4,1.24-.42.28-.74-.04-.46-.42,1.03-1.17,1.75-2.37,2.11-3.59.05-.18.16-.27.37-.21.62.12,1.49.53,1.49.83,0,.25-.21.35-.78.35l-.16.27h3.7c.34-.48.76-1.03.99-1.03.32,0,1.49.97,1.5,1.36,0,.25-.3.37-.9.37h-5.78c-.09.12-.19.27-.3.41h.02c.2.07.51.21.78.39h3.32c.16-.19.34-.34.44-.34.35,0,1.15.71,1.15.97,0,.19-.21.35-.5.5-.02.23-.04.5-.05.81h.14c.28-.42.6-.83.78-.83.11,0,.27.09.44.23-.04-.09-.02-.21.07-.35.83-1.19,1.43-2.44,1.7-3.63.04-.16.14-.27.39-.23.65.11,1.43.39,1.43.67,0,.23-.14.35-.69.44-.19.37-.44.81-.72,1.26h2.87c.32-.5.72-1.03.96-1.03.34,0,1.43.97,1.45,1.36,0,.25-.32.37-.85.37h-1.31ZM765.44,131.04c-.04.28-.58.25-1.03.16-.96.55-2.44,1.2-3.84,1.52-.46.09-.65-.35-.23-.58,1.45-.73,2.39-1.33,3.29-2.21.16-.14.25-.16.41-.07.6.28,1.47.83,1.4,1.19ZM765.19,128.47c.48,0,.94-.02,1.38-.04.97-.83,1.73-1.68,2.44-2.79.05-.14.21-.14.35-.11.73.3,1.56.83,1.45,1.18-.07.25-.48.23-.87.14-.55.44-1.26,1.03-1.98,1.52,1.41-.07,2.69-.18,3.86-.28-.18-.18-.37-.34-.57-.46-.23-.18-.12-.53.23-.5,1.64.14,2.53.94,2.78,1.59.14.42-.04.81-.44.96-.3.11-.51,0-.76-.25-.18-.19-.37-.46-.6-.73-1.22.25-2.63.42-4.1.55.11.07.18.14.18.25,0,.27-.23.35-.57.41v2.35c0,.37-.27.51-.76.51-.28,0-.48-.16-.48-.46,0-.28.02-.73.02-1.29,0-.5-.05-1.17-.11-1.63-1.73.09-3.54.14-5.27.16-.14.39-.35.73-.62.69-.37-.07-.51-.71-.5-1.66.02-.16.09-.21.23-.19,1.52.07,2.94.09,4.26.09-.09-.05-.18-.11-.28-.19-.23-.21-.5-.55-.81-.83-.3-.25-.62-.57-.94-.76-.2-.16-.11-.51.25-.5.92.07,1.61.34,2.05.67.37-.5.64-1.01.9-1.57.05-.12.19-.14.34-.09.64.28,1.4.85,1.31,1.15-.05.21-.44.18-.78.11-.34.3-.83.71-1.24,1.01l.02.05c.18.39.04.78-.35.94h-.02ZM761.92,122.34c-.09.44-.19.92-.28,1.38h1.36l.23-1.38h-1.31ZM762.33,120.39c-.05.19-.14.65-.26,1.24h1.29l.21-1.24h-1.24ZM765.44,123.71c.09-.41.16-.88.21-1.38h-1.36l-.23,1.38h1.38ZM764.4,121.63h1.33c.04-.46.04-.9.04-1.24h-.76c-.07.11-.21.19-.42.25l-.18.99ZM773.47,131.37c.21.44.14.88-.27,1.08-.46.23-.9-.19-1.57-.73-.49-.41-1.01-.74-1.52-1.03-.35-.21-.32-.65.19-.65,1.24,0,2.74.5,3.17,1.33ZM772.14,119.9h-2.26c.25.99.65,1.82,1.26,2.49.51-.69.81-1.4.99-2.42l.02-.07Z"/><path class="cls-7" d="M780.35,122.44c.05,1.18-.41,2.32-1.29,2.37-.39.02-.71-.23-.72-.64-.05-.76.62-.83.92-1.91.14-.44.11-1.03.09-1.43s.48-.46.64-.11c.2.48.34,1.11.37,1.72ZM782.12,124.6c0,1.27.07,6.79.07,7.53,0,.41-.27.62-.85.62-.35,0-.55-.19-.55-.53,0-.8.18-5.91.18-7.25,0-.76.05-5.96-.25-7.75-.04-.16.07-.25.23-.25,1.19,0,2.12.11,2.12.55,0,.3-.37.5-.92.62-.04,1.26-.04,5.75-.04,6.46ZM784.43,122.67c-.14.44-.57.67-1.03.51-.44-.14-.42-.6-.5-1.11-.05-.34-.16-.71-.25-1.04-.11-.42.21-.73.65-.39.73.58,1.36,1.31,1.11,2.03ZM788.2,121.43c-.07.3-.55.46-.95.55v7.87c0,.87.09.94,2.92.94,2.55-.02,3.47-.27,4.05-.27.39,0,.55.18.55.5,0,.3-.14.62-.57.74-.62.16-2.1.27-4.05.27-3.8,0-4.16-.37-4.16-1.95,0-.81.07-6.74-.07-8.65h-1.38c-.23,0-.39-.07-.39-.35,0-.27.16-.35.39-.35h4.09c.02-1.1.02-2.69-.09-3.43-.02-.18.09-.27.25-.27.3,0,2.09.05,2.09.53,0,.37-.39.51-.94.64v2.53h2.42c.37-.55.85-1.18,1.11-1.18.35,0,1.56,1.06,1.56,1.49,0,.27-.34.41-.92.41h-5.91Z"/><path class="cls-7" d="M809.62,118.89c.3-.39.65-.81.88-.81.41,0,1.56.87,1.56,1.27,0,.27-.34.46-.73.6-.12,2.6.07,10.4.07,11.71,0,.55-.39.69-.9.69-.43,0-.57-.32-.57-.6v-.76h-7.27v.97c0,.41-.27.64-.85.64-.37,0-.53-.21-.53-.53,0-2.12.21-11.14-.07-13.71-.02-.12.09-.25.25-.25.26,0,1.4.39,1.82.78h6.33ZM809.99,124.6c0-2.16.02-4.17,0-5h-7.09l-.18.04c-.07.94-.09,3.71-.09,4.97h7.36ZM809.95,130.28c0-1.26.02-3.11.04-4.97h-7.36l.04,4.97h7.29Z"/><path class="cls-7" d="M761.67,68.59c.25-.34.57-.71.76-.71.35,0,1.36.78,1.36,1.17,0,.25-.32.46-.65.58-.02.94-.04,3.02,0,4.07.5.81,1.15,1.31,2.97,1.49,2.18.23,6.44.12,9.16-.11.51-.05.5.46.05.57-.34.07-.39.21-.53.46-.14.28-.23.35-.62.39-2.03.12-6.15.19-8.7-.23-1.57-.3-2.35-1.08-2.86-2.19-.74.8-1.57,1.64-2.25,2.37-.23.55-.5.58-.73.27-.19-.27-.46-.78-.55-1.13-.09-.23-.07-.32.23-.46.8-.37,1.82-.95,2.62-1.5.02-.99.04-3.34.04-4.32h-2.28c-.23,0-.39-.07-.39-.35,0-.27.16-.35.39-.35h1.98ZM760.58,62.41c-.27-.37-.05-.76.46-.6,1.13.39,2.19,1.15,2.21,2.1,0,.53-.3.9-.83.9-.5,0-.69-.5-1.03-1.13-.25-.46-.55-.9-.81-1.27ZM765.12,62.5c-.23,0-.39-.07-.39-.35,0-.27.16-.35.39-.35h7.14c.3-.28.67-.58.87-.57.34.02,1.36.97,1.33,1.5-.02.37-.6.3-1.01.32-.65.39-1.68,1.03-2.62,1.61l.05.09c.14.27.14.51.02.71h2.03c.23-.28.5-.57.6-.57.42,0,1.47.94,1.47,1.27,0,.23-.34.41-.71.55-.04,1.59,0,4.14-.04,6.26,0,1.06-.74,1.5-1.43,1.5s-.27-.65-1.2-.97c-.35-.16-.3-.58.04-.58.12,0,.65.07.92.07.39,0,.53-.16.57-.58.02-.35.02-.85.04-1.38h-2.94l.02,2.85c0,.39-.27.51-.74.51-.28,0-.46-.16-.46-.48,0-.23.04-1.75.05-2.88h-2.76l.02,2.86c0,.39-.25.58-.76.58-.3,0-.46-.18-.46-.5,0-1.54.16-6.88-.07-8.84-.02-.14.11-.25.26-.23.27.02.94.28,1.33.55h3.11c-.25-.23-.55-.51-.9-.8-.35-.27-.74-.55-1.11-.78-.26-.14-.16-.55.21-.51,1.06.12,1.82.44,2.32.78.62-.51,1.24-1.03,1.84-1.65h-7.02ZM766.41,66.16c-.02.34-.04.97-.05,1.64h2.76c0-.6-.02-1.2-.07-1.64h-2.63ZM769.14,70.32v-1.8h-2.78v1.8h2.78ZM773.19,70.32v-1.8h-2.92l-.02,1.54v.27h2.94ZM770.82,66.16c-.02.18-.19.3-.53.35,0,.25-.02.74-.02,1.29h2.92v-1.64h-2.37Z"/><path class="cls-7" d="M792.27,64.52c.3-.37.76-.81.97-.81.32,0,1.49,1.03,1.49,1.54-.02.35-.48.39-.96.5-.5.42-1.03.87-1.43,1.15-.37.27-.71,0-.5-.39.2-.39.41-.85.57-1.27h-11.18v.02c0,1.1-.57,2.19-1.56,2.19-.44,0-.72-.32-.72-.74,0-.8.78-.74,1.17-1.77.16-.42.09-.97.09-1.38-.02-.39.44-.5.64-.11.14.3.27.67.34,1.08h4.99c.02-1.15,0-2.62-.09-3.32-.02-.18.09-.27.25-.27.3,0,1.98.05,1.98.51,0,.37-.37.51-.92.64v2.44h4.88ZM790.99,71.56c.28-.37.64-.78.76-.78.44,0,1.63,1.01,1.63,1.34,0,.27-.41.48-.83.62,0,.64.02,1.5,0,2.37,0,.99-.8,1.43-1.5,1.43s-.28-.58-1.17-.9c-.37-.16-.32-.57.02-.57.14,0,.67.05.88.05.39,0,.53-.14.57-.5.04-.48.04-1.08.04-1.59v-.78h-3.98v.58c0,1.7.05,2.9.05,3.4,0,.37-.26.64-.85.64-.35,0-.48-.19-.48-.53,0-.57.05-1.75.05-3.5v-.58h-3.68c-.02.37-.02,1.5-.02,1.79,0,.3.02,1.77.02,2.09,0,.37-.28.53-.83.53-.32,0-.48-.16-.48-.46,0-1.08.09-3.54-.07-5.02-.02-.14.11-.25.25-.23.3.04,1.04.32,1.47.6h3.34v-1.54h-2.09v.11c0,.37-.27.53-.76.53-.28,0-.44-.16-.44-.48,0-.95.07-2.67-.07-4.03-.02-.14.12-.25.26-.21.34.04,1.08.34,1.43.64h4.74c.23-.34.55-.69.72-.69.34,0,1.29.73,1.29,1.1,0,.19-.25.35-.53.46-.02.69,0,1.96,0,2.37,0,.55-.25.67-.71.67-.34,0-.48-.23-.5-.46h-1.82s.05.07.05.12c0,.14-.12.25-.37.32v1.1h3.59ZM782.38,61.85c-.19-.41.07-.76.57-.51.83.39,1.65.96,1.5,1.73-.07.5-.46.8-.99.71-.46-.07-.53-.53-.69-.99-.11-.3-.25-.64-.39-.94ZM784.1,69.31h5.43l.04-2.03h-5.45c-.02.34-.02,1.01-.02,1.29v.74ZM789.35,63.62c.39-.71.69-1.41.87-2.23.04-.16.16-.28.34-.23.62.18,1.63.76,1.63,1.06,0,.27-.28.37-.81.34-.37.48-.85,1.01-1.47,1.43-.41.3-.74.05-.55-.37Z"/><rect class="cls-8" x="656.13" y="83.44" width="88.43" height="25.06"/><rect class="cls-10" x="656.13" y="111.88" width="88.43" height="25.06"/><rect class="cls-11" x="656.13" y="55" width="88.43" height="25.06"/></g><g id="_レイヤー_5"><rect class="cls-8" x="187.32" y="249" width="642.23" height="37"/><rect class="cls-10" x="187.32" y="335.58" width="642.23" height="37"/><rect class="cls-10" x="187.32" y="506.77" width="642.23" height="37"/><rect class="cls-8" x="187.32" y="335.58" width="556.09" height="37"/><rect class="cls-11" x="187.32" y="249" width="436.18" height="37"/><rect class="cls-11" x="71.25" y="335.58" width="552.25" height="37"/><rect class="cls-10" x="60.07" y="592.37" width="448.37" height="37"/><rect class="cls-8" x="60.07" y="506.77" width="683.34" height="37"/><rect class="cls-8" x="71.25" y="421.18" width="206.05" height="37"/><rect class="cls-11" x="277.3" y="421.18" width="552.25" height="37"/><rect class="cls-8" x="623.5" y="421.18" width="206.05" height="37"/><rect class="cls-8" x="60.07" y="335.58" width="85.6" height="37"/><rect class="cls-10" x="60.07" y="421.18" width="85.6" height="37"/><rect class="cls-9" x="420.3" y="293.62" width="219.21" height="42" rx="12.31" ry="12.31"/><polyline class="cls-9" points="500.48 334.66 464.43 348.66 473.37 332.67"/><path class="cls-7" d="M441.76,311.79c.29-.36.67-.76.86-.76.38,0,1.48.92,1.48,1.3,0,.22-.31.43-.68.59-.86,3.62-2.59,6.18-5.85,8.1-.47.29-.88-.23-.43-.59,2.75-2.2,4.29-4.79,4.84-7.92h-4.27c-.23,0-.4-.07-.4-.36,0-.27.16-.36.4-.36h4.05ZM453.64,319.8c-.5.18-.68.36-.83.58-.2.31-.4.47-.86.23-3.11-1.62-4.97-4.54-5.92-8.62,0,2.9.04,6.28.02,9.08,0,.99-.58,1.62-1.39,1.62-.61,0-.38-.63-1.64-1.04-.4-.16-.34-.59.04-.58.36.02.79.05,1.08.05.38,0,.59-.14.63-.7.07-1.3.04-4.21.04-6.14,0-1.35,0-5.6-.22-7.44-.02-.23.05-.31.34-.31,1.17,0,2.11.2,2.11.58,0,.29-.34.45-.95.61-.02.41-.02.86-.04,1.35.38,1.87.88,3.51,1.6,4.9,1.53-1.22,2.97-2.75,3.84-4.25.07-.14.14-.25.34-.16.58.22,1.69.95,1.64,1.31-.04.29-.4.34-.9.2-1.01,1.06-2.7,2.54-4.59,3.51,1.3,2.21,3.11,3.75,5.64,4.63.58.2.43.45.04.59Z"/><path class="cls-7" d="M466.25,315.18c.25-.34.56-.7.74-.7.36,0,1.37.77,1.37,1.17,0,.23-.29.38-.59.5-.04,1.35.02,4.84.02,5.55,0,.56-.27.68-.76.68-.41,0-.52-.32-.52-.61v-.63h-3.89v.85c0,.4-.25.58-.77.58-.32,0-.49-.18-.49-.5.02-1.35.13-5.49-.05-7.27-.02-.13.11-.25.25-.23.31.04,1.08.32,1.48.63h3.22ZM462.65,315.9c-.02.36-.04,1.17-.04,1.84h3.92v-1.84h-3.89ZM466.53,320.42l.02-1.96h-3.92v1.96h3.91ZM465.66,313.66c0,.4-.27.56-.79.56-.32,0-.5-.16-.5-.49.02-1.28.13-4.97-.05-6.68-.02-.14.11-.25.25-.23.31.04,1.19.36,1.58.68h5.44c.27-.32.58-.67.76-.67.38,0,1.48.79,1.48,1.19,0,.23-.31.4-.63.52-.05,1.37.02,4.16.02,4.84,0,.56-.31.68-.81.68-.43,0-.58-.32-.58-.61v-.31h-6.16v.5ZM465.7,308.23c-.02.34-.04,1.12-.04,1.73h6.19v-1.73h-6.16ZM471.82,312.44l.02-1.76h-6.18v1.76h6.16ZM474.56,315.18c.25-.34.56-.7.76-.7.34,0,1.39.77,1.39,1.17,0,.23-.29.4-.61.52-.04,1.37.02,4.83.02,5.53,0,.56-.29.68-.76.68-.41,0-.54-.32-.54-.61v-.63h-3.96v.85c0,.4-.27.56-.79.56-.32,0-.49-.16-.49-.49.02-1.35.13-5.49-.05-7.27-.02-.13.11-.25.25-.23.29.04,1.06.32,1.5.63h3.29ZM470.86,315.91c-.02.34-.04,1.15-.04,1.82h4.02v-1.84h-3.89l-.09.02ZM474.83,320.42l.02-1.96h-4.02v.23l.02,1.73h3.98Z"/><path class="cls-7" d="M487.31,311.95c.5.09,1.94.59,1.94,1.12,0,.29-.27.47-.97.41-.56,1.17-1.66,3.28-3.71,4.88-.45.36-.95-.04-.59-.5,1.51-1.98,2.54-3.94,2.83-5.6.05-.31.16-.38.5-.31ZM493.89,307.58c0,.29-.29.47-.92.63-.11,3.02-.05,8.66-.05,12.87-.02,1.13-.85,1.6-1.55,1.6-.65,0-.38-.68-2.11-1.12-.41-.11-.34-.65.05-.61.59.05,1.15.14,1.51.14.5,0,.74-.18.77-.74.07-1.26.04-4.86.04-6.72,0-1.31,0-4.23-.22-6.36-.02-.22.11-.27.36-.27.88,0,2.11.13,2.11.56ZM496.37,312.19c2.41.94,3.87,2.74,3.87,3.96,0,.56-.25,1.01-.83,1.01-.41,0-.65-.16-.9-.68-.79-1.64-1.26-2.34-2.61-3.69-.32-.32-.04-.79.47-.59Z"/><path class="cls-7" d="M510.86,311.16c0,.7-.02,1.4-.05,2.16-.09,2.77-.4,6.34-3.22,8.68-.41.38-.88.04-.52-.45,1.71-2.27,2.39-4.5,2.43-8.75.02-1.64-.02-3.66-.16-5.49-.02-.29.09-.38.32-.34.27.05.92.32,1.37.61h9.18c.27-.36.63-.77.83-.77.38,0,1.46.79,1.46,1.19,0,.23-.31.4-.63.54-.02.86,0,2.05.02,2.52,0,.56-.29.68-.81.68.47.27,1.24.97,1.24,1.3.02.25-.27.38-.92.38h-4.72c.2.11.32.23.32.36,0,.29-.47.41-.86.45-.25.41-.5.81-.76,1.19,1.57-.05,2.93-.18,4.12-.34-.2-.22-.4-.43-.59-.61-.22-.2-.07-.54.29-.47,1.64.27,2.54,1.13,2.72,1.94.11.45-.11.83-.59.94-.32.07-.56-.05-.76-.34-.16-.2-.32-.49-.5-.77-1.93.43-4.45.72-7.38.83-.13.4-.32.74-.61.68-.36-.05-.54-.68-.54-1.67,0-.16.09-.2.23-.2.88.04,1.71.05,2.48.04.31-.65.56-1.35.72-2.02h-3.31c-.23,0-.4-.07-.4-.36,0-.27.16-.36.4-.36h8.1c.32-.47.72-.99.97-1.06-.14-.11-.22-.29-.22-.47h-9.65ZM520.73,321.33c.4-.58.9-1.28,1.19-1.3.38.02,1.71,1.13,1.71,1.58,0,.27-.34.43-1.01.43h-12.48c-.23,0-.4-.07-.4-.36,0-.27.16-.36.4-.36h5.65c.02-.61.02-1.35,0-2.05h-3.96c-.23,0-.4-.07-.4-.36,0-.27.16-.36.4-.36h3.96c-.02-.7-.05-1.31-.09-1.71-.02-.16.09-.25.25-.25.31,0,1.91.07,1.91.5,0,.34-.32.47-.81.58v.88h1.89c.38-.56.88-1.21,1.15-1.21.36,0,1.66,1.08,1.66,1.51,0,.25-.32.41-.99.41h-3.71v2.05h3.67ZM510.86,308.35c.02.72.02,1.4.02,2.09h9.65c0-.65.02-1.57.02-2.14h-9.51l-.18.05Z"/><path class="cls-7" d="M534.11,311.95c.5.09,1.95.59,1.95,1.12,0,.29-.27.47-.97.41-.56,1.17-1.66,3.28-3.71,4.88-.45.36-.95-.04-.59-.5,1.51-1.98,2.54-3.94,2.83-5.6.05-.31.16-.38.5-.31ZM540.69,307.58c0,.29-.29.47-.92.63-.11,3.02-.05,8.66-.05,12.87-.02,1.13-.85,1.6-1.55,1.6-.65,0-.38-.68-2.11-1.12-.41-.11-.34-.65.05-.61.59.05,1.15.14,1.51.14.5,0,.74-.18.77-.74.07-1.26.04-4.86.04-6.72,0-1.31,0-4.23-.22-6.36-.02-.22.11-.27.36-.27.88,0,2.11.13,2.11.56ZM543.17,312.19c2.41.94,3.87,2.74,3.87,3.96,0,.56-.25,1.01-.83,1.01-.41,0-.65-.16-.9-.68-.79-1.64-1.26-2.34-2.61-3.69-.32-.32-.04-.79.47-.59Z"/><path class="cls-7" d="M557.66,311.16c0,.7-.02,1.4-.05,2.16-.09,2.77-.4,6.34-3.22,8.68-.41.38-.88.04-.52-.45,1.71-2.27,2.39-4.5,2.43-8.75.02-1.64-.02-3.66-.16-5.49-.02-.29.09-.38.32-.34.27.05.92.32,1.37.61h9.18c.27-.36.63-.77.83-.77.38,0,1.46.79,1.46,1.19,0,.23-.31.4-.63.54-.02.86,0,2.05.02,2.52,0,.56-.29.68-.81.68.47.27,1.24.97,1.24,1.3.02.25-.27.38-.92.38h-4.72c.2.11.32.23.32.36,0,.29-.47.41-.86.45-.25.41-.5.81-.76,1.19,1.57-.05,2.93-.18,4.12-.34-.2-.22-.4-.43-.59-.61-.22-.2-.07-.54.29-.47,1.64.27,2.54,1.13,2.72,1.94.11.45-.11.83-.59.94-.32.07-.56-.05-.76-.34-.16-.2-.32-.49-.5-.77-1.93.43-4.45.72-7.38.83-.13.4-.32.74-.61.68-.36-.05-.54-.68-.54-1.67,0-.16.09-.2.23-.2.88.04,1.71.05,2.48.04.31-.65.56-1.35.72-2.02h-3.31c-.23,0-.4-.07-.4-.36,0-.27.16-.36.4-.36h8.1c.32-.47.72-.99.97-1.06-.14-.11-.22-.29-.22-.47h-9.65ZM567.53,321.33c.4-.58.9-1.28,1.19-1.3.38.02,1.71,1.13,1.71,1.58,0,.27-.34.43-1.01.43h-12.48c-.23,0-.4-.07-.4-.36,0-.27.16-.36.4-.36h5.65c.02-.61.02-1.35,0-2.05h-3.96c-.23,0-.4-.07-.4-.36,0-.27.16-.36.4-.36h3.96c-.02-.7-.05-1.31-.09-1.71-.02-.16.09-.25.25-.25.31,0,1.91.07,1.91.5,0,.34-.32.47-.81.58v.88h1.89c.38-.56.88-1.21,1.15-1.21.36,0,1.66,1.08,1.66,1.51,0,.25-.32.41-.99.41h-3.71v2.05h3.67ZM557.66,308.35c.02.72.02,1.4.02,2.09h9.65c0-.65.02-1.57.02-2.14h-9.51l-.18.05Z"/><path class="cls-7" d="M585.16,310.26c1.39-.36,3.4-.94,4.36-.92.94.02,1.3.47,1.3.83,0,.45-.58.49-1.33.5-1.5.04-2.56.2-4.56.67-.14.79-.31,1.64-.36,2.27.68-.2,1.39-.31,2.12-.31.16,0,.32,0,.5.02-.04-.4-.13-.76-.27-1.1-.13-.31.14-.47.43-.27.27.2.56.45.77.85.11.2.18.41.2.72,1.93.5,3.35,1.96,3.35,4.12,0,2.83-2.79,4.16-6.21,4.27-.38.02-.5-.5-.05-.58,2.45-.43,4.92-1.53,4.95-3.94.02-1.48-.83-2.54-2.12-3.02-.04.18-.07.38-.14.59-.31,1.03-1.06,2.72-2.43,4.03-1.31,1.26-2.95,2.02-4.09,2.02-.96,0-1.55-.52-1.55-2.07,0-1.4.85-2.88,1.89-3.83.49-.45,1.06-.81,1.67-1.12.04-.79.13-1.62.23-2.38-1.42.36-2.47.72-3.31.72-.9,0-1.62-1.03-1.69-1.73-.02-.25.18-.34.4-.22.43.25,1.08.72,1.71.72.81,0,1.89-.25,3.04-.54.11-.76.22-1.33.22-1.66,0-.31-.09-.4-.38-.56-.34-.2-.86-.34-.86-.61,0-.29.59-.43,1.06-.43.68,0,1.69.43,1.67.97,0,.31-.2.72-.41,1.58l-.11.4ZM582.03,319.64c.65,0,1.44-.31,2.32-.95-.07-.07-.14-.16-.22-.27-.5-.92-.54-2.16-.56-3.49-.47.29-.86.63-1.22.99-.74.74-1.15,1.75-1.15,2.59,0,.94.31,1.13.83,1.13ZM587.18,314.11c-.2-.02-.43-.04-.65-.04-.74,0-1.39.13-1.98.36.04,1.37.22,2.47.58,3.22.05.11.09.2.13.29.85-.85,1.53-2.18,1.76-2.97.09-.29.14-.58.16-.86Z"/><path class="cls-7" d="M615.86,312.4c-.68.36-1.49.56-2.47.72.13,1.4.13,2.77-.11,4.03-.29,1.6-.9,3.73-4.16,4.61-.38.11-.56-.31-.2-.52,2.32-1.37,2.99-2.63,3.24-4.72.16-1.26.13-2.34.07-3.26-.99.09-2.09.11-2.99.11-.54,0-.85.25-1.13.61-.59.76-2.39,3.65-2.39,4.57,0,1.1.45,1.53.2,1.94-.16.27-.74.22-1.15-.18-.97-.94-1.44-2.41-1.44-3.82,0-2.34.83-3.91,1.15-6.01.2-1.21-.11-1.44-.72-2.48-.14-.25.04-.49.38-.36,1.42.5,2.34,1.75,1.75,3.22-.36.9-1.49,3.33-1.49,5.04,0,.43.04.9.11,1.19.07.27.27.4.54.02.65-.83,1.66-2.57,2.41-3.53.5-.65.77-1.12,1.55-1.15.9-.04,2.21-.14,3.17-.29-.07-.9-.25-2.2-.79-2.81-.43-.5-.85-.7-.85-1.06,0-.23.2-.41.59-.41,1.24,0,1.6.34,1.78,1.49.09.54.16,1.08.23,1.62.22.34.45.45.77.52.45.09,1.19-.2,1.67-.2.76,0,.94.76.27,1.1Z"/></g><g id="_レイヤー_4"><text class="cls-4" transform="translate(416.22 133.62)"><tspan x="0" y="0">7</tspan></text><text class="cls-3" transform="translate(193.54 188.74)"><tspan x="0" y="0">MON</tspan></text><text class="cls-3" transform="translate(315.26 188.74)"><tspan x="0" y="0">TUE</tspan></text><text class="cls-3" transform="translate(431.47 188.74)"><tspan x="0" y="0">WED</tspan></text><text class="cls-3" transform="translate(552.44 188.74)"><tspan x="0" y="0">THU</tspan></text><text class="cls-3" transform="translate(673.52 188.74)"><tspan x="0" y="0">FRI</tspan></text><text class="cls-3" transform="translate(790.49 188.74)"><tspan x="0" y="0">SAT</tspan></text><text class="cls-2" transform="translate(193.88 451.55)"><tspan x="0" y="0">15</tspan></text><text class="cls-2" transform="translate(74.67 451.55)"><tspan x="0" y="0">14</tspan></text><text class="cls-1" transform="translate(313.18 451.55)"><tspan x="0" y="0">16</tspan></text><text class="cls-1" transform="translate(432.19 451.55)"><tspan x="0" y="0">17</tspan></text><text class="cls-1" transform="translate(550.27 451.55)"><tspan x="0" y="0">18</tspan></text><text class="cls-1" transform="translate(669.81 451.55)"><tspan x="0" y="0">19</tspan></text><text class="cls-1" transform="translate(785.68 451.55)"><tspan x="0" y="0">20</tspan></text><text class="cls-2" transform="translate(75.38 535.42)"><tspan x="0" y="0">21</tspan></text><text class="cls-1" transform="translate(310.48 535.42)"><tspan x="0" y="0">23</tspan></text><text class="cls-1" transform="translate(192.65 535.42)"><tspan x="0" y="0">22</tspan></text><text class="cls-1" transform="translate(428.82 535.42)"><tspan x="0" y="0">24</tspan></text><text class="cls-1" transform="translate(548.02 535.42)"><tspan x="0" y="0">25</tspan></text><text class="cls-1" transform="translate(667.32 535.42)"><tspan x="0" y="0">26</tspan></text><text class="cls-1" transform="translate(786.33 535.42)"><tspan x="0" y="0">27</tspan></text><text class="cls-1" transform="translate(191.82 621.1)"><tspan x="0" y="0">29</tspan></text><text class="cls-2" transform="translate(72.27 621.1)"><tspan x="0" y="0">28</tspan></text><text class="cls-1" transform="translate(310.01 621.1)"><tspan x="0" y="0">30</tspan></text><text class="cls-1" transform="translate(431.84 621.1)"><tspan x="0" y="0">31</tspan></text><text class="cls-1" transform="translate(199.47 365)"><tspan x="0" y="0">8</tspan></text><text class="cls-2" transform="translate(81.39 365)"><tspan x="0" y="0">7</tspan></text><text class="cls-1" transform="translate(319.02 365)"><tspan x="0" y="0">9</tspan></text><text class="cls-1" transform="translate(431.53 365)"><tspan x="0" y="0">10</tspan></text><text class="cls-1" transform="translate(553.37 365)"><tspan x="0" y="0">11</tspan></text><text class="cls-1" transform="translate(669.76 365)"><tspan x="0" y="0">12</tspan></text><text class="cls-1" transform="translate(788.47 365)"><tspan x="0" y="0">13</tspan></text><text class="cls-6" transform="translate(72.12 128.53)"><tspan x="0" y="0">2024</tspan></text><text class="cls-1" transform="translate(794.52 278.38)"><tspan x="0" y="0">6</tspan></text><text class="cls-1" transform="translate(318.97 278.38)"><tspan x="0" y="0">2</tspan></text><text class="cls-1" transform="translate(202.58 278.38)"><tspan x="0" y="0">1</tspan></text><text class="cls-1" transform="translate(437.68 278.38)"><tspan x="0" y="0">3</tspan></text><text class="cls-1" transform="translate(556.02 278.38)"><tspan x="0" y="0">4</tspan></text><text class="cls-1" transform="translate(675.23 278.38)"><tspan x="0" y="0">5</tspan></text><text class="cls-5" transform="translate(75.74 188.74)"><tspan x="0" y="0">SUN</tspan></text></g><g id="_レイヤー_8"><rect class="cls-9" x="623.5" y="207.04" width="219.21" height="42" rx="12.31" ry="12.31"/><polyline class="cls-9" points="748.72 248.04 784.78 262.03 775.83 246.04"/><path class="cls-7" d="M653.69,233.82c.42-.59.94-1.3,1.22-1.3.38,0,1.75,1.12,1.75,1.58,0,.25-.31.43-1.04.43h-14.85c-.23,0-.4-.07-.4-.36,0-.27.16-.36.4-.36h12.93ZM652.54,222.15c.4-.59.92-1.3,1.21-1.3.38,0,1.75,1.12,1.75,1.58,0,.25-.32.43-1.04.43h-12.35c-.23,0-.4-.07-.4-.36,0-.27.16-.36.4-.36h10.44ZM651.39,227.8c.4-.59.92-1.3,1.21-1.3.38,0,1.75,1.12,1.75,1.58,0,.25-.34.43-1.04.43h-10.07c-.23,0-.4-.07-.4-.36,0-.27.16-.36.4-.36h8.16Z"/><path class="cls-7" d="M667.64,225.36c0,.25-.31.36-.68.43-.05.88-.07,3.8-.07,4.39,0,.52.04,4.75.04,5.33,0,.4-.27.59-.81.59-.32,0-.49-.18-.49-.5,0-1.21.11-6.18.04-9-.52.76-1.12,1.49-1.8,2.16-.38.4-.81.09-.49-.38,1.87-2.63,3.24-5.6,3.69-8.26.04-.2.11-.31.32-.27.65.13,1.89.68,1.89,1.08,0,.29-.36.4-.88.32-.38.99-.88,2.21-1.57,3.47.4.18.81.43.81.63ZM674.82,231.42c.67,1.75,2.54,2.81,5.24,3.13.61.09.34.36.04.5-.45.22-.54.34-.7.54-.16.25-.22.41-.86.22-2.3-.58-3.87-2.25-4.39-4.32-.68,2.54-2.57,3.98-5.98,4.61-.65.11-.74-.47-.14-.65,2.79-.77,4.34-2.02,4.9-4.03h-4.46c-.23,0-.4-.07-.4-.36,0-.27.16-.36.4-.36h4.63c.11-.68.13-1.46.05-2.3v-.02h-3.96c-.23,0-.4-.07-.4-.36,0-.27.16-.36.4-.36h7.83c.34-.5.76-1.04.99-1.04.32,0,1.42.99,1.44,1.39,0,.25-.31.38-.85.38h-3.58c.07.05.11.11.11.18,0,.23-.18.34-.67.43,0,.61-.05,1.19-.13,1.71h3.24c.36-.52.81-1.12,1.06-1.12.34,0,1.57,1.03,1.57,1.44,0,.25-.29.4-.94.4h-4.43ZM671.33,226.22c0,.4-.29.56-.83.56-.32,0-.49-.16-.49-.49,0-.88.11-4.36-.07-5.78-.04-.2.13-.29.31-.23.4.11,1.13.49,1.51.81h4.56c.29-.36.65-.79.86-.79.36,0,1.42.77,1.42,1.17,0,.23-.31.4-.63.52-.02,1.12.02,3.28.02,3.85s-.29.68-.77.68c-.43,0-.56-.32-.56-.61v-.18h-5.33v.49ZM676.68,225.01c0-.97.02-2.41.02-3.2h-5.19l-.18.04c-.02.41-.02,1.66-.02,2v1.17h5.37Z"/><path class="cls-7" d="M700.83,233.22c.04-1.19.07-2.5.07-3.06,0-.59.04-4.38-.18-5.73-.02-.18.07-.27.23-.27,1.06,0,2.23.09,2.23.58,0,.32-.4.52-.97.63-.04.9-.02,4.07-.02,4.61,0,.94.05,4.77.05,5.35,0,.41-.32.59-.92.59-.36,0-.56-.18-.56-.54,0-.22.02-.76.04-1.44h-11.16l.02,1.42c0,.41-.32.61-.92.61-.36,0-.56-.2-.56-.52,0-.65.13-4.25.13-5.26,0-.61.04-4.38-.18-5.76-.02-.18.07-.27.23-.27,1.06,0,2.23.09,2.23.58,0,.32-.4.52-.97.63-.04.9-.02,4.09-.02,4.63s.02,1.96.04,3.22h4.88c.05-2.68.13-11.06-.09-12.71-.02-.18.09-.27.27-.27.32,0,2.23.05,2.23.56,0,.41-.41.58-1.01.7v11.72h4.9Z"/><path class="cls-7" d="M715.61,230.47c0,.81.05,4.56.05,5.11,0,.4-.29.56-.81.56-.31,0-.5-.18-.5-.5,0-.43.07-2.79.11-4.2-.68.59-1.85,1.46-2.65,2.02.02.65-.11,1.06-.43,1.06-.38,0-.76-.65-1.04-1.58-.07-.23,0-.43.27-.54,1.08-.43,2.57-1.13,3.67-1.89.07-.05.14-.09.2-.11,0-.92.02-4.03-.16-5.22-.04-.16.07-.25.23-.25.88,0,2,.09,2,.52,0,.29-.34.47-.9.56-.04.85-.04,3.89-.04,4.47ZM710.98,222.58c-.23,0-.4-.07-.4-.36,0-.27.16-.36.4-.36h4.66c-.02-.58-.07-1.22-.13-1.71-.02-.18.09-.25.25-.25.72,0,2.02.05,2.02.52,0,.31-.27.54-.9.61v.83h3.37c-.02-.58-.07-1.24-.11-1.71-.04-.18.09-.25.25-.25.72,0,2.03.05,2.03.52,0,.31-.29.54-.92.61v.83h2.47c.38-.56.86-1.21,1.13-1.21.36,0,1.66,1.08,1.66,1.51,0,.25-.29.41-.99.41h-4.25v1.53c0,.38-.29.54-.79.54-.32,0-.52-.18-.52-.49,0-.32.04-.92.04-1.58h-3.35v1.58c0,.38-.29.54-.79.54-.32,0-.5-.18-.5-.49,0-.32.04-.95.04-1.64h-4.66ZM711.68,226.51c.99.45,1.89,1.13,1.85,1.96-.02.5-.34.85-.86.83-.49-.02-.63-.5-.88-1.06-.16-.4-.4-.77-.63-1.15-.23-.38,0-.77.52-.58ZM721.73,229.23v5.28h2.07c.38-.56.86-1.22,1.13-1.22.36,0,1.62,1.1,1.62,1.53,0,.25-.34.41-.95.41h-8.71c-.23,0-.4-.07-.4-.36,0-.27.16-.36.4-.36h3.55c.02-1.33.04-3.4.02-5.28h-3.83c-.23,0-.4-.07-.4-.36,0-.27.16-.36.4-.36h3.82c-.02-1.44-.07-2.68-.14-3.28-.02-.16.09-.25.25-.25.31,0,2.14.05,2.14.52,0,.4-.4.54-.95.67v2.34h2.41c.4-.59.9-1.3,1.19-1.3.38,0,1.66,1.13,1.66,1.58,0,.27-.38.43-.97.43h-4.29Z"/><path class="cls-7" d="M737.32,225.37c.5.09,1.95.59,1.95,1.12,0,.29-.27.47-.97.41-.56,1.17-1.66,3.28-3.71,4.88-.45.36-.95-.04-.59-.5,1.51-1.98,2.54-3.94,2.83-5.6.05-.31.16-.38.5-.31ZM743.89,221c0,.29-.29.47-.92.63-.11,3.03-.05,8.66-.05,12.87-.02,1.13-.85,1.6-1.55,1.6-.65,0-.38-.68-2.11-1.12-.41-.11-.34-.65.05-.61.59.05,1.15.14,1.51.14.5,0,.74-.18.77-.74.07-1.26.04-4.86.04-6.72,0-1.31,0-4.23-.22-6.36-.02-.22.11-.27.36-.27.88,0,2.11.13,2.11.56ZM746.37,225.61c2.41.94,3.87,2.74,3.87,3.96,0,.56-.25,1.01-.83,1.01-.41,0-.65-.16-.9-.68-.79-1.64-1.26-2.34-2.61-3.69-.32-.32-.04-.79.47-.59Z"/><path class="cls-7" d="M760.86,224.58c0,.7-.02,1.4-.05,2.16-.09,2.77-.4,6.34-3.22,8.68-.41.38-.88.04-.52-.45,1.71-2.27,2.39-4.5,2.43-8.75.02-1.64-.02-3.66-.16-5.49-.02-.29.09-.38.32-.34.27.05.92.32,1.37.61h9.18c.27-.36.63-.77.83-.77.38,0,1.46.79,1.46,1.19,0,.23-.31.4-.63.54-.02.86,0,2.05.02,2.52,0,.56-.29.68-.81.68.47.27,1.24.97,1.24,1.3.02.25-.27.38-.92.38h-4.72c.2.11.32.23.32.36,0,.29-.47.41-.86.45-.25.41-.5.81-.76,1.19,1.57-.05,2.93-.18,4.12-.34-.2-.22-.4-.43-.59-.61-.22-.2-.07-.54.29-.47,1.64.27,2.54,1.13,2.72,1.94.11.45-.11.83-.59.94-.32.07-.56-.05-.76-.34-.16-.2-.32-.49-.5-.77-1.93.43-4.45.72-7.38.83-.13.4-.32.74-.61.68-.36-.05-.54-.68-.54-1.67,0-.16.09-.2.23-.2.88.04,1.71.05,2.48.04.31-.65.56-1.35.72-2.02h-3.31c-.23,0-.4-.07-.4-.36,0-.27.16-.36.4-.36h8.1c.32-.47.72-.99.97-1.06-.14-.11-.22-.29-.22-.47h-9.65ZM770.73,234.75c.4-.58.9-1.28,1.19-1.3.38.02,1.71,1.13,1.71,1.58,0,.27-.34.43-1.01.43h-12.48c-.23,0-.4-.07-.4-.36,0-.27.16-.36.4-.36h5.65c.02-.61.02-1.35,0-2.05h-3.96c-.23,0-.4-.07-.4-.36,0-.27.16-.36.4-.36h3.96c-.02-.7-.05-1.31-.09-1.71-.02-.16.09-.25.25-.25.31,0,1.91.07,1.91.5,0,.34-.32.47-.81.58v.88h1.89c.38-.56.88-1.21,1.15-1.21.36,0,1.66,1.08,1.66,1.51,0,.25-.32.41-.99.41h-3.71v2.05h3.67ZM760.86,221.77c.02.72.02,1.4.02,2.09h9.65c0-.65.02-1.57.02-2.14h-9.51l-.18.05Z"/><path class="cls-7" d="M788.37,223.68c1.39-.36,3.4-.94,4.36-.92.94.02,1.3.47,1.3.83,0,.45-.58.49-1.33.5-1.5.04-2.56.2-4.56.67-.14.79-.31,1.64-.36,2.27.68-.2,1.39-.31,2.12-.31.16,0,.32,0,.5.02-.04-.4-.13-.76-.27-1.1-.13-.31.14-.47.43-.27.27.2.56.45.77.85.11.2.18.41.2.72,1.93.5,3.35,1.96,3.35,4.12,0,2.83-2.79,4.16-6.21,4.27-.38.02-.5-.5-.05-.58,2.45-.43,4.92-1.53,4.95-3.94.02-1.48-.83-2.54-2.12-3.02-.04.18-.07.38-.14.59-.31,1.03-1.06,2.72-2.43,4.03-1.31,1.26-2.95,2.02-4.09,2.02-.96,0-1.55-.52-1.55-2.07,0-1.4.85-2.88,1.89-3.83.49-.45,1.06-.81,1.67-1.12.04-.79.13-1.62.23-2.38-1.42.36-2.47.72-3.31.72-.9,0-1.62-1.03-1.69-1.73-.02-.25.18-.34.4-.22.43.25,1.08.72,1.71.72.81,0,1.89-.25,3.04-.54.11-.76.22-1.33.22-1.66,0-.31-.09-.4-.38-.56-.34-.2-.86-.34-.86-.61,0-.29.59-.43,1.06-.43.68,0,1.69.43,1.67.97,0,.31-.2.72-.41,1.58l-.11.4ZM785.23,233.06c.65,0,1.44-.31,2.32-.95-.07-.07-.14-.16-.22-.27-.5-.92-.54-2.16-.56-3.49-.47.29-.86.63-1.22.99-.74.74-1.15,1.75-1.15,2.59,0,.94.31,1.13.83,1.13ZM790.38,227.54c-.2-.02-.43-.04-.65-.04-.74,0-1.39.13-1.98.36.04,1.37.22,2.47.58,3.22.05.11.09.2.13.29.85-.85,1.53-2.18,1.76-2.97.09-.29.14-.58.16-.86Z"/><path class="cls-7" d="M819.06,225.82c-.68.36-1.49.56-2.47.72.13,1.4.13,2.77-.11,4.03-.29,1.6-.9,3.73-4.16,4.61-.38.11-.56-.31-.2-.52,2.32-1.37,2.99-2.63,3.24-4.72.16-1.26.13-2.34.07-3.26-.99.09-2.09.11-2.99.11-.54,0-.85.25-1.13.61-.59.76-2.39,3.65-2.39,4.57,0,1.1.45,1.53.2,1.94-.16.27-.74.22-1.15-.18-.97-.94-1.44-2.41-1.44-3.82,0-2.34.83-3.91,1.15-6.01.2-1.21-.11-1.44-.72-2.49-.14-.25.04-.49.38-.36,1.42.5,2.34,1.75,1.75,3.22-.36.9-1.49,3.33-1.49,5.04,0,.43.04.9.11,1.19.07.27.27.4.54.02.65-.83,1.66-2.58,2.41-3.53.5-.65.77-1.12,1.55-1.15.9-.04,2.21-.14,3.17-.29-.07-.9-.25-2.2-.79-2.81-.43-.5-.85-.7-.85-1.06,0-.23.2-.41.59-.41,1.24,0,1.6.34,1.78,1.49.09.54.16,1.08.23,1.62.22.34.45.45.77.52.45.09,1.19-.2,1.67-.2.76,0,.94.76.27,1.1Z"/></g></svg>