<?xml version="1.0" encoding="UTF-8"?>
<svg id="_レイヤー_5" data-name="レイヤー 5" xmlns="http://www.w3.org/2000/svg" width="780" height="542.53" viewBox="0 0 780 542.53">
  <defs>
    <style>
      .cls-1 {
        letter-spacing: 0em;
      }

      .cls-2 {
        fill: #46be00;
      }

      .cls-2, .cls-3, .cls-4, .cls-5, .cls-6 {
        stroke-width: 0px;
      }

      .cls-7 {
        letter-spacing: 0em;
      }

      .cls-3 {
        fill: #ee7c26;
      }

      .cls-8 {
        letter-spacing: .02em;
      }

      .cls-9, .cls-10, .cls-11, .cls-12, .cls-13, .cls-14, .cls-15, .cls-16, .cls-17, .cls-18, .cls-19, .cls-20, .cls-21, .cls-22, .cls-23, .cls-24 {
        isolation: isolate;
      }

      .cls-9, .cls-11, .cls-12, .cls-13, .cls-14, .cls-15, .cls-16, .cls-17, .cls-18, .cls-19, .cls-20, .cls-21, .cls-22, .cls-23, .cls-24 {
        font-family: Bahnschrift, Bahnschrift;
        font-variation-settings: 'wght' 400, 'wdth' 100;
      }

      .cls-9, .cls-14, .cls-16, .cls-17, .cls-21, .cls-22, .cls-6, .cls-23 {
        fill: #fff;
      }

      .cls-9, .cls-24 {
        font-size: 13.08px;
      }

      .cls-25, .cls-13, .cls-14, .cls-20 {
        letter-spacing: .1em;
      }

      .cls-11, .cls-12, .cls-13, .cls-14, .cls-15, .cls-17, .cls-18, .cls-19, .cls-20, .cls-22, .cls-23 {
        font-size: 25.23px;
      }

      .cls-11, .cls-12, .cls-26, .cls-22 {
        letter-spacing: .1em;
      }

      .cls-11, .cls-18, .cls-19, .cls-20, .cls-24 {
        fill: #b60000;
      }

      .cls-12, .cls-13, .cls-15 {
        fill: #666;
      }

      .cls-27 {
        letter-spacing: .07em;
      }

      .cls-4 {
        fill: #544742;
      }

      .cls-15, .cls-17, .cls-19 {
        letter-spacing: .1em;
      }

      .cls-28 {
        letter-spacing: .07em;
      }

      .cls-29 {
        letter-spacing: 0em;
      }

      .cls-16 {
        font-size: 23.08px;
      }

      .cls-5 {
        fill: #00c1d4;
      }

      .cls-21 {
        font-size: 92.76px;
        letter-spacing: .1em;
      }

      .cls-30 {
        letter-spacing: 0em;
      }

      .cls-31 {
        letter-spacing: 0em;
      }

      .cls-32 {
        letter-spacing: .07em;
      }

      .cls-33 {
        letter-spacing: .1em;
      }

      .cls-34 {
        letter-spacing: -.02em;
      }

      .cls-35 {
        letter-spacing: 0em;
      }

      .cls-36 {
        letter-spacing: -.02em;
      }
    </style>
  </defs>
  <g>
    <g id="_レイヤー_5-2" data-name=" レイヤー 5">
      <rect class="cls-5" x="30.51" y="348" width="53.62" height="34.57"/>
      <rect class="cls-5" x="700.47" y="268.02" width="49.02" height="34.57"/>
      <rect class="cls-5" x="30.51" y="268.02" width="158.84" height="34.57"/>
      <rect class="cls-5" x="700.47" y="348" width="49.02" height="34.57"/>
      <rect class="cls-5" x="582.44" y="427.97" width="167.05" height="34.57"/>
      <rect class="cls-5" x="30.51" y="427.97" width="53.62" height="34.57"/>
      <rect class="cls-5" x="30.51" y="507.96" width="53.62" height="34.57"/>
      <rect class="cls-5" x="370.72" y="187.12" width="378.77" height="34.57"/>
      <path class="cls-6" d="M696.28,48.44c.36-.54.86-1.19,1.12-1.19.35,0,1.61,1.03,1.61,1.46,0,.23-.28.39-.96.39h-6.08v.68c0,.36.02,1.9.02,2.21,0,.36-.3.45-.75.45-.26,0-.45-.13-.45-.41,0-.32.07-1.9.07-2.35v-.58h-6.77c-.21,0-.36-.07-.36-.33s.15-.33.36-.33h6.76c0-.5-.04-1.03-.07-1.35-.02-.15.07-.23.21-.23.63,0,1.83.07,1.83.47,0,.28-.33.45-.84.51,0,.13-.02.35-.02.61h4.32v-.02ZM684.43,43.99c.23.07.54.2.73.25.18.05.26,0,.39-.21.32-.5.93-1.65,1.21-2.17.21-.36.71-.2.6.23-.28,1.01-1.01,2.45-1.01,2.91s.21.82.21,1.52c0,.64-.33.97-.84.97-.48,0-.61-.43-.61-.73,0-.26.1-.84-.02-1.24-.17-.51-.5-.71-.91-1.06-.26-.23-.04-.58.25-.48h0ZM684.22,40.41c-.28-.32-.11-.71.36-.58.9.23,1.7.61,1.78,1.32.05.43-.18.78-.63.84-.41.05-.58-.36-.86-.78-.2-.3-.45-.54-.66-.81h0ZM685.84,38.01c-.23-.35-.05-.71.43-.56.88.26,1.7.73,1.72,1.47.02.47-.25.79-.73.81-.43.02-.58-.43-.82-.84-.18-.32-.39-.6-.6-.88ZM690.51,46.81c0,.36-.25.54-.73.54-.3,0-.45-.17-.45-.47.02-.58.07-3.42.04-5.31-.47.63-1.01,1.24-1.64,1.77-.36.32-.71,0-.41-.39,1.44-1.75,2.41-3.68,2.71-5.27.04-.18.13-.23.32-.21.56.08,1.47.45,1.49.76,0,.23-.23.33-.71.33-.11.26-.28.6-.47.96.05.04.11.07.17.1h2.06c.28-.53.58-1.11.71-1.85.02-.15.11-.28.3-.25.6.1,1.46.47,1.49.75.02.23-.18.36-.69.39-.25.38-.51.69-.78.96h2.18c.32-.45.71-.96.93-.96.3,0,1.4.91,1.4,1.27,0,.23-.26.35-.84.35h-3.14v.02c0,.17-.1.28-.32.36v.91h1.52c.28-.43.64-.88.84-.88.28,0,1.32.86,1.32,1.21.02.23-.23.33-.79.33h-2.89v1.37h1.52c.28-.43.64-.88.84-.88.28,0,1.32.86,1.32,1.21.02.23-.23.33-.79.33h-2.89v1.4h2.41c.32-.47.71-.99.94-.99.32,0,1.44.93,1.44,1.31,0,.21-.26.35-.86.35h-7.55v.5ZM693.05,41.56v-1.29h-2.21c-.08.04-.18.05-.3.07-.02.25-.02.73-.04,1.22h2.55ZM693.05,42.23h-2.54v1.37h2.54v-1.37ZM693.05,44.26h-2.54l.02,1.4h2.53v-1.4h0Z"/>
      <path class="cls-6" d="M715.2,40.38c.28.15.51.35.51.51,0,.2-.23.3-.71.33-.26.82-.61,1.52-1.18,2.17.78.56,1.77.93,3.01,1.11.54.08.35.33.05.47-.39.17-.51.3-.66.5-.17.25-.25.38-.79.2-1.01-.28-1.82-.79-2.47-1.47-.81.63-1.89,1.12-3.25,1.4-.5.1-.61-.35-.18-.54,1.34-.47,2.18-.94,2.86-1.59-.47-.73-.79-1.59-1.01-2.54-.18.2-.38.38-.6.56-.13.1-.26.13-.36.11.28.26.54.6.54.78,0,.21-.23.3-.63.3h-1.42c-.05.43-.1.9-.17,1.29h.17c.25-.38.53-.75.69-.75.26,0,1.07.81,1.09,1.11,0,.23-.25.3-.61.3h-1.49l-.04.1c-.33,1.04-1.12,1.18-1.57,1.18-.21,0-.3-.1-.41-.23s-.2-.18-.36-.23c-.39-.11-.32-.48.04-.47.26.02.47.04.79.04.28,0,.43-.15.53-.38h-3.52l-.05.18c-.08.35-.45.5-.82.45-.3-.04-.39-.17-.33-.45s.33-1.16.56-2.13h-1.14c-.21,0-.36-.07-.36-.33s.15-.33.36-.33h1.27c.13-.64.21-1.31.26-1.78-.38.41-.81.82-1.31,1.16-.39.26-.69-.04-.43-.39.96-1.09,1.64-2.21,1.96-3.35.05-.17.15-.25.35-.2.58.11,1.39.5,1.39.78,0,.23-.2.33-.73.33l-.15.25h3.46c.32-.45.71-.96.93-.96.3,0,1.39.91,1.4,1.27,0,.23-.28.35-.84.35h-5.4c-.08.11-.18.25-.28.38h.02c.18.07.48.2.73.36h3.1c.15-.18.32-.32.41-.32.33,0,1.07.66,1.07.91,0,.18-.2.33-.47.47-.02.21-.04.47-.05.76h.13c.26-.39.56-.78.73-.78.1,0,.25.08.41.21-.04-.08-.02-.2.07-.33.78-1.11,1.34-2.28,1.59-3.39.04-.15.13-.25.36-.21.61.1,1.34.36,1.34.63,0,.21-.13.33-.64.41-.18.35-.41.76-.68,1.18h2.68c.3-.47.68-.96.9-.96.32,0,1.34.91,1.35,1.27,0,.23-.3.35-.79.35h-1.22,0ZM707.76,50.79c-.04.26-.54.23-.96.15-.9.51-2.28,1.12-3.59,1.42-.43.08-.61-.33-.21-.54,1.35-.68,2.23-1.24,3.07-2.06.15-.13.23-.15.38-.07.56.26,1.37.78,1.31,1.11h0ZM707.54,48.39c.45,0,.88-.02,1.29-.04.91-.78,1.62-1.57,2.28-2.61.05-.13.2-.13.33-.1.68.28,1.46.78,1.35,1.1-.07.23-.45.21-.81.13-.51.41-1.18.96-1.85,1.42,1.32-.07,2.51-.17,3.61-.26-.17-.17-.35-.32-.53-.43-.21-.17-.11-.5.21-.47,1.54.13,2.36.88,2.6,1.49.13.39-.04.76-.41.9-.28.1-.48,0-.71-.23-.17-.18-.35-.43-.56-.68-1.14.23-2.46.39-3.83.51.1.07.17.13.17.23,0,.25-.21.33-.53.38v2.2c0,.35-.25.48-.71.48-.26,0-.45-.15-.45-.43,0-.26.02-.68.02-1.21,0-.47-.05-1.09-.1-1.52-1.62.08-3.31.13-4.92.15-.13.36-.33.68-.58.64-.35-.07-.48-.66-.47-1.55.02-.15.08-.2.21-.18,1.42.07,2.75.08,3.98.08-.08-.05-.17-.1-.26-.18-.21-.2-.47-.51-.76-.78-.28-.23-.58-.53-.88-.71-.18-.15-.1-.48.23-.47.86.07,1.5.32,1.92.63.35-.47.6-.94.84-1.47.05-.11.18-.13.32-.08.6.26,1.31.79,1.22,1.07-.05.2-.41.17-.73.1-.32.28-.78.66-1.16.94l.02.05c.17.36.04.73-.33.88h-.02ZM704.47,42.66c-.08.41-.18.86-.26,1.29h1.27l.21-1.29h-1.22,0ZM704.86,40.83c-.05.18-.13.61-.25,1.16h1.21l.2-1.16h-1.16,0ZM707.76,43.95c.08-.38.15-.82.2-1.29h-1.27l-.21,1.29h1.29,0ZM706.79,41.99h1.24c.04-.43.04-.84.04-1.16h-.71c-.07.1-.2.18-.39.23l-.17.93h0ZM715.27,51.1c.2.41.13.82-.25,1.01-.43.21-.84-.18-1.47-.68-.47-.38-.94-.69-1.42-.96-.33-.2-.3-.61.18-.61,1.16,0,2.56.47,2.96,1.24h0ZM714.03,40.38h-2.11c.23.93.61,1.7,1.18,2.33.48-.64.76-1.31.93-2.26l.02-.07h0Z"/>
      <path class="cls-6" d="M721.69,42.76c.05,1.1-.38,2.17-1.21,2.21-.36.02-.66-.21-.68-.6-.05-.71.58-.78.86-1.78.13-.41.1-.96.08-1.34s.45-.43.6-.1c.18.45.32,1.04.35,1.61h0ZM723.35,44.77c0,1.19.07,6.34.07,7.04,0,.38-.25.58-.79.58-.33,0-.51-.18-.51-.5,0-.75.17-5.52.17-6.77,0-.71.05-5.57-.23-7.24-.04-.15.07-.23.21-.23,1.1,0,1.98.1,1.98.51,0,.28-.35.47-.86.58-.04,1.18-.04,5.37-.04,6.04h0ZM725.52,42.97c-.13.41-.53.63-.96.48-.41-.13-.39-.56-.47-1.04-.05-.32-.15-.66-.23-.97-.1-.39.2-.68.61-.36.68.54,1.27,1.22,1.04,1.9h.02ZM729.03,41.82c-.07.28-.51.43-.89.51v7.35c0,.81.08.88,2.73.88,2.38-.02,3.24-.25,3.78-.25.36,0,.51.17.51.47,0,.28-.13.58-.53.69-.58.15-1.96.25-3.78.25-3.55,0-3.89-.35-3.89-1.82,0-.76.07-6.3-.07-8.08h-1.29c-.21,0-.36-.07-.36-.33s.15-.33.36-.33h3.82c.02-1.03.02-2.51-.08-3.2-.02-.17.08-.25.23-.25.28,0,1.95.05,1.95.5,0,.35-.36.48-.88.6v2.36h2.26c.35-.51.79-1.1,1.04-1.1.33,0,1.46.99,1.46,1.39,0,.25-.32.38-.86.38h-5.52v-.02Z"/>
      <path class="cls-6" d="M697.03,66.49c.28.15.51.35.51.51,0,.2-.23.3-.71.33-.26.82-.61,1.52-1.18,2.17.78.56,1.77.93,3.01,1.11.54.08.35.33.05.47-.39.17-.51.3-.66.5-.17.25-.25.38-.79.2-1.01-.28-1.82-.79-2.47-1.47-.81.63-1.89,1.12-3.25,1.4-.5.1-.61-.35-.18-.54,1.34-.47,2.18-.94,2.86-1.59-.47-.73-.79-1.59-1.01-2.54-.18.2-.38.38-.6.56-.13.1-.26.13-.36.11.28.26.54.6.54.78,0,.21-.23.3-.63.3h-1.42c-.05.43-.1.9-.17,1.29h.17c.25-.38.53-.75.69-.75.26,0,1.07.81,1.09,1.11,0,.23-.25.3-.61.3h-1.49l-.04.1c-.33,1.04-1.12,1.18-1.57,1.18-.21,0-.3-.1-.41-.23s-.2-.18-.36-.23c-.39-.11-.32-.48.04-.47.26.02.47.04.79.04.28,0,.43-.15.53-.38h-3.52l-.05.18c-.08.35-.45.5-.82.45-.3-.04-.39-.17-.33-.45s.33-1.16.56-2.13h-1.14c-.21,0-.36-.07-.36-.33s.15-.33.36-.33h1.27c.13-.64.21-1.31.26-1.78-.38.41-.81.82-1.31,1.16-.39.26-.69-.04-.43-.39.96-1.09,1.64-2.21,1.96-3.35.05-.17.15-.25.35-.2.58.11,1.39.5,1.39.78,0,.23-.2.33-.73.33l-.15.25h3.46c.32-.45.71-.96.93-.96.3,0,1.39.91,1.4,1.27,0,.23-.28.35-.84.35h-5.4c-.08.11-.18.25-.28.38h.02c.18.07.48.2.73.36h3.1c.15-.18.32-.32.41-.32.33,0,1.07.66,1.07.91,0,.18-.2.33-.47.47-.02.21-.04.47-.05.76h.13c.26-.39.56-.78.73-.78.1,0,.25.08.41.21-.04-.08-.02-.2.07-.33.78-1.11,1.34-2.28,1.59-3.39.04-.15.13-.25.36-.21.61.1,1.34.36,1.34.63,0,.21-.13.33-.64.41-.18.35-.41.76-.68,1.18h2.68c.3-.47.68-.96.9-.96.32,0,1.34.91,1.35,1.27,0,.23-.3.35-.79.35h-1.22,0ZM689.59,76.9c-.04.26-.54.23-.96.15-.9.51-2.28,1.12-3.59,1.42-.43.08-.61-.33-.21-.54,1.35-.68,2.23-1.24,3.07-2.06.15-.13.23-.15.38-.07.56.26,1.37.78,1.31,1.11h0ZM689.36,74.5c.45,0,.88-.02,1.29-.04.91-.78,1.62-1.57,2.28-2.61.05-.13.2-.13.33-.1.68.28,1.46.78,1.35,1.1-.07.23-.45.21-.81.13-.51.41-1.18.96-1.85,1.42,1.32-.07,2.51-.17,3.6-.26-.17-.17-.35-.32-.53-.43-.21-.17-.11-.5.21-.47,1.54.13,2.36.88,2.6,1.49.13.39-.04.76-.41.9-.28.1-.48,0-.71-.23-.17-.18-.35-.43-.56-.68-1.14.23-2.46.39-3.83.51.1.07.17.13.17.23,0,.25-.21.33-.53.38v2.2c0,.35-.25.48-.71.48-.26,0-.45-.15-.45-.43,0-.26.02-.68.02-1.21,0-.47-.05-1.09-.1-1.52-1.62.08-3.31.13-4.92.15-.13.36-.33.68-.58.64-.35-.07-.48-.66-.47-1.55.02-.15.08-.2.21-.18,1.42.07,2.75.08,3.98.08-.08-.05-.17-.1-.26-.18-.21-.2-.47-.51-.76-.78-.28-.23-.58-.53-.88-.71-.18-.15-.1-.48.23-.47.86.07,1.5.32,1.92.63.35-.47.6-.94.84-1.47.05-.11.18-.13.32-.08.6.26,1.31.79,1.22,1.07-.05.2-.41.17-.73.1-.32.28-.78.66-1.16.94l.02.05c.17.36.04.73-.33.88h-.02,0ZM686.3,68.77c-.08.41-.18.86-.26,1.29h1.27l.21-1.29h-1.22,0ZM686.68,66.95c-.05.18-.13.61-.25,1.16h1.21l.2-1.16h-1.16,0ZM689.59,70.05c.08-.38.15-.82.2-1.29h-1.27l-.21,1.29h1.29,0ZM688.62,68.11h1.24c.04-.43.04-.84.04-1.16h-.71c-.07.1-.2.18-.39.23l-.17.93h0ZM697.09,77.21c.2.41.13.82-.25,1.01-.43.21-.84-.18-1.47-.68-.47-.38-.94-.69-1.42-.96-.33-.2-.3-.61.18-.61,1.16,0,2.56.47,2.96,1.24h0ZM695.85,66.49h-2.11c.23.93.61,1.7,1.18,2.33.48-.64.76-1.31.93-2.26l.02-.07h0Z"/>
      <path class="cls-6" d="M703.52,68.87c.05,1.1-.38,2.17-1.21,2.21-.36.02-.66-.21-.68-.6-.05-.71.58-.78.86-1.78.13-.41.1-.96.08-1.34s.45-.43.6-.1c.18.45.32,1.04.35,1.61h0ZM705.17,70.88c0,1.19.07,6.34.07,7.04,0,.38-.25.58-.79.58-.33,0-.51-.18-.51-.5,0-.75.17-5.52.17-6.77,0-.71.05-5.57-.23-7.24-.04-.15.07-.23.21-.23,1.1,0,1.98.1,1.98.51,0,.28-.35.47-.86.58-.04,1.18-.04,5.37-.04,6.04h0ZM707.33,69.08c-.13.41-.53.63-.96.48-.41-.13-.39-.56-.47-1.04-.05-.32-.15-.66-.23-.97-.1-.39.2-.68.61-.36.68.54,1.27,1.22,1.04,1.9h.02ZM710.86,67.92c-.07.28-.51.43-.89.51v7.35c0,.81.08.88,2.73.88,2.38-.02,3.24-.25,3.78-.25.36,0,.51.17.51.47,0,.28-.13.58-.53.69-.58.15-1.96.25-3.78.25-3.55,0-3.89-.35-3.89-1.82,0-.76.07-6.3-.07-8.08h-1.29c-.21,0-.36-.07-.36-.33s.15-.33.36-.33h3.82c.02-1.03.02-2.51-.08-3.2-.02-.17.08-.25.23-.25.28,0,1.95.05,1.95.5,0,.35-.36.48-.88.6v2.36h2.26c.35-.51.79-1.1,1.04-1.1.33,0,1.46.99,1.46,1.39,0,.25-.32.38-.86.38h-5.52v-.02Z"/>
      <path class="cls-6" d="M730.87,65.55c.28-.36.61-.76.82-.76.38,0,1.46.81,1.46,1.19,0,.25-.32.43-.68.56-.11,2.43.07,9.72.07,10.94,0,.51-.36.64-.84.64-.39,0-.53-.3-.53-.56v-.71h-6.79v.91c0,.38-.25.6-.79.6-.35,0-.5-.2-.5-.5,0-1.98.2-10.41-.07-12.81-.02-.11.08-.23.23-.23.25,0,1.31.36,1.7.73h5.92ZM731.22,70.88c0-2.02.02-3.9,0-4.67h-6.62l-.17.04c-.07.88-.08,3.47-.08,4.64h6.88ZM731.18,76.19c0-1.18.02-2.91.04-4.64h-6.88l.04,4.64h6.81,0Z"/>
      <path class="cls-6" d="M686.07,18.55c.23-.32.53-.66.71-.66.33,0,1.27.73,1.27,1.09,0,.23-.3.43-.61.54-.02.88-.04,2.82,0,3.8.47.76,1.07,1.22,2.78,1.39,2.04.21,6.02.11,8.56-.1.48-.05.47.43.05.53-.32.07-.36.2-.5.43-.13.26-.21.33-.58.36-1.9.11-5.75.18-8.13-.21-1.47-.28-2.2-1.01-2.67-2.05-.69.75-1.47,1.53-2.1,2.21-.21.51-.47.54-.68.25-.18-.25-.43-.73-.51-1.06-.08-.21-.07-.3.21-.43.75-.35,1.7-.89,2.45-1.4.02-.93.04-3.12.04-4.04h-2.13c-.21,0-.36-.07-.36-.33s.15-.33.36-.33h1.85v-.02ZM685.05,12.78c-.25-.35-.05-.71.43-.56,1.06.36,2.05,1.07,2.06,1.96,0,.5-.28.84-.78.84-.47,0-.64-.47-.96-1.06-.23-.43-.51-.84-.76-1.19ZM689.29,12.86c-.21,0-.36-.07-.36-.33s.15-.33.36-.33h6.67c.28-.26.63-.54.81-.53.32.02,1.27.91,1.24,1.4-.02.35-.56.28-.94.3-.61.36-1.57.96-2.45,1.5l.05.08c.13.25.13.48.02.66h1.9c.21-.26.47-.53.56-.53.39,0,1.37.88,1.37,1.19,0,.21-.32.38-.66.51-.04,1.49,0,3.87-.04,5.85,0,.99-.69,1.4-1.34,1.4s-.25-.61-1.12-.91c-.33-.15-.28-.54.04-.54.11,0,.61.07.86.07.36,0,.5-.15.53-.54.02-.33.02-.79.04-1.29h-2.75l.02,2.66c0,.36-.25.48-.69.48-.26,0-.43-.15-.43-.45,0-.21.04-1.64.05-2.69h-2.58l.02,2.67c0,.36-.23.54-.71.54-.28,0-.43-.17-.43-.47,0-1.44.15-6.43-.07-8.26-.02-.13.1-.23.25-.21.25.02.88.26,1.24.51h2.91c-.23-.21-.51-.48-.84-.75-.33-.25-.69-.51-1.04-.73-.25-.13-.15-.51.2-.48.99.11,1.7.41,2.17.73.58-.48,1.16-.96,1.72-1.54h-6.58ZM690.49,16.28c-.02.32-.04.91-.05,1.53h2.58c0-.56-.02-1.12-.07-1.53h-2.47ZM693.05,20.17v-1.68h-2.6v1.68h2.6ZM696.83,20.17v-1.68h-2.73l-.02,1.44v.25h2.75ZM694.62,16.28c-.02.17-.18.28-.5.33,0,.23-.02.69-.02,1.21h2.73v-1.53h-2.21,0Z"/>
      <path class="cls-6" d="M714.66,14.75c.28-.35.71-.76.91-.76.3,0,1.39.96,1.39,1.44-.02.33-.45.36-.9.47-.47.39-.96.81-1.34,1.07-.35.25-.66,0-.47-.36.18-.36.38-.79.53-1.19h-10.45v.02c0,1.03-.53,2.05-1.46,2.05-.41,0-.68-.3-.68-.69,0-.75.73-.69,1.09-1.65.15-.39.08-.91.08-1.29-.02-.36.41-.47.6-.1.13.28.25.63.32,1.01h4.66c.02-1.07,0-2.45-.08-3.1-.02-.17.08-.25.23-.25.28,0,1.85.05,1.85.48,0,.35-.35.48-.86.6v2.28h4.56ZM713.46,21.33c.26-.35.6-.73.71-.73.41,0,1.52.94,1.52,1.25,0,.25-.38.45-.78.58,0,.6.02,1.4,0,2.21,0,.93-.75,1.34-1.4,1.34s-.26-.54-1.09-.84c-.35-.15-.3-.53.02-.53.13,0,.63.05.82.05.36,0,.5-.13.53-.47.04-.45.04-1.01.04-1.49v-.73h-3.72v.54c0,1.59.05,2.71.05,3.18,0,.35-.25.6-.79.6-.33,0-.45-.18-.45-.5,0-.53.05-1.64.05-3.27v-.54h-3.44c-.02.35-.02,1.4-.02,1.67s.02,1.65.02,1.95c0,.35-.26.5-.78.5-.3,0-.45-.15-.45-.43,0-1.01.08-3.31-.07-4.69-.02-.13.1-.23.23-.21.28.04.97.3,1.37.56h3.12v-1.44h-1.95v.1c0,.35-.25.5-.71.5-.26,0-.41-.15-.41-.45,0-.89.07-2.49-.07-3.77-.02-.13.11-.23.25-.2.32.04,1.01.32,1.34.6h4.43c.21-.32.51-.64.68-.64.32,0,1.21.68,1.21,1.03,0,.18-.23.33-.5.43-.02.64,0,1.83,0,2.21,0,.51-.23.63-.66.63-.32,0-.45-.21-.47-.43h-1.7s.05.07.05.11c0,.13-.11.23-.35.3v1.03h3.35ZM705.42,12.25c-.18-.38.07-.71.53-.48.78.36,1.54.9,1.4,1.62-.07.47-.43.75-.93.66-.43-.07-.5-.5-.64-.93-.1-.28-.23-.6-.36-.88ZM707.02,19.22h5.07l.04-1.9h-5.09c-.02.32-.02.94-.02,1.21v.69h0ZM711.93,13.91c.36-.66.64-1.32.81-2.08.04-.15.15-.26.32-.21.58.17,1.52.71,1.52.99,0,.25-.26.35-.76.32-.35.45-.79.94-1.37,1.34-.38.28-.69.05-.51-.35h0Z"/>
      <rect class="cls-2" x="587.45" y="32.43" width="82.63" height="23.42"/>
      <rect class="cls-3" x="587.45" y="59" width="82.63" height="23.42"/>
      <rect class="cls-5" x="587.45" y="5.85" width="82.63" height="23.42"/>
    </g>
    <g id="_レイヤー_4-2" data-name=" レイヤー 4">
      <g class="cls-10">
        <text class="cls-21" transform="translate(361.38 79.31)"><tspan x="0" y="0">5</tspan></text>
      </g>
      <g class="cls-10">
        <text class="cls-24" transform="translate(45.15 130.81)"><tspan class="cls-36" x="0" y="0">S</tspan><tspan class="cls-30" x="7.8" y="0">U</tspan><tspan class="cls-1" x="16.24" y="0">N</tspan></text>
      </g>
      <g class="cls-10">
        <text class="cls-9" transform="translate(155.22 130.81)"><tspan x="0" y="0">M</tspan><tspan class="cls-35" x="10.19" y="0">O</tspan><tspan class="cls-31" x="18.51" y="0">N</tspan></text>
      </g>
      <g class="cls-10">
        <text class="cls-9" transform="translate(268.95 130.81)"><tspan x="0" y="0">T</tspan><tspan class="cls-30" x="6.3" y="0">U</tspan><tspan x="14.74" y="0">E</tspan></text>
      </g>
      <g class="cls-10">
        <text class="cls-9" transform="translate(377.53 130.81)"><tspan class="cls-7" x="0" y="0">W</tspan><tspan x="11.14" y="0">ED</tspan></text>
      </g>
      <g class="cls-10">
        <text class="cls-9" transform="translate(490.57 130.81)"><tspan class="cls-8" x="0" y="0">T</tspan><tspan x="6.55" y="0">HU</tspan></text>
      </g>
      <g class="cls-10">
        <text class="cls-9" transform="translate(603.7 130.81)"><tspan class="cls-29" x="0" y="0">F</tspan><tspan x="7.44" y="0">RI</tspan></text>
      </g>
      <g class="cls-10">
        <text class="cls-9" transform="translate(712.99 130.81)"><tspan x="0" y="0">S</tspan><tspan class="cls-34" x="8.05" y="0">A</tspan><tspan x="16.27" y="0">T</tspan></text>
      </g>
      <g class="cls-10">
        <text class="cls-13" transform="translate(155.73 376.38)"><tspan x="0" y="0">13</tspan></text>
      </g>
      <g class="cls-10">
        <text class="cls-20" transform="translate(44.81 376.38)"><tspan x="0" y="0">12</tspan></text>
      </g>
      <g class="cls-10">
        <text class="cls-13" transform="translate(266.31 376.38)"><tspan x="0" y="0">14</tspan></text>
      </g>
      <g class="cls-10">
        <text class="cls-13" transform="translate(377.68 376.38)"><tspan x="0" y="0">15</tspan></text>
      </g>
      <g class="cls-10">
        <text class="cls-12" transform="translate(489.15 376.38)"><tspan x="0" y="0">16</tspan></text>
      </g>
      <g class="cls-10">
        <text class="cls-12" transform="translate(600.35 376.38)"><tspan x="0" y="0">17</tspan></text>
      </g>
      <g class="cls-10">
        <text class="cls-22" transform="translate(710.69 376.38)"><tspan x="0" y="0">18</tspan></text>
      </g>
      <g class="cls-10">
        <text class="cls-20" transform="translate(44.85 454.75)"><tspan x="0" y="0">19</tspan></text>
      </g>
      <g class="cls-10">
        <text class="cls-13" transform="translate(266.96 454.75)"><tspan x="0" y="0">21</tspan></text>
      </g>
      <g class="cls-10">
        <text class="cls-13" transform="translate(153.94 454.75)"><tspan x="0" y="0">20</tspan></text>
      </g>
      <g class="cls-10">
        <text class="cls-13" transform="translate(375.71 454.75)"><tspan x="0" y="0">22</tspan></text>
      </g>
      <g class="cls-10">
        <text class="cls-15" transform="translate(486.64 454.75)"><tspan x="0" y="0">23</tspan></text>
      </g>
      <g class="cls-10">
        <text class="cls-23" transform="translate(597.21 454.75)"><tspan class="cls-28" x="0" y="0">2</tspan><tspan class="cls-26" x="14.82" y="0">4</tspan></text>
      </g>
      <g class="cls-10">
        <text class="cls-17" transform="translate(708.59 454.75)"><tspan x="0" y="0">25</tspan></text>
      </g>
      <g class="cls-10">
        <text class="cls-13" transform="translate(153.73 534.8)"><tspan x="0" y="0">27</tspan></text>
      </g>
      <g class="cls-10">
        <text class="cls-18" transform="translate(42.53 534.8)"><tspan class="cls-32" x="0" y="0">2</tspan><tspan class="cls-25" x="14.82" y="0">6</tspan></text>
      </g>
      <g class="cls-10">
        <text class="cls-13" transform="translate(264.06 534.8)"><tspan x="0" y="0">28</tspan></text>
      </g>
      <g class="cls-10">
        <text class="cls-13" transform="translate(375.76 534.8)"><tspan x="0" y="0">29</tspan></text>
      </g>
      <g class="cls-10">
        <text class="cls-15" transform="translate(486.19 534.8)"><tspan x="0" y="0">30</tspan></text>
      </g>
      <g class="cls-10">
        <text class="cls-15" transform="translate(600.04 534.8)"><tspan x="0" y="0">31</tspan></text>
      </g>
      <g class="cls-10">
        <text class="cls-11" transform="translate(716.06 214.57)"><tspan x="0" y="0">4</tspan></text>
      </g>
      <g class="cls-10">
        <text class="cls-19" transform="translate(161.39 295.51)"><tspan x="0" y="0">6</tspan></text>
      </g>
      <g class="cls-10">
        <text class="cls-20" transform="translate(49.91 295.51)"><tspan x="0" y="0">5</tspan></text>
      </g>
      <g class="cls-10">
        <text class="cls-13" transform="translate(272.59 295.51)"><tspan x="0" y="0">7</tspan></text>
      </g>
      <g class="cls-10">
        <text class="cls-15" transform="translate(382.92 295.51)"><tspan x="0" y="0">8</tspan></text>
      </g>
      <g class="cls-10">
        <text class="cls-12" transform="translate(494.61 295.51)"><tspan x="0" y="0">9</tspan></text>
      </g>
      <g class="cls-10">
        <text class="cls-12" transform="translate(599.75 295.51)"><tspan x="0" y="0">10</tspan></text>
      </g>
      <g class="cls-10">
        <text class="cls-14" transform="translate(385.81 214.57)"><tspan x="0" y="0">1</tspan></text>
      </g>
      <g class="cls-10">
        <text class="cls-17" transform="translate(494.56 214.57)"><tspan x="0" y="0">2</tspan></text>
      </g>
      <g class="cls-10">
        <text class="cls-19" transform="translate(605.49 214.57)"><tspan x="0" y="0">3</tspan></text>
      </g>
      <g class="cls-10">
        <text class="cls-22" transform="translate(713.58 295.51)"><tspan x="0" y="0">11</tspan></text>
      </g>
      <g class="cls-10">
        <text class="cls-16" transform="translate(41.77 74.56)"><tspan class="cls-33" x="0" y="0">20</tspan><tspan class="cls-27" x="29.27" y="0">2</tspan><tspan class="cls-33" x="42.83" y="0">4</tspan></text>
      </g>
    </g>
  </g>
  <path class="cls-4" d="M239,148.19h366.09c5.16,0,9.34,5.15,9.34,11.5v16.24c0,6.35-4.18,11.5-9.34,11.5H239c-5.16,0-9.34-5.15-9.34-11.5v-16.24c0-6.35,4.18-11.5,9.34-11.5Z"/>
  <polyline class="cls-4" points="346.66 186.49 380.35 199.57 371.99 184.63"/>
  <g>
    <path class="cls-6" d="M282.48,163.38c0,.62-.45,1.14-1.07,1.14-.48,0-.93-.38-.93-1.02,0-.56.45-1.04,1.07-1.04.5,0,.93.42.93.93ZM282.48,170.44c0,.62-.45,1.14-1.07,1.14-.48,0-.93-.38-.93-1.02,0-.56.45-1.04,1.07-1.04.5,0,.93.42.93.93Z"/>
    <path class="cls-6" d="M296.43,168.07c-.29,1.02-1.06,2.56-1.06,3.04,0,.51.24.91.24,1.71,0,.69-.35,1.01-.85,1.01s-.62-.43-.62-.72.16-1.01.02-1.42c-.18-.58-.53-.77-.94-1.12-.26-.22-.05-.56.22-.46.22.06.59.19.78.26.18.03.26,0,.4-.21.3-.48.94-1.76,1.25-2.29.21-.37.69-.19.56.21ZM293.74,163.83c.98.08,2.02.48,2.21,1.3.1.45-.11.82-.59.93-.43.1-.69-.29-1.06-.74-.27-.32-.58-.62-.86-.9-.29-.27-.19-.64.3-.59ZM294.8,160.69c-.26-.27-.16-.64.34-.58.98.13,1.99.59,2.13,1.41.08.45-.14.82-.61.91-.45.06-.67-.34-1.02-.82-.26-.32-.56-.64-.83-.93ZM305.78,166.44c.3-.45.69-.94.91-.94.29,0,1.36.88,1.38,1.25,0,.22-.26.34-.83.34h-5.75c.1.08.14.16.13.24-.02.21-.22.3-.7.26-.14.19-.32.43-.51.67h5.49c.22-.27.48-.51.61-.51.35,0,1.22.69,1.22.96,0,.19-.27.4-.62.56-.11,1.07-.32,2.59-.78,3.44-.56,1.22-1.46,1.38-2.1,1.38-.26,0-.38-.1-.48-.37-.08-.21-.19-.35-.51-.51-.3-.14-.16-.53.13-.46.32.05.62.13.94.13.46,0,.8-.18,1.01-.56.46-.77.67-2.34.77-3.41h-.78c-.03.13-.16.22-.35.26-1.07,2.43-2.98,4.16-5.99,4.9-.48.11-.59-.37-.16-.54,2.29-.96,4.02-2.22,5.01-4.61h-1.09v.03c-.03.16-.21.22-.38.22-1.01,1.55-2.67,3.09-5.09,3.89-.5.19-.66-.26-.24-.51,1.81-.94,3.23-2.1,4.23-3.63h-1.39c-.74.8-1.73,1.65-2.9,2.23-.42.21-.66-.16-.3-.46,1.44-1.1,2.55-2.35,3.17-3.57h-2.64c-.21,0-.35-.06-.35-.32,0-.24.14-.32.35-.32h8.63ZM300.14,165.61c0,.35-.24.5-.72.5-.29,0-.43-.16-.43-.43,0-1.1.1-4.16-.06-5.63-.02-.13.1-.22.22-.21.27.03,1.06.32,1.42.61h3.86c.24-.3.51-.64.69-.64.3,0,1.22.69,1.22,1.04,0,.21-.26.34-.53.45-.03,1.04,0,3.38.02,3.91,0,.5-.26.62-.67.62-.37,0-.48-.29-.48-.54v-.1h-4.53v.43ZM300.16,161.08c-.02.29-.02.88-.03,1.38h4.58v-1.38h-4.55ZM304.67,164.53l.02-1.44h-4.56v.03l.02,1.41h4.53Z"/>
    <path class="cls-6" d="M316.08,164.5c0,.22-.27.32-.61.38-.05.78-.06,3.38-.06,3.91,0,.46.03,4.23.03,4.74,0,.35-.24.53-.72.53-.29,0-.43-.16-.43-.45,0-1.07.1-5.49.03-8-.46.67-.99,1.33-1.6,1.92-.34.35-.72.08-.43-.34,1.67-2.34,2.88-4.98,3.28-7.35.03-.18.1-.27.29-.24.58.11,1.68.61,1.68.96,0,.26-.32.35-.78.29-.34.88-.78,1.97-1.39,3.09.35.16.72.38.72.56ZM322.47,169.9c.59,1.55,2.26,2.5,4.66,2.79.54.08.3.32.03.45-.4.19-.48.3-.62.48-.14.22-.19.37-.77.19-2.05-.51-3.44-2-3.91-3.84-.61,2.26-2.29,3.54-5.31,4.1-.58.1-.66-.42-.13-.58,2.48-.69,3.86-1.79,4.35-3.59h-3.97c-.21,0-.35-.06-.35-.32,0-.24.14-.32.35-.32h4.11c.1-.61.11-1.3.05-2.05v-.02h-3.52c-.21,0-.35-.06-.35-.32,0-.24.14-.32.35-.32h6.96c.3-.45.67-.93.88-.93.29,0,1.26.88,1.28,1.23,0,.22-.27.34-.75.34h-3.18c.06.05.1.1.1.16,0,.21-.16.3-.59.38,0,.54-.05,1.06-.11,1.52h2.88c.32-.46.72-.99.94-.99.3,0,1.39.91,1.39,1.28,0,.22-.26.35-.83.35h-3.94ZM319.36,165.27c0,.35-.26.5-.74.5-.29,0-.43-.14-.43-.43,0-.78.1-3.87-.06-5.14-.03-.18.11-.26.27-.21.35.1,1.01.43,1.34.72h4.05c.26-.32.58-.7.77-.7.32,0,1.26.69,1.26,1.04,0,.21-.27.35-.56.46-.02.99.02,2.91.02,3.43s-.26.61-.69.61c-.38,0-.5-.29-.5-.54v-.16h-4.74v.43ZM324.11,164.2c0-.86.02-2.14.02-2.85h-4.61l-.16.03c-.02.37-.02,1.47-.02,1.78v1.04h4.77Z"/>
    <path class="cls-6" d="M343.99,171.5c.03-1.06.06-2.23.06-2.72,0-.53.03-3.89-.16-5.09-.02-.16.06-.24.21-.24.94,0,1.98.08,1.98.51,0,.29-.35.46-.86.56-.03.8-.02,3.62-.02,4.1,0,.83.05,4.24.05,4.75,0,.37-.29.53-.82.53-.32,0-.5-.16-.5-.48,0-.19.02-.67.03-1.28h-9.92l.02,1.26c0,.37-.29.54-.82.54-.32,0-.5-.18-.5-.46,0-.58.11-3.78.11-4.67,0-.54.03-3.89-.16-5.12-.02-.16.06-.24.21-.24.94,0,1.98.08,1.98.51,0,.29-.35.46-.86.56-.03.8-.02,3.63-.02,4.11s.02,1.74.03,2.87h4.34c.05-2.39.11-9.83-.08-11.3-.02-.16.08-.24.24-.24.29,0,1.99.05,1.99.5,0,.37-.37.51-.9.62v10.42h4.35Z"/>
    <path class="cls-6" d="M355.52,169.05c0,.72.05,4.05.05,4.55,0,.35-.26.5-.72.5-.27,0-.45-.16-.45-.45,0-.38.06-2.48.1-3.73-.61.53-1.65,1.3-2.35,1.79.02.58-.1.94-.38.94-.34,0-.67-.58-.93-1.41-.06-.21,0-.38.24-.48.96-.38,2.29-1.01,3.26-1.68.06-.05.13-.08.18-.1,0-.82.02-3.59-.14-4.64-.03-.14.06-.22.21-.22.78,0,1.78.08,1.78.46,0,.26-.3.42-.8.5-.03.75-.03,3.46-.03,3.97ZM351.41,162.04c-.21,0-.35-.06-.35-.32,0-.24.14-.32.35-.32h4.15c-.02-.51-.06-1.09-.11-1.52-.02-.16.08-.22.22-.22.64,0,1.79.05,1.79.46,0,.27-.24.48-.8.54v.74h2.99c-.02-.51-.06-1.1-.1-1.52-.03-.16.08-.22.22-.22.64,0,1.81.05,1.81.46,0,.27-.26.48-.82.54v.74h2.19c.34-.5.77-1.07,1.01-1.07.32,0,1.47.96,1.47,1.34,0,.22-.26.37-.88.37h-3.78v1.36c0,.34-.26.48-.71.48-.29,0-.46-.16-.46-.43,0-.29.03-.82.03-1.41h-2.98v1.41c0,.34-.26.48-.7.48-.29,0-.45-.16-.45-.43,0-.29.03-.85.03-1.46h-4.15ZM352.03,165.53c.88.4,1.68,1.01,1.65,1.74-.02.45-.3.75-.77.74-.43-.02-.56-.45-.78-.94-.14-.35-.35-.69-.56-1.02-.21-.34,0-.69.46-.51ZM360.96,167.94v4.69h1.84c.34-.5.77-1.09,1.01-1.09.32,0,1.44.98,1.44,1.36,0,.22-.3.37-.85.37h-7.75c-.21,0-.35-.06-.35-.32,0-.24.14-.32.35-.32h3.15c.02-1.18.03-3.02.02-4.69h-3.41c-.21,0-.35-.06-.35-.32,0-.24.14-.32.35-.32h3.39c-.02-1.28-.06-2.38-.13-2.91-.02-.14.08-.22.22-.22.27,0,1.91.05,1.91.46,0,.35-.35.48-.85.59v2.08h2.14c.35-.53.8-1.15,1.06-1.15.34,0,1.47,1.01,1.47,1.41,0,.24-.34.38-.86.38h-3.81Z"/>
    <path class="cls-6" d="M373.21,164.52c.45.08,1.73.53,1.73.99,0,.26-.24.42-.87.37-.5,1.04-1.47,2.91-3.3,4.34-.4.32-.85-.03-.53-.45,1.34-1.76,2.26-3.51,2.51-4.98.05-.27.14-.34.45-.27ZM379.06,160.63c0,.26-.26.42-.82.56-.1,2.69-.05,7.7-.05,11.44-.02,1.01-.75,1.42-1.38,1.42-.58,0-.34-.61-1.87-.99-.37-.1-.3-.58.05-.54.53.05,1.02.13,1.34.13.45,0,.66-.16.69-.66.06-1.12.03-4.32.03-5.97,0-1.17,0-3.76-.19-5.65-.02-.19.1-.24.32-.24.78,0,1.87.11,1.87.5ZM381.27,164.73c2.14.83,3.44,2.43,3.44,3.52,0,.5-.22.9-.74.9-.37,0-.58-.14-.8-.61-.7-1.46-1.12-2.08-2.32-3.28-.29-.29-.03-.7.42-.53Z"/>
    <path class="cls-6" d="M392.54,163.81c0,.62-.02,1.25-.05,1.92-.08,2.47-.35,5.63-2.87,7.72-.37.34-.78.03-.46-.4,1.52-2.02,2.13-4,2.16-7.78.02-1.46-.02-3.25-.14-4.88-.02-.26.08-.34.29-.3.24.05.82.29,1.22.54h8.16c.24-.32.56-.69.74-.69.34,0,1.3.7,1.3,1.06,0,.21-.27.35-.56.48-.02.77,0,1.82.02,2.24,0,.5-.26.61-.72.61.42.24,1.1.86,1.1,1.15.02.22-.24.34-.82.34h-4.19c.18.1.29.21.29.32,0,.26-.42.37-.77.4-.22.37-.45.72-.67,1.06,1.39-.05,2.61-.16,3.67-.3-.18-.19-.35-.38-.53-.54-.19-.18-.06-.48.26-.42,1.46.24,2.26,1.01,2.42,1.73.1.4-.1.74-.53.83-.29.06-.5-.05-.67-.3-.14-.18-.29-.43-.45-.69-1.71.38-3.95.64-6.56.74-.11.35-.29.66-.54.61-.32-.05-.48-.61-.48-1.49,0-.14.08-.18.21-.18.78.03,1.52.05,2.21.03.27-.58.5-1.2.64-1.79h-2.95c-.21,0-.35-.06-.35-.32,0-.24.14-.32.35-.32h7.2c.29-.42.64-.88.87-.94-.13-.1-.19-.26-.19-.42h-8.58ZM401.31,172.86c.35-.51.8-1.14,1.06-1.15.34.02,1.52,1.01,1.52,1.41,0,.24-.3.38-.9.38h-11.09c-.21,0-.35-.06-.35-.32,0-.24.14-.32.35-.32h5.03c.02-.54.02-1.2,0-1.82h-3.52c-.21,0-.35-.06-.35-.32,0-.24.14-.32.35-.32h3.52c-.02-.62-.05-1.17-.08-1.52-.02-.14.08-.22.22-.22.27,0,1.7.06,1.7.45,0,.3-.29.42-.72.51v.78h1.68c.34-.5.78-1.07,1.02-1.07.32,0,1.47.96,1.47,1.34,0,.22-.29.37-.88.37h-3.3v1.82h3.27ZM392.54,161.32c.02.64.02,1.25.02,1.86h8.58c0-.58.02-1.39.02-1.9h-8.45l-.16.05Z"/>
    <path class="cls-6" d="M415.39,163.01c1.23-.32,3.02-.83,3.87-.82.83.02,1.15.42,1.15.74,0,.4-.51.43-1.18.45-1.33.03-2.27.18-4.05.59-.13.7-.27,1.46-.32,2.02.61-.18,1.23-.27,1.89-.27.14,0,.29,0,.45.02-.03-.35-.11-.67-.24-.98-.11-.27.13-.42.38-.24.24.18.5.4.69.75.1.18.16.37.18.64,1.71.45,2.98,1.74,2.98,3.67,0,2.51-2.48,3.7-5.52,3.79-.34.02-.45-.45-.05-.51,2.18-.38,4.37-1.36,4.4-3.51.02-1.31-.74-2.26-1.89-2.69-.03.16-.06.34-.13.53-.27.91-.94,2.42-2.16,3.59-1.17,1.12-2.63,1.79-3.63,1.79-.85,0-1.38-.46-1.38-1.84,0-1.25.75-2.56,1.68-3.41.43-.4.94-.72,1.49-.99.03-.7.11-1.44.21-2.11-1.26.32-2.19.64-2.95.64-.8,0-1.44-.91-1.5-1.54-.02-.22.16-.3.35-.19.38.22.96.64,1.52.64.72,0,1.68-.22,2.71-.48.1-.67.19-1.18.19-1.47,0-.27-.08-.35-.34-.5-.3-.18-.77-.3-.77-.54,0-.26.53-.38.94-.38.61,0,1.5.38,1.49.86,0,.27-.18.64-.37,1.41l-.1.35ZM412.61,171.35c.58,0,1.28-.27,2.06-.85-.06-.06-.13-.14-.19-.24-.45-.82-.48-1.92-.5-3.11-.42.26-.77.56-1.09.88-.66.66-1.02,1.55-1.02,2.3,0,.83.27,1.01.74,1.01ZM417.18,166.44c-.18-.02-.38-.03-.58-.03-.66,0-1.23.11-1.76.32.03,1.22.19,2.19.51,2.87.05.1.08.18.11.26.75-.75,1.36-1.94,1.57-2.64.08-.26.13-.51.14-.77Z"/>
    <path class="cls-6" d="M441.07,164.92c-.61.32-1.33.5-2.19.64.11,1.25.11,2.46-.1,3.59-.26,1.42-.8,3.31-3.7,4.1-.34.1-.5-.27-.18-.46,2.07-1.22,2.66-2.34,2.88-4.19.14-1.12.11-2.08.06-2.9-.88.08-1.86.1-2.66.1-.48,0-.75.22-1.01.54-.53.67-2.13,3.25-2.13,4.07,0,.98.4,1.36.18,1.73-.14.24-.66.19-1.02-.16-.86-.83-1.28-2.14-1.28-3.39,0-2.08.74-3.47,1.02-5.35.18-1.07-.1-1.28-.64-2.21-.13-.22.03-.43.34-.32,1.26.45,2.08,1.55,1.55,2.87-.32.8-1.33,2.96-1.33,4.48,0,.38.03.8.1,1.06.06.24.24.35.48.02.58-.74,1.47-2.29,2.14-3.14.45-.58.69-.99,1.38-1.02.8-.03,1.97-.13,2.82-.26-.06-.8-.22-1.95-.7-2.5-.38-.45-.75-.62-.75-.94,0-.21.18-.37.53-.37,1.1,0,1.42.3,1.58,1.33.08.48.14.96.21,1.44.19.3.4.4.69.46.4.08,1.06-.18,1.49-.18.67,0,.83.67.24.98Z"/>
    <path class="cls-6" d="M455.84,158.87c.18,0,.24.18.11.3-1.7,1.9-3.44,4.02-3.44,8.37,0,4.59,2.35,7.81,3.33,8.36.18.1.13.3-.08.4-.26.14-.77.22-1.12.08-1.04-.46-3.22-3.95-3.22-8.24s2.03-7.49,3.55-9c.11-.13.46-.27.86-.27Z"/>
    <path class="cls-6" d="M466.88,166.39c.22-.3.53-.66.7-.66.32,0,1.26.72,1.26,1.07,0,.22-.3.42-.61.53-.02.86-.03,2.83,0,3.76.7.86,1.55,1.26,3.34,1.44,2.08.19,5.43.08,7.94-.14.46-.05.46.43.06.53-.29.06-.35.21-.46.45-.13.24-.21.32-.56.34-1.92.13-5.19.16-7.6-.21-1.7-.29-2.58-.96-3.25-2.13-.56.74-1.15,1.46-1.7,2.15-.18.54-.42.58-.64.29-.19-.24-.43-.69-.54-1.01-.06-.21-.05-.29.19-.43.7-.37,1.47-.86,2.1-1.38.02-.88.03-3.06.03-3.95h-1.97c-.21,0-.35-.06-.35-.32,0-.24.14-.32.35-.32h1.7ZM465.95,160.96c-.24-.34-.05-.69.4-.53,1.01.35,1.92,1.02,1.94,1.86,0,.46-.26.8-.72.8s-.61-.45-.9-1.01c-.22-.42-.48-.78-.72-1.12ZM471.02,161.3c.03,1.25.02,2.48-.02,3.92-.05,2.35-.48,4.67-1.74,6.03-.37.37-.8.03-.48-.4.83-1.36,1.14-3.33,1.17-5.67,0-1.38-.02-3.23-.14-4.82-.02-.19.08-.29.29-.26.19.03.75.27,1.1.53h5.94c.24-.3.54-.62.66-.62.38,0,1.36.85,1.36,1.15,0,.19-.29.37-.62.48-.05,2.19,0,5.86-.05,8.77-.02,1.01-.59,1.41-1.22,1.41-.59,0-.26-.62-.88-.91-.32-.14-.24-.5.06-.5.14,0,.32.02.51.02.3,0,.42-.14.45-.59.06-.94.03-2.83.03-4.18v-4.39h-6.35l-.06.02ZM473.49,165.27v-1.39h-1.76c-.21,0-.35-.06-.35-.32,0-.24.14-.32.35-.32h1.76c0-.54-.02-1.04-.05-1.36-.02-.16.08-.24.22-.24.27,0,1.36.08,1.36.4,0,.19-.19.29-.53.37v.83h.66c.27-.4.59-.82.77-.82.27,0,1.14.83,1.14,1.15,0,.21-.26.3-.64.3h-1.92v1.39h.75c.26-.38.58-.78.75-.78.27,0,1.18.8,1.18,1.12.02.21-.24.3-.69.3h-4.83c-.21,0-.35-.06-.35-.32,0-.24.14-.32.35-.32h1.83ZM474.87,167.05c.18-.24.38-.45.53-.45.29,0,1.15.66,1.15.99,0,.21-.24.35-.5.45-.02.61-.02,1.71-.02,2.05,0,.5-.21.61-.62.61-.35,0-.45-.29-.45-.54v-.21h-1.94v.53c0,.35-.24.48-.67.48-.26,0-.4-.14-.4-.42,0-.88.06-2.51-.06-3.76-.02-.13.11-.22.24-.19.26.05.78.24,1.14.46h1.6ZM474.98,169.3c0-.56.02-1.23.02-1.62h-1.79l-.16.03c-.02.27-.02.99-.02,1.3v.29h1.95Z"/>
    <path class="cls-6" d="M492.3,166.58c1.41,2.58,3.7,4.07,6.18,4.64.53.11.4.38.06.51-.42.18-.54.3-.69.51-.21.32-.34.43-.77.29-1.98-.74-3.89-2.61-5.09-5.28.02,1.78.06,5.67.06,6.26,0,.37-.27.58-.8.58-.32,0-.51-.18-.51-.48,0-.59.1-3.81.13-5.7-1.26,1.98-3.55,4.11-6.4,5.2-.48.21-.71-.24-.26-.51,2.61-1.5,4.64-3.47,6-6.02h-4.69c-.21,0-.35-.06-.35-.32,0-.24.14-.32.35-.32h5.36c0-.69,0-1.65-.02-2.63h-6.31c-.21,0-.35-.06-.35-.32,0-.24.14-.32.35-.32h6.29c-.03-1.1-.08-2.16-.18-2.79-.03-.14.06-.24.22-.24,1.07,0,1.95.1,1.95.5,0,.27-.34.46-.83.58-.02.38-.02,1.12-.02,1.95h4c.35-.53.83-1.15,1.09-1.15.34,0,1.55.99,1.55,1.41,0,.22-.29.38-.93.38h-5.73v2.63h3.28c.35-.53.82-1.15,1.07-1.15.34,0,1.55.99,1.55,1.41,0,.22-.29.38-.93.38h-4.67Z"/>
    <path class="cls-6" d="M516.42,167.66c0,3.07-2.47,4.66-5.76,4.66-.56,0-.59-.5-.1-.59,2.77-.54,4.56-1.71,4.56-4.34,0-1.71-.86-3.14-2.48-3.81-.05.61-.21,1.31-.45,1.97-.93,2.56-3.6,5.75-5.52,5.75-.85,0-1.68-1.17-1.83-3.06-.16-2.02.62-3.51,1.68-4.45.94-.83,2.4-1.42,3.92-1.42,3.83,0,5.97,2.42,5.97,5.3ZM511.74,163.29c-.42-.08-.86-.13-1.34-.13-1.38,0-2.47.45-3.25,1.18-.85.8-1.36,1.94-1.26,3.52.08,1.23.51,1.98.98,1.98,1.54,0,3.84-3.12,4.59-5.27.16-.43.26-.9.29-1.3Z"/>
    <path class="cls-6" d="M535.83,169.72c0,.35-.18.56-.5.56-.37,0-.82-.4-1.57-.9-.82,1.71-2.3,3.01-5.65,3.39-.56.06-.67-.51-.11-.62,3.14-.62,4.24-2.03,4.77-3.33-.93-.51-2.22-1.1-4.23-1.18-.91,1.63-1.89,3.94-3.15,3.94-1.07,0-1.73-1.78-1.22-2.91.42-.93,1.65-1.71,3.81-1.86.93-1.57,1.94-2.91,2.43-3.63.3-.46.08-.67-.34-.54-.98.3-2.34,1.42-2.95,1.42-.69,0-1.5-.82-1.5-1.63,0-.27.21-.34.42-.18.34.24.69.46,1.09.46.67,0,2.9-1.04,3.52-1.04.71,0,1.6.56,1.6,1.01s-.56.8-1.17,1.42c-.54.56-1.33,1.54-2.05,2.69,1.38.06,2.9.48,4.1.93.06-.27.05-.45.02-.61-.1-.4-.32-.42-.32-.88,0-.16.11-.38.59-.37.58.02.94.46.98.88.02.29,0,.58-.05.88.05.51.18.74.83,1.17.38.26.64.5.64.93ZM527.5,167.66c-1.3.11-2.34.64-2.61,1.28-.26.62.02,1.3.48,1.3.75,0,1.47-1.39,2.13-2.58Z"/>
    <path class="cls-6" d="M554.23,162.68c.26-.3.59-.61.77-.61.29,0,1.34.98,1.34,1.42-.02.34-.43.35-.86.43-.43.42-.88.86-1.22,1.14-.32.26-.66.05-.48-.32.16-.38.37-.93.51-1.42h-10.24c.02.16.03.3.03.45-.05,1.2-.74,1.94-1.55,2-.37.03-.66-.19-.69-.56-.05-.64.8-.86,1.17-1.63.24-.42.18-.94.14-1.44-.02-.37.42-.45.58-.11.08.21.14.43.21.66h7.12c-.13-.05-.19-.22-.08-.45.48-.74.86-1.54,1.14-2.38.03-.14.13-.26.3-.21.53.16,1.41.67,1.38.96,0,.24-.26.32-.74.26-.4.53-.96,1.23-1.6,1.71-.08.06-.14.1-.21.11h2.98ZM552.5,169.51c.22-.3.51-.61.67-.61.32,0,1.28.7,1.28,1.06,0,.21-.26.35-.54.46-.03.93,0,2.5,0,2.98s-.26.61-.7.61c-.37,0-.5-.29-.5-.54v-.35h-7.27v.46c0,.34-.26.48-.74.48-.29,0-.43-.14-.43-.43,0-.96.08-3.17-.06-4.5-.02-.13.1-.22.22-.21.29.03,1.02.3,1.41.59h1.65c.21-.56.42-1.18.54-1.68h-1.41v.22c0,.34-.24.48-.71.48-.27,0-.42-.14-.42-.43,0-.88.06-2.56-.06-3.81-.02-.13.11-.22.24-.21.29.05.91.29,1.26.54h4.27c.21-.27.45-.51.59-.51.32,0,1.26.69,1.26,1.04,0,.21-.27.34-.54.45-.03.75,0,1.87,0,2.27,0,.5-.24.61-.69.61-.37,0-.48-.29-.48-.54v-.11h-1.65s.05.08.05.11c0,.22-.19.29-.61.32-.21.4-.46.85-.7,1.25h4.05ZM544.99,160.32c-.16-.32.05-.59.42-.42.83.45,1.57,1.17,1.49,1.89-.06.42-.34.66-.75.61-.38-.05-.48-.46-.67-.99-.13-.37-.32-.75-.48-1.09ZM552.72,172.47c0-.77.02-1.78.02-2.32h-7.28c-.02.34-.02,1.28-.02,1.55v.77h7.28ZM546.61,167.19h4.77c0-.62.02-1.46.02-1.92h-4.75c-.02.27-.03,1.01-.03,1.3v.62ZM547.9,160.04c-.13-.34.1-.59.46-.37.75.46,1.42,1.18,1.28,1.89-.1.4-.4.64-.8.54-.38-.08-.42-.5-.56-1.01-.1-.37-.26-.74-.38-1.06Z"/>
    <path class="cls-6" d="M569.42,170.06c1.41,1.34,3.46,1.89,5.52,2.23.5.06.42.38.1.5-.37.14-.51.27-.66.46-.22.32-.34.42-.75.3-1.67-.45-3.62-1.44-4.91-3.35.02,1.75.05,2.85.05,3.3,0,.34-.24.58-.77.58-.32,0-.43-.18-.43-.48,0-.45.03-1.38.05-2.83-1.36,1.25-3.34,2.45-5.78,3.14-.46.14-.67-.27-.24-.5,2.15-.94,3.89-2.05,4.99-3.35h-4.79c-.21,0-.35-.06-.35-.32,0-.24.14-.32.35-.32h5.81v-1.26h-4.48c-.21,0-.35-.06-.35-.32,0-.24.14-.32.35-.32h4.48v-1.18h-5.43c-.21,0-.35-.06-.35-.32,0-.24.14-.32.35-.32h3.76c-.34-.1-.42-.48-.54-.88-.11-.27-.24-.56-.38-.83-.13-.26-.06-.48.13-.53h-3.73c-.21,0-.35-.06-.35-.32,0-.24.14-.32.35-.32h4.77c.02-.98.02-2.32-.05-2.98-.02-.16.08-.24.22-.24.27,0,1.62.06,1.62.45,0,.26-.27.38-.69.48v2.29h1.62c.02-.98.02-2.32-.05-2.98-.02-.16.06-.24.21-.24.27,0,1.66.06,1.66.45,0,.29-.29.4-.72.5v2.27h.98c-.13-.06-.16-.22-.05-.45.48-.74.85-1.5,1.1-2.35.05-.14.14-.26.32-.19.53.18,1.38.66,1.36.94-.02.24-.26.3-.74.26-.4.56-.91,1.23-1.58,1.7-.06.05-.13.08-.19.1h1.75c.32-.46.74-1.01.96-1.01.3,0,1.41.93,1.42,1.3,0,.22-.24.35-.86.35h-3.87c.51.19,1.07.54,1.09.77,0,.24-.24.32-.74.32-.29.38-.61.8-1.02,1.15h2.26c.32-.46.72-.99.94-.99.3,0,1.41.91,1.41,1.28,0,.22-.24.35-.83.35h-4.67s.03.06.03.1c0,.18-.11.26-.35.29v.8h2.71c.29-.43.66-.9.86-.9.29,0,1.33.86,1.33,1.22,0,.21-.22.32-.8.32h-4.1v1.26h4.03c.3-.45.69-.96.91-.96.3,0,1.39.9,1.39,1.26,0,.21-.22.34-.83.34h-4.8ZM563.07,160.69c-.22-.35-.02-.69.43-.51.88.4,1.66.99,1.66,1.7-.02.43-.29.75-.72.74-.42,0-.56-.42-.8-.93-.16-.34-.37-.67-.58-.99ZM565.33,163.45c.06.02.11.03.18.06.75.4,1.39.91,1.31,1.55-.03.32-.22.56-.51.62h2.87s.02-.1.05-.16c.32-.61.58-1.25.72-1.98,0-.03.02-.06.03-.1h-4.64Z"/>
    <path class="cls-6" d="M584.56,176.75c-.18,0-.26-.18-.13-.3,1.71-1.9,3.46-4.02,3.46-8.39,0-4.59-2.37-7.8-3.33-8.34-.18-.11-.14-.3.06-.4.27-.14.77-.24,1.12-.08,1.04.46,3.23,3.95,3.23,8.24s-2.05,7.49-3.55,9c-.13.13-.48.27-.86.27Z"/>
  </g>
  <path class="cls-6" d="M260.69,167.24c1.04,1.22,2.48,2.06,4.19,2.42.53.1.35.35.06.48-.4.16-.51.29-.66.48-.18.27-.29.38-.75.22-.78-.27-1.5-.7-2.16-1.26-.08.06-.19.13-.3.18-.06,1.17.02,3.97.02,4.59,0,.5-.27.61-.72.61-.37,0-.5-.29-.5-.54v-.27h-4.21v.38c0,.35-.26.51-.74.51-.29,0-.45-.16-.45-.45.02-.99.1-3.65,0-5.31-.9.93-2.08,1.82-3.78,2.62-.43.27-.74-.18-.35-.48,2.38-1.39,3.57-2.8,4.45-4.18h-4.03c-.21,0-.35-.06-.35-.32,0-.24.14-.32.35-.32h4.43c.29-.51.51-1.04.7-1.58h-3.33c-.21,0-.35-.06-.35-.32,0-.24.14-.32.35-.32h3.51c.13-.45.21-.93.29-1.42h-4.64c-.21,0-.35-.06-.35-.32,0-.24.14-.32.35-.32h4.72c.05-.48.1-.99.13-1.52.02-.16.1-.21.26-.21.58-.02,1.73.32,1.73.66,0,.26-.21.34-.78.4l-.1.67h4.15c.34-.48.74-1.02.98-1.02.3,0,1.42.93,1.44,1.31,0,.22-.26.35-.86.35h-5.79c-.1.5-.19.98-.3,1.42h3.68c.32-.46.72-.99.94-.99.3,0,1.41.91,1.42,1.28,0,.22-.26.35-.85.35h-3.11c.22.58.5,1.1.83,1.58h2.19c.35-.51.78-1.1,1.04-1.1.32,0,1.5.98,1.5,1.38,0,.22-.26.37-.9.37h-3.36ZM255.91,167.43c-.24.37-.5.74-.78,1.1.3.11.69.27.93.45h3.59c.22-.29.5-.59.66-.61-.27-.35-.51-.74-.74-1.14h-3.52l-.13.19ZM259.91,171.21v-1.58h-4.13l-.1.02c-.02.3-.03,1.02-.03,1.57h4.26ZM259.88,173.5l.02-1.65h-4.24v.02l.02,1.63h4.21ZM257.09,165.01c-.18.54-.4,1.07-.67,1.58h2.83c-.22-.5-.43-1.02-.59-1.58h-1.57Z"/>
</svg>