<?xml version="1.0" encoding="UTF-8"?><svg xmlns="http://www.w3.org/2000/svg" viewBox="0 0 900 800"><defs><style>.cls-1,.cls-2,.cls-3{font-size:27px;letter-spacing:.1em;}.cls-1,.cls-2,.cls-3,.cls-4,.cls-5,.cls-6,.cls-7{font-family:Bahnschrift-SemiBold, Bahnschrift;font-variation-settings:'wght' 600, 'wdth' 100;font-weight:600;}.cls-1,.cls-4,.cls-5,.cls-7,.cls-8{fill:#fff;}.cls-2,.cls-6{fill:#b60000;}.cls-3{fill:#666;}.cls-4,.cls-6{font-size:14px;}.cls-5{font-size:99.28px;letter-spacing:.1em;}.cls-7{font-size:24.7px;letter-spacing:.1em;}.cls-9{fill:#46be00;}.cls-9,.cls-8,.cls-10,.cls-11{stroke-width:0px;}.cls-10{fill:#ee7c26;}.cls-11{fill:#00c1d4;}</style></defs><g id="_レイヤー_5"><rect class="cls-11" x="60.07" y="421.18" width="57.39" height="37"/><rect class="cls-11" x="60.07" y="335.58" width="57.39" height="37"/><rect class="cls-11" x="777.09" y="335.58" width="52.46" height="37"/><rect class="cls-11" x="777.09" y="421.18" width="52.46" height="37"/><rect class="cls-11" x="777.09" y="506.77" width="52.46" height="37"/><rect class="cls-11" x="60.07" y="506.77" width="57.39" height="37"/><rect class="cls-11" x="60.07" y="592.37" width="57.39" height="37"/><rect class="cls-11" x="416.78" y="592.37" width="57.39" height="37"/><rect class="cls-11" x="653.88" y="592.37" width="175.67" height="37"/><rect class="cls-11" x="60.07" y="680.27" width="57.39" height="37"/><rect class="cls-11" x="777.09" y="249" width="52.46" height="37"/></g><g id="_レイヤー_4"><text class="cls-5" transform="translate(415.73 133.62)"><tspan x="0" y="0">6</tspan></text><text class="cls-4" transform="translate(193.54 188.74)"><tspan x="0" y="0">MON</tspan></text><text class="cls-4" transform="translate(315.26 188.74)"><tspan x="0" y="0">TUE</tspan></text><text class="cls-4" transform="translate(431.47 188.74)"><tspan x="0" y="0">WED</tspan></text><text class="cls-4" transform="translate(552.44 188.74)"><tspan x="0" y="0">THU</tspan></text><text class="cls-4" transform="translate(673.52 188.74)"><tspan x="0" y="0">FRI</tspan></text><text class="cls-4" transform="translate(790.49 188.74)"><tspan x="0" y="0">SAT</tspan></text><text class="cls-3" transform="translate(193.78 451.55)"><tspan x="0" y="0">10</tspan></text><text class="cls-2" transform="translate(81.26 451.55)"><tspan x="0" y="0">9</tspan></text><text class="cls-3" transform="translate(315.62 451.55)"><tspan x="0" y="0">11</tspan></text><text class="cls-3" transform="translate(432.01 451.55)"><tspan x="0" y="0">12</tspan></text><text class="cls-3" transform="translate(550.72 451.55)"><tspan x="0" y="0">13</tspan></text><text class="cls-3" transform="translate(669.06 451.55)"><tspan x="0" y="0">14</tspan></text><text class="cls-1" transform="translate(788.26 451.55)"><tspan x="0" y="0">15</tspan></text><text class="cls-3" transform="translate(194.43 538.15)"><tspan x="0" y="0">17</tspan></text><text class="cls-2" transform="translate(75.42 538.15)"><tspan x="0" y="0">16</tspan></text><text class="cls-3" transform="translate(312.51 538.15)"><tspan x="0" y="0">18</tspan></text><text class="cls-3" transform="translate(432.05 538.15)"><tspan x="0" y="0">19</tspan></text><text class="cls-1" transform="translate(429.57 621.1)"><tspan x="0" y="0">26</tspan></text><text class="cls-3" transform="translate(548.58 621.1)"><tspan x="0" y="0">27</tspan></text><text class="cls-3" transform="translate(547.92 538.15)"><tspan x="0" y="0">20</tspan></text><text class="cls-3" transform="translate(669.76 538.15)"><tspan x="0" y="0">21</tspan></text><text class="cls-1" transform="translate(786.15 538.15)"><tspan x="0" y="0">22</tspan></text><text class="cls-3" transform="translate(191.06 621.1)"><tspan x="0" y="0">24</tspan></text><text class="cls-2" transform="translate(72.73 621.1)"><tspan x="0" y="0">23</tspan></text><text class="cls-3" transform="translate(310.27 621.1)"><tspan x="0" y="0">25</tspan></text><text class="cls-1" transform="translate(796.96 278.38)"><tspan x="0" y="0">1</tspan></text><text class="cls-3" transform="translate(199.93 365)"><tspan x="0" y="0">3</tspan></text><text class="cls-2" transform="translate(81.22 365)"><tspan x="0" y="0">2</tspan></text><text class="cls-3" transform="translate(318.27 365)"><tspan x="0" y="0">4</tspan></text><text class="cls-3" transform="translate(437.47 365)"><tspan x="0" y="0">5</tspan></text><text class="cls-3" transform="translate(556.77 365)"><tspan x="0" y="0">6</tspan></text><text class="cls-3" transform="translate(675.78 365)"><tspan x="0" y="0">7</tspan></text><text class="cls-1" transform="translate(793.86 365)"><tspan x="0" y="0">8</tspan></text><text class="cls-7" transform="translate(72.12 128.53)"><tspan x="0" y="0">2024</tspan></text><text class="cls-2" transform="translate(72.25 710.68)"><tspan x="0" y="0">30</tspan></text><text class="cls-1" transform="translate(666.66 621.1)"><tspan x="0" y="0">28</tspan></text><text class="cls-1" transform="translate(786.2 621.1)"><tspan x="0" y="0">29</tspan></text><text class="cls-6" transform="translate(75.74 188.74)"><tspan x="0" y="0">SUN</tspan></text><path class="cls-8" d="M772.6,100.58c.39-.58.92-1.27,1.2-1.27.37,0,1.72,1.1,1.72,1.56,0,.25-.3.42-1.03.42h-6.51v.73c0,.39.02,2.03.02,2.37,0,.39-.32.48-.8.48-.28,0-.48-.14-.48-.44,0-.34.07-2.03.07-2.51v-.62h-7.25c-.23,0-.39-.07-.39-.35,0-.27.16-.35.39-.35h7.23c0-.53-.04-1.1-.07-1.45-.02-.16.07-.25.23-.25.67,0,1.96.07,1.96.5,0,.3-.35.48-.9.55,0,.14-.02.37-.02.65h4.62ZM759.92,95.82c.25.07.58.21.78.27.19.05.28,0,.42-.23.34-.53.99-1.77,1.29-2.32.23-.39.76-.21.64.25-.3,1.08-1.08,2.62-1.08,3.11s.23.88.23,1.63c0,.69-.35,1.04-.9,1.04-.51,0-.65-.46-.65-.78,0-.28.11-.9-.02-1.33-.18-.55-.53-.76-.97-1.13-.28-.25-.04-.62.27-.51ZM759.69,91.98c-.3-.34-.12-.76.39-.62.96.25,1.82.65,1.91,1.41.05.46-.19.83-.67.9-.44.05-.62-.39-.92-.83-.21-.32-.48-.58-.71-.87ZM761.43,89.42c-.25-.37-.05-.76.46-.6.94.28,1.82.78,1.84,1.57.02.5-.27.85-.78.87-.46.02-.62-.46-.88-.9-.19-.34-.42-.64-.64-.94ZM766.43,98.83c0,.39-.27.58-.78.58-.32,0-.48-.18-.48-.5.02-.62.07-3.66.04-5.68-.5.67-1.08,1.33-1.75,1.89-.39.34-.76,0-.44-.42,1.54-1.87,2.58-3.94,2.9-5.64.04-.19.14-.25.34-.23.6.09,1.57.48,1.59.81,0,.25-.25.35-.76.35-.12.28-.3.64-.5,1.03.05.04.12.07.18.11h2.21c.3-.57.62-1.19.76-1.98.02-.16.12-.3.32-.27.64.11,1.56.5,1.59.8.02.25-.19.39-.74.42-.27.41-.55.74-.83,1.03h2.33c.34-.48.76-1.03.99-1.03.32,0,1.5.97,1.5,1.36,0,.25-.28.37-.9.37h-3.36v.02c0,.18-.11.3-.34.39v.97h1.63c.3-.46.69-.94.9-.94.3,0,1.41.92,1.41,1.29.02.25-.25.35-.85.35h-3.09v1.47h1.63c.3-.46.69-.94.9-.94.3,0,1.41.92,1.41,1.29.02.25-.25.35-.85.35h-3.09v1.5h2.58c.34-.5.76-1.06,1.01-1.06.34,0,1.54.99,1.54,1.4,0,.23-.28.37-.92.37h-8.08v.51ZM769.14,93.22v-1.38h-2.37c-.09.04-.19.05-.32.07-.02.27-.02.78-.04,1.31h2.72ZM769.14,93.93h-2.72v1.47h2.72v-1.47ZM769.14,96.11h-2.72l.02,1.5h2.71v-1.5Z"/><path class="cls-8" d="M792.85,91.95c.3.16.55.37.55.55,0,.21-.25.32-.76.35-.28.88-.65,1.63-1.26,2.32.83.6,1.89.99,3.22,1.19.58.09.37.35.05.5-.42.18-.55.32-.71.53-.18.27-.27.41-.85.21-1.08-.3-1.95-.85-2.64-1.57-.87.67-2.02,1.2-3.48,1.5-.53.11-.65-.37-.19-.58,1.43-.5,2.33-1.01,3.06-1.7-.5-.78-.85-1.7-1.08-2.72-.19.21-.41.41-.64.6-.14.11-.28.14-.39.12.3.28.58.64.58.83,0,.23-.25.32-.67.32h-1.52c-.05.46-.11.96-.18,1.38h.18c.27-.41.57-.8.74-.8.28,0,1.15.87,1.17,1.19,0,.25-.27.32-.65.32h-1.59l-.04.11c-.35,1.11-1.2,1.26-1.68,1.26-.23,0-.32-.11-.44-.25s-.21-.19-.39-.25c-.42-.12-.34-.51.04-.5.28.02.5.04.85.04.3,0,.46-.16.57-.41h-3.77l-.05.19c-.09.37-.48.53-.88.48-.32-.04-.42-.18-.35-.48.07-.3.35-1.24.6-2.28h-1.22c-.23,0-.39-.07-.39-.35,0-.27.16-.35.39-.35h1.36c.14-.69.23-1.4.28-1.91-.41.44-.87.88-1.4,1.24-.42.28-.74-.04-.46-.42,1.03-1.17,1.75-2.37,2.1-3.59.05-.18.16-.27.37-.21.62.12,1.49.53,1.49.83,0,.25-.21.35-.78.35l-.16.27h3.7c.34-.48.76-1.03.99-1.03.32,0,1.49.97,1.5,1.36,0,.25-.3.37-.9.37h-5.78c-.09.12-.19.27-.3.41h.02c.19.07.51.21.78.39h3.32c.16-.19.34-.34.44-.34.35,0,1.15.71,1.15.97,0,.19-.21.35-.5.5-.02.23-.04.5-.05.81h.14c.28-.42.6-.83.78-.83.11,0,.27.09.44.23-.04-.09-.02-.21.07-.35.83-1.19,1.43-2.44,1.7-3.63.04-.16.14-.27.39-.23.65.11,1.43.39,1.43.67,0,.23-.14.35-.69.44-.19.37-.44.81-.73,1.26h2.87c.32-.5.73-1.03.96-1.03.34,0,1.43.97,1.45,1.36,0,.25-.32.37-.85.37h-1.31ZM784.89,103.09c-.04.28-.58.25-1.03.16-.96.55-2.44,1.2-3.84,1.52-.46.09-.65-.35-.23-.58,1.45-.73,2.39-1.33,3.29-2.21.16-.14.25-.16.41-.07.6.28,1.47.83,1.4,1.19ZM784.65,100.53c.48,0,.94-.02,1.38-.04.97-.83,1.73-1.68,2.44-2.79.05-.14.21-.14.35-.11.73.3,1.56.83,1.45,1.18-.07.25-.48.23-.87.14-.55.44-1.26,1.03-1.98,1.52,1.41-.07,2.69-.18,3.86-.28-.18-.18-.37-.34-.57-.46-.23-.18-.12-.53.23-.5,1.65.14,2.53.94,2.78,1.59.14.42-.04.81-.44.96-.3.11-.51,0-.76-.25-.18-.19-.37-.46-.6-.73-1.22.25-2.63.42-4.1.55.11.07.18.14.18.25,0,.27-.23.35-.57.41v2.35c0,.37-.27.51-.76.51-.28,0-.48-.16-.48-.46,0-.28.02-.73.02-1.29,0-.5-.05-1.17-.11-1.63-1.73.09-3.54.14-5.27.16-.14.39-.35.73-.62.69-.37-.07-.51-.71-.5-1.66.02-.16.09-.21.23-.19,1.52.07,2.94.09,4.26.09-.09-.05-.18-.11-.28-.19-.23-.21-.5-.55-.81-.83-.3-.25-.62-.57-.94-.76-.19-.16-.11-.51.25-.5.92.07,1.61.34,2.05.67.37-.5.64-1.01.9-1.57.05-.12.19-.14.34-.09.64.28,1.4.85,1.31,1.15-.05.21-.44.18-.78.11-.34.3-.83.71-1.24,1.01l.02.05c.18.39.04.78-.35.94h-.02ZM781.37,94.39c-.09.44-.19.92-.28,1.38h1.36l.23-1.38h-1.31ZM781.78,92.44c-.05.19-.14.65-.27,1.24h1.29l.21-1.24h-1.24ZM784.89,95.77c.09-.41.16-.88.21-1.38h-1.36l-.23,1.38h1.38ZM783.85,93.68h1.33c.04-.46.04-.9.04-1.24h-.76c-.07.11-.21.19-.42.25l-.18.99ZM792.92,103.43c.21.44.14.88-.27,1.08-.46.23-.9-.19-1.57-.73-.5-.41-1.01-.74-1.52-1.03-.35-.21-.32-.65.19-.65,1.24,0,2.74.5,3.17,1.33ZM791.6,91.95h-2.26c.25.99.65,1.82,1.26,2.49.51-.69.81-1.4.99-2.42l.02-.07Z"/><path class="cls-8" d="M799.8,94.5c.05,1.18-.41,2.32-1.29,2.37-.39.02-.71-.23-.73-.64-.05-.76.62-.83.92-1.91.14-.44.11-1.03.09-1.43s.48-.46.64-.11c.19.48.34,1.11.37,1.72ZM801.57,96.65c0,1.27.07,6.79.07,7.53,0,.41-.27.62-.85.62-.35,0-.55-.19-.55-.53,0-.8.18-5.91.18-7.25,0-.76.05-5.96-.25-7.75-.04-.16.07-.25.23-.25,1.18,0,2.12.11,2.12.55,0,.3-.37.5-.92.62-.04,1.26-.04,5.75-.04,6.46ZM803.89,94.73c-.14.44-.57.67-1.03.51-.44-.14-.42-.6-.5-1.11-.05-.34-.16-.71-.25-1.04-.11-.42.21-.73.65-.39.73.58,1.36,1.31,1.11,2.03ZM807.65,93.49c-.07.3-.55.46-.95.55v7.87c0,.87.09.94,2.92.94,2.55-.02,3.47-.27,4.05-.27.39,0,.55.18.55.5,0,.3-.14.62-.57.74-.62.16-2.1.27-4.05.27-3.8,0-4.16-.37-4.16-1.95,0-.81.07-6.74-.07-8.65h-1.38c-.23,0-.39-.07-.39-.35,0-.27.16-.35.39-.35h4.09c.02-1.1.02-2.69-.09-3.43-.02-.18.09-.27.25-.27.3,0,2.09.05,2.09.53,0,.37-.39.51-.94.64v2.53h2.42c.37-.55.85-1.18,1.11-1.18.35,0,1.56,1.06,1.56,1.49,0,.27-.34.41-.92.41h-5.91Z"/><path class="cls-8" d="M773.4,119.9c.3.16.55.37.55.55,0,.21-.25.32-.76.35-.28.88-.65,1.63-1.26,2.32.83.6,1.89.99,3.22,1.19.58.09.37.35.05.5-.42.18-.55.32-.71.53-.18.27-.27.41-.85.21-1.08-.3-1.95-.85-2.64-1.57-.87.67-2.02,1.2-3.48,1.5-.53.11-.65-.37-.19-.58,1.43-.5,2.33-1.01,3.06-1.7-.5-.78-.85-1.7-1.08-2.72-.19.21-.41.41-.64.6-.14.11-.28.14-.39.12.3.28.58.64.58.83,0,.23-.25.32-.67.32h-1.52c-.05.46-.11.96-.18,1.38h.18c.27-.41.57-.8.74-.8.28,0,1.15.87,1.17,1.19,0,.25-.27.32-.65.32h-1.59l-.04.11c-.35,1.11-1.2,1.26-1.68,1.26-.23,0-.32-.11-.44-.25s-.21-.19-.39-.25c-.42-.12-.34-.51.04-.5.28.02.5.04.85.04.3,0,.46-.16.57-.41h-3.77l-.05.19c-.09.37-.48.53-.88.48-.32-.04-.42-.18-.35-.48.07-.3.35-1.24.6-2.28h-1.22c-.23,0-.39-.07-.39-.35,0-.27.16-.35.39-.35h1.36c.14-.69.23-1.4.28-1.91-.41.44-.87.88-1.4,1.24-.42.28-.74-.04-.46-.42,1.03-1.17,1.75-2.37,2.1-3.59.05-.18.16-.27.37-.21.62.12,1.49.53,1.49.83,0,.25-.21.35-.78.35l-.16.27h3.7c.34-.48.76-1.03.99-1.03.32,0,1.49.97,1.5,1.36,0,.25-.3.37-.9.37h-5.78c-.09.12-.19.27-.3.41h.02c.19.07.51.21.78.39h3.32c.16-.19.34-.34.44-.34.35,0,1.15.71,1.15.97,0,.19-.21.35-.5.5-.02.23-.04.5-.05.81h.14c.28-.42.6-.83.78-.83.11,0,.27.09.44.23-.04-.09-.02-.21.07-.35.83-1.19,1.43-2.44,1.7-3.63.04-.16.14-.27.39-.23.65.11,1.43.39,1.43.67,0,.23-.14.35-.69.44-.19.37-.44.81-.73,1.26h2.87c.32-.5.73-1.03.96-1.03.34,0,1.43.97,1.45,1.36,0,.25-.32.37-.85.37h-1.31ZM765.44,131.04c-.04.28-.58.25-1.03.16-.96.55-2.44,1.2-3.84,1.52-.46.09-.65-.35-.23-.58,1.45-.73,2.39-1.33,3.29-2.21.16-.14.25-.16.41-.07.6.28,1.47.83,1.4,1.19ZM765.19,128.47c.48,0,.94-.02,1.38-.04.97-.83,1.73-1.68,2.44-2.79.05-.14.21-.14.35-.11.73.3,1.56.83,1.45,1.18-.07.25-.48.23-.87.14-.55.44-1.26,1.03-1.98,1.52,1.41-.07,2.69-.18,3.85-.28-.18-.18-.37-.34-.57-.46-.23-.18-.12-.53.23-.5,1.65.14,2.53.94,2.78,1.59.14.42-.04.81-.44.96-.3.11-.51,0-.76-.25-.18-.19-.37-.46-.6-.73-1.22.25-2.63.42-4.1.55.11.07.18.14.18.25,0,.27-.23.35-.57.41v2.35c0,.37-.27.51-.76.51-.28,0-.48-.16-.48-.46,0-.28.02-.73.02-1.29,0-.5-.05-1.17-.11-1.63-1.73.09-3.54.14-5.27.16-.14.39-.35.73-.62.69-.37-.07-.51-.71-.5-1.66.02-.16.09-.21.23-.19,1.52.07,2.94.09,4.26.09-.09-.05-.18-.11-.28-.19-.23-.21-.5-.55-.81-.83-.3-.25-.62-.57-.94-.76-.19-.16-.11-.51.25-.5.92.07,1.61.34,2.05.67.37-.5.64-1.01.9-1.57.05-.12.19-.14.34-.09.64.28,1.4.85,1.31,1.15-.05.21-.44.18-.78.11-.34.3-.83.71-1.24,1.01l.02.05c.18.39.04.78-.35.94h-.02ZM761.92,122.34c-.09.44-.19.92-.28,1.38h1.36l.23-1.38h-1.31ZM762.33,120.39c-.05.19-.14.65-.27,1.24h1.29l.21-1.24h-1.24ZM765.44,123.71c.09-.41.16-.88.21-1.38h-1.36l-.23,1.38h1.38ZM764.4,121.63h1.33c.04-.46.04-.9.04-1.24h-.76c-.07.11-.21.19-.42.25l-.18.99ZM773.47,131.37c.21.44.14.88-.27,1.08-.46.23-.9-.19-1.57-.73-.5-.41-1.01-.74-1.52-1.03-.35-.21-.32-.65.19-.65,1.24,0,2.74.5,3.17,1.33ZM772.14,119.9h-2.26c.25.99.65,1.82,1.26,2.49.51-.69.81-1.4.99-2.42l.02-.07Z"/><path class="cls-8" d="M780.35,122.44c.05,1.18-.41,2.32-1.29,2.37-.39.02-.71-.23-.73-.64-.05-.76.62-.83.92-1.91.14-.44.11-1.03.09-1.43s.48-.46.64-.11c.19.48.34,1.11.37,1.72ZM782.12,124.6c0,1.27.07,6.79.07,7.53,0,.41-.27.62-.85.62-.35,0-.55-.19-.55-.53,0-.8.18-5.91.18-7.25,0-.76.05-5.96-.25-7.75-.04-.16.07-.25.23-.25,1.18,0,2.12.11,2.12.55,0,.3-.37.5-.92.62-.04,1.26-.04,5.75-.04,6.46ZM784.43,122.67c-.14.44-.57.67-1.03.51-.44-.14-.42-.6-.5-1.11-.05-.34-.16-.71-.25-1.04-.11-.42.21-.73.65-.39.73.58,1.36,1.31,1.11,2.03ZM788.2,121.43c-.07.3-.55.46-.95.55v7.87c0,.87.09.94,2.92.94,2.55-.02,3.47-.27,4.05-.27.39,0,.55.18.55.5,0,.3-.14.62-.57.74-.62.16-2.1.27-4.05.27-3.8,0-4.16-.37-4.16-1.95,0-.81.07-6.74-.07-8.65h-1.38c-.23,0-.39-.07-.39-.35,0-.27.16-.35.39-.35h4.09c.02-1.1.02-2.69-.09-3.43-.02-.18.09-.27.25-.27.3,0,2.09.05,2.09.53,0,.37-.39.51-.94.64v2.53h2.42c.37-.55.85-1.18,1.11-1.18.35,0,1.56,1.06,1.56,1.49,0,.27-.34.41-.92.41h-5.91Z"/><path class="cls-8" d="M809.62,118.89c.3-.39.65-.81.88-.81.41,0,1.56.87,1.56,1.27,0,.27-.34.46-.73.6-.12,2.6.07,10.4.07,11.71,0,.55-.39.69-.9.69-.42,0-.57-.32-.57-.6v-.76h-7.27v.97c0,.41-.27.64-.85.64-.37,0-.53-.21-.53-.53,0-2.12.21-11.14-.07-13.71-.02-.12.09-.25.25-.25.27,0,1.4.39,1.82.78h6.33ZM809.99,124.6c0-2.16.02-4.17,0-5h-7.09l-.18.04c-.07.94-.09,3.71-.09,4.97h7.36ZM809.95,130.28c0-1.26.02-3.11.04-4.97h-7.36l.04,4.97h7.29Z"/><path class="cls-8" d="M761.67,68.59c.25-.34.57-.71.76-.71.35,0,1.36.78,1.36,1.17,0,.25-.32.46-.65.58-.02.94-.04,3.02,0,4.07.5.81,1.15,1.31,2.97,1.49,2.18.23,6.44.12,9.16-.11.51-.05.5.46.05.57-.34.07-.39.21-.53.46-.14.28-.23.35-.62.39-2.03.12-6.15.19-8.7-.23-1.57-.3-2.35-1.08-2.86-2.19-.74.8-1.57,1.64-2.25,2.37-.23.55-.5.58-.73.27-.19-.27-.46-.78-.55-1.13-.09-.23-.07-.32.23-.46.8-.37,1.82-.95,2.62-1.5.02-.99.04-3.34.04-4.32h-2.28c-.23,0-.39-.07-.39-.35,0-.27.16-.35.39-.35h1.98ZM760.58,62.41c-.27-.37-.05-.76.46-.6,1.13.39,2.19,1.15,2.21,2.1,0,.53-.3.9-.83.9-.5,0-.69-.5-1.03-1.13-.25-.46-.55-.9-.81-1.27ZM765.12,62.5c-.23,0-.39-.07-.39-.35,0-.27.16-.35.39-.35h7.14c.3-.28.67-.58.87-.57.34.02,1.36.97,1.33,1.5-.02.37-.6.3-1.01.32-.65.39-1.68,1.03-2.62,1.61l.05.09c.14.27.14.51.02.71h2.03c.23-.28.5-.57.6-.57.42,0,1.47.94,1.47,1.27,0,.23-.34.41-.71.55-.04,1.59,0,4.14-.04,6.26,0,1.06-.74,1.5-1.43,1.5s-.27-.65-1.2-.97c-.35-.16-.3-.58.04-.58.12,0,.65.07.92.07.39,0,.53-.16.57-.58.02-.35.02-.85.04-1.38h-2.94l.02,2.85c0,.39-.27.51-.74.51-.28,0-.46-.16-.46-.48,0-.23.04-1.75.05-2.88h-2.76l.02,2.86c0,.39-.25.58-.76.58-.3,0-.46-.18-.46-.5,0-1.54.16-6.88-.07-8.84-.02-.14.11-.25.27-.23.27.02.94.28,1.33.55h3.11c-.25-.23-.55-.51-.9-.8-.35-.27-.74-.55-1.11-.78-.27-.14-.16-.55.21-.51,1.06.12,1.82.44,2.32.78.62-.51,1.24-1.03,1.84-1.65h-7.02ZM766.41,66.16c-.02.34-.04.97-.05,1.64h2.76c0-.6-.02-1.2-.07-1.64h-2.63ZM769.14,70.32v-1.8h-2.78v1.8h2.78ZM773.19,70.32v-1.8h-2.92l-.02,1.54v.27h2.94ZM770.82,66.16c-.02.18-.19.3-.53.35,0,.25-.02.74-.02,1.29h2.92v-1.64h-2.37Z"/><path class="cls-8" d="M792.27,64.52c.3-.37.76-.81.97-.81.32,0,1.49,1.03,1.49,1.54-.02.35-.48.39-.96.5-.5.42-1.03.87-1.43,1.15-.37.27-.71,0-.5-.39.19-.39.41-.85.57-1.27h-11.18v.02c0,1.1-.57,2.19-1.56,2.19-.44,0-.73-.32-.73-.74,0-.8.78-.74,1.17-1.77.16-.42.09-.97.09-1.38-.02-.39.44-.5.64-.11.14.3.27.67.34,1.08h4.99c.02-1.15,0-2.62-.09-3.32-.02-.18.09-.27.25-.27.3,0,1.98.05,1.98.51,0,.37-.37.51-.92.64v2.44h4.88ZM790.99,71.56c.28-.37.64-.78.76-.78.44,0,1.63,1.01,1.63,1.34,0,.27-.41.48-.83.62,0,.64.02,1.5,0,2.37,0,.99-.8,1.43-1.5,1.43s-.28-.58-1.17-.9c-.37-.16-.32-.57.02-.57.14,0,.67.05.88.05.39,0,.53-.14.57-.5.04-.48.04-1.08.04-1.59v-.78h-3.98v.58c0,1.7.05,2.9.05,3.4,0,.37-.27.64-.85.64-.35,0-.48-.19-.48-.53,0-.57.05-1.75.05-3.5v-.58h-3.68c-.02.37-.02,1.5-.02,1.79,0,.3.02,1.77.02,2.09,0,.37-.28.53-.83.53-.32,0-.48-.16-.48-.46,0-1.08.09-3.54-.07-5.02-.02-.14.11-.25.25-.23.3.04,1.04.32,1.47.6h3.34v-1.54h-2.09v.11c0,.37-.27.53-.76.53-.28,0-.44-.16-.44-.48,0-.95.07-2.67-.07-4.03-.02-.14.12-.25.27-.21.34.04,1.08.34,1.43.64h4.74c.23-.34.55-.69.73-.69.34,0,1.29.73,1.29,1.1,0,.19-.25.35-.53.46-.02.69,0,1.96,0,2.37,0,.55-.25.67-.71.67-.34,0-.48-.23-.5-.46h-1.82s.05.07.05.12c0,.14-.12.25-.37.32v1.1h3.59ZM782.38,61.85c-.19-.41.07-.76.57-.51.83.39,1.65.96,1.5,1.73-.07.5-.46.8-.99.71-.46-.07-.53-.53-.69-.99-.11-.3-.25-.64-.39-.94ZM784.1,69.31h5.43l.04-2.03h-5.45c-.02.34-.02,1.01-.02,1.29v.74ZM789.35,63.62c.39-.71.69-1.41.87-2.23.04-.16.16-.28.34-.23.62.18,1.63.76,1.63,1.06,0,.27-.28.37-.81.34-.37.48-.85,1.01-1.47,1.43-.41.3-.74.05-.55-.37Z"/><rect class="cls-9" x="656.13" y="83.44" width="88.43" height="25.06"/><rect class="cls-10" x="656.13" y="111.88" width="88.43" height="25.06"/><rect class="cls-11" x="656.13" y="55" width="88.43" height="25.06"/></g></svg>