<?xml version="1.0" encoding="UTF-8"?>
<svg id="_レイヤー_5" data-name="レイヤー 5" xmlns="http://www.w3.org/2000/svg" width="780" height="536.93" viewBox="0 0 780 536.93">
  <defs>
    <style>
      .cls-1 {
        font-size: 22.88px;
      }

      .cls-1, .cls-2, .cls-3, .cls-4, .cls-5, .cls-6, .cls-7, .cls-8, .cls-9, .cls-10 {
        isolation: isolate;
      }

      .cls-1, .cls-2, .cls-4, .cls-5, .cls-6, .cls-7, .cls-8, .cls-9, .cls-10 {
        font-family: Bahnschrift, Bahnschrift;
        font-variation-settings: 'wght' 400, 'wdth' 100;
      }

      .cls-1, .cls-2, .cls-9, .cls-11, .cls-10 {
        fill: #fff;
      }

      .cls-2, .cls-6, .cls-7 {
        font-size: 12.97px;
      }

      .cls-12 {
        letter-spacing: .07em;
      }

      .cls-13 {
        fill: #46be00;
      }

      .cls-13, .cls-14, .cls-15, .cls-16, .cls-11 {
        stroke-width: 0px;
      }

      .cls-14 {
        fill: #ee7c26;
      }

      .cls-17 {
        letter-spacing: 0em;
      }

      .cls-15 {
        fill: #544742;
      }

      .cls-18 {
        letter-spacing: 0em;
      }

      .cls-19 {
        letter-spacing: 0em;
      }

      .cls-4, .cls-20, .cls-5, .cls-9 {
        letter-spacing: .1em;
      }

      .cls-4, .cls-5, .cls-8, .cls-9 {
        font-size: 25.01px;
      }

      .cls-4, .cls-6 {
        fill: #b60000;
      }

      .cls-21 {
        letter-spacing: -.02em;
      }

      .cls-22 {
        letter-spacing: .07em;
      }

      .cls-5, .cls-8 {
        fill: #666;
      }

      .cls-7 {
        fill: #840000;
      }

      .cls-16 {
        fill: #00c1d4;
      }

      .cls-23 {
        letter-spacing: 0em;
      }

      .cls-24 {
        letter-spacing: .02em;
      }

      .cls-25 {
        letter-spacing: .1em;
      }

      .cls-10 {
        font-size: 91.96px;
        letter-spacing: .1em;
      }

      .cls-26 {
        letter-spacing: .1em;
      }
    </style>
  </defs>
  <g id="_レイヤー_6" data-name=" レイヤー 6">
    <path class="cls-11" d="M690.51,48.02c.36-.54.85-1.18,1.11-1.18.34,0,1.58,1.02,1.58,1.44,0,.23-.28.39-.95.39h-6.03v.68c0,.36.02,1.88.02,2.2,0,.36-.3.44-.74.44-.26,0-.44-.13-.44-.41,0-.31.06-1.88.06-2.32v-.57h-6.72c-.21,0-.36-.06-.36-.32s.15-.32.36-.32h6.7c0-.49-.04-1.02-.06-1.34-.02-.15.06-.23.21-.23.62,0,1.82.06,1.82.46,0,.28-.32.44-.83.51,0,.13-.02.34-.02.6h4.28l.02-.02ZM678.76,43.61c.23.06.54.19.72.25.18.05.26,0,.39-.21.31-.49.92-1.64,1.19-2.15.21-.36.7-.19.59.23-.28,1-1,2.43-1,2.88s.21.82.21,1.51c0,.64-.32.96-.83.96-.47,0-.6-.43-.6-.72,0-.26.1-.83-.02-1.23-.17-.51-.49-.7-.9-1.05-.26-.23-.04-.57.25-.47h0ZM678.55,40.05c-.28-.31-.11-.7.36-.57.89.23,1.69.6,1.77,1.31.05.43-.18.77-.62.83-.41.05-.57-.36-.85-.77-.19-.3-.44-.54-.66-.81h0ZM680.16,37.68c-.23-.34-.05-.7.43-.56.87.26,1.69.72,1.7,1.45.02.46-.25.79-.72.81-.43.02-.57-.43-.82-.83-.19-.31-.4-.59-.59-.87ZM684.79,46.4c0,.36-.25.54-.72.54-.3,0-.44-.17-.44-.46.02-.57.06-3.39.04-5.26-.46.62-1,1.23-1.62,1.75-.36.31-.7,0-.41-.39,1.43-1.73,2.39-3.65,2.69-5.22.04-.18.13-.23.31-.21.56.08,1.45.44,1.47.75,0,.23-.23.32-.7.32-.11.26-.28.59-.45.95.05.04.11.06.17.1h2.05c.28-.53.57-1.1.7-1.83.02-.15.11-.28.3-.25.59.1,1.44.46,1.47.74.02.23-.18.36-.69.39-.25.38-.51.69-.77.95h2.16c.31-.44.7-.95.92-.95.3,0,1.39.9,1.39,1.26,0,.23-.26.34-.83.34h-3.11v.02c0,.17-.1.28-.31.36v.9h1.51c.28-.43.64-.87.83-.87.28,0,1.31.85,1.31,1.19.02.23-.23.32-.79.32h-2.87v1.36h1.51c.28-.43.64-.87.83-.87.28,0,1.31.85,1.31,1.19.02.23-.23.32-.79.32h-2.87v1.39h2.39c.31-.46.7-.98.94-.98.31,0,1.43.92,1.43,1.3,0,.21-.26.34-.85.34h-7.48v.5ZM687.3,41.2v-1.28h-2.2c-.08.04-.18.05-.3.06-.02.25-.02.72-.04,1.21h2.53ZM687.3,41.86h-2.52v1.36h2.52v-1.36ZM687.3,43.88h-2.52l.02,1.39h2.51v-1.39h0Z"/>
    <path class="cls-11" d="M709.26,40.03c.28.15.51.34.51.51,0,.19-.23.3-.7.32-.26.82-.6,1.51-1.16,2.15.77.56,1.75.92,2.98,1.1.54.08.34.32.05.46-.39.17-.51.3-.66.49-.17.25-.25.38-.79.19-1-.28-1.81-.79-2.45-1.45-.81.62-1.87,1.11-3.22,1.39-.49.1-.6-.34-.19-.54,1.32-.46,2.16-.94,2.83-1.57-.46-.72-.79-1.57-1-2.52-.18.19-.38.38-.59.56-.13.1-.26.13-.36.11.28.26.54.59.54.77,0,.21-.23.3-.62.3h-1.41c-.05.43-.1.89-.17,1.28h.17c.25-.38.53-.74.69-.74.26,0,1.07.81,1.08,1.1,0,.23-.25.3-.6.3h-1.47l-.04.1c-.32,1.03-1.11,1.17-1.56,1.17-.21,0-.3-.1-.41-.23s-.19-.18-.36-.23c-.39-.11-.31-.47.04-.46.26.02.46.04.79.04.28,0,.43-.15.53-.38h-3.49l-.05.18c-.08.34-.44.49-.82.44-.3-.04-.39-.17-.32-.44s.32-1.15.56-2.11h-1.13c-.21,0-.36-.06-.36-.32s.15-.32.36-.32h1.26c.13-.64.21-1.3.26-1.77-.38.41-.81.82-1.3,1.15-.39.26-.69-.04-.43-.39.95-1.08,1.62-2.2,1.95-3.33.05-.17.15-.25.34-.19.57.11,1.38.49,1.38.77,0,.23-.19.32-.72.32l-.15.25h3.43c.31-.44.7-.95.92-.95.3,0,1.38.9,1.39,1.26,0,.23-.28.34-.83.34h-5.35c-.08.11-.18.25-.28.38h.02c.18.06.47.19.72.36h3.08c.15-.18.31-.31.41-.31.32,0,1.07.66,1.07.9,0,.18-.19.32-.46.46-.02.21-.04.46-.05.75h.13c.26-.39.56-.77.72-.77.1,0,.25.08.41.21-.04-.08-.02-.19.06-.32.77-1.1,1.32-2.26,1.57-3.36.04-.15.13-.25.36-.21.6.1,1.32.36,1.32.62,0,.21-.13.32-.64.41-.18.34-.41.75-.68,1.17h2.66c.3-.46.68-.95.89-.95.31,0,1.32.9,1.34,1.26,0,.23-.3.34-.79.34h-1.21,0ZM701.89,50.35c-.04.26-.54.23-.95.15-.89.51-2.26,1.11-3.56,1.41-.43.08-.6-.32-.21-.54,1.34-.68,2.21-1.23,3.05-2.05.15-.13.23-.15.38-.06.56.26,1.36.77,1.3,1.1h0ZM701.67,47.97c.44,0,.87-.02,1.28-.04.9-.77,1.6-1.56,2.26-2.58.05-.13.19-.13.32-.1.68.28,1.44.77,1.34,1.09-.06.23-.44.21-.81.13-.51.41-1.16.95-1.83,1.41,1.32-.06,2.49-.17,3.58-.26-.17-.17-.34-.31-.53-.43-.21-.17-.11-.49.21-.46,1.52.13,2.34.87,2.58,1.47.13.39-.04.75-.41.89-.28.1-.47,0-.7-.23-.17-.18-.34-.43-.56-.68-1.13.23-2.44.39-3.8.51.1.06.17.13.17.23,0,.25-.21.32-.53.38v2.18c0,.34-.24.47-.7.47-.26,0-.44-.15-.44-.43,0-.26.02-.68.02-1.19,0-.46-.05-1.08-.1-1.51-1.6.08-3.28.13-4.88.15-.13.36-.32.68-.57.64-.34-.06-.47-.66-.46-1.54.02-.15.08-.19.21-.18,1.41.06,2.72.08,3.95.08-.08-.05-.17-.1-.26-.18-.21-.19-.45-.51-.75-.77-.28-.23-.57-.53-.87-.7-.19-.15-.1-.47.23-.46.85.06,1.49.31,1.9.62.34-.46.59-.94.83-1.45.05-.11.18-.13.31-.08.59.26,1.3.79,1.21,1.07-.05.19-.41.17-.72.1-.31.28-.77.66-1.15.94l.02.05c.17.36.04.72-.32.87h-.02ZM698.63,42.29c-.08.41-.18.85-.26,1.28h1.26l.21-1.28h-1.21,0ZM699.01,40.48c-.05.18-.13.6-.25,1.15h1.19l.19-1.15h-1.15,0ZM701.89,43.57c.08-.38.15-.82.19-1.28h-1.26l-.21,1.28h1.28,0ZM700.93,41.63h1.23c.04-.43.04-.83.04-1.15h-.7c-.06.1-.19.18-.39.23l-.17.92h0ZM709.33,50.66c.19.41.13.82-.24,1-.43.21-.83-.18-1.45-.68-.46-.38-.94-.69-1.41-.95-.32-.19-.3-.6.18-.6,1.15,0,2.54.46,2.94,1.23h0ZM708.11,40.03h-2.09c.23.92.6,1.69,1.17,2.31.47-.64.75-1.3.92-2.24l.02-.06h0Z"/>
    <path class="cls-11" d="M715.7,42.39c.05,1.09-.38,2.15-1.19,2.2-.36.02-.66-.21-.68-.59-.05-.7.57-.77.85-1.77.13-.41.1-.95.08-1.32s.44-.43.59-.1c.18.44.31,1.03.34,1.59h0ZM717.34,44.38c0,1.18.06,6.29.06,6.97,0,.38-.24.57-.79.57-.32,0-.51-.18-.51-.49,0-.74.17-5.47.17-6.72,0-.7.05-5.52-.23-7.18-.04-.15.06-.23.21-.23,1.09,0,1.96.1,1.96.51,0,.28-.34.46-.85.57-.04,1.17-.04,5.33-.04,5.98h0ZM719.49,42.6c-.13.41-.53.62-.95.47-.41-.13-.39-.56-.46-1.03-.05-.31-.15-.66-.23-.96-.1-.39.19-.68.6-.36.67.54,1.26,1.21,1.03,1.88h.02ZM722.97,41.45c-.06.28-.51.43-.89.51v7.29c0,.81.08.87,2.7.87,2.36-.02,3.21-.25,3.75-.25.36,0,.51.17.51.46,0,.28-.13.57-.53.69-.57.15-1.95.25-3.75.25-3.52,0-3.85-.34-3.85-1.81,0-.75.06-6.24-.06-8.01h-1.28c-.21,0-.36-.06-.36-.32s.15-.32.36-.32h3.78c.02-1.02.02-2.49-.08-3.18-.02-.17.08-.25.23-.25.28,0,1.94.05,1.94.49,0,.34-.36.47-.87.59v2.34h2.24c.34-.51.79-1.09,1.03-1.09.32,0,1.44.98,1.44,1.38,0,.25-.31.38-.85.38h-5.47l.02-.02Z"/>
    <path class="cls-11" d="M691.25,65.92c.28.15.51.34.51.51,0,.19-.23.3-.7.32-.26.82-.6,1.51-1.17,2.15.77.56,1.75.92,2.98,1.1.54.08.34.32.05.46-.39.17-.51.3-.66.49-.17.25-.25.38-.79.19-1-.28-1.81-.79-2.45-1.45-.81.62-1.87,1.11-3.22,1.39-.49.1-.6-.34-.18-.54,1.32-.46,2.16-.94,2.83-1.57-.46-.72-.79-1.57-1-2.52-.18.19-.38.38-.59.56-.13.1-.26.13-.36.11.28.26.54.59.54.77,0,.21-.23.3-.62.3h-1.41c-.05.43-.1.89-.17,1.28h.17c.25-.38.53-.74.69-.74.26,0,1.07.81,1.08,1.1,0,.23-.25.3-.6.3h-1.47l-.04.1c-.32,1.03-1.11,1.17-1.56,1.17-.21,0-.3-.1-.41-.23s-.19-.18-.36-.23c-.39-.11-.31-.47.04-.46.26.02.46.04.79.04.28,0,.43-.15.53-.38h-3.49l-.05.18c-.08.34-.44.49-.82.44-.3-.04-.39-.17-.32-.44s.32-1.15.56-2.11h-1.13c-.21,0-.36-.06-.36-.32s.15-.32.36-.32h1.26c.13-.64.21-1.3.26-1.77-.38.41-.81.82-1.3,1.15-.39.26-.69-.04-.43-.39.95-1.08,1.62-2.2,1.95-3.33.05-.17.15-.25.34-.19.57.11,1.38.49,1.38.77,0,.23-.19.32-.72.32l-.15.25h3.43c.31-.44.7-.95.92-.95.3,0,1.38.9,1.39,1.26,0,.23-.28.34-.83.34h-5.35c-.08.11-.18.25-.28.38h.02c.19.06.47.19.72.36h3.08c.15-.18.31-.31.41-.31.32,0,1.07.66,1.07.9,0,.18-.19.32-.46.46-.02.21-.04.46-.05.75h.13c.26-.39.56-.77.72-.77.1,0,.25.08.41.21-.04-.08-.02-.19.06-.32.77-1.1,1.32-2.26,1.57-3.36.04-.15.13-.25.36-.21.6.1,1.32.36,1.32.62,0,.21-.13.32-.64.41-.18.34-.41.75-.67,1.17h2.66c.3-.46.67-.95.89-.95.31,0,1.32.9,1.34,1.26,0,.23-.3.34-.79.34h-1.23ZM683.87,76.24c-.04.26-.54.23-.95.15-.89.51-2.26,1.11-3.56,1.41-.43.08-.6-.32-.21-.54,1.34-.68,2.21-1.23,3.05-2.05.15-.13.23-.15.38-.06.56.26,1.36.77,1.3,1.1h0ZM683.64,73.85c.44,0,.87-.02,1.28-.04.9-.77,1.6-1.56,2.26-2.58.05-.13.19-.13.32-.1.68.28,1.44.77,1.34,1.09-.06.23-.44.21-.81.13-.51.41-1.17.95-1.83,1.41,1.31-.06,2.49-.17,3.58-.26-.17-.17-.34-.31-.53-.43-.21-.17-.11-.49.21-.46,1.52.13,2.34.87,2.58,1.47.13.39-.04.75-.41.89-.28.1-.47,0-.7-.23-.17-.18-.34-.43-.56-.68-1.13.23-2.44.39-3.8.51.1.06.17.13.17.23,0,.25-.21.32-.53.38v2.18c0,.34-.25.47-.7.47-.26,0-.44-.15-.44-.43,0-.26.02-.68.02-1.19,0-.46-.05-1.08-.1-1.51-1.6.08-3.28.13-4.88.15-.13.36-.32.68-.57.64-.34-.06-.47-.66-.46-1.54.02-.15.08-.19.21-.18,1.41.06,2.72.08,3.95.08-.08-.05-.17-.1-.26-.18-.21-.19-.46-.51-.75-.77-.28-.23-.57-.53-.87-.7-.19-.15-.1-.47.23-.46.85.06,1.49.31,1.9.62.34-.46.59-.94.83-1.45.05-.11.18-.13.31-.08.59.26,1.3.79,1.21,1.07-.05.19-.41.17-.72.1-.31.28-.77.66-1.15.94l.02.05c.17.36.04.72-.32.87h-.02ZM680.61,68.18c-.08.41-.18.85-.26,1.28h1.26l.21-1.28h-1.21,0ZM680.99,66.37c-.05.18-.13.6-.24,1.15h1.19l.19-1.15h-1.15ZM683.87,69.45c.08-.38.15-.82.19-1.28h-1.26l-.21,1.28h1.28,0ZM682.91,67.52h1.23c.04-.43.04-.83.04-1.15h-.7c-.06.1-.19.18-.39.23l-.17.92h0ZM691.31,76.54c.19.41.13.82-.25,1-.43.21-.83-.18-1.45-.68-.45-.38-.94-.69-1.41-.95-.32-.19-.3-.6.18-.6,1.15,0,2.54.46,2.94,1.23h0ZM690.08,65.92h-2.09c.23.92.6,1.69,1.17,2.31.47-.64.75-1.3.92-2.24l.02-.06h0Z"/>
    <path class="cls-11" d="M697.68,68.27c.05,1.09-.38,2.15-1.19,2.2-.36.02-.66-.21-.67-.59-.05-.7.57-.77.85-1.77.13-.41.1-.95.08-1.32s.44-.43.59-.1c.19.44.31,1.03.34,1.59h0ZM699.32,70.27c0,1.18.06,6.29.06,6.97,0,.38-.25.57-.79.57-.32,0-.51-.18-.51-.49,0-.74.17-5.47.17-6.72,0-.7.05-5.52-.23-7.18-.04-.15.06-.23.21-.23,1.1,0,1.96.1,1.96.51,0,.28-.34.46-.85.57-.04,1.17-.04,5.33-.04,5.98h0ZM701.46,68.48c-.13.41-.53.62-.95.47-.41-.13-.39-.56-.46-1.03-.05-.31-.15-.66-.23-.96-.1-.39.19-.68.6-.36.68.54,1.26,1.21,1.03,1.88h.02ZM704.96,67.33c-.06.28-.51.43-.88.51v7.29c0,.81.08.87,2.7.87,2.36-.02,3.21-.25,3.75-.25.36,0,.51.17.51.46,0,.28-.13.57-.53.69-.57.15-1.95.25-3.75.25-3.52,0-3.85-.34-3.85-1.81,0-.75.06-6.24-.06-8.01h-1.28c-.21,0-.36-.06-.36-.32s.15-.32.36-.32h3.79c.02-1.02.02-2.49-.08-3.18-.02-.17.08-.25.23-.25.28,0,1.94.05,1.94.49,0,.34-.36.47-.87.59v2.34h2.24c.34-.51.79-1.09,1.03-1.09.32,0,1.44.98,1.44,1.38,0,.25-.31.38-.85.38h-5.47v-.02Z"/>
    <path class="cls-11" d="M724.8,64.98c.28-.36.6-.75.82-.75.38,0,1.44.81,1.44,1.18,0,.25-.31.43-.68.56-.11,2.41.06,9.63.06,10.85,0,.51-.36.64-.83.64-.4,0-.53-.3-.53-.56v-.7h-6.73v.9c0,.38-.25.59-.79.59-.34,0-.49-.19-.49-.49,0-1.96.19-10.32-.06-12.7-.02-.11.08-.23.23-.23.24,0,1.3.36,1.69.72h5.87ZM725.14,70.27c0-2,.02-3.86,0-4.63h-6.57l-.17.04c-.06.87-.08,3.44-.08,4.6h6.82ZM725.1,75.53c0-1.17.02-2.88.04-4.6h-6.82l.04,4.6h6.75,0Z"/>
    <path class="cls-11" d="M680.38,18.39c.23-.31.53-.66.7-.66.32,0,1.26.72,1.26,1.08,0,.23-.3.43-.6.54-.02.87-.04,2.8,0,3.77.46.75,1.07,1.21,2.75,1.38,2.02.21,5.97.11,8.48-.1.47-.05.46.43.05.53-.31.06-.36.19-.49.43-.13.26-.21.32-.57.36-1.88.11-5.7.18-8.06-.21-1.45-.28-2.18-1-2.65-2.03-.69.74-1.45,1.52-2.08,2.2-.21.51-.46.54-.68.25-.18-.25-.43-.72-.51-1.05-.08-.21-.06-.3.21-.43.74-.34,1.69-.88,2.43-1.39.02-.92.04-3.09.04-4h-2.11c-.21,0-.36-.06-.36-.32s.15-.32.36-.32h1.83v-.02ZM679.37,12.66c-.25-.34-.05-.7.43-.56,1.05.36,2.03,1.07,2.05,1.95,0,.49-.28.83-.77.83-.46,0-.64-.46-.95-1.05-.23-.43-.51-.83-.75-1.18ZM683.58,12.75c-.21,0-.36-.06-.36-.32s.15-.32.36-.32h6.61c.28-.26.62-.54.81-.53.31.02,1.26.9,1.23,1.39-.02.34-.56.28-.94.3-.6.36-1.56.95-2.43,1.49l.05.08c.13.25.13.47.02.66h1.88c.21-.26.46-.53.56-.53.39,0,1.36.87,1.36,1.18,0,.21-.31.38-.66.51-.04,1.47,0,3.83-.04,5.8,0,.98-.69,1.39-1.32,1.39s-.25-.6-1.11-.9c-.32-.15-.28-.54.04-.54.11,0,.6.06.85.06.36,0,.49-.15.53-.54.02-.32.02-.79.04-1.28h-2.72l.02,2.64c0,.36-.25.47-.69.47-.26,0-.43-.15-.43-.44,0-.21.04-1.62.05-2.67h-2.56l.02,2.65c0,.36-.23.54-.7.54-.28,0-.43-.17-.43-.46,0-1.43.15-6.37-.06-8.19-.02-.13.1-.23.25-.21.25.02.87.26,1.23.51h2.88c-.23-.21-.51-.47-.83-.74-.32-.25-.69-.51-1.04-.72-.24-.13-.15-.51.19-.47.98.11,1.69.41,2.15.72.57-.47,1.15-.95,1.7-1.53h-6.51ZM684.77,16.14c-.02.31-.04.9-.05,1.52h2.56c0-.56-.02-1.11-.06-1.52h-2.45ZM687.3,19.99v-1.67h-2.58v1.67h2.58ZM691.05,19.99v-1.67h-2.7l-.02,1.43v.25h2.72ZM688.86,16.14c-.02.17-.19.28-.49.32,0,.23-.02.69-.02,1.19h2.7v-1.52h-2.2,0Z"/>
    <path class="cls-11" d="M708.73,14.62c.28-.34.7-.75.9-.75.3,0,1.38.95,1.38,1.43-.02.32-.44.36-.89.46-.46.39-.95.81-1.32,1.07-.34.25-.66,0-.46-.36.18-.36.38-.79.53-1.18h-10.36v.02c0,1.02-.53,2.03-1.44,2.03-.41,0-.67-.3-.67-.69,0-.74.72-.69,1.08-1.64.15-.39.08-.9.08-1.28-.02-.36.41-.46.59-.1.13.28.25.62.31,1h4.62c.02-1.07,0-2.43-.08-3.08-.02-.17.08-.25.23-.25.28,0,1.83.05,1.83.47,0,.34-.34.47-.85.59v2.26h4.52,0ZM707.54,21.14c.26-.34.59-.72.7-.72.41,0,1.51.94,1.51,1.24,0,.25-.38.44-.77.57,0,.59.02,1.39,0,2.2,0,.92-.74,1.32-1.39,1.32s-.26-.54-1.08-.83c-.34-.15-.3-.53.02-.53.13,0,.62.05.82.05.36,0,.49-.13.53-.46.04-.44.04-1,.04-1.47v-.72h-3.69v.54c0,1.57.05,2.69.05,3.15,0,.34-.24.59-.79.59-.32,0-.44-.18-.44-.49,0-.53.05-1.62.05-3.24v-.54h-3.41c-.02.34-.02,1.39-.02,1.66s.02,1.64.02,1.94c0,.34-.26.49-.77.49-.3,0-.44-.15-.44-.43,0-1,.08-3.28-.06-4.65-.02-.13.1-.23.23-.21.28.04.96.3,1.36.56h3.09v-1.43h-1.94v.1c0,.34-.25.49-.7.49-.26,0-.41-.15-.41-.44,0-.88.06-2.47-.06-3.73-.02-.13.11-.23.25-.19.31.04,1,.31,1.32.59h4.39c.21-.31.51-.64.67-.64.31,0,1.19.68,1.19,1.02,0,.18-.23.32-.49.43-.02.64,0,1.82,0,2.2,0,.51-.23.62-.66.62-.31,0-.44-.21-.45-.43h-1.69s.05.06.05.11c0,.13-.11.23-.34.3v1.02h3.33ZM699.57,12.15c-.18-.38.06-.7.53-.47.77.36,1.53.89,1.39,1.6-.06.46-.43.74-.92.66-.43-.06-.49-.49-.64-.92-.1-.28-.23-.59-.36-.87ZM701.16,19.06h5.03l.04-1.88h-5.05c-.02.31-.02.94-.02,1.19v.69h0ZM706.02,13.79c.36-.66.64-1.31.81-2.07.04-.15.15-.26.31-.21.57.17,1.51.7,1.51.98,0,.25-.26.34-.75.31-.34.44-.79.94-1.36,1.32-.38.28-.69.05-.51-.34h0Z"/>
    <rect class="cls-13" x="582.62" y="32.14" width="81.91" height="23.21"/>
    <rect class="cls-14" x="582.62" y="58.49" width="81.91" height="23.21"/>
    <rect class="cls-16" x="582.62" y="5.8" width="81.91" height="23.21"/>
    <rect class="cls-13" x="552.67" y="185.5" width="190.59" height="34.27"/>
    <rect class="cls-13" x="552.67" y="265.7" width="190.59" height="34.27"/>
    <rect class="cls-16" x="222.73" y="265.7" width="329.94" height="34.27"/>
    <rect class="cls-13" x="30.51" y="265.7" width="192.23" height="34.27"/>
  </g>
  <g id="_レイヤー_2-2" data-name=" レイヤー 2">
    <g class="cls-3">
      <text class="cls-10" transform="translate(348.37 78.62)"><tspan x="0" y="0">11</tspan></text>
    </g>
    <g class="cls-3">
      <text class="cls-7" transform="translate(45.02 129.68)"><tspan class="cls-21" x="0" y="0">S</tspan><tspan class="cls-19" x="7.73" y="0">U</tspan><tspan x="16.1" y="0">N</tspan></text>
    </g>
    <g class="cls-3">
      <text class="cls-2" transform="translate(154.14 129.68)"><tspan x="0" y="0">M</tspan><tspan class="cls-23" x="10.11" y="0">O</tspan><tspan x="18.35" y="0">N</tspan></text>
    </g>
    <g class="cls-3">
      <text class="cls-2" transform="translate(266.88 129.68)"><tspan x="0" y="0">T</tspan><tspan class="cls-19" x="6.24" y="0">U</tspan><tspan x="14.61" y="0">E</tspan></text>
    </g>
    <g class="cls-3">
      <text class="cls-2" transform="translate(374.53 129.68)"><tspan class="cls-18" x="0" y="0">W</tspan><tspan x="11.04" y="0">ED</tspan></text>
    </g>
    <g class="cls-3">
      <text class="cls-2" transform="translate(486.58 129.68)"><tspan class="cls-24" x="0" y="0">T</tspan><tspan x="6.5" y="0">HU</tspan></text>
    </g>
    <g class="cls-3">
      <text class="cls-2" transform="translate(598.73 129.68)"><tspan class="cls-17" x="0" y="0">F</tspan><tspan x="7.38" y="0">RI</tspan></text>
    </g>
    <g class="cls-3">
      <text class="cls-2" transform="translate(707.08 129.68)"><tspan x="0" y="0">S</tspan><tspan class="cls-21" x="7.98" y="0">A</tspan><tspan x="16.13" y="0">T</tspan></text>
    </g>
    <g class="cls-3">
      <text class="cls-9" transform="translate(600.08 292.08)"><tspan x="0" y="0">8</tspan></text>
    </g>
    <g class="cls-3">
      <text class="cls-9" transform="translate(490.71 292.08)"><tspan x="0" y="0">7</tspan></text>
    </g>
    <g class="cls-3">
      <text class="cls-9" transform="translate(710.81 292.08)"><tspan x="0" y="0">9</tspan></text>
    </g>
    <g class="cls-3">
      <text class="cls-5" transform="translate(44.24 371.44)"><tspan x="0" y="0">10</tspan></text>
    </g>
    <g class="cls-3">
      <text class="cls-5" transform="translate(157.1 371.44)"><tspan x="0" y="0">11</tspan></text>
    </g>
    <g class="cls-3">
      <text class="cls-5" transform="translate(264.91 371.44)"><tspan x="0" y="0">12</tspan></text>
    </g>
    <g class="cls-3">
      <text class="cls-5" transform="translate(374.87 371.44)"><tspan x="0" y="0">13</tspan></text>
    </g>
    <g class="cls-3">
      <text class="cls-5" transform="translate(594.9 371.44)"><tspan x="0" y="0">15</tspan></text>
    </g>
    <g class="cls-3">
      <text class="cls-5" transform="translate(484.48 371.44)"><tspan x="0" y="0">14</tspan></text>
    </g>
    <g class="cls-3">
      <text class="cls-5" transform="translate(705.4 371.44)"><tspan x="0" y="0">16</tspan></text>
    </g>
    <g class="cls-3">
      <text class="cls-5" transform="translate(44.85 450.8)"><tspan x="0" y="0">17</tspan></text>
    </g>
    <g class="cls-3">
      <text class="cls-5" transform="translate(154.22 450.8)"><tspan x="0" y="0">18</tspan></text>
    </g>
    <g class="cls-3">
      <text class="cls-5" transform="translate(264.96 450.8)"><tspan x="0" y="0">19</tspan></text>
    </g>
    <g class="cls-3">
      <text class="cls-5" transform="translate(372.28 450.8)"><tspan x="0" y="0">20</tspan></text>
    </g>
    <g class="cls-3">
      <text class="cls-5" transform="translate(592.95 450.8)"><tspan x="0" y="0">22</tspan></text>
    </g>
    <g class="cls-3">
      <text class="cls-5" transform="translate(485.13 450.8)"><tspan x="0" y="0">21</tspan></text>
    </g>
    <g class="cls-3">
      <text class="cls-5" transform="translate(702.91 450.8)"><tspan x="0" y="0">23</tspan></text>
    </g>
    <g class="cls-3">
      <text class="cls-8" transform="translate(41.73 530.16)"><tspan class="cls-12" x="0" y="0">2</tspan><tspan class="cls-20" x="14.69" y="0">4</tspan></text>
    </g>
    <g class="cls-3">
      <text class="cls-5" transform="translate(152.15 530.16)"><tspan x="0" y="0">25</tspan></text>
    </g>
    <g class="cls-3">
      <text class="cls-8" transform="translate(262.65 530.16)"><tspan class="cls-12" x="0" y="0">2</tspan><tspan class="cls-20" x="14.69" y="0">6</tspan></text>
    </g>
    <g class="cls-3">
      <text class="cls-5" transform="translate(372.89 530.16)"><tspan x="0" y="0">27</tspan></text>
    </g>
    <g class="cls-3">
      <text class="cls-5" transform="translate(482.26 530.16)"><tspan x="0" y="0">28</tspan></text>
    </g>
    <g class="cls-3">
      <text class="cls-9" transform="translate(602.96 212.9)"><tspan x="0" y="0">1</tspan></text>
    </g>
    <g class="cls-3">
      <text class="cls-9" transform="translate(710.77 212.9)"><tspan x="0" y="0">2</tspan></text>
    </g>
    <g class="cls-3">
      <text class="cls-4" transform="translate(49.94 292.08)"><tspan x="0" y="0">3</tspan></text>
    </g>
    <g class="cls-3">
      <text class="cls-4" transform="translate(159.56 292.08)"><tspan x="0" y="0">4</tspan></text>
    </g>
    <g class="cls-3">
      <text class="cls-9" transform="translate(269.97 292.08)"><tspan x="0" y="0">5</tspan></text>
    </g>
    <g class="cls-3">
      <text class="cls-9" transform="translate(380.47 292.08)"><tspan x="0" y="0">6</tspan></text>
    </g>
  </g>
  <g id="_レイヤー_5-2" data-name=" レイヤー 5">
    <rect class="cls-15" x="546.44" y="299.98" width="203.05" height="38.9" rx="11.4" ry="11.4"/>
    <path class="cls-11" d="M565.18,320.66c-.3,1.07-1.1,2.67-1.1,3.17,0,.54.25.95.25,1.79,0,.71-.37,1.05-.88,1.05s-.65-.45-.65-.75.17-1.05.02-1.48c-.19-.6-.55-.8-.98-1.17-.27-.23-.05-.58.23-.48.23.06.62.2.82.27.19.04.27,0,.42-.21.31-.5.98-1.83,1.3-2.38.21-.38.71-.2.58.21h0ZM562.38,316.24c1.02.08,2.1.5,2.3,1.35.1.46-.12.85-.62.96-.45.1-.72-.3-1.1-.77-.29-.33-.6-.65-.9-.94-.3-.29-.2-.67.31-.62h0ZM563.49,312.97c-.27-.29-.17-.67.35-.6,1.02.13,2.07.62,2.21,1.46.08.46-.15.85-.63.95-.46.06-.7-.35-1.07-.85-.27-.33-.58-.67-.87-.96h0ZM574.93,318.96c.31-.46.71-.98.95-.98.3,0,1.42.92,1.44,1.3,0,.23-.27.35-.87.35h-5.98c.1.08.15.17.13.25-.02.21-.23.31-.73.27-.15.2-.33.45-.54.7h5.72c.23-.29.5-.54.63-.54.37,0,1.27.71,1.27,1,0,.2-.29.42-.65.58-.12,1.12-.33,2.7-.82,3.58-.58,1.27-1.52,1.44-2.19,1.44-.27,0-.4-.1-.5-.38-.08-.21-.2-.37-.54-.54-.31-.15-.17-.55.13-.48.33.05.65.13.98.13.48,0,.83-.19,1.05-.58.48-.8.7-2.44.8-3.55h-.82c-.04.13-.17.23-.37.27-1.12,2.54-3.1,4.33-6.23,5.1-.5.12-.62-.38-.17-.57,2.39-1,4.19-2.32,5.22-4.81h-1.13v.04c-.04.17-.21.23-.4.23-1.05,1.62-2.79,3.21-5.31,4.06-.52.2-.69-.27-.25-.54,1.89-.98,3.37-2.19,4.4-3.79h-1.45c-.77.83-1.81,1.71-3.02,2.32-.44.21-.69-.17-.31-.48,1.5-1.15,2.65-2.45,3.3-3.72h-2.75c-.21,0-.37-.06-.37-.33,0-.25.15-.33.37-.33h9ZM569.05,318.09c0,.37-.25.52-.75.52-.3,0-.45-.17-.45-.45,0-1.15.1-4.33-.06-5.87-.02-.13.1-.23.23-.21.29.04,1.1.33,1.48.63h4.02c.25-.31.54-.67.71-.67.31,0,1.27.71,1.27,1.08,0,.21-.27.35-.55.46-.04,1.08,0,3.52.02,4.07,0,.52-.27.65-.7.65-.39,0-.5-.3-.5-.57v-.1h-4.72v.45h0ZM569.07,313.37c-.02.3-.02.92-.04,1.44h4.77v-1.44h-4.73ZM573.78,316.97l.02-1.5h-4.75v.04l.02,1.46h4.72,0Z"/>
    <path class="cls-11" d="M587.33,316.95c0,.23-.29.33-.63.4-.05.82-.06,3.52-.06,4.07,0,.48.04,4.4.04,4.94,0,.37-.25.55-.75.55-.3,0-.45-.17-.45-.46,0-1.12.1-5.72.04-8.34-.48.7-1.04,1.38-1.67,2-.35.37-.75.08-.45-.35,1.73-2.44,3-5.19,3.42-7.65.04-.19.1-.29.3-.25.6.12,1.75.63,1.75,1,0,.27-.33.37-.82.3-.35.92-.82,2.05-1.45,3.21.37.17.75.4.75.58h0ZM593.98,322.56c.62,1.62,2.35,2.6,4.85,2.9.57.08.31.33.04.46-.42.2-.5.31-.65.5-.15.23-.2.38-.8.2-2.13-.54-3.58-2.08-4.07-4-.63,2.35-2.38,3.69-5.54,4.27-.6.1-.69-.44-.13-.6,2.58-.71,4.02-1.87,4.54-3.73h-4.13c-.21,0-.37-.06-.37-.33,0-.25.15-.33.37-.33h4.29c.1-.63.12-1.35.05-2.13v-.02h-3.67c-.21,0-.37-.06-.37-.33,0-.25.15-.33.37-.33h7.25c.31-.46.7-.96.92-.96.3,0,1.32.92,1.33,1.29,0,.23-.29.35-.79.35h-3.32c.06.05.1.1.1.17,0,.21-.17.31-.62.4,0,.57-.05,1.1-.12,1.58h3c.33-.48.75-1.04.98-1.04.31,0,1.45.95,1.45,1.33,0,.23-.27.37-.87.37h-4.11ZM590.75,317.74c0,.37-.27.52-.77.52-.3,0-.45-.15-.45-.45,0-.82.1-4.04-.06-5.35-.04-.19.12-.27.29-.21.37.1,1.05.45,1.4.75h4.22c.27-.33.6-.73.8-.73.33,0,1.32.71,1.32,1.08,0,.21-.29.37-.58.48-.02,1.04.02,3.04.02,3.57s-.27.63-.71.63c-.4,0-.52-.3-.52-.57v-.17h-4.94v.45h0ZM595.7,316.62c0-.9.02-2.23.02-2.96h-4.81l-.17.04c-.02.38-.02,1.54-.02,1.85v1.08h4.97Z"/>
    <path class="cls-11" d="M618.07,324.23c.04-1.1.06-2.32.06-2.83,0-.55.04-4.06-.17-5.31-.02-.17.06-.25.21-.25.98,0,2.07.08,2.07.54,0,.3-.37.48-.9.58-.04.83-.02,3.77-.02,4.27,0,.87.05,4.42.05,4.96,0,.38-.3.55-.85.55-.33,0-.52-.17-.52-.5,0-.2.02-.7.04-1.33h-10.34l.02,1.32c0,.38-.3.57-.85.57-.33,0-.52-.19-.52-.48,0-.6.12-3.94.12-4.87,0-.57.04-4.06-.17-5.34-.02-.17.06-.25.21-.25.98,0,2.07.08,2.07.54,0,.3-.37.48-.9.58-.04.83-.02,3.79-.02,4.29s.02,1.82.04,2.98h4.52c.05-2.48.12-10.24-.08-11.77-.02-.17.08-.25.25-.25.3,0,2.07.05,2.07.52,0,.38-.38.54-.94.65v10.86h4.55Z"/>
    <path class="cls-11" d="M631.76,321.68c0,.75.05,4.22.05,4.73,0,.37-.27.52-.75.52-.29,0-.46-.17-.46-.46,0-.4.06-2.58.1-3.89-.63.55-1.72,1.35-2.45,1.87.02.6-.1.98-.4.98-.35,0-.7-.6-.96-1.46-.06-.21,0-.4.25-.5,1-.4,2.38-1.05,3.4-1.75.06-.05.13-.08.19-.1,0-.85.02-3.73-.15-4.84-.04-.15.06-.23.21-.23.82,0,1.85.08,1.85.48,0,.27-.31.44-.83.52-.04.79-.04,3.6-.04,4.14h0ZM627.47,314.37c-.21,0-.37-.06-.37-.33,0-.25.15-.33.37-.33h4.32c-.02-.54-.06-1.13-.11-1.58-.02-.17.08-.23.23-.23.67,0,1.87.05,1.87.48,0,.29-.25.5-.83.57v.77h3.12c-.02-.54-.06-1.15-.1-1.58-.04-.17.08-.23.23-.23.67,0,1.89.05,1.89.48,0,.29-.27.5-.85.57v.77h2.29c.35-.52.8-1.12,1.05-1.12.33,0,1.54,1,1.54,1.4,0,.23-.27.38-.92.38h-3.94v1.42c0,.35-.27.5-.73.5-.3,0-.48-.17-.48-.45s.04-.85.04-1.46h-3.1v1.46c0,.35-.27.5-.73.5-.3,0-.46-.17-.46-.45s.04-.88.04-1.52h-4.32l-.03.02ZM628.12,318.01c.92.42,1.75,1.05,1.72,1.82-.02.46-.31.79-.81.77-.45-.02-.58-.46-.82-.98-.15-.37-.37-.71-.58-1.07s0-.71.48-.54ZM637.43,320.53v4.89h1.92c.35-.52.8-1.13,1.05-1.13.33,0,1.5,1.02,1.5,1.42,0,.23-.31.38-.89.38h-8.07c-.21,0-.37-.06-.37-.33,0-.25.15-.33.37-.33h3.29c.02-1.23.04-3.15.02-4.89h-3.56c-.21,0-.37-.06-.37-.33,0-.25.15-.33.37-.33h3.54c-.02-1.33-.06-2.48-.13-3.04-.02-.15.08-.23.23-.23.29,0,1.98.05,1.98.48,0,.37-.37.5-.89.62v2.17h2.23c.37-.55.83-1.2,1.1-1.2.35,0,1.54,1.05,1.54,1.46,0,.25-.35.4-.9.4h-3.97,0Z"/>
    <path class="cls-11" d="M651.86,316.96c.46.08,1.81.55,1.81,1.04,0,.27-.25.44-.9.38-.52,1.08-1.54,3.04-3.44,4.52-.42.33-.89-.04-.56-.46,1.4-1.83,2.35-3.65,2.62-5.19.05-.29.15-.35.46-.29h0ZM657.96,312.91c0,.27-.27.44-.85.58-.1,2.81-.05,8.02-.05,11.92-.02,1.05-.79,1.48-1.44,1.48-.6,0-.35-.63-1.95-1.04-.38-.1-.31-.6.05-.57.55.05,1.07.13,1.4.13.46,0,.69-.17.71-.69.06-1.17.04-4.5.04-6.22,0-1.21,0-3.92-.19-5.89-.02-.2.1-.25.33-.25.82,0,1.95.12,1.95.52v.02ZM660.25,317.18c2.23.87,3.58,2.54,3.58,3.67,0,.52-.23.94-.77.94-.38,0-.6-.15-.83-.63-.73-1.52-1.17-2.17-2.42-3.42-.3-.3-.04-.73.44-.55h0Z"/>
    <path class="cls-11" d="M673.68,316.22c0,.65-.02,1.3-.05,2-.08,2.57-.37,5.87-2.98,8.04-.38.35-.82.04-.48-.42,1.58-2.1,2.21-4.17,2.25-8.1.02-1.52-.02-3.39-.15-5.09-.02-.27.08-.35.3-.31.25.05.85.3,1.27.57h8.5c.25-.33.58-.71.77-.71.35,0,1.35.73,1.35,1.1,0,.21-.29.37-.58.5-.02.8,0,1.9.02,2.33,0,.52-.27.63-.75.63.44.25,1.15.9,1.15,1.2.02.23-.25.35-.85.35h-4.37c.19.1.3.21.3.33,0,.27-.44.38-.8.42-.23.38-.46.75-.7,1.1,1.45-.05,2.71-.17,3.82-.31-.19-.2-.37-.4-.56-.57-.19-.19-.06-.5.27-.44,1.52.25,2.35,1.05,2.52,1.8.1.42-.1.77-.55.87-.3.06-.52-.05-.7-.31-.15-.19-.3-.45-.47-.71-1.79.4-4.12.67-6.84.77-.12.37-.3.69-.57.63-.33-.05-.5-.63-.5-1.55,0-.15.08-.19.21-.19.82.04,1.58.05,2.3.04.29-.6.52-1.25.67-1.87h-3.07c-.21,0-.36-.06-.36-.33,0-.25.15-.33.36-.33h7.5c.3-.44.67-.92.9-.98-.13-.1-.2-.27-.2-.44h-8.94l.02-.02ZM682.82,325.64c.36-.54.83-1.19,1.1-1.2.35.02,1.58,1.05,1.58,1.46,0,.25-.31.4-.94.4h-11.56c-.21,0-.37-.06-.37-.33,0-.25.15-.33.37-.33h5.23c.02-.57.02-1.25,0-1.9h-3.67c-.21,0-.37-.06-.37-.33,0-.25.15-.33.37-.33h3.67c-.02-.65-.05-1.21-.08-1.58-.02-.15.08-.23.23-.23.28,0,1.77.06,1.77.46,0,.31-.3.44-.75.54v.82h1.75c.35-.52.82-1.12,1.07-1.12.33,0,1.54,1,1.54,1.4,0,.23-.3.38-.92.38h-3.44v1.9h3.4v.02ZM673.68,313.62c.02.67.02,1.3.02,1.94h8.94c0-.6.02-1.45.02-1.98h-8.81l-.17.05h0Z"/>
    <path class="cls-11" d="M695.58,313.62c.6-.02,1.45.27,1.87.65.35.31.4.58.42,1.1.04.92-1.05,5.29-.94,7.42.08,1.55,1.1,1.85,2.19,1.85,2.83,0,4.25-1.71,5.37-3.31.31-.45.7-.25.55.23-.69,2.22-2.85,4.25-5.81,4.31-1.7.04-3.27-.46-3.35-3.15-.06-2.04.48-4.73.48-6.54,0-.6-.04-.96-.31-1.21-.5-.45-1.17-.57-1.17-.9,0-.17.3-.44.7-.45h0ZM702.79,317.34c0,.38-.28.58-.57.58-.38,0-.5-.29-.89-.73-.28-.33-.67-.69-1-1-.2-.2-.08-.46.2-.45,1.08.08,2.25.82,2.25,1.6h0ZM704.21,315.77c0,.35-.21.58-.55.58-.25,0-.42-.13-.73-.48-.37-.4-.87-.77-1.23-1.04-.27-.2-.15-.48.17-.48,1.07.02,2.35.57,2.35,1.42h0Z"/>
    <path class="cls-11" d="M727.3,320.71c0,2.67-2.37,4.71-6.35,4.69-.48,0-.57-.4-.06-.52,2.9-.65,5.1-1.9,5.1-4.32,0-1.95-1.02-3.19-2.6-3.64-.42,1.3-1.07,2.69-1.81,3.87.29.23.52.57.52.82,0,.23-.2.44-.44.44-.2,0-.48-.08-.8-.21-1.04,1.32-2.48,2.44-3.39,2.44-1,0-1.71-1.35-1.71-2.79,0-1.25.69-2.72,1.96-3.82-.25-1.02-.46-2-1.28-2.97-.19-.25-.1-.45.3-.37.39.08.87.38,1.08.7.35.54.54,1.39.7,2.04,1.45-.9,2.97-1.05,3.65-1.05.13,0,.27,0,.4.02.08-.44.15-.83.17-1.21.02-.35-.06-.5-.3-.7-.21-.19-.45-.27-.71-.44-.23-.15-.19-.33-.02-.44.23-.13.48-.15.73-.15.7,0,1.6.5,1.6.92,0,.29-.19,1.23-.44,2.15,2.15.46,3.69,2.05,3.69,4.56h0ZM719.98,321.31c-.37-.29-.73-.69-1.05-1.07-.33-.4-.7-1.05-.94-1.67-.75.77-1.21,1.69-1.21,2.52,0,1.15.48,1.8.95,1.8.62,0,1.62-.87,2.25-1.58h0ZM722.38,316.76c-.15-.02-.3-.02-.44-.02-1.12,0-2.23.45-3.15,1.13.2.5.5,1.05.95,1.54.35.39.71.67,1.02.87.73-1.12,1.3-2.35,1.63-3.52h0Z"/>
    <polyline class="cls-15" points="680.62 305.41 703.78 290.9 695.76 308.19"/>
  </g>
  <g id="_レイヤー_4-2" data-name=" レイヤー 4">
    <g class="cls-3">
      <text class="cls-2" transform="translate(154.14 129.68)"><tspan x="0" y="0">M</tspan><tspan class="cls-23" x="10.11" y="0">O</tspan><tspan x="18.35" y="0">N</tspan></text>
    </g>
    <g class="cls-3">
      <text class="cls-2" transform="translate(266.88 129.68)"><tspan x="0" y="0">T</tspan><tspan class="cls-19" x="6.24" y="0">U</tspan><tspan x="14.61" y="0">E</tspan></text>
    </g>
    <g class="cls-3">
      <text class="cls-2" transform="translate(374.53 129.68)"><tspan class="cls-18" x="0" y="0">W</tspan><tspan x="11.04" y="0">ED</tspan></text>
    </g>
    <g class="cls-3">
      <text class="cls-2" transform="translate(486.58 129.68)"><tspan class="cls-24" x="0" y="0">T</tspan><tspan x="6.5" y="0">HU</tspan></text>
    </g>
    <g class="cls-3">
      <text class="cls-2" transform="translate(598.73 129.68)"><tspan class="cls-17" x="0" y="0">F</tspan><tspan x="7.38" y="0">RI</tspan></text>
    </g>
    <g class="cls-3">
      <text class="cls-2" transform="translate(707.08 129.68)"><tspan x="0" y="0">S</tspan><tspan class="cls-21" x="7.98" y="0">A</tspan><tspan x="16.13" y="0">T</tspan></text>
    </g>
    <g class="cls-3">
      <text class="cls-1" transform="translate(41.67 73.91)"><tspan class="cls-26" x="0" y="0">20</tspan><tspan class="cls-22" x="29.02" y="0">2</tspan><tspan class="cls-25" x="42.46" y="0">4</tspan></text>
    </g>
    <g class="cls-3">
      <text class="cls-5" transform="translate(592.99 530.16)"><tspan x="0" y="0">29</tspan></text>
    </g>
    <g class="cls-3">
      <text class="cls-5" transform="translate(702.47 530.16)"><tspan x="0" y="0">30</tspan></text>
    </g>
    <g class="cls-3">
      <text class="cls-6" transform="translate(45.02 129.68)"><tspan class="cls-21" x="0" y="0">S</tspan><tspan class="cls-19" x="7.73" y="0">U</tspan><tspan x="16.1" y="0">N</tspan></text>
    </g>
  </g>
</svg>