<?xml version="1.0" encoding="UTF-8"?>
<svg id="_レイヤー_5" data-name="レイヤー 5" xmlns="http://www.w3.org/2000/svg" width="780" height="542.52" viewBox="0 0 780 542.52">
  <defs>
    <style>
      .cls-1 {
        letter-spacing: .1em;
      }

      .cls-2 {
        letter-spacing: .07em;
      }

      .cls-3, .cls-4, .cls-5, .cls-6, .cls-7, .cls-8, .cls-9, .cls-10, .cls-11, .cls-12, .cls-13 {
        isolation: isolate;
      }

      .cls-3, .cls-4, .cls-5, .cls-7, .cls-8, .cls-9, .cls-10, .cls-11, .cls-12, .cls-13 {
        font-family: Bahnschrift, Bahnschrift;
        font-variation-settings: 'wght' 400, 'wdth' 100;
      }

      .cls-3, .cls-4, .cls-12 {
        fill: #b60000;
      }

      .cls-3, .cls-5, .cls-9 {
        font-size: 13.08px;
      }

      .cls-14 {
        fill: #46be00;
      }

      .cls-14, .cls-15, .cls-16, .cls-17, .cls-18 {
        stroke-width: 0px;
      }

      .cls-19 {
        letter-spacing: .02em;
      }

      .cls-4, .cls-20, .cls-8 {
        letter-spacing: .1em;
      }

      .cls-4, .cls-8, .cls-11, .cls-12, .cls-13 {
        font-size: 25.23px;
      }

      .cls-5, .cls-7, .cls-8, .cls-10, .cls-11, .cls-18, .cls-13 {
        fill: #fff;
      }

      .cls-15 {
        fill: #ee7c26;
      }

      .cls-7 {
        font-size: 92.76px;
        letter-spacing: .1em;
      }

      .cls-21 {
        letter-spacing: .1em;
      }

      .cls-16 {
        fill: #544742;
      }

      .cls-9 {
        fill: #840000;
      }

      .cls-22 {
        letter-spacing: 0em;
      }

      .cls-23 {
        letter-spacing: -.02em;
      }

      .cls-24 {
        letter-spacing: 0em;
      }

      .cls-25 {
        letter-spacing: 0em;
      }

      .cls-17 {
        fill: #00c1d4;
      }

      .cls-10 {
        font-size: 23.08px;
      }

      .cls-26 {
        letter-spacing: .07em;
      }

      .cls-12, .cls-13 {
        letter-spacing: .1em;
      }

      .cls-27 {
        letter-spacing: 0em;
      }

      .cls-28 {
        letter-spacing: 0em;
      }
    </style>
  </defs>
  <g id="_レイヤー_6" data-name=" レイヤー 6">
    <path class="cls-18" d="M696.27,48.44c.36-.54.86-1.19,1.12-1.19.35,0,1.6,1.03,1.6,1.46,0,.23-.28.39-.96.39h-6.08v.68c0,.36.02,1.9.02,2.21,0,.36-.3.45-.75.45-.26,0-.45-.13-.45-.41,0-.32.07-1.9.07-2.35v-.58h-6.77c-.21,0-.36-.07-.36-.33s.15-.33.36-.33h6.76c0-.5-.04-1.03-.07-1.35-.02-.15.07-.23.21-.23.63,0,1.83.07,1.83.47,0,.28-.33.45-.84.51,0,.13-.02.35-.02.61h4.32l.02-.02ZM684.42,43.99c.23.07.54.2.73.25.18.05.26,0,.39-.21.32-.5.93-1.65,1.21-2.17.21-.36.71-.2.6.23-.28,1.01-1.01,2.45-1.01,2.91s.21.82.21,1.52c0,.64-.33.97-.84.97-.48,0-.61-.43-.61-.73,0-.26.1-.84-.02-1.24-.17-.51-.5-.71-.91-1.06-.26-.23-.04-.58.25-.48h0ZM684.21,40.4c-.28-.32-.11-.71.36-.58.9.23,1.7.61,1.78,1.32.05.43-.18.78-.63.84-.41.05-.58-.36-.86-.78-.2-.3-.45-.54-.66-.81h0ZM685.83,38.01c-.23-.35-.05-.71.43-.56.88.26,1.7.73,1.72,1.47.02.47-.25.79-.73.81-.43.02-.58-.43-.82-.84-.19-.32-.4-.6-.6-.88ZM690.51,46.81c0,.36-.25.54-.73.54-.3,0-.45-.17-.45-.47.02-.58.07-3.42.04-5.31-.47.63-1.01,1.24-1.64,1.77-.36.32-.71,0-.41-.39,1.44-1.75,2.41-3.68,2.71-5.27.04-.18.13-.23.32-.21.56.08,1.47.45,1.49.76,0,.23-.23.33-.71.33-.11.26-.28.6-.46.96.05.04.11.07.17.1h2.06c.28-.53.58-1.11.71-1.85.02-.15.11-.28.3-.25.6.1,1.46.47,1.49.75.02.23-.18.36-.69.39-.25.38-.51.69-.78.96h2.18c.32-.45.71-.96.93-.96.3,0,1.4.91,1.4,1.27,0,.23-.26.35-.84.35h-3.14v.02c0,.17-.1.28-.32.36v.91h1.52c.28-.43.64-.88.84-.88.28,0,1.32.86,1.32,1.21.02.23-.23.33-.79.33h-2.9v1.37h1.52c.28-.43.64-.88.84-.88.28,0,1.32.86,1.32,1.21.02.23-.23.33-.79.33h-2.9v1.4h2.41c.32-.47.71-.99.94-.99.32,0,1.44.93,1.44,1.31,0,.21-.26.35-.86.35h-7.55v.5ZM693.04,41.56v-1.29h-2.21c-.08.04-.18.05-.3.07-.02.25-.02.73-.04,1.22h2.55ZM693.04,42.23h-2.54v1.37h2.54v-1.37ZM693.04,44.26h-2.54l.02,1.4h2.53v-1.4h0Z"/>
    <path class="cls-18" d="M715.19,40.38c.28.15.51.35.51.51,0,.2-.23.3-.71.33-.26.82-.61,1.52-1.17,2.17.78.56,1.77.93,3.01,1.11.54.08.35.33.05.47-.39.17-.51.3-.66.5-.17.25-.25.38-.79.2-1.01-.28-1.82-.79-2.47-1.47-.81.63-1.89,1.12-3.25,1.4-.5.1-.61-.35-.19-.54,1.34-.47,2.18-.94,2.86-1.59-.47-.73-.79-1.59-1.01-2.54-.18.2-.38.38-.6.56-.13.1-.26.13-.36.11.28.26.54.6.54.78,0,.21-.23.3-.63.3h-1.42c-.05.43-.1.9-.17,1.29h.17c.25-.38.53-.75.69-.75.26,0,1.07.81,1.09,1.11,0,.23-.25.3-.61.3h-1.49l-.04.1c-.33,1.04-1.12,1.18-1.57,1.18-.21,0-.3-.1-.41-.23s-.2-.18-.36-.23c-.39-.11-.32-.48.04-.47.26.02.47.04.79.04.28,0,.43-.15.53-.38h-3.52l-.05.18c-.08.35-.45.5-.82.45-.3-.04-.39-.17-.33-.45s.33-1.16.56-2.13h-1.14c-.21,0-.36-.07-.36-.33s.15-.33.36-.33h1.27c.13-.64.21-1.31.26-1.78-.38.41-.81.82-1.31,1.16-.39.26-.69-.04-.43-.39.96-1.09,1.64-2.21,1.96-3.35.05-.17.15-.25.35-.2.58.11,1.39.5,1.39.78,0,.23-.2.33-.73.33l-.15.25h3.46c.32-.45.71-.96.93-.96.3,0,1.39.91,1.4,1.27,0,.23-.28.35-.84.35h-5.4c-.08.11-.18.25-.28.38h.02c.18.07.48.2.73.36h3.1c.15-.18.32-.32.41-.32.33,0,1.07.66,1.07.91,0,.18-.2.33-.47.47-.02.21-.04.47-.05.76h.13c.26-.39.56-.78.73-.78.1,0,.25.08.41.21-.04-.08-.02-.2.07-.33.78-1.11,1.34-2.28,1.59-3.39.04-.15.13-.25.36-.21.61.1,1.34.36,1.34.63,0,.21-.13.33-.64.41-.18.35-.41.76-.68,1.18h2.68c.3-.47.68-.96.9-.96.32,0,1.34.91,1.35,1.27,0,.23-.3.35-.79.35h-1.22,0ZM707.75,50.79c-.04.26-.54.23-.96.15-.9.51-2.28,1.12-3.59,1.42-.43.08-.61-.33-.21-.54,1.35-.68,2.23-1.24,3.07-2.06.15-.13.23-.15.38-.07.56.26,1.37.78,1.31,1.11h0ZM707.53,48.39c.45,0,.88-.02,1.29-.04.91-.78,1.62-1.57,2.28-2.61.05-.13.2-.13.33-.1.68.28,1.46.78,1.35,1.1-.07.23-.45.21-.81.13-.51.41-1.17.96-1.85,1.42,1.33-.07,2.51-.17,3.61-.26-.17-.17-.35-.32-.53-.43-.21-.17-.11-.5.21-.47,1.53.13,2.36.88,2.6,1.49.13.39-.04.76-.41.9-.28.1-.48,0-.71-.23-.17-.18-.35-.43-.56-.68-1.14.23-2.46.39-3.83.51.1.07.17.13.17.23,0,.25-.21.33-.53.38v2.2c0,.35-.24.48-.71.48-.26,0-.45-.15-.45-.43,0-.26.02-.68.02-1.21,0-.47-.05-1.09-.1-1.52-1.62.08-3.31.13-4.92.15-.13.36-.33.68-.58.64-.35-.07-.48-.66-.47-1.55.02-.15.08-.2.21-.18,1.42.07,2.75.08,3.98.08-.08-.05-.17-.1-.26-.18-.21-.2-.46-.51-.76-.78-.28-.23-.58-.53-.88-.71-.19-.15-.1-.48.23-.47.86.07,1.5.32,1.92.63.35-.47.6-.94.84-1.47.05-.11.18-.13.32-.08.6.26,1.31.79,1.22,1.07-.05.2-.41.17-.73.1-.32.28-.78.66-1.16.94l.02.05c.17.36.04.73-.33.88h-.02ZM704.46,42.66c-.08.41-.18.86-.26,1.29h1.27l.21-1.29h-1.22,0ZM704.85,40.83c-.05.18-.13.61-.25,1.16h1.21l.2-1.16h-1.16,0ZM707.75,43.95c.08-.38.15-.82.2-1.29h-1.27l-.21,1.29h1.29,0ZM706.78,41.99h1.24c.04-.43.04-.84.04-1.16h-.71c-.07.1-.2.18-.39.23l-.17.93h0ZM715.26,51.1c.2.41.13.82-.24,1.01-.43.21-.84-.18-1.47-.68-.47-.38-.94-.69-1.42-.96-.33-.2-.3-.61.18-.61,1.16,0,2.56.47,2.96,1.24h0ZM714.02,40.38h-2.11c.23.93.61,1.7,1.18,2.33.48-.64.76-1.31.93-2.26l.02-.07h0Z"/>
    <path class="cls-18" d="M721.68,42.76c.05,1.1-.38,2.17-1.21,2.21-.36.02-.66-.21-.68-.6-.05-.71.58-.78.86-1.78.13-.41.1-.96.08-1.34s.45-.43.6-.1c.18.45.32,1.04.35,1.61h0ZM723.34,44.77c0,1.19.07,6.34.07,7.04,0,.38-.24.58-.79.58-.33,0-.51-.18-.51-.5,0-.75.17-5.52.17-6.77,0-.71.05-5.57-.23-7.24-.04-.15.07-.23.21-.23,1.1,0,1.98.1,1.98.51,0,.28-.35.47-.86.58-.04,1.18-.04,5.37-.04,6.04h0ZM725.51,42.97c-.13.41-.53.63-.96.48-.41-.13-.39-.56-.47-1.04-.05-.32-.15-.66-.23-.97-.1-.39.2-.68.61-.36.67.54,1.27,1.22,1.04,1.9h.02ZM729.02,41.82c-.07.28-.51.43-.9.51v7.35c0,.81.08.88,2.73.88,2.38-.02,3.24-.25,3.78-.25.36,0,.51.17.51.47,0,.28-.13.58-.53.69-.58.15-1.96.25-3.78.25-3.55,0-3.89-.35-3.89-1.82,0-.76.07-6.3-.07-8.08h-1.29c-.21,0-.36-.07-.36-.33s.15-.33.36-.33h3.81c.02-1.03.02-2.51-.08-3.2-.02-.17.08-.25.23-.25.28,0,1.95.05,1.95.5,0,.35-.36.48-.88.6v2.36h2.26c.35-.51.79-1.1,1.04-1.1.33,0,1.46.99,1.46,1.39,0,.25-.32.38-.86.38h-5.52l.02-.02Z"/>
    <path class="cls-18" d="M697.02,66.49c.28.15.51.35.51.51,0,.2-.23.3-.71.33-.26.82-.61,1.52-1.18,2.17.78.56,1.77.93,3.01,1.11.54.08.35.33.05.47-.39.17-.51.3-.66.5-.17.25-.25.38-.79.2-1.01-.28-1.82-.79-2.47-1.47-.81.63-1.89,1.12-3.25,1.4-.5.1-.61-.35-.18-.54,1.34-.47,2.18-.94,2.86-1.59-.47-.73-.79-1.59-1.01-2.54-.18.2-.38.38-.6.56-.13.1-.26.13-.36.11.28.26.54.6.54.78,0,.21-.23.3-.63.3h-1.42c-.05.43-.1.9-.17,1.29h.17c.25-.38.53-.75.69-.75.26,0,1.07.81,1.09,1.11,0,.23-.25.3-.61.3h-1.49l-.04.1c-.33,1.04-1.12,1.18-1.57,1.18-.21,0-.3-.1-.41-.23s-.2-.18-.36-.23c-.39-.11-.32-.48.04-.47.26.02.47.04.79.04.28,0,.43-.15.53-.38h-3.52l-.05.18c-.08.35-.45.5-.82.45-.3-.04-.39-.17-.33-.45s.33-1.16.56-2.13h-1.14c-.21,0-.36-.07-.36-.33s.15-.33.36-.33h1.27c.13-.64.21-1.31.26-1.78-.38.41-.81.82-1.31,1.16-.39.26-.69-.04-.43-.39.96-1.09,1.64-2.21,1.97-3.35.05-.17.15-.25.35-.2.58.11,1.39.5,1.39.78,0,.23-.2.33-.73.33l-.15.25h3.46c.32-.45.71-.96.93-.96.3,0,1.39.91,1.4,1.27,0,.23-.28.35-.84.35h-5.4c-.08.11-.18.25-.28.38h.02c.19.07.48.2.73.36h3.1c.15-.18.32-.32.41-.32.33,0,1.07.66,1.07.91,0,.18-.2.33-.47.47-.02.21-.04.47-.05.76h.13c.26-.39.56-.78.73-.78.1,0,.25.08.41.21-.04-.08-.02-.2.07-.33.78-1.11,1.34-2.28,1.59-3.39.04-.15.13-.25.36-.21.61.1,1.34.36,1.34.63,0,.21-.13.33-.64.41-.18.35-.41.76-.67,1.18h2.68c.3-.47.67-.96.9-.96.32,0,1.34.91,1.35,1.27,0,.23-.3.35-.79.35h-1.24ZM689.58,76.9c-.04.26-.54.23-.96.15-.9.51-2.28,1.12-3.59,1.42-.43.08-.61-.33-.21-.54,1.35-.68,2.23-1.24,3.07-2.06.15-.13.23-.15.38-.07.56.26,1.37.78,1.31,1.11h0ZM689.35,74.5c.45,0,.88-.02,1.29-.04.91-.78,1.62-1.57,2.28-2.61.05-.13.2-.13.33-.1.68.28,1.46.78,1.35,1.1-.07.23-.45.21-.81.13-.51.41-1.18.96-1.85,1.42,1.32-.07,2.51-.17,3.61-.26-.17-.17-.35-.32-.53-.43-.21-.17-.11-.5.21-.47,1.53.13,2.36.88,2.6,1.49.13.39-.04.76-.41.9-.28.1-.48,0-.71-.23-.17-.18-.35-.43-.56-.68-1.14.23-2.46.39-3.83.51.1.07.17.13.17.23,0,.25-.21.33-.53.38v2.2c0,.35-.25.48-.71.48-.26,0-.45-.15-.45-.43,0-.26.02-.68.02-1.21,0-.47-.05-1.09-.1-1.52-1.62.08-3.31.13-4.92.15-.13.36-.33.68-.58.64-.35-.07-.48-.66-.47-1.55.02-.15.08-.2.21-.18,1.42.07,2.75.08,3.98.08-.08-.05-.17-.1-.26-.18-.21-.2-.47-.51-.76-.78-.28-.23-.58-.53-.88-.71-.19-.15-.1-.48.23-.47.86.07,1.5.32,1.92.63.35-.47.6-.94.84-1.47.05-.11.18-.13.32-.08.6.26,1.31.79,1.22,1.07-.05.2-.41.17-.73.1-.32.28-.78.66-1.16.94l.02.05c.17.36.04.73-.33.88h-.02ZM686.29,68.77c-.08.41-.18.86-.26,1.29h1.27l.21-1.29h-1.22,0ZM686.67,66.95c-.05.18-.13.61-.24,1.16h1.21l.2-1.16h-1.16ZM689.58,70.05c.08-.38.15-.82.2-1.29h-1.27l-.21,1.29h1.29,0ZM688.61,68.11h1.24c.04-.43.04-.84.04-1.16h-.71c-.07.1-.2.18-.39.23l-.17.93h0ZM697.08,77.21c.2.41.13.82-.25,1.01-.43.21-.84-.18-1.47-.68-.46-.38-.94-.69-1.42-.96-.33-.2-.3-.61.18-.61,1.16,0,2.56.47,2.96,1.24h0ZM695.84,66.49h-2.11c.23.93.61,1.7,1.18,2.33.48-.64.76-1.31.93-2.26l.02-.07h0Z"/>
    <path class="cls-18" d="M703.51,68.87c.05,1.1-.38,2.17-1.21,2.21-.36.02-.66-.21-.67-.6-.05-.71.58-.78.86-1.78.13-.41.1-.96.08-1.34s.45-.43.6-.1c.19.45.32,1.04.35,1.61h0ZM705.17,70.88c0,1.19.07,6.34.07,7.04,0,.38-.25.58-.79.58-.33,0-.51-.18-.51-.5,0-.75.17-5.52.17-6.77,0-.71.05-5.57-.23-7.24-.04-.15.07-.23.21-.23,1.11,0,1.98.1,1.98.51,0,.28-.35.47-.86.58-.04,1.18-.04,5.37-.04,6.04h0ZM707.32,69.08c-.13.41-.53.63-.96.48-.41-.13-.39-.56-.47-1.04-.05-.32-.15-.66-.23-.97-.1-.39.2-.68.61-.36.68.54,1.27,1.22,1.04,1.9h.02ZM710.85,67.92c-.07.28-.51.43-.89.51v7.35c0,.81.08.88,2.73.88,2.38-.02,3.24-.25,3.78-.25.36,0,.51.17.51.47,0,.28-.13.58-.53.69-.58.15-1.96.25-3.78.25-3.55,0-3.89-.35-3.89-1.82,0-.76.07-6.3-.07-8.08h-1.29c-.21,0-.36-.07-.36-.33s.15-.33.36-.33h3.82c.02-1.03.02-2.51-.08-3.2-.02-.17.08-.25.23-.25.28,0,1.95.05,1.95.5,0,.35-.36.48-.88.6v2.36h2.26c.35-.51.79-1.1,1.04-1.1.33,0,1.46.99,1.46,1.39,0,.25-.32.38-.86.38h-5.52v-.02Z"/>
    <path class="cls-18" d="M730.86,65.55c.28-.36.61-.76.82-.76.38,0,1.46.81,1.46,1.19,0,.25-.32.43-.68.56-.11,2.43.07,9.72.07,10.94,0,.51-.36.64-.84.64-.4,0-.53-.3-.53-.56v-.71h-6.79v.91c0,.38-.25.6-.79.6-.35,0-.5-.2-.5-.5,0-1.98.2-10.41-.07-12.81-.02-.11.08-.23.23-.23.24,0,1.31.36,1.7.73h5.92ZM731.21,70.88c0-2.02.02-3.9,0-4.67h-6.62l-.17.04c-.07.88-.08,3.47-.08,4.64h6.88ZM731.17,76.19c0-1.18.02-2.91.04-4.64h-6.88l.04,4.64h6.81,0Z"/>
    <path class="cls-18" d="M686.06,18.55c.23-.32.53-.66.71-.66.33,0,1.27.73,1.27,1.09,0,.23-.3.43-.61.54-.02.88-.04,2.82,0,3.8.47.76,1.07,1.22,2.78,1.39,2.04.21,6.02.11,8.56-.1.48-.05.47.43.05.53-.32.07-.36.2-.5.43-.13.26-.21.33-.58.36-1.9.11-5.75.18-8.13-.21-1.47-.28-2.2-1.01-2.67-2.05-.69.75-1.47,1.53-2.1,2.21-.21.51-.47.54-.68.25-.18-.25-.43-.73-.51-1.06-.08-.21-.07-.3.21-.43.75-.35,1.7-.89,2.45-1.4.02-.93.04-3.12.04-4.04h-2.13c-.21,0-.36-.07-.36-.33s.15-.33.36-.33h1.85v-.02ZM685.04,12.78c-.25-.35-.05-.71.43-.56,1.06.36,2.05,1.07,2.06,1.96,0,.5-.28.84-.78.84-.47,0-.64-.47-.96-1.06-.23-.43-.51-.84-.76-1.19ZM689.28,12.86c-.21,0-.36-.07-.36-.33s.15-.33.36-.33h6.67c.28-.26.63-.54.81-.53.32.02,1.27.91,1.24,1.4-.02.35-.56.28-.94.3-.61.36-1.57.96-2.45,1.5l.05.08c.13.25.13.48.02.66h1.9c.21-.26.47-.53.56-.53.39,0,1.37.88,1.37,1.19,0,.21-.32.38-.66.51-.04,1.49,0,3.87-.04,5.85,0,.99-.69,1.4-1.34,1.4s-.25-.61-1.12-.91c-.33-.15-.28-.54.04-.54.11,0,.61.07.86.07.36,0,.5-.15.53-.54.02-.33.02-.79.04-1.29h-2.75l.02,2.66c0,.36-.25.48-.69.48-.26,0-.43-.15-.43-.45,0-.21.04-1.64.05-2.69h-2.58l.02,2.67c0,.36-.23.54-.71.54-.28,0-.43-.17-.43-.47,0-1.44.15-6.43-.07-8.26-.02-.13.1-.23.25-.21.25.02.88.26,1.24.51h2.91c-.23-.21-.51-.48-.84-.75-.33-.25-.69-.51-1.05-.73-.24-.13-.15-.51.2-.48.99.11,1.7.41,2.17.73.58-.48,1.16-.96,1.72-1.54h-6.57ZM690.49,16.28c-.02.32-.04.91-.05,1.53h2.58c0-.56-.02-1.12-.07-1.53h-2.47ZM693.04,20.17v-1.68h-2.6v1.68h2.6ZM696.82,20.17v-1.68h-2.73l-.02,1.44v.25h2.75ZM694.61,16.28c-.02.17-.19.28-.5.33,0,.23-.02.69-.02,1.21h2.73v-1.53h-2.21,0Z"/>
    <path class="cls-18" d="M714.65,14.75c.28-.35.71-.76.91-.76.3,0,1.39.96,1.39,1.44-.02.33-.45.36-.9.47-.47.39-.96.81-1.34,1.07-.35.25-.66,0-.47-.36.18-.36.38-.79.53-1.19h-10.45v.02c0,1.03-.53,2.05-1.46,2.05-.41,0-.67-.3-.67-.69,0-.75.73-.69,1.09-1.65.15-.39.08-.91.08-1.29-.02-.36.41-.47.6-.1.13.28.25.63.32,1.01h4.66c.02-1.07,0-2.45-.08-3.1-.02-.17.08-.25.23-.25.28,0,1.85.05,1.85.48,0,.35-.35.48-.86.6v2.28h4.56,0ZM713.45,21.32c.26-.35.6-.73.71-.73.41,0,1.52.94,1.52,1.25,0,.25-.38.45-.78.58,0,.6.02,1.4,0,2.21,0,.93-.75,1.34-1.4,1.34s-.26-.54-1.09-.84c-.35-.15-.3-.53.02-.53.13,0,.63.05.82.05.36,0,.5-.13.53-.47.04-.45.04-1.01.04-1.49v-.73h-3.72v.54c0,1.59.05,2.71.05,3.18,0,.35-.24.6-.79.6-.33,0-.45-.18-.45-.5,0-.53.05-1.64.05-3.27v-.54h-3.44c-.02.35-.02,1.4-.02,1.67s.02,1.65.02,1.95c0,.35-.26.5-.78.5-.3,0-.45-.15-.45-.43,0-1.01.08-3.31-.07-4.69-.02-.13.1-.23.23-.21.28.04.97.3,1.37.56h3.12v-1.44h-1.95v.1c0,.35-.25.5-.71.5-.26,0-.41-.15-.41-.45,0-.89.07-2.49-.07-3.77-.02-.13.11-.23.25-.2.32.04,1.01.32,1.34.6h4.43c.21-.32.51-.64.67-.64.32,0,1.21.68,1.21,1.03,0,.18-.23.33-.5.43-.02.64,0,1.83,0,2.21,0,.51-.23.63-.66.63-.32,0-.45-.21-.46-.43h-1.7s.05.07.05.11c0,.13-.11.23-.35.3v1.03h3.35ZM705.41,12.25c-.18-.38.07-.71.53-.48.78.36,1.54.9,1.4,1.62-.07.47-.43.75-.93.66-.43-.07-.5-.5-.64-.93-.1-.28-.23-.6-.36-.88ZM707.02,19.22h5.07l.04-1.9h-5.09c-.02.32-.02.94-.02,1.21v.69h0ZM711.92,13.91c.36-.66.64-1.32.81-2.08.04-.15.15-.26.32-.21.58.17,1.52.71,1.52.99,0,.25-.26.35-.76.32-.35.45-.79.94-1.37,1.34-.38.28-.69.05-.51-.35h0Z"/>
    <rect class="cls-14" x="587.44" y="32.43" width="82.63" height="23.42"/>
    <rect class="cls-15" x="587.44" y="59" width="82.63" height="23.42"/>
    <rect class="cls-17" x="587.44" y="5.85" width="82.63" height="23.42"/>
  </g>
  <g id="_レイヤー_1" data-name=" レイヤー 1">
    <rect class="cls-14" x="449.45" y="187.12" width="300.04" height="34.57"/>
    <rect class="cls-17" x="225.13" y="187.12" width="332.1" height="34.57"/>
    <rect class="cls-17" x="101.2" y="268.02" width="456.03" height="34.57"/>
    <rect class="cls-14" x="557.23" y="268.02" width="192.25" height="34.57"/>
    <rect class="cls-14" x="449.45" y="348" width="300.04" height="34.57"/>
    <rect class="cls-14" x="30.51" y="268.02" width="78.87" height="34.57"/>
    <rect class="cls-17" x="109.38" y="348" width="447.85" height="34.57"/>
    <rect class="cls-17" x="30.51" y="427.97" width="718.97" height="34.57"/>
    <rect class="cls-14" x="30.51" y="427.97" width="78.87" height="34.57"/>
    <rect class="cls-17" x="30.51" y="507.95" width="526.72" height="34.57"/>
    <rect class="cls-14" x="30.51" y="348" width="194.62" height="34.57"/>
    <rect class="cls-14" x="30.51" y="507.95" width="78.87" height="34.57"/>
    <rect class="cls-14" x="557.23" y="427.97" width="192.25" height="34.57"/>
  </g>
  <g id="_レイヤー_2-2" data-name=" レイヤー 2">
    <g class="cls-6">
      <text class="cls-7" transform="translate(340.98 79.31)"><tspan x="0" y="0">10</tspan></text>
    </g>
    <g class="cls-6">
      <text class="cls-9" transform="translate(45.15 130.81)"><tspan class="cls-23" x="0" y="0">S</tspan><tspan class="cls-25" x="7.8" y="0">U</tspan><tspan x="16.24" y="0">N</tspan></text>
    </g>
    <g class="cls-6">
      <text class="cls-5" transform="translate(155.22 130.81)"><tspan x="0" y="0">M</tspan><tspan class="cls-27" x="10.19" y="0">O</tspan><tspan x="18.51" y="0">N</tspan></text>
    </g>
    <g class="cls-6">
      <text class="cls-5" transform="translate(268.95 130.81)"><tspan x="0" y="0">T</tspan><tspan class="cls-25" x="6.3" y="0">U</tspan><tspan class="cls-24" x="14.74" y="0">E</tspan></text>
    </g>
    <g class="cls-6">
      <text class="cls-5" transform="translate(377.53 130.81)"><tspan class="cls-28" x="0" y="0">W</tspan><tspan class="cls-24" x="11.14" y="0">ED</tspan></text>
    </g>
    <g class="cls-6">
      <text class="cls-5" transform="translate(490.56 130.81)"><tspan class="cls-19" x="0" y="0">T</tspan><tspan x="6.55" y="0">HU</tspan></text>
    </g>
    <g class="cls-6">
      <text class="cls-5" transform="translate(603.69 130.81)"><tspan class="cls-22" x="0" y="0">F</tspan><tspan class="cls-24" x="7.44" y="0">RI</tspan></text>
    </g>
    <g class="cls-6">
      <text class="cls-5" transform="translate(712.98 130.81)"><tspan x="0" y="0">S</tspan><tspan class="cls-23" x="8.05" y="0">A</tspan><tspan x="16.27" y="0">T</tspan></text>
    </g>
    <g class="cls-6">
      <text class="cls-8" transform="translate(271.84 294.62)"><tspan x="0" y="0">8</tspan></text>
    </g>
    <g class="cls-6">
      <text class="cls-13" transform="translate(161.51 294.62)"><tspan x="0" y="0">7</tspan></text>
    </g>
    <g class="cls-6">
      <text class="cls-8" transform="translate(383.53 294.62)"><tspan x="0" y="0">9</tspan></text>
    </g>
    <g class="cls-6">
      <text class="cls-13" transform="translate(488.66 294.62)"><tspan x="0" y="0">10</tspan></text>
    </g>
    <g class="cls-6">
      <text class="cls-13" transform="translate(602.51 294.62)"><tspan x="0" y="0">11</tspan></text>
    </g>
    <g class="cls-6">
      <text class="cls-13" transform="translate(711.26 294.62)"><tspan x="0" y="0">12</tspan></text>
    </g>
    <g class="cls-6">
      <text class="cls-12" transform="translate(44.65 374.68)"><tspan x="0" y="0">13</tspan></text>
    </g>
    <g class="cls-6">
      <text class="cls-13" transform="translate(266.61 374.68)"><tspan x="0" y="0">15</tspan></text>
    </g>
    <g class="cls-6">
      <text class="cls-12" transform="translate(155.23 374.68)"><tspan x="0" y="0">14</tspan></text>
    </g>
    <g class="cls-6">
      <text class="cls-13" transform="translate(378.07 374.68)"><tspan x="0" y="0">16</tspan></text>
    </g>
    <g class="cls-6">
      <text class="cls-13" transform="translate(489.27 374.68)"><tspan x="0" y="0">17</tspan></text>
    </g>
    <g class="cls-6">
      <text class="cls-13" transform="translate(599.6 374.68)"><tspan x="0" y="0">18</tspan></text>
    </g>
    <g class="cls-6">
      <text class="cls-13" transform="translate(711.3 374.68)"><tspan x="0" y="0">19</tspan></text>
    </g>
    <g class="cls-6">
      <text class="cls-4" transform="translate(42.05 454.74)"><tspan x="0" y="0">20</tspan></text>
    </g>
    <g class="cls-6">
      <text class="cls-13" transform="translate(261.74 454.74)"><tspan x="0" y="0">22</tspan></text>
    </g>
    <g class="cls-6">
      <text class="cls-8" transform="translate(152.98 454.74)"><tspan x="0" y="0">21</tspan></text>
    </g>
    <g class="cls-6">
      <text class="cls-13" transform="translate(372.65 454.74)"><tspan x="0" y="0">23</tspan></text>
    </g>
    <g class="cls-6">
      <text class="cls-11" transform="translate(483.22 454.74)"><tspan class="cls-26" x="0" y="0">2</tspan><tspan class="cls-20" x="14.82" y="0">4</tspan></text>
    </g>
    <g class="cls-6">
      <text class="cls-13" transform="translate(594.61 454.74)"><tspan x="0" y="0">25</tspan></text>
    </g>
    <g class="cls-6">
      <text class="cls-11" transform="translate(706.08 454.74)"><tspan class="cls-26" x="0" y="0">2</tspan><tspan class="cls-20" x="14.82" y="0">6</tspan></text>
    </g>
    <g class="cls-6">
      <text class="cls-4" transform="translate(42.61 534.79)"><tspan x="0" y="0">27</tspan></text>
    </g>
    <g class="cls-6">
      <text class="cls-8" transform="translate(150.09 534.79)"><tspan x="0" y="0">28</tspan></text>
    </g>
    <g class="cls-6">
      <text class="cls-13" transform="translate(261.78 534.79)"><tspan x="0" y="0">29</tspan></text>
    </g>
    <g class="cls-6">
      <text class="cls-13" transform="translate(274.74 214.76)"><tspan x="0" y="0">1</tspan></text>
    </g>
    <g class="cls-6">
      <text class="cls-8" transform="translate(383.49 214.76)"><tspan x="0" y="0">2</tspan></text>
    </g>
    <g class="cls-6">
      <text class="cls-13" transform="translate(494.41 214.76)"><tspan x="0" y="0">3</tspan></text>
    </g>
    <g class="cls-6">
      <text class="cls-8" transform="translate(604.98 214.76)"><tspan x="0" y="0">4</tspan></text>
    </g>
    <g class="cls-6">
      <text class="cls-8" transform="translate(716.36 214.76)"><tspan x="0" y="0">5</tspan></text>
    </g>
    <g class="cls-6">
      <text class="cls-4" transform="translate(50.31 294.62)"><tspan x="0" y="0">6</tspan></text>
    </g>
  </g>
  <g id="_レイヤー_5-2" data-name=" レイヤー 5">
    <rect class="cls-16" x="259.58" y="382.53" width="204.82" height="39.24" rx="11.5" ry="11.5"/>
    <path class="cls-18" d="M287.79,407.55c.39-.55.88-1.21,1.14-1.21.36,0,1.64,1.05,1.64,1.48,0,.23-.29.4-.97.4h-13.88c-.21,0-.37-.07-.37-.34,0-.25.15-.34.37-.34h12.08,0ZM286.71,396.65c.37-.55.86-1.21,1.13-1.21.36,0,1.64,1.05,1.64,1.48,0,.23-.3.4-.97.4h-11.54c-.21,0-.37-.07-.37-.34,0-.25.15-.34.37-.34h9.75,0ZM285.64,401.94c.37-.55.86-1.21,1.13-1.21.36,0,1.64,1.05,1.64,1.48,0,.23-.32.4-.97.4h-9.41c-.21,0-.37-.07-.37-.34,0-.25.15-.34.37-.34h7.62,0Z"/>
    <path class="cls-18" d="M300.82,399.65c0,.23-.29.34-.64.4-.05.82-.07,3.55-.07,4.1,0,.49.04,4.44.04,4.98,0,.37-.25.55-.76.55-.3,0-.46-.17-.46-.47,0-1.13.1-5.77.04-8.41-.49.71-1.05,1.39-1.68,2.02-.36.37-.76.08-.46-.36,1.75-2.46,3.03-5.23,3.45-7.72.04-.19.1-.29.3-.25.61.12,1.77.64,1.77,1.01,0,.27-.34.37-.82.3-.36.93-.82,2.06-1.47,3.24.37.17.76.4.76.59h0ZM307.54,405.31c.63,1.64,2.37,2.63,4.9,2.92.57.08.32.34.04.47-.42.21-.5.32-.65.5-.15.23-.21.38-.8.21-2.15-.54-3.62-2.1-4.1-4.04-.64,2.37-2.41,3.72-5.59,4.31-.61.1-.69-.44-.13-.61,2.61-.72,4.06-1.89,4.58-3.77h-4.17c-.21,0-.37-.07-.37-.34,0-.25.15-.34.37-.34h4.33c.1-.64.12-1.36.05-2.15v-.02h-3.7c-.21,0-.37-.07-.37-.34,0-.25.15-.34.37-.34h7.32c.32-.47.71-.97.93-.97.3,0,1.33.93,1.35,1.3,0,.23-.29.36-.79.36h-3.35c.07.05.1.1.1.17,0,.21-.17.32-.63.4,0,.57-.05,1.11-.11,1.6h3.03c.34-.49.76-1.05.99-1.05.32,0,1.47.96,1.47,1.35,0,.23-.27.37-.88.37h-4.16ZM304.27,400.45c0,.37-.27.52-.78.52-.3,0-.46-.15-.46-.46,0-.82.1-4.07-.07-5.4-.04-.19.12-.27.29-.21.37.1,1.06.46,1.41.76h4.26c.27-.34.61-.74.8-.74.34,0,1.33.72,1.33,1.09,0,.21-.29.37-.59.49-.02,1.05.02,3.06.02,3.6s-.27.64-.72.64c-.4,0-.52-.3-.52-.57v-.17h-4.98v.46h0ZM309.27,399.32c0-.91.02-2.25.02-2.99h-4.85l-.17.04c-.02.38-.02,1.55-.02,1.87v1.09h5.02Z"/>
    <path class="cls-18" d="M331.84,407c.04-1.11.07-2.34.07-2.86,0-.55.04-4.09-.17-5.35-.02-.17.07-.25.21-.25.99,0,2.08.08,2.08.54,0,.3-.37.49-.91.59-.04.84-.02,3.8-.02,4.31,0,.88.05,4.46.05,5,0,.38-.3.55-.86.55-.34,0-.52-.17-.52-.5,0-.21.02-.71.04-1.35h-10.43l.02,1.33c0,.38-.3.57-.86.57-.34,0-.52-.19-.52-.49,0-.61.11-3.97.11-4.91,0-.57.04-4.09-.17-5.38-.02-.17.07-.25.21-.25.99,0,2.08.08,2.08.54,0,.3-.37.49-.91.59-.04.84-.02,3.82-.02,4.33s.02,1.83.04,3.01h4.56c.05-2.5.12-10.33-.08-11.88-.02-.17.08-.25.25-.25.3,0,2.08.05,2.08.52,0,.38-.38.54-.94.65v10.95h4.6Z"/>
    <path class="cls-18" d="M345.64,404.42c0,.76.05,4.26.05,4.77,0,.37-.27.52-.76.52-.29,0-.47-.17-.47-.47,0-.4.07-2.61.1-3.92-.64.55-1.73,1.36-2.48,1.89.02.61-.1.99-.4.99-.36,0-.71-.61-.97-1.48-.07-.21,0-.4.25-.5,1.01-.4,2.4-1.06,3.43-1.77.07-.05.13-.08.19-.1,0-.86.02-3.77-.15-4.88-.04-.15.07-.23.21-.23.82,0,1.87.08,1.87.49,0,.27-.32.44-.84.52-.04.79-.04,3.63-.04,4.18h0ZM341.32,397.05c-.21,0-.37-.07-.37-.34,0-.25.15-.34.37-.34h4.35c-.02-.54-.07-1.14-.12-1.6-.02-.17.08-.23.23-.23.67,0,1.89.05,1.89.49,0,.29-.25.5-.84.57v.78h3.15c-.02-.54-.07-1.16-.1-1.6-.04-.17.08-.23.23-.23.67,0,1.9.05,1.9.49,0,.29-.27.5-.86.57v.78h2.31c.36-.52.8-1.13,1.06-1.13.34,0,1.55,1.01,1.55,1.41,0,.23-.27.38-.93.38h-3.97v1.43c0,.36-.27.5-.74.5-.3,0-.49-.17-.49-.46s.04-.86.04-1.48h-3.13v1.48c0,.36-.27.5-.74.5-.3,0-.47-.17-.47-.46s.04-.89.04-1.53h-4.35v.02ZM341.98,400.72c.93.42,1.77,1.06,1.73,1.83-.02.47-.32.79-.8.78-.46-.02-.59-.47-.82-.99-.15-.37-.37-.72-.59-1.07s0-.72.49-.54ZM351.36,403.26v4.93h1.93c.36-.52.8-1.14,1.06-1.14.34,0,1.51,1.03,1.51,1.43,0,.23-.32.38-.89.38h-8.14c-.21,0-.37-.07-.37-.34,0-.25.15-.34.37-.34h3.32c.02-1.24.04-3.18.02-4.93h-3.58c-.21,0-.37-.07-.37-.34,0-.25.15-.34.37-.34h3.57c-.02-1.35-.07-2.5-.13-3.06-.02-.15.08-.23.23-.23.29,0,2,.05,2,.49,0,.37-.37.5-.89.63v2.19h2.25c.37-.55.84-1.21,1.11-1.21.36,0,1.55,1.06,1.55,1.48,0,.25-.36.4-.91.4h-4.03Z"/>
    <path class="cls-18" d="M365.93,399.66c.47.08,1.82.55,1.82,1.05,0,.27-.25.44-.91.38-.52,1.09-1.55,3.06-3.47,4.56-.42.34-.89-.04-.55-.47,1.41-1.85,2.37-3.68,2.64-5.23.05-.29.15-.36.47-.29h0ZM372.06,395.57c0,.27-.27.44-.86.59-.1,2.83-.05,8.09-.05,12.03-.02,1.06-.79,1.49-1.45,1.49-.61,0-.36-.64-1.97-1.05-.38-.1-.32-.61.05-.57.55.05,1.07.13,1.41.13.47,0,.69-.17.72-.69.07-1.18.04-4.54.04-6.28,0-1.22,0-3.95-.21-5.94-.02-.21.1-.25.34-.25.82,0,1.97.12,1.97.52v.02ZM374.39,399.88c2.25.88,3.62,2.56,3.62,3.7,0,.52-.23.94-.78.94-.38,0-.61-.15-.84-.64-.74-1.53-1.18-2.19-2.44-3.45-.3-.3-.04-.74.44-.55h0Z"/>
    <path class="cls-18" d="M387.92,398.92c0,.65-.02,1.31-.05,2.02-.08,2.59-.37,5.92-3.01,8.11-.38.36-.82.04-.49-.42,1.6-2.12,2.23-4.2,2.27-8.18.02-1.53-.02-3.42-.15-5.13-.02-.27.08-.36.3-.32.25.05.86.3,1.28.57h8.58c.25-.34.59-.72.78-.72.36,0,1.36.74,1.36,1.11,0,.21-.29.37-.59.5-.02.8,0,1.92.02,2.35,0,.52-.27.64-.76.64.44.25,1.16.91,1.16,1.21.02.23-.25.36-.86.36h-4.41c.19.1.3.21.3.34,0,.27-.44.38-.8.42-.23.38-.47.76-.71,1.11,1.47-.05,2.74-.17,3.85-.32-.19-.21-.37-.4-.55-.57-.21-.19-.07-.5.27-.44,1.53.25,2.37,1.06,2.54,1.81.1.42-.1.78-.55.88-.3.07-.52-.05-.71-.32-.15-.19-.3-.46-.47-.72-1.8.4-4.16.67-6.9.78-.12.37-.3.69-.57.64-.34-.05-.5-.64-.5-1.56,0-.15.08-.19.21-.19.82.04,1.6.05,2.32.04.29-.61.52-1.26.67-1.89h-3.09c-.21,0-.37-.07-.37-.34,0-.25.15-.34.37-.34h7.57c.3-.44.67-.93.91-.99-.13-.1-.21-.27-.21-.44h-9.02v-.02ZM397.14,408.43c.37-.54.84-1.2,1.11-1.21.36.02,1.6,1.06,1.6,1.48,0,.25-.32.4-.94.4h-11.66c-.21,0-.37-.07-.37-.34,0-.25.15-.34.37-.34h5.28c.02-.57.02-1.26,0-1.92h-3.7c-.21,0-.37-.07-.37-.34,0-.25.15-.34.37-.34h3.7c-.02-.65-.05-1.22-.08-1.6-.02-.15.08-.23.23-.23.29,0,1.78.07,1.78.47,0,.32-.3.44-.76.54v.82h1.77c.36-.52.82-1.13,1.07-1.13.34,0,1.55,1.01,1.55,1.41,0,.23-.3.38-.93.38h-3.47v1.92h3.43v.02ZM387.92,396.29c.02.67.02,1.31.02,1.95h9.02c0-.61.02-1.47.02-2h-8.89l-.17.05h0Z"/>
    <path class="cls-18" d="M410.03,396.29c.61-.02,1.47.27,1.89.65.36.32.4.59.42,1.11.04.93-1.06,5.34-.94,7.48.08,1.56,1.11,1.87,2.21,1.87,2.86,0,4.29-1.73,5.42-3.34.32-.46.71-.25.55.23-.69,2.24-2.88,4.29-5.86,4.34-1.72.04-3.3-.47-3.38-3.18-.07-2.06.49-4.77.49-6.6,0-.61-.04-.97-.32-1.22-.5-.46-1.18-.57-1.18-.91,0-.17.3-.44.71-.46h0ZM417.29,400.05c0,.38-.29.59-.57.59-.38,0-.5-.29-.89-.74-.29-.34-.67-.69-1.01-1.01-.21-.21-.08-.47.21-.46,1.09.08,2.27.82,2.27,1.62h0ZM418.72,398.47c0,.36-.21.59-.55.59-.25,0-.42-.13-.74-.49-.37-.4-.88-.78-1.24-1.05-.27-.21-.15-.49.17-.49,1.07.02,2.37.57,2.37,1.43h0Z"/>
    <path class="cls-18" d="M442.01,403.45c0,2.69-2.39,4.76-6.41,4.73-.49,0-.57-.4-.07-.52,2.92-.65,5.15-1.92,5.15-4.35,0-1.97-1.03-3.21-2.63-3.67-.42,1.31-1.07,2.71-1.82,3.91.29.23.52.57.52.82,0,.23-.21.44-.44.44-.21,0-.49-.08-.8-.21-1.05,1.33-2.5,2.46-3.42,2.46-1.01,0-1.73-1.36-1.73-2.81,0-1.26.69-2.75,1.98-3.85-.25-1.03-.47-2.02-1.3-3-.19-.25-.1-.46.3-.37.39.08.88.38,1.09.71.36.54.54,1.4.71,2.06,1.47-.91,3-1.06,3.68-1.06.13,0,.27,0,.4.02.08-.44.15-.84.17-1.22.02-.36-.07-.5-.3-.71-.21-.19-.46-.27-.72-.44-.23-.15-.19-.34-.02-.44.23-.13.49-.15.74-.15.71,0,1.62.5,1.62.93,0,.29-.19,1.24-.44,2.17,2.17.47,3.72,2.06,3.72,4.6h0ZM434.63,404.05c-.37-.29-.74-.69-1.06-1.07-.34-.4-.71-1.06-.94-1.68-.76.78-1.22,1.7-1.22,2.54,0,1.16.49,1.81.96,1.81.63,0,1.64-.88,2.27-1.6h0ZM437.05,399.46c-.15-.02-.3-.02-.46-.02-1.13,0-2.25.46-3.18,1.14.21.5.5,1.06.96,1.55.36.39.72.67,1.03.88.74-1.13,1.32-2.37,1.64-3.55h0Z"/>
    <polyline class="cls-16" points="322.63 388.02 299.27 373.37 307.37 390.82"/>
  </g>
  <g id="_レイヤー_4-2" data-name=" レイヤー 4">
    <g class="cls-6">
      <text class="cls-7" transform="translate(340.98 79.31)"><tspan x="0" y="0">10</tspan></text>
    </g>
    <g class="cls-6">
      <text class="cls-5" transform="translate(155.22 130.81)"><tspan x="0" y="0">M</tspan><tspan class="cls-27" x="10.19" y="0">O</tspan><tspan x="18.51" y="0">N</tspan></text>
    </g>
    <g class="cls-6">
      <text class="cls-5" transform="translate(268.95 130.81)"><tspan x="0" y="0">T</tspan><tspan class="cls-25" x="6.3" y="0">U</tspan><tspan class="cls-24" x="14.74" y="0">E</tspan></text>
    </g>
    <g class="cls-6">
      <text class="cls-5" transform="translate(377.53 130.81)"><tspan class="cls-28" x="0" y="0">W</tspan><tspan class="cls-24" x="11.14" y="0">ED</tspan></text>
    </g>
    <g class="cls-6">
      <text class="cls-5" transform="translate(490.56 130.81)"><tspan class="cls-19" x="0" y="0">T</tspan><tspan x="6.55" y="0">HU</tspan></text>
    </g>
    <g class="cls-6">
      <text class="cls-5" transform="translate(603.69 130.81)"><tspan class="cls-22" x="0" y="0">F</tspan><tspan class="cls-24" x="7.44" y="0">RI</tspan></text>
    </g>
    <g class="cls-6">
      <text class="cls-5" transform="translate(712.98 130.81)"><tspan x="0" y="0">S</tspan><tspan class="cls-23" x="8.05" y="0">A</tspan><tspan x="16.27" y="0">T</tspan></text>
    </g>
    <g class="cls-6">
      <text class="cls-10" transform="translate(41.77 74.55)"><tspan class="cls-21" x="0" y="0">20</tspan><tspan class="cls-2" x="29.27" y="0">2</tspan><tspan class="cls-1" x="42.83" y="0">4</tspan></text>
    </g>
    <g class="cls-6">
      <text class="cls-13" transform="translate(375.11 534.79)"><tspan x="0" y="0">30</tspan></text>
    </g>
    <g class="cls-6">
      <text class="cls-13" transform="translate(488.95 534.79)"><tspan x="0" y="0">31</tspan></text>
    </g>
    <g class="cls-6">
      <text class="cls-3" transform="translate(45.15 130.81)"><tspan class="cls-23" x="0" y="0">S</tspan><tspan class="cls-25" x="7.8" y="0">U</tspan><tspan x="16.24" y="0">N</tspan></text>
    </g>
  </g>
</svg>