<?xml version="1.0" encoding="UTF-8"?>
<svg id="_レイヤー_5" data-name="レイヤー 5" xmlns="http://www.w3.org/2000/svg" width="780" height="533.41" viewBox="0 0 780 533.41">
  <defs>
    <style>
      .cls-1, .cls-2, .cls-3, .cls-4, .cls-5, .cls-6, .cls-7, .cls-8 {
        isolation: isolate;
      }

      .cls-1, .cls-9, .cls-8 {
        letter-spacing: .1em;
      }

      .cls-1, .cls-3, .cls-4, .cls-5, .cls-6, .cls-7, .cls-8 {
        font-family: Bahnschrift, Bahnschrift;
        font-variation-settings: 'wght' 400, 'wdth' 100;
      }

      .cls-1, .cls-4, .cls-5, .cls-6, .cls-7, .cls-10 {
        fill: #fff;
      }

      .cls-1, .cls-6, .cls-8 {
        font-size: 24.8px;
      }

      .cls-11 {
        fill: #46be00;
      }

      .cls-11, .cls-12, .cls-13, .cls-14, .cls-10 {
        stroke-width: 0px;
      }

      .cls-15 {
        letter-spacing: 0em;
      }

      .cls-12 {
        fill: #ee7c26;
      }

      .cls-16 {
        letter-spacing: 0em;
      }

      .cls-3, .cls-7 {
        font-size: 12.86px;
      }

      .cls-3, .cls-8 {
        fill: #b60000;
      }

      .cls-4 {
        font-size: 22.69px;
      }

      .cls-17 {
        letter-spacing: -.02em;
      }

      .cls-5 {
        font-size: 91.2px;
        letter-spacing: .1em;
      }

      .cls-13 {
        fill: #544742;
      }

      .cls-18 {
        letter-spacing: .07em;
      }

      .cls-19 {
        letter-spacing: 0em;
      }

      .cls-20 {
        letter-spacing: .02em;
      }

      .cls-21 {
        letter-spacing: 0em;
      }

      .cls-22 {
        letter-spacing: .1em;
      }

      .cls-23 {
        letter-spacing: .1em;
      }

      .cls-24 {
        letter-spacing: .07em;
      }

      .cls-14 {
        fill: #00c1d4;
      }

      .cls-25 {
        letter-spacing: 0em;
      }
    </style>
  </defs>
  <g>
    <g id="_レイヤー_6" data-name=" レイヤー 6">
      <path class="cls-10" d="M685.08,47.63c.36-.53.85-1.17,1.1-1.17.34,0,1.57,1.01,1.57,1.43,0,.23-.28.39-.95.39h-5.98v.67c0,.36.02,1.86.02,2.18,0,.36-.29.44-.73.44-.26,0-.44-.13-.44-.4,0-.31.06-1.86.06-2.31v-.57h-6.66c-.21,0-.36-.06-.36-.32s.15-.32.36-.32h6.64c0-.49-.04-1.01-.06-1.33-.02-.15.06-.23.21-.23.62,0,1.8.06,1.8.46,0,.28-.32.44-.83.51,0,.13-.02.34-.02.6h4.24l.02-.02ZM673.44,43.25c.23.06.53.19.72.25.17.05.26,0,.39-.21.31-.49.91-1.63,1.19-2.13.21-.36.7-.19.59.23-.28.99-.99,2.41-.99,2.86s.21.81.21,1.5c0,.63-.32.96-.83.96-.47,0-.6-.42-.6-.72,0-.26.1-.83-.02-1.22-.17-.51-.49-.7-.89-1.04-.26-.23-.04-.57.25-.47h0ZM673.22,39.73c-.28-.31-.11-.7.36-.57.88.23,1.67.6,1.75,1.3.05.42-.17.76-.62.83-.4.05-.57-.36-.85-.76-.19-.29-.44-.53-.65-.8h0ZM674.82,37.37c-.23-.34-.05-.7.42-.55.86.26,1.67.72,1.69,1.44.02.46-.25.78-.72.8-.42.02-.57-.42-.81-.83-.18-.31-.4-.59-.59-.86ZM679.42,46.02c0,.36-.25.53-.72.53-.29,0-.44-.17-.44-.46.02-.57.06-3.36.04-5.22-.46.62-.99,1.22-1.61,1.74-.36.31-.7,0-.4-.39,1.41-1.72,2.37-3.62,2.66-5.18.04-.17.13-.23.31-.21.55.08,1.44.44,1.46.74,0,.23-.23.32-.7.32-.11.26-.28.59-.45.95.05.04.11.06.17.1h2.03c.28-.52.57-1.09.7-1.82.02-.15.11-.28.29-.25.59.1,1.43.46,1.46.73.02.23-.17.36-.68.39-.25.38-.51.68-.76.95h2.14c.31-.44.7-.95.91-.95.29,0,1.38.89,1.38,1.25,0,.23-.26.34-.83.34h-3.09v.02c0,.17-.1.28-.31.36v.89h1.5c.28-.42.63-.86.83-.86.28,0,1.3.85,1.3,1.19.02.23-.23.32-.78.32h-2.85v1.35h1.5c.28-.42.63-.86.83-.86.28,0,1.3.85,1.3,1.19.02.23-.23.32-.78.32h-2.85v1.38h2.37c.31-.46.7-.97.93-.97.31,0,1.41.91,1.41,1.29,0,.21-.26.34-.85.34h-7.42v.5ZM681.91,40.87v-1.27h-2.18c-.08.04-.17.05-.29.06-.02.25-.02.72-.04,1.2h2.51ZM681.91,41.52h-2.5v1.35h2.5v-1.35ZM681.91,43.52h-2.5l.02,1.38h2.49v-1.38h0Z"/>
      <path class="cls-10" d="M703.69,39.7c.28.15.51.34.51.51,0,.19-.23.29-.7.32-.26.81-.6,1.5-1.15,2.13.76.55,1.74.91,2.96,1.09.53.08.34.32.05.46-.39.17-.51.29-.65.49-.17.25-.25.38-.78.19-.99-.28-1.79-.78-2.43-1.44-.8.62-1.86,1.1-3.2,1.38-.49.1-.6-.34-.18-.53,1.31-.46,2.14-.93,2.81-1.56-.46-.72-.78-1.56-.99-2.5-.17.19-.38.38-.59.55-.13.1-.26.13-.36.11.28.26.53.59.53.76,0,.21-.23.29-.62.29h-1.4c-.05.42-.1.88-.17,1.27h.17c.25-.38.52-.73.68-.73.26,0,1.06.8,1.07,1.09,0,.23-.25.29-.6.29h-1.46l-.04.1c-.32,1.02-1.1,1.16-1.54,1.16-.21,0-.29-.1-.4-.23s-.19-.17-.36-.23c-.39-.11-.31-.47.04-.46.26.02.46.04.78.04.28,0,.42-.15.52-.38h-3.46l-.05.17c-.08.34-.44.49-.81.44-.29-.04-.39-.17-.32-.44s.32-1.14.55-2.09h-1.12c-.21,0-.36-.06-.36-.32s.15-.32.36-.32h1.25c.13-.63.21-1.29.26-1.75-.38.4-.8.81-1.29,1.14-.39.26-.68-.04-.42-.39.95-1.07,1.61-2.18,1.93-3.3.05-.17.15-.25.34-.19.57.11,1.37.49,1.37.76,0,.23-.19.32-.72.32l-.15.25h3.4c.31-.44.7-.95.91-.95.29,0,1.37.89,1.38,1.25,0,.23-.28.34-.83.34h-5.31c-.08.11-.17.25-.28.38h.02c.17.06.47.19.72.36h3.05c.15-.17.31-.31.4-.31.32,0,1.06.65,1.06.89,0,.17-.19.32-.46.46-.02.21-.04.46-.05.74h.13c.26-.39.55-.76.72-.76.1,0,.25.08.4.21-.04-.08-.02-.19.06-.32.76-1.09,1.31-2.24,1.56-3.33.04-.15.13-.25.36-.21.6.1,1.31.36,1.31.62,0,.21-.13.32-.63.4-.17.34-.4.74-.67,1.16h2.64c.29-.46.67-.95.88-.95.31,0,1.31.89,1.33,1.25,0,.23-.29.34-.78.34h-1.2,0ZM696.37,49.93c-.04.26-.53.23-.95.15-.88.51-2.24,1.1-3.53,1.4-.42.08-.6-.32-.21-.53,1.33-.67,2.2-1.22,3.02-2.03.15-.13.23-.15.38-.06.55.26,1.35.76,1.29,1.09h0ZM696.15,47.58c.44,0,.86-.02,1.27-.04.89-.76,1.59-1.54,2.24-2.56.05-.13.19-.13.32-.1.67.28,1.43.76,1.33,1.08-.06.23-.44.21-.8.13-.51.4-1.15.95-1.82,1.4,1.3-.06,2.47-.17,3.55-.26-.17-.17-.34-.31-.52-.42-.21-.17-.11-.49.21-.46,1.51.13,2.32.86,2.55,1.46.13.39-.04.74-.4.88-.28.1-.47,0-.7-.23-.17-.17-.34-.42-.55-.67-1.12.23-2.42.39-3.77.51.1.06.17.13.17.23,0,.25-.21.32-.52.38v2.16c0,.34-.24.47-.7.47-.26,0-.44-.15-.44-.42,0-.26.02-.67.02-1.19,0-.46-.05-1.07-.1-1.5-1.59.08-3.25.13-4.84.15-.13.36-.32.67-.57.63-.34-.06-.47-.65-.46-1.52.02-.15.08-.19.21-.17,1.4.06,2.7.08,3.91.08-.08-.05-.17-.1-.26-.17-.21-.19-.45-.51-.74-.76-.28-.23-.57-.52-.86-.7-.18-.15-.1-.47.23-.46.85.06,1.48.31,1.88.62.34-.46.59-.93.83-1.44.05-.11.17-.13.31-.08.59.26,1.29.78,1.2,1.06-.05.19-.4.17-.72.1-.31.28-.76.65-1.14.93l.02.05c.17.36.04.72-.32.86h-.02ZM693.14,41.94c-.08.4-.17.85-.26,1.27h1.25l.21-1.27h-1.2,0ZM693.52,40.15c-.05.17-.13.6-.25,1.14h1.19l.19-1.14h-1.14,0ZM696.37,43.21c.08-.38.15-.81.19-1.27h-1.25l-.21,1.27h1.27,0ZM695.42,41.29h1.22c.04-.42.04-.83.04-1.14h-.7c-.06.1-.19.17-.39.23l-.17.91h0ZM703.75,50.24c.19.4.13.81-.24.99-.42.21-.83-.17-1.44-.67-.46-.38-.93-.68-1.4-.95-.32-.19-.29-.6.17-.6,1.14,0,2.52.46,2.91,1.22h0ZM702.54,39.7h-2.08c.23.91.6,1.67,1.16,2.29.47-.63.74-1.29.91-2.22l.02-.06h0Z"/>
      <path class="cls-10" d="M710.07,42.04c.05,1.08-.38,2.13-1.19,2.18-.36.02-.65-.21-.67-.59-.05-.7.57-.76.85-1.75.13-.4.1-.95.08-1.31s.44-.42.59-.1c.17.44.31,1.02.34,1.58h0ZM711.7,44.02c0,1.17.06,6.24.06,6.92,0,.38-.24.57-.78.57-.32,0-.51-.17-.51-.49,0-.73.17-5.43.17-6.66,0-.7.05-5.48-.23-7.12-.04-.15.06-.23.21-.23,1.08,0,1.95.1,1.95.51,0,.28-.34.46-.85.57-.04,1.16-.04,5.28-.04,5.93h0ZM713.83,42.25c-.13.4-.52.62-.95.47-.4-.13-.39-.55-.46-1.02-.05-.31-.15-.65-.23-.96-.1-.39.19-.67.6-.36.66.53,1.25,1.2,1.02,1.86h.02ZM717.28,41.11c-.06.28-.51.42-.88.51v7.23c0,.8.08.86,2.68.86,2.34-.02,3.19-.25,3.72-.25.36,0,.51.17.51.46,0,.28-.13.57-.52.68-.57.15-1.93.25-3.72.25-3.49,0-3.82-.34-3.82-1.79,0-.74.06-6.19-.06-7.95h-1.27c-.21,0-.36-.06-.36-.32s.15-.32.36-.32h3.75c.02-1.01.02-2.47-.08-3.15-.02-.17.08-.25.23-.25.28,0,1.92.05,1.92.49,0,.34-.36.47-.86.59v2.32h2.22c.34-.51.78-1.08,1.02-1.08.32,0,1.43.97,1.43,1.37,0,.25-.31.38-.85.38h-5.43l.02-.02Z"/>
      <path class="cls-10" d="M685.82,65.38c.28.15.51.34.51.51,0,.19-.23.29-.7.32-.26.81-.6,1.5-1.16,2.13.76.55,1.74.91,2.96,1.09.53.08.34.32.05.46-.39.17-.51.29-.65.49-.17.25-.25.38-.78.19-.99-.28-1.79-.78-2.43-1.44-.8.62-1.86,1.1-3.2,1.38-.49.1-.6-.34-.17-.53,1.31-.46,2.14-.93,2.81-1.56-.46-.72-.78-1.56-.99-2.5-.17.19-.38.38-.59.55-.13.1-.26.13-.36.11.28.26.53.59.53.76,0,.21-.23.29-.62.29h-1.4c-.05.42-.1.88-.17,1.27h.17c.25-.38.52-.73.68-.73.26,0,1.06.8,1.07,1.09,0,.23-.25.29-.6.29h-1.46l-.04.1c-.32,1.02-1.1,1.16-1.54,1.16-.21,0-.29-.1-.4-.23s-.19-.17-.36-.23c-.39-.11-.31-.47.04-.46.26.02.46.04.78.04.28,0,.42-.15.52-.38h-3.46l-.05.17c-.08.34-.44.49-.81.44-.29-.04-.39-.17-.32-.44s.32-1.14.55-2.09h-1.12c-.21,0-.36-.06-.36-.32s.15-.32.36-.32h1.25c.13-.63.21-1.29.26-1.75-.38.4-.8.81-1.29,1.14-.39.26-.68-.04-.42-.39.95-1.07,1.61-2.18,1.94-3.3.05-.17.15-.25.34-.19.57.11,1.37.49,1.37.76,0,.23-.19.32-.72.32l-.15.25h3.4c.31-.44.7-.95.91-.95.29,0,1.37.89,1.38,1.25,0,.23-.28.34-.83.34h-5.31c-.08.11-.17.25-.28.38h.02c.18.06.47.19.72.36h3.05c.15-.17.31-.31.4-.31.32,0,1.06.65,1.06.89,0,.17-.19.32-.46.46-.02.21-.04.46-.05.74h.13c.26-.39.55-.76.72-.76.1,0,.25.08.4.21-.04-.08-.02-.19.06-.32.76-1.09,1.31-2.24,1.56-3.33.04-.15.13-.25.36-.21.6.1,1.31.36,1.31.62,0,.21-.13.32-.63.4-.17.34-.4.74-.66,1.16h2.64c.29-.46.66-.95.88-.95.31,0,1.31.89,1.33,1.25,0,.23-.29.34-.78.34h-1.22ZM678.51,75.61c-.04.26-.53.23-.95.15-.88.51-2.24,1.1-3.53,1.4-.42.08-.6-.32-.21-.53,1.33-.67,2.2-1.22,3.02-2.03.15-.13.23-.15.38-.06.55.26,1.35.76,1.29,1.09h0ZM678.28,73.25c.44,0,.86-.02,1.27-.04.89-.76,1.59-1.54,2.24-2.56.05-.13.19-.13.32-.1.67.28,1.43.76,1.33,1.08-.06.23-.44.21-.8.13-.51.4-1.16.95-1.82,1.4,1.3-.06,2.47-.17,3.55-.26-.17-.17-.34-.31-.52-.42-.21-.17-.11-.49.21-.46,1.51.13,2.32.86,2.55,1.46.13.39-.04.74-.4.88-.28.1-.47,0-.7-.23-.17-.17-.34-.42-.55-.67-1.12.23-2.42.39-3.77.51.1.06.17.13.17.23,0,.25-.21.32-.52.38v2.16c0,.34-.25.47-.7.47-.26,0-.44-.15-.44-.42,0-.26.02-.67.02-1.19,0-.46-.05-1.07-.1-1.5-1.59.08-3.25.13-4.84.15-.13.36-.32.67-.57.63-.34-.06-.47-.65-.46-1.52.02-.15.08-.19.21-.17,1.4.06,2.7.08,3.91.08-.08-.05-.17-.1-.26-.17-.21-.19-.46-.51-.74-.76-.28-.23-.57-.52-.86-.7-.18-.15-.1-.47.23-.46.85.06,1.48.31,1.88.62.34-.46.59-.93.83-1.44.05-.11.17-.13.31-.08.59.26,1.29.78,1.2,1.06-.05.19-.4.17-.72.1-.31.28-.76.65-1.14.93l.02.05c.17.36.04.72-.32.86h-.02ZM675.27,67.62c-.08.4-.17.85-.26,1.27h1.25l.21-1.27h-1.2,0ZM675.65,65.83c-.05.17-.13.6-.24,1.14h1.19l.19-1.14h-1.14ZM678.51,68.88c.08-.38.15-.81.19-1.27h-1.25l-.21,1.27h1.27,0ZM677.55,66.96h1.22c.04-.42.04-.83.04-1.14h-.7c-.06.1-.19.17-.39.23l-.17.91h0ZM685.88,75.91c.19.4.13.81-.25.99-.42.21-.83-.17-1.44-.67-.45-.38-.93-.68-1.4-.95-.32-.19-.29-.6.17-.6,1.14,0,2.52.46,2.91,1.22h0ZM684.66,65.38h-2.08c.23.91.6,1.67,1.16,2.29.47-.63.74-1.29.91-2.22l.02-.06h0Z"/>
      <path class="cls-10" d="M692.2,67.71c.05,1.08-.38,2.13-1.19,2.18-.36.02-.65-.21-.66-.59-.05-.7.57-.76.85-1.75.13-.4.1-.95.08-1.31s.44-.42.59-.1c.18.44.31,1.02.34,1.58h0ZM693.83,69.69c0,1.17.06,6.24.06,6.92,0,.38-.25.57-.78.57-.32,0-.51-.17-.51-.49,0-.73.17-5.43.17-6.66,0-.7.05-5.48-.23-7.12-.04-.15.06-.23.21-.23,1.09,0,1.95.1,1.95.51,0,.28-.34.46-.85.57-.04,1.16-.04,5.28-.04,5.93h0ZM695.95,67.92c-.13.4-.52.62-.95.47-.4-.13-.39-.55-.46-1.02-.05-.31-.15-.65-.23-.96-.1-.39.19-.67.6-.36.67.53,1.25,1.2,1.02,1.86h.02ZM699.42,66.78c-.06.28-.51.42-.87.51v7.23c0,.8.08.86,2.68.86,2.34-.02,3.19-.25,3.72-.25.36,0,.51.17.51.46,0,.28-.13.57-.52.68-.57.15-1.93.25-3.72.25-3.49,0-3.82-.34-3.82-1.79,0-.74.06-6.19-.06-7.95h-1.27c-.21,0-.36-.06-.36-.32s.15-.32.36-.32h3.76c.02-1.01.02-2.47-.08-3.15-.02-.17.08-.25.23-.25.28,0,1.92.05,1.92.49,0,.34-.36.47-.86.59v2.32h2.22c.34-.51.78-1.08,1.02-1.08.32,0,1.43.97,1.43,1.37,0,.25-.31.38-.85.38h-5.43v-.02Z"/>
      <path class="cls-10" d="M719.09,64.45c.28-.36.6-.74.81-.74.38,0,1.43.8,1.43,1.17,0,.25-.31.42-.67.55-.11,2.39.06,9.55.06,10.76,0,.51-.36.63-.83.63-.4,0-.52-.29-.52-.55v-.7h-6.68v.89c0,.38-.25.59-.78.59-.34,0-.49-.19-.49-.49,0-1.95.19-10.23-.06-12.59-.02-.11.08-.23.23-.23.24,0,1.29.36,1.67.72h5.82ZM719.43,69.69c0-1.98.02-3.83,0-4.59h-6.51l-.17.04c-.06.86-.08,3.41-.08,4.57h6.76ZM719.4,74.91c0-1.16.02-2.86.04-4.57h-6.76l.04,4.57h6.7,0Z"/>
      <path class="cls-10" d="M675.04,18.24c.23-.31.52-.65.7-.65.32,0,1.25.72,1.25,1.07,0,.23-.29.42-.6.53-.02.86-.04,2.77,0,3.74.46.74,1.06,1.2,2.73,1.37,2,.21,5.92.11,8.41-.1.47-.05.46.42.05.52-.31.06-.36.19-.49.42-.13.26-.21.32-.57.36-1.86.11-5.65.17-7.99-.21-1.44-.28-2.16-.99-2.63-2.01-.68.73-1.44,1.51-2.07,2.18-.21.51-.46.53-.67.25-.17-.25-.42-.72-.51-1.04-.08-.21-.06-.29.21-.42.73-.34,1.67-.87,2.41-1.38.02-.91.04-3.07.04-3.97h-2.09c-.21,0-.36-.06-.36-.32s.15-.32.36-.32h1.82v-.02ZM674.04,12.56c-.25-.34-.05-.7.42-.55,1.04.36,2.01,1.06,2.03,1.93,0,.49-.28.83-.76.83-.46,0-.63-.46-.95-1.04-.23-.42-.51-.83-.74-1.17ZM678.21,12.64c-.21,0-.36-.06-.36-.32s.15-.32.36-.32h6.56c.28-.26.62-.53.8-.52.31.02,1.25.89,1.22,1.38-.02.34-.55.28-.93.29-.6.36-1.54.95-2.41,1.48l.05.08c.13.25.13.47.02.65h1.86c.21-.26.46-.52.55-.52.39,0,1.35.86,1.35,1.17,0,.21-.31.38-.65.51-.04,1.46,0,3.8-.04,5.75,0,.97-.68,1.38-1.31,1.38s-.25-.6-1.1-.89c-.32-.15-.28-.53.04-.53.11,0,.6.06.85.06.36,0,.49-.15.52-.53.02-.32.02-.78.04-1.27h-2.7l.02,2.62c0,.36-.25.47-.68.47-.26,0-.42-.15-.42-.44,0-.21.04-1.61.05-2.65h-2.54l.02,2.63c0,.36-.23.53-.7.53-.28,0-.42-.17-.42-.46,0-1.41.15-6.32-.06-8.12-.02-.13.1-.23.24-.21.25.02.86.26,1.22.51h2.86c-.23-.21-.51-.47-.83-.73-.32-.25-.68-.51-1.02-.72-.24-.13-.15-.51.19-.47.97.11,1.67.4,2.13.72.57-.47,1.14-.95,1.69-1.52h-6.46ZM679.4,16.01c-.02.31-.04.89-.05,1.51h2.54c0-.55-.02-1.1-.06-1.51h-2.43ZM681.91,19.83v-1.65h-2.55v1.65h2.55ZM685.63,19.83v-1.65h-2.68l-.02,1.41v.25h2.7ZM683.45,16.01c-.02.17-.17.28-.49.32,0,.23-.02.68-.02,1.19h2.68v-1.51h-2.18,0Z"/>
      <path class="cls-10" d="M703.15,14.5c.28-.34.7-.74.89-.74.29,0,1.37.95,1.37,1.41-.02.32-.44.36-.88.46-.46.39-.95.8-1.31,1.06-.34.25-.65,0-.46-.36.18-.36.38-.78.52-1.17h-10.27v.02c0,1.01-.52,2.01-1.43,2.01-.4,0-.66-.29-.66-.68,0-.73.72-.68,1.07-1.63.15-.39.08-.89.08-1.27-.02-.36.4-.46.59-.1.13.28.25.62.31.99h4.58c.02-1.06,0-2.41-.08-3.05-.02-.17.08-.25.23-.25.28,0,1.82.05,1.82.47,0,.34-.34.47-.85.59v2.24h4.48,0ZM701.98,20.97c.26-.34.59-.72.7-.72.4,0,1.5.93,1.5,1.23,0,.25-.38.44-.76.57,0,.59.02,1.38,0,2.18,0,.91-.73,1.31-1.38,1.31s-.26-.53-1.07-.83c-.34-.15-.29-.52.02-.52.13,0,.62.05.81.05.36,0,.49-.13.52-.46.04-.44.04-.99.04-1.46v-.72h-3.66v.53c0,1.56.05,2.66.05,3.12,0,.34-.24.59-.78.59-.32,0-.44-.17-.44-.49,0-.52.05-1.61.05-3.22v-.53h-3.38c-.02.34-.02,1.38-.02,1.64s.02,1.63.02,1.92c0,.34-.26.49-.76.49-.29,0-.44-.15-.44-.42,0-.99.08-3.25-.06-4.61-.02-.13.1-.23.23-.21.28.04.96.29,1.35.55h3.07v-1.41h-1.92v.1c0,.34-.25.49-.7.49-.26,0-.4-.15-.4-.44,0-.87.06-2.45-.06-3.7-.02-.13.11-.23.24-.19.31.04.99.31,1.31.59h4.35c.21-.31.51-.63.66-.63.31,0,1.19.67,1.19,1.01,0,.17-.23.32-.49.42-.02.63,0,1.8,0,2.18,0,.51-.23.62-.65.62-.31,0-.44-.21-.46-.42h-1.67s.05.06.05.11c0,.13-.11.23-.34.29v1.01h3.32ZM694.07,12.05c-.17-.38.06-.7.52-.47.76.36,1.52.88,1.38,1.59-.06.46-.42.73-.91.65-.42-.06-.49-.49-.63-.91-.1-.28-.23-.59-.36-.86ZM695.65,18.9h4.99l.04-1.86h-5.01c-.02.31-.02.93-.02,1.19v.68h0ZM700.47,13.67c.36-.65.63-1.3.8-2.05.04-.15.15-.26.31-.21.57.17,1.5.7,1.5.97,0,.25-.26.34-.74.31-.34.44-.78.93-1.35,1.31-.38.28-.68.05-.51-.34h0Z"/>
      <rect class="cls-11" x="578.09" y="31.88" width="81.24" height="23.02"/>
      <rect class="cls-12" x="578.09" y="58.01" width="81.24" height="23.02"/>
      <rect class="cls-14" x="578.09" y="5.75" width="81.24" height="23.02"/>
    </g>
    <g id="_レイヤー_5-2" data-name=" レイヤー 5">
      <rect class="cls-11" x="147.41" y="183.97" width="589.99" height="33.99"/>
      <rect class="cls-12" x="147.41" y="263.51" width="589.99" height="33.99"/>
      <rect class="cls-12" x="147.41" y="420.78" width="589.99" height="33.99"/>
      <rect class="cls-11" x="147.41" y="263.51" width="510.86" height="33.99"/>
      <rect class="cls-14" x="147.41" y="183.97" width="400.7" height="33.99"/>
      <rect class="cls-14" x="40.78" y="263.51" width="507.33" height="33.99"/>
      <rect class="cls-12" x="30.51" y="499.42" width="411.9" height="33.99"/>
      <rect class="cls-11" x="30.51" y="420.78" width="627.76" height="33.99"/>
      <rect class="cls-11" x="40.78" y="342.15" width="189.29" height="33.99"/>
      <rect class="cls-14" x="230.07" y="342.15" width="507.33" height="33.99"/>
      <rect class="cls-11" x="548.11" y="342.15" width="189.29" height="33.99"/>
      <rect class="cls-11" x="30.51" y="263.51" width="78.64" height="33.99"/>
      <rect class="cls-12" x="30.51" y="342.15" width="78.64" height="33.99"/>
      <rect class="cls-13" x="361.44" y="224.97" width="201.38" height="38.58" rx="11.31" ry="11.31"/>
      <polyline class="cls-13" points="435.1 262.67 401.98 275.53 410.19 260.84"/>
      <path class="cls-10" d="M381.15,241.66c.27-.33.62-.7.79-.7.35,0,1.36.85,1.36,1.19,0,.2-.28.4-.62.54-.79,3.33-2.38,5.68-5.37,7.44-.43.27-.81-.21-.4-.54,2.53-2.02,3.94-4.4,4.45-7.28h-3.92c-.21,0-.37-.06-.37-.33,0-.25.15-.33.37-.33h3.72ZM392.07,249.02c-.46.17-.62.33-.76.53-.18.28-.37.43-.79.21-2.86-1.49-4.57-4.17-5.44-7.92,0,2.66.04,5.77.02,8.34,0,.91-.53,1.49-1.28,1.49-.56,0-.35-.58-1.51-.96-.37-.15-.31-.54.04-.53.33.02.73.05.99.05.35,0,.54-.13.58-.64.06-1.19.04-3.87.04-5.64,0-1.24,0-5.14-.2-6.83-.02-.21.05-.28.31-.28,1.07,0,1.94.18,1.94.53,0,.27-.31.41-.87.56-.02.38-.02.79-.04,1.24.35,1.72.81,3.22,1.47,4.5,1.41-1.12,2.73-2.53,3.53-3.9.06-.13.13-.23.31-.15.53.2,1.55.87,1.51,1.2-.04.27-.37.31-.83.18-.93.97-2.48,2.33-4.22,3.22,1.19,2.03,2.86,3.44,5.18,4.25.53.18.4.41.04.54h-.02Z"/>
      <path class="cls-10" d="M403.65,244.77c.23-.31.51-.64.68-.64.33,0,1.26.71,1.26,1.07,0,.21-.27.35-.54.46-.04,1.24.02,4.45.02,5.1,0,.51-.25.62-.7.62-.38,0-.48-.29-.48-.56v-.58h-3.57v.78c0,.37-.23.53-.71.53-.29,0-.45-.17-.45-.46.02-1.24.12-5.04-.05-6.68-.02-.12.1-.23.23-.21.28.04.99.29,1.36.58h2.96v-.02ZM400.34,245.43c-.02.33-.04,1.07-.04,1.69h3.6v-1.69h-3.57,0ZM403.91,249.59l.02-1.8h-3.6v1.8h3.59,0ZM403.11,243.38c0,.37-.25.51-.73.51-.29,0-.46-.15-.46-.45.02-1.18.12-4.57-.05-6.14-.02-.13.1-.23.23-.21.28.04,1.09.33,1.45.62h5c.25-.29.53-.62.7-.62.35,0,1.36.73,1.36,1.09,0,.21-.28.37-.58.48-.05,1.26.02,3.82.02,4.45,0,.51-.28.62-.74.62-.4,0-.53-.29-.53-.56v-.28h-5.66v.48ZM403.15,238.39c-.02.31-.04,1.03-.04,1.59h5.69v-1.59h-5.66,0ZM408.77,242.25l.02-1.62h-5.68v1.62h5.66ZM411.29,244.77c.23-.31.51-.64.7-.64.31,0,1.28.71,1.28,1.07,0,.21-.27.37-.56.48-.04,1.26.02,4.44.02,5.08,0,.51-.27.62-.7.62-.38,0-.5-.29-.5-.56v-.58h-3.64v.78c0,.37-.25.51-.73.51-.29,0-.45-.15-.45-.45.02-1.24.12-5.04-.05-6.68-.02-.12.1-.23.23-.21.27.04.97.29,1.38.58h3.02,0ZM407.89,245.44c-.02.31-.04,1.06-.04,1.67h3.69v-1.69h-3.57l-.08.02h0ZM411.53,249.59l.02-1.8h-3.69v.21l.02,1.59h3.66Z"/>
      <path class="cls-10" d="M423,241.8c.46.08,1.78.54,1.78,1.03,0,.27-.25.43-.89.38-.51,1.07-1.52,3.01-3.41,4.48-.41.33-.87-.04-.54-.46,1.39-1.82,2.33-3.62,2.6-5.14.05-.28.15-.35.46-.28ZM429.04,237.79c0,.27-.27.43-.85.58-.1,2.77-.05,7.96-.05,11.82-.02,1.04-.78,1.47-1.42,1.47-.6,0-.35-.62-1.94-1.03-.38-.1-.31-.6.05-.56.54.05,1.06.13,1.39.13.46,0,.68-.17.71-.68.06-1.16.04-4.46.04-6.17,0-1.2,0-3.89-.2-5.84-.02-.2.1-.25.33-.25.81,0,1.94.12,1.94.51v.02ZM431.32,242.02c2.21.86,3.56,2.52,3.56,3.64,0,.51-.23.93-.76.93-.38,0-.6-.15-.83-.62-.73-1.51-1.16-2.15-2.4-3.39-.29-.29-.04-.73.43-.54h0Z"/>
      <path class="cls-10" d="M444.63,241.08c0,.64-.02,1.29-.05,1.98-.08,2.54-.37,5.82-2.96,7.97-.38.35-.81.04-.48-.41,1.57-2.09,2.2-4.13,2.23-8.04.02-1.51-.02-3.36-.15-5.04-.02-.27.08-.35.29-.31.25.05.85.29,1.26.56h8.43c.25-.33.58-.71.76-.71.35,0,1.34.73,1.34,1.09,0,.21-.28.37-.58.5-.02.79,0,1.88.02,2.32,0,.51-.27.62-.74.62.43.25,1.14.89,1.14,1.19.02.23-.25.35-.85.35h-4.34c.18.1.29.21.29.33,0,.27-.43.38-.79.41-.23.38-.46.74-.7,1.09,1.44-.05,2.69-.17,3.78-.31-.18-.2-.37-.4-.54-.56-.2-.18-.06-.5.27-.43,1.51.25,2.33,1.04,2.5,1.78.1.41-.1.76-.54.86-.29.06-.51-.05-.7-.31-.15-.18-.29-.45-.46-.71-1.77.4-4.09.66-6.78.76-.12.37-.29.68-.56.62-.33-.05-.5-.62-.5-1.53,0-.15.08-.18.21-.18.81.04,1.57.05,2.28.04.28-.6.51-1.24.66-1.86h-3.04c-.21,0-.37-.06-.37-.33,0-.25.15-.33.37-.33h7.44c.29-.43.66-.91.89-.97-.13-.1-.2-.27-.2-.43h-8.87v-.02ZM453.7,250.42c.37-.53.83-1.18,1.09-1.19.35.02,1.57,1.04,1.57,1.45,0,.25-.31.4-.93.4h-11.46c-.21,0-.37-.06-.37-.33,0-.25.15-.33.37-.33h5.19c.02-.56.02-1.24,0-1.88h-3.64c-.21,0-.37-.06-.37-.33,0-.25.15-.33.37-.33h3.64c-.02-.64-.05-1.2-.08-1.57-.02-.15.08-.23.23-.23.28,0,1.75.06,1.75.46,0,.31-.29.43-.74.53v.81h1.74c.35-.51.81-1.11,1.06-1.11.33,0,1.52.99,1.52,1.39,0,.23-.29.38-.91.38h-3.41v1.88h3.37v.02ZM444.63,238.5c.02.66.02,1.29.02,1.92h8.87c0-.6.02-1.44.02-1.97h-8.74l-.17.05h0Z"/>
      <path class="cls-10" d="M465.99,241.8c.46.08,1.79.54,1.79,1.03,0,.27-.25.43-.89.38-.51,1.07-1.52,3.01-3.41,4.48-.41.33-.87-.04-.54-.46,1.39-1.82,2.33-3.62,2.6-5.14.05-.28.15-.35.46-.28h0ZM472.04,237.79c0,.27-.27.43-.85.58-.1,2.77-.05,7.96-.05,11.82-.02,1.04-.78,1.47-1.42,1.47-.6,0-.35-.62-1.94-1.03-.38-.1-.31-.6.05-.56.54.05,1.06.13,1.39.13.46,0,.68-.17.71-.68.06-1.16.04-4.46.04-6.17,0-1.2,0-3.89-.2-5.84-.02-.2.1-.25.33-.25.81,0,1.94.12,1.94.51v.02ZM474.31,242.02c2.21.86,3.56,2.52,3.56,3.64,0,.51-.23.93-.76.93-.38,0-.6-.15-.83-.62-.73-1.51-1.16-2.15-2.4-3.39-.29-.29-.04-.73.43-.54h0Z"/>
      <path class="cls-10" d="M487.63,241.08c0,.64-.02,1.29-.05,1.98-.08,2.54-.37,5.82-2.96,7.97-.38.35-.81.04-.48-.41,1.57-2.09,2.2-4.13,2.23-8.04.02-1.51-.02-3.36-.15-5.04-.02-.27.08-.35.29-.31.25.05.85.29,1.26.56h8.43c.25-.33.58-.71.76-.71.35,0,1.34.73,1.34,1.09,0,.21-.28.37-.58.5-.02.79,0,1.88.02,2.32,0,.51-.27.62-.74.62.43.25,1.14.89,1.14,1.19.02.23-.25.35-.85.35h-4.34c.18.1.29.21.29.33,0,.27-.43.38-.79.41-.23.38-.46.74-.7,1.09,1.44-.05,2.69-.17,3.78-.31-.18-.2-.37-.4-.54-.56-.2-.18-.06-.5.27-.43,1.51.25,2.33,1.04,2.5,1.78.1.41-.1.76-.54.86-.29.06-.51-.05-.7-.31-.15-.18-.29-.45-.46-.71-1.77.4-4.09.66-6.78.76-.12.37-.29.68-.56.62-.33-.05-.5-.62-.5-1.53,0-.15.08-.18.21-.18.81.04,1.57.05,2.28.04.28-.6.51-1.24.66-1.86h-3.04c-.21,0-.37-.06-.37-.33,0-.25.15-.33.37-.33h7.44c.29-.43.66-.91.89-.97-.13-.1-.2-.27-.2-.43h-8.87v-.02ZM496.69,250.42c.37-.53.83-1.18,1.09-1.19.35.02,1.57,1.04,1.57,1.45,0,.25-.31.4-.93.4h-11.46c-.21,0-.37-.06-.37-.33,0-.25.15-.33.37-.33h5.19c.02-.56.02-1.24,0-1.88h-3.64c-.21,0-.37-.06-.37-.33,0-.25.15-.33.37-.33h3.64c-.02-.64-.05-1.2-.08-1.57-.02-.15.08-.23.23-.23.28,0,1.75.06,1.75.46,0,.31-.29.43-.74.53v.81h1.74c.35-.51.81-1.11,1.06-1.11.33,0,1.52.99,1.52,1.39,0,.23-.29.38-.91.38h-3.41v1.88h3.37v.02ZM487.63,238.5c.02.66.02,1.29.02,1.92h8.87c0-.6.02-1.44.02-1.97h-8.74l-.17.05h0Z"/>
      <path class="cls-10" d="M512.89,240.25c1.28-.33,3.12-.86,4.01-.85.86.02,1.19.43,1.19.76,0,.41-.53.45-1.22.46-1.38.04-2.35.18-4.19.62-.13.73-.28,1.51-.33,2.09.62-.18,1.28-.28,1.95-.28.15,0,.29,0,.46.02-.04-.37-.12-.7-.25-1.01-.12-.28.13-.43.4-.25.25.18.51.41.71.78.1.18.17.38.18.66,1.77.46,3.08,1.8,3.08,3.78,0,2.6-2.56,3.82-5.7,3.92-.35.02-.46-.46-.05-.53,2.25-.4,4.52-1.41,4.55-3.62.02-1.36-.76-2.33-1.95-2.77-.04.17-.06.35-.13.54-.28.95-.97,2.5-2.23,3.7-1.2,1.16-2.71,1.86-3.76,1.86-.88,0-1.42-.48-1.42-1.9,0-1.29.78-2.65,1.74-3.52.45-.41.97-.74,1.53-1.03.04-.73.12-1.49.21-2.19-1.3.33-2.27.66-3.04.66-.83,0-1.49-.95-1.55-1.59-.02-.23.17-.31.37-.2.4.23.99.66,1.57.66.74,0,1.74-.23,2.79-.5.1-.7.2-1.22.2-1.52,0-.28-.08-.37-.35-.51-.31-.18-.79-.31-.79-.56,0-.27.54-.4.97-.4.62,0,1.55.4,1.53.89,0,.28-.18.66-.38,1.45l-.1.37h0ZM510.01,248.87c.6,0,1.32-.28,2.13-.87-.06-.06-.13-.15-.2-.25-.46-.85-.5-1.98-.51-3.21-.43.27-.79.58-1.12.91-.68.68-1.06,1.61-1.06,2.38,0,.86.28,1.04.76,1.04h0ZM514.75,243.79c-.18-.02-.4-.04-.6-.04-.68,0-1.28.12-1.82.33.04,1.26.2,2.27.53,2.96.05.1.08.18.12.27.78-.78,1.41-2,1.62-2.73.08-.27.13-.53.15-.79Z"/>
      <path class="cls-10" d="M541.09,242.22c-.62.33-1.37.51-2.27.66.12,1.29.12,2.54-.1,3.7-.27,1.47-.83,3.43-3.82,4.24-.35.1-.51-.28-.18-.48,2.13-1.26,2.75-2.42,2.98-4.34.15-1.16.12-2.15.06-2.99-.91.08-1.92.1-2.75.1-.5,0-.78.23-1.04.56-.54.7-2.2,3.35-2.2,4.2,0,1.01.41,1.41.18,1.78-.15.25-.68.2-1.06-.17-.89-.86-1.32-2.21-1.32-3.51,0-2.15.76-3.59,1.06-5.52.18-1.11-.1-1.32-.66-2.28-.13-.23.04-.45.35-.33,1.3.46,2.15,1.61,1.61,2.96-.33.83-1.37,3.06-1.37,4.63,0,.4.04.83.1,1.09.06.25.25.37.5.02.6-.76,1.52-2.36,2.21-3.24.46-.6.71-1.03,1.42-1.06.83-.04,2.03-.13,2.91-.27-.06-.83-.23-2.02-.73-2.58-.4-.46-.78-.64-.78-.97,0-.21.18-.38.54-.38,1.14,0,1.47.31,1.64,1.37.08.5.15.99.21,1.49.2.31.41.41.71.48.41.08,1.09-.18,1.53-.18.7,0,.86.7.25,1.01h0Z"/>
    </g>
    <g id="_レイヤー_4-2" data-name=" レイヤー 4">
      <g class="cls-2">
        <text class="cls-5" transform="translate(357.69 77.98)"><tspan x="0" y="0">7</tspan></text>
      </g>
      <g class="cls-2">
        <text class="cls-7" transform="translate(153.12 128.61)"><tspan x="0" y="0">M</tspan><tspan class="cls-21" x="10.02" y="0">O</tspan><tspan x="18.2" y="0">N</tspan></text>
      </g>
      <g class="cls-2">
        <text class="cls-7" transform="translate(264.94 128.61)"><tspan x="0" y="0">T</tspan><tspan class="cls-25" x="6.19" y="0">U</tspan><tspan x="14.49" y="0">E</tspan></text>
      </g>
      <g class="cls-2">
        <text class="cls-7" transform="translate(371.7 128.61)"><tspan class="cls-16" x="0" y="0">W</tspan><tspan x="10.95" y="0">ED</tspan></text>
      </g>
      <g class="cls-2">
        <text class="cls-7" transform="translate(482.83 128.61)"><tspan class="cls-20" x="0" y="0">T</tspan><tspan class="cls-19" x="6.44" y="0">HU</tspan></text>
      </g>
      <g class="cls-2">
        <text class="cls-7" transform="translate(594.06 128.61)"><tspan class="cls-15" x="0" y="0">F</tspan><tspan x="7.32" y="0">RI</tspan></text>
      </g>
      <g class="cls-2">
        <text class="cls-7" transform="translate(701.52 128.61)"><tspan x="0" y="0">S</tspan><tspan class="cls-17" x="7.92" y="0">A</tspan><tspan class="cls-19" x="16" y="0">T</tspan></text>
      </g>
      <g class="cls-2">
        <text class="cls-8" transform="translate(153.43 370.05)"><tspan x="0" y="0">15</tspan></text>
      </g>
      <g class="cls-2">
        <text class="cls-8" transform="translate(43.92 370.05)"><tspan x="0" y="0">14</tspan></text>
      </g>
      <g class="cls-2">
        <text class="cls-1" transform="translate(263.03 370.05)"><tspan x="0" y="0">16</tspan></text>
      </g>
      <g class="cls-2">
        <text class="cls-1" transform="translate(372.36 370.05)"><tspan x="0" y="0">17</tspan></text>
      </g>
      <g class="cls-2">
        <text class="cls-1" transform="translate(480.84 370.05)"><tspan x="0" y="0">18</tspan></text>
      </g>
      <g class="cls-2">
        <text class="cls-1" transform="translate(590.65 370.05)"><tspan x="0" y="0">19</tspan></text>
      </g>
      <g class="cls-2">
        <text class="cls-1" transform="translate(697.1 370.05)"><tspan x="0" y="0">20</tspan></text>
      </g>
      <g class="cls-2">
        <text class="cls-8" transform="translate(44.57 447.1)"><tspan x="0" y="0">21</tspan></text>
      </g>
      <g class="cls-2">
        <text class="cls-1" transform="translate(260.55 447.1)"><tspan x="0" y="0">23</tspan></text>
      </g>
      <g class="cls-2">
        <text class="cls-1" transform="translate(152.3 447.1)"><tspan x="0" y="0">22</tspan></text>
      </g>
      <g class="cls-2">
        <text class="cls-6" transform="translate(369.26 447.1)"><tspan class="cls-18" x="0" y="0">2</tspan><tspan class="cls-9" x="14.57" y="0">4</tspan></text>
      </g>
      <g class="cls-2">
        <text class="cls-1" transform="translate(478.77 447.1)"><tspan x="0" y="0">25</tspan></text>
      </g>
      <g class="cls-2">
        <text class="cls-6" transform="translate(588.37 447.1)"><tspan class="cls-18" x="0" y="0">2</tspan><tspan class="cls-9" x="14.57" y="0">6</tspan></text>
      </g>
      <g class="cls-2">
        <text class="cls-1" transform="translate(697.7 447.1)"><tspan x="0" y="0">27</tspan></text>
      </g>
      <g class="cls-2">
        <text class="cls-1" transform="translate(151.54 525.81)"><tspan x="0" y="0">29</tspan></text>
      </g>
      <g class="cls-2">
        <text class="cls-8" transform="translate(41.71 525.81)"><tspan x="0" y="0">28</tspan></text>
      </g>
      <g class="cls-2">
        <text class="cls-1" transform="translate(260.12 525.81)"><tspan x="0" y="0">30</tspan></text>
      </g>
      <g class="cls-2">
        <text class="cls-1" transform="translate(372.04 525.81)"><tspan x="0" y="0">31</tspan></text>
      </g>
      <g class="cls-2">
        <text class="cls-1" transform="translate(158.57 290.54)"><tspan x="0" y="0">8</tspan></text>
      </g>
      <g class="cls-2">
        <text class="cls-8" transform="translate(50.09 290.54)"><tspan x="0" y="0">7</tspan></text>
      </g>
      <g class="cls-2">
        <text class="cls-1" transform="translate(268.39 290.54)"><tspan x="0" y="0">9</tspan></text>
      </g>
      <g class="cls-2">
        <text class="cls-1" transform="translate(371.76 290.54)"><tspan x="0" y="0">10</tspan></text>
      </g>
      <g class="cls-2">
        <text class="cls-1" transform="translate(483.68 290.54)"><tspan x="0" y="0">11</tspan></text>
      </g>
      <g class="cls-2">
        <text class="cls-1" transform="translate(590.61 290.54)"><tspan x="0" y="0">12</tspan></text>
      </g>
      <g class="cls-2">
        <text class="cls-1" transform="translate(699.66 290.54)"><tspan x="0" y="0">13</tspan></text>
      </g>
      <g class="cls-2">
        <text class="cls-4" transform="translate(41.58 73.3)"><tspan class="cls-22" x="0" y="0">20</tspan><tspan class="cls-24" x="28.78" y="0">2</tspan><tspan class="cls-23" x="42.11" y="0">4</tspan></text>
      </g>
      <g class="cls-2">
        <text class="cls-1" transform="translate(705.22 210.96)"><tspan x="0" y="0">6</tspan></text>
      </g>
      <g class="cls-2">
        <text class="cls-1" transform="translate(268.35 210.96)"><tspan x="0" y="0">2</tspan></text>
      </g>
      <g class="cls-2">
        <text class="cls-1" transform="translate(161.43 210.96)"><tspan x="0" y="0">1</tspan></text>
      </g>
      <g class="cls-2">
        <text class="cls-1" transform="translate(377.4 210.96)"><tspan x="0" y="0">3</tspan></text>
      </g>
      <g class="cls-2">
        <text class="cls-1" transform="translate(486.12 210.96)"><tspan x="0" y="0">4</tspan></text>
      </g>
      <g class="cls-2">
        <text class="cls-1" transform="translate(595.63 210.96)"><tspan x="0" y="0">5</tspan></text>
      </g>
      <g class="cls-2">
        <text class="cls-3" transform="translate(44.9 128.61)"><tspan class="cls-17" x="0" y="0">S</tspan><tspan class="cls-25" x="7.67" y="0">U</tspan><tspan x="15.97" y="0">N</tspan></text>
      </g>
    </g>
    <g id="_レイヤー_8" data-name=" レイヤー 8">
      <rect class="cls-13" x="548.11" y="145.43" width="201.38" height="38.58" rx="11.31" ry="11.31"/>
      <polyline class="cls-13" points="663.15 183.09 696.27 195.94 688.05 181.26"/>
      <path class="cls-10" d="M575.85,170.03c.39-.54.86-1.19,1.12-1.19.35,0,1.61,1.03,1.61,1.45,0,.23-.28.4-.96.4h-13.64c-.21,0-.37-.06-.37-.33,0-.25.15-.33.37-.33h11.88,0ZM574.79,159.31c.37-.54.85-1.19,1.11-1.19.35,0,1.61,1.03,1.61,1.45,0,.23-.29.4-.96.4h-11.35c-.21,0-.37-.06-.37-.33,0-.25.15-.33.37-.33h9.59,0ZM573.73,164.5c.37-.54.85-1.19,1.11-1.19.35,0,1.61,1.03,1.61,1.45,0,.23-.31.4-.96.4h-9.25c-.21,0-.37-.06-.37-.33,0-.25.15-.33.37-.33h7.5,0Z"/>
      <path class="cls-10" d="M588.66,162.26c0,.23-.28.33-.62.4-.05.81-.06,3.49-.06,4.03,0,.48.04,4.36.04,4.9,0,.37-.25.54-.74.54-.29,0-.45-.17-.45-.46,0-1.11.1-5.68.04-8.27-.48.7-1.03,1.37-1.65,1.98-.35.37-.74.08-.45-.35,1.72-2.42,2.98-5.14,3.39-7.59.04-.18.1-.28.29-.25.6.12,1.74.62,1.74.99,0,.27-.33.37-.81.29-.35.91-.81,2.03-1.44,3.19.37.17.74.4.74.58h0ZM595.26,167.82c.62,1.61,2.33,2.58,4.81,2.88.56.08.31.33.04.46-.41.2-.5.31-.64.5-.15.23-.2.38-.79.2-2.11-.53-3.56-2.07-4.03-3.97-.62,2.33-2.36,3.66-5.49,4.24-.6.1-.68-.43-.13-.6,2.56-.71,3.99-1.86,4.5-3.7h-4.1c-.21,0-.37-.06-.37-.33,0-.25.15-.33.37-.33h4.25c.1-.62.12-1.34.05-2.11v-.02h-3.64c-.21,0-.37-.06-.37-.33,0-.25.15-.33.37-.33h7.19c.31-.46.7-.96.91-.96.29,0,1.3.91,1.32,1.28,0,.23-.28.35-.78.35h-3.29c.06.05.1.1.1.17,0,.21-.17.31-.62.4,0,.56-.05,1.09-.12,1.57h2.98c.33-.48.74-1.03.97-1.03.31,0,1.44.95,1.44,1.32,0,.23-.27.37-.86.37h-4.08ZM592.05,163.05c0,.37-.27.51-.76.51-.29,0-.45-.15-.45-.45,0-.81.1-4.01-.06-5.31-.04-.18.12-.27.28-.21.37.1,1.04.45,1.39.74h4.19c.27-.33.6-.73.79-.73.33,0,1.3.71,1.3,1.07,0,.21-.28.37-.58.48-.02,1.03.02,3.01.02,3.54s-.27.62-.71.62c-.4,0-.51-.29-.51-.56v-.17h-4.9v.45h0ZM596.97,161.94c0-.89.02-2.21.02-2.94h-4.77l-.17.04c-.02.38-.02,1.52-.02,1.84v1.07h4.93Z"/>
      <path class="cls-10" d="M619.15,169.48c.04-1.09.06-2.3.06-2.81,0-.54.04-4.02-.17-5.26-.02-.17.06-.25.21-.25.97,0,2.05.08,2.05.53,0,.29-.37.48-.89.58-.04.83-.02,3.74-.02,4.24,0,.86.05,4.38.05,4.91,0,.38-.29.54-.85.54-.33,0-.51-.17-.51-.5,0-.2.02-.7.04-1.32h-10.25l.02,1.3c0,.38-.29.56-.85.56-.33,0-.51-.18-.51-.48,0-.6.12-3.9.12-4.83,0-.56.04-4.02-.17-5.29-.02-.17.06-.25.21-.25.97,0,2.05.08,2.05.53,0,.29-.37.48-.89.58-.04.83-.02,3.76-.02,4.25s.02,1.8.04,2.96h4.48c.05-2.46.12-10.16-.08-11.68-.02-.17.08-.25.25-.25.29,0,2.05.05,2.05.51,0,.38-.38.53-.93.64v10.77h4.51Z"/>
      <path class="cls-10" d="M632.73,166.95c0,.74.05,4.19.05,4.69,0,.37-.27.51-.74.51-.28,0-.46-.17-.46-.46,0-.4.06-2.56.1-3.86-.62.54-1.7,1.34-2.43,1.86.02.6-.1.97-.4.97-.35,0-.7-.6-.96-1.45-.06-.21,0-.4.25-.5.99-.4,2.36-1.04,3.37-1.74.06-.05.13-.08.18-.1,0-.85.02-3.7-.15-4.8-.04-.15.06-.23.21-.23.81,0,1.84.08,1.84.48,0,.27-.31.43-.83.51-.04.78-.04,3.57-.04,4.11h0ZM628.48,159.7c-.21,0-.37-.06-.37-.33,0-.25.15-.33.37-.33h4.28c-.02-.53-.06-1.12-.12-1.57-.02-.17.08-.23.23-.23.66,0,1.86.05,1.86.48,0,.28-.25.5-.83.56v.76h3.1c-.02-.53-.06-1.14-.1-1.57-.04-.17.08-.23.23-.23.66,0,1.86.05,1.86.48,0,.28-.27.5-.85.56v.76h2.27c.35-.51.79-1.11,1.04-1.11.33,0,1.52.99,1.52,1.39,0,.23-.27.38-.91.38h-3.9v1.41c0,.35-.27.5-.73.5-.29,0-.48-.17-.48-.45s.04-.85.04-1.45h-3.08v1.45c0,.35-.27.5-.73.5-.29,0-.46-.17-.46-.45s.04-.87.04-1.51h-4.28v.02ZM629.12,163.31c.91.41,1.74,1.04,1.7,1.8-.02.46-.31.78-.79.76-.45-.02-.58-.46-.81-.97-.15-.37-.37-.71-.58-1.06-.21-.35,0-.71.48-.53h0ZM638.35,165.81v4.85h1.9c.35-.51.79-1.12,1.04-1.12.33,0,1.49,1.01,1.49,1.41,0,.23-.31.38-.87.38h-8c-.21,0-.37-.06-.37-.33,0-.25.15-.33.37-.33h3.26c.02-1.22.04-3.12.02-4.85h-3.52c-.21,0-.37-.06-.37-.33,0-.25.15-.33.37-.33h3.51c-.02-1.32-.06-2.46-.13-3.01-.02-.15.08-.23.23-.23.28,0,1.97.05,1.97.48,0,.37-.37.5-.87.62v2.15h2.21c.37-.54.83-1.19,1.09-1.19.35,0,1.52,1.04,1.52,1.45,0,.25-.35.4-.89.4h-3.96Z"/>
      <path class="cls-10" d="M652.67,162.27c.46.08,1.79.54,1.79,1.03,0,.27-.25.43-.89.38-.51,1.07-1.52,3.01-3.41,4.48-.41.33-.87-.04-.54-.46,1.39-1.82,2.33-3.62,2.6-5.14.05-.28.15-.35.46-.28h0ZM658.71,158.25c0,.27-.27.43-.85.58-.1,2.78-.05,7.96-.05,11.82-.02,1.04-.78,1.47-1.42,1.47-.6,0-.35-.62-1.94-1.03-.38-.1-.31-.6.05-.56.54.05,1.06.13,1.39.13.46,0,.68-.17.71-.68.06-1.16.04-4.46.04-6.17,0-1.2,0-3.89-.2-5.84-.02-.2.1-.25.33-.25.81,0,1.94.12,1.94.51v.02ZM660.99,162.49c2.21.86,3.56,2.52,3.56,3.64,0,.51-.23.93-.76.93-.38,0-.6-.15-.83-.62-.73-1.51-1.16-2.15-2.4-3.39-.29-.29-.04-.73.43-.54h0Z"/>
      <path class="cls-10" d="M674.3,161.54c0,.64-.02,1.29-.05,1.98-.08,2.54-.37,5.82-2.96,7.97-.38.35-.81.04-.48-.41,1.57-2.09,2.2-4.13,2.23-8.04.02-1.51-.02-3.36-.15-5.04-.02-.27.08-.35.29-.31.25.05.85.29,1.26.56h8.43c.25-.33.58-.71.76-.71.35,0,1.34.73,1.34,1.09,0,.21-.28.37-.58.5-.02.79,0,1.88.02,2.32,0,.51-.27.62-.74.62.43.25,1.14.89,1.14,1.19.02.23-.25.35-.85.35h-4.34c.18.1.29.21.29.33,0,.27-.43.38-.79.41-.23.38-.46.74-.7,1.09,1.44-.05,2.69-.17,3.78-.31-.18-.2-.37-.4-.54-.56-.2-.18-.06-.5.27-.43,1.51.25,2.33,1.04,2.5,1.78.1.41-.1.76-.54.86-.29.06-.51-.05-.7-.31-.15-.18-.29-.45-.46-.71-1.77.4-4.09.66-6.78.76-.12.37-.29.68-.56.62-.33-.05-.5-.62-.5-1.53,0-.15.08-.18.21-.18.81.04,1.57.05,2.28.04.28-.6.51-1.24.66-1.86h-3.04c-.21,0-.37-.06-.37-.33,0-.25.15-.33.37-.33h7.44c.29-.43.66-.91.89-.97-.13-.1-.2-.27-.2-.43h-8.87v-.02ZM683.37,170.88c.37-.53.83-1.18,1.09-1.19.35.02,1.57,1.04,1.57,1.45,0,.25-.31.4-.93.4h-11.46c-.21,0-.37-.06-.37-.33,0-.25.15-.33.37-.33h5.19c.02-.56.02-1.24,0-1.88h-3.64c-.21,0-.37-.06-.37-.33,0-.25.15-.33.37-.33h3.64c-.02-.64-.05-1.2-.08-1.57-.02-.15.08-.23.23-.23.28,0,1.75.06,1.75.46,0,.31-.29.43-.74.53v.81h1.74c.35-.51.81-1.11,1.06-1.11.33,0,1.52.99,1.52,1.39,0,.23-.29.38-.91.38h-3.41v1.88h3.37v.02ZM674.3,158.96c.02.66.02,1.29.02,1.92h8.87c0-.6.02-1.44.02-1.97h-8.74l-.17.05h0Z"/>
      <path class="cls-10" d="M699.57,160.71c1.28-.33,3.12-.86,4.01-.85.86.02,1.19.43,1.19.76,0,.41-.53.45-1.22.46-1.38.04-2.35.18-4.19.62-.13.73-.28,1.51-.33,2.09.62-.18,1.28-.28,1.95-.28.15,0,.29,0,.46.02-.04-.37-.12-.7-.25-1.01-.12-.28.13-.43.4-.25.25.18.51.41.71.78.1.18.17.38.18.66,1.77.46,3.08,1.8,3.08,3.78,0,2.6-2.56,3.82-5.7,3.92-.35.02-.46-.46-.05-.53,2.25-.4,4.52-1.41,4.55-3.62.02-1.36-.76-2.33-1.95-2.77-.04.17-.06.35-.13.54-.28.95-.97,2.5-2.23,3.7-1.2,1.16-2.71,1.86-3.76,1.86-.88,0-1.42-.48-1.42-1.9,0-1.29.78-2.65,1.74-3.52.45-.41.97-.74,1.53-1.03.04-.73.12-1.49.21-2.19-1.3.33-2.27.66-3.04.66-.83,0-1.49-.95-1.55-1.59-.02-.23.17-.31.37-.2.4.23.99.66,1.57.66.74,0,1.74-.23,2.79-.5.1-.7.2-1.22.2-1.52,0-.28-.08-.37-.35-.51-.31-.18-.79-.31-.79-.56,0-.27.54-.4.97-.4.62,0,1.55.4,1.53.89,0,.28-.18.66-.38,1.45l-.1.37h0ZM696.69,169.33c.6,0,1.32-.28,2.13-.87-.06-.06-.13-.15-.2-.25-.46-.85-.5-1.98-.51-3.21-.43.27-.79.58-1.12.91-.68.68-1.06,1.61-1.06,2.38,0,.86.28,1.04.76,1.04h0ZM701.42,164.26c-.18-.02-.4-.04-.6-.04-.68,0-1.28.12-1.82.33.04,1.26.2,2.27.53,2.96.05.1.08.18.12.27.78-.78,1.41-2,1.62-2.73.08-.27.13-.53.15-.79Z"/>
      <path class="cls-10" d="M727.77,162.68c-.62.33-1.37.51-2.27.66.12,1.29.12,2.54-.1,3.7-.27,1.47-.83,3.43-3.82,4.24-.35.1-.51-.28-.18-.48,2.13-1.26,2.75-2.42,2.98-4.34.15-1.16.12-2.15.06-2.99-.91.08-1.92.1-2.75.1-.5,0-.78.23-1.04.56-.54.7-2.2,3.35-2.2,4.2,0,1.01.41,1.41.18,1.78-.15.25-.68.2-1.06-.17-.89-.86-1.32-2.21-1.32-3.51,0-2.15.76-3.59,1.06-5.52.18-1.11-.1-1.32-.66-2.29-.13-.23.04-.45.35-.33,1.3.46,2.15,1.61,1.61,2.96-.33.83-1.37,3.06-1.37,4.63,0,.4.04.83.1,1.09.06.25.25.37.5.02.6-.76,1.52-2.37,2.21-3.24.46-.6.71-1.03,1.42-1.06.83-.04,2.03-.13,2.91-.27-.06-.83-.23-2.02-.73-2.58-.4-.46-.78-.64-.78-.97,0-.21.18-.38.54-.38,1.14,0,1.47.31,1.64,1.37.08.5.15.99.21,1.49.2.31.41.41.71.48.41.08,1.09-.18,1.53-.18.7,0,.86.7.25,1.01v.02Z"/>
    </g>
  </g>
  <path class="cls-13" d="M112.84,147.24h198.07c6.92,0,12.53,5.06,12.53,11.31v15.97c0,6.25-5.61,11.31-12.53,11.31H112.84c-6.92,0-12.53-5.06-12.53-11.31v-15.97c0-6.25,5.61-11.31,12.53-11.31Z"/>
  <polyline class="cls-13" points="122.55 182.49 156.23 195.56 147.88 180.62"/>
  <g>
    <path class="cls-10" d="M129.46,168.87c.24-.27.51-.58.67-.58.3,0,1.18.86,1.18,1.17,0,.21-.37.35-.77.45-.4.58-1.02,1.18-1.74,1.7,1.57.56,3.49.69,5.63.69.46-.02.53.38.14.51-.32.13-.51.26-.66.46-.24.3-.35.38-.78.37-1.92-.08-3.84-.46-5.38-1.39l-.08.03c-1.46.72-3.63,1.26-6.55,1.47-.5.05-.51-.48-.08-.56,2.4-.37,4.51-.88,5.84-1.57-.64-.54-1.2-1.22-1.62-2.05-1.06,1.12-2.59,2.34-4.47,3.17-.43.18-.66-.27-.26-.53,2.06-1.26,3.65-2.62,4.67-4.4h-.82v.29c0,.34-.22.5-.69.5-.27,0-.42-.16-.42-.43.02-1.17.11-4.67-.05-6.23-.02-.13.1-.22.22-.19.24.03.82.24,1.2.48h1.6c.11-.43.19-.88.22-1.28h-5.71c-.21,0-.35-.06-.35-.32,0-.24.14-.32.35-.32h11.11c.32-.48.74-1.02.98-1.02.3,0,1.44.93,1.44,1.31,0,.22-.26.35-.86.35h-5.11s.02.05.02.06c0,.22-.37.34-.69.38-.14.29-.29.58-.45.83h3.35c.21-.3.48-.62.66-.62.3,0,1.2.67,1.2,1.02,0,.21-.26.35-.53.45-.03,1.15.02,4.16.02,4.75,0,.5-.24.61-.66.61-.37,0-.46-.29-.46-.54v-.08h-4.02c.13.1.21.21.21.32-.02.21-.26.3-.74.26-.11.16-.22.32-.37.48h3.57ZM124.67,162.86c-.06.02-.14.03-.22.05-.02.19-.02.54-.03.91h6.42v-.96h-6.16ZM124.41,165.3v.18h6.4l.02-1.01h-6.42v.83ZM124.41,167.17h6.39l.02-1.06h-6.4v1.06ZM126,169.51c.45.69,1.04,1.2,1.73,1.6.72-.51,1.26-1.04,1.62-1.6h-3.35Z"/>
    <path class="cls-10" d="M146.04,166.08c0,.67-.42,1.09-1.02,1.09-.46,0-.93-.38-.93-.99,0-.56.46-1.01,1.07-1.01.48,0,.88.4.88.91ZM146.04,171.76c0,.66-.42,1.09-1.02,1.09-.46,0-.93-.37-.93-.96,0-.56.46-1.04,1.07-1.04.48,0,.88.4.88.91Z"/>
    <path class="cls-10" d="M158.4,167.76c-.29,1.02-1.06,2.56-1.06,3.04,0,.51.24.91.24,1.71,0,.69-.35,1.01-.85,1.01s-.62-.43-.62-.72.16-1.01.02-1.42c-.18-.58-.53-.77-.94-1.12-.26-.22-.05-.56.22-.46.22.06.59.19.78.26.18.03.26,0,.4-.21.3-.48.94-1.76,1.25-2.29.21-.37.69-.19.56.21ZM155.71,163.52c.98.08,2.02.48,2.21,1.3.1.45-.11.82-.59.93-.43.1-.69-.29-1.06-.74-.27-.32-.58-.62-.86-.9-.29-.27-.19-.64.3-.59ZM156.76,160.38c-.26-.27-.16-.64.34-.58.98.13,1.98.59,2.13,1.41.08.45-.14.82-.61.91-.45.06-.67-.34-1.02-.82-.26-.32-.56-.64-.83-.93ZM167.74,166.13c.3-.45.69-.94.91-.94.29,0,1.36.88,1.38,1.25,0,.22-.26.34-.83.34h-5.75c.1.08.14.16.13.24-.02.21-.22.3-.7.26-.14.19-.32.43-.51.67h5.49c.22-.27.48-.51.61-.51.35,0,1.22.69,1.22.96,0,.19-.27.4-.62.56-.11,1.07-.32,2.59-.78,3.44-.56,1.22-1.46,1.38-2.1,1.38-.26,0-.38-.1-.48-.37-.08-.21-.19-.35-.51-.51-.3-.14-.16-.53.13-.46.32.05.62.13.94.13.46,0,.8-.18,1.01-.56.46-.77.67-2.34.77-3.41h-.78c-.03.13-.16.22-.35.26-1.07,2.43-2.98,4.16-5.99,4.9-.48.11-.59-.37-.16-.54,2.29-.96,4.02-2.22,5.01-4.61h-1.09v.03c-.03.16-.21.22-.38.22-1.01,1.55-2.67,3.09-5.09,3.89-.5.19-.66-.26-.24-.51,1.81-.94,3.23-2.1,4.23-3.63h-1.39c-.74.8-1.73,1.65-2.9,2.23-.42.21-.66-.16-.3-.46,1.44-1.1,2.54-2.35,3.17-3.57h-2.64c-.21,0-.35-.06-.35-.32,0-.24.14-.32.35-.32h8.63ZM162.11,165.3c0,.35-.24.5-.72.5-.29,0-.43-.16-.43-.43,0-1.1.1-4.16-.06-5.63-.02-.13.1-.22.22-.21.27.03,1.06.32,1.42.61h3.86c.24-.3.51-.64.69-.64.3,0,1.22.69,1.22,1.04,0,.21-.26.34-.53.45-.03,1.04,0,3.38.02,3.91,0,.5-.26.62-.67.62-.37,0-.48-.29-.48-.54v-.1h-4.53v.43ZM162.13,160.77c-.02.29-.02.88-.03,1.38h4.58v-1.38h-4.55ZM166.64,164.22l.02-1.44h-4.56v.03l.02,1.41h4.53Z"/>
    <path class="cls-10" d="M178.04,164.19c0,.22-.27.32-.61.38-.05.78-.06,3.38-.06,3.91,0,.46.03,4.23.03,4.74,0,.35-.24.53-.72.53-.29,0-.43-.16-.43-.45,0-1.07.1-5.49.03-8-.46.67-.99,1.33-1.6,1.92-.34.35-.72.08-.43-.34,1.67-2.34,2.88-4.98,3.28-7.35.03-.18.1-.27.29-.24.58.11,1.68.61,1.68.96,0,.26-.32.35-.78.29-.34.88-.78,1.97-1.39,3.09.35.16.72.38.72.56ZM184.43,169.59c.59,1.55,2.26,2.5,4.66,2.79.54.08.3.32.03.45-.4.19-.48.3-.62.48-.14.22-.19.37-.77.19-2.05-.51-3.44-2-3.91-3.84-.61,2.26-2.29,3.54-5.31,4.1-.58.1-.66-.42-.13-.58,2.48-.69,3.86-1.79,4.35-3.59h-3.97c-.21,0-.35-.06-.35-.32,0-.24.14-.32.35-.32h4.11c.1-.61.11-1.3.05-2.05v-.02h-3.52c-.21,0-.35-.06-.35-.32,0-.24.14-.32.35-.32h6.96c.3-.45.67-.93.88-.93.29,0,1.26.88,1.28,1.23,0,.22-.27.34-.75.34h-3.19c.06.05.1.1.1.16,0,.21-.16.3-.59.38,0,.54-.05,1.06-.11,1.52h2.88c.32-.46.72-.99.94-.99.3,0,1.39.91,1.39,1.28,0,.22-.26.35-.83.35h-3.94ZM181.33,164.96c0,.35-.26.5-.74.5-.29,0-.43-.14-.43-.43,0-.78.1-3.87-.06-5.14-.03-.18.11-.26.27-.21.35.1,1.01.43,1.34.72h4.05c.26-.32.58-.7.77-.7.32,0,1.26.69,1.26,1.04,0,.21-.27.35-.56.46-.02.99.02,2.91.02,3.43s-.26.61-.69.61c-.38,0-.5-.29-.5-.54v-.16h-4.74v.43ZM186.08,163.89c0-.86.02-2.14.02-2.85h-4.61l-.16.03c-.02.37-.02,1.47-.02,1.78v1.04h4.77Z"/>
    <path class="cls-10" d="M205.95,171.19c.03-1.06.06-2.23.06-2.72,0-.53.03-3.89-.16-5.09-.02-.16.06-.24.21-.24.94,0,1.99.08,1.99.51,0,.29-.35.46-.86.56-.03.8-.02,3.62-.02,4.1,0,.83.05,4.24.05,4.75,0,.37-.29.53-.82.53-.32,0-.5-.16-.5-.48,0-.19.02-.67.03-1.28h-9.92l.02,1.26c0,.37-.29.54-.82.54-.32,0-.5-.18-.5-.46,0-.58.11-3.78.11-4.67,0-.54.03-3.89-.16-5.12-.02-.16.06-.24.21-.24.94,0,1.99.08,1.99.51,0,.29-.35.46-.86.56-.03.8-.02,3.63-.02,4.11s.02,1.74.03,2.87h4.34c.05-2.39.11-9.83-.08-11.3-.02-.16.08-.24.24-.24.29,0,1.98.05,1.98.5,0,.37-.37.51-.9.62v10.42h4.35Z"/>
    <path class="cls-10" d="M217.49,168.74c0,.72.05,4.05.05,4.55,0,.35-.26.5-.72.5-.27,0-.45-.16-.45-.45,0-.38.06-2.48.1-3.73-.61.53-1.65,1.3-2.35,1.79.02.58-.1.94-.38.94-.34,0-.67-.58-.93-1.41-.06-.21,0-.38.24-.48.96-.38,2.29-1.01,3.26-1.68.06-.05.13-.08.18-.1,0-.82.02-3.59-.14-4.64-.03-.14.06-.22.21-.22.78,0,1.78.08,1.78.46,0,.26-.3.42-.8.5-.03.75-.03,3.46-.03,3.97ZM213.37,161.73c-.21,0-.35-.06-.35-.32,0-.24.14-.32.35-.32h4.15c-.02-.51-.06-1.09-.11-1.52-.02-.16.08-.22.22-.22.64,0,1.79.05,1.79.46,0,.27-.24.48-.8.54v.74h2.99c-.02-.51-.06-1.1-.1-1.52-.03-.16.08-.22.22-.22.64,0,1.81.05,1.81.46,0,.27-.26.48-.82.54v.74h2.19c.34-.5.77-1.07,1.01-1.07.32,0,1.47.96,1.47,1.34,0,.22-.26.37-.88.37h-3.78v1.36c0,.34-.26.48-.7.48-.29,0-.46-.16-.46-.43,0-.29.03-.82.03-1.41h-2.98v1.41c0,.34-.26.48-.71.48-.29,0-.45-.16-.45-.43,0-.29.03-.85.03-1.46h-4.15ZM214,165.22c.88.4,1.68,1.01,1.65,1.74-.02.45-.3.75-.77.74-.43-.02-.56-.45-.78-.94-.14-.35-.35-.69-.56-1.02-.21-.34,0-.69.46-.51ZM222.93,167.63v4.69h1.84c.34-.5.77-1.09,1.01-1.09.32,0,1.44.98,1.44,1.36,0,.22-.3.37-.85.37h-7.75c-.21,0-.35-.06-.35-.32,0-.24.14-.32.35-.32h3.15c.02-1.18.03-3.02.02-4.69h-3.41c-.21,0-.35-.06-.35-.32,0-.24.14-.32.35-.32h3.39c-.02-1.28-.06-2.38-.13-2.91-.02-.14.08-.22.22-.22.27,0,1.91.05,1.91.46,0,.35-.35.48-.85.59v2.08h2.15c.35-.53.8-1.15,1.06-1.15.34,0,1.47,1.01,1.47,1.41,0,.24-.34.38-.86.38h-3.81Z"/>
    <path class="cls-10" d="M235.18,164.21c.45.08,1.73.53,1.73.99,0,.26-.24.42-.86.37-.5,1.04-1.47,2.91-3.3,4.34-.4.32-.85-.03-.53-.45,1.34-1.76,2.26-3.51,2.51-4.98.05-.27.14-.34.45-.27ZM241.02,160.32c0,.26-.26.42-.82.56-.1,2.69-.05,7.7-.05,11.44-.02,1.01-.75,1.42-1.38,1.42-.58,0-.34-.61-1.87-.99-.37-.1-.3-.58.05-.54.53.05,1.02.13,1.34.13.45,0,.66-.16.69-.66.06-1.12.03-4.32.03-5.97,0-1.17,0-3.76-.19-5.65-.02-.19.1-.24.32-.24.78,0,1.87.11,1.87.5ZM243.23,164.42c2.14.83,3.44,2.43,3.44,3.52,0,.5-.22.9-.74.9-.37,0-.58-.14-.8-.61-.71-1.46-1.12-2.08-2.32-3.28-.29-.29-.03-.7.42-.53Z"/>
    <path class="cls-10" d="M254.51,163.5c0,.62-.02,1.25-.05,1.92-.08,2.47-.35,5.63-2.87,7.72-.37.34-.78.03-.46-.4,1.52-2.02,2.13-4,2.16-7.78.02-1.46-.02-3.25-.14-4.88-.02-.26.08-.34.29-.3.24.05.82.29,1.22.54h8.16c.24-.32.56-.69.74-.69.34,0,1.3.7,1.3,1.06,0,.21-.27.35-.56.48-.02.77,0,1.82.02,2.24,0,.5-.26.61-.72.61.42.24,1.1.86,1.1,1.15.02.22-.24.34-.82.34h-4.19c.18.1.29.21.29.32,0,.26-.42.37-.77.4-.22.37-.45.72-.67,1.06,1.39-.05,2.61-.16,3.67-.3-.18-.19-.35-.38-.53-.54-.19-.18-.06-.48.26-.42,1.46.24,2.26,1.01,2.42,1.73.1.4-.1.74-.53.83-.29.06-.5-.05-.67-.3-.14-.18-.29-.43-.45-.69-1.71.38-3.95.64-6.56.74-.11.35-.29.66-.54.61-.32-.05-.48-.61-.48-1.49,0-.14.08-.18.21-.18.78.03,1.52.05,2.21.03.27-.58.5-1.2.64-1.79h-2.95c-.21,0-.35-.06-.35-.32,0-.24.14-.32.35-.32h7.2c.29-.42.64-.88.86-.94-.13-.1-.19-.26-.19-.42h-8.58ZM263.28,172.55c.35-.51.8-1.14,1.06-1.15.34.02,1.52,1.01,1.52,1.41,0,.24-.3.38-.9.38h-11.09c-.21,0-.35-.06-.35-.32,0-.24.14-.32.35-.32h5.03c.02-.54.02-1.2,0-1.82h-3.52c-.21,0-.35-.06-.35-.32,0-.24.14-.32.35-.32h3.52c-.02-.62-.05-1.17-.08-1.52-.02-.14.08-.22.22-.22.27,0,1.7.06,1.7.45,0,.3-.29.42-.72.51v.78h1.68c.34-.5.78-1.07,1.02-1.07.32,0,1.47.96,1.47,1.34,0,.22-.29.37-.88.37h-3.3v1.82h3.26ZM254.51,161.01c.02.64.02,1.25.02,1.86h8.58c0-.58.02-1.39.02-1.9h-8.45l-.16.05Z"/>
    <path class="cls-10" d="M277.36,162.7c1.23-.32,3.03-.83,3.87-.82.83.02,1.15.42,1.15.74,0,.4-.51.43-1.18.45-1.33.03-2.27.18-4.05.59-.13.7-.27,1.46-.32,2.02.61-.18,1.23-.27,1.89-.27.14,0,.29,0,.45.02-.03-.35-.11-.67-.24-.98-.11-.27.13-.42.38-.24.24.18.5.4.69.75.1.18.16.37.18.64,1.71.45,2.98,1.74,2.98,3.67,0,2.51-2.48,3.7-5.52,3.79-.34.02-.45-.45-.05-.51,2.18-.38,4.37-1.36,4.4-3.51.02-1.31-.74-2.26-1.89-2.69-.03.16-.06.34-.13.53-.27.91-.94,2.42-2.16,3.59-1.17,1.12-2.62,1.79-3.63,1.79-.85,0-1.38-.46-1.38-1.84,0-1.25.75-2.56,1.68-3.41.43-.4.94-.72,1.49-.99.03-.7.11-1.44.21-2.11-1.26.32-2.19.64-2.94.64-.8,0-1.44-.91-1.5-1.54-.02-.22.16-.3.35-.19.38.22.96.64,1.52.64.72,0,1.68-.22,2.71-.48.1-.67.19-1.18.19-1.47,0-.27-.08-.35-.34-.5-.3-.18-.77-.3-.77-.54,0-.26.53-.38.94-.38.61,0,1.5.38,1.49.86,0,.27-.18.64-.37,1.41l-.1.35ZM274.57,171.04c.58,0,1.28-.27,2.07-.85-.06-.06-.13-.14-.19-.24-.45-.82-.48-1.92-.5-3.11-.42.26-.77.56-1.09.88-.66.66-1.02,1.55-1.02,2.3,0,.83.27,1.01.74,1.01ZM279.15,166.13c-.18-.02-.38-.03-.58-.03-.66,0-1.23.11-1.76.32.03,1.22.19,2.19.51,2.87.05.1.08.18.11.26.75-.75,1.36-1.94,1.57-2.64.08-.26.13-.51.14-.77Z"/>
    <path class="cls-10" d="M303.04,164.61c-.61.32-1.33.5-2.19.64.11,1.25.11,2.46-.1,3.59-.26,1.42-.8,3.31-3.7,4.1-.34.1-.5-.27-.18-.46,2.06-1.22,2.66-2.34,2.88-4.19.14-1.12.11-2.08.06-2.9-.88.08-1.86.1-2.66.1-.48,0-.75.22-1.01.54-.53.67-2.13,3.25-2.13,4.07,0,.98.4,1.36.18,1.73-.14.24-.66.19-1.02-.16-.86-.83-1.28-2.14-1.28-3.39,0-2.08.74-3.47,1.02-5.35.18-1.07-.1-1.28-.64-2.21-.13-.22.03-.43.34-.32,1.26.45,2.08,1.55,1.55,2.87-.32.8-1.33,2.96-1.33,4.48,0,.38.03.8.1,1.06.06.24.24.35.48.02.58-.74,1.47-2.29,2.15-3.14.45-.58.69-.99,1.38-1.02.8-.03,1.97-.13,2.82-.26-.06-.8-.22-1.95-.7-2.5-.38-.45-.75-.62-.75-.94,0-.21.18-.37.53-.37,1.1,0,1.42.3,1.58,1.33.08.48.14.96.21,1.44.19.3.4.4.69.46.4.08,1.06-.18,1.49-.18.67,0,.83.67.24.98Z"/>
  </g>
</svg>