<svg xmlns="http://www.w3.org/2000/svg" xmlns:xlink="http://www.w3.org/1999/xlink" width="149.622" height="38.666" viewBox="0 0 149.622 38.666"><defs><clipPath id="a"><rect width="55.83" height="38.666" fill="#51a9aa"/></clipPath></defs><g transform="translate(-391 -10023.521)"><path d="M4.176,9.876h13V7.842h-6.5V5.772H8.442v2.07H2.034v4.536c0,2.592-.126,6.372-1.6,8.946A9.942,9.942,0,0,1,2.286,22.53c1.62-2.808,1.89-7.254,1.89-10.152Zm9.45,2.664A22.671,22.671,0,0,0,9.27,9.93l-1.422,1.4a20.764,20.764,0,0,1,4.23,2.808ZM5.76,21a16.576,16.576,0,0,0,1.332-5.886L5.166,14.7a14.9,14.9,0,0,1-1.314,5.454Zm4.662-.684c-.5,0-.576-.09-.576-.738V13.314H7.722V19.6c0,2,.45,2.628,2.358,2.628h2c1.674,0,2.214-.864,2.412-3.942a5.634,5.634,0,0,1-1.89-.864c-.072,2.484-.18,2.9-.72,2.9Zm2.9-5.346a21.4,21.4,0,0,1,2.2,6.012l2.106-.864a21.445,21.445,0,0,0-2.394-5.886Zm9.648-5.94h2.088V8.4h3.852v.63h2.106V8.4h3.8V6.708h-3.8V5.772H28.908v.936H25.056V5.772H22.968v.936h-3.78V8.4h3.78Zm2.61,7.92c-.054.342-.108.648-.18.936H23.184a9.3,9.3,0,0,0,1.4-1.206h4.824a10.033,10.033,0,0,0,1.26,1.206h-3.2a7.811,7.811,0,0,0,.162-.936ZM22.95,12.414h8.1v.72h-8.1Zm0-1.872h8.1v.7h-8.1ZM35.064,16.68V15.024H25.848c.126-.216.234-.432.342-.648h7.02V9.3H20.9v5.076h3.078a6.753,6.753,0,0,1-.432.648h-4.59V16.68h2.808A12.238,12.238,0,0,1,18.4,18.192,4.772,4.772,0,0,1,19.62,19.7a18.349,18.349,0,0,0,2.07-.9v.612h2.88c-.7.738-1.944,1.26-4.158,1.6a5.973,5.973,0,0,1,1.026,1.638c3.258-.648,4.77-1.674,5.526-3.24h3.078a2.392,2.392,0,0,1-.378,1.3.789.789,0,0,1-.576.162c-.306,0-1.008-.018-1.728-.09a3.961,3.961,0,0,1,.522,1.674,20.281,20.281,0,0,0,2.16-.018,2.137,2.137,0,0,0,1.314-.522c.4-.414.612-1.278.774-3.024A11.345,11.345,0,0,0,34.308,19.9a8.4,8.4,0,0,1,1.368-1.71,12.109,12.109,0,0,1-3.654-1.512Zm18.054-6.012V8.616h-7.11V5.682H43.794V8.616H36.9v2.052h5.148c-.2,3.852-.612,7.956-5.472,10.206a6.843,6.843,0,0,1,1.512,1.818,10.566,10.566,0,0,0,5.778-7.668h4.95c-.252,3.276-.576,4.842-1.044,5.238a1.155,1.155,0,0,1-.864.234c-.522,0-1.782,0-3.024-.126a4.981,4.981,0,0,1,.756,2.106,24.654,24.654,0,0,0,3.078,0,2.657,2.657,0,0,0,1.944-.828c.72-.792,1.1-2.808,1.422-7.7a8.757,8.757,0,0,0,.072-.936H44.208c.09-.774.144-1.566.2-2.34ZM60.21,7.644a15.8,15.8,0,0,0-3.438-1.836l-1.188,1.6A13.729,13.729,0,0,1,58.95,9.39Zm-1.062,4.7a14.5,14.5,0,0,0-3.474-1.674l-1.1,1.62a13.867,13.867,0,0,1,3.384,1.854Zm-.9,2.952a53.793,53.793,0,0,1-3.186,5.652l1.854,1.368c1.008-1.728,2.052-3.78,2.934-5.652Zm13.374,6.174a20.943,20.943,0,0,0-3.33-5.238l-1.836.972c.486.63.99,1.332,1.44,2.052-1.584.09-3.186.18-4.626.252.648-1.35,1.368-3.006,1.944-4.518l-.072-.018H71.19V12.918H66.438V10.38h3.906V8.328H66.438V5.772H64.206V8.328H60.48V10.38h3.726v2.538H59.58V14.97h3.078a32.613,32.613,0,0,1-1.71,4.662l-1.35.054.288,2.16c2.43-.18,5.832-.414,9.09-.7a9.94,9.94,0,0,1,.612,1.422Z" transform="translate(469 10027.936)" fill="#333"/><g transform="translate(391 10023.521)"><g transform="translate(0 0)" clip-path="url(#a)"><path d="M0,36.9a1.764,1.764,0,0,0,1.763,1.763H54.069A1.762,1.762,0,0,0,55.83,36.9V2.028c0-.045-.014-.089-.017-.134a1.734,1.734,0,0,0-.064-.664A1.764,1.764,0,0,0,54.069,0H1.763A1.764,1.764,0,0,0,0,1.763v.143c0,.023.008.043.008.066S0,2.009,0,2.028ZM48.5,3.527,44.589,6.28,27.915,17.5,7.489,3.756l-.331-.229ZM3.527,5.339l1.989,1.34L26.9,21.621a1.758,1.758,0,0,0,1.011.318,1.778,1.778,0,0,0,1.015-.32L46.594,9.182l5.712-3.843v29.8H3.527Z" transform="translate(0 0)" fill="#51a9aa"/></g></g></g></svg>