<svg xmlns="http://www.w3.org/2000/svg" xmlns:xlink="http://www.w3.org/1999/xlink" width="148.218" height="63.103" viewBox="0 0 148.218 63.103"><defs><clipPath id="a"><rect width="53.972" height="63.102" fill="#51a9aa"/></clipPath></defs><g transform="translate(-361.99 -8908)"><path d="M3.24,8.8H14.634V10.56h2.088V7H10.08V5.772H7.938V7H1.26V10.56H3.24ZM5.6,16.086a16.236,16.236,0,0,0,2.34-1.836v1.656H9.954V14.2H10.1a14.12,14.12,0,0,0,2.592,1.89Zm4.338,4.482v-.882H12.8v.882ZM5.22,19.686H7.938v.882H5.22Zm2.718-1.3H5.22v-.846H7.938Zm4.86,0H9.936v-.846H12.8Zm-4.86-5.922H5.994A4.961,4.961,0,0,0,5.4,11.154c.828-.018,1.692-.036,2.538-.09Zm2.016,0V10.956c.936-.072,1.854-.162,2.7-.252a13.2,13.2,0,0,1-.774,1.764ZM16.992,14.2V12.468H13.968c.252-.378.54-.81.846-1.26l-2.124-.522c.522-.054,1.008-.126,1.476-.2l-1.1-1.422a82.261,82.261,0,0,1-9.342.666,5.177,5.177,0,0,1,.432,1.386l-.756.144a7.33,7.33,0,0,1,.558,1.206H1.044V14.2H5.22A18.884,18.884,0,0,1,.414,16.32a8.29,8.29,0,0,1,1.368,1.692c.468-.162.936-.378,1.422-.594v5.094H5.22v-.468H12.8v.414H14.9V17.166a13.049,13.049,0,0,0,1.332.468,7.914,7.914,0,0,1,1.314-1.692,17.917,17.917,0,0,1-4.7-1.746Zm4.986-.756a15.054,15.054,0,0,0,3.906-3.384v2.9H27.99V10.128A14.957,14.957,0,0,0,32,13.44Zm1.962,6.93v-.756h6.048v.756Zm0-2.988h6.048v.756H23.94Zm6.048-1.476H23.94v-.72h6.048Zm5.04-6.3V7.752H27.99v-2H25.884v2H18.99V9.606h4.842a14.045,14.045,0,0,1-5.346,3.24A8.96,8.96,0,0,1,19.818,14.5a15.134,15.134,0,0,0,2.034-.99V20.37h-2.97v1.872H35.154V20.37H32.2V13.548a12.843,12.843,0,0,0,1.89.882,8.115,8.115,0,0,1,1.386-1.71,14.624,14.624,0,0,1-5.526-3.114Zm11.034,7.848V16.338H43.884v1.116H41.292A11.017,11.017,0,0,0,42.57,15.96h5.076a11.168,11.168,0,0,0,1.3,1.494ZM42.21,13.4h5.634v.81H42.21ZM47.844,8.85v.792H42.21V8.85ZM42.21,11.118h5.634v.792H42.21ZM53.37,15.96V14.214H50.04V8.85h2.466V7.122H50.04V5.772h-2.2v1.35H42.21V5.772H40.068v1.35H37.584V8.85h2.484v5.364h-3.42V15.96H40.1a10.873,10.873,0,0,1-3.636,2.268,8.479,8.479,0,0,1,1.368,1.638A11.9,11.9,0,0,0,40.7,18.03v1.116h3.186v1.17H38.232V22.08H51.948V20.316H46.062v-1.17h3.276V17.814a11.58,11.58,0,0,0,2.826,1.89,7.786,7.786,0,0,1,1.422-1.656,10.575,10.575,0,0,1-3.51-2.088Zm6.408-8.82A12.759,12.759,0,0,0,56.97,5.754l-1.1,1.458A11.861,11.861,0,0,1,58.608,8.76Zm2.88,6.768h2.106v.828H62.658Zm2.106-3.78H62.658V9.3h2.106Zm0,2.3H62.658V11.6h2.106Zm6.444,5.112h-7.2V16.428H70.92V14.736H66.8v-.828h3.078V12.432H66.8V11.6h3.06V10.128H66.8V9.3h3.69V7.626h-3.33c.306-.45.612-.954.918-1.476l-2.34-.378a15.186,15.186,0,0,1-.774,1.854H63.216a13.641,13.641,0,0,0,.72-1.332l-2.07-.612a12.347,12.347,0,0,1-3.456,4.392L58.464,10a14.517,14.517,0,0,0-2.808-1.314l-1.1,1.44a14.649,14.649,0,0,1,2.772,1.458l.936-1.3a21.023,21.023,0,0,1,1.584,1.44c.234-.2.486-.432.72-.666v5.364h1.26v1.116H54.864V19.47H61.83v3.1h2.178v-3.1h7.2ZM58.662,11.568a38.681,38.681,0,0,1-3.636,3.654l1.494,1.6c1.134-1.224,2.268-2.556,3.294-3.834Z" transform="translate(439 8923.413)" fill="#333"/><g transform="translate(361.99 8908)"><g transform="translate(0 0)" clip-path="url(#a)"><path d="M20.907,0C14.323,0,8.885,4.679,8.2,10.663c-1.016.508-1.769,2.379-1.769,4.614,0,2.628,1.039,4.755,2.32,4.755a1.063,1.063,0,0,0,.157-.016,32.7,32.7,0,0,0,1.32,4.891c2.751,7.6,7.328,9.2,10.683,9.2,7.2,0,10.632-7.083,12.011-14.13a1.131,1.131,0,0,0,.341.057c1.28,0,2.32-2.128,2.32-4.755,0-2.383-.855-4.349-1.971-4.694C32.879,4.636,27.463,0,20.907,0m0,30.859c-3.367,0-5.934-2.375-7.628-7.057A37.706,37.706,0,0,1,11.368,11.95c0-4.8,4.281-8.7,9.54-8.7s9.54,3.9,9.54,8.7c0,6.54-1.994,18.909-9.54,18.909" transform="translate(6.177 0)" fill="#51a9aa"/><path d="M36.816,40.663l-1.349,3.479H50.493a3.478,3.478,0,0,0,3.479-3.479V27.672a3.477,3.477,0,0,0-1.826-3.061,62.329,62.329,0,0,0-21.913-6.546V20.96a1.623,1.623,0,0,0-.878,1.749l2.514,13.585-4.9,5.326-4.9-5.326,2.512-13.585a1.619,1.619,0,0,0-.537-1.524V18.04c-11.507.851-21.756,6.32-22.221,6.571A3.479,3.479,0,0,0,0,27.672V40.663a3.48,3.48,0,0,0,3.481,3.479H17.954l-1.079-3.479H3.481V27.672a60.781,60.781,0,0,1,18-5.851,1.493,1.493,0,0,0-.086.3L18.733,36.5l0,.033c-.006.029-.008.057-.012.086l-.008.076,0,.076v.086l.006.069a.744.744,0,0,0,.01.09c0,.022.006.045.01.067l.018.084.02.075.024.075c.008.027.02.053.029.08l.027.065c.012.025.025.053.039.078s.022.041.033.063l.043.071.045.065.045.061c.018.024.037.047.057.069l.022.025L25.3,44.6a1.618,1.618,0,0,0,1.553,1.163c.039,0,.076,0,.114-.006s.076.006.114.006a1.621,1.621,0,0,0,1.1-.429,1.6,1.6,0,0,0,.457-.733L34.808,37.9l.02-.025c.02-.022.039-.045.057-.069s.031-.041.047-.061.029-.043.043-.065.031-.047.045-.071l.033-.063c.014-.025.025-.053.039-.078s.018-.043.025-.065.022-.053.031-.08.016-.049.022-.075.014-.049.02-.075.012-.055.018-.084l.012-.067.01-.09c0-.024,0-.045,0-.069s0-.057,0-.086,0-.051,0-.076l-.006-.076-.012-.086-.006-.033L32.549,22.119a1.593,1.593,0,0,0-.088-.3,60.807,60.807,0,0,1,18.033,5.857V40.663Z" transform="translate(0 17.335)" fill="#51a9aa"/></g></g></g></svg>