<svg xmlns="http://www.w3.org/2000/svg" xmlns:xlink="http://www.w3.org/1999/xlink" width="149.676" height="59.859" viewBox="0 0 149.676 59.859"><defs><clipPath id="a"><rect width="55.83" height="59.859" fill="#51a9aa"/></clipPath></defs><g transform="translate(-391 -9413.521)"><path d="M4.176,9.876h13V7.842h-6.5V5.772H8.442v2.07H2.034v4.536c0,2.592-.126,6.372-1.6,8.946A9.942,9.942,0,0,1,2.286,22.53c1.62-2.808,1.89-7.254,1.89-10.152Zm9.45,2.664A22.671,22.671,0,0,0,9.27,9.93l-1.422,1.4a20.764,20.764,0,0,1,4.23,2.808ZM5.76,21a16.576,16.576,0,0,0,1.332-5.886L5.166,14.7a14.9,14.9,0,0,1-1.314,5.454Zm4.662-.684c-.5,0-.576-.09-.576-.738V13.314H7.722V19.6c0,2,.45,2.628,2.358,2.628h2c1.674,0,2.214-.864,2.412-3.942a5.634,5.634,0,0,1-1.89-.864c-.072,2.484-.18,2.9-.72,2.9Zm2.9-5.346a21.4,21.4,0,0,1,2.2,6.012l2.106-.864a21.445,21.445,0,0,0-2.394-5.886Zm9.648-5.94h2.088V8.4h3.852v.63h2.106V8.4h3.8V6.708h-3.8V5.772H28.908v.936H25.056V5.772H22.968v.936h-3.78V8.4h3.78Zm2.61,7.92c-.054.342-.108.648-.18.936H23.184a9.3,9.3,0,0,0,1.4-1.206h4.824a10.033,10.033,0,0,0,1.26,1.206h-3.2a7.811,7.811,0,0,0,.162-.936ZM22.95,12.414h8.1v.72h-8.1Zm0-1.872h8.1v.7h-8.1ZM35.064,16.68V15.024H25.848c.126-.216.234-.432.342-.648h7.02V9.3H20.9v5.076h3.078a6.753,6.753,0,0,1-.432.648h-4.59V16.68h2.808A12.238,12.238,0,0,1,18.4,18.192,4.772,4.772,0,0,1,19.62,19.7a18.349,18.349,0,0,0,2.07-.9v.612h2.88c-.7.738-1.944,1.26-4.158,1.6a5.973,5.973,0,0,1,1.026,1.638c3.258-.648,4.77-1.674,5.526-3.24h3.078a2.392,2.392,0,0,1-.378,1.3.789.789,0,0,1-.576.162c-.306,0-1.008-.018-1.728-.09a3.961,3.961,0,0,1,.522,1.674,20.281,20.281,0,0,0,2.16-.018,2.137,2.137,0,0,0,1.314-.522c.4-.414.612-1.278.774-3.024A11.345,11.345,0,0,0,34.308,19.9a8.4,8.4,0,0,1,1.368-1.71,12.109,12.109,0,0,1-3.654-1.512ZM42.21,7.32a23.413,23.413,0,0,0-3.8-1.3l-.936,1.458A23.18,23.18,0,0,1,41.238,8.94ZM41.184,17.472h7.794v.792H41.184Zm0-1.98h7.794v.774H41.184Zm0-1.98h7.794v.774H41.184ZM44.1,12.234a5.816,5.816,0,0,0,3.294-1.944,5.407,5.407,0,0,0,2.754,1.944Zm7.056,7.308v-7c.36.09.756.162,1.188.234a5.977,5.977,0,0,1,1.062-1.746c-3.636-.432-4.662-1.422-5.04-2.574h2a10.245,10.245,0,0,1-.7.99l1.656.522a12.775,12.775,0,0,0,1.71-2.718l-1.422-.36-.324.054h-5.31a8.266,8.266,0,0,0,.468-.882l-1.89-.306A7.816,7.816,0,0,1,41.9,8.886a5.729,5.729,0,0,1,1.6,1.008,9.9,9.9,0,0,0,1.44-1.44h1.3c-.4,1.278-1.35,2.052-4.212,2.52l-.18-1.62c-1.908.45-3.834.9-5.166,1.152l.792,1.872c1.35-.378,3.024-.864,4.572-1.314l-.018-.072a5.373,5.373,0,0,1,.846,1.242H39.114v7.308H41.76a21.136,21.136,0,0,1-4.95,1.512,21.711,21.711,0,0,1,1.584,1.566,22.3,22.3,0,0,0,5.616-2.358l-1.638-.72h5.256l-1.62.936a35.492,35.492,0,0,1,4.68,2.124l2.484-.954c-1.224-.594-3.294-1.458-5.13-2.106Zm12.96-3.69a13.942,13.942,0,0,0,2.07-1.476,13.416,13.416,0,0,0,2.16,1.476Zm.108,4.248V17.652h3.762V20.1ZM61.38,14.394c-.306-.414-1.656-2.016-2.142-2.538v-.432h1.53a15.316,15.316,0,0,1,1.3,1.17A12.289,12.289,0,0,0,63.4,11.208a17.021,17.021,0,0,0,1.35,1.764,13.826,13.826,0,0,1-3.978,2.268Zm6.264-4.932a10.908,10.908,0,0,1-1.53,2.2,11.17,11.17,0,0,1-1.548-2.016l.126-.18Zm1.35-1.89-.36.072h-2.9q.324-.675.594-1.35L64.3,5.736a13.243,13.243,0,0,1-3.042,4.68V9.444H59.238V5.754H57.222v3.69H54.864v1.98h2.2a17.544,17.544,0,0,1-2.628,6.048,10.971,10.971,0,0,1,.99,1.944,14.384,14.384,0,0,0,1.8-3.69v6.822h2.016v-8.3A19.653,19.653,0,0,1,60.228,16l.162-.234a8.592,8.592,0,0,1,.918,1.422,9.874,9.874,0,0,0,.918-.378v5.76h2v-.63h3.762v.576h2.07V16.644l.324.126a8.355,8.355,0,0,1,1.3-1.782,11.938,11.938,0,0,1-4.068-2A13.335,13.335,0,0,0,70.344,8.2Z" transform="translate(469 9426.639)" fill="#333"/><g transform="translate(391 9413.521)"><g transform="translate(0 0)" clip-path="url(#a)"><path d="M8.993,59.857H48.075A7.762,7.762,0,0,0,55.83,52.1V7.753A7.762,7.762,0,0,0,48.075,0H15.2A7.765,7.765,0,0,0,7.447,7.766l.3,34.723H6.827v.1L1.49,42.8A1.551,1.551,0,0,0,0,44.353v6.511c0,4.286,4.706,8.993,8.993,8.993M3.1,45.843l6.238-.252h24.8c.217,4.569,4.127,8.063,7.516,8.063h2.079V50.273H41.653A5.507,5.507,0,0,1,36.714,45.2V42.489H10.845l-.3-34.735A4.657,4.657,0,0,1,15.2,3.1H48.075a4.657,4.657,0,0,1,4.653,4.653V52.1a4.658,4.658,0,0,1-4.653,4.653H8.993c-2.586,0-5.891-3.3-5.891-5.893Z" transform="translate(0 0.001)" fill="#51a9aa"/><rect width="11.476" height="4.343" transform="translate(34.739 14.888)" fill="#51a9aa"/><rect width="11.476" height="4.343" transform="translate(34.119 28.224)" fill="#51a9aa"/><path d="M14.469,15.717l.937.948,7.806-7.711-2.4-2.428-5.452,5.386L11.505,8,9.111,10.368l5.32,5.388Z" transform="translate(7.506 5.378)" fill="#51a9aa"/><path d="M15.535,19.054l-3.859-3.907L9.281,17.511,14.6,22.9l.038-.038.937.95L23.383,16.1l-2.395-2.429Z" transform="translate(7.646 11.261)" fill="#51a9aa"/></g></g></g></svg>