<svg xmlns="http://www.w3.org/2000/svg" xmlns:xlink="http://www.w3.org/1999/xlink" width="149.334" height="41.882" viewBox="0 0 149.334 41.882"><defs><clipPath id="a"><rect width="55.83" height="41.882" fill="#51a9aa"/></clipPath></defs><g transform="translate(-391 -9807.521)"><path d="M15.408,5.88A48.325,48.325,0,0,1,6.354,7.23a7.312,7.312,0,0,1,.558,1.71A50.876,50.876,0,0,0,16.83,7.554Zm-.54,7.686A39.849,39.849,0,0,0,17.316,9.3l-2.034-.738a23.52,23.52,0,0,1-2.07,4.338Zm-2.2-1.422a10.952,10.952,0,0,0-.828-3.276l-1.782.342a11.983,11.983,0,0,1,.72,3.312Zm-3.15.54A13.719,13.719,0,0,0,8.3,9.318L6.606,9.75a15.77,15.77,0,0,1,1.1,3.456Zm-3.51.612-1.458.414V11.118H6.192V9.156H4.554V5.772H2.61V9.156H.72v1.962H2.61v3.114c-.81.2-1.566.4-2.178.522L.9,16.806c.522-.144,1.116-.306,1.71-.486V20.3c0,.234-.09.306-.306.306A14.542,14.542,0,0,1,.81,20.586a7.962,7.962,0,0,1,.54,1.98,4.668,4.668,0,0,0,2.5-.4c.54-.342.7-.882.7-1.872V15.744c.576-.162,1.152-.342,1.728-.522Zm11.16,3.258V14.7H12.834V12.882H10.818V14.7H6.588v1.854h3.1a10.745,10.745,0,0,1-4.248,3.564,9.722,9.722,0,0,1,1.422,1.674,12.476,12.476,0,0,0,3.96-3.708V22.44h2.016V18.174A13.134,13.134,0,0,0,16.272,21.7a8.042,8.042,0,0,1,1.4-1.62,10.986,10.986,0,0,1-3.816-3.528Zm8.154-3.024-2.142.432v-2.79h2.178V9.21H23.184V5.772H21.132V9.21H18.774v1.962h2.358v3.186c-.99.2-1.89.36-2.646.468l.468,2.052c.666-.144,1.4-.288,2.178-.45v3.78c0,.288-.09.378-.36.4-.252,0-1.116,0-1.926-.036a7.63,7.63,0,0,1,.594,1.962,6.746,6.746,0,0,0,2.916-.378c.612-.324.828-.846.828-1.926V16c.774-.162,1.566-.342,2.322-.5Zm7.362-4.77V12.5H28.206V8.76Zm2.16,5.742V6.744H26.082v6.1c0,2.628-.18,5.994-2.376,8.262a9.184,9.184,0,0,1,1.674,1.458c2.034-2.07,2.646-5.328,2.79-8.064h1.422c.72,3.744,2,6.624,4.662,8.1A7.789,7.789,0,0,1,35.73,20.73c-2.2-1.08-3.4-3.438-4.014-6.228ZM47.2,9.03a9.783,9.783,0,0,1-2.178,1.782A10.648,10.648,0,0,1,42.642,9.03Zm1.872-1.908-.378.09H44.1c.252-.342.486-.7.7-1.062l-2.358-.414a11.2,11.2,0,0,1-5.274,4.5,7.022,7.022,0,0,1,1.512,1.584,18.385,18.385,0,0,0,2.484-1.584,13.592,13.592,0,0,0,1.89,1.62A24.241,24.241,0,0,1,36.9,13.53a8.707,8.707,0,0,1,.99,1.908,25.185,25.185,0,0,0,7.218-2.358,22.918,22.918,0,0,0,7.02,2.034,10,10,0,0,1,1.26-1.908,25.765,25.765,0,0,1-6.228-1.4A11.54,11.54,0,0,0,50.526,7.95ZM53.01,17.6v-1.89H46.062V14.214H43.9v1.494H37.008V17.6h5.31a15.132,15.132,0,0,1-5.742,3.024,10.741,10.741,0,0,1,1.386,1.746,16.264,16.264,0,0,0,5.94-3.816v4.014h2.16V18.534a16.476,16.476,0,0,0,5.976,3.726,10.13,10.13,0,0,1,1.422-1.782,15.605,15.605,0,0,1-5.724-2.88ZM58.392,5.826a19.06,19.06,0,0,1-4,6.732,14.628,14.628,0,0,1,1.152,2.232c.36-.4.72-.846,1.08-1.3v9.054h2.034V10.308a30.493,30.493,0,0,0,1.764-3.834Zm12.942,8.6H66.726v-3.1h3.762V9.246H66.726V5.988h-2.16V9.246H63.072c.2-.684.378-1.368.522-2.07l-2.07-.432A16.522,16.522,0,0,1,59.4,12.63a13.833,13.833,0,0,1,1.854,1.026,12.7,12.7,0,0,0,1.116-2.322h2.2v3.1h-4.86v2.088h4.86v6.048h2.16V16.518h4.608Z" transform="translate(469 9810.521)" fill="#333"/><g transform="translate(391 9807.521)"><g clip-path="url(#a)"><path d="M55.31,8.78c-.89-.837-1.7-1.763-2.553-2.746-1.95-2.24-3.967-4.559-7.118-5.9a1.657,1.657,0,0,0-1.851.385c-6.157,6.513-12.543,12.924-19,19.076-1.74-1.54-3.338-3.226-5.014-4.991a56,56,0,0,0-8.424-7.73,1.653,1.653,0,0,0-1.963.054A51.415,51.415,0,0,0,2.1,14.381c-.561.657-1.121,1.314-1.691,1.963A1.656,1.656,0,0,0,.4,18.517,226.14,226.14,0,0,0,23.329,41.478a1.655,1.655,0,0,0,2.25-.076c2.612-2.6,5.3-5.211,7.9-7.738C40.865,26.47,48.51,19.032,55.426,11.07a1.654,1.654,0,0,0-.116-2.29M31.167,31.292c-2.242,2.183-4.552,4.43-6.825,6.677a222.8,222.8,0,0,1-20.5-20.537q.386-.451.773-.9a56.053,56.053,0,0,1,5.85-6.206,59.716,59.716,0,0,1,6.91,6.558,70.484,70.484,0,0,0,6.431,6.22,1.652,1.652,0,0,0,2.184-.081c6.57-6.224,13.078-12.726,19.36-19.339a19.925,19.925,0,0,1,4.91,4.529c.533.613,1.078,1.238,1.653,1.849C45.356,17.485,38.148,24.5,31.167,31.292" transform="translate(0 -0.001)" fill="#51a9aa"/></g></g></g></svg>