<svg height="303.478" viewBox="0 0 1060.031 303.478" width="1060.031" xmlns="http://www.w3.org/2000/svg"><g fill="#fff"><path d="m234.85 93.649c-4.741 7.249-8.087 12.826-12.271 20.357h-8.391v-40.655l14.47-8-34.02-30.37-5.7 8.252a23.975 23.975 0 0 0 -1.792 2.6l-5.478 7.938h-111.936l9.568 10.665h35.33v48.3h-61.41l9.567 10.667h51.842v17.097c0 11.982-.492 23.22-1.466 33.515h-54.587l9.567 10.667h43.6c-7.069 49.78-28.239 78.895-66.271 99.16 56.1-12.5 88.427-42.955 97.49-99.16h41.111v32.557l30.118-6.834v-88.591h40.563zm-84.05-29.213h33.266v48.3h-38.202v-43.908zm-4.941 81.919v-22.947h38.207v50.605h-39.64a255.558 255.558 0 0 0 1.433-27.658" transform="translate(18.484 14.221)"/><path d="m100.509 31.13h-51.845c-12.27 50.476-27.47 97.77-48.664 131.239l.418-.418a319.957 319.957 0 0 0 31.513-34.858v163.729l27.61-8.193v-164.816l.277-.093 10.429-7.509-19.632-9.332a318.9 318.9 0 0 0 26.495-52.429z" transform="translate(0 12.655)"/><path d="m555.627 21.681-46.852 37.927 82.767-.153z" transform="translate(206.83 8.814)"/><path d="m428.97 166.594h-40.318l-9.569-10.669h57.48v-32.76h-47.911l-9.569-10.665h76.286a405.294 405.294 0 0 0 10.56-51.288l33.938 18.735-14.562 4.18-29.936 28.373h29.271c4.857-5.847 9.59-11.355 15.506-18.043l30.025 28.692-65.382.02v32.761h19.036l14.649-17.131 31.688 27.042a443.721 443.721 0 0 0 2.335-47.958c0-64.14-.28-69.16-1.394-84.5l30.4 21.473v59.122h33.185c5.3-7.251 11.434-13.944 18.406-21.473l31.176 29.282h-30.952v142.048l-28.952 11.05v-153.1h-22.866c-.837 79.2-27.889 122.148-75.855 146.966 24.936-24.291 39.256-54.731 44.515-102.906l-65.371-.076v19.715c15.2 1.737 27.739 5.875 37.309 12.711 6.692 5.02 10.6 11.155 10.6 18.127 0 10.04-7.251 15.9-15.06 15.9-6.972 0-12.271-4.182-15.06-12.549-3.8-10.587-10.246-26.959-17.788-33.738v76.387l-28.225 12.569v-71.3s-14.839 20.905-50.548 40.927c0 0 37.315-54.2 42.954-77.921" transform="translate(154.107 13.569)"/><path d="m420.251 98.77c7.809 0 13.666-5.577 13.666-14.78 0-21.614-40.782-26.215-40.782-26.215s10.484 9.473 14.846 29.282c1.706 7.746 5.857 11.712 12.271 11.712" transform="translate(159.82 23.487)"/><path d="m385.834 65.259h146.28l-11.791-10.669-18.791-17.44c-5.9 6.666-9.684 11.691-14.372 17.44h-19.65v-13.339l11.965-17.832h-42.12l.035 31.171h-63.09z" transform="translate(152.163 9.521)"/><path d="m686.779 103.008h-12.179l-35.413-11.992v149.15l29.839-9.078v-9.837h78.643v18.915l29.621-6.985v-114.881l14.449-7.487-28.149-25.12-17.316 17.316h-57.793l34.039-30.47h81.98l-33.854-32.279-14.154 21.858h-30.592l30.486-31.6-31.997-30.518v62.118h-105.56l9.571 10.421h58.383zm60.89 110.435h-78.643v-30.4h78.643zm0-38.205h-78.643v-29h78.643zm0-64.42v27.609h-78.643v-27.61h78.643z" transform="translate(251.569)"/><path d="m594.376 74.518c2.2 10 7.56 15.122 15.84 15.122 10.082 0 17.642-7.2 17.642-19.081 0-27.9-52.65-33.844-52.65-33.844s13.536 12.23 19.168 37.8" transform="translate(233.836 14.926)"/><path d="m654.866 40.375c1.706 7.747 5.857 11.712 12.271 11.712 7.809 0 13.666-5.577 13.666-14.78 0-21.613-40.782-26.215-40.782-26.215s10.486 9.473 14.846 29.282" transform="translate(260.185 4.509)"/><path d="m731.7 215.994c-59.4 0-81.431-3.625-98.443-18.964v-74.574l16.077-13.847-31.657-27.079-12.266 20.67h-41.284l9.567 9.853h30v85.257l-37.588 15.9v30.806l67.149-46.982c17.466 28.361 34.9 46.574 99.838 46.574 34.3 0 56.61-.558 75.016-1.954l22.591-31.795a766.958 766.958 0 0 1 -99 6.135" transform="translate(229.332 33.144)"/><path d="m364.01 179.793c-12.829-7.531-29-10.6-45.179-10.6 12.549 5.857 20.916 17.847 28.168 30.955 4.462 8.087 9.48 11.155 15.337 11.155 7.809 0 13.666-5.02 13.666-13.944 0-6.694-3.069-12.549-11.992-17.569" transform="translate(129.613 68.782)"/><path d="m262.439 61.41-16.769 17.274a3.189 3.189 0 0 0 -.522.748h-15.9l-32.07-10.6c1.115 16.174 1.674 25.378 1.674 83.941 0 53.265-3.348 80.872-12.271 106.809 23.39-18.053 35.488-39.324 36.81-77.248h23.147v43.225c0 8.086-1.674 9.2-8.366 9.2-6.135 0-3.362-.28-11.728-1.4l20.094 21.753v8.086s25.935-8.391 25.935-35.421v-130.216l15.034-8.916zm-15.9 113.118h-22.31c.278-7.251.558-14.78.558-23.147v-17.847h21.752zm0-48.8h-21.75v-38.487h21.753z" transform="translate(75.851 24.965)"/><path d="m276.32 90.691c1.706 7.747 5.857 11.712 12.271 11.712 7.809 0 13.666-5.577 13.666-14.78 0-21.613-40.782-26.215-40.782-26.215s10.486 9.473 14.846 29.282" transform="translate(106.296 24.964)"/><path d="m286.182 178.781c8.367 0 13.386-5.3 13.386-12.549 0-9.483-8.366-17.012-27.33-19.243 3.9 3.9 2.232 12.549 3.348 21.472.837 6.972 5.02 10.32 10.6 10.32" transform="translate(110.672 59.755)"/><path d="m336.57 70.444-16.425 36.678 52.462-36.678z" transform="translate(130.147 28.637)"/><path d="m329.53 178.48 42.947-11.157-21.477-19.241c-7.809 10.04-14.781 23.731-21.475 30.146v-27.135l12.9-7.459-39.387-8.934c.557 10.318.835 17.011.835 30.118v38.764c0 5.3-1.672 6.972-6.414 6.972a138.543 138.543 0 0 1 -17.292-1.4c11.435 3.346 15.9 12.271 18.127 20.358 1.4 5.02 1.952 5.578 6.972 5.578 24.639 0 24.263-16.29 24.263-16.29z" transform="translate(113.895 54.757)"/><path d="m296.744 175.16-.619.276h.619z" transform="translate(120.382 71.207)"/><path d="m258.341 175.16v24l53.144-23.727z" transform="translate(105.022 71.207)"/><path d="m379.383 150.223h44.843l-32.026-26.213-13.663 15.545h-12.157c-.817-.695-1.657-1.4-2.527-2.115l-22.365-18.991 7.341 21.106h-33.858c4.239-6.778 8.095-13.92 11.719-21.106h97.535l-32.025-26.214-13.659 15.545h-46.857c3.414-7.751 6.6-16.219 10.043-24.949l14.64-14.006h-40.849c-2.611 12.207-6.083 26.8-10.438 38.955h-48.52l9.567 10.669h34.788c-2.906 7.186-6.042 14.328-9.563 21.106h-37.514l9.567 10.668h21.95c-9.868 16.954-20.42 33.961-33.816 46.536 8.923-5.3 22.14-12.417 29.112-18a199.79 199.79 0 0 0 27.084-28.541h46.865a117.847 117.847 0 0 0 40.111 41.092c2.791 1.674 4.463 2.509 5.857 2.509l39.732-14.427c-27.665-7.878-47.126-19.171-60.921-29.169" transform="translate(102.258 27.979)"/><path d="m417.005 29.768-17.7 19.283h-15.875v-12.137l7.2-15.233h-36.681v27.37h-60.185v-12.137l9.479-15.233h-38.958v26.931h-82.242l12.442 11.106h69.8v17.842h29.479v-17.842h60.185v17.842h29.481v-17.842h69.028z" transform="translate(74.006 8.814)"/></g></svg>