<svg xmlns="http://www.w3.org/2000/svg" xmlns:xlink="http://www.w3.org/1999/xlink" width="148.65" height="65.956" viewBox="0 0 148.65 65.956"><defs><clipPath id="a"><rect width="63.796" height="65.956" fill="#51a9aa"/></clipPath></defs><g transform="translate(-391 -9282.521)"><path d="M4.176,9.876h13V7.842h-6.5V5.772H8.442v2.07H2.034v4.536c0,2.592-.126,6.372-1.6,8.946A9.942,9.942,0,0,1,2.286,22.53c1.62-2.808,1.89-7.254,1.89-10.152Zm9.45,2.664A22.671,22.671,0,0,0,9.27,9.93l-1.422,1.4a20.764,20.764,0,0,1,4.23,2.808ZM5.76,21a16.576,16.576,0,0,0,1.332-5.886L5.166,14.7a14.9,14.9,0,0,1-1.314,5.454Zm4.662-.684c-.5,0-.576-.09-.576-.738V13.314H7.722V19.6c0,2,.45,2.628,2.358,2.628h2c1.674,0,2.214-.864,2.412-3.942a5.634,5.634,0,0,1-1.89-.864c-.072,2.484-.18,2.9-.72,2.9Zm2.9-5.346a21.4,21.4,0,0,1,2.2,6.012l2.106-.864a21.445,21.445,0,0,0-2.394-5.886Zm9.648-5.94h2.088V8.4h3.852v.63h2.106V8.4h3.8V6.708h-3.8V5.772H28.908v.936H25.056V5.772H22.968v.936h-3.78V8.4h3.78Zm2.61,7.92c-.054.342-.108.648-.18.936H23.184a9.3,9.3,0,0,0,1.4-1.206h4.824a10.033,10.033,0,0,0,1.26,1.206h-3.2a7.811,7.811,0,0,0,.162-.936ZM22.95,12.414h8.1v.72h-8.1Zm0-1.872h8.1v.7h-8.1ZM35.064,16.68V15.024H25.848c.126-.216.234-.432.342-.648h7.02V9.3H20.9v5.076h3.078a6.753,6.753,0,0,1-.432.648h-4.59V16.68h2.808A12.238,12.238,0,0,1,18.4,18.192,4.772,4.772,0,0,1,19.62,19.7a18.349,18.349,0,0,0,2.07-.9v.612h2.88c-.7.738-1.944,1.26-4.158,1.6a5.973,5.973,0,0,1,1.026,1.638c3.258-.648,4.77-1.674,5.526-3.24h3.078a2.392,2.392,0,0,1-.378,1.3.789.789,0,0,1-.576.162c-.306,0-1.008-.018-1.728-.09a3.961,3.961,0,0,1,.522,1.674,20.281,20.281,0,0,0,2.16-.018,2.137,2.137,0,0,0,1.314-.522c.4-.414.612-1.278.774-3.024A11.345,11.345,0,0,0,34.308,19.9a8.4,8.4,0,0,1,1.368-1.71,12.109,12.109,0,0,1-3.654-1.512ZM40.14,15.2h2.232v1.224H40.14ZM42.372,9.75v1.044H40.14V9.75ZM40.14,12.432h2.232v1.134H40.14Zm5.292,4h-1.1V9.75h1.224V7.878H44.334V5.97H42.372V7.878H40.14V5.97H38.214V7.878h-1.4V9.75h1.4v6.678h-1.62V18.3h8.838Zm-6.606,2a8.328,8.328,0,0,1-2.376,2.916,12.083,12.083,0,0,1,1.71,1.278,12.662,12.662,0,0,0,2.664-3.6ZM48.15,14.7c.018-.558.018-1.08.018-1.548v-.666H50.76V14.7Zm2.61-6.21V10.6H48.168V8.49Zm2.07-1.944H46.17v6.606c0,2.34-.09,5.382-1.134,7.632a19.61,19.61,0,0,0-1.944-2.448l-1.62.882A17.9,17.9,0,0,1,43.4,21.936l1.494-.846c-.054.108-.126.2-.18.306A6.184,6.184,0,0,1,46.4,22.6a14.773,14.773,0,0,0,1.62-5.994H50.76v3.546c0,.288-.09.378-.36.378-.252,0-1.116.018-1.89-.036a7.756,7.756,0,0,1,.612,2.034A6.186,6.186,0,0,0,52,22.152c.63-.342.828-.9.828-1.962Zm7.524,1.44V8.94H57.582V7.986Zm-2.772,3.42V10.38h2.772v1.026Zm4.77,1.53v-6.5H55.458V22.566h2.124v-9.63Zm3.276-1.494V10.38H68.49v1.062ZM68.49,7.986V8.94H65.628V7.986Zm-7.02,11.34V18.21h2.97v1.116Zm2.97-2.646H61.47V15.6h2.97ZM70.65,6.438H63.594v6.534h4.9V20.01c0,.288-.108.4-.432.4-.234.018-.9.018-1.6,0V14.034l-6.048-.018v.018h-.882V21.81H61.47v-.918h4.464a7.925,7.925,0,0,1,.468,1.674,7.777,7.777,0,0,0,3.294-.414c.72-.342.954-.972.954-2.124Z" transform="translate(469 9302.521)" fill="#333"/><g transform="translate(391 9282.521)"><path d="M28,21.092H24.317V32.679H24.4l-.051.094,9.68,5.29,1.44-2.641L28,31.341Z" transform="translate(19.575 16.979)" fill="#51a9aa"/><rect width="23.328" height="3.682" transform="translate(8.287 28.254)" fill="#51a9aa"/><rect width="14.426" height="3.684" transform="translate(7.98 37.457)" fill="#51a9aa"/><g transform="translate(0 0)"><g clip-path="url(#a)"><path d="M54.022,32.362V12.6A5.224,5.224,0,0,0,48.8,7.381H47.681V4.814a5.019,5.019,0,0,0-10.03,0V7.381H16.835V5.108A4.923,4.923,0,0,0,11.821.294,4.924,4.924,0,0,0,6.8,5.108V7.381H5.218A5.224,5.224,0,0,0,0,12.6v38.67a5.223,5.223,0,0,0,5.218,5.218H30.349A17.746,17.746,0,1,0,54.022,32.362M40.627,4.814a2.049,2.049,0,0,1,4.076,0v7.224a2.049,2.049,0,0,1-4.076,0ZM9.781,5.108a1.948,1.948,0,0,1,2.04-1.836,1.947,1.947,0,0,1,2.038,1.836v7.224a1.947,1.947,0,0,1-2.038,1.836,1.948,1.948,0,0,1-2.04-1.836ZM29.07,53.419H5.218a2.153,2.153,0,0,1-2.15-2.15V12.6a2.152,2.152,0,0,1,2.15-2.148H6.8v1.881a4.924,4.924,0,0,0,5.016,4.814,4.923,4.923,0,0,0,5.014-4.814V10.451H37.65v1.587a5.019,5.019,0,0,0,10.03,0V10.451H48.8a2.151,2.151,0,0,1,2.15,2.148V31.152A17.744,17.744,0,0,0,29.07,53.419M46.04,62.978A14.778,14.778,0,1,1,60.818,48.2,14.8,14.8,0,0,1,46.04,62.978" transform="translate(0 0)" fill="#51a9aa"/></g></g></g></g></svg>