<svg height="279.799" viewBox="0 0 533.831 279.799" width="533.831" xmlns="http://www.w3.org/2000/svg"><g fill="#fff"><path d="m981.44 96.348c2.218 8.6 7.764 11.926 14.975 11.926 8.875 0 15.53-6.38 15.53-16.639 0-14.7-16.084-24.96-45.481-25.793 7.766 5.546 12.2 19.691 14.976 30.506" transform="translate(-693.626 15.255)"/><path d="m1000.275 47.771c2.5 8.321 7.766 11.926 15.255 11.926 8.874 0 15.252-6.657 15.252-16.362 0-14.975-16.084-25.237-45.481-26.068 7.211 5.546 11.37 18.858 14.975 30.5" transform="translate(-686.115 -4.114)"/><path d="m991.581 164.155c-6.1 13.867-11.925 17.195-25.514 18.027 14.421 2.774 19.968 13.589 19.968 22.741 0 16.084-1.111 27.456-1.111 34.943 0 9.43 4.992 15.255 15.53 15.255 12.481 0 19.136-8.875 19.136-20.8 0-11.37-9.706-21.908-9.706-37.718 0-7.209 34.943-153.362 34.943-153.362z" transform="translate(-693.783 6.243)"/><path d="m1182.481 48.751-27.113-33.469c-35.5 16.918-80.7 30.506-119.527 37.44 20.045 4.873 39.38 3.328 57.406 1.94v57.791h-80.46l8.608 10.6h71.852v38.1h-21.354l-35.5-12.756-.277 118.947 30.228-12.176v-12.2h81.813v41.732l29.953-20.5v-84.18l15.632-17.007-31.259-20.6-15.712 18.753h-24.682v-38.1h57.979l4.068-.063h24.851l-27.179-31.617-26.972 21.076h-32.747v-60.119c13.508-2.009 32.039-5.122 41.6-7.387zm-34.322 120.172v66.277h-81.813v-66.277z" transform="translate(-675.155 -4.905)"/><path d="m850.88 47.036 17.046-3.684-38.956-24.882c-14.97 31.062-34.389 58.24-55.188 77.93 29-7.356 57.685-28.288 77.1-49.364" transform="translate(-770.453 -3.634)"/><path d="m855.6 82.8 10.372-5.556-36.053-14.625c-15.253 38.271-36.054 75.155-58.517 100.948 17.511-6.248 26.591-13.884 37.692-24.148v116.953l28.33-11.423v-112.735l4.151-8.967-10.547-6.547a325.541 325.541 0 0 0 24.572-33.9" transform="translate(-771.402 13.969)"/><path d="m944.305 215.14a163.837 163.837 0 0 0 29.4-29.4l21.673-11.429-27.178-18.38-18.621 10.676h-32.729c6.412-5.981 16.084-18.3 19.968-24.682h31.382v14.005l27.179-13.363v-55.555l10.952-12.991-26.281-19.027-13.242 16.172h-107.263v90.108l26.345-9.664v-9.685h15.43c-16.918 34.111-45.205 65.449-77.375 85.695 24.96-8.875 56.214-20.332 76.82-43.263 3.328-3.329 6.657-6.657 9.707-10.261h37.161c-7.766 10.538-16.084 20.244-26.069 28.842a101.927 101.927 0 0 1 -20.8-18.581c0 10.095 3.6 21.076 9.152 28.563a226.967 226.967 0 0 1 -84.031 40.214c52.555-2.2 66.4-6.054 95.244-22.694 15.807 14.144 35 21.307 60.516 26.577 1.943.277 40.311-31.855 40.311-31.855-34.206 1.53-58.793-2.258-77.65-10.022m-58.416-135.892h82.31v23.019h-82.31zm0 30.783h82.31v24.128h-82.31z" transform="translate(-750.452 10.929)"/><path d="m878.926 63.808.116-.157h128.589l-25.145-27.166-18.729 19.4h-79.168c2.774-4.16 5.547-8.32 7.766-12.2l24.453-9.7-43.674-26.122c-7.583 27.428-39.448 84.953-39.446 84.952 35.336-15.176 43.664-26.9 45.238-29.007" transform="translate(-746.567 -7.863)"/></g></svg>