<svg xmlns="http://www.w3.org/2000/svg" xmlns:xlink="http://www.w3.org/1999/xlink" width="131.496" height="60.107" viewBox="0 0 131.496 60.107"><defs><clipPath id="a"><rect width="60.121" height="60.107" fill="#51a9aa"/></clipPath></defs><g transform="translate(-391 -9902.011)"><path d="M4.41,7.23l.108,2.3c.576-.072,1.17-.126,1.62-.162.738-.072,2.952-.18,3.69-.234A53.433,53.433,0,0,1,4.77,13.224c-.954.108-2.214.27-3.168.36l.216,2.178c1.8-.306,3.816-.576,5.472-.72a4.153,4.153,0,0,0-1.314,2.844c0,3.006,2.682,4.392,7.29,4.194l.486-2.358A16.153,16.153,0,0,1,11,19.668c-1.6-.18-2.718-.738-2.718-2.16A3.191,3.191,0,0,1,11.3,14.646a27.275,27.275,0,0,1,4.626-.054V12.468c-2.2,0-5.184.2-7.6.432,1.242-.954,3.006-2.448,4.284-3.474.378-.306,1.044-.738,1.422-.99L12.618,6.78a6.631,6.631,0,0,1-1.242.234c-1.1.108-4.482.27-5.256.27C5.508,7.284,4.986,7.266,4.41,7.23Zm30.276,7.434a6.855,6.855,0,0,0-7.272-7.02,8,8,0,0,0-8.262,7.7c0,3.042,1.656,5.238,3.654,5.238,1.962,0,3.51-2.232,4.59-5.868a36.4,36.4,0,0,0,1.08-4.878,4.45,4.45,0,0,1,3.78,4.752,4.885,4.885,0,0,1-4.1,4.824,13.844,13.844,0,0,1-1.674.288l1.35,2.142C32.364,21.144,34.686,18.462,34.686,14.664Zm-13.23.45a5.666,5.666,0,0,1,4.572-5.22,27.019,27.019,0,0,1-.954,4.356c-.738,2.43-1.44,3.564-2.2,3.564C22.176,17.814,21.456,16.932,21.456,15.114ZM40.392,5.808a18.651,18.651,0,0,1-4.1,6.75,14.868,14.868,0,0,1,1.152,2.16,14.911,14.911,0,0,0,1.134-1.35V22.53H40.7V10.074a32.7,32.7,0,0,0,1.674-3.618ZM46.53,20.37c-1.17,0-1.35-.162-1.35-1.242v-5.76l1.746-.684V18.3h2V11.892l1.872-.738c-.018,2.358-.054,3.546-.108,3.852-.09.36-.216.432-.468.432-.2,0-.7-.018-1.1-.036a5.707,5.707,0,0,1,.468,1.962,4.94,4.94,0,0,0,2.016-.252,1.69,1.69,0,0,0,1.026-1.62c.108-.792.144-2.952.162-6.084l.072-.324-1.458-.558-.684.486-1.8.7V5.826h-2v4.662l-1.746.684V7.752H43.056V12l-2.178.846.828,1.89,1.35-.522v4.914c0,2.466.72,3.168,3.294,3.168h3.978c2.268,0,2.9-.9,3.168-3.564a6.967,6.967,0,0,1-1.908-.828c-.18,2.034-.36,2.466-1.422,2.466Z" transform="translate(469 9921.011)" fill="#333"/><g transform="translate(391 9902.011)"><g transform="translate(0 0)" clip-path="url(#a)"><path d="M1.043,33.1l4.829,2.1a25.9,25.9,0,0,0,1.767,5.308L5.066,45.094a1.682,1.682,0,0,0,.082,1.784,33.476,33.476,0,0,0,2.22,2.907,32.215,32.215,0,0,0,2.573,2.6,1.693,1.693,0,0,0,1.748.321l4.882-1.917a25.343,25.343,0,0,0,5.011,2.5L23,58.365a1.686,1.686,0,0,0,1.317,1.2,31.734,31.734,0,0,0,5.8.541q.746,0,1.486-.036a1.69,1.69,0,0,0,1.459-1l2.129-4.82a24.6,24.6,0,0,0,5.332-1.782l4.579,2.567a1.683,1.683,0,0,0,1.77-.074,32.788,32.788,0,0,0,2.917-2.22A32.8,32.8,0,0,0,52.4,50.162a1.684,1.684,0,0,0,.323-1.761l-1.934-4.865a24.5,24.5,0,0,0,2.516-5.044l5.051-1.419a1.684,1.684,0,0,0,1.2-1.294,30.759,30.759,0,0,0,.533-7.294,1.688,1.688,0,0,0-1.01-1.473L54.257,24.9a24.837,24.837,0,0,0-1.788-5.321l2.583-4.564a1.683,1.683,0,0,0-.074-1.78,29.67,29.67,0,0,0-4.8-5.512A1.681,1.681,0,0,0,48.431,7.4L43.547,9.311a24.855,24.855,0,0,0-5.021-2.5L37.114,1.753a1.687,1.687,0,0,0-1.3-1.2,29.954,29.954,0,0,0-7.325-.51,1.686,1.686,0,0,0-1.459,1.01l-2.095,4.8A24.62,24.62,0,0,0,19.6,7.637L15.048,5.059a1.691,1.691,0,0,0-1.77.066,32,32,0,0,0-2.918,2.218l-.025.021A31.851,31.851,0,0,0,7.729,9.945a1.687,1.687,0,0,0-.317,1.74l1.907,4.89A25.283,25.283,0,0,0,6.812,21.6L1.749,23.031a1.69,1.69,0,0,0-1.2,1.3,31.045,31.045,0,0,0-.516,7.306A1.685,1.685,0,0,0,1.043,33.1m2.641-7.118,4.888-1.378a1.688,1.688,0,0,0,1.146-1.1A21.906,21.906,0,0,1,12.59,17.75a1.68,1.68,0,0,0,.19-1.579l-1.843-4.725c.518-.533,1.059-1.051,1.615-1.543.6-.507,1.178-.964,1.757-1.387l4.4,2.5a1.683,1.683,0,0,0,1.6.032A21.141,21.141,0,0,1,26.414,9a1.68,1.68,0,0,0,1.258-.989l1.036-2.374L29.7,3.376a26.439,26.439,0,0,1,4.455.307l1.364,4.884a1.688,1.688,0,0,0,1.106,1.152,21.388,21.388,0,0,1,5.744,2.865,1.688,1.688,0,0,0,1.584.19l4.717-1.844c.573.554,1.08,1.085,1.535,1.615s.928,1.11,1.389,1.74l-2.5,4.408a1.686,1.686,0,0,0-.034,1.6,21.471,21.471,0,0,1,2.047,6.089,1.681,1.681,0,0,0,.985,1.254l4.653,2.036a27.267,27.267,0,0,1-.321,4.442l-4.884,1.372a1.687,1.687,0,0,0-1.15,1.11,21.133,21.133,0,0,1-2.875,5.761,1.689,1.689,0,0,0-.19,1.6l1.867,4.7c-.554.571-1.087,1.082-1.611,1.541-.55.471-1.137.934-1.755,1.383L41.4,49.094a1.687,1.687,0,0,0-1.6-.03A21.236,21.236,0,0,1,33.722,51.1a1.687,1.687,0,0,0-1.254.981L30.41,56.733a28.188,28.188,0,0,1-4.448-.309l-1.37-4.888A1.682,1.682,0,0,0,23.5,50.388a21.726,21.726,0,0,1-5.746-2.871,1.685,1.685,0,0,0-1.586-.192l-4.717,1.852c-.548-.529-1.065-1.07-1.539-1.607-.452-.526-.9-1.095-1.381-1.753L11.01,41.4a1.681,1.681,0,0,0,.034-1.59,22.559,22.559,0,0,1-2.036-6.1,1.686,1.686,0,0,0-.983-1.239L3.372,30.442a27.838,27.838,0,0,1,.313-4.455" transform="translate(0 0.001)" fill="#51a9aa"/><path d="M19.466,27.314A7.66,7.66,0,1,0,11.8,19.655a7.667,7.667,0,0,0,7.662,7.659m0-11.97a4.31,4.31,0,1,1-4.313,4.311,4.315,4.315,0,0,1,4.313-4.311" transform="translate(10.595 10.767)" fill="#51a9aa"/></g></g></g></svg>