<?xml version="1.0" encoding="utf-8"?>
<!-- Generator: Adobe Illustrator 28.1.0, SVG Export Plug-In . SVG Version: 6.00 Build 0)  -->
<svg version="1.1" id="レイヤー_1" xmlns="http://www.w3.org/2000/svg" xmlns:xlink="http://www.w3.org/1999/xlink" x="0px"
	 y="0px" viewBox="0 0 335.5 187" style="enable-background:new 0 0 335.5 187;" xml:space="preserve">
<style type="text/css">
	.st0{fill:none;stroke:#707070;}
	.st1{enable-background:new    ;}
	.st2{fill:#FFFFFF;}
</style>
<g id="グループ_4" transform="translate(-627.75 -416.523)">
	<line id="線_39" class="st0" x1="627.8" y1="417" x2="963.2" y2="417"/>
	<line id="線_40" class="st0" x1="627.8" y1="479" x2="963.2" y2="479"/>
	<line id="線_41" class="st0" x1="627.8" y1="541" x2="963.2" y2="541"/>
	<line id="線_42" class="st0" x1="627.8" y1="603" x2="963.2" y2="603"/>
	<path id="パス_3" class="st0" d="M711.5,416.9l0,186.6"/>
	<path id="パス_4" class="st0" d="M795.5,417L795.5,417v186"/>
	<line id="線_46" class="st0" x1="879.5" y1="417.5" x2="879.5" y2="603.5"/>
	<g class="st1">
		<path class="st2" d="M657.6,569l0.2-0.2c0,0,0.1-0.1,0.1-0.2c0.1-0.1,0.1-0.1,0.1-0.2c0,0,0.1-0.1,0.1-0.1c0.1,0,0.2,0.1,0.5,0.3
			s0.4,0.4,0.5,0.5c0,0.1,0.1,0.1,0.1,0.2c0,0.1,0,0.1-0.1,0.2c-0.1,0.1-0.2,0.1-0.3,0.1h-4.1c-0.1,0-0.2,0-0.2,0.1
			c-0.1,0.1-0.1,0.1-0.1,0.2v0.7c0,0.1,0,0.2,0.1,0.2c0.1,0.1,0.1,0.1,0.2,0.1h3.5c0.2,0,0.3-0.1,0.4-0.2l0.2-0.2
			c0,0,0.1-0.1,0.1-0.2c0.1-0.1,0.1-0.1,0.2-0.2c0,0,0.1-0.1,0.1-0.1c0.1,0,0.2,0.1,0.5,0.3c0.3,0.2,0.5,0.4,0.6,0.6
			c0,0.1,0.1,0.1,0.1,0.2c0,0.1,0,0.1-0.1,0.2c-0.1,0-0.2,0.1-0.3,0.1h-5.9c-0.1,0-0.3,0.1-0.4,0.2c-0.6,0.5-1.1,1-1.7,1.3
			c-0.1,0.1-0.1,0.1-0.1,0.2c0,0.1,0,0.1,0.1,0.2c0.2,0.2,0.3,0.5,0.3,0.7c0,0.1,0,0.2-0.1,0.3c-0.1,0.1-0.2,0.1-0.3,0.1h0
			c-0.1,0-0.1,0-0.2-0.1c-0.1,0-0.1-0.1-0.2-0.2c-0.2-0.3-0.5-0.5-0.9-0.8c-0.4-0.3-0.7-0.5-1.1-0.7c-0.2-0.1-0.3-0.2-0.2-0.2
			c0-0.1,0.2-0.1,0.3-0.1c0.6,0.1,1.1,0.2,1.6,0.4c0.1,0,0.1,0,0.2,0c0.1,0,0.2-0.1,0.3-0.2c0.2-0.3,0.5-0.7,0.6-0.9
			c0,0,0.1-0.1,0.1-0.2c0-0.1-0.1-0.2-0.3-0.2h-2c-0.6,0-1.3,0.1-2,0.2h-0.1c-0.1,0-0.2-0.1-0.3-0.2l-0.1-0.1c0-0.1,0-0.1,0-0.2
			c0-0.1,0.1-0.2,0.3-0.2c0.3,0,0.9,0.1,1.5,0.1h3.7c0.1,0,0.2,0,0.2-0.1c0.1-0.1,0.1-0.1,0.1-0.2v-0.7c0-0.1,0-0.2-0.1-0.2
			c-0.1-0.1-0.1-0.1-0.2-0.1h-1.7c-0.6,0-1.3,0.1-2,0.2h-0.1c-0.1,0-0.2-0.1-0.3-0.2l-0.1-0.1c0-0.1,0-0.1,0-0.2
			c0-0.1,0-0.1,0.1-0.1c0.1,0,0.1,0,0.2,0c0.3,0,0.9,0.1,1.5,0.1h2.3c0.1,0,0.2,0,0.2-0.1c0.1-0.1,0.1-0.1,0.1-0.2v-0.7
			c0-0.1,0-0.2-0.1-0.2c-0.1-0.1-0.1-0.1-0.2-0.1H651c-0.6,0-1.3,0.1-2,0.2h-0.1c-0.1,0-0.2-0.1-0.3-0.2l-0.1-0.1c0-0.1,0-0.1,0-0.2
			c0-0.1,0-0.1,0.1-0.1c0,0,0.1,0,0.2,0c0.3,0,0.9,0.1,1.5,0.1h2.9c0.2,0,0.3-0.1,0.3-0.3l0-0.8v0c0-0.2,0.1-0.3,0.2-0.3l0.1,0
			c0.4,0.1,0.6,0.2,0.8,0.3s0.2,0.1,0.2,0.2c0,0,0,0.1-0.1,0.2l0,0c-0.1,0.1-0.2,0.2-0.2,0.4v0c0,0.1,0,0.2,0.1,0.2
			c0.1,0.1,0.1,0.1,0.2,0.1h2.9c0.2,0,0.3-0.1,0.4-0.2l0.2-0.2c0,0,0.1-0.1,0.1-0.2c0.1-0.1,0.1-0.1,0.1-0.2s0.1-0.1,0.1-0.1
			c0.1,0,0.3,0.1,0.5,0.3c0.3,0.2,0.5,0.4,0.6,0.5c0.1,0.1,0.1,0.1,0.1,0.2c0,0.1,0,0.1-0.1,0.2c-0.1,0-0.2,0.1-0.3,0.1h-4.7
			c-0.1,0-0.2,0-0.2,0.1c-0.1,0.1-0.1,0.1-0.1,0.2v0.7c0,0.1,0,0.2,0.1,0.2c0.1,0.1,0.1,0.1,0.2,0.1h2.4
			C657.4,569.2,657.5,569.1,657.6,569z M651.4,576.4c0.1,0,0.1,0,0.2,0.1l0.3,0.2c0,0,0.1,0.1,0.3,0.2c0.2,0.1,0.3,0.2,0.3,0.3
			c0,0.1-0.1,0.1-0.2,0.1h0c-0.2,0-0.3,0-0.4,0.1c-0.5,0.4-1.1,0.7-1.7,1s-1.4,0.6-2.1,0.8l-0.2,0c-0.1,0-0.1,0-0.1-0.1c0,0,0,0,0,0
			c0-0.1,0.1-0.1,0.2-0.2c0.4-0.2,0.8-0.5,1.2-0.7c0.4-0.2,0.7-0.5,1.1-0.8c0.4-0.3,0.6-0.6,0.9-0.9
			C651.2,576.4,651.3,576.4,651.4,576.4z M653.2,574.9C653.2,574.9,653.2,575,653.2,574.9c0.1,0.1,0.2,0.1,0.3,0.1l4.1-0.1
			c0.1,0,0.2,0,0.2-0.1c0,0,0.1-0.1,0.1-0.1c0-0.1,0-0.1-0.1-0.2c-0.2-0.1-0.5-0.4-0.9-0.6c-0.2-0.1-0.3-0.2-0.2-0.3
			c0,0,0.1,0,0.1,0c0.1,0,0.1,0,0.2,0c0.8,0.2,1.4,0.4,1.9,0.7s0.8,0.6,1.1,0.9c0.2,0.3,0.3,0.6,0.3,0.8c0,0.2,0,0.3-0.1,0.4
			s-0.2,0.1-0.3,0.1h-0.1c-0.1,0-0.2-0.1-0.3-0.3c-0.2-0.2-0.4-0.5-0.6-0.8c-0.1-0.1-0.2-0.2-0.4-0.1c-1,0.1-2.2,0.2-3.6,0.3
			c-0.2,0-0.3,0.1-0.3,0.3v1c0,1,0.1,1.7,0.1,2.2v0.1c0,0.1,0,0.2-0.1,0.3c-0.2,0.1-0.4,0.2-0.7,0.2c-0.1,0-0.1,0-0.2-0.1
			c-0.1-0.1-0.1-0.1-0.1-0.2c0.1-0.8,0.1-1.6,0.1-2.4v-1c0-0.2-0.1-0.3-0.3-0.3L649,576c-0.1,0-0.2,0-0.3,0.1l-0.1,0.1
			c-0.1,0-0.1,0.1-0.1,0.1c-0.1,0-0.1,0-0.1-0.1c-0.1,0-0.1-0.1-0.1-0.1l-0.2-0.5c0,0,0-0.1,0-0.2c0-0.1,0-0.1,0.1-0.2
			s0.1-0.1,0.2-0.1c1,0,2.2,0,3.7,0c0.1,0,0.3,0,0.4-0.1c0.4-0.3,0.9-0.7,1.4-1.1c0.8-0.7,1.4-1.3,1.8-2c0.1-0.1,0.1-0.2,0.3-0.2
			c0.1,0,0.1,0,0.2,0.1c0.6,0.3,0.9,0.6,0.9,0.7c0,0,0,0.1-0.1,0.1h-0.1c-0.1,0-0.2,0.1-0.3,0.1c-0.7,0.6-1.6,1.3-2.9,2
			C653.3,574.8,653.2,574.8,653.2,574.9z M655.6,576.7c0,0,0.1-0.1,0.3-0.1c0.9,0.1,1.7,0.3,2.3,0.6c0.6,0.3,1,0.6,1.3,0.9
			s0.4,0.6,0.4,0.8c0,0.1,0,0.2-0.1,0.3c-0.1,0.1-0.2,0.1-0.3,0.1h0c0,0-0.1,0-0.2,0c-0.1,0-0.1-0.1-0.1-0.1
			c-0.3-0.4-0.8-0.8-1.4-1.2s-1.2-0.8-1.9-1.1C655.7,576.9,655.6,576.8,655.6,576.7z"/>
		<path class="st2" d="M662.5,569.5c0,0,0.1-0.1,0.2-0.1c0.1,0,0.1,0,0.1,0c0.7,0.1,1.2,0.3,1.6,0.6c0.3,0.3,0.5,0.6,0.5,0.9
			c0,0.2,0,0.3-0.1,0.4c-0.1,0.1-0.2,0.2-0.3,0.2c-0.1,0-0.1,0-0.1,0c-0.1,0-0.2-0.1-0.3-0.3c-0.1-0.2-0.3-0.5-0.5-0.8
			s-0.5-0.5-0.8-0.7C662.5,569.7,662.5,569.6,662.5,569.5z M663.1,575.5h0.3c0.1,0,0.2,0,0.2,0s0.1-0.1,0.2-0.3
			c0.2-0.4,0.8-1.8,1.8-4l1-2.2c0.1-0.2,0.2-0.3,0.2-0.3c0.1,0,0.1,0,0.1,0.1c0,0.1,0,0.1,0,0.2l-0.8,2.1c-0.1,0.2-0.3,0.9-0.7,1.8
			c-0.3,1-0.6,1.6-0.6,1.8c-0.2,0.6-0.2,1-0.2,1.3c0,0.1,0,0.3,0.1,0.4c0,0.2,0.1,0.3,0.1,0.4c0.1,0.3,0.1,0.5,0.2,0.8
			c0,0.2,0.1,0.5,0.1,0.8c0,0.4-0.1,0.7-0.2,0.9c-0.1,0.2-0.3,0.3-0.6,0.3c-0.2,0-0.4-0.2-0.4-0.5c0,0,0-0.1,0-0.2s0-0.1,0-0.2
			c0-0.5,0.1-1,0.1-1.3c0-0.4,0-0.7-0.1-0.9c-0.1-0.2-0.1-0.4-0.2-0.5c-0.1-0.1-0.2-0.2-0.4-0.2c-0.2,0-0.3-0.1-0.3-0.2
			C662.8,575.5,662.9,575.5,663.1,575.5z M663.7,566.2c0,0,0.1,0,0.1,0c0.1,0,0.1,0,0.2,0c0.7,0.1,1.3,0.4,1.6,0.7
			c0.3,0.3,0.5,0.6,0.5,0.9c0,0.2,0,0.3-0.1,0.4c-0.1,0.1-0.2,0.2-0.4,0.2c-0.1,0-0.1,0-0.1,0c-0.1,0-0.2-0.1-0.3-0.3
			c-0.1-0.3-0.3-0.5-0.5-0.8c-0.2-0.3-0.5-0.5-0.8-0.8C663.8,566.3,663.7,566.2,663.7,566.2z M674,568.6l0.1-0.1
			c0,0,0.1-0.1,0.1-0.1c0-0.1,0.1-0.1,0.1-0.1c0,0,0.1,0,0.1,0c0.1,0,0.2,0.1,0.4,0.2c0.2,0.2,0.4,0.3,0.5,0.5c0,0,0.1,0.1,0.1,0.2
			c0,0.1,0,0.1-0.1,0.2c0,0,0,0-0.1,0c0,0-0.1,0-0.1,0c-0.2,0.1-0.3,0.2-0.3,0.3v6c0,1.1,0.1,2.2,0.1,3.3v0.1c0,0.1-0.1,0.2-0.1,0.3
			c-0.2,0.2-0.5,0.3-0.8,0.3c-0.1,0-0.1,0-0.2-0.1c0,0,0-0.1,0-0.1c0,0,0-0.1,0-0.2c0,0,0-0.1,0-0.4v-0.1c0-0.1,0-0.2-0.1-0.2
			c-0.1-0.1-0.1-0.1-0.2-0.1h-4.8c-0.1,0-0.2,0-0.2,0.1c-0.1,0.1-0.1,0.1-0.1,0.2v0c0,0.2,0,0.4,0,0.4v0.1c0,0.1,0,0.2-0.1,0.3
			c-0.2,0.2-0.4,0.2-0.7,0.2c-0.1,0-0.2,0-0.2-0.1c-0.1-0.1-0.1-0.1-0.1-0.2c0-0.6,0.1-1.2,0.1-1.7c0-0.6,0.1-1.3,0.1-2.2v-4.2
			c0-1,0-1.9-0.1-2.6v-0.1c0-0.1,0.1-0.2,0.2-0.2c0.1,0,0.1,0,0.1,0l0.7,0.3c0.1,0,0.2,0.1,0.4,0.1h0.9c0.2,0,0.3-0.1,0.3-0.3
			c0.2-0.7,0.3-1.5,0.3-2.3c0-0.1,0-0.2,0.1-0.2s0.1-0.1,0.2,0l1.1,0.3c0.1,0,0.1,0.1,0.2,0.1c0,0,0.1,0.1,0.1,0.1
			c0,0,0,0.1-0.1,0.1l-0.1,0c0,0-0.1,0-0.2,0.1s-0.1,0.1-0.2,0.2c-0.2,0.4-0.5,0.9-0.9,1.5c0,0-0.1,0.1-0.1,0.2
			c0,0.1,0.1,0.2,0.3,0.2h2.7C673.8,568.8,673.9,568.7,674,568.6z M673.8,573c0.1-0.1,0.1-0.1,0.1-0.2v-3.3c0-0.1,0-0.2-0.1-0.2
			c-0.1-0.1-0.1-0.1-0.2-0.1h-4.8c-0.1,0-0.2,0-0.2,0.1c-0.1,0.1-0.1,0.1-0.1,0.2v3.3c0,0.1,0,0.2,0.1,0.2c0.1,0.1,0.1,0.1,0.2,0.1
			h4.8C673.7,573.1,673.8,573.1,673.8,573z M668.5,573.6c-0.1,0.1-0.1,0.1-0.1,0.2v3.7c0,0.1,0,0.2,0.1,0.2c0.1,0.1,0.1,0.1,0.2,0.1
			h4.8c0.1,0,0.2,0,0.2-0.1c0.1-0.1,0.1-0.1,0.1-0.2v-3.7c0-0.1,0-0.2-0.1-0.2c-0.1-0.1-0.1-0.1-0.2-0.1h-4.8
			C668.7,573.5,668.6,573.6,668.5,573.6z"/>
		<path class="st2" d="M682.7,576.4c0.7,0.2,1.2,0.5,1.6,0.8c0.4,0.3,0.6,0.7,0.6,1.1c0,0.2,0,0.3-0.1,0.3s-0.1,0.1-0.2,0.1
			c-0.2,0-0.4-0.1-0.6-0.3c-0.1-0.1-0.2-0.2-0.5-0.4c-0.3-0.2-0.5-0.5-0.8-0.7c0,0-0.1-0.1-0.2-0.1c-0.1,0-0.2,0.1-0.2,0.2
			c-0.2,0.4-0.4,0.8-0.8,1s-0.9,0.4-1.5,0.4c-0.6,0-1.1-0.1-1.6-0.4c-0.5-0.3-0.7-0.6-0.7-1.1c0-0.3,0.1-0.6,0.4-0.8
			c0.2-0.2,0.5-0.4,0.9-0.5c0.4-0.1,0.7-0.2,1.1-0.2c0.3,0,0.6,0,1.1,0.1l0.1,0c0.2,0,0.3-0.1,0.2-0.3c0-0.2,0-0.6-0.1-1.1
			c0-0.2,0-0.5-0.1-0.9c0-0.2-0.1-0.3-0.3-0.3c-0.5,0.1-0.9,0.1-1.2,0.1c-0.5,0-1-0.1-1.4-0.3s-0.7-0.5-0.8-0.9c0-0.1,0-0.1,0-0.2
			c0,0,0-0.1,0.1-0.1c0,0,0.1,0,0.1,0s0.1,0,0.1,0.1c0.2,0.1,0.4,0.3,0.8,0.4c0.3,0.1,0.7,0.2,1.1,0.2c0.3,0,0.8,0,1.4-0.1
			c0.2,0,0.3-0.1,0.3-0.3v-0.2c0-0.6,0-1.2,0-1.9v-0.1c0-0.2,0-0.2-0.1-0.2h-0.1c-0.3,0-0.5,0-0.8-0.1c-0.2-0.1-0.4-0.2-0.6-0.4
			c-0.2-0.2-0.4-0.3-0.5-0.5c-0.1-0.1-0.1-0.2-0.1-0.2c0,0,0-0.1,0.1-0.1c0.1,0,0.1,0,0.2,0.1l0.3,0.2c0.2,0.1,0.3,0.2,0.4,0.2
			c0.1,0,0.3,0.1,0.5,0.1c0.1,0,0.3,0,0.5-0.1c0.2,0,0.3-0.1,0.3-0.3c0.1-0.4,0.1-0.7,0.1-0.9c0-0.3-0.1-0.6-0.2-0.8
			c-0.1-0.1-0.2-0.3-0.3-0.4c-0.1-0.1-0.1-0.1-0.1-0.2c0-0.1-0.1-0.1-0.1-0.1c0-0.1,0-0.1,0.1-0.2s0.1-0.1,0.2-0.1s0.2,0,0.4,0.1
			s0.4,0.2,0.5,0.3c0.1,0.2,0.2,0.4,0.2,0.6c0,0.1,0,0.3-0.1,0.6s-0.1,0.5-0.2,0.7c0,0,0,0.1,0.1,0.2s0.1,0.1,0.2,0.1l0.4-0.1
			c0.1,0,0.2,0,0.3,0c0.1,0,0.2,0,0.3,0.1c0.1,0,0.1,0.1,0.1,0.2c0,0.1,0,0.2-0.1,0.3c-0.1,0.1-0.2,0.2-0.3,0.2
			c-0.2,0.1-0.5,0.2-0.9,0.3c-0.2,0-0.3,0.2-0.3,0.3c0,0.5-0.1,1-0.1,1.6c0,0.2,0,0.3,0,0.4c0,0.1,0,0.2,0.1,0.2
			c0.1,0.1,0.2,0.1,0.3,0c0.4-0.1,0.6-0.2,0.8-0.4c0.2-0.1,0.2-0.2,0.2-0.3s-0.1-0.3-0.3-0.5c0,0,0-0.1-0.1-0.1s-0.1-0.1-0.1-0.1
			c-0.1-0.1-0.1-0.2-0.1-0.2c0,0,0,0,0,0c0,0,0.1,0.1,0.3,0.2c0.2,0.2,0.5,0.3,0.8,0.4c0.1,0,0.2,0.1,0.3,0.1c0.2,0,0.3,0.1,0.4,0.1
			c0.1,0.1,0.1,0.2,0.1,0.3c0,0.1,0,0.3-0.1,0.5c-0.1,0.1-0.3,0.3-0.5,0.4c-0.4,0.2-1,0.4-1.8,0.6c-0.2,0.1-0.3,0.2-0.3,0.5
			c0,0.3,0.1,0.9,0.2,1.6l0.1,0.7C682.4,576.3,682.5,576.4,682.7,576.4z M681,577.9c0.3-0.2,0.5-0.5,0.6-0.9v-0.1
			c0-0.1-0.1-0.2-0.2-0.3c-0.5-0.2-0.9-0.2-1.4-0.2c-0.4,0-0.8,0.1-1.2,0.3c-0.4,0.2-0.5,0.4-0.5,0.7c0,0.2,0.1,0.4,0.4,0.6
			c0.3,0.1,0.6,0.2,1,0.2C680.3,578.2,680.7,578.1,681,577.9z"/>
		<path class="st2" d="M691.3,569.6c0.3,0.3,0.6,0.8,0.8,1.4c0.2,0.6,0.3,1.2,0.3,2c0,1.5-0.3,2.8-1,3.8c-0.7,1-1.7,1.8-3.2,2.3
			c-0.1,0-0.2,0.1-0.3,0.1c-0.1,0-0.1,0-0.1-0.1c0,0,0-0.1,0.1-0.1c1.3-0.5,2.2-1.4,2.7-2.5s0.8-2.2,0.8-3.4c0-0.9-0.1-1.7-0.4-2.4
			c-0.3-0.7-0.6-1-1-1c-0.3,0-0.6,0.2-0.9,0.6c-0.3,0.4-0.5,0.9-0.7,1.4c-0.2,0.5-0.3,1-0.3,1.4c0,0.2,0,0.3,0.1,0.5
			c0.1,0.2,0.1,0.3,0.2,0.5c0.1,0.1,0.1,0.2,0.2,0.4c0,0.1,0.1,0.2,0.1,0.3c0,0.1,0,0.2-0.1,0.2c-0.1,0.1-0.2,0.1-0.3,0.1
			c-0.2,0-0.5-0.1-0.7-0.4c-0.2-0.2-0.3-0.5-0.4-0.9c-0.1-0.3-0.1-0.7-0.1-1c0-0.4,0.1-0.9,0.2-1.4s0.2-1.2,0.4-2
			c0.1-0.4,0.2-0.7,0.2-1.1c0.1-0.4,0.1-0.6,0.1-0.8c0-0.2-0.1-0.4-0.2-0.6c-0.1-0.1-0.1-0.1-0.2-0.2s-0.1-0.1-0.1-0.2
			c0,0,0-0.1,0.1-0.1c0.1,0,0.2,0,0.3,0c0.2,0,0.5,0.1,0.6,0.3c0.2,0.2,0.3,0.5,0.3,0.9c0,0.3,0,0.7-0.1,1s-0.2,0.8-0.4,1.3
			l-0.1,0.5c0,0,0.1,0.1,0.1,0.1c0.1,0,0.2-0.1,0.2-0.2c0.5-0.8,1.1-1.2,1.8-1.2C690.6,569.1,691,569.3,691.3,569.6z"/>
	</g>
	<g class="st1">
		<path class="st2" d="M648.7,517.5c-0.1,0-0.1-0.1-0.1-0.2c0-0.2,0-0.2,0.1-0.2h0.2c0.5,0,0.9-0.1,1.2-0.2c0.3-0.1,0.5-0.4,0.5-0.7
			V509c0-0.3,0-0.5-0.1-0.6c-0.1-0.1-0.2-0.2-0.4-0.2s-0.6-0.1-1.1-0.1h-0.3c-0.1,0-0.1-0.1-0.1-0.2c0-0.1,0-0.2,0.1-0.2
			c0.5,0,1-0.1,1.5-0.2s0.8-0.4,1.2-0.7c0.1-0.1,0.1-0.1,0.2-0.1c0.1,0,0.2,0.1,0.2,0.3v9.2c0,0.6,0.5,0.9,1.6,0.9h0.2
			c0,0,0.1,0,0.1,0.1c0,0,0,0.1,0,0.2c0,0.1,0,0.2-0.1,0.2H648.7z"/>
		<path class="st2" d="M655.6,508.5c0,0,0.1-0.1,0.2-0.1c0.1,0,0.1,0,0.1,0c0.7,0.1,1.2,0.3,1.6,0.6c0.3,0.3,0.5,0.6,0.5,0.9
			c0,0.2,0,0.3-0.1,0.4c-0.1,0.1-0.2,0.2-0.3,0.2c-0.1,0-0.1,0-0.1,0c-0.1,0-0.2-0.1-0.3-0.3c-0.1-0.2-0.3-0.5-0.5-0.8
			s-0.5-0.5-0.8-0.7C655.7,508.7,655.6,508.6,655.6,508.5z M656.3,514.5h0.3c0.1,0,0.2,0,0.2,0s0.1-0.1,0.2-0.3
			c0.2-0.4,0.8-1.8,1.8-4l1-2.2c0.1-0.2,0.2-0.3,0.2-0.3c0.1,0,0.1,0,0.1,0.1c0,0.1,0,0.1,0,0.2l-0.8,2.1c-0.1,0.2-0.3,0.9-0.7,1.8
			c-0.3,1-0.6,1.6-0.6,1.8c-0.2,0.6-0.2,1-0.2,1.3c0,0.1,0,0.3,0.1,0.4c0,0.2,0.1,0.3,0.1,0.4c0.1,0.3,0.1,0.5,0.2,0.8
			c0,0.2,0.1,0.5,0.1,0.8c0,0.4-0.1,0.7-0.2,0.9c-0.1,0.2-0.3,0.3-0.6,0.3c-0.2,0-0.4-0.2-0.4-0.5c0,0,0-0.1,0-0.2s0-0.1,0-0.2
			c0-0.5,0.1-1,0.1-1.3c0-0.4,0-0.7-0.1-0.9c-0.1-0.2-0.1-0.4-0.2-0.5c-0.1-0.1-0.2-0.2-0.4-0.2c-0.2,0-0.3-0.1-0.3-0.2
			C655.9,514.5,656,514.5,656.3,514.5z M656.9,505.2c0,0,0.1,0,0.1,0c0.1,0,0.1,0,0.2,0c0.7,0.1,1.3,0.4,1.6,0.7
			c0.3,0.3,0.5,0.6,0.5,0.9c0,0.2,0,0.3-0.1,0.4c-0.1,0.1-0.2,0.2-0.4,0.2c-0.1,0-0.1,0-0.1,0c-0.1,0-0.2-0.1-0.3-0.3
			c-0.1-0.3-0.3-0.5-0.5-0.8c-0.2-0.3-0.5-0.5-0.8-0.8C656.9,505.3,656.8,505.2,656.9,505.2z M667.1,507.6l0.1-0.1
			c0,0,0.1-0.1,0.1-0.1c0-0.1,0.1-0.1,0.1-0.1c0,0,0.1,0,0.1,0c0.1,0,0.2,0.1,0.4,0.2c0.2,0.2,0.4,0.3,0.5,0.5c0,0,0.1,0.1,0.1,0.2
			c0,0.1,0,0.1-0.1,0.2c0,0,0,0-0.1,0c0,0-0.1,0-0.1,0c-0.2,0.1-0.3,0.2-0.3,0.3v6c0,1.1,0.1,2.2,0.1,3.3v0.1c0,0.1-0.1,0.2-0.1,0.3
			c-0.2,0.2-0.5,0.3-0.8,0.3c-0.1,0-0.1,0-0.2-0.1c0,0,0-0.1,0-0.1c0,0,0-0.1,0-0.2c0,0,0-0.1,0-0.4v-0.1c0-0.1,0-0.2-0.1-0.2
			c-0.1-0.1-0.1-0.1-0.2-0.1h-4.8c-0.1,0-0.2,0-0.2,0.1c-0.1,0.1-0.1,0.1-0.1,0.2v0c0,0.2,0,0.4,0,0.4v0.1c0,0.1,0,0.2-0.1,0.3
			c-0.2,0.2-0.4,0.2-0.7,0.2c-0.1,0-0.2,0-0.2-0.1c-0.1-0.1-0.1-0.1-0.1-0.2c0-0.6,0.1-1.2,0.1-1.7c0-0.6,0.1-1.3,0.1-2.2v-4.2
			c0-1,0-1.9-0.1-2.6v-0.1c0-0.1,0.1-0.2,0.2-0.2c0.1,0,0.1,0,0.1,0l0.7,0.3c0.1,0,0.2,0.1,0.4,0.1h0.9c0.2,0,0.3-0.1,0.3-0.3
			c0.2-0.7,0.3-1.5,0.3-2.3c0-0.1,0-0.2,0.1-0.2s0.1-0.1,0.2,0l1.1,0.3c0.1,0,0.1,0.1,0.2,0.1c0,0,0.1,0.1,0.1,0.1
			c0,0,0,0.1-0.1,0.1l-0.1,0c0,0-0.1,0-0.2,0.1s-0.1,0.1-0.2,0.2c-0.2,0.4-0.5,0.9-0.9,1.5c0,0-0.1,0.1-0.1,0.2
			c0,0.1,0.1,0.2,0.3,0.2h2.7C666.9,507.8,667,507.7,667.1,507.6z M666.9,512c0.1-0.1,0.1-0.1,0.1-0.2v-3.3c0-0.1,0-0.2-0.1-0.2
			c-0.1-0.1-0.1-0.1-0.2-0.1h-4.8c-0.1,0-0.2,0-0.2,0.1c-0.1,0.1-0.1,0.1-0.1,0.2v3.3c0,0.1,0,0.2,0.1,0.2c0.1,0.1,0.1,0.1,0.2,0.1
			h4.8C666.8,512.1,666.9,512.1,666.9,512z M661.7,512.6c-0.1,0.1-0.1,0.1-0.1,0.2v3.7c0,0.1,0,0.2,0.1,0.2c0.1,0.1,0.1,0.1,0.2,0.1
			h4.8c0.1,0,0.2,0,0.2-0.1c0.1-0.1,0.1-0.1,0.1-0.2v-3.7c0-0.1,0-0.2-0.1-0.2c-0.1-0.1-0.1-0.1-0.2-0.1h-4.8
			C661.8,512.5,661.7,512.6,661.7,512.6z"/>
		<path class="st2" d="M676.1,517.3c0,0.2-0.2,0.3-0.3,0.3h-4.9c-0.2,0-0.3-0.1-0.3-0.2c0-0.1,0-0.1,0-0.2c0-0.1,0-0.1,0-0.2
			c0.3-0.7,0.6-1.4,1.1-2c0.4-0.6,1-1.3,1.6-2.1c0.7-0.9,1.3-1.6,1.6-2.1c0.3-0.6,0.5-1.1,0.5-1.7c0-0.5-0.1-1-0.4-1.4
			c-0.3-0.4-0.8-0.6-1.4-0.6c-0.5,0-0.9,0.1-1.2,0.4c-0.3,0.2-0.5,0.5-0.5,0.9c0,0.1,0,0.2,0.1,0.3c0,0.1,0.1,0.2,0.2,0.3
			c0.1,0.1,0.1,0.2,0.2,0.3s0.1,0.2,0.1,0.3c0,0.2-0.1,0.4-0.2,0.6c-0.1,0.1-0.3,0.2-0.6,0.2c-0.2,0-0.4-0.1-0.5-0.3
			c-0.2-0.2-0.2-0.5-0.2-0.8c0-0.4,0.1-0.8,0.3-1.2s0.6-0.8,1-1s1-0.4,1.7-0.4c0.7,0,1.3,0.1,1.7,0.4c0.4,0.3,0.8,0.6,0.9,1.1
			s0.3,0.9,0.3,1.3c0,0.4-0.1,0.8-0.2,1.1s-0.3,0.6-0.6,0.9c-0.2,0.3-0.6,0.6-1.1,1.1c-0.1,0.1-0.2,0.2-0.4,0.4
			c-0.2,0.2-0.4,0.3-0.6,0.6c-0.9,0.9-1.6,1.8-2.1,2.8c0,0.1,0,0.1,0,0.2c0,0.1,0.1,0.2,0.3,0.2h1.4c0.7,0,1.3,0,1.6-0.1
			s0.6-0.2,0.8-0.5s0.4-0.6,0.5-1.1c0-0.1,0.1-0.1,0.1-0.1c0,0,0.1,0,0.1,0c0.1,0,0.1,0,0.1,0.1c0,0,0,0,0,0.1l0,0.1L676.1,517.3z"
			/>
		<path class="st2" d="M687.6,509.2l0.1-0.1c0,0,0.1-0.1,0.1-0.1c0-0.1,0.1-0.1,0.1-0.1c0,0,0.1,0,0.1,0c0.1,0,0.2,0.1,0.4,0.3
			s0.4,0.3,0.5,0.5c0,0,0.1,0.1,0.1,0.2c0,0.1,0,0.1-0.1,0.2l-0.1,0c-0.2,0.1-0.3,0.2-0.3,0.3v1c0,1,0,1.7,0.1,2.3v0.1
			c0,0.1,0,0.2-0.1,0.3c-0.1,0.1-0.2,0.1-0.4,0.2c-0.1,0.1-0.3,0.1-0.4,0.1c0,0-0.1,0-0.1-0.1c0,0,0-0.1,0-0.2s0-0.1-0.1-0.2
			c-0.1,0-0.1-0.1-0.2-0.1h-1.9c-0.1,0-0.1,0-0.2,0.1c-0.1,0-0.1,0.1-0.1,0.2c0,0,0,0.1,0,0.2c0.4,0.6,0.8,1.1,1.4,1.5
			c0.1,0.1,0.2,0.1,0.2,0.1c0,0,0.1,0,0.1,0c0.4-0.3,0.8-0.6,1.1-0.9c0.4-0.3,0.7-0.7,0.9-1c0.1-0.1,0.1-0.2,0.2-0.2
			c0.1,0,0.1,0,0.2,0.1c0.6,0.5,0.9,0.7,0.9,0.8c0,0-0.1,0.1-0.1,0.1h0c-0.1,0-0.3,0-0.4,0.1c-0.6,0.3-1.3,0.7-2.2,1
			c-0.1,0.1-0.2,0.1-0.2,0.2c0,0.1,0.1,0.2,0.2,0.2c1,0.6,2.2,1,3.7,1.3c0.2,0.1,0.3,0.1,0.3,0.2c0,0,0,0.1-0.1,0.1
			c-0.1,0-0.1,0-0.1,0.1c-0.2,0.1-0.4,0.3-0.5,0.5c-0.1,0.2-0.2,0.2-0.4,0.2c-1.4-0.4-2.5-1-3.4-1.7c-0.9-0.8-1.6-1.7-2.1-2.9
			c-0.1-0.2-0.2-0.2-0.4-0.2h-1.8c-0.1,0-0.2,0-0.2,0.1c-0.1,0.1-0.1,0.1-0.1,0.2v2.6c0,0.1,0,0.2,0.1,0.2c0.1,0.1,0.1,0.1,0.3,0
			l3-0.5c0,0,0.1,0,0.2,0c0.1,0,0.1,0,0.2,0.1v0c0,0.1-0.1,0.1-0.3,0.2c-2.1,0.7-3.9,1.2-5.4,1.6c-0.1,0-0.2,0.1-0.3,0.1
			c0,0,0,0,0,0.1c0,0.1-0.1,0.1-0.2,0.1c-0.1,0-0.2-0.1-0.3-0.2l-0.3-0.6c0-0.1,0-0.1,0-0.2c0-0.1,0.1-0.2,0.2-0.2
			c0.6-0.1,1.1-0.2,1.6-0.2c0.2,0,0.3-0.1,0.3-0.3v-7.4c0-0.2-0.1-0.3-0.2-0.3c-0.1,0-0.1,0-0.2,0.1c-0.8,0.5-1.5,0.8-2.2,1.1
			c-0.2,0.1-0.3,0.1-0.3,0v0c0-0.1,0.1-0.1,0.2-0.2c0.7-0.4,1.4-0.9,2.1-1.4s1.4-1.1,2-1.7c0.7-0.7,1.1-1.3,1.4-2
			c0.1-0.1,0.1-0.2,0.3-0.2c0,0,0.1,0,0.1,0l1.2,0.3c0.1,0,0.1,0.1,0.2,0.1c0,0,0.1,0.1,0.1,0.1c0,0.1,0,0.1-0.1,0.1
			c-0.1,0.1-0.1,0.1-0.1,0.2c0,0.1,0,0.1,0.1,0.2c0.6,0.6,1.4,1.1,2.4,1.7s2,1,3.1,1.3c0.1,0,0.2,0.1,0.2,0.1c0,0,0.1,0.1,0.1,0.1
			s0,0.1-0.1,0.1c-0.1,0-0.1,0.1-0.2,0.1c-0.2,0.1-0.4,0.3-0.5,0.4c-0.1,0.1-0.2,0.2-0.3,0.2c0,0-0.1,0-0.2,0c-1-0.5-2-1-2.8-1.7
			c-0.9-0.7-1.6-1.4-2.1-2.1c-0.1-0.1-0.1-0.2-0.2-0.2s-0.1,0-0.2,0.1c-0.8,0.9-1.9,1.8-3.3,2.7c-0.1,0.1-0.2,0.1-0.2,0.2
			c0,0.1,0.1,0.2,0.2,0.2l0.3,0.2c0.1,0.1,0.2,0.1,0.4,0.1h1.6c0.2,0,0.3-0.1,0.3-0.3c0-0.6,0-1-0.1-1.2v-0.1c0-0.2,0.1-0.2,0.2-0.2
			c0,0,0.1,0,0.1,0c0.4,0.1,0.6,0.2,0.8,0.3c0.1,0.1,0.2,0.1,0.2,0.2c0,0,0,0.1-0.1,0.1l0,0c-0.1,0.1-0.2,0.2-0.2,0.4v0.4
			c0,0.1,0,0.2,0.1,0.2c0.1,0.1,0.1,0.1,0.2,0.1h1.6C687.4,509.4,687.5,509.3,687.6,509.2z M687.5,511.2c0.1-0.1,0.1-0.1,0.1-0.2
			v-0.9c0-0.1,0-0.2-0.1-0.2c-0.1-0.1-0.1-0.1-0.2-0.1h-4.8c-0.1,0-0.2,0-0.2,0.1c-0.1,0.1-0.1,0.1-0.1,0.2v0.9c0,0.1,0,0.2,0.1,0.2
			c0.1,0.1,0.1,0.1,0.2,0.1h4.8C687.4,511.3,687.5,511.3,687.5,511.2z M682.3,511.8c-0.1,0.1-0.1,0.1-0.1,0.2v0.9
			c0,0.1,0,0.2,0.1,0.2c0.1,0.1,0.1,0.1,0.2,0.1h4.8c0.1,0,0.2,0,0.2-0.1c0.1-0.1,0.1-0.1,0.1-0.2v-0.9c0-0.1,0-0.2-0.1-0.2
			c-0.1-0.1-0.1-0.1-0.2-0.1h-4.8C682.4,511.7,682.3,511.8,682.3,511.8z"/>
	</g>
	<g class="st1">
		<path class="st2" d="M741.3,448.6l0.1-0.2c0,0,0.1-0.1,0.1-0.2c0-0.1,0.1-0.1,0.1-0.2c0,0,0.1-0.1,0.1-0.1c0.1,0,0.2,0.1,0.5,0.3
			c0.3,0.2,0.4,0.4,0.6,0.6c0,0,0.1,0.1,0.1,0.2c0,0.1,0,0.2-0.1,0.2c-0.1,0-0.1,0.1-0.2,0.1c-0.2,0.1-0.3,0.2-0.3,0.3v3.5
			c0,0.2,0.1,0.3,0.1,0.4c0.3,0.3,0.7,0.6,1.1,0.8c0.4,0.2,0.8,0.3,1.4,0.4c0.5,0.1,1.2,0.1,2.1,0.1c2.5,0,4.3,0,5.5,0h0.1
			c0.1,0,0.1,0,0.2,0c0,0,0.1,0,0.1,0.1c0,0,0,0.1-0.1,0.1c-0.1,0-0.1,0.1-0.2,0.1c-0.2,0.1-0.3,0.2-0.4,0.4
			c-0.1,0.2-0.2,0.3-0.3,0.3h-4.8c-0.9,0-1.6,0-2.1-0.1c-0.6-0.1-1-0.3-1.4-0.5c-0.4-0.2-0.8-0.6-1.1-1.1c-0.1-0.1-0.1-0.1-0.2-0.1
			c-0.1,0-0.1,0-0.2,0.1c-0.4,0.5-0.9,1.1-1.5,1.6c-0.1,0.1-0.2,0.2-0.2,0.2v0.1l-0.1,0c-0.1,0-0.2-0.1-0.3-0.2l-0.3-0.5
			c0-0.1-0.1-0.1-0.1-0.2c0-0.1,0.1-0.2,0.2-0.3c0.4-0.2,0.9-0.5,1.5-0.9c0.1-0.1,0.2-0.2,0.2-0.4v-3.9c0-0.1,0-0.2-0.1-0.2
			c-0.1-0.1-0.1-0.1-0.2-0.1h-0.3c-0.2,0-0.5,0.1-0.8,0.1c0,0-0.1,0-0.1,0c-0.1,0-0.2-0.1-0.3-0.2l0-0.1c0-0.1,0-0.1,0-0.2
			c0-0.1,0-0.1,0.1-0.2c0.1,0,0.1,0,0.2,0c0.2,0,0.4,0,0.8,0.1h0.3C741.1,448.9,741.2,448.8,741.3,448.6z M740.1,443
			C740.1,442.9,740.1,442.9,740.1,443c0.1,0,0.2,0,0.3,0c0.8,0.3,1.4,0.7,1.7,1.1s0.5,0.8,0.5,1.2c0,0.2,0,0.3-0.1,0.5
			c-0.1,0.1-0.2,0.2-0.4,0.2c-0.1,0-0.1,0-0.2,0c-0.1,0-0.2-0.1-0.2-0.3c-0.1-0.4-0.3-0.8-0.6-1.2s-0.6-0.8-0.9-1.1
			C740.1,443.1,740.1,443,740.1,443z M750.7,446l0.1-0.1c0,0,0.1-0.1,0.1-0.2c0-0.1,0.1-0.1,0.1-0.2c0,0,0.1-0.1,0.1-0.1
			c0.1,0,0.2,0.1,0.5,0.3c0.2,0.2,0.4,0.4,0.5,0.5c0,0,0.1,0.1,0.1,0.2c0,0.1,0,0.1-0.1,0.2c0,0-0.1,0-0.1,0c0,0-0.1,0-0.1,0
			c-0.2,0.1-0.3,0.2-0.3,0.4v5.7c0,0.4-0.1,0.7-0.2,0.9s-0.4,0.3-0.8,0.4h-0.1c-0.1,0-0.2-0.1-0.3-0.3c0,0,0-0.1-0.1-0.2
			c0-0.1-0.1-0.2-0.3-0.3c-0.1-0.1-0.3-0.1-0.5-0.2c-0.2,0-0.3-0.1-0.3-0.2c0-0.1,0.1-0.1,0.3-0.1c0.4,0,0.8,0.1,1,0.1
			c0.1,0,0.2,0,0.2-0.1s0.1-0.1,0.1-0.2v-1.3c0-0.1,0-0.2-0.1-0.2c-0.1-0.1-0.1-0.1-0.2-0.1h-1.9c-0.1,0-0.2,0-0.2,0.1
			c-0.1,0.1-0.1,0.1-0.1,0.2v0.6l0,0.7c0,0.2,0,0.5,0,0.8v0.1c0,0.1,0,0.2-0.1,0.3c-0.2,0.1-0.4,0.2-0.7,0.2c-0.1,0-0.1,0-0.2-0.1
			c0-0.1-0.1-0.1-0.1-0.2c0-0.4,0.1-1,0.1-1.6v-0.7c0-0.1,0-0.2-0.1-0.2c-0.1-0.1-0.1-0.1-0.2-0.1h-1.8c-0.1,0-0.2,0-0.2,0.1
			c-0.1,0.1-0.1,0.1-0.1,0.2v0.6l0,0.7c0,0.2,0,0.5,0,0.8v0.1c0,0.1,0,0.2-0.1,0.3c-0.1,0.1-0.2,0.1-0.3,0.2s-0.3,0.1-0.4,0.1
			c-0.1,0-0.1,0-0.2-0.1c-0.1-0.1-0.1-0.1-0.1-0.2c0.1-1,0.1-2.1,0.1-3.3v-1.8c0-1,0-1.8-0.1-2.6v-0.1c0-0.1,0-0.1,0.1-0.2
			c0,0,0.1-0.1,0.1-0.1c0,0,0.1,0,0.2,0l0.6,0.3c0.1,0.1,0.2,0.1,0.4,0.1h2.6l0.5,0l0,0c-0.2-0.3-0.6-0.6-1-0.8
			c-0.4-0.3-0.9-0.5-1.5-0.8c-0.2-0.1-0.2-0.2-0.2-0.2c0-0.1,0.1-0.1,0.3-0.1c0.9,0.1,1.6,0.3,2.2,0.6c0.1,0,0.1,0,0.2,0
			c0.1,0,0.1,0,0.2-0.1c0.3-0.2,0.6-0.5,1.1-0.8c0.1-0.1,0.1-0.1,0.1-0.2c0,0,0-0.1-0.1-0.1c-0.1,0-0.1-0.1-0.2-0.1h-3
			c-0.6,0-1.3,0.1-2,0.2h-0.1c-0.1,0-0.2-0.1-0.3-0.2l-0.1-0.1c0-0.1-0.1-0.2-0.1-0.2c0-0.1,0-0.1,0.1-0.1c0,0,0.1,0,0.2,0
			c0.3,0,0.9,0.1,1.5,0.1h4.3c0.1,0,0.3-0.1,0.4-0.2l0.1-0.1c0,0,0.1-0.1,0.2-0.2s0.2-0.1,0.2-0.1c0.1,0,0.2,0.1,0.4,0.3
			c0.2,0.2,0.4,0.4,0.5,0.5c0,0.1,0.1,0.1,0.1,0.2c0,0.1-0.1,0.2-0.2,0.2l-0.2,0c-0.1,0-0.3,0.1-0.4,0.1c-0.5,0.3-1.3,0.7-2.3,1.1
			c-0.1,0-0.2,0.1-0.2,0.2c0,0.1,0,0.1,0.1,0.2c0.2,0.2,0.3,0.4,0.3,0.6c0.1,0.2,0.1,0.3,0.3,0.3h1
			C750.5,446.2,750.6,446.2,750.7,446z M747.2,448.3c0.1-0.1,0.1-0.1,0.1-0.2V447c0-0.1,0-0.2-0.1-0.2c-0.1-0.1-0.1-0.1-0.2-0.1
			h-1.8c-0.1,0-0.2,0-0.2,0.1c-0.1,0.1-0.1,0.1-0.1,0.2v1.1c0,0.1,0,0.2,0.1,0.2c0.1,0.1,0.1,0.1,0.2,0.1h1.8
			C747.1,448.4,747.2,448.4,747.2,448.3z M744.9,448.9c-0.1,0.1-0.1,0.1-0.1,0.2v1.2c0,0.1,0,0.2,0.1,0.2c0.1,0.1,0.1,0.1,0.2,0.1
			h1.8c0.1,0,0.2,0,0.2-0.1c0.1-0.1,0.1-0.1,0.1-0.2v-1.2c0-0.1,0-0.2-0.1-0.2c-0.1-0.1-0.1-0.1-0.2-0.1h-1.8
			C745,448.9,745,448.9,744.9,448.9z M750.7,448.3c0.1-0.1,0.1-0.1,0.1-0.2V447c0-0.1,0-0.2-0.1-0.2c-0.1-0.1-0.1-0.1-0.2-0.1h-1.9
			c-0.1,0-0.2,0-0.2,0.1c-0.1,0.1-0.1,0.1-0.1,0.2v1.1c0,0.1,0,0.2,0.1,0.2c0.1,0.1,0.1,0.1,0.2,0.1h1.9
			C750.5,448.4,750.6,448.4,750.7,448.3z M748.3,448.9c-0.1,0.1-0.1,0.1-0.1,0.2v1.2c0,0.1,0,0.2,0.1,0.2c0.1,0.1,0.1,0.1,0.2,0.1
			h1.9c0.1,0,0.2,0,0.2-0.1c0.1-0.1,0.1-0.1,0.1-0.2v-1.2c0-0.1,0-0.2-0.1-0.2c-0.1-0.1-0.1-0.1-0.2-0.1h-1.9
			C748.4,448.9,748.3,448.9,748.3,448.9z"/>
		<path class="st2" d="M766.1,445l0.1-0.2c0,0,0.1-0.1,0.1-0.1c0.1-0.1,0.1-0.1,0.1-0.1s0.1,0,0.1,0c0.1,0,0.2,0.1,0.4,0.3
			s0.4,0.4,0.5,0.6c0,0.1,0,0.1,0,0.2c0,0.1-0.1,0.2-0.2,0.2l-0.1,0c-0.2,0-0.3,0.1-0.4,0.2c-0.3,0.4-0.7,0.8-1.2,1.2
			c-0.1,0.1-0.2,0.1-0.3,0.1c-0.1,0-0.1,0-0.1-0.1c0,0,0-0.1,0.1-0.2l0.4-0.9c0-0.1,0-0.1,0-0.1c0-0.1,0-0.1-0.1-0.2
			c-0.1,0-0.1-0.1-0.2-0.1h-8.7c-0.2,0-0.3,0.1-0.3,0.3c0,0.4-0.1,0.7-0.3,1s-0.3,0.5-0.5,0.7c-0.2,0.1-0.4,0.2-0.6,0.2
			s-0.4-0.1-0.4-0.3c0-0.1,0-0.2,0-0.2c0-0.1,0-0.2,0.1-0.3c0.1-0.1,0.2-0.2,0.3-0.3c0.3-0.2,0.5-0.4,0.7-0.8s0.3-0.8,0.4-1.2
			c0-0.2,0.1-0.3,0.1-0.3c0.1,0,0.2,0.1,0.2,0.3l0,0.2c0,0.2,0.1,0.3,0.3,0.3h3.4c0.2,0,0.3-0.1,0.3-0.3c0-0.7-0.1-1.4-0.1-2.1v-0.1
			c0-0.1,0-0.1,0.1-0.2s0.1-0.1,0.2-0.1c0,0,0.1,0,0.1,0c0.7,0.2,1.1,0.4,1.1,0.5c0,0,0,0.1-0.1,0.2l0,0c-0.1,0.1-0.2,0.2-0.2,0.4
			v1.3c0,0.1,0,0.2,0.1,0.2c0.1,0.1,0.1,0.1,0.2,0.1h0.6c0.2,0,0.3-0.1,0.4-0.2c0.5-0.8,0.8-1.6,1-2.2c0-0.1,0.1-0.2,0.2-0.2
			c0.1,0,0.1,0,0.2,0c0.8,0.3,1.1,0.5,1.1,0.7c0,0-0.1,0.1-0.1,0.1l-0.1,0c-0.1,0-0.3,0.1-0.3,0.2c-0.4,0.4-0.8,0.8-1.3,1.3
			c-0.1,0.1-0.1,0.2-0.1,0.2c0,0.1,0.1,0.2,0.3,0.2h2C765.8,445.2,766,445.2,766.1,445z M763.7,446.8l0.1-0.1c0,0,0.1-0.1,0.1-0.1
			c0-0.1,0.1-0.1,0.1-0.1c0,0,0.1,0,0.1,0c0.1,0,0.2,0.1,0.4,0.3c0.2,0.2,0.4,0.3,0.5,0.5c0,0.1,0.1,0.1,0.1,0.1
			c0,0.1-0.1,0.1-0.2,0.2l-0.1,0c-0.2,0.1-0.3,0.2-0.3,0.3v0.6l0,0.6c0,0.2,0,0.4,0,0.7v0.1c0,0.1-0.1,0.2-0.1,0.3
			c-0.1,0.1-0.2,0.1-0.4,0.2c-0.1,0-0.3,0.1-0.3,0.1c0,0-0.1,0-0.1-0.1s0-0.1,0-0.2s0-0.2-0.1-0.2c-0.1,0-0.1-0.1-0.2-0.1h-1.6
			c-0.1,0-0.2,0-0.2,0.1c-0.1,0.1-0.1,0.1-0.1,0.2v0.9c0,0.1,0,0.2,0.1,0.2c0.1,0.1,0.1,0.1,0.2,0.1h2.6c0.2,0,0.3-0.1,0.4-0.2
			l0.1-0.1c0,0,0.1-0.1,0.1-0.1c0-0.1,0.1-0.1,0.1-0.1c0,0,0.1,0,0.1,0c0.1,0,0.2,0.1,0.5,0.2s0.4,0.3,0.6,0.5
			c0.1,0.1,0.1,0.1,0.1,0.2c0,0.1-0.1,0.1-0.1,0.2c0,0,0,0-0.1,0c0,0-0.1,0-0.1,0c-0.2,0.1-0.3,0.2-0.3,0.4v1.9
			c0,0.4-0.1,0.7-0.2,0.9c-0.2,0.2-0.5,0.4-1,0.4l-0.1,0c-0.1,0-0.2-0.1-0.3-0.3c-0.1-0.2-0.1-0.3-0.2-0.4c-0.2-0.2-0.5-0.3-0.9-0.3
			c-0.2,0-0.3-0.1-0.3-0.2c0,0,0.1-0.1,0.2-0.1c0.2,0,0.3,0,0.5,0s0.3,0,0.4,0l0.6,0c0.1,0,0.2,0,0.3-0.1c0,0,0.1-0.1,0.1-0.2v-2
			c0-0.1,0-0.2-0.1-0.2c-0.1-0.1-0.1-0.1-0.2-0.1h-2.7c-0.1,0-0.2,0-0.2,0.1c-0.1,0.1-0.1,0.1-0.1,0.2v1c0,1,0.1,1.8,0.1,2.4v0.1
			c0,0.1,0,0.2-0.1,0.3c-0.2,0.2-0.5,0.3-0.8,0.3c-0.1,0-0.1,0-0.2-0.1c-0.1-0.1-0.1-0.1-0.1-0.2c0.1-0.9,0.1-1.8,0.1-2.6v-1.2
			c0-0.1,0-0.2-0.1-0.2c-0.1-0.1-0.1-0.1-0.2-0.1h-2.6c-0.1,0-0.2,0-0.2,0.1c-0.1,0.1-0.1,0.1-0.1,0.2v0.9c0,0.9,0.1,1.6,0.1,2v0.1
			c0,0.1,0,0.2-0.1,0.3c-0.2,0.2-0.4,0.2-0.7,0.2c-0.1,0-0.1,0-0.2-0.1c0-0.1-0.1-0.1-0.1-0.2c0-0.3,0.1-0.8,0.1-1.3v-0.8
			c0-0.7,0-1.4-0.1-2v-0.1c0-0.2,0.1-0.2,0.2-0.2c0,0,0.1,0,0.2,0l0.6,0.3c0.1,0.1,0.3,0.1,0.4,0.1h2.6c0.1,0,0.2,0,0.2-0.1
			c0.1-0.1,0.1-0.1,0.1-0.2v-0.9c0-0.1,0-0.2-0.1-0.2c-0.1-0.1-0.1-0.1-0.2-0.1h-1.5c-0.1,0-0.2,0-0.2,0.1c-0.1,0.1-0.1,0.1-0.1,0.2
			v0.1c0,0-0.1,0.1-0.3,0.2c-0.2,0.1-0.3,0.1-0.5,0.1c-0.1,0-0.1,0-0.2-0.1c0-0.1-0.1-0.1-0.1-0.2c0-0.2,0.1-0.5,0.1-0.7
			c0-0.1,0-0.2,0-0.3v-0.7c0-0.6,0-1.2-0.1-1.6v-0.1c0-0.2,0.1-0.2,0.2-0.2c0,0,0.1,0,0.2,0l0.5,0.3c0.1,0.1,0.2,0.1,0.4,0.1h4.6
			C763.5,447,763.6,446.9,763.7,446.8z M757,442.7c0,0,0.1,0,0.1,0c0,0,0.1,0,0.2,0c0.6,0.2,1.1,0.5,1.3,0.8
			c0.3,0.3,0.4,0.6,0.4,0.9c0,0.2,0,0.3-0.1,0.5c-0.1,0.1-0.2,0.2-0.4,0.2c0,0-0.1,0-0.2,0c-0.1,0-0.2-0.2-0.2-0.3
			c-0.1-0.3-0.2-0.6-0.4-0.9c-0.2-0.3-0.4-0.6-0.6-0.8C757,442.8,756.9,442.7,757,442.7z M763.6,447.5c-0.1-0.1-0.1-0.1-0.2-0.1
			h-4.6c-0.1,0-0.2,0-0.2,0.1c-0.1,0.1-0.1,0.1-0.1,0.2v1.3c0,0.1,0,0.2,0.1,0.2c0.1,0.1,0.1,0.1,0.2,0.1h4.6c0.1,0,0.2,0,0.2-0.1
			c0.1-0.1,0.1-0.1,0.1-0.2v-1.3C763.7,447.6,763.7,447.6,763.6,447.5z"/>
	</g>
	<g class="st1">
		<path class="st2" d="M817,446c-0.2-0.4-0.6-0.8-1-1.2c-0.2-0.1-0.2-0.2-0.2-0.3c0,0,0.1,0,0.1,0c0.1,0,0.1,0,0.1,0
			c0.6,0.1,1.1,0.3,1.4,0.5s0.4,0.5,0.4,0.8c0,0.1,0,0.3-0.1,0.4c-0.1,0.1-0.2,0.2-0.3,0.2c-0.1,0-0.1,0-0.2,0
			C817.1,446.2,817,446.1,817,446z M828.3,452c0.3,0.2,0.5,0.4,0.6,0.6c0,0.1,0.1,0.1,0.1,0.2c0,0.1,0,0.1-0.1,0.2
			c-0.1,0-0.2,0.1-0.3,0.1h-5.4c-0.1,0-0.2,0-0.2,0.1c-0.1,0.1-0.1,0.1-0.1,0.2v0.7l0,0.8c0,0.2,0,0.5,0,0.9v0.1
			c0,0.1,0,0.2-0.1,0.3c-0.1,0.1-0.2,0.1-0.3,0.2s-0.3,0.1-0.4,0.1c-0.1,0-0.2,0-0.2-0.1c-0.1-0.1-0.1-0.1-0.1-0.2
			c0-0.5,0.1-1.1,0.1-1.8v-0.8c0-0.1,0-0.2-0.1-0.2c-0.1-0.1-0.1-0.1-0.2-0.1h-3.2c-0.6,0-1.3,0.1-2,0.2h-0.1
			c-0.1,0-0.2-0.1-0.3-0.2l-0.1-0.1c0-0.1,0-0.1,0-0.2c0-0.1,0-0.1,0.1-0.1c0,0,0.1,0,0.2,0c0.3,0,0.9,0.1,1.5,0.1h3.9
			c0.2,0,0.3-0.1,0.3-0.3l0-0.9c0-0.1-0.1-0.2-0.2-0.2c-0.1,0-0.1,0-0.2,0c-0.1,0.1-0.3,0.1-0.4,0.1c-0.1,0-0.1,0-0.2-0.1
			c-0.1-0.1-0.1-0.1-0.1-0.2c0.1-1,0.1-2,0.1-3.2v-1.2c0-0.2-0.1-0.3-0.2-0.3c-0.1,0-0.1,0-0.2,0.1c-0.4,0.4-0.8,0.8-1.1,1
			c-0.2,0.1-0.3,0.1-0.3,0.1c0,0,0,0,0-0.1c0-0.1,0-0.2,0.1-0.3c0.5-0.5,0.9-1.1,1.3-1.8c0.2-0.4,0.4-0.8,0.6-1.3
			c0.2-0.5,0.4-1,0.5-1.4c0-0.2,0.1-0.2,0.2-0.2c0,0,0.1,0,0.2,0c0.7,0.3,1.1,0.5,1.1,0.6c0,0,0,0.1-0.1,0.1l0,0
			c-0.2,0.1-0.3,0.2-0.3,0.3c0,0.1-0.1,0.2-0.1,0.3c0,0.1-0.1,0.2-0.2,0.3c0,0.1-0.1,0.1-0.1,0.2c0,0.1,0,0.1,0.1,0.1
			s0.1,0.1,0.2,0.1h1.3c0.2,0,0.3-0.1,0.4-0.3c0.2-0.5,0.3-1,0.3-1.4c0-0.2,0.1-0.3,0.3-0.3c0,0,0.1,0,0.1,0
			c0.7,0.2,1.1,0.3,1.1,0.5c0,0,0,0.1-0.1,0.1l-0.1,0c-0.1,0.1-0.2,0.1-0.3,0.3c-0.2,0.3-0.4,0.5-0.6,0.7c-0.1,0.1-0.1,0.2-0.1,0.2
			s0,0.1,0.1,0.1c0,0,0.1,0.1,0.2,0.1h1.5c0.2,0,0.3-0.1,0.4-0.2l0.2-0.2c0,0,0.1-0.1,0.1-0.2s0.1-0.1,0.1-0.2c0,0,0.1-0.1,0.1-0.1
			c0.1,0,0.3,0.1,0.5,0.3c0.3,0.2,0.5,0.4,0.6,0.6c0,0,0.1,0.1,0.1,0.2c0,0.1,0,0.1-0.1,0.2c-0.1,0-0.2,0.1-0.3,0.1h-3
			c-0.1,0-0.2,0-0.2,0.1c-0.1,0.1-0.1,0.1-0.1,0.2v0.7c0,0.1,0,0.2,0.1,0.2s0.1,0.1,0.2,0.1h0.9c0.2,0,0.3-0.1,0.4-0.2l0.1-0.2
			c0,0,0.1-0.1,0.1-0.2c0.1-0.1,0.1-0.1,0.1-0.2c0,0,0.1-0.1,0.1-0.1c0.1,0,0.2,0.1,0.5,0.3c0.2,0.2,0.4,0.4,0.5,0.5
			c0,0,0.1,0.1,0.1,0.2c0,0.1,0,0.1-0.1,0.2c-0.1,0.1-0.2,0.1-0.3,0.1h-2.5c-0.1,0-0.2,0-0.2,0.1c-0.1,0.1-0.1,0.1-0.1,0.2v0.8
			c0,0.1,0,0.2,0.1,0.2c0.1,0.1,0.1,0.1,0.2,0.1h0.9c0.2,0,0.3-0.1,0.4-0.2l0.1-0.2c0,0,0.1-0.1,0.1-0.2c0.1-0.1,0.1-0.1,0.1-0.2
			s0.1-0.1,0.1-0.1c0.1,0,0.2,0.1,0.5,0.3c0.2,0.2,0.4,0.4,0.5,0.5c0,0.1,0.1,0.1,0.1,0.2c0,0.1,0,0.1-0.1,0.2
			c-0.1,0-0.2,0.1-0.3,0.1h-2.5c-0.1,0-0.2,0-0.2,0.1c-0.1,0.1-0.1,0.1-0.1,0.2v0.8c0,0.1,0,0.2,0.1,0.2c0.1,0.1,0.1,0.1,0.2,0.1
			h1.6c0.2,0,0.3-0.1,0.4-0.2l0.2-0.2c0,0,0.1-0.1,0.1-0.2c0-0.1,0.1-0.1,0.1-0.2c0.1,0,0.1-0.1,0.1-0.1c0.1,0,0.2,0.1,0.5,0.3
			c0.3,0.2,0.5,0.4,0.6,0.6c0,0.1,0.1,0.1,0.1,0.2c0,0.1,0,0.1-0.1,0.2c-0.1,0-0.2,0.1-0.3,0.1h-6.5c-0.1,0-0.2,0-0.2,0.1
			s-0.1,0.1-0.1,0.2c0,0.2,0.1,0.3,0.3,0.3c0.7,0.2,1,0.4,1,0.5c0,0,0,0.1-0.1,0.1c-0.1,0.1-0.2,0.2-0.2,0.4v0.2
			c0,0.1,0,0.2,0.1,0.2s0.1,0.1,0.2,0.1h3.5c0.2,0,0.3-0.1,0.4-0.2l0.2-0.3c0,0,0.1-0.1,0.2-0.2c0.1-0.1,0.1-0.2,0.2-0.2
			s0.1-0.1,0.1-0.1C827.8,451.6,828,451.8,828.3,452z M816.4,448.3h0.4c0.1,0,0.2,0,0.2,0c0,0,0.1-0.1,0.2-0.2
			c0.1-0.1,0.2-0.3,0.4-0.5c0.1-0.2,0.4-0.5,0.6-0.9s0.5-0.7,0.8-1.1l1-1.4c0.1-0.1,0.2-0.2,0.3-0.2c0.1,0,0.1,0,0.1,0.1
			c0,0.1,0,0.1-0.1,0.3c-0.1,0.2-0.2,0.3-0.3,0.5c-0.1,0.2-0.2,0.4-0.3,0.6c-0.9,1.4-1.4,2.3-1.5,2.5c-0.2,0.4-0.3,0.7-0.3,1
			c0,0.1,0,0.2,0.1,0.3c0,0.1,0.1,0.2,0.1,0.2c0,0.2,0.1,0.3,0.1,0.5c0,0.2,0.1,0.4,0.1,0.6c0,0.6-0.2,1-0.7,1
			c-0.2,0-0.3-0.1-0.4-0.4c0-0.1,0-0.2,0-0.4c0-0.3,0-0.6,0-0.8c0-0.6-0.1-0.9-0.3-1c-0.1-0.1-0.3-0.1-0.4-0.1
			c-0.2,0-0.3-0.1-0.3-0.2C816.1,448.4,816.2,448.3,816.4,448.3z M818.2,444.2c-0.1-0.2-0.2-0.4-0.4-0.7c-0.2-0.2-0.4-0.4-0.6-0.6
			c-0.2-0.2-0.2-0.2-0.2-0.3c0,0,0.1,0,0.1,0c0.1,0,0.1,0,0.2,0c0.6,0.1,1,0.3,1.3,0.6c0.3,0.3,0.4,0.5,0.4,0.8c0,0.2,0,0.3-0.1,0.4
			c-0.1,0.1-0.2,0.1-0.3,0.1c0,0-0.1,0-0.2,0C818.3,444.4,818.2,444.4,818.2,444.2z M824,445c-0.1-0.1-0.1-0.1-0.2-0.1h-1.6
			c-0.1,0-0.2,0-0.2,0.1c-0.1,0.1-0.1,0.1-0.1,0.2v0.7c0,0.1,0,0.2,0.1,0.2s0.1,0.1,0.2,0.1h1.6c0.1,0,0.2,0,0.2-0.1
			s0.1-0.1,0.1-0.2v-0.7C824.1,445.1,824,445,824,445z M824,446.8c-0.1-0.1-0.1-0.1-0.2-0.1h-1.6c-0.1,0-0.2,0-0.2,0.1
			c-0.1,0.1-0.1,0.1-0.1,0.2v0.8c0,0.1,0,0.2,0.1,0.2c0.1,0.1,0.1,0.1,0.2,0.1h1.6c0.1,0,0.2,0,0.2-0.1c0.1-0.1,0.1-0.1,0.1-0.2V447
			C824.1,446.9,824,446.8,824,446.8z M824,448.6c-0.1-0.1-0.1-0.1-0.2-0.1h-1.6c-0.1,0-0.2,0-0.2,0.1c-0.1,0.1-0.1,0.1-0.1,0.2v0.8
			c0,0.1,0,0.2,0.1,0.2c0.1,0.1,0.1,0.1,0.2,0.1h1.6c0.1,0,0.2,0,0.2-0.1c0.1-0.1,0.1-0.1,0.1-0.2v-0.8
			C824.1,448.7,824,448.7,824,448.6z"/>
		<path class="st2" d="M832,447.2c0-0.2-0.1-0.3-0.3-0.3h0c-0.1,0-0.2,0-0.3,0.1c-0.1,0-0.1,0-0.2,0c-0.1,0-0.2-0.1-0.2-0.2l0-0.1
			c0-0.1,0-0.1,0-0.2c0-0.1,0.1-0.2,0.2-0.2c0.1,0,0.2,0,0.3,0c0.1,0,0.2,0,0.3,0h0.2c0.2,0,0.3-0.1,0.3-0.3c0.1-0.3,0.1-0.7,0.1-1
			v-0.1c0-0.2-0.1-0.2-0.2-0.2c-0.1,0-0.1,0-0.2,0.1c-0.1,0.1-0.2,0.2-0.5,0.3c-0.1,0.1-0.3,0.1-0.3,0c0,0,0,0,0-0.1
			c0-0.1,0-0.1,0.1-0.2c0.3-0.3,0.5-0.7,0.8-1.1s0.4-0.9,0.5-1.3c0.1-0.1,0.1-0.2,0.2-0.2c0.1,0,0.1,0,0.2,0
			c0.6,0.2,0.9,0.4,0.9,0.5c0,0,0,0.1-0.1,0.1l-0.1,0c-0.1,0-0.2,0.1-0.3,0.3c0,0.1,0,0.2,0.1,0.2c0,0.1,0.1,0.1,0.2,0.1h2.6
			c0.2,0,0.3-0.1,0.4-0.2l0.1-0.2c0,0,0.1-0.1,0.1-0.2c0.1-0.1,0.1-0.1,0.1-0.2s0.1-0.1,0.1-0.1c0.1,0,0.2,0.1,0.4,0.3
			c0.2,0.2,0.4,0.4,0.5,0.5c0,0,0.1,0.1,0.1,0.2c0,0.1,0,0.1-0.1,0.2c-0.1,0-0.2,0.1-0.3,0.1H833c-0.2,0-0.3,0.1-0.4,0.2v0.1
			c0,0.1,0,0.2,0.1,0.3l0.4,0.2c0.1,0.1,0.2,0.1,0.4,0.1h2.4c0.2,0,0.3-0.1,0.4-0.2l0.1-0.1c0,0,0-0.1,0.1-0.1
			c0-0.1,0.1-0.1,0.1-0.1c0,0,0.1,0,0.1,0c0.1,0,0.2,0.1,0.4,0.2c0.2,0.2,0.3,0.3,0.4,0.5c0,0,0.1,0.1,0.1,0.2
			c0,0.1-0.1,0.1-0.2,0.2l-0.1,0c-0.1,0-0.2,0.1-0.2,0.1s-0.1,0.1-0.1,0.2l0,0.4c0,0.2,0.1,0.3,0.2,0.3s0.2-0.1,0.3-0.2l0.1-0.2
			c0.1-0.1,0.1-0.1,0.2-0.1c0.1,0,0.2,0,0.2,0.1c0,0,0.1,0.1,0.4,0.4c0.1,0.1,0.1,0.2,0.1,0.3c0,0.1,0,0.1-0.1,0.1
			c0,0-0.1,0.1-0.2,0.1h-1.1c-0.2,0-0.3,0.1-0.3,0.3c0,0.2,0,0.4-0.1,0.5v0.1c0,0.1,0,0.2,0.1,0.2c0.1,0,0.2-0.1,0.3-0.2l0.1-0.2
			c0.1-0.1,0.1-0.1,0.2-0.1c0.1,0,0.1,0,0.2,0.1l0.4,0.4c0.1,0.1,0.2,0.2,0.2,0.3c0,0,0,0.1-0.1,0.1c-0.1,0-0.1,0-0.2,0h-1
			c-0.2,0-0.3,0.1-0.3,0.3c-0.1,0.2-0.1,0.3-0.1,0.4c0,0.1,0,0.1,0,0.2c0,0.1,0.1,0.2,0.2,0.3c0.4,0.3,0.7,0.5,0.7,0.6
			c0,0,0,0.1-0.1,0.1h0c-0.1,0-0.3,0-0.4,0.1l-1,0.6c-0.1,0.1-0.2,0.1-0.2,0.2s0,0.1,0.1,0.2c0.1,0.2,0.2,0.3,0.2,0.5
			c0,0.1,0,0.2-0.1,0.3c-0.1,0.1-0.2,0.1-0.3,0.1c-0.1,0-0.2-0.1-0.3-0.2c-0.2-0.2-0.5-0.5-0.9-0.7c-0.4-0.2-0.7-0.4-1.1-0.6
			c-0.1,0-0.2-0.1-0.2-0.1c-0.1,0-0.1-0.1,0-0.1c0,0,0.1-0.1,0.2-0.1c0.7,0,1.3,0.1,1.8,0.3c0.1,0,0.1,0,0.2,0c0.1,0,0.2,0,0.3-0.1
			c0.2-0.2,0.4-0.4,0.5-0.5c0.1-0.1,0.2-0.2,0.2-0.3c0,0,0-0.1-0.1-0.1c-0.1,0.1-0.3,0.1-0.4,0.1h0c-0.1,0-0.2-0.1-0.3-0.2
			c0-0.1-0.1-0.1-0.1-0.2c-0.1-0.1-0.2-0.1-0.4-0.2c-0.2,0-0.3-0.1-0.3-0.2c0-0.1,0.1-0.1,0.3-0.1l0.5,0c0.1,0,0.2,0,0.3,0
			c0.2,0,0.3,0,0.4-0.1l0,0c0,0,0-0.1,0-0.1c0-0.1,0-0.1-0.1-0.2s-0.1-0.1-0.2-0.1h-2.6c-0.2,0-0.3,0.1-0.3,0.3
			c0,0.2-0.1,0.3-0.2,0.3c-0.1,0-0.1,0-0.2,0c-0.1,0-0.1,0-0.2,0c-0.2,0-0.3-0.1-0.3-0.3L832,447.2L832,447.2z M834.8,453.7
			c0.1,0,0.1,0,0.2,0.1l0.3,0.2c0.3,0.2,0.4,0.3,0.4,0.4c0,0-0.1,0.1-0.2,0.1h0h-0.1c-0.1,0-0.2,0-0.3,0.1c-0.4,0.3-1,0.5-1.6,0.8
			c-0.6,0.3-1.3,0.5-1.9,0.6c-0.1,0-0.1,0-0.2,0c-0.1,0-0.1,0-0.2-0.1l0,0c0-0.1,0.1-0.1,0.3-0.2c0.5-0.2,1.1-0.5,1.6-0.9
			s1-0.7,1.4-1C834.7,453.8,834.8,453.7,834.8,453.7z M840,451.5c0,0,0.1-0.1,0.2-0.1c0.1,0,0.1,0,0.2,0c0.7,0.1,1.3,0.3,1.8,0.5
			c0.5,0.2,0.8,0.5,1,0.7c0.2,0.2,0.3,0.5,0.3,0.7c0,0.1,0,0.2-0.1,0.3c-0.1,0.1-0.2,0.1-0.3,0.1h0c0,0-0.1,0-0.2-0.1
			c-0.1,0-0.1-0.1-0.2-0.2c-0.1-0.1-0.3-0.3-0.5-0.5c-0.1-0.1-0.3-0.1-0.4-0.1c-0.7,0.1-1.4,0.1-2,0.1l-1.6,0.1
			c-0.2,0-0.3,0.1-0.3,0.3v0.7l0,0.8c0,0.2,0,0.5,0,0.9v0.1c0,0.1-0.1,0.2-0.2,0.3c-0.2,0.1-0.4,0.2-0.7,0.2c-0.1,0-0.1,0-0.2-0.1
			c0-0.1-0.1-0.1-0.1-0.2c0-0.5,0.1-1.1,0.1-1.8v-0.7c0-0.1,0-0.2-0.1-0.2c-0.1-0.1-0.1-0.1-0.2-0.1l-4.2,0.2c-0.2,0-0.3,0-0.3,0.1
			c0,0,0,0-0.1,0.1c0,0.1-0.1,0.1-0.1,0.1c-0.1,0-0.2-0.1-0.3-0.2l-0.3-0.5c0-0.1-0.1-0.1-0.1-0.2c0-0.1,0.1-0.2,0.3-0.2l1.5,0
			l2.4,0c0.1,0,0.3,0,0.4-0.1l0.9-0.6c0.4-0.3,0.7-0.6,1.1-0.9s0.7-0.6,0.9-0.9c0.1-0.1,0.2-0.1,0.2-0.1c0.1,0,0.1,0,0.2,0.1
			c0.5,0.4,0.8,0.6,0.8,0.7c0,0-0.1,0.1-0.2,0.1h0h-0.1c-0.1,0-0.2,0-0.3,0.1c-0.5,0.4-1.3,0.8-2.2,1.3c-0.1,0.1-0.2,0.1-0.2,0.2
			c0,0.1,0.1,0.1,0.3,0.1l3.6,0c0.1,0,0.1,0,0.2-0.1s0.1-0.1,0.1-0.1c0-0.1-0.1-0.2-0.2-0.2c-0.4-0.2-0.6-0.3-0.7-0.4
			C840,451.6,839.9,451.5,840,451.5z M834,447.2c0-0.2-0.1-0.3-0.3-0.3h-0.6c-0.2,0-0.3,0.1-0.3,0.3l-0.1,0.5l0,0.1
			c0,0.1,0,0.1,0.1,0.2s0.1,0.1,0.2,0.1h0.7c0.1,0,0.2,0,0.2-0.1c0.1,0,0.1-0.1,0.1-0.2L834,447.2L834,447.2z M834.3,445.7
			c0-0.2-0.1-0.3-0.3-0.3h-0.6c-0.2,0-0.3,0.1-0.3,0.3c0,0.2-0.1,0.3-0.1,0.5l0,0.1c0,0.1,0,0.1,0.1,0.2s0.1,0.1,0.2,0.1h0.6
			c0.2,0,0.3-0.1,0.3-0.3C834.2,446.1,834.3,445.9,834.3,445.7L834.3,445.7z M836.1,447.2c0-0.2-0.1-0.3-0.3-0.3h-0.8
			c-0.2,0-0.3,0.1-0.3,0.3c0,0.1,0,0.3-0.1,0.5v0.1c0,0.2,0.1,0.3,0.3,0.3h0.8c0.2,0,0.3-0.1,0.3-0.2
			C836.1,447.6,836.1,447.4,836.1,447.2L836.1,447.2z M836.3,445.7c0-0.2-0.1-0.3-0.3-0.3h-0.6c-0.2,0-0.3,0.1-0.3,0.3
			c0,0.2,0,0.4-0.1,0.5v0.1c0,0.2,0.1,0.3,0.3,0.3h0.7c0.2,0,0.3-0.1,0.3-0.3L836.3,445.7L836.3,445.7z M841.3,447.7
			c0,0.1,0,0.1,0.1,0.2c0.7,0.6,1.5,1,2.4,1.2c0.2,0.1,0.3,0.1,0.3,0.2c0,0,0,0.1-0.1,0.1c-0.1,0-0.1,0.1-0.2,0.1
			c-0.1,0.1-0.2,0.2-0.3,0.3c-0.1,0.2-0.2,0.2-0.3,0.2c0,0-0.1,0-0.2,0c-0.9-0.4-1.7-0.9-2.3-1.6c-0.1-0.1-0.1-0.1-0.2-0.1
			s-0.1,0-0.2,0.1c-0.8,0.6-1.6,1-2.5,1.4c-0.1,0-0.2,0-0.2,0c-0.1,0-0.1,0-0.1-0.1v0c0-0.1,0.1-0.1,0.2-0.2c0.9-0.5,1.7-1,2.3-1.6
			c0.1-0.1,0.1-0.1,0.1-0.2c0-0.1,0-0.1-0.1-0.2c-0.3-0.5-0.6-1.2-0.9-2c0-0.1-0.1-0.2-0.2-0.2c-0.1,0-0.1,0-0.2,0.1
			c-0.1,0.2-0.3,0.3-0.4,0.4c-0.1,0.1-0.2,0.1-0.3,0.1c0,0,0,0,0-0.1c0-0.1,0-0.2,0.1-0.2c0,0,0.1-0.1,0.1-0.2
			c0.2-0.4,0.4-0.8,0.6-1.3c0.2-0.5,0.3-1,0.4-1.4c0-0.2,0.1-0.3,0.2-0.3c0,0,0.1,0,0.1,0c0.6,0.2,1,0.4,1,0.5c0,0,0,0.1-0.1,0.1
			l0,0c-0.1,0.1-0.2,0.2-0.3,0.3l-0.3,0.5c0,0.1-0.1,0.1-0.1,0.2c0,0.1,0,0.1,0.1,0.1c0,0,0.1,0.1,0.2,0.1h2.1
			c0.2,0,0.3-0.1,0.4-0.2l0.1-0.2c0,0,0.1-0.1,0.1-0.2c0.1-0.1,0.1-0.1,0.1-0.2c0,0,0.1-0.1,0.1-0.1c0.1,0,0.2,0.1,0.5,0.3
			c0.2,0.2,0.4,0.4,0.5,0.5c0.1,0.1,0.1,0.1,0.1,0.2c0,0.1,0,0.1-0.1,0.2c-0.1,0-0.2,0.1-0.3,0.1h-0.6c-0.2,0-0.3,0.1-0.4,0.3
			c-0.3,0.9-0.8,1.8-1.4,2.4C841.3,447.6,841.3,447.7,841.3,447.7z M839,453.9c0-0.1,0.1-0.1,0.3-0.1c0.9,0.1,1.6,0.3,2.2,0.5
			c0.6,0.2,1,0.5,1.2,0.7c0.2,0.3,0.4,0.5,0.4,0.7c0,0.1,0,0.2-0.1,0.3c-0.1,0.1-0.2,0.1-0.3,0.1h0c0,0-0.1,0-0.1,0
			c-0.1,0-0.1-0.1-0.1-0.1c-0.3-0.3-0.7-0.7-1.3-1s-1.2-0.6-1.9-0.9C839.1,454.1,839,454,839,453.9z M840.6,447.1
			c0.1,0,0.2,0,0.2-0.1c0.4-0.5,0.7-1.1,0.9-1.8c0,0,0-0.1,0-0.1c0-0.2-0.1-0.2-0.3-0.2h-1.8c-0.1,0-0.1,0-0.2,0.1
			c-0.1,0-0.1,0.1-0.1,0.2c0,0,0,0.1,0,0.2c0.3,0.7,0.6,1.3,1,1.8C840.5,447,840.5,447.1,840.6,447.1z"/>
		<path class="st2" d="M846.9,445.7C847,445.6,847,445.6,846.9,445.7c0.2-0.1,0.2,0,0.3,0.2c0.1,0.4,0.1,0.8,0.1,1.3
			c0,0.4,0,0.7-0.1,1.1c-0.1,0.3-0.2,0.6-0.3,0.8c-0.1,0.1-0.2,0.2-0.3,0.3s-0.2,0.1-0.4,0.1c0,0-0.1,0-0.2,0
			c-0.1,0-0.2-0.1-0.2-0.3l0-0.1c0-0.2,0.1-0.4,0.3-0.6c0.2-0.2,0.3-0.6,0.5-1c0.2-0.5,0.2-0.9,0.3-1.4
			C846.9,445.8,846.9,445.8,846.9,445.7z M848,445.5c0-1,0-1.9-0.1-2.7v-0.1c0-0.2,0.1-0.3,0.2-0.3c0,0,0.1,0,0.1,0
			c0.7,0.2,1.1,0.4,1.1,0.5c0,0,0,0.1-0.1,0.2l0,0c-0.1,0.1-0.2,0.2-0.2,0.4v8.6c0,1.1,0.1,2.2,0.1,3.3v0.1c0,0.1,0,0.2-0.1,0.3
			c-0.1,0.1-0.2,0.1-0.3,0.2c-0.1,0.1-0.3,0.1-0.4,0.1c-0.1,0-0.2,0-0.3-0.1c-0.1-0.1-0.1-0.1-0.1-0.2c0-0.6,0.1-1.2,0.1-1.7
			c0-0.6,0-1.3,0.1-2.2V445.5z M849.3,445.5L849.3,445.5c0.1,0,0.2,0,0.3,0.1c0.4,0.3,0.7,0.6,0.9,0.9s0.3,0.6,0.3,0.9
			c0,0.2,0,0.4-0.1,0.5c-0.1,0.1-0.2,0.2-0.3,0.2c-0.1,0-0.1,0-0.2,0c-0.1-0.1-0.2-0.2-0.2-0.4c0-0.6-0.2-1.2-0.6-1.9
			C849.3,445.6,849.2,445.5,849.3,445.5z M857.3,445.4l0.2-0.2c0,0,0.1-0.1,0.1-0.2s0.1-0.2,0.2-0.2c0,0,0.1-0.1,0.1-0.1
			c0.1,0,0.3,0.1,0.5,0.3c0.3,0.2,0.5,0.4,0.6,0.6c0.1,0.1,0.1,0.1,0.1,0.2c0,0,0,0.1-0.1,0.1c-0.1,0.1-0.2,0.1-0.3,0.1h-5.8
			c-0.1,0-0.2,0-0.2,0.1c-0.1,0.1-0.1,0.1-0.1,0.2v7.7c0,0.2,0.1,0.3,0.2,0.4c0.1,0.1,0.4,0.1,0.7,0.1h2c1,0,1.6,0,1.9,0
			c0.1,0,0.2,0,0.4,0l0.2,0c0.2,0,0.3-0.1,0.3-0.1c0.1,0,0.2,0,0.3,0.1c0.1,0,0.2,0.1,0.2,0.2c0,0.1,0.1,0.1,0.1,0.2
			c0,0.2-0.1,0.3-0.3,0.4s-0.5,0.2-1,0.2c-0.5,0-1.2,0.1-2.2,0.1l-2,0c-0.5,0-0.8,0-1.1-0.1c-0.2-0.1-0.4-0.2-0.5-0.4
			c-0.1-0.2-0.1-0.4-0.1-0.7v-7.9c0-0.1,0-0.2-0.1-0.2c-0.1-0.1-0.1-0.1-0.2-0.1h-0.1c-0.2,0-0.3,0-0.5,0.1c-0.1,0-0.1,0-0.1,0
			c-0.1,0-0.2-0.1-0.3-0.2l0-0.1c0-0.1,0-0.1,0-0.2c0-0.1,0-0.1,0.1-0.1s0.1,0,0.2,0c0.3,0,0.9,0.1,1.5,0.1h1.7c0.2,0,0.3,0,0.3,0v0
			c0-1,0-1.9-0.1-2.7v-0.1c0-0.1,0-0.1,0.1-0.2s0.1-0.1,0.2-0.1c0,0,0.1,0,0.1,0c0.4,0.1,0.7,0.2,0.8,0.3s0.2,0.1,0.2,0.2
			c0,0,0,0.1-0.1,0.1l0,0c-0.1,0.1-0.2,0.2-0.2,0.4v1.7c0,0.1,0,0.2,0.1,0.2s0.1,0.1,0.2,0.1h1.6
			C857.1,445.6,857.3,445.6,857.3,445.4z"/>
	</g>
	<g class="st1">
		<path class="st2" d="M901.7,447.2c0-0.2-0.1-0.3-0.3-0.3h0c-0.1,0-0.2,0-0.3,0.1c-0.1,0-0.1,0-0.2,0c-0.1,0-0.2-0.1-0.2-0.2l0-0.1
			c0-0.1,0-0.1,0-0.2c0-0.1,0.1-0.2,0.2-0.2c0.1,0,0.2,0,0.3,0c0.1,0,0.2,0,0.3,0h0.2c0.2,0,0.3-0.1,0.3-0.3c0.1-0.3,0.1-0.7,0.1-1
			v-0.1c0-0.2-0.1-0.2-0.2-0.2c-0.1,0-0.1,0-0.2,0.1c-0.1,0.1-0.2,0.2-0.5,0.3c-0.1,0.1-0.3,0.1-0.3,0c0,0,0,0,0-0.1
			c0-0.1,0-0.1,0.1-0.2c0.3-0.3,0.5-0.7,0.8-1.1s0.4-0.9,0.5-1.3c0.1-0.1,0.1-0.2,0.2-0.2c0.1,0,0.1,0,0.2,0
			c0.6,0.2,0.9,0.4,0.9,0.5c0,0,0,0.1-0.1,0.1l-0.1,0c-0.1,0-0.2,0.1-0.3,0.3c0,0.1,0,0.2,0.1,0.2c0,0.1,0.1,0.1,0.2,0.1h2.6
			c0.2,0,0.3-0.1,0.4-0.2l0.1-0.2c0,0,0.1-0.1,0.1-0.2c0.1-0.1,0.1-0.1,0.1-0.2s0.1-0.1,0.1-0.1c0.1,0,0.2,0.1,0.4,0.3
			c0.2,0.2,0.4,0.4,0.5,0.5c0,0,0.1,0.1,0.1,0.2c0,0.1,0,0.1-0.1,0.2c-0.1,0-0.2,0.1-0.3,0.1h-4.6c-0.2,0-0.3,0.1-0.4,0.2v0.1
			c0,0.1,0,0.2,0.1,0.3l0.4,0.2c0.1,0.1,0.2,0.1,0.4,0.1h2.4c0.2,0,0.3-0.1,0.4-0.2l0.1-0.1c0,0,0-0.1,0.1-0.1
			c0-0.1,0.1-0.1,0.1-0.1c0,0,0.1,0,0.1,0c0.1,0,0.2,0.1,0.4,0.2c0.2,0.2,0.3,0.3,0.4,0.5c0,0,0.1,0.1,0.1,0.2
			c0,0.1-0.1,0.1-0.2,0.2l-0.1,0c-0.1,0-0.2,0.1-0.2,0.1s-0.1,0.1-0.1,0.2l0,0.4c0,0.2,0.1,0.3,0.2,0.3s0.2-0.1,0.3-0.2l0.1-0.2
			c0.1-0.1,0.1-0.1,0.2-0.1c0.1,0,0.2,0,0.2,0.1c0,0,0.1,0.1,0.4,0.4c0.1,0.1,0.1,0.2,0.1,0.3c0,0.1,0,0.1-0.1,0.1
			c0,0-0.1,0.1-0.2,0.1H907c-0.2,0-0.3,0.1-0.3,0.3c0,0.2,0,0.4-0.1,0.5v0.1c0,0.1,0,0.2,0.1,0.2c0.1,0,0.2-0.1,0.3-0.2l0.1-0.2
			c0.1-0.1,0.1-0.1,0.2-0.1c0.1,0,0.1,0,0.2,0.1l0.4,0.4c0.1,0.1,0.2,0.2,0.2,0.3c0,0,0,0.1-0.1,0.1c-0.1,0-0.1,0-0.2,0h-1
			c-0.2,0-0.3,0.1-0.3,0.3c-0.1,0.2-0.1,0.3-0.1,0.4c0,0.1,0,0.1,0,0.2c0,0.1,0.1,0.2,0.2,0.3c0.4,0.3,0.7,0.5,0.7,0.6
			c0,0,0,0.1-0.1,0.1h0c-0.1,0-0.3,0-0.4,0.1l-1,0.6c-0.1,0.1-0.2,0.1-0.2,0.2s0,0.1,0.1,0.2c0.1,0.2,0.2,0.3,0.2,0.5
			c0,0.1,0,0.2-0.1,0.3c-0.1,0.1-0.2,0.1-0.3,0.1c-0.1,0-0.2-0.1-0.3-0.2c-0.2-0.2-0.5-0.5-0.9-0.7c-0.4-0.2-0.7-0.4-1.1-0.6
			c-0.1,0-0.2-0.1-0.2-0.1c-0.1,0-0.1-0.1,0-0.1c0,0,0.1-0.1,0.2-0.1c0.7,0,1.3,0.1,1.8,0.3c0.1,0,0.1,0,0.2,0c0.1,0,0.2,0,0.3-0.1
			c0.2-0.2,0.4-0.4,0.5-0.5c0.1-0.1,0.2-0.2,0.2-0.3c0,0,0-0.1-0.1-0.1c-0.1,0.1-0.3,0.1-0.4,0.1h0c-0.1,0-0.2-0.1-0.3-0.2
			c0-0.1-0.1-0.1-0.1-0.2c-0.1-0.1-0.2-0.1-0.4-0.2c-0.2,0-0.3-0.1-0.3-0.2c0-0.1,0.1-0.1,0.3-0.1l0.5,0c0.1,0,0.2,0,0.3,0
			c0.2,0,0.3,0,0.4-0.1l0,0c0,0,0-0.1,0-0.1c0-0.1,0-0.1-0.1-0.2s-0.1-0.1-0.2-0.1h-2.6c-0.2,0-0.3,0.1-0.3,0.3
			c0,0.2-0.1,0.3-0.2,0.3c-0.1,0-0.1,0-0.2,0c-0.1,0-0.1,0-0.2,0c-0.2,0-0.3-0.1-0.3-0.3L901.7,447.2L901.7,447.2z M904.6,453.7
			c0.1,0,0.1,0,0.2,0.1l0.3,0.2c0.3,0.2,0.4,0.3,0.4,0.4c0,0-0.1,0.1-0.2,0.1h0h-0.1c-0.1,0-0.2,0-0.3,0.1c-0.4,0.3-1,0.5-1.6,0.8
			c-0.6,0.3-1.3,0.5-1.9,0.6c-0.1,0-0.1,0-0.2,0c-0.1,0-0.1,0-0.2-0.1l0,0c0-0.1,0.1-0.1,0.3-0.2c0.5-0.2,1.1-0.5,1.6-0.9
			s1-0.7,1.4-1C904.4,453.7,904.5,453.7,904.6,453.7z M909.7,451.4c0,0,0.1-0.1,0.2-0.1c0.1,0,0.1,0,0.2,0c0.7,0.1,1.3,0.3,1.8,0.5
			c0.5,0.2,0.8,0.5,1,0.7c0.2,0.2,0.3,0.5,0.3,0.7c0,0.1,0,0.2-0.1,0.3c-0.1,0.1-0.2,0.1-0.3,0.1h0c0,0-0.1,0-0.2-0.1
			c-0.1,0-0.1-0.1-0.2-0.2c-0.1-0.1-0.3-0.3-0.5-0.5c-0.1-0.1-0.3-0.1-0.4-0.1c-0.7,0.1-1.4,0.1-2,0.1l-1.6,0.1
			c-0.2,0-0.3,0.1-0.3,0.3v0.7l0,0.8c0,0.2,0,0.5,0,0.9v0.1c0,0.1-0.1,0.2-0.2,0.3c-0.2,0.1-0.4,0.2-0.7,0.2c-0.1,0-0.1,0-0.2-0.1
			c0-0.1-0.1-0.1-0.1-0.2c0-0.5,0.1-1.1,0.1-1.8v-0.7c0-0.1,0-0.2-0.1-0.2c-0.1-0.1-0.1-0.1-0.2-0.1l-4.2,0.2c-0.2,0-0.3,0-0.3,0.1
			c0,0,0,0-0.1,0.1c0,0.1-0.1,0.1-0.1,0.1c-0.1,0-0.2-0.1-0.3-0.2l-0.3-0.5c0-0.1-0.1-0.1-0.1-0.2c0-0.1,0.1-0.2,0.3-0.2l1.5,0
			l2.4,0c0.1,0,0.3,0,0.4-0.1l0.9-0.6c0.4-0.3,0.7-0.6,1.1-0.9s0.7-0.6,0.9-0.9c0.1-0.1,0.2-0.1,0.2-0.1c0.1,0,0.1,0,0.2,0.1
			c0.5,0.4,0.8,0.6,0.8,0.7c0,0-0.1,0.1-0.2,0.1h0h-0.1c-0.1,0-0.2,0-0.3,0.1c-0.5,0.4-1.3,0.8-2.2,1.3c-0.1,0.1-0.2,0.1-0.2,0.2
			c0,0.1,0.1,0.1,0.3,0.1l3.6,0c0.1,0,0.1,0,0.2-0.1s0.1-0.1,0.1-0.1c0-0.1-0.1-0.2-0.2-0.2c-0.4-0.2-0.6-0.3-0.7-0.4
			C909.8,451.6,909.7,451.5,909.7,451.4z M903.8,447.2c0-0.2-0.1-0.3-0.3-0.3h-0.6c-0.2,0-0.3,0.1-0.3,0.3l-0.1,0.5l0,0.1
			c0,0.1,0,0.1,0.1,0.2s0.1,0.1,0.2,0.1h0.7c0.1,0,0.2,0,0.2-0.1c0.1,0,0.1-0.1,0.1-0.2L903.8,447.2L903.8,447.2z M904,445.7
			c0-0.2-0.1-0.3-0.3-0.3h-0.6c-0.2,0-0.3,0.1-0.3,0.3c0,0.2-0.1,0.3-0.1,0.5l0,0.1c0,0.1,0,0.1,0.1,0.2s0.1,0.1,0.2,0.1h0.6
			c0.2,0,0.3-0.1,0.3-0.3C904,446.1,904,445.9,904,445.7L904,445.7z M905.9,447.2c0-0.2-0.1-0.3-0.3-0.3h-0.8
			c-0.2,0-0.3,0.1-0.3,0.3c0,0.1,0,0.3-0.1,0.5v0.1c0,0.2,0.1,0.3,0.3,0.3h0.8c0.2,0,0.3-0.1,0.3-0.2
			C905.8,447.6,905.9,447.4,905.9,447.2L905.9,447.2z M906,445.7c0-0.2-0.1-0.3-0.3-0.3h-0.6c-0.2,0-0.3,0.1-0.3,0.3
			c0,0.2,0,0.4-0.1,0.5v0.1c0,0.2,0.1,0.3,0.3,0.3h0.7c0.2,0,0.3-0.1,0.3-0.3L906,445.7L906,445.7z M911,447.7c0,0.1,0,0.1,0.1,0.2
			c0.7,0.6,1.5,1,2.4,1.2c0.2,0.1,0.3,0.1,0.3,0.2c0,0,0,0.1-0.1,0.1c-0.1,0-0.1,0.1-0.2,0.1c-0.1,0.1-0.2,0.2-0.3,0.3
			c-0.1,0.2-0.2,0.2-0.3,0.2c0,0-0.1,0-0.2,0c-0.9-0.4-1.7-0.9-2.3-1.6c-0.1-0.1-0.1-0.1-0.2-0.1s-0.1,0-0.2,0.1
			c-0.8,0.6-1.6,1-2.5,1.4c-0.1,0-0.2,0-0.2,0c-0.1,0-0.1,0-0.1-0.1v0c0-0.1,0.1-0.1,0.2-0.2c0.9-0.5,1.7-1,2.3-1.6
			c0.1-0.1,0.1-0.1,0.1-0.2c0-0.1,0-0.1-0.1-0.2c-0.3-0.5-0.6-1.2-0.9-2c0-0.1-0.1-0.2-0.2-0.2c-0.1,0-0.1,0-0.2,0.1
			c-0.1,0.2-0.3,0.3-0.4,0.4c-0.1,0.1-0.2,0.1-0.3,0.1c0,0,0,0,0-0.1c0-0.1,0-0.2,0.1-0.2c0,0,0.1-0.1,0.1-0.2
			c0.2-0.4,0.4-0.8,0.6-1.3c0.2-0.5,0.3-1,0.4-1.4c0-0.2,0.1-0.3,0.2-0.3c0,0,0.1,0,0.1,0c0.6,0.2,1,0.4,1,0.5c0,0,0,0.1-0.1,0.1
			l0,0c-0.1,0.1-0.2,0.2-0.3,0.3l-0.3,0.5c0,0.1-0.1,0.1-0.1,0.2c0,0.1,0,0.1,0.1,0.1c0,0,0.1,0.1,0.2,0.1h2.1
			c0.2,0,0.3-0.1,0.4-0.2l0.1-0.2c0,0,0.1-0.1,0.1-0.2c0.1-0.1,0.1-0.1,0.1-0.2c0,0,0.1-0.1,0.1-0.1c0.1,0,0.2,0.1,0.5,0.3
			c0.2,0.2,0.4,0.4,0.5,0.5c0.1,0.1,0.1,0.1,0.1,0.2c0,0.1,0,0.1-0.1,0.2c-0.1,0-0.2,0.1-0.3,0.1h-0.6c-0.2,0-0.3,0.1-0.4,0.3
			c-0.3,0.9-0.8,1.8-1.4,2.4C911,447.6,911,447.6,911,447.7z M908.8,453.9c0-0.1,0.1-0.1,0.3-0.1c0.9,0.1,1.6,0.3,2.2,0.5
			c0.6,0.2,1,0.5,1.2,0.7c0.2,0.3,0.4,0.5,0.4,0.7c0,0.1,0,0.2-0.1,0.3c-0.1,0.1-0.2,0.1-0.3,0.1h0c0,0-0.1,0-0.1,0
			c-0.1,0-0.1-0.1-0.1-0.1c-0.3-0.3-0.7-0.7-1.3-1s-1.2-0.6-1.9-0.9C908.9,454.1,908.8,454,908.8,453.9z M910.4,447.1
			c0.1,0,0.2,0,0.2-0.1c0.4-0.5,0.7-1.1,0.9-1.8c0,0,0-0.1,0-0.1c0-0.2-0.1-0.2-0.3-0.2h-1.8c-0.1,0-0.1,0-0.2,0.1
			c-0.1,0-0.1,0.1-0.1,0.2c0,0,0,0.1,0,0.2c0.3,0.7,0.6,1.3,1,1.8C910.2,447,910.3,447.1,910.4,447.1z"/>
		<path class="st2" d="M916.7,445.7C916.7,445.6,916.7,445.6,916.7,445.7c0.2-0.1,0.2,0,0.3,0.2c0.1,0.4,0.1,0.8,0.1,1.3
			c0,0.4,0,0.7-0.1,1.1c-0.1,0.3-0.2,0.6-0.3,0.8c-0.1,0.1-0.2,0.2-0.3,0.3s-0.2,0.1-0.4,0.1c0,0-0.1,0-0.2,0
			c-0.1,0-0.2-0.1-0.2-0.3l0-0.1c0-0.2,0.1-0.4,0.3-0.6c0.2-0.2,0.3-0.6,0.5-1c0.2-0.5,0.2-0.9,0.3-1.4
			C916.6,445.8,916.7,445.7,916.7,445.7z M917.8,445.5c0-1,0-1.9-0.1-2.7v-0.1c0-0.2,0.1-0.3,0.2-0.3c0,0,0.1,0,0.1,0
			c0.7,0.2,1.1,0.4,1.1,0.5c0,0,0,0.1-0.1,0.2l0,0c-0.1,0.1-0.2,0.2-0.2,0.4v8.6c0,1.1,0.1,2.2,0.1,3.3v0.1c0,0.1,0,0.2-0.1,0.3
			c-0.1,0.1-0.2,0.1-0.3,0.2c-0.1,0.1-0.3,0.1-0.4,0.1c-0.1,0-0.2,0-0.3-0.1c-0.1-0.1-0.1-0.1-0.1-0.2c0-0.6,0.1-1.2,0.1-1.7
			c0-0.6,0-1.3,0.1-2.2V445.5z M919,445.5L919,445.5c0.1,0,0.2,0,0.3,0.1c0.4,0.3,0.7,0.6,0.9,0.9s0.3,0.6,0.3,0.9
			c0,0.2,0,0.4-0.1,0.5c-0.1,0.1-0.2,0.2-0.3,0.2c-0.1,0-0.1,0-0.2,0c-0.1-0.1-0.2-0.2-0.2-0.4c0-0.6-0.2-1.2-0.6-1.9
			C919,445.6,919,445.5,919,445.5z M927.1,445.4l0.2-0.2c0,0,0.1-0.1,0.1-0.2s0.1-0.2,0.2-0.2c0,0,0.1-0.1,0.1-0.1
			c0.1,0,0.3,0.1,0.5,0.3c0.3,0.2,0.5,0.4,0.6,0.6c0.1,0.1,0.1,0.1,0.1,0.2c0,0,0,0.1-0.1,0.1c-0.1,0.1-0.2,0.1-0.3,0.1h-5.8
			c-0.1,0-0.2,0-0.2,0.1c-0.1,0.1-0.1,0.1-0.1,0.2v7.7c0,0.2,0.1,0.3,0.2,0.4c0.1,0.1,0.4,0.1,0.7,0.1h2c1,0,1.6,0,1.9,0
			c0.1,0,0.2,0,0.4,0l0.2,0c0.2,0,0.3-0.1,0.3-0.1c0.1,0,0.2,0,0.3,0.1c0.1,0,0.2,0.1,0.2,0.2c0,0.1,0.1,0.1,0.1,0.2
			c0,0.2-0.1,0.3-0.3,0.4s-0.5,0.2-1,0.2c-0.5,0-1.2,0.1-2.2,0.1l-2,0c-0.5,0-0.8,0-1.1-0.1c-0.2-0.1-0.4-0.2-0.5-0.4
			c-0.1-0.2-0.1-0.4-0.1-0.7v-7.9c0-0.1,0-0.2-0.1-0.2c-0.1-0.1-0.1-0.1-0.2-0.1H921c-0.2,0-0.3,0-0.5,0.1c-0.1,0-0.1,0-0.1,0
			c-0.1,0-0.2-0.1-0.3-0.2l0-0.1c0-0.1,0-0.1,0-0.2c0-0.1,0-0.1,0.1-0.1s0.1,0,0.2,0c0.3,0,0.9,0.1,1.5,0.1h1.7c0.2,0,0.3,0,0.3,0v0
			c0-1,0-1.9-0.1-2.7v-0.1c0-0.1,0-0.1,0.1-0.2s0.1-0.1,0.2-0.1c0,0,0.1,0,0.1,0c0.4,0.1,0.7,0.2,0.8,0.3s0.2,0.1,0.2,0.2
			c0,0,0,0.1-0.1,0.1l0,0c-0.1,0.1-0.2,0.2-0.2,0.4v1.7c0,0.1,0,0.2,0.1,0.2s0.1,0.1,0.2,0.1h1.6C926.9,445.6,927,445.6,927.1,445.4
			z"/>
		<path class="st2" d="M933.9,454.9c-0.1,0.1-0.1,0.1-0.1,0.2c0,0.1,0,0.2,0,0.3l0,0.2c0,0.1,0,0.2-0.1,0.2
			c-0.1,0.1-0.2,0.2-0.3,0.2c-0.1,0.1-0.3,0.1-0.4,0.1c-0.1,0-0.2,0-0.2-0.1c-0.1-0.1-0.1-0.1-0.1-0.2c0-0.6,0.1-1.2,0.1-1.7
			c0-0.6,0-1.3,0.1-2.2v-5.5c0-1,0-1.8-0.1-2.6v-0.1c0-0.1,0-0.1,0.1-0.2s0.1-0.1,0.1-0.1c0.1,0,0.1,0,0.2,0l0.6,0.3
			c0.1,0.1,0.2,0.1,0.4,0.1h6c0.2,0,0.3-0.1,0.4-0.2l0.1-0.1c0,0,0.1-0.1,0.1-0.1c0-0.1,0.1-0.1,0.1-0.1c0,0,0.1,0,0.1,0
			c0.1,0,0.2,0.1,0.5,0.3c0.2,0.2,0.4,0.3,0.6,0.5c0,0,0.1,0.1,0.1,0.2c0,0.1,0,0.1-0.1,0.2c0,0-0.1,0-0.2,0.1
			c-0.2,0.1-0.3,0.2-0.3,0.4v7.2c0,1.1,0.1,2.2,0.1,3.3v0.1c0,0.1-0.1,0.2-0.2,0.3c-0.1,0.1-0.2,0.2-0.4,0.2
			c-0.1,0.1-0.3,0.1-0.4,0.1c-0.1,0-0.1,0-0.2-0.1c0,0,0-0.1,0-0.1c0,0,0-0.1,0-0.2c0,0,0-0.1,0-0.4v-0.1c0-0.1,0-0.2-0.1-0.2
			c-0.1-0.1-0.1-0.1-0.2-0.1h-6.1C934.1,454.8,934,454.8,933.9,454.9z M940.5,449c0.1-0.1,0.1-0.1,0.1-0.2v-4c0-0.1,0-0.2-0.1-0.2
			c-0.1-0.1-0.1-0.1-0.2-0.1h-6.1c-0.1,0-0.2,0-0.2,0.1s-0.1,0.1-0.1,0.2v4c0,0.1,0,0.2,0.1,0.2c0.1,0.1,0.1,0.1,0.2,0.1h6.1
			C940.4,449.1,940.4,449,940.5,449z M933.9,449.6c-0.1,0.1-0.1,0.1-0.1,0.2v4.2c0,0.1,0,0.2,0.1,0.2c0.1,0.1,0.1,0.1,0.2,0.1h6.1
			c0.1,0,0.2,0,0.2-0.1c0.1-0.1,0.1-0.1,0.1-0.2v-4.2c0-0.1,0-0.2-0.1-0.2c-0.1-0.1-0.1-0.1-0.2-0.1h-6.1
			C934.1,449.5,934,449.5,933.9,449.6z"/>
	</g>
	<g class="st1">
		<path class="st2" d="M726.3,516.9c-0.1,0-0.1-0.1-0.1-0.2c0-0.2,0-0.2,0.1-0.2h0.2c0.5,0,0.9-0.1,1.2-0.2c0.3-0.1,0.5-0.4,0.5-0.7
			v-7.2c0-0.3,0-0.5-0.1-0.6c-0.1-0.1-0.2-0.2-0.4-0.2s-0.6-0.1-1.1-0.1h-0.3c-0.1,0-0.1-0.1-0.1-0.2c0-0.1,0-0.2,0.1-0.2
			c0.5,0,1-0.1,1.5-0.2s0.8-0.4,1.2-0.7c0.1-0.1,0.1-0.1,0.2-0.1c0.1,0,0.2,0.1,0.2,0.3v9.2c0,0.6,0.5,0.9,1.6,0.9h0.2
			c0,0,0.1,0,0.1,0.1c0,0,0,0.1,0,0.2c0,0.1,0,0.2-0.1,0.2H726.3z"/>
		<path class="st2" d="M736.8,511.1c0,0,0.1,0.1,0.2,0.1c0.7,0.2,1.3,0.5,1.8,1c0.4,0.5,0.7,1,0.7,1.7c0,0.5-0.1,0.9-0.3,1.4
			c-0.2,0.5-0.6,0.9-1.1,1.3c-0.5,0.4-1.2,0.5-2.1,0.5c-0.7,0-1.2-0.1-1.7-0.4s-0.7-0.6-0.9-0.9c-0.2-0.4-0.3-0.7-0.3-1
			c0-0.3,0.1-0.6,0.2-0.7c0.2-0.2,0.3-0.2,0.5-0.2c0.2,0,0.4,0.1,0.6,0.2s0.3,0.3,0.3,0.5c0,0.1-0.1,0.3-0.2,0.4
			c0,0.1-0.1,0.1-0.1,0.2c0,0.1-0.1,0.1-0.1,0.2c0,0.3,0.1,0.6,0.3,0.8c0.2,0.2,0.6,0.4,1.2,0.4c0.4,0,0.8-0.1,1.2-0.4
			c0.3-0.2,0.6-0.6,0.8-1s0.3-0.9,0.3-1.4c0-0.7-0.2-1.3-0.6-1.8c-0.4-0.5-1-0.7-1.7-0.7c-0.1,0-0.2,0-0.3,0c-0.1,0-0.3,0-0.4,0
			c-0.1,0-0.2,0-0.3-0.1c-0.1-0.1-0.1-0.1-0.1-0.2c0-0.1,0-0.2,0.1-0.2c0.1-0.1,0.2-0.1,0.3-0.1c0.1,0,0.3,0,0.4,0
			c0.2,0,0.3,0,0.4,0c0.4,0,0.8-0.1,1.2-0.4c0.4-0.3,0.6-0.9,0.6-1.8c0-0.8-0.2-1.4-0.5-1.8c-0.4-0.3-0.8-0.5-1.2-0.5
			c-0.3,0-0.6,0.1-0.8,0.2c-0.3,0.1-0.4,0.4-0.4,0.8c0,0.2,0,0.3,0.1,0.5c0.1,0.1,0.1,0.2,0.1,0.4c0,0.2-0.1,0.3-0.2,0.5
			c-0.1,0.1-0.3,0.2-0.4,0.2c-0.3,0-0.5-0.1-0.7-0.3c-0.1-0.2-0.2-0.4-0.2-0.7c0-0.3,0.1-0.6,0.3-0.9c0.2-0.3,0.5-0.6,1-0.8
			c0.4-0.2,0.9-0.3,1.4-0.3c0.6,0,1.1,0.1,1.5,0.4s0.8,0.6,1,1s0.3,0.8,0.3,1.3c0,0.6-0.2,1.1-0.5,1.6s-0.8,0.8-1.5,1
			C736.8,511,736.8,511.1,736.8,511.1z"/>
		<path class="st2" d="M741.3,518.4C741.3,518.4,741.3,518.4,741.3,518.4c0-0.1,0-0.1,0-0.1c0.2-0.2,0.3-0.3,0.4-0.5
			c0.1-0.2,0.1-0.3,0.1-0.4c0-0.2-0.1-0.3-0.2-0.3c-0.2-0.1-0.3-0.2-0.4-0.3c-0.1-0.1-0.1-0.3-0.1-0.4c0-0.2,0.1-0.4,0.2-0.6
			c0.2-0.2,0.4-0.2,0.6-0.2s0.4,0.1,0.6,0.2c0.2,0.2,0.2,0.4,0.2,0.6c0,0.5-0.1,0.9-0.4,1.2c-0.3,0.4-0.6,0.7-0.9,0.9L741.3,518.4
			C741.4,518.5,741.3,518.5,741.3,518.4z"/>
		<path class="st2" d="M746.2,516.4c-0.5-0.4-0.9-1-1.2-1.9c-0.3-0.8-0.4-1.9-0.4-3.1s0.1-2.2,0.4-3.1c0.3-0.9,0.7-1.5,1.2-1.9
			c0.5-0.4,1-0.6,1.6-0.6c0.6,0,1.1,0.2,1.6,0.6c0.5,0.4,0.9,1.1,1.2,1.9c0.3,0.8,0.4,1.9,0.4,3.1s-0.2,2.2-0.5,3.1
			c-0.3,0.8-0.7,1.5-1.2,1.9c-0.5,0.4-1,0.6-1.6,0.6C747.2,517.1,746.6,516.9,746.2,516.4z M749.1,515.3c0.3-0.8,0.5-2.1,0.5-3.8
			s-0.2-3-0.5-3.8c-0.3-0.9-0.8-1.3-1.4-1.3c-0.6,0-1.1,0.4-1.4,1.3c-0.3,0.9-0.5,2.1-0.5,3.8s0.2,3,0.5,3.8
			c0.3,0.8,0.8,1.3,1.4,1.3C748.3,516.6,748.8,516.1,749.1,515.3z"/>
		<path class="st2" d="M754,516.4c-0.5-0.4-0.9-1-1.2-1.9c-0.3-0.8-0.4-1.9-0.4-3.1s0.1-2.2,0.4-3.1c0.3-0.9,0.7-1.5,1.2-1.9
			c0.5-0.4,1-0.6,1.6-0.6c0.6,0,1.1,0.2,1.6,0.6c0.5,0.4,0.9,1.1,1.2,1.9c0.3,0.8,0.4,1.9,0.4,3.1s-0.2,2.2-0.5,3.1
			c-0.3,0.8-0.7,1.5-1.2,1.9c-0.5,0.4-1,0.6-1.6,0.6C755,517.1,754.4,516.9,754,516.4z M756.9,515.3c0.3-0.8,0.5-2.1,0.5-3.8
			s-0.2-3-0.5-3.8c-0.3-0.9-0.8-1.3-1.4-1.3c-0.6,0-1.1,0.4-1.4,1.3c-0.3,0.9-0.5,2.1-0.5,3.8s0.2,3,0.5,3.8
			c0.3,0.8,0.8,1.3,1.4,1.3C756.1,516.6,756.6,516.1,756.9,515.3z"/>
		<path class="st2" d="M761.8,516.4c-0.5-0.4-0.9-1-1.2-1.9c-0.3-0.8-0.4-1.9-0.4-3.1s0.1-2.2,0.4-3.1c0.3-0.9,0.7-1.5,1.2-1.9
			c0.5-0.4,1-0.6,1.6-0.6c0.6,0,1.1,0.2,1.6,0.6c0.5,0.4,0.9,1.1,1.2,1.9c0.3,0.8,0.4,1.9,0.4,3.1s-0.2,2.2-0.5,3.1
			c-0.3,0.8-0.7,1.5-1.2,1.9c-0.5,0.4-1,0.6-1.6,0.6C762.8,517.1,762.2,516.9,761.8,516.4z M764.7,515.3c0.3-0.8,0.5-2.1,0.5-3.8
			s-0.2-3-0.5-3.8c-0.3-0.9-0.8-1.3-1.4-1.3c-0.6,0-1.1,0.4-1.4,1.3c-0.3,0.9-0.5,2.1-0.5,3.8s0.2,3,0.5,3.8
			c0.3,0.8,0.8,1.3,1.4,1.3C763.9,516.6,764.4,516.1,764.7,515.3z"/>
		<path class="st2" d="M770.3,511.5c-0.1,0.1-0.1,0.1-0.1,0.2v2.3c0,1.1,0.1,2.2,0.1,3.3v0.1c0,0.1,0,0.2-0.1,0.3
			c-0.2,0.2-0.4,0.3-0.8,0.3c-0.1,0-0.2,0-0.2-0.1c-0.1-0.1-0.1-0.1-0.1-0.2c0-0.6,0.1-1.2,0.1-1.7c0-0.6,0-1.3,0.1-2.2v-5.7
			c0-1,0-1.8-0.1-2.6v-0.1c0-0.2,0.1-0.2,0.2-0.2c0,0,0.1,0,0.2,0l0.6,0.3c0.1,0.1,0.3,0.1,0.4,0.1h8.5c0.2,0,0.3-0.1,0.4-0.2
			l0.1-0.1c0,0,0.1-0.1,0.1-0.2c0.1-0.1,0.1-0.1,0.2-0.1c0.1,0,0.2,0.1,0.5,0.3c0.2,0.2,0.4,0.3,0.6,0.5c0,0.1,0.1,0.1,0.1,0.2
			c0,0.1,0,0.1-0.1,0.2c0,0-0.1,0-0.1,0c0,0-0.1,0-0.1,0c-0.2,0.1-0.3,0.2-0.3,0.3v10c0,0.4-0.1,0.7-0.3,0.9
			c-0.2,0.2-0.6,0.4-1.1,0.4l-0.1,0c-0.1,0-0.2-0.1-0.3-0.3c-0.1-0.2-0.2-0.3-0.3-0.4c-0.2-0.2-0.7-0.3-1.2-0.3
			c-0.2,0-0.3-0.1-0.3-0.2s0.1-0.1,0.3-0.1c1,0.1,1.6,0.1,1.9,0.1c0.2,0,0.3,0,0.3-0.1c0.1-0.1,0.1-0.2,0.1-0.3v-4.6
			c0-0.1,0-0.2-0.1-0.2c-0.1-0.1-0.1-0.1-0.2-0.1h-8.6C770.4,511.4,770.3,511.5,770.3,511.5z M774.2,506.1c-0.1-0.1-0.1-0.1-0.2-0.1
			h-3.4c-0.1,0-0.2,0-0.2,0.1c-0.1,0.1-0.1,0.1-0.1,0.2v4.3c0,0.1,0,0.2,0.1,0.2c0.1,0.1,0.1,0.1,0.2,0.1h3.4c0.1,0,0.2,0,0.2-0.1
			c0.1-0.1,0.1-0.1,0.1-0.2v-4.3C774.2,506.3,774.2,506.2,774.2,506.1z M775.3,506.1c-0.1,0.1-0.1,0.1-0.1,0.2v4.3
			c0,0.1,0,0.2,0.1,0.2c0.1,0.1,0.1,0.1,0.2,0.1h3.5c0.1,0,0.2,0,0.2-0.1c0.1-0.1,0.1-0.1,0.1-0.2v-4.3c0-0.1,0-0.2-0.1-0.2
			c-0.1-0.1-0.1-0.1-0.2-0.1h-3.5C775.4,506.1,775.3,506.1,775.3,506.1z"/>
	</g>
	<g class="st1">
		<path class="st2" d="M733.7,572c0,0.1,0.1,0.1,0.2,0.2c0.5,0.3,0.8,0.5,1.1,0.8c0.3,0.2,0.6,0.5,0.8,0.9c0.2,0.3,0.3,0.8,0.3,1.2
			c0,0.6-0.2,1.1-0.5,1.6c-0.3,0.5-0.7,0.8-1.2,1.1c-0.5,0.3-1,0.4-1.6,0.4c-0.6,0-1.1-0.1-1.6-0.4c-0.5-0.2-0.9-0.6-1.2-1
			c-0.3-0.4-0.5-0.9-0.5-1.5c0-0.6,0.2-1.1,0.5-1.5s0.8-0.8,1.5-1.1c0.1-0.1,0.2-0.1,0.2-0.2c0-0.1-0.1-0.2-0.2-0.2
			c-0.5-0.3-0.9-0.7-1.2-1.1c-0.3-0.4-0.4-0.9-0.4-1.6c0-0.4,0.1-0.9,0.3-1.3s0.5-0.8,1-1c0.4-0.3,0.9-0.4,1.6-0.4
			c0.5,0,0.9,0.1,1.4,0.3c0.4,0.2,0.8,0.5,1,0.9s0.4,0.8,0.4,1.3c0,0.9-0.5,1.7-1.6,2.4C733.7,571.8,733.7,571.9,733.7,572z
			 M734.3,577c0.4-0.4,0.6-1,0.6-1.7c0-0.5-0.2-1-0.7-1.3s-1-0.8-1.8-1.2c-0.1,0-0.1-0.1-0.2-0.1c-0.1,0-0.1,0-0.2,0.1
			c-0.4,0.3-0.7,0.7-1,1.2s-0.4,0.9-0.4,1.4c0,0.4,0.1,0.8,0.2,1.1c0.2,0.4,0.4,0.6,0.7,0.9c0.3,0.2,0.7,0.3,1.1,0.3
			C733.4,577.6,733.9,577.4,734.3,577z M731,570.1c0.2,0.3,0.4,0.5,0.7,0.7s0.7,0.5,1.2,0.8c0.1,0,0.1,0.1,0.2,0.1
			c0.1,0,0.2,0,0.2-0.1c0.7-0.6,1-1.3,1-2.2c0-0.3-0.1-0.6-0.2-0.9c-0.1-0.3-0.3-0.6-0.6-0.8c-0.3-0.2-0.6-0.3-1.1-0.3
			c-0.4,0-0.7,0.1-1,0.3c-0.3,0.2-0.5,0.4-0.6,0.7c-0.1,0.3-0.2,0.5-0.2,0.8C730.7,569.5,730.8,569.9,731,570.1z"/>
		<path class="st2" d="M738,579.5C738,579.5,738,579.4,738,579.5c0-0.1,0-0.1,0-0.1c0.2-0.2,0.3-0.3,0.4-0.5
			c0.1-0.2,0.1-0.3,0.1-0.4c0-0.2-0.1-0.3-0.2-0.3c-0.2-0.1-0.3-0.2-0.4-0.3c-0.1-0.1-0.1-0.3-0.1-0.4c0-0.2,0.1-0.4,0.2-0.6
			c0.2-0.2,0.4-0.2,0.6-0.2s0.4,0.1,0.6,0.2c0.2,0.2,0.2,0.4,0.2,0.6c0,0.5-0.1,0.9-0.4,1.2c-0.3,0.4-0.6,0.7-0.9,0.9L738,579.5
			C738.1,579.5,738.1,579.5,738,579.5z"/>
		<path class="st2" d="M742.9,577.5c-0.5-0.4-0.9-1-1.2-1.9c-0.3-0.8-0.4-1.9-0.4-3.1s0.1-2.2,0.4-3.1c0.3-0.9,0.7-1.5,1.2-1.9
			c0.5-0.4,1-0.6,1.6-0.6c0.6,0,1.1,0.2,1.6,0.6c0.5,0.4,0.9,1.1,1.2,1.9c0.3,0.8,0.4,1.9,0.4,3.1s-0.2,2.2-0.5,3.1
			c-0.3,0.8-0.7,1.5-1.2,1.9c-0.5,0.4-1,0.6-1.6,0.6C743.9,578.1,743.4,577.9,742.9,577.5z M745.8,576.4c0.3-0.8,0.5-2.1,0.5-3.8
			s-0.2-3-0.5-3.8c-0.3-0.9-0.8-1.3-1.4-1.3c-0.6,0-1.1,0.4-1.4,1.3c-0.3,0.9-0.5,2.1-0.5,3.8s0.2,3,0.5,3.8
			c0.3,0.8,0.8,1.3,1.4,1.3C745,577.6,745.5,577.2,745.8,576.4z"/>
		<path class="st2" d="M750.7,577.5c-0.5-0.4-0.9-1-1.2-1.9c-0.3-0.8-0.4-1.9-0.4-3.1s0.1-2.2,0.4-3.1c0.3-0.9,0.7-1.5,1.2-1.9
			c0.5-0.4,1-0.6,1.6-0.6c0.6,0,1.1,0.2,1.6,0.6c0.5,0.4,0.9,1.1,1.2,1.9c0.3,0.8,0.4,1.9,0.4,3.1s-0.2,2.2-0.5,3.1
			c-0.3,0.8-0.7,1.5-1.2,1.9c-0.5,0.4-1,0.6-1.6,0.6C751.7,578.1,751.2,577.9,750.7,577.5z M753.6,576.4c0.3-0.8,0.5-2.1,0.5-3.8
			s-0.2-3-0.5-3.8c-0.3-0.9-0.8-1.3-1.4-1.3c-0.6,0-1.1,0.4-1.4,1.3c-0.3,0.9-0.5,2.1-0.5,3.8s0.2,3,0.5,3.8
			c0.3,0.8,0.8,1.3,1.4,1.3C752.8,577.6,753.3,577.2,753.6,576.4z"/>
		<path class="st2" d="M758.5,577.5c-0.5-0.4-0.9-1-1.2-1.9c-0.3-0.8-0.4-1.9-0.4-3.1s0.1-2.2,0.4-3.1c0.3-0.9,0.7-1.5,1.2-1.9
			c0.5-0.4,1-0.6,1.6-0.6c0.6,0,1.1,0.2,1.6,0.6c0.5,0.4,0.9,1.1,1.2,1.9c0.3,0.8,0.4,1.9,0.4,3.1s-0.2,2.2-0.5,3.1
			c-0.3,0.8-0.7,1.5-1.2,1.9c-0.5,0.4-1,0.6-1.6,0.6C759.5,578.1,759,577.9,758.5,577.5z M761.4,576.4c0.3-0.8,0.5-2.1,0.5-3.8
			s-0.2-3-0.5-3.8c-0.3-0.9-0.8-1.3-1.4-1.3c-0.6,0-1.1,0.4-1.4,1.3c-0.3,0.9-0.5,2.1-0.5,3.8s0.2,3,0.5,3.8
			c0.3,0.8,0.8,1.3,1.4,1.3C760.6,577.6,761.1,577.2,761.4,576.4z"/>
		<path class="st2" d="M767,572.6c-0.1,0.1-0.1,0.1-0.1,0.2v2.3c0,1.1,0.1,2.2,0.1,3.3v0.1c0,0.1,0,0.2-0.1,0.3
			c-0.2,0.2-0.4,0.3-0.8,0.3c-0.1,0-0.2,0-0.2-0.1c-0.1-0.1-0.1-0.1-0.1-0.2c0-0.6,0.1-1.2,0.1-1.7c0-0.6,0-1.3,0.1-2.2v-5.7
			c0-1,0-1.8-0.1-2.6v-0.1c0-0.2,0.1-0.2,0.2-0.2c0,0,0.1,0,0.2,0l0.6,0.3c0.1,0.1,0.3,0.1,0.4,0.1h8.5c0.2,0,0.3-0.1,0.4-0.2
			l0.1-0.1c0,0,0.1-0.1,0.1-0.2c0.1-0.1,0.1-0.1,0.2-0.1c0.1,0,0.2,0.1,0.5,0.3c0.2,0.2,0.4,0.3,0.6,0.5c0,0.1,0.1,0.1,0.1,0.2
			c0,0.1,0,0.1-0.1,0.2c0,0-0.1,0-0.1,0c0,0-0.1,0-0.1,0c-0.2,0.1-0.3,0.2-0.3,0.3v10c0,0.4-0.1,0.7-0.3,0.9
			c-0.2,0.2-0.6,0.4-1.1,0.4l-0.1,0c-0.1,0-0.2-0.1-0.3-0.3c-0.1-0.2-0.2-0.3-0.3-0.4c-0.2-0.2-0.7-0.3-1.2-0.3
			c-0.2,0-0.3-0.1-0.3-0.2s0.1-0.1,0.3-0.1c1,0.1,1.6,0.1,1.9,0.1c0.2,0,0.3,0,0.3-0.1c0.1-0.1,0.1-0.2,0.1-0.3v-4.6
			c0-0.1,0-0.2-0.1-0.2c-0.1-0.1-0.1-0.1-0.2-0.1h-8.6C767.1,572.5,767,572.5,767,572.6z M770.9,567.2c-0.1-0.1-0.1-0.1-0.2-0.1
			h-3.4c-0.1,0-0.2,0-0.2,0.1c-0.1,0.1-0.1,0.1-0.1,0.2v4.3c0,0.1,0,0.2,0.1,0.2c0.1,0.1,0.1,0.1,0.2,0.1h3.4c0.1,0,0.2,0,0.2-0.1
			c0.1-0.1,0.1-0.1,0.1-0.2v-4.3C771,567.3,770.9,567.3,770.9,567.2z M772,567.2c-0.1,0.1-0.1,0.1-0.1,0.2v4.3c0,0.1,0,0.2,0.1,0.2
			c0.1,0.1,0.1,0.1,0.2,0.1h3.5c0.1,0,0.2,0,0.2-0.1c0.1-0.1,0.1-0.1,0.1-0.2v-4.3c0-0.1,0-0.2-0.1-0.2c-0.1-0.1-0.1-0.1-0.2-0.1
			h-3.5C772.1,567.1,772.1,567.2,772,567.2z"/>
	</g>
	<g class="st1">
		<path class="st2" d="M810.3,516.9c-0.1,0-0.1-0.1-0.1-0.2c0-0.2,0-0.2,0.1-0.2h0.2c0.5,0,0.9-0.1,1.2-0.2c0.3-0.1,0.4-0.4,0.4-0.7
			v-7.2c0-0.3,0-0.5-0.1-0.6c-0.1-0.1-0.2-0.2-0.4-0.2s-0.6-0.1-1.1-0.1h-0.3c-0.1,0-0.1-0.1-0.1-0.2c0-0.1,0-0.2,0.1-0.2
			c0.5,0,1-0.1,1.5-0.2s0.8-0.4,1.2-0.7c0.1-0.1,0.1-0.1,0.2-0.1c0.1,0,0.2,0.1,0.2,0.3v9.2c0,0.6,0.5,0.9,1.6,0.9h0.2
			c0,0,0.1,0,0.1,0.1c0,0,0,0.1,0,0.2c0,0.1,0,0.2-0.1,0.2H810.3z"/>
		<path class="st2" d="M823.5,513.9c0.1,0.1,0.1,0.1,0.1,0.2c0,0.1,0,0.2-0.1,0.2c-0.1,0.1-0.1,0.1-0.2,0.1h-1.1
			c-0.1,0-0.2,0-0.2,0.1c-0.1,0.1-0.1,0.1-0.1,0.2v1.2c0,0.2,0.1,0.4,0.3,0.4c0.2,0.1,0.4,0.1,0.8,0.1h0.2c0.1,0,0.1,0.1,0.1,0.2
			c0,0.1,0,0.2-0.1,0.2h-3.6c-0.1,0-0.1-0.1-0.1-0.2c0-0.1,0-0.2,0.1-0.2h0.2c0.3,0,0.6,0,0.8-0.1c0.2-0.1,0.3-0.2,0.3-0.4v-1.2
			c0-0.1,0-0.2-0.1-0.2c-0.1-0.1-0.1-0.1-0.2-0.1H817c-0.1,0-0.2,0-0.2-0.1c-0.1-0.1-0.1-0.1-0.1-0.2V514c0-0.2,0-0.3,0.1-0.4
			l4.3-7.5c0.1-0.2,0.2-0.2,0.4-0.2l0.1,0c0.2,0,0.3,0.2,0.3,0.3v7.2c0,0.1,0,0.2,0.1,0.2c0.1,0.1,0.1,0.1,0.2,0.1h1.1
			C823.4,513.8,823.5,513.8,823.5,513.9z M820.7,508.6c0,0-0.1-0.1-0.1-0.1c-0.1,0-0.2,0.1-0.2,0.2l-2.7,4.7c0,0.1,0,0.1,0,0.2
			c0,0.1,0.1,0.2,0.3,0.2h2.6c0.1,0,0.2,0,0.2-0.1c0.1-0.1,0.1-0.1,0.1-0.2v-4.7C820.8,508.7,820.7,508.6,820.7,508.6z"/>
		<path class="st2" d="M825.1,518.4C825,518.4,825,518.4,825.1,518.4c0-0.1,0-0.1,0-0.1c0.2-0.2,0.3-0.3,0.4-0.5
			c0.1-0.2,0.1-0.3,0.1-0.4c0-0.2-0.1-0.3-0.2-0.3c-0.2-0.1-0.3-0.2-0.4-0.3c-0.1-0.1-0.1-0.3-0.1-0.4c0-0.2,0.1-0.4,0.2-0.6
			c0.2-0.2,0.4-0.2,0.6-0.2s0.4,0.1,0.6,0.2c0.2,0.2,0.2,0.4,0.2,0.6c0,0.5-0.1,0.9-0.4,1.2c-0.3,0.4-0.6,0.7-0.9,0.9L825.1,518.4
			C825.1,518.5,825.1,518.5,825.1,518.4z"/>
		<path class="st2" d="M829.9,516.4c-0.5-0.4-0.9-1-1.2-1.9c-0.3-0.8-0.4-1.9-0.4-3.1s0.2-2.2,0.4-3.1c0.3-0.9,0.7-1.5,1.2-1.9
			c0.5-0.4,1-0.6,1.6-0.6c0.6,0,1.1,0.2,1.6,0.6c0.5,0.4,0.9,1.1,1.2,1.9c0.3,0.8,0.4,1.9,0.4,3.1s-0.2,2.2-0.5,3.1
			c-0.3,0.8-0.7,1.5-1.2,1.9c-0.5,0.4-1,0.6-1.6,0.6C830.9,517.1,830.4,516.9,829.9,516.4z M832.9,515.3c0.3-0.8,0.5-2.1,0.5-3.8
			s-0.2-3-0.5-3.8c-0.3-0.9-0.8-1.3-1.4-1.3c-0.6,0-1.1,0.4-1.4,1.3c-0.3,0.9-0.5,2.1-0.5,3.8s0.2,3,0.5,3.8s0.8,1.3,1.4,1.3
			C832.1,516.6,832.5,516.1,832.9,515.3z"/>
		<path class="st2" d="M837.7,516.4c-0.5-0.4-0.9-1-1.2-1.9c-0.3-0.8-0.4-1.9-0.4-3.1s0.1-2.2,0.4-3.1c0.3-0.9,0.7-1.5,1.2-1.9
			c0.5-0.4,1-0.6,1.6-0.6c0.6,0,1.1,0.2,1.6,0.6c0.5,0.4,0.9,1.1,1.2,1.9c0.3,0.8,0.4,1.9,0.4,3.1s-0.2,2.2-0.5,3.1
			c-0.3,0.8-0.7,1.5-1.2,1.9c-0.5,0.4-1,0.6-1.6,0.6C838.7,517.1,838.2,516.9,837.7,516.4z M840.7,515.3c0.3-0.8,0.5-2.1,0.5-3.8
			s-0.2-3-0.5-3.8c-0.3-0.9-0.8-1.3-1.4-1.3c-0.6,0-1.1,0.4-1.4,1.3c-0.3,0.9-0.5,2.1-0.5,3.8s0.2,3,0.5,3.8s0.8,1.3,1.4,1.3
			C839.9,516.6,840.3,516.1,840.7,515.3z"/>
		<path class="st2" d="M845.5,516.4c-0.5-0.4-0.9-1-1.2-1.9c-0.3-0.8-0.4-1.9-0.4-3.1s0.2-2.2,0.5-3.1c0.3-0.9,0.7-1.5,1.2-1.9
			c0.5-0.4,1-0.6,1.6-0.6c0.6,0,1.1,0.2,1.6,0.6c0.5,0.4,0.9,1.1,1.2,1.9c0.3,0.8,0.4,1.9,0.4,3.1s-0.2,2.2-0.5,3.1
			c-0.3,0.8-0.7,1.5-1.2,1.9s-1,0.6-1.6,0.6C846.5,517.1,846,516.9,845.5,516.4z M848.5,515.3c0.3-0.8,0.5-2.1,0.5-3.8
			s-0.2-3-0.5-3.8c-0.3-0.9-0.8-1.3-1.4-1.3c-0.6,0-1.1,0.4-1.4,1.3c-0.3,0.9-0.5,2.1-0.5,3.8s0.2,3,0.5,3.8
			c0.3,0.8,0.8,1.3,1.4,1.3C847.7,516.6,848.1,516.1,848.5,515.3z"/>
		<path class="st2" d="M854,511.5c-0.1,0.1-0.1,0.1-0.1,0.2v2.3c0,1.1,0.1,2.2,0.1,3.3v0.1c0,0.1,0,0.2-0.1,0.3
			c-0.2,0.2-0.4,0.3-0.8,0.3c-0.1,0-0.2,0-0.2-0.1c-0.1-0.1-0.1-0.1-0.1-0.2c0-0.6,0.1-1.2,0.1-1.7c0-0.6,0-1.3,0.1-2.2v-5.7
			c0-1,0-1.8-0.1-2.6v-0.1c0-0.2,0.1-0.2,0.2-0.2c0.1,0,0.1,0,0.2,0l0.6,0.3c0.1,0.1,0.3,0.1,0.4,0.1h8.5c0.2,0,0.3-0.1,0.4-0.2
			l0.1-0.1c0,0,0.1-0.1,0.1-0.2c0.1-0.1,0.1-0.1,0.2-0.1c0.1,0,0.2,0.1,0.5,0.3c0.2,0.2,0.4,0.3,0.6,0.5c0,0.1,0.1,0.1,0.1,0.2
			c0,0.1,0,0.1-0.1,0.2c0,0-0.1,0-0.1,0c0,0-0.1,0-0.1,0c-0.2,0.1-0.3,0.2-0.3,0.3v10c0,0.4-0.1,0.7-0.3,0.9
			c-0.2,0.2-0.6,0.4-1.1,0.4l-0.1,0c-0.1,0-0.2-0.1-0.3-0.3c-0.1-0.2-0.2-0.3-0.3-0.4c-0.2-0.2-0.7-0.3-1.2-0.3
			c-0.2,0-0.3-0.1-0.3-0.2s0.1-0.1,0.3-0.1c1,0.1,1.6,0.1,1.9,0.1c0.2,0,0.3,0,0.3-0.1c0.1-0.1,0.1-0.2,0.1-0.3v-4.6
			c0-0.1,0-0.2-0.1-0.2c-0.1-0.1-0.1-0.1-0.2-0.1h-8.6C854.1,511.4,854.1,511.5,854,511.5z M857.9,506.1c-0.1-0.1-0.1-0.1-0.2-0.1
			h-3.4c-0.1,0-0.2,0-0.2,0.1c-0.1,0.1-0.1,0.1-0.1,0.2v4.3c0,0.1,0,0.2,0.1,0.2c0.1,0.1,0.1,0.1,0.2,0.1h3.4c0.1,0,0.2,0,0.2-0.1
			c0.1-0.1,0.1-0.1,0.1-0.2v-4.3C858,506.3,858,506.2,857.9,506.1z M859,506.1c-0.1,0.1-0.1,0.1-0.1,0.2v4.3c0,0.1,0,0.2,0.1,0.2
			c0.1,0.1,0.1,0.1,0.2,0.1h3.5c0.1,0,0.2,0,0.2-0.1c0.1-0.1,0.1-0.1,0.1-0.2v-4.3c0-0.1,0-0.2-0.1-0.2c-0.1-0.1-0.1-0.1-0.2-0.1
			h-3.5C859.2,506.1,859.1,506.1,859,506.1z"/>
	</g>
	<g class="st1">
		<path class="st2" d="M818.3,567.5c0.5,0.4,0.9,0.9,1.2,1.6c0.3,0.7,0.4,1.5,0.4,2.4c0,1.4-0.2,2.7-0.6,3.7s-0.9,1.8-1.5,2.3
			c-0.6,0.5-1.2,0.8-1.8,0.8c-0.5,0-0.9-0.1-1.2-0.2c-0.3-0.1-0.6-0.3-0.8-0.5s-0.3-0.5-0.3-0.7c0-0.2,0.1-0.4,0.2-0.5
			c0.1-0.1,0.3-0.2,0.5-0.2c0.2,0,0.4,0.1,0.6,0.3c0.2,0.2,0.2,0.4,0.3,0.7c0,0.2,0.1,0.4,0.2,0.5c0.1,0.1,0.3,0.2,0.5,0.2
			c0.7,0,1.2-0.4,1.6-1.3c0.4-0.8,0.7-1.9,0.8-3c0-0.1,0-0.2,0-0.2c0-0.1-0.1-0.1-0.2-0.1s-0.2,0-0.3,0.1c-0.5,0.5-1.2,0.8-1.9,0.8
			c-0.6,0-1.1-0.1-1.5-0.4c-0.4-0.3-0.7-0.7-1-1.2c-0.2-0.5-0.3-1-0.3-1.5c0-0.7,0.1-1.3,0.4-1.9c0.3-0.6,0.6-1.1,1.1-1.4
			c0.5-0.3,1-0.5,1.7-0.5C817.2,566.9,817.7,567.1,818.3,567.5z M817.7,572.8c0.4-0.3,0.7-0.7,0.9-1.2c0-0.1,0.1-0.3,0.1-0.4
			c0-1.1-0.2-1.9-0.5-2.7s-0.8-1.1-1.6-1.1c-0.4,0-0.7,0.1-1,0.4c-0.3,0.3-0.5,0.6-0.7,1.1s-0.2,1-0.2,1.6c0,1.1,0.2,1.8,0.6,2.1
			c0.4,0.4,0.8,0.5,1.3,0.5C816.9,573.2,817.3,573.1,817.7,572.8z"/>
		<path class="st2" d="M822,579.5C822,579.5,821.9,579.4,822,579.5c0-0.1,0-0.1,0-0.1c0.2-0.2,0.3-0.3,0.4-0.5
			c0.1-0.2,0.1-0.3,0.1-0.4c0-0.2-0.1-0.3-0.2-0.3c-0.2-0.1-0.3-0.2-0.4-0.3c-0.1-0.1-0.1-0.3-0.1-0.4c0-0.2,0.1-0.4,0.2-0.6
			s0.4-0.2,0.6-0.2c0.2,0,0.4,0.1,0.6,0.2s0.2,0.4,0.2,0.6c0,0.5-0.1,0.9-0.4,1.2c-0.3,0.4-0.6,0.7-0.9,0.9L822,579.5
			C822,579.5,822,579.5,822,579.5z"/>
		<path class="st2" d="M826.8,577.5c-0.5-0.4-0.9-1-1.2-1.9c-0.3-0.8-0.4-1.9-0.4-3.1s0.1-2.2,0.4-3.1c0.3-0.9,0.7-1.5,1.2-1.9
			c0.5-0.4,1-0.6,1.6-0.6c0.6,0,1.1,0.2,1.6,0.6c0.5,0.4,0.9,1.1,1.2,1.9c0.3,0.8,0.4,1.9,0.4,3.1s-0.2,2.2-0.5,3.1
			c-0.3,0.8-0.7,1.5-1.2,1.9c-0.5,0.4-1,0.6-1.6,0.6C827.8,578.1,827.3,577.9,826.8,577.5z M829.8,576.4c0.3-0.8,0.5-2.1,0.5-3.8
			s-0.2-3-0.5-3.8c-0.3-0.9-0.8-1.3-1.4-1.3c-0.6,0-1.1,0.4-1.4,1.3c-0.3,0.9-0.5,2.1-0.5,3.8s0.2,3,0.5,3.8s0.8,1.3,1.4,1.3
			C829,577.6,829.4,577.2,829.8,576.4z"/>
		<path class="st2" d="M834.6,577.5c-0.5-0.4-0.9-1-1.2-1.9c-0.3-0.8-0.4-1.9-0.4-3.1s0.2-2.2,0.5-3.1c0.3-0.9,0.7-1.5,1.2-1.9
			c0.5-0.4,1-0.6,1.6-0.6c0.6,0,1.1,0.2,1.6,0.6c0.5,0.4,0.9,1.1,1.2,1.9c0.3,0.8,0.4,1.9,0.4,3.1s-0.2,2.2-0.5,3.1
			c-0.3,0.8-0.7,1.5-1.2,1.9s-1,0.6-1.6,0.6C835.6,578.1,835.1,577.9,834.6,577.5z M837.6,576.4c0.3-0.8,0.5-2.1,0.5-3.8
			s-0.2-3-0.5-3.8c-0.3-0.9-0.8-1.3-1.4-1.3c-0.6,0-1.1,0.4-1.4,1.3c-0.3,0.9-0.5,2.1-0.5,3.8s0.2,3,0.5,3.8
			c0.3,0.8,0.8,1.3,1.4,1.3C836.8,577.6,837.2,577.2,837.6,576.4z"/>
		<path class="st2" d="M842.4,577.5c-0.5-0.4-0.9-1-1.2-1.9c-0.3-0.8-0.4-1.9-0.4-3.1s0.1-2.2,0.4-3.1c0.3-0.9,0.7-1.5,1.2-1.9
			c0.5-0.4,1-0.6,1.6-0.6c0.6,0,1.1,0.2,1.6,0.6c0.5,0.4,0.9,1.1,1.2,1.9c0.3,0.8,0.4,1.9,0.4,3.1s-0.2,2.2-0.5,3.1
			c-0.3,0.8-0.7,1.5-1.2,1.9c-0.5,0.4-1,0.6-1.6,0.6C843.4,578.1,842.9,577.9,842.4,577.5z M845.4,576.4c0.3-0.8,0.5-2.1,0.5-3.8
			s-0.2-3-0.5-3.8c-0.3-0.9-0.8-1.3-1.4-1.3c-0.6,0-1.1,0.4-1.4,1.3c-0.3,0.9-0.5,2.1-0.5,3.8s0.2,3,0.5,3.8s0.8,1.3,1.4,1.3
			C844.6,577.6,845,577.2,845.4,576.4z"/>
		<path class="st2" d="M850.9,572.6c-0.1,0.1-0.1,0.1-0.1,0.2v2.3c0,1.1,0.1,2.2,0.1,3.3v0.1c0,0.1,0,0.2-0.1,0.3
			c-0.2,0.2-0.5,0.3-0.8,0.3c-0.1,0-0.2,0-0.2-0.1c-0.1-0.1-0.1-0.1-0.1-0.2c0-0.6,0.1-1.2,0.1-1.7c0-0.6,0-1.3,0.1-2.2v-5.7
			c0-1,0-1.8-0.1-2.6v-0.1c0-0.2,0.1-0.2,0.2-0.2c0,0,0.1,0,0.2,0l0.6,0.3c0.1,0.1,0.3,0.1,0.4,0.1h8.5c0.2,0,0.3-0.1,0.4-0.2
			l0.1-0.1c0,0,0.1-0.1,0.1-0.2c0.1-0.1,0.1-0.1,0.2-0.1c0.1,0,0.2,0.1,0.5,0.3c0.2,0.2,0.4,0.3,0.6,0.5c0,0.1,0.1,0.1,0.1,0.2
			c0,0.1,0,0.1-0.1,0.2c0,0-0.1,0-0.1,0c0,0-0.1,0-0.1,0c-0.2,0.1-0.3,0.2-0.3,0.3v10c0,0.4-0.1,0.7-0.3,0.9
			c-0.2,0.2-0.6,0.4-1.1,0.4l-0.1,0c-0.1,0-0.2-0.1-0.3-0.3c-0.1-0.2-0.2-0.3-0.3-0.4c-0.2-0.2-0.7-0.3-1.2-0.3
			c-0.2,0-0.3-0.1-0.3-0.2s0.1-0.1,0.3-0.1c1,0.1,1.6,0.1,1.9,0.1c0.2,0,0.3,0,0.3-0.1c0.1-0.1,0.1-0.2,0.1-0.3v-4.6
			c0-0.1,0-0.2-0.1-0.2c-0.1-0.1-0.1-0.1-0.2-0.1h-8.6C851,572.5,851,572.5,850.9,572.6z M854.8,567.2c-0.1-0.1-0.1-0.1-0.2-0.1
			h-3.4c-0.1,0-0.2,0-0.2,0.1c-0.1,0.1-0.1,0.1-0.1,0.2v4.3c0,0.1,0,0.2,0.1,0.2c0.1,0.1,0.1,0.1,0.2,0.1h3.4c0.1,0,0.2,0,0.2-0.1
			c0.1-0.1,0.1-0.1,0.1-0.2v-4.3C854.9,567.3,854.9,567.3,854.8,567.2z M855.9,567.2c-0.1,0.1-0.1,0.1-0.1,0.2v4.3
			c0,0.1,0,0.2,0.1,0.2c0.1,0.1,0.1,0.1,0.2,0.1h3.5c0.1,0,0.2,0,0.2-0.1c0.1-0.1,0.1-0.1,0.1-0.2v-4.3c0-0.1,0-0.2-0.1-0.2
			c-0.1-0.1-0.1-0.1-0.2-0.1h-3.5C856.1,567.1,856,567.2,855.9,567.2z"/>
	</g>
	<g class="st1">
		<path class="st2" d="M894.3,516.9c-0.1,0-0.1-0.1-0.1-0.2c0-0.2,0-0.2,0.1-0.2h0.2c0.5,0,0.9-0.1,1.2-0.2c0.3-0.1,0.4-0.4,0.4-0.7
			v-7.2c0-0.3,0-0.5-0.1-0.6c-0.1-0.1-0.2-0.2-0.4-0.2s-0.6-0.1-1.1-0.1h-0.3c-0.1,0-0.1-0.1-0.1-0.2c0-0.1,0-0.2,0.1-0.2
			c0.5,0,1-0.1,1.5-0.2s0.8-0.4,1.2-0.7c0.1-0.1,0.1-0.1,0.2-0.1c0.1,0,0.2,0.1,0.2,0.3v9.2c0,0.6,0.5,0.9,1.6,0.9h0.2
			c0,0,0.1,0,0.1,0.1c0,0,0,0.1,0,0.2c0,0.1,0,0.2-0.1,0.2H894.3z"/>
		<path class="st2" d="M905.3,510.1c0.5,0.2,0.9,0.6,1.2,1.1c0.4,0.5,0.5,1.2,0.5,2.2c0,0.7-0.2,1.4-0.5,1.9c-0.3,0.6-0.8,1-1.3,1.3
			c-0.5,0.3-1,0.5-1.5,0.5c-0.5,0-0.9-0.1-1.4-0.3c-0.4-0.2-0.8-0.4-1.1-0.8s-0.4-0.7-0.4-1.2c0-0.3,0.1-0.6,0.2-0.7
			c0.1-0.1,0.3-0.2,0.5-0.2c0.2,0,0.4,0.1,0.6,0.2s0.3,0.3,0.3,0.5c0,0.1,0,0.3-0.1,0.5c0,0,0,0.1,0,0.2c0,0.1,0,0.2,0,0.2
			c0,0.4,0.1,0.6,0.4,0.8c0.3,0.2,0.6,0.3,1,0.3c0.4,0,0.7-0.1,1-0.4c0.3-0.3,0.6-0.6,0.8-1.1c0.2-0.5,0.3-1,0.3-1.6
			c0-0.9-0.2-1.6-0.6-2.2c-0.4-0.5-0.9-0.8-1.5-0.8c-0.7,0-1.3,0.4-2,1.2c-0.1,0.1-0.1,0.1-0.2,0.2h-0.1c-0.1,0-0.1,0-0.1,0h0
			c-0.1-0.1-0.2-0.2-0.2-0.4l0.2-5.1c0-0.1,0-0.2,0.1-0.2c0.1-0.1,0.1-0.1,0.2-0.1h4.6c0.1,0,0.2,0,0.2,0.1c0.1,0.1,0.1,0.1,0,0.3
			l-0.1,0.5c0,0.1,0,0.2-0.1,0.2s-0.1,0.1-0.2,0.1h-4c-0.2,0-0.3,0.1-0.3,0.3l-0.1,3.1c0,0.1,0,0.2,0.2,0.2c0.1,0,0.2-0.1,0.4-0.2
			c0.3-0.2,0.6-0.4,0.9-0.5c0.3-0.1,0.6-0.1,0.9-0.1C904.4,509.9,904.8,510,905.3,510.1z"/>
		<path class="st2" d="M909,518.4C909,518.4,909,518.4,909,518.4c0-0.1,0-0.1,0-0.1c0.2-0.2,0.3-0.3,0.4-0.5
			c0.1-0.2,0.1-0.3,0.1-0.4c0-0.2-0.1-0.3-0.2-0.3c-0.2-0.1-0.3-0.2-0.4-0.3c-0.1-0.1-0.1-0.3-0.1-0.4c0-0.2,0.1-0.4,0.2-0.6
			s0.4-0.2,0.6-0.2s0.4,0.1,0.6,0.2s0.2,0.4,0.2,0.6c0,0.5-0.1,0.9-0.4,1.2c-0.3,0.4-0.6,0.7-0.9,0.9L909,518.4
			C909,518.5,909,518.5,909,518.4z"/>
		<path class="st2" d="M913.8,516.4c-0.5-0.4-0.9-1-1.2-1.9c-0.3-0.8-0.4-1.9-0.4-3.1s0.1-2.2,0.5-3.1c0.3-0.9,0.7-1.5,1.2-1.9
			c0.5-0.4,1-0.6,1.6-0.6c0.6,0,1.1,0.2,1.6,0.6c0.5,0.4,0.9,1.1,1.2,1.9c0.3,0.8,0.4,1.9,0.4,3.1s-0.2,2.2-0.4,3.1
			c-0.3,0.8-0.7,1.5-1.2,1.9c-0.5,0.4-1,0.6-1.6,0.6C914.8,517.1,914.3,516.9,913.8,516.4z M916.8,515.3c0.3-0.8,0.5-2.1,0.5-3.8
			s-0.2-3-0.5-3.8c-0.3-0.9-0.8-1.3-1.4-1.3c-0.6,0-1.1,0.4-1.4,1.3c-0.3,0.9-0.5,2.1-0.5,3.8s0.2,3,0.5,3.8
			c0.3,0.8,0.8,1.3,1.4,1.3C916,516.6,916.5,516.1,916.8,515.3z"/>
		<path class="st2" d="M921.6,516.4c-0.5-0.4-0.9-1-1.2-1.9c-0.3-0.8-0.4-1.9-0.4-3.1s0.2-2.2,0.4-3.1c0.3-0.9,0.7-1.5,1.2-1.9
			c0.5-0.4,1-0.6,1.6-0.6c0.6,0,1.1,0.2,1.6,0.6c0.5,0.4,0.9,1.1,1.2,1.9c0.3,0.8,0.4,1.9,0.4,3.1s-0.2,2.2-0.5,3.1
			c-0.3,0.8-0.7,1.5-1.2,1.9c-0.5,0.4-1,0.6-1.6,0.6C922.6,517.1,922.1,516.9,921.6,516.4z M924.6,515.3c0.3-0.8,0.5-2.1,0.5-3.8
			s-0.2-3-0.5-3.8c-0.3-0.9-0.8-1.3-1.4-1.3c-0.6,0-1.1,0.4-1.4,1.3c-0.3,0.9-0.5,2.1-0.5,3.8s0.2,3,0.5,3.8s0.8,1.3,1.4,1.3
			C923.8,516.6,924.3,516.1,924.6,515.3z"/>
		<path class="st2" d="M929.4,516.4c-0.5-0.4-0.9-1-1.2-1.9c-0.3-0.8-0.4-1.9-0.4-3.1s0.1-2.2,0.5-3.1c0.3-0.9,0.7-1.5,1.2-1.9
			c0.5-0.4,1-0.6,1.6-0.6c0.6,0,1.1,0.2,1.6,0.6c0.5,0.4,0.9,1.1,1.2,1.9c0.3,0.8,0.4,1.9,0.4,3.1s-0.2,2.2-0.4,3.1
			c-0.3,0.8-0.7,1.5-1.2,1.9c-0.5,0.4-1,0.6-1.6,0.6C930.4,517.1,929.9,516.9,929.4,516.4z M932.4,515.3c0.3-0.8,0.5-2.1,0.5-3.8
			s-0.2-3-0.5-3.8c-0.3-0.9-0.8-1.3-1.4-1.3c-0.6,0-1.1,0.4-1.4,1.3c-0.3,0.9-0.5,2.1-0.5,3.8s0.2,3,0.5,3.8
			c0.3,0.8,0.8,1.3,1.4,1.3C931.6,516.6,932.1,516.1,932.4,515.3z"/>
		<path class="st2" d="M937.9,511.5c-0.1,0.1-0.1,0.1-0.1,0.2v2.3c0,1.1,0.1,2.2,0.1,3.3v0.1c0,0.1,0,0.2-0.1,0.3
			c-0.2,0.2-0.5,0.3-0.8,0.3c-0.1,0-0.2,0-0.2-0.1c-0.1-0.1-0.1-0.1-0.1-0.2c0-0.6,0.1-1.2,0.1-1.7c0-0.6,0-1.3,0.1-2.2v-5.7
			c0-1,0-1.8-0.1-2.6v-0.1c0-0.2,0.1-0.2,0.2-0.2c0,0,0.1,0,0.2,0l0.6,0.3c0.1,0.1,0.3,0.1,0.4,0.1h8.5c0.2,0,0.3-0.1,0.4-0.2
			l0.1-0.1c0,0,0.1-0.1,0.1-0.2c0.1-0.1,0.1-0.1,0.2-0.1c0.1,0,0.2,0.1,0.5,0.3c0.2,0.2,0.4,0.3,0.6,0.5c0,0.1,0.1,0.1,0.1,0.2
			c0,0.1,0,0.1-0.1,0.2c0,0-0.1,0-0.1,0s-0.1,0-0.1,0c-0.2,0.1-0.3,0.2-0.3,0.3v10c0,0.4-0.1,0.7-0.3,0.9c-0.2,0.2-0.6,0.4-1.1,0.4
			l-0.1,0c-0.1,0-0.2-0.1-0.3-0.3c-0.1-0.2-0.2-0.3-0.3-0.4c-0.2-0.2-0.7-0.3-1.2-0.3c-0.2,0-0.3-0.1-0.3-0.2s0.1-0.1,0.3-0.1
			c1,0.1,1.6,0.1,1.9,0.1c0.2,0,0.3,0,0.3-0.1c0.1-0.1,0.1-0.2,0.1-0.3v-4.6c0-0.1,0-0.2-0.1-0.2c-0.1-0.1-0.1-0.1-0.2-0.1h-8.6
			C938.1,511.4,938,511.5,937.9,511.5z M941.8,506.1c-0.1-0.1-0.1-0.1-0.2-0.1h-3.4c-0.1,0-0.2,0-0.2,0.1c-0.1,0.1-0.1,0.1-0.1,0.2
			v4.3c0,0.1,0,0.2,0.1,0.2c0.1,0.1,0.1,0.1,0.2,0.1h3.4c0.1,0,0.2,0,0.2-0.1c0.1-0.1,0.1-0.1,0.1-0.2v-4.3
			C941.9,506.3,941.9,506.2,941.8,506.1z M943,506.1c-0.1,0.1-0.1,0.1-0.1,0.2v4.3c0,0.1,0,0.2,0.1,0.2c0.1,0.1,0.1,0.1,0.2,0.1h3.5
			c0.1,0,0.2,0,0.2-0.1c0.1-0.1,0.1-0.1,0.1-0.2v-4.3c0-0.1,0-0.2-0.1-0.2c-0.1-0.1-0.1-0.1-0.2-0.1h-3.5
			C943.1,506.1,943,506.1,943,506.1z"/>
	</g>
	<g class="st1">
		<path class="st2" d="M894.1,577.9c-0.1,0-0.1-0.1-0.1-0.2c0-0.2,0-0.2,0.1-0.2h0.2c0.5,0,0.9-0.1,1.2-0.2c0.3-0.1,0.4-0.4,0.4-0.7
			v-7.2c0-0.3,0-0.5-0.1-0.6c-0.1-0.1-0.2-0.2-0.4-0.2s-0.6-0.1-1.1-0.1h-0.3c-0.1,0-0.1-0.1-0.1-0.2c0-0.1,0-0.2,0.1-0.2
			c0.5,0,1-0.1,1.5-0.2s0.8-0.4,1.2-0.7c0.1-0.1,0.1-0.1,0.2-0.1c0.1,0,0.2,0.1,0.2,0.3v9.2c0,0.6,0.5,0.9,1.6,0.9h0.2
			c0,0,0.1,0,0.1,0.1c0,0,0,0.1,0,0.2c0,0.1,0,0.2-0.1,0.2H894.1z"/>
		<path class="st2" d="M902.4,577.5c-0.5-0.4-0.9-1-1.2-1.9c-0.3-0.8-0.4-1.9-0.4-3.1s0.2-2.2,0.5-3.1c0.3-0.9,0.7-1.5,1.2-1.9
			c0.5-0.4,1-0.6,1.6-0.6c0.6,0,1.1,0.2,1.6,0.6c0.5,0.4,0.9,1.1,1.2,1.9c0.3,0.8,0.4,1.9,0.4,3.1s-0.2,2.2-0.5,3.1
			c-0.3,0.8-0.7,1.5-1.2,1.9s-1,0.6-1.6,0.6C903.4,578.1,902.9,577.9,902.4,577.5z M905.4,576.4c0.3-0.8,0.5-2.1,0.5-3.8
			s-0.2-3-0.5-3.8c-0.3-0.9-0.8-1.3-1.4-1.3c-0.6,0-1.1,0.4-1.4,1.3c-0.3,0.9-0.5,2.1-0.5,3.8s0.2,3,0.5,3.8
			c0.3,0.8,0.8,1.3,1.4,1.3C904.6,577.6,905.1,577.2,905.4,576.4z"/>
		<path class="st2" d="M909.1,579.5C909.1,579.5,909.1,579.4,909.1,579.5c0-0.1,0-0.1,0-0.1c0.2-0.2,0.3-0.3,0.4-0.5
			c0.1-0.2,0.1-0.3,0.1-0.4c0-0.2-0.1-0.3-0.2-0.3c-0.2-0.1-0.3-0.2-0.4-0.3c-0.1-0.1-0.1-0.3-0.1-0.4c0-0.2,0.1-0.4,0.2-0.6
			s0.4-0.2,0.6-0.2c0.2,0,0.4,0.1,0.6,0.2s0.2,0.4,0.2,0.6c0,0.5-0.1,0.9-0.4,1.2c-0.3,0.4-0.6,0.7-0.9,0.9L909.1,579.5
			C909.2,579.5,909.2,579.5,909.1,579.5z"/>
		<path class="st2" d="M914,577.5c-0.5-0.4-0.9-1-1.2-1.9c-0.3-0.8-0.4-1.9-0.4-3.1s0.1-2.2,0.4-3.1c0.3-0.9,0.7-1.5,1.2-1.9
			c0.5-0.4,1-0.6,1.6-0.6c0.6,0,1.1,0.2,1.6,0.6c0.5,0.4,0.9,1.1,1.2,1.9c0.3,0.8,0.4,1.9,0.4,3.1s-0.2,2.2-0.5,3.1
			c-0.3,0.8-0.7,1.5-1.2,1.9c-0.5,0.4-1,0.6-1.6,0.6C915,578.1,914.5,577.9,914,577.5z M916.9,576.4c0.3-0.8,0.5-2.1,0.5-3.8
			s-0.2-3-0.5-3.8c-0.3-0.9-0.8-1.3-1.4-1.3c-0.6,0-1.1,0.4-1.4,1.3c-0.3,0.9-0.5,2.1-0.5,3.8s0.2,3,0.5,3.8s0.8,1.3,1.4,1.3
			C916.1,577.6,916.6,577.2,916.9,576.4z"/>
		<path class="st2" d="M921.8,577.5c-0.5-0.4-0.9-1-1.2-1.9c-0.3-0.8-0.4-1.9-0.4-3.1s0.2-2.2,0.5-3.1c0.3-0.9,0.7-1.5,1.2-1.9
			c0.5-0.4,1-0.6,1.6-0.6c0.6,0,1.1,0.2,1.6,0.6c0.5,0.4,0.9,1.1,1.2,1.9c0.3,0.8,0.4,1.9,0.4,3.1s-0.2,2.2-0.5,3.1
			c-0.3,0.8-0.7,1.5-1.2,1.9s-1,0.6-1.6,0.6C922.8,578.1,922.3,577.9,921.8,577.5z M924.7,576.4c0.3-0.8,0.5-2.1,0.5-3.8
			s-0.2-3-0.5-3.8c-0.3-0.9-0.8-1.3-1.4-1.3c-0.6,0-1.1,0.4-1.4,1.3c-0.3,0.9-0.5,2.1-0.5,3.8s0.2,3,0.5,3.8
			c0.3,0.8,0.8,1.3,1.4,1.3C923.9,577.6,924.4,577.2,924.7,576.4z"/>
		<path class="st2" d="M929.6,577.5c-0.5-0.4-0.9-1-1.2-1.9c-0.3-0.8-0.4-1.9-0.4-3.1s0.1-2.2,0.4-3.1c0.3-0.9,0.7-1.5,1.2-1.9
			c0.5-0.4,1-0.6,1.6-0.6c0.6,0,1.1,0.2,1.6,0.6c0.5,0.4,0.9,1.1,1.2,1.9c0.3,0.8,0.4,1.9,0.4,3.1s-0.2,2.2-0.5,3.1
			c-0.3,0.8-0.7,1.5-1.2,1.9c-0.5,0.4-1,0.6-1.6,0.6C930.6,578.1,930.1,577.9,929.6,577.5z M932.5,576.4c0.3-0.8,0.5-2.1,0.5-3.8
			s-0.2-3-0.5-3.8c-0.3-0.9-0.8-1.3-1.4-1.3c-0.6,0-1.1,0.4-1.4,1.3c-0.3,0.9-0.5,2.1-0.5,3.8s0.2,3,0.5,3.8s0.8,1.3,1.4,1.3
			C931.7,577.6,932.2,577.2,932.5,576.4z"/>
		<path class="st2" d="M938.1,572.6c-0.1,0.1-0.1,0.1-0.1,0.2v2.3c0,1.1,0.1,2.2,0.1,3.3v0.1c0,0.1,0,0.2-0.1,0.3
			c-0.2,0.2-0.5,0.3-0.8,0.3c-0.1,0-0.2,0-0.2-0.1c-0.1-0.1-0.1-0.1-0.1-0.2c0-0.6,0.1-1.2,0.1-1.7c0-0.6,0-1.3,0.1-2.2v-5.7
			c0-1,0-1.8-0.1-2.6v-0.1c0-0.2,0.1-0.2,0.2-0.2c0,0,0.1,0,0.2,0l0.6,0.3c0.1,0.1,0.3,0.1,0.4,0.1h8.5c0.2,0,0.3-0.1,0.4-0.2
			l0.1-0.1c0,0,0.1-0.1,0.1-0.2c0.1-0.1,0.1-0.1,0.2-0.1c0.1,0,0.2,0.1,0.5,0.3c0.2,0.2,0.4,0.3,0.6,0.5c0,0.1,0.1,0.1,0.1,0.2
			c0,0.1,0,0.1-0.1,0.2c0,0-0.1,0-0.1,0c0,0-0.1,0-0.1,0c-0.2,0.1-0.3,0.2-0.3,0.3v10c0,0.4-0.1,0.7-0.3,0.9
			c-0.2,0.2-0.6,0.4-1.1,0.4l-0.1,0c-0.1,0-0.2-0.1-0.3-0.3c-0.1-0.2-0.2-0.3-0.3-0.4c-0.2-0.2-0.7-0.3-1.2-0.3
			c-0.2,0-0.3-0.1-0.3-0.2s0.1-0.1,0.3-0.1c1,0.1,1.6,0.1,1.9,0.1c0.2,0,0.3,0,0.3-0.1c0.1-0.1,0.1-0.2,0.1-0.3v-4.6
			c0-0.1,0-0.2-0.1-0.2c-0.1-0.1-0.1-0.1-0.2-0.1h-8.6C938.2,572.5,938.1,572.5,938.1,572.6z M942,567.2c-0.1-0.1-0.1-0.1-0.2-0.1
			h-3.4c-0.1,0-0.2,0-0.2,0.1c-0.1,0.1-0.1,0.1-0.1,0.2v4.3c0,0.1,0,0.2,0.1,0.2c0.1,0.1,0.1,0.1,0.2,0.1h3.4c0.1,0,0.2,0,0.2-0.1
			c0.1-0.1,0.1-0.1,0.1-0.2v-4.3C942.1,567.3,942,567.3,942,567.2z M943.1,567.2c-0.1,0.1-0.1,0.1-0.1,0.2v4.3c0,0.1,0,0.2,0.1,0.2
			c0.1,0.1,0.1,0.1,0.2,0.1h3.5c0.1,0,0.2,0,0.2-0.1c0.1-0.1,0.1-0.1,0.1-0.2v-4.3c0-0.1,0-0.2-0.1-0.2c-0.1-0.1-0.1-0.1-0.2-0.1
			h-3.5C943.2,567.1,943.2,567.2,943.1,567.2z"/>
	</g>
</g>
</svg>
