<?xml version="1.0" encoding="UTF-8"?>
<svg id="_レイヤー_2" data-name="レイヤー 2" xmlns="http://www.w3.org/2000/svg" viewBox="0 0 335.5 372.29">
  <defs>
    <style>
      .cls-1 {
        fill: #fff;
        stroke-width: 0px;
      }

      .cls-2 {
        fill: none;
        stroke: #707070;
      }
    </style>
  </defs>
  <g id="_レイヤー_1-2" data-name="レイヤー 1">
    <path id="_パス_1719" data-name="パス 1719" class="cls-2" d="m0,62.5h335.5"/>
    <path id="_パス_1721" data-name="パス 1721" class="cls-2" d="m0,124.5h335.5"/>
    <path id="_パス_1726" data-name="パス 1726" class="cls-2" d="m0,186.5h335.5"/>
    <path id="_パス_1729" data-name="パス 1729" class="cls-2" d="m0,247.5h335.5"/>
    <path id="_パス_1738" data-name="パス 1738" class="cls-2" d="m0,309.5h335.5"/>
    <path id="_パス_1751" data-name="パス 1751" class="cls-2" d="m0,371.5h335.5"/>
    <path id="_パス_1720" data-name="パス 1720" class="cls-2" d="m84,.5v371.79"/>
    <path id="_パス_1722" data-name="パス 1722" class="cls-1" d="m24.04,90.26c.15,0,.29-.07.38-.2l.15-.19.13-.17c.04-.06.09-.12.14-.17.03-.04.07-.06.12-.06.18.06.34.16.47.29.2.15.38.33.55.52.04.05.07.11.07.18,0,.07-.04.13-.09.16-.08.05-.17.08-.27.07h-4.08c-.09,0-.17.02-.23.08-.06.06-.09.15-.08.23v.72c0,.09.02.17.08.23.06.06.15.09.23.08h3.49c.15,0,.29-.07.38-.2l.18-.24s.07-.1.14-.19c.05-.07.1-.13.16-.19.03-.04.08-.06.13-.07.19.07.37.18.51.33.22.17.42.37.6.59.04.05.07.11.07.18,0,.07-.04.13-.09.16-.09.05-.18.08-.28.07h-5.88c-.14,0-.28.05-.39.15-.53.49-1.08.94-1.66,1.36-.08.04-.13.12-.14.21,0,.09.05.17.12.22.18.18.29.42.3.68,0,.11-.03.23-.11.32-.08.08-.19.13-.3.12h-.03c-.06,0-.12-.02-.17-.06-.07-.04-.13-.1-.17-.16-.26-.31-.55-.58-.88-.82-.35-.27-.73-.51-1.12-.71-.19-.11-.27-.19-.24-.24.05-.07.15-.09.32-.06.54.05,1.06.18,1.56.39.06.03.12.04.18.05.11,0,.2-.06.26-.15.25-.35.46-.65.63-.9.04-.05.06-.11.06-.18,0-.13-.09-.2-.27-.2h-1.97c-.66.01-1.32.07-1.98.16h-.09c-.13,0-.25-.07-.3-.2l-.07-.13c-.03-.05-.04-.11-.04-.16,0-.15.1-.22.3-.2.34.03.86.06,1.54.08h3.68c.09,0,.17-.02.23-.08.06-.06.09-.15.08-.23v-.72c0-.09-.02-.17-.08-.23-.06-.06-.15-.09-.23-.08h-1.66c-.66.01-1.32.07-1.98.16h-.09c-.13,0-.25-.08-.3-.2l-.06-.12c-.03-.06-.04-.12-.05-.18,0-.06.03-.11.08-.14.06-.04.14-.05.21-.04.34.03.86.06,1.55.07h2.31c.09,0,.17-.02.23-.08.06-.06.08-.14.08-.22v-.7c0-.09-.02-.17-.08-.23-.06-.06-.15-.09-.23-.08h-2.24c-.66.01-1.32.07-1.98.16h-.09c-.13,0-.25-.08-.3-.2l-.06-.12c-.03-.06-.04-.12-.04-.18,0-.06.03-.11.07-.14.06-.04.14-.05.21-.04.34.03.86.06,1.55.07h2.88c.15.02.29-.08.32-.24,0-.03,0-.05,0-.08l-.05-.82v-.03c0-.18.08-.27.22-.27l.14.03c.27.09.53.19.79.31.15.08.22.15.22.22,0,.05-.04.1-.12.15l-.05.03c-.13.08-.2.22-.2.38v.02c0,.09.02.17.08.23.06.06.15.09.23.08h2.94c.15,0,.29-.07.38-.19l.16-.23c.04-.05.09-.11.14-.19.04-.06.09-.12.14-.17.03-.04.07-.06.12-.06.19.06.37.17.52.31.22.16.42.34.59.55.04.05.07.11.07.18,0,.07-.04.13-.09.16-.09.05-.18.08-.28.07h-4.69c-.09,0-.17.02-.23.08-.06.06-.09.15-.08.23v.7c0,.09.02.17.08.23.06.06.15.09.23.08h2.43Zm-3.86,5.51c-.11.08-.16.15-.16.21,0,.04.03.08.07.1.06.03.12.03.19.02l4.12-.09c.07,0,.15-.01.21-.05.05-.03.07-.07.07-.13,0-.07-.05-.14-.15-.21-.29-.22-.59-.43-.9-.61-.19-.11-.27-.2-.23-.26.04-.03.09-.05.14-.05.06,0,.12,0,.18.01.65.12,1.27.34,1.85.65.41.21.77.5,1.06.86.19.22.31.51.33.8,0,.13-.04.26-.12.36-.08.09-.2.14-.31.13h-.08c-.14-.04-.26-.14-.31-.27-.17-.27-.37-.52-.59-.75-.1-.11-.24-.16-.39-.15-1.02.1-2.22.2-3.59.32-.16,0-.29.12-.3.28,0,.01,0,.02,0,.04v.98c.03.98.06,1.72.08,2.22v.07c.01.12-.05.24-.15.3-.21.14-.47.21-.72.2-.07,0-.14-.03-.19-.09-.06-.06-.09-.14-.08-.21.06-.78.1-1.57.12-2.37v-1.01c0-.22-.11-.32-.33-.3l-4.26.29c-.11,0-.21.03-.3.09l-.06.08s-.09.07-.15.08c-.06,0-.11-.02-.15-.06-.05-.04-.08-.09-.1-.15l-.24-.54c-.02-.05-.03-.11-.03-.16,0-.06.02-.11.07-.15.05-.04.12-.06.19-.06.97,0,2.19-.02,3.67-.05.14,0,.29-.05.4-.13.44-.32.89-.69,1.37-1.1.69-.57,1.29-1.23,1.79-1.97.04-.1.14-.17.26-.16.07,0,.13.02.18.06.63.34.94.57.94.68,0,.04-.05.07-.14.09h-.06c-.12,0-.23.05-.31.14-.89.77-1.85,1.46-2.88,2.04Zm-2.28,1.84c.05-.08.14-.14.24-.15.07,0,.14.04.2.09l.28.24s.13.09.33.23c.22.13.33.23.33.28,0,.06-.05.09-.16.09h-.03c-.14,0-.28.04-.39.13-.55.39-1.14.74-1.75,1.04-.67.33-1.35.62-2.06.85l-.2.03c-.05,0-.1-.02-.13-.06-.01-.01-.01-.03,0-.05,0-.06.07-.13.22-.22.41-.21.8-.45,1.18-.71.38-.26.74-.54,1.08-.85.32-.28.61-.6.87-.94Zm4.74.45c-.19-.09-.27-.17-.24-.24.04-.05.15-.07.33-.06.78.1,1.55.31,2.28.62.49.2.93.49,1.31.86.23.21.38.5.41.81,0,.12-.04.24-.12.32-.09.08-.21.12-.33.11h-.01c-.06,0-.11-.02-.16-.05-.06-.02-.11-.06-.15-.11-.44-.45-.92-.84-1.45-1.18-.6-.4-1.22-.76-1.87-1.08h0Zm17.75-8.22c.15,0,.29-.07.38-.2l.09-.12.1-.14c.03-.05.07-.1.12-.14.03-.03.07-.04.11-.05.16.05.31.13.43.25.19.14.36.29.51.47.04.04.06.09.06.15,0,.09-.05.17-.14.2-.01.01-.03.02-.05.02-.03,0-.06.02-.08.04-.17.03-.29.18-.28.35v6.05c.02,1.09.05,2.19.1,3.3v.08c.01.12-.05.24-.15.3-.22.17-.49.26-.76.25-.08,0-.14-.05-.17-.12-.02-.04-.03-.09-.03-.13,0-.08.02-.15.03-.23,0-.02.01-.14.03-.36v-.1c0-.09-.02-.17-.08-.23-.06-.06-.15-.09-.23-.08h-4.8c-.08,0-.16.03-.23.08-.06.06-.09.15-.08.23v.05c.02.24.03.37.03.41v.1c0,.1-.03.2-.1.27-.19.17-.44.26-.7.24-.08,0-.16-.04-.22-.1-.06-.05-.1-.12-.1-.2.04-.59.07-1.16.1-1.72.03-.56.05-1.28.06-2.18v-4.2c0-.88-.04-1.76-.14-2.64v-.06c0-.15.07-.23.19-.23.05,0,.1,0,.15.03l.69.3c.12.05.25.08.38.07h.93c.17.02.32-.09.34-.26,0,0,0,0,0,0,.16-.76.26-1.52.3-2.3,0-.09.04-.18.11-.23.07-.05.16-.06.25-.04l1.11.27c.07.01.14.05.19.1.04.03.07.08.08.14,0,.05-.04.1-.09.12l-.09.05c-.06.02-.11.05-.17.07-.08.04-.15.11-.19.2-.2.38-.49.89-.85,1.52-.04.05-.06.11-.06.18,0,.13.09.2.27.2h2.65Zm-9.68-2.3c-.16-.13-.23-.22-.2-.27.03-.02.08-.04.12-.03.07,0,.13,0,.19.02.58.08,1.14.31,1.6.68.3.23.49.57.52.94,0,.15-.04.3-.14.41-.09.11-.22.16-.36.16-.05,0-.1,0-.15-.02-.13-.04-.23-.14-.27-.27-.14-.3-.32-.58-.54-.83-.24-.28-.5-.54-.78-.78h0Zm-1.11,9.19c0-.11.1-.16.32-.16h.34c.07,0,.14-.01.2-.05.07-.07.13-.16.16-.26.22-.43.82-1.75,1.78-3.96l.98-2.19c.08-.18.16-.27.24-.27.07,0,.1.05.1.15,0,.07-.02.14-.05.2l-.75,2.07-.65,1.81c-.34.96-.55,1.56-.62,1.81-.13.42-.22.86-.24,1.3,0,.15.02.3.06.45.04.17.07.29.08.36.07.29.12.55.17.77.04.26.06.51.06.77.02.31-.05.62-.19.9-.13.21-.36.33-.6.31-.22,0-.37-.18-.43-.54-.01-.07-.02-.13-.01-.2,0-.06,0-.13.01-.19.05-.55.08-.99.08-1.32,0-.31-.02-.62-.08-.92-.02-.18-.1-.35-.23-.47-.12-.1-.27-.16-.42-.18-.2-.03-.3-.09-.3-.19Zm10.77-2.55c.09,0,.17-.02.23-.08.06-.06.09-.15.08-.23v-3.27c0-.09-.02-.17-.08-.23-.06-.06-.15-.09-.23-.08h-4.8c-.08,0-.17.03-.23.08-.06.06-.09.15-.08.23v3.27c0,.09.02.17.08.23.06.06.15.09.23.08h4.8Zm-10.89-3.32c-.17-.12-.24-.2-.21-.26.04-.04.1-.07.16-.06.05,0,.1,0,.15.02.56.06,1.1.28,1.56.61.29.2.48.53.51.89,0,.14-.04.28-.14.38-.08.1-.21.16-.34.16-.05,0-.1,0-.15-.01-.13-.04-.23-.14-.27-.27-.13-.27-.31-.53-.52-.75-.23-.26-.49-.49-.76-.7Zm6.09,3.75c-.08,0-.17.02-.23.08-.06.06-.09.15-.08.23v3.69c0,.09.02.17.08.23.06.06.15.09.23.08h4.8c.09,0,.17-.02.23-.08.06-.06.09-.15.08-.23v-3.69c0-.09-.02-.17-.08-.23-.06-.06-.15-.09-.23-.08h-4.8Zm16.03,2.58c0,.17.12.31.28.33.58.19,1.13.47,1.63.84.38.25.62.67.64,1.13.01.11-.02.23-.1.31-.06.05-.14.08-.22.08-.22-.02-.43-.12-.58-.29-.07-.06-.24-.21-.5-.44-.26-.24-.53-.45-.79-.65-.05-.05-.11-.08-.18-.08-.1,0-.17.08-.22.23-.15.42-.45.78-.83,1.01-.45.26-.96.38-1.47.37-.54,0-1.08-.12-1.56-.38-.42-.2-.69-.62-.69-1.09,0-.32.13-.63.37-.85.26-.24.57-.42.92-.52.36-.11.73-.17,1.1-.17.37.01.74.06,1.1.13l.09.02c.18,0,.26-.1.24-.3-.02-.2-.04-.56-.06-1.07-.02-.18-.04-.47-.06-.87-.02-.22-.13-.31-.35-.28-.41.08-.83.12-1.24.12-.48.01-.96-.09-1.39-.31-.37-.19-.67-.49-.85-.86-.02-.05-.04-.11-.04-.16,0-.05.02-.07.06-.07.04,0,.07.02.1.05.03.02.06.04.09.06.25.16.51.29.78.4.36.14.74.21,1.12.2.46-.01.91-.06,1.37-.14.19-.03.28-.11.28-.26v-.2c0-.62.01-1.24.04-1.88v-.09c0-.15-.03-.23-.09-.23h-.12c-.26,0-.51-.04-.75-.14-.22-.1-.43-.22-.62-.38-.18-.13-.34-.29-.48-.47-.05-.07-.08-.14-.1-.23,0-.03.02-.06.04-.06,0,0,.01,0,.02,0,.08,0,.17.03.24.07l.31.16c.14.09.28.16.44.22.16.05.33.07.5.07.16,0,.31-.02.47-.06.17-.02.3-.15.31-.31.05-.3.08-.6.09-.9,0-.28-.05-.56-.17-.81-.08-.14-.17-.28-.28-.4-.05-.06-.09-.12-.13-.18-.03-.04-.05-.1-.06-.15,0-.06.04-.12.1-.15.08-.04.16-.06.25-.06.15.01.3.05.44.11.19.08.37.19.51.35.15.16.23.37.22.59,0,.2-.04.4-.09.59-.06.26-.12.49-.19.71.01.07.04.14.09.2.04.09.15.13.24.1l.44-.14c.08-.03.17-.04.26-.05.1,0,.19.02.27.07.07.05.11.14.1.23,0,.11-.04.21-.11.3-.08.11-.2.19-.32.24-.3.13-.6.23-.92.3-.17.02-.29.16-.3.33-.04.47-.06.99-.06,1.56,0,.13,0,.25.01.38,0,.09.03.17.1.22.08.05.18.06.26.03.29-.09.56-.21.81-.38.13-.07.21-.2.22-.34-.04-.19-.13-.37-.27-.51-.02-.03-.05-.07-.08-.11-.04-.05-.07-.09-.1-.14-.05-.07-.08-.14-.1-.22,0-.02.01-.04.03-.05,0,0,0,0,.01,0,.1.03.19.09.27.16.24.19.51.33.81.39.11.03.23.05.35.06.13,0,.26.06.36.15.08.09.11.2.1.32,0,.16-.06.32-.15.45-.12.16-.28.29-.47.38-.59.25-1.19.45-1.81.59-.2.06-.28.22-.26.49.03.34.1.87.21,1.61l.09.7Zm-2.65,2.1c.44.02.87-.09,1.25-.31.32-.19.54-.51.61-.88v-.08c0-.14-.09-.27-.22-.3-.43-.16-.89-.24-1.35-.24-.41,0-.81.09-1.18.28-.31.12-.52.41-.53.74.02.26.19.49.44.57.31.14.64.22.98.21Zm17.4-9.11c.4.02.78.19,1.05.48.38.38.66.84.83,1.35.22.65.33,1.33.32,2.01.05,1.35-.3,2.68-.98,3.84-.77,1.13-1.92,1.94-3.23,2.3-.09.03-.18.06-.27.06-.09,0-.13-.03-.13-.1,0-.05.03-.09.08-.1,1.19-.45,2.17-1.33,2.74-2.46.52-1.07.79-2.25.79-3.44.02-.82-.11-1.64-.38-2.41-.25-.67-.58-1-1.01-1-.39.04-.75.26-.94.61-.32.44-.56.92-.74,1.43-.17.43-.26.89-.28,1.36,0,.17.03.33.08.49.07.18.15.36.25.53.06.12.12.24.17.38.04.1.07.22.08.33,0,.09-.03.18-.1.25-.07.07-.16.1-.26.1-.26,0-.51-.14-.66-.35-.2-.26-.35-.55-.43-.87-.09-.32-.14-.65-.14-.98,0-.48.06-.97.16-1.44.1-.54.25-1.2.43-1.96.09-.38.17-.75.24-1.1.05-.25.09-.5.1-.75,0-.22-.08-.43-.22-.59-.06-.07-.13-.14-.2-.2-.09-.07-.13-.14-.13-.19s.03-.09.1-.12c.08-.03.17-.05.26-.05.26,0,.5.13.65.34.19.25.28.55.27.86,0,.34-.04.67-.13,1-.09.33-.21.77-.38,1.3l-.15.45s.08.06.13.06c.08,0,.15-.06.22-.16.35-.71,1.06-1.18,1.85-1.23Z"/>
    <path id="_パス_1724" data-name="パス 1724" class="cls-1" d="m20.6,161.75c-.07,0-.1-.07-.1-.21,0-.15.03-.23.1-.23h.24c.41.02.81-.06,1.19-.23.28-.12.46-.4.45-.7v-7.19c.02-.21-.01-.41-.08-.61-.09-.13-.23-.2-.39-.21-.38-.04-.76-.06-1.15-.05h-.25c-.07,0-.1-.07-.1-.23,0-.14.03-.21.1-.21.49,0,.99-.06,1.46-.2.45-.14.87-.36,1.24-.65.06-.05.13-.08.2-.09.12,0,.18.09.18.27v9.16c0,.62.55.93,1.63.93h.22s.07.02.08.05c.02.06.02.11.02.17,0,.14-.04.21-.11.21h-4.93Zm18-9.77c.15,0,.29-.07.38-.2l.09-.12.1-.14c.03-.05.07-.1.12-.14.03-.03.07-.04.11-.05.16.05.31.13.43.25.19.14.36.29.51.47.04.04.06.09.06.15,0,.09-.05.17-.14.2-.01.01-.03.02-.05.02-.03,0-.06.02-.08.04-.17.03-.29.18-.28.35v6.05c.02,1.09.05,2.19.1,3.3v.08c.01.12-.05.24-.15.3-.22.17-.49.26-.76.25-.08,0-.14-.05-.17-.12-.02-.04-.03-.09-.03-.13,0-.08.02-.15.03-.23,0-.02.01-.14.03-.36v-.1c0-.09-.02-.17-.08-.23-.06-.06-.15-.09-.23-.08h-4.8c-.09,0-.17.02-.23.08-.06.06-.09.15-.08.23v.05c.02.24.03.37.03.41v.1c0,.1-.03.2-.1.27-.19.17-.44.26-.7.24-.08,0-.16-.04-.22-.1-.06-.05-.1-.12-.1-.2.04-.59.07-1.16.1-1.72.03-.56.05-1.28.06-2.18v-4.2c0-.88-.04-1.76-.14-2.64v-.06c0-.15.07-.23.19-.23.05,0,.1,0,.15.03l.69.3c.12.05.25.08.38.07h.93c.17.02.32-.09.34-.26,0,0,0,0,0,0,.16-.76.26-1.52.3-2.3,0-.09.04-.18.11-.23.07-.05.16-.06.25-.04l1.11.27c.07.01.14.05.19.1.04.03.07.08.08.14,0,.05-.04.1-.09.12l-.09.05c-.06.02-.11.05-.17.07-.08.04-.15.11-.19.2-.2.38-.48.89-.85,1.52-.04.05-.06.11-.06.18,0,.13.09.2.27.2h2.65Zm-9.68-2.3c-.16-.13-.23-.22-.2-.27.03-.02.08-.04.12-.03.07,0,.13,0,.19.02.58.08,1.14.31,1.6.68.3.23.49.57.52.94,0,.15-.04.3-.14.41-.09.11-.22.16-.36.16-.05,0-.1,0-.15-.02-.13-.04-.23-.14-.27-.27-.14-.3-.32-.58-.54-.83-.24-.28-.5-.54-.78-.78h0Zm-1.11,9.19c0-.11.1-.16.31-.16h.35c.07,0,.14-.01.2-.05.07-.07.13-.16.16-.26.22-.43.81-1.75,1.78-3.96l.98-2.19c.08-.18.16-.27.24-.27s.11.05.1.15c0,.07-.02.14-.05.2l-.74,2.07-.65,1.81c-.35.96-.55,1.56-.62,1.81-.13.42-.22.86-.24,1.3,0,.15.02.3.06.45.04.17.06.29.07.36.07.29.12.55.16.77.04.26.06.51.06.77.02.31-.05.62-.19.9-.13.21-.36.33-.6.31-.23,0-.38-.18-.44-.54-.01-.07-.02-.13-.02-.2,0-.06,0-.13.02-.19.05-.55.07-.99.07-1.32,0-.31-.02-.62-.07-.92-.02-.18-.1-.35-.23-.47-.12-.1-.27-.16-.42-.18-.2-.03-.3-.09-.3-.19Zm10.77-2.55c.09,0,.17-.02.23-.08.06-.06.09-.15.08-.23v-3.27c0-.09-.02-.17-.08-.23-.06-.06-.15-.09-.23-.08h-4.8c-.09,0-.17.02-.23.08-.06.06-.09.15-.08.23v3.27c0,.09.02.17.08.23.06.06.15.09.23.08h4.8Zm-10.89-3.31c-.17-.12-.24-.2-.21-.26.04-.04.1-.07.16-.06.05,0,.1,0,.15.02.56.06,1.1.28,1.56.61.29.2.48.53.51.89,0,.14-.04.28-.14.38-.08.1-.21.16-.35.16-.05,0-.1,0-.15-.01-.13-.04-.23-.14-.27-.27-.13-.27-.31-.53-.52-.75-.23-.26-.48-.49-.76-.7Zm6.09,3.75c-.09,0-.17.02-.23.08-.06.06-.09.15-.08.23v3.69c0,.09.02.17.08.23.06.06.15.09.23.08h4.8c.09,0,.17-.02.23-.08.06-.06.09-.15.08-.23v-3.69c0-.09-.02-.17-.08-.23-.06-.06-.15-.09-.23-.08h-4.8Zm14.17,4.72c-.02.17-.18.29-.34.27h-4.92c-.18,0-.29-.06-.33-.17-.03-.06-.04-.12-.05-.18,0-.07.02-.13.05-.19.28-.7.64-1.37,1.07-2,.42-.62.97-1.33,1.65-2.14.59-.66,1.12-1.36,1.59-2.11.32-.51.49-1.1.5-1.7,0-.51-.15-1.01-.45-1.43-.34-.43-.87-.66-1.41-.61-.43-.01-.85.11-1.2.35-.3.18-.49.51-.5.86,0,.11.01.22.05.33.04.11.1.21.17.3.06.09.11.19.16.29.04.1.05.2.05.31,0,.21-.07.42-.22.58-.15.15-.35.23-.56.22-.22,0-.42-.12-.55-.29-.18-.23-.26-.51-.25-.8.01-.41.13-.81.34-1.17.24-.43.6-.79,1.02-1.04.51-.3,1.09-.45,1.67-.43.61-.03,1.21.12,1.74.43.41.25.74.62.94,1.07.18.42.27.87.27,1.32.01.38-.06.75-.2,1.11-.14.32-.33.61-.57.87-.24.27-.6.62-1.08,1.06-.11.11-.25.24-.42.39s-.36.34-.58.55c-.82.81-1.52,1.74-2.07,2.76-.03.05-.04.11-.05.16,0,.14.1.21.28.21h1.36c.55.02,1.1-.03,1.64-.13.31-.06.6-.22.82-.46.24-.32.42-.68.55-1.07.02-.06.05-.09.1-.09.05,0,.09.02.14.03.05.01.09.03.14.06.03.02.05.05.05.09v.08s-.59,2.31-.59,2.31Zm11.16-7.86c.15,0,.3-.08.38-.21l.08-.1.1-.14c.03-.05.07-.1.12-.14.03-.03.07-.04.11-.05.16.05.31.14.43.26.18.14.35.31.49.49.04.04.06.09.06.15,0,.08-.05.16-.12.2l-.06.03c-.16.04-.27.18-.27.34v1.02c.02.97.05,1.72.08,2.27v.08c.01.12-.04.23-.13.3-.11.08-.23.15-.36.2-.12.05-.25.08-.38.08-.04,0-.08-.03-.1-.06-.03-.05-.05-.11-.04-.16,0-.07-.03-.13-.08-.16-.07-.04-.15-.07-.23-.06h-1.92c-.07,0-.14.02-.19.06-.05.04-.08.09-.08.15,0,.06.02.11.04.16.36.58.82,1.1,1.35,1.54.06.07.14.11.22.12.05,0,.1-.02.13-.04.39-.27.77-.57,1.12-.89.33-.29.63-.62.89-.97.05-.09.14-.15.24-.15.08,0,.15.04.21.09.6.45.9.73.9.84,0,.05-.05.07-.15.08h-.04c-.14,0-.27.04-.39.11-.7.4-1.43.75-2.17,1.05-.13.06-.2.13-.19.23,0,.09.06.16.17.21,1.15.64,2.4,1.08,3.7,1.29.21.05.31.1.3.15-.02.05-.05.08-.1.1-.06.03-.11.05-.15.07-.22.11-.39.29-.48.51-.06.16-.23.25-.4.21-1.26-.34-2.43-.92-3.46-1.73-.95-.79-1.68-1.8-2.13-2.94-.06-.15-.21-.25-.38-.24h-1.84c-.09,0-.17.02-.23.08-.06.06-.09.14-.08.23v2.6c0,.09.03.18.09.24.07.05.17.07.26.05l3-.51c.06-.01.12-.02.18-.01.09,0,.15.03.17.08h0c0,.09-.08.17-.26.22-2.1.67-3.89,1.2-5.37,1.6-.1.01-.19.06-.27.13,0,.03-.02.05-.03.07-.03.06-.1.1-.17.1-.1,0-.19-.07-.26-.19l-.33-.61c-.03-.05-.04-.11-.05-.17,0-.14.08-.21.24-.22.58-.08,1.11-.16,1.59-.24.17,0,.29-.15.29-.31,0,0,0-.01,0-.02v-7.38c0-.18-.06-.27-.19-.27-.07,0-.13.02-.18.06-.7.42-1.42.79-2.16,1.12-.19.08-.3.09-.33.01v-.03c0-.06.07-.14.23-.22.75-.42,1.46-.9,2.14-1.42.7-.52,1.35-1.1,1.97-1.72.59-.56,1.05-1.24,1.35-1.99.03-.13.14-.22.27-.23.04,0,.08,0,.12.02l1.17.33c.07.02.13.05.18.1.04.03.07.09.08.14,0,.06-.03.09-.1.1-.06.05-.1.13-.1.21,0,.07.04.13.09.18.73.65,1.54,1.21,2.41,1.66.99.53,2.02.98,3.08,1.35.07.02.14.05.2.09.04.02.06.06.06.1,0,.05-.03.09-.08.11-.06.04-.12.07-.18.1-.19.1-.36.25-.47.43-.08.13-.17.2-.26.2-.05,0-.1-.02-.15-.05-1.01-.47-1.97-1.05-2.86-1.74-.81-.6-1.54-1.32-2.15-2.13-.05-.08-.13-.14-.22-.15-.09,0-.16.05-.21.12-.97,1.04-2.06,1.96-3.26,2.73-.08.04-.14.12-.15.21,0,.09.06.16.18.23l.33.16c.12.06.25.09.39.09h1.62c.15.02.29-.08.31-.24,0-.03,0-.05,0-.08-.02-.58-.04-.99-.06-1.22v-.06c0-.15.07-.23.21-.23.05,0,.1.02.15.03.26.08.51.18.76.29.14.08.22.14.22.2,0,.04-.03.09-.1.14v.02c-.14.09-.21.23-.21.38v.45c0,.09.02.17.08.23.06.06.15.09.23.08h1.57Zm.04,1.9c.09,0,.17-.02.23-.08.06-.06.09-.15.08-.23v-.86c0-.09-.02-.17-.08-.23-.06-.06-.15-.09-.23-.08h-4.8c-.09,0-.17.02-.23.08-.06.06-.09.15-.08.23v.86c0,.09.02.17.08.23.06.06.15.09.23.08h4.8Zm-4.8.45c-.09,0-.17.02-.23.08-.06.06-.09.15-.08.23v.9c0,.09.02.17.08.23.06.06.15.09.23.08h4.8c.09,0,.17-.02.23-.08.06-.06.09-.15.08-.23v-.9c0-.09-.02-.17-.08-.23-.06-.06-.15-.09-.23-.08h-4.8Z"/>
    <path id="_パス_1727" data-name="パス 1727" class="cls-1" d="m30.79,212.73c.15,0,.3-.06.39-.18l.12-.14s.07-.08.13-.14c.04-.05.09-.1.14-.14.03-.03.08-.04.12-.05.07,0,.22.1.46.31.2.17.38.36.55.56.04.04.06.09.06.15,0,.09-.07.17-.15.19-.07.03-.15.05-.23.06-.16.02-.3.13-.35.28-.57,1.72-1.4,3.34-2.46,4.81-.97,1.31-2.18,2.42-3.56,3.27-1.57.94-3.26,1.65-5.03,2.11l-.18.03c-.09,0-.15-.02-.16-.08v-.03c0-.09.08-.16.25-.23,1.58-.56,3.08-1.32,4.47-2.25,1.25-.87,2.35-1.95,3.24-3.19.98-1.4,1.75-2.94,2.28-4.56.02-.04.03-.09.03-.14,0-.06-.03-.13-.07-.16-.06-.04-.14-.06-.21-.06h-4.76c-.16,0-.3.07-.38.21-.3.45-.7.99-1.18,1.62-.06.05-.09.12-.09.2,0,.1.07.18.22.22.59.2,1.16.48,1.68.83.37.25.7.57.95.93.17.24.28.53.3.83,0,.15-.04.29-.12.41-.08.1-.2.16-.33.16l-.18-.03c-.06-.02-.12-.05-.16-.1-.04-.05-.08-.11-.13-.19-.26-.48-.58-.91-.96-1.3-.43-.46-.9-.87-1.4-1.25-.05-.05-.12-.07-.19-.07-.09,0-.18.05-.24.12-.84.93-1.79,1.76-2.82,2.48-.15.11-.25.14-.32.07-.01-.01-.02-.03-.01-.05,0-.05.06-.14.18-.26.82-.73,1.57-1.54,2.23-2.42.69-.9,1.31-1.86,1.85-2.86.41-.75.73-1.55.95-2.39.03-.15.11-.23.24-.23.06,0,.12.02.18.05.74.32,1.11.54,1.11.66,0,.04-.05.07-.15.09l-.05.02c-.15.02-.28.12-.34.26-.13.29-.33.68-.6,1.17-.04.05-.06.11-.06.18,0,.06.03.11.07.14.06.04.13.06.2.05h4.48Zm28.17,1.89c.15,0,.3-.08.38-.21l.08-.1.1-.14c.03-.05.07-.1.12-.14.03-.03.07-.04.11-.05.16.05.31.14.43.26.18.14.35.31.49.49.04.04.06.09.06.15,0,.08-.05.16-.12.2l-.06.03c-.16.04-.27.18-.27.34v1.02c.02.97.04,1.72.08,2.27v.08c.01.12-.04.23-.13.3-.11.08-.23.15-.36.2-.12.05-.25.08-.38.08-.04,0-.08-.03-.1-.06-.03-.05-.05-.11-.04-.16,0-.07-.03-.13-.08-.16-.07-.04-.15-.07-.23-.06h-1.92c-.07,0-.14.02-.19.06-.05.04-.08.09-.08.15,0,.06.02.11.04.16.36.58.82,1.1,1.34,1.54.06.07.14.11.22.12.05,0,.1-.02.13-.04.39-.27.77-.57,1.12-.89.33-.29.63-.62.89-.97.05-.09.14-.15.24-.15.08,0,.15.04.21.09.6.45.9.73.9.84,0,.05-.05.07-.15.08h-.04c-.14,0-.27.04-.39.11-.7.4-1.43.75-2.17,1.05-.13.06-.2.13-.19.23,0,.09.06.16.17.21,1.15.64,2.4,1.08,3.7,1.29.21.05.31.1.3.15-.02.05-.05.08-.1.1-.06.03-.11.05-.15.07-.22.11-.39.29-.48.51-.06.16-.23.25-.4.21-1.26-.34-2.43-.92-3.46-1.73-.95-.79-1.68-1.8-2.13-2.94-.06-.15-.21-.25-.38-.24h-1.84c-.09,0-.17.02-.23.08-.06.06-.09.15-.08.23v2.6c0,.09.03.18.09.24.07.05.17.07.26.05l3-.51c.06-.01.12-.02.18-.01.09,0,.15.03.17.08h0c0,.09-.08.17-.26.22-2.1.67-3.89,1.2-5.36,1.6-.1.01-.2.06-.27.13,0,.03-.02.05-.03.07-.03.06-.1.1-.17.1-.1,0-.19-.07-.26-.19l-.34-.61c-.03-.05-.04-.11-.05-.17,0-.14.08-.21.24-.22.58-.08,1.11-.16,1.59-.24.17,0,.29-.15.29-.31,0,0,0-.01,0-.02v-7.38c0-.18-.06-.27-.19-.27-.07,0-.13.02-.18.06-.7.42-1.42.79-2.16,1.12-.19.08-.3.09-.33.01v-.03c0-.06.07-.14.23-.22.75-.42,1.46-.9,2.14-1.42.7-.52,1.35-1.1,1.97-1.72.59-.56,1.05-1.24,1.35-1.99.03-.13.14-.22.27-.23.04,0,.08,0,.12.02l1.17.33c.07.02.13.05.18.1.04.03.07.09.08.14,0,.06-.03.09-.1.1-.06.05-.1.13-.1.21,0,.07.04.13.09.18.73.65,1.54,1.21,2.41,1.66.99.53,2.02.98,3.08,1.35.07.02.14.05.2.09.04.02.06.06.06.1,0,.05-.03.09-.08.11-.06.04-.12.07-.18.1-.19.1-.36.25-.47.43-.08.13-.17.2-.26.2-.05,0-.1-.02-.15-.05-1.01-.47-1.97-1.05-2.86-1.74-.81-.6-1.54-1.32-2.15-2.13-.05-.08-.13-.14-.22-.15-.09,0-.16.05-.21.12-.97,1.04-2.06,1.96-3.26,2.73-.08.04-.14.12-.15.21,0,.09.06.16.18.23l.33.16c.12.06.25.09.39.09h1.62c.15.02.29-.08.31-.24,0-.03,0-.05,0-.08-.02-.58-.04-.99-.06-1.22v-.06c0-.15.07-.23.21-.23.05,0,.1.02.15.03.26.08.51.18.76.29.14.08.22.14.22.2,0,.04-.03.09-.1.14v.02c-.14.09-.21.23-.21.38v.45c0,.09.02.17.08.23.06.06.15.09.23.08h1.57Zm.04,1.9c.09,0,.17-.02.23-.08.06-.06.09-.15.08-.23v-.86c0-.09-.02-.17-.08-.23-.06-.06-.15-.09-.23-.08h-4.8c-.09,0-.17.02-.23.08-.06.06-.09.15-.08.23v.86c0,.09.02.17.08.23.06.06.15.09.23.08h4.8Zm-4.8.45c-.09,0-.17.02-.23.08-.06.06-.09.15-.08.23v.9c0,.09.02.17.08.23.06.06.15.09.23.08h4.8c.09,0,.17-.02.23-.08.06-.06.09-.15.08-.23v-.9c0-.09-.02-.17-.08-.23-.06-.06-.15-.09-.23-.08h-4.8Z"/>
    <path id="_パス_1730" data-name="パス 1730" class="cls-1" d="m25.6,282.26c.15,0,.29-.07.38-.19l.14-.2c.05-.05.09-.11.13-.16.04-.06.09-.12.14-.17.03-.03.07-.05.12-.05.18.06.33.16.47.29.2.15.37.32.53.52.04.05.07.11.08.18,0,.07-.04.13-.09.16-.08.05-.17.08-.27.08h-2.51c-.09,0-.17.02-.23.08-.06.06-.09.15-.08.23v.66l.03.76c0,.21.01.5.03.86v.07c0,.12-.05.24-.14.31-.19.16-.44.24-.69.24-.07,0-.14-.03-.18-.08-.05-.06-.08-.13-.08-.21.05-.46.09-1.08.11-1.85v-.76c0-.09-.02-.17-.08-.23-.06-.06-.15-.09-.23-.08h-.66c-.5.02-1,.07-1.5.15-.03.01-.07.02-.11.01-.13,0-.25-.09-.28-.21l-.07-.11c-.03-.05-.04-.11-.04-.17,0-.06.02-.12.07-.16.06-.04.14-.05.21-.04.35.03.87.06,1.56.08h.81c.09,0,.17-.02.23-.08.06-.06.09-.15.08-.23v-1.07c0-.08-.02-.17-.08-.23-.06-.06-.15-.09-.23-.08h-.63c-.09,0-.17.02-.23.08-.06.06-.09.15-.08.23v.09c0,.06-.08.13-.25.21-.15.08-.32.12-.49.12-.07,0-.13-.03-.17-.09-.04-.06-.07-.14-.06-.21.04-.42.07-.95.09-1.59v-.96c0-.86-.04-1.69-.12-2.49v-.06c0-.15.07-.23.2-.23.05,0,.1,0,.15.03l.56.26c.12.06.26.09.39.09h.66c.09,0,.17-.02.23-.08.06-.06.09-.15.08-.23v-.87c0-.09-.02-.17-.08-.23-.06-.06-.15-.09-.23-.08h-.66c-.5.02-1,.07-1.5.15-.03.01-.07.02-.11.02-.13,0-.25-.09-.28-.21l-.08-.11c-.03-.05-.04-.11-.05-.16,0-.15.1-.22.3-.2.34.03.85.06,1.54.07h.81c.15.02.29-.08.32-.24,0-.03,0-.05,0-.08-.02-.61-.05-1.04-.08-1.29v-.03c0-.07.02-.14.07-.19.05-.05.11-.08.18-.07l.14.03c.65.21.97.37.97.49,0,.05-.04.1-.12.15l-.03.02c-.13.08-.21.22-.21.38v.52c0,.09.02.17.08.23.06.06.15.09.23.08h.87c.15,0,.3-.08.38-.21l.15-.23c.05-.06.09-.12.13-.18.04-.06.09-.13.14-.18.03-.04.08-.07.14-.07.07,0,.23.11.49.32.21.17.4.36.56.58.04.04.06.1.06.16,0,.06-.03.12-.08.17-.08.05-.17.08-.27.07h-2.57c-.09,0-.17.02-.23.08-.06.06-.09.15-.08.23v.87c0,.09.02.17.08.23.06.06.15.09.23.08h.57c.15,0,.3-.06.39-.18l.09-.1s.08-.09.15-.17c.04-.07.11-.11.2-.13.16.05.32.13.44.25.19.14.37.29.53.46.04.05.07.1.07.16,0,.06-.05.13-.14.2-.03.02-.06.03-.09.05-.03,0-.05.02-.07.03-.16.04-.27.18-.27.34v1.1c.03,1.11.06,1.92.09,2.44v.07c.01.12-.05.24-.15.3-.1.09-.21.15-.34.19-.12.05-.25.07-.38.08-.05,0-.09-.03-.1-.08-.03-.07-.04-.14-.04-.22,0-.08-.03-.16-.08-.21-.07-.05-.15-.08-.23-.07h-.65c-.09,0-.17.02-.23.08-.06.06-.09.15-.08.23v1.07c0,.09.02.17.08.23.06.06.15.09.23.08h.9Zm6.4-1.7c0-.09-.02-.17-.08-.23-.06-.05-.14-.08-.23-.08h-2.38c-.16-.02-.31.1-.33.27,0,.01,0,.02,0,.03-.13,1.03-.43,2.02-.89,2.95-.48.91-1.17,1.69-2.02,2.27-.16.11-.27.13-.33.08l-.03-.06c0-.06.05-.15.16-.25.88-.86,1.52-1.93,1.85-3.11.34-1.37.51-2.77.48-4.18v-2.67c0-.77-.03-1.54-.1-2.31v-.06c0-.15.06-.23.19-.23.05,0,.1,0,.15.03l.66.28c.12.06.26.09.39.09h2.14c.15,0,.3-.08.38-.21l.07-.1s.06-.09.1-.15c.03-.05.06-.09.1-.14.03-.03.07-.05.1-.05.18.06.35.16.5.28.22.15.41.32.59.51.04.04.07.09.07.15,0,.09-.05.17-.14.2-.07.04-.16.08-.24.1-.16.04-.28.19-.27.36v10.16c.02.32-.06.64-.23.92-.25.26-.6.42-.96.45h-.07c-.15,0-.28-.11-.3-.25-.04-.15-.13-.29-.26-.39-.29-.17-.61-.29-.94-.33-.2-.03-.3-.09-.3-.17,0-.06.08-.09.24-.09.2,0,.53.02.99.06l.56.03c.1.01.2-.02.28-.08.06-.08.09-.17.07-.27v-3.82Zm-.31-4.05c.09,0,.17-.02.23-.08.06-.06.09-.15.08-.23v-2.06c0-.09-.02-.17-.08-.23-.06-.06-.15-.09-.23-.08h-2.3c-.09,0-.17.02-.23.08-.06.06-.09.15-.08.23v2.06c0,.09.02.17.08.23.06.06.15.09.23.08h2.3Zm-6.34,1.58c.09,0,.17-.02.23-.08.06-.06.09-.15.08-.23v-.96c0-.09-.02-.17-.08-.23-.06-.06-.15-.09-.23-.08h-2.82c-.09,0-.17.02-.23.08-.06.06-.09.15-.08.23v.96c0,.09.02.17.08.23.06.06.15.09.23.08h2.82Zm4.05-1.14c-.09,0-.17.02-.23.08-.06.06-.09.15-.08.23v.95c0,.29-.01.72-.03,1.28v.05c0,.19.1.28.3.28h2.34c.09,0,.17-.02.23-.08.06-.06.09-.15.08-.23v-2.24c0-.09-.02-.17-.08-.23-.06-.06-.15-.09-.23-.08h-2.3Zm-3.73,1.89c0-.09-.02-.17-.08-.23-.06-.06-.15-.09-.23-.08h-2.82c-.09,0-.17.02-.23.08-.06.06-.09.15-.08.23v.97c0,.09.02.17.08.23.06.06.15.09.23.08h2.82c.09,0,.17-.02.23-.08.06-.06.09-.15.08-.23v-.98Zm33.78-2.22c.15,0,.3-.08.38-.21l.08-.1.1-.14c.03-.05.07-.1.12-.14.03-.03.07-.04.11-.05.16.05.31.14.43.26.18.14.35.31.49.49.04.04.06.09.06.15,0,.08-.05.16-.12.2l-.06.03c-.16.04-.27.18-.27.34v1.02c.02.97.04,1.72.08,2.27v.08c.01.12-.04.23-.13.3-.11.08-.23.15-.36.2-.12.05-.25.08-.38.08-.04,0-.08-.03-.1-.06-.03-.05-.05-.11-.04-.16,0-.07-.03-.13-.08-.16-.07-.04-.15-.07-.23-.06h-1.92c-.07,0-.14.02-.19.06-.05.04-.08.09-.08.15,0,.06.02.11.04.16.36.58.82,1.1,1.34,1.54.06.07.14.11.22.12.05,0,.1-.02.13-.04.39-.27.77-.57,1.12-.89.33-.29.63-.62.89-.97.05-.09.14-.15.24-.15.08,0,.15.04.21.09.6.45.9.73.9.84,0,.05-.05.07-.15.08h-.04c-.14,0-.27.04-.39.11-.7.4-1.43.75-2.17,1.05-.13.06-.2.13-.19.23,0,.09.06.16.17.21,1.15.64,2.4,1.08,3.7,1.29.21.05.31.1.3.15-.02.05-.05.08-.1.1-.06.03-.11.05-.15.07-.22.11-.39.29-.48.51-.06.16-.23.25-.4.21-1.26-.34-2.43-.92-3.46-1.73-.95-.79-1.68-1.8-2.13-2.94-.06-.15-.21-.25-.38-.24h-1.84c-.09,0-.17.02-.23.08-.06.06-.09.15-.08.23v2.6c0,.09.03.18.09.24.07.05.17.07.26.05l3-.51c.06-.01.12-.02.18-.01.09,0,.15.03.17.08h0c0,.09-.08.17-.26.22-2.1.67-3.89,1.2-5.36,1.6-.1.01-.2.06-.27.13,0,.03-.02.05-.03.07-.03.06-.1.1-.17.1-.1,0-.19-.07-.26-.19l-.34-.61c-.03-.05-.04-.11-.05-.17,0-.14.08-.21.24-.22.58-.08,1.11-.16,1.59-.24.17,0,.29-.15.29-.31,0,0,0-.01,0-.02v-7.38c0-.18-.06-.27-.19-.27-.07,0-.13.02-.18.06-.7.42-1.42.79-2.16,1.12-.19.08-.3.09-.33.01v-.03c0-.06.07-.14.23-.22.75-.42,1.46-.9,2.14-1.42.7-.52,1.35-1.1,1.97-1.72.59-.56,1.05-1.24,1.35-1.99.03-.13.14-.22.27-.23.04,0,.08,0,.12.02l1.17.33c.07.02.13.05.18.1.04.03.07.09.08.14,0,.06-.03.09-.1.1-.06.05-.1.13-.1.21,0,.07.04.13.09.18.73.65,1.54,1.21,2.41,1.66.99.53,2.02.98,3.08,1.35.07.02.14.05.2.09.04.02.06.06.06.1,0,.05-.03.09-.08.11-.06.04-.12.07-.18.1-.19.1-.36.25-.47.43-.08.13-.17.2-.26.2-.05,0-.1-.02-.15-.05-1.01-.47-1.97-1.05-2.86-1.74-.81-.6-1.54-1.32-2.15-2.13-.05-.08-.13-.14-.22-.15-.09,0-.16.05-.21.12-.97,1.04-2.06,1.96-3.26,2.73-.08.04-.14.12-.15.21,0,.09.06.16.18.23l.33.16c.12.06.25.09.39.09h1.62c.15.02.29-.08.31-.24,0-.03,0-.05,0-.08-.02-.58-.04-.99-.06-1.22v-.06c0-.15.07-.23.21-.23.05,0,.1.02.15.03.26.08.51.18.76.29.14.08.22.14.22.2,0,.04-.03.09-.1.14v.02c-.14.09-.21.23-.21.38v.45c0,.09.02.17.08.23.06.06.15.09.23.08h1.57Zm.04,1.9c.09,0,.17-.02.23-.08.06-.06.09-.15.08-.23v-.86c0-.09-.02-.17-.08-.23-.06-.06-.15-.09-.23-.08h-4.8c-.09,0-.17.02-.23.08-.06.06-.09.15-.08.23v.86c0,.09.02.17.08.23.06.06.15.09.23.08h4.8Zm-4.8.45c-.09,0-.17.02-.23.08-.06.06-.09.15-.08.23v.9c0,.09.02.17.08.23.06.06.15.09.23.08h4.8c.09,0,.17-.02.23-.08.06-.06.09-.15.08-.23v-.9c0-.09-.02-.17-.08-.23-.06-.06-.15-.09-.23-.08h-4.8Z"/>
    <path id="_パス_1744" data-name="パス 1744" class="cls-1" d="m25.01,337.06c-.06.06-.09.13-.11.21,0,.05.03.1.07.12.06.03.13.04.2.03l4.74-.27c.18-.02.27-.09.27-.19-.01-.08-.05-.16-.12-.21-.43-.37-.88-.72-1.35-1.03-.15-.09-.23-.17-.23-.24,0-.04.03-.06.1-.06.08,0,.16.02.24.05.76.24,1.47.57,2.14,1.01.46.29.87.67,1.2,1.11.21.28.34.61.37.96,0,.13-.03.27-.11.38-.07.09-.18.14-.29.14-.05,0-.09,0-.14-.01-.06-.02-.12-.05-.16-.1-.04-.04-.08-.11-.13-.19-.23-.4-.49-.78-.8-1.12-.1-.11-.25-.17-.4-.14-1.7.27-4.34.62-7.92,1.07-.15.01-.24.05-.27.1l-.06.06s-.09.06-.15.06c-.06,0-.11-.02-.15-.06-.05-.04-.09-.1-.11-.17l-.23-.61-.03-.14c0-.15.09-.23.27-.24l.6-.02,1.36-.05c.16,0,.3-.09.38-.23l.27-.48c.21-.39.41-.82.61-1.27.18-.41.33-.84.46-1.27.05-.16.14-.24.27-.24.05,0,.09.01.14.03.79.27,1.18.47,1.18.59,0,.04-.05.07-.14.1l-.07.03c-.12.03-.23.1-.3.21-.49.74-1.03,1.44-1.62,2.1Zm-.49,5.13c0-.18-.1-.27-.3-.27h-1.24c-.66.01-1.32.07-1.98.16h-.09c-.13,0-.25-.08-.3-.2l-.06-.12c-.03-.06-.04-.12-.05-.18,0-.06.03-.11.07-.14.06-.04.14-.05.21-.04.34.03.86.05,1.55.07h1.92c.09,0,.17-.02.23-.08.06-.06.08-.15.08-.23v-1.2c0-.4-.01-.7-.03-.89v-.03c0-.18.07-.27.22-.27l.14.03c.26.08.51.18.75.29.14.08.21.14.21.2,0,.06-.04.11-.12.15l-.05.03c-.13.08-.2.22-.2.38v1.3c0,.09.02.17.08.23.06.06.15.09.23.08h2.61c.15.02.29-.08.31-.24,0-.02,0-.05,0-.07-.02-.86-.06-1.63-.14-2.3v-.06c0-.06.02-.12.06-.17.04-.05.1-.07.16-.07.05,0,.09.01.14.03.29.08.58.18.85.3.16.08.24.15.24.21,0,.05-.04.1-.12.15l-.05.03c-.13.08-.21.22-.21.38v1.5c0,.09.02.17.08.23.06.06.15.09.23.08h1.43c.15,0,.29-.07.38-.2l.19-.28.15-.2c.05-.07.11-.14.17-.21.03-.04.08-.06.13-.07.2.08.39.2.54.36.23.19.45.39.65.61.04.05.07.11.07.18,0,.07-.04.13-.09.16-.08.05-.17.08-.27.07h-3.34c-.09,0-.17.02-.23.08-.06.06-.09.15-.08.23v1.65c.02,1.09.06,2.19.1,3.3v.08c0,.12-.04.23-.13.31-.11.07-.23.14-.35.18-.13.05-.26.07-.4.08-.08,0-.16-.03-.22-.09-.06-.05-.1-.13-.1-.21.04-.55.07-1.09.1-1.62.03-.53.04-1.2.05-2.01v-1.66c0-.08-.02-.17-.08-.23-.06-.06-.15-.09-.23-.08h-2.66c-.16-.01-.3.1-.31.26,0,.01,0,.02,0,.04-.09,1.15-.46,2.27-1.07,3.25-.74,1.05-1.79,1.86-2.99,2.3-.07.04-.15.06-.23.06-.05,0-.09-.02-.12-.06-.05-.07.07-.19.35-.36.96-.51,1.76-1.29,2.3-2.23.48-.91.76-1.91.84-2.93v-.06Zm36.22-2.25c.15,0,.3-.06.39-.18l.09-.12s.08-.1.15-.19c.04-.07.11-.12.19-.13.17.05.33.14.46.26.2.14.38.31.55.49.04.05.07.1.08.16,0,.06-.05.12-.13.2-.09.04-.15.07-.18.07-.15.05-.25.2-.26.36v2.94c.02,1.09.05,2.19.1,3.3v.08c.01.12-.05.24-.15.3-.11.09-.24.16-.37.21-.13.06-.27.09-.41.09-.05,0-.1-.03-.13-.11-.01-.05-.02-.1-.03-.15,0-.07.01-.14.03-.21l.04-.17v-.02c0-.09-.02-.17-.08-.23-.06-.06-.15-.09-.24-.08h-6.82c-.66.01-1.32.07-1.98.17h-.09c-.13,0-.25-.08-.3-.2l-.08-.13c-.03-.06-.04-.12-.05-.18,0-.06.03-.11.07-.14.06-.04.14-.05.21-.04.34.03.85.05,1.54.08h7.49c.09,0,.17-.03.23-.09.06-.06.09-.14.09-.23v-2.19c0-.09-.02-.17-.08-.23-.06-.06-.15-.09-.23-.08h-6.3c-.66.01-1.33.07-1.98.16h-.08c-.13,0-.26-.07-.31-.19l-.06-.12c-.03-.06-.05-.12-.06-.18,0-.06.03-.11.08-.14.06-.04.14-.05.21-.04.34.03.85.06,1.54.08h6.96c.09,0,.17-.02.23-.08.06-.06.09-.15.08-.23v-2.1c0-.09-.02-.17-.08-.23-.06-.06-.15-.09-.23-.08h-6.54c-.66.01-1.32.07-1.98.16h-.09c-.13,0-.25-.08-.3-.2l-.08-.14c-.03-.05-.04-.11-.04-.16,0-.15.1-.22.3-.2.34.03.85.06,1.54.07h2.59c.09,0,.17-.02.23-.08.06-.06.09-.15.08-.23v-2.47c0-.9-.04-1.79-.13-2.69v-.06c0-.06.02-.12.06-.17.04-.05.1-.07.17-.07.05,0,.09.01.13.03.74.22,1.11.39,1.11.52,0,.05-.04.1-.12.15l-.04.03c-.13.08-.21.22-.21.38v4.35c0,.09.02.17.08.23.06.06.15.09.23.08h2.91Zm.09-4.77c.05-.14.12-.21.22-.21.06,0,.12.02.18.05l.39.24c.11.06.23.12.35.16.29.12.44.22.44.3,0,.05-.06.09-.18.12l-.04.02c-.14.02-.27.11-.35.23-.69,1.02-1.48,1.97-2.37,2.82-.06.08-.14.13-.24.15-.06,0-.11-.03-.12-.09,0-.01,0-.02,0-.03,0-.09.04-.18.09-.25.19-.3.35-.58.49-.84.23-.42.44-.86.63-1.3.21-.49.38-.95.51-1.36Zm-8.81.26c-.05-.06-.09-.13-.12-.2-.02-.05-.02-.09,0-.11.02-.01.04-.02.06-.02.09.01.17.05.24.1.69.38,1.3.89,1.78,1.51.33.41.53.91.57,1.44,0,.18-.04.36-.13.51-.07.12-.2.2-.35.2-.08,0-.16-.02-.22-.06-.12-.07-.21-.19-.22-.33-.12-.53-.32-1.04-.59-1.52-.29-.54-.63-1.05-1.01-1.53Z"/>
    <path id="_パス_1800" data-name="パス 1800" class="cls-1" d="m191.14,221.61c-.02.17-.18.29-.35.27h-4.92c-.18,0-.29-.06-.33-.17-.03-.06-.04-.12-.05-.18,0-.07.02-.13.05-.19.28-.7.64-1.37,1.06-2,.42-.62.97-1.33,1.65-2.14.59-.66,1.12-1.36,1.59-2.11.32-.51.49-1.1.49-1.7,0-.51-.15-1.01-.45-1.43-.34-.43-.87-.66-1.41-.61-.43-.01-.85.11-1.2.35-.3.18-.49.51-.5.86,0,.11.02.22.05.33.04.11.1.21.17.3.06.09.11.19.16.29.04.1.06.2.05.31,0,.21-.07.42-.22.58-.15.15-.35.23-.56.22-.22,0-.42-.12-.55-.29-.18-.23-.26-.51-.25-.8.01-.41.13-.81.34-1.17.24-.43.59-.79,1.02-1.05.51-.3,1.09-.45,1.67-.43.61-.03,1.21.12,1.74.43.41.25.74.62.94,1.07.18.42.28.87.28,1.33,0,.38-.06.75-.21,1.1-.14.32-.33.61-.57.87-.24.27-.6.62-1.08,1.06-.11.11-.25.24-.42.39s-.37.33-.59.55c-.82.81-1.52,1.74-2.07,2.76-.03.05-.04.11-.04.16,0,.14.1.21.28.21h1.37c.55.02,1.09-.02,1.63-.12.32-.06.6-.22.82-.46.24-.32.43-.68.55-1.06.02-.06.05-.09.11-.09.05,0,.09.02.14.03.05.01.09.03.14.06.03.02.05.05.05.09v.08s-.59,2.31-.59,2.31Zm2.57,1.88s-.06-.02-.07-.05c-.02-.02-.03-.05-.03-.08,0-.02.01-.04.03-.06.16-.14.3-.3.41-.48.08-.13.13-.27.14-.42,0-.14-.07-.28-.19-.34-.15-.07-.29-.16-.4-.28-.1-.12-.15-.28-.14-.44,0-.22.08-.44.24-.6.15-.16.37-.24.59-.24.22,0,.43.09.59.25.16.17.25.39.24.62,0,.45-.14.89-.41,1.24-.25.35-.57.64-.94.86h-.05Zm7.54-7.78c-.11.08-.17.15-.17.22s.06.14.17.2c.4.23.78.48,1.15.75.31.24.57.53.77.87.22.38.33.81.32,1.24.01.58-.15,1.14-.47,1.62-.31.46-.73.84-1.22,1.09-.48.25-1.01.39-1.56.39-.56,0-1.12-.12-1.63-.36-.49-.22-.92-.57-1.24-1-.31-.43-.47-.94-.47-1.47-.02-.54.16-1.08.51-1.49.44-.46.95-.85,1.51-1.15.11-.06.16-.13.16-.21,0-.1-.07-.18-.16-.21-.48-.26-.91-.62-1.24-1.06-.32-.46-.48-1.02-.45-1.58,0-.45.11-.89.31-1.28.22-.42.55-.78.96-1.02.47-.28,1.01-.42,1.56-.4.48,0,.95.1,1.38.29.42.19.78.49,1.04.86.27.39.41.86.4,1.34-.06,1.03-.69,1.94-1.64,2.36Zm-3.07-2.57c0,.33.08.66.26.94.19.28.42.53.69.73.38.28.77.53,1.18.77.06.04.14.06.21.06.08,0,.16-.03.22-.09.66-.53,1.03-1.33,1.02-2.17,0-.31-.06-.62-.18-.91-.12-.31-.32-.58-.58-.79-.3-.23-.67-.34-1.05-.32-.35-.01-.7.09-.98.29-.25.18-.46.42-.59.7-.12.25-.19.52-.2.79Zm1.91,8.44c.63.04,1.24-.21,1.67-.67.4-.47.62-1.08.59-1.7,0-.52-.24-1.01-.65-1.34-.57-.46-1.18-.85-1.82-1.19-.06-.04-.12-.06-.19-.06-.09,0-.17.04-.24.09-.4.32-.74.71-.99,1.15-.24.41-.37.88-.38,1.37,0,.39.08.78.24,1.13.15.34.39.64.69.87.31.23.69.35,1.08.34Zm8.04.51c-.58,0-1.14-.23-1.57-.63-.55-.52-.95-1.17-1.17-1.89-.32-.99-.47-2.03-.45-3.08-.02-1.05.13-2.09.45-3.09.22-.73.63-1.39,1.18-1.91.43-.4.99-.63,1.58-.64.58,0,1.14.24,1.57.64.55.53.95,1.18,1.17,1.91.32,1,.47,2.04.44,3.09.03,1.04-.13,2.08-.45,3.08-.22.72-.63,1.37-1.17,1.89-.43.4-1,.62-1.58.63Zm.03-.51c.58,0,1.04-.42,1.37-1.27.39-1.23.56-2.53.5-3.82.06-1.3-.11-2.59-.5-3.83-.33-.86-.79-1.28-1.37-1.28s-1.06.43-1.4,1.28c-.4,1.24-.57,2.54-.51,3.83-.06,1.29.11,2.59.51,3.82.34.84.81,1.27,1.4,1.27Zm7.77.51c-.58,0-1.14-.23-1.57-.63-.55-.52-.95-1.17-1.17-1.89-.32-.99-.47-2.03-.45-3.08-.02-1.05.13-2.09.45-3.09.22-.73.63-1.39,1.18-1.91.43-.4.99-.63,1.58-.64.58,0,1.14.24,1.57.64.55.53.95,1.18,1.17,1.91.32,1,.47,2.04.44,3.09.03,1.04-.13,2.08-.45,3.08-.22.72-.63,1.37-1.17,1.89-.43.4-.99.62-1.58.63Zm.03-.51c.58,0,1.04-.42,1.37-1.27.39-1.23.56-2.53.5-3.82.06-1.3-.11-2.59-.5-3.83-.33-.86-.79-1.28-1.37-1.28s-1.06.43-1.4,1.28c-.4,1.24-.57,2.54-.51,3.83-.06,1.29.11,2.59.51,3.82.34.84.81,1.27,1.4,1.27Zm7.14-5.13c-.09,0-.17.02-.23.08-.06.06-.09.15-.08.23v2.27c.02,1.08.05,2.19.1,3.32v.07c0,.11-.04.22-.12.3-.2.2-.47.31-.75.3-.09,0-.17-.03-.24-.09-.06-.05-.1-.13-.1-.21.04-.59.07-1.16.1-1.72.03-.56.05-1.28.06-2.18v-5.7c0-.88-.04-1.75-.13-2.62v-.06c0-.16.06-.24.18-.24.06,0,.11.02.17.05l.63.3c.12.06.26.09.39.09h8.54c.15,0,.3-.08.38-.21l.08-.1s.07-.1.13-.19c.06-.08.12-.13.18-.13.18.06.34.15.48.27.21.15.41.31.58.49.04.05.06.1.06.16,0,.09-.06.16-.13.2-.03.02-.06.03-.09.05-.03,0-.05.02-.08.03-.16.04-.27.18-.27.35v9.96c.02.34-.07.67-.27.94-.31.28-.71.44-1.12.45h-.09c-.14.01-.23-.07-.28-.24-.06-.17-.19-.32-.35-.41-.38-.19-.79-.31-1.22-.35-.2-.03-.3-.09-.3-.17s.11-.11.33-.09c.99.08,1.63.12,1.92.12.12.01.24-.02.34-.09.07-.08.11-.19.1-.3v-4.62c0-.09-.02-.17-.08-.23-.06-.06-.15-.09-.23-.08h-8.57Zm3.75-5.06c0-.09-.02-.17-.08-.23-.06-.06-.15-.09-.23-.08h-3.43c-.09,0-.17.02-.23.08-.06.06-.09.15-.08.23v4.32c0,.09.02.17.08.23.06.06.15.09.23.08h3.44c.09,0,.17-.02.23-.08.06-.06.09-.15.08-.23v-4.32Zm1.27-.31c-.09,0-.17.02-.23.08-.06.06-.09.15-.08.23v4.32c0,.09.02.17.08.23.06.06.15.09.23.08h3.54c.09,0,.17-.02.23-.08.06-.06.09-.15.08-.23v-4.32c0-.09-.02-.17-.08-.23-.06-.06-.15-.09-.23-.08h-3.54Z"/>
    <path id="_パス_1801" data-name="パス 1801" class="cls-1" d="m185.6,283.88c-.07,0-.1-.07-.1-.21,0-.15.03-.23.1-.23h.24c.41.02.81-.06,1.19-.23.28-.12.46-.4.45-.7v-7.19c.02-.21-.01-.41-.08-.61-.09-.13-.23-.2-.39-.21-.38-.04-.76-.06-1.15-.05h-.25c-.07,0-.1-.07-.1-.23,0-.14.03-.21.1-.21.49,0,.99-.06,1.46-.2.45-.14.87-.36,1.24-.65.06-.05.13-.08.2-.09.12,0,.18.09.18.27v9.16c0,.62.55.93,1.63.93h.22s.07.02.08.05c.02.06.02.11.02.17,0,.14-.04.21-.11.21h-4.93Zm7.26,1.61s-.06-.02-.07-.04c-.02-.02-.03-.05-.03-.08,0-.02.01-.04.03-.06.16-.14.3-.3.41-.48.08-.13.13-.27.14-.42.01-.14-.06-.28-.19-.34-.15-.07-.29-.16-.4-.28-.1-.12-.15-.28-.15-.44,0-.22.08-.44.24-.6.15-.16.37-.24.59-.24.22,0,.43.09.59.25.16.17.25.39.24.62,0,.45-.14.89-.41,1.24-.25.35-.57.64-.94.86h-.05Zm5.73-1.41c-.25,0-.48-.15-.58-.38-.13-.28-.19-.58-.19-.89.09-1.31.47-2.58,1.11-3.72.74-1.49,1.62-3.04,2.62-4.65.04-.05.06-.11.06-.18,0-.13-.09-.2-.27-.2h-2.2c-.47-.02-.94.04-1.39.2-.29.11-.53.32-.7.58-.22.39-.4.8-.54,1.22-.01.03-.03.05-.05.07-.02.01-.04.02-.07.01l-.12-.03s-.09-.03-.14-.06c-.03-.02-.04-.04-.05-.07l.03-.17.24-1.1c.05-.26.1-.52.16-.77s.11-.49.15-.71c.03-.16.18-.28.35-.27h5.31c.18,0,.29.06.33.16.02.04.03.08.03.12,0,.09-.03.18-.08.26-.94,1.61-1.64,2.91-2.1,3.91-.41.87-.73,1.78-.94,2.71-.18.92-.26,1.86-.25,2.81,0,.76-.25,1.14-.75,1.14Zm8.77,0c-.58,0-1.14-.23-1.57-.63-.55-.52-.95-1.17-1.17-1.89-.32-.99-.47-2.03-.44-3.08-.02-1.05.13-2.09.45-3.09.22-.73.63-1.39,1.18-1.91.43-.4.99-.63,1.58-.64.58,0,1.14.24,1.57.64.55.53.95,1.18,1.17,1.91.32,1,.47,2.04.44,3.09.03,1.04-.13,2.08-.45,3.08-.22.72-.63,1.37-1.18,1.89-.43.4-1,.62-1.59.63Zm.03-.51c.58,0,1.04-.42,1.37-1.27.39-1.23.56-2.53.5-3.82.06-1.3-.11-2.59-.5-3.83-.33-.86-.79-1.28-1.37-1.28s-1.06.43-1.4,1.28c-.4,1.24-.57,2.54-.51,3.83-.06,1.29.11,2.59.51,3.82.34.84.81,1.27,1.4,1.27Zm7.77.51c-.58,0-1.14-.23-1.57-.63-.55-.52-.95-1.17-1.17-1.89-.32-.99-.47-2.03-.44-3.08-.02-1.05.13-2.09.45-3.09.22-.73.63-1.39,1.18-1.91.43-.4.99-.63,1.58-.64.58,0,1.14.24,1.57.64.55.53.95,1.18,1.17,1.91.32,1,.47,2.04.44,3.09.03,1.04-.13,2.08-.45,3.08-.22.72-.63,1.37-1.18,1.89-.43.4-1,.62-1.58.63Zm.03-.51c.58,0,1.04-.42,1.37-1.27.39-1.23.56-2.53.5-3.82.06-1.3-.11-2.59-.5-3.83-.33-.86-.79-1.28-1.37-1.28s-1.06.43-1.4,1.28c-.4,1.24-.57,2.54-.51,3.83-.06,1.29.11,2.59.51,3.82.34.84.81,1.27,1.4,1.27Zm7.14-5.13c-.09,0-.17.02-.23.08-.06.06-.09.15-.08.23v2.27c.02,1.08.06,2.19.1,3.32v.07c0,.11-.04.22-.12.3-.2.2-.47.31-.75.3-.09,0-.17-.03-.24-.09-.06-.05-.1-.13-.1-.21.04-.59.07-1.16.1-1.72.03-.56.05-1.28.06-2.18v-5.7c0-.88-.04-1.75-.13-2.62v-.06c0-.16.06-.24.18-.24.06,0,.11.02.17.05l.63.3c.12.06.26.09.39.09h8.54c.15,0,.3-.08.38-.21l.08-.1s.08-.1.13-.19c.06-.08.12-.13.18-.13.18.06.34.15.48.27.21.15.41.31.58.49.04.05.06.1.06.16,0,.09-.06.16-.13.2-.03.02-.06.03-.09.05-.03,0-.05.02-.08.03-.16.04-.27.18-.27.35v9.96c.02.34-.07.67-.27.94-.31.28-.71.44-1.12.45h-.09c-.14.01-.23-.07-.28-.24-.06-.17-.19-.32-.35-.41-.38-.19-.79-.31-1.21-.35-.2-.03-.3-.09-.3-.17s.11-.11.33-.09c.99.08,1.63.12,1.92.12.12.01.24-.02.34-.09.07-.08.11-.19.1-.3v-4.62c0-.09-.02-.17-.08-.23-.06-.06-.15-.09-.23-.08h-8.57Zm3.75-5.06c0-.09-.02-.17-.08-.23-.06-.06-.15-.09-.23-.08h-3.43c-.09,0-.17.02-.23.08-.06.06-.09.15-.08.23v4.32c0,.09.02.17.08.23.06.06.15.09.23.08h3.44c.09,0,.17-.02.23-.08.06-.06.09-.15.08-.23v-4.32Zm1.27-.31c-.09,0-.17.02-.23.08-.06.06-.09.15-.08.23v4.32c0,.09.02.17.08.23.06.06.15.09.23.08h3.54c.09,0,.17-.02.23-.08.06-.06.09-.15.08-.23v-4.32c0-.09-.02-.17-.08-.23-.06-.06-.15-.09-.23-.08h-3.54Z"/>
    <path id="_パス_1802" data-name="パス 1802" class="cls-1" d="m186.6,345.88c-.07,0-.1-.07-.1-.21,0-.15.03-.23.1-.23h.24c.41.02.81-.06,1.19-.23.28-.12.46-.4.45-.7v-7.19c.02-.21-.01-.41-.08-.61-.09-.13-.23-.2-.39-.21-.38-.04-.76-.06-1.15-.05h-.25c-.07,0-.1-.07-.1-.23,0-.14.03-.21.1-.21.49,0,.99-.06,1.46-.2.45-.14.87-.36,1.24-.65.06-.05.13-.08.2-.09.12,0,.18.09.18.27v9.16c0,.62.55.93,1.63.93h.22s.07.02.08.05c.02.06.02.11.02.17,0,.14-.04.21-.11.21h-4.93Zm7.26,1.61s-.06-.02-.07-.04c-.02-.02-.03-.05-.03-.08,0-.02.01-.04.03-.06.16-.14.3-.3.41-.48.08-.13.13-.27.14-.42.01-.14-.06-.28-.19-.34-.15-.07-.29-.16-.4-.28-.1-.12-.15-.28-.15-.44,0-.22.08-.44.24-.6.15-.16.37-.24.59-.24.22,0,.43.09.59.25.16.17.25.39.24.62,0,.45-.14.89-.41,1.24-.25.35-.57.64-.94.86h-.05Zm6.18-8.61c.44.01.88.11,1.28.29.51.23.94.61,1.24,1.08.39.65.58,1.41.54,2.17.01.68-.16,1.35-.5,1.93-.3.53-.73.97-1.25,1.29-.47.29-1,.44-1.55.45-.46,0-.92-.09-1.36-.25-.42-.16-.8-.42-1.09-.77-.29-.34-.44-.77-.43-1.22-.02-.26.05-.51.22-.71.13-.14.3-.21.49-.22.2,0,.4.06.57.17.17.12.27.32.26.53,0,.16-.04.32-.09.47l-.05.18c-.02.07-.03.15-.03.23-.02.33.15.64.43.82.28.18.61.28.95.28.38,0,.76-.14,1.05-.38.34-.29.61-.66.77-1.08.2-.51.3-1.06.29-1.61.04-.77-.16-1.53-.56-2.19-.31-.52-.88-.83-1.48-.82-.8.07-1.52.51-1.95,1.18-.05.07-.12.13-.21.15h-.06s-.09-.01-.12-.05h-.02c-.13-.08-.21-.23-.19-.39l.18-5.1c0-.09.03-.17.09-.23.07-.06.15-.09.24-.08h4.6c.09,0,.18.03.24.09.05.07.07.17.05.26l-.09.49c0,.08-.05.16-.11.21-.07.05-.15.08-.23.07h-3.97c-.16-.02-.31.1-.33.27,0,.02,0,.03,0,.05l-.12,3.07c-.02.14.03.21.15.21.15-.02.28-.09.39-.2.26-.21.56-.38.87-.49.29-.1.59-.15.9-.14Zm7.68,7.21c-.58,0-1.14-.23-1.57-.63-.55-.52-.95-1.17-1.17-1.89-.32-.99-.47-2.03-.44-3.08-.02-1.05.13-2.09.45-3.09.22-.73.63-1.39,1.18-1.91.43-.4.99-.63,1.58-.64.58,0,1.14.24,1.57.64.55.53.95,1.18,1.17,1.91.32,1,.47,2.04.44,3.09.03,1.04-.13,2.08-.45,3.08-.22.72-.63,1.37-1.18,1.89-.43.4-.99.62-1.58.63Zm.03-.51c.58,0,1.04-.42,1.37-1.27.39-1.23.56-2.53.5-3.82.06-1.3-.11-2.59-.5-3.83-.33-.85-.79-1.28-1.37-1.28s-1.06.43-1.4,1.28c-.4,1.24-.57,2.54-.51,3.83-.06,1.29.11,2.59.51,3.82.34.84.81,1.27,1.4,1.27Zm7.77.51c-.58,0-1.14-.23-1.57-.63-.55-.52-.95-1.17-1.17-1.89-.32-.99-.47-2.03-.44-3.08-.02-1.05.13-2.09.45-3.09.22-.73.63-1.39,1.18-1.91.43-.4.99-.63,1.58-.64.58,0,1.14.24,1.57.64.55.53.95,1.18,1.17,1.91.32,1,.47,2.04.44,3.09.03,1.04-.13,2.08-.45,3.08-.22.72-.63,1.37-1.18,1.89-.43.4-.99.62-1.58.63Zm.03-.51c.58,0,1.04-.42,1.37-1.27.39-1.23.56-2.53.5-3.82.06-1.3-.11-2.59-.5-3.83-.33-.85-.79-1.28-1.37-1.28s-1.06.43-1.4,1.28c-.4,1.24-.57,2.54-.51,3.83-.06,1.29.11,2.59.51,3.82.34.84.81,1.27,1.4,1.27Zm7.14-5.13c-.09,0-.17.02-.23.08-.06.06-.09.15-.08.23v2.27c.02,1.08.05,2.19.1,3.32v.07c0,.11-.04.22-.12.3-.2.2-.47.31-.75.3-.09,0-.17-.03-.24-.09-.06-.05-.1-.13-.1-.21.04-.59.07-1.16.1-1.72.03-.56.05-1.28.06-2.18v-5.7c0-.88-.04-1.75-.13-2.62v-.06c0-.16.06-.24.18-.24.06,0,.11.02.17.05l.63.3c.12.06.26.09.39.09h8.53c.15,0,.3-.08.38-.21l.08-.1s.08-.1.13-.19c.06-.08.12-.13.18-.13.18.06.34.15.48.27.21.15.41.31.58.49.04.05.06.1.06.16,0,.09-.06.16-.13.2-.03.02-.06.03-.09.05-.03,0-.05.02-.08.03-.16.04-.27.18-.27.35v9.96c.02.34-.07.67-.27.94-.31.28-.71.44-1.12.45h-.09c-.14.01-.23-.07-.28-.24-.06-.17-.18-.32-.34-.41-.38-.19-.79-.31-1.22-.35-.2-.03-.3-.09-.3-.17,0-.08.11-.11.33-.09.99.08,1.63.12,1.92.12.12.01.24-.02.34-.09.07-.08.11-.19.1-.3v-4.62c0-.09-.02-.17-.08-.23-.06-.06-.15-.09-.24-.08h-8.56Zm3.75-5.06c0-.09-.02-.17-.08-.23-.06-.06-.15-.09-.23-.08h-3.43c-.09,0-.17.02-.23.08-.06.06-.09.15-.08.23v4.32c0,.09.02.17.08.23.06.06.15.09.23.08h3.44c.09,0,.17-.02.23-.08.06-.06.09-.15.08-.23v-4.32Zm1.28-.31c-.09,0-.17.02-.23.08-.06.06-.09.15-.08.23v4.32c0,.09.02.17.08.23.06.06.15.09.23.08h3.53c.09,0,.17-.02.23-.08.06-.06.09-.15.08-.23v-4.32c0-.09-.02-.17-.08-.23-.06-.06-.15-.09-.23-.08h-3.53Z"/>
    <path id="_パス_1798" data-name="パス 1798" class="cls-1" d="m189.85,92.7c-.11.08-.16.15-.16.22s.05.14.16.2c.4.23.78.48,1.15.75.31.24.57.53.77.87.22.38.33.81.32,1.24.01.58-.15,1.14-.47,1.62-.31.46-.73.84-1.22,1.09-.48.26-1.02.39-1.56.39-.56,0-1.12-.12-1.63-.36-.49-.22-.92-.57-1.24-1-.31-.43-.47-.94-.47-1.47-.02-.54.16-1.08.51-1.49.44-.46.95-.85,1.52-1.15.11-.06.16-.13.16-.21,0-.1-.07-.18-.16-.21-.48-.26-.91-.62-1.25-1.06-.32-.46-.48-1.02-.45-1.58,0-.45.11-.89.32-1.28.22-.42.55-.78.96-1.02.47-.28,1.01-.42,1.56-.4.48,0,.95.1,1.38.29.42.19.78.49,1.04.86.27.39.41.86.4,1.34-.06,1.03-.69,1.94-1.64,2.36Zm-3.07-2.57c0,.33.08.66.26.95.19.28.42.53.69.73.38.28.77.53,1.18.77.06.04.14.06.21.06.08,0,.16-.03.22-.09.66-.53,1.03-1.33,1.02-2.17,0-.31-.06-.62-.18-.91-.12-.31-.32-.58-.59-.79-.3-.22-.67-.34-1.05-.32-.35-.01-.7.09-.98.29-.25.18-.46.42-.59.7-.12.25-.19.52-.2.79Zm1.9,8.44c.63.04,1.24-.21,1.67-.67.41-.47.62-1.08.6-1.7,0-.52-.24-1.01-.65-1.34-.57-.46-1.18-.85-1.83-1.18-.06-.04-.13-.06-.2-.06-.09,0-.17.04-.24.09-.4.32-.73.71-.98,1.15-.24.41-.38.88-.38,1.37,0,.39.08.78.24,1.13.15.34.39.64.69.87.31.23.69.35,1.08.34Zm5.46,1.91s-.06-.02-.07-.04c-.02-.02-.03-.05-.03-.08,0-.02.01-.04.03-.06.16-.14.3-.3.41-.48.08-.12.13-.27.14-.42,0-.14-.07-.28-.19-.34-.15-.07-.29-.16-.4-.28-.1-.12-.15-.28-.14-.44,0-.22.08-.44.24-.6.15-.16.37-.24.59-.24.22,0,.43.09.59.25.16.17.25.39.24.62,0,.45-.14.89-.41,1.24-.25.35-.57.64-.94.86h-.05Zm6.33-1.4c-.58,0-1.14-.23-1.57-.63-.55-.52-.95-1.17-1.17-1.89-.32-.99-.47-2.03-.44-3.08-.02-1.05.13-2.09.45-3.09.22-.73.63-1.39,1.18-1.91.43-.4.99-.63,1.58-.64.58,0,1.14.24,1.57.64.55.53.95,1.18,1.17,1.91.32,1,.47,2.04.44,3.09.03,1.04-.13,2.08-.45,3.08-.22.72-.63,1.37-1.18,1.89-.43.4-.99.62-1.58.63Zm.03-.51c.58,0,1.04-.42,1.37-1.27.39-1.23.56-2.53.5-3.82.06-1.3-.11-2.59-.5-3.83-.34-.85-.79-1.28-1.37-1.28s-1.06.43-1.4,1.28c-.4,1.24-.57,2.54-.51,3.83-.06,1.29.11,2.59.51,3.82.34.84.81,1.27,1.4,1.27Zm7.77.51c-.58,0-1.14-.23-1.57-.63-.55-.52-.95-1.17-1.17-1.89-.32-.99-.47-2.03-.44-3.08-.02-1.05.13-2.09.45-3.09.22-.73.63-1.39,1.18-1.91.43-.4.99-.63,1.58-.64.58,0,1.14.24,1.57.64.55.53.95,1.18,1.17,1.91.32,1,.47,2.04.44,3.09.03,1.04-.13,2.08-.45,3.08-.22.72-.63,1.37-1.18,1.89-.43.4-.99.62-1.58.63Zm.03-.51c.58,0,1.04-.42,1.37-1.27.39-1.23.56-2.53.5-3.82.06-1.3-.11-2.59-.5-3.83-.33-.85-.79-1.28-1.37-1.28s-1.06.43-1.4,1.28c-.4,1.24-.57,2.54-.51,3.83-.06,1.29.11,2.59.51,3.82.34.84.81,1.27,1.4,1.27Zm7.77.51c-.58,0-1.14-.23-1.57-.63-.55-.52-.95-1.17-1.17-1.89-.32-.99-.47-2.03-.44-3.08-.02-1.05.13-2.09.45-3.09.22-.73.63-1.39,1.18-1.91.43-.4.99-.63,1.58-.64.58,0,1.14.24,1.57.64.55.53.95,1.18,1.17,1.91.32,1,.47,2.04.44,3.09.03,1.04-.13,2.08-.45,3.08-.22.72-.63,1.37-1.18,1.89-.43.4-.99.62-1.58.63Zm.03-.51c.58,0,1.04-.42,1.37-1.27.39-1.23.56-2.53.5-3.82.06-1.3-.11-2.59-.5-3.83-.33-.85-.79-1.28-1.37-1.28s-1.05.43-1.4,1.28c-.4,1.24-.57,2.54-.51,3.83-.06,1.29.11,2.59.51,3.82.34.84.81,1.27,1.4,1.27Zm7.14-5.13c-.09,0-.17.02-.23.08-.06.06-.09.15-.08.23v2.27c.02,1.08.05,2.19.1,3.32v.07c0,.11-.04.22-.12.3-.2.2-.47.31-.75.3-.09,0-.17-.03-.24-.09-.06-.05-.1-.13-.1-.21.04-.59.07-1.16.1-1.72.03-.56.05-1.28.06-2.18v-5.7c0-.88-.04-1.75-.13-2.62v-.06c0-.16.06-.24.18-.24.06,0,.11.02.17.05l.63.3c.12.06.26.09.39.09h8.55c.15,0,.3-.08.38-.21l.08-.1s.07-.1.13-.19c.06-.08.12-.13.18-.13.18.06.34.15.48.27.21.15.41.31.58.49.04.05.06.1.06.16,0,.09-.06.16-.13.2-.03.02-.06.03-.09.05-.03,0-.05.02-.08.03-.16.04-.27.18-.27.35v9.96c.02.34-.07.67-.27.94-.31.28-.71.44-1.12.45h-.09c-.14.01-.23-.07-.28-.24-.06-.18-.19-.32-.35-.41-.38-.19-.79-.31-1.22-.35-.2-.03-.3-.09-.3-.17s.11-.11.33-.09c.99.08,1.63.12,1.92.12.12.01.24-.02.34-.09.07-.08.11-.19.1-.3v-4.62c0-.09-.02-.17-.08-.23-.06-.06-.15-.09-.23-.08h-8.57Zm3.75-5.06c0-.09-.02-.17-.08-.23-.06-.06-.15-.09-.23-.08h-3.43c-.09,0-.17.02-.23.08-.06.06-.09.15-.08.23v4.32c0,.09.02.17.08.23.06.06.15.09.23.08h3.44c.09,0,.17-.02.23-.08.06-.06.09-.15.08-.23v-4.32Zm1.28-.31c-.09,0-.17.02-.23.08-.06.06-.09.15-.08.23v4.32c0,.09.02.17.08.23.06.06.15.09.23.08h3.54c.09,0,.17-.02.23-.08.06-.06.09-.15.08-.23v-4.32c0-.09-.02-.17-.08-.23-.06-.06-.15-.09-.23-.08h-3.54Z"/>
    <path id="_パス_1719-2" data-name="パス 1719" class="cls-2" d="m0,.5h335.5"/>
    <path id="_パス_1799" data-name="パス 1799" class="cls-1" d="m182.6,160.88c-.07,0-.1-.07-.1-.21,0-.15.03-.23.1-.23h.24c.41.02.81-.06,1.19-.23.28-.12.46-.4.45-.7v-7.19c.02-.21-.01-.41-.08-.61-.09-.13-.23-.2-.39-.21-.38-.04-.76-.06-1.15-.05h-.25c-.07,0-.1-.07-.1-.23,0-.14.03-.21.1-.21.49,0,.99-.06,1.46-.2.45-.14.87-.36,1.24-.65.06-.05.13-.08.2-.09.12,0,.18.09.18.27v9.16c0,.62.55.93,1.63.93h.22s.07.02.08.05c.02.06.02.11.02.17,0,.14-.04.21-.11.21h-4.93Zm12.36-.27c-.02.17-.18.29-.35.27h-4.92c-.18,0-.29-.06-.33-.17-.03-.06-.04-.12-.05-.18,0-.07.02-.13.05-.19.28-.7.64-1.37,1.07-2,.42-.62.97-1.33,1.65-2.14.59-.66,1.12-1.36,1.59-2.11.32-.51.49-1.1.49-1.7,0-.51-.15-1.01-.45-1.43-.34-.43-.87-.66-1.41-.61-.43-.01-.85.11-1.2.35-.3.18-.49.51-.49.86,0,.11.02.22.05.33.04.11.1.21.17.3.06.09.11.19.16.29.04.1.05.2.05.31,0,.21-.07.42-.22.58-.15.15-.35.23-.56.22-.22,0-.42-.12-.55-.29-.18-.23-.26-.51-.25-.8.01-.41.13-.81.34-1.17.24-.43.59-.79,1.02-1.05.51-.3,1.09-.45,1.67-.43.61-.03,1.21.12,1.74.43.41.25.74.62.94,1.07.18.42.27.87.27,1.33,0,.38-.06.75-.21,1.1-.14.32-.33.61-.57.87-.24.27-.6.62-1.08,1.06-.11.11-.25.24-.42.39s-.36.33-.59.55c-.82.81-1.52,1.75-2.06,2.76-.03.05-.04.11-.05.16,0,.14.1.21.28.21h1.36c.55.02,1.1-.03,1.64-.13.31-.06.6-.22.82-.46.24-.32.42-.68.55-1.07.02-.06.05-.09.1-.09.05,0,.09.02.14.03.05.01.09.03.14.06.03.02.05.05.05.09l-.02.08-.57,2.31Zm2.56,1.88s-.06-.02-.07-.05c-.02-.02-.03-.05-.03-.08,0-.02.01-.04.03-.06.16-.14.3-.3.41-.48.08-.13.13-.27.14-.42,0-.14-.07-.28-.2-.34-.15-.07-.29-.16-.4-.28-.1-.12-.15-.28-.14-.44,0-.22.08-.44.24-.6.15-.16.37-.24.58-.24.22,0,.43.09.58.25.16.17.25.39.24.62,0,.45-.14.89-.41,1.24-.25.35-.57.64-.94.86h-.05Zm6.18-8.61c.44.01.88.11,1.28.29.51.23.94.61,1.24,1.08.39.65.58,1.41.54,2.17.01.68-.16,1.35-.5,1.93-.3.53-.74.98-1.26,1.29-.46.29-1,.44-1.55.45-.46,0-.92-.09-1.36-.25-.43-.16-.81-.42-1.1-.77-.28-.34-.44-.77-.43-1.22-.02-.26.05-.51.22-.71.13-.14.3-.21.49-.22.2,0,.4.06.57.17.17.12.27.32.25.53,0,.16-.04.32-.09.47l-.05.18c-.02.07-.03.15-.03.23-.02.33.15.64.43.82.28.18.61.28.95.28.38,0,.76-.14,1.05-.38.34-.29.61-.66.77-1.08.2-.51.3-1.06.29-1.61.04-.77-.16-1.53-.56-2.19-.31-.52-.88-.83-1.49-.82-.8.07-1.52.51-1.95,1.18-.05.07-.12.13-.21.15h-.06s-.09-.01-.12-.05h-.01c-.13-.08-.21-.23-.19-.39l.18-5.1c0-.09.03-.17.09-.23.07-.06.15-.09.24-.08h4.6c.09,0,.18.03.24.09.05.07.07.17.05.26l-.09.49c0,.08-.05.16-.11.21-.07.05-.15.08-.23.07h-3.97c-.16-.02-.31.1-.33.27,0,.02,0,.03,0,.05l-.12,3.07c-.02.14.03.21.15.21.15-.02.28-.09.39-.2.26-.21.56-.38.87-.49.29-.1.59-.15.9-.14Zm7.68,7.21c-.58,0-1.14-.23-1.57-.63-.55-.52-.95-1.17-1.17-1.89-.32-.99-.47-2.03-.44-3.08-.02-1.05.13-2.09.45-3.09.22-.73.63-1.39,1.18-1.91.43-.4.99-.63,1.58-.64.58,0,1.14.24,1.57.64.55.53.95,1.19,1.17,1.91.32,1,.47,2.04.44,3.09.03,1.04-.12,2.08-.44,3.08-.23.72-.63,1.37-1.18,1.89-.43.4-1,.62-1.58.63Zm.03-.51c.58,0,1.04-.42,1.37-1.27.39-1.23.56-2.53.5-3.82.06-1.3-.11-2.59-.5-3.83-.33-.86-.79-1.28-1.37-1.28s-1.06.43-1.4,1.28c-.4,1.24-.57,2.54-.51,3.83-.06,1.29.11,2.59.51,3.82.34.84.81,1.27,1.4,1.27Zm7.77.51c-.58,0-1.14-.23-1.57-.63-.55-.52-.95-1.17-1.17-1.89-.32-.99-.47-2.03-.44-3.08-.02-1.05.13-2.09.45-3.09.22-.73.63-1.39,1.18-1.91.43-.4.99-.63,1.58-.64.58,0,1.14.24,1.57.64.55.53.95,1.19,1.16,1.91.32,1,.47,2.04.44,3.09.03,1.04-.13,2.08-.45,3.08-.22.72-.63,1.37-1.18,1.89-.43.4-.99.62-1.58.63Zm.03-.51c.58,0,1.04-.42,1.37-1.27.39-1.23.56-2.53.5-3.82.06-1.3-.11-2.59-.5-3.83-.33-.86-.79-1.28-1.37-1.28s-1.06.43-1.4,1.28c-.4,1.24-.57,2.54-.51,3.83-.06,1.29.11,2.59.51,3.82.34.84.81,1.27,1.4,1.27Zm7.13-5.13c-.09,0-.17.02-.23.08-.06.06-.09.15-.08.23v2.27c.02,1.08.05,2.19.1,3.32v.07c0,.11-.04.22-.12.3-.2.2-.47.31-.75.3-.09,0-.17-.03-.24-.09-.06-.05-.1-.13-.1-.21.04-.59.07-1.16.1-1.72.03-.56.05-1.28.06-2.18v-5.7c0-.88-.04-1.75-.13-2.62v-.06c0-.16.06-.24.18-.24.06,0,.11.02.17.05l.63.3c.12.06.26.09.39.09h8.55c.15,0,.3-.08.38-.21l.08-.1s.07-.1.13-.19c.06-.08.12-.13.18-.13.18.06.34.15.48.27.21.15.41.31.58.49.04.05.06.1.06.16,0,.09-.06.16-.13.2-.03.02-.06.03-.09.05-.03,0-.05.02-.08.03-.16.04-.27.18-.27.35v9.96c.02.34-.07.67-.27.94-.31.28-.71.44-1.12.45h-.09c-.14.01-.23-.07-.28-.24-.06-.17-.19-.32-.35-.41-.38-.19-.79-.31-1.22-.35-.2-.03-.3-.09-.3-.17s.11-.11.33-.09c.99.08,1.63.12,1.92.12.12.01.24-.02.34-.09.07-.08.11-.19.1-.3v-4.62c0-.09-.02-.17-.08-.23-.06-.06-.15-.09-.23-.08h-8.57Zm3.75-5.05c0-.09-.02-.17-.08-.23-.06-.06-.15-.09-.23-.08h-3.43c-.09,0-.17.02-.23.08-.06.06-.09.15-.08.23v4.32c0,.09.02.17.08.23.06.06.15.09.23.08h3.44c.09,0,.17-.02.23-.08.06-.06.09-.15.08-.23v-4.32Zm1.28-.32c-.09,0-.17.02-.23.08-.06.06-.09.15-.08.23v4.32c0,.09.02.17.08.23.06.06.15.09.23.08h3.54c.09,0,.17-.02.23-.08.06-.06.09-.15.08-.23v-4.32c0-.09-.02-.17-.08-.23-.06-.06-.15-.09-.23-.08h-3.54Z"/>
    <g id="_飲料水_販売区分" data-name=" 飲料水 販売区分">
      <g>
        <path class="cls-1" d="m206.73,28.9l.22-.32s.1-.12.17-.22.13-.17.18-.23c.04-.05.09-.07.13-.07.08,0,.28.13.6.4s.54.49.67.67c.05.07.08.13.08.18s-.02.1-.08.15c-.08.05-.17.08-.28.08h-5.4c-.11,0-.19.03-.24.09s-.06.15-.04.25c.69,3.31,2.69,5.79,6,7.44.08.04.14.08.19.12.04.04.06.07.05.09,0,.03-.05.05-.13.08-.07.02-.12.03-.14.04-.29.08-.49.23-.61.46-.07.13-.15.2-.24.2-.05,0-.11-.02-.17-.05-1.62-.99-2.83-2.18-3.62-3.58-.79-1.39-1.32-2.92-1.59-4.57,0-.14-.04-.21-.08-.21-.03,0-.06.07-.09.21-.17,1.16-.47,2.22-.9,3.17-.43.96-1.09,1.85-1.97,2.7-.88.85-2.03,1.61-3.45,2.29-.1.04-.17.06-.2.06h-.03c-.06,0-.1-.02-.12-.08-.02-.05,0-.1.03-.15.03-.04.08-.08.17-.13,1.81-1.05,3.12-2.23,3.94-3.55.81-1.31,1.33-2.84,1.55-4.57v-.06c0-.18-.1-.27-.29-.27h-2.8c-.63,0-1.29.07-1.98.17h-.08c-.14,0-.25-.07-.31-.2l-.06-.12c-.04-.1-.06-.16-.06-.18,0-.06.02-.11.08-.14.05-.04.12-.05.21-.04.34.03.85.05,1.54.08h3.54c.2,0,.31-.1.33-.3l.04-1.05c0-.15.01-.38.01-.69,0-.73-.04-1.43-.12-2.08v-.03c0-.1.03-.17.09-.22.06-.04.15-.06.25-.05.45.05.77.1.95.14s.27.1.27.16c0,.05-.04.1-.12.15l-.04.04c-.13.09-.2.22-.2.38v.54c-.04,1.07-.08,1.96-.13,2.69v.04c0,.19.1.29.3.29h3.58c.16,0,.29-.07.38-.2,0,0,.02,0,.02,0Z"/>
        <path class="cls-1" d="m216.17,25.22c0-.1.03-.17.08-.22.05-.04.13-.06.23-.04l.39.07s.17.03.38.04c.31.01.46.06.46.15,0,.05-.04.11-.13.17l-.03.03c-.14.11-.21.24-.2.39.12,1.91.38,3.56.78,4.94.4,1.39,1.04,2.62,1.92,3.71s2.07,2.02,3.58,2.79c.16.07.24.13.24.19,0,.03-.02.06-.07.08s-.12.04-.2.06c-.29.08-.5.24-.65.48-.07.12-.15.18-.25.18-.05,0-.1,0-.17-.04-1.64-1-2.86-2.26-3.65-3.79-.79-1.53-1.33-3.38-1.6-5.55-.03-.15-.05-.22-.07-.22s-.04.07-.06.21c-.13,1.26-.39,2.43-.77,3.51s-1,2.12-1.86,3.13c-.85,1.01-2.01,1.92-3.46,2.75-.1.06-.18.09-.24.09-.04,0-.08-.02-.12-.06,0,0-.01-.04-.01-.08,0-.07.06-.15.2-.24,1.35-.92,2.41-1.92,3.17-3.01.77-1.08,1.31-2.2,1.62-3.33.32-1.13.51-2.38.58-3.74,0-.15.01-.38.01-.67,0-.62-.04-1.26-.11-1.92v-.06s.01,0,.01,0Z"/>
      </g>
    </g>
  </g>
</svg>