<svg xmlns="http://www.w3.org/2000/svg" width="800" height="351" viewBox="0 0 800 351">
  <g id="グループ_2886" data-name="グループ 2886" transform="translate(-540 -2847)">
    <path id="パス_1716" data-name="パス 1716" d="M10.7-9.345a.431.431,0,0,0,.375-.2l.15-.195.128-.173a1.534,1.534,0,0,1,.142-.172.173.173,0,0,1,.12-.06,1.253,1.253,0,0,1,.472.293,3.517,3.517,0,0,1,.548.517.33.33,0,0,1,.075.18.215.215,0,0,1-.09.165.454.454,0,0,1-.27.075H8.265a.314.314,0,0,0-.232.083A.314.314,0,0,0,7.95-8.6v.72a.314.314,0,0,0,.083.233.314.314,0,0,0,.232.083H11.76a.431.431,0,0,0,.375-.2l.18-.24q.045-.06.135-.187a1.535,1.535,0,0,1,.158-.195.189.189,0,0,1,.127-.068,1.432,1.432,0,0,1,.51.33,3.736,3.736,0,0,1,.6.585.33.33,0,0,1,.075.18.215.215,0,0,1-.09.165.527.527,0,0,1-.285.075H7.665a.561.561,0,0,0-.39.15A17.036,17.036,0,0,1,5.61-5.61a.254.254,0,0,0-.135.21.336.336,0,0,0,.12.225,1.043,1.043,0,0,1,.3.675.461.461,0,0,1-.105.315.377.377,0,0,1-.3.12H5.46a.341.341,0,0,1-.173-.06.6.6,0,0,1-.173-.165,5.032,5.032,0,0,0-.878-.818A8.223,8.223,0,0,0,3.12-5.82q-.285-.165-.24-.24.075-.1.315-.06a5.226,5.226,0,0,1,1.56.39.4.4,0,0,0,.18.045.306.306,0,0,0,.255-.15q.375-.525.63-.9a.279.279,0,0,0,.06-.18q0-.2-.27-.2H3.645a16.158,16.158,0,0,0-1.98.165h-.09a.308.308,0,0,1-.3-.195L1.2-7.275a.373.373,0,0,1-.045-.165q0-.225.3-.195Q1.965-7.59,3-7.56H6.675a.314.314,0,0,0,.233-.083.314.314,0,0,0,.082-.233V-8.6a.314.314,0,0,0-.082-.233.314.314,0,0,0-.233-.083H5.01a16.157,16.157,0,0,0-1.98.165H2.94a.308.308,0,0,1-.3-.2l-.06-.12a.4.4,0,0,1-.045-.18.165.165,0,0,1,.075-.142.3.3,0,0,1,.21-.037q.51.045,1.545.075h2.31a.314.314,0,0,0,.233-.083A.314.314,0,0,0,6.99-9.66v-.7a.314.314,0,0,0-.082-.233.314.314,0,0,0-.233-.082H4.44a16.158,16.158,0,0,0-1.98.165H2.37a.308.308,0,0,1-.3-.2l-.06-.12a.4.4,0,0,1-.045-.18.165.165,0,0,1,.075-.143.3.3,0,0,1,.21-.037q.51.045,1.545.075h2.88a.278.278,0,0,0,.315-.315l-.045-.825v-.03q0-.27.225-.27l.135.03a6.652,6.652,0,0,1,.787.307q.218.113.218.218,0,.075-.12.15l-.045.03a.431.431,0,0,0-.2.375v.015a.314.314,0,0,0,.083.233.314.314,0,0,0,.232.082h2.94a.431.431,0,0,0,.375-.195l.165-.225q.06-.075.142-.187a1.534,1.534,0,0,1,.142-.172.173.173,0,0,1,.12-.06,1.337,1.337,0,0,1,.518.307,3.661,3.661,0,0,1,.592.548.33.33,0,0,1,.075.18.215.215,0,0,1-.09.165.527.527,0,0,1-.285.075H8.265a.314.314,0,0,0-.232.082.314.314,0,0,0-.083.233v.7a.314.314,0,0,0,.083.233.314.314,0,0,0,.232.083ZM6.84-3.84q-.165.12-.165.21a.111.111,0,0,0,.068.1.308.308,0,0,0,.188.022l4.125-.09a.362.362,0,0,0,.21-.053.153.153,0,0,0,.075-.127q0-.1-.15-.21a8.608,8.608,0,0,0-.9-.615q-.285-.165-.225-.255a.183.183,0,0,1,.135-.045.932.932,0,0,1,.18.015,6.538,6.538,0,0,1,1.852.652,3.38,3.38,0,0,1,1.058.855,1.391,1.391,0,0,1,.33.8.522.522,0,0,1-.12.36.4.4,0,0,1-.315.135H13.11a.473.473,0,0,1-.315-.27,5.468,5.468,0,0,0-.585-.75.484.484,0,0,0-.39-.15q-1.53.15-3.585.315a.29.29,0,0,0-.3.315v.975Q7.98-.18,8.01.57V.645a.322.322,0,0,1-.15.3,1.247,1.247,0,0,1-.72.2.249.249,0,0,1-.187-.09A.3.3,0,0,1,6.87.84q.09-1.17.12-2.37V-2.535q0-.33-.33-.3L2.4-2.55a.481.481,0,0,0-.3.09l-.06.075a.216.216,0,0,1-.15.075.24.24,0,0,1-.15-.06.317.317,0,0,1-.1-.15l-.24-.54a.374.374,0,0,1-.03-.165.192.192,0,0,1,.067-.15.272.272,0,0,1,.187-.06q1.455,0,3.675-.045A.658.658,0,0,0,5.7-3.615Q6.36-4.1,7.065-4.71A9.253,9.253,0,0,0,8.85-6.675a.279.279,0,0,1,.255-.165.279.279,0,0,1,.18.06q.945.51.945.675,0,.06-.135.09h-.06a.481.481,0,0,0-.315.135A17.635,17.635,0,0,1,6.84-3.84ZM4.56-2a.325.325,0,0,1,.24-.15.311.311,0,0,1,.195.09l.285.24q.03.03.33.225.33.2.33.285t-.165.09h-.03a.561.561,0,0,0-.39.135A12.133,12.133,0,0,1,3.608-.045,14.645,14.645,0,0,1,1.545.8l-.2.03a.158.158,0,0,1-.135-.06A.061.061,0,0,1,1.2.72Q1.2.63,1.425.5A11.6,11.6,0,0,0,2.61-.21a9.906,9.906,0,0,0,1.08-.847A6.448,6.448,0,0,0,4.56-2Zm4.74.45q-.285-.135-.24-.24.06-.075.33-.06a8.872,8.872,0,0,1,2.28.615,4.017,4.017,0,0,1,1.312.855,1.28,1.28,0,0,1,.413.81.421.421,0,0,1-.12.323.463.463,0,0,1-.33.112H12.93a.455.455,0,0,1-.165-.045.361.361,0,0,1-.15-.105A8.167,8.167,0,0,0,11.168-.465,15.314,15.314,0,0,0,9.3-1.545Zm17.745-8.22a.431.431,0,0,0,.375-.2l.09-.12.1-.142a.766.766,0,0,1,.12-.143.17.17,0,0,1,.112-.045,1.1,1.1,0,0,1,.435.247,2.817,2.817,0,0,1,.51.472.2.2,0,0,1,.06.15.222.222,0,0,1-.135.2.1.1,0,0,1-.052.023.237.237,0,0,0-.083.038.348.348,0,0,0-.285.345v6.045q.03,1.635.1,3.3V.48a.322.322,0,0,1-.15.3,1.257,1.257,0,0,1-.765.255.165.165,0,0,1-.165-.12.245.245,0,0,1-.03-.135,1.968,1.968,0,0,1,.03-.225q0-.03.03-.36V.09a.314.314,0,0,0-.083-.233.314.314,0,0,0-.233-.082h-4.8A.314.314,0,0,0,22-.143a.314.314,0,0,0-.083.233V.135q.03.36.03.405V.645a.336.336,0,0,1-.1.27.956.956,0,0,1-.7.24.3.3,0,0,1-.218-.1.287.287,0,0,1-.1-.2q.06-.885.1-1.718t.06-2.183v-4.2a23.218,23.218,0,0,0-.135-2.64v-.06q0-.225.195-.225a.334.334,0,0,1,.15.03l.69.3a.9.9,0,0,0,.375.075h.93a.305.305,0,0,0,.345-.27,13.963,13.963,0,0,0,.3-2.295.3.3,0,0,1,.112-.233.312.312,0,0,1,.247-.037l1.11.27a.409.409,0,0,1,.195.1.207.207,0,0,1,.075.135.135.135,0,0,1-.09.12l-.09.045a1.56,1.56,0,0,0-.165.075.458.458,0,0,0-.195.2q-.3.57-.855,1.515a.279.279,0,0,0-.06.18q0,.2.27.2Zm-9.675-2.3q-.24-.195-.2-.27a.174.174,0,0,1,.12-.03,1.029,1.029,0,0,1,.195.015,3.324,3.324,0,0,1,1.6.675,1.3,1.3,0,0,1,.517.945.612.612,0,0,1-.135.412.45.45,0,0,1-.36.158.631.631,0,0,1-.15-.015.4.4,0,0,1-.27-.27,3.553,3.553,0,0,0-.54-.832A6.827,6.827,0,0,0,17.37-12.06ZM16.26-2.88q0-.165.315-.165h.345a.368.368,0,0,0,.2-.045.632.632,0,0,0,.158-.255q.33-.645,1.785-3.96l.975-2.19q.12-.27.24-.27.1,0,.1.15a.587.587,0,0,1-.045.2l-.75,2.07-.653,1.808q-.517,1.433-.622,1.807a5.279,5.279,0,0,0-.24,1.305,2,2,0,0,0,.06.45q.06.255.075.36.1.435.165.772a4.448,4.448,0,0,1,.06.773,1.718,1.718,0,0,1-.195.9.656.656,0,0,1-.6.315Q17.3,1.14,17.2.6a1.028,1.028,0,0,1-.015-.2A1.028,1.028,0,0,1,17.2.21q.075-.825.075-1.32a4.728,4.728,0,0,0-.075-.923.754.754,0,0,0-.225-.472.814.814,0,0,0-.42-.18Q16.26-2.73,16.26-2.88ZM27.03-5.43a.314.314,0,0,0,.233-.082.314.314,0,0,0,.083-.233v-3.27a.314.314,0,0,0-.083-.233.314.314,0,0,0-.233-.083h-4.8A.314.314,0,0,0,22-9.248a.314.314,0,0,0-.083.233v3.27A.314.314,0,0,0,22-5.513a.314.314,0,0,0,.232.082ZM16.14-8.745q-.255-.18-.21-.255a.2.2,0,0,1,.165-.06.631.631,0,0,1,.15.015,3.238,3.238,0,0,1,1.56.615,1.2,1.2,0,0,1,.51.885.568.568,0,0,1-.135.382.434.434,0,0,1-.345.158.631.631,0,0,1-.15-.015.4.4,0,0,1-.27-.27,3.026,3.026,0,0,0-.517-.75A5.916,5.916,0,0,0,16.14-8.745Zm6.09,3.75A.314.314,0,0,0,22-4.913a.314.314,0,0,0-.083.233V-.99A.314.314,0,0,0,22-.758a.314.314,0,0,0,.232.083h4.8a.314.314,0,0,0,.233-.083.314.314,0,0,0,.083-.232V-4.68a.314.314,0,0,0-.083-.233.314.314,0,0,0-.233-.082Zm16.035,2.58a.329.329,0,0,0,.285.33,5.7,5.7,0,0,1,1.627.84A1.417,1.417,0,0,1,40.815-.12a.373.373,0,0,1-.105.308.358.358,0,0,1-.225.083A.911.911,0,0,1,39.9-.015q-.105-.09-.5-.443T38.61-1.11a.245.245,0,0,0-.18-.075q-.15,0-.225.225A1.971,1.971,0,0,1,37.373.053,2.756,2.756,0,0,1,35.9.42a3.163,3.163,0,0,1-1.56-.383,1.191,1.191,0,0,1-.69-1.087,1.132,1.132,0,0,1,.368-.848,2.293,2.293,0,0,1,.915-.525,3.65,3.65,0,0,1,1.1-.172,5.846,5.846,0,0,1,1.1.135l.09.015q.27,0,.24-.3T37.4-3.81q-.03-.27-.06-.87-.03-.33-.345-.285a7.334,7.334,0,0,1-1.245.12,2.916,2.916,0,0,1-1.388-.307,1.91,1.91,0,0,1-.847-.863.583.583,0,0,1-.045-.165q0-.075.06-.075a.185.185,0,0,1,.1.045.678.678,0,0,0,.09.06,4.282,4.282,0,0,0,.78.4,2.95,2.95,0,0,0,1.125.2,9.476,9.476,0,0,0,1.365-.135q.285-.045.285-.255v-.195q0-.93.045-1.875V-8.1q0-.225-.09-.225h-.12a2.04,2.04,0,0,1-.75-.135,2.82,2.82,0,0,1-.615-.375,2.381,2.381,0,0,1-.48-.465.567.567,0,0,1-.1-.225.053.053,0,0,1,.06-.06.581.581,0,0,1,.24.075l.315.165a2.2,2.2,0,0,0,.435.217,1.536,1.536,0,0,0,.5.068,1.915,1.915,0,0,0,.465-.06.352.352,0,0,0,.315-.315,6.661,6.661,0,0,0,.09-.9,1.859,1.859,0,0,0-.165-.81,2.033,2.033,0,0,0-.285-.4,2.11,2.11,0,0,1-.135-.18.292.292,0,0,1-.06-.15.175.175,0,0,1,.1-.15.465.465,0,0,1,.248-.06,1.312,1.312,0,0,1,.435.113,1.441,1.441,0,0,1,.51.345.817.817,0,0,1,.225.592,2.788,2.788,0,0,1-.09.593q-.09.383-.195.712a.479.479,0,0,0,.09.2.2.2,0,0,0,.24.1l.435-.135a.808.808,0,0,1,.255-.045.454.454,0,0,1,.27.075.258.258,0,0,1,.1.225.5.5,0,0,1-.112.3.771.771,0,0,1-.322.24,5.7,5.7,0,0,1-.915.3.349.349,0,0,0-.3.33q-.06.705-.06,1.56a3.348,3.348,0,0,0,.015.375.266.266,0,0,0,.1.225.288.288,0,0,0,.263.03,3.1,3.1,0,0,0,.81-.375.449.449,0,0,0,.225-.345.962.962,0,0,0-.27-.51q-.03-.045-.083-.113a1.431,1.431,0,0,1-.1-.142.567.567,0,0,1-.1-.225.04.04,0,0,1,.045-.045.718.718,0,0,1,.27.165,1.912,1.912,0,0,0,.81.39,1.912,1.912,0,0,0,.345.06.6.6,0,0,1,.36.15.428.428,0,0,1,.105.315.806.806,0,0,1-.15.45,1.117,1.117,0,0,1-.465.375,10.2,10.2,0,0,1-1.815.585q-.3.09-.255.495.045.51.21,1.605ZM35.61-.315a2.313,2.313,0,0,0,1.252-.308A1.318,1.318,0,0,0,37.47-1.5v-.075a.294.294,0,0,0-.225-.3,4.007,4.007,0,0,0-1.35-.24,2.509,2.509,0,0,0-1.178.277.833.833,0,0,0-.532.742.639.639,0,0,0,.443.57A2.263,2.263,0,0,0,35.61-.315ZM53.01-9.42a1.533,1.533,0,0,1,1.05.48,3.414,3.414,0,0,1,.825,1.35A5.891,5.891,0,0,1,55.2-5.58a7.069,7.069,0,0,1-.983,3.84,5.737,5.737,0,0,1-3.232,2.3.831.831,0,0,1-.27.06q-.135,0-.135-.1a.127.127,0,0,1,.075-.105,5.073,5.073,0,0,0,2.738-2.46A7.82,7.82,0,0,0,54.18-5.49,6.859,6.859,0,0,0,53.805-7.9q-.375-1-1.005-1a1.228,1.228,0,0,0-.945.608,5.316,5.316,0,0,0-.735,1.425,4.3,4.3,0,0,0-.285,1.358,1.447,1.447,0,0,0,.083.487,3.7,3.7,0,0,0,.248.532q.09.18.165.375a.953.953,0,0,1,.075.33.335.335,0,0,1-.1.247.355.355,0,0,1-.262.1.834.834,0,0,1-.66-.352,2.362,2.362,0,0,1-.428-.87,3.7,3.7,0,0,1-.143-.983,7.641,7.641,0,0,1,.158-1.44q.157-.81.428-1.965.135-.57.24-1.1a4.41,4.41,0,0,0,.1-.75.824.824,0,0,0-.225-.585,1.919,1.919,0,0,0-.2-.2q-.128-.112-.128-.187t.1-.12a.646.646,0,0,1,.255-.045.8.8,0,0,1,.645.338,1.338,1.338,0,0,1,.27.862,4.043,4.043,0,0,1-.127,1q-.128.5-.382,1.3l-.15.45a.187.187,0,0,0,.135.06q.12,0,.225-.165A2.21,2.21,0,0,1,53.01-9.42Z" transform="translate(621 2889)" fill="#fff"/>
    <path id="パス_1720" data-name="パス 1720" d="M1.35,0q-.105,0-.1-.21,0-.225.1-.225h.24A2.662,2.662,0,0,0,2.775-.66a.742.742,0,0,0,.45-.705V-8.55a1.488,1.488,0,0,0-.082-.607.505.505,0,0,0-.39-.21A8.147,8.147,0,0,0,1.605-9.42H1.35q-.105,0-.1-.225,0-.21.1-.21a4.924,4.924,0,0,0,1.463-.2A3.938,3.938,0,0,0,4.05-10.71a.363.363,0,0,1,.2-.09q.18,0,.18.27v9.165q0,.93,1.635.93h.225a.082.082,0,0,1,.082.052A.475.475,0,0,1,6.39-.21q0,.21-.105.21Zm9.84.21A2.353,2.353,0,0,1,9.622-.42a4.345,4.345,0,0,1-1.17-1.89A9.342,9.342,0,0,1,8.01-5.385a9.333,9.333,0,0,1,.45-3.09,4.458,4.458,0,0,1,1.177-1.913,2.355,2.355,0,0,1,1.583-.637,2.338,2.338,0,0,1,1.568.637,4.4,4.4,0,0,1,1.17,1.913,9.479,9.479,0,0,1,.442,3.09,9.2,9.2,0,0,1-.45,3.075A4.4,4.4,0,0,1,12.773-.42,2.37,2.37,0,0,1,11.19.21Zm.03-.51q.87,0,1.373-1.267a10.952,10.952,0,0,0,.5-3.818,11.086,11.086,0,0,0-.5-3.833Q12.09-10.5,11.22-10.5t-1.4,1.283a10.935,10.935,0,0,0-.51,3.833,10.8,10.8,0,0,0,.51,3.818Q10.335-.3,11.22-.3Zm5.19,1.905a.088.088,0,0,1-.075-.045.146.146,0,0,1-.03-.075.086.086,0,0,1,.03-.06,2.074,2.074,0,0,0,.413-.48.854.854,0,0,0,.142-.42A.362.362,0,0,0,16.695.18a1.179,1.179,0,0,1-.4-.285.642.642,0,0,1-.143-.435.814.814,0,0,1,.24-.6.8.8,0,0,1,.585-.24.784.784,0,0,1,.585.248.858.858,0,0,1,.24.623A2.036,2.036,0,0,1,17.392.735a3.076,3.076,0,0,1-.937.855ZM22.74.21a2.353,2.353,0,0,1-1.567-.63A4.345,4.345,0,0,1,20-2.31a9.342,9.342,0,0,1-.442-3.075,9.333,9.333,0,0,1,.45-3.09,4.458,4.458,0,0,1,1.177-1.913,2.355,2.355,0,0,1,1.583-.637,2.338,2.338,0,0,1,1.567.637,4.4,4.4,0,0,1,1.17,1.913,9.479,9.479,0,0,1,.443,3.09A9.2,9.2,0,0,1,25.5-2.31,4.4,4.4,0,0,1,24.323-.42,2.37,2.37,0,0,1,22.74.21Zm.03-.51q.87,0,1.372-1.267a10.952,10.952,0,0,0,.5-3.818,11.086,11.086,0,0,0-.5-3.833Q23.64-10.5,22.77-10.5q-.885,0-1.4,1.283a10.935,10.935,0,0,0-.51,3.833,10.8,10.8,0,0,0,.51,3.818Q21.885-.3,22.77-.3Zm7.77.51a2.353,2.353,0,0,1-1.567-.63A4.345,4.345,0,0,1,27.8-2.31a9.342,9.342,0,0,1-.442-3.075,9.333,9.333,0,0,1,.45-3.09,4.458,4.458,0,0,1,1.177-1.913,2.355,2.355,0,0,1,1.583-.637,2.338,2.338,0,0,1,1.567.637,4.4,4.4,0,0,1,1.17,1.913,9.479,9.479,0,0,1,.443,3.09A9.2,9.2,0,0,1,33.3-2.31,4.4,4.4,0,0,1,32.122-.42,2.37,2.37,0,0,1,30.54.21Zm.03-.51q.87,0,1.372-1.267a10.952,10.952,0,0,0,.5-3.818,11.086,11.086,0,0,0-.5-3.833Q31.44-10.5,30.57-10.5q-.885,0-1.4,1.283a10.935,10.935,0,0,0-.51,3.833,10.8,10.8,0,0,0,.51,3.818Q29.685-.3,30.57-.3Zm7.77.51a2.353,2.353,0,0,1-1.567-.63A4.345,4.345,0,0,1,35.6-2.31a9.342,9.342,0,0,1-.442-3.075,9.333,9.333,0,0,1,.45-3.09,4.458,4.458,0,0,1,1.178-1.913,2.355,2.355,0,0,1,1.583-.637,2.338,2.338,0,0,1,1.568.637,4.4,4.4,0,0,1,1.17,1.913,9.479,9.479,0,0,1,.443,3.09A9.2,9.2,0,0,1,41.1-2.31,4.4,4.4,0,0,1,39.922-.42,2.37,2.37,0,0,1,38.34.21Zm.03-.51q.87,0,1.373-1.267a10.952,10.952,0,0,0,.5-3.818,11.086,11.086,0,0,0-.5-3.833Q39.24-10.5,38.37-10.5q-.885,0-1.4,1.283a10.935,10.935,0,0,0-.51,3.833,10.8,10.8,0,0,0,.51,3.818Q37.485-.3,38.37-.3Zm7.14-5.13a.314.314,0,0,0-.233.082.314.314,0,0,0-.083.233V-2.85q.03,1.62.1,3.315V.54a.407.407,0,0,1-.12.3,1.018,1.018,0,0,1-.75.3.358.358,0,0,1-.24-.09.27.27,0,0,1-.1-.21q.06-.885.1-1.718t.06-2.183v-5.7a23.067,23.067,0,0,0-.135-2.625v-.06q0-.24.18-.24a.373.373,0,0,1,.165.045l.63.3a1,1,0,0,0,.39.09h8.535a.423.423,0,0,0,.375-.21l.075-.1q.045-.06.135-.187t.18-.128a1.325,1.325,0,0,1,.48.27,4.033,4.033,0,0,1,.585.495.258.258,0,0,1,.06.165.246.246,0,0,1-.135.2.378.378,0,0,1-.09.045.582.582,0,0,0-.075.03.344.344,0,0,0-.27.345v9.96a1.458,1.458,0,0,1-.27.945,1.77,1.77,0,0,1-1.125.45l-.09.015q-.21,0-.285-.255A.767.767,0,0,0,53.22.375,3.432,3.432,0,0,0,52,.03q-.3-.045-.3-.165t.33-.09q1.485.12,1.92.12a.5.5,0,0,0,.337-.09.393.393,0,0,0,.1-.3v-4.62a.314.314,0,0,0-.083-.233.314.314,0,0,0-.233-.082Zm3.75-5.055a.314.314,0,0,0-.083-.232.314.314,0,0,0-.233-.083H45.51a.314.314,0,0,0-.233.083.314.314,0,0,0-.083.232v4.32a.314.314,0,0,0,.083.233.314.314,0,0,0,.233.082h3.435a.314.314,0,0,0,.233-.082.314.314,0,0,0,.083-.233Zm1.275-.315a.314.314,0,0,0-.232.083.314.314,0,0,0-.083.232v4.32a.314.314,0,0,0,.083.233.314.314,0,0,0,.232.082h3.54a.314.314,0,0,0,.233-.082.314.314,0,0,0,.083-.233v-4.32a.314.314,0,0,0-.083-.232.314.314,0,0,0-.233-.083Z" transform="translate(1024 2889)" fill="#fff"/>
    <path id="パス_1717" data-name="パス 1717" d="M1.35,0q-.105,0-.1-.21,0-.225.1-.225h.24A2.662,2.662,0,0,0,2.775-.66a.742.742,0,0,0,.45-.705V-8.55a1.488,1.488,0,0,0-.082-.607.505.505,0,0,0-.39-.21A8.147,8.147,0,0,0,1.605-9.42H1.35q-.105,0-.1-.225,0-.21.1-.21a4.924,4.924,0,0,0,1.463-.2A3.938,3.938,0,0,0,4.05-10.71a.363.363,0,0,1,.2-.09q.18,0,.18.27v9.165q0,.93,1.635.93h.225a.082.082,0,0,1,.082.052A.475.475,0,0,1,6.39-.21q0,.21-.105.21Zm18-9.765a.431.431,0,0,0,.375-.2l.09-.12.1-.142a.766.766,0,0,1,.12-.143.17.17,0,0,1,.113-.045,1.1,1.1,0,0,1,.435.247,2.817,2.817,0,0,1,.51.472.2.2,0,0,1,.06.15.222.222,0,0,1-.135.2.1.1,0,0,1-.052.023.237.237,0,0,0-.083.038.348.348,0,0,0-.285.345v6.045q.03,1.635.1,3.3V.48a.322.322,0,0,1-.15.3,1.257,1.257,0,0,1-.765.255.165.165,0,0,1-.165-.12A.245.245,0,0,1,19.59.78a1.968,1.968,0,0,1,.03-.225q0-.03.03-.36V.09a.314.314,0,0,0-.082-.233.314.314,0,0,0-.233-.082h-4.8a.314.314,0,0,0-.233.082A.314.314,0,0,0,14.22.09V.135q.03.36.03.405V.645a.336.336,0,0,1-.1.27.956.956,0,0,1-.7.24.3.3,0,0,1-.218-.1.287.287,0,0,1-.1-.2q.06-.885.1-1.718t.06-2.183v-4.2a23.218,23.218,0,0,0-.135-2.64v-.06q0-.225.195-.225a.334.334,0,0,1,.15.03l.69.3a.9.9,0,0,0,.375.075h.93a.305.305,0,0,0,.345-.27,13.964,13.964,0,0,0,.3-2.295.3.3,0,0,1,.112-.233A.312.312,0,0,1,16.5-12.6l1.11.27a.409.409,0,0,1,.195.1.207.207,0,0,1,.075.135.135.135,0,0,1-.09.12l-.09.045a1.56,1.56,0,0,0-.165.075.458.458,0,0,0-.195.2q-.3.57-.855,1.515a.279.279,0,0,0-.06.18q0,.2.27.2Zm-9.675-2.3q-.24-.195-.2-.27a.174.174,0,0,1,.12-.03,1.029,1.029,0,0,1,.195.015,3.324,3.324,0,0,1,1.6.675,1.3,1.3,0,0,1,.517.945.612.612,0,0,1-.135.412.45.45,0,0,1-.36.158.631.631,0,0,1-.15-.015.4.4,0,0,1-.27-.27,3.553,3.553,0,0,0-.54-.832A6.827,6.827,0,0,0,9.675-12.06ZM8.565-2.88q0-.165.315-.165h.345a.368.368,0,0,0,.2-.045.632.632,0,0,0,.158-.255q.33-.645,1.785-3.96l.975-2.19q.12-.27.24-.27t.105.15a.587.587,0,0,1-.045.2L11.9-7.35l-.653,1.808q-.518,1.433-.623,1.807a5.279,5.279,0,0,0-.24,1.305,2,2,0,0,0,.06.45q.06.255.075.36.1.435.165.772a4.448,4.448,0,0,1,.06.773,1.718,1.718,0,0,1-.195.9.656.656,0,0,1-.6.315Q9.6,1.14,9.51.6a1.028,1.028,0,0,1-.015-.2A1.028,1.028,0,0,1,9.51.21q.075-.825.075-1.32a4.728,4.728,0,0,0-.075-.923.754.754,0,0,0-.225-.472.814.814,0,0,0-.42-.18Q8.565-2.73,8.565-2.88Zm10.77-2.55a.314.314,0,0,0,.233-.082.314.314,0,0,0,.082-.233v-3.27a.314.314,0,0,0-.082-.233.314.314,0,0,0-.233-.083h-4.8a.314.314,0,0,0-.233.083.314.314,0,0,0-.082.233v3.27a.314.314,0,0,0,.082.233.314.314,0,0,0,.233.082ZM8.445-8.745Q8.19-8.925,8.235-9A.2.2,0,0,1,8.4-9.06a.631.631,0,0,1,.15.015,3.238,3.238,0,0,1,1.56.615,1.2,1.2,0,0,1,.51.885.568.568,0,0,1-.135.382.434.434,0,0,1-.345.158.631.631,0,0,1-.15-.015.4.4,0,0,1-.27-.27A3.026,3.026,0,0,0,9.2-8.04,5.916,5.916,0,0,0,8.445-8.745Zm6.09,3.75a.314.314,0,0,0-.233.082.314.314,0,0,0-.082.233V-.99a.314.314,0,0,0,.082.232.314.314,0,0,0,.233.083h4.8a.314.314,0,0,0,.233-.083A.314.314,0,0,0,19.65-.99V-4.68a.314.314,0,0,0-.082-.233.314.314,0,0,0-.233-.082ZM28.71-.27a.317.317,0,0,1-.345.27h-4.92q-.27,0-.33-.165a.4.4,0,0,1-.045-.18.5.5,0,0,1,.045-.195,10.48,10.48,0,0,1,1.065-2q.63-.923,1.65-2.138a16.129,16.129,0,0,0,1.59-2.108,3.294,3.294,0,0,0,.5-1.7,2.349,2.349,0,0,0-.45-1.425,1.63,1.63,0,0,0-1.41-.615,2.015,2.015,0,0,0-1.2.352,1.035,1.035,0,0,0-.495.863.914.914,0,0,0,.052.33,1.37,1.37,0,0,0,.173.3,1.929,1.929,0,0,1,.157.292.807.807,0,0,1,.052.307.781.781,0,0,1-.218.578.761.761,0,0,1-.562.217.713.713,0,0,1-.548-.293,1.2,1.2,0,0,1-.247-.8,2.439,2.439,0,0,1,.337-1.17,2.859,2.859,0,0,1,1.02-1.043,3.091,3.091,0,0,1,1.673-.427,3.157,3.157,0,0,1,1.74.427,2.414,2.414,0,0,1,.938,1.065A3.292,3.292,0,0,1,29.2-8.205,2.694,2.694,0,0,1,29-7.1a3.268,3.268,0,0,1-.57.87q-.36.4-1.08,1.057-.165.165-.42.39t-.585.555a11.715,11.715,0,0,0-2.07,2.76.373.373,0,0,0-.045.165q0,.21.285.21h1.365a7.7,7.7,0,0,0,1.635-.127,1.471,1.471,0,0,0,.817-.458,3.68,3.68,0,0,0,.548-1.065q.03-.09.1-.09a1.242,1.242,0,0,1,.135.03.588.588,0,0,1,.135.06.1.1,0,0,1,.045.09l-.015.075ZM39.87-8.13a.423.423,0,0,0,.375-.21l.075-.1.1-.142a.766.766,0,0,1,.12-.142.17.17,0,0,1,.112-.045,1.044,1.044,0,0,1,.427.262,2.784,2.784,0,0,1,.488.488.2.2,0,0,1,.06.15.249.249,0,0,1-.12.2l-.06.03a.344.344,0,0,0-.27.345v1.02q.03,1.455.075,2.265v.075a.334.334,0,0,1-.135.3,1.379,1.379,0,0,1-.36.2,1.042,1.042,0,0,1-.375.082.13.13,0,0,1-.1-.06.269.269,0,0,1-.045-.165.193.193,0,0,0-.083-.165.39.39,0,0,0-.233-.06H38a.3.3,0,0,0-.195.06.185.185,0,0,0-.075.15.373.373,0,0,0,.045.165A6.443,6.443,0,0,0,39.12-1.89a.336.336,0,0,0,.225.12.219.219,0,0,0,.135-.045A10.041,10.041,0,0,0,40.6-2.708a7.007,7.007,0,0,0,.892-.967.271.271,0,0,1,.24-.15.324.324,0,0,1,.21.09q.9.675.9.84,0,.075-.15.075h-.045a.816.816,0,0,0-.39.105,16.585,16.585,0,0,1-2.175,1.05q-.2.09-.195.225t.165.21a11.439,11.439,0,0,0,3.7,1.29q.315.075.3.15a.158.158,0,0,1-.1.1q-.09.038-.15.067a1,1,0,0,0-.48.51.337.337,0,0,1-.4.21A9.634,9.634,0,0,1,39.465-.63a7.312,7.312,0,0,1-2.13-2.94.377.377,0,0,0-.375-.24H35.115a.314.314,0,0,0-.233.083A.314.314,0,0,0,34.8-3.5V-.9a.3.3,0,0,0,.09.24.3.3,0,0,0,.255.045l3-.51a.8.8,0,0,1,.18-.015q.135,0,.165.075v.015q0,.12-.255.21Q35.085.165,32.865.765A.467.467,0,0,0,32.6.9a.263.263,0,0,1-.03.075.183.183,0,0,1-.165.1q-.15,0-.255-.195L31.815.27A.373.373,0,0,1,31.77.105q0-.21.24-.225.87-.12,1.59-.24a.3.3,0,0,0,.285-.33V-8.07q0-.27-.195-.27a.279.279,0,0,0-.18.06,20.687,20.687,0,0,1-2.16,1.125q-.285.12-.33.015v-.03q0-.09.225-.225A18.194,18.194,0,0,0,33.39-8.813a18.164,18.164,0,0,0,1.965-1.717,5.591,5.591,0,0,0,1.35-1.995.278.278,0,0,1,.27-.225.39.39,0,0,1,.12.015l1.17.33a.449.449,0,0,1,.18.1.193.193,0,0,1,.075.142q0,.09-.105.105a.3.3,0,0,0-.1.21.259.259,0,0,0,.09.18,11.787,11.787,0,0,0,2.408,1.665,21.19,21.19,0,0,0,3.082,1.35.72.72,0,0,1,.2.09.13.13,0,0,1,.06.105.144.144,0,0,1-.075.113,1,1,0,0,1-.18.1,1.093,1.093,0,0,0-.465.435q-.12.2-.255.2a.354.354,0,0,1-.15-.045A15.345,15.345,0,0,1,40.17-9.39a10.56,10.56,0,0,1-2.145-2.13.287.287,0,0,0-.225-.15.259.259,0,0,0-.21.12,17.523,17.523,0,0,1-3.255,2.73.253.253,0,0,0-.15.21q0,.135.18.225l.33.165a.8.8,0,0,0,.39.09h1.62a.278.278,0,0,0,.315-.315q-.03-.87-.06-1.215v-.06q0-.225.21-.225a.9.9,0,0,1,.15.03,5.956,5.956,0,0,1,.758.292q.217.113.217.2,0,.06-.1.135l-.015.015a.456.456,0,0,0-.195.375v.45a.314.314,0,0,0,.082.233.314.314,0,0,0,.233.082Zm.045,1.905a.314.314,0,0,0,.233-.082.314.314,0,0,0,.083-.233V-7.4a.314.314,0,0,0-.083-.233.314.314,0,0,0-.233-.082h-4.8a.314.314,0,0,0-.233.082A.314.314,0,0,0,34.8-7.4v.855a.314.314,0,0,0,.082.233.314.314,0,0,0,.233.082Zm-4.8.45a.314.314,0,0,0-.233.082.314.314,0,0,0-.082.233v.9a.314.314,0,0,0,.082.233.314.314,0,0,0,.233.082h4.8a.314.314,0,0,0,.233-.082.314.314,0,0,0,.083-.233v-.9a.314.314,0,0,0-.083-.233.314.314,0,0,0-.233-.082Z" transform="translate(629 2959)" fill="#fff"/>
    <path id="パス_1721" data-name="パス 1721" d="M1.35,0q-.105,0-.1-.21,0-.225.1-.225h.24A2.662,2.662,0,0,0,2.775-.66a.742.742,0,0,0,.45-.705V-8.55a1.488,1.488,0,0,0-.082-.607.505.505,0,0,0-.39-.21A8.147,8.147,0,0,0,1.605-9.42H1.35q-.105,0-.1-.225,0-.21.1-.21a4.924,4.924,0,0,0,1.463-.2A3.938,3.938,0,0,0,4.05-10.71a.363.363,0,0,1,.2-.09q.18,0,.18.27v9.165q0,.93,1.635.93h.225a.082.082,0,0,1,.082.052A.475.475,0,0,1,6.39-.21q0,.21-.105.21ZM14.3-3.09a.314.314,0,0,1,.233.082.314.314,0,0,1,.083.233.314.314,0,0,1-.083.233.314.314,0,0,1-.233.082H13.23A.314.314,0,0,0,13-2.378a.314.314,0,0,0-.083.233v1.17A.419.419,0,0,0,13.2-.54a2.214,2.214,0,0,0,.75.105h.195q.135,0,.135.21,0,.225-.135.225h-3.6q-.12,0-.12-.225,0-.21.12-.21h.195a2.214,2.214,0,0,0,.75-.105.419.419,0,0,0,.285-.435v-1.17a.314.314,0,0,0-.082-.233.314.314,0,0,0-.233-.082h-3.4a.314.314,0,0,1-.233-.082.314.314,0,0,1-.082-.233V-2.88a.711.711,0,0,1,.105-.39l4.335-7.515a.349.349,0,0,1,.4-.18l.06.015a.317.317,0,0,1,.27.345v7.2A.314.314,0,0,0,13-3.173a.314.314,0,0,0,.232.082Zm-2.52-5a.368.368,0,0,0-.045-.2.138.138,0,0,0-.12-.068q-.12,0-.21.165L8.67-3.465a.373.373,0,0,0-.045.165q0,.21.27.21H11.46a.314.314,0,0,0,.233-.082.314.314,0,0,0,.082-.233Zm4.38,9.69a.088.088,0,0,1-.075-.045.146.146,0,0,1-.03-.075.086.086,0,0,1,.03-.06,2.074,2.074,0,0,0,.413-.48.854.854,0,0,0,.142-.42.362.362,0,0,0-.2-.345,1.179,1.179,0,0,1-.4-.285A.642.642,0,0,1,15.9-.54a.814.814,0,0,1,.24-.6.8.8,0,0,1,.585-.24.784.784,0,0,1,.585.248.858.858,0,0,1,.24.623A2.036,2.036,0,0,1,17.137.735a3.076,3.076,0,0,1-.937.855Zm6.33-1.4a2.353,2.353,0,0,1-1.567-.63,4.345,4.345,0,0,1-1.17-1.89A9.342,9.342,0,0,1,19.3-5.385a9.333,9.333,0,0,1,.45-3.09,4.458,4.458,0,0,1,1.177-1.913,2.355,2.355,0,0,1,1.583-.637,2.338,2.338,0,0,1,1.567.637,4.4,4.4,0,0,1,1.17,1.913,9.479,9.479,0,0,1,.443,3.09,9.2,9.2,0,0,1-.45,3.075A4.4,4.4,0,0,1,24.067-.42,2.37,2.37,0,0,1,22.485.21Zm.03-.51q.87,0,1.372-1.267a10.952,10.952,0,0,0,.5-3.818,11.086,11.086,0,0,0-.5-3.833q-.5-1.283-1.372-1.283-.885,0-1.4,1.283a10.935,10.935,0,0,0-.51,3.833,10.8,10.8,0,0,0,.51,3.818Q21.63-.3,22.515-.3Zm7.77.51a2.353,2.353,0,0,1-1.567-.63,4.345,4.345,0,0,1-1.17-1.89A9.342,9.342,0,0,1,27.1-5.385a9.333,9.333,0,0,1,.45-3.09,4.458,4.458,0,0,1,1.177-1.913,2.355,2.355,0,0,1,1.583-.637,2.338,2.338,0,0,1,1.567.637,4.4,4.4,0,0,1,1.17,1.913,9.479,9.479,0,0,1,.443,3.09,9.2,9.2,0,0,1-.45,3.075A4.4,4.4,0,0,1,31.867-.42,2.37,2.37,0,0,1,30.285.21Zm.03-.51q.87,0,1.372-1.267a10.952,10.952,0,0,0,.5-3.818,11.086,11.086,0,0,0-.5-3.833q-.5-1.283-1.372-1.283-.885,0-1.4,1.283a10.935,10.935,0,0,0-.51,3.833,10.8,10.8,0,0,0,.51,3.818Q29.43-.3,30.315-.3Zm7.77.51a2.353,2.353,0,0,1-1.567-.63,4.345,4.345,0,0,1-1.17-1.89A9.342,9.342,0,0,1,34.9-5.385a9.333,9.333,0,0,1,.45-3.09,4.458,4.458,0,0,1,1.178-1.913,2.355,2.355,0,0,1,1.583-.637,2.338,2.338,0,0,1,1.567.637,4.4,4.4,0,0,1,1.17,1.913,9.479,9.479,0,0,1,.443,3.09,9.2,9.2,0,0,1-.45,3.075A4.4,4.4,0,0,1,39.667-.42,2.37,2.37,0,0,1,38.085.21Zm.03-.51q.87,0,1.372-1.267a10.952,10.952,0,0,0,.5-3.818,11.086,11.086,0,0,0-.5-3.833q-.5-1.283-1.372-1.283-.885,0-1.4,1.283a10.935,10.935,0,0,0-.51,3.833,10.8,10.8,0,0,0,.51,3.818Q37.23-.3,38.115-.3Zm7.14-5.13a.314.314,0,0,0-.233.082.314.314,0,0,0-.083.233V-2.85q.03,1.62.105,3.315V.54a.407.407,0,0,1-.12.3,1.018,1.018,0,0,1-.75.3.358.358,0,0,1-.24-.09.27.27,0,0,1-.1-.21q.06-.885.1-1.718t.06-2.183v-5.7a23.067,23.067,0,0,0-.135-2.625v-.06q0-.24.18-.24a.373.373,0,0,1,.165.045l.63.3a1,1,0,0,0,.39.09H53.76a.423.423,0,0,0,.375-.21l.075-.1q.045-.06.135-.187t.18-.128a1.325,1.325,0,0,1,.48.27,4.033,4.033,0,0,1,.585.495.258.258,0,0,1,.06.165.246.246,0,0,1-.135.2.378.378,0,0,1-.09.045.582.582,0,0,0-.075.03.344.344,0,0,0-.27.345v9.96a1.458,1.458,0,0,1-.27.945,1.77,1.77,0,0,1-1.125.45l-.09.015q-.21,0-.285-.255a.767.767,0,0,0-.345-.405A3.432,3.432,0,0,0,51.75.03q-.3-.045-.3-.165t.33-.09q1.485.12,1.92.12a.5.5,0,0,0,.338-.09.393.393,0,0,0,.1-.3v-4.62a.314.314,0,0,0-.082-.233.314.314,0,0,0-.233-.082ZM49-10.485a.314.314,0,0,0-.083-.232.314.314,0,0,0-.233-.083H45.255a.314.314,0,0,0-.233.083.314.314,0,0,0-.083.232v4.32a.314.314,0,0,0,.083.233.314.314,0,0,0,.233.082H48.69a.314.314,0,0,0,.233-.082A.314.314,0,0,0,49-6.165ZM50.28-10.8a.314.314,0,0,0-.233.083.314.314,0,0,0-.083.232v4.32a.314.314,0,0,0,.083.233.314.314,0,0,0,.233.082h3.54a.314.314,0,0,0,.233-.082.314.314,0,0,0,.082-.233v-4.32a.314.314,0,0,0-.082-.232.314.314,0,0,0-.233-.083Z" transform="translate(1024 2959)" fill="#fff"/>
    <path id="パス_1718" data-name="パス 1718" d="M11.73-10.02a.458.458,0,0,0,.39-.18l.12-.135q.045-.045.127-.143a.943.943,0,0,1,.143-.142.2.2,0,0,1,.12-.045q.1,0,.457.307a4.015,4.015,0,0,1,.547.562.2.2,0,0,1,.06.15.223.223,0,0,1-.15.195,1.371,1.371,0,0,1-.225.06.4.4,0,0,0-.345.285A17.836,17.836,0,0,1,10.515-4.3a12.848,12.848,0,0,1-3.562,3.27A19.2,19.2,0,0,1,1.92,1.08l-.18.03q-.135,0-.165-.075V1q0-.135.255-.225A20.065,20.065,0,0,0,6.3-1.478,13.339,13.339,0,0,0,9.54-4.665a17.351,17.351,0,0,0,2.28-4.56.476.476,0,0,0,.03-.135.2.2,0,0,0-.075-.165.328.328,0,0,0-.21-.06H6.8a.4.4,0,0,0-.375.21q-.45.675-1.185,1.62a.272.272,0,0,0-.09.2q0,.15.225.225A6.741,6.741,0,0,1,7.05-6.5,3.535,3.535,0,0,1,8-5.565,1.6,1.6,0,0,1,8.3-4.74a.663.663,0,0,1-.12.412.392.392,0,0,1-.33.157l-.18-.03a.294.294,0,0,1-.158-.1q-.053-.068-.128-.188a5.779,5.779,0,0,0-.96-1.3,11.441,11.441,0,0,0-1.4-1.253A.264.264,0,0,0,4.83-7.11a.313.313,0,0,0-.24.12A16.351,16.351,0,0,1,1.77-4.515q-.225.165-.315.075a.061.061,0,0,1-.015-.045q0-.075.18-.255A16.788,16.788,0,0,0,3.848-7.163,22.657,22.657,0,0,0,5.7-10.02a10.122,10.122,0,0,0,.945-2.385q.045-.225.24-.225a.4.4,0,0,1,.18.045q1.11.48,1.11.66,0,.06-.15.09l-.045.015a.459.459,0,0,0-.345.255q-.2.435-.6,1.17a.279.279,0,0,0-.06.18.165.165,0,0,0,.075.143.333.333,0,0,0,.2.052ZM39.9-8.13a.423.423,0,0,0,.375-.21l.075-.1.1-.142a.766.766,0,0,1,.12-.142.17.17,0,0,1,.112-.045,1.044,1.044,0,0,1,.427.262,2.784,2.784,0,0,1,.488.488.2.2,0,0,1,.06.15.249.249,0,0,1-.12.2l-.06.03a.344.344,0,0,0-.27.345v1.02q.03,1.455.075,2.265v.075a.334.334,0,0,1-.135.3,1.379,1.379,0,0,1-.36.2,1.042,1.042,0,0,1-.375.082.13.13,0,0,1-.1-.06.269.269,0,0,1-.045-.165.193.193,0,0,0-.083-.165.39.39,0,0,0-.233-.06h-1.92a.3.3,0,0,0-.195.06.185.185,0,0,0-.075.15.373.373,0,0,0,.045.165A6.443,6.443,0,0,0,39.15-1.89a.336.336,0,0,0,.225.12.219.219,0,0,0,.135-.045,10.041,10.041,0,0,0,1.118-.893,7.007,7.007,0,0,0,.892-.967.271.271,0,0,1,.24-.15.324.324,0,0,1,.21.09q.9.675.9.84,0,.075-.15.075h-.045a.816.816,0,0,0-.39.105,16.585,16.585,0,0,1-2.175,1.05q-.2.09-.195.225t.165.21a11.439,11.439,0,0,0,3.7,1.29q.315.075.3.15a.158.158,0,0,1-.1.1q-.09.038-.15.067a1,1,0,0,0-.48.51.337.337,0,0,1-.4.21A9.634,9.634,0,0,1,39.495-.63a7.312,7.312,0,0,1-2.13-2.94.377.377,0,0,0-.375-.24H35.145a.314.314,0,0,0-.233.083.314.314,0,0,0-.082.232V-.9a.3.3,0,0,0,.09.24.3.3,0,0,0,.255.045l3-.51a.8.8,0,0,1,.18-.015q.135,0,.165.075v.015q0,.12-.255.21Q35.115.165,32.9.765a.467.467,0,0,0-.27.135.263.263,0,0,1-.03.075.183.183,0,0,1-.165.1q-.15,0-.255-.195L31.845.27A.373.373,0,0,1,31.8.105q0-.21.24-.225.87-.12,1.59-.24a.3.3,0,0,0,.285-.33V-8.07q0-.27-.195-.27a.279.279,0,0,0-.18.06,20.687,20.687,0,0,1-2.16,1.125q-.285.12-.33.015v-.03q0-.09.225-.225A18.194,18.194,0,0,0,33.42-8.813a18.164,18.164,0,0,0,1.965-1.717,5.591,5.591,0,0,0,1.35-1.995.278.278,0,0,1,.27-.225.39.39,0,0,1,.12.015l1.17.33a.449.449,0,0,1,.18.1.193.193,0,0,1,.075.142q0,.09-.105.105a.3.3,0,0,0-.1.21.259.259,0,0,0,.09.18,11.787,11.787,0,0,0,2.408,1.665,21.19,21.19,0,0,0,3.082,1.35.72.72,0,0,1,.2.09.13.13,0,0,1,.06.105.144.144,0,0,1-.075.113,1,1,0,0,1-.18.1,1.093,1.093,0,0,0-.465.435q-.12.2-.255.2a.354.354,0,0,1-.15-.045A15.345,15.345,0,0,1,40.2-9.39a10.56,10.56,0,0,1-2.145-2.13.287.287,0,0,0-.225-.15.259.259,0,0,0-.21.12,17.523,17.523,0,0,1-3.255,2.73.253.253,0,0,0-.15.21q0,.135.18.225l.33.165a.8.8,0,0,0,.39.09h1.62a.278.278,0,0,0,.315-.315q-.03-.87-.06-1.215v-.06q0-.225.21-.225a.9.9,0,0,1,.15.03,5.956,5.956,0,0,1,.758.292q.217.113.217.2,0,.06-.1.135l-.015.015a.456.456,0,0,0-.195.375v.45a.314.314,0,0,0,.082.233.314.314,0,0,0,.233.082Zm.045,1.905a.314.314,0,0,0,.233-.082.314.314,0,0,0,.083-.233V-7.4a.314.314,0,0,0-.083-.233.314.314,0,0,0-.233-.082h-4.8a.314.314,0,0,0-.233.082.314.314,0,0,0-.082.233v.855a.314.314,0,0,0,.082.233.314.314,0,0,0,.233.082Zm-4.8.45a.314.314,0,0,0-.233.082.314.314,0,0,0-.082.233v.9a.314.314,0,0,0,.082.233.314.314,0,0,0,.233.082h4.8a.314.314,0,0,0,.233-.082.314.314,0,0,0,.083-.233v-.9a.314.314,0,0,0-.083-.233.314.314,0,0,0-.233-.082Z" transform="translate(629 3029)" fill="#fff"/>
    <path id="パス_1722" data-name="パス 1722" d="M6.405-.27A.317.317,0,0,1,6.06,0H1.14Q.87,0,.81-.165a.4.4,0,0,1-.045-.18A.5.5,0,0,1,.81-.54a10.48,10.48,0,0,1,1.065-2q.63-.923,1.65-2.138a16.129,16.129,0,0,0,1.59-2.108,3.294,3.294,0,0,0,.495-1.7,2.349,2.349,0,0,0-.45-1.425,1.63,1.63,0,0,0-1.41-.615,2.015,2.015,0,0,0-1.2.352,1.035,1.035,0,0,0-.495.863.914.914,0,0,0,.053.33,1.37,1.37,0,0,0,.173.3,1.929,1.929,0,0,1,.158.292.807.807,0,0,1,.053.307.781.781,0,0,1-.218.578.761.761,0,0,1-.562.217.713.713,0,0,1-.548-.293,1.2,1.2,0,0,1-.247-.8,2.439,2.439,0,0,1,.337-1.17A2.859,2.859,0,0,1,2.273-10.6a3.091,3.091,0,0,1,1.673-.427,3.157,3.157,0,0,1,1.74.427,2.414,2.414,0,0,1,.938,1.065A3.292,3.292,0,0,1,6.9-8.205a2.694,2.694,0,0,1-.21,1.1,3.268,3.268,0,0,1-.57.87q-.36.4-1.08,1.057-.165.165-.42.39t-.585.555a11.715,11.715,0,0,0-2.07,2.76.373.373,0,0,0-.045.165q0,.21.285.21H3.57A7.7,7.7,0,0,0,5.2-1.222a1.471,1.471,0,0,0,.818-.458A3.68,3.68,0,0,0,6.57-2.745q.03-.09.105-.09a1.242,1.242,0,0,1,.135.03.588.588,0,0,1,.135.06.1.1,0,0,1,.045.09l-.015.075ZM8.97,1.605A.088.088,0,0,1,8.9,1.56a.146.146,0,0,1-.03-.075.086.086,0,0,1,.03-.06,2.074,2.074,0,0,0,.412-.48A.854.854,0,0,0,9.45.525.362.362,0,0,0,9.255.18a1.179,1.179,0,0,1-.4-.285A.642.642,0,0,1,8.715-.54a.814.814,0,0,1,.24-.6.8.8,0,0,1,.585-.24.784.784,0,0,1,.585.248.858.858,0,0,1,.24.623A2.036,2.036,0,0,1,9.953.735a3.076,3.076,0,0,1-.937.855Zm6.96-8.4a2.543,2.543,0,0,1,1.5.442,2.836,2.836,0,0,1,.96,1.163,3.664,3.664,0,0,1,.33,1.545,4.632,4.632,0,0,1-.4,1.92A3.431,3.431,0,0,1,17.2-.315,2.785,2.785,0,0,1,15.525.21,2.9,2.9,0,0,1,13.77-.36a3.715,3.715,0,0,1-1.215-1.6A6.015,6.015,0,0,1,12.12-4.32a10.009,10.009,0,0,1,.6-3.668,5.552,5.552,0,0,1,1.507-2.28,2.8,2.8,0,0,1,1.778-.757,3.183,3.183,0,0,1,1.192.2,1.761,1.761,0,0,1,.757.532,1.114,1.114,0,0,1,.255.69.724.724,0,0,1-.217.532.707.707,0,0,1-.517.218.717.717,0,0,1-.555-.278,1.2,1.2,0,0,1-.27-.727.855.855,0,0,0-.18-.51.642.642,0,0,0-.5-.165q-.99,0-1.59,1.26a10.269,10.269,0,0,0-.84,3.045.227.227,0,0,0,.045.188.228.228,0,0,0,.18.068.65.65,0,0,0,.39-.165A2.7,2.7,0,0,1,15.93-6.8ZM15.525-.36a1.387,1.387,0,0,0,.983-.405,2.69,2.69,0,0,0,.667-1.11,4.867,4.867,0,0,0,.24-1.575,2.772,2.772,0,0,0-.608-2.115A1.971,1.971,0,0,0,15.5-6.09a2.028,2.028,0,0,0-1.155.39,2.337,2.337,0,0,0-.855,1.23,1.32,1.32,0,0,0-.06.39A7.313,7.313,0,0,0,13.9-1.425,1.62,1.62,0,0,0,15.525-.36ZM23.28.21a2.353,2.353,0,0,1-1.567-.63,4.345,4.345,0,0,1-1.17-1.89A9.342,9.342,0,0,1,20.1-5.385a9.333,9.333,0,0,1,.45-3.09,4.458,4.458,0,0,1,1.177-1.913,2.355,2.355,0,0,1,1.583-.637,2.338,2.338,0,0,1,1.567.637,4.4,4.4,0,0,1,1.17,1.913,9.479,9.479,0,0,1,.443,3.09,9.2,9.2,0,0,1-.45,3.075A4.4,4.4,0,0,1,24.863-.42,2.37,2.37,0,0,1,23.28.21Zm.03-.51q.87,0,1.372-1.267a10.952,10.952,0,0,0,.5-3.818,11.086,11.086,0,0,0-.5-3.833Q24.18-10.5,23.31-10.5q-.885,0-1.4,1.283a10.935,10.935,0,0,0-.51,3.833,10.8,10.8,0,0,0,.51,3.818Q22.425-.3,23.31-.3Zm7.77.51a2.353,2.353,0,0,1-1.567-.63,4.345,4.345,0,0,1-1.17-1.89A9.342,9.342,0,0,1,27.9-5.385a9.333,9.333,0,0,1,.45-3.09,4.458,4.458,0,0,1,1.177-1.913,2.355,2.355,0,0,1,1.583-.637,2.338,2.338,0,0,1,1.567.637,4.4,4.4,0,0,1,1.17,1.913,9.479,9.479,0,0,1,.443,3.09,9.2,9.2,0,0,1-.45,3.075A4.4,4.4,0,0,1,32.662-.42,2.37,2.37,0,0,1,31.08.21Zm.03-.51q.87,0,1.372-1.267a10.952,10.952,0,0,0,.5-3.818,11.086,11.086,0,0,0-.5-3.833Q31.98-10.5,31.11-10.5q-.885,0-1.4,1.283a10.935,10.935,0,0,0-.51,3.833,10.8,10.8,0,0,0,.51,3.818Q30.225-.3,31.11-.3Zm7.14-5.13a.314.314,0,0,0-.233.082.314.314,0,0,0-.083.233V-2.85q.03,1.62.105,3.315V.54a.407.407,0,0,1-.12.3,1.018,1.018,0,0,1-.75.3.358.358,0,0,1-.24-.09.27.27,0,0,1-.1-.21q.06-.885.1-1.718t.06-2.183v-5.7a23.067,23.067,0,0,0-.135-2.625v-.06q0-.24.18-.24a.373.373,0,0,1,.165.045l.63.3a1,1,0,0,0,.39.09h8.535a.423.423,0,0,0,.375-.21l.075-.1q.045-.06.135-.187t.18-.128a1.325,1.325,0,0,1,.48.27,4.033,4.033,0,0,1,.585.495.258.258,0,0,1,.06.165.246.246,0,0,1-.135.2.378.378,0,0,1-.09.045.582.582,0,0,0-.075.03.344.344,0,0,0-.27.345v9.96a1.458,1.458,0,0,1-.27.945,1.77,1.77,0,0,1-1.125.45l-.09.015q-.21,0-.285-.255A.767.767,0,0,0,45.96.375,3.432,3.432,0,0,0,44.745.03q-.3-.045-.3-.165t.33-.09q1.485.12,1.92.12a.5.5,0,0,0,.338-.09.393.393,0,0,0,.1-.3v-4.62a.314.314,0,0,0-.082-.233.314.314,0,0,0-.233-.082ZM42-10.485a.314.314,0,0,0-.083-.232.314.314,0,0,0-.233-.083H38.25a.314.314,0,0,0-.233.083.314.314,0,0,0-.083.232v4.32a.314.314,0,0,0,.083.233.314.314,0,0,0,.233.082h3.435a.314.314,0,0,0,.233-.082A.314.314,0,0,0,42-6.165Zm1.275-.315a.314.314,0,0,0-.233.083.314.314,0,0,0-.083.232v4.32a.314.314,0,0,0,.083.233.314.314,0,0,0,.233.082h3.54a.314.314,0,0,0,.233-.082.314.314,0,0,0,.082-.233v-4.32a.314.314,0,0,0-.082-.232.314.314,0,0,0-.233-.083Z" transform="translate(1027 3029)" fill="#fff"/>
    <path id="パス_1719" data-name="パス 1719" d="M6.06-2.49a.431.431,0,0,0,.375-.195L6.57-2.88A1.293,1.293,0,0,0,6.7-3.045a.958.958,0,0,1,.142-.173.183.183,0,0,1,.12-.053,1.213,1.213,0,0,1,.465.293,3.022,3.022,0,0,1,.525.518.33.33,0,0,1,.075.18.215.215,0,0,1-.09.165.454.454,0,0,1-.27.075H5.16a.314.314,0,0,0-.233.083.314.314,0,0,0-.082.233v.66l.03.765q0,.315.03.855V.63A.4.4,0,0,1,4.77.945a1.073,1.073,0,0,1-.69.24A.227.227,0,0,1,3.9,1.1a.318.318,0,0,1-.075-.21Q3.9.195,3.93-.96v-.765a.314.314,0,0,0-.083-.233.314.314,0,0,0-.232-.083h-.66a11.825,11.825,0,0,0-1.5.15.257.257,0,0,1-.105.015.3.3,0,0,1-.285-.21L1-2.2A.373.373,0,0,1,.96-2.37a.18.18,0,0,1,.075-.158.3.3,0,0,1,.21-.037q.525.045,1.56.075h.81a.314.314,0,0,0,.232-.082.314.314,0,0,0,.083-.232V-3.87A.314.314,0,0,0,3.848-4.1a.314.314,0,0,0-.232-.082h-.63a.314.314,0,0,0-.233.082.314.314,0,0,0-.082.233v.09q0,.09-.247.21a1.111,1.111,0,0,1-.487.12.207.207,0,0,1-.173-.09A.34.34,0,0,1,1.7-3.75q.06-.63.09-1.59V-6.3q0-1.29-.12-2.49v-.06q0-.225.2-.225a.334.334,0,0,1,.15.03l.555.255a1,1,0,0,0,.39.09h.66a.314.314,0,0,0,.232-.082.314.314,0,0,0,.083-.233v-.87a.314.314,0,0,0-.083-.233.314.314,0,0,0-.232-.082h-.66a11.825,11.825,0,0,0-1.5.15.257.257,0,0,1-.105.015.3.3,0,0,1-.285-.21L1-10.35a.373.373,0,0,1-.045-.165q0-.225.3-.2.51.045,1.545.075h.81a.278.278,0,0,0,.315-.315q-.03-.915-.075-1.29v-.03a.28.28,0,0,1,.068-.195A.222.222,0,0,1,4.1-12.54l.135.03q.975.315.975.495,0,.075-.12.15l-.03.015a.423.423,0,0,0-.21.375v.525a.314.314,0,0,0,.082.233.314.314,0,0,0,.233.082h.87a.423.423,0,0,0,.375-.21l.15-.225a2.16,2.16,0,0,0,.128-.18,1.077,1.077,0,0,1,.142-.18.207.207,0,0,1,.135-.075q.105,0,.488.322a3.284,3.284,0,0,1,.563.578.223.223,0,0,1,.06.165A.229.229,0,0,1,8-10.275a.454.454,0,0,1-.27.075H5.16a.314.314,0,0,0-.233.082.314.314,0,0,0-.082.233v.87a.314.314,0,0,0,.082.233A.314.314,0,0,0,5.16-8.7h.57a.458.458,0,0,0,.39-.18l.09-.105q.045-.045.15-.172a.28.28,0,0,1,.195-.127A1.142,1.142,0,0,1,7-9.038a3.8,3.8,0,0,1,.533.458.324.324,0,0,1,.075.165q0,.09-.135.2a.379.379,0,0,1-.09.045.582.582,0,0,0-.075.03.344.344,0,0,0-.27.345v1.1q.045,1.665.09,2.445v.075a.322.322,0,0,1-.15.3,1.051,1.051,0,0,1-.338.195,1.1,1.1,0,0,1-.382.075.111.111,0,0,1-.1-.075A.478.478,0,0,1,6.12-3.9a.269.269,0,0,0-.082-.21.333.333,0,0,0-.233-.075H5.16a.314.314,0,0,0-.233.082.314.314,0,0,0-.082.233v1.065a.314.314,0,0,0,.082.232.314.314,0,0,0,.233.082Zm6.4-1.7a.314.314,0,0,0-.083-.233A.314.314,0,0,0,12.15-4.5H9.765a.3.3,0,0,0-.33.3,9.23,9.23,0,0,1-.892,2.947A6.29,6.29,0,0,1,6.525,1.02q-.24.165-.33.075l-.03-.06q0-.09.165-.255A6.962,6.962,0,0,0,8.175-2.333a15.919,15.919,0,0,0,.48-4.178V-9.18a22.208,22.208,0,0,0-.1-2.31v-.06q0-.225.195-.225a.334.334,0,0,1,.15.03l.66.285a1,1,0,0,0,.39.09H12.09a.423.423,0,0,0,.375-.21l.075-.105q.045-.06.105-.15a.913.913,0,0,1,.1-.135.144.144,0,0,1,.105-.045,1.439,1.439,0,0,1,.5.285,3.485,3.485,0,0,1,.592.51.216.216,0,0,1,.075.15.222.222,0,0,1-.135.2.9.9,0,0,1-.24.1.353.353,0,0,0-.27.36V-.255a1.564,1.564,0,0,1-.225.915,1.483,1.483,0,0,1-.96.45H12.12a.3.3,0,0,1-.3-.255.725.725,0,0,0-.255-.39,2.492,2.492,0,0,0-.945-.33q-.3-.045-.3-.165,0-.09.24-.09.3,0,.99.06l.555.03a.406.406,0,0,0,.285-.075.379.379,0,0,0,.075-.27Zm-.315-4.05a.314.314,0,0,0,.232-.083.314.314,0,0,0,.083-.233v-2.055a.314.314,0,0,0-.083-.233.314.314,0,0,0-.232-.083h-2.3a.314.314,0,0,0-.233.083.314.314,0,0,0-.082.233V-8.55a.314.314,0,0,0,.082.233.314.314,0,0,0,.233.083ZM5.805-6.66a.314.314,0,0,0,.233-.082.314.314,0,0,0,.082-.233v-.96a.314.314,0,0,0-.082-.233.314.314,0,0,0-.233-.082H2.985a.314.314,0,0,0-.233.082.314.314,0,0,0-.082.233v.96a.314.314,0,0,0,.082.233.314.314,0,0,0,.233.082ZM9.855-7.8a.314.314,0,0,0-.233.083.314.314,0,0,0-.082.233v.945q0,.435-.03,1.275v.045q0,.285.3.285h2.34a.314.314,0,0,0,.232-.082.314.314,0,0,0,.083-.233V-7.485a.314.314,0,0,0-.083-.233A.314.314,0,0,0,12.15-7.8ZM6.12-5.91a.314.314,0,0,0-.082-.233.314.314,0,0,0-.233-.082H2.985a.314.314,0,0,0-.233.082.314.314,0,0,0-.082.233v.975a.314.314,0,0,0,.082.233.314.314,0,0,0,.233.082h2.82A.314.314,0,0,0,6.038-4.7a.314.314,0,0,0,.082-.233ZM39.9-8.13a.423.423,0,0,0,.375-.21l.075-.1.1-.142a.766.766,0,0,1,.12-.142.17.17,0,0,1,.112-.045,1.044,1.044,0,0,1,.427.262,2.784,2.784,0,0,1,.488.488.2.2,0,0,1,.06.15.249.249,0,0,1-.12.2l-.06.03a.344.344,0,0,0-.27.345v1.02q.03,1.455.075,2.265v.075a.334.334,0,0,1-.135.3,1.379,1.379,0,0,1-.36.2,1.042,1.042,0,0,1-.375.082.13.13,0,0,1-.1-.06.269.269,0,0,1-.045-.165.193.193,0,0,0-.083-.165.39.39,0,0,0-.233-.06h-1.92a.3.3,0,0,0-.195.06.185.185,0,0,0-.075.15.373.373,0,0,0,.045.165A6.443,6.443,0,0,0,39.15-1.89a.336.336,0,0,0,.225.12.219.219,0,0,0,.135-.045,10.041,10.041,0,0,0,1.118-.893,7.007,7.007,0,0,0,.892-.967.271.271,0,0,1,.24-.15.324.324,0,0,1,.21.09q.9.675.9.84,0,.075-.15.075h-.045a.816.816,0,0,0-.39.105,16.585,16.585,0,0,1-2.175,1.05q-.2.09-.195.225t.165.21a11.439,11.439,0,0,0,3.7,1.29q.315.075.3.15a.158.158,0,0,1-.1.1q-.09.038-.15.067a1,1,0,0,0-.48.51.337.337,0,0,1-.4.21A9.634,9.634,0,0,1,39.495-.63a7.312,7.312,0,0,1-2.13-2.94.377.377,0,0,0-.375-.24H35.145a.314.314,0,0,0-.233.083.314.314,0,0,0-.082.232V-.9a.3.3,0,0,0,.09.24.3.3,0,0,0,.255.045l3-.51a.8.8,0,0,1,.18-.015q.135,0,.165.075v.015q0,.12-.255.21Q35.115.165,32.9.765a.467.467,0,0,0-.27.135.263.263,0,0,1-.03.075.183.183,0,0,1-.165.1q-.15,0-.255-.195L31.845.27A.373.373,0,0,1,31.8.105q0-.21.24-.225.87-.12,1.59-.24a.3.3,0,0,0,.285-.33V-8.07q0-.27-.195-.27a.279.279,0,0,0-.18.06,20.687,20.687,0,0,1-2.16,1.125q-.285.12-.33.015v-.03q0-.09.225-.225A18.194,18.194,0,0,0,33.42-8.813a18.164,18.164,0,0,0,1.965-1.717,5.591,5.591,0,0,0,1.35-1.995.278.278,0,0,1,.27-.225.39.39,0,0,1,.12.015l1.17.33a.449.449,0,0,1,.18.1.193.193,0,0,1,.075.142q0,.09-.105.105a.3.3,0,0,0-.1.21.259.259,0,0,0,.09.18,11.787,11.787,0,0,0,2.408,1.665,21.19,21.19,0,0,0,3.082,1.35.72.72,0,0,1,.2.09.13.13,0,0,1,.06.105.144.144,0,0,1-.075.113,1,1,0,0,1-.18.1,1.093,1.093,0,0,0-.465.435q-.12.2-.255.2a.354.354,0,0,1-.15-.045A15.345,15.345,0,0,1,40.2-9.39a10.56,10.56,0,0,1-2.145-2.13.287.287,0,0,0-.225-.15.259.259,0,0,0-.21.12,17.523,17.523,0,0,1-3.255,2.73.253.253,0,0,0-.15.21q0,.135.18.225l.33.165a.8.8,0,0,0,.39.09h1.62a.278.278,0,0,0,.315-.315q-.03-.87-.06-1.215v-.06q0-.225.21-.225a.9.9,0,0,1,.15.03,5.956,5.956,0,0,1,.758.292q.217.113.217.2,0,.06-.1.135l-.015.015a.456.456,0,0,0-.195.375v.45a.314.314,0,0,0,.082.233.314.314,0,0,0,.233.082Zm.045,1.905a.314.314,0,0,0,.233-.082.314.314,0,0,0,.083-.233V-7.4a.314.314,0,0,0-.083-.233.314.314,0,0,0-.233-.082h-4.8a.314.314,0,0,0-.233.082.314.314,0,0,0-.082.233v.855a.314.314,0,0,0,.082.233.314.314,0,0,0,.233.082Zm-4.8.45a.314.314,0,0,0-.233.082.314.314,0,0,0-.082.233v.9a.314.314,0,0,0,.082.233.314.314,0,0,0,.233.082h4.8a.314.314,0,0,0,.233-.082.314.314,0,0,0,.083-.233v-.9a.314.314,0,0,0-.083-.233.314.314,0,0,0-.233-.082Z" transform="translate(629 3099)" fill="#fff"/>
    <path id="パス_1723" data-name="パス 1723" d="M1.35,0q-.105,0-.1-.21,0-.225.1-.225h.24A2.662,2.662,0,0,0,2.775-.66a.742.742,0,0,0,.45-.705V-8.55a1.488,1.488,0,0,0-.082-.607.505.505,0,0,0-.39-.21A8.147,8.147,0,0,0,1.605-9.42H1.35q-.105,0-.1-.225,0-.21.1-.21a4.924,4.924,0,0,0,1.463-.2A3.938,3.938,0,0,0,4.05-10.71a.363.363,0,0,1,.2-.09q.18,0,.18.27v9.165q0,.93,1.635.93h.225a.082.082,0,0,1,.082.052A.475.475,0,0,1,6.39-.21q0,.21-.105.21ZM8.61,1.605a.088.088,0,0,1-.075-.045.146.146,0,0,1-.03-.075.086.086,0,0,1,.03-.06,2.074,2.074,0,0,0,.413-.48A.854.854,0,0,0,9.09.525.362.362,0,0,0,8.9.18a1.179,1.179,0,0,1-.4-.285A.642.642,0,0,1,8.355-.54a.814.814,0,0,1,.24-.6.8.8,0,0,1,.585-.24.784.784,0,0,1,.585.248.858.858,0,0,1,.24.623A2.036,2.036,0,0,1,9.592.735a3.076,3.076,0,0,1-.937.855Zm9.435-4.7a.314.314,0,0,1,.233.082.314.314,0,0,1,.083.233.314.314,0,0,1-.083.233.314.314,0,0,1-.233.082H16.98a.314.314,0,0,0-.232.082.314.314,0,0,0-.083.233v1.17a.419.419,0,0,0,.285.435,2.214,2.214,0,0,0,.75.105H17.9q.135,0,.135.21Q18.03,0,17.9,0H14.3q-.12,0-.12-.225,0-.21.12-.21h.2a2.214,2.214,0,0,0,.75-.105.419.419,0,0,0,.285-.435v-1.17a.314.314,0,0,0-.082-.233.314.314,0,0,0-.233-.082H11.805a.314.314,0,0,1-.233-.082.314.314,0,0,1-.082-.233V-2.88a.711.711,0,0,1,.1-.39l4.335-7.515a.349.349,0,0,1,.405-.18l.06.015a.317.317,0,0,1,.27.345v7.2a.314.314,0,0,0,.083.233.314.314,0,0,0,.232.082Zm-2.52-5a.368.368,0,0,0-.045-.2.138.138,0,0,0-.12-.068q-.12,0-.21.165L12.42-3.465a.373.373,0,0,0-.045.165q0,.21.27.21H15.21a.314.314,0,0,0,.233-.082.314.314,0,0,0,.082-.233Zm6.96,8.3a2.353,2.353,0,0,1-1.568-.63,4.345,4.345,0,0,1-1.17-1.89,9.342,9.342,0,0,1-.443-3.075,9.333,9.333,0,0,1,.45-3.09,4.458,4.458,0,0,1,1.177-1.913,2.355,2.355,0,0,1,1.583-.637,2.338,2.338,0,0,1,1.567.637,4.4,4.4,0,0,1,1.17,1.913,9.479,9.479,0,0,1,.442,3.09,9.2,9.2,0,0,1-.45,3.075A4.4,4.4,0,0,1,24.068-.42,2.37,2.37,0,0,1,22.485.21Zm.03-.51q.87,0,1.372-1.267a10.952,10.952,0,0,0,.5-3.818,11.086,11.086,0,0,0-.5-3.833q-.5-1.283-1.372-1.283-.885,0-1.4,1.283a10.935,10.935,0,0,0-.51,3.833,10.8,10.8,0,0,0,.51,3.818Q21.63-.3,22.515-.3Zm7.77.51a2.353,2.353,0,0,1-1.568-.63,4.345,4.345,0,0,1-1.17-1.89A9.342,9.342,0,0,1,27.1-5.385a9.333,9.333,0,0,1,.45-3.09,4.458,4.458,0,0,1,1.177-1.913,2.355,2.355,0,0,1,1.583-.637,2.338,2.338,0,0,1,1.567.637,4.4,4.4,0,0,1,1.17,1.913,9.479,9.479,0,0,1,.443,3.09,9.2,9.2,0,0,1-.45,3.075A4.4,4.4,0,0,1,31.868-.42,2.37,2.37,0,0,1,30.285.21Zm.03-.51q.87,0,1.372-1.267a10.952,10.952,0,0,0,.5-3.818,11.086,11.086,0,0,0-.5-3.833q-.5-1.283-1.372-1.283-.885,0-1.4,1.283a10.935,10.935,0,0,0-.51,3.833,10.8,10.8,0,0,0,.51,3.818Q29.43-.3,30.315-.3Zm7.14-5.13a.314.314,0,0,0-.233.082.314.314,0,0,0-.083.233V-2.85q.03,1.62.105,3.315V.54a.407.407,0,0,1-.12.3,1.018,1.018,0,0,1-.75.3.358.358,0,0,1-.24-.09.27.27,0,0,1-.1-.21q.06-.885.1-1.718t.06-2.183v-5.7a23.067,23.067,0,0,0-.135-2.625v-.06q0-.24.18-.24a.373.373,0,0,1,.165.045l.63.3a1,1,0,0,0,.39.09H45.96a.423.423,0,0,0,.375-.21l.075-.1q.045-.06.135-.187t.18-.128a1.325,1.325,0,0,1,.48.27,4.033,4.033,0,0,1,.585.495.258.258,0,0,1,.06.165.246.246,0,0,1-.135.2.378.378,0,0,1-.09.045.582.582,0,0,0-.075.03.344.344,0,0,0-.27.345v9.96a1.458,1.458,0,0,1-.27.945,1.77,1.77,0,0,1-1.125.45l-.09.015q-.21,0-.285-.255a.767.767,0,0,0-.345-.405A3.432,3.432,0,0,0,43.95.03q-.3-.045-.3-.165t.33-.09q1.485.12,1.92.12a.5.5,0,0,0,.338-.09.393.393,0,0,0,.1-.3v-4.62a.314.314,0,0,0-.082-.233.314.314,0,0,0-.233-.082Zm3.75-5.055a.314.314,0,0,0-.083-.232.314.314,0,0,0-.233-.083H37.455a.314.314,0,0,0-.233.083.314.314,0,0,0-.083.232v4.32a.314.314,0,0,0,.083.233.314.314,0,0,0,.233.082H40.89a.314.314,0,0,0,.233-.082.314.314,0,0,0,.083-.233ZM42.48-10.8a.314.314,0,0,0-.233.083.314.314,0,0,0-.083.232v4.32a.314.314,0,0,0,.083.233.314.314,0,0,0,.233.082h3.54a.314.314,0,0,0,.233-.082.314.314,0,0,0,.082-.233v-4.32a.314.314,0,0,0-.082-.232.314.314,0,0,0-.233-.083Z" transform="translate(1028 3099)" fill="#fff"/>
    <path id="パス_1724" data-name="パス 1724" d="M5.46-9.63a.4.4,0,0,0-.105.21.136.136,0,0,0,.075.12.3.3,0,0,0,.2.03l4.74-.27q.27-.03.27-.195a.329.329,0,0,0-.12-.21,12.675,12.675,0,0,0-1.35-1.035q-.225-.135-.225-.24,0-.06.105-.06a.771.771,0,0,1,.24.045,8.618,8.618,0,0,1,2.138,1.005,4.531,4.531,0,0,1,1.2,1.11,1.773,1.773,0,0,1,.368.96.569.569,0,0,1-.113.375.363.363,0,0,1-.292.135.455.455,0,0,1-.135-.015.294.294,0,0,1-.158-.1q-.053-.067-.127-.187a6.628,6.628,0,0,0-.8-1.125.414.414,0,0,0-.4-.135q-2.55.405-7.92,1.065-.225.015-.27.105l-.06.06a.2.2,0,0,1-.15.06.24.24,0,0,1-.15-.06.315.315,0,0,1-.105-.165L2.085-8.76,2.055-8.9q0-.225.27-.24l.6-.015L4.29-9.2a.449.449,0,0,0,.375-.225l.27-.48q.315-.585.607-1.275A10.832,10.832,0,0,0,6-12.45q.075-.24.27-.24a.476.476,0,0,1,.135.03q1.185.405,1.185.585,0,.06-.135.105l-.075.03a.486.486,0,0,0-.3.21A18.518,18.518,0,0,1,5.46-9.63ZM4.965-4.5q0-.27-.3-.27H3.42a16.158,16.158,0,0,0-1.98.165H1.35a.308.308,0,0,1-.3-.2L.99-4.92A.4.4,0,0,1,.945-5.1a.165.165,0,0,1,.075-.143.3.3,0,0,1,.21-.037q.51.045,1.545.075H4.7a.314.314,0,0,0,.233-.083A.314.314,0,0,0,5.01-5.52v-1.2q0-.6-.03-.885v-.03q0-.27.225-.27l.135.03a5.45,5.45,0,0,1,.75.293q.21.113.21.2t-.12.15l-.045.03a.431.431,0,0,0-.195.375v1.3a.314.314,0,0,0,.082.233.314.314,0,0,0,.233.083h2.61A.278.278,0,0,0,9.18-5.52q-.03-1.29-.135-2.3v-.06a.25.25,0,0,1,.06-.173.209.209,0,0,1,.165-.067.476.476,0,0,1,.135.03,5.829,5.829,0,0,1,.855.3q.24.12.24.21,0,.075-.12.15l-.045.03a.423.423,0,0,0-.21.375v1.5a.314.314,0,0,0,.083.233.314.314,0,0,0,.233.083h1.425a.431.431,0,0,0,.375-.2l.195-.285.15-.2a1.94,1.94,0,0,1,.172-.21.189.189,0,0,1,.127-.067,1.586,1.586,0,0,1,.54.36,4.933,4.933,0,0,1,.645.615.33.33,0,0,1,.075.18.215.215,0,0,1-.09.165.454.454,0,0,1-.27.075H10.44a.314.314,0,0,0-.233.083.314.314,0,0,0-.083.232v1.65q.03,1.635.105,3.3V.57A.4.4,0,0,1,10.1.885a1.552,1.552,0,0,1-.352.18,1.14,1.14,0,0,1-.4.075.313.313,0,0,1-.217-.09.278.278,0,0,1-.1-.21q.06-.825.1-1.62T9.18-2.79V-4.455A.314.314,0,0,0,9.1-4.687a.314.314,0,0,0-.233-.083H6.21a.29.29,0,0,0-.315.3A7.11,7.11,0,0,1,4.823-1.222,6.356,6.356,0,0,1,1.83,1.08a.506.506,0,0,1-.225.06.143.143,0,0,1-.12-.06Q1.41.975,1.83.72a5.824,5.824,0,0,0,2.3-2.228A7.41,7.41,0,0,0,4.965-4.44ZM41.19-6.75a.484.484,0,0,0,.39-.18l.09-.12q.045-.06.15-.187a.28.28,0,0,1,.195-.128,1.2,1.2,0,0,1,.458.263,3.479,3.479,0,0,1,.548.487.324.324,0,0,1,.075.165q0,.09-.135.195-.135.06-.18.075a.385.385,0,0,0-.255.36v2.94q.03,1.635.1,3.3V.5a.322.322,0,0,1-.15.3,1.508,1.508,0,0,1-.367.21,1.08,1.08,0,0,1-.413.09q-.075,0-.135-.105a.9.9,0,0,1-.03-.15,1.264,1.264,0,0,1,.03-.21L41.6.465V.45a.314.314,0,0,0-.083-.233A.314.314,0,0,0,41.28.135H34.455A16.158,16.158,0,0,0,32.475.3h-.09a.308.308,0,0,1-.3-.2L32.01-.03a.4.4,0,0,1-.045-.18.165.165,0,0,1,.075-.143.3.3,0,0,1,.21-.037q.51.045,1.545.075H41.28A.314.314,0,0,0,41.513-.4.314.314,0,0,0,41.6-.63V-2.82a.314.314,0,0,0-.083-.232.314.314,0,0,0-.233-.082h-6.3A15.54,15.54,0,0,0,33-2.97h-.075a.338.338,0,0,1-.315-.195l-.06-.12a.836.836,0,0,1-.06-.18.165.165,0,0,1,.075-.143.3.3,0,0,1,.21-.037q.51.045,1.545.075h6.96a.314.314,0,0,0,.233-.082.314.314,0,0,0,.083-.232v-2.1a.314.314,0,0,0-.083-.233A.314.314,0,0,0,41.28-6.3H34.74a16.158,16.158,0,0,0-1.98.165h-.09a.308.308,0,0,1-.3-.2l-.075-.135a.373.373,0,0,1-.045-.165q0-.225.3-.195.51.045,1.545.075H36.69a.314.314,0,0,0,.233-.082.314.314,0,0,0,.083-.232V-9.54a23.928,23.928,0,0,0-.135-2.685v-.06a.25.25,0,0,1,.06-.173.209.209,0,0,1,.165-.067.476.476,0,0,1,.135.03q1.11.33,1.11.525,0,.075-.12.15l-.045.03a.423.423,0,0,0-.21.375v4.35a.314.314,0,0,0,.083.232.314.314,0,0,0,.232.082Zm.09-4.77q.075-.21.225-.21a.4.4,0,0,1,.18.045l.39.24a2.255,2.255,0,0,0,.345.165q.435.18.435.3,0,.075-.18.12l-.045.015a.519.519,0,0,0-.345.225,17.556,17.556,0,0,1-2.37,2.82.411.411,0,0,1-.24.15.106.106,0,0,1-.12-.12.523.523,0,0,1,.09-.255q.285-.45.495-.84a12.667,12.667,0,0,0,.63-1.3Q41.085-10.905,41.28-11.52Zm-8.805.255a.841.841,0,0,1-.12-.2q-.03-.082,0-.112a.087.087,0,0,1,.06-.015.469.469,0,0,1,.24.105A5.784,5.784,0,0,1,34.44-9.975a2.555,2.555,0,0,1,.57,1.44.878.878,0,0,1-.135.51.405.405,0,0,1-.345.2.446.446,0,0,1-.225-.06.43.43,0,0,1-.225-.33,5.658,5.658,0,0,0-.593-1.515A10.809,10.809,0,0,0,32.475-11.265Z" transform="translate(629 3169)" fill="#fff"/>
    <path id="パス_1725" data-name="パス 1725" d="M1.35,0q-.105,0-.1-.21,0-.225.1-.225h.24A2.662,2.662,0,0,0,2.775-.66a.742.742,0,0,0,.45-.705V-8.55a1.488,1.488,0,0,0-.082-.607.505.505,0,0,0-.39-.21A8.147,8.147,0,0,0,1.605-9.42H1.35q-.105,0-.1-.225,0-.21.1-.21a4.924,4.924,0,0,0,1.463-.2A3.938,3.938,0,0,0,4.05-10.71a.363.363,0,0,1,.2-.09q.18,0,.18.27v9.165q0,.93,1.635.93h.225a.082.082,0,0,1,.082.052A.475.475,0,0,1,6.39-.21q0,.21-.105.21ZM8.61,1.605a.088.088,0,0,1-.075-.045.146.146,0,0,1-.03-.075.086.086,0,0,1,.03-.06,2.074,2.074,0,0,0,.413-.48A.854.854,0,0,0,9.09.525.362.362,0,0,0,8.9.18a1.179,1.179,0,0,1-.4-.285A.642.642,0,0,1,8.355-.54a.814.814,0,0,1,.24-.6.8.8,0,0,1,.585-.24.784.784,0,0,1,.585.248.858.858,0,0,1,.24.623A2.036,2.036,0,0,1,9.592.735a3.076,3.076,0,0,1-.937.855Zm9.435-4.7a.314.314,0,0,1,.233.082.314.314,0,0,1,.083.233.314.314,0,0,1-.083.233.314.314,0,0,1-.233.082H16.98a.314.314,0,0,0-.232.082.314.314,0,0,0-.083.233v1.17a.419.419,0,0,0,.285.435,2.214,2.214,0,0,0,.75.105H17.9q.135,0,.135.21Q18.03,0,17.9,0H14.3q-.12,0-.12-.225,0-.21.12-.21h.2a2.214,2.214,0,0,0,.75-.105.419.419,0,0,0,.285-.435v-1.17a.314.314,0,0,0-.082-.233.314.314,0,0,0-.233-.082H11.805a.314.314,0,0,1-.233-.082.314.314,0,0,1-.082-.233V-2.88a.711.711,0,0,1,.1-.39l4.335-7.515a.349.349,0,0,1,.405-.18l.06.015a.317.317,0,0,1,.27.345v7.2a.314.314,0,0,0,.083.233.314.314,0,0,0,.232.082Zm-2.52-5a.368.368,0,0,0-.045-.2.138.138,0,0,0-.12-.068q-.12,0-.21.165L12.42-3.465a.373.373,0,0,0-.045.165q0,.21.27.21H15.21a.314.314,0,0,0,.233-.082.314.314,0,0,0,.082-.233Zm6.96,8.3a2.353,2.353,0,0,1-1.568-.63,4.345,4.345,0,0,1-1.17-1.89,9.342,9.342,0,0,1-.443-3.075,9.333,9.333,0,0,1,.45-3.09,4.458,4.458,0,0,1,1.177-1.913,2.355,2.355,0,0,1,1.583-.637,2.338,2.338,0,0,1,1.567.637,4.4,4.4,0,0,1,1.17,1.913,9.479,9.479,0,0,1,.442,3.09,9.2,9.2,0,0,1-.45,3.075A4.4,4.4,0,0,1,24.068-.42,2.37,2.37,0,0,1,22.485.21Zm.03-.51q.87,0,1.372-1.267a10.952,10.952,0,0,0,.5-3.818,11.086,11.086,0,0,0-.5-3.833q-.5-1.283-1.372-1.283-.885,0-1.4,1.283a10.935,10.935,0,0,0-.51,3.833,10.8,10.8,0,0,0,.51,3.818Q21.63-.3,22.515-.3Zm7.77.51a2.353,2.353,0,0,1-1.568-.63,4.345,4.345,0,0,1-1.17-1.89A9.342,9.342,0,0,1,27.1-5.385a9.333,9.333,0,0,1,.45-3.09,4.458,4.458,0,0,1,1.177-1.913,2.355,2.355,0,0,1,1.583-.637,2.338,2.338,0,0,1,1.567.637,4.4,4.4,0,0,1,1.17,1.913,9.479,9.479,0,0,1,.443,3.09,9.2,9.2,0,0,1-.45,3.075A4.4,4.4,0,0,1,31.868-.42,2.37,2.37,0,0,1,30.285.21Zm.03-.51q.87,0,1.372-1.267a10.952,10.952,0,0,0,.5-3.818,11.086,11.086,0,0,0-.5-3.833q-.5-1.283-1.372-1.283-.885,0-1.4,1.283a10.935,10.935,0,0,0-.51,3.833,10.8,10.8,0,0,0,.51,3.818Q29.43-.3,30.315-.3Zm7.14-5.13a.314.314,0,0,0-.233.082.314.314,0,0,0-.083.233V-2.85q.03,1.62.105,3.315V.54a.407.407,0,0,1-.12.3,1.018,1.018,0,0,1-.75.3.358.358,0,0,1-.24-.09.27.27,0,0,1-.1-.21q.06-.885.1-1.718t.06-2.183v-5.7a23.067,23.067,0,0,0-.135-2.625v-.06q0-.24.18-.24a.373.373,0,0,1,.165.045l.63.3a1,1,0,0,0,.39.09H45.96a.423.423,0,0,0,.375-.21l.075-.1q.045-.06.135-.187t.18-.128a1.325,1.325,0,0,1,.48.27,4.033,4.033,0,0,1,.585.495.258.258,0,0,1,.06.165.246.246,0,0,1-.135.2.378.378,0,0,1-.09.045.582.582,0,0,0-.075.03.344.344,0,0,0-.27.345v9.96a1.458,1.458,0,0,1-.27.945,1.77,1.77,0,0,1-1.125.45l-.09.015q-.21,0-.285-.255a.767.767,0,0,0-.345-.405A3.432,3.432,0,0,0,43.95.03q-.3-.045-.3-.165t.33-.09q1.485.12,1.92.12a.5.5,0,0,0,.338-.09.393.393,0,0,0,.1-.3v-4.62a.314.314,0,0,0-.082-.233.314.314,0,0,0-.233-.082Zm3.75-5.055a.314.314,0,0,0-.083-.232.314.314,0,0,0-.233-.083H37.455a.314.314,0,0,0-.233.083.314.314,0,0,0-.083.232v4.32a.314.314,0,0,0,.083.233.314.314,0,0,0,.233.082H40.89a.314.314,0,0,0,.233-.082.314.314,0,0,0,.083-.233ZM42.48-10.8a.314.314,0,0,0-.233.083.314.314,0,0,0-.083.232v4.32a.314.314,0,0,0,.083.233.314.314,0,0,0,.233.082h3.54a.314.314,0,0,0,.233-.082.314.314,0,0,0,.082-.233v-4.32a.314.314,0,0,0-.082-.232.314.314,0,0,0-.233-.083Z" transform="translate(1028 3169)" fill="#fff"/>
    <g id="グループ_2885" data-name="グループ 2885">
      <path id="パス_1709" data-name="パス 1709" d="M0,0H800" transform="translate(540 2847.5)" fill="none" stroke="#707070" stroke-width="1"/>
      <path id="パス_1710" data-name="パス 1710" d="M0,0V350.387" transform="translate(762.5 2847.5)" fill="none" stroke="#707070" stroke-width="1"/>
      <path id="パス_1712" data-name="パス 1712" d="M0,0H800" transform="translate(540 2987.5)" fill="none" stroke="#707070" stroke-width="1"/>
      <path id="パス_1711" data-name="パス 1711" d="M0,0H800" transform="translate(540 2917.5)" fill="none" stroke="#707070" stroke-width="1"/>
      <path id="パス_1713" data-name="パス 1713" d="M0,0H800" transform="translate(540 3057.5)" fill="none" stroke="#707070" stroke-width="1"/>
      <path id="パス_1714" data-name="パス 1714" d="M0,0H800" transform="translate(540 3127.5)" fill="none" stroke="#707070" stroke-width="1"/>
      <path id="パス_1715" data-name="パス 1715" d="M0,0H800" transform="translate(540 3197.5)" fill="none" stroke="#707070" stroke-width="1"/>
    </g>
  </g>
</svg>
