<?xml version="1.0" encoding="utf-8"?>
<!-- Generator: Adobe Illustrator 28.1.0, SVG Export Plug-In . SVG Version: 6.00 Build 0)  -->
<svg version="1.1" id="レイヤー_1" xmlns="http://www.w3.org/2000/svg" xmlns:xlink="http://www.w3.org/1999/xlink" x="0px"
	 y="0px" viewBox="0 0 800 211" style="enable-background:new 0 0 800 211;" xml:space="preserve">
<style type="text/css">
	.st0{enable-background:new    ;}
	.st1{fill:#FFFFFF;}
	.st2{fill:none;stroke:#707070;}
</style>
<g class="st0">
	<path class="st1" d="M307.5,34.6l0.1-0.2c0,0,0.1-0.1,0.1-0.2c0-0.1,0.1-0.1,0.1-0.2c0,0,0.1-0.1,0.1-0.1c0.1,0,0.2,0.1,0.5,0.3
		c0.3,0.2,0.4,0.4,0.6,0.6c0,0,0.1,0.1,0.1,0.2c0,0.1,0,0.2-0.1,0.2c-0.1,0-0.1,0.1-0.2,0.1c-0.2,0.1-0.3,0.2-0.3,0.3v3.5
		c0,0.2,0.1,0.3,0.1,0.4c0.3,0.3,0.7,0.6,1.1,0.8c0.4,0.2,0.8,0.3,1.4,0.4c0.5,0.1,1.2,0.1,2.1,0.1c2.5,0,4.3,0,5.5,0h0.1
		c0.1,0,0.1,0,0.2,0c0,0,0.1,0,0.1,0.1c0,0,0,0.1-0.1,0.1c-0.1,0-0.1,0.1-0.2,0.1c-0.2,0.1-0.3,0.2-0.4,0.4
		c-0.1,0.2-0.2,0.3-0.3,0.3h-4.8c-0.9,0-1.6,0-2.1-0.1c-0.6-0.1-1-0.3-1.4-0.5c-0.4-0.2-0.8-0.6-1.1-1.1c-0.1-0.1-0.1-0.1-0.2-0.1
		c-0.1,0-0.1,0-0.2,0.1c-0.4,0.5-0.9,1.1-1.5,1.6c-0.1,0.1-0.2,0.2-0.2,0.2v0.1l-0.1,0c-0.1,0-0.2-0.1-0.3-0.2l-0.3-0.5
		c0-0.1-0.1-0.1-0.1-0.2c0-0.1,0.1-0.2,0.2-0.3c0.4-0.2,0.9-0.5,1.5-0.9c0.1-0.1,0.2-0.2,0.2-0.4v-3.9c0-0.1,0-0.2-0.1-0.2
		c-0.1-0.1-0.1-0.1-0.2-0.1h-0.3c-0.2,0-0.5,0.1-0.8,0.1c0,0-0.1,0-0.1,0c-0.1,0-0.2-0.1-0.3-0.2l0-0.1c0-0.1,0-0.1,0-0.2
		c0-0.1,0-0.1,0.1-0.2c0.1,0,0.1,0,0.2,0c0.2,0,0.4,0,0.8,0.1h0.3C307.3,34.8,307.4,34.7,307.5,34.6z M306.3,28.9
		C306.3,28.9,306.3,28.9,306.3,28.9c0.1,0,0.2,0,0.3,0c0.8,0.3,1.4,0.7,1.7,1.1s0.5,0.8,0.5,1.2c0,0.2,0,0.3-0.1,0.5
		c-0.1,0.1-0.2,0.2-0.4,0.2c-0.1,0-0.1,0-0.2,0c-0.1,0-0.2-0.1-0.2-0.3c-0.1-0.4-0.3-0.8-0.6-1.2s-0.6-0.8-0.9-1.1
		C306.3,29,306.2,28.9,306.3,28.9z M316.9,32l0.1-0.1c0,0,0.1-0.1,0.1-0.2c0-0.1,0.1-0.1,0.1-0.2c0,0,0.1-0.1,0.1-0.1
		c0.1,0,0.2,0.1,0.5,0.3c0.2,0.2,0.4,0.4,0.5,0.5c0,0,0.1,0.1,0.1,0.2c0,0.1,0,0.1-0.1,0.2c0,0-0.1,0-0.1,0c0,0-0.1,0-0.1,0
		c-0.2,0.1-0.3,0.2-0.3,0.4v5.7c0,0.4-0.1,0.7-0.2,0.9s-0.4,0.3-0.8,0.4h-0.1c-0.1,0-0.2-0.1-0.3-0.3c0,0,0-0.1-0.1-0.2
		c0-0.1-0.1-0.2-0.3-0.3c-0.1-0.1-0.3-0.1-0.5-0.2c-0.2,0-0.3-0.1-0.3-0.2c0-0.1,0.1-0.1,0.3-0.1c0.4,0,0.8,0.1,1,0.1
		c0.1,0,0.2,0,0.2-0.1s0.1-0.1,0.1-0.2v-1.3c0-0.1,0-0.2-0.1-0.2c-0.1-0.1-0.1-0.1-0.2-0.1h-1.9c-0.1,0-0.2,0-0.2,0.1
		c-0.1,0.1-0.1,0.1-0.1,0.2v0.6l0,0.7c0,0.2,0,0.5,0,0.8v0.1c0,0.1,0,0.2-0.1,0.3c-0.2,0.1-0.4,0.2-0.7,0.2c-0.1,0-0.1,0-0.2-0.1
		c0-0.1-0.1-0.1-0.1-0.2c0-0.4,0.1-1,0.1-1.6v-0.7c0-0.1,0-0.2-0.1-0.2c-0.1-0.1-0.1-0.1-0.2-0.1h-1.8c-0.1,0-0.2,0-0.2,0.1
		c-0.1,0.1-0.1,0.1-0.1,0.2V38l0,0.7c0,0.2,0,0.5,0,0.8v0.1c0,0.1,0,0.2-0.1,0.3c-0.1,0.1-0.2,0.1-0.3,0.2s-0.3,0.1-0.4,0.1
		c-0.1,0-0.1,0-0.2-0.1c-0.1-0.1-0.1-0.1-0.1-0.2c0.1-1,0.1-2.1,0.1-3.3v-1.8c0-1,0-1.8-0.1-2.6V32c0-0.1,0-0.1,0.1-0.2
		c0,0,0.1-0.1,0.1-0.1c0,0,0.1,0,0.2,0l0.6,0.3c0.1,0.1,0.2,0.1,0.4,0.1h2.6l0.5,0l0,0c-0.2-0.3-0.6-0.6-1-0.8
		c-0.4-0.3-0.9-0.5-1.5-0.8c-0.2-0.1-0.2-0.2-0.2-0.2c0-0.1,0.1-0.1,0.3-0.1c0.9,0.1,1.6,0.3,2.2,0.6c0.1,0,0.1,0,0.2,0
		c0.1,0,0.1,0,0.2-0.1c0.3-0.2,0.6-0.5,1.1-0.8c0.1-0.1,0.1-0.1,0.1-0.2c0,0,0-0.1-0.1-0.1c-0.1,0-0.1-0.1-0.2-0.1h-3
		c-0.6,0-1.3,0.1-2,0.2h-0.1c-0.1,0-0.2-0.1-0.3-0.2l-0.1-0.1c0-0.1-0.1-0.2-0.1-0.2c0-0.1,0-0.1,0.1-0.1c0,0,0.1,0,0.2,0
		c0.3,0,0.9,0.1,1.5,0.1h4.3c0.1,0,0.3-0.1,0.4-0.2l0.1-0.1c0,0,0.1-0.1,0.2-0.2s0.2-0.1,0.2-0.1c0.1,0,0.2,0.1,0.4,0.3
		c0.2,0.2,0.4,0.4,0.5,0.5c0,0.1,0.1,0.1,0.1,0.2c0,0.1-0.1,0.2-0.2,0.2l-0.2,0c-0.1,0-0.3,0.1-0.4,0.1c-0.5,0.3-1.3,0.7-2.3,1.1
		c-0.1,0-0.2,0.1-0.2,0.2c0,0.1,0,0.1,0.1,0.2c0.2,0.2,0.3,0.4,0.3,0.6c0.1,0.2,0.1,0.3,0.3,0.3h1C316.7,32.2,316.8,32.1,316.9,32z
		 M313.4,34.3c0.1-0.1,0.1-0.1,0.1-0.2v-1.1c0-0.1,0-0.2-0.1-0.2c-0.1-0.1-0.1-0.1-0.2-0.1h-1.8c-0.1,0-0.2,0-0.2,0.1
		c-0.1,0.1-0.1,0.1-0.1,0.2V34c0,0.1,0,0.2,0.1,0.2c0.1,0.1,0.1,0.1,0.2,0.1h1.8C313.3,34.4,313.3,34.3,313.4,34.3z M311.1,34.9
		c-0.1,0.1-0.1,0.1-0.1,0.2v1.2c0,0.1,0,0.2,0.1,0.2c0.1,0.1,0.1,0.1,0.2,0.1h1.8c0.1,0,0.2,0,0.2-0.1c0.1-0.1,0.1-0.1,0.1-0.2v-1.2
		c0-0.1,0-0.2-0.1-0.2c-0.1-0.1-0.1-0.1-0.2-0.1h-1.8C311.2,34.8,311.1,34.8,311.1,34.9z M316.8,34.3c0.1-0.1,0.1-0.1,0.1-0.2v-1.1
		c0-0.1,0-0.2-0.1-0.2c-0.1-0.1-0.1-0.1-0.2-0.1h-1.9c-0.1,0-0.2,0-0.2,0.1c-0.1,0.1-0.1,0.1-0.1,0.2V34c0,0.1,0,0.2,0.1,0.2
		c0.1,0.1,0.1,0.1,0.2,0.1h1.9C316.7,34.4,316.8,34.3,316.8,34.3z M314.4,34.9c-0.1,0.1-0.1,0.1-0.1,0.2v1.2c0,0.1,0,0.2,0.1,0.2
		c0.1,0.1,0.1,0.1,0.2,0.1h1.9c0.1,0,0.2,0,0.2-0.1c0.1-0.1,0.1-0.1,0.1-0.2v-1.2c0-0.1,0-0.2-0.1-0.2c-0.1-0.1-0.1-0.1-0.2-0.1
		h-1.9C314.6,34.8,314.5,34.8,314.4,34.9z"/>
	<path class="st1" d="M332.2,31l0.1-0.2c0,0,0.1-0.1,0.1-0.1c0.1-0.1,0.1-0.1,0.1-0.1s0.1,0,0.1,0c0.1,0,0.2,0.1,0.4,0.3
		s0.4,0.4,0.5,0.6c0,0.1,0,0.1,0,0.2c0,0.1-0.1,0.2-0.2,0.2l-0.1,0c-0.2,0-0.3,0.1-0.4,0.2c-0.3,0.4-0.7,0.8-1.2,1.2
		c-0.1,0.1-0.2,0.1-0.3,0.1c-0.1,0-0.1,0-0.1-0.1c0,0,0-0.1,0.1-0.2L332,32c0-0.1,0-0.1,0-0.1c0-0.1,0-0.1-0.1-0.2
		c-0.1,0-0.1-0.1-0.2-0.1H323c-0.2,0-0.3,0.1-0.3,0.3c0,0.4-0.1,0.7-0.3,1s-0.3,0.5-0.5,0.7c-0.2,0.1-0.4,0.2-0.6,0.2
		s-0.4-0.1-0.4-0.3c0-0.1,0-0.2,0-0.2c0-0.1,0-0.2,0.1-0.3c0.1-0.1,0.2-0.2,0.3-0.3c0.3-0.2,0.5-0.4,0.7-0.8s0.3-0.8,0.4-1.2
		c0-0.2,0.1-0.3,0.1-0.3c0.1,0,0.2,0.1,0.2,0.3l0,0.2c0,0.2,0.1,0.3,0.3,0.3h3.4c0.2,0,0.3-0.1,0.3-0.3c0-0.7-0.1-1.4-0.1-2.1v-0.1
		c0-0.1,0-0.1,0.1-0.2s0.1-0.1,0.2-0.1c0,0,0.1,0,0.1,0c0.7,0.2,1.1,0.4,1.1,0.5c0,0,0,0.1-0.1,0.2l0,0c-0.1,0.1-0.2,0.2-0.2,0.4
		v1.3c0,0.1,0,0.2,0.1,0.2c0.1,0.1,0.1,0.1,0.2,0.1h0.6c0.2,0,0.3-0.1,0.4-0.2c0.5-0.8,0.8-1.6,1-2.2c0-0.1,0.1-0.2,0.2-0.2
		c0.1,0,0.1,0,0.2,0c0.8,0.3,1.1,0.5,1.1,0.7c0,0-0.1,0.1-0.1,0.1l-0.1,0c-0.1,0-0.3,0.1-0.3,0.2c-0.4,0.4-0.8,0.8-1.3,1.3
		c-0.1,0.1-0.1,0.2-0.1,0.2c0,0.1,0.1,0.2,0.3,0.2h2C332,31.2,332.1,31.1,332.2,31z M329.9,32.7l0.1-0.1c0,0,0.1-0.1,0.1-0.1
		c0-0.1,0.1-0.1,0.1-0.1c0,0,0.1,0,0.1,0c0.1,0,0.2,0.1,0.4,0.3c0.2,0.2,0.4,0.3,0.5,0.5c0,0.1,0.1,0.1,0.1,0.1
		c0,0.1-0.1,0.1-0.2,0.2l-0.1,0c-0.2,0.1-0.3,0.2-0.3,0.3v0.6l0,0.6c0,0.2,0,0.4,0,0.7v0.1c0,0.1-0.1,0.2-0.1,0.3
		c-0.1,0.1-0.2,0.1-0.4,0.2c-0.1,0-0.3,0.1-0.3,0.1c0,0-0.1,0-0.1-0.1s0-0.1,0-0.2s0-0.2-0.1-0.2c-0.1,0-0.1-0.1-0.2-0.1H328
		c-0.1,0-0.2,0-0.2,0.1c-0.1,0.1-0.1,0.1-0.1,0.2v0.9c0,0.1,0,0.2,0.1,0.2c0.1,0.1,0.1,0.1,0.2,0.1h2.6c0.2,0,0.3-0.1,0.4-0.2
		l0.1-0.1c0,0,0.1-0.1,0.1-0.1c0-0.1,0.1-0.1,0.1-0.1c0,0,0.1,0,0.1,0c0.1,0,0.2,0.1,0.5,0.2s0.4,0.3,0.6,0.5
		c0.1,0.1,0.1,0.1,0.1,0.2c0,0.1-0.1,0.1-0.1,0.2c0,0,0,0-0.1,0c0,0-0.1,0-0.1,0c-0.2,0.1-0.3,0.2-0.3,0.4v1.9
		c0,0.4-0.1,0.7-0.2,0.9c-0.2,0.2-0.5,0.4-1,0.4l-0.1,0c-0.1,0-0.2-0.1-0.3-0.3c-0.1-0.2-0.1-0.3-0.2-0.4c-0.2-0.2-0.5-0.3-0.9-0.3
		c-0.2,0-0.3-0.1-0.3-0.2c0,0,0.1-0.1,0.2-0.1c0.2,0,0.3,0,0.5,0s0.3,0,0.4,0l0.6,0c0.1,0,0.2,0,0.3-0.1c0,0,0.1-0.1,0.1-0.2v-2
		c0-0.1,0-0.2-0.1-0.2c-0.1-0.1-0.1-0.1-0.2-0.1H328c-0.1,0-0.2,0-0.2,0.1c-0.1,0.1-0.1,0.1-0.1,0.2v1c0,1,0.1,1.8,0.1,2.4v0.1
		c0,0.1,0,0.2-0.1,0.3c-0.2,0.2-0.5,0.3-0.8,0.3c-0.1,0-0.1,0-0.2-0.1c-0.1-0.1-0.1-0.1-0.1-0.2c0.1-0.9,0.1-1.8,0.1-2.6V38
		c0-0.1,0-0.2-0.1-0.2c-0.1-0.1-0.1-0.1-0.2-0.1h-2.6c-0.1,0-0.2,0-0.2,0.1c-0.1,0.1-0.1,0.1-0.1,0.2v0.9c0,0.9,0.1,1.6,0.1,2v0.1
		c0,0.1,0,0.2-0.1,0.3c-0.2,0.2-0.4,0.2-0.7,0.2c-0.1,0-0.1,0-0.2-0.1c0-0.1-0.1-0.1-0.1-0.2c0-0.3,0.1-0.8,0.1-1.3v-0.8
		c0-0.7,0-1.4-0.1-2v-0.1c0-0.2,0.1-0.2,0.2-0.2c0,0,0.1,0,0.2,0l0.6,0.3c0.1,0.1,0.3,0.1,0.4,0.1h2.6c0.1,0,0.2,0,0.2-0.1
		c0.1-0.1,0.1-0.1,0.1-0.2V36c0-0.1,0-0.2-0.1-0.2c-0.1-0.1-0.1-0.1-0.2-0.1h-1.5c-0.1,0-0.2,0-0.2,0.1c-0.1,0.1-0.1,0.1-0.1,0.2
		v0.1c0,0-0.1,0.1-0.3,0.2c-0.2,0.1-0.3,0.1-0.5,0.1c-0.1,0-0.1,0-0.2-0.1c0-0.1-0.1-0.1-0.1-0.2c0-0.2,0.1-0.5,0.1-0.7
		c0-0.1,0-0.2,0-0.3v-0.7c0-0.6,0-1.2-0.1-1.6v-0.1c0-0.2,0.1-0.2,0.2-0.2c0,0,0.1,0,0.2,0l0.5,0.3c0.1,0.1,0.2,0.1,0.4,0.1h4.6
		C329.7,32.9,329.8,32.8,329.9,32.7z M323.2,28.6c0,0,0.1,0,0.1,0c0,0,0.1,0,0.2,0c0.6,0.2,1.1,0.5,1.3,0.8c0.3,0.3,0.4,0.6,0.4,0.9
		c0,0.2,0,0.3-0.1,0.5c-0.1,0.1-0.2,0.2-0.4,0.2c0,0-0.1,0-0.2,0c-0.1,0-0.2-0.2-0.2-0.3c-0.1-0.3-0.2-0.6-0.4-0.9
		c-0.2-0.3-0.4-0.6-0.6-0.8C323.2,28.8,323.1,28.7,323.2,28.6z M329.8,33.4c-0.1-0.1-0.1-0.1-0.2-0.1h-4.6c-0.1,0-0.2,0-0.2,0.1
		c-0.1,0.1-0.1,0.1-0.1,0.2v1.3c0,0.1,0,0.2,0.1,0.2c0.1,0.1,0.1,0.1,0.2,0.1h4.6c0.1,0,0.2,0,0.2-0.1c0.1-0.1,0.1-0.1,0.1-0.2v-1.3
		C329.9,33.6,329.8,33.5,329.8,33.4z"/>
</g>
<g class="st0">
	<path class="st1" d="M491.1,31.9c-0.2-0.4-0.6-0.8-1-1.2c-0.2-0.1-0.2-0.2-0.2-0.3c0,0,0.1,0,0.1,0c0.1,0,0.1,0,0.1,0
		c0.6,0.1,1.1,0.3,1.4,0.5s0.4,0.5,0.4,0.8c0,0.1,0,0.3-0.1,0.4c-0.1,0.1-0.2,0.2-0.3,0.2c-0.1,0-0.1,0-0.2,0
		C491.3,32.2,491.2,32.1,491.1,31.9z M502.4,37.9c0.3,0.2,0.5,0.4,0.6,0.6c0,0.1,0.1,0.1,0.1,0.2c0,0.1,0,0.1-0.1,0.2
		c-0.1,0-0.2,0.1-0.3,0.1h-5.4c-0.1,0-0.2,0-0.2,0.1c-0.1,0.1-0.1,0.1-0.1,0.2v0.7l0,0.8c0,0.2,0,0.5,0,0.9v0.1c0,0.1,0,0.2-0.1,0.3
		c-0.1,0.1-0.2,0.1-0.3,0.2s-0.3,0.1-0.4,0.1c-0.1,0-0.2,0-0.2-0.1C496,42,496,42,496,41.9c0-0.5,0.1-1.1,0.1-1.8v-0.8
		c0-0.1,0-0.2-0.1-0.2c-0.1-0.1-0.1-0.1-0.2-0.1h-3.2c-0.6,0-1.3,0.1-2,0.2h-0.1c-0.1,0-0.2-0.1-0.3-0.2l-0.1-0.1c0-0.1,0-0.1,0-0.2
		c0-0.1,0-0.1,0.1-0.1c0,0,0.1,0,0.2,0c0.3,0,0.9,0.1,1.5,0.1h3.9c0.2,0,0.3-0.1,0.3-0.3l0-0.9c0-0.1-0.1-0.2-0.2-0.2
		c-0.1,0-0.1,0-0.2,0c-0.1,0.1-0.3,0.1-0.4,0.1c-0.1,0-0.1,0-0.2-0.1C495,37,495,37,495,36.9c0.1-1,0.1-2,0.1-3.2v-1.2
		c0-0.2-0.1-0.3-0.2-0.3c-0.1,0-0.1,0-0.2,0.1c-0.4,0.4-0.8,0.8-1.1,1c-0.2,0.1-0.3,0.1-0.3,0.1c0,0,0,0,0-0.1c0-0.1,0-0.2,0.1-0.3
		c0.5-0.5,0.9-1.1,1.3-1.8c0.2-0.4,0.4-0.8,0.6-1.3c0.2-0.5,0.4-1,0.5-1.4c0-0.2,0.1-0.2,0.2-0.2c0,0,0.1,0,0.2,0
		c0.7,0.3,1.1,0.5,1.1,0.6c0,0,0,0.1-0.1,0.1l0,0c-0.2,0.1-0.3,0.2-0.3,0.3c0,0.1-0.1,0.2-0.1,0.3c0,0.1-0.1,0.2-0.2,0.3
		c0,0.1-0.1,0.1-0.1,0.2c0,0.1,0,0.1,0.1,0.1s0.1,0.1,0.2,0.1h1.3c0.2,0,0.3-0.1,0.4-0.3c0.2-0.5,0.3-1,0.3-1.4
		c0-0.2,0.1-0.3,0.3-0.3c0,0,0.1,0,0.1,0c0.7,0.2,1.1,0.3,1.1,0.5c0,0,0,0.1-0.1,0.1l-0.1,0c-0.1,0.1-0.2,0.1-0.3,0.3
		c-0.2,0.3-0.4,0.5-0.6,0.7c-0.1,0.1-0.1,0.2-0.1,0.2s0,0.1,0.1,0.1c0,0,0.1,0.1,0.2,0.1h1.5c0.2,0,0.3-0.1,0.4-0.2l0.2-0.2
		c0,0,0.1-0.1,0.1-0.2s0.1-0.1,0.1-0.2c0,0,0.1-0.1,0.1-0.1c0.1,0,0.3,0.1,0.5,0.3c0.3,0.2,0.5,0.4,0.6,0.6c0,0,0.1,0.1,0.1,0.2
		c0,0.1,0,0.1-0.1,0.2c-0.1,0-0.2,0.1-0.3,0.1h-3c-0.1,0-0.2,0-0.2,0.1c-0.1,0.1-0.1,0.1-0.1,0.2v0.7c0,0.1,0,0.2,0.1,0.2
		s0.1,0.1,0.2,0.1h0.9c0.2,0,0.3-0.1,0.4-0.2l0.1-0.2c0,0,0.1-0.1,0.1-0.2c0.1-0.1,0.1-0.1,0.1-0.2c0,0,0.1-0.1,0.1-0.1
		c0.1,0,0.2,0.1,0.5,0.3c0.2,0.2,0.4,0.4,0.5,0.5c0,0,0.1,0.1,0.1,0.2c0,0.1,0,0.1-0.1,0.2c-0.1,0.1-0.2,0.1-0.3,0.1h-2.5
		c-0.1,0-0.2,0-0.2,0.1c-0.1,0.1-0.1,0.1-0.1,0.2v0.8c0,0.1,0,0.2,0.1,0.2c0.1,0.1,0.1,0.1,0.2,0.1h0.9c0.2,0,0.3-0.1,0.4-0.2
		l0.1-0.2c0,0,0.1-0.1,0.1-0.2c0.1-0.1,0.1-0.1,0.1-0.2s0.1-0.1,0.1-0.1c0.1,0,0.2,0.1,0.5,0.3c0.2,0.2,0.4,0.4,0.5,0.5
		c0,0.1,0.1,0.1,0.1,0.2c0,0.1,0,0.1-0.1,0.2c-0.1,0-0.2,0.1-0.3,0.1h-2.5c-0.1,0-0.2,0-0.2,0.1c-0.1,0.1-0.1,0.1-0.1,0.2v0.8
		c0,0.1,0,0.2,0.1,0.2c0.1,0.1,0.1,0.1,0.2,0.1h1.6c0.2,0,0.3-0.1,0.4-0.2l0.2-0.2c0,0,0.1-0.1,0.1-0.2c0-0.1,0.1-0.1,0.1-0.2
		c0.1,0,0.1-0.1,0.1-0.1c0.1,0,0.2,0.1,0.5,0.3c0.3,0.2,0.5,0.4,0.6,0.6c0,0.1,0.1,0.1,0.1,0.2c0,0.1,0,0.1-0.1,0.2
		c-0.1,0-0.2,0.1-0.3,0.1h-6.5c-0.1,0-0.2,0-0.2,0.1s-0.1,0.1-0.1,0.2c0,0.2,0.1,0.3,0.3,0.3c0.7,0.2,1,0.4,1,0.5c0,0,0,0.1-0.1,0.1
		c-0.1,0.1-0.2,0.2-0.2,0.4v0.2c0,0.1,0,0.2,0.1,0.2s0.1,0.1,0.2,0.1h3.5c0.2,0,0.3-0.1,0.4-0.2l0.2-0.3c0,0,0.1-0.1,0.2-0.2
		c0.1-0.1,0.1-0.2,0.2-0.2s0.1-0.1,0.1-0.1C501.9,37.6,502.1,37.7,502.4,37.9z M490.6,34.2h0.4c0.1,0,0.2,0,0.2,0
		c0,0,0.1-0.1,0.2-0.2c0.1-0.1,0.2-0.3,0.4-0.5c0.1-0.2,0.4-0.5,0.6-0.9s0.5-0.7,0.8-1.1l1-1.4c0.1-0.1,0.2-0.2,0.3-0.2
		c0.1,0,0.1,0,0.1,0.1c0,0.1,0,0.1-0.1,0.3c-0.1,0.2-0.2,0.3-0.3,0.5c-0.1,0.2-0.2,0.4-0.3,0.6c-0.9,1.4-1.4,2.3-1.5,2.5
		c-0.2,0.4-0.3,0.7-0.3,1c0,0.1,0,0.2,0.1,0.3c0,0.1,0.1,0.2,0.1,0.2c0,0.2,0.1,0.3,0.1,0.5c0,0.2,0.1,0.4,0.1,0.6
		c0,0.6-0.2,1-0.7,1c-0.2,0-0.3-0.1-0.4-0.4c0-0.1,0-0.2,0-0.4c0-0.3,0-0.6,0-0.8c0-0.6-0.1-0.9-0.3-1c-0.1-0.1-0.3-0.1-0.4-0.1
		c-0.2,0-0.3-0.1-0.3-0.2C490.3,34.3,490.4,34.2,490.6,34.2z M492.3,30.1c-0.1-0.2-0.2-0.4-0.4-0.7c-0.2-0.2-0.4-0.4-0.6-0.6
		c-0.2-0.2-0.2-0.2-0.2-0.3c0,0,0.1,0,0.1,0c0.1,0,0.1,0,0.2,0c0.6,0.1,1,0.3,1.3,0.6c0.3,0.3,0.4,0.5,0.4,0.8c0,0.2,0,0.3-0.1,0.4
		c-0.1,0.1-0.2,0.1-0.3,0.1c0,0-0.1,0-0.2,0C492.5,30.4,492.4,30.3,492.3,30.1z M498.1,30.9c-0.1-0.1-0.1-0.1-0.2-0.1h-1.6
		c-0.1,0-0.2,0-0.2,0.1c-0.1,0.1-0.1,0.1-0.1,0.2v0.7c0,0.1,0,0.2,0.1,0.2s0.1,0.1,0.2,0.1h1.6c0.1,0,0.2,0,0.2-0.1s0.1-0.1,0.1-0.2
		v-0.7C498.2,31,498.2,30.9,498.1,30.9z M498.1,32.7c-0.1-0.1-0.1-0.1-0.2-0.1h-1.6c-0.1,0-0.2,0-0.2,0.1c-0.1,0.1-0.1,0.1-0.1,0.2
		v0.8c0,0.1,0,0.2,0.1,0.2c0.1,0.1,0.1,0.1,0.2,0.1h1.6c0.1,0,0.2,0,0.2-0.1c0.1-0.1,0.1-0.1,0.1-0.2v-0.8
		C498.2,32.8,498.2,32.7,498.1,32.7z M498.1,34.5c-0.1-0.1-0.1-0.1-0.2-0.1h-1.6c-0.1,0-0.2,0-0.2,0.1c-0.1,0.1-0.1,0.1-0.1,0.2v0.8
		c0,0.1,0,0.2,0.1,0.2c0.1,0.1,0.1,0.1,0.2,0.1h1.6c0.1,0,0.2,0,0.2-0.1c0.1-0.1,0.1-0.1,0.1-0.2v-0.8
		C498.2,34.7,498.2,34.6,498.1,34.5z"/>
	<path class="st1" d="M506.1,33.1c0-0.2-0.1-0.3-0.3-0.3h0c-0.1,0-0.2,0-0.3,0.1c-0.1,0-0.1,0-0.2,0c-0.1,0-0.2-0.1-0.2-0.2l0-0.1
		c0-0.1,0-0.1,0-0.2c0-0.1,0.1-0.2,0.2-0.2c0.1,0,0.2,0,0.3,0c0.1,0,0.2,0,0.3,0h0.2c0.2,0,0.3-0.1,0.3-0.3c0.1-0.3,0.1-0.7,0.1-1
		V31c0-0.2-0.1-0.2-0.2-0.2c-0.1,0-0.1,0-0.2,0.1c-0.1,0.1-0.2,0.2-0.5,0.3c-0.1,0.1-0.3,0.1-0.3,0c0,0,0,0,0-0.1
		c0-0.1,0-0.1,0.1-0.2c0.3-0.3,0.5-0.7,0.8-1.1s0.4-0.9,0.5-1.3c0.1-0.1,0.1-0.2,0.2-0.2c0.1,0,0.1,0,0.2,0c0.6,0.2,0.9,0.4,0.9,0.5
		c0,0,0,0.1-0.1,0.1l-0.1,0c-0.1,0-0.2,0.1-0.3,0.3c0,0.1,0,0.2,0.1,0.2c0,0.1,0.1,0.1,0.2,0.1h2.6c0.2,0,0.3-0.1,0.4-0.2l0.1-0.2
		c0,0,0.1-0.1,0.1-0.2c0.1-0.1,0.1-0.1,0.1-0.2s0.1-0.1,0.1-0.1c0.1,0,0.2,0.1,0.4,0.3c0.2,0.2,0.4,0.4,0.5,0.5c0,0,0.1,0.1,0.1,0.2
		c0,0.1,0,0.1-0.1,0.2c-0.1,0-0.2,0.1-0.3,0.1h-4.6c-0.2,0-0.3,0.1-0.4,0.2v0.1c0,0.1,0,0.2,0.1,0.3l0.4,0.2
		c0.1,0.1,0.2,0.1,0.4,0.1h2.4c0.2,0,0.3-0.1,0.4-0.2l0.1-0.1c0,0,0-0.1,0.1-0.1c0-0.1,0.1-0.1,0.1-0.1c0,0,0.1,0,0.1,0
		c0.1,0,0.2,0.1,0.4,0.2c0.2,0.2,0.3,0.3,0.4,0.5c0,0,0.1,0.1,0.1,0.2c0,0.1-0.1,0.1-0.2,0.2l-0.1,0c-0.1,0-0.2,0.1-0.2,0.1
		s-0.1,0.1-0.1,0.2l0,0.4c0,0.2,0.1,0.3,0.2,0.3s0.2-0.1,0.3-0.2l0.1-0.2c0.1-0.1,0.1-0.1,0.2-0.1c0.1,0,0.2,0,0.2,0.1
		c0,0,0.1,0.1,0.4,0.4c0.1,0.1,0.1,0.2,0.1,0.3c0,0.1,0,0.1-0.1,0.1c0,0-0.1,0.1-0.2,0.1h-1.1c-0.2,0-0.3,0.1-0.3,0.3
		c0,0.2,0,0.4-0.1,0.5v0.1c0,0.1,0,0.2,0.1,0.2c0.1,0,0.2-0.1,0.3-0.2l0.1-0.2c0.1-0.1,0.1-0.1,0.2-0.1c0.1,0,0.1,0,0.2,0.1l0.4,0.4
		c0.1,0.1,0.2,0.2,0.2,0.3c0,0,0,0.1-0.1,0.1c-0.1,0-0.1,0-0.2,0h-1c-0.2,0-0.3,0.1-0.3,0.3c-0.1,0.2-0.1,0.3-0.1,0.4
		c0,0.1,0,0.1,0,0.2c0,0.1,0.1,0.2,0.2,0.3c0.4,0.3,0.7,0.5,0.7,0.6c0,0,0,0.1-0.1,0.1h0c-0.1,0-0.3,0-0.4,0.1l-1,0.6
		c-0.1,0.1-0.2,0.1-0.2,0.2s0,0.1,0.1,0.2c0.1,0.2,0.2,0.3,0.2,0.5c0,0.1,0,0.2-0.1,0.3c-0.1,0.1-0.2,0.1-0.3,0.1
		c-0.1,0-0.2-0.1-0.3-0.2c-0.2-0.2-0.5-0.5-0.9-0.7c-0.4-0.2-0.7-0.4-1.1-0.6c-0.1,0-0.2-0.1-0.2-0.1c-0.1,0-0.1-0.1,0-0.1
		c0,0,0.1-0.1,0.2-0.1c0.7,0,1.3,0.1,1.8,0.3c0.1,0,0.1,0,0.2,0c0.1,0,0.2,0,0.3-0.1c0.2-0.2,0.4-0.4,0.5-0.5
		c0.1-0.1,0.2-0.2,0.2-0.3c0,0,0-0.1-0.1-0.1c-0.1,0.1-0.3,0.1-0.4,0.1h0c-0.1,0-0.2-0.1-0.3-0.2c0-0.1-0.1-0.1-0.1-0.2
		c-0.1-0.1-0.2-0.1-0.4-0.2c-0.2,0-0.3-0.1-0.3-0.2c0-0.1,0.1-0.1,0.3-0.1l0.5,0c0.1,0,0.2,0,0.3,0c0.2,0,0.3,0,0.4-0.1l0,0
		c0,0,0-0.1,0-0.1c0-0.1,0-0.1-0.1-0.2s-0.1-0.1-0.2-0.1H507c-0.2,0-0.3,0.1-0.3,0.3c0,0.2-0.1,0.3-0.2,0.3c-0.1,0-0.1,0-0.2,0
		c-0.1,0-0.1,0-0.2,0c-0.2,0-0.3-0.1-0.3-0.3L506.1,33.1L506.1,33.1z M509,39.6c0.1,0,0.1,0,0.2,0.1l0.3,0.2
		c0.3,0.2,0.4,0.3,0.4,0.4c0,0-0.1,0.1-0.2,0.1h0h-0.1c-0.1,0-0.2,0-0.3,0.1c-0.4,0.3-1,0.5-1.6,0.8c-0.6,0.3-1.3,0.5-1.9,0.6
		c-0.1,0-0.1,0-0.2,0c-0.1,0-0.1,0-0.2-0.1l0,0c0-0.1,0.1-0.1,0.3-0.2c0.5-0.2,1.1-0.5,1.6-0.9s1-0.7,1.4-1
		C508.8,39.7,508.9,39.6,509,39.6z M514.1,37.4c0,0,0.1-0.1,0.2-0.1c0.1,0,0.1,0,0.2,0c0.7,0.1,1.3,0.3,1.8,0.5
		c0.5,0.2,0.8,0.5,1,0.7c0.2,0.2,0.3,0.5,0.3,0.7c0,0.1,0,0.2-0.1,0.3c-0.1,0.1-0.2,0.1-0.3,0.1h0c0,0-0.1,0-0.2-0.1
		c-0.1,0-0.1-0.1-0.2-0.2c-0.1-0.1-0.3-0.3-0.5-0.5c-0.1-0.1-0.3-0.1-0.4-0.1c-0.7,0.1-1.4,0.1-2,0.1l-1.6,0.1
		c-0.2,0-0.3,0.1-0.3,0.3V40l0,0.8c0,0.2,0,0.5,0,0.9v0.1c0,0.1-0.1,0.2-0.2,0.3c-0.2,0.1-0.4,0.2-0.7,0.2c-0.1,0-0.1,0-0.2-0.1
		c0-0.1-0.1-0.1-0.1-0.2c0-0.5,0.1-1.1,0.1-1.8v-0.7c0-0.1,0-0.2-0.1-0.2c-0.1-0.1-0.1-0.1-0.2-0.1l-4.2,0.2c-0.2,0-0.3,0-0.3,0.1
		c0,0,0,0-0.1,0.1c0,0.1-0.1,0.1-0.1,0.1c-0.1,0-0.2-0.1-0.3-0.2l-0.3-0.5c0-0.1-0.1-0.1-0.1-0.2c0-0.1,0.1-0.2,0.3-0.2l1.5,0l2.4,0
		c0.1,0,0.3,0,0.4-0.1l0.9-0.6c0.4-0.3,0.7-0.6,1.1-0.9s0.7-0.6,0.9-0.9c0.1-0.1,0.2-0.1,0.2-0.1c0.1,0,0.1,0,0.2,0.1
		c0.5,0.4,0.8,0.6,0.8,0.7c0,0-0.1,0.1-0.2,0.1h0h-0.1c-0.1,0-0.2,0-0.3,0.1c-0.5,0.4-1.3,0.8-2.2,1.3c-0.1,0.1-0.2,0.1-0.2,0.2
		c0,0.1,0.1,0.1,0.3,0.1l3.6,0c0.1,0,0.1,0,0.2-0.1s0.1-0.1,0.1-0.1c0-0.1-0.1-0.2-0.2-0.2c-0.4-0.2-0.6-0.3-0.7-0.4
		C514.2,37.5,514.1,37.4,514.1,37.4z M508.2,33.1c0-0.2-0.1-0.3-0.3-0.3h-0.6c-0.2,0-0.3,0.1-0.3,0.3l-0.1,0.5l0,0.1
		c0,0.1,0,0.1,0.1,0.2s0.1,0.1,0.2,0.1h0.7c0.1,0,0.2,0,0.2-0.1c0.1,0,0.1-0.1,0.1-0.2L508.2,33.1L508.2,33.1z M508.4,31.6
		c0-0.2-0.1-0.3-0.3-0.3h-0.6c-0.2,0-0.3,0.1-0.3,0.3c0,0.2-0.1,0.3-0.1,0.5l0,0.1c0,0.1,0,0.1,0.1,0.2s0.1,0.1,0.2,0.1h0.6
		c0.2,0,0.3-0.1,0.3-0.3C508.4,32,508.4,31.9,508.4,31.6L508.4,31.6z M510.3,33.1c0-0.2-0.1-0.3-0.3-0.3h-0.8
		c-0.2,0-0.3,0.1-0.3,0.3c0,0.1,0,0.3-0.1,0.5v0.1c0,0.2,0.1,0.3,0.3,0.3h0.8c0.2,0,0.3-0.1,0.3-0.2
		C510.2,33.5,510.3,33.4,510.3,33.1L510.3,33.1z M510.4,31.6c0-0.2-0.1-0.3-0.3-0.3h-0.6c-0.2,0-0.3,0.1-0.3,0.3
		c0,0.2,0,0.4-0.1,0.5v0.1c0,0.2,0.1,0.3,0.3,0.3h0.7c0.2,0,0.3-0.1,0.3-0.3L510.4,31.6L510.4,31.6z M515.4,33.7
		c0,0.1,0,0.1,0.1,0.2c0.7,0.6,1.5,1,2.4,1.2c0.2,0.1,0.3,0.1,0.3,0.2c0,0,0,0.1-0.1,0.1c-0.1,0-0.1,0.1-0.2,0.1
		c-0.1,0.1-0.2,0.2-0.3,0.3c-0.1,0.2-0.2,0.2-0.3,0.2c0,0-0.1,0-0.2,0c-0.9-0.4-1.7-0.9-2.3-1.6c-0.1-0.1-0.1-0.1-0.2-0.1
		s-0.1,0-0.2,0.1c-0.8,0.6-1.6,1-2.5,1.4c-0.1,0-0.2,0-0.2,0c-0.1,0-0.1,0-0.1-0.1v0c0-0.1,0.1-0.1,0.2-0.2c0.9-0.5,1.7-1,2.3-1.6
		c0.1-0.1,0.1-0.1,0.1-0.2c0-0.1,0-0.1-0.1-0.2c-0.3-0.5-0.6-1.2-0.9-2c0-0.1-0.1-0.2-0.2-0.2c-0.1,0-0.1,0-0.2,0.1
		c-0.1,0.2-0.3,0.3-0.4,0.4c-0.1,0.1-0.2,0.1-0.3,0.1c0,0,0,0,0-0.1c0-0.1,0-0.2,0.1-0.2c0,0,0.1-0.1,0.1-0.2
		c0.2-0.4,0.4-0.8,0.6-1.3c0.2-0.5,0.3-1,0.4-1.4c0-0.2,0.1-0.3,0.2-0.3c0,0,0.1,0,0.1,0c0.6,0.2,1,0.4,1,0.5c0,0,0,0.1-0.1,0.1l0,0
		c-0.1,0.1-0.2,0.2-0.3,0.3l-0.3,0.5c0,0.1-0.1,0.1-0.1,0.2c0,0.1,0,0.1,0.1,0.1c0,0,0.1,0.1,0.2,0.1h2.1c0.2,0,0.3-0.1,0.4-0.2
		l0.1-0.2c0,0,0.1-0.1,0.1-0.2c0.1-0.1,0.1-0.1,0.1-0.2c0,0,0.1-0.1,0.1-0.1c0.1,0,0.2,0.1,0.5,0.3c0.2,0.2,0.4,0.4,0.5,0.5
		c0.1,0.1,0.1,0.1,0.1,0.2c0,0.1,0,0.1-0.1,0.2c-0.1,0-0.2,0.1-0.3,0.1h-0.6c-0.2,0-0.3,0.1-0.4,0.3c-0.3,0.9-0.8,1.8-1.4,2.4
		C515.4,33.5,515.4,33.6,515.4,33.7z M513.2,39.9c0-0.1,0.1-0.1,0.3-0.1c0.9,0.1,1.6,0.3,2.2,0.5c0.6,0.2,1,0.5,1.2,0.7
		c0.2,0.3,0.4,0.5,0.4,0.7c0,0.1,0,0.2-0.1,0.3c-0.1,0.1-0.2,0.1-0.3,0.1h0c0,0-0.1,0-0.1,0c-0.1,0-0.1-0.1-0.1-0.1
		c-0.3-0.3-0.7-0.7-1.3-1s-1.2-0.6-1.9-0.9C513.3,40,513.2,39.9,513.2,39.9z M514.8,33c0.1,0,0.2,0,0.2-0.1c0.4-0.5,0.7-1.1,0.9-1.8
		c0,0,0-0.1,0-0.1c0-0.2-0.1-0.2-0.3-0.2h-1.8c-0.1,0-0.1,0-0.2,0.1c-0.1,0-0.1,0.1-0.1,0.2c0,0,0,0.1,0,0.2c0.3,0.7,0.6,1.3,1,1.8
		C514.6,33,514.7,33,514.8,33z"/>
	<path class="st1" d="M521.1,31.6C521.1,31.6,521.1,31.5,521.1,31.6c0.2-0.1,0.2,0,0.3,0.2c0.1,0.4,0.1,0.8,0.1,1.3
		c0,0.4,0,0.7-0.1,1.1c-0.1,0.3-0.2,0.6-0.3,0.8c-0.1,0.1-0.2,0.2-0.3,0.3s-0.2,0.1-0.4,0.1c0,0-0.1,0-0.2,0c-0.1,0-0.2-0.1-0.2-0.3
		l0-0.1c0-0.2,0.1-0.4,0.3-0.6c0.2-0.2,0.3-0.6,0.5-1c0.2-0.5,0.2-0.9,0.3-1.4C521.1,31.8,521.1,31.7,521.1,31.6z M522.2,31.4
		c0-1,0-1.9-0.1-2.7v-0.1c0-0.2,0.1-0.3,0.2-0.3c0,0,0.1,0,0.1,0c0.7,0.2,1.1,0.4,1.1,0.5c0,0,0,0.1-0.1,0.2l0,0
		c-0.1,0.1-0.2,0.2-0.2,0.4v8.6c0,1.1,0.1,2.2,0.1,3.3v0.1c0,0.1,0,0.2-0.1,0.3c-0.1,0.1-0.2,0.1-0.3,0.2c-0.1,0.1-0.3,0.1-0.4,0.1
		c-0.1,0-0.2,0-0.3-0.1C522,42,522,42,522,41.9c0-0.6,0.1-1.2,0.1-1.7c0-0.6,0-1.3,0.1-2.2V31.4z M523.4,31.4L523.4,31.4
		c0.1,0,0.2,0,0.3,0.1c0.4,0.3,0.7,0.6,0.9,0.9s0.3,0.6,0.3,0.9c0,0.2,0,0.4-0.1,0.5c-0.1,0.1-0.2,0.2-0.3,0.2c-0.1,0-0.1,0-0.2,0
		c-0.1-0.1-0.2-0.2-0.2-0.4c0-0.6-0.2-1.2-0.6-1.9C523.4,31.6,523.4,31.5,523.4,31.4z M531.5,31.4l0.2-0.2c0,0,0.1-0.1,0.1-0.2
		s0.1-0.2,0.2-0.2c0,0,0.1-0.1,0.1-0.1c0.1,0,0.3,0.1,0.5,0.3c0.3,0.2,0.5,0.4,0.6,0.6c0.1,0.1,0.1,0.1,0.1,0.2c0,0,0,0.1-0.1,0.1
		c-0.1,0.1-0.2,0.1-0.3,0.1h-5.8c-0.1,0-0.2,0-0.2,0.1c-0.1,0.1-0.1,0.1-0.1,0.2V40c0,0.2,0.1,0.3,0.2,0.4c0.1,0.1,0.4,0.1,0.7,0.1
		h2c1,0,1.6,0,1.9,0c0.1,0,0.2,0,0.4,0l0.2,0c0.2,0,0.3-0.1,0.3-0.1c0.1,0,0.2,0,0.3,0.1c0.1,0,0.2,0.1,0.2,0.2
		c0,0.1,0.1,0.1,0.1,0.2c0,0.2-0.1,0.3-0.3,0.4s-0.5,0.2-1,0.2c-0.5,0-1.2,0.1-2.2,0.1l-2,0c-0.5,0-0.8,0-1.1-0.1
		c-0.2-0.1-0.4-0.2-0.5-0.4c-0.1-0.2-0.1-0.4-0.1-0.7v-7.9c0-0.1,0-0.2-0.1-0.2c-0.1-0.1-0.1-0.1-0.2-0.1h-0.1c-0.2,0-0.3,0-0.5,0.1
		c-0.1,0-0.1,0-0.1,0c-0.1,0-0.2-0.1-0.3-0.2l0-0.1c0-0.1,0-0.1,0-0.2c0-0.1,0-0.1,0.1-0.1s0.1,0,0.2,0c0.3,0,0.9,0.1,1.5,0.1h1.7
		c0.2,0,0.3,0,0.3,0v0c0-1,0-1.9-0.1-2.7v-0.1c0-0.1,0-0.1,0.1-0.2s0.1-0.1,0.2-0.1c0,0,0.1,0,0.1,0c0.4,0.1,0.7,0.2,0.8,0.3
		s0.2,0.1,0.2,0.2c0,0,0,0.1-0.1,0.1l0,0c-0.1,0.1-0.2,0.2-0.2,0.4v1.7c0,0.1,0,0.2,0.1,0.2s0.1,0.1,0.2,0.1h1.6
		C531.3,31.6,531.4,31.5,531.5,31.4z"/>
</g>
<g class="st0">
	<path class="st1" d="M684.1,33.1c0-0.2-0.1-0.3-0.3-0.3h0c-0.1,0-0.2,0-0.3,0.1c-0.1,0-0.1,0-0.2,0c-0.1,0-0.2-0.1-0.2-0.2l0-0.1
		c0-0.1,0-0.1,0-0.2c0-0.1,0.1-0.2,0.2-0.2c0.1,0,0.2,0,0.3,0c0.1,0,0.2,0,0.3,0h0.2c0.2,0,0.3-0.1,0.3-0.3c0.1-0.3,0.1-0.7,0.1-1
		V31c0-0.2-0.1-0.2-0.2-0.2c-0.1,0-0.1,0-0.2,0.1c-0.1,0.1-0.2,0.2-0.5,0.3c-0.1,0.1-0.3,0.1-0.3,0c0,0,0,0,0-0.1
		c0-0.1,0-0.1,0.1-0.2c0.3-0.3,0.5-0.7,0.8-1.1s0.4-0.9,0.5-1.3c0.1-0.1,0.1-0.2,0.2-0.2c0.1,0,0.1,0,0.2,0c0.6,0.2,0.9,0.4,0.9,0.5
		c0,0,0,0.1-0.1,0.1l-0.1,0c-0.1,0-0.2,0.1-0.3,0.3c0,0.1,0,0.2,0.1,0.2c0,0.1,0.1,0.1,0.2,0.1h2.6c0.2,0,0.3-0.1,0.4-0.2l0.1-0.2
		c0,0,0.1-0.1,0.1-0.2c0.1-0.1,0.1-0.1,0.1-0.2s0.1-0.1,0.1-0.1c0.1,0,0.2,0.1,0.4,0.3c0.2,0.2,0.4,0.4,0.5,0.5c0,0,0.1,0.1,0.1,0.2
		c0,0.1,0,0.1-0.1,0.2c-0.1,0-0.2,0.1-0.3,0.1h-4.6c-0.2,0-0.3,0.1-0.4,0.2v0.1c0,0.1,0,0.2,0.1,0.3l0.4,0.2
		c0.1,0.1,0.2,0.1,0.4,0.1h2.4c0.2,0,0.3-0.1,0.4-0.2l0.1-0.1c0,0,0-0.1,0.1-0.1c0-0.1,0.1-0.1,0.1-0.1c0,0,0.1,0,0.1,0
		c0.1,0,0.2,0.1,0.4,0.2c0.2,0.2,0.3,0.3,0.4,0.5c0,0,0.1,0.1,0.1,0.2c0,0.1-0.1,0.1-0.2,0.2l-0.1,0c-0.1,0-0.2,0.1-0.2,0.1
		s-0.1,0.1-0.1,0.2l0,0.4c0,0.2,0.1,0.3,0.2,0.3s0.2-0.1,0.3-0.2l0.1-0.2c0.1-0.1,0.1-0.1,0.2-0.1c0.1,0,0.2,0,0.2,0.1
		c0,0,0.1,0.1,0.4,0.4c0.1,0.1,0.1,0.2,0.1,0.3c0,0.1,0,0.1-0.1,0.1c0,0-0.1,0.1-0.2,0.1h-1.1c-0.2,0-0.3,0.1-0.3,0.3
		c0,0.2,0,0.4-0.1,0.5v0.1c0,0.1,0,0.2,0.1,0.2c0.1,0,0.2-0.1,0.3-0.2l0.1-0.2c0.1-0.1,0.1-0.1,0.2-0.1c0.1,0,0.1,0,0.2,0.1l0.4,0.4
		c0.1,0.1,0.2,0.2,0.2,0.3c0,0,0,0.1-0.1,0.1c-0.1,0-0.1,0-0.2,0h-1c-0.2,0-0.3,0.1-0.3,0.3c-0.1,0.2-0.1,0.3-0.1,0.4
		c0,0.1,0,0.1,0,0.2c0,0.1,0.1,0.2,0.2,0.3c0.4,0.3,0.7,0.5,0.7,0.6c0,0,0,0.1-0.1,0.1h0c-0.1,0-0.3,0-0.4,0.1l-1,0.6
		c-0.1,0.1-0.2,0.1-0.2,0.2s0,0.1,0.1,0.2c0.1,0.2,0.2,0.3,0.2,0.5c0,0.1,0,0.2-0.1,0.3c-0.1,0.1-0.2,0.1-0.3,0.1
		c-0.1,0-0.2-0.1-0.3-0.2c-0.2-0.2-0.5-0.5-0.9-0.7c-0.4-0.2-0.7-0.4-1.1-0.6c-0.1,0-0.2-0.1-0.2-0.1c-0.1,0-0.1-0.1,0-0.1
		c0,0,0.1-0.1,0.2-0.1c0.7,0,1.3,0.1,1.8,0.3c0.1,0,0.1,0,0.2,0c0.1,0,0.2,0,0.3-0.1c0.2-0.2,0.4-0.4,0.5-0.5
		c0.1-0.1,0.2-0.2,0.2-0.3c0,0,0-0.1-0.1-0.1c-0.1,0.1-0.3,0.1-0.4,0.1h0c-0.1,0-0.2-0.1-0.3-0.2c0-0.1-0.1-0.1-0.1-0.2
		c-0.1-0.1-0.2-0.1-0.4-0.2c-0.2,0-0.3-0.1-0.3-0.2c0-0.1,0.1-0.1,0.3-0.1l0.5,0c0.1,0,0.2,0,0.3,0c0.2,0,0.3,0,0.4-0.1l0,0
		c0,0,0-0.1,0-0.1c0-0.1,0-0.1-0.1-0.2s-0.1-0.1-0.2-0.1h-2.6c-0.2,0-0.3,0.1-0.3,0.3c0,0.2-0.1,0.3-0.2,0.3c-0.1,0-0.1,0-0.2,0
		c-0.1,0-0.1,0-0.2,0c-0.2,0-0.3-0.1-0.3-0.3L684.1,33.1L684.1,33.1z M687,39.6c0.1,0,0.1,0,0.2,0.1l0.3,0.2
		c0.3,0.2,0.4,0.3,0.4,0.4c0,0-0.1,0.1-0.2,0.1h0h-0.1c-0.1,0-0.2,0-0.3,0.1c-0.4,0.3-1,0.5-1.6,0.8c-0.6,0.3-1.3,0.5-1.9,0.6
		c-0.1,0-0.1,0-0.2,0c-0.1,0-0.1,0-0.2-0.1l0,0c0-0.1,0.1-0.1,0.3-0.2c0.5-0.2,1.1-0.5,1.6-0.9s1-0.7,1.4-1
		C686.8,39.7,686.9,39.6,687,39.6z M692.1,37.4c0,0,0.1-0.1,0.2-0.1c0.1,0,0.1,0,0.2,0c0.7,0.1,1.3,0.3,1.8,0.5
		c0.5,0.2,0.8,0.5,1,0.7c0.2,0.2,0.3,0.5,0.3,0.7c0,0.1,0,0.2-0.1,0.3c-0.1,0.1-0.2,0.1-0.3,0.1h0c0,0-0.1,0-0.2-0.1
		c-0.1,0-0.1-0.1-0.2-0.2c-0.1-0.1-0.3-0.3-0.5-0.5c-0.1-0.1-0.3-0.1-0.4-0.1c-0.7,0.1-1.4,0.1-2,0.1l-1.6,0.1
		c-0.2,0-0.3,0.1-0.3,0.3V40l0,0.8c0,0.2,0,0.5,0,0.9v0.1c0,0.1-0.1,0.2-0.2,0.3c-0.2,0.1-0.4,0.2-0.7,0.2c-0.1,0-0.1,0-0.2-0.1
		c0-0.1-0.1-0.1-0.1-0.2c0-0.5,0.1-1.1,0.1-1.8v-0.7c0-0.1,0-0.2-0.1-0.2c-0.1-0.1-0.1-0.1-0.2-0.1l-4.2,0.2c-0.2,0-0.3,0-0.3,0.1
		c0,0,0,0-0.1,0.1c0,0.1-0.1,0.1-0.1,0.1c-0.1,0-0.2-0.1-0.3-0.2l-0.3-0.5c0-0.1-0.1-0.1-0.1-0.2c0-0.1,0.1-0.2,0.3-0.2l1.5,0l2.4,0
		c0.1,0,0.3,0,0.4-0.1l0.9-0.6c0.4-0.3,0.7-0.6,1.1-0.9s0.7-0.6,0.9-0.9c0.1-0.1,0.2-0.1,0.2-0.1c0.1,0,0.1,0,0.2,0.1
		c0.5,0.4,0.8,0.6,0.8,0.7c0,0-0.1,0.1-0.2,0.1h0h-0.1c-0.1,0-0.2,0-0.3,0.1c-0.5,0.4-1.3,0.8-2.2,1.3c-0.1,0.1-0.2,0.1-0.2,0.2
		c0,0.1,0.1,0.1,0.3,0.1l3.6,0c0.1,0,0.1,0,0.2-0.1s0.1-0.1,0.1-0.1c0-0.1-0.1-0.2-0.2-0.2c-0.4-0.2-0.6-0.3-0.7-0.4
		C692.1,37.5,692.1,37.4,692.1,37.4z M686.2,33.1c0-0.2-0.1-0.3-0.3-0.3h-0.6c-0.2,0-0.3,0.1-0.3,0.3l-0.1,0.5l0,0.1
		c0,0.1,0,0.1,0.1,0.2s0.1,0.1,0.2,0.1h0.7c0.1,0,0.2,0,0.2-0.1c0.1,0,0.1-0.1,0.1-0.2L686.2,33.1L686.2,33.1z M686.4,31.6
		c0-0.2-0.1-0.3-0.3-0.3h-0.6c-0.2,0-0.3,0.1-0.3,0.3c0,0.2-0.1,0.3-0.1,0.5l0,0.1c0,0.1,0,0.1,0.1,0.2s0.1,0.1,0.2,0.1h0.6
		c0.2,0,0.3-0.1,0.3-0.3C686.3,32,686.4,31.8,686.4,31.6L686.4,31.6z M688.2,33.1c0-0.2-0.1-0.3-0.3-0.3h-0.8
		c-0.2,0-0.3,0.1-0.3,0.3c0,0.1,0,0.3-0.1,0.5v0.1c0,0.2,0.1,0.3,0.3,0.3h0.8c0.2,0,0.3-0.1,0.3-0.2
		C688.2,33.5,688.2,33.3,688.2,33.1L688.2,33.1z M688.4,31.6c0-0.2-0.1-0.3-0.3-0.3h-0.6c-0.2,0-0.3,0.1-0.3,0.3
		c0,0.2,0,0.4-0.1,0.5v0.1c0,0.2,0.1,0.3,0.3,0.3h0.7c0.2,0,0.3-0.1,0.3-0.3L688.4,31.6L688.4,31.6z M693.4,33.7
		c0,0.1,0,0.1,0.1,0.2c0.7,0.6,1.5,1,2.4,1.2c0.2,0.1,0.3,0.1,0.3,0.2c0,0,0,0.1-0.1,0.1c-0.1,0-0.1,0.1-0.2,0.1
		c-0.1,0.1-0.2,0.2-0.3,0.3c-0.1,0.2-0.2,0.2-0.3,0.2c0,0-0.1,0-0.2,0c-0.9-0.4-1.7-0.9-2.3-1.6c-0.1-0.1-0.1-0.1-0.2-0.1
		s-0.1,0-0.2,0.1c-0.8,0.6-1.6,1-2.5,1.4c-0.1,0-0.2,0-0.2,0c-0.1,0-0.1,0-0.1-0.1v0c0-0.1,0.1-0.1,0.2-0.2c0.9-0.5,1.7-1,2.3-1.6
		c0.1-0.1,0.1-0.1,0.1-0.2c0-0.1,0-0.1-0.1-0.2c-0.3-0.5-0.6-1.2-0.9-2c0-0.1-0.1-0.2-0.2-0.2c-0.1,0-0.1,0-0.2,0.1
		c-0.1,0.2-0.3,0.3-0.4,0.4c-0.1,0.1-0.2,0.1-0.3,0.1c0,0,0,0,0-0.1c0-0.1,0-0.2,0.1-0.2c0,0,0.1-0.1,0.1-0.2
		c0.2-0.4,0.4-0.8,0.6-1.3c0.2-0.5,0.3-1,0.4-1.4c0-0.2,0.1-0.3,0.2-0.3c0,0,0.1,0,0.1,0c0.6,0.2,1,0.4,1,0.5c0,0,0,0.1-0.1,0.1l0,0
		c-0.1,0.1-0.2,0.2-0.3,0.3l-0.3,0.5c0,0.1-0.1,0.1-0.1,0.2c0,0.1,0,0.1,0.1,0.1c0,0,0.1,0.1,0.2,0.1h2.1c0.2,0,0.3-0.1,0.4-0.2
		l0.1-0.2c0,0,0.1-0.1,0.1-0.2c0.1-0.1,0.1-0.1,0.1-0.2c0,0,0.1-0.1,0.1-0.1c0.1,0,0.2,0.1,0.5,0.3c0.2,0.2,0.4,0.4,0.5,0.5
		c0.1,0.1,0.1,0.1,0.1,0.2c0,0.1,0,0.1-0.1,0.2c-0.1,0-0.2,0.1-0.3,0.1h-0.6c-0.2,0-0.3,0.1-0.4,0.3c-0.3,0.9-0.8,1.8-1.4,2.4
		C693.4,33.5,693.4,33.6,693.4,33.7z M691.1,39.8c0-0.1,0.1-0.1,0.3-0.1c0.9,0.1,1.6,0.3,2.2,0.5c0.6,0.2,1,0.5,1.2,0.7
		c0.2,0.3,0.4,0.5,0.4,0.7c0,0.1,0,0.2-0.1,0.3c-0.1,0.1-0.2,0.1-0.3,0.1h0c0,0-0.1,0-0.1,0c-0.1,0-0.1-0.1-0.1-0.1
		c-0.3-0.3-0.7-0.7-1.3-1s-1.2-0.6-1.9-0.9C691.2,40,691.1,39.9,691.1,39.8z M692.7,33c0.1,0,0.2,0,0.2-0.1c0.4-0.5,0.7-1.1,0.9-1.8
		c0,0,0-0.1,0-0.1c0-0.2-0.1-0.2-0.3-0.2h-1.8c-0.1,0-0.1,0-0.2,0.1c-0.1,0-0.1,0.1-0.1,0.2c0,0,0,0.1,0,0.2c0.3,0.7,0.6,1.3,1,1.8
		C692.6,33,692.7,33,692.7,33z"/>
	<path class="st1" d="M699.1,31.6C699.1,31.6,699.1,31.5,699.1,31.6c0.2-0.1,0.2,0,0.3,0.2c0.1,0.4,0.1,0.8,0.1,1.3
		c0,0.4,0,0.7-0.1,1.1c-0.1,0.3-0.2,0.6-0.3,0.8c-0.1,0.1-0.2,0.2-0.3,0.3s-0.2,0.1-0.4,0.1c0,0-0.1,0-0.2,0c-0.1,0-0.2-0.1-0.2-0.3
		l0-0.1c0-0.2,0.1-0.4,0.3-0.6c0.2-0.2,0.3-0.6,0.5-1c0.2-0.5,0.2-0.9,0.3-1.4C699,31.8,699,31.7,699.1,31.6z M700.1,31.4
		c0-1,0-1.9-0.1-2.7v-0.1c0-0.2,0.1-0.3,0.2-0.3c0,0,0.1,0,0.1,0c0.7,0.2,1.1,0.4,1.1,0.5c0,0,0,0.1-0.1,0.2l0,0
		c-0.1,0.1-0.2,0.2-0.2,0.4v8.6c0,1.1,0.1,2.2,0.1,3.3v0.1c0,0.1,0,0.2-0.1,0.3c-0.1,0.1-0.2,0.1-0.3,0.2c-0.1,0.1-0.3,0.1-0.4,0.1
		c-0.1,0-0.2,0-0.3-0.1C700,42,700,42,700,41.9c0-0.6,0.1-1.2,0.1-1.7c0-0.6,0-1.3,0.1-2.2V31.4z M701.4,31.4L701.4,31.4
		c0.1,0,0.2,0,0.3,0.1c0.4,0.3,0.7,0.6,0.9,0.9s0.3,0.6,0.3,0.9c0,0.2,0,0.4-0.1,0.5c-0.1,0.1-0.2,0.2-0.3,0.2c-0.1,0-0.1,0-0.2,0
		c-0.1-0.1-0.2-0.2-0.2-0.4c0-0.6-0.2-1.2-0.6-1.9C701.4,31.6,701.4,31.5,701.4,31.4z M709.5,31.4l0.2-0.2c0,0,0.1-0.1,0.1-0.2
		s0.1-0.2,0.2-0.2c0,0,0.1-0.1,0.1-0.1c0.1,0,0.3,0.1,0.5,0.3c0.3,0.2,0.5,0.4,0.6,0.6c0.1,0.1,0.1,0.1,0.1,0.2c0,0,0,0.1-0.1,0.1
		c-0.1,0.1-0.2,0.1-0.3,0.1H705c-0.1,0-0.2,0-0.2,0.1c-0.1,0.1-0.1,0.1-0.1,0.2V40c0,0.2,0.1,0.3,0.2,0.4c0.1,0.1,0.4,0.1,0.7,0.1h2
		c1,0,1.6,0,1.9,0c0.1,0,0.2,0,0.4,0l0.2,0c0.2,0,0.3-0.1,0.3-0.1c0.1,0,0.2,0,0.3,0.1c0.1,0,0.2,0.1,0.2,0.2c0,0.1,0.1,0.1,0.1,0.2
		c0,0.2-0.1,0.3-0.3,0.4s-0.5,0.2-1,0.2c-0.5,0-1.2,0.1-2.2,0.1l-2,0c-0.5,0-0.8,0-1.1-0.1c-0.2-0.1-0.4-0.2-0.5-0.4
		c-0.1-0.2-0.1-0.4-0.1-0.7v-7.9c0-0.1,0-0.2-0.1-0.2c-0.1-0.1-0.1-0.1-0.2-0.1h-0.1c-0.2,0-0.3,0-0.5,0.1c-0.1,0-0.1,0-0.1,0
		c-0.1,0-0.2-0.1-0.3-0.2l0-0.1c0-0.1,0-0.1,0-0.2c0-0.1,0-0.1,0.1-0.1s0.1,0,0.2,0c0.3,0,0.9,0.1,1.5,0.1h1.7c0.2,0,0.3,0,0.3,0v0
		c0-1,0-1.9-0.1-2.7v-0.1c0-0.1,0-0.1,0.1-0.2s0.1-0.1,0.2-0.1c0,0,0.1,0,0.1,0c0.4,0.1,0.7,0.2,0.8,0.3s0.2,0.1,0.2,0.2
		c0,0,0,0.1-0.1,0.1l0,0c-0.1,0.1-0.2,0.2-0.2,0.4v1.7c0,0.1,0,0.2,0.1,0.2s0.1,0.1,0.2,0.1h1.6C709.2,31.6,709.4,31.5,709.5,31.4z"
		/>
	<path class="st1" d="M716.3,40.8c-0.1,0.1-0.1,0.1-0.1,0.2c0,0.1,0,0.2,0,0.3l0,0.2c0,0.1,0,0.2-0.1,0.2c-0.1,0.1-0.2,0.2-0.3,0.2
		c-0.1,0.1-0.3,0.1-0.4,0.1c-0.1,0-0.2,0-0.2-0.1c-0.1-0.1-0.1-0.1-0.1-0.2c0-0.6,0.1-1.2,0.1-1.7c0-0.6,0-1.3,0.1-2.2v-5.5
		c0-1,0-1.8-0.1-2.6v-0.1c0-0.1,0-0.1,0.1-0.2s0.1-0.1,0.1-0.1c0.1,0,0.1,0,0.2,0l0.6,0.3c0.1,0.1,0.2,0.1,0.4,0.1h6
		c0.2,0,0.3-0.1,0.4-0.2l0.1-0.1c0,0,0.1-0.1,0.1-0.1c0-0.1,0.1-0.1,0.1-0.1c0,0,0.1,0,0.1,0c0.1,0,0.2,0.1,0.5,0.3
		c0.2,0.2,0.4,0.3,0.6,0.5c0,0,0.1,0.1,0.1,0.2c0,0.1,0,0.1-0.1,0.2c0,0-0.1,0-0.2,0.1c-0.2,0.1-0.3,0.2-0.3,0.4V38
		c0,1.1,0.1,2.2,0.1,3.3v0.1c0,0.1-0.1,0.2-0.2,0.3c-0.1,0.1-0.2,0.2-0.4,0.2c-0.1,0.1-0.3,0.1-0.4,0.1c-0.1,0-0.1,0-0.2-0.1
		c0,0,0-0.1,0-0.1c0,0,0-0.1,0-0.2c0,0,0-0.1,0-0.4V41c0-0.1,0-0.2-0.1-0.2c-0.1-0.1-0.1-0.1-0.2-0.1h-6.1
		C716.4,40.7,716.4,40.7,716.3,40.8z M722.9,34.9c0.1-0.1,0.1-0.1,0.1-0.2v-4c0-0.1,0-0.2-0.1-0.2c-0.1-0.1-0.1-0.1-0.2-0.1h-6.1
		c-0.1,0-0.2,0-0.2,0.1s-0.1,0.1-0.1,0.2v4c0,0.1,0,0.2,0.1,0.2c0.1,0.1,0.1,0.1,0.2,0.1h6.1C722.7,35,722.8,35,722.9,34.9z
		 M716.3,35.5c-0.1,0.1-0.1,0.1-0.1,0.2V40c0,0.1,0,0.2,0.1,0.2c0.1,0.1,0.1,0.1,0.2,0.1h6.1c0.1,0,0.2,0,0.2-0.1
		c0.1-0.1,0.1-0.1,0.1-0.2v-4.2c0-0.1,0-0.2-0.1-0.2c-0.1-0.1-0.1-0.1-0.2-0.1h-6.1C716.4,35.4,716.4,35.5,716.3,35.5z"/>
</g>
<g class="st0">
	<path class="st1" d="M98.9,171.9l0.2-0.2c0,0,0.1-0.1,0.1-0.2c0.1-0.1,0.1-0.1,0.1-0.2c0,0,0.1-0.1,0.1-0.1c0.1,0,0.2,0.1,0.5,0.3
		s0.4,0.4,0.5,0.5c0,0.1,0.1,0.1,0.1,0.2c0,0.1,0,0.1-0.1,0.2c-0.1,0.1-0.2,0.1-0.3,0.1h-4.1c-0.1,0-0.2,0-0.2,0.1
		c-0.1,0.1-0.1,0.1-0.1,0.2v0.7c0,0.1,0,0.2,0.1,0.2c0.1,0.1,0.1,0.1,0.2,0.1h3.5c0.2,0,0.3-0.1,0.4-0.2l0.2-0.2
		c0,0,0.1-0.1,0.1-0.2c0.1-0.1,0.1-0.1,0.2-0.2c0,0,0.1-0.1,0.1-0.1c0.1,0,0.2,0.1,0.5,0.3c0.3,0.2,0.5,0.4,0.6,0.6
		c0,0.1,0.1,0.1,0.1,0.2c0,0.1,0,0.1-0.1,0.2c-0.1,0-0.2,0.1-0.3,0.1h-5.9c-0.1,0-0.3,0.1-0.4,0.2c-0.6,0.5-1.1,1-1.7,1.3
		c-0.1,0.1-0.1,0.1-0.1,0.2c0,0.1,0,0.1,0.1,0.2c0.2,0.2,0.3,0.5,0.3,0.7c0,0.1,0,0.2-0.1,0.3c-0.1,0.1-0.2,0.1-0.3,0.1h0
		c-0.1,0-0.1,0-0.2-0.1c-0.1,0-0.1-0.1-0.2-0.2c-0.2-0.3-0.5-0.5-0.9-0.8c-0.4-0.3-0.7-0.5-1.1-0.7c-0.2-0.1-0.3-0.2-0.2-0.2
		c0-0.1,0.2-0.1,0.3-0.1c0.6,0.1,1.1,0.2,1.6,0.4c0.1,0,0.1,0,0.2,0c0.1,0,0.2-0.1,0.3-0.2c0.2-0.3,0.5-0.7,0.6-0.9
		c0,0,0.1-0.1,0.1-0.2c0-0.1-0.1-0.2-0.3-0.2h-2c-0.6,0-1.3,0.1-2,0.2h-0.1c-0.1,0-0.2-0.1-0.3-0.2l-0.1-0.1c0-0.1,0-0.1,0-0.2
		c0-0.1,0.1-0.2,0.3-0.2c0.3,0,0.9,0.1,1.5,0.1h3.7c0.1,0,0.2,0,0.2-0.1c0.1-0.1,0.1-0.1,0.1-0.2v-0.7c0-0.1,0-0.2-0.1-0.2
		c-0.1-0.1-0.1-0.1-0.2-0.1h-1.7c-0.6,0-1.3,0.1-2,0.2h-0.1c-0.1,0-0.2-0.1-0.3-0.2l-0.1-0.1c0-0.1,0-0.1,0-0.2c0-0.1,0-0.1,0.1-0.1
		c0.1,0,0.1,0,0.2,0c0.3,0,0.9,0.1,1.5,0.1h2.3c0.1,0,0.2,0,0.2-0.1c0.1-0.1,0.1-0.1,0.1-0.2v-0.7c0-0.1,0-0.2-0.1-0.2
		c-0.1-0.1-0.1-0.1-0.2-0.1h-2.2c-0.6,0-1.3,0.1-2,0.2h-0.1c-0.1,0-0.2-0.1-0.3-0.2l-0.1-0.1c0-0.1,0-0.1,0-0.2c0-0.1,0-0.1,0.1-0.1
		c0,0,0.1,0,0.2,0c0.3,0,0.9,0.1,1.5,0.1h2.9c0.2,0,0.3-0.1,0.3-0.3l0-0.8v0c0-0.2,0.1-0.3,0.2-0.3l0.1,0c0.4,0.1,0.6,0.2,0.8,0.3
		s0.2,0.1,0.2,0.2c0,0,0,0.1-0.1,0.2l0,0c-0.1,0.1-0.2,0.2-0.2,0.4v0c0,0.1,0,0.2,0.1,0.2c0.1,0.1,0.1,0.1,0.2,0.1h2.9
		c0.2,0,0.3-0.1,0.4-0.2l0.2-0.2c0,0,0.1-0.1,0.1-0.2c0.1-0.1,0.1-0.1,0.1-0.2s0.1-0.1,0.1-0.1c0.1,0,0.3,0.1,0.5,0.3
		c0.3,0.2,0.5,0.4,0.6,0.5c0.1,0.1,0.1,0.1,0.1,0.2c0,0.1,0,0.1-0.1,0.2c-0.1,0-0.2,0.1-0.3,0.1h-4.7c-0.1,0-0.2,0-0.2,0.1
		c-0.1,0.1-0.1,0.1-0.1,0.2v0.7c0,0.1,0,0.2,0.1,0.2c0.1,0.1,0.1,0.1,0.2,0.1h2.4C98.7,172.1,98.8,172.1,98.9,171.9z M92.7,179.3
		c0.1,0,0.1,0,0.2,0.1l0.3,0.2c0,0,0.1,0.1,0.3,0.2c0.2,0.1,0.3,0.2,0.3,0.3c0,0.1-0.1,0.1-0.2,0.1h0c-0.2,0-0.3,0-0.4,0.1
		c-0.5,0.4-1.1,0.7-1.7,1s-1.4,0.6-2.1,0.8l-0.2,0c-0.1,0-0.1,0-0.1-0.1c0,0,0,0,0,0c0-0.1,0.1-0.1,0.2-0.2c0.4-0.2,0.8-0.5,1.2-0.7
		c0.4-0.2,0.7-0.5,1.1-0.8c0.4-0.3,0.6-0.6,0.9-0.9C92.5,179.4,92.6,179.3,92.7,179.3z M94.5,177.8
		C94.5,177.9,94.6,177.9,94.5,177.8c0.1,0.1,0.2,0.1,0.3,0.1l4.1-0.1c0.1,0,0.2,0,0.2-0.1c0,0,0.1-0.1,0.1-0.1c0-0.1,0-0.1-0.1-0.2
		c-0.2-0.1-0.5-0.4-0.9-0.6c-0.2-0.1-0.3-0.2-0.2-0.3c0,0,0.1,0,0.1,0c0.1,0,0.1,0,0.2,0c0.8,0.2,1.4,0.4,1.9,0.7s0.8,0.6,1.1,0.9
		c0.2,0.3,0.3,0.6,0.3,0.8c0,0.2,0,0.3-0.1,0.4s-0.2,0.1-0.3,0.1H101c-0.1,0-0.2-0.1-0.3-0.3c-0.2-0.2-0.4-0.5-0.6-0.8
		c-0.1-0.1-0.2-0.2-0.4-0.1c-1,0.1-2.2,0.2-3.6,0.3c-0.2,0-0.3,0.1-0.3,0.3v1c0,1,0.1,1.7,0.1,2.2v0.1c0,0.1,0,0.2-0.1,0.3
		c-0.2,0.1-0.4,0.2-0.7,0.2c-0.1,0-0.1,0-0.2-0.1c-0.1-0.1-0.1-0.1-0.1-0.2c0.1-0.8,0.1-1.6,0.1-2.4v-1c0-0.2-0.1-0.3-0.3-0.3
		l-4.3,0.3c-0.1,0-0.2,0-0.3,0.1l-0.1,0.1c-0.1,0-0.1,0.1-0.1,0.1c-0.1,0-0.1,0-0.1-0.1c-0.1,0-0.1-0.1-0.1-0.1l-0.2-0.5
		c0,0,0-0.1,0-0.2c0-0.1,0-0.1,0.1-0.2s0.1-0.1,0.2-0.1c1,0,2.2,0,3.7,0c0.1,0,0.3,0,0.4-0.1c0.4-0.3,0.9-0.7,1.4-1.1
		c0.8-0.7,1.4-1.3,1.8-2c0.1-0.1,0.1-0.2,0.3-0.2c0.1,0,0.1,0,0.2,0.1c0.6,0.3,0.9,0.6,0.9,0.7c0,0,0,0.1-0.1,0.1h-0.1
		c-0.1,0-0.2,0.1-0.3,0.1c-0.7,0.6-1.6,1.3-2.9,2C94.6,177.7,94.5,177.8,94.5,177.8z M96.9,179.7c0,0,0.1-0.1,0.3-0.1
		c0.9,0.1,1.7,0.3,2.3,0.6c0.6,0.3,1,0.6,1.3,0.9s0.4,0.6,0.4,0.8c0,0.1,0,0.2-0.1,0.3c-0.1,0.1-0.2,0.1-0.3,0.1h0c0,0-0.1,0-0.2,0
		c-0.1,0-0.1-0.1-0.1-0.1c-0.3-0.4-0.8-0.8-1.4-1.2s-1.2-0.8-1.9-1.1C97,179.8,96.9,179.8,96.9,179.7z"/>
	<path class="st1" d="M103.8,172.5c0,0,0.1-0.1,0.2-0.1c0.1,0,0.1,0,0.1,0c0.7,0.1,1.2,0.3,1.6,0.6c0.3,0.3,0.5,0.6,0.5,0.9
		c0,0.2,0,0.3-0.1,0.4c-0.1,0.1-0.2,0.2-0.3,0.2c-0.1,0-0.1,0-0.1,0c-0.1,0-0.2-0.1-0.3-0.3c-0.1-0.2-0.3-0.5-0.5-0.8
		s-0.5-0.5-0.8-0.7C103.8,172.6,103.8,172.5,103.8,172.5z M104.4,178.4h0.3c0.1,0,0.2,0,0.2,0s0.1-0.1,0.2-0.3
		c0.2-0.4,0.8-1.8,1.8-4l1-2.2c0.1-0.2,0.2-0.3,0.2-0.3c0.1,0,0.1,0,0.1,0.1c0,0.1,0,0.1,0,0.2l-0.8,2.1c-0.1,0.2-0.3,0.9-0.7,1.8
		c-0.3,1-0.6,1.6-0.6,1.8c-0.2,0.6-0.2,1-0.2,1.3c0,0.1,0,0.3,0.1,0.4c0,0.2,0.1,0.3,0.1,0.4c0.1,0.3,0.1,0.5,0.2,0.8
		c0,0.2,0.1,0.5,0.1,0.8c0,0.4-0.1,0.7-0.2,0.9c-0.1,0.2-0.3,0.3-0.6,0.3c-0.2,0-0.4-0.2-0.4-0.5c0,0,0-0.1,0-0.2s0-0.1,0-0.2
		c0-0.5,0.1-1,0.1-1.3c0-0.4,0-0.7-0.1-0.9c-0.1-0.2-0.1-0.4-0.2-0.5c-0.1-0.1-0.2-0.2-0.4-0.2c-0.2,0-0.3-0.1-0.3-0.2
		C104.1,178.5,104.2,178.4,104.4,178.4z M105,169.1c0,0,0.1,0,0.1,0c0.1,0,0.1,0,0.2,0c0.7,0.1,1.3,0.4,1.6,0.7
		c0.3,0.3,0.5,0.6,0.5,0.9c0,0.2,0,0.3-0.1,0.4c-0.1,0.1-0.2,0.2-0.4,0.2c-0.1,0-0.1,0-0.1,0c-0.1,0-0.2-0.1-0.3-0.3
		c-0.1-0.3-0.3-0.5-0.5-0.8c-0.2-0.3-0.5-0.5-0.8-0.8C105.1,169.3,105,169.2,105,169.1z M115.3,171.5l0.1-0.1c0,0,0.1-0.1,0.1-0.1
		c0-0.1,0.1-0.1,0.1-0.1c0,0,0.1,0,0.1,0c0.1,0,0.2,0.1,0.4,0.2c0.2,0.2,0.4,0.3,0.5,0.5c0,0,0.1,0.1,0.1,0.2c0,0.1,0,0.1-0.1,0.2
		c0,0,0,0-0.1,0c0,0-0.1,0-0.1,0c-0.2,0.1-0.3,0.2-0.3,0.3v6c0,1.1,0.1,2.2,0.1,3.3v0.1c0,0.1-0.1,0.2-0.1,0.3
		c-0.2,0.2-0.5,0.3-0.8,0.3c-0.1,0-0.1,0-0.2-0.1c0,0,0-0.1,0-0.1c0,0,0-0.1,0-0.2c0,0,0-0.1,0-0.4v-0.1c0-0.1,0-0.2-0.1-0.2
		c-0.1-0.1-0.1-0.1-0.2-0.1h-4.8c-0.1,0-0.2,0-0.2,0.1c-0.1,0.1-0.1,0.1-0.1,0.2v0c0,0.2,0,0.4,0,0.4v0.1c0,0.1,0,0.2-0.1,0.3
		c-0.2,0.2-0.4,0.2-0.7,0.2c-0.1,0-0.2,0-0.2-0.1c-0.1-0.1-0.1-0.1-0.1-0.2c0-0.6,0.1-1.2,0.1-1.7c0-0.6,0.1-1.3,0.1-2.2v-4.2
		c0-1,0-1.9-0.1-2.6v-0.1c0-0.1,0.1-0.2,0.2-0.2c0.1,0,0.1,0,0.1,0l0.7,0.3c0.1,0,0.2,0.1,0.4,0.1h0.9c0.2,0,0.3-0.1,0.3-0.3
		c0.2-0.7,0.3-1.5,0.3-2.3c0-0.1,0-0.2,0.1-0.2s0.1-0.1,0.2,0l1.1,0.3c0.1,0,0.1,0.1,0.2,0.1c0,0,0.1,0.1,0.1,0.1c0,0,0,0.1-0.1,0.1
		l-0.1,0c0,0-0.1,0-0.2,0.1s-0.1,0.1-0.2,0.2c-0.2,0.4-0.5,0.9-0.9,1.5c0,0-0.1,0.1-0.1,0.2c0,0.1,0.1,0.2,0.3,0.2h2.7
		C115.1,171.7,115.2,171.6,115.3,171.5z M115.1,176c0.1-0.1,0.1-0.1,0.1-0.2v-3.3c0-0.1,0-0.2-0.1-0.2c-0.1-0.1-0.1-0.1-0.2-0.1
		h-4.8c-0.1,0-0.2,0-0.2,0.1c-0.1,0.1-0.1,0.1-0.1,0.2v3.3c0,0.1,0,0.2,0.1,0.2c0.1,0.1,0.1,0.1,0.2,0.1h4.8
		C115,176,115.1,176,115.1,176z M109.9,176.6c-0.1,0.1-0.1,0.1-0.1,0.2v3.7c0,0.1,0,0.2,0.1,0.2c0.1,0.1,0.1,0.1,0.2,0.1h4.8
		c0.1,0,0.2,0,0.2-0.1c0.1-0.1,0.1-0.1,0.1-0.2v-3.7c0-0.1,0-0.2-0.1-0.2c-0.1-0.1-0.1-0.1-0.2-0.1h-4.8
		C110,176.5,109.9,176.5,109.9,176.6z"/>
	<path class="st1" d="M124,179.4c0.7,0.2,1.2,0.5,1.6,0.8c0.4,0.3,0.6,0.7,0.6,1.1c0,0.2,0,0.3-0.1,0.3s-0.1,0.1-0.2,0.1
		c-0.2,0-0.4-0.1-0.6-0.3c-0.1-0.1-0.2-0.2-0.5-0.4c-0.3-0.2-0.5-0.5-0.8-0.7c0,0-0.1-0.1-0.2-0.1c-0.1,0-0.2,0.1-0.2,0.2
		c-0.2,0.4-0.4,0.8-0.8,1s-0.9,0.4-1.5,0.4c-0.6,0-1.1-0.1-1.6-0.4c-0.5-0.3-0.7-0.6-0.7-1.1c0-0.3,0.1-0.6,0.4-0.8
		c0.2-0.2,0.5-0.4,0.9-0.5c0.4-0.1,0.7-0.2,1.1-0.2c0.3,0,0.6,0,1.1,0.1l0.1,0c0.2,0,0.3-0.1,0.2-0.3c0-0.2,0-0.6-0.1-1.1
		c0-0.2,0-0.5-0.1-0.9c0-0.2-0.1-0.3-0.3-0.3c-0.5,0.1-0.9,0.1-1.2,0.1c-0.5,0-1-0.1-1.4-0.3s-0.7-0.5-0.8-0.9c0-0.1,0-0.1,0-0.2
		c0,0,0-0.1,0.1-0.1c0,0,0.1,0,0.1,0s0.1,0,0.1,0.1c0.2,0.1,0.4,0.3,0.8,0.4c0.3,0.1,0.7,0.2,1.1,0.2c0.3,0,0.8,0,1.4-0.1
		c0.2,0,0.3-0.1,0.3-0.3v-0.2c0-0.6,0-1.2,0-1.9v-0.1c0-0.2,0-0.2-0.1-0.2h-0.1c-0.3,0-0.5,0-0.8-0.1c-0.2-0.1-0.4-0.2-0.6-0.4
		c-0.2-0.2-0.4-0.3-0.5-0.5c-0.1-0.1-0.1-0.2-0.1-0.2c0,0,0-0.1,0.1-0.1c0.1,0,0.1,0,0.2,0.1l0.3,0.2c0.2,0.1,0.3,0.2,0.4,0.2
		c0.1,0,0.3,0.1,0.5,0.1c0.1,0,0.3,0,0.5-0.1c0.2,0,0.3-0.1,0.3-0.3c0.1-0.4,0.1-0.7,0.1-0.9c0-0.3-0.1-0.6-0.2-0.8
		c-0.1-0.1-0.2-0.3-0.3-0.4c-0.1-0.1-0.1-0.1-0.1-0.2c0-0.1-0.1-0.1-0.1-0.1c0-0.1,0-0.1,0.1-0.2s0.1-0.1,0.2-0.1s0.2,0,0.4,0.1
		s0.4,0.2,0.5,0.3c0.1,0.2,0.2,0.4,0.2,0.6c0,0.1,0,0.3-0.1,0.6s-0.1,0.5-0.2,0.7c0,0,0,0.1,0.1,0.2s0.1,0.1,0.2,0.1l0.4-0.1
		c0.1,0,0.2,0,0.3,0c0.1,0,0.2,0,0.3,0.1c0.1,0,0.1,0.1,0.1,0.2c0,0.1,0,0.2-0.1,0.3c-0.1,0.1-0.2,0.2-0.3,0.2
		c-0.2,0.1-0.5,0.2-0.9,0.3c-0.2,0-0.3,0.2-0.3,0.3c0,0.5-0.1,1-0.1,1.6c0,0.2,0,0.3,0,0.4c0,0.1,0,0.2,0.1,0.2
		c0.1,0.1,0.2,0.1,0.3,0c0.4-0.1,0.6-0.2,0.8-0.4c0.2-0.1,0.2-0.2,0.2-0.3s-0.1-0.3-0.3-0.5c0,0,0-0.1-0.1-0.1s-0.1-0.1-0.1-0.1
		c-0.1-0.1-0.1-0.2-0.1-0.2c0,0,0,0,0,0c0,0,0.1,0.1,0.3,0.2c0.2,0.2,0.5,0.3,0.8,0.4c0.1,0,0.2,0.1,0.3,0.1c0.2,0,0.3,0.1,0.4,0.1
		c0.1,0.1,0.1,0.2,0.1,0.3c0,0.1,0,0.3-0.1,0.5c-0.1,0.1-0.3,0.3-0.5,0.4c-0.4,0.2-1,0.4-1.8,0.6c-0.2,0.1-0.3,0.2-0.3,0.5
		c0,0.3,0.1,0.9,0.2,1.6l0.1,0.7C123.7,179.2,123.8,179.4,124,179.4z M122.3,180.9c0.3-0.2,0.5-0.5,0.6-0.9v-0.1
		c0-0.1-0.1-0.2-0.2-0.3c-0.5-0.2-0.9-0.2-1.4-0.2c-0.4,0-0.8,0.1-1.2,0.3c-0.4,0.2-0.5,0.4-0.5,0.7c0,0.2,0.1,0.4,0.4,0.6
		c0.3,0.1,0.6,0.2,1,0.2C121.6,181.2,122,181.1,122.3,180.9z"/>
	<path class="st1" d="M132.6,172.5c0.3,0.3,0.6,0.8,0.8,1.4c0.2,0.6,0.3,1.2,0.3,2c0,1.5-0.3,2.8-1,3.8c-0.7,1-1.7,1.8-3.2,2.3
		c-0.1,0-0.2,0.1-0.3,0.1c-0.1,0-0.1,0-0.1-0.1c0,0,0-0.1,0.1-0.1c1.3-0.5,2.2-1.4,2.7-2.5s0.8-2.2,0.8-3.4c0-0.9-0.1-1.7-0.4-2.4
		c-0.3-0.7-0.6-1-1-1c-0.3,0-0.6,0.2-0.9,0.6c-0.3,0.4-0.5,0.9-0.7,1.4c-0.2,0.5-0.3,1-0.3,1.4c0,0.2,0,0.3,0.1,0.5
		c0.1,0.2,0.1,0.3,0.2,0.5c0.1,0.1,0.1,0.2,0.2,0.4c0,0.1,0.1,0.2,0.1,0.3c0,0.1,0,0.2-0.1,0.2c-0.1,0.1-0.2,0.1-0.3,0.1
		c-0.2,0-0.5-0.1-0.7-0.4c-0.2-0.2-0.3-0.5-0.4-0.9c-0.1-0.3-0.1-0.7-0.1-1c0-0.4,0.1-0.9,0.2-1.4s0.2-1.2,0.4-2
		c0.1-0.4,0.2-0.7,0.2-1.1c0.1-0.4,0.1-0.6,0.1-0.8c0-0.2-0.1-0.4-0.2-0.6c-0.1-0.1-0.1-0.1-0.2-0.2s-0.1-0.1-0.1-0.2
		c0,0,0-0.1,0.1-0.1c0.1,0,0.2,0,0.3,0c0.2,0,0.5,0.1,0.6,0.3c0.2,0.2,0.3,0.5,0.3,0.9c0,0.3,0,0.7-0.1,1s-0.2,0.8-0.4,1.3l-0.1,0.5
		c0,0,0.1,0.1,0.1,0.1c0.1,0,0.2-0.1,0.2-0.2c0.5-0.8,1.1-1.2,1.8-1.2C131.9,172.1,132.3,172.2,132.6,172.5z"/>
</g>
<g class="st0">
	<path class="st1" d="M292.5,111.1c-0.1,0-0.1-0.1-0.1-0.2c0-0.2,0-0.2,0.1-0.2h0.2c0.5,0,0.9-0.1,1.2-0.2c0.3-0.1,0.5-0.4,0.5-0.7
		v-7.2c0-0.3,0-0.5-0.1-0.6c-0.1-0.1-0.2-0.2-0.4-0.2s-0.6-0.1-1.1-0.1h-0.3c-0.1,0-0.1-0.1-0.1-0.2c0-0.1,0-0.2,0.1-0.2
		c0.5,0,1-0.1,1.5-0.2s0.8-0.4,1.2-0.7c0.1-0.1,0.1-0.1,0.2-0.1c0.1,0,0.2,0.1,0.2,0.3v9.2c0,0.6,0.5,0.9,1.6,0.9h0.2
		c0,0,0.1,0,0.1,0.1c0,0,0,0.1,0,0.2c0,0.1,0,0.2-0.1,0.2H292.5z"/>
	<path class="st1" d="M302.9,105.4c0,0,0.1,0.1,0.2,0.1c0.7,0.2,1.3,0.5,1.8,1c0.4,0.5,0.7,1,0.7,1.7c0,0.5-0.1,0.9-0.3,1.4
		c-0.2,0.5-0.6,0.9-1.1,1.3c-0.5,0.4-1.2,0.5-2.1,0.5c-0.7,0-1.2-0.1-1.7-0.4s-0.7-0.6-0.9-0.9c-0.2-0.4-0.3-0.7-0.3-1
		c0-0.3,0.1-0.6,0.2-0.7c0.2-0.2,0.3-0.2,0.5-0.2c0.2,0,0.4,0.1,0.6,0.2s0.3,0.3,0.3,0.5c0,0.1-0.1,0.3-0.2,0.4
		c0,0.1-0.1,0.1-0.1,0.2c0,0.1-0.1,0.1-0.1,0.2c0,0.3,0.1,0.6,0.3,0.8c0.2,0.2,0.6,0.4,1.2,0.4c0.4,0,0.8-0.1,1.2-0.4
		c0.3-0.2,0.6-0.6,0.8-1s0.3-0.9,0.3-1.4c0-0.7-0.2-1.3-0.6-1.8c-0.4-0.5-1-0.7-1.7-0.7c-0.1,0-0.2,0-0.3,0c-0.1,0-0.3,0-0.4,0
		c-0.1,0-0.2,0-0.3-0.1c-0.1-0.1-0.1-0.1-0.1-0.2c0-0.1,0-0.2,0.1-0.2c0.1-0.1,0.2-0.1,0.3-0.1c0.1,0,0.3,0,0.4,0c0.2,0,0.3,0,0.4,0
		c0.4,0,0.8-0.1,1.2-0.4c0.4-0.3,0.6-0.9,0.6-1.8c0-0.8-0.2-1.4-0.5-1.8c-0.4-0.3-0.8-0.5-1.2-0.5c-0.3,0-0.6,0.1-0.8,0.2
		c-0.3,0.1-0.4,0.4-0.4,0.8c0,0.2,0,0.3,0.1,0.5c0.1,0.1,0.1,0.2,0.1,0.4c0,0.2-0.1,0.3-0.2,0.5c-0.1,0.1-0.3,0.2-0.4,0.2
		c-0.3,0-0.5-0.1-0.7-0.3c-0.1-0.2-0.2-0.4-0.2-0.7c0-0.3,0.1-0.6,0.3-0.9c0.2-0.3,0.5-0.6,1-0.8c0.4-0.2,0.9-0.3,1.4-0.3
		c0.6,0,1.1,0.1,1.5,0.4s0.8,0.6,1,1s0.3,0.8,0.3,1.3c0,0.6-0.2,1.1-0.5,1.6c-0.3,0.5-0.8,0.8-1.5,1
		C303,105.3,302.9,105.3,302.9,105.4z"/>
	<path class="st1" d="M307.5,112.7C307.5,112.7,307.5,112.6,307.5,112.7c0-0.1,0-0.1,0-0.1c0.2-0.2,0.3-0.3,0.4-0.5
		c0.1-0.2,0.1-0.3,0.1-0.4c0-0.2-0.1-0.3-0.2-0.3c-0.2-0.1-0.3-0.2-0.4-0.3c-0.1-0.1-0.1-0.3-0.1-0.4c0-0.2,0.1-0.4,0.2-0.6
		c0.2-0.2,0.4-0.2,0.6-0.2s0.4,0.1,0.6,0.2c0.2,0.2,0.2,0.4,0.2,0.6c0,0.5-0.1,0.9-0.4,1.2c-0.3,0.4-0.6,0.7-0.9,0.9L307.5,112.7
		C307.5,112.7,307.5,112.7,307.5,112.7z"/>
	<path class="st1" d="M312.3,110.7c-0.5-0.4-0.9-1-1.2-1.9c-0.3-0.8-0.4-1.9-0.4-3.1s0.1-2.2,0.4-3.1c0.3-0.9,0.7-1.5,1.2-1.9
		c0.5-0.4,1-0.6,1.6-0.6c0.6,0,1.1,0.2,1.6,0.6c0.5,0.4,0.9,1.1,1.2,1.9c0.3,0.8,0.4,1.9,0.4,3.1s-0.2,2.2-0.5,3.1
		c-0.3,0.8-0.7,1.5-1.2,1.9c-0.5,0.4-1,0.6-1.6,0.6C313.3,111.3,312.8,111.1,312.3,110.7z M315.3,109.6c0.3-0.8,0.5-2.1,0.5-3.8
		c0-1.7-0.2-3-0.5-3.8c-0.3-0.9-0.8-1.3-1.4-1.3c-0.6,0-1.1,0.4-1.4,1.3c-0.3,0.9-0.5,2.1-0.5,3.8c0,1.7,0.2,3,0.5,3.8
		c0.3,0.8,0.8,1.3,1.4,1.3C314.5,110.8,315,110.4,315.3,109.6z"/>
	<path class="st1" d="M320.1,110.7c-0.5-0.4-0.9-1-1.2-1.9c-0.3-0.8-0.4-1.9-0.4-3.1s0.1-2.2,0.4-3.1c0.3-0.9,0.7-1.5,1.2-1.9
		c0.5-0.4,1-0.6,1.6-0.6c0.6,0,1.1,0.2,1.6,0.6c0.5,0.4,0.9,1.1,1.2,1.9c0.3,0.8,0.4,1.9,0.4,3.1s-0.2,2.2-0.5,3.1
		c-0.3,0.8-0.7,1.5-1.2,1.9c-0.5,0.4-1,0.6-1.6,0.6C321.1,111.3,320.6,111.1,320.1,110.7z M323.1,109.6c0.3-0.8,0.5-2.1,0.5-3.8
		c0-1.7-0.2-3-0.5-3.8c-0.3-0.9-0.8-1.3-1.4-1.3c-0.6,0-1.1,0.4-1.4,1.3c-0.3,0.9-0.5,2.1-0.5,3.8c0,1.7,0.2,3,0.5,3.8
		c0.3,0.8,0.8,1.3,1.4,1.3C322.3,110.8,322.8,110.4,323.1,109.6z"/>
	<path class="st1" d="M327.9,110.7c-0.5-0.4-0.9-1-1.2-1.9c-0.3-0.8-0.4-1.9-0.4-3.1s0.1-2.2,0.4-3.1c0.3-0.9,0.7-1.5,1.2-1.9
		c0.5-0.4,1-0.6,1.6-0.6c0.6,0,1.1,0.2,1.6,0.6c0.5,0.4,0.9,1.1,1.2,1.9c0.3,0.8,0.4,1.9,0.4,3.1s-0.2,2.2-0.5,3.1
		c-0.3,0.8-0.7,1.5-1.2,1.9c-0.5,0.4-1,0.6-1.6,0.6C328.9,111.3,328.4,111.1,327.9,110.7z M330.9,109.6c0.3-0.8,0.5-2.1,0.5-3.8
		c0-1.7-0.2-3-0.5-3.8c-0.3-0.9-0.8-1.3-1.4-1.3c-0.6,0-1.1,0.4-1.4,1.3c-0.3,0.9-0.5,2.1-0.5,3.8c0,1.7,0.2,3,0.5,3.8
		c0.3,0.8,0.8,1.3,1.4,1.3C330.1,110.8,330.6,110.4,330.9,109.6z"/>
	<path class="st1" d="M336.4,105.8c-0.1,0.1-0.1,0.1-0.1,0.2v2.3c0,1.1,0.1,2.2,0.1,3.3v0.1c0,0.1,0,0.2-0.1,0.3
		c-0.2,0.2-0.4,0.3-0.8,0.3c-0.1,0-0.2,0-0.2-0.1c-0.1-0.1-0.1-0.1-0.1-0.2c0-0.6,0.1-1.2,0.1-1.7c0-0.6,0-1.3,0.1-2.2v-5.7
		c0-1,0-1.8-0.1-2.6v-0.1c0-0.2,0.1-0.2,0.2-0.2c0,0,0.1,0,0.2,0l0.6,0.3c0.1,0.1,0.3,0.1,0.4,0.1h8.5c0.2,0,0.3-0.1,0.4-0.2
		l0.1-0.1c0,0,0.1-0.1,0.1-0.2c0.1-0.1,0.1-0.1,0.2-0.1c0.1,0,0.2,0.1,0.5,0.3c0.2,0.2,0.4,0.3,0.6,0.5c0,0.1,0.1,0.1,0.1,0.2
		c0,0.1,0,0.1-0.1,0.2c0,0-0.1,0-0.1,0c0,0-0.1,0-0.1,0c-0.2,0.1-0.3,0.2-0.3,0.3v10c0,0.4-0.1,0.7-0.3,0.9
		c-0.2,0.2-0.6,0.4-1.1,0.4l-0.1,0c-0.1,0-0.2-0.1-0.3-0.3c-0.1-0.2-0.2-0.3-0.3-0.4c-0.2-0.2-0.7-0.3-1.2-0.3
		c-0.2,0-0.3-0.1-0.3-0.2s0.1-0.1,0.3-0.1c1,0.1,1.6,0.1,1.9,0.1c0.2,0,0.3,0,0.3-0.1c0.1-0.1,0.1-0.2,0.1-0.3V106
		c0-0.1,0-0.2-0.1-0.2c-0.1-0.1-0.1-0.1-0.2-0.1h-8.6C336.6,105.7,336.5,105.7,336.4,105.8z M340.3,100.4c-0.1-0.1-0.1-0.1-0.2-0.1
		h-3.4c-0.1,0-0.2,0-0.2,0.1c-0.1,0.1-0.1,0.1-0.1,0.2v4.3c0,0.1,0,0.2,0.1,0.2c0.1,0.1,0.1,0.1,0.2,0.1h3.4c0.1,0,0.2,0,0.2-0.1
		c0.1-0.1,0.1-0.1,0.1-0.2v-4.3C340.4,100.6,340.4,100.5,340.3,100.4z M341.5,100.4c-0.1,0.1-0.1,0.1-0.1,0.2v4.3
		c0,0.1,0,0.2,0.1,0.2c0.1,0.1,0.1,0.1,0.2,0.1h3.5c0.1,0,0.2,0,0.2-0.1c0.1-0.1,0.1-0.1,0.1-0.2v-4.3c0-0.1,0-0.2-0.1-0.2
		c-0.1-0.1-0.1-0.1-0.2-0.1h-3.5C341.6,100.3,341.5,100.4,341.5,100.4z"/>
</g>
<g class="st0">
	<path class="st1" d="M484.5,111.1c-0.1,0-0.1-0.1-0.1-0.2c0-0.2,0-0.2,0.1-0.2h0.2c0.5,0,0.9-0.1,1.2-0.2c0.3-0.1,0.4-0.4,0.4-0.7
		v-7.2c0-0.3,0-0.5-0.1-0.6c-0.1-0.1-0.2-0.2-0.4-0.2s-0.6-0.1-1.1-0.1h-0.3c-0.1,0-0.1-0.1-0.1-0.2c0-0.1,0-0.2,0.1-0.2
		c0.5,0,1-0.1,1.5-0.2s0.8-0.4,1.2-0.7c0.1-0.1,0.1-0.1,0.2-0.1c0.1,0,0.2,0.1,0.2,0.3v9.2c0,0.6,0.5,0.9,1.6,0.9h0.2
		c0,0,0.1,0,0.1,0.1c0,0,0,0.1,0,0.2c0,0.1,0,0.2-0.1,0.2H484.5z"/>
	<path class="st1" d="M497.7,108.1c0.1,0.1,0.1,0.1,0.1,0.2c0,0.1,0,0.2-0.1,0.2c-0.1,0.1-0.1,0.1-0.2,0.1h-1.1
		c-0.1,0-0.2,0-0.2,0.1c-0.1,0.1-0.1,0.1-0.1,0.2v1.2c0,0.2,0.1,0.4,0.3,0.4c0.2,0.1,0.4,0.1,0.8,0.1h0.2c0.1,0,0.1,0.1,0.1,0.2
		c0,0.1,0,0.2-0.1,0.2h-3.6c-0.1,0-0.1-0.1-0.1-0.2c0-0.1,0-0.2,0.1-0.2h0.2c0.3,0,0.6,0,0.8-0.1c0.2-0.1,0.3-0.2,0.3-0.4V109
		c0-0.1,0-0.2-0.1-0.2c-0.1-0.1-0.1-0.1-0.2-0.1h-3.4c-0.1,0-0.2,0-0.2-0.1c-0.1-0.1-0.1-0.1-0.1-0.2v-0.1c0-0.2,0-0.3,0.1-0.4
		l4.3-7.5c0.1-0.2,0.2-0.2,0.4-0.2l0.1,0c0.2,0,0.3,0.2,0.3,0.3v7.2c0,0.1,0,0.2,0.1,0.2c0.1,0.1,0.1,0.1,0.2,0.1h1.1
		C497.5,108,497.6,108.1,497.7,108.1z M494.9,102.8c0,0-0.1-0.1-0.1-0.1c-0.1,0-0.2,0.1-0.2,0.2l-2.7,4.7c0,0.1,0,0.1,0,0.2
		c0,0.1,0.1,0.2,0.3,0.2h2.6c0.1,0,0.2,0,0.2-0.1c0.1-0.1,0.1-0.1,0.1-0.2v-4.7C494.9,103,494.9,102.9,494.9,102.8z"/>
	<path class="st1" d="M499.2,112.7C499.2,112.7,499.2,112.6,499.2,112.7c0-0.1,0-0.1,0-0.1c0.2-0.2,0.3-0.3,0.4-0.5
		c0.1-0.2,0.1-0.3,0.1-0.4c0-0.2-0.1-0.3-0.2-0.3c-0.2-0.1-0.3-0.2-0.4-0.3c-0.1-0.1-0.1-0.3-0.1-0.4c0-0.2,0.1-0.4,0.2-0.6
		c0.2-0.2,0.4-0.2,0.6-0.2s0.4,0.1,0.6,0.2c0.2,0.2,0.2,0.4,0.2,0.6c0,0.5-0.1,0.9-0.4,1.2c-0.3,0.4-0.6,0.7-0.9,0.9L499.2,112.7
		C499.3,112.7,499.2,112.7,499.2,112.7z"/>
	<path class="st1" d="M504,110.7c-0.5-0.4-0.9-1-1.2-1.9c-0.3-0.8-0.4-1.9-0.4-3.1s0.2-2.2,0.4-3.1c0.3-0.9,0.7-1.5,1.2-1.9
		c0.5-0.4,1-0.6,1.6-0.6c0.6,0,1.1,0.2,1.6,0.6c0.5,0.4,0.9,1.1,1.2,1.9c0.3,0.8,0.4,1.9,0.4,3.1s-0.2,2.2-0.5,3.1
		c-0.3,0.8-0.7,1.5-1.2,1.9c-0.5,0.4-1,0.6-1.6,0.6C505.1,111.3,504.5,111.1,504,110.7z M507,109.6c0.3-0.8,0.5-2.1,0.5-3.8
		c0-1.7-0.2-3-0.5-3.8c-0.3-0.9-0.8-1.3-1.4-1.3c-0.6,0-1.1,0.4-1.4,1.3c-0.3,0.9-0.5,2.1-0.5,3.8c0,1.7,0.2,3,0.5,3.8
		s0.8,1.3,1.4,1.3C506.2,110.8,506.7,110.4,507,109.6z"/>
	<path class="st1" d="M511.8,110.7c-0.5-0.4-0.9-1-1.2-1.9c-0.3-0.8-0.4-1.9-0.4-3.1s0.1-2.2,0.4-3.1c0.3-0.9,0.7-1.5,1.2-1.9
		c0.5-0.4,1-0.6,1.6-0.6c0.6,0,1.1,0.2,1.6,0.6c0.5,0.4,0.9,1.1,1.2,1.9c0.3,0.8,0.4,1.9,0.4,3.1s-0.2,2.2-0.5,3.1
		c-0.3,0.8-0.7,1.5-1.2,1.9c-0.5,0.4-1,0.6-1.6,0.6C512.9,111.3,512.3,111.1,511.8,110.7z M514.8,109.6c0.3-0.8,0.5-2.1,0.5-3.8
		c0-1.7-0.2-3-0.5-3.8c-0.3-0.9-0.8-1.3-1.4-1.3c-0.6,0-1.1,0.4-1.4,1.3c-0.3,0.9-0.5,2.1-0.5,3.8c0,1.7,0.2,3,0.5,3.8
		s0.8,1.3,1.4,1.3C514,110.8,514.5,110.4,514.8,109.6z"/>
	<path class="st1" d="M519.6,110.7c-0.5-0.4-0.9-1-1.2-1.9c-0.3-0.8-0.4-1.9-0.4-3.1s0.2-2.2,0.5-3.1c0.3-0.9,0.7-1.5,1.2-1.9
		c0.5-0.4,1-0.6,1.6-0.6c0.6,0,1.1,0.2,1.6,0.6c0.5,0.4,0.9,1.1,1.2,1.9c0.3,0.8,0.4,1.9,0.4,3.1s-0.2,2.2-0.5,3.1
		c-0.3,0.8-0.7,1.5-1.2,1.9s-1,0.6-1.6,0.6C520.7,111.3,520.1,111.1,519.6,110.7z M522.6,109.6c0.3-0.8,0.5-2.1,0.5-3.8
		c0-1.7-0.2-3-0.5-3.8c-0.3-0.9-0.8-1.3-1.4-1.3c-0.6,0-1.1,0.4-1.4,1.3c-0.3,0.9-0.5,2.1-0.5,3.8c0,1.7,0.2,3,0.5,3.8
		c0.3,0.8,0.8,1.3,1.4,1.3C521.8,110.8,522.3,110.4,522.6,109.6z"/>
	<path class="st1" d="M528.1,105.8c-0.1,0.1-0.1,0.1-0.1,0.2v2.3c0,1.1,0.1,2.2,0.1,3.3v0.1c0,0.1,0,0.2-0.1,0.3
		c-0.2,0.2-0.4,0.3-0.8,0.3c-0.1,0-0.2,0-0.2-0.1c-0.1-0.1-0.1-0.1-0.1-0.2c0-0.6,0.1-1.2,0.1-1.7c0-0.6,0-1.3,0.1-2.2v-5.7
		c0-1,0-1.8-0.1-2.6v-0.1c0-0.2,0.1-0.2,0.2-0.2c0.1,0,0.1,0,0.2,0l0.6,0.3c0.1,0.1,0.3,0.1,0.4,0.1h8.5c0.2,0,0.3-0.1,0.4-0.2
		l0.1-0.1c0,0,0.1-0.1,0.1-0.2c0.1-0.1,0.1-0.1,0.2-0.1c0.1,0,0.2,0.1,0.5,0.3c0.2,0.2,0.4,0.3,0.6,0.5c0,0.1,0.1,0.1,0.1,0.2
		c0,0.1,0,0.1-0.1,0.2c0,0-0.1,0-0.1,0c0,0-0.1,0-0.1,0c-0.2,0.1-0.3,0.2-0.3,0.3v10c0,0.4-0.1,0.7-0.3,0.9
		c-0.2,0.2-0.6,0.4-1.1,0.4l-0.1,0c-0.1,0-0.2-0.1-0.3-0.3c-0.1-0.2-0.2-0.3-0.3-0.4c-0.2-0.2-0.7-0.3-1.2-0.3
		c-0.2,0-0.3-0.1-0.3-0.2s0.1-0.1,0.3-0.1c1,0.1,1.6,0.1,1.9,0.1c0.2,0,0.3,0,0.3-0.1c0.1-0.1,0.1-0.2,0.1-0.3V106
		c0-0.1,0-0.2-0.1-0.2c-0.1-0.1-0.1-0.1-0.2-0.1h-8.6C528.3,105.7,528.2,105.7,528.1,105.8z M532,100.4c-0.1-0.1-0.1-0.1-0.2-0.1
		h-3.4c-0.1,0-0.2,0-0.2,0.1c-0.1,0.1-0.1,0.1-0.1,0.2v4.3c0,0.1,0,0.2,0.1,0.2c0.1,0.1,0.1,0.1,0.2,0.1h3.4c0.1,0,0.2,0,0.2-0.1
		c0.1-0.1,0.1-0.1,0.1-0.2v-4.3C532.1,100.6,532.1,100.5,532,100.4z M533.2,100.4c-0.1,0.1-0.1,0.1-0.1,0.2v4.3c0,0.1,0,0.2,0.1,0.2
		c0.1,0.1,0.1,0.1,0.2,0.1h3.5c0.1,0,0.2,0,0.2-0.1c0.1-0.1,0.1-0.1,0.1-0.2v-4.3c0-0.1,0-0.2-0.1-0.2c-0.1-0.1-0.1-0.1-0.2-0.1
		h-3.5C533.3,100.3,533.2,100.4,533.2,100.4z"/>
</g>
<g class="st0">
	<path class="st1" d="M676.7,111.1c-0.1,0-0.1-0.1-0.1-0.2c0-0.2,0-0.2,0.1-0.2h0.2c0.5,0,0.9-0.1,1.2-0.2c0.3-0.1,0.4-0.4,0.4-0.7
		v-7.2c0-0.3,0-0.5-0.1-0.6c-0.1-0.1-0.2-0.2-0.4-0.2s-0.6-0.1-1.1-0.1h-0.3c-0.1,0-0.1-0.1-0.1-0.2c0-0.1,0-0.2,0.1-0.2
		c0.5,0,1-0.1,1.5-0.2s0.8-0.4,1.2-0.7c0.1-0.1,0.1-0.1,0.2-0.1c0.1,0,0.2,0.1,0.2,0.3v9.2c0,0.6,0.5,0.9,1.6,0.9h0.2
		c0,0,0.1,0,0.1,0.1c0,0,0,0.1,0,0.2c0,0.1,0,0.2-0.1,0.2H676.7z"/>
	<path class="st1" d="M687.6,104.4c0.5,0.2,0.9,0.6,1.2,1.1c0.4,0.5,0.5,1.2,0.5,2.2c0,0.7-0.2,1.4-0.5,1.9c-0.3,0.6-0.8,1-1.3,1.3
		c-0.5,0.3-1,0.5-1.5,0.5c-0.5,0-0.9-0.1-1.4-0.3c-0.4-0.2-0.8-0.4-1.1-0.8s-0.4-0.7-0.4-1.2c0-0.3,0.1-0.6,0.2-0.7
		c0.1-0.1,0.3-0.2,0.5-0.2c0.2,0,0.4,0.1,0.6,0.2s0.3,0.3,0.3,0.5c0,0.1,0,0.3-0.1,0.5c0,0,0,0.1,0,0.2c0,0.1,0,0.2,0,0.2
		c0,0.4,0.1,0.6,0.4,0.8c0.3,0.2,0.6,0.3,1,0.3c0.4,0,0.7-0.1,1-0.4c0.3-0.3,0.6-0.6,0.8-1.1c0.2-0.5,0.3-1,0.3-1.6
		c0-0.9-0.2-1.6-0.6-2.2c-0.4-0.5-0.9-0.8-1.5-0.8c-0.7,0-1.3,0.4-2,1.2c-0.1,0.1-0.1,0.1-0.2,0.2h-0.1c-0.1,0-0.1,0-0.1,0h0
		c-0.1-0.1-0.2-0.2-0.2-0.4l0.2-5.1c0-0.1,0-0.2,0.1-0.2c0.1-0.1,0.1-0.1,0.2-0.1h4.6c0.1,0,0.2,0,0.2,0.1c0.1,0.1,0.1,0.1,0,0.3
		l-0.1,0.5c0,0.1,0,0.2-0.1,0.2s-0.1,0.1-0.2,0.1h-4c-0.2,0-0.3,0.1-0.3,0.3l-0.1,3.1c0,0.1,0,0.2,0.2,0.2c0.1,0,0.2-0.1,0.4-0.2
		c0.3-0.2,0.6-0.4,0.9-0.5c0.3-0.1,0.6-0.1,0.9-0.1C686.7,104.1,687.2,104.2,687.6,104.4z"/>
	<path class="st1" d="M691.4,112.7C691.4,112.7,691.3,112.6,691.4,112.7c0-0.1,0-0.1,0-0.1c0.2-0.2,0.3-0.3,0.4-0.5
		c0.1-0.2,0.1-0.3,0.1-0.4c0-0.2-0.1-0.3-0.2-0.3c-0.2-0.1-0.3-0.2-0.4-0.3c-0.1-0.1-0.1-0.3-0.1-0.4c0-0.2,0.1-0.4,0.2-0.6
		s0.4-0.2,0.6-0.2s0.4,0.1,0.6,0.2s0.2,0.4,0.2,0.6c0,0.5-0.1,0.9-0.4,1.2c-0.3,0.4-0.6,0.7-0.9,0.9L691.4,112.7
		C691.4,112.7,691.4,112.7,691.4,112.7z"/>
	<path class="st1" d="M696.2,110.7c-0.5-0.4-0.9-1-1.2-1.9c-0.3-0.8-0.4-1.9-0.4-3.1s0.1-2.2,0.5-3.1c0.3-0.9,0.7-1.5,1.2-1.9
		c0.5-0.4,1-0.6,1.6-0.6c0.6,0,1.1,0.2,1.6,0.6c0.5,0.4,0.9,1.1,1.2,1.9c0.3,0.8,0.4,1.9,0.4,3.1s-0.2,2.2-0.4,3.1
		c-0.3,0.8-0.7,1.5-1.2,1.9c-0.5,0.4-1,0.6-1.6,0.6C697.2,111.3,696.7,111.1,696.2,110.7z M699.2,109.6c0.3-0.8,0.5-2.1,0.5-3.8
		c0-1.7-0.2-3-0.5-3.8c-0.3-0.9-0.8-1.3-1.4-1.3c-0.6,0-1.1,0.4-1.4,1.3c-0.3,0.9-0.5,2.1-0.5,3.8c0,1.7,0.2,3,0.5,3.8
		c0.3,0.8,0.8,1.3,1.4,1.3C698.4,110.8,698.8,110.4,699.2,109.6z"/>
	<path class="st1" d="M704,110.7c-0.5-0.4-0.9-1-1.2-1.9c-0.3-0.8-0.4-1.9-0.4-3.1s0.2-2.2,0.4-3.1c0.3-0.9,0.7-1.5,1.2-1.9
		c0.5-0.4,1-0.6,1.6-0.6c0.6,0,1.1,0.2,1.6,0.6c0.5,0.4,0.9,1.1,1.2,1.9c0.3,0.8,0.4,1.9,0.4,3.1s-0.2,2.2-0.5,3.1
		c-0.3,0.8-0.7,1.5-1.2,1.9c-0.5,0.4-1,0.6-1.6,0.6C705,111.3,704.5,111.1,704,110.7z M707,109.6c0.3-0.8,0.5-2.1,0.5-3.8
		c0-1.7-0.2-3-0.5-3.8c-0.3-0.9-0.8-1.3-1.4-1.3c-0.6,0-1.1,0.4-1.4,1.3c-0.3,0.9-0.5,2.1-0.5,3.8c0,1.7,0.2,3,0.5,3.8
		s0.8,1.3,1.4,1.3C706.2,110.8,706.6,110.4,707,109.6z"/>
	<path class="st1" d="M711.8,110.7c-0.5-0.4-0.9-1-1.2-1.9c-0.3-0.8-0.4-1.9-0.4-3.1s0.1-2.2,0.5-3.1c0.3-0.9,0.7-1.5,1.2-1.9
		c0.5-0.4,1-0.6,1.6-0.6c0.6,0,1.1,0.2,1.6,0.6c0.5,0.4,0.9,1.1,1.2,1.9c0.3,0.8,0.4,1.9,0.4,3.1s-0.2,2.2-0.4,3.1
		c-0.3,0.8-0.7,1.5-1.2,1.9c-0.5,0.4-1,0.6-1.6,0.6C712.8,111.3,712.3,111.1,711.8,110.7z M714.8,109.6c0.3-0.8,0.5-2.1,0.5-3.8
		c0-1.7-0.2-3-0.5-3.8c-0.3-0.9-0.8-1.3-1.4-1.3c-0.6,0-1.1,0.4-1.4,1.3c-0.3,0.9-0.5,2.1-0.5,3.8c0,1.7,0.2,3,0.5,3.8
		c0.3,0.8,0.8,1.3,1.4,1.3C714,110.8,714.4,110.4,714.8,109.6z"/>
	<path class="st1" d="M720.3,105.8c-0.1,0.1-0.1,0.1-0.1,0.2v2.3c0,1.1,0.1,2.2,0.1,3.3v0.1c0,0.1,0,0.2-0.1,0.3
		c-0.2,0.2-0.5,0.3-0.8,0.3c-0.1,0-0.2,0-0.2-0.1c-0.1-0.1-0.1-0.1-0.1-0.2c0-0.6,0.1-1.2,0.1-1.7c0-0.6,0-1.3,0.1-2.2v-5.7
		c0-1,0-1.8-0.1-2.6v-0.1c0-0.2,0.1-0.2,0.2-0.2c0,0,0.1,0,0.2,0l0.6,0.3c0.1,0.1,0.3,0.1,0.4,0.1h8.5c0.2,0,0.3-0.1,0.4-0.2
		l0.1-0.1c0,0,0.1-0.1,0.1-0.2c0.1-0.1,0.1-0.1,0.2-0.1c0.1,0,0.2,0.1,0.5,0.3c0.2,0.2,0.4,0.3,0.6,0.5c0,0.1,0.1,0.1,0.1,0.2
		c0,0.1,0,0.1-0.1,0.2c0,0-0.1,0-0.1,0s-0.1,0-0.1,0c-0.2,0.1-0.3,0.2-0.3,0.3v10c0,0.4-0.1,0.7-0.3,0.9c-0.2,0.2-0.6,0.4-1.1,0.4
		l-0.1,0c-0.1,0-0.2-0.1-0.3-0.3c-0.1-0.2-0.2-0.3-0.3-0.4c-0.2-0.2-0.7-0.3-1.2-0.3c-0.2,0-0.3-0.1-0.3-0.2s0.1-0.1,0.3-0.1
		c1,0.1,1.6,0.1,1.9,0.1c0.2,0,0.3,0,0.3-0.1c0.1-0.1,0.1-0.2,0.1-0.3V106c0-0.1,0-0.2-0.1-0.2c-0.1-0.1-0.1-0.1-0.2-0.1h-8.6
		C720.4,105.7,720.4,105.7,720.3,105.8z M724.2,100.4c-0.1-0.1-0.1-0.1-0.2-0.1h-3.4c-0.1,0-0.2,0-0.2,0.1c-0.1,0.1-0.1,0.1-0.1,0.2
		v4.3c0,0.1,0,0.2,0.1,0.2c0.1,0.1,0.1,0.1,0.2,0.1h3.4c0.1,0,0.2,0,0.2-0.1c0.1-0.1,0.1-0.1,0.1-0.2v-4.3
		C724.3,100.6,724.3,100.5,724.2,100.4z M725.3,100.4c-0.1,0.1-0.1,0.1-0.1,0.2v4.3c0,0.1,0,0.2,0.1,0.2c0.1,0.1,0.1,0.1,0.2,0.1
		h3.5c0.1,0,0.2,0,0.2-0.1c0.1-0.1,0.1-0.1,0.1-0.2v-4.3c0-0.1,0-0.2-0.1-0.2c-0.1-0.1-0.1-0.1-0.2-0.1h-3.5
		C725.5,100.3,725.4,100.4,725.3,100.4z"/>
</g>
<g class="st0">
	<path class="st1" d="M90,111.8c-0.1,0-0.1-0.1-0.1-0.2c0-0.2,0-0.2,0.1-0.2h0.2c0.5,0,0.9-0.1,1.2-0.2c0.3-0.1,0.5-0.4,0.5-0.7
		v-7.2c0-0.3,0-0.5-0.1-0.6c-0.1-0.1-0.2-0.2-0.4-0.2s-0.6-0.1-1.1-0.1H90c-0.1,0-0.1-0.1-0.1-0.2c0-0.1,0-0.2,0.1-0.2
		c0.5,0,1-0.1,1.5-0.2s0.8-0.4,1.2-0.7c0.1-0.1,0.1-0.1,0.2-0.1c0.1,0,0.2,0.1,0.2,0.3v9.2c0,0.6,0.5,0.9,1.6,0.9H95
		c0,0,0.1,0,0.1,0.1c0,0,0,0.1,0,0.2c0,0.1,0,0.2-0.1,0.2H90z"/>
	<path class="st1" d="M96.9,102.8c0,0,0.1-0.1,0.2-0.1c0.1,0,0.1,0,0.1,0c0.7,0.1,1.2,0.3,1.6,0.6c0.3,0.3,0.5,0.6,0.5,0.9
		c0,0.2,0,0.3-0.1,0.4c-0.1,0.1-0.2,0.2-0.3,0.2c-0.1,0-0.1,0-0.1,0c-0.1,0-0.2-0.1-0.3-0.3c-0.1-0.2-0.3-0.5-0.5-0.8
		s-0.5-0.5-0.8-0.7C97,102.9,96.9,102.8,96.9,102.8z M97.6,108.8h0.3c0.1,0,0.2,0,0.2,0s0.1-0.1,0.2-0.3c0.2-0.4,0.8-1.8,1.8-4
		l1-2.2c0.1-0.2,0.2-0.3,0.2-0.3c0.1,0,0.1,0,0.1,0.1c0,0.1,0,0.1,0,0.2l-0.8,2.1c-0.1,0.2-0.3,0.9-0.7,1.8c-0.3,1-0.6,1.6-0.6,1.8
		c-0.2,0.6-0.2,1-0.2,1.3c0,0.1,0,0.3,0.1,0.4c0,0.2,0.1,0.3,0.1,0.4c0.1,0.3,0.1,0.5,0.2,0.8c0,0.2,0.1,0.5,0.1,0.8
		c0,0.4-0.1,0.7-0.2,0.9c-0.1,0.2-0.3,0.3-0.6,0.3c-0.2,0-0.4-0.2-0.4-0.5c0,0,0-0.1,0-0.2s0-0.1,0-0.2c0-0.5,0.1-1,0.1-1.3
		c0-0.4,0-0.7-0.1-0.9c-0.1-0.2-0.1-0.4-0.2-0.5c-0.1-0.1-0.2-0.2-0.4-0.2c-0.2,0-0.3-0.1-0.3-0.2C97.3,108.8,97.4,108.8,97.6,108.8
		z M98.2,99.5c0,0,0.1,0,0.1,0c0.1,0,0.1,0,0.2,0c0.7,0.1,1.3,0.4,1.6,0.7c0.3,0.3,0.5,0.6,0.5,0.9c0,0.2,0,0.3-0.1,0.4
		c-0.1,0.1-0.2,0.2-0.4,0.2c-0.1,0-0.1,0-0.1,0c-0.1,0-0.2-0.1-0.3-0.3c-0.1-0.3-0.3-0.5-0.5-0.8c-0.2-0.3-0.5-0.5-0.8-0.8
		C98.2,99.6,98.1,99.5,98.2,99.5z M108.4,101.8l0.1-0.1c0,0,0.1-0.1,0.1-0.1c0-0.1,0.1-0.1,0.1-0.1c0,0,0.1,0,0.1,0
		c0.1,0,0.2,0.1,0.4,0.2c0.2,0.2,0.4,0.3,0.5,0.5c0,0,0.1,0.1,0.1,0.2c0,0.1,0,0.1-0.1,0.2c0,0,0,0-0.1,0c0,0-0.1,0-0.1,0
		c-0.2,0.1-0.3,0.2-0.3,0.3v6c0,1.1,0.1,2.2,0.1,3.3v0.1c0,0.1-0.1,0.2-0.1,0.3c-0.2,0.2-0.5,0.3-0.8,0.3c-0.1,0-0.1,0-0.2-0.1
		c0,0,0-0.1,0-0.1c0,0,0-0.1,0-0.2c0,0,0-0.1,0-0.4v-0.1c0-0.1,0-0.2-0.1-0.2c-0.1-0.1-0.1-0.1-0.2-0.1h-4.8c-0.1,0-0.2,0-0.2,0.1
		c-0.1,0.1-0.1,0.1-0.1,0.2v0c0,0.2,0,0.4,0,0.4v0.1c0,0.1,0,0.2-0.1,0.3c-0.2,0.2-0.4,0.2-0.7,0.2c-0.1,0-0.2,0-0.2-0.1
		c-0.1-0.1-0.1-0.1-0.1-0.2c0-0.6,0.1-1.2,0.1-1.7c0-0.6,0.1-1.3,0.1-2.2v-4.2c0-1,0-1.9-0.1-2.6v-0.1c0-0.1,0.1-0.2,0.2-0.2
		c0.1,0,0.1,0,0.1,0l0.7,0.3c0.1,0,0.2,0.1,0.4,0.1h0.9c0.2,0,0.3-0.1,0.3-0.3c0.2-0.7,0.3-1.5,0.3-2.3c0-0.1,0-0.2,0.1-0.2
		s0.1-0.1,0.2,0l1.1,0.3c0.1,0,0.1,0.1,0.2,0.1c0,0,0.1,0.1,0.1,0.1c0,0,0,0.1-0.1,0.1l-0.1,0c0,0-0.1,0-0.2,0.1s-0.1,0.1-0.2,0.2
		c-0.2,0.4-0.5,0.9-0.9,1.5c0,0-0.1,0.1-0.1,0.2c0,0.1,0.1,0.2,0.3,0.2h2.7C108.2,102,108.3,102,108.4,101.8z M108.3,106.3
		c0.1-0.1,0.1-0.1,0.1-0.2v-3.3c0-0.1,0-0.2-0.1-0.2c-0.1-0.1-0.1-0.1-0.2-0.1h-4.8c-0.1,0-0.2,0-0.2,0.1c-0.1,0.1-0.1,0.1-0.1,0.2
		v3.3c0,0.1,0,0.2,0.1,0.2c0.1,0.1,0.1,0.1,0.2,0.1h4.8C108.1,106.4,108.2,106.3,108.3,106.3z M103,106.9c-0.1,0.1-0.1,0.1-0.1,0.2
		v3.7c0,0.1,0,0.2,0.1,0.2c0.1,0.1,0.1,0.1,0.2,0.1h4.8c0.1,0,0.2,0,0.2-0.1c0.1-0.1,0.1-0.1,0.1-0.2v-3.7c0-0.1,0-0.2-0.1-0.2
		c-0.1-0.1-0.1-0.1-0.2-0.1h-4.8C103.1,106.8,103,106.8,103,106.9z"/>
	<path class="st1" d="M117.4,111.5c0,0.2-0.2,0.3-0.3,0.3h-4.9c-0.2,0-0.3-0.1-0.3-0.2c0-0.1,0-0.1,0-0.2c0-0.1,0-0.1,0-0.2
		c0.3-0.7,0.6-1.4,1.1-2c0.4-0.6,1-1.3,1.6-2.1c0.7-0.9,1.3-1.6,1.6-2.1c0.3-0.6,0.5-1.1,0.5-1.7c0-0.5-0.1-1-0.4-1.4
		c-0.3-0.4-0.8-0.6-1.4-0.6c-0.5,0-0.9,0.1-1.2,0.4c-0.3,0.2-0.5,0.5-0.5,0.9c0,0.1,0,0.2,0.1,0.3c0,0.1,0.1,0.2,0.2,0.3
		c0.1,0.1,0.1,0.2,0.2,0.3s0.1,0.2,0.1,0.3c0,0.2-0.1,0.4-0.2,0.6c-0.1,0.1-0.3,0.2-0.6,0.2c-0.2,0-0.4-0.1-0.5-0.3
		c-0.2-0.2-0.2-0.5-0.2-0.8c0-0.4,0.1-0.8,0.3-1.2s0.6-0.8,1-1s1-0.4,1.7-0.4c0.7,0,1.3,0.1,1.7,0.4c0.4,0.3,0.8,0.6,0.9,1.1
		s0.3,0.9,0.3,1.3c0,0.4-0.1,0.8-0.2,1.1s-0.3,0.6-0.6,0.9c-0.2,0.3-0.6,0.6-1.1,1.1c-0.1,0.1-0.2,0.2-0.4,0.4
		c-0.2,0.2-0.4,0.3-0.6,0.6c-0.9,0.9-1.6,1.8-2.1,2.8c0,0.1,0,0.1,0,0.2c0,0.1,0.1,0.2,0.3,0.2h1.4c0.7,0,1.3,0,1.6-0.1
		s0.6-0.2,0.8-0.5s0.4-0.6,0.5-1.1c0-0.1,0.1-0.1,0.1-0.1c0,0,0.1,0,0.1,0c0.1,0,0.1,0,0.1,0.1c0,0,0,0,0,0.1l0,0.1L117.4,111.5z"/>
	<path class="st1" d="M128.9,103.5l0.1-0.1c0,0,0.1-0.1,0.1-0.1c0-0.1,0.1-0.1,0.1-0.1c0,0,0.1,0,0.1,0c0.1,0,0.2,0.1,0.4,0.3
		s0.4,0.3,0.5,0.5c0,0,0.1,0.1,0.1,0.2c0,0.1,0,0.1-0.1,0.2l-0.1,0c-0.2,0.1-0.3,0.2-0.3,0.3v1c0,1,0,1.7,0.1,2.3v0.1
		c0,0.1,0,0.2-0.1,0.3c-0.1,0.1-0.2,0.1-0.4,0.2c-0.1,0.1-0.3,0.1-0.4,0.1c0,0-0.1,0-0.1-0.1c0,0,0-0.1,0-0.2s0-0.1-0.1-0.2
		c-0.1,0-0.1-0.1-0.2-0.1h-1.9c-0.1,0-0.1,0-0.2,0.1c-0.1,0-0.1,0.1-0.1,0.2c0,0,0,0.1,0,0.2c0.4,0.6,0.8,1.1,1.4,1.5
		c0.1,0.1,0.2,0.1,0.2,0.1c0,0,0.1,0,0.1,0c0.4-0.3,0.8-0.6,1.1-0.9c0.4-0.3,0.7-0.7,0.9-1c0.1-0.1,0.1-0.2,0.2-0.2
		c0.1,0,0.1,0,0.2,0.1c0.6,0.5,0.9,0.7,0.9,0.8c0,0-0.1,0.1-0.1,0.1h0c-0.1,0-0.3,0-0.4,0.1c-0.6,0.3-1.3,0.7-2.2,1
		c-0.1,0.1-0.2,0.1-0.2,0.2c0,0.1,0.1,0.2,0.2,0.2c1,0.6,2.2,1,3.7,1.3c0.2,0.1,0.3,0.1,0.3,0.2c0,0,0,0.1-0.1,0.1
		c-0.1,0-0.1,0-0.1,0.1c-0.2,0.1-0.4,0.3-0.5,0.5c-0.1,0.2-0.2,0.2-0.4,0.2c-1.4-0.4-2.5-1-3.4-1.7c-0.9-0.8-1.6-1.7-2.1-2.9
		c-0.1-0.2-0.2-0.2-0.4-0.2h-1.8c-0.1,0-0.2,0-0.2,0.1c-0.1,0.1-0.1,0.1-0.1,0.2v2.6c0,0.1,0,0.2,0.1,0.2c0.1,0.1,0.1,0.1,0.3,0
		l3-0.5c0,0,0.1,0,0.2,0c0.1,0,0.1,0,0.2,0.1v0c0,0.1-0.1,0.1-0.3,0.2c-2.1,0.7-3.9,1.2-5.4,1.6c-0.1,0-0.2,0.1-0.3,0.1
		c0,0,0,0,0,0.1c0,0.1-0.1,0.1-0.2,0.1c-0.1,0-0.2-0.1-0.3-0.2l-0.3-0.6c0-0.1,0-0.1,0-0.2c0-0.1,0.1-0.2,0.2-0.2
		c0.6-0.1,1.1-0.2,1.6-0.2c0.2,0,0.3-0.1,0.3-0.3v-7.4c0-0.2-0.1-0.3-0.2-0.3c-0.1,0-0.1,0-0.2,0.1c-0.8,0.5-1.5,0.8-2.2,1.1
		c-0.2,0.1-0.3,0.1-0.3,0v0c0-0.1,0.1-0.1,0.2-0.2c0.7-0.4,1.4-0.9,2.1-1.4s1.4-1.1,2-1.7c0.7-0.7,1.1-1.3,1.4-2
		c0.1-0.1,0.1-0.2,0.3-0.2c0,0,0.1,0,0.1,0l1.2,0.3c0.1,0,0.1,0.1,0.2,0.1c0,0,0.1,0.1,0.1,0.1c0,0.1,0,0.1-0.1,0.1
		c-0.1,0.1-0.1,0.1-0.1,0.2c0,0.1,0,0.1,0.1,0.2c0.6,0.6,1.4,1.1,2.4,1.7s2,1,3.1,1.3c0.1,0,0.2,0.1,0.2,0.1c0,0,0.1,0.1,0.1,0.1
		s0,0.1-0.1,0.1c-0.1,0-0.1,0.1-0.2,0.1c-0.2,0.1-0.4,0.3-0.5,0.4c-0.1,0.1-0.2,0.2-0.3,0.2c0,0-0.1,0-0.2,0c-1-0.5-2-1-2.8-1.7
		c-0.9-0.7-1.6-1.4-2.1-2.1c-0.1-0.1-0.1-0.2-0.2-0.2s-0.1,0-0.2,0.1c-0.8,0.9-1.9,1.8-3.3,2.7c-0.1,0.1-0.2,0.1-0.2,0.2
		c0,0.1,0.1,0.2,0.2,0.2l0.3,0.2c0.1,0.1,0.2,0.1,0.4,0.1h1.6c0.2,0,0.3-0.1,0.3-0.3c0-0.6,0-1-0.1-1.2v-0.1c0-0.2,0.1-0.2,0.2-0.2
		c0,0,0.1,0,0.1,0c0.4,0.1,0.6,0.2,0.8,0.3c0.1,0.1,0.2,0.1,0.2,0.2c0,0,0,0.1-0.1,0.1l0,0c-0.1,0.1-0.2,0.2-0.2,0.4v0.4
		c0,0.1,0,0.2,0.1,0.2c0.1,0.1,0.1,0.1,0.2,0.1h1.6C128.7,103.7,128.8,103.6,128.9,103.5z M128.8,105.5c0.1-0.1,0.1-0.1,0.1-0.2
		v-0.9c0-0.1,0-0.2-0.1-0.2c-0.1-0.1-0.1-0.1-0.2-0.1h-4.8c-0.1,0-0.2,0-0.2,0.1c-0.1,0.1-0.1,0.1-0.1,0.2v0.9c0,0.1,0,0.2,0.1,0.2
		c0.1,0.1,0.1,0.1,0.2,0.1h4.8C128.7,105.6,128.8,105.5,128.8,105.5z M123.6,106.1c-0.1,0.1-0.1,0.1-0.1,0.2v0.9
		c0,0.1,0,0.2,0.1,0.2c0.1,0.1,0.1,0.1,0.2,0.1h4.8c0.1,0,0.2,0,0.2-0.1c0.1-0.1,0.1-0.1,0.1-0.2v-0.9c0-0.1,0-0.2-0.1-0.2
		c-0.1-0.1-0.1-0.1-0.2-0.1h-4.8C123.7,106,123.6,106.1,123.6,106.1z"/>
</g>
<g class="st0">
	<path class="st1" d="M299.8,174.9c0,0.1,0.1,0.1,0.2,0.2c0.5,0.3,0.8,0.5,1.1,0.8c0.3,0.2,0.6,0.5,0.8,0.9c0.2,0.3,0.3,0.8,0.3,1.2
		c0,0.6-0.2,1.1-0.5,1.6c-0.3,0.5-0.7,0.8-1.2,1.1c-0.5,0.3-1,0.4-1.6,0.4c-0.6,0-1.1-0.1-1.6-0.4c-0.5-0.2-0.9-0.6-1.2-1
		c-0.3-0.4-0.5-0.9-0.5-1.5c0-0.6,0.2-1.1,0.5-1.5s0.8-0.8,1.5-1.1c0.1-0.1,0.2-0.1,0.2-0.2c0-0.1-0.1-0.2-0.2-0.2
		c-0.5-0.3-0.9-0.7-1.2-1.1c-0.3-0.4-0.4-0.9-0.4-1.6c0-0.4,0.1-0.9,0.3-1.3s0.5-0.8,1-1c0.4-0.3,0.9-0.4,1.6-0.4
		c0.5,0,0.9,0.1,1.4,0.3c0.4,0.2,0.8,0.5,1,0.9s0.4,0.8,0.4,1.3c0,0.9-0.5,1.7-1.6,2.4C299.9,174.8,299.8,174.9,299.8,174.9z
		 M300.5,179.9c0.4-0.4,0.6-1,0.6-1.7c0-0.5-0.2-1-0.7-1.3s-1-0.8-1.8-1.2c-0.1,0-0.1-0.1-0.2-0.1c-0.1,0-0.1,0-0.2,0.1
		c-0.4,0.3-0.7,0.7-1,1.2s-0.4,0.9-0.4,1.4c0,0.4,0.1,0.8,0.2,1.1c0.2,0.4,0.4,0.6,0.7,0.9c0.3,0.2,0.7,0.3,1.1,0.3
		C299.5,180.6,300.1,180.4,300.5,179.9z M297.2,173.1c0.2,0.3,0.4,0.5,0.7,0.7s0.7,0.5,1.2,0.8c0.1,0,0.1,0.1,0.2,0.1
		c0.1,0,0.2,0,0.2-0.1c0.7-0.6,1-1.3,1-2.2c0-0.3-0.1-0.6-0.2-0.9c-0.1-0.3-0.3-0.6-0.6-0.8c-0.3-0.2-0.6-0.3-1.1-0.3
		c-0.4,0-0.7,0.1-1,0.3c-0.3,0.2-0.5,0.4-0.6,0.7c-0.1,0.3-0.2,0.5-0.2,0.8C296.9,172.5,297,172.8,297.2,173.1z"/>
	<path class="st1" d="M304.2,182.4C304.2,182.4,304.2,182.4,304.2,182.4c0-0.1,0-0.1,0-0.1c0.2-0.2,0.3-0.3,0.4-0.5
		c0.1-0.2,0.1-0.3,0.1-0.4c0-0.2-0.1-0.3-0.2-0.3c-0.2-0.1-0.3-0.2-0.4-0.3c-0.1-0.1-0.1-0.3-0.1-0.4c0-0.2,0.1-0.4,0.2-0.6
		c0.2-0.2,0.4-0.2,0.6-0.2s0.4,0.1,0.6,0.2c0.2,0.2,0.2,0.4,0.2,0.6c0,0.5-0.1,0.9-0.4,1.2c-0.3,0.4-0.6,0.7-0.9,0.9L304.2,182.4
		C304.3,182.5,304.2,182.5,304.2,182.4z"/>
	<path class="st1" d="M309,180.5c-0.5-0.4-0.9-1-1.2-1.9c-0.3-0.8-0.4-1.9-0.4-3.1s0.1-2.2,0.4-3.1c0.3-0.9,0.7-1.5,1.2-1.9
		c0.5-0.4,1-0.6,1.6-0.6c0.6,0,1.1,0.2,1.6,0.6c0.5,0.4,0.9,1.1,1.2,1.9c0.3,0.8,0.4,1.9,0.4,3.1s-0.2,2.2-0.5,3.1
		c-0.3,0.8-0.7,1.5-1.2,1.9c-0.5,0.4-1,0.6-1.6,0.6C310.1,181.1,309.5,180.9,309,180.5z M312,179.3c0.3-0.8,0.5-2.1,0.5-3.8
		s-0.2-3-0.5-3.8c-0.3-0.9-0.8-1.3-1.4-1.3c-0.6,0-1.1,0.4-1.4,1.3c-0.3,0.9-0.5,2.1-0.5,3.8s0.2,3,0.5,3.8c0.3,0.8,0.8,1.3,1.4,1.3
		C311.2,180.6,311.7,180.2,312,179.3z"/>
	<path class="st1" d="M316.8,180.5c-0.5-0.4-0.9-1-1.2-1.9c-0.3-0.8-0.4-1.9-0.4-3.1s0.1-2.2,0.4-3.1c0.3-0.9,0.7-1.5,1.2-1.9
		c0.5-0.4,1-0.6,1.6-0.6c0.6,0,1.1,0.2,1.6,0.6c0.5,0.4,0.9,1.1,1.2,1.9c0.3,0.8,0.4,1.9,0.4,3.1s-0.2,2.2-0.5,3.1
		c-0.3,0.8-0.7,1.5-1.2,1.9c-0.5,0.4-1,0.6-1.6,0.6C317.9,181.1,317.3,180.9,316.8,180.5z M319.8,179.3c0.3-0.8,0.5-2.1,0.5-3.8
		s-0.2-3-0.5-3.8c-0.3-0.9-0.8-1.3-1.4-1.3c-0.6,0-1.1,0.4-1.4,1.3c-0.3,0.9-0.5,2.1-0.5,3.8s0.2,3,0.5,3.8c0.3,0.8,0.8,1.3,1.4,1.3
		C319,180.6,319.5,180.2,319.8,179.3z"/>
	<path class="st1" d="M324.6,180.5c-0.5-0.4-0.9-1-1.2-1.9c-0.3-0.8-0.4-1.9-0.4-3.1s0.1-2.2,0.4-3.1c0.3-0.9,0.7-1.5,1.2-1.9
		c0.5-0.4,1-0.6,1.6-0.6c0.6,0,1.1,0.2,1.6,0.6c0.5,0.4,0.9,1.1,1.2,1.9c0.3,0.8,0.4,1.9,0.4,3.1s-0.2,2.2-0.5,3.1
		c-0.3,0.8-0.7,1.5-1.2,1.9c-0.5,0.4-1,0.6-1.6,0.6C325.7,181.1,325.1,180.9,324.6,180.5z M327.6,179.3c0.3-0.8,0.5-2.1,0.5-3.8
		s-0.2-3-0.5-3.8c-0.3-0.9-0.8-1.3-1.4-1.3c-0.6,0-1.1,0.4-1.4,1.3c-0.3,0.9-0.5,2.1-0.5,3.8s0.2,3,0.5,3.8c0.3,0.8,0.8,1.3,1.4,1.3
		C326.8,180.6,327.3,180.2,327.6,179.3z"/>
	<path class="st1" d="M333.1,175.5c-0.1,0.1-0.1,0.1-0.1,0.2v2.3c0,1.1,0.1,2.2,0.1,3.3v0.1c0,0.1,0,0.2-0.1,0.3
		c-0.2,0.2-0.4,0.3-0.8,0.3c-0.1,0-0.2,0-0.2-0.1c-0.1-0.1-0.1-0.1-0.1-0.2c0-0.6,0.1-1.2,0.1-1.7c0-0.6,0-1.3,0.1-2.2v-5.7
		c0-1,0-1.8-0.1-2.6v-0.1c0-0.2,0.1-0.2,0.2-0.2c0,0,0.1,0,0.2,0l0.6,0.3c0.1,0.1,0.3,0.1,0.4,0.1h8.5c0.2,0,0.3-0.1,0.4-0.2
		l0.1-0.1c0,0,0.1-0.1,0.1-0.2c0.1-0.1,0.1-0.1,0.2-0.1c0.1,0,0.2,0.1,0.5,0.3c0.2,0.2,0.4,0.3,0.6,0.5c0,0.1,0.1,0.1,0.1,0.2
		c0,0.1,0,0.1-0.1,0.2c0,0-0.1,0-0.1,0c0,0-0.1,0-0.1,0c-0.2,0.1-0.3,0.2-0.3,0.3v10c0,0.4-0.1,0.7-0.3,0.9
		c-0.2,0.2-0.6,0.4-1.1,0.4l-0.1,0c-0.1,0-0.2-0.1-0.3-0.3c-0.1-0.2-0.2-0.3-0.3-0.4c-0.2-0.2-0.7-0.3-1.2-0.3
		c-0.2,0-0.3-0.1-0.3-0.2s0.1-0.1,0.3-0.1c1,0.1,1.6,0.1,1.9,0.1c0.2,0,0.3,0,0.3-0.1c0.1-0.1,0.1-0.2,0.1-0.3v-4.6
		c0-0.1,0-0.2-0.1-0.2c-0.1-0.1-0.1-0.1-0.2-0.1h-8.6C333.3,175.5,333.2,175.5,333.1,175.5z M337,170.2c-0.1-0.1-0.1-0.1-0.2-0.1
		h-3.4c-0.1,0-0.2,0-0.2,0.1c-0.1,0.1-0.1,0.1-0.1,0.2v4.3c0,0.1,0,0.2,0.1,0.2c0.1,0.1,0.1,0.1,0.2,0.1h3.4c0.1,0,0.2,0,0.2-0.1
		c0.1-0.1,0.1-0.1,0.1-0.2v-4.3C337.1,170.3,337.1,170.2,337,170.2z M338.2,170.2c-0.1,0.1-0.1,0.1-0.1,0.2v4.3c0,0.1,0,0.2,0.1,0.2
		c0.1,0.1,0.1,0.1,0.2,0.1h3.5c0.1,0,0.2,0,0.2-0.1c0.1-0.1,0.1-0.1,0.1-0.2v-4.3c0-0.1,0-0.2-0.1-0.2c-0.1-0.1-0.1-0.1-0.2-0.1
		h-3.5C338.3,170.1,338.2,170.1,338.2,170.2z"/>
</g>
<g class="st0">
	<path class="st1" d="M492.4,170.4c0.5,0.4,0.9,0.9,1.2,1.6c0.3,0.7,0.4,1.5,0.4,2.4c0,1.4-0.2,2.7-0.6,3.7s-0.9,1.8-1.5,2.3
		c-0.6,0.5-1.2,0.8-1.8,0.8c-0.5,0-0.9-0.1-1.2-0.2c-0.3-0.1-0.6-0.3-0.8-0.5s-0.3-0.5-0.3-0.7c0-0.2,0.1-0.4,0.2-0.5
		c0.1-0.1,0.3-0.2,0.5-0.2c0.2,0,0.4,0.1,0.6,0.3c0.2,0.2,0.2,0.4,0.3,0.7c0,0.2,0.1,0.4,0.2,0.5c0.1,0.1,0.3,0.2,0.5,0.2
		c0.7,0,1.2-0.4,1.6-1.3c0.4-0.8,0.7-1.9,0.8-3c0-0.1,0-0.2,0-0.2c0-0.1-0.1-0.1-0.2-0.1s-0.2,0-0.3,0.1c-0.5,0.5-1.2,0.8-1.9,0.8
		c-0.6,0-1.1-0.1-1.5-0.4c-0.4-0.3-0.7-0.7-1-1.2c-0.2-0.5-0.3-1-0.3-1.5c0-0.7,0.1-1.3,0.4-1.9c0.3-0.6,0.6-1.1,1.1-1.4
		c0.5-0.3,1-0.5,1.7-0.5C491.3,169.9,491.9,170.1,492.4,170.4z M491.8,175.8c0.4-0.3,0.7-0.7,0.9-1.2c0-0.1,0.1-0.3,0.1-0.4
		c0-1.1-0.2-1.9-0.5-2.7s-0.8-1.1-1.6-1.1c-0.4,0-0.7,0.1-1,0.4c-0.3,0.3-0.5,0.6-0.7,1.1s-0.2,1-0.2,1.6c0,1.1,0.2,1.8,0.6,2.1
		c0.4,0.4,0.8,0.5,1.3,0.5C491.1,176.2,491.5,176,491.8,175.8z"/>
	<path class="st1" d="M496.1,182.4C496.1,182.4,496.1,182.4,496.1,182.4c0-0.1,0-0.1,0-0.1c0.2-0.2,0.3-0.3,0.4-0.5
		c0.1-0.2,0.1-0.3,0.1-0.4c0-0.2-0.1-0.3-0.2-0.3c-0.2-0.1-0.3-0.2-0.4-0.3c-0.1-0.1-0.1-0.3-0.1-0.4c0-0.2,0.1-0.4,0.2-0.6
		s0.4-0.2,0.6-0.2c0.2,0,0.4,0.1,0.6,0.2s0.2,0.4,0.2,0.6c0,0.5-0.1,0.9-0.4,1.2c-0.3,0.4-0.6,0.7-0.9,0.9L496.1,182.4
		C496.2,182.5,496.1,182.5,496.1,182.4z"/>
	<path class="st1" d="M501,180.5c-0.5-0.4-0.9-1-1.2-1.9c-0.3-0.8-0.4-1.9-0.4-3.1s0.1-2.2,0.4-3.1c0.3-0.9,0.7-1.5,1.2-1.9
		c0.5-0.4,1-0.6,1.6-0.6c0.6,0,1.1,0.2,1.6,0.6c0.5,0.4,0.9,1.1,1.2,1.9c0.3,0.8,0.4,1.9,0.4,3.1s-0.2,2.2-0.5,3.1
		c-0.3,0.8-0.7,1.5-1.2,1.9c-0.5,0.4-1,0.6-1.6,0.6C502,181.1,501.4,180.9,501,180.5z M503.9,179.3c0.3-0.8,0.5-2.1,0.5-3.8
		s-0.2-3-0.5-3.8c-0.3-0.9-0.8-1.3-1.4-1.3c-0.6,0-1.1,0.4-1.4,1.3c-0.3,0.9-0.5,2.1-0.5,3.8s0.2,3,0.5,3.8s0.8,1.3,1.4,1.3
		C503.1,180.6,503.6,180.2,503.9,179.3z"/>
	<path class="st1" d="M508.8,180.5c-0.5-0.4-0.9-1-1.2-1.9c-0.3-0.8-0.4-1.9-0.4-3.1s0.2-2.2,0.5-3.1c0.3-0.9,0.7-1.5,1.2-1.9
		c0.5-0.4,1-0.6,1.6-0.6c0.6,0,1.1,0.2,1.6,0.6c0.5,0.4,0.9,1.1,1.2,1.9c0.3,0.8,0.4,1.9,0.4,3.1s-0.2,2.2-0.5,3.1
		c-0.3,0.8-0.7,1.5-1.2,1.9s-1,0.6-1.6,0.6C509.8,181.1,509.2,180.9,508.8,180.5z M511.7,179.3c0.3-0.8,0.5-2.1,0.5-3.8
		s-0.2-3-0.5-3.8c-0.3-0.9-0.8-1.3-1.4-1.3c-0.6,0-1.1,0.4-1.4,1.3c-0.3,0.9-0.5,2.1-0.5,3.8s0.2,3,0.5,3.8c0.3,0.8,0.8,1.3,1.4,1.3
		C510.9,180.6,511.4,180.2,511.7,179.3z"/>
	<path class="st1" d="M516.6,180.5c-0.5-0.4-0.9-1-1.2-1.9c-0.3-0.8-0.4-1.9-0.4-3.1s0.1-2.2,0.4-3.1c0.3-0.9,0.7-1.5,1.2-1.9
		c0.5-0.4,1-0.6,1.6-0.6c0.6,0,1.1,0.2,1.6,0.6c0.5,0.4,0.9,1.1,1.2,1.9c0.3,0.8,0.4,1.9,0.4,3.1s-0.2,2.2-0.5,3.1
		c-0.3,0.8-0.7,1.5-1.2,1.9c-0.5,0.4-1,0.6-1.6,0.6C517.6,181.1,517,180.9,516.6,180.5z M519.5,179.3c0.3-0.8,0.5-2.1,0.5-3.8
		s-0.2-3-0.5-3.8c-0.3-0.9-0.8-1.3-1.4-1.3c-0.6,0-1.1,0.4-1.4,1.3c-0.3,0.9-0.5,2.1-0.5,3.8s0.2,3,0.5,3.8s0.8,1.3,1.4,1.3
		C518.7,180.6,519.2,180.2,519.5,179.3z"/>
	<path class="st1" d="M525.1,175.5c-0.1,0.1-0.1,0.1-0.1,0.2v2.3c0,1.1,0.1,2.2,0.1,3.3v0.1c0,0.1,0,0.2-0.1,0.3
		c-0.2,0.2-0.5,0.3-0.8,0.3c-0.1,0-0.2,0-0.2-0.1c-0.1-0.1-0.1-0.1-0.1-0.2c0-0.6,0.1-1.2,0.1-1.7c0-0.6,0-1.3,0.1-2.2v-5.7
		c0-1,0-1.8-0.1-2.6v-0.1c0-0.2,0.1-0.2,0.2-0.2c0,0,0.1,0,0.2,0l0.6,0.3c0.1,0.1,0.3,0.1,0.4,0.1h8.5c0.2,0,0.3-0.1,0.4-0.2
		l0.1-0.1c0,0,0.1-0.1,0.1-0.2c0.1-0.1,0.1-0.1,0.2-0.1c0.1,0,0.2,0.1,0.5,0.3c0.2,0.2,0.4,0.3,0.6,0.5c0,0.1,0.1,0.1,0.1,0.2
		c0,0.1,0,0.1-0.1,0.2c0,0-0.1,0-0.1,0c0,0-0.1,0-0.1,0c-0.2,0.1-0.3,0.2-0.3,0.3v10c0,0.4-0.1,0.7-0.3,0.9
		c-0.2,0.2-0.6,0.4-1.1,0.4l-0.1,0c-0.1,0-0.2-0.1-0.3-0.3c-0.1-0.2-0.2-0.3-0.3-0.4c-0.2-0.2-0.7-0.3-1.2-0.3
		c-0.2,0-0.3-0.1-0.3-0.2s0.1-0.1,0.3-0.1c1,0.1,1.6,0.1,1.9,0.1c0.2,0,0.3,0,0.3-0.1c0.1-0.1,0.1-0.2,0.1-0.3v-4.6
		c0-0.1,0-0.2-0.1-0.2c-0.1-0.1-0.1-0.1-0.2-0.1h-8.6C525.2,175.5,525.1,175.5,525.1,175.5z M529,170.2c-0.1-0.1-0.1-0.1-0.2-0.1
		h-3.4c-0.1,0-0.2,0-0.2,0.1c-0.1,0.1-0.1,0.1-0.1,0.2v4.3c0,0.1,0,0.2,0.1,0.2c0.1,0.1,0.1,0.1,0.2,0.1h3.4c0.1,0,0.2,0,0.2-0.1
		c0.1-0.1,0.1-0.1,0.1-0.2v-4.3C529,170.3,529,170.2,529,170.2z M530.1,170.2c-0.1,0.1-0.1,0.1-0.1,0.2v4.3c0,0.1,0,0.2,0.1,0.2
		c0.1,0.1,0.1,0.1,0.2,0.1h3.5c0.1,0,0.2,0,0.2-0.1c0.1-0.1,0.1-0.1,0.1-0.2v-4.3c0-0.1,0-0.2-0.1-0.2c-0.1-0.1-0.1-0.1-0.2-0.1
		h-3.5C530.2,170.1,530.1,170.1,530.1,170.2z"/>
</g>
<g class="st0">
	<path class="st1" d="M676.5,180.9c-0.1,0-0.1-0.1-0.1-0.2c0-0.2,0-0.2,0.1-0.2h0.2c0.5,0,0.9-0.1,1.2-0.2c0.3-0.1,0.4-0.4,0.4-0.7
		v-7.2c0-0.3,0-0.5-0.1-0.6c-0.1-0.1-0.2-0.2-0.4-0.2s-0.6-0.1-1.1-0.1h-0.3c-0.1,0-0.1-0.1-0.1-0.2c0-0.1,0-0.2,0.1-0.2
		c0.5,0,1-0.1,1.5-0.2s0.8-0.4,1.2-0.7c0.1-0.1,0.1-0.1,0.2-0.1c0.1,0,0.2,0.1,0.2,0.3v9.2c0,0.6,0.5,0.9,1.6,0.9h0.2
		c0,0,0.1,0,0.1,0.1c0,0,0,0.1,0,0.2c0,0.1,0,0.2-0.1,0.2H676.5z"/>
	<path class="st1" d="M684.8,180.5c-0.5-0.4-0.9-1-1.2-1.9c-0.3-0.8-0.4-1.9-0.4-3.1s0.2-2.2,0.5-3.1c0.3-0.9,0.7-1.5,1.2-1.9
		c0.5-0.4,1-0.6,1.6-0.6c0.6,0,1.1,0.2,1.6,0.6c0.5,0.4,0.9,1.1,1.2,1.9c0.3,0.8,0.4,1.9,0.4,3.1s-0.2,2.2-0.5,3.1
		c-0.3,0.8-0.7,1.5-1.2,1.9s-1,0.6-1.6,0.6C685.8,181.1,685.3,180.9,684.8,180.5z M687.8,179.3c0.3-0.8,0.5-2.1,0.5-3.8
		s-0.2-3-0.5-3.8c-0.3-0.9-0.8-1.3-1.4-1.3c-0.6,0-1.1,0.4-1.4,1.3c-0.3,0.9-0.5,2.1-0.5,3.8s0.2,3,0.5,3.8c0.3,0.8,0.8,1.3,1.4,1.3
		C687,180.6,687.4,180.2,687.8,179.3z"/>
	<path class="st1" d="M691.5,182.4C691.5,182.4,691.5,182.4,691.5,182.4c0-0.1,0-0.1,0-0.1c0.2-0.2,0.3-0.3,0.4-0.5
		c0.1-0.2,0.1-0.3,0.1-0.4c0-0.2-0.1-0.3-0.2-0.3c-0.2-0.1-0.3-0.2-0.4-0.3c-0.1-0.1-0.1-0.3-0.1-0.4c0-0.2,0.1-0.4,0.2-0.6
		s0.4-0.2,0.6-0.2c0.2,0,0.4,0.1,0.6,0.2s0.2,0.4,0.2,0.6c0,0.5-0.1,0.9-0.4,1.2c-0.3,0.4-0.6,0.7-0.9,0.9L691.5,182.4
		C691.6,182.5,691.5,182.5,691.5,182.4z"/>
	<path class="st1" d="M696.3,180.5c-0.5-0.4-0.9-1-1.2-1.9c-0.3-0.8-0.4-1.9-0.4-3.1s0.1-2.2,0.4-3.1c0.3-0.9,0.7-1.5,1.2-1.9
		c0.5-0.4,1-0.6,1.6-0.6c0.6,0,1.1,0.2,1.6,0.6c0.5,0.4,0.9,1.1,1.2,1.9c0.3,0.8,0.4,1.9,0.4,3.1s-0.2,2.2-0.5,3.1
		c-0.3,0.8-0.7,1.5-1.2,1.9c-0.5,0.4-1,0.6-1.6,0.6C697.4,181.1,696.8,180.9,696.3,180.5z M699.3,179.3c0.3-0.8,0.5-2.1,0.5-3.8
		s-0.2-3-0.5-3.8c-0.3-0.9-0.8-1.3-1.4-1.3c-0.6,0-1.1,0.4-1.4,1.3c-0.3,0.9-0.5,2.1-0.5,3.8s0.2,3,0.5,3.8s0.8,1.3,1.4,1.3
		C698.5,180.6,699,180.2,699.3,179.3z"/>
	<path class="st1" d="M704.1,180.5c-0.5-0.4-0.9-1-1.2-1.9c-0.3-0.8-0.4-1.9-0.4-3.1s0.2-2.2,0.5-3.1c0.3-0.9,0.7-1.5,1.2-1.9
		c0.5-0.4,1-0.6,1.6-0.6c0.6,0,1.1,0.2,1.6,0.6c0.5,0.4,0.9,1.1,1.2,1.9c0.3,0.8,0.4,1.9,0.4,3.1s-0.2,2.2-0.5,3.1
		c-0.3,0.8-0.7,1.5-1.2,1.9s-1,0.6-1.6,0.6C705.2,181.1,704.6,180.9,704.1,180.5z M707.1,179.3c0.3-0.8,0.5-2.1,0.5-3.8
		s-0.2-3-0.5-3.8c-0.3-0.9-0.8-1.3-1.4-1.3c-0.6,0-1.1,0.4-1.4,1.3c-0.3,0.9-0.5,2.1-0.5,3.8s0.2,3,0.5,3.8c0.3,0.8,0.8,1.3,1.4,1.3
		C706.3,180.6,706.8,180.2,707.1,179.3z"/>
	<path class="st1" d="M711.9,180.5c-0.5-0.4-0.9-1-1.2-1.9c-0.3-0.8-0.4-1.9-0.4-3.1s0.1-2.2,0.4-3.1c0.3-0.9,0.7-1.5,1.2-1.9
		c0.5-0.4,1-0.6,1.6-0.6c0.6,0,1.1,0.2,1.6,0.6c0.5,0.4,0.9,1.1,1.2,1.9c0.3,0.8,0.4,1.9,0.4,3.1s-0.2,2.2-0.5,3.1
		c-0.3,0.8-0.7,1.5-1.2,1.9c-0.5,0.4-1,0.6-1.6,0.6C713,181.1,712.4,180.9,711.9,180.5z M714.9,179.3c0.3-0.8,0.5-2.1,0.5-3.8
		s-0.2-3-0.5-3.8c-0.3-0.9-0.8-1.3-1.4-1.3c-0.6,0-1.1,0.4-1.4,1.3c-0.3,0.9-0.5,2.1-0.5,3.8s0.2,3,0.5,3.8s0.8,1.3,1.4,1.3
		C714.1,180.6,714.6,180.2,714.9,179.3z"/>
	<path class="st1" d="M720.5,175.5c-0.1,0.1-0.1,0.1-0.1,0.2v2.3c0,1.1,0.1,2.2,0.1,3.3v0.1c0,0.1,0,0.2-0.1,0.3
		c-0.2,0.2-0.5,0.3-0.8,0.3c-0.1,0-0.2,0-0.2-0.1c-0.1-0.1-0.1-0.1-0.1-0.2c0-0.6,0.1-1.2,0.1-1.7c0-0.6,0-1.3,0.1-2.2v-5.7
		c0-1,0-1.8-0.1-2.6v-0.1c0-0.2,0.1-0.2,0.2-0.2c0,0,0.1,0,0.2,0l0.6,0.3c0.1,0.1,0.3,0.1,0.4,0.1h8.5c0.2,0,0.3-0.1,0.4-0.2
		l0.1-0.1c0,0,0.1-0.1,0.1-0.2c0.1-0.1,0.1-0.1,0.2-0.1c0.1,0,0.2,0.1,0.5,0.3c0.2,0.2,0.4,0.3,0.6,0.5c0,0.1,0.1,0.1,0.1,0.2
		c0,0.1,0,0.1-0.1,0.2c0,0-0.1,0-0.1,0c0,0-0.1,0-0.1,0c-0.2,0.1-0.3,0.2-0.3,0.3v10c0,0.4-0.1,0.7-0.3,0.9
		c-0.2,0.2-0.6,0.4-1.1,0.4l-0.1,0c-0.1,0-0.2-0.1-0.3-0.3c-0.1-0.2-0.2-0.3-0.3-0.4c-0.2-0.2-0.7-0.3-1.2-0.3
		c-0.2,0-0.3-0.1-0.3-0.2s0.1-0.1,0.3-0.1c1,0.1,1.6,0.1,1.9,0.1c0.2,0,0.3,0,0.3-0.1c0.1-0.1,0.1-0.2,0.1-0.3v-4.6
		c0-0.1,0-0.2-0.1-0.2c-0.1-0.1-0.1-0.1-0.2-0.1h-8.6C720.6,175.5,720.5,175.5,720.5,175.5z M724.4,170.2c-0.1-0.1-0.1-0.1-0.2-0.1
		h-3.4c-0.1,0-0.2,0-0.2,0.1c-0.1,0.1-0.1,0.1-0.1,0.2v4.3c0,0.1,0,0.2,0.1,0.2c0.1,0.1,0.1,0.1,0.2,0.1h3.4c0.1,0,0.2,0,0.2-0.1
		c0.1-0.1,0.1-0.1,0.1-0.2v-4.3C724.4,170.3,724.4,170.2,724.4,170.2z M725.5,170.2c-0.1,0.1-0.1,0.1-0.1,0.2v4.3
		c0,0.1,0,0.2,0.1,0.2c0.1,0.1,0.1,0.1,0.2,0.1h3.5c0.1,0,0.2,0,0.2-0.1c0.1-0.1,0.1-0.1,0.1-0.2v-4.3c0-0.1,0-0.2-0.1-0.2
		c-0.1-0.1-0.1-0.1-0.2-0.1h-3.5C725.6,170.1,725.5,170.1,725.5,170.2z"/>
</g>
<line id="線_29" class="st2" x1="0" y1="0.5" x2="800" y2="0.5"/>
<line id="線_30" class="st2" x1="0" y1="70.5" x2="800" y2="70.5"/>
<line id="線_38" class="st2" x1="222.5" y1="0" x2="222.5" y2="210.2"/>
<line id="線_36" class="st2" x1="415.5" y1="0" x2="415.5" y2="210.4"/>
<line id="線_31" class="st2" x1="607.5" y1="0" x2="607.5" y2="210.4"/>
<line id="線_32" class="st2" x1="0" y1="210.5" x2="800" y2="210.5"/>
<line id="線_33" class="st2" x1="0" y1="140.5" x2="800" y2="140.5"/>
</svg>
