<?xml version="1.0" encoding="UTF-8"?>
<svg id="_レイヤー_2" data-name="レイヤー 2" xmlns="http://www.w3.org/2000/svg" viewBox="0 0 800 421">
  <defs>
    <style>
      .cls-1 {
        isolation: isolate;
      }

      .cls-2 {
        fill: #fff;
        stroke-width: 0px;
      }

      .cls-3 {
        fill: none;
        stroke: #707070;
      }
    </style>
  </defs>
  <g id="_レイヤー_1-2" data-name="レイヤー 1">
    <g id="_平日" data-name="平日" class="cls-1">
      <g class="cls-1">
        <path class="cls-2" d="m316.31,29.47l.2-.27s.08-.11.15-.2c.07-.09.13-.17.17-.21s.09-.07.13-.07c.06,0,.2.08.41.24s.42.33.61.52c.19.18.29.31.29.38,0,.16-.13.24-.38.24h-4.77c-.1,0-.18.03-.23.08-.06.05-.08.13-.08.23v5.5c0,.1.03.18.08.23.05.05.13.08.23.08h3.45c.17,0,.3-.06.39-.19l.2-.27s.08-.11.15-.2c.07-.09.13-.17.17-.21s.09-.07.13-.07c.08,0,.27.12.57.36.3.24.51.45.64.62.05.07.08.13.08.18s-.02.1-.08.15c-.08.05-.17.08-.29.08h-5.41c-.1,0-.18.03-.23.08s-.08.13-.08.23v1.44c.02,1.06.05,2.13.1,3.21v.08c0,.13-.04.23-.13.31-.21.17-.47.25-.79.25-.07,0-.14-.03-.2-.09-.06-.06-.1-.13-.1-.21.04-.52.07-1.03.1-1.53.03-.5.04-1.14.05-1.91v-1.56c0-.1-.03-.18-.08-.23-.05-.05-.13-.08-.23-.08h-3.27c-.61,0-1.27.07-1.98.17h-.09c-.14,0-.24-.07-.3-.2l-.06-.12c-.03-.06-.04-.12-.04-.18s.02-.11.08-.14c.05-.04.12-.05.21-.04.34.03.85.05,1.54.07h3.92c.1,0,.18-.03.23-.08s.08-.13.08-.23v-5.5c0-.1-.03-.18-.08-.23-.05-.06-.13-.08-.23-.08h-2.5c-.63,0-1.29.07-1.98.17h-.08c-.14,0-.24-.06-.31-.2l-.06-.12c-.04-.1-.06-.16-.06-.18,0-.06.02-.11.08-.14.05-.03.12-.05.21-.04.34.03.85.05,1.54.08h7.58c.17,0,.3-.07.39-.2Zm-8.46,1.61l.04-.02c.05,0,.13.04.26.13.69.56,1.2,1.13,1.52,1.7.33.58.49,1.09.49,1.54,0,.25-.05.45-.14.61-.1.16-.22.23-.37.23-.08,0-.17-.03-.26-.09-.11-.06-.17-.17-.2-.34-.06-.51-.21-1.07-.45-1.67-.24-.6-.52-1.19-.84-1.76-.11-.19-.13-.3-.06-.33Zm8.07-.08s.11.01.16.04l.38.18c.14.07.26.12.36.15.29.1.43.19.43.27,0,.06-.06.11-.18.13l-.04.02c-.15.05-.26.13-.33.25-.69,1.24-1.43,2.29-2.23,3.15-.12.15-.22.19-.3.13-.03-.03-.04-.07-.04-.11,0-.06.03-.13.09-.22.11-.2.23-.45.36-.75l.15-.3c.18-.4.36-.86.54-1.37s.32-.96.42-1.37c.03-.15.11-.22.24-.22Z"/>
        <path class="cls-2" d="m324.06,40.89c-.05.05-.08.13-.08.23,0,.1.02.21.02.33v.17c.01.09-.01.17-.06.22-.08.09-.19.16-.31.22-.13.05-.28.08-.44.08-.08,0-.15-.03-.22-.1-.07-.06-.1-.13-.1-.2.04-.59.07-1.16.1-1.72.03-.55.05-1.28.06-2.18v-5.46c0-.97-.04-1.84-.13-2.62v-.06c0-.07.02-.13.05-.17s.08-.07.13-.07.11.02.17.04l.64.32c.11.06.24.09.39.09h6.03c.16,0,.29-.07.38-.2l.11-.13s.05-.08.1-.14c.05-.06.09-.11.14-.14.04-.03.08-.04.12-.04.07,0,.22.09.46.27.24.18.43.35.55.51.04.05.06.1.06.17,0,.07-.04.13-.13.19-.04.02-.09.04-.15.06-.18.07-.27.19-.27.36v7.17c.02,1.09.05,2.19.11,3.3v.08c0,.14-.05.24-.15.3-.11.09-.24.17-.38.22-.14.06-.28.09-.41.09-.08,0-.13-.04-.17-.12-.02-.03-.03-.08-.03-.14,0-.03,0-.1.03-.22,0-.02,0-.14.03-.36v-.1c0-.1-.03-.18-.08-.23s-.13-.08-.23-.08h-6.09c-.1,0-.18.03-.23.08Zm6.56-5.88c.05-.06.08-.13.08-.23v-4.02c0-.1-.03-.18-.08-.23-.06-.05-.13-.08-.23-.08h-6.09c-.1,0-.18.03-.23.08s-.08.13-.08.23v4.02c0,.1.03.18.08.23.05.05.13.08.23.08h6.09c.1,0,.18-.03.23-.08Zm-6.56.6c-.05.05-.08.13-.08.23v4.21c0,.1.03.18.08.23.05.06.13.08.23.08h6.09c.1,0,.18-.03.23-.08s.08-.13.08-.23v-4.21c0-.1-.03-.18-.08-.23-.06-.05-.13-.08-.23-.08h-6.09c-.1,0-.18.03-.23.08Z"/>
      </g>
    </g>
    <g id="_週末と指定日" data-name="週末と指定日" class="cls-1">
      <g class="cls-1">
        <path class="cls-2" d="m473.5,34.83l.12-.2s.07-.1.12-.19c.05-.08.09-.15.13-.19s.07-.06.11-.06c.07,0,.23.11.49.33.25.22.45.42.58.6.04.05.06.1.06.17,0,.08-.05.14-.15.19-.07.04-.14.07-.21.08-.19.06-.28.18-.28.35v3.52c0,.15.05.28.15.39.32.35.67.61,1.07.79.39.17.85.29,1.37.35.52.06,1.22.09,2.09.09,2.52,0,4.35-.01,5.5-.04h.08c.07,0,.13,0,.17.03.04.02.07.04.07.06,0,.03-.03.06-.08.09-.05.03-.11.07-.18.11-.19.09-.32.24-.4.45-.06.18-.18.27-.35.27h-4.81c-.88,0-1.6-.05-2.15-.14-.56-.09-1.04-.26-1.44-.51s-.77-.61-1.1-1.09c-.06-.1-.13-.15-.22-.15-.08,0-.15.04-.2.12-.48.58-.96,1.1-1.46,1.57-.1.1-.15.17-.15.2v.08h-.12c-.11.01-.19-.03-.24-.12l-.32-.54c-.04-.08-.06-.14-.06-.18,0-.1.06-.19.18-.25.47-.25.97-.54,1.5-.89.14-.08.21-.2.21-.38v-3.93c0-.1-.03-.18-.08-.23s-.13-.08-.23-.08h-.3c-.24.01-.51.05-.8.12-.03.01-.08.02-.13.02-.12,0-.21-.07-.27-.2l-.04-.09c-.03-.06-.04-.11-.04-.15,0-.08.03-.13.08-.17.05-.03.13-.04.23-.03.18.02.45.04.81.06h.33c.16,0,.29-.08.38-.22Zm-1.39-5.62s.04-.08.11-.08c.03,0,.1.02.22.06.78.3,1.35.66,1.71,1.08.36.42.54.82.54,1.2,0,.19-.05.34-.14.46-.1.12-.21.18-.35.18-.07,0-.14-.01-.21-.04-.13-.05-.21-.15-.24-.3-.11-.38-.3-.78-.57-1.2-.27-.42-.56-.79-.88-1.11-.12-.12-.18-.21-.18-.25Zm10.8.07l.08-.13s.05-.08.1-.14c.04-.06.08-.11.12-.15s.07-.05.11-.05c.07,0,.22.09.45.28.23.19.42.36.56.52.04.05.06.11.06.17,0,.08-.05.15-.15.21l-.13.08c-.09.04-.16.08-.2.13s-.07.12-.07.21v8.64c0,.38-.07.67-.22.86-.15.19-.44.33-.89.41h-.09c-.12.01-.21-.08-.28-.25-.05-.16-.13-.27-.23-.33-.19-.14-.47-.23-.84-.29-.2-.05-.3-.1-.3-.17s.08-.09.24-.09c-.02,0,.27.01.87.04l.51.03c.12,0,.21-.02.26-.07.05-.04.07-.12.07-.23v-8.72c0-.1-.03-.18-.08-.23-.05-.05-.13-.08-.23-.08h-5.31c-.1,0-.18.03-.23.08-.05.06-.08.13-.08.23v3.06c0,.92-.03,1.75-.1,2.47-.07.73-.22,1.47-.46,2.22-.24.75-.6,1.42-1.08,2.01-.09.1-.17.15-.23.15-.08,0-.12-.04-.12-.12,0-.04.03-.12.08-.24.43-.86.71-1.8.84-2.83s.2-2.25.2-3.66v-2.15c0-.57-.03-1.16-.08-1.78v-.06c0-.07.02-.12.05-.17s.08-.06.13-.06.11.01.17.04l.6.27c.14.06.27.09.39.09h5.15c.17,0,.3-.07.39-.21Zm-1.56,4.12l.09-.13s.05-.08.1-.14c.04-.06.08-.11.12-.14.04-.03.07-.04.11-.04.08,0,.21.08.4.24s.34.31.44.45c.04.08.06.14.06.18,0,.06-.03.12-.09.17-.07.05-.15.08-.24.08h-2.46c-.61,0-1.27.07-1.98.17h-.09c-.14,0-.24-.07-.3-.2l-.06-.13c-.03-.06-.04-.12-.04-.18,0-.13.09-.19.29-.17.22.02.56.04,1.02.06h.36c.1,0,.18-.03.23-.08.05-.06.08-.13.08-.23v-.81c0-.1-.03-.18-.08-.23-.06-.05-.13-.08-.23-.08h-.27c-.28.02-.51.06-.71.12-.03.01-.07.02-.12.02-.12,0-.22-.07-.3-.2l-.03-.08c-.03-.06-.04-.12-.04-.18,0-.13.09-.18.29-.17.2.02.49.04.87.06h.32c.21,0,.32-.1.32-.31l-.04-.76v-.03c0-.17.07-.25.21-.25.07,0,.12,0,.17.03.54.2.81.36.81.47,0,.03-.04.07-.1.12-.13.07-.19.2-.19.38v.06c0,.1.03.18.08.23s.13.08.23.08h.24c.16,0,.29-.07.38-.21l.07-.1s.07-.09.11-.15c.04-.06.08-.1.11-.13.03-.03.06-.04.1-.04.07,0,.2.08.38.22.18.15.32.29.41.42.04.05.06.11.06.18,0,.06-.02.12-.07.17-.07.05-.16.08-.25.08h-1.53c-.1,0-.18.03-.23.08s-.08.13-.08.23v.81c0,.1.03.18.08.23.05.05.13.08.23.08h.44c.16,0,.29-.06.38-.2Zm-.44,1.59l.06-.08s.07-.08.13-.17c.06-.08.12-.12.18-.12.07,0,.19.07.37.21.18.14.32.28.43.42.04.05.06.11.06.17,0,.09-.04.15-.13.18l-.03.02c-.18.07-.27.19-.27.36v.66l.03.74c0,.2,0,.48.03.84v.08c0,.13-.04.24-.13.31-.22.15-.43.23-.63.23-.08,0-.12-.11-.12-.32v-.08c0-.1-.03-.18-.08-.23-.06-.05-.13-.08-.23-.08h-1.55c-.1,0-.18.03-.23.08-.05.05-.08.12-.08.21,0,.07.02.15.02.24v.12c0,.12-.04.21-.12.27-.07.05-.16.09-.27.13-.11.04-.22.05-.33.05-.06,0-.11-.03-.14-.09s-.05-.13-.05-.21c.03-.28.05-.55.06-.81l.02-.38v-.75c0-.66-.03-1.28-.09-1.86v-.03c0-.17.07-.25.2-.25.05,0,.1.01.17.04l.45.21c.14.06.27.09.39.09h1.53c.15,0,.28-.06.39-.19Zm-2.12.71c-.05.06-.08.13-.08.23v1.46c0,.1.03.18.08.23s.13.08.23.08h1.55c.1,0,.18-.03.23-.08s.08-.13.08-.23v-1.46c0-.1-.03-.18-.08-.23-.06-.05-.13-.08-.23-.08h-1.55c-.1,0-.18.03-.23.08Z"/>
        <path class="cls-2" d="m497.07,34.41l.19-.27c.05-.06.1-.12.15-.2.05-.07.1-.13.15-.19.05-.05.09-.08.13-.08.08,0,.26.12.55.36.29.24.5.44.63.61.05.07.07.13.07.18s-.03.1-.07.15c-.08.05-.18.08-.3.08h-4.08c-.08,0-.14.02-.2.05-.05.04-.07.08-.07.14,0,.07.02.13.06.18.63,1.02,1.43,1.95,2.4,2.8.97.84,1.97,1.5,3,1.96.07.04.13.08.18.11.05.03.08.05.08.07,0,.03-.02.06-.05.08-.04.02-.07.04-.11.04-.04.01-.07.02-.1.03-.23.1-.41.25-.53.46-.07.12-.15.18-.24.18-.05,0-.11-.02-.17-.05-1.02-.63-1.96-1.44-2.82-2.44s-1.56-2.12-2.08-3.38c-.07-.16-.12-.24-.13-.24h-.03v3.33c.02,1.08.05,2.18.1,3.32v.09c0,.11-.04.2-.12.29-.1.09-.22.16-.35.22-.13.06-.27.09-.41.09-.1,0-.19-.03-.25-.09-.07-.06-.1-.13-.1-.21.04-.59.07-1.16.1-1.72s.05-1.28.06-2.18v-1.75c0-.08-.01-.14-.04-.2-.03-.05-.06-.07-.11-.07-.07,0-.15.05-.23.17-.65.99-1.43,1.9-2.34,2.73s-1.92,1.55-3.03,2.16c-.18.11-.29.12-.35.04,0,0-.01-.03-.01-.06,0-.07.07-.15.19-.24,1.01-.69,1.94-1.52,2.79-2.49.85-.97,1.55-1.98,2.12-3.04.03-.06.04-.12.04-.17,0-.14-.09-.21-.27-.21h-1.42c-.61,0-1.27.07-1.98.17h-.09c-.14,0-.24-.06-.3-.2l-.08-.13c-.03-.06-.04-.12-.04-.18s.03-.11.07-.14c.05-.04.12-.05.21-.04.34.03.86.06,1.54.08h3c.1,0,.18-.03.23-.08s.08-.13.08-.23v-2.08c0-.1-.03-.18-.08-.23-.05-.06-.13-.08-.23-.08h-3.09c-.61,0-1.27.07-1.98.17h-.09c-.14,0-.24-.06-.3-.2l-.06-.1c-.03-.06-.04-.12-.04-.18s.02-.11.07-.14c.05-.04.12-.05.21-.04.34.03.85.06,1.54.08h3.74c.21,0,.31-.11.31-.32-.02-.83-.06-1.56-.13-2.2v-.03c0-.08.02-.15.07-.2.04-.05.1-.08.17-.08l.13.03c.73.23,1.1.41,1.1.54,0,.05-.04.1-.12.15l-.04.03c-.13.09-.19.22-.19.38v1.38c0,.1.03.18.08.23s.13.08.23.08h3.42c.16,0,.29-.06.38-.2l.19-.27c.05-.06.1-.12.15-.2.05-.07.1-.13.15-.19.05-.05.1-.08.13-.08.07,0,.25.12.55.34.29.23.51.43.65.6.05.07.07.13.07.18,0,.06-.03.12-.09.17-.07.04-.17.06-.29.06h-5.32c-.1,0-.18.03-.23.08-.06.05-.08.13-.08.23v2.08c0,.1.03.18.08.23.05.05.13.08.23.08h2.68c.16,0,.28-.06.38-.19Z"/>
        <path class="cls-2" d="m502.87,41.01c-.71-.36-1.07-1.03-1.07-2,0-1.18.63-2.21,1.9-3.08.1-.06.15-.13.15-.21,0-.06-.04-.13-.12-.21-.29-.26-.5-.55-.62-.88-.13-.33-.19-.74-.19-1.23s.07-1.08.21-1.72c.11-.5.17-.92.17-1.28,0-.22-.03-.4-.08-.54-.05-.14-.13-.27-.25-.39-.07-.07-.14-.13-.2-.19-.06-.05-.1-.09-.1-.11,0-.06.07-.09.21-.09.1,0,.22.02.36.05.14.04.26.08.36.13.26.13.44.28.55.45s.16.4.16.69c0,.17-.02.34-.06.5s-.08.32-.13.46c-.05.15-.08.24-.1.29-.01.03-.05.14-.12.33-.1.22-.17.44-.22.65-.05.21-.08.48-.08.8,0,.29.05.57.14.85.09.28.22.5.37.68.15.17.3.26.46.26.11,0,.26-.03.45-.1.19-.07.38-.15.57-.24.4-.19.67-.29.79-.29.19,0,.38.06.56.17s.28.23.28.35c0,.18-.07.31-.21.39-.14.08-.36.15-.66.2-.89.16-1.75.46-2.58.88-.83.43-1.25,1.16-1.25,2.17,0,.52.19.96.57,1.31.38.35.95.52,1.71.52.26,0,.52-.02.78-.06s.42-.07.46-.08c.46-.08.79-.12.97-.12.56,0,.84.17.84.5,0,.23-.23.41-.67.53-.45.12-1.06.18-1.83.18-.94,0-1.77-.18-2.48-.54Z"/>
        <path class="cls-2" d="m513.66,31.85l.14-.21s.08-.11.13-.19c.05-.08.09-.14.13-.18.04-.04.07-.06.11-.06.07,0,.22.11.46.32.23.21.41.4.52.56.04.05.06.11.06.18,0,.06-.02.12-.08.17-.07.05-.16.08-.27.08h-1.61c-.1,0-.18.03-.23.08s-.08.13-.08.23v2.25c0,.09.02.16.06.21.04.05.09.08.16.08.03,0,.08,0,.13-.03l1.53-.55c.21-.07.33-.07.34,0v.03c0,.08-.07.16-.21.23l-1.8.96c-.15.09-.22.21-.22.38v4.56c0,.41-.07.72-.21.93-.14.21-.43.36-.87.45h-.08c-.15,0-.25-.08-.3-.25-.05-.18-.13-.31-.24-.41-.14-.14-.4-.25-.79-.31-.2-.03-.3-.08-.3-.17,0-.07.11-.11.33-.11.65.05,1.06.08,1.23.08.12,0,.2-.02.25-.07s.07-.12.07-.23v-3.84c0-.18-.07-.27-.21-.27-.05,0-.11.02-.17.04-.39.21-.74.39-1.04.53-.15.07-.23.12-.23.15,0,0-.01.02-.01.04-.04.09-.1.13-.18.13-.05,0-.1-.02-.14-.06s-.08-.09-.1-.15l-.24-.58c-.02-.08-.03-.13-.03-.15,0-.13.08-.21.23-.25.25-.07.68-.2,1.31-.39l.55-.18c.17-.06.25-.18.25-.36v-2.67c0-.1-.03-.18-.08-.23s-.13-.08-.23-.08h-.4c-.33.01-.65.06-.95.13-.03.01-.07.02-.12.02-.13,0-.23-.07-.29-.2l-.06-.12c-.03-.06-.04-.11-.04-.17,0-.06.02-.11.07-.14.05-.03.12-.05.23-.04.26.02.64.04,1.14.06h.42c.1,0,.18-.03.23-.08s.08-.13.08-.23v-.11c0-1-.04-1.89-.14-2.68v-.06c0-.07.02-.13.06-.17s.1-.07.17-.07c.03,0,.08,0,.14.03.71.22,1.06.39,1.06.51,0,.05-.04.1-.12.15l-.04.03c-.14.09-.21.21-.21.38v2c0,.1.03.18.08.23s.13.08.23.08h.03c.16,0,.29-.07.38-.21Zm2.92-2.08v1.53c0,.09.02.16.06.21.04.05.09.08.16.08.03,0,.08,0,.14-.03.5-.18,1.11-.44,1.83-.78.9-.45,1.61-.92,2.13-1.41.08-.08.15-.12.22-.12.06,0,.13.04.23.1.57.49.85.79.85.9,0,.05-.06.08-.2.08h-.13c-.15,0-.28.02-.39.07-.62.3-1.34.59-2.16.88s-1.64.52-2.46.7c-.19.04-.29.16-.29.35v.91c0,.14.05.23.15.28s.33.07.69.07h2.13c1.14,0,1.8,0,1.98-.03.11,0,.19-.02.23-.04.05-.02.09-.06.13-.12.12-.24.24-.63.38-1.18.04-.19.09-.29.15-.29.03,0,.05.03.07.08.02.06.03.13.03.23l.03.92c0,.16.08.29.25.38.13.06.2.16.2.3,0,.17-.08.3-.25.38-.17.08-.5.15-.98.18s-1.24.05-2.26.05h-2.18c-.46,0-.8-.03-1.04-.08-.23-.05-.39-.15-.47-.29-.08-.14-.13-.35-.13-.64v-2.37c0-.74-.03-1.42-.09-2.03v-.06c0-.16.07-.24.21-.24.02,0,.07,0,.15.03.62.21.93.38.93.5,0,.04-.04.08-.1.13l-.11.08c-.07.04-.11.14-.11.31Zm.19,11.56c-.05.03-.08.06-.08.1,0,.11,0,.19.01.24v.22c0,.13-.04.23-.1.29-.08.06-.18.11-.31.16-.13.04-.25.07-.38.07-.06,0-.11-.03-.17-.09-.05-.06-.07-.13-.07-.21.06-.78.1-1.56.12-2.34v-1.33c0-.96-.04-1.84-.13-2.64v-.06c0-.07.02-.12.05-.17s.08-.06.13-.06.11.01.17.04l.58.25c.14.06.27.09.39.09h3.78c.17,0,.3-.06.39-.18l.09-.11s.08-.09.15-.17c.07-.08.13-.13.19-.13.07,0,.22.08.44.25s.41.32.55.46c.04.05.06.11.06.17,0,.07-.04.13-.13.2-.03.02-.06.04-.09.04s-.05.02-.08.03c-.18.06-.27.17-.27.34v1.58c.02,1.09.06,2.19.11,3.3v.08c0,.14-.05.24-.15.3-.11.07-.23.13-.37.18s-.26.08-.37.08c-.06,0-.11-.04-.15-.11-.03-.06-.04-.11-.04-.17,0-.04,0-.11.03-.21l.03-.18v-.03c0-.1-.03-.18-.08-.23-.06-.05-.13-.08-.23-.08h-3.83c-.1,0-.18.01-.23.04Zm4.29-3.08c.05-.05.08-.13.08-.23v-1.38c0-.1-.03-.18-.08-.23-.06-.05-.13-.08-.23-.08h-3.83c-.1,0-.18.03-.23.08-.05.06-.08.13-.08.23v1.38c0,.1.03.18.08.23.05.06.13.08.23.08h3.83c.1,0,.18-.03.23-.08Zm-4.29.62c-.05.06-.08.13-.08.23v1.42c0,.1.03.18.08.23.05.05.13.08.23.08h3.83c.1,0,.18-.03.23-.08.05-.06.08-.13.08-.23v-1.42c0-.1-.03-.18-.08-.23-.06-.05-.13-.08-.23-.08h-3.83c-.1,0-.18.03-.23.08Z"/>
        <path class="cls-2" d="m537.78,41.08h.08c.16,0,.24.03.24.09,0,.03-.03.07-.1.11-.06.04-.11.08-.14.1-.13.09-.23.22-.29.41-.06.19-.17.29-.33.29h-2.86c-1.12,0-2.06-.09-2.81-.26-.76-.18-1.41-.49-1.95-.95s-1.01-1.11-1.39-1.95c-.06-.13-.12-.2-.2-.2s-.13.06-.2.18c-.65,1.43-1.56,2.54-2.74,3.33-.16.12-.27.14-.32.08-.01,0-.01-.03-.01-.04,0-.04.05-.12.16-.25.94-.85,1.67-2.03,2.19-3.54.14-.42.25-.88.34-1.37.09-.49.13-.94.14-1.35,0-.11.03-.19.1-.23.07-.05.16-.06.28-.04.77.17,1.16.32,1.16.44,0,.03-.05.07-.14.12l-.06.03c-.14.07-.23.19-.26.34-.11.49-.24.98-.4,1.47-.03.06-.04.12-.04.18,0,.04.02.12.06.24.27.57.59,1.04.96,1.41s.8.66,1.3.87c.06.02.11.03.13.03.07,0,.12-.02.17-.08.04-.05.06-.12.06-.21v-6.12c0-.1-.03-.18-.08-.23s-.13-.08-.23-.08h-1.66c-.61,0-1.27.07-1.98.17h-.09c-.14,0-.24-.07-.3-.2l-.06-.12c-.03-.06-.05-.12-.05-.18s.02-.11.08-.14c.05-.04.12-.05.21-.04.34.03.85.05,1.54.08h5.92c.15,0,.28-.07.39-.2l.16-.21s.08-.1.14-.18c.06-.08.11-.14.16-.18s.09-.06.13-.06c.03,0,.08.02.15.06s.13.06.2.06c.11,0,.19-.06.22-.18.13-.27.27-.6.41-.99.02-.06.03-.11.03-.14,0-.07-.03-.12-.08-.17-.05-.04-.12-.06-.21-.06h-8.69c-.2,0-.31.1-.33.31-.04.41-.14.76-.29,1.06s-.34.52-.55.67c-.2.15-.4.22-.62.22-.14,0-.26-.04-.35-.12-.1-.08-.14-.19-.14-.33,0-.12.04-.23.11-.34.07-.11.16-.21.28-.29.31-.17.58-.45.8-.84.22-.39.33-.81.34-1.27,0-.22.04-.33.12-.33.09,0,.15.09.19.27l.06.25c.03.2.14.3.33.3h3.42c.21,0,.32-.1.32-.31-.02-.6-.05-1.12-.09-1.56v-.03c0-.18.08-.27.23-.27l.13.03c.72.21,1.08.38,1.08.51,0,.05-.04.1-.12.15l-.04.03c-.14.09-.21.21-.21.38v.76c0,.1.03.18.08.23s.13.08.23.08h3.83c.16,0,.29-.06.39-.18l.13-.18s.07-.09.13-.17c.05-.07.1-.12.14-.16s.08-.05.12-.05c.07,0,.22.12.44.34.23.23.4.44.52.62.03.04.04.09.04.15,0,.11-.06.18-.17.21l-.11.02c-.15,0-.28.08-.38.2-.3.38-.71.79-1.21,1.21-.08.07-.12.14-.12.22s.03.16.1.22c.07.05.15.13.24.24.05.05.08.11.08.17s-.03.12-.09.17c-.08.05-.18.08-.29.08h-3.83c-.1,0-.18.03-.23.08-.05.06-.08.13-.08.23v2.28c0,.1.03.18.08.23s.13.08.23.08h2.04c.16,0,.29-.07.38-.2l.16-.24s.08-.1.14-.19.11-.15.16-.19.09-.07.13-.07c.08,0,.26.11.53.33.27.22.47.41.6.57.05.07.08.13.08.18,0,.06-.03.12-.09.17-.08.05-.18.08-.3.08h-3.81c-.1,0-.18.03-.23.08-.05.05-.08.13-.08.23v3.09c0,.21.08.32.22.33.58.09,1.36.13,2.34.13,1.57,0,2.69,0,3.35-.01Z"/>
        <path class="cls-2" d="m543.16,41.01c-.05.05-.08.13-.08.23,0,.1.02.21.02.33v.17c.01.09-.01.17-.06.22-.08.09-.19.16-.31.22-.13.05-.28.08-.44.08-.08,0-.15-.03-.22-.1-.07-.06-.1-.13-.1-.2.04-.59.07-1.16.1-1.72.03-.55.05-1.28.06-2.18v-5.46c0-.97-.04-1.84-.13-2.62v-.06c0-.07.02-.13.05-.17s.08-.07.13-.07.11.02.17.04l.64.32c.11.06.24.09.39.09h6.03c.16,0,.29-.07.38-.2l.11-.13s.05-.08.1-.14c.05-.06.09-.11.14-.14.04-.03.08-.04.12-.04.07,0,.22.09.46.27.24.18.43.35.55.51.04.05.06.1.06.17,0,.07-.04.13-.13.19-.04.02-.09.04-.15.06-.18.07-.27.19-.27.36v7.17c.02,1.09.05,2.19.11,3.3v.08c0,.14-.05.24-.15.3-.11.09-.24.17-.38.22-.14.06-.28.09-.41.09-.08,0-.13-.04-.17-.12-.02-.03-.03-.08-.03-.14,0-.03,0-.1.03-.22,0-.02,0-.14.03-.36v-.1c0-.1-.03-.18-.08-.23s-.13-.08-.23-.08h-6.09c-.1,0-.18.03-.23.08Zm6.56-5.88c.05-.06.08-.13.08-.23v-4.02c0-.1-.03-.18-.08-.23-.06-.05-.13-.08-.23-.08h-6.09c-.1,0-.18.03-.23.08s-.08.13-.08.23v4.02c0,.1.03.18.08.23.05.05.13.08.23.08h6.09c.1,0,.18-.03.23-.08Zm-6.56.6c-.05.05-.08.13-.08.23v4.21c0,.1.03.18.08.23.05.06.13.08.23.08h6.09c.1,0,.18-.03.23-.08s.08-.13.08-.23v-4.21c0-.1-.03-.18-.08-.23-.06-.05-.13-.08-.23-.08h-6.09c-.1,0-.18.03-.23.08Z"/>
      </g>
    </g>
    <g id="_ハイシーズン" data-name="ハイシーズン" class="cls-1">
      <g class="cls-1">
        <path class="cls-2" d="m664.37,39.29c0-.08.08-.17.23-.26.86-.51,1.64-1.08,2.34-1.71.7-.63,1.25-1.22,1.66-1.76s.61-.95.61-1.22c0-.16-.11-.29-.33-.41-.05-.02-.1-.04-.15-.06-.05-.02-.1-.04-.13-.08-.04-.03-.06-.06-.06-.09,0-.07.07-.12.21-.14.14-.02.32-.03.52-.03.44,0,.79.1,1.05.3.32.24.48.5.48.78,0,.13-.04.25-.13.38-.63.77-1.5,1.55-2.59,2.35-1.1.8-2.23,1.44-3.38,1.94-.1.04-.17.06-.21.06-.07,0-.1-.02-.1-.06Zm12.15-.97c-.08-.09-.16-.26-.25-.5-.27-.7-.66-1.41-1.18-2.14-.52-.73-1.18-1.4-2-2.03-.09-.07-.14-.13-.14-.18s.03-.08.09-.08c.05,0,.1.01.17.04.52.22,1.13.58,1.82,1.09s1.29,1.03,1.78,1.58.74,1,.74,1.36c0,.3-.08.54-.22.73-.15.18-.32.28-.5.28-.12,0-.22-.05-.3-.14Z"/>
        <path class="cls-2" d="m687.6,30.38c.13.16.2.3.2.43,0,.07-.01.12-.04.14-.02.03-.07.06-.14.1-.01,0-.05.04-.12.08-.07.05-.13.11-.2.19-.46.68-1,1.38-1.62,2.1-.07.09-.11.16-.11.21,0,.08.05.14.17.2.04.02.08.04.14.07s.1.06.16.1c.15.09.22.22.22.39,0,.09-.02.22-.07.41-.07.35-.11.58-.11.69v1.98c-.01,1.48,0,2.43.06,2.86.03.24.04.46.04.65,0,.5-.15.75-.45.75-.23,0-.4-.08-.52-.24s-.17-.39-.17-.69c0-.52.02-1.04.04-1.54.02-.64.03-1.12.03-1.43l-.02-2.46c0-.29-.03-.53-.08-.72-.03-.12-.1-.18-.21-.18-.08,0-.16.04-.22.1-1.41,1.38-2.93,2.47-4.56,3.27-.12.06-.21.09-.29.09-.08,0-.12-.02-.12-.06,0-.07.1-.17.3-.3,1.28-.93,2.4-1.88,3.36-2.84.96-.96,1.69-1.82,2.2-2.58.5-.75.76-1.28.76-1.57,0-.2-.05-.35-.15-.46-.04-.04-.09-.08-.13-.12-.05-.04-.08-.07-.08-.09,0-.08.08-.12.23-.12.36,0,.71.08,1.04.25.16.08.31.2.44.35Z"/>
        <path class="cls-2" d="m692.4,36.32c-.1-.05-.17-.1-.23-.17-.24-.25-.44-.43-.59-.54-.15-.11-.34-.23-.57-.38-.24-.14-.45-.24-.64-.31-.19-.07-.3-.11-.35-.13-.08-.03-.12-.07-.12-.11,0-.06.11-.1.32-.13s.42-.04.62-.04c.6,0,1.13.12,1.59.37s.69.58.69,1c0,.13-.04.25-.12.35-.08.1-.19.15-.33.15-.09,0-.18-.02-.28-.08Zm-.83,4.64c-.2-.25-.39-.6-.56-1.05-.17-.45-.26-.77-.26-.97,0-.17.05-.25.15-.25.04,0,.09.04.17.13.07.09.14.18.21.27.2.22.47.33.83.33.28,0,.55-.06.83-.19,1.34-.61,2.75-1.49,4.22-2.63,1.47-1.14,2.72-2.37,3.73-3.68.09-.13.18-.19.26-.19.06,0,.09.03.09.09,0,.08-.04.17-.11.29-.72,1.08-1.58,2.11-2.58,3.1-1,.99-2,1.84-2.99,2.57-1,.73-1.88,1.3-2.66,1.72-.1.05-.26.17-.48.38-.11.11-.2.19-.27.24-.07.05-.14.08-.21.08-.12,0-.23-.07-.34-.21Zm2.37-7.73c-.11-.05-.19-.11-.24-.18-.26-.31-.48-.54-.67-.7-.19-.16-.41-.31-.68-.47-.14-.08-.28-.15-.41-.2-.13-.05-.23-.1-.28-.13-.01,0-.04-.01-.09-.04-.05-.02-.08-.06-.08-.1,0-.09.17-.14.51-.14.4,0,.81.06,1.24.17.42.11.78.28,1.06.5.29.22.43.48.43.78,0,.16-.04.3-.13.41-.09.12-.2.17-.35.17-.1,0-.21-.02-.31-.08Z"/>
        <path class="cls-2" d="m704.02,36.63c-.18-.1-.34-.24-.49-.41-.15-.17-.22-.35-.22-.55,0-.11.02-.22.07-.33.04-.11.09-.17.14-.17.02,0,.07.03.14.08.1.08.2.14.31.18.4.13.85.2,1.35.2.43,0,1.09-.03,1.96-.05.88-.02,1.63-.05,2.25-.07,1.33-.05,2.44-.1,3.32-.15.51-.03.91-.04,1.2-.04.39,0,.7.04.92.11.22.07.33.22.33.46s-.21.38-.62.42c-.2.02-.48.03-.83.03l-4.35.1c-.77.02-1.61.06-2.51.11s-1.49.1-1.76.17c-.25.05-.45.07-.6.07-.26,0-.46-.05-.62-.15Z"/>
        <path class="cls-2" d="m724.23,36.06c0,.1.06.18.18.24.94.42,1.8.93,2.58,1.53.78.6,1.17,1.17,1.17,1.72,0,.18-.05.34-.17.48-.11.14-.24.21-.38.21s-.28-.06-.43-.19-.29-.3-.41-.53c-.34-.65-.74-1.23-1.18-1.75-.45-.52-.93-.95-1.44-1.29-.05-.04-.11-.06-.18-.06-.09,0-.17.04-.25.13-.85.96-1.79,1.83-2.82,2.62-1.03.79-2.12,1.42-3.29,1.9-.05.02-.09.03-.12.03-.06,0-.09-.02-.09-.08,0-.04.05-.09.15-.15,1.1-.58,2.18-1.38,3.23-2.4,1.06-1.02,1.96-2.04,2.7-3.08.74-1.03,1.23-1.84,1.46-2.44l.03-.12c0-.06-.05-.09-.15-.09-.2,0-.77.12-1.71.38s-1.57.44-1.88.58c-.04.02-.1.05-.19.1-.09.05-.19.08-.29.08-.25,0-.48-.08-.69-.25s-.38-.36-.5-.58c-.12-.22-.18-.39-.18-.52s.04-.2.11-.2c.03,0,.09.03.19.1.09.06.2.12.32.16.16.06.34.09.55.09s.87-.09,1.98-.26c1.11-.17,1.81-.31,2.11-.4.15-.04.31-.1.47-.19.2-.09.32-.14.38-.14.1,0,.25.06.46.19.21.13.38.27.54.44s.23.31.23.43c0,.07-.03.13-.09.19-.06.05-.16.14-.3.25-.21.14-.34.25-.39.34-.51.83-1.05,1.61-1.63,2.34-.06.07-.09.13-.09.19Zm3.1-5.59c.38.1.72.27,1.04.49.31.23.47.52.47.88,0,.18-.05.31-.14.4-.1.08-.21.13-.35.13-.1,0-.21-.03-.32-.1s-.2-.17-.26-.31c-.13-.3-.27-.55-.42-.75-.15-.2-.36-.38-.62-.53-.04-.02-.1-.05-.17-.08-.07-.04-.12-.07-.15-.1s-.04-.06-.04-.09c0-.07.07-.11.21-.11.13,0,.38.05.76.16Zm1.52-1.06c.36.09.68.23.96.43.28.2.42.46.42.77,0,.15-.05.26-.14.34-.1.08-.2.12-.31.12-.23,0-.42-.12-.56-.35-.17-.27-.32-.48-.46-.62-.14-.14-.34-.29-.6-.43-.08-.05-.16-.09-.22-.11-.07-.02-.13-.05-.18-.08-.05-.03-.08-.06-.08-.09,0-.08.09-.12.27-.12.24,0,.54.05.9.14Z"/>
        <path class="cls-2" d="m734.68,33.03c-.23-.35-.53-.64-.9-.87-.37-.23-.76-.41-1.18-.53-.08-.02-.15-.04-.19-.06-.05-.02-.08-.05-.08-.08,0-.09.23-.13.69-.13.42,0,.86.05,1.31.16.46.1.83.27,1.13.5.38.3.57.63.57.99,0,.18-.05.33-.14.44-.09.12-.23.17-.4.17-.28,0-.55-.2-.81-.6Zm-2.12,5.81c0-.13.02-.24.05-.32s.07-.13.1-.13.08.05.13.17c.06.11.14.21.24.32.1.1.19.18.28.23.08.05.21.08.37.08.36,0,1.02-.29,1.96-.87.95-.58,2.06-1.4,3.32-2.45s2.53-2.26,3.8-3.62c.09-.11.17-.17.24-.17.04,0,.06.02.06.06,0,.06-.05.17-.15.31-.68.95-1.49,1.92-2.43,2.9s-1.85,1.85-2.72,2.62c-.88.77-1.57,1.33-2.08,1.69-.12.09-.22.16-.3.2-.09.06-.18.12-.27.2-.09.07-.19.17-.3.28-.21.24-.45.36-.72.36-.33,0-.65-.14-.95-.41-.31-.28-.5-.6-.58-.97-.04-.16-.06-.32-.06-.46Z"/>
      </g>
    </g>
    <g id="_素泊まり" data-name="素泊まり" class="cls-1">
      <g class="cls-1">
        <path class="cls-2" d="m98.8,101.69l.15-.2s.07-.1.13-.17.1-.13.14-.17c.04-.04.08-.06.12-.06.07,0,.23.1.47.29.25.2.43.37.55.52.05.07.08.13.08.18,0,.06-.03.12-.09.17-.07.05-.16.08-.27.08h-4.08c-.1,0-.18.03-.23.08-.06.05-.08.13-.08.23v.72c0,.1.03.18.08.23.05.05.13.08.23.08h3.49c.16,0,.29-.07.38-.2l.18-.24s.08-.1.14-.19.11-.15.16-.2c.04-.04.09-.07.13-.07.07,0,.24.11.51.33.27.22.47.42.6.58.05.07.07.13.07.18,0,.06-.03.11-.09.17-.08.05-.18.07-.29.07h-5.88c-.15,0-.28.05-.39.15-.57.52-1.12.97-1.67,1.35-.09.06-.13.13-.13.21,0,.07.04.15.12.23.2.23.3.46.3.67,0,.13-.04.24-.1.32-.07.08-.17.12-.3.12h-.03s-.11-.02-.17-.06c-.06-.04-.12-.09-.17-.17-.22-.27-.51-.54-.88-.82-.36-.28-.74-.51-1.12-.71-.19-.11-.27-.19-.24-.24.05-.07.16-.09.32-.06.62.07,1.14.2,1.56.39.06.03.12.05.18.05.1,0,.18-.05.25-.15.25-.35.46-.65.63-.9.04-.05.06-.11.06-.18,0-.13-.09-.2-.27-.2h-1.96c-.61.01-1.27.07-1.98.17h-.09c-.14,0-.24-.06-.3-.19l-.08-.14c-.03-.06-.05-.11-.05-.17,0-.15.1-.21.3-.19.34.03.86.05,1.54.08h3.67c.1,0,.18-.03.23-.08.05-.05.08-.13.08-.23v-.72c0-.1-.03-.18-.08-.23s-.13-.08-.23-.08h-1.67c-.61,0-1.27.07-1.98.17h-.09c-.14,0-.24-.06-.3-.2l-.06-.12c-.03-.06-.04-.12-.04-.18s.03-.11.07-.14c.05-.03.12-.05.21-.04.34.03.85.05,1.54.08h2.31c.1,0,.18-.03.23-.08s.08-.13.08-.23v-.71c0-.1-.03-.18-.08-.23-.06-.05-.13-.08-.23-.08h-2.24c-.61,0-1.27.06-1.98.17h-.09c-.14,0-.24-.07-.3-.2l-.06-.12c-.03-.06-.04-.12-.04-.18s.03-.11.08-.14.12-.05.21-.04c.34.03.86.06,1.54.08h2.88c.21,0,.32-.1.32-.31l-.04-.83v-.03c0-.18.07-.27.22-.27l.13.03c.38.13.64.23.79.31.15.08.22.15.22.22,0,.05-.04.1-.12.15l-.04.03c-.13.09-.19.22-.19.38v.02c0,.1.03.18.08.23.05.05.13.08.23.08h2.94c.16,0,.29-.06.38-.19l.17-.23s.09-.11.14-.19c.05-.08.1-.13.14-.17.04-.04.08-.06.12-.06.08,0,.25.1.52.31.26.21.46.39.59.55.05.07.08.13.08.18,0,.06-.03.12-.09.17-.08.05-.17.08-.29.08h-4.69c-.1,0-.18.03-.23.08s-.08.13-.08.23v.71c0,.1.03.18.08.23.05.06.13.08.23.08h2.43c.16,0,.29-.07.38-.2Zm-6.27,7.4c.06,0,.12.03.2.09l.28.24s.13.1.33.23c.22.13.33.22.33.29s-.05.09-.16.09h-.03c-.16,0-.29.04-.39.13-.48.35-1.06.7-1.75,1.04s-1.37.62-2.06.84l-.2.03c-.06,0-.1-.02-.13-.06,0,0-.01-.02-.01-.04,0-.06.08-.13.22-.22.44-.23.83-.46,1.18-.71.37-.25.73-.53,1.08-.85.35-.31.64-.63.87-.94.08-.1.16-.15.24-.15Zm1.88-1.49s.02.07.07.1c.04.02.11.03.19.02l4.12-.09c.09,0,.16-.02.21-.05.05-.04.07-.08.07-.13,0-.07-.05-.14-.15-.21-.18-.15-.48-.35-.9-.62-.19-.11-.26-.19-.23-.25.03-.03.08-.04.14-.04.07,0,.13,0,.18.02.75.16,1.37.38,1.85.65s.84.56,1.06.85.33.56.33.8c0,.15-.04.27-.12.36s-.19.13-.31.13h-.08c-.12-.02-.22-.11-.31-.27-.16-.25-.36-.5-.58-.75-.11-.11-.24-.16-.39-.15-1.02.1-2.21.21-3.59.31-.2.02-.3.13-.3.32v.97c.03.98.05,1.72.07,2.22v.07c0,.14-.05.24-.15.3-.19.13-.43.19-.72.19-.07,0-.13-.03-.19-.09-.06-.06-.08-.13-.08-.21.06-.78.1-1.57.12-2.37v-1c0-.22-.11-.32-.33-.3l-4.26.29c-.15,0-.25.04-.3.09l-.06.08s-.1.08-.15.08-.1-.02-.15-.06c-.05-.04-.09-.09-.11-.15l-.24-.54s-.03-.1-.03-.17c0-.06.02-.11.07-.15s.11-.06.19-.06c.97,0,2.19-.02,3.67-.05.15,0,.29-.04.41-.13.44-.32.89-.68,1.36-1.09.78-.67,1.38-1.33,1.79-1.96.06-.11.14-.17.26-.17.07,0,.13.02.18.06.63.34.95.57.95.67,0,.04-.04.07-.13.09h-.06c-.13,0-.24.05-.31.13-.66.61-1.62,1.29-2.88,2.04-.11.08-.17.15-.17.21Zm2.39,1.84s.15-.07.33-.06c.92.14,1.68.34,2.28.61.6.27,1.04.56,1.31.86s.41.57.41.81c0,.14-.04.25-.12.32-.08.07-.19.11-.33.11h-.02s-.09-.01-.16-.04c-.07-.03-.12-.07-.15-.11-.34-.37-.82-.76-1.45-1.18s-1.25-.78-1.87-1.08c-.19-.09-.27-.17-.24-.24Z"/>
        <path class="cls-2" d="m103.66,102.23s.08-.06.17-.06c.06,0,.11,0,.15.01.7.12,1.22.33,1.56.62s.51.58.51.88c0,.15-.04.28-.13.38-.09.1-.21.16-.34.16-.06,0-.11,0-.15-.01-.12-.03-.21-.12-.27-.27-.11-.24-.28-.49-.52-.75s-.49-.5-.76-.71c-.17-.12-.24-.21-.21-.25Zm.65,5.96h.34c.09,0,.16-.01.2-.04s.1-.12.16-.25c.22-.43.82-1.75,1.79-3.96l.98-2.19c.08-.18.16-.27.24-.27.07,0,.11.05.11.15,0,.05-.01.12-.04.2l-.75,2.07c-.09.25-.31.85-.65,1.81-.35.96-.55,1.56-.62,1.81-.16.57-.24,1-.24,1.31,0,.13.02.28.06.45.04.17.06.29.08.36.07.29.12.55.17.77.04.23.06.48.06.77,0,.39-.07.69-.2.9-.13.21-.33.31-.6.31-.23,0-.38-.18-.44-.54,0-.05-.02-.11-.02-.19s0-.15.02-.2c.05-.55.07-.99.07-1.32,0-.37-.02-.68-.07-.92-.05-.25-.12-.4-.22-.47-.1-.09-.24-.15-.42-.18-.2-.03-.3-.1-.3-.2,0-.11.11-.17.32-.17Zm.6-9.29s.06-.03.12-.03c.08,0,.14,0,.2.02.72.14,1.25.37,1.6.67.34.31.52.62.52.95,0,.17-.04.31-.13.41-.09.11-.21.16-.36.16-.06,0-.11,0-.15-.01-.12-.03-.21-.12-.27-.27-.12-.27-.3-.55-.54-.83s-.5-.55-.78-.79c-.16-.13-.23-.22-.2-.27Zm10.25,2.37l.09-.12s.05-.08.1-.14c.04-.06.08-.11.12-.14.03-.03.07-.04.11-.04.07,0,.21.08.44.25.22.17.39.32.51.47.04.04.06.09.06.15,0,.08-.05.15-.14.2-.01,0-.03.02-.05.02-.03,0-.05.02-.08.04-.19.06-.29.17-.29.34v6.05c.02,1.09.05,2.19.1,3.3v.08c0,.14-.05.24-.15.3-.23.17-.49.25-.76.25-.08,0-.13-.04-.17-.12-.02-.03-.03-.08-.03-.13,0-.03,0-.11.03-.23,0-.02,0-.14.03-.36v-.11c0-.1-.03-.18-.08-.23-.06-.05-.13-.08-.23-.08h-4.8c-.1,0-.18.03-.23.08-.06.05-.08.13-.08.23v.04c.02.24.03.38.03.41v.1c0,.12-.04.21-.11.27-.16.16-.39.24-.71.24-.08,0-.15-.03-.22-.1s-.1-.13-.1-.2c.04-.59.07-1.16.1-1.72.03-.56.05-1.28.06-2.18v-4.2c0-.98-.04-1.86-.13-2.64v-.06c0-.15.07-.22.2-.22.06,0,.11,0,.15.03l.69.3c.11.05.23.08.38.08h.93c.2,0,.32-.09.35-.27.16-.73.26-1.5.3-2.29,0-.11.05-.19.11-.23s.15-.06.25-.04l1.11.27c.08.02.14.05.2.11s.08.09.08.13c0,.05-.03.09-.09.12l-.09.04s-.08.04-.16.08-.15.1-.2.19c-.2.38-.49.89-.86,1.52-.04.05-.06.11-.06.18,0,.13.09.2.27.2h2.65c.16,0,.29-.07.38-.2Zm-.16,4.45c.05-.05.08-.13.08-.23v-3.27c0-.1-.03-.18-.08-.23s-.13-.08-.23-.08h-4.8c-.1,0-.18.03-.23.08-.06.05-.08.13-.08.23v3.27c0,.1.03.18.08.23.05.06.13.08.23.08h4.8c.1,0,.18-.03.23-.08Zm-5.26.6c-.06.05-.08.13-.08.23v3.69c0,.1.03.18.08.23.05.06.13.08.23.08h4.8c.1,0,.18-.03.23-.08s.08-.13.08-.23v-3.69c0-.1-.03-.18-.08-.23s-.13-.08-.23-.08h-4.8c-.1,0-.18.03-.23.08Z"/>
        <path class="cls-2" d="m123.87,109.14c.66.23,1.2.51,1.63.84s.64.71.64,1.12c0,.15-.04.25-.11.31s-.14.08-.22.08c-.18,0-.38-.09-.59-.28-.07-.06-.24-.21-.5-.44-.27-.24-.53-.45-.79-.65-.05-.05-.11-.07-.18-.07-.1,0-.18.07-.23.22-.16.43-.44.77-.83,1.01-.39.25-.89.37-1.48.37s-1.1-.13-1.56-.38c-.46-.25-.69-.62-.69-1.09,0-.33.12-.61.37-.85.24-.24.55-.41.92-.53.36-.11.73-.17,1.1-.17.28,0,.64.04,1.09.13h.09c.18.01.26-.08.24-.29-.02-.21-.04-.56-.06-1.06-.02-.18-.04-.47-.06-.87-.02-.22-.13-.32-.34-.29-.46.08-.88.12-1.25.12-.54,0-1-.1-1.39-.31s-.67-.49-.85-.86c-.03-.08-.04-.14-.04-.17,0-.05.02-.08.06-.08.03,0,.07.01.11.04s.07.05.09.06c.19.13.45.26.78.4.33.14.71.2,1.12.2.33,0,.79-.04,1.37-.13.19-.03.28-.12.28-.26v-.19c0-.62.02-1.25.04-1.88v-.09c0-.15-.03-.23-.09-.23h-.12c-.27,0-.52-.04-.75-.13-.19-.08-.4-.21-.62-.38-.22-.17-.38-.33-.48-.46-.07-.11-.1-.19-.1-.23s.02-.06.06-.06c.06,0,.14.03.24.08l.31.17c.16.1.31.17.44.22.13.05.29.07.5.07.15,0,.3-.02.46-.06.18-.03.29-.13.32-.31.06-.4.09-.7.09-.9,0-.31-.05-.58-.17-.81-.06-.12-.16-.26-.29-.41-.05-.06-.09-.12-.13-.18-.04-.06-.06-.11-.06-.15,0-.06.03-.11.1-.15s.15-.06.25-.06.25.04.44.11.36.19.51.34c.15.16.22.35.22.59,0,.14-.03.34-.09.59-.06.25-.12.49-.19.71,0,.04.03.11.09.2s.14.13.24.1l.43-.14c.09-.03.17-.04.26-.04.11,0,.2.03.27.08s.11.12.11.22-.04.2-.11.3c-.07.1-.18.18-.32.24-.19.09-.5.19-.92.3-.19.05-.29.16-.3.33-.04.47-.06.99-.06,1.56,0,.17,0,.29.02.38,0,.1.03.17.1.22.06.05.15.06.26.03.36-.12.63-.25.81-.38.15-.11.22-.22.22-.34s-.09-.29-.27-.51c-.02-.03-.05-.07-.08-.11s-.07-.09-.1-.14c-.07-.11-.11-.18-.11-.22,0-.03.01-.04.04-.04.04,0,.13.05.27.17.23.19.5.32.81.39.11.03.22.05.34.06.16.02.28.07.36.15.07.07.1.18.1.32,0,.15-.05.3-.15.45-.1.15-.26.27-.46.38-.4.19-1.01.38-1.82.58-.2.06-.29.22-.25.5.03.34.1.88.21,1.6l.1.71c0,.18.11.29.29.33Zm-1.69,1.46c.33-.21.53-.5.61-.88v-.08c0-.15-.07-.25-.22-.3-.45-.16-.9-.24-1.35-.24s-.82.09-1.18.28c-.36.19-.53.43-.53.74,0,.24.15.43.44.57.29.14.62.21.98.21.51,0,.93-.1,1.25-.31Z"/>
        <path class="cls-2" d="m132.48,102.29c.34.32.61.77.83,1.35.21.58.31,1.25.31,2.01,0,1.52-.33,2.8-.98,3.84-.65,1.04-1.73,1.8-3.23,2.29-.11.04-.2.06-.27.06-.09,0-.13-.04-.13-.11,0-.04.02-.08.07-.1,1.3-.55,2.21-1.37,2.74-2.46.52-1.09.79-2.24.79-3.44,0-.94-.12-1.74-.38-2.41s-.58-1-1.01-1c-.33,0-.64.2-.94.61-.3.4-.54.88-.74,1.42-.19.54-.29,1-.29,1.36,0,.17.03.33.08.49.05.16.14.33.25.53.06.12.12.25.17.38.05.13.07.24.07.33,0,.1-.03.18-.1.25s-.15.1-.26.1c-.25,0-.47-.12-.66-.35-.19-.24-.33-.53-.43-.87-.1-.35-.14-.67-.14-.98,0-.42.05-.9.16-1.44.1-.54.25-1.19.43-1.96.09-.38.17-.75.24-1.09.07-.35.1-.6.1-.75,0-.23-.07-.42-.22-.58-.05-.06-.12-.13-.2-.2-.08-.08-.13-.14-.13-.19s.04-.09.11-.12c.07-.03.15-.04.25-.04.25,0,.47.11.65.34.18.22.27.51.27.86,0,.33-.04.66-.13,1s-.21.77-.38,1.3l-.15.45s.08.06.13.06c.08,0,.15-.05.22-.17.52-.82,1.13-1.23,1.85-1.23.36,0,.71.16,1.05.48Z"/>
      </g>
    </g>
    <g id="_8_000円" data-name=" 8 000円" class="cls-1">
      <g class="cls-1">
        <path class="cls-2" d="m299.12,104.68c0,.07.05.13.16.2.46.27.84.52,1.15.75.3.23.56.52.77.87.21.35.32.76.32,1.25,0,.61-.16,1.15-.47,1.62-.32.47-.72.84-1.22,1.1-.5.26-1.02.39-1.56.39-.57,0-1.11-.12-1.63-.36-.52-.24-.93-.57-1.24-1-.31-.43-.46-.92-.46-1.47,0-.61.17-1.11.51-1.49s.85-.77,1.52-1.15c.11-.06.16-.13.16-.21,0-.09-.05-.16-.16-.21-.53-.3-.95-.65-1.25-1.06-.3-.41-.45-.93-.45-1.58,0-.44.11-.87.31-1.28.21-.42.53-.75.96-1.02.43-.26.95-.4,1.56-.4.49,0,.95.1,1.38.29s.78.48,1.04.86c.26.38.4.83.4,1.33,0,.94-.54,1.73-1.63,2.36-.11.08-.16.16-.16.22Zm.67,4.99c.4-.44.59-1.01.59-1.7,0-.52-.22-.96-.65-1.33-.44-.37-1.04-.76-1.82-1.19-.05-.04-.12-.06-.2-.06-.07,0-.15.03-.24.09-.41.33-.74.71-.99,1.16s-.38.89-.38,1.37c0,.4.08.78.24,1.13.16.36.39.65.69.87.3.23.66.34,1.08.34.72,0,1.28-.22,1.67-.67Zm-3.32-6.83c.18.27.41.51.69.73s.68.47,1.18.77c.07.04.14.06.21.06.08,0,.15-.03.22-.09.68-.58,1.02-1.3,1.02-2.17,0-.3-.06-.61-.18-.92-.12-.31-.31-.57-.58-.79-.27-.22-.62-.32-1.05-.32-.39,0-.72.1-.98.29-.27.19-.46.43-.59.71-.13.27-.2.54-.2.79,0,.36.09.67.26.95Z"/>
        <path class="cls-2" d="m303.5,112.2s-.03-.05-.03-.07c0-.02,0-.04.03-.06.18-.16.32-.32.41-.48.09-.16.14-.3.14-.42,0-.16-.07-.28-.2-.35-.17-.08-.3-.17-.4-.29-.1-.11-.14-.25-.14-.43,0-.24.08-.44.24-.6s.36-.24.58-.24.42.08.58.25.24.37.24.62c0,.46-.14.88-.41,1.25-.28.37-.59.65-.94.85l-.04.02s-.06-.02-.08-.05Z"/>
        <path class="cls-2" d="m308.33,110.22c-.48-.42-.88-1.05-1.17-1.89-.29-.84-.44-1.87-.44-3.08s.15-2.24.45-3.09c.3-.85.69-1.49,1.18-1.91.48-.42,1.01-.64,1.58-.64s1.08.21,1.57.64c.49.43.88,1.06,1.17,1.91.29.85.44,1.88.44,3.09s-.15,2.23-.45,3.08c-.3.84-.69,1.47-1.18,1.89-.49.42-1.01.63-1.58.63s-1.08-.21-1.57-.63Zm2.97-1.15c.33-.84.5-2.12.5-3.82s-.17-2.98-.5-3.83c-.34-.85-.79-1.28-1.37-1.28s-1.05.43-1.39,1.28c-.34.86-.51,2.13-.51,3.83s.17,2.97.51,3.82c.34.84.8,1.27,1.39,1.27s1.04-.42,1.37-1.27Z"/>
        <path class="cls-2" d="m316.13,110.22c-.49-.42-.88-1.05-1.17-1.89-.29-.84-.44-1.87-.44-3.08s.15-2.24.45-3.09c.3-.85.69-1.49,1.18-1.91.49-.42,1.01-.64,1.58-.64s1.08.21,1.57.64c.48.43.88,1.06,1.17,1.91.29.85.44,1.88.44,3.09s-.15,2.23-.45,3.08c-.3.84-.69,1.47-1.18,1.89-.48.42-1.01.63-1.58.63s-1.08-.21-1.57-.63Zm2.97-1.15c.34-.84.5-2.12.5-3.82s-.17-2.98-.5-3.83c-.33-.85-.79-1.28-1.37-1.28s-1.06.43-1.4,1.28c-.34.86-.51,2.13-.51,3.83s.17,2.97.51,3.82.8,1.27,1.4,1.27,1.04-.42,1.37-1.27Z"/>
        <path class="cls-2" d="m323.93,110.22c-.48-.42-.88-1.05-1.17-1.89-.29-.84-.44-1.87-.44-3.08s.15-2.24.45-3.09c.3-.85.69-1.49,1.18-1.91.48-.42,1.01-.64,1.58-.64s1.08.21,1.57.64c.49.43.88,1.06,1.17,1.91.29.85.44,1.88.44,3.09s-.15,2.23-.45,3.08c-.3.84-.69,1.47-1.18,1.89-.49.42-1.01.63-1.58.63s-1.08-.21-1.57-.63Zm2.97-1.15c.33-.84.5-2.12.5-3.82s-.17-2.98-.5-3.83c-.34-.85-.79-1.28-1.37-1.28s-1.05.43-1.39,1.28c-.34.86-.51,2.13-.51,3.83s.17,2.97.51,3.82c.34.84.8,1.27,1.39,1.27s1.04-.42,1.37-1.27Z"/>
        <path class="cls-2" d="m332.44,105.29c-.06.06-.08.13-.08.23v2.27c.02,1.08.05,2.18.11,3.31v.08c0,.12-.04.22-.12.3-.2.2-.45.3-.75.3-.09,0-.17-.03-.24-.09-.07-.06-.11-.13-.11-.21.04-.59.07-1.16.11-1.72.03-.55.05-1.28.06-2.18v-5.7c0-.97-.04-1.85-.14-2.62v-.06c0-.16.06-.24.18-.24.05,0,.1.01.17.04l.63.3c.14.06.27.09.39.09h8.54c.16,0,.29-.07.38-.21l.08-.11s.08-.1.14-.19c.06-.08.12-.13.18-.13.07,0,.23.09.48.27.25.18.44.35.58.5.04.05.06.11.06.17,0,.07-.04.13-.13.2-.03.02-.06.04-.09.04s-.05.02-.08.03c-.18.06-.27.17-.27.34v9.96c0,.41-.09.72-.27.95-.18.22-.56.37-1.12.45l-.09.02c-.14,0-.24-.08-.29-.25-.07-.18-.19-.32-.35-.41-.25-.15-.65-.26-1.21-.34-.2-.03-.3-.08-.3-.17s.11-.11.33-.09c.99.08,1.63.12,1.92.12.16,0,.27-.03.34-.09.07-.06.1-.16.1-.3v-4.62c0-.1-.03-.18-.08-.23-.05-.05-.13-.08-.23-.08h-8.57c-.1,0-.18.03-.23.08Zm3.9-5.37c-.05-.05-.13-.08-.23-.08h-3.43c-.1,0-.18.03-.23.08s-.08.13-.08.23v4.32c0,.1.03.18.08.23.05.06.13.08.23.08h3.43c.1,0,.18-.03.23-.08.06-.05.08-.13.08-.23v-4.32c0-.1-.03-.18-.08-.23Zm1.12,0c-.05.06-.08.13-.08.23v4.32c0,.1.03.18.08.23s.13.08.23.08h3.54c.1,0,.18-.03.23-.08.05-.05.08-.13.08-.23v-4.32c0-.1-.03-.18-.08-.23-.05-.05-.13-.08-.23-.08h-3.54c-.1,0-.18.03-.23.08Z"/>
      </g>
    </g>
    <g id="_9_000円" data-name=" 9 000円" class="cls-1">
      <g class="cls-1">
        <path class="cls-2" d="m492.34,100.2c.52.38.92.91,1.22,1.6.29.69.43,1.47.43,2.36,0,1.43-.2,2.65-.6,3.67s-.9,1.78-1.51,2.28c-.6.5-1.2.76-1.78.76-.46,0-.86-.07-1.19-.2-.34-.13-.59-.31-.76-.53s-.26-.45-.26-.69c0-.21.07-.39.22-.53.14-.14.32-.22.52-.22s.4.09.56.28c.16.19.25.43.27.73.02.23.08.4.18.51.1.11.27.17.5.17.66,0,1.19-.42,1.59-1.26.4-.84.68-1.85.84-3.04,0-.09,0-.17-.04-.22-.04-.06-.1-.09-.18-.09s-.17.04-.27.12c-.54.51-1.17.76-1.89.76-.58,0-1.08-.15-1.5-.44-.42-.29-.74-.68-.96-1.16-.22-.48-.33-.99-.33-1.54,0-.69.13-1.33.4-1.92.26-.59.64-1.06,1.12-1.41.48-.35,1.04-.52,1.67-.52s1.23.19,1.75.57Zm-.57,5.34c.38-.26.66-.67.85-1.23.04-.13.06-.26.06-.39-.02-1.06-.18-1.95-.47-2.66s-.84-1.07-1.63-1.07c-.37,0-.7.14-.98.41-.29.27-.51.64-.67,1.11s-.24,1-.24,1.58c0,1.06.2,1.76.61,2.11.41.35.84.53,1.31.53.39,0,.78-.13,1.16-.39Z"/>
        <path class="cls-2" d="m496.04,112.2s-.03-.05-.03-.07c0-.02,0-.04.03-.06.18-.16.32-.32.41-.48.09-.16.14-.3.14-.42,0-.16-.07-.28-.2-.35-.17-.08-.3-.17-.4-.29-.09-.11-.14-.25-.14-.43,0-.24.08-.44.24-.6s.36-.24.59-.24.42.08.58.25.24.37.24.62c0,.46-.14.88-.41,1.25-.28.37-.59.65-.94.85l-.04.02s-.05-.02-.08-.05Z"/>
        <path class="cls-2" d="m500.88,110.22c-.48-.42-.88-1.05-1.17-1.89-.29-.84-.44-1.87-.44-3.08s.15-2.24.45-3.09c.3-.85.69-1.49,1.18-1.91.48-.42,1.01-.64,1.58-.64s1.08.21,1.57.64c.48.43.88,1.06,1.17,1.91.29.85.44,1.88.44,3.09s-.15,2.23-.45,3.08c-.3.84-.69,1.47-1.18,1.89-.48.42-1.01.63-1.58.63s-1.08-.21-1.57-.63Zm2.97-1.15c.33-.84.5-2.12.5-3.82s-.17-2.98-.5-3.83c-.34-.85-.79-1.28-1.37-1.28s-1.05.43-1.39,1.28c-.34.86-.51,2.13-.51,3.83s.17,2.97.51,3.82.8,1.27,1.39,1.27,1.04-.42,1.37-1.27Z"/>
        <path class="cls-2" d="m508.68,110.22c-.49-.42-.88-1.05-1.17-1.89-.29-.84-.44-1.87-.44-3.08s.15-2.24.45-3.09c.3-.85.69-1.49,1.18-1.91.49-.42,1.01-.64,1.58-.64s1.08.21,1.57.64c.49.43.88,1.06,1.17,1.91.29.85.44,1.88.44,3.09s-.15,2.23-.45,3.08c-.3.84-.69,1.47-1.18,1.89s-1.01.63-1.58.63-1.08-.21-1.57-.63Zm2.97-1.15c.33-.84.5-2.12.5-3.82s-.17-2.98-.5-3.83c-.33-.85-.79-1.28-1.37-1.28s-1.06.43-1.4,1.28c-.34.86-.51,2.13-.51,3.83s.17,2.97.51,3.82c.34.84.8,1.27,1.4,1.27s1.04-.42,1.37-1.27Z"/>
        <path class="cls-2" d="m516.48,110.22c-.48-.42-.88-1.05-1.17-1.89-.29-.84-.44-1.87-.44-3.08s.15-2.24.45-3.09c.3-.85.69-1.49,1.18-1.91.48-.42,1.01-.64,1.58-.64s1.08.21,1.57.64c.48.43.88,1.06,1.17,1.91.29.85.44,1.88.44,3.09s-.15,2.23-.45,3.08c-.3.84-.69,1.47-1.18,1.89-.48.42-1.01.63-1.58.63s-1.08-.21-1.57-.63Zm2.97-1.15c.33-.84.5-2.12.5-3.82s-.17-2.98-.5-3.83c-.34-.85-.79-1.28-1.37-1.28s-1.05.43-1.39,1.28c-.34.86-.51,2.13-.51,3.83s.17,2.97.51,3.82.8,1.27,1.39,1.27,1.04-.42,1.37-1.27Z"/>
        <path class="cls-2" d="m524.99,105.29c-.06.06-.08.13-.08.23v2.27c.02,1.08.05,2.18.1,3.31v.08c0,.12-.04.22-.12.3-.2.2-.45.3-.75.3-.09,0-.17-.03-.24-.09-.07-.06-.11-.13-.11-.21.04-.59.08-1.16.11-1.72.03-.55.05-1.28.06-2.18v-5.7c0-.97-.04-1.85-.14-2.62v-.06c0-.16.06-.24.18-.24.05,0,.1.01.16.04l.63.3c.14.06.27.09.39.09h8.53c.16,0,.29-.07.38-.21l.08-.11s.07-.1.13-.19c.06-.08.12-.13.18-.13.07,0,.23.09.48.27.25.18.44.35.58.5.04.05.06.11.06.17,0,.07-.04.13-.13.2-.03.02-.06.04-.09.04-.03,0-.05.02-.08.03-.18.06-.27.17-.27.34v9.96c0,.41-.09.72-.27.95-.18.22-.55.37-1.12.45l-.09.02c-.14,0-.24-.08-.29-.25-.07-.18-.19-.32-.35-.41-.25-.15-.65-.26-1.21-.34-.2-.03-.3-.08-.3-.17s.11-.11.33-.09c.99.08,1.63.12,1.92.12.16,0,.27-.03.34-.09.07-.06.1-.16.1-.3v-4.62c0-.1-.03-.18-.08-.23-.05-.05-.13-.08-.23-.08h-8.56c-.1,0-.18.03-.23.08Zm3.9-5.37c-.06-.05-.13-.08-.23-.08h-3.43c-.1,0-.18.03-.23.08s-.08.13-.08.23v4.32c0,.1.03.18.08.23.05.06.13.08.23.08h3.43c.1,0,.18-.03.23-.08.06-.05.08-.13.08-.23v-4.32c0-.1-.03-.18-.08-.23Zm1.12,0c-.06.06-.08.13-.08.23v4.32c0,.1.03.18.08.23.06.06.13.08.23.08h3.54c.1,0,.18-.03.23-.08.05-.05.08-.13.08-.23v-4.32c0-.1-.03-.18-.08-.23-.05-.05-.13-.08-.23-.08h-3.54c-.1,0-.18.03-.23.08Z"/>
      </g>
    </g>
    <g id="_10_000円" data-name=" 10 000円" class="cls-1">
      <g class="cls-1">
        <path class="cls-2" d="m676.52,110.64c-.07,0-.1-.07-.1-.21,0-.15.03-.22.1-.22h.24c.49,0,.88-.08,1.19-.23.3-.15.45-.38.45-.71v-7.18c0-.3-.03-.5-.08-.61-.05-.11-.19-.17-.39-.21s-.59-.05-1.15-.05h-.26c-.07,0-.1-.08-.1-.22,0-.14.03-.21.1-.21.54,0,1.03-.07,1.46-.2s.85-.35,1.24-.65c.08-.06.15-.09.2-.09.12,0,.18.09.18.27v9.17c0,.62.54.93,1.64.93h.22s.07.02.08.05c.02.04.02.09.02.17,0,.14-.04.21-.11.21h-4.94Z"/>
        <path class="cls-2" d="m684.8,110.22c-.49-.42-.88-1.05-1.17-1.89-.29-.84-.44-1.87-.44-3.08s.15-2.24.45-3.09c.3-.85.69-1.49,1.18-1.91.49-.42,1.01-.64,1.58-.64s1.08.21,1.57.64c.49.43.88,1.06,1.17,1.91.29.85.44,1.88.44,3.09s-.15,2.23-.45,3.08c-.3.84-.69,1.47-1.18,1.89s-1.01.63-1.58.63-1.08-.21-1.57-.63Zm2.97-1.15c.33-.84.5-2.12.5-3.82s-.17-2.98-.5-3.83c-.33-.85-.79-1.28-1.37-1.28s-1.06.43-1.4,1.28c-.34.86-.51,2.13-.51,3.83s.17,2.97.51,3.82c.34.84.8,1.27,1.4,1.27s1.04-.42,1.37-1.27Z"/>
        <path class="cls-2" d="m691.51,112.2s-.03-.05-.03-.07c0-.02,0-.04.03-.06.18-.16.32-.32.41-.48.09-.16.14-.3.14-.42,0-.16-.07-.28-.2-.35-.17-.08-.3-.17-.4-.29-.09-.11-.14-.25-.14-.43,0-.24.08-.44.24-.6s.36-.24.59-.24.42.08.58.25.24.37.24.62c0,.46-.14.88-.41,1.25-.28.37-.59.65-.94.85l-.04.02s-.05-.02-.08-.05Z"/>
        <path class="cls-2" d="m696.35,110.22c-.48-.42-.88-1.05-1.17-1.89-.29-.84-.44-1.87-.44-3.08s.15-2.24.45-3.09c.3-.85.69-1.49,1.18-1.91.48-.42,1.01-.64,1.58-.64s1.08.21,1.57.64c.48.43.88,1.06,1.17,1.91.29.85.44,1.88.44,3.09s-.15,2.23-.45,3.08c-.3.84-.69,1.47-1.18,1.89-.48.42-1.01.63-1.58.63s-1.08-.21-1.57-.63Zm2.97-1.15c.33-.84.5-2.12.5-3.82s-.17-2.98-.5-3.83c-.34-.85-.79-1.28-1.37-1.28s-1.05.43-1.39,1.28c-.34.86-.51,2.13-.51,3.83s.17,2.97.51,3.82.8,1.27,1.39,1.27,1.04-.42,1.37-1.27Z"/>
        <path class="cls-2" d="m704.15,110.22c-.49-.42-.88-1.05-1.17-1.89-.29-.84-.44-1.87-.44-3.08s.15-2.24.45-3.09c.3-.85.69-1.49,1.18-1.91.49-.42,1.01-.64,1.58-.64s1.08.21,1.57.64c.49.43.88,1.06,1.17,1.91.29.85.44,1.88.44,3.09s-.15,2.23-.45,3.08c-.3.84-.69,1.47-1.18,1.89s-1.01.63-1.58.63-1.08-.21-1.57-.63Zm2.97-1.15c.33-.84.5-2.12.5-3.82s-.17-2.98-.5-3.83c-.33-.85-.79-1.28-1.37-1.28s-1.06.43-1.4,1.28c-.34.86-.51,2.13-.51,3.83s.17,2.97.51,3.82c.34.84.8,1.27,1.4,1.27s1.04-.42,1.37-1.27Z"/>
        <path class="cls-2" d="m711.95,110.22c-.48-.42-.88-1.05-1.17-1.89-.29-.84-.44-1.87-.44-3.08s.15-2.24.45-3.09c.3-.85.69-1.49,1.18-1.91.48-.42,1.01-.64,1.58-.64s1.08.21,1.57.64c.48.43.88,1.06,1.17,1.91.29.85.44,1.88.44,3.09s-.15,2.23-.45,3.08c-.3.84-.69,1.47-1.18,1.89-.48.42-1.01.63-1.58.63s-1.08-.21-1.57-.63Zm2.97-1.15c.33-.84.5-2.12.5-3.82s-.17-2.98-.5-3.83c-.34-.85-.79-1.28-1.37-1.28s-1.05.43-1.39,1.28c-.34.86-.51,2.13-.51,3.83s.17,2.97.51,3.82.8,1.27,1.39,1.27,1.04-.42,1.37-1.27Z"/>
        <path class="cls-2" d="m720.45,105.29c-.06.06-.08.13-.08.23v2.27c.02,1.08.05,2.18.1,3.31v.08c0,.12-.04.22-.12.3-.2.2-.45.3-.75.3-.09,0-.17-.03-.24-.09-.07-.06-.11-.13-.11-.21.04-.59.08-1.16.11-1.72.03-.55.05-1.28.06-2.18v-5.7c0-.97-.04-1.85-.14-2.62v-.06c0-.16.06-.24.18-.24.05,0,.1.01.16.04l.63.3c.14.06.27.09.39.09h8.53c.16,0,.29-.07.38-.21l.08-.11s.07-.1.13-.19c.06-.08.12-.13.18-.13.07,0,.23.09.48.27.25.18.44.35.58.5.04.05.06.11.06.17,0,.07-.04.13-.13.2-.03.02-.06.04-.09.04-.03,0-.05.02-.08.03-.18.06-.27.17-.27.34v9.96c0,.41-.09.72-.27.95-.18.22-.55.37-1.12.45l-.09.02c-.14,0-.24-.08-.29-.25-.07-.18-.19-.32-.35-.41-.25-.15-.65-.26-1.21-.34-.2-.03-.3-.08-.3-.17s.11-.11.33-.09c.99.08,1.63.12,1.92.12.16,0,.27-.03.34-.09.07-.06.1-.16.1-.3v-4.62c0-.1-.03-.18-.08-.23-.05-.05-.13-.08-.23-.08h-8.56c-.1,0-.18.03-.23.08Zm3.9-5.37c-.06-.05-.13-.08-.23-.08h-3.43c-.1,0-.18.03-.23.08s-.08.13-.08.23v4.32c0,.1.03.18.08.23.05.06.13.08.23.08h3.43c.1,0,.18-.03.23-.08.06-.05.08-.13.08-.23v-4.32c0-.1-.03-.18-.08-.23Zm1.12,0c-.06.06-.08.13-.08.23v4.32c0,.1.03.18.08.23.06.06.13.08.23.08h3.54c.1,0,.18-.03.23-.08.05-.05.08-.13.08-.23v-4.32c0-.1-.03-.18-.08-.23-.05-.05-.13-.08-.23-.08h-3.54c-.1,0-.18.03-.23.08Z"/>
      </g>
    </g>
    <g id="_1泊2食" data-name=" 1泊2食" class="cls-1">
      <g class="cls-1">
        <path class="cls-2" d="m89.9,181.3c-.07,0-.1-.07-.1-.21,0-.15.03-.22.1-.22h.24c.49,0,.88-.08,1.19-.23.3-.15.45-.38.45-.71v-7.18c0-.3-.03-.5-.08-.61-.05-.11-.19-.17-.39-.21s-.59-.05-1.15-.05h-.26c-.07,0-.1-.08-.1-.22,0-.14.03-.21.1-.21.54,0,1.03-.07,1.46-.2s.85-.35,1.24-.65c.08-.06.15-.09.2-.09.12,0,.18.09.18.27v9.17c0,.62.54.93,1.64.93h.22s.07.02.08.05c.02.04.02.09.02.17,0,.14-.04.21-.11.21h-4.94Z"/>
        <path class="cls-2" d="m96.79,172.3s.08-.06.17-.06c.06,0,.11,0,.15.01.7.12,1.22.33,1.56.62.34.29.51.58.51.88,0,.15-.04.28-.13.38-.09.1-.21.16-.34.16-.06,0-.11,0-.15-.01-.12-.03-.21-.12-.27-.27-.11-.24-.28-.49-.52-.75-.24-.26-.49-.5-.76-.71-.17-.12-.24-.21-.21-.25Zm.65,5.96h.34c.09,0,.16-.01.2-.04s.1-.12.16-.25c.22-.43.82-1.75,1.79-3.96l.98-2.19c.08-.18.16-.27.24-.27.07,0,.1.05.1.15,0,.05-.01.12-.04.2l-.75,2.07c-.09.25-.31.85-.65,1.81-.34.96-.55,1.56-.62,1.81-.16.57-.24,1-.24,1.31,0,.13.02.28.06.45.04.17.07.29.08.36.07.29.12.55.16.77.04.23.06.48.06.77,0,.39-.07.69-.2.9s-.33.31-.6.31c-.23,0-.38-.18-.44-.54,0-.05-.01-.11-.01-.19s0-.15.01-.2c.05-.55.08-.99.08-1.32,0-.37-.02-.68-.08-.92-.05-.25-.12-.4-.22-.47-.1-.09-.24-.15-.42-.18-.2-.03-.3-.1-.3-.2,0-.11.11-.17.32-.17Zm.6-9.29s.06-.03.12-.03c.08,0,.15,0,.2.02.72.14,1.25.37,1.6.67.35.31.52.62.52.95,0,.17-.04.31-.13.41s-.21.16-.36.16c-.06,0-.11,0-.15-.01-.12-.03-.21-.12-.27-.27-.12-.27-.3-.55-.54-.83s-.5-.55-.78-.79c-.16-.13-.23-.22-.2-.27Zm10.24,2.37l.09-.12s.05-.08.1-.14c.04-.06.09-.11.12-.14.03-.03.07-.04.11-.04.07,0,.21.08.44.25.22.17.39.32.51.47.04.04.06.09.06.15,0,.08-.04.15-.13.2-.01,0-.03.02-.05.02-.03,0-.05.02-.08.04-.19.06-.29.17-.29.34v6.05c.02,1.09.05,2.19.1,3.3v.08c0,.14-.05.24-.15.3-.23.17-.49.25-.77.25-.08,0-.13-.04-.17-.12-.02-.03-.03-.08-.03-.13,0-.03,0-.11.03-.23,0-.02,0-.14.03-.36v-.11c0-.1-.03-.18-.08-.23-.06-.05-.13-.08-.23-.08h-4.8c-.1,0-.18.03-.23.08s-.08.13-.08.23v.04c.02.24.03.38.03.41v.1c0,.12-.04.21-.11.27-.16.16-.39.24-.71.24-.08,0-.15-.03-.22-.1-.06-.07-.1-.13-.1-.2.04-.59.08-1.16.11-1.72.03-.56.05-1.28.06-2.18v-4.2c0-.98-.04-1.86-.13-2.64v-.06c0-.15.07-.22.19-.22.06,0,.11,0,.15.03l.69.3c.11.05.24.08.38.08h.93c.2,0,.32-.09.34-.27.16-.73.26-1.5.3-2.29,0-.11.05-.19.11-.23.07-.04.15-.06.25-.04l1.11.27c.08.02.14.05.19.11.05.05.08.09.08.13,0,.05-.03.09-.09.12l-.09.04s-.08.04-.17.08-.14.1-.2.19c-.2.38-.48.89-.85,1.52-.04.05-.06.11-.06.18,0,.13.09.2.27.2h2.65c.16,0,.29-.07.38-.2Zm-.16,4.45c.05-.05.08-.13.08-.23v-3.27c0-.1-.03-.18-.08-.23s-.13-.08-.23-.08h-4.8c-.1,0-.18.03-.23.08-.05.05-.08.13-.08.23v3.27c0,.1.03.18.08.23.05.06.13.08.23.08h4.8c.1,0,.18-.03.23-.08Zm-5.27.6c-.05.05-.08.13-.08.23v3.69c0,.1.03.18.08.23.05.06.13.08.23.08h4.8c.1,0,.18-.03.23-.08s.08-.13.08-.23v-3.69c0-.1-.03-.18-.08-.23s-.13-.08-.23-.08h-4.8c-.1,0-.18.03-.23.08Z"/>
        <path class="cls-2" d="m117.27,181.03c-.04.18-.16.27-.34.27h-4.92c-.18,0-.29-.05-.33-.17-.03-.06-.04-.12-.04-.18s.01-.12.04-.2c.29-.72.64-1.39,1.06-2,.42-.61.97-1.33,1.65-2.14.73-.85,1.26-1.55,1.59-2.11.33-.56.5-1.12.5-1.7,0-.54-.15-1.01-.45-1.42-.3-.41-.77-.62-1.41-.62-.47,0-.87.12-1.2.35-.33.24-.5.52-.5.86,0,.13.02.24.05.33.04.09.09.19.17.3.07.11.12.21.16.29s.05.19.05.31c0,.24-.07.43-.22.58s-.33.22-.56.22c-.2,0-.38-.1-.55-.29-.17-.2-.25-.46-.25-.8,0-.37.11-.76.34-1.17s.57-.76,1.02-1.04,1.01-.43,1.67-.43c.72,0,1.3.14,1.74.43.44.29.75.64.94,1.07s.28.87.28,1.33c0,.42-.07.79-.21,1.1s-.33.61-.57.87c-.24.26-.6.62-1.08,1.06-.11.11-.25.24-.42.39-.17.15-.37.33-.59.55-.88.89-1.57,1.81-2.07,2.76-.03.06-.04.12-.04.17,0,.14.1.21.29.21h1.37c.73,0,1.28-.04,1.63-.13.36-.08.63-.24.82-.46.18-.22.37-.58.55-1.07.02-.06.05-.09.11-.09,0,0,.05,0,.13.03.06.02.11.04.13.06.03.02.04.05.04.09v.08s-.58,2.31-.58,2.31Z"/>
        <path class="cls-2" d="m128.8,172.96l.08-.11s.05-.08.1-.14c.05-.06.08-.11.12-.14.04-.03.07-.04.11-.04.07,0,.21.09.43.26s.38.34.49.49c.04.04.06.09.06.15,0,.07-.04.13-.12.2l-.06.03c-.18.06-.27.18-.27.35v1.02c.02.97.04,1.73.08,2.27v.07c0,.14-.04.24-.13.3-.1.08-.22.15-.36.2s-.26.08-.38.08c-.04,0-.08-.02-.1-.06-.03-.04-.05-.09-.05-.17s-.03-.12-.08-.17c-.06-.04-.13-.06-.23-.06h-1.92c-.08,0-.14.02-.19.06s-.08.09-.08.15c0,.05.02.1.04.17.37.59.82,1.1,1.35,1.54.08.08.16.12.23.12.05,0,.09-.02.13-.05.38-.26.75-.56,1.12-.89.36-.33.66-.66.89-.97.06-.1.14-.15.24-.15.07,0,.14.03.21.09.6.45.9.73.9.84,0,.05-.05.07-.15.07h-.04c-.13,0-.26.04-.39.11-.55.33-1.28.68-2.17,1.05-.13.06-.2.13-.2.22,0,.08.05.15.17.21,1.01.59,2.25,1.02,3.71,1.29.21.05.31.1.3.15,0,.04-.04.07-.11.1-.06.02-.11.05-.15.07-.22.11-.38.28-.48.51-.09.18-.23.25-.41.21-1.38-.4-2.53-.97-3.45-1.72s-1.63-1.73-2.13-2.94c-.07-.16-.2-.24-.38-.24h-1.84c-.1,0-.18.03-.23.08-.06.05-.08.13-.08.23v2.59c0,.11.03.19.09.24.06.05.15.07.25.04l3-.51s.1-.01.18-.01c.09,0,.15.02.17.07v.02c0,.08-.09.15-.26.21-2.1.67-3.89,1.21-5.37,1.6-.15.04-.24.08-.27.14,0,0-.01.03-.03.07-.04.07-.09.11-.16.11-.1,0-.19-.07-.26-.2l-.33-.62c-.03-.06-.04-.11-.04-.16,0-.14.08-.22.24-.23.58-.08,1.11-.16,1.59-.24.19-.03.29-.14.29-.33v-7.38c0-.18-.07-.27-.2-.27-.07,0-.13.02-.18.06-.78.46-1.5.83-2.16,1.12-.19.08-.3.08-.33.02v-.03c0-.06.08-.13.22-.22.7-.39,1.42-.86,2.15-1.42s1.38-1.13,1.96-1.72c.67-.68,1.12-1.34,1.35-2,.05-.15.14-.22.27-.22.05,0,.09,0,.12.01l1.17.33c.07.02.13.05.18.1.05.04.07.09.07.14,0,.06-.04.09-.11.11-.07.07-.1.14-.1.21,0,.06.03.12.09.18.64.59,1.44,1.15,2.41,1.67s1.99.97,3.08,1.35c.09.03.16.06.2.09.04.03.06.07.06.11s-.03.08-.07.11c-.05.04-.11.07-.18.1-.21.11-.37.25-.46.43-.08.13-.17.2-.25.2-.04,0-.09-.01-.15-.04-1.01-.47-1.96-1.04-2.85-1.72-.89-.68-1.61-1.39-2.14-2.13-.07-.1-.15-.15-.23-.15s-.15.04-.21.12c-.83.92-1.92,1.83-3.25,2.73-.1.06-.15.13-.15.21,0,.09.06.17.18.23l.33.17c.11.06.24.09.39.09h1.62c.21,0,.31-.11.31-.32-.02-.58-.04-.98-.06-1.21v-.06c0-.15.07-.23.21-.23.02,0,.07.01.15.03.36.12.61.22.76.29.15.07.22.14.22.2,0,.04-.04.08-.11.13v.02c-.14.1-.21.22-.21.38v.45c0,.1.03.18.08.23.05.06.13.08.23.08h1.57c.16,0,.29-.07.38-.21Zm-.1,2.03c.05-.05.08-.13.08-.23v-.85c0-.1-.03-.18-.08-.23-.06-.05-.13-.08-.23-.08h-4.8c-.1,0-.18.03-.23.08s-.08.13-.08.23v.85c0,.1.03.18.08.23.05.06.13.08.23.08h4.8c.1,0,.18-.03.23-.08Zm-5.26.62c-.06.05-.08.13-.08.23v.9c0,.1.03.18.08.23s.13.08.23.08h4.8c.1,0,.18-.03.23-.08.05-.06.08-.13.08-.23v-.9c0-.1-.03-.18-.08-.23-.06-.05-.13-.08-.23-.08h-4.8c-.1,0-.18.03-.23.08Z"/>
      </g>
    </g>
    <g id="_12_000円" data-name=" 12 000円" class="cls-1">
      <g class="cls-1">
        <path class="cls-2" d="m291.84,180.64c-.07,0-.1-.07-.1-.21,0-.15.03-.22.1-.22h.24c.49,0,.88-.08,1.19-.23.3-.15.45-.38.45-.71v-7.18c0-.3-.03-.5-.08-.61-.05-.11-.19-.17-.39-.21s-.59-.05-1.15-.05h-.26c-.07,0-.1-.08-.1-.22,0-.14.03-.21.1-.21.54,0,1.03-.07,1.46-.2s.85-.35,1.24-.65c.08-.06.15-.09.2-.09.12,0,.18.09.18.27v9.17c0,.62.54.93,1.64.93h.22s.07.02.08.05c.02.04.02.09.02.17,0,.14-.04.21-.11.21h-4.94Z"/>
        <path class="cls-2" d="m304.2,180.37c-.04.18-.16.27-.34.27h-4.92c-.18,0-.29-.05-.33-.17-.03-.06-.04-.12-.04-.18s.01-.12.04-.2c.29-.72.64-1.39,1.06-2,.42-.61.97-1.33,1.65-2.14.73-.85,1.26-1.55,1.59-2.11.33-.56.5-1.12.5-1.7,0-.54-.15-1.01-.45-1.42-.3-.41-.77-.62-1.41-.62-.47,0-.87.12-1.2.35-.33.24-.5.52-.5.86,0,.13.02.24.05.33.04.09.09.19.17.3.07.11.12.21.16.29s.05.19.05.31c0,.24-.07.43-.22.58s-.33.22-.56.22c-.2,0-.38-.1-.55-.29-.17-.2-.25-.46-.25-.8,0-.37.11-.76.34-1.17s.57-.76,1.02-1.04,1.01-.43,1.67-.43c.72,0,1.3.14,1.74.43.44.29.75.64.94,1.07s.28.87.28,1.33c0,.42-.07.79-.21,1.1s-.33.61-.57.87c-.24.26-.6.62-1.08,1.06-.11.11-.25.24-.42.39-.17.15-.37.33-.59.55-.88.89-1.57,1.81-2.07,2.76-.03.06-.04.12-.04.17,0,.14.1.21.29.21h1.37c.73,0,1.28-.04,1.63-.13.36-.08.63-.24.82-.46.18-.22.37-.58.55-1.07.02-.06.05-.09.11-.09,0,0,.05,0,.13.03.06.02.11.04.13.06.03.02.04.05.04.09v.08s-.58,2.31-.58,2.31Z"/>
        <path class="cls-2" d="m306.69,182.2s-.03-.05-.03-.07c0-.02,0-.04.03-.06.18-.16.32-.32.41-.48.09-.16.14-.3.14-.42,0-.16-.07-.28-.2-.35-.17-.08-.3-.17-.4-.29-.1-.11-.14-.25-.14-.43,0-.24.08-.44.24-.6s.36-.24.58-.24.42.08.58.25.24.37.24.62c0,.46-.14.88-.41,1.25-.28.37-.59.65-.94.85l-.04.02s-.06-.02-.08-.05Z"/>
        <path class="cls-2" d="m311.53,180.22c-.48-.42-.88-1.05-1.17-1.89-.29-.84-.44-1.87-.44-3.08s.15-2.24.45-3.09c.3-.85.69-1.49,1.18-1.91.48-.42,1.01-.64,1.58-.64s1.08.21,1.57.64c.49.43.88,1.06,1.17,1.91.29.85.44,1.88.44,3.09s-.15,2.23-.45,3.08c-.3.84-.69,1.47-1.18,1.89-.49.42-1.01.63-1.58.63s-1.08-.21-1.57-.63Zm2.97-1.15c.33-.84.5-2.12.5-3.82s-.17-2.98-.5-3.83c-.34-.85-.79-1.28-1.37-1.28s-1.05.43-1.39,1.28c-.34.86-.51,2.13-.51,3.83s.17,2.97.51,3.82c.34.84.8,1.27,1.39,1.27s1.04-.42,1.37-1.27Z"/>
        <path class="cls-2" d="m319.33,180.22c-.49-.42-.88-1.05-1.17-1.89-.29-.84-.44-1.87-.44-3.08s.15-2.24.45-3.09c.3-.85.69-1.49,1.18-1.91.49-.42,1.01-.64,1.58-.64s1.08.21,1.57.64c.48.43.88,1.06,1.17,1.91.29.85.44,1.88.44,3.09s-.15,2.23-.45,3.08c-.3.84-.69,1.47-1.18,1.89-.48.42-1.01.63-1.58.63s-1.08-.21-1.57-.63Zm2.97-1.15c.34-.84.5-2.12.5-3.82s-.17-2.98-.5-3.83c-.33-.85-.79-1.28-1.37-1.28s-1.06.43-1.4,1.28c-.34.86-.51,2.13-.51,3.83s.17,2.97.51,3.82.8,1.27,1.4,1.27,1.04-.42,1.37-1.27Z"/>
        <path class="cls-2" d="m327.13,180.22c-.48-.42-.88-1.05-1.17-1.89-.29-.84-.44-1.87-.44-3.08s.15-2.24.45-3.09c.3-.85.69-1.49,1.18-1.91.48-.42,1.01-.64,1.58-.64s1.08.21,1.57.64c.49.43.88,1.06,1.17,1.91.29.85.44,1.88.44,3.09s-.15,2.23-.45,3.08c-.3.84-.69,1.47-1.18,1.89-.49.42-1.01.63-1.58.63s-1.08-.21-1.57-.63Zm2.97-1.15c.33-.84.5-2.12.5-3.82s-.17-2.98-.5-3.83c-.34-.85-.79-1.28-1.37-1.28s-1.05.43-1.39,1.28c-.34.86-.51,2.13-.51,3.83s.17,2.97.51,3.82c.34.84.8,1.27,1.39,1.27s1.04-.42,1.37-1.27Z"/>
        <path class="cls-2" d="m335.63,175.29c-.06.06-.08.13-.08.23v2.27c.02,1.08.05,2.18.11,3.31v.08c0,.12-.04.22-.12.3-.2.2-.45.3-.75.3-.09,0-.17-.03-.24-.09-.07-.06-.11-.13-.11-.21.04-.59.07-1.16.11-1.72.03-.55.05-1.28.06-2.18v-5.7c0-.97-.04-1.85-.14-2.62v-.06c0-.16.06-.24.18-.24.05,0,.1.01.17.04l.63.3c.14.06.27.09.39.09h8.54c.16,0,.29-.07.38-.21l.08-.11s.08-.1.14-.19c.06-.08.12-.13.18-.13.07,0,.23.09.48.27.25.18.44.35.58.5.04.05.06.11.06.17,0,.07-.04.13-.13.2-.03.02-.06.04-.09.04s-.05.02-.08.03c-.18.06-.27.17-.27.34v9.96c0,.41-.09.72-.27.95-.18.22-.56.37-1.12.45l-.09.02c-.14,0-.24-.08-.29-.25-.07-.18-.19-.32-.35-.41-.25-.15-.65-.26-1.21-.34-.2-.03-.3-.08-.3-.17s.11-.11.33-.09c.99.08,1.63.12,1.92.12.16,0,.27-.03.34-.09.07-.06.1-.16.1-.3v-4.62c0-.1-.03-.18-.08-.23-.05-.05-.13-.08-.23-.08h-8.57c-.1,0-.18.03-.23.08Zm3.9-5.37c-.05-.05-.13-.08-.23-.08h-3.43c-.1,0-.18.03-.23.08s-.08.13-.08.23v4.32c0,.1.03.18.08.23.05.06.13.08.23.08h3.43c.1,0,.18-.03.23-.08.06-.05.08-.13.08-.23v-4.32c0-.1-.03-.18-.08-.23Zm1.12,0c-.05.06-.08.13-.08.23v4.32c0,.1.03.18.08.23s.13.08.23.08h3.54c.1,0,.18-.03.23-.08.05-.05.08-.13.08-.23v-4.32c0-.1-.03-.18-.08-.23-.05-.05-.13-.08-.23-.08h-3.54c-.1,0-.18.03-.23.08Z"/>
      </g>
    </g>
    <g id="_13_000円" data-name=" 13 000円" class="cls-1">
      <g class="cls-1">
        <path class="cls-2" d="m484.25,180.64c-.07,0-.1-.07-.1-.21,0-.15.03-.22.1-.22h.24c.49,0,.88-.08,1.19-.23.3-.15.45-.38.45-.71v-7.18c0-.3-.03-.5-.08-.61-.05-.11-.19-.17-.39-.21s-.59-.05-1.15-.05h-.26c-.07,0-.1-.08-.1-.22,0-.14.03-.21.1-.21.54,0,1.03-.07,1.46-.2s.85-.35,1.24-.65c.08-.06.15-.09.2-.09.12,0,.18.09.18.27v9.17c0,.62.54.93,1.64.93h.22s.07.02.08.05c.02.04.02.09.02.17,0,.14-.04.21-.11.21h-4.94Z"/>
        <path class="cls-2" d="m494.72,174.88s.06.06.18.09c.73.19,1.31.52,1.76.99.44.47.66,1.04.66,1.71,0,.45-.1.92-.31,1.4s-.57.9-1.09,1.25c-.52.35-1.21.53-2.08.53-.68,0-1.24-.12-1.67-.38s-.75-.55-.93-.91c-.18-.36-.28-.7-.28-1.03s.08-.56.23-.71c.16-.16.33-.23.53-.23s.4.06.57.19.25.3.25.53c0,.11-.05.25-.16.44-.05.07-.09.14-.13.21-.04.07-.05.15-.05.24,0,.29.11.56.33.8.22.24.61.36,1.17.36.44,0,.83-.12,1.18-.36.35-.24.62-.57.83-.99.2-.42.3-.9.3-1.44,0-.73-.2-1.32-.6-1.77s-.96-.67-1.66-.67c-.07,0-.18,0-.32.03-.14.02-.26.03-.36.03-.11,0-.2-.03-.28-.08-.07-.05-.11-.13-.11-.23,0-.09.04-.17.11-.22.08-.06.17-.09.28-.09.14,0,.27.01.39.04.16.02.29.03.38.03.42,0,.82-.14,1.21-.42.39-.28.58-.88.58-1.8,0-.83-.18-1.42-.53-1.76-.36-.35-.77-.52-1.24-.52-.29,0-.57.07-.85.2s-.41.39-.41.76c0,.16.04.33.12.51.07.12.1.25.1.39,0,.19-.06.35-.17.46-.12.12-.26.18-.43.18-.31,0-.53-.1-.67-.29-.13-.19-.2-.41-.2-.65,0-.27.11-.57.34-.89.22-.32.54-.6.95-.83.41-.23.88-.35,1.41-.35.58,0,1.09.12,1.52.37s.77.57,1,.97c.23.41.35.84.35,1.31,0,.59-.17,1.11-.51,1.57s-.85.77-1.52.95c-.12.03-.18.06-.18.09Z"/>
        <path class="cls-2" d="m499.28,182.2s-.03-.05-.03-.07c0-.02,0-.04.03-.06.18-.16.32-.32.41-.48.09-.16.14-.3.14-.42,0-.16-.07-.28-.2-.35-.17-.08-.3-.17-.4-.29-.09-.11-.14-.25-.14-.43,0-.24.08-.44.24-.6s.36-.24.59-.24.42.08.58.25.24.37.24.62c0,.46-.14.88-.41,1.25-.28.37-.59.65-.94.85l-.04.02s-.05-.02-.08-.05Z"/>
        <path class="cls-2" d="m504.12,180.22c-.48-.42-.88-1.05-1.17-1.89-.29-.84-.44-1.87-.44-3.08s.15-2.24.45-3.09c.3-.85.69-1.49,1.18-1.91.48-.42,1.01-.64,1.58-.64s1.08.21,1.57.64c.48.43.88,1.06,1.17,1.91.29.85.44,1.88.44,3.09s-.15,2.23-.45,3.08c-.3.84-.69,1.47-1.18,1.89-.48.42-1.01.63-1.58.63s-1.08-.21-1.57-.63Zm2.97-1.15c.33-.84.5-2.12.5-3.82s-.17-2.98-.5-3.83c-.34-.85-.79-1.28-1.37-1.28s-1.05.43-1.39,1.28c-.34.86-.51,2.13-.51,3.83s.17,2.97.51,3.82.8,1.27,1.39,1.27,1.04-.42,1.37-1.27Z"/>
        <path class="cls-2" d="m511.92,180.22c-.49-.42-.88-1.05-1.17-1.89-.29-.84-.44-1.87-.44-3.08s.15-2.24.45-3.09c.3-.85.69-1.49,1.18-1.91.49-.42,1.01-.64,1.58-.64s1.08.21,1.57.64c.49.43.88,1.06,1.17,1.91.29.85.44,1.88.44,3.09s-.15,2.23-.45,3.08c-.3.84-.69,1.47-1.18,1.89s-1.01.63-1.58.63-1.08-.21-1.57-.63Zm2.97-1.15c.33-.84.5-2.12.5-3.82s-.17-2.98-.5-3.83c-.33-.85-.79-1.28-1.37-1.28s-1.06.43-1.4,1.28c-.34.86-.51,2.13-.51,3.83s.17,2.97.51,3.82c.34.84.8,1.27,1.4,1.27s1.04-.42,1.37-1.27Z"/>
        <path class="cls-2" d="m519.72,180.22c-.48-.42-.88-1.05-1.17-1.89-.29-.84-.44-1.87-.44-3.08s.15-2.24.45-3.09c.3-.85.69-1.49,1.18-1.91.48-.42,1.01-.64,1.58-.64s1.08.21,1.57.64c.48.43.88,1.06,1.17,1.91.29.85.44,1.88.44,3.09s-.15,2.23-.45,3.08c-.3.84-.69,1.47-1.18,1.89-.48.42-1.01.63-1.58.63s-1.08-.21-1.57-.63Zm2.97-1.15c.33-.84.5-2.12.5-3.82s-.17-2.98-.5-3.83c-.34-.85-.79-1.28-1.37-1.28s-1.05.43-1.39,1.28c-.34.86-.51,2.13-.51,3.83s.17,2.97.51,3.82.8,1.27,1.39,1.27,1.04-.42,1.37-1.27Z"/>
        <path class="cls-2" d="m528.23,175.29c-.06.06-.08.13-.08.23v2.27c.02,1.08.05,2.18.1,3.31v.08c0,.12-.04.22-.12.3-.2.2-.45.3-.75.3-.09,0-.17-.03-.24-.09-.07-.06-.11-.13-.11-.21.04-.59.08-1.16.11-1.72.03-.55.05-1.28.06-2.18v-5.7c0-.97-.04-1.85-.14-2.62v-.06c0-.16.06-.24.18-.24.05,0,.1.01.16.04l.63.3c.14.06.27.09.39.09h8.53c.16,0,.29-.07.38-.21l.08-.11s.07-.1.13-.19c.06-.08.12-.13.18-.13.07,0,.23.09.48.27.25.18.44.35.58.5.04.05.06.11.06.17,0,.07-.04.13-.13.2-.03.02-.06.04-.09.04-.03,0-.05.02-.08.03-.18.06-.27.17-.27.34v9.96c0,.41-.09.72-.27.95-.18.22-.55.37-1.12.45l-.09.02c-.14,0-.24-.08-.29-.25-.07-.18-.19-.32-.35-.41-.25-.15-.65-.26-1.21-.34-.2-.03-.3-.08-.3-.17s.11-.11.33-.09c.99.08,1.63.12,1.92.12.16,0,.27-.03.34-.09.07-.06.1-.16.1-.3v-4.62c0-.1-.03-.18-.08-.23-.05-.05-.13-.08-.23-.08h-8.56c-.1,0-.18.03-.23.08Zm3.9-5.37c-.06-.05-.13-.08-.23-.08h-3.43c-.1,0-.18.03-.23.08s-.08.13-.08.23v4.32c0,.1.03.18.08.23.05.06.13.08.23.08h3.43c.1,0,.18-.03.23-.08.06-.05.08-.13.08-.23v-4.32c0-.1-.03-.18-.08-.23Zm1.12,0c-.06.06-.08.13-.08.23v4.32c0,.1.03.18.08.23.06.06.13.08.23.08h3.54c.1,0,.18-.03.23-.08.05-.05.08-.13.08-.23v-4.32c0-.1-.03-.18-.08-.23-.05-.05-.13-.08-.23-.08h-3.54c-.1,0-.18.03-.23.08Z"/>
      </g>
    </g>
    <g id="_14_000円" data-name=" 14 000円" class="cls-1">
      <g class="cls-1">
        <path class="cls-2" d="m676.65,180.64c-.07,0-.1-.07-.1-.21,0-.15.03-.22.1-.22h.24c.49,0,.88-.08,1.19-.23.3-.15.45-.38.45-.71v-7.18c0-.3-.03-.5-.08-.61-.05-.11-.19-.17-.39-.21s-.59-.05-1.15-.05h-.26c-.07,0-.1-.08-.1-.22,0-.14.03-.21.1-.21.54,0,1.03-.07,1.46-.2s.85-.35,1.24-.65c.08-.06.15-.09.2-.09.12,0,.18.09.18.27v9.17c0,.62.54.93,1.64.93h.22s.07.02.08.05c.02.04.02.09.02.17,0,.14-.04.21-.11.21h-4.94Z"/>
        <path class="cls-2" d="m689.83,177.63c.05.06.08.13.08.23s-.03.18-.08.23c-.05.06-.13.08-.23.08h-1.06c-.1,0-.18.03-.23.08s-.08.13-.08.23v1.17c0,.22.09.37.29.43.19.07.44.11.75.11h.19c.09,0,.14.07.14.21,0,.15-.04.22-.14.22h-3.6c-.08,0-.12-.08-.12-.22,0-.14.04-.21.12-.21h.2c.31,0,.56-.04.75-.11.19-.07.29-.21.29-.43v-1.17c0-.1-.03-.18-.08-.23-.06-.05-.13-.08-.23-.08h-3.41c-.1,0-.18-.03-.23-.08-.05-.05-.08-.13-.08-.23v-.1c0-.15.04-.28.11-.39l4.33-7.52c.1-.16.24-.22.41-.18h.06c.18.05.27.17.27.36v7.2c0,.1.03.18.08.23.05.06.13.08.23.08h1.06c.1,0,.18.03.23.08Zm-2.8-5.28s-.07-.07-.12-.07c-.08,0-.15.06-.21.17l-2.73,4.73c-.03.06-.04.12-.04.17,0,.14.09.21.27.21h2.57c.1,0,.18-.03.23-.08s.08-.13.08-.23v-4.68c0-.09-.02-.16-.04-.2Z"/>
        <path class="cls-2" d="m691.38,182.2s-.03-.05-.03-.07c0-.02,0-.04.03-.06.18-.16.32-.32.41-.48.09-.16.14-.3.14-.42,0-.16-.07-.28-.2-.35-.17-.08-.3-.17-.4-.29-.09-.11-.14-.25-.14-.43,0-.24.08-.44.24-.6.16-.16.35-.24.58-.24s.42.08.58.25c.16.17.24.37.24.62,0,.46-.14.88-.41,1.25-.28.37-.59.65-.94.85l-.04.02s-.05-.02-.07-.05Z"/>
        <path class="cls-2" d="m696.22,180.22c-.49-.42-.88-1.05-1.17-1.89-.29-.84-.44-1.87-.44-3.08s.15-2.24.45-3.09c.3-.85.69-1.49,1.18-1.91.49-.42,1.01-.64,1.58-.64s1.08.21,1.57.64c.48.43.88,1.06,1.17,1.91.29.85.44,1.88.44,3.09s-.15,2.23-.45,3.08c-.3.84-.69,1.47-1.18,1.89-.48.42-1.01.63-1.58.63s-1.08-.21-1.57-.63Zm2.97-1.15c.34-.84.5-2.12.5-3.82s-.17-2.98-.5-3.83c-.33-.85-.79-1.28-1.37-1.28s-1.06.43-1.4,1.28c-.34.86-.51,2.13-.51,3.83s.17,2.97.51,3.82.8,1.27,1.4,1.27,1.04-.42,1.37-1.27Z"/>
        <path class="cls-2" d="m704.02,180.22c-.48-.42-.88-1.05-1.17-1.89-.29-.84-.44-1.87-.44-3.08s.15-2.24.45-3.09c.3-.85.69-1.49,1.18-1.91.48-.42,1.01-.64,1.58-.64s1.08.21,1.57.64c.48.43.88,1.06,1.17,1.91.29.85.44,1.88.44,3.09s-.15,2.23-.45,3.08c-.3.84-.69,1.47-1.18,1.89-.48.42-1.01.63-1.58.63s-1.08-.21-1.57-.63Zm2.97-1.15c.33-.84.5-2.12.5-3.82s-.17-2.98-.5-3.83c-.34-.85-.79-1.28-1.37-1.28s-1.05.43-1.39,1.28c-.34.86-.51,2.13-.51,3.83s.17,2.97.51,3.82.8,1.27,1.39,1.27,1.04-.42,1.37-1.27Z"/>
        <path class="cls-2" d="m711.82,180.22c-.49-.42-.88-1.05-1.17-1.89-.29-.84-.44-1.87-.44-3.08s.15-2.24.45-3.09c.3-.85.69-1.49,1.18-1.91.49-.42,1.01-.64,1.58-.64s1.08.21,1.57.64c.49.43.88,1.06,1.17,1.91.29.85.44,1.88.44,3.09s-.15,2.23-.45,3.08c-.3.84-.69,1.47-1.18,1.89s-1.01.63-1.58.63-1.08-.21-1.57-.63Zm2.97-1.15c.33-.84.5-2.12.5-3.82s-.17-2.98-.5-3.83c-.33-.85-.79-1.28-1.37-1.28s-1.06.43-1.4,1.28c-.34.86-.51,2.13-.51,3.83s.17,2.97.51,3.82c.34.84.8,1.27,1.4,1.27s1.04-.42,1.37-1.27Z"/>
        <path class="cls-2" d="m720.32,175.29c-.05.06-.08.13-.08.23v2.27c.02,1.08.05,2.18.11,3.31v.08c0,.12-.04.22-.12.3-.2.2-.45.3-.75.3-.09,0-.17-.03-.24-.09-.07-.06-.1-.13-.1-.21.04-.59.07-1.16.1-1.72.03-.55.05-1.28.06-2.18v-5.7c0-.97-.04-1.85-.13-2.62v-.06c0-.16.06-.24.18-.24.05,0,.11.01.17.04l.63.3c.14.06.27.09.39.09h8.54c.16,0,.29-.07.38-.21l.07-.11s.08-.1.14-.19c.06-.08.12-.13.18-.13.07,0,.23.09.48.27.25.18.45.35.59.5.04.05.06.11.06.17,0,.07-.04.13-.13.2-.03.02-.06.04-.09.04-.03,0-.05.02-.07.03-.18.06-.27.17-.27.34v9.96c0,.41-.09.72-.27.95-.18.22-.56.37-1.12.45l-.09.02c-.14,0-.24-.08-.29-.25-.07-.18-.18-.32-.34-.41-.25-.15-.66-.26-1.21-.34-.2-.03-.3-.08-.3-.17s.11-.11.33-.09c.99.08,1.63.12,1.92.12.16,0,.27-.03.34-.09.06-.06.1-.16.1-.3v-4.62c0-.1-.03-.18-.08-.23-.06-.05-.13-.08-.23-.08h-8.57c-.1,0-.18.03-.23.08Zm3.9-5.37c-.05-.05-.13-.08-.23-.08h-3.44c-.1,0-.18.03-.23.08-.05.06-.08.13-.08.23v4.32c0,.1.03.18.08.23.05.06.13.08.23.08h3.44c.1,0,.18-.03.23-.08.05-.05.08-.13.08-.23v-4.32c0-.1-.03-.18-.08-.23Zm1.12,0c-.05.06-.08.13-.08.23v4.32c0,.1.03.18.08.23.05.06.13.08.23.08h3.54c.1,0,.18-.03.23-.08s.08-.13.08-.23v-4.32c0-.1-.03-.18-.08-.23-.06-.05-.13-.08-.23-.08h-3.54c-.1,0-.18.03-.23.08Z"/>
      </g>
    </g>
    <g id="_夕_食" data-name="夕 食" class="cls-1">
      <g class="cls-1">
        <path class="cls-2" d="m100.56,241.12l.12-.13s.07-.08.13-.14c.05-.06.1-.11.14-.14s.08-.04.12-.04c.07,0,.22.1.46.31.23.21.42.39.55.56.04.04.06.09.06.15,0,.08-.05.14-.15.19-.05.02-.12.04-.22.06-.18.03-.29.12-.35.28-.66,1.89-1.48,3.49-2.46,4.81-.98,1.32-2.17,2.41-3.56,3.27-1.4.87-3.07,1.57-5.03,2.11l-.18.03c-.09,0-.15-.03-.17-.08v-.03c0-.09.08-.17.25-.22,1.73-.64,3.22-1.39,4.47-2.26s2.33-1.93,3.24-3.19c.91-1.26,1.67-2.78,2.28-4.56.02-.06.03-.11.03-.14,0-.07-.03-.12-.07-.17-.05-.04-.12-.06-.21-.06h-4.77c-.17,0-.29.07-.38.21-.3.45-.7.99-1.19,1.62-.06.06-.09.12-.09.2,0,.1.08.17.23.22.68.24,1.24.52,1.68.83.44.32.76.63.95.94.2.31.29.58.29.83,0,.17-.04.31-.12.41-.08.1-.19.16-.33.16l-.18-.03c-.07-.02-.12-.05-.16-.1s-.08-.11-.13-.19c-.21-.41-.53-.84-.96-1.3s-.89-.87-1.39-1.25c-.05-.05-.12-.08-.2-.08-.09,0-.17.04-.24.12-.91.99-1.85,1.82-2.82,2.48-.15.11-.25.13-.31.07,0,0-.02-.02-.02-.04,0-.05.06-.13.18-.25.79-.7,1.53-1.51,2.23-2.42s1.31-1.87,1.85-2.86c.43-.79.75-1.58.94-2.39.03-.15.11-.22.24-.22.06,0,.12.01.18.04.74.32,1.11.54,1.11.66,0,.04-.05.07-.15.09h-.04c-.16.04-.28.13-.35.27-.13.29-.33.68-.6,1.17-.04.05-.06.11-.06.18,0,.06.03.11.08.14s.12.05.2.05h4.49c.17,0,.3-.06.39-.18Z"/>
        <path class="cls-2" d="m128.72,242.98l.07-.11s.05-.08.1-.14c.04-.06.08-.11.12-.14.04-.03.07-.04.11-.04.07,0,.21.09.43.26s.38.34.49.49c.04.04.06.09.06.15,0,.07-.04.13-.12.2l-.06.03c-.18.06-.27.18-.27.35v1.02c.02.97.04,1.73.07,2.27v.07c0,.14-.04.24-.13.3-.1.08-.22.15-.36.2-.14.05-.27.08-.38.08-.04,0-.08-.02-.11-.06-.03-.04-.04-.09-.04-.17s-.03-.12-.08-.17-.13-.06-.23-.06h-1.92c-.08,0-.15.02-.2.06-.05.04-.08.09-.08.15,0,.05.01.1.04.17.37.59.82,1.1,1.35,1.54.08.08.15.12.22.12.05,0,.09-.02.13-.05.38-.26.75-.56,1.12-.89s.66-.66.89-.97c.06-.1.14-.15.24-.15.07,0,.14.03.21.09.6.45.9.73.9.84,0,.05-.05.07-.15.07h-.05c-.13,0-.26.04-.39.11-.55.33-1.28.68-2.18,1.05-.13.06-.19.13-.19.22,0,.08.05.15.17.21,1.01.59,2.24,1.02,3.71,1.29.21.05.31.1.3.15-.01.04-.04.07-.1.1-.06.02-.11.05-.15.07-.22.11-.38.28-.48.51-.09.18-.22.25-.4.21-1.38-.4-2.53-.97-3.45-1.72-.92-.75-1.63-1.73-2.13-2.94-.07-.16-.2-.24-.38-.24h-1.85c-.1,0-.18.03-.23.08s-.08.13-.08.23v2.59c0,.11.03.19.09.24.06.05.14.07.25.04l3-.51s.1-.01.18-.01c.09,0,.14.02.16.07v.02c0,.08-.08.15-.25.21-2.1.67-3.89,1.21-5.37,1.6-.15.04-.24.08-.27.14,0,0,0,.03-.03.07-.04.07-.1.11-.17.11-.1,0-.19-.07-.25-.2l-.33-.62c-.03-.06-.05-.11-.05-.16,0-.14.08-.22.24-.23.58-.08,1.11-.16,1.59-.24.19-.03.29-.14.29-.33v-7.38c0-.18-.07-.27-.19-.27-.07,0-.13.02-.18.06-.78.46-1.5.83-2.16,1.12-.19.08-.3.08-.33.02v-.03c0-.06.08-.13.23-.22.7-.39,1.41-.86,2.14-1.42s1.38-1.13,1.96-1.72c.67-.68,1.12-1.34,1.35-2,.05-.15.14-.22.27-.22.05,0,.09,0,.12.01l1.17.33c.07.02.13.05.18.1.05.04.08.09.08.14,0,.06-.04.09-.1.11-.07.07-.11.14-.11.21,0,.06.03.12.09.18.64.59,1.44,1.15,2.41,1.67s1.99.97,3.08,1.35c.09.03.15.06.2.09.04.03.06.07.06.11s-.02.08-.08.11c-.05.04-.11.07-.18.1-.21.11-.37.25-.46.43-.08.13-.17.2-.25.2-.04,0-.09-.01-.15-.04-1.01-.47-1.96-1.04-2.85-1.72-.89-.68-1.6-1.39-2.15-2.13-.07-.1-.14-.15-.22-.15s-.15.04-.21.12c-.83.92-1.92,1.83-3.25,2.73-.1.06-.15.13-.15.21,0,.09.06.17.18.23l.33.17c.11.06.24.09.39.09h1.62c.21,0,.32-.11.32-.32-.02-.58-.04-.98-.06-1.21v-.06c0-.15.07-.23.21-.23.02,0,.07.01.15.03.36.12.61.22.76.29.14.07.22.14.22.2,0,.04-.04.08-.1.13l-.02.02c-.13.1-.2.22-.2.38v.45c0,.1.03.18.08.23s.13.08.23.08h1.58c.16,0,.29-.07.38-.21Zm-.1,2.03c.05-.05.08-.13.08-.23v-.85c0-.1-.03-.18-.08-.23-.05-.05-.13-.08-.23-.08h-4.8c-.1,0-.18.03-.23.08-.05.06-.08.13-.08.23v.85c0,.1.03.18.08.23.05.06.13.08.23.08h4.8c.1,0,.18-.03.23-.08Zm-5.27.62c-.05.05-.08.13-.08.23v.9c0,.1.03.18.08.23.05.05.13.08.23.08h4.8c.1,0,.18-.03.23-.08.05-.06.08-.13.08-.23v-.9c0-.1-.03-.18-.08-.23s-.13-.08-.23-.08h-4.8c-.1,0-.18.03-.23.08Z"/>
      </g>
    </g>
    <g id="_2_600円" data-name=" 2 600円" class="cls-1">
      <g class="cls-1">
        <path class="cls-2" d="m492.95,250.37c-.04.18-.15.27-.34.27h-4.92c-.18,0-.29-.05-.33-.17-.03-.06-.04-.12-.04-.18s.01-.12.04-.2c.29-.72.64-1.39,1.06-2,.42-.61.97-1.33,1.65-2.14.73-.85,1.26-1.55,1.59-2.11.33-.56.49-1.12.49-1.7,0-.54-.15-1.01-.45-1.42-.3-.41-.77-.62-1.41-.62-.47,0-.87.12-1.2.35-.33.24-.5.52-.5.86,0,.13.02.24.05.33.04.09.09.19.17.3.07.11.12.21.16.29s.05.19.05.31c0,.24-.07.43-.22.58-.15.15-.33.22-.56.22-.2,0-.38-.1-.55-.29-.16-.2-.25-.46-.25-.8,0-.37.11-.76.34-1.17.23-.41.57-.76,1.02-1.04s1.01-.43,1.67-.43c.72,0,1.3.14,1.74.43.44.29.75.64.94,1.07.18.42.28.87.28,1.33,0,.42-.07.79-.21,1.1-.14.32-.33.61-.57.87-.24.26-.6.62-1.08,1.06-.11.11-.25.24-.42.39-.17.15-.37.33-.58.55-.88.89-1.57,1.81-2.07,2.76-.03.06-.04.12-.04.17,0,.14.1.21.29.21h1.37c.73,0,1.28-.04,1.63-.13s.63-.24.82-.46.37-.58.55-1.07c.02-.06.05-.09.1-.09.01,0,.06,0,.14.03.06.02.1.04.13.06.03.02.04.05.04.09l-.02.08-.57,2.31Z"/>
        <path class="cls-2" d="m495.44,252.2s-.03-.05-.03-.07c0-.02,0-.04.03-.06.18-.16.32-.32.41-.48.09-.16.14-.3.14-.42,0-.16-.07-.28-.2-.35-.17-.08-.3-.17-.4-.29-.1-.11-.14-.25-.14-.43,0-.24.08-.44.24-.6s.36-.24.58-.24.42.08.58.25.24.37.24.62c0,.46-.14.88-.41,1.25-.28.37-.59.65-.94.85l-.04.02s-.06-.02-.08-.05Z"/>
        <path class="cls-2" d="m503.97,244.28c.42.29.74.68.96,1.16.22.48.33,1,.33,1.55,0,.69-.13,1.33-.4,1.92-.26.59-.64,1.06-1.12,1.41-.48.35-1.04.53-1.67.53s-1.24-.19-1.76-.57c-.52-.38-.92-.91-1.21-1.6-.29-.69-.43-1.47-.43-2.36,0-1.43.2-2.65.6-3.67.4-1.01.9-1.78,1.51-2.28s1.2-.76,1.78-.76c.46,0,.86.07,1.19.2s.59.31.76.53.25.45.25.69c0,.21-.07.39-.22.53s-.32.22-.52.22-.39-.09-.55-.28c-.16-.18-.25-.43-.27-.73-.02-.23-.08-.4-.18-.51-.1-.11-.27-.17-.5-.17-.66,0-1.19.42-1.59,1.26-.4.84-.68,1.85-.84,3.04,0,.08,0,.14.04.19s.1.07.18.07c.12,0,.25-.05.39-.17.53-.44,1.12-.66,1.77-.66.58,0,1.08.15,1.5.44Zm-.92,5.59c.29-.27.51-.64.67-1.11.16-.47.24-1,.24-1.58,0-1.06-.2-1.76-.61-2.12-.41-.35-.84-.52-1.31-.52-.39,0-.78.13-1.16.39-.38.26-.67.67-.86,1.23-.04.13-.06.26-.06.39.02,1.06.18,1.95.47,2.66s.84,1.06,1.63,1.06c.37,0,.7-.13.98-.4Z"/>
        <path class="cls-2" d="m508.26,250.22c-.49-.42-.88-1.05-1.17-1.89-.29-.84-.44-1.87-.44-3.08s.15-2.24.45-3.09c.3-.85.69-1.49,1.18-1.91.49-.42,1.01-.64,1.58-.64s1.08.21,1.57.64c.48.43.88,1.06,1.17,1.91.29.85.44,1.88.44,3.09s-.15,2.23-.45,3.08c-.3.84-.69,1.47-1.18,1.89-.48.42-1.01.63-1.58.63s-1.08-.21-1.57-.63Zm2.97-1.15c.34-.84.5-2.12.5-3.82s-.17-2.98-.5-3.83c-.33-.85-.79-1.28-1.37-1.28s-1.06.43-1.4,1.28c-.34.86-.51,2.13-.51,3.83s.17,2.97.51,3.82.8,1.27,1.4,1.27,1.04-.42,1.37-1.27Z"/>
        <path class="cls-2" d="m516.06,250.22c-.48-.42-.88-1.05-1.17-1.89-.29-.84-.44-1.87-.44-3.08s.15-2.24.45-3.09c.3-.85.69-1.49,1.18-1.91.48-.42,1.01-.64,1.58-.64s1.08.21,1.57.64c.48.43.88,1.06,1.17,1.91.29.85.44,1.88.44,3.09s-.15,2.23-.45,3.08c-.3.84-.69,1.47-1.18,1.89-.48.42-1.01.63-1.58.63s-1.08-.21-1.57-.63Zm2.97-1.15c.33-.84.5-2.12.5-3.82s-.17-2.98-.5-3.83c-.34-.85-.79-1.28-1.37-1.28s-1.05.43-1.39,1.28c-.34.86-.51,2.13-.51,3.83s.17,2.97.51,3.82.8,1.27,1.39,1.27,1.04-.42,1.37-1.27Z"/>
        <path class="cls-2" d="m524.56,245.29c-.06.06-.08.13-.08.23v2.27c.02,1.08.05,2.18.1,3.31v.08c0,.12-.04.22-.12.3-.2.2-.45.3-.75.3-.09,0-.17-.03-.24-.09-.07-.06-.11-.13-.11-.21.04-.59.08-1.16.11-1.72.03-.55.05-1.28.06-2.18v-5.7c0-.97-.04-1.85-.14-2.62v-.06c0-.16.06-.24.18-.24.05,0,.1.01.16.04l.63.3c.14.06.27.09.39.09h8.53c.16,0,.29-.07.38-.21l.08-.11s.07-.1.13-.19c.06-.08.12-.13.18-.13.07,0,.23.09.48.27.25.18.44.35.58.5.04.05.06.11.06.17,0,.07-.04.13-.13.2-.03.02-.06.04-.09.04-.03,0-.05.02-.08.03-.18.06-.27.17-.27.34v9.96c0,.41-.09.72-.27.95-.18.22-.55.37-1.12.45l-.09.02c-.14,0-.24-.08-.29-.25-.07-.18-.19-.32-.35-.41-.25-.15-.65-.26-1.21-.34-.2-.03-.3-.08-.3-.17s.11-.11.33-.09c.99.08,1.63.12,1.92.12.16,0,.27-.03.34-.09.07-.06.1-.16.1-.3v-4.62c0-.1-.03-.18-.08-.23-.05-.05-.13-.08-.23-.08h-8.56c-.1,0-.18.03-.23.08Zm3.9-5.37c-.06-.05-.13-.08-.23-.08h-3.43c-.1,0-.18.03-.23.08s-.08.13-.08.23v4.32c0,.1.03.18.08.23.05.06.13.08.23.08h3.43c.1,0,.18-.03.23-.08.06-.05.08-.13.08-.23v-4.32c0-.1-.03-.18-.08-.23Zm1.12,0c-.06.06-.08.13-.08.23v4.32c0,.1.03.18.08.23.06.06.13.08.23.08h3.54c.1,0,.18-.03.23-.08.05-.05.08-.13.08-.23v-4.32c0-.1-.03-.18-.08-.23-.05-.05-.13-.08-.23-.08h-3.54c-.1,0-.18.03-.23.08Z"/>
      </g>
    </g>
    <g id="_朝_食" data-name="朝 食" class="cls-1">
      <g class="cls-1">
        <path class="cls-2" d="m95.12,318.6l.13-.2s.07-.08.13-.17.1-.14.14-.17c.04-.03.08-.05.12-.05.07,0,.23.1.46.29.24.2.42.37.53.52.05.07.08.13.08.18,0,.06-.03.12-.09.17-.07.05-.16.08-.27.08h-2.5c-.1,0-.18.03-.23.08-.05.05-.08.13-.08.23v.66l.03.77c0,.21,0,.5.03.85v.08c0,.13-.04.24-.13.32-.2.16-.43.24-.69.24-.07,0-.13-.03-.18-.09-.05-.06-.08-.13-.08-.21.05-.46.08-1.07.1-1.84v-.76c0-.1-.03-.18-.08-.23-.05-.06-.13-.08-.23-.08h-.66c-.42,0-.92.06-1.5.15-.02,0-.05.01-.11.01-.13,0-.22-.07-.29-.21l-.06-.12c-.03-.06-.04-.12-.04-.17,0-.07.02-.12.08-.16.05-.04.12-.05.21-.04.35.03.87.06,1.56.08h.81c.1,0,.18-.03.23-.08s.08-.13.08-.23v-1.07c0-.1-.03-.18-.08-.23s-.13-.08-.23-.08h-.63c-.1,0-.18.03-.23.08s-.08.13-.08.23v.09c0,.06-.08.13-.25.21-.16.08-.33.12-.49.12-.07,0-.13-.03-.17-.09-.05-.06-.07-.13-.07-.21.04-.42.07-.95.09-1.59v-.96c0-.86-.04-1.69-.12-2.49v-.06c0-.15.07-.23.19-.23.06,0,.11.01.15.03l.55.25c.14.06.27.09.39.09h.66c.1,0,.18-.03.23-.08s.08-.13.08-.23v-.87c0-.1-.03-.18-.08-.23s-.13-.08-.23-.08h-.66c-.42.01-.92.06-1.5.15-.02,0-.05.01-.11.01-.13,0-.22-.07-.29-.21l-.06-.1c-.03-.06-.04-.12-.04-.17,0-.15.1-.21.3-.2.34.03.86.05,1.54.08h.81c.21,0,.31-.11.31-.32-.02-.61-.04-1.04-.07-1.29v-.03c0-.08.02-.15.07-.2s.1-.08.17-.08l.13.03c.65.21.97.38.97.5,0,.05-.04.1-.12.15l-.03.02c-.14.09-.21.21-.21.38v.52c0,.1.03.18.08.23.05.06.13.08.23.08h.87c.16,0,.29-.07.38-.21l.15-.23s.08-.11.13-.18.09-.13.14-.18.09-.08.13-.08c.07,0,.23.11.49.32.26.21.44.41.56.58.04.04.06.1.06.17,0,.06-.03.12-.08.17-.07.05-.16.08-.27.08h-2.56c-.1,0-.18.03-.23.08s-.08.13-.08.23v.87c0,.1.03.18.08.23s.13.08.23.08h.57c.17,0,.3-.06.39-.18l.09-.11s.08-.09.15-.17c.07-.08.14-.13.2-.13.07,0,.22.08.44.25.22.17.4.32.53.46.05.07.08.12.08.17,0,.06-.04.12-.13.2-.03.02-.06.04-.09.04s-.06.02-.08.03c-.18.06-.27.17-.27.34v1.09c.03,1.11.06,1.92.09,2.45v.08c0,.14-.05.24-.15.3-.09.08-.2.14-.34.19-.14.05-.26.08-.38.08-.04,0-.07-.02-.1-.08-.03-.05-.04-.12-.04-.21s-.03-.16-.08-.21c-.05-.05-.13-.07-.23-.07h-.64c-.1,0-.18.03-.23.08s-.08.13-.08.23v1.07c0,.1.03.18.08.23s.13.08.23.08h.9c.16,0,.29-.06.38-.19Zm-.4-4.06c.05-.05.08-.13.08-.23v-.96c0-.1-.03-.18-.08-.23-.05-.05-.13-.08-.23-.08h-2.82c-.1,0-.18.03-.23.08-.05.06-.08.13-.08.23v.96c0,.1.03.18.08.23s.13.08.23.08h2.82c.1,0,.18-.03.23-.08Zm0,.6c-.05-.05-.13-.08-.23-.08h-2.82c-.1,0-.18.03-.23.08s-.08.13-.08.23v.98c0,.1.03.18.08.23.05.05.13.08.23.08h2.82c.1,0,.18-.03.23-.08.05-.06.08-.13.08-.23v-.98c0-.1-.03-.18-.08-.23Zm6.35,1.72c-.05-.05-.13-.08-.23-.08h-2.38c-.2,0-.31.1-.33.3-.15,1.09-.45,2.07-.89,2.95-.45.88-1.12,1.63-2.02,2.27-.16.11-.27.14-.33.08l-.03-.06c0-.06.05-.15.17-.25.91-.91,1.53-1.95,1.84-3.11.32-1.17.48-2.56.48-4.18v-2.67c0-.88-.04-1.65-.1-2.31v-.06c0-.15.07-.23.2-.23.06,0,.11.01.15.03l.66.29c.14.06.27.09.39.09h2.14c.16,0,.29-.07.38-.21l.08-.1s.07-.09.1-.15c.04-.06.08-.11.11-.13.03-.03.06-.04.11-.04.07,0,.24.09.5.28.27.19.46.36.59.51.05.05.08.1.08.15,0,.08-.04.15-.13.2-.06.04-.14.08-.24.11-.18.06-.27.18-.27.36v10.16c0,.4-.08.71-.23.92-.15.21-.47.36-.96.45h-.08c-.15,0-.25-.08-.3-.25-.05-.17-.13-.3-.26-.39-.2-.14-.51-.25-.94-.33-.2-.03-.3-.08-.3-.17,0-.06.08-.09.24-.09.2,0,.53.02.99.06l.56.03c.14,0,.23-.02.29-.08.05-.05.07-.14.07-.27v-3.81c0-.1-.03-.18-.08-.23Zm-2.76-3.3c-.06.06-.08.13-.08.23v.95c0,.29-.01.71-.03,1.28v.04c0,.19.1.29.3.29h2.34c.1,0,.18-.03.23-.08s.08-.13.08-.23v-2.24c0-.1-.03-.18-.08-.23-.05-.05-.13-.08-.23-.08h-2.29c-.1,0-.18.03-.23.08Zm2.76-.6c.05-.05.08-.13.08-.23v-2.06c0-.1-.03-.18-.08-.23-.05-.05-.13-.08-.23-.08h-2.29c-.1,0-.18.03-.23.08s-.08.13-.08.23v2.06c0,.1.03.18.08.23.05.05.13.08.23.08h2.29c.1,0,.18-.03.23-.08Z"/>
        <path class="cls-2" d="m128.96,312.94l.07-.11s.05-.08.1-.14c.04-.06.08-.11.12-.14.04-.03.07-.04.11-.04.07,0,.21.09.43.26s.38.34.49.49c.04.04.06.09.06.15,0,.07-.04.13-.12.2l-.06.03c-.18.06-.27.18-.27.35v1.02c.02.97.04,1.73.07,2.27v.07c0,.14-.04.24-.13.3-.1.08-.22.15-.36.2-.14.05-.27.08-.38.08-.04,0-.08-.02-.11-.06-.03-.04-.04-.09-.04-.17s-.03-.12-.08-.17-.13-.06-.23-.06h-1.92c-.08,0-.15.02-.2.06-.05.04-.08.09-.08.15,0,.05.01.1.04.17.37.59.82,1.1,1.35,1.54.08.08.15.12.22.12.05,0,.09-.02.13-.05.38-.26.75-.56,1.12-.89s.66-.66.89-.97c.06-.1.14-.15.24-.15.07,0,.14.03.21.09.6.45.9.73.9.84,0,.05-.05.07-.15.07h-.05c-.13,0-.26.04-.39.11-.55.33-1.28.68-2.18,1.05-.13.06-.19.13-.19.22,0,.08.05.15.17.21,1.01.59,2.24,1.02,3.71,1.29.21.05.31.1.3.15-.01.04-.04.07-.1.1-.06.02-.11.05-.15.07-.22.11-.38.28-.48.51-.09.18-.22.25-.4.21-1.38-.4-2.53-.97-3.45-1.72-.92-.75-1.63-1.73-2.13-2.94-.07-.16-.2-.24-.38-.24h-1.85c-.1,0-.18.03-.23.08s-.08.13-.08.23v2.59c0,.11.03.19.09.24.06.05.14.07.25.04l3-.51s.1-.01.18-.01c.09,0,.14.02.16.07v.02c0,.08-.08.15-.25.21-2.1.67-3.89,1.21-5.37,1.6-.15.04-.24.08-.27.14,0,0,0,.03-.03.07-.04.07-.1.11-.17.11-.1,0-.19-.07-.25-.2l-.33-.62c-.03-.06-.05-.11-.05-.16,0-.14.08-.22.24-.23.58-.08,1.11-.16,1.59-.24.19-.03.29-.14.29-.33v-7.38c0-.18-.07-.27-.19-.27-.07,0-.13.02-.18.06-.78.46-1.5.83-2.16,1.12-.19.08-.3.08-.33.02v-.03c0-.06.08-.13.23-.22.7-.39,1.41-.86,2.14-1.42s1.38-1.13,1.96-1.72c.67-.68,1.12-1.34,1.35-2,.05-.15.14-.22.27-.22.05,0,.09,0,.12.01l1.17.33c.07.02.13.05.18.1.05.04.08.09.08.14,0,.06-.04.09-.1.11-.07.07-.11.14-.11.21,0,.06.03.12.09.18.64.59,1.44,1.15,2.41,1.67s1.99.97,3.08,1.35c.09.03.15.06.2.09.04.03.06.07.06.11s-.02.08-.08.11c-.05.04-.11.07-.18.1-.21.11-.37.25-.46.43-.08.13-.17.2-.25.2-.04,0-.09-.01-.15-.04-1.01-.47-1.96-1.04-2.85-1.72-.89-.68-1.6-1.39-2.15-2.13-.07-.1-.14-.15-.22-.15s-.15.04-.21.12c-.83.92-1.92,1.83-3.25,2.73-.1.06-.15.13-.15.21,0,.09.06.17.18.23l.33.17c.11.06.24.09.39.09h1.62c.21,0,.32-.11.32-.32-.02-.58-.04-.98-.06-1.21v-.06c0-.15.07-.23.21-.23.02,0,.07.01.15.03.36.12.61.22.76.29.14.07.22.14.22.2,0,.04-.04.08-.1.13l-.02.02c-.13.1-.2.22-.2.38v.45c0,.1.03.18.08.23s.13.08.23.08h1.58c.16,0,.29-.07.38-.21Zm-.1,2.03c.05-.05.08-.13.08-.23v-.85c0-.1-.03-.18-.08-.23-.05-.05-.13-.08-.23-.08h-4.8c-.1,0-.18.03-.23.08-.05.06-.08.13-.08.23v.85c0,.1.03.18.08.23.05.06.13.08.23.08h4.8c.1,0,.18-.03.23-.08Zm-5.27.62c-.05.05-.08.13-.08.23v.9c0,.1.03.18.08.23.05.05.13.08.23.08h4.8c.1,0,.18-.03.23-.08.05-.06.08-.13.08-.23v-.9c0-.1-.03-.18-.08-.23s-.13-.08-.23-.08h-4.8c-.1,0-.18.03-.23.08Z"/>
      </g>
    </g>
    <g id="_1_400円" data-name=" 1 400円" class="cls-1">
      <g class="cls-1">
        <path class="cls-2" d="m488.05,320.64c-.07,0-.1-.07-.1-.21,0-.15.03-.22.1-.22h.24c.49,0,.88-.08,1.19-.23.3-.15.45-.38.45-.71v-7.18c0-.3-.03-.5-.08-.61-.05-.11-.19-.17-.39-.21s-.59-.05-1.15-.05h-.26c-.07,0-.1-.08-.1-.22,0-.14.03-.21.1-.21.54,0,1.03-.07,1.46-.2s.85-.35,1.24-.65c.08-.06.15-.09.2-.09.12,0,.18.09.18.27v9.17c0,.62.54.93,1.64.93h.22s.07.02.08.05c.02.04.02.09.02.17,0,.14-.04.21-.11.21h-4.94Z"/>
        <path class="cls-2" d="m495.24,322.2s-.03-.05-.03-.07c0-.02,0-.04.03-.06.18-.16.32-.32.41-.48.1-.16.14-.3.14-.42,0-.16-.06-.28-.2-.35-.17-.08-.3-.17-.4-.29-.1-.11-.14-.25-.14-.43,0-.24.08-.44.24-.6.16-.16.35-.24.58-.24s.43.08.59.25c.16.17.24.37.24.62,0,.46-.14.88-.41,1.25-.28.37-.59.65-.94.85l-.04.02s-.06-.02-.08-.05Z"/>
        <path class="cls-2" d="m504.98,317.63c.05.06.08.13.08.23s-.03.18-.08.23c-.05.06-.13.08-.23.08h-1.06c-.1,0-.18.03-.23.08s-.08.13-.08.23v1.17c0,.22.09.37.29.43.19.07.44.11.75.11h.19c.09,0,.14.07.14.21,0,.15-.04.22-.14.22h-3.6c-.08,0-.12-.08-.12-.22,0-.14.04-.21.12-.21h.2c.31,0,.56-.04.75-.11.19-.07.29-.21.29-.43v-1.17c0-.1-.03-.18-.08-.23-.06-.05-.13-.08-.23-.08h-3.41c-.1,0-.18-.03-.23-.08-.05-.05-.08-.13-.08-.23v-.1c0-.15.04-.28.11-.39l4.33-7.52c.1-.16.24-.22.41-.18h.06c.18.05.27.17.27.36v7.2c0,.1.03.18.08.23.05.06.13.08.23.08h1.06c.1,0,.18.03.23.08Zm-2.8-5.28s-.07-.07-.12-.07c-.08,0-.15.06-.21.17l-2.73,4.73c-.03.06-.04.12-.04.17,0,.14.09.21.27.21h2.57c.1,0,.18-.03.23-.08s.08-.13.08-.23v-4.68c0-.09-.02-.16-.04-.2Z"/>
        <path class="cls-2" d="m507.62,320.22c-.49-.42-.88-1.05-1.17-1.89-.29-.84-.44-1.87-.44-3.08s.15-2.24.45-3.09c.3-.85.69-1.49,1.18-1.91.49-.42,1.01-.64,1.58-.64s1.08.21,1.57.64c.48.43.88,1.06,1.17,1.91.29.85.44,1.88.44,3.09s-.15,2.23-.45,3.08c-.3.84-.69,1.47-1.18,1.89-.48.42-1.01.63-1.58.63s-1.08-.21-1.57-.63Zm2.97-1.15c.34-.84.5-2.12.5-3.82s-.17-2.98-.5-3.83c-.33-.85-.79-1.28-1.37-1.28s-1.06.43-1.4,1.28c-.34.86-.51,2.13-.51,3.83s.17,2.97.51,3.82.8,1.27,1.4,1.27,1.04-.42,1.37-1.27Z"/>
        <path class="cls-2" d="m515.42,320.22c-.48-.42-.88-1.05-1.17-1.89-.29-.84-.44-1.87-.44-3.08s.15-2.24.45-3.09c.3-.85.69-1.49,1.18-1.91.48-.42,1.01-.64,1.58-.64s1.08.21,1.57.64c.48.43.88,1.06,1.17,1.91.29.85.44,1.88.44,3.09s-.15,2.23-.45,3.08c-.3.84-.69,1.47-1.18,1.89-.48.42-1.01.63-1.58.63s-1.08-.21-1.57-.63Zm2.97-1.15c.33-.84.5-2.12.5-3.82s-.17-2.98-.5-3.83c-.34-.85-.79-1.28-1.37-1.28s-1.05.43-1.39,1.28c-.34.86-.51,2.13-.51,3.83s.17,2.97.51,3.82.8,1.27,1.39,1.27,1.04-.42,1.37-1.27Z"/>
        <path class="cls-2" d="m523.93,315.29c-.06.06-.08.13-.08.23v2.27c.02,1.08.05,2.18.1,3.31v.08c0,.12-.04.22-.12.3-.2.2-.45.3-.75.3-.09,0-.17-.03-.24-.09-.07-.06-.11-.13-.11-.21.04-.59.08-1.16.11-1.72.03-.55.05-1.28.06-2.18v-5.7c0-.97-.04-1.85-.14-2.62v-.06c0-.16.06-.24.18-.24.05,0,.1.01.16.04l.63.3c.14.06.27.09.39.09h8.53c.16,0,.29-.07.38-.21l.08-.11s.07-.1.13-.19c.06-.08.12-.13.18-.13.07,0,.23.09.48.27.25.18.44.35.58.5.04.05.06.11.06.17,0,.07-.04.13-.13.2-.03.02-.06.04-.09.04-.03,0-.05.02-.08.03-.18.06-.27.17-.27.34v9.96c0,.41-.09.72-.27.95-.18.22-.55.37-1.12.45l-.09.02c-.14,0-.24-.08-.29-.25-.07-.18-.19-.32-.35-.41-.25-.15-.65-.26-1.21-.34-.2-.03-.3-.08-.3-.17s.11-.11.33-.09c.99.08,1.63.12,1.92.12.16,0,.27-.03.34-.09.07-.06.1-.16.1-.3v-4.62c0-.1-.03-.18-.08-.23-.05-.05-.13-.08-.23-.08h-8.56c-.1,0-.18.03-.23.08Zm3.9-5.37c-.06-.05-.13-.08-.23-.08h-3.43c-.1,0-.18.03-.23.08s-.08.13-.08.23v4.32c0,.1.03.18.08.23.05.06.13.08.23.08h3.43c.1,0,.18-.03.23-.08.06-.05.08-.13.08-.23v-4.32c0-.1-.03-.18-.08-.23Zm1.12,0c-.06.06-.08.13-.08.23v4.32c0,.1.03.18.08.23.06.06.13.08.23.08h3.54c.1,0,.18-.03.23-.08.05-.05.08-.13.08-.23v-4.32c0-.1-.03-.18-.08-.23-.05-.05-.13-.08-.23-.08h-3.54c-.1,0-.18.03-.23.08Z"/>
      </g>
    </g>
    <g id="_弁_当" data-name="弁 当" class="cls-1">
      <g class="cls-1">
        <path class="cls-2" d="m94.19,386.78c0-.18-.1-.27-.3-.27h-1.25c-.61,0-1.27.06-1.98.16h-.09c-.14,0-.24-.06-.3-.19l-.06-.12c-.03-.06-.04-.12-.04-.18s.02-.11.07-.14c.05-.04.12-.05.21-.04.34.03.85.06,1.54.08h1.92c.1,0,.18-.03.23-.08.05-.06.08-.13.08-.23v-1.2c0-.4,0-.7-.03-.89v-.03c0-.18.07-.27.22-.27l.13.03c.36.12.61.22.75.29.14.07.21.14.21.2,0,.05-.04.1-.12.15l-.04.03c-.13.09-.2.22-.2.38v1.31c0,.1.03.18.08.23s.13.08.23.08h2.61c.21,0,.31-.1.31-.31-.02-.86-.06-1.62-.13-2.3v-.06c0-.07.02-.13.06-.17.04-.04.09-.07.16-.07.03,0,.08.01.13.03.41.12.7.22.86.3s.24.15.24.21c0,.05-.04.1-.12.15l-.04.03c-.14.09-.21.21-.21.38v1.5c0,.1.03.18.08.23.05.05.13.08.23.08h1.43c.16,0,.29-.06.38-.2l.2-.28s.08-.11.15-.2c.07-.09.13-.17.17-.21s.09-.07.13-.07c.07,0,.25.12.54.36.29.24.5.44.65.61.05.07.07.13.07.18,0,.06-.03.12-.09.17-.07.05-.16.08-.27.08h-3.35c-.1,0-.18.03-.23.08s-.08.13-.08.23v1.65c.02,1.09.05,2.19.11,3.3v.08c0,.13-.04.23-.13.31-.1.07-.22.13-.35.18-.13.05-.27.07-.4.07-.08,0-.15-.03-.22-.09-.06-.06-.1-.13-.1-.21.04-.55.07-1.09.1-1.62.03-.53.04-1.2.05-2.01v-1.67c0-.1-.03-.18-.08-.23s-.13-.08-.23-.08h-2.66c-.19,0-.29.1-.32.3-.11,1.22-.47,2.3-1.07,3.25s-1.6,1.71-2.99,2.3c-.08.04-.16.06-.22.06-.05,0-.09-.02-.12-.06-.05-.07.07-.19.35-.36,1.07-.62,1.84-1.36,2.3-2.23.46-.86.74-1.84.83-2.93v-.06Zm.39-4.92s.02.09.07.12c.05.03.12.04.2.03l4.74-.27c.18-.02.27-.08.27-.2,0-.06-.04-.13-.12-.21-.42-.37-.87-.71-1.35-1.04-.15-.09-.23-.17-.23-.24,0-.04.04-.06.11-.06s.15.02.24.04c.87.29,1.58.62,2.14,1,.56.38.96.75,1.2,1.11.24.36.37.68.37.96,0,.16-.04.29-.11.38-.07.09-.17.13-.29.13-.06,0-.1,0-.13-.01-.07-.02-.12-.05-.16-.1s-.08-.11-.13-.19c-.21-.38-.48-.75-.79-1.12-.11-.12-.25-.17-.41-.13-1.7.27-4.34.62-7.92,1.07-.15,0-.24.04-.27.1l-.06.06s-.09.06-.15.06c-.05,0-.1-.02-.15-.06-.05-.04-.08-.09-.1-.16l-.23-.62-.03-.13c0-.15.09-.23.27-.24l.6-.02,1.37-.04c.18-.02.3-.09.38-.22l.27-.48c.21-.39.41-.81.61-1.27.19-.46.35-.88.46-1.28.05-.16.14-.24.27-.24.03,0,.08.01.13.03.79.27,1.19.46,1.19.58,0,.04-.04.08-.13.11l-.08.03c-.14.04-.24.11-.3.21-.46.7-1,1.4-1.62,2.1-.07.09-.1.16-.1.21Z"/>
        <path class="cls-2" d="m130.81,384.35l.09-.12s.08-.1.15-.19c.07-.08.13-.13.2-.13.07,0,.22.09.46.26.23.17.42.34.55.49.05.07.08.12.08.17,0,.06-.05.12-.14.2-.09.04-.15.07-.18.08-.17.08-.25.2-.25.36v2.94c.02,1.09.05,2.19.1,3.3v.08c0,.14-.05.24-.15.3-.1.08-.22.15-.37.21-.15.06-.28.09-.41.09-.05,0-.09-.04-.14-.1-.02-.08-.03-.13-.03-.15,0-.04,0-.11.03-.21l.03-.17h0c0-.12-.03-.19-.08-.25s-.13-.08-.23-.08h-6.82c-.61,0-1.27.07-1.98.17h-.09c-.14,0-.24-.07-.3-.19l-.08-.14c-.03-.06-.04-.12-.04-.18s.03-.11.08-.14.12-.05.21-.04c.34.03.86.05,1.54.07h7.48c.1,0,.18-.03.23-.08.05-.05.08-.13.08-.23v-2.19c0-.1-.03-.18-.08-.23-.06-.05-.13-.08-.23-.08h-6.3c-.63,0-1.29.06-1.98.17h-.08c-.14,0-.25-.07-.32-.2l-.06-.12c-.04-.1-.06-.16-.06-.18,0-.06.02-.11.07-.14.05-.04.12-.05.21-.04.34.03.85.05,1.54.07h6.96c.1,0,.18-.03.23-.08.05-.05.08-.13.08-.23v-2.1c0-.1-.03-.18-.08-.23-.06-.05-.13-.08-.23-.08h-6.54c-.61,0-1.27.07-1.98.17h-.09c-.14,0-.24-.07-.3-.2l-.08-.13c-.03-.06-.04-.12-.04-.17,0-.15.1-.21.3-.2.34.03.85.06,1.55.08h2.59c.1,0,.18-.03.23-.08s.08-.13.08-.23v-2.47c0-1-.04-1.89-.13-2.68v-.06c0-.07.02-.13.06-.17.04-.05.1-.07.17-.07.03,0,.07.01.13.03.74.22,1.11.4,1.11.53,0,.05-.04.1-.12.15l-.05.03c-.14.09-.21.21-.21.38v4.35c0,.1.03.18.08.23.06.05.13.08.23.08h2.91c.16,0,.29-.06.39-.18Zm-9.22-4.54c-.02-.05-.02-.09,0-.11,0,0,.03-.01.06-.01.06,0,.14.04.24.1.81.48,1.41.99,1.79,1.52.38.53.57,1.01.57,1.44,0,.21-.04.38-.13.51-.09.13-.21.2-.35.2-.08,0-.15-.02-.22-.06-.12-.06-.2-.17-.22-.33-.1-.47-.3-.98-.59-1.52s-.63-1.05-1.01-1.53c-.06-.08-.1-.15-.12-.2Zm9.15-.26c.06,0,.12.02.18.05l.39.24s.16.08.34.17c.29.12.44.22.44.3,0,.05-.06.09-.18.12l-.04.02c-.15.03-.26.1-.34.22-.79,1.14-1.58,2.08-2.37,2.82-.1.1-.18.15-.24.15-.08,0-.12-.04-.12-.12,0-.07.03-.16.09-.26.19-.3.36-.58.5-.84.21-.37.42-.8.63-1.3.21-.5.38-.95.51-1.36.05-.14.12-.21.23-.21Z"/>
      </g>
    </g>
    <g id="_1_400円-2" data-name=" 1 400円-2" class="cls-1">
      <g class="cls-1">
        <path class="cls-2" d="m488.05,390.64c-.07,0-.1-.07-.1-.21,0-.15.03-.22.1-.22h.24c.49,0,.88-.08,1.19-.23.3-.15.45-.38.45-.71v-7.18c0-.3-.03-.5-.08-.61-.05-.11-.19-.17-.39-.21s-.59-.05-1.15-.05h-.26c-.07,0-.1-.08-.1-.22,0-.14.03-.21.1-.21.54,0,1.03-.07,1.46-.2s.85-.35,1.24-.65c.08-.06.15-.09.2-.09.12,0,.18.09.18.27v9.17c0,.62.54.93,1.64.93h.22s.07.02.08.05c.02.04.02.09.02.17,0,.14-.04.21-.11.21h-4.94Z"/>
        <path class="cls-2" d="m495.24,392.2s-.03-.05-.03-.07c0-.02,0-.04.03-.06.18-.16.32-.32.41-.48.1-.16.14-.3.14-.42,0-.16-.06-.28-.2-.35-.17-.08-.3-.17-.4-.29-.1-.11-.14-.25-.14-.43,0-.24.08-.44.24-.6.16-.16.35-.24.58-.24s.43.08.59.25c.16.17.24.37.24.62,0,.46-.14.88-.41,1.25-.28.37-.59.65-.94.85l-.04.02s-.06-.02-.08-.05Z"/>
        <path class="cls-2" d="m504.98,387.63c.05.06.08.13.08.23s-.03.18-.08.23c-.05.06-.13.08-.23.08h-1.06c-.1,0-.18.03-.23.08s-.08.13-.08.23v1.17c0,.22.09.37.29.43.19.07.44.11.75.11h.19c.09,0,.14.07.14.21,0,.15-.04.22-.14.22h-3.6c-.08,0-.12-.08-.12-.22,0-.14.04-.21.12-.21h.2c.31,0,.56-.04.75-.11.19-.07.29-.21.29-.43v-1.17c0-.1-.03-.18-.08-.23-.06-.05-.13-.08-.23-.08h-3.41c-.1,0-.18-.03-.23-.08-.05-.05-.08-.13-.08-.23v-.1c0-.15.04-.28.11-.39l4.33-7.52c.1-.16.24-.22.41-.18h.06c.18.05.27.17.27.36v7.2c0,.1.03.18.08.23.05.06.13.08.23.08h1.06c.1,0,.18.03.23.08Zm-2.8-5.28s-.07-.07-.12-.07c-.08,0-.15.06-.21.17l-2.73,4.73c-.03.06-.04.12-.04.17,0,.14.09.21.27.21h2.57c.1,0,.18-.03.23-.08s.08-.13.08-.23v-4.68c0-.09-.02-.16-.04-.2Z"/>
        <path class="cls-2" d="m507.62,390.22c-.49-.42-.88-1.05-1.17-1.89-.29-.84-.44-1.87-.44-3.08s.15-2.24.45-3.09c.3-.85.69-1.49,1.18-1.91.49-.42,1.01-.64,1.58-.64s1.08.21,1.57.64c.48.43.88,1.06,1.17,1.91.29.85.44,1.88.44,3.09s-.15,2.23-.45,3.08c-.3.84-.69,1.47-1.18,1.89-.48.42-1.01.63-1.58.63s-1.08-.21-1.57-.63Zm2.97-1.15c.34-.84.5-2.12.5-3.82s-.17-2.98-.5-3.83c-.33-.85-.79-1.28-1.37-1.28s-1.06.43-1.4,1.28c-.34.86-.51,2.13-.51,3.83s.17,2.97.51,3.82.8,1.27,1.4,1.27,1.04-.42,1.37-1.27Z"/>
        <path class="cls-2" d="m515.42,390.22c-.48-.42-.88-1.05-1.17-1.89-.29-.84-.44-1.87-.44-3.08s.15-2.24.45-3.09c.3-.85.69-1.49,1.18-1.91.48-.42,1.01-.64,1.58-.64s1.08.21,1.57.64c.48.43.88,1.06,1.17,1.91.29.85.44,1.88.44,3.09s-.15,2.23-.45,3.08c-.3.84-.69,1.47-1.18,1.89-.48.42-1.01.63-1.58.63s-1.08-.21-1.57-.63Zm2.97-1.15c.33-.84.5-2.12.5-3.82s-.17-2.98-.5-3.83c-.34-.85-.79-1.28-1.37-1.28s-1.05.43-1.39,1.28c-.34.86-.51,2.13-.51,3.83s.17,2.97.51,3.82.8,1.27,1.39,1.27,1.04-.42,1.37-1.27Z"/>
        <path class="cls-2" d="m523.93,385.29c-.06.06-.08.13-.08.23v2.27c.02,1.08.05,2.18.1,3.31v.08c0,.12-.04.22-.12.3-.2.2-.45.3-.75.3-.09,0-.17-.03-.24-.09-.07-.06-.11-.13-.11-.21.04-.59.08-1.16.11-1.72.03-.55.05-1.28.06-2.18v-5.7c0-.97-.04-1.85-.14-2.62v-.06c0-.16.06-.24.18-.24.05,0,.1.01.16.04l.63.3c.14.06.27.09.39.09h8.53c.16,0,.29-.07.38-.21l.08-.11s.07-.1.13-.19c.06-.08.12-.13.18-.13.07,0,.23.09.48.27.25.18.44.35.58.5.04.05.06.11.06.17,0,.07-.04.13-.13.2-.03.02-.06.04-.09.04-.03,0-.05.02-.08.03-.18.06-.27.17-.27.34v9.96c0,.41-.09.72-.27.95-.18.22-.55.37-1.12.45l-.09.02c-.14,0-.24-.08-.29-.25-.07-.18-.19-.32-.35-.41-.25-.15-.65-.26-1.21-.34-.2-.03-.3-.08-.3-.17s.11-.11.33-.09c.99.08,1.63.12,1.92.12.16,0,.27-.03.34-.09.07-.06.1-.16.1-.3v-4.62c0-.1-.03-.18-.08-.23-.05-.05-.13-.08-.23-.08h-8.56c-.1,0-.18.03-.23.08Zm3.9-5.37c-.06-.05-.13-.08-.23-.08h-3.43c-.1,0-.18.03-.23.08s-.08.13-.08.23v4.32c0,.1.03.18.08.23.05.06.13.08.23.08h3.43c.1,0,.18-.03.23-.08.06-.05.08-.13.08-.23v-4.32c0-.1-.03-.18-.08-.23Zm1.12,0c-.06.06-.08.13-.08.23v4.32c0,.1.03.18.08.23.06.06.13.08.23.08h3.54c.1,0,.18-.03.23-.08.05-.05.08-.13.08-.23v-4.32c0-.1-.03-.18-.08-.23-.05-.05-.13-.08-.23-.08h-3.54c-.1,0-.18.03-.23.08Z"/>
      </g>
    </g>
    <line id="_線_11" data-name="線 11" class="cls-3" y1=".5" x2="800" y2=".5"/>
    <line id="_線_12" data-name="線 12" class="cls-3" y1="70.5" x2="800" y2="70.5"/>
    <line id="_線_18" data-name="線 18" class="cls-3" x1="222.5" x2="222.5" y2="420.89"/>
    <line id="_線_19" data-name="線 19" class="cls-3" x1="415.5" x2="415.5" y2="211.5"/>
    <line id="_線_20" data-name="線 20" class="cls-3" x1="607.5" x2="607.5" y2="211.5"/>
    <line id="_線_13" data-name="線 13" class="cls-3" y1="210.5" x2="800" y2="210.5"/>
    <line id="_線_17" data-name="線 17" class="cls-3" y1="140.5" x2="800" y2="140.5"/>
    <line id="_線_14" data-name="線 14" class="cls-3" y1="280.5" x2="800" y2="280.5"/>
    <line id="_線_15" data-name="線 15" class="cls-3" y1="350.5" x2="800" y2="350.5"/>
    <line id="_線_16" data-name="線 16" class="cls-3" y1="420.5" x2="800" y2="420.5"/>
  </g>
</svg>