<svg xmlns="http://www.w3.org/2000/svg" width="335.75" height="372" viewBox="0 0 335.75 372">
  <g id="グループ_2889" data-name="グループ 2889" transform="translate(9000.875 -2484)">
    <path id="パス_1732" data-name="パス 1732" d="M0,0H335.5" transform="translate(-9000.625 2484.5)" fill="none" stroke="#707070" stroke-width="1"/>
    <path id="パス_1733" data-name="パス 1733" d="M0,0H335.5" transform="translate(-9000.625 2546.5)" fill="none" stroke="#707070" stroke-width="1"/>
    <path id="パス_1734" data-name="パス 1734" d="M0,0H335.5" transform="translate(-9000.625 2608.5)" fill="none" stroke="#707070" stroke-width="1"/>
    <path id="パス_1735" data-name="パス 1735" d="M0,0H335.5" transform="translate(-9000.625 2670.5)" fill="none" stroke="#707070" stroke-width="1"/>
    <path id="パス_1736" data-name="パス 1736" d="M0,0H335.5" transform="translate(-9000.625 2731.5)" fill="none" stroke="#707070" stroke-width="1"/>
    <path id="パス_1737" data-name="パス 1737" d="M0,0H335.5" transform="translate(-9000.625 2793.5)" fill="none" stroke="#707070" stroke-width="1"/>
    <path id="パス_1750" data-name="パス 1750" d="M0,0H335.5" transform="translate(-9000.875 2855.5)" fill="none" stroke="#707070" stroke-width="1"/>
    <path id="パス_1746" data-name="パス 1746" d="M0,0V371.455" transform="translate(-8916.5 2484.5)" fill="none" stroke="#707070" stroke-width="1"/>
    <path id="パス_1752" data-name="パス 1752" d="M0,0V185.269" transform="translate(-8832.5 2484.916)" fill="none" stroke="#707070" stroke-width="1"/>
    <path id="パス_1759" data-name="パス 1759" d="M0,0V185.269" transform="translate(-8748.5 2484.916)" fill="none" stroke="#707070" stroke-width="1"/>
    <path id="パス_1739" data-name="パス 1739" d="M10.7-9.345a.431.431,0,0,0,.375-.2l.15-.195.128-.173a1.534,1.534,0,0,1,.142-.172.173.173,0,0,1,.12-.06,1.253,1.253,0,0,1,.472.293,3.517,3.517,0,0,1,.548.517.33.33,0,0,1,.075.18.215.215,0,0,1-.09.165.454.454,0,0,1-.27.075H8.265a.314.314,0,0,0-.232.083A.314.314,0,0,0,7.95-8.6v.72a.314.314,0,0,0,.083.233.314.314,0,0,0,.232.083H11.76a.431.431,0,0,0,.375-.2l.18-.24q.045-.06.135-.187a1.535,1.535,0,0,1,.158-.195.189.189,0,0,1,.127-.068,1.432,1.432,0,0,1,.51.33,3.736,3.736,0,0,1,.6.585.33.33,0,0,1,.075.18.215.215,0,0,1-.09.165.527.527,0,0,1-.285.075H7.665a.561.561,0,0,0-.39.15A17.036,17.036,0,0,1,5.61-5.61a.254.254,0,0,0-.135.21.336.336,0,0,0,.12.225,1.043,1.043,0,0,1,.3.675.461.461,0,0,1-.105.315.377.377,0,0,1-.3.12H5.46a.341.341,0,0,1-.173-.06.6.6,0,0,1-.173-.165,5.032,5.032,0,0,0-.878-.818A8.223,8.223,0,0,0,3.12-5.82q-.285-.165-.24-.24.075-.1.315-.06a5.226,5.226,0,0,1,1.56.39.4.4,0,0,0,.18.045.306.306,0,0,0,.255-.15q.375-.525.63-.9a.279.279,0,0,0,.06-.18q0-.2-.27-.2H3.645a16.158,16.158,0,0,0-1.98.165h-.09a.308.308,0,0,1-.3-.195L1.2-7.275a.373.373,0,0,1-.045-.165q0-.225.3-.195Q1.965-7.59,3-7.56H6.675a.314.314,0,0,0,.233-.083.314.314,0,0,0,.082-.233V-8.6a.314.314,0,0,0-.082-.233.314.314,0,0,0-.233-.083H5.01a16.157,16.157,0,0,0-1.98.165H2.94a.308.308,0,0,1-.3-.2l-.06-.12a.4.4,0,0,1-.045-.18.165.165,0,0,1,.075-.142.3.3,0,0,1,.21-.037q.51.045,1.545.075h2.31a.314.314,0,0,0,.233-.083A.314.314,0,0,0,6.99-9.66v-.7a.314.314,0,0,0-.082-.233.314.314,0,0,0-.233-.082H4.44a16.158,16.158,0,0,0-1.98.165H2.37a.308.308,0,0,1-.3-.2l-.06-.12a.4.4,0,0,1-.045-.18.165.165,0,0,1,.075-.143.3.3,0,0,1,.21-.037q.51.045,1.545.075h2.88a.278.278,0,0,0,.315-.315l-.045-.825v-.03q0-.27.225-.27l.135.03a6.652,6.652,0,0,1,.787.307q.218.113.218.218,0,.075-.12.15l-.045.03a.431.431,0,0,0-.2.375v.015a.314.314,0,0,0,.083.233.314.314,0,0,0,.232.082h2.94a.431.431,0,0,0,.375-.195l.165-.225q.06-.075.142-.187a1.534,1.534,0,0,1,.142-.172.173.173,0,0,1,.12-.06,1.337,1.337,0,0,1,.518.307,3.661,3.661,0,0,1,.592.548.33.33,0,0,1,.075.18.215.215,0,0,1-.09.165.527.527,0,0,1-.285.075H8.265a.314.314,0,0,0-.232.082.314.314,0,0,0-.083.233v.7a.314.314,0,0,0,.083.233.314.314,0,0,0,.232.083ZM6.84-3.84q-.165.12-.165.21a.111.111,0,0,0,.068.1.308.308,0,0,0,.188.022l4.125-.09a.362.362,0,0,0,.21-.053.153.153,0,0,0,.075-.127q0-.1-.15-.21a8.608,8.608,0,0,0-.9-.615q-.285-.165-.225-.255a.183.183,0,0,1,.135-.045.932.932,0,0,1,.18.015,6.538,6.538,0,0,1,1.852.652,3.38,3.38,0,0,1,1.058.855,1.391,1.391,0,0,1,.33.8.522.522,0,0,1-.12.36.4.4,0,0,1-.315.135H13.11a.473.473,0,0,1-.315-.27,5.468,5.468,0,0,0-.585-.75.484.484,0,0,0-.39-.15q-1.53.15-3.585.315a.29.29,0,0,0-.3.315v.975Q7.98-.18,8.01.57V.645a.322.322,0,0,1-.15.3,1.247,1.247,0,0,1-.72.2.249.249,0,0,1-.187-.09A.3.3,0,0,1,6.87.84q.09-1.17.12-2.37V-2.535q0-.33-.33-.3L2.4-2.55a.481.481,0,0,0-.3.09l-.06.075a.216.216,0,0,1-.15.075.24.24,0,0,1-.15-.06.317.317,0,0,1-.1-.15l-.24-.54a.374.374,0,0,1-.03-.165.192.192,0,0,1,.067-.15.272.272,0,0,1,.187-.06q1.455,0,3.675-.045A.658.658,0,0,0,5.7-3.615Q6.36-4.1,7.065-4.71A9.253,9.253,0,0,0,8.85-6.675a.279.279,0,0,1,.255-.165.279.279,0,0,1,.18.06q.945.51.945.675,0,.06-.135.09h-.06a.481.481,0,0,0-.315.135A17.635,17.635,0,0,1,6.84-3.84ZM4.56-2a.325.325,0,0,1,.24-.15.311.311,0,0,1,.195.09l.285.24q.03.03.33.225.33.2.33.285t-.165.09h-.03a.561.561,0,0,0-.39.135A12.133,12.133,0,0,1,3.608-.045,14.645,14.645,0,0,1,1.545.8l-.2.03a.158.158,0,0,1-.135-.06A.061.061,0,0,1,1.2.72Q1.2.63,1.425.5A11.6,11.6,0,0,0,2.61-.21a9.906,9.906,0,0,0,1.08-.847A6.448,6.448,0,0,0,4.56-2Zm4.74.45q-.285-.135-.24-.24.06-.075.33-.06a8.872,8.872,0,0,1,2.28.615,4.017,4.017,0,0,1,1.312.855,1.28,1.28,0,0,1,.413.81.421.421,0,0,1-.12.323.463.463,0,0,1-.33.112H12.93a.455.455,0,0,1-.165-.045.361.361,0,0,1-.15-.105A8.167,8.167,0,0,0,11.168-.465,15.314,15.314,0,0,0,9.3-1.545Zm17.745-8.22a.431.431,0,0,0,.375-.2l.09-.12.1-.142a.766.766,0,0,1,.12-.143.17.17,0,0,1,.112-.045,1.1,1.1,0,0,1,.435.247,2.817,2.817,0,0,1,.51.472.2.2,0,0,1,.06.15.222.222,0,0,1-.135.2.1.1,0,0,1-.052.023.237.237,0,0,0-.083.038.348.348,0,0,0-.285.345v6.045q.03,1.635.1,3.3V.48a.322.322,0,0,1-.15.3,1.257,1.257,0,0,1-.765.255.165.165,0,0,1-.165-.12.245.245,0,0,1-.03-.135,1.968,1.968,0,0,1,.03-.225q0-.03.03-.36V.09a.314.314,0,0,0-.083-.233.314.314,0,0,0-.233-.082h-4.8A.314.314,0,0,0,22-.143a.314.314,0,0,0-.083.233V.135q.03.36.03.405V.645a.336.336,0,0,1-.1.27.956.956,0,0,1-.7.24.3.3,0,0,1-.218-.1.287.287,0,0,1-.1-.2q.06-.885.1-1.718t.06-2.183v-4.2a23.218,23.218,0,0,0-.135-2.64v-.06q0-.225.195-.225a.334.334,0,0,1,.15.03l.69.3a.9.9,0,0,0,.375.075h.93a.305.305,0,0,0,.345-.27,13.963,13.963,0,0,0,.3-2.295.3.3,0,0,1,.112-.233.312.312,0,0,1,.247-.037l1.11.27a.409.409,0,0,1,.195.1.207.207,0,0,1,.075.135.135.135,0,0,1-.09.12l-.09.045a1.56,1.56,0,0,0-.165.075.458.458,0,0,0-.195.2q-.3.57-.855,1.515a.279.279,0,0,0-.06.18q0,.2.27.2Zm-9.675-2.3q-.24-.195-.2-.27a.174.174,0,0,1,.12-.03,1.029,1.029,0,0,1,.195.015,3.324,3.324,0,0,1,1.6.675,1.3,1.3,0,0,1,.517.945.612.612,0,0,1-.135.412.45.45,0,0,1-.36.158.631.631,0,0,1-.15-.015.4.4,0,0,1-.27-.27,3.553,3.553,0,0,0-.54-.832A6.827,6.827,0,0,0,17.37-12.06ZM16.26-2.88q0-.165.315-.165h.345a.368.368,0,0,0,.2-.045.632.632,0,0,0,.158-.255q.33-.645,1.785-3.96l.975-2.19q.12-.27.24-.27.1,0,.1.15a.587.587,0,0,1-.045.2l-.75,2.07-.653,1.808q-.517,1.433-.622,1.807a5.279,5.279,0,0,0-.24,1.305,2,2,0,0,0,.06.45q.06.255.075.36.1.435.165.772a4.448,4.448,0,0,1,.06.773,1.718,1.718,0,0,1-.195.9.656.656,0,0,1-.6.315Q17.3,1.14,17.2.6a1.028,1.028,0,0,1-.015-.2A1.028,1.028,0,0,1,17.2.21q.075-.825.075-1.32a4.728,4.728,0,0,0-.075-.923.754.754,0,0,0-.225-.472.814.814,0,0,0-.42-.18Q16.26-2.73,16.26-2.88ZM27.03-5.43a.314.314,0,0,0,.233-.082.314.314,0,0,0,.083-.233v-3.27a.314.314,0,0,0-.083-.233.314.314,0,0,0-.233-.083h-4.8A.314.314,0,0,0,22-9.248a.314.314,0,0,0-.083.233v3.27A.314.314,0,0,0,22-5.513a.314.314,0,0,0,.232.082ZM16.14-8.745q-.255-.18-.21-.255a.2.2,0,0,1,.165-.06.631.631,0,0,1,.15.015,3.238,3.238,0,0,1,1.56.615,1.2,1.2,0,0,1,.51.885.568.568,0,0,1-.135.382.434.434,0,0,1-.345.158.631.631,0,0,1-.15-.015.4.4,0,0,1-.27-.27,3.026,3.026,0,0,0-.517-.75A5.916,5.916,0,0,0,16.14-8.745Zm6.09,3.75A.314.314,0,0,0,22-4.913a.314.314,0,0,0-.083.233V-.99A.314.314,0,0,0,22-.758a.314.314,0,0,0,.232.083h4.8a.314.314,0,0,0,.233-.083.314.314,0,0,0,.083-.232V-4.68a.314.314,0,0,0-.083-.233.314.314,0,0,0-.233-.082Zm16.035,2.58a.329.329,0,0,0,.285.33,5.7,5.7,0,0,1,1.627.84A1.417,1.417,0,0,1,40.815-.12a.373.373,0,0,1-.105.308.358.358,0,0,1-.225.083A.911.911,0,0,1,39.9-.015q-.105-.09-.5-.443T38.61-1.11a.245.245,0,0,0-.18-.075q-.15,0-.225.225A1.971,1.971,0,0,1,37.373.053,2.756,2.756,0,0,1,35.9.42a3.163,3.163,0,0,1-1.56-.383,1.191,1.191,0,0,1-.69-1.087,1.132,1.132,0,0,1,.368-.848,2.293,2.293,0,0,1,.915-.525,3.65,3.65,0,0,1,1.1-.172,5.846,5.846,0,0,1,1.1.135l.09.015q.27,0,.24-.3T37.4-3.81q-.03-.27-.06-.87-.03-.33-.345-.285a7.334,7.334,0,0,1-1.245.12,2.916,2.916,0,0,1-1.388-.307,1.91,1.91,0,0,1-.847-.863.583.583,0,0,1-.045-.165q0-.075.06-.075a.185.185,0,0,1,.1.045.678.678,0,0,0,.09.06,4.282,4.282,0,0,0,.78.4,2.95,2.95,0,0,0,1.125.2,9.476,9.476,0,0,0,1.365-.135q.285-.045.285-.255v-.195q0-.93.045-1.875V-8.1q0-.225-.09-.225h-.12a2.04,2.04,0,0,1-.75-.135,2.82,2.82,0,0,1-.615-.375,2.381,2.381,0,0,1-.48-.465.567.567,0,0,1-.1-.225.053.053,0,0,1,.06-.06.581.581,0,0,1,.24.075l.315.165a2.2,2.2,0,0,0,.435.217,1.536,1.536,0,0,0,.5.068,1.915,1.915,0,0,0,.465-.06.352.352,0,0,0,.315-.315,6.661,6.661,0,0,0,.09-.9,1.859,1.859,0,0,0-.165-.81,2.033,2.033,0,0,0-.285-.4,2.11,2.11,0,0,1-.135-.18.292.292,0,0,1-.06-.15.175.175,0,0,1,.1-.15.465.465,0,0,1,.248-.06,1.312,1.312,0,0,1,.435.113,1.441,1.441,0,0,1,.51.345.817.817,0,0,1,.225.592,2.788,2.788,0,0,1-.09.593q-.09.383-.195.712a.479.479,0,0,0,.09.2.2.2,0,0,0,.24.1l.435-.135a.808.808,0,0,1,.255-.045.454.454,0,0,1,.27.075.258.258,0,0,1,.1.225.5.5,0,0,1-.112.3.771.771,0,0,1-.322.24,5.7,5.7,0,0,1-.915.3.349.349,0,0,0-.3.33q-.06.705-.06,1.56a3.348,3.348,0,0,0,.015.375.266.266,0,0,0,.1.225.288.288,0,0,0,.263.03,3.1,3.1,0,0,0,.81-.375.449.449,0,0,0,.225-.345.962.962,0,0,0-.27-.51q-.03-.045-.083-.113a1.431,1.431,0,0,1-.1-.142.567.567,0,0,1-.1-.225.04.04,0,0,1,.045-.045.718.718,0,0,1,.27.165,1.912,1.912,0,0,0,.81.39,1.912,1.912,0,0,0,.345.06.6.6,0,0,1,.36.15.428.428,0,0,1,.105.315.806.806,0,0,1-.15.45,1.117,1.117,0,0,1-.465.375,10.2,10.2,0,0,1-1.815.585q-.3.09-.255.495.045.51.21,1.605ZM35.61-.315a2.313,2.313,0,0,0,1.252-.308A1.318,1.318,0,0,0,37.47-1.5v-.075a.294.294,0,0,0-.225-.3,4.007,4.007,0,0,0-1.35-.24,2.509,2.509,0,0,0-1.178.277.833.833,0,0,0-.532.742.639.639,0,0,0,.443.57A2.263,2.263,0,0,0,35.61-.315ZM53.01-9.42a1.533,1.533,0,0,1,1.05.48,3.414,3.414,0,0,1,.825,1.35A5.891,5.891,0,0,1,55.2-5.58a7.069,7.069,0,0,1-.983,3.84,5.737,5.737,0,0,1-3.232,2.3.831.831,0,0,1-.27.06q-.135,0-.135-.1a.127.127,0,0,1,.075-.105,5.073,5.073,0,0,0,2.738-2.46A7.82,7.82,0,0,0,54.18-5.49,6.859,6.859,0,0,0,53.805-7.9q-.375-1-1.005-1a1.228,1.228,0,0,0-.945.608,5.316,5.316,0,0,0-.735,1.425,4.3,4.3,0,0,0-.285,1.358,1.447,1.447,0,0,0,.083.487,3.7,3.7,0,0,0,.248.532q.09.18.165.375a.953.953,0,0,1,.075.33.335.335,0,0,1-.1.247.355.355,0,0,1-.262.1.834.834,0,0,1-.66-.352,2.362,2.362,0,0,1-.428-.87,3.7,3.7,0,0,1-.143-.983,7.641,7.641,0,0,1,.158-1.44q.157-.81.428-1.965.135-.57.24-1.1a4.41,4.41,0,0,0,.1-.75.824.824,0,0,0-.225-.585,1.919,1.919,0,0,0-.2-.2q-.128-.112-.128-.187t.1-.12a.646.646,0,0,1,.255-.045.8.8,0,0,1,.645.338,1.338,1.338,0,0,1,.27.862,4.043,4.043,0,0,1-.127,1q-.128.5-.382,1.3l-.15.45a.187.187,0,0,0,.135.06q.12,0,.225-.165A2.21,2.21,0,0,1,53.01-9.42Z" transform="translate(-8987.155 2583.609)" fill="#fff"/>
    <path id="パス_1740" data-name="パス 1740" d="M1.35,0q-.105,0-.1-.21,0-.225.1-.225h.24A2.662,2.662,0,0,0,2.775-.66a.742.742,0,0,0,.45-.705V-8.55a1.488,1.488,0,0,0-.082-.607.505.505,0,0,0-.39-.21A8.147,8.147,0,0,0,1.605-9.42H1.35q-.105,0-.1-.225,0-.21.1-.21a4.924,4.924,0,0,0,1.463-.2A3.938,3.938,0,0,0,4.05-10.71a.363.363,0,0,1,.2-.09q.18,0,.18.27v9.165q0,.93,1.635.93h.225a.082.082,0,0,1,.082.052A.475.475,0,0,1,6.39-.21q0,.21-.105.21Zm18-9.765a.431.431,0,0,0,.375-.2l.09-.12.1-.142a.766.766,0,0,1,.12-.143.17.17,0,0,1,.113-.045,1.1,1.1,0,0,1,.435.247,2.817,2.817,0,0,1,.51.472.2.2,0,0,1,.06.15.222.222,0,0,1-.135.2.1.1,0,0,1-.052.023.237.237,0,0,0-.083.038.348.348,0,0,0-.285.345v6.045q.03,1.635.1,3.3V.48a.322.322,0,0,1-.15.3,1.257,1.257,0,0,1-.765.255.165.165,0,0,1-.165-.12A.245.245,0,0,1,19.59.78a1.968,1.968,0,0,1,.03-.225q0-.03.03-.36V.09a.314.314,0,0,0-.082-.233.314.314,0,0,0-.233-.082h-4.8a.314.314,0,0,0-.233.082A.314.314,0,0,0,14.22.09V.135q.03.36.03.405V.645a.336.336,0,0,1-.1.27.956.956,0,0,1-.7.24.3.3,0,0,1-.218-.1.287.287,0,0,1-.1-.2q.06-.885.1-1.718t.06-2.183v-4.2a23.218,23.218,0,0,0-.135-2.64v-.06q0-.225.195-.225a.334.334,0,0,1,.15.03l.69.3a.9.9,0,0,0,.375.075h.93a.305.305,0,0,0,.345-.27,13.964,13.964,0,0,0,.3-2.295.3.3,0,0,1,.112-.233A.312.312,0,0,1,16.5-12.6l1.11.27a.409.409,0,0,1,.195.1.207.207,0,0,1,.075.135.135.135,0,0,1-.09.12l-.09.045a1.56,1.56,0,0,0-.165.075.458.458,0,0,0-.195.2q-.3.57-.855,1.515a.279.279,0,0,0-.06.18q0,.2.27.2Zm-9.675-2.3q-.24-.195-.2-.27a.174.174,0,0,1,.12-.03,1.029,1.029,0,0,1,.195.015,3.324,3.324,0,0,1,1.6.675,1.3,1.3,0,0,1,.517.945.612.612,0,0,1-.135.412.45.45,0,0,1-.36.158.631.631,0,0,1-.15-.015.4.4,0,0,1-.27-.27,3.553,3.553,0,0,0-.54-.832A6.827,6.827,0,0,0,9.675-12.06ZM8.565-2.88q0-.165.315-.165h.345a.368.368,0,0,0,.2-.045.632.632,0,0,0,.158-.255q.33-.645,1.785-3.96l.975-2.19q.12-.27.24-.27t.105.15a.587.587,0,0,1-.045.2L11.9-7.35l-.653,1.808q-.518,1.433-.623,1.807a5.279,5.279,0,0,0-.24,1.305,2,2,0,0,0,.06.45q.06.255.075.36.1.435.165.772a4.448,4.448,0,0,1,.06.773,1.718,1.718,0,0,1-.195.9.656.656,0,0,1-.6.315Q9.6,1.14,9.51.6a1.028,1.028,0,0,1-.015-.2A1.028,1.028,0,0,1,9.51.21q.075-.825.075-1.32a4.728,4.728,0,0,0-.075-.923.754.754,0,0,0-.225-.472.814.814,0,0,0-.42-.18Q8.565-2.73,8.565-2.88Zm10.77-2.55a.314.314,0,0,0,.233-.082.314.314,0,0,0,.082-.233v-3.27a.314.314,0,0,0-.082-.233.314.314,0,0,0-.233-.083h-4.8a.314.314,0,0,0-.233.083.314.314,0,0,0-.082.233v3.27a.314.314,0,0,0,.082.233.314.314,0,0,0,.233.082ZM8.445-8.745Q8.19-8.925,8.235-9A.2.2,0,0,1,8.4-9.06a.631.631,0,0,1,.15.015,3.238,3.238,0,0,1,1.56.615,1.2,1.2,0,0,1,.51.885.568.568,0,0,1-.135.382.434.434,0,0,1-.345.158.631.631,0,0,1-.15-.015.4.4,0,0,1-.27-.27A3.026,3.026,0,0,0,9.2-8.04,5.916,5.916,0,0,0,8.445-8.745Zm6.09,3.75a.314.314,0,0,0-.233.082.314.314,0,0,0-.082.233V-.99a.314.314,0,0,0,.082.232.314.314,0,0,0,.233.083h4.8a.314.314,0,0,0,.233-.083A.314.314,0,0,0,19.65-.99V-4.68a.314.314,0,0,0-.082-.233.314.314,0,0,0-.233-.082ZM28.71-.27a.317.317,0,0,1-.345.27h-4.92q-.27,0-.33-.165a.4.4,0,0,1-.045-.18.5.5,0,0,1,.045-.195,10.48,10.48,0,0,1,1.065-2q.63-.923,1.65-2.138a16.129,16.129,0,0,0,1.59-2.108,3.294,3.294,0,0,0,.5-1.7,2.349,2.349,0,0,0-.45-1.425,1.63,1.63,0,0,0-1.41-.615,2.015,2.015,0,0,0-1.2.352,1.035,1.035,0,0,0-.495.863.914.914,0,0,0,.052.33,1.37,1.37,0,0,0,.173.3,1.929,1.929,0,0,1,.157.292.807.807,0,0,1,.052.307.781.781,0,0,1-.218.578.761.761,0,0,1-.562.217.713.713,0,0,1-.548-.293,1.2,1.2,0,0,1-.247-.8,2.439,2.439,0,0,1,.337-1.17,2.859,2.859,0,0,1,1.02-1.043,3.091,3.091,0,0,1,1.673-.427,3.157,3.157,0,0,1,1.74.427,2.414,2.414,0,0,1,.938,1.065A3.292,3.292,0,0,1,29.2-8.205,2.694,2.694,0,0,1,29-7.1a3.268,3.268,0,0,1-.57.87q-.36.4-1.08,1.057-.165.165-.42.39t-.585.555a11.715,11.715,0,0,0-2.07,2.76.373.373,0,0,0-.045.165q0,.21.285.21h1.365a7.7,7.7,0,0,0,1.635-.127,1.471,1.471,0,0,0,.817-.458,3.68,3.68,0,0,0,.548-1.065q.03-.09.1-.09a1.242,1.242,0,0,1,.135.03.588.588,0,0,1,.135.06.1.1,0,0,1,.045.09l-.015.075ZM39.87-8.13a.423.423,0,0,0,.375-.21l.075-.1.1-.142a.766.766,0,0,1,.12-.142.17.17,0,0,1,.112-.045,1.044,1.044,0,0,1,.427.262,2.784,2.784,0,0,1,.488.488.2.2,0,0,1,.06.15.249.249,0,0,1-.12.2l-.06.03a.344.344,0,0,0-.27.345v1.02q.03,1.455.075,2.265v.075a.334.334,0,0,1-.135.3,1.379,1.379,0,0,1-.36.2,1.042,1.042,0,0,1-.375.082.13.13,0,0,1-.1-.06.269.269,0,0,1-.045-.165.193.193,0,0,0-.083-.165.39.39,0,0,0-.233-.06H38a.3.3,0,0,0-.195.06.185.185,0,0,0-.075.15.373.373,0,0,0,.045.165A6.443,6.443,0,0,0,39.12-1.89a.336.336,0,0,0,.225.12.219.219,0,0,0,.135-.045A10.041,10.041,0,0,0,40.6-2.708a7.007,7.007,0,0,0,.892-.967.271.271,0,0,1,.24-.15.324.324,0,0,1,.21.09q.9.675.9.84,0,.075-.15.075h-.045a.816.816,0,0,0-.39.105,16.585,16.585,0,0,1-2.175,1.05q-.2.09-.195.225t.165.21a11.439,11.439,0,0,0,3.7,1.29q.315.075.3.15a.158.158,0,0,1-.1.1q-.09.038-.15.067a1,1,0,0,0-.48.51.337.337,0,0,1-.4.21A9.634,9.634,0,0,1,39.465-.63a7.312,7.312,0,0,1-2.13-2.94.377.377,0,0,0-.375-.24H35.115a.314.314,0,0,0-.233.083A.314.314,0,0,0,34.8-3.5V-.9a.3.3,0,0,0,.09.24.3.3,0,0,0,.255.045l3-.51a.8.8,0,0,1,.18-.015q.135,0,.165.075v.015q0,.12-.255.21Q35.085.165,32.865.765A.467.467,0,0,0,32.6.9a.263.263,0,0,1-.03.075.183.183,0,0,1-.165.1q-.15,0-.255-.195L31.815.27A.373.373,0,0,1,31.77.105q0-.21.24-.225.87-.12,1.59-.24a.3.3,0,0,0,.285-.33V-8.07q0-.27-.195-.27a.279.279,0,0,0-.18.06,20.687,20.687,0,0,1-2.16,1.125q-.285.12-.33.015v-.03q0-.09.225-.225A18.194,18.194,0,0,0,33.39-8.813a18.164,18.164,0,0,0,1.965-1.717,5.591,5.591,0,0,0,1.35-1.995.278.278,0,0,1,.27-.225.39.39,0,0,1,.12.015l1.17.33a.449.449,0,0,1,.18.1.193.193,0,0,1,.075.142q0,.09-.105.105a.3.3,0,0,0-.1.21.259.259,0,0,0,.09.18,11.787,11.787,0,0,0,2.408,1.665,21.19,21.19,0,0,0,3.082,1.35.72.72,0,0,1,.2.09.13.13,0,0,1,.06.105.144.144,0,0,1-.075.113,1,1,0,0,1-.18.1,1.093,1.093,0,0,0-.465.435q-.12.2-.255.2a.354.354,0,0,1-.15-.045A15.345,15.345,0,0,1,40.17-9.39a10.56,10.56,0,0,1-2.145-2.13.287.287,0,0,0-.225-.15.259.259,0,0,0-.21.12,17.523,17.523,0,0,1-3.255,2.73.253.253,0,0,0-.15.21q0,.135.18.225l.33.165a.8.8,0,0,0,.39.09h1.62a.278.278,0,0,0,.315-.315q-.03-.87-.06-1.215v-.06q0-.225.21-.225a.9.9,0,0,1,.15.03,5.956,5.956,0,0,1,.758.292q.217.113.217.2,0,.06-.1.135l-.015.015a.456.456,0,0,0-.195.375v.45a.314.314,0,0,0,.082.233.314.314,0,0,0,.233.082Zm.045,1.905a.314.314,0,0,0,.233-.082.314.314,0,0,0,.083-.233V-7.4a.314.314,0,0,0-.083-.233.314.314,0,0,0-.233-.082h-4.8a.314.314,0,0,0-.233.082A.314.314,0,0,0,34.8-7.4v.855a.314.314,0,0,0,.082.233.314.314,0,0,0,.233.082Zm-4.8.45a.314.314,0,0,0-.233.082.314.314,0,0,0-.082.233v.9a.314.314,0,0,0,.082.233.314.314,0,0,0,.233.082h4.8a.314.314,0,0,0,.233-.082.314.314,0,0,0,.083-.233v-.9a.314.314,0,0,0-.083-.233.314.314,0,0,0-.233-.082Z" transform="translate(-8981.245 2645.75)" fill="#fff"/>
    <path id="パス_1741" data-name="パス 1741" d="M11.73-10.02a.458.458,0,0,0,.39-.18l.12-.135q.045-.045.127-.143a.943.943,0,0,1,.143-.142.2.2,0,0,1,.12-.045q.1,0,.457.307a4.015,4.015,0,0,1,.547.562.2.2,0,0,1,.06.15.223.223,0,0,1-.15.195,1.371,1.371,0,0,1-.225.06.4.4,0,0,0-.345.285A17.836,17.836,0,0,1,10.515-4.3a12.848,12.848,0,0,1-3.562,3.27A19.2,19.2,0,0,1,1.92,1.08l-.18.03q-.135,0-.165-.075V1q0-.135.255-.225A20.065,20.065,0,0,0,6.3-1.478,13.339,13.339,0,0,0,9.54-4.665a17.351,17.351,0,0,0,2.28-4.56.476.476,0,0,0,.03-.135.2.2,0,0,0-.075-.165.328.328,0,0,0-.21-.06H6.8a.4.4,0,0,0-.375.21q-.45.675-1.185,1.62a.272.272,0,0,0-.09.2q0,.15.225.225A6.741,6.741,0,0,1,7.05-6.5,3.535,3.535,0,0,1,8-5.565,1.6,1.6,0,0,1,8.3-4.74a.663.663,0,0,1-.12.412.392.392,0,0,1-.33.157l-.18-.03a.294.294,0,0,1-.158-.1q-.053-.068-.128-.188a5.779,5.779,0,0,0-.96-1.3,11.441,11.441,0,0,0-1.4-1.253A.264.264,0,0,0,4.83-7.11a.313.313,0,0,0-.24.12A16.351,16.351,0,0,1,1.77-4.515q-.225.165-.315.075a.061.061,0,0,1-.015-.045q0-.075.18-.255A16.788,16.788,0,0,0,3.848-7.163,22.657,22.657,0,0,0,5.7-10.02a10.122,10.122,0,0,0,.945-2.385q.045-.225.24-.225a.4.4,0,0,1,.18.045q1.11.48,1.11.66,0,.06-.15.09l-.045.015a.459.459,0,0,0-.345.255q-.2.435-.6,1.17a.279.279,0,0,0-.06.18.165.165,0,0,0,.075.143.333.333,0,0,0,.2.052ZM39.9-8.13a.423.423,0,0,0,.375-.21l.075-.1.1-.142a.766.766,0,0,1,.12-.142.17.17,0,0,1,.112-.045,1.044,1.044,0,0,1,.427.262,2.784,2.784,0,0,1,.488.488.2.2,0,0,1,.06.15.249.249,0,0,1-.12.2l-.06.03a.344.344,0,0,0-.27.345v1.02q.03,1.455.075,2.265v.075a.334.334,0,0,1-.135.3,1.379,1.379,0,0,1-.36.2,1.042,1.042,0,0,1-.375.082.13.13,0,0,1-.1-.06.269.269,0,0,1-.045-.165.193.193,0,0,0-.083-.165.39.39,0,0,0-.233-.06h-1.92a.3.3,0,0,0-.195.06.185.185,0,0,0-.075.15.373.373,0,0,0,.045.165A6.443,6.443,0,0,0,39.15-1.89a.336.336,0,0,0,.225.12.219.219,0,0,0,.135-.045,10.041,10.041,0,0,0,1.118-.893,7.007,7.007,0,0,0,.892-.967.271.271,0,0,1,.24-.15.324.324,0,0,1,.21.09q.9.675.9.84,0,.075-.15.075h-.045a.816.816,0,0,0-.39.105,16.585,16.585,0,0,1-2.175,1.05q-.2.09-.195.225t.165.21a11.439,11.439,0,0,0,3.7,1.29q.315.075.3.15a.158.158,0,0,1-.1.1q-.09.038-.15.067a1,1,0,0,0-.48.51.337.337,0,0,1-.4.21A9.634,9.634,0,0,1,39.495-.63a7.312,7.312,0,0,1-2.13-2.94.377.377,0,0,0-.375-.24H35.145a.314.314,0,0,0-.233.083.314.314,0,0,0-.082.232V-.9a.3.3,0,0,0,.09.24.3.3,0,0,0,.255.045l3-.51a.8.8,0,0,1,.18-.015q.135,0,.165.075v.015q0,.12-.255.21Q35.115.165,32.9.765a.467.467,0,0,0-.27.135.263.263,0,0,1-.03.075.183.183,0,0,1-.165.1q-.15,0-.255-.195L31.845.27A.373.373,0,0,1,31.8.105q0-.21.24-.225.87-.12,1.59-.24a.3.3,0,0,0,.285-.33V-8.07q0-.27-.195-.27a.279.279,0,0,0-.18.06,20.687,20.687,0,0,1-2.16,1.125q-.285.12-.33.015v-.03q0-.09.225-.225A18.194,18.194,0,0,0,33.42-8.813a18.164,18.164,0,0,0,1.965-1.717,5.591,5.591,0,0,0,1.35-1.995.278.278,0,0,1,.27-.225.39.39,0,0,1,.12.015l1.17.33a.449.449,0,0,1,.18.1.193.193,0,0,1,.075.142q0,.09-.105.105a.3.3,0,0,0-.1.21.259.259,0,0,0,.09.18,11.787,11.787,0,0,0,2.408,1.665,21.19,21.19,0,0,0,3.082,1.35.72.72,0,0,1,.2.09.13.13,0,0,1,.06.105.144.144,0,0,1-.075.113,1,1,0,0,1-.18.1,1.093,1.093,0,0,0-.465.435q-.12.2-.255.2a.354.354,0,0,1-.15-.045A15.345,15.345,0,0,1,40.2-9.39a10.56,10.56,0,0,1-2.145-2.13.287.287,0,0,0-.225-.15.259.259,0,0,0-.21.12,17.523,17.523,0,0,1-3.255,2.73.253.253,0,0,0-.15.21q0,.135.18.225l.33.165a.8.8,0,0,0,.39.09h1.62a.278.278,0,0,0,.315-.315q-.03-.87-.06-1.215v-.06q0-.225.21-.225a.9.9,0,0,1,.15.03,5.956,5.956,0,0,1,.758.292q.217.113.217.2,0,.06-.1.135l-.015.015a.456.456,0,0,0-.195.375v.45a.314.314,0,0,0,.082.233.314.314,0,0,0,.233.082Zm.045,1.905a.314.314,0,0,0,.233-.082.314.314,0,0,0,.083-.233V-7.4a.314.314,0,0,0-.083-.233.314.314,0,0,0-.233-.082h-4.8a.314.314,0,0,0-.233.082.314.314,0,0,0-.082.233v.855a.314.314,0,0,0,.082.233.314.314,0,0,0,.233.082Zm-4.8.45a.314.314,0,0,0-.233.082.314.314,0,0,0-.082.233v.9a.314.314,0,0,0,.082.233.314.314,0,0,0,.233.082h4.8a.314.314,0,0,0,.233-.082.314.314,0,0,0,.083-.233v-.9a.314.314,0,0,0-.083-.233.314.314,0,0,0-.233-.082Z" transform="translate(-8981.44 2706.75)" fill="#fff"/>
    <path id="パス_1742" data-name="パス 1742" d="M6.06-2.49a.431.431,0,0,0,.375-.195L6.57-2.88A1.293,1.293,0,0,0,6.7-3.045a.958.958,0,0,1,.142-.173.183.183,0,0,1,.12-.053,1.213,1.213,0,0,1,.465.293,3.022,3.022,0,0,1,.525.518.33.33,0,0,1,.075.18.215.215,0,0,1-.09.165.454.454,0,0,1-.27.075H5.16a.314.314,0,0,0-.233.083.314.314,0,0,0-.082.233v.66l.03.765q0,.315.03.855V.63A.4.4,0,0,1,4.77.945a1.073,1.073,0,0,1-.69.24A.227.227,0,0,1,3.9,1.1a.318.318,0,0,1-.075-.21Q3.9.195,3.93-.96v-.765a.314.314,0,0,0-.083-.233.314.314,0,0,0-.232-.083h-.66a11.825,11.825,0,0,0-1.5.15.257.257,0,0,1-.105.015.3.3,0,0,1-.285-.21L1-2.2A.373.373,0,0,1,.96-2.37a.18.18,0,0,1,.075-.158.3.3,0,0,1,.21-.037q.525.045,1.56.075h.81a.314.314,0,0,0,.232-.082.314.314,0,0,0,.083-.232V-3.87A.314.314,0,0,0,3.848-4.1a.314.314,0,0,0-.232-.082h-.63a.314.314,0,0,0-.233.082.314.314,0,0,0-.082.233v.09q0,.09-.247.21a1.111,1.111,0,0,1-.487.12.207.207,0,0,1-.173-.09A.34.34,0,0,1,1.7-3.75q.06-.63.09-1.59V-6.3q0-1.29-.12-2.49v-.06q0-.225.2-.225a.334.334,0,0,1,.15.03l.555.255a1,1,0,0,0,.39.09h.66a.314.314,0,0,0,.232-.082.314.314,0,0,0,.083-.233v-.87a.314.314,0,0,0-.083-.233.314.314,0,0,0-.232-.082h-.66a11.825,11.825,0,0,0-1.5.15.257.257,0,0,1-.105.015.3.3,0,0,1-.285-.21L1-10.35a.373.373,0,0,1-.045-.165q0-.225.3-.2.51.045,1.545.075h.81a.278.278,0,0,0,.315-.315q-.03-.915-.075-1.29v-.03a.28.28,0,0,1,.068-.195A.222.222,0,0,1,4.1-12.54l.135.03q.975.315.975.495,0,.075-.12.15l-.03.015a.423.423,0,0,0-.21.375v.525a.314.314,0,0,0,.082.233.314.314,0,0,0,.233.082h.87a.423.423,0,0,0,.375-.21l.15-.225a2.16,2.16,0,0,0,.128-.18,1.077,1.077,0,0,1,.142-.18.207.207,0,0,1,.135-.075q.105,0,.488.322a3.284,3.284,0,0,1,.563.578.223.223,0,0,1,.06.165A.229.229,0,0,1,8-10.275a.454.454,0,0,1-.27.075H5.16a.314.314,0,0,0-.233.082.314.314,0,0,0-.082.233v.87a.314.314,0,0,0,.082.233A.314.314,0,0,0,5.16-8.7h.57a.458.458,0,0,0,.39-.18l.09-.105q.045-.045.15-.172a.28.28,0,0,1,.195-.127A1.142,1.142,0,0,1,7-9.038a3.8,3.8,0,0,1,.533.458.324.324,0,0,1,.075.165q0,.09-.135.2a.379.379,0,0,1-.09.045.582.582,0,0,0-.075.03.344.344,0,0,0-.27.345v1.1q.045,1.665.09,2.445v.075a.322.322,0,0,1-.15.3,1.051,1.051,0,0,1-.338.195,1.1,1.1,0,0,1-.382.075.111.111,0,0,1-.1-.075A.478.478,0,0,1,6.12-3.9a.269.269,0,0,0-.082-.21.333.333,0,0,0-.233-.075H5.16a.314.314,0,0,0-.233.082.314.314,0,0,0-.082.233v1.065a.314.314,0,0,0,.082.232.314.314,0,0,0,.233.082Zm6.4-1.7a.314.314,0,0,0-.083-.233A.314.314,0,0,0,12.15-4.5H9.765a.3.3,0,0,0-.33.3,9.23,9.23,0,0,1-.892,2.947A6.29,6.29,0,0,1,6.525,1.02q-.24.165-.33.075l-.03-.06q0-.09.165-.255A6.962,6.962,0,0,0,8.175-2.333a15.919,15.919,0,0,0,.48-4.178V-9.18a22.208,22.208,0,0,0-.1-2.31v-.06q0-.225.195-.225a.334.334,0,0,1,.15.03l.66.285a1,1,0,0,0,.39.09H12.09a.423.423,0,0,0,.375-.21l.075-.105q.045-.06.105-.15a.913.913,0,0,1,.1-.135.144.144,0,0,1,.105-.045,1.439,1.439,0,0,1,.5.285,3.485,3.485,0,0,1,.592.51.216.216,0,0,1,.075.15.222.222,0,0,1-.135.2.9.9,0,0,1-.24.1.353.353,0,0,0-.27.36V-.255a1.564,1.564,0,0,1-.225.915,1.483,1.483,0,0,1-.96.45H12.12a.3.3,0,0,1-.3-.255.725.725,0,0,0-.255-.39,2.492,2.492,0,0,0-.945-.33q-.3-.045-.3-.165,0-.09.24-.09.3,0,.99.06l.555.03a.406.406,0,0,0,.285-.075.379.379,0,0,0,.075-.27Zm-.315-4.05a.314.314,0,0,0,.232-.083.314.314,0,0,0,.083-.233v-2.055a.314.314,0,0,0-.083-.233.314.314,0,0,0-.232-.083h-2.3a.314.314,0,0,0-.233.083.314.314,0,0,0-.082.233V-8.55a.314.314,0,0,0,.082.233.314.314,0,0,0,.233.083ZM5.805-6.66a.314.314,0,0,0,.233-.082.314.314,0,0,0,.082-.233v-.96a.314.314,0,0,0-.082-.233.314.314,0,0,0-.233-.082H2.985a.314.314,0,0,0-.233.082.314.314,0,0,0-.082.233v.96a.314.314,0,0,0,.082.233.314.314,0,0,0,.233.082ZM9.855-7.8a.314.314,0,0,0-.233.083.314.314,0,0,0-.082.233v.945q0,.435-.03,1.275v.045q0,.285.3.285h2.34a.314.314,0,0,0,.232-.082.314.314,0,0,0,.083-.233V-7.485a.314.314,0,0,0-.083-.233A.314.314,0,0,0,12.15-7.8ZM6.12-5.91a.314.314,0,0,0-.082-.233.314.314,0,0,0-.233-.082H2.985a.314.314,0,0,0-.233.082.314.314,0,0,0-.082.233v.975a.314.314,0,0,0,.082.233.314.314,0,0,0,.233.082h2.82A.314.314,0,0,0,6.038-4.7a.314.314,0,0,0,.082-.233ZM39.9-8.13a.423.423,0,0,0,.375-.21l.075-.1.1-.142a.766.766,0,0,1,.12-.142.17.17,0,0,1,.112-.045,1.044,1.044,0,0,1,.427.262,2.784,2.784,0,0,1,.488.488.2.2,0,0,1,.06.15.249.249,0,0,1-.12.2l-.06.03a.344.344,0,0,0-.27.345v1.02q.03,1.455.075,2.265v.075a.334.334,0,0,1-.135.3,1.379,1.379,0,0,1-.36.2,1.042,1.042,0,0,1-.375.082.13.13,0,0,1-.1-.06.269.269,0,0,1-.045-.165.193.193,0,0,0-.083-.165.39.39,0,0,0-.233-.06h-1.92a.3.3,0,0,0-.195.06.185.185,0,0,0-.075.15.373.373,0,0,0,.045.165A6.443,6.443,0,0,0,39.15-1.89a.336.336,0,0,0,.225.12.219.219,0,0,0,.135-.045,10.041,10.041,0,0,0,1.118-.893,7.007,7.007,0,0,0,.892-.967.271.271,0,0,1,.24-.15.324.324,0,0,1,.21.09q.9.675.9.84,0,.075-.15.075h-.045a.816.816,0,0,0-.39.105,16.585,16.585,0,0,1-2.175,1.05q-.2.09-.195.225t.165.21a11.439,11.439,0,0,0,3.7,1.29q.315.075.3.15a.158.158,0,0,1-.1.1q-.09.038-.15.067a1,1,0,0,0-.48.51.337.337,0,0,1-.4.21A9.634,9.634,0,0,1,39.495-.63a7.312,7.312,0,0,1-2.13-2.94.377.377,0,0,0-.375-.24H35.145a.314.314,0,0,0-.233.083.314.314,0,0,0-.082.232V-.9a.3.3,0,0,0,.09.24.3.3,0,0,0,.255.045l3-.51a.8.8,0,0,1,.18-.015q.135,0,.165.075v.015q0,.12-.255.21Q35.115.165,32.9.765a.467.467,0,0,0-.27.135.263.263,0,0,1-.03.075.183.183,0,0,1-.165.1q-.15,0-.255-.195L31.845.27A.373.373,0,0,1,31.8.105q0-.21.24-.225.87-.12,1.59-.24a.3.3,0,0,0,.285-.33V-8.07q0-.27-.195-.27a.279.279,0,0,0-.18.06,20.687,20.687,0,0,1-2.16,1.125q-.285.12-.33.015v-.03q0-.09.225-.225A18.194,18.194,0,0,0,33.42-8.813a18.164,18.164,0,0,0,1.965-1.717,5.591,5.591,0,0,0,1.35-1.995.278.278,0,0,1,.27-.225.39.39,0,0,1,.12.015l1.17.33a.449.449,0,0,1,.18.1.193.193,0,0,1,.075.142q0,.09-.105.105a.3.3,0,0,0-.1.21.259.259,0,0,0,.09.18,11.787,11.787,0,0,0,2.408,1.665,21.19,21.19,0,0,0,3.082,1.35.72.72,0,0,1,.2.09.13.13,0,0,1,.06.105.144.144,0,0,1-.075.113,1,1,0,0,1-.18.1,1.093,1.093,0,0,0-.465.435q-.12.2-.255.2a.354.354,0,0,1-.15-.045A15.345,15.345,0,0,1,40.2-9.39a10.56,10.56,0,0,1-2.145-2.13.287.287,0,0,0-.225-.15.259.259,0,0,0-.21.12,17.523,17.523,0,0,1-3.255,2.73.253.253,0,0,0-.15.21q0,.135.18.225l.33.165a.8.8,0,0,0,.39.09h1.62a.278.278,0,0,0,.315-.315q-.03-.87-.06-1.215v-.06q0-.225.21-.225a.9.9,0,0,1,.15.03,5.956,5.956,0,0,1,.758.292q.217.113.217.2,0,.06-.1.135l-.015.015a.456.456,0,0,0-.195.375v.45a.314.314,0,0,0,.082.233.314.314,0,0,0,.233.082Zm.045,1.905a.314.314,0,0,0,.233-.082.314.314,0,0,0,.083-.233V-7.4a.314.314,0,0,0-.083-.233.314.314,0,0,0-.233-.082h-4.8a.314.314,0,0,0-.233.082.314.314,0,0,0-.082.233v.855a.314.314,0,0,0,.082.233.314.314,0,0,0,.233.082Zm-4.8.45a.314.314,0,0,0-.233.082.314.314,0,0,0-.082.233v.9a.314.314,0,0,0,.082.233.314.314,0,0,0,.233.082h4.8a.314.314,0,0,0,.233-.082.314.314,0,0,0,.083-.233v-.9a.314.314,0,0,0-.083-.233.314.314,0,0,0-.233-.082Z" transform="translate(-8980.96 2768.75)" fill="#fff"/>
    <path id="パス_1743" data-name="パス 1743" d="M5.46-9.63a.4.4,0,0,0-.105.21.136.136,0,0,0,.075.12.3.3,0,0,0,.2.03l4.74-.27q.27-.03.27-.195a.329.329,0,0,0-.12-.21,12.675,12.675,0,0,0-1.35-1.035q-.225-.135-.225-.24,0-.06.105-.06a.771.771,0,0,1,.24.045,8.618,8.618,0,0,1,2.138,1.005,4.531,4.531,0,0,1,1.2,1.11,1.773,1.773,0,0,1,.368.96.569.569,0,0,1-.113.375.363.363,0,0,1-.292.135.455.455,0,0,1-.135-.015.294.294,0,0,1-.158-.1q-.053-.067-.127-.187a6.628,6.628,0,0,0-.8-1.125.414.414,0,0,0-.4-.135q-2.55.405-7.92,1.065-.225.015-.27.105l-.06.06a.2.2,0,0,1-.15.06.24.24,0,0,1-.15-.06.315.315,0,0,1-.105-.165L2.085-8.76,2.055-8.9q0-.225.27-.24l.6-.015L4.29-9.2a.449.449,0,0,0,.375-.225l.27-.48q.315-.585.607-1.275A10.832,10.832,0,0,0,6-12.45q.075-.24.27-.24a.476.476,0,0,1,.135.03q1.185.405,1.185.585,0,.06-.135.105l-.075.03a.486.486,0,0,0-.3.21A18.518,18.518,0,0,1,5.46-9.63ZM4.965-4.5q0-.27-.3-.27H3.42a16.158,16.158,0,0,0-1.98.165H1.35a.308.308,0,0,1-.3-.2L.99-4.92A.4.4,0,0,1,.945-5.1a.165.165,0,0,1,.075-.143.3.3,0,0,1,.21-.037q.51.045,1.545.075H4.7a.314.314,0,0,0,.233-.083A.314.314,0,0,0,5.01-5.52v-1.2q0-.6-.03-.885v-.03q0-.27.225-.27l.135.03a5.45,5.45,0,0,1,.75.293q.21.113.21.2t-.12.15l-.045.03a.431.431,0,0,0-.195.375v1.3a.314.314,0,0,0,.082.233.314.314,0,0,0,.233.083h2.61A.278.278,0,0,0,9.18-5.52q-.03-1.29-.135-2.3v-.06a.25.25,0,0,1,.06-.173.209.209,0,0,1,.165-.067.476.476,0,0,1,.135.03,5.829,5.829,0,0,1,.855.3q.24.12.24.21,0,.075-.12.15l-.045.03a.423.423,0,0,0-.21.375v1.5a.314.314,0,0,0,.083.233.314.314,0,0,0,.233.083h1.425a.431.431,0,0,0,.375-.2l.195-.285.15-.2a1.94,1.94,0,0,1,.172-.21.189.189,0,0,1,.127-.067,1.586,1.586,0,0,1,.54.36,4.933,4.933,0,0,1,.645.615.33.33,0,0,1,.075.18.215.215,0,0,1-.09.165.454.454,0,0,1-.27.075H10.44a.314.314,0,0,0-.233.083.314.314,0,0,0-.083.232v1.65q.03,1.635.105,3.3V.57A.4.4,0,0,1,10.1.885a1.552,1.552,0,0,1-.352.18,1.14,1.14,0,0,1-.4.075.313.313,0,0,1-.217-.09.278.278,0,0,1-.1-.21q.06-.825.1-1.62T9.18-2.79V-4.455A.314.314,0,0,0,9.1-4.687a.314.314,0,0,0-.233-.083H6.21a.29.29,0,0,0-.315.3A7.11,7.11,0,0,1,4.823-1.222,6.356,6.356,0,0,1,1.83,1.08a.506.506,0,0,1-.225.06.143.143,0,0,1-.12-.06Q1.41.975,1.83.72a5.824,5.824,0,0,0,2.3-2.228A7.41,7.41,0,0,0,4.965-4.44ZM41.19-6.75a.484.484,0,0,0,.39-.18l.09-.12q.045-.06.15-.187a.28.28,0,0,1,.195-.128,1.2,1.2,0,0,1,.458.263,3.479,3.479,0,0,1,.548.487.324.324,0,0,1,.075.165q0,.09-.135.195-.135.06-.18.075a.385.385,0,0,0-.255.36v2.94q.03,1.635.1,3.3V.5a.322.322,0,0,1-.15.3,1.508,1.508,0,0,1-.367.21,1.08,1.08,0,0,1-.413.09q-.075,0-.135-.105a.9.9,0,0,1-.03-.15,1.264,1.264,0,0,1,.03-.21L41.6.465V.45a.314.314,0,0,0-.083-.233A.314.314,0,0,0,41.28.135H34.455A16.158,16.158,0,0,0,32.475.3h-.09a.308.308,0,0,1-.3-.2L32.01-.03a.4.4,0,0,1-.045-.18.165.165,0,0,1,.075-.143.3.3,0,0,1,.21-.037q.51.045,1.545.075H41.28A.314.314,0,0,0,41.513-.4.314.314,0,0,0,41.6-.63V-2.82a.314.314,0,0,0-.083-.232.314.314,0,0,0-.233-.082h-6.3A15.54,15.54,0,0,0,33-2.97h-.075a.338.338,0,0,1-.315-.195l-.06-.12a.836.836,0,0,1-.06-.18.165.165,0,0,1,.075-.143.3.3,0,0,1,.21-.037q.51.045,1.545.075h6.96a.314.314,0,0,0,.233-.082.314.314,0,0,0,.083-.232v-2.1a.314.314,0,0,0-.083-.233A.314.314,0,0,0,41.28-6.3H34.74a16.158,16.158,0,0,0-1.98.165h-.09a.308.308,0,0,1-.3-.2l-.075-.135a.373.373,0,0,1-.045-.165q0-.225.3-.195.51.045,1.545.075H36.69a.314.314,0,0,0,.233-.082.314.314,0,0,0,.083-.232V-9.54a23.928,23.928,0,0,0-.135-2.685v-.06a.25.25,0,0,1,.06-.173.209.209,0,0,1,.165-.067.476.476,0,0,1,.135.03q1.11.33,1.11.525,0,.075-.12.15l-.045.03a.423.423,0,0,0-.21.375v4.35a.314.314,0,0,0,.083.232.314.314,0,0,0,.232.082Zm.09-4.77q.075-.21.225-.21a.4.4,0,0,1,.18.045l.39.24a2.255,2.255,0,0,0,.345.165q.435.18.435.3,0,.075-.18.12l-.045.015a.519.519,0,0,0-.345.225,17.556,17.556,0,0,1-2.37,2.82.411.411,0,0,1-.24.15.106.106,0,0,1-.12-.12.523.523,0,0,1,.09-.255q.285-.45.495-.84a12.667,12.667,0,0,0,.63-1.3Q41.085-10.905,41.28-11.52Zm-8.805.255a.841.841,0,0,1-.12-.2q-.03-.082,0-.112a.087.087,0,0,1,.06-.015.469.469,0,0,1,.24.105A5.784,5.784,0,0,1,34.44-9.975a2.555,2.555,0,0,1,.57,1.44.878.878,0,0,1-.135.51.405.405,0,0,1-.345.2.446.446,0,0,1-.225-.06.43.43,0,0,1-.225-.33,5.658,5.658,0,0,0-.593-1.515A10.809,10.809,0,0,0,32.475-11.265Z" transform="translate(-8980.945 2830.69)" fill="#fff"/>
    <path id="パス_1749" data-name="パス 1749" d="M11.115-11.43a.445.445,0,0,0,.39-.2l.2-.27.15-.2a1.94,1.94,0,0,1,.172-.21.189.189,0,0,1,.128-.068,1.129,1.129,0,0,1,.413.24,6.03,6.03,0,0,1,.607.517q.285.278.285.382-.015.24-.375.24H8.31a.314.314,0,0,0-.233.083A.314.314,0,0,0,8-10.68v5.505a.314.314,0,0,0,.082.233.314.314,0,0,0,.233.082h3.45a.445.445,0,0,0,.39-.2l.195-.27.15-.2a1.94,1.94,0,0,1,.173-.21.189.189,0,0,1,.127-.068,1.577,1.577,0,0,1,.57.36,3.9,3.9,0,0,1,.645.615.33.33,0,0,1,.075.18.216.216,0,0,1-.075.15.527.527,0,0,1-.285.075H8.31a.314.314,0,0,0-.233.082A.314.314,0,0,0,8-4.11v1.44q.03,1.59.1,3.21V.615A.4.4,0,0,1,7.965.93a1.223,1.223,0,0,1-.8.255.3.3,0,0,1-.2-.09.278.278,0,0,1-.1-.21q.06-.78.1-1.53t.053-1.9V-4.11a.314.314,0,0,0-.082-.233.314.314,0,0,0-.233-.082H3.435a16.158,16.158,0,0,0-1.98.165h-.09a.308.308,0,0,1-.3-.2L1-4.575a.4.4,0,0,1-.045-.18A.165.165,0,0,1,1.035-4.9a.3.3,0,0,1,.21-.037q.51.045,1.545.075H6.705a.314.314,0,0,0,.233-.082.314.314,0,0,0,.082-.233V-10.68a.314.314,0,0,0-.082-.233A.314.314,0,0,0,6.705-11H4.2a15.541,15.541,0,0,0-1.98.165H2.145a.338.338,0,0,1-.315-.195l-.06-.12a.835.835,0,0,1-.06-.18.165.165,0,0,1,.075-.142A.3.3,0,0,1,2-11.505q.51.045,1.545.075Zm-.24,1.56q.045-.225.24-.225a.373.373,0,0,1,.165.045l.375.18a2.334,2.334,0,0,0,.36.15q.435.15.435.27,0,.09-.18.135l-.045.015a.575.575,0,0,0-.33.255A16.083,16.083,0,0,1,9.66-5.895q-.18.225-.3.135a.144.144,0,0,1-.045-.105.437.437,0,0,1,.09-.225q.165-.3.36-.75l.15-.3q.27-.6.54-1.365T10.875-9.87Zm-7.77.18q-.165-.285-.06-.33l.045-.015a.56.56,0,0,1,.255.135A6.182,6.182,0,0,1,4.868-8.2,3.207,3.207,0,0,1,5.355-6.66a1.15,1.15,0,0,1-.142.608.422.422,0,0,1-.368.233.465.465,0,0,1-.255-.09.417.417,0,0,1-.2-.345,6.709,6.709,0,0,0-.45-1.672A14.576,14.576,0,0,0,3.105-9.69ZM19.485-.285a.314.314,0,0,0-.233.083A.314.314,0,0,0,19.17.03q.015.15.015.33L19.2.525a.34.34,0,0,1-.075.225.863.863,0,0,1-.315.218,1.106,1.106,0,0,1-.435.082.3.3,0,0,1-.217-.1.287.287,0,0,1-.1-.2q.06-.885.105-1.718t.06-2.183V-8.61a23.067,23.067,0,0,0-.135-2.625v-.06a.273.273,0,0,1,.052-.173.157.157,0,0,1,.128-.068.373.373,0,0,1,.165.045l.645.315a.8.8,0,0,0,.39.09H25.5a.431.431,0,0,0,.375-.2l.1-.135q.03-.045.1-.142a.756.756,0,0,1,.135-.142.2.2,0,0,1,.12-.045,1.237,1.237,0,0,1,.465.27,3.155,3.155,0,0,1,.555.51.258.258,0,0,1,.06.165.246.246,0,0,1-.135.195,1.164,1.164,0,0,1-.15.06.369.369,0,0,0-.27.36v7.17q.03,1.635.105,3.3V.36a.322.322,0,0,1-.15.3,1.513,1.513,0,0,1-.382.225,1.08,1.08,0,0,1-.412.09.165.165,0,0,1-.165-.12A.245.245,0,0,1,25.83.72,1.967,1.967,0,0,1,25.86.5q0-.03.03-.36V.03A.314.314,0,0,0,25.808-.2a.314.314,0,0,0-.233-.083ZM25.575-6a.314.314,0,0,0,.233-.083.314.314,0,0,0,.082-.233v-4.02a.314.314,0,0,0-.082-.233.314.314,0,0,0-.233-.083h-6.09a.314.314,0,0,0-.233.083.314.314,0,0,0-.083.233v4.02a.314.314,0,0,0,.083.233A.314.314,0,0,0,19.485-6Zm-6.09.435a.314.314,0,0,0-.233.083.314.314,0,0,0-.083.232v4.215a.314.314,0,0,0,.083.233.314.314,0,0,0,.233.083h6.09A.314.314,0,0,0,25.808-.8a.314.314,0,0,0,.082-.233V-5.25a.314.314,0,0,0-.082-.232.314.314,0,0,0-.233-.083Z" transform="translate(-8888.96 2521.375)" fill="#fff"/>
    <path id="パス_1753" data-name="パス 1753" d="M11.775-11.73a.436.436,0,0,0,.39-.21l.075-.135.1-.142a1.112,1.112,0,0,1,.12-.15.158.158,0,0,1,.112-.053,1.146,1.146,0,0,1,.45.278,4.433,4.433,0,0,1,.555.517.258.258,0,0,1,.06.165.253.253,0,0,1-.15.21l-.135.075a.594.594,0,0,0-.2.135.3.3,0,0,0-.068.21v8.64a1.434,1.434,0,0,1-.218.863,1.391,1.391,0,0,1-.892.412L11.88-.9q-.18,0-.285-.27a.558.558,0,0,0-.225-.33,1.835,1.835,0,0,0-.84-.285q-.3-.075-.3-.165t.24-.09q-.03,0,.87.045l.51.03a.38.38,0,0,0,.255-.068.3.3,0,0,0,.075-.232V-10.98a.314.314,0,0,0-.083-.233.314.314,0,0,0-.233-.082H6.555a.314.314,0,0,0-.233.082.314.314,0,0,0-.082.233v3.06q0,1.38-.1,2.475a10.261,10.261,0,0,1-.458,2.22,6.1,6.1,0,0,1-1.08,2.01q-.135.15-.225.15a.106.106,0,0,1-.12-.12.823.823,0,0,1,.075-.24,8.735,8.735,0,0,0,.84-2.835,29.7,29.7,0,0,0,.2-3.66v-2.145q0-.855-.075-1.785v-.06a.242.242,0,0,1,.053-.165.163.163,0,0,1,.128-.06.373.373,0,0,1,.165.045l.6.27a1,1,0,0,0,.39.09Zm-10.23-.03q-.18-.18-.18-.255t.1-.075a1.058,1.058,0,0,1,.225.06,4.2,4.2,0,0,1,1.71,1.08,1.89,1.89,0,0,1,.54,1.2.727.727,0,0,1-.142.465.434.434,0,0,1-.353.18.529.529,0,0,1-.21-.045A.376.376,0,0,1,3-9.45a4.627,4.627,0,0,0-.57-1.2A6.638,6.638,0,0,0,1.545-11.76ZM10.23-7.62a.431.431,0,0,0,.375-.2l.09-.135.1-.142a.766.766,0,0,1,.12-.143.17.17,0,0,1,.113-.045.852.852,0,0,1,.4.24,2.558,2.558,0,0,1,.435.45.461.461,0,0,1,.06.18.215.215,0,0,1-.09.165.4.4,0,0,1-.24.075H9.135a16.158,16.158,0,0,0-1.98.165h-.09a.308.308,0,0,1-.3-.2l-.06-.135a.4.4,0,0,1-.045-.18q0-.195.285-.165.33.03,1.02.06h.36A.314.314,0,0,0,8.557-7.7a.314.314,0,0,0,.083-.233v-.81a.314.314,0,0,0-.083-.233.314.314,0,0,0-.233-.083h-.27a3.113,3.113,0,0,0-.7.12.39.39,0,0,1-.12.015.349.349,0,0,1-.3-.2L6.9-9.2a.4.4,0,0,1-.045-.18q0-.2.285-.165t.87.06h.315A.278.278,0,0,0,8.64-9.8L8.6-10.56v-.03q0-.255.21-.255a.374.374,0,0,1,.165.03q.81.3.81.465,0,.045-.1.12a.388.388,0,0,0-.195.375v.06a.314.314,0,0,0,.083.233A.314.314,0,0,0,9.8-9.48h.24a.423.423,0,0,0,.375-.21l.075-.105q.045-.06.1-.15a.913.913,0,0,1,.105-.135.144.144,0,0,1,.1-.045.86.86,0,0,1,.383.225,2.136,2.136,0,0,1,.413.42.279.279,0,0,1,.06.18.229.229,0,0,1-.075.165.427.427,0,0,1-.255.075H9.8a.314.314,0,0,0-.233.083.314.314,0,0,0-.083.233v.81a.314.314,0,0,0,.083.233A.314.314,0,0,0,9.8-7.62ZM2.385-6.165A.418.418,0,0,0,2.76-6.39l.12-.195A2.17,2.17,0,0,0,3-6.773a1.3,1.3,0,0,1,.128-.187.15.15,0,0,1,.112-.06q.105,0,.487.33a3.681,3.681,0,0,1,.577.6.258.258,0,0,1,.06.165.223.223,0,0,1-.15.195.591.591,0,0,1-.21.075.348.348,0,0,0-.285.345v3.525a.561.561,0,0,0,.15.39,3.239,3.239,0,0,0,1.065.787,4.631,4.631,0,0,0,1.372.352A19.277,19.277,0,0,0,8.4-.165q3.78,0,5.505-.045h.075a.427.427,0,0,1,.172.03q.068.03.068.06,0,.045-.075.09l-.18.105a.784.784,0,0,0-.405.45.344.344,0,0,1-.345.27H8.4A13.2,13.2,0,0,1,6.248.653a4.091,4.091,0,0,1-1.44-.51,3.665,3.665,0,0,1-1.1-1.088A.261.261,0,0,0,3.48-1.1a.224.224,0,0,0-.195.12A18.7,18.7,0,0,1,1.83.6q-.15.15-.15.2V.87L1.56.885A.254.254,0,0,1,1.32.75L1,.21A.461.461,0,0,1,.945.03a.3.3,0,0,1,.18-.255Q1.83-.6,2.625-1.11a.4.4,0,0,0,.21-.375v-3.93a.314.314,0,0,0-.082-.232A.314.314,0,0,0,2.52-5.73h-.3a4.152,4.152,0,0,0-.795.12A.455.455,0,0,1,1.29-5.6a.289.289,0,0,1-.27-.195L.975-5.88A.354.354,0,0,1,.93-6.03.171.171,0,0,1,1.013-6.2a.406.406,0,0,1,.233-.03q.27.03.81.06ZM9.78-6.03a.5.5,0,0,0,.39-.2l.06-.075a1.722,1.722,0,0,0,.135-.165.242.242,0,0,1,.18-.12.805.805,0,0,1,.368.21,2.628,2.628,0,0,1,.427.42.258.258,0,0,1,.06.165.176.176,0,0,1-.135.18l-.03.015a.369.369,0,0,0-.27.36v.66L11-3.84q0,.3.03.84v.075a.4.4,0,0,1-.135.315,1.128,1.128,0,0,1-.63.225q-.12,0-.12-.315v-.075a.314.314,0,0,0-.083-.233.314.314,0,0,0-.233-.082H8.28a.333.333,0,0,0-.233.075.269.269,0,0,0-.083.21,1.713,1.713,0,0,1,.015.24v.12a.316.316,0,0,1-.12.27.97.97,0,0,1-.27.128A1.083,1.083,0,0,1,7.26-2a.159.159,0,0,1-.142-.09.409.409,0,0,1-.053-.21q.045-.42.06-.81L7.14-3.48v-.75a18.113,18.113,0,0,0-.09-1.86v-.03q0-.255.2-.255a.373.373,0,0,1,.165.045l.45.21a1,1,0,0,0,.39.09ZM8.28-5.6a.314.314,0,0,0-.233.082.314.314,0,0,0-.083.233v1.455a.314.314,0,0,0,.083.233.314.314,0,0,0,.233.082H9.825a.314.314,0,0,0,.233-.082.314.314,0,0,0,.083-.233V-5.28a.314.314,0,0,0-.083-.233A.314.314,0,0,0,9.825-5.6Zm17.67-1.02a.431.431,0,0,0,.375-.2l.195-.27q.075-.09.15-.195a2.05,2.05,0,0,1,.15-.188.2.2,0,0,1,.135-.082,1.493,1.493,0,0,1,.555.36,4.12,4.12,0,0,1,.63.615.33.33,0,0,1,.075.18.216.216,0,0,1-.075.15.556.556,0,0,1-.3.075H23.76a.333.333,0,0,0-.2.052.165.165,0,0,0-.075.142.279.279,0,0,0,.06.18,12.24,12.24,0,0,0,2.4,2.8,12.094,12.094,0,0,0,3,1.957l.18.105q.075.045.075.075a.087.087,0,0,1-.052.075.475.475,0,0,1-.1.045l-.1.03a1.085,1.085,0,0,0-.525.465q-.1.18-.24.18a.373.373,0,0,1-.165-.045A12.146,12.146,0,0,1,25.2-2.55a12.805,12.805,0,0,1-2.085-3.375q-.105-.24-.135-.24h-.03v3.33q.03,1.62.1,3.315V.57a.389.389,0,0,1-.12.285,1.329,1.329,0,0,1-.353.225,1.007,1.007,0,0,1-.413.09.378.378,0,0,1-.255-.09.27.27,0,0,1-.1-.21q.06-.885.1-1.718t.06-2.183V-4.785a.437.437,0,0,0-.038-.2.12.12,0,0,0-.112-.075q-.105,0-.225.165a14.347,14.347,0,0,1-2.34,2.73A15.688,15.688,0,0,1,16.23,0q-.27.165-.345.045a.087.087,0,0,1-.015-.06q0-.1.2-.24a14.834,14.834,0,0,0,2.79-2.49A15.874,15.874,0,0,0,20.97-5.79a.373.373,0,0,0,.045-.165q0-.21-.27-.21H19.32A16.157,16.157,0,0,0,17.34-6h-.09a.308.308,0,0,1-.3-.2l-.075-.135a.4.4,0,0,1-.045-.18.165.165,0,0,1,.075-.142.3.3,0,0,1,.21-.037q.51.045,1.545.075h3a.314.314,0,0,0,.233-.083.314.314,0,0,0,.083-.232V-9.015a.314.314,0,0,0-.083-.233.314.314,0,0,0-.233-.083H18.57a16.157,16.157,0,0,0-1.98.165H16.5a.308.308,0,0,1-.3-.2l-.06-.1a.4.4,0,0,1-.045-.18.165.165,0,0,1,.075-.142.3.3,0,0,1,.21-.038q.51.045,1.545.075H21.66a.278.278,0,0,0,.315-.315q-.03-1.245-.135-2.2v-.03a.28.28,0,0,1,.068-.195.222.222,0,0,1,.172-.075l.135.03q1.095.345,1.1.54,0,.075-.12.15l-.045.03a.431.431,0,0,0-.195.375v1.38a.314.314,0,0,0,.083.233.314.314,0,0,0,.232.082h3.42a.431.431,0,0,0,.375-.195l.195-.27q.075-.09.15-.195a2.05,2.05,0,0,1,.15-.188.2.2,0,0,1,.135-.082,1.642,1.642,0,0,1,.548.345,4.25,4.25,0,0,1,.653.6.33.33,0,0,1,.075.18.215.215,0,0,1-.09.165.575.575,0,0,1-.285.06H23.265a.314.314,0,0,0-.232.083.314.314,0,0,0-.083.233V-6.93a.314.314,0,0,0,.083.232.314.314,0,0,0,.232.083ZM38.175.33a5.45,5.45,0,0,1-2.482-.54A2.027,2.027,0,0,1,34.62-2.2,3.721,3.721,0,0,1,36.525-5.28a.253.253,0,0,0,.15-.21.329.329,0,0,0-.12-.21,2.258,2.258,0,0,1-.623-.885,3.5,3.5,0,0,1-.187-1.23,8.157,8.157,0,0,1,.21-1.725,6.1,6.1,0,0,0,.165-1.275,1.632,1.632,0,0,0-.075-.54,1.053,1.053,0,0,0-.255-.39q-.105-.1-.2-.187t-.1-.112q0-.09.21-.09a1.521,1.521,0,0,1,.36.052,1.766,1.766,0,0,1,.36.127,1.306,1.306,0,0,1,.547.45,1.306,1.306,0,0,1,.158.69,2.125,2.125,0,0,1-.06.5q-.06.248-.135.465t-.1.293q-.015.045-.12.33a3.486,3.486,0,0,0-.225.653,3.616,3.616,0,0,0-.075.8,2.578,2.578,0,0,0,.143.847,2.059,2.059,0,0,0,.368.675.627.627,0,0,0,.465.263,1.4,1.4,0,0,0,.45-.105q.285-.1.57-.24a2.512,2.512,0,0,1,.795-.285,1.055,1.055,0,0,1,.563.173q.278.173.278.352a.415.415,0,0,1-.21.39,2.092,2.092,0,0,1-.66.2,9.073,9.073,0,0,0-2.58.885A2.254,2.254,0,0,0,35.34-2.445a1.7,1.7,0,0,0,.57,1.3,2.448,2.448,0,0,0,1.71.525,5.122,5.122,0,0,0,.78-.06q.39-.06.465-.075a6.628,6.628,0,0,1,.975-.12q.84,0,.84.5,0,.345-.675.525A7.389,7.389,0,0,1,38.175.33ZM4.38,11.85a.423.423,0,0,0,.375-.21l.135-.21a2.1,2.1,0,0,0,.135-.2,1.463,1.463,0,0,1,.128-.18.15.15,0,0,1,.113-.06q.1,0,.457.323a3.514,3.514,0,0,1,.518.562.279.279,0,0,1,.06.18.229.229,0,0,1-.075.165.454.454,0,0,1-.27.075H4.35a.287.287,0,0,0-.315.315v2.25a.328.328,0,0,0,.06.21.2.2,0,0,0,.165.075.476.476,0,0,0,.135-.03l1.53-.555q.315-.1.345,0v.03q0,.12-.21.225l-1.8.96a.418.418,0,0,0-.225.375v4.56a1.685,1.685,0,0,1-.21.93,1.322,1.322,0,0,1-.87.45H2.88a.3.3,0,0,1-.3-.255.772.772,0,0,0-.24-.405,1.531,1.531,0,0,0-.8-.315q-.3-.045-.3-.165,0-.1.33-.1.975.075,1.23.075a.349.349,0,0,0,.247-.067.323.323,0,0,0,.068-.233v-3.84q0-.27-.21-.27a.373.373,0,0,0-.165.045q-.585.315-1.035.525-.225.105-.225.15a.061.061,0,0,0-.015.045.193.193,0,0,1-.18.135.212.212,0,0,1-.143-.06.341.341,0,0,1-.1-.15L.81,16.62a.9.9,0,0,1-.03-.15A.256.256,0,0,1,1,16.215q.375-.1,1.305-.39l.555-.18a.351.351,0,0,0,.255-.36v-2.67a.287.287,0,0,0-.315-.315H2.4a4.143,4.143,0,0,0-.945.135.39.39,0,0,1-.12.015.3.3,0,0,1-.285-.195l-.06-.12a.373.373,0,0,1-.045-.165.165.165,0,0,1,.075-.142.334.334,0,0,1,.225-.037q.39.03,1.14.06h.42a.287.287,0,0,0,.315-.315v-.1a23.928,23.928,0,0,0-.135-2.685v-.06a.25.25,0,0,1,.06-.172.209.209,0,0,1,.165-.068.476.476,0,0,1,.135.03q1.065.33,1.065.51,0,.075-.12.15l-.045.03a.423.423,0,0,0-.21.375v2a.287.287,0,0,0,.315.315ZM7.785,9.24q-.105.06-.105.315v1.53a.328.328,0,0,0,.06.21.2.2,0,0,0,.165.075.476.476,0,0,0,.135-.03q.75-.27,1.83-.78A8.926,8.926,0,0,0,12,9.15a.336.336,0,0,1,.225-.12.4.4,0,0,1,.225.105q.855.735.855.9,0,.075-.195.075h-.135a.936.936,0,0,0-.39.075,20.268,20.268,0,0,1-2.16.878,21.591,21.591,0,0,1-2.46.7.321.321,0,0,0-.285.345v.915a.273.273,0,0,0,.15.277,2.128,2.128,0,0,0,.69.068h2.13q1.71,0,1.98-.03a.815.815,0,0,0,.232-.045.317.317,0,0,0,.128-.12,5.949,5.949,0,0,0,.375-1.185q.06-.285.15-.285.045,0,.075.082a.708.708,0,0,1,.03.233l.03.915a.413.413,0,0,0,.255.375.308.308,0,0,1,.195.3.408.408,0,0,1-.255.382,3,3,0,0,1-.983.18q-.728.052-2.257.052H8.43A4.8,4.8,0,0,1,7.4,14.137a.713.713,0,0,1-.473-.293A1.275,1.275,0,0,1,6.8,13.2V10.83q0-1.11-.09-2.025v-.06q0-.24.21-.24a.9.9,0,0,1,.15.03Q8,8.85,8,9.03q0,.06-.105.135ZM8.1,21.075a.577.577,0,0,0-.233.037q-.082.037-.082.1a1.359,1.359,0,0,0,.015.24v.225a.356.356,0,0,1-.105.285,1.175,1.175,0,0,1-.307.158,1.121,1.121,0,0,1-.383.067.215.215,0,0,1-.165-.09.318.318,0,0,1-.075-.21q.09-1.17.12-2.34V18.21a23.728,23.728,0,0,0-.135-2.64v-.06a.242.242,0,0,1,.053-.165.163.163,0,0,1,.127-.06.373.373,0,0,1,.165.045l.585.255a1,1,0,0,0,.39.09h3.78a.458.458,0,0,0,.39-.18l.09-.105q.045-.045.15-.172a.28.28,0,0,1,.195-.127,1.142,1.142,0,0,1,.443.247,4.776,4.776,0,0,1,.548.458.258.258,0,0,1,.06.165.246.246,0,0,1-.135.195.379.379,0,0,1-.09.045.582.582,0,0,0-.075.03.344.344,0,0,0-.27.345V18.15q.03,1.635.105,3.3v.075a.322.322,0,0,1-.15.3,1.932,1.932,0,0,1-.367.18,1.069,1.069,0,0,1-.368.075.174.174,0,0,1-.15-.1.373.373,0,0,1-.045-.165,1.264,1.264,0,0,1,.03-.21l.03-.18v-.03a.287.287,0,0,0-.315-.315Zm3.825-2.955a.287.287,0,0,0,.315-.315v-1.38a.287.287,0,0,0-.315-.315H8.1a.287.287,0,0,0-.315.315v1.38a.287.287,0,0,0,.315.315ZM8.1,18.57a.287.287,0,0,0-.315.315V20.31a.287.287,0,0,0,.315.315h3.825a.287.287,0,0,0,.315-.315V18.885a.287.287,0,0,0-.315-.315Zm17.43,2.31q2.355,0,3.345-.015h.075q.24,0,.24.09,0,.045-.1.112l-.142.1a.768.768,0,0,0-.285.4q-.09.285-.33.285H25.47a12.708,12.708,0,0,1-2.812-.262,4.571,4.571,0,0,1-1.95-.953,5.425,5.425,0,0,1-1.388-1.95q-.09-.2-.195-.2t-.195.18A7.755,7.755,0,0,1,16.185,22q-.24.18-.315.075a.061.061,0,0,1-.015-.045q0-.06.165-.255a8.3,8.3,0,0,0,2.19-3.54,9.394,9.394,0,0,0,.337-1.365,9.272,9.272,0,0,0,.142-1.35.263.263,0,0,1,.1-.233.373.373,0,0,1,.278-.038q1.155.255,1.155.435,0,.045-.135.12l-.06.03a.459.459,0,0,0-.255.345q-.165.735-.405,1.47a.4.4,0,0,0-.045.18.982.982,0,0,0,.06.24,4.994,4.994,0,0,0,.96,1.41,4.033,4.033,0,0,0,1.305.87.476.476,0,0,0,.135.03.2.2,0,0,0,.165-.075.328.328,0,0,0,.06-.21V13.98a.287.287,0,0,0-.315-.315H20.025a16.158,16.158,0,0,0-1.98.165h-.09a.308.308,0,0,1-.3-.195l-.06-.12a.4.4,0,0,1-.045-.18.165.165,0,0,1,.075-.142.3.3,0,0,1,.21-.038q.51.045,1.545.075h5.925a.5.5,0,0,0,.39-.195l.165-.21.135-.18a1.25,1.25,0,0,1,.157-.18.2.2,0,0,1,.128-.06.372.372,0,0,1,.15.06.4.4,0,0,0,.195.06.227.227,0,0,0,.225-.18,10.479,10.479,0,0,0,.405-.99.476.476,0,0,0,.03-.135.2.2,0,0,0-.075-.165.328.328,0,0,0-.21-.06H18.315a.3.3,0,0,0-.33.315,2.854,2.854,0,0,1-.292,1.058,1.865,1.865,0,0,1-.548.667,1.015,1.015,0,0,1-.615.225.529.529,0,0,1-.353-.12.408.408,0,0,1-.142-.33.633.633,0,0,1,.1-.345.967.967,0,0,1,.285-.285,2.091,2.091,0,0,0,.8-.84,2.673,2.673,0,0,0,.345-1.275q0-.33.12-.33.135,0,.2.27l.06.255a.307.307,0,0,0,.33.3h3.42a.278.278,0,0,0,.315-.315q-.03-.9-.09-1.56v-.03q0-.27.225-.27l.135.03q1.08.315,1.08.51,0,.075-.12.15l-.045.03a.423.423,0,0,0-.21.375v.765a.287.287,0,0,0,.315.315H27.12a.484.484,0,0,0,.39-.18l.135-.18q.045-.06.128-.165a1.2,1.2,0,0,1,.142-.158.183.183,0,0,1,.12-.053q.1,0,.443.345a4.438,4.438,0,0,1,.517.615.243.243,0,0,1,.045.15.2.2,0,0,1-.165.21l-.1.015a.516.516,0,0,0-.375.195A8.664,8.664,0,0,1,27.18,12.57a.3.3,0,0,0-.12.225.315.315,0,0,0,.1.225,1.342,1.342,0,0,1,.24.24.229.229,0,0,1,.075.165.215.215,0,0,1-.09.165.527.527,0,0,1-.285.075H23.28a.287.287,0,0,0-.315.315v2.28a.287.287,0,0,0,.315.315h2.04a.431.431,0,0,0,.375-.2l.165-.24q.045-.06.135-.188a1.535,1.535,0,0,1,.157-.195.189.189,0,0,1,.128-.067,1.355,1.355,0,0,1,.525.33,4.252,4.252,0,0,1,.6.57.33.33,0,0,1,.075.18.215.215,0,0,1-.09.165.556.556,0,0,1-.3.075H23.28a.287.287,0,0,0-.315.315v3.09q0,.315.225.33A15.986,15.986,0,0,0,25.53,20.88Zm8.955-.165a.287.287,0,0,0-.315.315q.015.15.015.33l.015.165a.34.34,0,0,1-.075.225.863.863,0,0,1-.315.218,1.106,1.106,0,0,1-.435.082.3.3,0,0,1-.217-.1.287.287,0,0,1-.1-.2q.06-.885.1-1.718t.06-2.182V12.39a23.067,23.067,0,0,0-.135-2.625V9.7a.273.273,0,0,1,.053-.173.157.157,0,0,1,.127-.068.373.373,0,0,1,.165.045l.645.315a.8.8,0,0,0,.39.09H40.5a.431.431,0,0,0,.375-.2l.1-.135q.03-.045.1-.142A.756.756,0,0,1,41.22,9.3a.2.2,0,0,1,.12-.045,1.237,1.237,0,0,1,.465.27,3.155,3.155,0,0,1,.555.51.258.258,0,0,1,.06.165.246.246,0,0,1-.135.195,1.164,1.164,0,0,1-.15.06.369.369,0,0,0-.27.36v7.17q.03,1.635.105,3.3v.075a.322.322,0,0,1-.15.3,1.513,1.513,0,0,1-.382.225,1.08,1.08,0,0,1-.412.09.165.165,0,0,1-.165-.12.245.245,0,0,1-.03-.135,1.968,1.968,0,0,1,.03-.225q0-.03.03-.36v-.1a.287.287,0,0,0-.315-.315ZM40.575,15a.287.287,0,0,0,.315-.315v-4.02a.287.287,0,0,0-.315-.315h-6.09a.287.287,0,0,0-.315.315v4.02a.287.287,0,0,0,.315.315Zm-6.09.435a.287.287,0,0,0-.315.315v4.215a.287.287,0,0,0,.315.315h6.09a.287.287,0,0,0,.315-.315V15.75a.287.287,0,0,0-.315-.315Z" transform="translate(-8812.78 2510.57)" fill="#fff"/>
    <path id="パス_1760" data-name="パス 1760" d="M-2.4-2.925a.376.376,0,0,1-.3-.142,1.819,1.819,0,0,1-.255-.5A9.822,9.822,0,0,0-4.132-5.708a9.6,9.6,0,0,0-2-2.033q-.135-.1-.135-.18T-6.18-8a.373.373,0,0,1,.165.045A9.606,9.606,0,0,1-4.192-6.863,11.346,11.346,0,0,1-2.415-5.288,2.3,2.3,0,0,1-1.68-3.93,1.119,1.119,0,0,1-1.9-3.2.639.639,0,0,1-2.4-2.925Zm-12.345.885q-.105,0-.105-.06,0-.12.225-.255a14.67,14.67,0,0,0,2.34-1.71,12.4,12.4,0,0,0,1.657-1.762A2.493,2.493,0,0,0-10.02-7.05q0-.24-.33-.4l-.15-.06a.587.587,0,0,1-.135-.075.121.121,0,0,1-.06-.09q0-.105.21-.135a3.815,3.815,0,0,1,.525-.03,1.679,1.679,0,0,1,1.05.3,1,1,0,0,1,.48.78.617.617,0,0,1-.135.375,13.726,13.726,0,0,1-2.6,2.347A18.058,18.058,0,0,1-14.535-2.1.688.688,0,0,1-14.745-2.04Zm24.51-9.315a1.449,1.449,0,0,1,.443.352.681.681,0,0,1,.2.427.2.2,0,0,1-.037.143.735.735,0,0,1-.142.1,1.2,1.2,0,0,1-.12.082.763.763,0,0,0-.2.188,22.92,22.92,0,0,1-1.62,2.1.4.4,0,0,0-.1.21q0,.12.165.2l.135.067a1.56,1.56,0,0,1,.165.1.43.43,0,0,1,.225.39,1.677,1.677,0,0,1-.075.4,4.565,4.565,0,0,0-.1.69L8.685-3.93q0,2.22.075,2.865a5.255,5.255,0,0,1,.045.645q0,.75-.45.75A.6.6,0,0,1,7.838.09,1.172,1.172,0,0,1,7.665-.6q0-.78.045-1.545.03-.96.03-1.425L7.725-6.03a2.891,2.891,0,0,0-.075-.72.2.2,0,0,0-.21-.18.315.315,0,0,0-.225.105,17.61,17.61,0,0,1-4.56,3.27.7.7,0,0,1-.285.09q-.12,0-.12-.06,0-.1.3-.3A27.667,27.667,0,0,0,5.91-6.668a18.068,18.068,0,0,0,2.2-2.58,3.755,3.755,0,0,0,.757-1.568.667.667,0,0,0-.15-.465,1.637,1.637,0,0,0-.135-.12q-.075-.06-.075-.09,0-.12.225-.12A2.231,2.231,0,0,1,9.765-11.355Zm-33.2,24.27a.761.761,0,0,1-.315-.075.582.582,0,0,1-.24-.18,5.78,5.78,0,0,0-.667-.7,5.174,5.174,0,0,0-.682-.472,3.48,3.48,0,0,0-.413-.2,2.324,2.324,0,0,1-.278-.127.361.361,0,0,1-.09-.038.111.111,0,0,1-.075-.1q0-.135.51-.135a4.931,4.931,0,0,1,1.238.165,2.918,2.918,0,0,1,1.065.495.966.966,0,0,1,.427.78.675.675,0,0,1-.127.412A.414.414,0,0,1-23.43,12.915Zm-2.34,7.86a.454.454,0,0,1-.345-.21,4.039,4.039,0,0,1-.562-1.05,3.141,3.141,0,0,1-.263-.975q0-.255.15-.255.06,0,.165.135l.21.27a1.059,1.059,0,0,0,.825.33,1.883,1.883,0,0,0,.825-.195,21.568,21.568,0,0,0,4.222-2.633,20.667,20.667,0,0,0,3.728-3.682q.135-.195.255-.195a.08.08,0,0,1,.09.09.557.557,0,0,1-.105.285,19.675,19.675,0,0,1-2.58,3.1,27.312,27.312,0,0,1-2.993,2.573,23.285,23.285,0,0,1-2.663,1.725,2.652,2.652,0,0,0-.48.375,2.335,2.335,0,0,1-.27.24A.36.36,0,0,1-25.77,20.775Zm.765-4.77a.594.594,0,0,1-.277-.075.956.956,0,0,1-.233-.165,4.943,4.943,0,0,0-.585-.54q-.225-.165-.57-.375a3.8,3.8,0,0,0-.637-.307q-.277-.1-.353-.127-.12-.045-.12-.105,0-.09.323-.127a5.392,5.392,0,0,1,.623-.038,3.331,3.331,0,0,1,1.59.367,1.111,1.111,0,0,1,.69,1,.537.537,0,0,1-.12.345A.4.4,0,0,1-25.005,16.005Zm12.81.39a1.1,1.1,0,0,1-.615-.15,1.77,1.77,0,0,1-.488-.4.838.838,0,0,1-.217-.555.866.866,0,0,1,.067-.33q.068-.165.142-.165a.369.369,0,0,1,.135.075,1.112,1.112,0,0,0,.315.18,4.357,4.357,0,0,0,1.35.195q.645-.015,1.965-.052t2.25-.068q1.995-.075,3.315-.15.765-.045,1.2-.045a3.142,3.142,0,0,1,.915.105.442.442,0,0,1,.33.465q0,.36-.615.42-.3.03-.825.03l-4.35.1q-1.155.03-2.513.1a14.041,14.041,0,0,0-1.762.165A3.226,3.226,0,0,1-12.195,16.4Zm24.24-7.5a3.845,3.845,0,0,1,.9.135,2.8,2.8,0,0,1,.96.435.906.906,0,0,1,.42.765.426.426,0,0,1-.143.345.469.469,0,0,1-.307.12.63.63,0,0,1-.555-.345,3.922,3.922,0,0,0-.465-.622,2.446,2.446,0,0,0-.6-.428,1.178,1.178,0,0,0-.225-.112,1.013,1.013,0,0,1-.18-.083q-.075-.045-.075-.09Q11.775,8.9,12.045,8.895ZM10.665,9.93a3.539,3.539,0,0,1,.758.158,3.3,3.3,0,0,1,1.035.495,1.033,1.033,0,0,1,.472.877.468.468,0,0,1-.495.525.661.661,0,0,1-.322-.1.618.618,0,0,1-.263-.307,3.71,3.71,0,0,0-.42-.75,2.008,2.008,0,0,0-.615-.525l-.165-.082a.6.6,0,0,1-.15-.1.13.13,0,0,1-.045-.09Q10.455,9.93,10.665,9.93Zm-2.25,5.55a.311.311,0,0,0-.09.195.27.27,0,0,0,.18.24,12.727,12.727,0,0,1,2.58,1.53,2.4,2.4,0,0,1,1.17,1.725.756.756,0,0,1-.165.48.474.474,0,0,1-.375.21.69.69,0,0,1-.435-.187,1.714,1.714,0,0,1-.405-.533A9.148,9.148,0,0,0,9.69,17.385a7.183,7.183,0,0,0-1.44-1.29.279.279,0,0,0-.18-.06.343.343,0,0,0-.255.135,19.729,19.729,0,0,1-2.82,2.618,14.636,14.636,0,0,1-3.285,1.9.346.346,0,0,1-.12.03q-.09,0-.09-.075,0-.06.15-.15a14.261,14.261,0,0,0,3.233-2.4,23.317,23.317,0,0,0,2.7-3.075A11.934,11.934,0,0,0,9.045,12.57l.03-.12q0-.09-.15-.09a10.624,10.624,0,0,0-1.71.375,14.667,14.667,0,0,0-1.875.585q-.06.03-.195.105a.578.578,0,0,1-.285.075,1.092,1.092,0,0,1-.69-.247,1.871,1.871,0,0,1-.5-.578,1.2,1.2,0,0,1-.18-.525q0-.2.105-.2a.492.492,0,0,1,.187.1,1.29,1.29,0,0,0,.323.158,1.576,1.576,0,0,0,.555.09q.315,0,1.98-.262a21.507,21.507,0,0,0,2.115-.4,2.011,2.011,0,0,0,.465-.195A1.408,1.408,0,0,1,9.6,11.31a1.038,1.038,0,0,1,.458.188,2.575,2.575,0,0,1,.54.435.69.69,0,0,1,.233.428.249.249,0,0,1-.09.188q-.09.083-.3.247a1.268,1.268,0,0,0-.39.345A23.709,23.709,0,0,1,8.415,15.48ZM20.88,13.245q-.42,0-.81-.6a2.879,2.879,0,0,0-.9-.87,4.657,4.657,0,0,0-1.185-.525,1.556,1.556,0,0,1-.195-.06q-.075-.03-.075-.075,0-.135.69-.135a5.835,5.835,0,0,1,1.313.158,2.914,2.914,0,0,1,1.132.5,1.269,1.269,0,0,1,.57.99.672.672,0,0,1-.142.443A.487.487,0,0,1,20.88,13.245Zm-2.865,5.67a1.915,1.915,0,0,1-.06-.465.853.853,0,0,1,.052-.323Q18.06,18,18.1,18t.135.165a1.386,1.386,0,0,0,.24.315,1.75,1.75,0,0,0,.278.233.678.678,0,0,0,.368.083,4.959,4.959,0,0,0,1.965-.87,28.9,28.9,0,0,0,3.323-2.452,42.294,42.294,0,0,0,3.8-3.623q.135-.165.24-.165a.053.053,0,0,1,.06.06.741.741,0,0,1-.15.315,26.473,26.473,0,0,1-2.43,2.9q-1.41,1.47-2.722,2.618T21.135,19.26a2.09,2.09,0,0,1-.3.195q-.135.09-.27.195a2.524,2.524,0,0,0-.3.285.938.938,0,0,1-.72.36,1.413,1.413,0,0,1-.952-.413A1.794,1.794,0,0,1,18.015,18.915Z" transform="translate(-8707.22 2510.61)" fill="#fff"/>
    <path id="パス_1754" data-name="パス 1754" d="M6.405-.27A.317.317,0,0,1,6.06,0H1.14Q.87,0,.81-.165a.4.4,0,0,1-.045-.18A.5.5,0,0,1,.81-.54a10.48,10.48,0,0,1,1.065-2q.63-.923,1.65-2.138a16.129,16.129,0,0,0,1.59-2.108,3.294,3.294,0,0,0,.495-1.7,2.349,2.349,0,0,0-.45-1.425,1.63,1.63,0,0,0-1.41-.615,2.015,2.015,0,0,0-1.2.352,1.035,1.035,0,0,0-.495.863.914.914,0,0,0,.053.33,1.37,1.37,0,0,0,.173.3,1.929,1.929,0,0,1,.158.292.807.807,0,0,1,.053.307.781.781,0,0,1-.218.578.761.761,0,0,1-.562.217.713.713,0,0,1-.548-.293,1.2,1.2,0,0,1-.247-.8,2.439,2.439,0,0,1,.337-1.17A2.859,2.859,0,0,1,2.273-10.6a3.091,3.091,0,0,1,1.673-.427,3.157,3.157,0,0,1,1.74.427,2.414,2.414,0,0,1,.938,1.065A3.292,3.292,0,0,1,6.9-8.205a2.694,2.694,0,0,1-.21,1.1,3.268,3.268,0,0,1-.57.87q-.36.4-1.08,1.057-.165.165-.42.39t-.585.555a11.715,11.715,0,0,0-2.07,2.76.373.373,0,0,0-.045.165q0,.21.285.21H3.57A7.7,7.7,0,0,0,5.2-1.222a1.471,1.471,0,0,0,.818-.458A3.68,3.68,0,0,0,6.57-2.745q.03-.09.105-.09a1.242,1.242,0,0,1,.135.03.588.588,0,0,1,.135.06.1.1,0,0,1,.045.09l-.015.075ZM8.97,1.605A.088.088,0,0,1,8.9,1.56a.146.146,0,0,1-.03-.075.086.086,0,0,1,.03-.06,2.074,2.074,0,0,0,.412-.48A.854.854,0,0,0,9.45.525.362.362,0,0,0,9.255.18a1.179,1.179,0,0,1-.4-.285A.642.642,0,0,1,8.715-.54a.814.814,0,0,1,.24-.6.8.8,0,0,1,.585-.24.784.784,0,0,1,.585.248.858.858,0,0,1,.24.623A2.036,2.036,0,0,1,9.953.735a3.076,3.076,0,0,1-.937.855Zm6.96-8.4a2.543,2.543,0,0,1,1.5.442,2.836,2.836,0,0,1,.96,1.163,3.664,3.664,0,0,1,.33,1.545,4.632,4.632,0,0,1-.4,1.92A3.431,3.431,0,0,1,17.2-.315,2.785,2.785,0,0,1,15.525.21,2.9,2.9,0,0,1,13.77-.36a3.715,3.715,0,0,1-1.215-1.6A6.015,6.015,0,0,1,12.12-4.32a10.009,10.009,0,0,1,.6-3.668,5.552,5.552,0,0,1,1.507-2.28,2.8,2.8,0,0,1,1.778-.757,3.183,3.183,0,0,1,1.192.2,1.761,1.761,0,0,1,.757.532,1.114,1.114,0,0,1,.255.69.724.724,0,0,1-.217.532.707.707,0,0,1-.517.218.717.717,0,0,1-.555-.278,1.2,1.2,0,0,1-.27-.727.855.855,0,0,0-.18-.51.642.642,0,0,0-.5-.165q-.99,0-1.59,1.26a10.269,10.269,0,0,0-.84,3.045.227.227,0,0,0,.045.188.228.228,0,0,0,.18.068.65.65,0,0,0,.39-.165A2.7,2.7,0,0,1,15.93-6.8ZM15.525-.36a1.387,1.387,0,0,0,.983-.405,2.69,2.69,0,0,0,.667-1.11,4.867,4.867,0,0,0,.24-1.575,2.772,2.772,0,0,0-.608-2.115A1.971,1.971,0,0,0,15.5-6.09a2.028,2.028,0,0,0-1.155.39,2.337,2.337,0,0,0-.855,1.23,1.32,1.32,0,0,0-.06.39A7.313,7.313,0,0,0,13.9-1.425,1.62,1.62,0,0,0,15.525-.36ZM23.28.21a2.353,2.353,0,0,1-1.567-.63,4.345,4.345,0,0,1-1.17-1.89A9.342,9.342,0,0,1,20.1-5.385a9.333,9.333,0,0,1,.45-3.09,4.458,4.458,0,0,1,1.177-1.913,2.355,2.355,0,0,1,1.583-.637,2.338,2.338,0,0,1,1.567.637,4.4,4.4,0,0,1,1.17,1.913,9.479,9.479,0,0,1,.443,3.09,9.2,9.2,0,0,1-.45,3.075A4.4,4.4,0,0,1,24.863-.42,2.37,2.37,0,0,1,23.28.21Zm.03-.51q.87,0,1.372-1.267a10.952,10.952,0,0,0,.5-3.818,11.086,11.086,0,0,0-.5-3.833Q24.18-10.5,23.31-10.5q-.885,0-1.4,1.283a10.935,10.935,0,0,0-.51,3.833,10.8,10.8,0,0,0,.51,3.818Q22.425-.3,23.31-.3Zm7.77.51a2.353,2.353,0,0,1-1.567-.63,4.345,4.345,0,0,1-1.17-1.89A9.342,9.342,0,0,1,27.9-5.385a9.333,9.333,0,0,1,.45-3.09,4.458,4.458,0,0,1,1.177-1.913,2.355,2.355,0,0,1,1.583-.637,2.338,2.338,0,0,1,1.567.637,4.4,4.4,0,0,1,1.17,1.913,9.479,9.479,0,0,1,.443,3.09,9.2,9.2,0,0,1-.45,3.075A4.4,4.4,0,0,1,32.662-.42,2.37,2.37,0,0,1,31.08.21Zm.03-.51q.87,0,1.372-1.267a10.952,10.952,0,0,0,.5-3.818,11.086,11.086,0,0,0-.5-3.833Q31.98-10.5,31.11-10.5q-.885,0-1.4,1.283a10.935,10.935,0,0,0-.51,3.833,10.8,10.8,0,0,0,.51,3.818Q30.225-.3,31.11-.3Zm7.14-5.13a.314.314,0,0,0-.233.082.314.314,0,0,0-.083.233V-2.85q.03,1.62.105,3.315V.54a.407.407,0,0,1-.12.3,1.018,1.018,0,0,1-.75.3.358.358,0,0,1-.24-.09.27.27,0,0,1-.1-.21q.06-.885.1-1.718t.06-2.183v-5.7a23.067,23.067,0,0,0-.135-2.625v-.06q0-.24.18-.24a.373.373,0,0,1,.165.045l.63.3a1,1,0,0,0,.39.09h8.535a.423.423,0,0,0,.375-.21l.075-.1q.045-.06.135-.187t.18-.128a1.325,1.325,0,0,1,.48.27,4.033,4.033,0,0,1,.585.495.258.258,0,0,1,.06.165.246.246,0,0,1-.135.2.378.378,0,0,1-.09.045.582.582,0,0,0-.075.03.344.344,0,0,0-.27.345v9.96a1.458,1.458,0,0,1-.27.945,1.77,1.77,0,0,1-1.125.45l-.09.015q-.21,0-.285-.255A.767.767,0,0,0,45.96.375,3.432,3.432,0,0,0,44.745.03q-.3-.045-.3-.165t.33-.09q1.485.12,1.92.12a.5.5,0,0,0,.338-.09.393.393,0,0,0,.1-.3v-4.62a.314.314,0,0,0-.082-.233.314.314,0,0,0-.233-.082ZM42-10.485a.314.314,0,0,0-.083-.232.314.314,0,0,0-.233-.083H38.25a.314.314,0,0,0-.233.083.314.314,0,0,0-.083.232v4.32a.314.314,0,0,0,.083.233.314.314,0,0,0,.233.082h3.435a.314.314,0,0,0,.233-.082A.314.314,0,0,0,42-6.165Zm1.275-.315a.314.314,0,0,0-.233.083.314.314,0,0,0-.083.232v4.32a.314.314,0,0,0,.083.233.314.314,0,0,0,.233.082h3.54a.314.314,0,0,0,.233-.082.314.314,0,0,0,.082-.233v-4.32a.314.314,0,0,0-.082-.232.314.314,0,0,0-.233-.083Z" transform="translate(-8815.375 2705.88)" fill="#fff"/>
    <path id="パス_1755" data-name="パス 1755" d="M1.35,0q-.105,0-.1-.21,0-.225.1-.225h.24A2.662,2.662,0,0,0,2.775-.66a.742.742,0,0,0,.45-.705V-8.55a1.488,1.488,0,0,0-.082-.607.505.505,0,0,0-.39-.21A8.147,8.147,0,0,0,1.605-9.42H1.35q-.105,0-.1-.225,0-.21.1-.21a4.924,4.924,0,0,0,1.463-.2A3.938,3.938,0,0,0,4.05-10.71a.363.363,0,0,1,.2-.09q.18,0,.18.27v9.165q0,.93,1.635.93h.225a.082.082,0,0,1,.082.052A.475.475,0,0,1,6.39-.21q0,.21-.105.21ZM8.61,1.605a.088.088,0,0,1-.075-.045.146.146,0,0,1-.03-.075.086.086,0,0,1,.03-.06,2.074,2.074,0,0,0,.413-.48A.854.854,0,0,0,9.09.525.362.362,0,0,0,8.9.18a1.179,1.179,0,0,1-.4-.285A.642.642,0,0,1,8.355-.54a.814.814,0,0,1,.24-.6.8.8,0,0,1,.585-.24.784.784,0,0,1,.585.248.858.858,0,0,1,.24.623A2.036,2.036,0,0,1,9.592.735a3.076,3.076,0,0,1-.937.855Zm9.435-4.7a.314.314,0,0,1,.233.082.314.314,0,0,1,.083.233.314.314,0,0,1-.083.233.314.314,0,0,1-.233.082H16.98a.314.314,0,0,0-.232.082.314.314,0,0,0-.083.233v1.17a.419.419,0,0,0,.285.435,2.214,2.214,0,0,0,.75.105H17.9q.135,0,.135.21Q18.03,0,17.9,0H14.3q-.12,0-.12-.225,0-.21.12-.21h.2a2.214,2.214,0,0,0,.75-.105.419.419,0,0,0,.285-.435v-1.17a.314.314,0,0,0-.082-.233.314.314,0,0,0-.233-.082H11.805a.314.314,0,0,1-.233-.082.314.314,0,0,1-.082-.233V-2.88a.711.711,0,0,1,.1-.39l4.335-7.515a.349.349,0,0,1,.405-.18l.06.015a.317.317,0,0,1,.27.345v7.2a.314.314,0,0,0,.083.233.314.314,0,0,0,.232.082Zm-2.52-5a.368.368,0,0,0-.045-.2.138.138,0,0,0-.12-.068q-.12,0-.21.165L12.42-3.465a.373.373,0,0,0-.045.165q0,.21.27.21H15.21a.314.314,0,0,0,.233-.082.314.314,0,0,0,.082-.233Zm6.96,8.3a2.353,2.353,0,0,1-1.568-.63,4.345,4.345,0,0,1-1.17-1.89,9.342,9.342,0,0,1-.443-3.075,9.333,9.333,0,0,1,.45-3.09,4.458,4.458,0,0,1,1.177-1.913,2.355,2.355,0,0,1,1.583-.637,2.338,2.338,0,0,1,1.567.637,4.4,4.4,0,0,1,1.17,1.913,9.479,9.479,0,0,1,.442,3.09,9.2,9.2,0,0,1-.45,3.075A4.4,4.4,0,0,1,24.068-.42,2.37,2.37,0,0,1,22.485.21Zm.03-.51q.87,0,1.372-1.267a10.952,10.952,0,0,0,.5-3.818,11.086,11.086,0,0,0-.5-3.833q-.5-1.283-1.372-1.283-.885,0-1.4,1.283a10.935,10.935,0,0,0-.51,3.833,10.8,10.8,0,0,0,.51,3.818Q21.63-.3,22.515-.3Zm7.77.51a2.353,2.353,0,0,1-1.568-.63,4.345,4.345,0,0,1-1.17-1.89A9.342,9.342,0,0,1,27.1-5.385a9.333,9.333,0,0,1,.45-3.09,4.458,4.458,0,0,1,1.177-1.913,2.355,2.355,0,0,1,1.583-.637,2.338,2.338,0,0,1,1.567.637,4.4,4.4,0,0,1,1.17,1.913,9.479,9.479,0,0,1,.443,3.09,9.2,9.2,0,0,1-.45,3.075A4.4,4.4,0,0,1,31.868-.42,2.37,2.37,0,0,1,30.285.21Zm.03-.51q.87,0,1.372-1.267a10.952,10.952,0,0,0,.5-3.818,11.086,11.086,0,0,0-.5-3.833q-.5-1.283-1.372-1.283-.885,0-1.4,1.283a10.935,10.935,0,0,0-.51,3.833,10.8,10.8,0,0,0,.51,3.818Q29.43-.3,30.315-.3Zm7.14-5.13a.314.314,0,0,0-.233.082.314.314,0,0,0-.083.233V-2.85q.03,1.62.105,3.315V.54a.407.407,0,0,1-.12.3,1.018,1.018,0,0,1-.75.3.358.358,0,0,1-.24-.09.27.27,0,0,1-.1-.21q.06-.885.1-1.718t.06-2.183v-5.7a23.067,23.067,0,0,0-.135-2.625v-.06q0-.24.18-.24a.373.373,0,0,1,.165.045l.63.3a1,1,0,0,0,.39.09H45.96a.423.423,0,0,0,.375-.21l.075-.1q.045-.06.135-.187t.18-.128a1.325,1.325,0,0,1,.48.27,4.033,4.033,0,0,1,.585.495.258.258,0,0,1,.06.165.246.246,0,0,1-.135.2.378.378,0,0,1-.09.045.582.582,0,0,0-.075.03.344.344,0,0,0-.27.345v9.96a1.458,1.458,0,0,1-.27.945,1.77,1.77,0,0,1-1.125.45l-.09.015q-.21,0-.285-.255a.767.767,0,0,0-.345-.405A3.432,3.432,0,0,0,43.95.03q-.3-.045-.3-.165t.33-.09q1.485.12,1.92.12a.5.5,0,0,0,.338-.09.393.393,0,0,0,.1-.3v-4.62a.314.314,0,0,0-.082-.233.314.314,0,0,0-.233-.082Zm3.75-5.055a.314.314,0,0,0-.083-.232.314.314,0,0,0-.233-.083H37.455a.314.314,0,0,0-.233.083.314.314,0,0,0-.083.232v4.32a.314.314,0,0,0,.083.233.314.314,0,0,0,.233.082H40.89a.314.314,0,0,0,.233-.082.314.314,0,0,0,.083-.233ZM42.48-10.8a.314.314,0,0,0-.233.083.314.314,0,0,0-.083.232v4.32a.314.314,0,0,0,.083.233.314.314,0,0,0,.233.082h3.54a.314.314,0,0,0,.233-.082.314.314,0,0,0,.082-.233v-4.32a.314.314,0,0,0-.082-.232.314.314,0,0,0-.233-.083Z" transform="translate(-8815.375 2767.88)" fill="#fff"/>
    <path id="パス_1756" data-name="パス 1756" d="M1.35,0q-.105,0-.1-.21,0-.225.1-.225h.24A2.662,2.662,0,0,0,2.775-.66a.742.742,0,0,0,.45-.705V-8.55a1.488,1.488,0,0,0-.082-.607.505.505,0,0,0-.39-.21A8.147,8.147,0,0,0,1.605-9.42H1.35q-.105,0-.1-.225,0-.21.1-.21a4.924,4.924,0,0,0,1.463-.2A3.938,3.938,0,0,0,4.05-10.71a.363.363,0,0,1,.2-.09q.18,0,.18.27v9.165q0,.93,1.635.93h.225a.082.082,0,0,1,.082.052A.475.475,0,0,1,6.39-.21q0,.21-.105.21ZM8.61,1.605a.088.088,0,0,1-.075-.045.146.146,0,0,1-.03-.075.086.086,0,0,1,.03-.06,2.074,2.074,0,0,0,.413-.48A.854.854,0,0,0,9.09.525.362.362,0,0,0,8.9.18a1.179,1.179,0,0,1-.4-.285A.642.642,0,0,1,8.355-.54a.814.814,0,0,1,.24-.6.8.8,0,0,1,.585-.24.784.784,0,0,1,.585.248.858.858,0,0,1,.24.623A2.036,2.036,0,0,1,9.592.735a3.076,3.076,0,0,1-.937.855Zm9.435-4.7a.314.314,0,0,1,.233.082.314.314,0,0,1,.083.233.314.314,0,0,1-.083.233.314.314,0,0,1-.233.082H16.98a.314.314,0,0,0-.232.082.314.314,0,0,0-.083.233v1.17a.419.419,0,0,0,.285.435,2.214,2.214,0,0,0,.75.105H17.9q.135,0,.135.21Q18.03,0,17.9,0H14.3q-.12,0-.12-.225,0-.21.12-.21h.2a2.214,2.214,0,0,0,.75-.105.419.419,0,0,0,.285-.435v-1.17a.314.314,0,0,0-.082-.233.314.314,0,0,0-.233-.082H11.805a.314.314,0,0,1-.233-.082.314.314,0,0,1-.082-.233V-2.88a.711.711,0,0,1,.1-.39l4.335-7.515a.349.349,0,0,1,.405-.18l.06.015a.317.317,0,0,1,.27.345v7.2a.314.314,0,0,0,.083.233.314.314,0,0,0,.232.082Zm-2.52-5a.368.368,0,0,0-.045-.2.138.138,0,0,0-.12-.068q-.12,0-.21.165L12.42-3.465a.373.373,0,0,0-.045.165q0,.21.27.21H15.21a.314.314,0,0,0,.233-.082.314.314,0,0,0,.082-.233Zm6.96,8.3a2.353,2.353,0,0,1-1.568-.63,4.345,4.345,0,0,1-1.17-1.89,9.342,9.342,0,0,1-.443-3.075,9.333,9.333,0,0,1,.45-3.09,4.458,4.458,0,0,1,1.177-1.913,2.355,2.355,0,0,1,1.583-.637,2.338,2.338,0,0,1,1.567.637,4.4,4.4,0,0,1,1.17,1.913,9.479,9.479,0,0,1,.442,3.09,9.2,9.2,0,0,1-.45,3.075A4.4,4.4,0,0,1,24.068-.42,2.37,2.37,0,0,1,22.485.21Zm.03-.51q.87,0,1.372-1.267a10.952,10.952,0,0,0,.5-3.818,11.086,11.086,0,0,0-.5-3.833q-.5-1.283-1.372-1.283-.885,0-1.4,1.283a10.935,10.935,0,0,0-.51,3.833,10.8,10.8,0,0,0,.51,3.818Q21.63-.3,22.515-.3Zm7.77.51a2.353,2.353,0,0,1-1.568-.63,4.345,4.345,0,0,1-1.17-1.89A9.342,9.342,0,0,1,27.1-5.385a9.333,9.333,0,0,1,.45-3.09,4.458,4.458,0,0,1,1.177-1.913,2.355,2.355,0,0,1,1.583-.637,2.338,2.338,0,0,1,1.567.637,4.4,4.4,0,0,1,1.17,1.913,9.479,9.479,0,0,1,.443,3.09,9.2,9.2,0,0,1-.45,3.075A4.4,4.4,0,0,1,31.868-.42,2.37,2.37,0,0,1,30.285.21Zm.03-.51q.87,0,1.372-1.267a10.952,10.952,0,0,0,.5-3.818,11.086,11.086,0,0,0-.5-3.833q-.5-1.283-1.372-1.283-.885,0-1.4,1.283a10.935,10.935,0,0,0-.51,3.833,10.8,10.8,0,0,0,.51,3.818Q29.43-.3,30.315-.3Zm7.14-5.13a.314.314,0,0,0-.233.082.314.314,0,0,0-.083.233V-2.85q.03,1.62.105,3.315V.54a.407.407,0,0,1-.12.3,1.018,1.018,0,0,1-.75.3.358.358,0,0,1-.24-.09.27.27,0,0,1-.1-.21q.06-.885.1-1.718t.06-2.183v-5.7a23.067,23.067,0,0,0-.135-2.625v-.06q0-.24.18-.24a.373.373,0,0,1,.165.045l.63.3a1,1,0,0,0,.39.09H45.96a.423.423,0,0,0,.375-.21l.075-.1q.045-.06.135-.187t.18-.128a1.325,1.325,0,0,1,.48.27,4.033,4.033,0,0,1,.585.495.258.258,0,0,1,.06.165.246.246,0,0,1-.135.2.378.378,0,0,1-.09.045.582.582,0,0,0-.075.03.344.344,0,0,0-.27.345v9.96a1.458,1.458,0,0,1-.27.945,1.77,1.77,0,0,1-1.125.45l-.09.015q-.21,0-.285-.255a.767.767,0,0,0-.345-.405A3.432,3.432,0,0,0,43.95.03q-.3-.045-.3-.165t.33-.09q1.485.12,1.92.12a.5.5,0,0,0,.338-.09.393.393,0,0,0,.1-.3v-4.62a.314.314,0,0,0-.082-.233.314.314,0,0,0-.233-.082Zm3.75-5.055a.314.314,0,0,0-.083-.232.314.314,0,0,0-.233-.083H37.455a.314.314,0,0,0-.233.083.314.314,0,0,0-.083.232v4.32a.314.314,0,0,0,.083.233.314.314,0,0,0,.233.082H40.89a.314.314,0,0,0,.233-.082.314.314,0,0,0,.083-.233ZM42.48-10.8a.314.314,0,0,0-.233.083.314.314,0,0,0-.083.232v4.32a.314.314,0,0,0,.083.233.314.314,0,0,0,.233.082h3.54a.314.314,0,0,0,.233-.082.314.314,0,0,0,.082-.233v-4.32a.314.314,0,0,0-.082-.232.314.314,0,0,0-.233-.083Z" transform="translate(-8815.375 2829.88)" fill="#fff"/>
    <path id="パス_1747" data-name="パス 1747" d="M5.1-6.18q-.165.12-.165.225t.165.2a12.132,12.132,0,0,1,1.148.75,3.021,3.021,0,0,1,.773.87,2.375,2.375,0,0,1,.315,1.245,2.842,2.842,0,0,1-.473,1.62A3.261,3.261,0,0,1,5.64-.18,3.339,3.339,0,0,1,4.08.21,3.808,3.808,0,0,1,2.453-.15,3.112,3.112,0,0,1,1.215-1.155,2.45,2.45,0,0,1,.75-2.625a2.171,2.171,0,0,1,.51-1.493A5.9,5.9,0,0,1,2.775-5.265q.165-.09.165-.21a.233.233,0,0,0-.165-.21A3.919,3.919,0,0,1,1.53-6.743a2.592,2.592,0,0,1-.45-1.582,2.808,2.808,0,0,1,.315-1.283,2.535,2.535,0,0,1,.96-1.02,2.917,2.917,0,0,1,1.56-.4,3.3,3.3,0,0,1,1.38.292,2.51,2.51,0,0,1,1.043.863,2.275,2.275,0,0,1,.4,1.335A2.736,2.736,0,0,1,5.1-6.18ZM2.025-8.745a1.7,1.7,0,0,0,.263.945,2.868,2.868,0,0,0,.69.728A13.91,13.91,0,0,0,4.155-6.3a.42.42,0,0,0,.21.06.34.34,0,0,0,.225-.09A2.742,2.742,0,0,0,5.61-8.505a2.523,2.523,0,0,0-.18-.915,1.845,1.845,0,0,0-.585-.788A1.634,1.634,0,0,0,3.8-10.53a1.612,1.612,0,0,0-.983.293,1.854,1.854,0,0,0-.593.7A1.843,1.843,0,0,0,2.025-8.745ZM3.93-.3A2.119,2.119,0,0,0,5.6-.968,2.469,2.469,0,0,0,6.2-2.67a1.7,1.7,0,0,0-.653-1.335A10.678,10.678,0,0,0,3.72-5.19a.3.3,0,0,0-.2-.06.449.449,0,0,0-.24.09A4.031,4.031,0,0,0,2.3-4.005,2.728,2.728,0,0,0,1.92-2.64a2.724,2.724,0,0,0,.24,1.133,2.193,2.193,0,0,0,.69.87A1.749,1.749,0,0,0,3.93-.3ZM9.39,1.605a.088.088,0,0,1-.075-.045.146.146,0,0,1-.03-.075.086.086,0,0,1,.03-.06,2.074,2.074,0,0,0,.412-.48A.854.854,0,0,0,9.87.525.362.362,0,0,0,9.675.18a1.179,1.179,0,0,1-.4-.285A.642.642,0,0,1,9.135-.54a.814.814,0,0,1,.24-.6.8.8,0,0,1,.585-.24.784.784,0,0,1,.585.248.858.858,0,0,1,.24.623A2.036,2.036,0,0,1,10.373.735a3.076,3.076,0,0,1-.937.855ZM15.72.21a2.353,2.353,0,0,1-1.568-.63,4.345,4.345,0,0,1-1.17-1.89,9.342,9.342,0,0,1-.443-3.075,9.333,9.333,0,0,1,.45-3.09,4.458,4.458,0,0,1,1.178-1.913,2.355,2.355,0,0,1,1.582-.637,2.338,2.338,0,0,1,1.568.637,4.4,4.4,0,0,1,1.17,1.913,9.479,9.479,0,0,1,.443,3.09,9.2,9.2,0,0,1-.45,3.075A4.4,4.4,0,0,1,17.3-.42,2.37,2.37,0,0,1,15.72.21Zm.03-.51q.87,0,1.373-1.267a10.952,10.952,0,0,0,.5-3.818,11.086,11.086,0,0,0-.5-3.833Q16.62-10.5,15.75-10.5q-.885,0-1.395,1.283a10.935,10.935,0,0,0-.51,3.833,10.8,10.8,0,0,0,.51,3.818Q14.865-.3,15.75-.3Zm7.77.51a2.353,2.353,0,0,1-1.568-.63,4.345,4.345,0,0,1-1.17-1.89,9.342,9.342,0,0,1-.443-3.075,9.333,9.333,0,0,1,.45-3.09,4.458,4.458,0,0,1,1.177-1.913,2.355,2.355,0,0,1,1.583-.637,2.338,2.338,0,0,1,1.567.637,4.4,4.4,0,0,1,1.17,1.913,9.479,9.479,0,0,1,.442,3.09,9.2,9.2,0,0,1-.45,3.075A4.4,4.4,0,0,1,25.1-.42,2.37,2.37,0,0,1,23.52.21Zm.03-.51q.87,0,1.372-1.267a10.952,10.952,0,0,0,.5-3.818,11.086,11.086,0,0,0-.5-3.833Q24.42-10.5,23.55-10.5q-.885,0-1.4,1.283a10.935,10.935,0,0,0-.51,3.833,10.8,10.8,0,0,0,.51,3.818Q22.665-.3,23.55-.3Zm7.77.51a2.353,2.353,0,0,1-1.568-.63,4.345,4.345,0,0,1-1.17-1.89,9.342,9.342,0,0,1-.443-3.075,9.333,9.333,0,0,1,.45-3.09,4.458,4.458,0,0,1,1.177-1.913,2.355,2.355,0,0,1,1.583-.637,2.338,2.338,0,0,1,1.567.637,4.4,4.4,0,0,1,1.17,1.913,9.479,9.479,0,0,1,.442,3.09,9.2,9.2,0,0,1-.45,3.075A4.4,4.4,0,0,1,32.9-.42,2.37,2.37,0,0,1,31.32.21Zm.03-.51q.87,0,1.372-1.267a10.952,10.952,0,0,0,.5-3.818,11.086,11.086,0,0,0-.5-3.833Q32.22-10.5,31.35-10.5t-1.4,1.283a10.935,10.935,0,0,0-.51,3.833,10.8,10.8,0,0,0,.51,3.818Q30.465-.3,31.35-.3Zm7.14-5.13a.314.314,0,0,0-.233.082.314.314,0,0,0-.083.233V-2.85q.03,1.62.1,3.315V.54a.407.407,0,0,1-.12.3,1.018,1.018,0,0,1-.75.3.358.358,0,0,1-.24-.09.27.27,0,0,1-.1-.21q.06-.885.1-1.718t.06-2.183v-5.7a23.067,23.067,0,0,0-.135-2.625v-.06q0-.24.18-.24a.373.373,0,0,1,.165.045l.63.3a1,1,0,0,0,.39.09H47a.423.423,0,0,0,.375-.21l.075-.1q.045-.06.135-.187t.18-.128a1.325,1.325,0,0,1,.48.27,4.033,4.033,0,0,1,.585.495.258.258,0,0,1,.06.165.246.246,0,0,1-.135.2.378.378,0,0,1-.09.045.582.582,0,0,0-.075.03.344.344,0,0,0-.27.345v9.96a1.458,1.458,0,0,1-.27.945,1.77,1.77,0,0,1-1.125.45l-.09.015q-.21,0-.285-.255A.767.767,0,0,0,46.2.375,3.432,3.432,0,0,0,44.985.03q-.3-.045-.3-.165t.33-.09q1.485.12,1.92.12a.5.5,0,0,0,.337-.09.393.393,0,0,0,.1-.3v-4.62a.314.314,0,0,0-.083-.233.314.314,0,0,0-.233-.082Zm3.75-5.055a.314.314,0,0,0-.083-.232.314.314,0,0,0-.233-.083H38.49a.314.314,0,0,0-.233.083.314.314,0,0,0-.083.232v4.32a.314.314,0,0,0,.083.233.314.314,0,0,0,.233.082h3.435a.314.314,0,0,0,.233-.082.314.314,0,0,0,.083-.233Zm1.275-.315a.314.314,0,0,0-.232.083.314.314,0,0,0-.083.232v4.32a.314.314,0,0,0,.083.233.314.314,0,0,0,.232.082h3.54a.314.314,0,0,0,.233-.082.314.314,0,0,0,.083-.233v-4.32a.314.314,0,0,0-.083-.232.314.314,0,0,0-.233-.083Z" transform="translate(-8899.375 2582.88)" fill="#fff"/>
    <path id="パス_1748" data-name="パス 1748" d="M1.35,0q-.105,0-.1-.21,0-.225.1-.225h.24A2.662,2.662,0,0,0,2.775-.66a.742.742,0,0,0,.45-.705V-8.55a1.488,1.488,0,0,0-.082-.607.505.505,0,0,0-.39-.21A8.147,8.147,0,0,0,1.605-9.42H1.35q-.105,0-.1-.225,0-.21.1-.21a4.924,4.924,0,0,0,1.463-.2A3.938,3.938,0,0,0,4.05-10.71a.363.363,0,0,1,.2-.09q.18,0,.18.27v9.165q0,.93,1.635.93h.225a.082.082,0,0,1,.082.052A.475.475,0,0,1,6.39-.21q0,.21-.105.21ZM13.71-.27a.317.317,0,0,1-.345.27H8.445q-.27,0-.33-.165a.4.4,0,0,1-.045-.18A.5.5,0,0,1,8.115-.54a10.48,10.48,0,0,1,1.065-2q.63-.923,1.65-2.138a16.129,16.129,0,0,0,1.59-2.108,3.294,3.294,0,0,0,.495-1.7,2.349,2.349,0,0,0-.45-1.425,1.63,1.63,0,0,0-1.41-.615,2.015,2.015,0,0,0-1.2.352,1.035,1.035,0,0,0-.495.863.914.914,0,0,0,.053.33,1.37,1.37,0,0,0,.172.3,1.929,1.929,0,0,1,.158.292.807.807,0,0,1,.052.307.781.781,0,0,1-.218.578.761.761,0,0,1-.562.217.713.713,0,0,1-.548-.293,1.2,1.2,0,0,1-.247-.8,2.439,2.439,0,0,1,.337-1.17A2.859,2.859,0,0,1,9.577-10.6a3.091,3.091,0,0,1,1.673-.427,3.157,3.157,0,0,1,1.74.427,2.414,2.414,0,0,1,.938,1.065A3.292,3.292,0,0,1,14.2-8.205a2.694,2.694,0,0,1-.21,1.1,3.268,3.268,0,0,1-.57.87q-.36.4-1.08,1.057-.165.165-.42.39t-.585.555A11.715,11.715,0,0,0,9.27-1.47a.373.373,0,0,0-.045.165q0,.21.285.21h1.365a7.7,7.7,0,0,0,1.635-.127,1.471,1.471,0,0,0,.817-.458,3.68,3.68,0,0,0,.548-1.065q.03-.09.1-.09a1.242,1.242,0,0,1,.135.03.588.588,0,0,1,.135.06.1.1,0,0,1,.045.09l-.015.075Zm2.565,1.875A.088.088,0,0,1,16.2,1.56a.146.146,0,0,1-.03-.075.086.086,0,0,1,.03-.06,2.074,2.074,0,0,0,.413-.48.854.854,0,0,0,.142-.42A.362.362,0,0,0,16.56.18a1.179,1.179,0,0,1-.4-.285A.642.642,0,0,1,16.02-.54a.814.814,0,0,1,.24-.6.8.8,0,0,1,.585-.24.784.784,0,0,1,.585.248.858.858,0,0,1,.24.623A2.036,2.036,0,0,1,17.257.735a3.076,3.076,0,0,1-.937.855ZM22.6.21a2.353,2.353,0,0,1-1.568-.63,4.345,4.345,0,0,1-1.17-1.89,9.342,9.342,0,0,1-.443-3.075,9.333,9.333,0,0,1,.45-3.09,4.458,4.458,0,0,1,1.177-1.913,2.355,2.355,0,0,1,1.583-.637,2.338,2.338,0,0,1,1.567.637,4.4,4.4,0,0,1,1.17,1.913,9.479,9.479,0,0,1,.442,3.09,9.2,9.2,0,0,1-.45,3.075A4.4,4.4,0,0,1,24.188-.42,2.37,2.37,0,0,1,22.6.21Zm.03-.51q.87,0,1.372-1.267a10.952,10.952,0,0,0,.5-3.818,11.086,11.086,0,0,0-.5-3.833Q23.5-10.5,22.635-10.5q-.885,0-1.4,1.283a10.935,10.935,0,0,0-.51,3.833,10.8,10.8,0,0,0,.51,3.818Q21.75-.3,22.635-.3ZM30.4.21a2.353,2.353,0,0,1-1.568-.63,4.345,4.345,0,0,1-1.17-1.89,9.342,9.342,0,0,1-.443-3.075,9.333,9.333,0,0,1,.45-3.09,4.458,4.458,0,0,1,1.177-1.913,2.355,2.355,0,0,1,1.583-.637A2.338,2.338,0,0,1,32-10.388a4.4,4.4,0,0,1,1.17,1.913,9.479,9.479,0,0,1,.442,3.09,9.2,9.2,0,0,1-.45,3.075A4.4,4.4,0,0,1,31.987-.42,2.37,2.37,0,0,1,30.4.21Zm.03-.51q.87,0,1.372-1.267a10.952,10.952,0,0,0,.5-3.818,11.086,11.086,0,0,0-.5-3.833Q31.3-10.5,30.435-10.5q-.885,0-1.4,1.283a10.935,10.935,0,0,0-.51,3.833,10.8,10.8,0,0,0,.51,3.818Q29.55-.3,30.435-.3ZM38.2.21a2.353,2.353,0,0,1-1.567-.63,4.345,4.345,0,0,1-1.17-1.89,9.342,9.342,0,0,1-.442-3.075,9.333,9.333,0,0,1,.45-3.09,4.458,4.458,0,0,1,1.178-1.913,2.355,2.355,0,0,1,1.583-.637,2.338,2.338,0,0,1,1.567.637,4.4,4.4,0,0,1,1.17,1.913,9.479,9.479,0,0,1,.443,3.09,9.2,9.2,0,0,1-.45,3.075A4.4,4.4,0,0,1,39.787-.42,2.37,2.37,0,0,1,38.2.21Zm.03-.51q.87,0,1.372-1.267a10.952,10.952,0,0,0,.5-3.818,11.086,11.086,0,0,0-.5-3.833Q39.1-10.5,38.235-10.5q-.885,0-1.4,1.283a10.935,10.935,0,0,0-.51,3.833,10.8,10.8,0,0,0,.51,3.818Q37.35-.3,38.235-.3Zm7.14-5.13a.314.314,0,0,0-.233.082.314.314,0,0,0-.083.233V-2.85q.03,1.62.105,3.315V.54a.407.407,0,0,1-.12.3,1.018,1.018,0,0,1-.75.3.358.358,0,0,1-.24-.09.27.27,0,0,1-.1-.21q.06-.885.1-1.718t.06-2.183v-5.7a23.067,23.067,0,0,0-.135-2.625v-.06q0-.24.18-.24a.373.373,0,0,1,.165.045l.63.3a1,1,0,0,0,.39.09H53.88a.423.423,0,0,0,.375-.21l.075-.1q.045-.06.135-.187t.18-.128a1.325,1.325,0,0,1,.48.27,4.033,4.033,0,0,1,.585.495.258.258,0,0,1,.06.165.246.246,0,0,1-.135.2.378.378,0,0,1-.09.045.582.582,0,0,0-.075.03.344.344,0,0,0-.27.345v9.96a1.458,1.458,0,0,1-.27.945,1.77,1.77,0,0,1-1.125.45l-.09.015q-.21,0-.285-.255a.767.767,0,0,0-.345-.405A3.432,3.432,0,0,0,51.87.03q-.3-.045-.3-.165t.33-.09q1.485.12,1.92.12a.5.5,0,0,0,.338-.09.393.393,0,0,0,.1-.3v-4.62a.314.314,0,0,0-.082-.233.314.314,0,0,0-.233-.082Zm3.75-5.055a.314.314,0,0,0-.083-.232.314.314,0,0,0-.233-.083H45.375a.314.314,0,0,0-.233.083.314.314,0,0,0-.083.232v4.32a.314.314,0,0,0,.083.233.314.314,0,0,0,.233.082H48.81a.314.314,0,0,0,.233-.082.314.314,0,0,0,.083-.233ZM50.4-10.8a.314.314,0,0,0-.233.083.314.314,0,0,0-.083.232v4.32a.314.314,0,0,0,.083.233.314.314,0,0,0,.233.082h3.54a.314.314,0,0,0,.233-.082.314.314,0,0,0,.082-.233v-4.32a.314.314,0,0,0-.082-.232.314.314,0,0,0-.233-.083Z" transform="translate(-8903.375 2644.88)" fill="#fff"/>
    <path id="パス_1757" data-name="パス 1757" d="M3.75-11.01a2.9,2.9,0,0,1,1.755.57,3.715,3.715,0,0,1,1.215,1.6A6.015,6.015,0,0,1,7.155-6.48a10.009,10.009,0,0,1-.6,3.667A5.552,5.552,0,0,1,5.048-.533,2.8,2.8,0,0,1,3.27.225a3.183,3.183,0,0,1-1.193-.2A1.761,1.761,0,0,1,1.32-.51a1.114,1.114,0,0,1-.255-.69.724.724,0,0,1,.217-.533A.707.707,0,0,1,1.8-1.95a.717.717,0,0,1,.555.278,1.2,1.2,0,0,1,.27.728.855.855,0,0,0,.18.51.642.642,0,0,0,.5.165q.99,0,1.59-1.26a10.269,10.269,0,0,0,.84-3.045A.329.329,0,0,0,5.685-4.8a.2.2,0,0,0-.18-.09.453.453,0,0,0-.27.12,2.666,2.666,0,0,1-1.89.765,2.543,2.543,0,0,1-1.5-.443A2.836,2.836,0,0,1,.885-5.61a3.664,3.664,0,0,1-.33-1.545,4.632,4.632,0,0,1,.4-1.92,3.431,3.431,0,0,1,1.125-1.41A2.785,2.785,0,0,1,3.75-11.01Zm.03,6.3A2.028,2.028,0,0,0,4.935-5.1,2.337,2.337,0,0,0,5.79-6.33a1.32,1.32,0,0,0,.06-.39,7.313,7.313,0,0,0-.473-2.655A1.62,1.62,0,0,0,3.75-10.44a1.387,1.387,0,0,0-.982.4A2.69,2.69,0,0,0,2.1-8.925,4.867,4.867,0,0,0,1.86-7.35a2.772,2.772,0,0,0,.608,2.115A1.971,1.971,0,0,0,3.78-4.71Zm5.5,6.315A.088.088,0,0,1,9.21,1.56a.146.146,0,0,1-.03-.075.086.086,0,0,1,.03-.06,2.074,2.074,0,0,0,.413-.48.854.854,0,0,0,.142-.42A.362.362,0,0,0,9.57.18a1.179,1.179,0,0,1-.4-.285A.642.642,0,0,1,9.03-.54a.814.814,0,0,1,.24-.6.8.8,0,0,1,.585-.24.784.784,0,0,1,.585.248.858.858,0,0,1,.24.623A2.036,2.036,0,0,1,10.267.735a3.076,3.076,0,0,1-.937.855Zm6.33-1.4a2.353,2.353,0,0,1-1.568-.63,4.345,4.345,0,0,1-1.17-1.89,9.342,9.342,0,0,1-.443-3.075,9.333,9.333,0,0,1,.45-3.09,4.458,4.458,0,0,1,1.178-1.913,2.355,2.355,0,0,1,1.582-.637,2.338,2.338,0,0,1,1.568.637,4.4,4.4,0,0,1,1.17,1.913,9.479,9.479,0,0,1,.443,3.09,9.2,9.2,0,0,1-.45,3.075A4.4,4.4,0,0,1,17.2-.42,2.37,2.37,0,0,1,15.615.21Zm.03-.51q.87,0,1.373-1.267a10.952,10.952,0,0,0,.5-3.818,11.086,11.086,0,0,0-.5-3.833q-.5-1.283-1.373-1.283-.885,0-1.395,1.283a10.935,10.935,0,0,0-.51,3.833,10.8,10.8,0,0,0,.51,3.818Q14.76-.3,15.645-.3Zm7.77.51a2.353,2.353,0,0,1-1.567-.63,4.345,4.345,0,0,1-1.17-1.89,9.342,9.342,0,0,1-.442-3.075,9.333,9.333,0,0,1,.45-3.09,4.458,4.458,0,0,1,1.177-1.913,2.355,2.355,0,0,1,1.583-.637,2.338,2.338,0,0,1,1.567.637,4.4,4.4,0,0,1,1.17,1.913,9.479,9.479,0,0,1,.443,3.09,9.2,9.2,0,0,1-.45,3.075A4.4,4.4,0,0,1,25-.42,2.37,2.37,0,0,1,23.415.21Zm.03-.51q.87,0,1.372-1.267a10.952,10.952,0,0,0,.5-3.818,11.086,11.086,0,0,0-.5-3.833q-.5-1.283-1.372-1.283-.885,0-1.4,1.283a10.935,10.935,0,0,0-.51,3.833,10.8,10.8,0,0,0,.51,3.818Q22.56-.3,23.445-.3Zm7.77.51a2.353,2.353,0,0,1-1.567-.63,4.345,4.345,0,0,1-1.17-1.89,9.342,9.342,0,0,1-.442-3.075,9.333,9.333,0,0,1,.45-3.09,4.458,4.458,0,0,1,1.177-1.913,2.355,2.355,0,0,1,1.583-.637,2.338,2.338,0,0,1,1.568.637,4.4,4.4,0,0,1,1.17,1.913,9.479,9.479,0,0,1,.443,3.09,9.2,9.2,0,0,1-.45,3.075A4.4,4.4,0,0,1,32.8-.42,2.37,2.37,0,0,1,31.215.21Zm.03-.51q.87,0,1.373-1.267a10.952,10.952,0,0,0,.5-3.818,11.086,11.086,0,0,0-.5-3.833q-.5-1.283-1.373-1.283-.885,0-1.4,1.283a10.935,10.935,0,0,0-.51,3.833,10.8,10.8,0,0,0,.51,3.818Q30.36-.3,31.245-.3Zm7.14-5.13a.314.314,0,0,0-.233.082.314.314,0,0,0-.083.233V-2.85q.03,1.62.1,3.315V.54a.407.407,0,0,1-.12.3,1.018,1.018,0,0,1-.75.3.358.358,0,0,1-.24-.09.27.27,0,0,1-.1-.21q.06-.885.1-1.718t.06-2.183v-5.7a23.067,23.067,0,0,0-.135-2.625v-.06q0-.24.18-.24a.373.373,0,0,1,.165.045l.63.3a1,1,0,0,0,.39.09H46.89a.423.423,0,0,0,.375-.21l.075-.1q.045-.06.135-.187t.18-.128a1.325,1.325,0,0,1,.48.27,4.033,4.033,0,0,1,.585.495.258.258,0,0,1,.06.165.246.246,0,0,1-.135.2.378.378,0,0,1-.09.045.582.582,0,0,0-.075.03.344.344,0,0,0-.27.345v9.96a1.458,1.458,0,0,1-.27.945,1.77,1.77,0,0,1-1.125.45l-.09.015q-.21,0-.285-.255a.767.767,0,0,0-.345-.405A3.432,3.432,0,0,0,44.88.03q-.3-.045-.3-.165t.33-.09q1.485.12,1.92.12a.5.5,0,0,0,.337-.09.393.393,0,0,0,.1-.3v-4.62a.314.314,0,0,0-.083-.233.314.314,0,0,0-.233-.082Zm3.75-5.055a.314.314,0,0,0-.083-.232.314.314,0,0,0-.233-.083H38.385a.314.314,0,0,0-.233.083.314.314,0,0,0-.083.232v4.32a.314.314,0,0,0,.083.233.314.314,0,0,0,.233.082H41.82a.314.314,0,0,0,.233-.082.314.314,0,0,0,.083-.233ZM43.41-10.8a.314.314,0,0,0-.232.083.314.314,0,0,0-.083.232v4.32a.314.314,0,0,0,.083.233.314.314,0,0,0,.232.082h3.54a.314.314,0,0,0,.233-.082.314.314,0,0,0,.083-.233v-4.32a.314.314,0,0,0-.083-.232.314.314,0,0,0-.233-.083Z" transform="translate(-8815.375 2582.88)" fill="#fff"/>
    <path id="パス_1758" data-name="パス 1758" d="M1.35,0q-.105,0-.1-.21,0-.225.1-.225h.24A2.662,2.662,0,0,0,2.775-.66a.742.742,0,0,0,.45-.705V-8.55a1.488,1.488,0,0,0-.082-.607.505.505,0,0,0-.39-.21A8.147,8.147,0,0,0,1.605-9.42H1.35q-.105,0-.1-.225,0-.21.1-.21a4.924,4.924,0,0,0,1.463-.2A3.938,3.938,0,0,0,4.05-10.71a.363.363,0,0,1,.2-.09q.18,0,.18.27v9.165q0,.93,1.635.93h.225a.082.082,0,0,1,.082.052A.475.475,0,0,1,6.39-.21q0,.21-.105.21ZM12-5.85q-.18.045-.18.09t.18.09a3.569,3.569,0,0,1,1.755.99,2.411,2.411,0,0,1,.66,1.71,3.6,3.6,0,0,1-.308,1.4A2.865,2.865,0,0,1,13.02-.315,3.679,3.679,0,0,1,10.935.21,3.326,3.326,0,0,1,9.262-.165a2.292,2.292,0,0,1-.93-.907A2.221,2.221,0,0,1,8.055-2.1a.97.97,0,0,1,.233-.713.733.733,0,0,1,.532-.232.939.939,0,0,1,.57.188.622.622,0,0,1,.255.533.914.914,0,0,1-.165.435,1.571,1.571,0,0,0-.127.21.53.53,0,0,0-.052.24,1.151,1.151,0,0,0,.33.8,1.544,1.544,0,0,0,1.17.36,2.047,2.047,0,0,0,1.185-.36,2.444,2.444,0,0,0,.825-.99,3.311,3.311,0,0,0,.3-1.44,2.565,2.565,0,0,0-.6-1.77,2.112,2.112,0,0,0-1.665-.675,2.445,2.445,0,0,0-.315.03,2.6,2.6,0,0,1-.36.03.456.456,0,0,1-.278-.082.271.271,0,0,1-.113-.233A.277.277,0,0,1,9.892-6a.43.43,0,0,1,.278-.09,1.605,1.605,0,0,1,.39.045,3.223,3.223,0,0,0,.375.03,2.056,2.056,0,0,0,1.215-.42,2.136,2.136,0,0,0,.585-1.8A2.4,2.4,0,0,0,12.2-10a1.721,1.721,0,0,0-1.238-.517,1.9,1.9,0,0,0-.847.2.765.765,0,0,0-.413.758,1.259,1.259,0,0,0,.12.51.761.761,0,0,1,.105.39.644.644,0,0,1-.173.465.568.568,0,0,1-.427.18A.754.754,0,0,1,8.663-8.3a1.12,1.12,0,0,1-.2-.653A1.609,1.609,0,0,1,8.8-9.848a2.791,2.791,0,0,1,.953-.832,2.832,2.832,0,0,1,1.41-.345,3.051,3.051,0,0,1,1.523.367,2.564,2.564,0,0,1,1,.975,2.614,2.614,0,0,1,.345,1.312,2.549,2.549,0,0,1-.51,1.568A2.682,2.682,0,0,1,12-5.85Zm4.455,7.455a.088.088,0,0,1-.075-.045.146.146,0,0,1-.03-.075.086.086,0,0,1,.03-.06,2.074,2.074,0,0,0,.413-.48.854.854,0,0,0,.142-.42A.362.362,0,0,0,16.74.18a1.179,1.179,0,0,1-.4-.285A.642.642,0,0,1,16.2-.54a.814.814,0,0,1,.24-.6.8.8,0,0,1,.585-.24.784.784,0,0,1,.585.248.858.858,0,0,1,.24.623A2.036,2.036,0,0,1,17.438.735a3.076,3.076,0,0,1-.937.855Zm6.33-1.4a2.353,2.353,0,0,1-1.568-.63,4.345,4.345,0,0,1-1.17-1.89A9.342,9.342,0,0,1,19.6-5.385a9.333,9.333,0,0,1,.45-3.09,4.458,4.458,0,0,1,1.177-1.913,2.355,2.355,0,0,1,1.583-.637,2.338,2.338,0,0,1,1.567.637,4.4,4.4,0,0,1,1.17,1.913,9.479,9.479,0,0,1,.442,3.09,9.2,9.2,0,0,1-.45,3.075A4.4,4.4,0,0,1,24.368-.42,2.37,2.37,0,0,1,22.785.21Zm.03-.51q.87,0,1.372-1.267a10.952,10.952,0,0,0,.5-3.818,11.086,11.086,0,0,0-.5-3.833q-.5-1.283-1.372-1.283-.885,0-1.4,1.283a10.935,10.935,0,0,0-.51,3.833,10.8,10.8,0,0,0,.51,3.818Q21.93-.3,22.815-.3Zm7.77.51a2.353,2.353,0,0,1-1.568-.63,4.345,4.345,0,0,1-1.17-1.89A9.342,9.342,0,0,1,27.4-5.385a9.333,9.333,0,0,1,.45-3.09,4.458,4.458,0,0,1,1.177-1.913,2.355,2.355,0,0,1,1.583-.637,2.338,2.338,0,0,1,1.567.637,4.4,4.4,0,0,1,1.17,1.913,9.479,9.479,0,0,1,.442,3.09,9.2,9.2,0,0,1-.45,3.075A4.4,4.4,0,0,1,32.167-.42,2.37,2.37,0,0,1,30.585.21Zm.03-.51q.87,0,1.372-1.267a10.952,10.952,0,0,0,.5-3.818,11.086,11.086,0,0,0-.5-3.833q-.5-1.283-1.372-1.283-.885,0-1.4,1.283a10.935,10.935,0,0,0-.51,3.833,10.8,10.8,0,0,0,.51,3.818Q29.73-.3,30.615-.3Zm7.77.51a2.353,2.353,0,0,1-1.567-.63,4.345,4.345,0,0,1-1.17-1.89,9.342,9.342,0,0,1-.442-3.075,9.333,9.333,0,0,1,.45-3.09,4.458,4.458,0,0,1,1.178-1.913,2.355,2.355,0,0,1,1.583-.637,2.338,2.338,0,0,1,1.567.637,4.4,4.4,0,0,1,1.17,1.913,9.479,9.479,0,0,1,.443,3.09,9.2,9.2,0,0,1-.45,3.075A4.4,4.4,0,0,1,39.967-.42,2.37,2.37,0,0,1,38.385.21Zm.03-.51q.87,0,1.372-1.267a10.952,10.952,0,0,0,.5-3.818,11.086,11.086,0,0,0-.5-3.833q-.5-1.283-1.372-1.283-.885,0-1.4,1.283a10.935,10.935,0,0,0-.51,3.833,10.8,10.8,0,0,0,.51,3.818Q37.53-.3,38.415-.3Zm7.14-5.13a.314.314,0,0,0-.233.082.314.314,0,0,0-.083.233V-2.85q.03,1.62.105,3.315V.54a.407.407,0,0,1-.12.3,1.018,1.018,0,0,1-.75.3.358.358,0,0,1-.24-.09.27.27,0,0,1-.1-.21q.06-.885.1-1.718t.06-2.183v-5.7a23.067,23.067,0,0,0-.135-2.625v-.06q0-.24.18-.24a.373.373,0,0,1,.165.045l.63.3a1,1,0,0,0,.39.09H54.06a.423.423,0,0,0,.375-.21l.075-.1q.045-.06.135-.187t.18-.128a1.325,1.325,0,0,1,.48.27,4.033,4.033,0,0,1,.585.495.258.258,0,0,1,.06.165.246.246,0,0,1-.135.2.378.378,0,0,1-.09.045.582.582,0,0,0-.075.03.344.344,0,0,0-.27.345v9.96a1.458,1.458,0,0,1-.27.945,1.77,1.77,0,0,1-1.125.45l-.09.015q-.21,0-.285-.255a.767.767,0,0,0-.345-.405A3.432,3.432,0,0,0,52.05.03q-.3-.045-.3-.165t.33-.09q1.485.12,1.92.12a.5.5,0,0,0,.338-.09.393.393,0,0,0,.1-.3v-4.62a.314.314,0,0,0-.082-.233.314.314,0,0,0-.233-.082Zm3.75-5.055a.314.314,0,0,0-.083-.232.314.314,0,0,0-.233-.083H45.555a.314.314,0,0,0-.233.083.314.314,0,0,0-.083.232v4.32a.314.314,0,0,0,.083.233.314.314,0,0,0,.233.082H48.99a.314.314,0,0,0,.233-.082.314.314,0,0,0,.083-.233ZM50.58-10.8a.314.314,0,0,0-.233.083.314.314,0,0,0-.083.232v4.32a.314.314,0,0,0,.083.233.314.314,0,0,0,.233.082h3.54a.314.314,0,0,0,.233-.082.314.314,0,0,0,.082-.233v-4.32a.314.314,0,0,0-.082-.232.314.314,0,0,0-.233-.083Z" transform="translate(-8819.375 2644.88)" fill="#fff"/>
    <path id="パス_1761" data-name="パス 1761" d="M1.35,0q-.105,0-.1-.21,0-.225.1-.225h.24A2.662,2.662,0,0,0,2.775-.66a.742.742,0,0,0,.45-.705V-8.55a1.488,1.488,0,0,0-.082-.607.505.505,0,0,0-.39-.21A8.147,8.147,0,0,0,1.605-9.42H1.35q-.105,0-.1-.225,0-.21.1-.21a4.924,4.924,0,0,0,1.463-.2A3.938,3.938,0,0,0,4.05-10.71a.363.363,0,0,1,.2-.09q.18,0,.18.27v9.165q0,.93,1.635.93h.225a.082.082,0,0,1,.082.052A.475.475,0,0,1,6.39-.21q0,.21-.105.21Zm9.84.21A2.353,2.353,0,0,1,9.622-.42a4.345,4.345,0,0,1-1.17-1.89A9.342,9.342,0,0,1,8.01-5.385a9.333,9.333,0,0,1,.45-3.09,4.458,4.458,0,0,1,1.177-1.913,2.355,2.355,0,0,1,1.583-.637,2.338,2.338,0,0,1,1.568.637,4.4,4.4,0,0,1,1.17,1.913,9.479,9.479,0,0,1,.442,3.09,9.2,9.2,0,0,1-.45,3.075A4.4,4.4,0,0,1,12.773-.42,2.37,2.37,0,0,1,11.19.21Zm.03-.51q.87,0,1.373-1.267a10.952,10.952,0,0,0,.5-3.818,11.086,11.086,0,0,0-.5-3.833Q12.09-10.5,11.22-10.5t-1.4,1.283a10.935,10.935,0,0,0-.51,3.833,10.8,10.8,0,0,0,.51,3.818Q10.335-.3,11.22-.3Zm5.19,1.905a.088.088,0,0,1-.075-.045.146.146,0,0,1-.03-.075.086.086,0,0,1,.03-.06,2.074,2.074,0,0,0,.413-.48.854.854,0,0,0,.142-.42A.362.362,0,0,0,16.695.18a1.179,1.179,0,0,1-.4-.285.642.642,0,0,1-.143-.435.814.814,0,0,1,.24-.6.8.8,0,0,1,.585-.24.784.784,0,0,1,.585.248.858.858,0,0,1,.24.623A2.036,2.036,0,0,1,17.392.735a3.076,3.076,0,0,1-.937.855ZM22.74.21a2.353,2.353,0,0,1-1.567-.63A4.345,4.345,0,0,1,20-2.31a9.342,9.342,0,0,1-.442-3.075,9.333,9.333,0,0,1,.45-3.09,4.458,4.458,0,0,1,1.177-1.913,2.355,2.355,0,0,1,1.583-.637,2.338,2.338,0,0,1,1.567.637,4.4,4.4,0,0,1,1.17,1.913,9.479,9.479,0,0,1,.443,3.09A9.2,9.2,0,0,1,25.5-2.31,4.4,4.4,0,0,1,24.323-.42,2.37,2.37,0,0,1,22.74.21Zm.03-.51q.87,0,1.372-1.267a10.952,10.952,0,0,0,.5-3.818,11.086,11.086,0,0,0-.5-3.833Q23.64-10.5,22.77-10.5q-.885,0-1.4,1.283a10.935,10.935,0,0,0-.51,3.833,10.8,10.8,0,0,0,.51,3.818Q21.885-.3,22.77-.3Zm7.77.51a2.353,2.353,0,0,1-1.567-.63A4.345,4.345,0,0,1,27.8-2.31a9.342,9.342,0,0,1-.442-3.075,9.333,9.333,0,0,1,.45-3.09,4.458,4.458,0,0,1,1.177-1.913,2.355,2.355,0,0,1,1.583-.637,2.338,2.338,0,0,1,1.567.637,4.4,4.4,0,0,1,1.17,1.913,9.479,9.479,0,0,1,.443,3.09A9.2,9.2,0,0,1,33.3-2.31,4.4,4.4,0,0,1,32.122-.42,2.37,2.37,0,0,1,30.54.21Zm.03-.51q.87,0,1.372-1.267a10.952,10.952,0,0,0,.5-3.818,11.086,11.086,0,0,0-.5-3.833Q31.44-10.5,30.57-10.5q-.885,0-1.4,1.283a10.935,10.935,0,0,0-.51,3.833,10.8,10.8,0,0,0,.51,3.818Q29.685-.3,30.57-.3Zm7.77.51a2.353,2.353,0,0,1-1.567-.63A4.345,4.345,0,0,1,35.6-2.31a9.342,9.342,0,0,1-.442-3.075,9.333,9.333,0,0,1,.45-3.09,4.458,4.458,0,0,1,1.178-1.913,2.355,2.355,0,0,1,1.583-.637,2.338,2.338,0,0,1,1.568.637,4.4,4.4,0,0,1,1.17,1.913,9.479,9.479,0,0,1,.443,3.09A9.2,9.2,0,0,1,41.1-2.31,4.4,4.4,0,0,1,39.922-.42,2.37,2.37,0,0,1,38.34.21Zm.03-.51q.87,0,1.373-1.267a10.952,10.952,0,0,0,.5-3.818,11.086,11.086,0,0,0-.5-3.833Q39.24-10.5,38.37-10.5q-.885,0-1.4,1.283a10.935,10.935,0,0,0-.51,3.833,10.8,10.8,0,0,0,.51,3.818Q37.485-.3,38.37-.3Zm7.14-5.13a.314.314,0,0,0-.233.082.314.314,0,0,0-.083.233V-2.85q.03,1.62.1,3.315V.54a.407.407,0,0,1-.12.3,1.018,1.018,0,0,1-.75.3.358.358,0,0,1-.24-.09.27.27,0,0,1-.1-.21q.06-.885.1-1.718t.06-2.183v-5.7a23.067,23.067,0,0,0-.135-2.625v-.06q0-.24.18-.24a.373.373,0,0,1,.165.045l.63.3a1,1,0,0,0,.39.09h8.535a.423.423,0,0,0,.375-.21l.075-.1q.045-.06.135-.187t.18-.128a1.325,1.325,0,0,1,.48.27,4.033,4.033,0,0,1,.585.495.258.258,0,0,1,.06.165.246.246,0,0,1-.135.2.378.378,0,0,1-.09.045.582.582,0,0,0-.075.03.344.344,0,0,0-.27.345v9.96a1.458,1.458,0,0,1-.27.945,1.77,1.77,0,0,1-1.125.45l-.09.015q-.21,0-.285-.255A.767.767,0,0,0,53.22.375,3.432,3.432,0,0,0,52,.03q-.3-.045-.3-.165t.33-.09q1.485.12,1.92.12a.5.5,0,0,0,.337-.09.393.393,0,0,0,.1-.3v-4.62a.314.314,0,0,0-.083-.233.314.314,0,0,0-.233-.082Zm3.75-5.055a.314.314,0,0,0-.083-.232.314.314,0,0,0-.233-.083H45.51a.314.314,0,0,0-.233.083.314.314,0,0,0-.083.232v4.32a.314.314,0,0,0,.083.233.314.314,0,0,0,.233.082h3.435a.314.314,0,0,0,.233-.082.314.314,0,0,0,.083-.233Zm1.275-.315a.314.314,0,0,0-.232.083.314.314,0,0,0-.083.232v4.32a.314.314,0,0,0,.083.233.314.314,0,0,0,.232.082h3.54a.314.314,0,0,0,.233-.082.314.314,0,0,0,.083-.233v-4.32a.314.314,0,0,0-.083-.232.314.314,0,0,0-.233-.083Z" transform="translate(-8735.375 2582.88)" fill="#fff"/>
    <path id="パス_1762" data-name="パス 1762" d="M1.35,0q-.105,0-.1-.21,0-.225.1-.225h.24A2.662,2.662,0,0,0,2.775-.66a.742.742,0,0,0,.45-.705V-8.55a1.488,1.488,0,0,0-.082-.607.505.505,0,0,0-.39-.21A8.147,8.147,0,0,0,1.605-9.42H1.35q-.105,0-.1-.225,0-.21.1-.21a4.924,4.924,0,0,0,1.463-.2A3.938,3.938,0,0,0,4.05-10.71a.363.363,0,0,1,.2-.09q.18,0,.18.27v9.165q0,.93,1.635.93h.225a.082.082,0,0,1,.082.052A.475.475,0,0,1,6.39-.21q0,.21-.105.21ZM14.3-3.09a.314.314,0,0,1,.233.082.314.314,0,0,1,.083.233.314.314,0,0,1-.083.233.314.314,0,0,1-.233.082H13.23A.314.314,0,0,0,13-2.378a.314.314,0,0,0-.083.233v1.17A.419.419,0,0,0,13.2-.54a2.214,2.214,0,0,0,.75.105h.195q.135,0,.135.21,0,.225-.135.225h-3.6q-.12,0-.12-.225,0-.21.12-.21h.195a2.214,2.214,0,0,0,.75-.105.419.419,0,0,0,.285-.435v-1.17a.314.314,0,0,0-.082-.233.314.314,0,0,0-.233-.082h-3.4a.314.314,0,0,1-.233-.082.314.314,0,0,1-.082-.233V-2.88a.711.711,0,0,1,.105-.39l4.335-7.515a.349.349,0,0,1,.4-.18l.06.015a.317.317,0,0,1,.27.345v7.2A.314.314,0,0,0,13-3.173a.314.314,0,0,0,.232.082Zm-2.52-5a.368.368,0,0,0-.045-.2.138.138,0,0,0-.12-.068q-.12,0-.21.165L8.67-3.465a.373.373,0,0,0-.045.165q0,.21.27.21H11.46a.314.314,0,0,0,.233-.082.314.314,0,0,0,.082-.233Zm4.38,9.69a.088.088,0,0,1-.075-.045.146.146,0,0,1-.03-.075.086.086,0,0,1,.03-.06,2.074,2.074,0,0,0,.413-.48.854.854,0,0,0,.142-.42.362.362,0,0,0-.2-.345,1.179,1.179,0,0,1-.4-.285A.642.642,0,0,1,15.9-.54a.814.814,0,0,1,.24-.6.8.8,0,0,1,.585-.24.784.784,0,0,1,.585.248.858.858,0,0,1,.24.623A2.036,2.036,0,0,1,17.137.735a3.076,3.076,0,0,1-.937.855Zm6.33-1.4a2.353,2.353,0,0,1-1.567-.63,4.345,4.345,0,0,1-1.17-1.89A9.342,9.342,0,0,1,19.3-5.385a9.333,9.333,0,0,1,.45-3.09,4.458,4.458,0,0,1,1.177-1.913,2.355,2.355,0,0,1,1.583-.637,2.338,2.338,0,0,1,1.567.637,4.4,4.4,0,0,1,1.17,1.913,9.479,9.479,0,0,1,.443,3.09,9.2,9.2,0,0,1-.45,3.075A4.4,4.4,0,0,1,24.067-.42,2.37,2.37,0,0,1,22.485.21Zm.03-.51q.87,0,1.372-1.267a10.952,10.952,0,0,0,.5-3.818,11.086,11.086,0,0,0-.5-3.833q-.5-1.283-1.372-1.283-.885,0-1.4,1.283a10.935,10.935,0,0,0-.51,3.833,10.8,10.8,0,0,0,.51,3.818Q21.63-.3,22.515-.3Zm7.77.51a2.353,2.353,0,0,1-1.567-.63,4.345,4.345,0,0,1-1.17-1.89A9.342,9.342,0,0,1,27.1-5.385a9.333,9.333,0,0,1,.45-3.09,4.458,4.458,0,0,1,1.177-1.913,2.355,2.355,0,0,1,1.583-.637,2.338,2.338,0,0,1,1.567.637,4.4,4.4,0,0,1,1.17,1.913,9.479,9.479,0,0,1,.443,3.09,9.2,9.2,0,0,1-.45,3.075A4.4,4.4,0,0,1,31.867-.42,2.37,2.37,0,0,1,30.285.21Zm.03-.51q.87,0,1.372-1.267a10.952,10.952,0,0,0,.5-3.818,11.086,11.086,0,0,0-.5-3.833q-.5-1.283-1.372-1.283-.885,0-1.4,1.283a10.935,10.935,0,0,0-.51,3.833,10.8,10.8,0,0,0,.51,3.818Q29.43-.3,30.315-.3Zm7.77.51a2.353,2.353,0,0,1-1.567-.63,4.345,4.345,0,0,1-1.17-1.89A9.342,9.342,0,0,1,34.9-5.385a9.333,9.333,0,0,1,.45-3.09,4.458,4.458,0,0,1,1.178-1.913,2.355,2.355,0,0,1,1.583-.637,2.338,2.338,0,0,1,1.567.637,4.4,4.4,0,0,1,1.17,1.913,9.479,9.479,0,0,1,.443,3.09,9.2,9.2,0,0,1-.45,3.075A4.4,4.4,0,0,1,39.667-.42,2.37,2.37,0,0,1,38.085.21Zm.03-.51q.87,0,1.372-1.267a10.952,10.952,0,0,0,.5-3.818,11.086,11.086,0,0,0-.5-3.833q-.5-1.283-1.372-1.283-.885,0-1.4,1.283a10.935,10.935,0,0,0-.51,3.833,10.8,10.8,0,0,0,.51,3.818Q37.23-.3,38.115-.3Zm7.14-5.13a.314.314,0,0,0-.233.082.314.314,0,0,0-.083.233V-2.85q.03,1.62.105,3.315V.54a.407.407,0,0,1-.12.3,1.018,1.018,0,0,1-.75.3.358.358,0,0,1-.24-.09.27.27,0,0,1-.1-.21q.06-.885.1-1.718t.06-2.183v-5.7a23.067,23.067,0,0,0-.135-2.625v-.06q0-.24.18-.24a.373.373,0,0,1,.165.045l.63.3a1,1,0,0,0,.39.09H53.76a.423.423,0,0,0,.375-.21l.075-.1q.045-.06.135-.187t.18-.128a1.325,1.325,0,0,1,.48.27,4.033,4.033,0,0,1,.585.495.258.258,0,0,1,.06.165.246.246,0,0,1-.135.2.378.378,0,0,1-.09.045.582.582,0,0,0-.075.03.344.344,0,0,0-.27.345v9.96a1.458,1.458,0,0,1-.27.945,1.77,1.77,0,0,1-1.125.45l-.09.015q-.21,0-.285-.255a.767.767,0,0,0-.345-.405A3.432,3.432,0,0,0,51.75.03q-.3-.045-.3-.165t.33-.09q1.485.12,1.92.12a.5.5,0,0,0,.338-.09.393.393,0,0,0,.1-.3v-4.62a.314.314,0,0,0-.082-.233.314.314,0,0,0-.233-.082ZM49-10.485a.314.314,0,0,0-.083-.232.314.314,0,0,0-.233-.083H45.255a.314.314,0,0,0-.233.083.314.314,0,0,0-.083.232v4.32a.314.314,0,0,0,.083.233.314.314,0,0,0,.233.082H48.69a.314.314,0,0,0,.233-.082A.314.314,0,0,0,49-6.165ZM50.28-10.8a.314.314,0,0,0-.233.083.314.314,0,0,0-.083.232v4.32a.314.314,0,0,0,.083.233.314.314,0,0,0,.233.082h3.54a.314.314,0,0,0,.233-.082.314.314,0,0,0,.082-.233v-4.32a.314.314,0,0,0-.082-.232.314.314,0,0,0-.233-.083Z" transform="translate(-8735.375 2644.88)" fill="#fff"/>
  </g>
</svg>
