<?xml version="1.0" encoding="utf-8"?>
<!-- Generator: Adobe Illustrator 28.1.0, SVG Export Plug-In . SVG Version: 6.00 Build 0)  -->
<svg version="1.1" id="レイヤー_1" xmlns="http://www.w3.org/2000/svg" xmlns:xlink="http://www.w3.org/1999/xlink" x="0px"
	 y="0px" viewBox="0 0 800 211" style="enable-background:new 0 0 800 211;" xml:space="preserve">
<style type="text/css">
	.st0{enable-background:new    ;}
	.st1{fill:#FFFFFF;}
	.st2{fill:none;stroke:#707070;}
</style>
<g class="st0">
	<path class="st1" d="M307,34.3l0.1-0.2c0,0,0.1-0.1,0.1-0.2c0-0.1,0.1-0.1,0.1-0.2c0,0,0.1-0.1,0.1-0.1c0.1,0,0.2,0.1,0.5,0.3
		c0.3,0.2,0.4,0.4,0.6,0.6c0,0,0.1,0.1,0.1,0.2c0,0.1,0,0.2-0.1,0.2c-0.1,0-0.1,0.1-0.2,0.1c-0.2,0.1-0.3,0.2-0.3,0.3v3.5
		c0,0.2,0.1,0.3,0.1,0.4c0.3,0.3,0.7,0.6,1.1,0.8c0.4,0.2,0.8,0.3,1.4,0.4c0.5,0.1,1.2,0.1,2.1,0.1c2.5,0,4.3,0,5.5,0h0.1
		c0.1,0,0.1,0,0.2,0c0,0,0.1,0,0.1,0.1c0,0,0,0.1-0.1,0.1c-0.1,0-0.1,0.1-0.2,0.1c-0.2,0.1-0.3,0.2-0.4,0.4
		c-0.1,0.2-0.2,0.3-0.3,0.3h-4.8c-0.9,0-1.6,0-2.1-0.1c-0.6-0.1-1-0.3-1.4-0.5c-0.4-0.2-0.8-0.6-1.1-1.1c-0.1-0.1-0.1-0.1-0.2-0.1
		c-0.1,0-0.1,0-0.2,0.1c-0.4,0.5-0.9,1.1-1.5,1.6c-0.1,0.1-0.2,0.2-0.2,0.2v0.1l-0.1,0c-0.1,0-0.2-0.1-0.3-0.2l-0.3-0.5
		c0-0.1-0.1-0.1-0.1-0.2c0-0.1,0.1-0.2,0.2-0.3c0.4-0.2,0.9-0.5,1.5-0.9c0.1-0.1,0.2-0.2,0.2-0.4v-3.9c0-0.1,0-0.2-0.1-0.2
		c-0.1-0.1-0.1-0.1-0.2-0.1h-0.3c-0.2,0-0.5,0.1-0.8,0.1c0,0-0.1,0-0.1,0c-0.1,0-0.2-0.1-0.3-0.2l0-0.1c0-0.1,0-0.1,0-0.2
		c0-0.1,0-0.1,0.1-0.2c0.1,0,0.1,0,0.2,0c0.2,0,0.4,0,0.8,0.1h0.3C306.8,34.5,306.9,34.5,307,34.3z M305.7,28.6
		C305.8,28.6,305.8,28.6,305.7,28.6c0.1,0,0.2,0,0.3,0c0.8,0.3,1.4,0.7,1.7,1.1s0.5,0.8,0.5,1.2c0,0.2,0,0.3-0.1,0.5
		c-0.1,0.1-0.2,0.2-0.4,0.2c-0.1,0-0.1,0-0.2,0c-0.1,0-0.2-0.1-0.2-0.3c-0.1-0.4-0.3-0.8-0.6-1.2s-0.6-0.8-0.9-1.1
		C305.8,28.8,305.7,28.7,305.7,28.6z M316.4,31.7l0.1-0.1c0,0,0.1-0.1,0.1-0.2c0-0.1,0.1-0.1,0.1-0.2c0,0,0.1-0.1,0.1-0.1
		c0.1,0,0.2,0.1,0.5,0.3c0.2,0.2,0.4,0.4,0.5,0.5c0,0,0.1,0.1,0.1,0.2c0,0.1,0,0.1-0.1,0.2c0,0-0.1,0-0.1,0c0,0-0.1,0-0.1,0
		c-0.2,0.1-0.3,0.2-0.3,0.4v5.7c0,0.4-0.1,0.7-0.2,0.9s-0.4,0.3-0.8,0.4h-0.1c-0.1,0-0.2-0.1-0.3-0.3c0,0,0-0.1-0.1-0.2
		c0-0.1-0.1-0.2-0.3-0.3c-0.1-0.1-0.3-0.1-0.5-0.2c-0.2,0-0.3-0.1-0.3-0.2c0-0.1,0.1-0.1,0.3-0.1c0.4,0,0.8,0.1,1,0.1
		c0.1,0,0.2,0,0.2-0.1s0.1-0.1,0.1-0.2v-1.3c0-0.1,0-0.2-0.1-0.2c-0.1-0.1-0.1-0.1-0.2-0.1h-1.9c-0.1,0-0.2,0-0.2,0.1
		c-0.1,0.1-0.1,0.1-0.1,0.2v0.6l0,0.7c0,0.2,0,0.5,0,0.8v0.1c0,0.1,0,0.2-0.1,0.3c-0.2,0.1-0.4,0.2-0.7,0.2c-0.1,0-0.1,0-0.2-0.1
		c0-0.1-0.1-0.1-0.1-0.2c0-0.4,0.1-1,0.1-1.6v-0.7c0-0.1,0-0.2-0.1-0.2c-0.1-0.1-0.1-0.1-0.2-0.1h-1.8c-0.1,0-0.2,0-0.2,0.1
		c-0.1,0.1-0.1,0.1-0.1,0.2v0.6l0,0.7c0,0.2,0,0.5,0,0.8v0.1c0,0.1,0,0.2-0.1,0.3c-0.1,0.1-0.2,0.1-0.3,0.2s-0.3,0.1-0.4,0.1
		c-0.1,0-0.1,0-0.2-0.1c-0.1-0.1-0.1-0.1-0.1-0.2c0.1-1,0.1-2.1,0.1-3.3v-1.8c0-1,0-1.8-0.1-2.6v-0.1c0-0.1,0-0.1,0.1-0.2
		c0,0,0.1-0.1,0.1-0.1c0,0,0.1,0,0.2,0l0.6,0.3c0.1,0.1,0.2,0.1,0.4,0.1h2.6l0.5,0l0,0c-0.2-0.3-0.6-0.6-1-0.8
		c-0.4-0.3-0.9-0.5-1.5-0.8c-0.2-0.1-0.2-0.2-0.2-0.2c0-0.1,0.1-0.1,0.3-0.1c0.9,0.1,1.6,0.3,2.2,0.6c0.1,0,0.1,0,0.2,0
		c0.1,0,0.1,0,0.2-0.1c0.3-0.2,0.6-0.5,1.1-0.8c0.1-0.1,0.1-0.1,0.1-0.2c0,0,0-0.1-0.1-0.1c-0.1,0-0.1-0.1-0.2-0.1h-3
		c-0.6,0-1.3,0.1-2,0.2h-0.1c-0.1,0-0.2-0.1-0.3-0.2l-0.1-0.1c0-0.1-0.1-0.2-0.1-0.2c0-0.1,0-0.1,0.1-0.1c0,0,0.1,0,0.2,0
		c0.3,0,0.9,0.1,1.5,0.1h4.3c0.1,0,0.3-0.1,0.4-0.2l0.1-0.1c0,0,0.1-0.1,0.2-0.2s0.2-0.1,0.2-0.1c0.1,0,0.2,0.1,0.4,0.3
		c0.2,0.2,0.4,0.4,0.5,0.5c0,0.1,0.1,0.1,0.1,0.2c0,0.1-0.1,0.2-0.2,0.2l-0.2,0c-0.1,0-0.3,0.1-0.4,0.1c-0.5,0.3-1.3,0.7-2.3,1.1
		c-0.1,0-0.2,0.1-0.2,0.2c0,0.1,0,0.1,0.1,0.2c0.2,0.2,0.3,0.4,0.3,0.6c0.1,0.2,0.1,0.3,0.3,0.3h1C316.1,31.9,316.3,31.8,316.4,31.7
		z M312.9,34c0.1-0.1,0.1-0.1,0.1-0.2v-1.1c0-0.1,0-0.2-0.1-0.2c-0.1-0.1-0.1-0.1-0.2-0.1h-1.8c-0.1,0-0.2,0-0.2,0.1
		c-0.1,0.1-0.1,0.1-0.1,0.2v1.1c0,0.1,0,0.2,0.1,0.2c0.1,0.1,0.1,0.1,0.2,0.1h1.8C312.7,34.1,312.8,34.1,312.9,34z M310.5,34.6
		c-0.1,0.1-0.1,0.1-0.1,0.2V36c0,0.1,0,0.2,0.1,0.2c0.1,0.1,0.1,0.1,0.2,0.1h1.8c0.1,0,0.2,0,0.2-0.1c0.1-0.1,0.1-0.1,0.1-0.2v-1.2
		c0-0.1,0-0.2-0.1-0.2c-0.1-0.1-0.1-0.1-0.2-0.1h-1.8C310.7,34.5,310.6,34.6,310.5,34.6z M316.3,34c0.1-0.1,0.1-0.1,0.1-0.2v-1.1
		c0-0.1,0-0.2-0.1-0.2c-0.1-0.1-0.1-0.1-0.2-0.1h-1.9c-0.1,0-0.2,0-0.2,0.1c-0.1,0.1-0.1,0.1-0.1,0.2v1.1c0,0.1,0,0.2,0.1,0.2
		c0.1,0.1,0.1,0.1,0.2,0.1h1.9C316.2,34.1,316.2,34.1,316.3,34z M313.9,34.6c-0.1,0.1-0.1,0.1-0.1,0.2V36c0,0.1,0,0.2,0.1,0.2
		c0.1,0.1,0.1,0.1,0.2,0.1h1.9c0.1,0,0.2,0,0.2-0.1c0.1-0.1,0.1-0.1,0.1-0.2v-1.2c0-0.1,0-0.2-0.1-0.2c-0.1-0.1-0.1-0.1-0.2-0.1
		h-1.9C314,34.5,314,34.6,313.9,34.6z"/>
	<path class="st1" d="M331.7,30.7l0.1-0.2c0,0,0.1-0.1,0.1-0.1c0.1-0.1,0.1-0.1,0.1-0.1s0.1,0,0.1,0c0.1,0,0.2,0.1,0.4,0.3
		s0.4,0.4,0.5,0.6c0,0.1,0,0.1,0,0.2c0,0.1-0.1,0.2-0.2,0.2l-0.1,0c-0.2,0-0.3,0.1-0.4,0.2c-0.3,0.4-0.7,0.8-1.2,1.2
		c-0.1,0.1-0.2,0.1-0.3,0.1c-0.1,0-0.1,0-0.1-0.1c0,0,0-0.1,0.1-0.2l0.4-0.9c0-0.1,0-0.1,0-0.1c0-0.1,0-0.1-0.1-0.2
		c-0.1,0-0.1-0.1-0.2-0.1h-8.7c-0.2,0-0.3,0.1-0.3,0.3c0,0.4-0.1,0.7-0.3,1s-0.3,0.5-0.5,0.7c-0.2,0.1-0.4,0.2-0.6,0.2
		s-0.4-0.1-0.4-0.3c0-0.1,0-0.2,0-0.2c0-0.1,0-0.2,0.1-0.3c0.1-0.1,0.2-0.2,0.3-0.3c0.3-0.2,0.5-0.4,0.7-0.8
		c0.2-0.4,0.3-0.8,0.4-1.2c0-0.2,0.1-0.3,0.1-0.3c0.1,0,0.2,0.1,0.2,0.3l0,0.2c0,0.2,0.1,0.3,0.3,0.3h3.4c0.2,0,0.3-0.1,0.3-0.3
		c0-0.7-0.1-1.4-0.1-2.1v-0.1c0-0.1,0-0.1,0.1-0.2s0.1-0.1,0.2-0.1c0,0,0.1,0,0.1,0c0.7,0.2,1.1,0.4,1.1,0.5c0,0,0,0.1-0.1,0.2l0,0
		c-0.1,0.1-0.2,0.2-0.2,0.4v1.3c0,0.1,0,0.2,0.1,0.2c0.1,0.1,0.1,0.1,0.2,0.1h0.6c0.2,0,0.3-0.1,0.4-0.2c0.5-0.8,0.8-1.6,1-2.2
		c0-0.1,0.1-0.2,0.2-0.2c0.1,0,0.1,0,0.2,0c0.8,0.3,1.1,0.5,1.1,0.7c0,0-0.1,0.1-0.1,0.1l-0.1,0c-0.1,0-0.3,0.1-0.3,0.2
		c-0.4,0.4-0.8,0.8-1.3,1.3c-0.1,0.1-0.1,0.2-0.1,0.2c0,0.1,0.1,0.2,0.3,0.2h2C331.5,30.9,331.6,30.8,331.7,30.7z M329.3,32.5
		l0.1-0.1c0,0,0.1-0.1,0.1-0.1c0-0.1,0.1-0.1,0.1-0.1c0,0,0.1,0,0.1,0c0.1,0,0.2,0.1,0.4,0.3c0.2,0.2,0.4,0.3,0.5,0.5
		c0,0.1,0.1,0.1,0.1,0.1c0,0.1-0.1,0.1-0.2,0.2l-0.1,0c-0.2,0.1-0.3,0.2-0.3,0.3v0.6l0,0.6c0,0.2,0,0.4,0,0.7v0.1
		c0,0.1-0.1,0.2-0.1,0.3c-0.1,0.1-0.2,0.1-0.4,0.2c-0.1,0-0.3,0.1-0.3,0.1c0,0-0.1,0-0.1-0.1s0-0.1,0-0.2s0-0.2-0.1-0.2
		c-0.1,0-0.1-0.1-0.2-0.1h-1.6c-0.1,0-0.2,0-0.2,0.1c-0.1,0.1-0.1,0.1-0.1,0.2v0.9c0,0.1,0,0.2,0.1,0.2c0.1,0.1,0.1,0.1,0.2,0.1h2.6
		c0.2,0,0.3-0.1,0.4-0.2l0.1-0.1c0,0,0.1-0.1,0.1-0.1c0-0.1,0.1-0.1,0.1-0.1c0,0,0.1,0,0.1,0c0.1,0,0.2,0.1,0.5,0.2s0.4,0.3,0.6,0.5
		c0.1,0.1,0.1,0.1,0.1,0.2c0,0.1-0.1,0.1-0.1,0.2c0,0,0,0-0.1,0c0,0-0.1,0-0.1,0c-0.2,0.1-0.3,0.2-0.3,0.4v1.9
		c0,0.4-0.1,0.7-0.2,0.9c-0.2,0.2-0.5,0.4-1,0.4l-0.1,0c-0.1,0-0.2-0.1-0.3-0.3c-0.1-0.2-0.1-0.3-0.2-0.4c-0.2-0.2-0.5-0.3-0.9-0.3
		c-0.2,0-0.3-0.1-0.3-0.2c0,0,0.1-0.1,0.2-0.1c0.2,0,0.3,0,0.5,0s0.3,0,0.4,0l0.6,0c0.1,0,0.2,0,0.3-0.1c0,0,0.1-0.1,0.1-0.2v-2
		c0-0.1,0-0.2-0.1-0.2c-0.1-0.1-0.1-0.1-0.2-0.1h-2.7c-0.1,0-0.2,0-0.2,0.1c-0.1,0.1-0.1,0.1-0.1,0.2v1c0,1,0.1,1.8,0.1,2.4v0.1
		c0,0.1,0,0.2-0.1,0.3c-0.2,0.2-0.5,0.3-0.8,0.3c-0.1,0-0.1,0-0.2-0.1c-0.1-0.1-0.1-0.1-0.1-0.2c0.1-0.9,0.1-1.8,0.1-2.6v-1.2
		c0-0.1,0-0.2-0.1-0.2c-0.1-0.1-0.1-0.1-0.2-0.1h-2.6c-0.1,0-0.2,0-0.2,0.1c-0.1,0.1-0.1,0.1-0.1,0.2v0.9c0,0.9,0.1,1.6,0.1,2v0.1
		c0,0.1,0,0.2-0.1,0.3c-0.2,0.2-0.4,0.2-0.7,0.2c-0.1,0-0.1,0-0.2-0.1c0-0.1-0.1-0.1-0.1-0.2c0-0.3,0.1-0.8,0.1-1.3v-0.8
		c0-0.7,0-1.4-0.1-2v-0.1c0-0.2,0.1-0.2,0.2-0.2c0,0,0.1,0,0.2,0l0.6,0.3c0.1,0.1,0.3,0.1,0.4,0.1h2.6c0.1,0,0.2,0,0.2-0.1
		c0.1-0.1,0.1-0.1,0.1-0.2v-0.9c0-0.1,0-0.2-0.1-0.2c-0.1-0.1-0.1-0.1-0.2-0.1h-1.5c-0.1,0-0.2,0-0.2,0.1c-0.1,0.1-0.1,0.1-0.1,0.2
		v0.1c0,0-0.1,0.1-0.3,0.2c-0.2,0.1-0.3,0.1-0.5,0.1c-0.1,0-0.1,0-0.2-0.1c0-0.1-0.1-0.1-0.1-0.2c0-0.2,0.1-0.5,0.1-0.7
		c0-0.1,0-0.2,0-0.3v-0.7c0-0.6,0-1.2-0.1-1.6v-0.1c0-0.2,0.1-0.2,0.2-0.2c0,0,0.1,0,0.2,0l0.5,0.3c0.1,0.1,0.2,0.1,0.4,0.1h4.6
		C329.1,32.7,329.2,32.6,329.3,32.5z M322.6,28.4c0,0,0.1,0,0.1,0c0,0,0.1,0,0.2,0c0.6,0.2,1.1,0.5,1.3,0.8c0.3,0.3,0.4,0.6,0.4,0.9
		c0,0.2,0,0.3-0.1,0.5c-0.1,0.1-0.2,0.2-0.4,0.2c0,0-0.1,0-0.2,0c-0.1,0-0.2-0.2-0.2-0.3c-0.1-0.3-0.2-0.6-0.4-0.9
		c-0.2-0.3-0.4-0.6-0.6-0.8C322.6,28.5,322.6,28.4,322.6,28.4z M329.3,33.2c-0.1-0.1-0.1-0.1-0.2-0.1h-4.6c-0.1,0-0.2,0-0.2,0.1
		c-0.1,0.1-0.1,0.1-0.1,0.2v1.3c0,0.1,0,0.2,0.1,0.2c0.1,0.1,0.1,0.1,0.2,0.1h4.6c0.1,0,0.2,0,0.2-0.1c0.1-0.1,0.1-0.1,0.1-0.2v-1.3
		C329.3,33.3,329.3,33.2,329.3,33.2z"/>
</g>
<g class="st0">
	<path class="st1" d="M491,31.7c-0.2-0.4-0.6-0.8-1-1.2c-0.2-0.1-0.2-0.2-0.2-0.3c0,0,0.1,0,0.1,0c0.1,0,0.1,0,0.1,0
		c0.6,0.1,1.1,0.3,1.4,0.5s0.4,0.5,0.4,0.8c0,0.1,0,0.3-0.1,0.4c-0.1,0.1-0.2,0.2-0.3,0.2c-0.1,0-0.1,0-0.2,0
		C491.1,31.9,491,31.8,491,31.7z M502.3,37.7c0.3,0.2,0.5,0.4,0.6,0.6c0,0.1,0.1,0.1,0.1,0.2c0,0.1,0,0.1-0.1,0.2
		c-0.1,0-0.2,0.1-0.3,0.1h-5.4c-0.1,0-0.2,0-0.2,0.1c-0.1,0.1-0.1,0.1-0.1,0.2v0.7l0,0.8c0,0.2,0,0.5,0,0.9v0.1c0,0.1,0,0.2-0.1,0.3
		c-0.1,0.1-0.2,0.1-0.3,0.2s-0.3,0.1-0.4,0.1c-0.1,0-0.2,0-0.2-0.1c-0.1-0.1-0.1-0.1-0.1-0.2c0-0.5,0.1-1.1,0.1-1.8V39
		c0-0.1,0-0.2-0.1-0.2c-0.1-0.1-0.1-0.1-0.2-0.1h-3.2c-0.6,0-1.3,0.1-2,0.2h-0.1c-0.1,0-0.2-0.1-0.3-0.2l-0.1-0.1c0-0.1,0-0.1,0-0.2
		c0-0.1,0-0.1,0.1-0.1c0,0,0.1,0,0.2,0c0.3,0,0.9,0.1,1.5,0.1h3.9c0.2,0,0.3-0.1,0.3-0.3l0-0.9c0-0.1-0.1-0.2-0.2-0.2
		c-0.1,0-0.1,0-0.2,0c-0.1,0.1-0.3,0.1-0.4,0.1c-0.1,0-0.1,0-0.2-0.1c-0.1-0.1-0.1-0.1-0.1-0.2c0.1-1,0.1-2,0.1-3.2v-1.2
		c0-0.2-0.1-0.3-0.2-0.3c-0.1,0-0.1,0-0.2,0.1c-0.4,0.4-0.8,0.8-1.1,1c-0.2,0.1-0.3,0.1-0.3,0.1c0,0,0,0,0-0.1c0-0.1,0-0.2,0.1-0.3
		c0.5-0.5,0.9-1.1,1.3-1.8c0.2-0.4,0.4-0.8,0.6-1.3c0.2-0.5,0.4-1,0.5-1.4c0-0.2,0.1-0.2,0.2-0.2c0,0,0.1,0,0.2,0
		c0.7,0.3,1.1,0.5,1.1,0.6c0,0,0,0.1-0.1,0.1l0,0c-0.2,0.1-0.3,0.2-0.3,0.3c0,0.1-0.1,0.2-0.1,0.3c0,0.1-0.1,0.2-0.2,0.3
		c0,0.1-0.1,0.1-0.1,0.2c0,0.1,0,0.1,0.1,0.1s0.1,0.1,0.2,0.1h1.3c0.2,0,0.3-0.1,0.4-0.3c0.2-0.5,0.3-1,0.3-1.4
		c0-0.2,0.1-0.3,0.3-0.3c0,0,0.1,0,0.1,0c0.7,0.2,1.1,0.3,1.1,0.5c0,0,0,0.1-0.1,0.1l-0.1,0c-0.1,0.1-0.2,0.1-0.3,0.3
		c-0.2,0.3-0.4,0.5-0.6,0.7c-0.1,0.1-0.1,0.2-0.1,0.2s0,0.1,0.1,0.1c0,0,0.1,0.1,0.2,0.1h1.5c0.2,0,0.3-0.1,0.4-0.2l0.2-0.2
		c0,0,0.1-0.1,0.1-0.2s0.1-0.1,0.1-0.2c0,0,0.1-0.1,0.1-0.1c0.1,0,0.3,0.1,0.5,0.3c0.3,0.2,0.5,0.4,0.6,0.6c0,0,0.1,0.1,0.1,0.2
		c0,0.1,0,0.1-0.1,0.2c-0.1,0-0.2,0.1-0.3,0.1h-3c-0.1,0-0.2,0-0.2,0.1c-0.1,0.1-0.1,0.1-0.1,0.2v0.7c0,0.1,0,0.2,0.1,0.2
		s0.1,0.1,0.2,0.1h0.9c0.2,0,0.3-0.1,0.4-0.2l0.1-0.2c0,0,0.1-0.1,0.1-0.2c0.1-0.1,0.1-0.1,0.1-0.2c0,0,0.1-0.1,0.1-0.1
		c0.1,0,0.2,0.1,0.5,0.3c0.2,0.2,0.4,0.4,0.5,0.5c0,0,0.1,0.1,0.1,0.2c0,0.1,0,0.1-0.1,0.2c-0.1,0.1-0.2,0.1-0.3,0.1h-2.5
		c-0.1,0-0.2,0-0.2,0.1c-0.1,0.1-0.1,0.1-0.1,0.2v0.8c0,0.1,0,0.2,0.1,0.2c0.1,0.1,0.1,0.1,0.2,0.1h0.9c0.2,0,0.3-0.1,0.4-0.2
		l0.1-0.2c0,0,0.1-0.1,0.1-0.2c0.1-0.1,0.1-0.1,0.1-0.2s0.1-0.1,0.1-0.1c0.1,0,0.2,0.1,0.5,0.3c0.2,0.2,0.4,0.4,0.5,0.5
		c0,0.1,0.1,0.1,0.1,0.2c0,0.1,0,0.1-0.1,0.2c-0.1,0-0.2,0.1-0.3,0.1h-2.5c-0.1,0-0.2,0-0.2,0.1c-0.1,0.1-0.1,0.1-0.1,0.2v0.8
		c0,0.1,0,0.2,0.1,0.2c0.1,0.1,0.1,0.1,0.2,0.1h1.6c0.2,0,0.3-0.1,0.4-0.2l0.2-0.2c0,0,0.1-0.1,0.1-0.2c0-0.1,0.1-0.1,0.1-0.2
		c0.1,0,0.1-0.1,0.1-0.1c0.1,0,0.2,0.1,0.5,0.3c0.3,0.2,0.5,0.4,0.6,0.6c0,0.1,0.1,0.1,0.1,0.2c0,0.1,0,0.1-0.1,0.2
		c-0.1,0-0.2,0.1-0.3,0.1h-6.5c-0.1,0-0.2,0-0.2,0.1s-0.1,0.1-0.1,0.2c0,0.2,0.1,0.3,0.3,0.3c0.7,0.2,1,0.4,1,0.5c0,0,0,0.1-0.1,0.1
		c-0.1,0.1-0.2,0.2-0.2,0.4V38c0,0.1,0,0.2,0.1,0.2s0.1,0.1,0.2,0.1h3.5c0.2,0,0.3-0.1,0.4-0.2l0.2-0.3c0,0,0.1-0.1,0.2-0.2
		c0.1-0.1,0.1-0.2,0.2-0.2s0.1-0.1,0.1-0.1C501.8,37.3,502,37.4,502.3,37.7z M490.4,34h0.4c0.1,0,0.2,0,0.2,0c0,0,0.1-0.1,0.2-0.2
		c0.1-0.1,0.2-0.3,0.4-0.5c0.1-0.2,0.4-0.5,0.6-0.9s0.5-0.7,0.8-1.1l1-1.4c0.1-0.1,0.2-0.2,0.3-0.2c0.1,0,0.1,0,0.1,0.1
		c0,0.1,0,0.1-0.1,0.3c-0.1,0.2-0.2,0.3-0.3,0.5c-0.1,0.2-0.2,0.4-0.3,0.6c-0.9,1.4-1.4,2.3-1.5,2.5c-0.2,0.4-0.3,0.7-0.3,1
		c0,0.1,0,0.2,0.1,0.3c0,0.1,0.1,0.2,0.1,0.2c0,0.2,0.1,0.3,0.1,0.5c0,0.2,0.1,0.4,0.1,0.6c0,0.6-0.2,1-0.7,1
		c-0.2,0-0.3-0.1-0.4-0.4c0-0.1,0-0.2,0-0.4c0-0.3,0-0.6,0-0.8c0-0.6-0.1-0.9-0.3-1c-0.1-0.1-0.3-0.1-0.4-0.1
		c-0.2,0-0.3-0.1-0.3-0.2C490.1,34,490.2,34,490.4,34z M492.2,29.9c-0.1-0.2-0.2-0.4-0.4-0.7c-0.2-0.2-0.4-0.4-0.6-0.6
		c-0.2-0.2-0.2-0.2-0.2-0.3c0,0,0.1,0,0.1,0c0.1,0,0.1,0,0.2,0c0.6,0.1,1,0.3,1.3,0.6c0.3,0.3,0.4,0.5,0.4,0.8c0,0.2,0,0.3-0.1,0.4
		c-0.1,0.1-0.2,0.1-0.3,0.1c0,0-0.1,0-0.2,0C492.3,30.1,492.2,30,492.2,29.9z M498,30.6c-0.1-0.1-0.1-0.1-0.2-0.1h-1.6
		c-0.1,0-0.2,0-0.2,0.1c-0.1,0.1-0.1,0.1-0.1,0.2v0.7c0,0.1,0,0.2,0.1,0.2s0.1,0.1,0.2,0.1h1.6c0.1,0,0.2,0,0.2-0.1s0.1-0.1,0.1-0.2
		v-0.7C498.1,30.8,498.1,30.7,498,30.6z M498,32.4c-0.1-0.1-0.1-0.1-0.2-0.1h-1.6c-0.1,0-0.2,0-0.2,0.1c-0.1,0.1-0.1,0.1-0.1,0.2
		v0.8c0,0.1,0,0.2,0.1,0.2c0.1,0.1,0.1,0.1,0.2,0.1h1.6c0.1,0,0.2,0,0.2-0.1c0.1-0.1,0.1-0.1,0.1-0.2v-0.8
		C498.1,32.6,498.1,32.5,498,32.4z M498,34.3c-0.1-0.1-0.1-0.1-0.2-0.1h-1.6c-0.1,0-0.2,0-0.2,0.1c-0.1,0.1-0.1,0.1-0.1,0.2v0.8
		c0,0.1,0,0.2,0.1,0.2c0.1,0.1,0.1,0.1,0.2,0.1h1.6c0.1,0,0.2,0,0.2-0.1c0.1-0.1,0.1-0.1,0.1-0.2v-0.8
		C498.1,34.4,498.1,34.3,498,34.3z"/>
	<path class="st1" d="M506,32.9c0-0.2-0.1-0.3-0.3-0.3h0c-0.1,0-0.2,0-0.3,0.1c-0.1,0-0.1,0-0.2,0c-0.1,0-0.2-0.1-0.2-0.2l0-0.1
		c0-0.1,0-0.1,0-0.2c0-0.1,0.1-0.2,0.2-0.2c0.1,0,0.2,0,0.3,0c0.1,0,0.2,0,0.3,0h0.2c0.2,0,0.3-0.1,0.3-0.3c0.1-0.3,0.1-0.7,0.1-1
		v-0.1c0-0.2-0.1-0.2-0.2-0.2c-0.1,0-0.1,0-0.2,0.1c-0.1,0.1-0.2,0.2-0.5,0.3c-0.1,0.1-0.3,0.1-0.3,0c0,0,0,0,0-0.1
		c0-0.1,0-0.1,0.1-0.2c0.3-0.3,0.5-0.7,0.8-1.1s0.4-0.9,0.5-1.3c0.1-0.1,0.1-0.2,0.2-0.2c0.1,0,0.1,0,0.2,0c0.6,0.2,0.9,0.4,0.9,0.5
		c0,0,0,0.1-0.1,0.1l-0.1,0c-0.1,0-0.2,0.1-0.3,0.3c0,0.1,0,0.2,0.1,0.2c0,0.1,0.1,0.1,0.2,0.1h2.6c0.2,0,0.3-0.1,0.4-0.2l0.1-0.2
		c0,0,0.1-0.1,0.1-0.2c0.1-0.1,0.1-0.1,0.1-0.2s0.1-0.1,0.1-0.1c0.1,0,0.2,0.1,0.4,0.3c0.2,0.2,0.4,0.4,0.5,0.5c0,0,0.1,0.1,0.1,0.2
		c0,0.1,0,0.1-0.1,0.2c-0.1,0-0.2,0.1-0.3,0.1H507c-0.2,0-0.3,0.1-0.4,0.2V30c0,0.1,0,0.2,0.1,0.3l0.4,0.2c0.1,0.1,0.2,0.1,0.4,0.1
		h2.4c0.2,0,0.3-0.1,0.4-0.2l0.1-0.1c0,0,0-0.1,0.1-0.1c0-0.1,0.1-0.1,0.1-0.1c0,0,0.1,0,0.1,0c0.1,0,0.2,0.1,0.4,0.2
		c0.2,0.2,0.3,0.3,0.4,0.5c0,0,0.1,0.1,0.1,0.2c0,0.1-0.1,0.1-0.2,0.2l-0.1,0c-0.1,0-0.2,0.1-0.2,0.1s-0.1,0.1-0.1,0.2l0,0.4
		c0,0.2,0.1,0.3,0.2,0.3s0.2-0.1,0.3-0.2l0.1-0.2c0.1-0.1,0.1-0.1,0.2-0.1c0.1,0,0.2,0,0.2,0.1c0,0,0.1,0.1,0.4,0.4
		c0.1,0.1,0.1,0.2,0.1,0.3c0,0.1,0,0.1-0.1,0.1c0,0-0.1,0.1-0.2,0.1h-1.1c-0.2,0-0.3,0.1-0.3,0.3c0,0.2,0,0.4-0.1,0.5v0.1
		c0,0.1,0,0.2,0.1,0.2c0.1,0,0.2-0.1,0.3-0.2l0.1-0.2c0.1-0.1,0.1-0.1,0.2-0.1c0.1,0,0.1,0,0.2,0.1l0.4,0.4c0.1,0.1,0.2,0.2,0.2,0.3
		c0,0,0,0.1-0.1,0.1c-0.1,0-0.1,0-0.2,0h-1c-0.2,0-0.3,0.1-0.3,0.3c-0.1,0.2-0.1,0.3-0.1,0.4c0,0.1,0,0.1,0,0.2
		c0,0.1,0.1,0.2,0.2,0.3c0.4,0.3,0.7,0.5,0.7,0.6c0,0,0,0.1-0.1,0.1h0c-0.1,0-0.3,0-0.4,0.1l-1,0.6c-0.1,0.1-0.2,0.1-0.2,0.2
		s0,0.1,0.1,0.2c0.1,0.2,0.2,0.3,0.2,0.5c0,0.1,0,0.2-0.1,0.3c-0.1,0.1-0.2,0.1-0.3,0.1c-0.1,0-0.2-0.1-0.3-0.2
		c-0.2-0.2-0.5-0.5-0.9-0.7c-0.4-0.2-0.7-0.4-1.1-0.6c-0.1,0-0.2-0.1-0.2-0.1c-0.1,0-0.1-0.1,0-0.1c0,0,0.1-0.1,0.2-0.1
		c0.7,0,1.3,0.1,1.8,0.3c0.1,0,0.1,0,0.2,0c0.1,0,0.2,0,0.3-0.1c0.2-0.2,0.4-0.4,0.5-0.5c0.1-0.1,0.2-0.2,0.2-0.3c0,0,0-0.1-0.1-0.1
		c-0.1,0.1-0.3,0.1-0.4,0.1h0c-0.1,0-0.2-0.1-0.3-0.2c0-0.1-0.1-0.1-0.1-0.2c-0.1-0.1-0.2-0.1-0.4-0.2c-0.2,0-0.3-0.1-0.3-0.2
		c0-0.1,0.1-0.1,0.3-0.1l0.5,0c0.1,0,0.2,0,0.3,0c0.2,0,0.3,0,0.4-0.1l0,0c0,0,0-0.1,0-0.1c0-0.1,0-0.1-0.1-0.2s-0.1-0.1-0.2-0.1
		h-2.6c-0.2,0-0.3,0.1-0.3,0.3c0,0.2-0.1,0.3-0.2,0.3c-0.1,0-0.1,0-0.2,0c-0.1,0-0.1,0-0.2,0c-0.2,0-0.3-0.1-0.3-0.3L506,32.9
		L506,32.9z M508.8,39.4c0.1,0,0.1,0,0.2,0.1l0.3,0.2c0.3,0.2,0.4,0.3,0.4,0.4c0,0-0.1,0.1-0.2,0.1h0h-0.1c-0.1,0-0.2,0-0.3,0.1
		c-0.4,0.3-1,0.5-1.6,0.8c-0.6,0.3-1.3,0.5-1.9,0.6c-0.1,0-0.1,0-0.2,0c-0.1,0-0.1,0-0.2-0.1l0,0c0-0.1,0.1-0.1,0.3-0.2
		c0.5-0.2,1.1-0.5,1.6-0.9s1-0.7,1.4-1C508.7,39.4,508.8,39.4,508.8,39.4z M514,37.1c0,0,0.1-0.1,0.2-0.1c0.1,0,0.1,0,0.2,0
		c0.7,0.1,1.3,0.3,1.8,0.5c0.5,0.2,0.8,0.5,1,0.7c0.2,0.2,0.3,0.5,0.3,0.7c0,0.1,0,0.2-0.1,0.3c-0.1,0.1-0.2,0.1-0.3,0.1h0
		c0,0-0.1,0-0.2-0.1c-0.1,0-0.1-0.1-0.2-0.2c-0.1-0.1-0.3-0.3-0.5-0.5c-0.1-0.1-0.3-0.1-0.4-0.1c-0.7,0.1-1.4,0.1-2,0.1l-1.6,0.1
		c-0.2,0-0.3,0.1-0.3,0.3v0.7l0,0.8c0,0.2,0,0.5,0,0.9v0.1c0,0.1-0.1,0.2-0.2,0.3c-0.2,0.1-0.4,0.2-0.7,0.2c-0.1,0-0.1,0-0.2-0.1
		c0-0.1-0.1-0.1-0.1-0.2c0-0.5,0.1-1.1,0.1-1.8v-0.7c0-0.1,0-0.2-0.1-0.2c-0.1-0.1-0.1-0.1-0.2-0.1l-4.2,0.2c-0.2,0-0.3,0-0.3,0.1
		c0,0,0,0-0.1,0.1c0,0.1-0.1,0.1-0.1,0.1c-0.1,0-0.2-0.1-0.3-0.2l-0.3-0.5c0-0.1-0.1-0.1-0.1-0.2c0-0.1,0.1-0.2,0.3-0.2l1.5,0l2.4,0
		c0.1,0,0.3,0,0.4-0.1l0.9-0.6c0.4-0.3,0.7-0.6,1.1-0.9s0.7-0.6,0.9-0.9c0.1-0.1,0.2-0.1,0.2-0.1c0.1,0,0.1,0,0.2,0.1
		c0.5,0.4,0.8,0.6,0.8,0.7c0,0-0.1,0.1-0.2,0.1h0h-0.1c-0.1,0-0.2,0-0.3,0.1c-0.5,0.4-1.3,0.8-2.2,1.3c-0.1,0.1-0.2,0.1-0.2,0.2
		c0,0.1,0.1,0.1,0.3,0.1l3.6,0c0.1,0,0.1,0,0.2-0.1s0.1-0.1,0.1-0.1c0-0.1-0.1-0.2-0.2-0.2c-0.4-0.2-0.6-0.3-0.7-0.4
		C514,37.3,513.9,37.2,514,37.1z M508.1,32.9c0-0.2-0.1-0.3-0.3-0.3h-0.6c-0.2,0-0.3,0.1-0.3,0.3l-0.1,0.5l0,0.1
		c0,0.1,0,0.1,0.1,0.2s0.1,0.1,0.2,0.1h0.7c0.1,0,0.2,0,0.2-0.1c0.1,0,0.1-0.1,0.1-0.2L508.1,32.9L508.1,32.9z M508.3,31.3
		c0-0.2-0.1-0.3-0.3-0.3h-0.6c-0.2,0-0.3,0.1-0.3,0.3c0,0.2-0.1,0.3-0.1,0.5l0,0.1c0,0.1,0,0.1,0.1,0.2s0.1,0.1,0.2,0.1h0.6
		c0.2,0,0.3-0.1,0.3-0.3C508.2,31.7,508.3,31.6,508.3,31.3L508.3,31.3z M510.1,32.9c0-0.2-0.1-0.3-0.3-0.3h-0.8
		c-0.2,0-0.3,0.1-0.3,0.3c0,0.1,0,0.3-0.1,0.5v0.1c0,0.2,0.1,0.3,0.3,0.3h0.8c0.2,0,0.3-0.1,0.3-0.2
		C510.1,33.3,510.1,33.1,510.1,32.9L510.1,32.9z M510.3,31.4c0-0.2-0.1-0.3-0.3-0.3h-0.6c-0.2,0-0.3,0.1-0.3,0.3
		c0,0.2,0,0.4-0.1,0.5v0.1c0,0.2,0.1,0.3,0.3,0.3h0.7c0.2,0,0.3-0.1,0.3-0.3L510.3,31.4L510.3,31.4z M515.3,33.4
		c0,0.1,0,0.1,0.1,0.2c0.7,0.6,1.5,1,2.4,1.2c0.2,0.1,0.3,0.1,0.3,0.2c0,0,0,0.1-0.1,0.1c-0.1,0-0.1,0.1-0.2,0.1
		c-0.1,0.1-0.2,0.2-0.3,0.3c-0.1,0.2-0.2,0.2-0.3,0.2c0,0-0.1,0-0.2,0c-0.9-0.4-1.7-0.9-2.3-1.6c-0.1-0.1-0.1-0.1-0.2-0.1
		s-0.1,0-0.2,0.1c-0.8,0.6-1.6,1-2.5,1.4c-0.1,0-0.2,0-0.2,0c-0.1,0-0.1,0-0.1-0.1v0c0-0.1,0.1-0.1,0.2-0.2c0.9-0.5,1.7-1,2.3-1.6
		c0.1-0.1,0.1-0.1,0.1-0.2c0-0.1,0-0.1-0.1-0.2c-0.3-0.5-0.6-1.2-0.9-2c0-0.1-0.1-0.2-0.2-0.2c-0.1,0-0.1,0-0.2,0.1
		c-0.1,0.2-0.3,0.3-0.4,0.4c-0.1,0.1-0.2,0.1-0.3,0.1c0,0,0,0,0-0.1c0-0.1,0-0.2,0.1-0.2c0,0,0.1-0.1,0.1-0.2
		c0.2-0.4,0.4-0.8,0.6-1.3c0.2-0.5,0.3-1,0.4-1.4c0-0.2,0.1-0.3,0.2-0.3c0,0,0.1,0,0.1,0c0.6,0.2,1,0.4,1,0.5c0,0,0,0.1-0.1,0.1l0,0
		c-0.1,0.1-0.2,0.2-0.3,0.3l-0.3,0.5c0,0.1-0.1,0.1-0.1,0.2c0,0.1,0,0.1,0.1,0.1c0,0,0.1,0.1,0.2,0.1h2.1c0.2,0,0.3-0.1,0.4-0.2
		l0.1-0.2c0,0,0.1-0.1,0.1-0.2c0.1-0.1,0.1-0.1,0.1-0.2c0,0,0.1-0.1,0.1-0.1c0.1,0,0.2,0.1,0.5,0.3c0.2,0.2,0.4,0.4,0.5,0.5
		c0.1,0.1,0.1,0.1,0.1,0.2c0,0.1,0,0.1-0.1,0.2c-0.1,0-0.2,0.1-0.3,0.1h-0.6c-0.2,0-0.3,0.1-0.4,0.3c-0.3,0.9-0.8,1.8-1.4,2.4
		C515.3,33.3,515.3,33.3,515.3,33.4z M513,39.6c0-0.1,0.1-0.1,0.3-0.1c0.9,0.1,1.6,0.3,2.2,0.5c0.6,0.2,1,0.5,1.2,0.7
		c0.2,0.3,0.4,0.5,0.4,0.7c0,0.1,0,0.2-0.1,0.3c-0.1,0.1-0.2,0.1-0.3,0.1h0c0,0-0.1,0-0.1,0c-0.1,0-0.1-0.1-0.1-0.1
		c-0.3-0.3-0.7-0.7-1.3-1s-1.2-0.6-1.9-0.9C513.1,39.7,513,39.7,513,39.6z M514.6,32.8c0.1,0,0.2,0,0.2-0.1c0.4-0.5,0.7-1.1,0.9-1.8
		c0,0,0-0.1,0-0.1c0-0.2-0.1-0.2-0.3-0.2h-1.8c-0.1,0-0.1,0-0.2,0.1c-0.1,0-0.1,0.1-0.1,0.2c0,0,0,0.1,0,0.2c0.3,0.7,0.6,1.3,1,1.8
		C514.5,32.7,514.5,32.8,514.6,32.8z"/>
	<path class="st1" d="M520.9,31.4C521,31.3,521,31.3,520.9,31.4c0.2-0.1,0.2,0,0.3,0.2c0.1,0.4,0.1,0.8,0.1,1.3c0,0.4,0,0.7-0.1,1.1
		c-0.1,0.3-0.2,0.6-0.3,0.8c-0.1,0.1-0.2,0.2-0.3,0.3s-0.2,0.1-0.4,0.1c0,0-0.1,0-0.2,0c-0.1,0-0.2-0.1-0.2-0.3l0-0.1
		c0-0.2,0.1-0.4,0.3-0.6c0.2-0.2,0.3-0.6,0.5-1c0.2-0.5,0.2-0.9,0.3-1.4C520.9,31.5,520.9,31.4,520.9,31.4z M522,31.2
		c0-1,0-1.9-0.1-2.7v-0.1c0-0.2,0.1-0.3,0.2-0.3c0,0,0.1,0,0.1,0c0.7,0.2,1.1,0.4,1.1,0.5c0,0,0,0.1-0.1,0.2l0,0
		c-0.1,0.1-0.2,0.2-0.2,0.4V38c0,1.1,0.1,2.2,0.1,3.3v0.1c0,0.1,0,0.2-0.1,0.3c-0.1,0.1-0.2,0.1-0.3,0.2c-0.1,0.1-0.3,0.1-0.4,0.1
		c-0.1,0-0.2,0-0.3-0.1c-0.1-0.1-0.1-0.1-0.1-0.2c0-0.6,0.1-1.2,0.1-1.7c0-0.6,0-1.3,0.1-2.2V31.2z M523.3,31.2L523.3,31.2
		c0.1,0,0.2,0,0.3,0.1c0.4,0.3,0.7,0.6,0.9,0.9c0.2,0.3,0.3,0.6,0.3,0.9c0,0.2,0,0.4-0.1,0.5c-0.1,0.1-0.2,0.2-0.3,0.2
		c-0.1,0-0.1,0-0.2,0c-0.1-0.1-0.2-0.2-0.2-0.4c0-0.6-0.2-1.2-0.6-1.9C523.3,31.3,523.2,31.2,523.3,31.2z M531.3,31.1l0.2-0.2
		c0,0,0.1-0.1,0.1-0.2s0.1-0.2,0.2-0.2c0,0,0.1-0.1,0.1-0.1c0.1,0,0.3,0.1,0.5,0.3c0.3,0.2,0.5,0.4,0.6,0.6c0.1,0.1,0.1,0.1,0.1,0.2
		c0,0,0,0.1-0.1,0.1c-0.1,0.1-0.2,0.1-0.3,0.1h-5.8c-0.1,0-0.2,0-0.2,0.1c-0.1,0.1-0.1,0.1-0.1,0.2v7.7c0,0.2,0.1,0.3,0.2,0.4
		c0.1,0.1,0.4,0.1,0.7,0.1h2c1,0,1.6,0,1.9,0c0.1,0,0.2,0,0.4,0l0.2,0c0.2,0,0.3-0.1,0.3-0.1c0.1,0,0.2,0,0.3,0.1
		c0.1,0,0.2,0.1,0.2,0.2c0,0.1,0.1,0.1,0.1,0.2c0,0.2-0.1,0.3-0.3,0.4s-0.5,0.2-1,0.2c-0.5,0-1.2,0.1-2.2,0.1l-2,0
		c-0.5,0-0.8,0-1.1-0.1c-0.2-0.1-0.4-0.2-0.5-0.4c-0.1-0.2-0.1-0.4-0.1-0.7v-7.9c0-0.1,0-0.2-0.1-0.2c-0.1-0.1-0.1-0.1-0.2-0.1h-0.1
		c-0.2,0-0.3,0-0.5,0.1c-0.1,0-0.1,0-0.1,0c-0.1,0-0.2-0.1-0.3-0.2l0-0.1c0-0.1,0-0.1,0-0.2c0-0.1,0-0.1,0.1-0.1s0.1,0,0.2,0
		c0.3,0,0.9,0.1,1.5,0.1h1.7c0.2,0,0.3,0,0.3,0v0c0-1,0-1.9-0.1-2.7v-0.1c0-0.1,0-0.1,0.1-0.2s0.1-0.1,0.2-0.1c0,0,0.1,0,0.1,0
		c0.4,0.1,0.7,0.2,0.8,0.3s0.2,0.1,0.2,0.2c0,0,0,0.1-0.1,0.1l0,0c-0.1,0.1-0.2,0.2-0.2,0.4V31c0,0.1,0,0.2,0.1,0.2s0.1,0.1,0.2,0.1
		h1.6C531.1,31.3,531.3,31.3,531.3,31.1z"/>
</g>
<g class="st0">
	<path class="st1" d="M684.1,32.8c0-0.2-0.1-0.3-0.3-0.3h0c-0.1,0-0.2,0-0.3,0.1c-0.1,0-0.1,0-0.2,0c-0.1,0-0.2-0.1-0.2-0.2l0-0.1
		c0-0.1,0-0.1,0-0.2c0-0.1,0.1-0.2,0.2-0.2c0.1,0,0.2,0,0.3,0c0.1,0,0.2,0,0.3,0h0.2c0.2,0,0.3-0.1,0.3-0.3c0.1-0.3,0.1-0.7,0.1-1
		v-0.1c0-0.2-0.1-0.2-0.2-0.2c-0.1,0-0.1,0-0.2,0.1c-0.1,0.1-0.2,0.2-0.5,0.3c-0.1,0.1-0.3,0.1-0.3,0c0,0,0,0,0-0.1
		c0-0.1,0-0.1,0.1-0.2c0.3-0.3,0.5-0.7,0.8-1.1s0.4-0.9,0.5-1.3c0.1-0.1,0.1-0.2,0.2-0.2c0.1,0,0.1,0,0.2,0c0.6,0.2,0.9,0.4,0.9,0.5
		c0,0,0,0.1-0.1,0.1l-0.1,0c-0.1,0-0.2,0.1-0.3,0.3c0,0.1,0,0.2,0.1,0.2c0,0.1,0.1,0.1,0.2,0.1h2.6c0.2,0,0.3-0.1,0.4-0.2l0.1-0.2
		c0,0,0.1-0.1,0.1-0.2c0.1-0.1,0.1-0.1,0.1-0.2s0.1-0.1,0.1-0.1c0.1,0,0.2,0.1,0.4,0.3c0.2,0.2,0.4,0.4,0.5,0.5c0,0,0.1,0.1,0.1,0.2
		c0,0.1,0,0.1-0.1,0.2c-0.1,0-0.2,0.1-0.3,0.1h-4.6c-0.2,0-0.3,0.1-0.4,0.2V30c0,0.1,0,0.2,0.1,0.3l0.4,0.2c0.1,0.1,0.2,0.1,0.4,0.1
		h2.4c0.2,0,0.3-0.1,0.4-0.2l0.1-0.1c0,0,0-0.1,0.1-0.1c0-0.1,0.1-0.1,0.1-0.1c0,0,0.1,0,0.1,0c0.1,0,0.2,0.1,0.4,0.2
		c0.2,0.2,0.3,0.3,0.4,0.5c0,0,0.1,0.1,0.1,0.2c0,0.1-0.1,0.1-0.2,0.2l-0.1,0c-0.1,0-0.2,0.1-0.2,0.1s-0.1,0.1-0.1,0.2l0,0.4
		c0,0.2,0.1,0.3,0.2,0.3s0.2-0.1,0.3-0.2l0.1-0.2c0.1-0.1,0.1-0.1,0.2-0.1c0.1,0,0.2,0,0.2,0.1c0,0,0.1,0.1,0.4,0.4
		c0.1,0.1,0.1,0.2,0.1,0.3c0,0.1,0,0.1-0.1,0.1c0,0-0.1,0.1-0.2,0.1h-1.1c-0.2,0-0.3,0.1-0.3,0.3c0,0.2,0,0.4-0.1,0.5v0.1
		c0,0.1,0,0.2,0.1,0.2c0.1,0,0.2-0.1,0.3-0.2l0.1-0.2c0.1-0.1,0.1-0.1,0.2-0.1c0.1,0,0.1,0,0.2,0.1l0.4,0.4c0.1,0.1,0.2,0.2,0.2,0.3
		c0,0,0,0.1-0.1,0.1c-0.1,0-0.1,0-0.2,0h-1c-0.2,0-0.3,0.1-0.3,0.3c-0.1,0.2-0.1,0.3-0.1,0.4c0,0.1,0,0.1,0,0.2
		c0,0.1,0.1,0.2,0.2,0.3c0.4,0.3,0.7,0.5,0.7,0.6c0,0,0,0.1-0.1,0.1h0c-0.1,0-0.3,0-0.4,0.1l-1,0.6c-0.1,0.1-0.2,0.1-0.2,0.2
		s0,0.1,0.1,0.2c0.1,0.2,0.2,0.3,0.2,0.5c0,0.1,0,0.2-0.1,0.3c-0.1,0.1-0.2,0.1-0.3,0.1c-0.1,0-0.2-0.1-0.3-0.2
		c-0.2-0.2-0.5-0.5-0.9-0.7c-0.4-0.2-0.7-0.4-1.1-0.6c-0.1,0-0.2-0.1-0.2-0.1c-0.1,0-0.1-0.1,0-0.1c0,0,0.1-0.1,0.2-0.1
		c0.7,0,1.3,0.1,1.8,0.3c0.1,0,0.1,0,0.2,0c0.1,0,0.2,0,0.3-0.1c0.2-0.2,0.4-0.4,0.5-0.5c0.1-0.1,0.2-0.2,0.2-0.3c0,0,0-0.1-0.1-0.1
		c-0.1,0.1-0.3,0.1-0.4,0.1h0c-0.1,0-0.2-0.1-0.3-0.2c0-0.1-0.1-0.1-0.1-0.2c-0.1-0.1-0.2-0.1-0.4-0.2c-0.2,0-0.3-0.1-0.3-0.2
		c0-0.1,0.1-0.1,0.3-0.1l0.5,0c0.1,0,0.2,0,0.3,0c0.2,0,0.3,0,0.4-0.1l0,0c0,0,0-0.1,0-0.1c0-0.1,0-0.1-0.1-0.2s-0.1-0.1-0.2-0.1
		h-2.6c-0.2,0-0.3,0.1-0.3,0.3c0,0.2-0.1,0.3-0.2,0.3c-0.1,0-0.1,0-0.2,0c-0.1,0-0.1,0-0.2,0c-0.2,0-0.3-0.1-0.3-0.3L684.1,32.8
		L684.1,32.8z M687,39.4c0.1,0,0.1,0,0.2,0.1l0.3,0.2c0.3,0.2,0.4,0.3,0.4,0.4c0,0-0.1,0.1-0.2,0.1h0h-0.1c-0.1,0-0.2,0-0.3,0.1
		c-0.4,0.3-1,0.5-1.6,0.8c-0.6,0.3-1.3,0.5-1.9,0.6c-0.1,0-0.1,0-0.2,0c-0.1,0-0.1,0-0.2-0.1l0,0c0-0.1,0.1-0.1,0.3-0.2
		c0.5-0.2,1.1-0.5,1.6-0.9s1-0.7,1.4-1C686.8,39.4,686.9,39.4,687,39.4z M692.1,37.1c0,0,0.1-0.1,0.2-0.1c0.1,0,0.1,0,0.2,0
		c0.7,0.1,1.3,0.3,1.8,0.5c0.5,0.2,0.8,0.5,1,0.7c0.2,0.2,0.3,0.5,0.3,0.7c0,0.1,0,0.2-0.1,0.3c-0.1,0.1-0.2,0.1-0.3,0.1h0
		c0,0-0.1,0-0.2-0.1c-0.1,0-0.1-0.1-0.2-0.2c-0.1-0.1-0.3-0.3-0.5-0.5c-0.1-0.1-0.3-0.1-0.4-0.1c-0.7,0.1-1.4,0.1-2,0.1l-1.6,0.1
		c-0.2,0-0.3,0.1-0.3,0.3v0.7l0,0.8c0,0.2,0,0.5,0,0.9v0.1c0,0.1-0.1,0.2-0.2,0.3c-0.2,0.1-0.4,0.2-0.7,0.2c-0.1,0-0.1,0-0.2-0.1
		c0-0.1-0.1-0.1-0.1-0.2c0-0.5,0.1-1.1,0.1-1.8v-0.7c0-0.1,0-0.2-0.1-0.2c-0.1-0.1-0.1-0.1-0.2-0.1l-4.2,0.2c-0.2,0-0.3,0-0.3,0.1
		c0,0,0,0-0.1,0.1c0,0.1-0.1,0.1-0.1,0.1c-0.1,0-0.2-0.1-0.3-0.2l-0.3-0.5c0-0.1-0.1-0.1-0.1-0.2c0-0.1,0.1-0.2,0.3-0.2l1.5,0l2.4,0
		c0.1,0,0.3,0,0.4-0.1l0.9-0.6c0.4-0.3,0.7-0.6,1.1-0.9s0.7-0.6,0.9-0.9c0.1-0.1,0.2-0.1,0.2-0.1c0.1,0,0.1,0,0.2,0.1
		c0.5,0.4,0.8,0.6,0.8,0.7c0,0-0.1,0.1-0.2,0.1h0h-0.1c-0.1,0-0.2,0-0.3,0.1c-0.5,0.4-1.3,0.8-2.2,1.3c-0.1,0.1-0.2,0.1-0.2,0.2
		c0,0.1,0.1,0.1,0.3,0.1l3.6,0c0.1,0,0.1,0,0.2-0.1s0.1-0.1,0.1-0.1c0-0.1-0.1-0.2-0.2-0.2c-0.4-0.2-0.6-0.3-0.7-0.4
		C692.1,37.2,692.1,37.2,692.1,37.1z M686.2,32.9c0-0.2-0.1-0.3-0.3-0.3h-0.6c-0.2,0-0.3,0.1-0.3,0.3l-0.1,0.5l0,0.1
		c0,0.1,0,0.1,0.1,0.2s0.1,0.1,0.2,0.1h0.7c0.1,0,0.2,0,0.2-0.1c0.1,0,0.1-0.1,0.1-0.2L686.2,32.9L686.2,32.9z M686.4,31.3
		c0-0.2-0.1-0.3-0.3-0.3h-0.6c-0.2,0-0.3,0.1-0.3,0.3c0,0.2-0.1,0.3-0.1,0.5l0,0.1c0,0.1,0,0.1,0.1,0.2s0.1,0.1,0.2,0.1h0.6
		c0.2,0,0.3-0.1,0.3-0.3C686.3,31.7,686.4,31.6,686.4,31.3L686.4,31.3z M688.2,32.8c0-0.2-0.1-0.3-0.3-0.3h-0.8
		c-0.2,0-0.3,0.1-0.3,0.3c0,0.1,0,0.3-0.1,0.5v0.1c0,0.2,0.1,0.3,0.3,0.3h0.8c0.2,0,0.3-0.1,0.3-0.2
		C688.2,33.3,688.2,33.1,688.2,32.8L688.2,32.8z M688.4,31.3c0-0.2-0.1-0.3-0.3-0.3h-0.6c-0.2,0-0.3,0.1-0.3,0.3
		c0,0.2,0,0.4-0.1,0.5v0.1c0,0.2,0.1,0.3,0.3,0.3h0.7c0.2,0,0.3-0.1,0.3-0.3L688.4,31.3L688.4,31.3z M693.4,33.4
		c0,0.1,0,0.1,0.1,0.2c0.7,0.6,1.5,1,2.4,1.2c0.2,0.1,0.3,0.1,0.3,0.2c0,0,0,0.1-0.1,0.1c-0.1,0-0.1,0.1-0.2,0.1
		c-0.1,0.1-0.2,0.2-0.3,0.3c-0.1,0.2-0.2,0.2-0.3,0.2c0,0-0.1,0-0.2,0c-0.9-0.4-1.7-0.9-2.3-1.6c-0.1-0.1-0.1-0.1-0.2-0.1
		s-0.1,0-0.2,0.1c-0.8,0.6-1.6,1-2.5,1.4c-0.1,0-0.2,0-0.2,0c-0.1,0-0.1,0-0.1-0.1v0c0-0.1,0.1-0.1,0.2-0.2c0.9-0.5,1.7-1,2.3-1.6
		c0.1-0.1,0.1-0.1,0.1-0.2c0-0.1,0-0.1-0.1-0.2c-0.3-0.5-0.6-1.2-0.9-2c0-0.1-0.1-0.2-0.2-0.2c-0.1,0-0.1,0-0.2,0.1
		c-0.1,0.2-0.3,0.3-0.4,0.4c-0.1,0.1-0.2,0.1-0.3,0.1c0,0,0,0,0-0.1c0-0.1,0-0.2,0.1-0.2c0,0,0.1-0.1,0.1-0.2
		c0.2-0.4,0.4-0.8,0.6-1.3c0.2-0.5,0.3-1,0.4-1.4c0-0.2,0.1-0.3,0.2-0.3c0,0,0.1,0,0.1,0c0.6,0.2,1,0.4,1,0.5c0,0,0,0.1-0.1,0.1l0,0
		c-0.1,0.1-0.2,0.2-0.3,0.3l-0.3,0.5c0,0.1-0.1,0.1-0.1,0.2c0,0.1,0,0.1,0.1,0.1c0,0,0.1,0.1,0.2,0.1h2.1c0.2,0,0.3-0.1,0.4-0.2
		l0.1-0.2c0,0,0.1-0.1,0.1-0.2c0.1-0.1,0.1-0.1,0.1-0.2c0,0,0.1-0.1,0.1-0.1c0.1,0,0.2,0.1,0.5,0.3c0.2,0.2,0.4,0.4,0.5,0.5
		c0.1,0.1,0.1,0.1,0.1,0.2c0,0.1,0,0.1-0.1,0.2c-0.1,0-0.2,0.1-0.3,0.1h-0.6c-0.2,0-0.3,0.1-0.4,0.3c-0.3,0.9-0.8,1.8-1.4,2.4
		C693.4,33.2,693.4,33.3,693.4,33.4z M691.1,39.6c0-0.1,0.1-0.1,0.3-0.1c0.9,0.1,1.6,0.3,2.2,0.5c0.6,0.2,1,0.5,1.2,0.7
		c0.2,0.3,0.4,0.5,0.4,0.7c0,0.1,0,0.2-0.1,0.3c-0.1,0.1-0.2,0.1-0.3,0.1h0c0,0-0.1,0-0.1,0c-0.1,0-0.1-0.1-0.1-0.1
		c-0.3-0.3-0.7-0.7-1.3-1s-1.2-0.6-1.9-0.9C691.2,39.7,691.1,39.7,691.1,39.6z M692.7,32.8c0.1,0,0.2,0,0.2-0.1
		c0.4-0.5,0.7-1.1,0.9-1.8c0,0,0-0.1,0-0.1c0-0.2-0.1-0.2-0.3-0.2h-1.8c-0.1,0-0.1,0-0.2,0.1c-0.1,0-0.1,0.1-0.1,0.2
		c0,0,0,0.1,0,0.2c0.3,0.7,0.6,1.3,1,1.8C692.6,32.7,692.7,32.8,692.7,32.8z"/>
	<path class="st1" d="M699.1,31.4C699.1,31.3,699.1,31.3,699.1,31.4c0.2-0.1,0.2,0,0.3,0.2c0.1,0.4,0.1,0.8,0.1,1.3
		c0,0.4,0,0.7-0.1,1.1c-0.1,0.3-0.2,0.6-0.3,0.8c-0.1,0.1-0.2,0.2-0.3,0.3s-0.2,0.1-0.4,0.1c0,0-0.1,0-0.2,0c-0.1,0-0.2-0.1-0.2-0.3
		l0-0.1c0-0.2,0.1-0.4,0.3-0.6c0.2-0.2,0.3-0.6,0.5-1c0.2-0.5,0.2-0.9,0.3-1.4C699,31.5,699,31.4,699.1,31.4z M700.1,31.2
		c0-1,0-1.9-0.1-2.7v-0.1c0-0.2,0.1-0.3,0.2-0.3c0,0,0.1,0,0.1,0c0.7,0.2,1.1,0.4,1.1,0.5c0,0,0,0.1-0.1,0.2l0,0
		c-0.1,0.1-0.2,0.2-0.2,0.4v8.6c0,1.1,0.1,2.2,0.1,3.3v0.1c0,0.1,0,0.2-0.1,0.3c-0.1,0.1-0.2,0.1-0.3,0.2c-0.1,0.1-0.3,0.1-0.4,0.1
		c-0.1,0-0.2,0-0.3-0.1c-0.1-0.1-0.1-0.1-0.1-0.2c0-0.6,0.1-1.2,0.1-1.7c0-0.6,0-1.3,0.1-2.2V31.2z M701.4,31.2L701.4,31.2
		c0.1,0,0.2,0,0.3,0.1c0.4,0.3,0.7,0.6,0.9,0.9c0.2,0.3,0.3,0.6,0.3,0.9c0,0.2,0,0.4-0.1,0.5c-0.1,0.1-0.2,0.2-0.3,0.2
		c-0.1,0-0.1,0-0.2,0c-0.1-0.1-0.2-0.2-0.2-0.4c0-0.6-0.2-1.2-0.6-1.9C701.4,31.3,701.4,31.2,701.4,31.2z M709.5,31.1l0.2-0.2
		c0,0,0.1-0.1,0.1-0.2s0.1-0.2,0.2-0.2c0,0,0.1-0.1,0.1-0.1c0.1,0,0.3,0.1,0.5,0.3c0.3,0.2,0.5,0.4,0.6,0.6c0.1,0.1,0.1,0.1,0.1,0.2
		c0,0,0,0.1-0.1,0.1c-0.1,0.1-0.2,0.1-0.3,0.1H705c-0.1,0-0.2,0-0.2,0.1c-0.1,0.1-0.1,0.1-0.1,0.2v7.7c0,0.2,0.1,0.3,0.2,0.4
		c0.1,0.1,0.4,0.1,0.7,0.1h2c1,0,1.6,0,1.9,0c0.1,0,0.2,0,0.4,0l0.2,0c0.2,0,0.3-0.1,0.3-0.1c0.1,0,0.2,0,0.3,0.1
		c0.1,0,0.2,0.1,0.2,0.2c0,0.1,0.1,0.1,0.1,0.2c0,0.2-0.1,0.3-0.3,0.4s-0.5,0.2-1,0.2c-0.5,0-1.2,0.1-2.2,0.1l-2,0
		c-0.5,0-0.8,0-1.1-0.1c-0.2-0.1-0.4-0.2-0.5-0.4c-0.1-0.2-0.1-0.4-0.1-0.7v-7.9c0-0.1,0-0.2-0.1-0.2c-0.1-0.1-0.1-0.1-0.2-0.1h-0.1
		c-0.2,0-0.3,0-0.5,0.1c-0.1,0-0.1,0-0.1,0c-0.1,0-0.2-0.1-0.3-0.2l0-0.1c0-0.1,0-0.1,0-0.2c0-0.1,0-0.1,0.1-0.1s0.1,0,0.2,0
		c0.3,0,0.9,0.1,1.5,0.1h1.7c0.2,0,0.3,0,0.3,0v0c0-1,0-1.9-0.1-2.7v-0.1c0-0.1,0-0.1,0.1-0.2s0.1-0.1,0.2-0.1c0,0,0.1,0,0.1,0
		c0.4,0.1,0.7,0.2,0.8,0.3s0.2,0.1,0.2,0.2c0,0,0,0.1-0.1,0.1l0,0c-0.1,0.1-0.2,0.2-0.2,0.4V31c0,0.1,0,0.2,0.1,0.2s0.1,0.1,0.2,0.1
		h1.6C709.2,31.3,709.4,31.2,709.5,31.1z"/>
	<path class="st1" d="M716.3,40.5c-0.1,0.1-0.1,0.1-0.1,0.2c0,0.1,0,0.2,0,0.3l0,0.2c0,0.1,0,0.2-0.1,0.2c-0.1,0.1-0.2,0.2-0.3,0.2
		c-0.1,0.1-0.3,0.1-0.4,0.1c-0.1,0-0.2,0-0.2-0.1c-0.1-0.1-0.1-0.1-0.1-0.2c0-0.6,0.1-1.2,0.1-1.7c0-0.6,0-1.3,0.1-2.2v-5.5
		c0-1,0-1.8-0.1-2.6v-0.1c0-0.1,0-0.1,0.1-0.2s0.1-0.1,0.1-0.1c0.1,0,0.1,0,0.2,0l0.6,0.3c0.1,0.1,0.2,0.1,0.4,0.1h6
		c0.2,0,0.3-0.1,0.4-0.2l0.1-0.1c0,0,0.1-0.1,0.1-0.1c0-0.1,0.1-0.1,0.1-0.1c0,0,0.1,0,0.1,0c0.1,0,0.2,0.1,0.5,0.3
		c0.2,0.2,0.4,0.3,0.6,0.5c0,0,0.1,0.1,0.1,0.2c0,0.1,0,0.1-0.1,0.2c0,0-0.1,0-0.2,0.1c-0.2,0.1-0.3,0.2-0.3,0.4v7.2
		c0,1.1,0.1,2.2,0.1,3.3v0.1c0,0.1-0.1,0.2-0.2,0.3c-0.1,0.1-0.2,0.2-0.4,0.2c-0.1,0.1-0.3,0.1-0.4,0.1c-0.1,0-0.1,0-0.2-0.1
		c0,0,0-0.1,0-0.1c0,0,0-0.1,0-0.2c0,0,0-0.1,0-0.4v-0.1c0-0.1,0-0.2-0.1-0.2c-0.1-0.1-0.1-0.1-0.2-0.1h-6.1
		C716.4,40.5,716.4,40.5,716.3,40.5z M722.9,34.7c0.1-0.1,0.1-0.1,0.1-0.2v-4c0-0.1,0-0.2-0.1-0.2c-0.1-0.1-0.1-0.1-0.2-0.1h-6.1
		c-0.1,0-0.2,0-0.2,0.1s-0.1,0.1-0.1,0.2v4c0,0.1,0,0.2,0.1,0.2c0.1,0.1,0.1,0.1,0.2,0.1h6.1C722.7,34.7,722.8,34.7,722.9,34.7z
		 M716.3,35.3c-0.1,0.1-0.1,0.1-0.1,0.2v4.2c0,0.1,0,0.2,0.1,0.2c0.1,0.1,0.1,0.1,0.2,0.1h6.1c0.1,0,0.2,0,0.2-0.1
		c0.1-0.1,0.1-0.1,0.1-0.2v-4.2c0-0.1,0-0.2-0.1-0.2c-0.1-0.1-0.1-0.1-0.2-0.1h-6.1C716.4,35.2,716.4,35.2,716.3,35.3z"/>
</g>
<g class="st0">
	<path class="st1" d="M98.8,172.2L99,172c0,0,0.1-0.1,0.1-0.2c0.1-0.1,0.1-0.1,0.1-0.2c0,0,0.1-0.1,0.1-0.1c0.1,0,0.2,0.1,0.5,0.3
		s0.4,0.4,0.5,0.5c0,0.1,0.1,0.1,0.1,0.2c0,0.1,0,0.1-0.1,0.2c-0.1,0.1-0.2,0.1-0.3,0.1H96c-0.1,0-0.2,0-0.2,0.1
		c-0.1,0.1-0.1,0.1-0.1,0.2v0.7c0,0.1,0,0.2,0.1,0.2c0.1,0.1,0.1,0.1,0.2,0.1h3.5c0.2,0,0.3-0.1,0.4-0.2l0.2-0.2
		c0,0,0.1-0.1,0.1-0.2c0.1-0.1,0.1-0.1,0.2-0.2c0,0,0.1-0.1,0.1-0.1c0.1,0,0.2,0.1,0.5,0.3c0.3,0.2,0.5,0.4,0.6,0.6
		c0,0.1,0.1,0.1,0.1,0.2c0,0.1,0,0.1-0.1,0.2c-0.1,0-0.2,0.1-0.3,0.1h-5.9c-0.1,0-0.3,0.1-0.4,0.2c-0.6,0.5-1.1,1-1.7,1.3
		c-0.1,0.1-0.1,0.1-0.1,0.2c0,0.1,0,0.1,0.1,0.2c0.2,0.2,0.3,0.5,0.3,0.7c0,0.1,0,0.2-0.1,0.3c-0.1,0.1-0.2,0.1-0.3,0.1h0
		c-0.1,0-0.1,0-0.2-0.1c-0.1,0-0.1-0.1-0.2-0.2c-0.2-0.3-0.5-0.5-0.9-0.8c-0.4-0.3-0.7-0.5-1.1-0.7c-0.2-0.1-0.3-0.2-0.2-0.2
		c0-0.1,0.2-0.1,0.3-0.1c0.6,0.1,1.1,0.2,1.6,0.4c0.1,0,0.1,0,0.2,0c0.1,0,0.2-0.1,0.3-0.2c0.2-0.3,0.5-0.7,0.6-0.9
		c0,0,0.1-0.1,0.1-0.2c0-0.1-0.1-0.2-0.3-0.2h-2c-0.6,0-1.3,0.1-2,0.2h-0.1c-0.1,0-0.2-0.1-0.3-0.2l-0.1-0.1c0-0.1,0-0.1,0-0.2
		c0-0.1,0.1-0.2,0.3-0.2c0.3,0,0.9,0.1,1.5,0.1h3.7c0.1,0,0.2,0,0.2-0.1c0.1-0.1,0.1-0.1,0.1-0.2v-0.7c0-0.1,0-0.2-0.1-0.2
		c-0.1-0.1-0.1-0.1-0.2-0.1h-1.7c-0.6,0-1.3,0.1-2,0.2h-0.1c-0.1,0-0.2-0.1-0.3-0.2l-0.1-0.1c0-0.1,0-0.1,0-0.2c0-0.1,0-0.1,0.1-0.1
		c0.1,0,0.1,0,0.2,0c0.3,0,0.9,0.1,1.5,0.1h2.3c0.1,0,0.2,0,0.2-0.1c0.1-0.1,0.1-0.1,0.1-0.2v-0.7c0-0.1,0-0.2-0.1-0.2
		c-0.1-0.1-0.1-0.1-0.2-0.1h-2.2c-0.6,0-1.3,0.1-2,0.2h-0.1c-0.1,0-0.2-0.1-0.3-0.2l-0.1-0.1c0-0.1,0-0.1,0-0.2c0-0.1,0-0.1,0.1-0.1
		c0,0,0.1,0,0.2,0c0.3,0,0.9,0.1,1.5,0.1h2.9c0.2,0,0.3-0.1,0.3-0.3l0-0.8v0c0-0.2,0.1-0.3,0.2-0.3l0.1,0c0.4,0.1,0.6,0.2,0.8,0.3
		s0.2,0.1,0.2,0.2c0,0,0,0.1-0.1,0.2l0,0c-0.1,0.1-0.2,0.2-0.2,0.4v0c0,0.1,0,0.2,0.1,0.2c0.1,0.1,0.1,0.1,0.2,0.1h2.9
		c0.2,0,0.3-0.1,0.4-0.2l0.2-0.2c0,0,0.1-0.1,0.1-0.2c0.1-0.1,0.1-0.1,0.1-0.2s0.1-0.1,0.1-0.1c0.1,0,0.3,0.1,0.5,0.3
		c0.3,0.2,0.5,0.4,0.6,0.5c0.1,0.1,0.1,0.1,0.1,0.2c0,0.1,0,0.1-0.1,0.2c-0.1,0-0.2,0.1-0.3,0.1H96c-0.1,0-0.2,0-0.2,0.1
		c-0.1,0.1-0.1,0.1-0.1,0.2v0.7c0,0.1,0,0.2,0.1,0.2c0.1,0.1,0.1,0.1,0.2,0.1h2.4C98.6,172.4,98.7,172.3,98.8,172.2z M92.5,179.6
		c0.1,0,0.1,0,0.2,0.1l0.3,0.2c0,0,0.1,0.1,0.3,0.2c0.2,0.1,0.3,0.2,0.3,0.3c0,0.1-0.1,0.1-0.2,0.1h0c-0.2,0-0.3,0-0.4,0.1
		c-0.5,0.4-1.1,0.7-1.7,1s-1.4,0.6-2.1,0.8l-0.2,0c-0.1,0-0.1,0-0.1-0.1c0,0,0,0,0,0c0-0.1,0.1-0.1,0.2-0.2c0.4-0.2,0.8-0.5,1.2-0.7
		c0.4-0.2,0.7-0.5,1.1-0.8c0.4-0.3,0.6-0.6,0.9-0.9C92.4,179.6,92.4,179.6,92.5,179.6z M94.4,178.1
		C94.4,178.1,94.4,178.2,94.4,178.1c0.1,0.1,0.2,0.1,0.3,0.1l4.1-0.1c0.1,0,0.2,0,0.2-0.1c0,0,0.1-0.1,0.1-0.1c0-0.1,0-0.1-0.1-0.2
		c-0.2-0.1-0.5-0.4-0.9-0.6c-0.2-0.1-0.3-0.2-0.2-0.3c0,0,0.1,0,0.1,0c0.1,0,0.1,0,0.2,0c0.8,0.2,1.4,0.4,1.9,0.7s0.8,0.6,1.1,0.9
		c0.2,0.3,0.3,0.6,0.3,0.8c0,0.2,0,0.3-0.1,0.4s-0.2,0.1-0.3,0.1h-0.1c-0.1,0-0.2-0.1-0.3-0.3c-0.2-0.2-0.4-0.5-0.6-0.8
		c-0.1-0.1-0.2-0.2-0.4-0.1c-1,0.1-2.2,0.2-3.6,0.3c-0.2,0-0.3,0.1-0.3,0.3v1c0,1,0.1,1.7,0.1,2.2v0.1c0,0.1,0,0.2-0.1,0.3
		c-0.2,0.1-0.4,0.2-0.7,0.2c-0.1,0-0.1,0-0.2-0.1c-0.1-0.1-0.1-0.1-0.1-0.2c0.1-0.8,0.1-1.6,0.1-2.4v-1c0-0.2-0.1-0.3-0.3-0.3
		l-4.3,0.3c-0.1,0-0.2,0-0.3,0.1l-0.1,0.1c-0.1,0-0.1,0.1-0.1,0.1c-0.1,0-0.1,0-0.1-0.1c-0.1,0-0.1-0.1-0.1-0.1l-0.2-0.5
		c0,0,0-0.1,0-0.2c0-0.1,0-0.1,0.1-0.2s0.1-0.1,0.2-0.1c1,0,2.2,0,3.7,0c0.1,0,0.3,0,0.4-0.1c0.4-0.3,0.9-0.7,1.4-1.1
		c0.8-0.7,1.4-1.3,1.8-2c0.1-0.1,0.1-0.2,0.3-0.2c0.1,0,0.1,0,0.2,0.1c0.6,0.3,0.9,0.6,0.9,0.7c0,0,0,0.1-0.1,0.1h-0.1
		c-0.1,0-0.2,0.1-0.3,0.1c-0.7,0.6-1.6,1.3-2.9,2C94.5,178,94.4,178,94.4,178.1z M96.8,179.9c0,0,0.1-0.1,0.3-0.1
		c0.9,0.1,1.7,0.3,2.3,0.6c0.6,0.3,1,0.6,1.3,0.9s0.4,0.6,0.4,0.8c0,0.1,0,0.2-0.1,0.3c-0.1,0.1-0.2,0.1-0.3,0.1h0c0,0-0.1,0-0.2,0
		c-0.1,0-0.1-0.1-0.1-0.1c-0.3-0.4-0.8-0.8-1.4-1.2s-1.2-0.8-1.9-1.1C96.8,180.1,96.8,180,96.8,179.9z"/>
	<path class="st1" d="M103.7,172.7c0,0,0.1-0.1,0.2-0.1c0.1,0,0.1,0,0.1,0c0.7,0.1,1.2,0.3,1.6,0.6c0.3,0.3,0.5,0.6,0.5,0.9
		c0,0.2,0,0.3-0.1,0.4c-0.1,0.1-0.2,0.2-0.3,0.2c-0.1,0-0.1,0-0.1,0c-0.1,0-0.2-0.1-0.3-0.3c-0.1-0.2-0.3-0.5-0.5-0.8
		s-0.5-0.5-0.8-0.7C103.7,172.9,103.6,172.8,103.7,172.7z M104.3,178.7h0.3c0.1,0,0.2,0,0.2,0s0.1-0.1,0.2-0.3
		c0.2-0.4,0.8-1.8,1.8-4l1-2.2c0.1-0.2,0.2-0.3,0.2-0.3c0.1,0,0.1,0,0.1,0.1c0,0.1,0,0.1,0,0.2l-0.8,2.1c-0.1,0.2-0.3,0.9-0.7,1.8
		c-0.3,1-0.6,1.6-0.6,1.8c-0.2,0.6-0.2,1-0.2,1.3c0,0.1,0,0.3,0.1,0.4c0,0.2,0.1,0.3,0.1,0.4c0.1,0.3,0.1,0.5,0.2,0.8
		c0,0.2,0.1,0.5,0.1,0.8c0,0.4-0.1,0.7-0.2,0.9c-0.1,0.2-0.3,0.3-0.6,0.3c-0.2,0-0.4-0.2-0.4-0.5c0,0,0-0.1,0-0.2s0-0.1,0-0.2
		c0-0.5,0.1-1,0.1-1.3c0-0.4,0-0.7-0.1-0.9c-0.1-0.2-0.1-0.4-0.2-0.5c-0.1-0.1-0.2-0.2-0.4-0.2c-0.2,0-0.3-0.1-0.3-0.2
		C104,178.7,104.1,178.7,104.3,178.7z M104.9,169.4c0,0,0.1,0,0.1,0c0.1,0,0.1,0,0.2,0c0.7,0.1,1.3,0.4,1.6,0.7
		c0.3,0.3,0.5,0.6,0.5,0.9c0,0.2,0,0.3-0.1,0.4c-0.1,0.1-0.2,0.2-0.4,0.2c-0.1,0-0.1,0-0.1,0c-0.1,0-0.2-0.1-0.3-0.3
		c-0.1-0.3-0.3-0.5-0.5-0.8c-0.2-0.3-0.5-0.5-0.8-0.8C104.9,169.5,104.9,169.5,104.9,169.4z M115.1,171.8l0.1-0.1
		c0,0,0.1-0.1,0.1-0.1c0-0.1,0.1-0.1,0.1-0.1c0,0,0.1,0,0.1,0c0.1,0,0.2,0.1,0.4,0.2c0.2,0.2,0.4,0.3,0.5,0.5c0,0,0.1,0.1,0.1,0.2
		c0,0.1,0,0.1-0.1,0.2c0,0,0,0-0.1,0c0,0-0.1,0-0.1,0c-0.2,0.1-0.3,0.2-0.3,0.3v6c0,1.1,0.1,2.2,0.1,3.3v0.1c0,0.1-0.1,0.2-0.1,0.3
		c-0.2,0.2-0.5,0.3-0.8,0.3c-0.1,0-0.1,0-0.2-0.1c0,0,0-0.1,0-0.1c0,0,0-0.1,0-0.2c0,0,0-0.1,0-0.4v-0.1c0-0.1,0-0.2-0.1-0.2
		c-0.1-0.1-0.1-0.1-0.2-0.1H110c-0.1,0-0.2,0-0.2,0.1c-0.1,0.1-0.1,0.1-0.1,0.2v0c0,0.2,0,0.4,0,0.4v0.1c0,0.1,0,0.2-0.1,0.3
		c-0.2,0.2-0.4,0.2-0.7,0.2c-0.1,0-0.2,0-0.2-0.1c-0.1-0.1-0.1-0.1-0.1-0.2c0-0.6,0.1-1.2,0.1-1.7c0-0.6,0.1-1.3,0.1-2.2v-4.2
		c0-1,0-1.9-0.1-2.6v-0.1c0-0.1,0.1-0.2,0.2-0.2c0.1,0,0.1,0,0.1,0l0.7,0.3c0.1,0,0.2,0.1,0.4,0.1h0.9c0.2,0,0.3-0.1,0.3-0.3
		c0.2-0.7,0.3-1.5,0.3-2.3c0-0.1,0-0.2,0.1-0.2s0.1-0.1,0.2,0l1.1,0.3c0.1,0,0.1,0.1,0.2,0.1c0,0,0.1,0.1,0.1,0.1c0,0,0,0.1-0.1,0.1
		l-0.1,0c0,0-0.1,0-0.2,0.1s-0.1,0.1-0.2,0.2c-0.2,0.4-0.5,0.9-0.9,1.5c0,0-0.1,0.1-0.1,0.2c0,0.1,0.1,0.2,0.3,0.2h2.7
		C114.9,172,115.1,171.9,115.1,171.8z M115,176.2c0.1-0.1,0.1-0.1,0.1-0.2v-3.3c0-0.1,0-0.2-0.1-0.2c-0.1-0.1-0.1-0.1-0.2-0.1H110
		c-0.1,0-0.2,0-0.2,0.1c-0.1,0.1-0.1,0.1-0.1,0.2v3.3c0,0.1,0,0.2,0.1,0.2c0.1,0.1,0.1,0.1,0.2,0.1h4.8
		C114.9,176.3,114.9,176.3,115,176.2z M109.7,176.8c-0.1,0.1-0.1,0.1-0.1,0.2v3.7c0,0.1,0,0.2,0.1,0.2c0.1,0.1,0.1,0.1,0.2,0.1h4.8
		c0.1,0,0.2,0,0.2-0.1c0.1-0.1,0.1-0.1,0.1-0.2v-3.7c0-0.1,0-0.2-0.1-0.2c-0.1-0.1-0.1-0.1-0.2-0.1H110
		C109.9,176.7,109.8,176.8,109.7,176.8z"/>
	<path class="st1" d="M123.9,179.6c0.7,0.2,1.2,0.5,1.6,0.8c0.4,0.3,0.6,0.7,0.6,1.1c0,0.2,0,0.3-0.1,0.3s-0.1,0.1-0.2,0.1
		c-0.2,0-0.4-0.1-0.6-0.3c-0.1-0.1-0.2-0.2-0.5-0.4c-0.3-0.2-0.5-0.5-0.8-0.7c0,0-0.1-0.1-0.2-0.1c-0.1,0-0.2,0.1-0.2,0.2
		c-0.2,0.4-0.4,0.8-0.8,1s-0.9,0.4-1.5,0.4c-0.6,0-1.1-0.1-1.6-0.4c-0.5-0.3-0.7-0.6-0.7-1.1c0-0.3,0.1-0.6,0.4-0.8
		c0.2-0.2,0.5-0.4,0.9-0.5c0.4-0.1,0.7-0.2,1.1-0.2c0.3,0,0.6,0,1.1,0.1l0.1,0c0.2,0,0.3-0.1,0.2-0.3c0-0.2,0-0.6-0.1-1.1
		c0-0.2,0-0.5-0.1-0.9c0-0.2-0.1-0.3-0.3-0.3c-0.5,0.1-0.9,0.1-1.2,0.1c-0.5,0-1-0.1-1.4-0.3s-0.7-0.5-0.8-0.9c0-0.1,0-0.1,0-0.2
		c0,0,0-0.1,0.1-0.1c0,0,0.1,0,0.1,0s0.1,0,0.1,0.1c0.2,0.1,0.4,0.3,0.8,0.4c0.3,0.1,0.7,0.2,1.1,0.2c0.3,0,0.8,0,1.4-0.1
		c0.2,0,0.3-0.1,0.3-0.3v-0.2c0-0.6,0-1.2,0-1.9v-0.1c0-0.2,0-0.2-0.1-0.2h-0.1c-0.3,0-0.5,0-0.8-0.1c-0.2-0.1-0.4-0.2-0.6-0.4
		c-0.2-0.2-0.4-0.3-0.5-0.5c-0.1-0.1-0.1-0.2-0.1-0.2c0,0,0-0.1,0.1-0.1c0.1,0,0.1,0,0.2,0.1l0.3,0.2c0.2,0.1,0.3,0.2,0.4,0.2
		c0.1,0,0.3,0.1,0.5,0.1c0.1,0,0.3,0,0.5-0.1c0.2,0,0.3-0.1,0.3-0.3c0.1-0.4,0.1-0.7,0.1-0.9c0-0.3-0.1-0.6-0.2-0.8
		c-0.1-0.1-0.2-0.3-0.3-0.4c-0.1-0.1-0.1-0.1-0.1-0.2c0-0.1-0.1-0.1-0.1-0.1c0-0.1,0-0.1,0.1-0.2s0.1-0.1,0.2-0.1s0.2,0,0.4,0.1
		s0.4,0.2,0.5,0.3c0.1,0.2,0.2,0.4,0.2,0.6c0,0.1,0,0.3-0.1,0.6s-0.1,0.5-0.2,0.7c0,0,0,0.1,0.1,0.2s0.1,0.1,0.2,0.1l0.4-0.1
		c0.1,0,0.2,0,0.3,0c0.1,0,0.2,0,0.3,0.1c0.1,0,0.1,0.1,0.1,0.2c0,0.1,0,0.2-0.1,0.3c-0.1,0.1-0.2,0.2-0.3,0.2
		c-0.2,0.1-0.5,0.2-0.9,0.3c-0.2,0-0.3,0.2-0.3,0.3c0,0.5-0.1,1-0.1,1.6c0,0.2,0,0.3,0,0.4c0,0.1,0,0.2,0.1,0.2
		c0.1,0.1,0.2,0.1,0.3,0c0.4-0.1,0.6-0.2,0.8-0.4c0.2-0.1,0.2-0.2,0.2-0.3s-0.1-0.3-0.3-0.5c0,0,0-0.1-0.1-0.1s-0.1-0.1-0.1-0.1
		c-0.1-0.1-0.1-0.2-0.1-0.2c0,0,0,0,0,0c0,0,0.1,0.1,0.3,0.2c0.2,0.2,0.5,0.3,0.8,0.4c0.1,0,0.2,0.1,0.3,0.1c0.2,0,0.3,0.1,0.4,0.1
		c0.1,0.1,0.1,0.2,0.1,0.3c0,0.1,0,0.3-0.1,0.5c-0.1,0.1-0.3,0.3-0.5,0.4c-0.4,0.2-1,0.4-1.8,0.6c-0.2,0.1-0.3,0.2-0.3,0.5
		c0,0.3,0.1,0.9,0.2,1.6l0.1,0.7C123.6,179.5,123.7,179.6,123.9,179.6z M122.2,181.1c0.3-0.2,0.5-0.5,0.6-0.9v-0.1
		c0-0.1-0.1-0.2-0.2-0.3c-0.5-0.2-0.9-0.2-1.4-0.2c-0.4,0-0.8,0.1-1.2,0.3c-0.4,0.2-0.5,0.4-0.5,0.7c0,0.2,0.1,0.4,0.4,0.6
		c0.3,0.1,0.6,0.2,1,0.2C121.4,181.4,121.9,181.3,122.2,181.1z"/>
	<path class="st1" d="M132.5,172.8c0.3,0.3,0.6,0.8,0.8,1.4c0.2,0.6,0.3,1.2,0.3,2c0,1.5-0.3,2.8-1,3.8c-0.7,1-1.7,1.8-3.2,2.3
		c-0.1,0-0.2,0.1-0.3,0.1c-0.1,0-0.1,0-0.1-0.1c0,0,0-0.1,0.1-0.1c1.3-0.5,2.2-1.4,2.7-2.5s0.8-2.2,0.8-3.4c0-0.9-0.1-1.7-0.4-2.4
		c-0.3-0.7-0.6-1-1-1c-0.3,0-0.6,0.2-0.9,0.6c-0.3,0.4-0.5,0.9-0.7,1.4c-0.2,0.5-0.3,1-0.3,1.4c0,0.2,0,0.3,0.1,0.5
		c0.1,0.2,0.1,0.3,0.2,0.5c0.1,0.1,0.1,0.2,0.2,0.4c0,0.1,0.1,0.2,0.1,0.3c0,0.1,0,0.2-0.1,0.2c-0.1,0.1-0.2,0.1-0.3,0.1
		c-0.2,0-0.5-0.1-0.7-0.4c-0.2-0.2-0.3-0.5-0.4-0.9c-0.1-0.3-0.1-0.7-0.1-1c0-0.4,0.1-0.9,0.2-1.4s0.2-1.2,0.4-2
		c0.1-0.4,0.2-0.7,0.2-1.1c0.1-0.4,0.1-0.6,0.1-0.8c0-0.2-0.1-0.4-0.2-0.6c-0.1-0.1-0.1-0.1-0.2-0.2s-0.1-0.1-0.1-0.2
		c0,0,0-0.1,0.1-0.1c0.1,0,0.2,0,0.3,0c0.2,0,0.5,0.1,0.6,0.3c0.2,0.2,0.3,0.5,0.3,0.9c0,0.3,0,0.7-0.1,1s-0.2,0.8-0.4,1.3l-0.1,0.5
		c0,0,0.1,0.1,0.1,0.1c0.1,0,0.2-0.1,0.2-0.2c0.5-0.8,1.1-1.2,1.8-1.2C131.8,172.3,132.1,172.5,132.5,172.8z"/>
</g>
<g class="st0">
	<path class="st1" d="M292.1,110.6c-0.1,0-0.1-0.1-0.1-0.2c0-0.2,0-0.2,0.1-0.2h0.2c0.5,0,0.9-0.1,1.2-0.2c0.3-0.1,0.5-0.4,0.5-0.7
		v-7.2c0-0.3,0-0.5-0.1-0.6c-0.1-0.1-0.2-0.2-0.4-0.2s-0.6-0.1-1.1-0.1h-0.3c-0.1,0-0.1-0.1-0.1-0.2c0-0.1,0-0.2,0.1-0.2
		c0.5,0,1-0.1,1.5-0.2s0.8-0.4,1.2-0.7c0.1-0.1,0.1-0.1,0.2-0.1c0.1,0,0.2,0.1,0.2,0.3v9.2c0,0.6,0.5,0.9,1.6,0.9h0.2
		c0,0,0.1,0,0.1,0.1c0,0,0,0.1,0,0.2c0,0.1,0,0.2-0.1,0.2H292.1z"/>
	<path class="st1" d="M305.3,107.6c0.1,0.1,0.1,0.1,0.1,0.2c0,0.1,0,0.2-0.1,0.2c-0.1,0.1-0.1,0.1-0.2,0.1H304c-0.1,0-0.2,0-0.2,0.1
		c-0.1,0.1-0.1,0.1-0.1,0.2v1.2c0,0.2,0.1,0.4,0.3,0.4c0.2,0.1,0.4,0.1,0.8,0.1h0.2c0.1,0,0.1,0.1,0.1,0.2c0,0.1,0,0.2-0.1,0.2h-3.6
		c-0.1,0-0.1-0.1-0.1-0.2c0-0.1,0-0.2,0.1-0.2h0.2c0.3,0,0.6,0,0.8-0.1c0.2-0.1,0.3-0.2,0.3-0.4v-1.2c0-0.1,0-0.2-0.1-0.2
		c-0.1-0.1-0.1-0.1-0.2-0.1h-3.4c-0.1,0-0.2,0-0.2-0.1c-0.1-0.1-0.1-0.1-0.1-0.2v-0.1c0-0.2,0-0.3,0.1-0.4l4.3-7.5
		c0.1-0.2,0.2-0.2,0.4-0.2l0.1,0c0.2,0,0.3,0.2,0.3,0.3v7.2c0,0.1,0,0.2,0.1,0.2c0.1,0.1,0.1,0.1,0.2,0.1h1.1
		C305.1,107.5,305.2,107.6,305.3,107.6z M302.5,102.3c0,0-0.1-0.1-0.1-0.1c-0.1,0-0.2,0.1-0.2,0.2l-2.7,4.7c0,0.1,0,0.1,0,0.2
		c0,0.1,0.1,0.2,0.3,0.2h2.6c0.1,0,0.2,0,0.2-0.1c0.1-0.1,0.1-0.1,0.1-0.2v-4.7C302.5,102.5,302.5,102.4,302.5,102.3z"/>
	<path class="st1" d="M306.8,112.2C306.8,112.2,306.8,112.1,306.8,112.2c0-0.1,0-0.1,0-0.1c0.2-0.2,0.3-0.3,0.4-0.5
		c0.1-0.2,0.1-0.3,0.1-0.4c0-0.2-0.1-0.3-0.2-0.3c-0.2-0.1-0.3-0.2-0.4-0.3c-0.1-0.1-0.1-0.3-0.1-0.4c0-0.2,0.1-0.4,0.2-0.6
		c0.2-0.2,0.4-0.2,0.6-0.2s0.4,0.1,0.6,0.2c0.2,0.2,0.2,0.4,0.2,0.6c0,0.5-0.1,0.9-0.4,1.2c-0.3,0.4-0.6,0.7-0.9,0.9L306.8,112.2
		C306.9,112.2,306.8,112.2,306.8,112.2z"/>
	<path class="st1" d="M311.6,110.2c-0.5-0.4-0.9-1-1.2-1.9c-0.3-0.8-0.4-1.9-0.4-3.1s0.1-2.2,0.4-3.1c0.3-0.9,0.7-1.5,1.2-1.9
		c0.5-0.4,1-0.6,1.6-0.6c0.6,0,1.1,0.2,1.6,0.6c0.5,0.4,0.9,1.1,1.2,1.9c0.3,0.8,0.4,1.9,0.4,3.1s-0.2,2.2-0.5,3.1
		c-0.3,0.8-0.7,1.5-1.2,1.9c-0.5,0.4-1,0.6-1.6,0.6C312.7,110.8,312.1,110.6,311.6,110.2z M314.6,109.1c0.3-0.8,0.5-2.1,0.5-3.8
		c0-1.7-0.2-3-0.5-3.8c-0.3-0.9-0.8-1.3-1.4-1.3c-0.6,0-1.1,0.4-1.4,1.3c-0.3,0.9-0.5,2.1-0.5,3.8c0,1.7,0.2,3,0.5,3.8
		c0.3,0.8,0.8,1.3,1.4,1.3C313.8,110.3,314.3,109.9,314.6,109.1z"/>
	<path class="st1" d="M319.4,110.2c-0.5-0.4-0.9-1-1.2-1.9c-0.3-0.8-0.4-1.9-0.4-3.1s0.1-2.2,0.4-3.1c0.3-0.9,0.7-1.5,1.2-1.9
		c0.5-0.4,1-0.6,1.6-0.6c0.6,0,1.1,0.2,1.6,0.6c0.5,0.4,0.9,1.1,1.2,1.9c0.3,0.8,0.4,1.9,0.4,3.1s-0.2,2.2-0.5,3.1
		c-0.3,0.8-0.7,1.5-1.2,1.9c-0.5,0.4-1,0.6-1.6,0.6C320.5,110.8,319.9,110.6,319.4,110.2z M322.4,109.1c0.3-0.8,0.5-2.1,0.5-3.8
		c0-1.7-0.2-3-0.5-3.8c-0.3-0.9-0.8-1.3-1.4-1.3c-0.6,0-1.1,0.4-1.4,1.3c-0.3,0.9-0.5,2.1-0.5,3.8c0,1.7,0.2,3,0.5,3.8
		c0.3,0.8,0.8,1.3,1.4,1.3C321.6,110.3,322.1,109.9,322.4,109.1z"/>
	<path class="st1" d="M327.2,110.2c-0.5-0.4-0.9-1-1.2-1.9c-0.3-0.8-0.4-1.9-0.4-3.1s0.1-2.2,0.4-3.1c0.3-0.9,0.7-1.5,1.2-1.9
		c0.5-0.4,1-0.6,1.6-0.6c0.6,0,1.1,0.2,1.6,0.6c0.5,0.4,0.9,1.1,1.2,1.9c0.3,0.8,0.4,1.9,0.4,3.1s-0.2,2.2-0.5,3.1
		c-0.3,0.8-0.7,1.5-1.2,1.9c-0.5,0.4-1,0.6-1.6,0.6C328.3,110.8,327.7,110.6,327.2,110.2z M330.2,109.1c0.3-0.8,0.5-2.1,0.5-3.8
		c0-1.7-0.2-3-0.5-3.8c-0.3-0.9-0.8-1.3-1.4-1.3c-0.6,0-1.1,0.4-1.4,1.3c-0.3,0.9-0.5,2.1-0.5,3.8c0,1.7,0.2,3,0.5,3.8
		c0.3,0.8,0.8,1.3,1.4,1.3C329.4,110.3,329.9,109.9,330.2,109.1z"/>
	<path class="st1" d="M335.7,105.3c-0.1,0.1-0.1,0.1-0.1,0.2v2.3c0,1.1,0.1,2.2,0.1,3.3v0.1c0,0.1,0,0.2-0.1,0.3
		c-0.2,0.2-0.4,0.3-0.8,0.3c-0.1,0-0.2,0-0.2-0.1c-0.1-0.1-0.1-0.1-0.1-0.2c0-0.6,0.1-1.2,0.1-1.7c0-0.6,0-1.3,0.1-2.2v-5.7
		c0-1,0-1.8-0.1-2.6v-0.1c0-0.2,0.1-0.2,0.2-0.2c0,0,0.1,0,0.2,0l0.6,0.3c0.1,0.1,0.3,0.1,0.4,0.1h8.5c0.2,0,0.3-0.1,0.4-0.2
		l0.1-0.1c0,0,0.1-0.1,0.1-0.2c0.1-0.1,0.1-0.1,0.2-0.1c0.1,0,0.2,0.1,0.5,0.3c0.2,0.2,0.4,0.3,0.6,0.5c0,0.1,0.1,0.1,0.1,0.2
		c0,0.1,0,0.1-0.1,0.2c0,0-0.1,0-0.1,0c0,0-0.1,0-0.1,0c-0.2,0.1-0.3,0.2-0.3,0.3v10c0,0.4-0.1,0.7-0.3,0.9
		c-0.2,0.2-0.6,0.4-1.1,0.4l-0.1,0c-0.1,0-0.2-0.1-0.3-0.3c-0.1-0.2-0.2-0.3-0.3-0.4c-0.2-0.2-0.7-0.3-1.2-0.3
		c-0.2,0-0.3-0.1-0.3-0.2s0.1-0.1,0.3-0.1c1,0.1,1.6,0.1,1.9,0.1c0.2,0,0.3,0,0.3-0.1c0.1-0.1,0.1-0.2,0.1-0.3v-4.6
		c0-0.1,0-0.2-0.1-0.2c-0.1-0.1-0.1-0.1-0.2-0.1H336C335.9,105.2,335.8,105.2,335.7,105.3z M339.6,99.9c-0.1-0.1-0.1-0.1-0.2-0.1
		H336c-0.1,0-0.2,0-0.2,0.1c-0.1,0.1-0.1,0.1-0.1,0.2v4.3c0,0.1,0,0.2,0.1,0.2c0.1,0.1,0.1,0.1,0.2,0.1h3.4c0.1,0,0.2,0,0.2-0.1
		c0.1-0.1,0.1-0.1,0.1-0.2v-4.3C339.7,100.1,339.7,100,339.6,99.9z M340.8,99.9c-0.1,0.1-0.1,0.1-0.1,0.2v4.3c0,0.1,0,0.2,0.1,0.2
		c0.1,0.1,0.1,0.1,0.2,0.1h3.5c0.1,0,0.2,0,0.2-0.1c0.1-0.1,0.1-0.1,0.1-0.2v-4.3c0-0.1,0-0.2-0.1-0.2c-0.1-0.1-0.1-0.1-0.2-0.1H341
		C340.9,99.8,340.8,99.9,340.8,99.9z"/>
</g>
<g class="st0">
	<path class="st1" d="M484.3,110.6c-0.1,0-0.1-0.1-0.1-0.2c0-0.2,0-0.2,0.1-0.2h0.2c0.5,0,0.9-0.1,1.2-0.2c0.3-0.1,0.4-0.4,0.4-0.7
		v-7.2c0-0.3,0-0.5-0.1-0.6c-0.1-0.1-0.2-0.2-0.4-0.2s-0.6-0.1-1.1-0.1h-0.3c-0.1,0-0.1-0.1-0.1-0.2c0-0.1,0-0.2,0.1-0.2
		c0.5,0,1-0.1,1.5-0.2s0.8-0.4,1.2-0.7c0.1-0.1,0.1-0.1,0.2-0.1c0.1,0,0.2,0.1,0.2,0.3v9.2c0,0.6,0.5,0.9,1.6,0.9h0.2
		c0,0,0.1,0,0.1,0.1c0,0,0,0.1,0,0.2c0,0.1,0,0.2-0.1,0.2H484.3z"/>
	<path class="st1" d="M495.3,103.9c0.5,0.2,0.9,0.6,1.2,1.1c0.4,0.5,0.5,1.2,0.5,2.2c0,0.7-0.2,1.4-0.5,1.9c-0.3,0.6-0.8,1-1.3,1.3
		c-0.5,0.3-1,0.5-1.5,0.5c-0.5,0-0.9-0.1-1.4-0.3c-0.4-0.2-0.8-0.4-1.1-0.8s-0.4-0.7-0.4-1.2c0-0.3,0.1-0.6,0.2-0.7
		c0.1-0.1,0.3-0.2,0.5-0.2c0.2,0,0.4,0.1,0.6,0.2s0.3,0.3,0.3,0.5c0,0.1,0,0.3-0.1,0.5c0,0,0,0.1,0,0.2c0,0.1,0,0.2,0,0.2
		c0,0.4,0.1,0.6,0.4,0.8c0.3,0.2,0.6,0.3,1,0.3c0.4,0,0.7-0.1,1-0.4c0.3-0.3,0.6-0.6,0.8-1.1c0.2-0.5,0.3-1,0.3-1.6
		c0-0.9-0.2-1.6-0.6-2.2c-0.4-0.5-0.9-0.8-1.5-0.8c-0.7,0-1.3,0.4-2,1.2c-0.1,0.1-0.1,0.1-0.2,0.2h-0.1c-0.1,0-0.1,0-0.1,0h0
		c-0.1-0.1-0.2-0.2-0.2-0.4l0.2-5.1c0-0.1,0-0.2,0.1-0.2c0.1-0.1,0.1-0.1,0.2-0.1h4.6c0.1,0,0.2,0,0.2,0.1c0.1,0.1,0.1,0.1,0,0.3
		l-0.1,0.5c0,0.1,0,0.2-0.1,0.2s-0.1,0.1-0.2,0.1h-4c-0.2,0-0.3,0.1-0.3,0.3l-0.1,3.1c0,0.1,0,0.2,0.2,0.2c0.1,0,0.2-0.1,0.4-0.2
		c0.3-0.2,0.6-0.4,0.9-0.5c0.3-0.1,0.6-0.1,0.9-0.1C494.4,103.6,494.9,103.7,495.3,103.9z"/>
	<path class="st1" d="M499.1,112.2C499,112.2,499,112.1,499.1,112.2c0-0.1,0-0.1,0-0.1c0.2-0.2,0.3-0.3,0.4-0.5
		c0.1-0.2,0.1-0.3,0.1-0.4c0-0.2-0.1-0.3-0.2-0.3c-0.2-0.1-0.3-0.2-0.4-0.3c-0.1-0.1-0.1-0.3-0.1-0.4c0-0.2,0.1-0.4,0.2-0.6
		s0.4-0.2,0.6-0.2s0.4,0.1,0.6,0.2s0.2,0.4,0.2,0.6c0,0.5-0.1,0.9-0.4,1.2c-0.3,0.4-0.6,0.7-0.9,0.9L499.1,112.2
		C499.1,112.2,499.1,112.2,499.1,112.2z"/>
	<path class="st1" d="M503.9,110.2c-0.5-0.4-0.9-1-1.2-1.9c-0.3-0.8-0.4-1.9-0.4-3.1s0.1-2.2,0.5-3.1c0.3-0.9,0.7-1.5,1.2-1.9
		c0.5-0.4,1-0.6,1.6-0.6c0.6,0,1.1,0.2,1.6,0.6c0.5,0.4,0.9,1.1,1.2,1.9c0.3,0.8,0.4,1.9,0.4,3.1s-0.2,2.2-0.4,3.1
		c-0.3,0.8-0.7,1.5-1.2,1.9c-0.5,0.4-1,0.6-1.6,0.6C504.9,110.8,504.4,110.6,503.9,110.2z M506.9,109.1c0.3-0.8,0.5-2.1,0.5-3.8
		c0-1.7-0.2-3-0.5-3.8c-0.3-0.9-0.8-1.3-1.4-1.3c-0.6,0-1.1,0.4-1.4,1.3c-0.3,0.9-0.5,2.1-0.5,3.8c0,1.7,0.2,3,0.5,3.8
		c0.3,0.8,0.8,1.3,1.4,1.3C506.1,110.3,506.5,109.9,506.9,109.1z"/>
	<path class="st1" d="M511.7,110.2c-0.5-0.4-0.9-1-1.2-1.9c-0.3-0.8-0.4-1.9-0.4-3.1s0.2-2.2,0.4-3.1c0.3-0.9,0.7-1.5,1.2-1.9
		c0.5-0.4,1-0.6,1.6-0.6c0.6,0,1.1,0.2,1.6,0.6c0.5,0.4,0.9,1.1,1.2,1.9c0.3,0.8,0.4,1.9,0.4,3.1s-0.2,2.2-0.5,3.1
		c-0.3,0.8-0.7,1.5-1.2,1.9c-0.5,0.4-1,0.6-1.6,0.6C512.7,110.8,512.2,110.6,511.7,110.2z M514.7,109.1c0.3-0.8,0.5-2.1,0.5-3.8
		c0-1.7-0.2-3-0.5-3.8c-0.3-0.9-0.8-1.3-1.4-1.3c-0.6,0-1.1,0.4-1.4,1.3c-0.3,0.9-0.5,2.1-0.5,3.8c0,1.7,0.2,3,0.5,3.8
		s0.8,1.3,1.4,1.3C513.9,110.3,514.3,109.9,514.7,109.1z"/>
	<path class="st1" d="M519.5,110.2c-0.5-0.4-0.9-1-1.2-1.9c-0.3-0.8-0.4-1.9-0.4-3.1s0.1-2.2,0.5-3.1c0.3-0.9,0.7-1.5,1.2-1.9
		c0.5-0.4,1-0.6,1.6-0.6c0.6,0,1.1,0.2,1.6,0.6c0.5,0.4,0.9,1.1,1.2,1.9c0.3,0.8,0.4,1.9,0.4,3.1s-0.2,2.2-0.4,3.1
		c-0.3,0.8-0.7,1.5-1.2,1.9c-0.5,0.4-1,0.6-1.6,0.6C520.5,110.8,520,110.6,519.5,110.2z M522.5,109.1c0.3-0.8,0.5-2.1,0.5-3.8
		c0-1.7-0.2-3-0.5-3.8c-0.3-0.9-0.8-1.3-1.4-1.3c-0.6,0-1.1,0.4-1.4,1.3c-0.3,0.9-0.5,2.1-0.5,3.8c0,1.7,0.2,3,0.5,3.8
		c0.3,0.8,0.8,1.3,1.4,1.3C521.7,110.3,522.1,109.9,522.5,109.1z"/>
	<path class="st1" d="M528,105.3c-0.1,0.1-0.1,0.1-0.1,0.2v2.3c0,1.1,0.1,2.2,0.1,3.3v0.1c0,0.1,0,0.2-0.1,0.3
		c-0.2,0.2-0.5,0.3-0.8,0.3c-0.1,0-0.2,0-0.2-0.1c-0.1-0.1-0.1-0.1-0.1-0.2c0-0.6,0.1-1.2,0.1-1.7c0-0.6,0-1.3,0.1-2.2v-5.7
		c0-1,0-1.8-0.1-2.6v-0.1c0-0.2,0.1-0.2,0.2-0.2c0,0,0.1,0,0.2,0l0.6,0.3c0.1,0.1,0.3,0.1,0.4,0.1h8.5c0.2,0,0.3-0.1,0.4-0.2
		l0.1-0.1c0,0,0.1-0.1,0.1-0.2c0.1-0.1,0.1-0.1,0.2-0.1c0.1,0,0.2,0.1,0.5,0.3c0.2,0.2,0.4,0.3,0.6,0.5c0,0.1,0.1,0.1,0.1,0.2
		c0,0.1,0,0.1-0.1,0.2c0,0-0.1,0-0.1,0s-0.1,0-0.1,0c-0.2,0.1-0.3,0.2-0.3,0.3v10c0,0.4-0.1,0.7-0.3,0.9c-0.2,0.2-0.6,0.4-1.1,0.4
		l-0.1,0c-0.1,0-0.2-0.1-0.3-0.3c-0.1-0.2-0.2-0.3-0.3-0.4c-0.2-0.2-0.7-0.3-1.2-0.3c-0.2,0-0.3-0.1-0.3-0.2s0.1-0.1,0.3-0.1
		c1,0.1,1.6,0.1,1.9,0.1c0.2,0,0.3,0,0.3-0.1c0.1-0.1,0.1-0.2,0.1-0.3v-4.6c0-0.1,0-0.2-0.1-0.2c-0.1-0.1-0.1-0.1-0.2-0.1h-8.6
		C528.1,105.2,528.1,105.2,528,105.3z M531.9,99.9c-0.1-0.1-0.1-0.1-0.2-0.1h-3.4c-0.1,0-0.2,0-0.2,0.1c-0.1,0.1-0.1,0.1-0.1,0.2
		v4.3c0,0.1,0,0.2,0.1,0.2c0.1,0.1,0.1,0.1,0.2,0.1h3.4c0.1,0,0.2,0,0.2-0.1c0.1-0.1,0.1-0.1,0.1-0.2v-4.3
		C532,100.1,532,100,531.9,99.9z M533,99.9c-0.1,0.1-0.1,0.1-0.1,0.2v4.3c0,0.1,0,0.2,0.1,0.2c0.1,0.1,0.1,0.1,0.2,0.1h3.5
		c0.1,0,0.2,0,0.2-0.1c0.1-0.1,0.1-0.1,0.1-0.2v-4.3c0-0.1,0-0.2-0.1-0.2c-0.1-0.1-0.1-0.1-0.2-0.1h-3.5
		C533.2,99.8,533.1,99.9,533,99.9z"/>
</g>
<g class="st0">
	<path class="st1" d="M676.4,110.6c-0.1,0-0.1-0.1-0.1-0.2c0-0.2,0-0.2,0.1-0.2h0.2c0.5,0,0.9-0.1,1.2-0.2c0.3-0.1,0.4-0.4,0.4-0.7
		v-7.2c0-0.3,0-0.5-0.1-0.6c-0.1-0.1-0.2-0.2-0.4-0.2s-0.6-0.1-1.1-0.1h-0.3c-0.1,0-0.1-0.1-0.1-0.2c0-0.1,0-0.2,0.1-0.2
		c0.5,0,1-0.1,1.5-0.2s0.8-0.4,1.2-0.7c0.1-0.1,0.1-0.1,0.2-0.1c0.1,0,0.2,0.1,0.2,0.3v9.2c0,0.6,0.5,0.9,1.6,0.9h0.2
		c0,0,0.1,0,0.1,0.1c0,0,0,0.1,0,0.2c0,0.1,0,0.2-0.1,0.2H676.4z"/>
	<path class="st1" d="M688.4,104.3c0.4,0.3,0.7,0.7,1,1.2c0.2,0.5,0.3,1,0.3,1.5c0,0.7-0.1,1.3-0.4,1.9c-0.3,0.6-0.6,1.1-1.1,1.4
		c-0.5,0.4-1,0.5-1.7,0.5c-0.6,0-1.2-0.2-1.8-0.6s-0.9-0.9-1.2-1.6c-0.3-0.7-0.4-1.5-0.4-2.4c0-1.4,0.2-2.7,0.6-3.7
		c0.4-1,0.9-1.8,1.5-2.3c0.6-0.5,1.2-0.8,1.8-0.8c0.5,0,0.9,0.1,1.2,0.2c0.3,0.1,0.6,0.3,0.8,0.5c0.2,0.2,0.3,0.5,0.3,0.7
		c0,0.2-0.1,0.4-0.2,0.5s-0.3,0.2-0.5,0.2c-0.2,0-0.4-0.1-0.6-0.3c-0.2-0.2-0.2-0.4-0.3-0.7c0-0.2-0.1-0.4-0.2-0.5
		c-0.1-0.1-0.3-0.2-0.5-0.2c-0.7,0-1.2,0.4-1.6,1.3c-0.4,0.8-0.7,1.9-0.8,3c0,0.1,0,0.1,0,0.2c0,0,0.1,0.1,0.2,0.1
		c0.1,0,0.2-0.1,0.4-0.2c0.5-0.4,1.1-0.7,1.8-0.7C687.5,103.8,688,104,688.4,104.3z M687.5,109.9c0.3-0.3,0.5-0.6,0.7-1.1
		c0.2-0.5,0.2-1,0.2-1.6c0-1.1-0.2-1.8-0.6-2.1c-0.4-0.3-0.8-0.5-1.3-0.5c-0.4,0-0.8,0.1-1.2,0.4c-0.4,0.3-0.7,0.7-0.9,1.2
		c0,0.1-0.1,0.3-0.1,0.4c0,1.1,0.2,1.9,0.5,2.7s0.8,1.1,1.6,1.1C686.9,110.3,687.2,110.1,687.5,109.9z"/>
	<path class="st1" d="M691.6,112.2C691.6,112.2,691.6,112.1,691.6,112.2c0-0.1,0-0.1,0-0.1c0.2-0.2,0.3-0.3,0.4-0.5
		c0.1-0.2,0.1-0.3,0.1-0.4c0-0.2-0.1-0.3-0.2-0.3c-0.2-0.1-0.3-0.2-0.4-0.3c-0.1-0.1-0.1-0.3-0.1-0.4c0-0.2,0.1-0.4,0.2-0.6
		c0.2-0.2,0.4-0.2,0.6-0.2s0.4,0.1,0.6,0.2c0.2,0.2,0.2,0.4,0.2,0.6c0,0.5-0.1,0.9-0.4,1.2c-0.3,0.4-0.6,0.7-0.9,0.9L691.6,112.2
		C691.6,112.2,691.6,112.2,691.6,112.2z"/>
	<path class="st1" d="M696.4,110.2c-0.5-0.4-0.9-1-1.2-1.9c-0.3-0.8-0.4-1.9-0.4-3.1s0.2-2.2,0.4-3.1c0.3-0.9,0.7-1.5,1.2-1.9
		c0.5-0.4,1-0.6,1.6-0.6c0.6,0,1.1,0.2,1.6,0.6c0.5,0.4,0.9,1.1,1.2,1.9c0.3,0.8,0.4,1.9,0.4,3.1s-0.2,2.2-0.5,3.1
		c-0.3,0.8-0.7,1.5-1.2,1.9c-0.5,0.4-1,0.6-1.6,0.6C697.4,110.8,696.9,110.6,696.4,110.2z M699.4,109.1c0.3-0.8,0.5-2.1,0.5-3.8
		c0-1.7-0.2-3-0.5-3.8c-0.3-0.9-0.8-1.3-1.4-1.3c-0.6,0-1.1,0.4-1.4,1.3c-0.3,0.9-0.5,2.1-0.5,3.8c0,1.7,0.2,3,0.5,3.8
		s0.8,1.3,1.4,1.3C698.6,110.3,699.1,109.9,699.4,109.1z"/>
	<path class="st1" d="M704.2,110.2c-0.5-0.4-0.9-1-1.2-1.9c-0.3-0.8-0.4-1.9-0.4-3.1s0.1-2.2,0.5-3.1c0.3-0.9,0.7-1.5,1.2-1.9
		c0.5-0.4,1-0.6,1.6-0.6c0.6,0,1.1,0.2,1.6,0.6c0.5,0.4,0.9,1.1,1.2,1.9c0.3,0.8,0.4,1.9,0.4,3.1s-0.2,2.2-0.4,3.1
		c-0.3,0.8-0.7,1.5-1.2,1.9c-0.5,0.4-1,0.6-1.6,0.6C705.2,110.8,704.7,110.6,704.2,110.2z M707.2,109.1c0.3-0.8,0.5-2.1,0.5-3.8
		c0-1.7-0.2-3-0.5-3.8c-0.3-0.9-0.8-1.3-1.4-1.3c-0.6,0-1.1,0.4-1.4,1.3c-0.3,0.9-0.5,2.1-0.5,3.8c0,1.7,0.2,3,0.5,3.8
		c0.3,0.8,0.8,1.3,1.4,1.3C706.4,110.3,706.9,109.9,707.2,109.1z"/>
	<path class="st1" d="M712,110.2c-0.5-0.4-0.9-1-1.2-1.9c-0.3-0.8-0.4-1.9-0.4-3.1s0.2-2.2,0.4-3.1c0.3-0.9,0.7-1.5,1.2-1.9
		c0.5-0.4,1-0.6,1.6-0.6c0.6,0,1.1,0.2,1.6,0.6c0.5,0.4,0.9,1.1,1.2,1.9c0.3,0.8,0.4,1.9,0.4,3.1s-0.2,2.2-0.5,3.1
		c-0.3,0.8-0.7,1.5-1.2,1.9c-0.5,0.4-1,0.6-1.6,0.6C713,110.8,712.5,110.6,712,110.2z M715,109.1c0.3-0.8,0.5-2.1,0.5-3.8
		c0-1.7-0.2-3-0.5-3.8c-0.3-0.9-0.8-1.3-1.4-1.3c-0.6,0-1.1,0.4-1.4,1.3c-0.3,0.9-0.5,2.1-0.5,3.8c0,1.7,0.2,3,0.5,3.8
		s0.8,1.3,1.4,1.3C714.2,110.3,714.7,109.9,715,109.1z"/>
	<path class="st1" d="M720.5,105.3c-0.1,0.1-0.1,0.1-0.1,0.2v2.3c0,1.1,0.1,2.2,0.1,3.3v0.1c0,0.1,0,0.2-0.1,0.3
		c-0.2,0.2-0.4,0.3-0.8,0.3c-0.1,0-0.2,0-0.2-0.1c-0.1-0.1-0.1-0.1-0.1-0.2c0-0.6,0.1-1.2,0.1-1.7c0-0.6,0.1-1.3,0.1-2.2v-5.7
		c0-1,0-1.8-0.1-2.6v-0.1c0-0.2,0.1-0.2,0.2-0.2c0,0,0.1,0,0.2,0l0.6,0.3c0.1,0.1,0.3,0.1,0.4,0.1h8.5c0.2,0,0.3-0.1,0.4-0.2
		l0.1-0.1c0,0,0.1-0.1,0.1-0.2c0.1-0.1,0.1-0.1,0.2-0.1c0.1,0,0.2,0.1,0.5,0.3c0.2,0.2,0.4,0.3,0.6,0.5c0,0.1,0.1,0.1,0.1,0.2
		c0,0.1,0,0.1-0.1,0.2c0,0-0.1,0-0.1,0c0,0-0.1,0-0.1,0c-0.2,0.1-0.3,0.2-0.3,0.3v10c0,0.4-0.1,0.7-0.3,0.9
		c-0.2,0.2-0.6,0.4-1.1,0.4l-0.1,0c-0.1,0-0.2-0.1-0.3-0.3c-0.1-0.2-0.2-0.3-0.3-0.4c-0.2-0.2-0.7-0.3-1.2-0.3
		c-0.2,0-0.3-0.1-0.3-0.2s0.1-0.1,0.3-0.1c1,0.1,1.6,0.1,1.9,0.1c0.2,0,0.3,0,0.3-0.1c0.1-0.1,0.1-0.2,0.1-0.3v-4.6
		c0-0.1,0-0.2-0.1-0.2c-0.1-0.1-0.1-0.1-0.2-0.1h-8.6C720.7,105.2,720.6,105.2,720.5,105.3z M724.4,99.9c-0.1-0.1-0.1-0.1-0.2-0.1
		h-3.4c-0.1,0-0.2,0-0.2,0.1c-0.1,0.1-0.1,0.1-0.1,0.2v4.3c0,0.1,0,0.2,0.1,0.2c0.1,0.1,0.1,0.1,0.2,0.1h3.4c0.1,0,0.2,0,0.2-0.1
		c0.1-0.1,0.1-0.1,0.1-0.2v-4.3C724.5,100.1,724.5,100,724.4,99.9z M725.6,99.9c-0.1,0.1-0.1,0.1-0.1,0.2v4.3c0,0.1,0,0.2,0.1,0.2
		c0.1,0.1,0.1,0.1,0.2,0.1h3.5c0.1,0,0.2,0,0.2-0.1c0.1-0.1,0.1-0.1,0.1-0.2v-4.3c0-0.1,0-0.2-0.1-0.2c-0.1-0.1-0.1-0.1-0.2-0.1
		h-3.5C725.7,99.8,725.6,99.9,725.6,99.9z"/>
</g>
<g class="st0">
	<path class="st1" d="M89.9,111.3c-0.1,0-0.1-0.1-0.1-0.2c0-0.2,0-0.2,0.1-0.2h0.2c0.5,0,0.9-0.1,1.2-0.2c0.3-0.1,0.5-0.4,0.5-0.7
		v-7.2c0-0.3,0-0.5-0.1-0.6c-0.1-0.1-0.2-0.2-0.4-0.2s-0.6-0.1-1.1-0.1h-0.3c-0.1,0-0.1-0.1-0.1-0.2c0-0.1,0-0.2,0.1-0.2
		c0.5,0,1-0.1,1.5-0.2s0.8-0.4,1.2-0.7c0.1-0.1,0.1-0.1,0.2-0.1c0.1,0,0.2,0.1,0.2,0.3v9.2c0,0.6,0.5,0.9,1.6,0.9h0.2
		c0,0,0.1,0,0.1,0.1c0,0,0,0.1,0,0.2c0,0.1,0,0.2-0.1,0.2H89.9z"/>
	<path class="st1" d="M96.8,102.3c0,0,0.1-0.1,0.2-0.1c0.1,0,0.1,0,0.1,0c0.7,0.1,1.2,0.3,1.6,0.6c0.3,0.3,0.5,0.6,0.5,0.9
		c0,0.2,0,0.3-0.1,0.4c-0.1,0.1-0.2,0.2-0.3,0.2c-0.1,0-0.1,0-0.1,0c-0.1,0-0.2-0.1-0.3-0.3c-0.1-0.2-0.3-0.5-0.5-0.8
		s-0.5-0.5-0.8-0.7C96.8,102.4,96.8,102.3,96.8,102.3z M97.4,108.3h0.3c0.1,0,0.2,0,0.2,0s0.1-0.1,0.2-0.3c0.2-0.4,0.8-1.8,1.8-4
		l1-2.2c0.1-0.2,0.2-0.3,0.2-0.3c0.1,0,0.1,0,0.1,0.1c0,0.1,0,0.1,0,0.2l-0.8,2.1c-0.1,0.2-0.3,0.9-0.7,1.8c-0.3,1-0.6,1.6-0.6,1.8
		c-0.2,0.6-0.2,1-0.2,1.3c0,0.1,0,0.3,0.1,0.4c0,0.2,0.1,0.3,0.1,0.4c0.1,0.3,0.1,0.5,0.2,0.8c0,0.2,0.1,0.5,0.1,0.8
		c0,0.4-0.1,0.7-0.2,0.9c-0.1,0.2-0.3,0.3-0.6,0.3c-0.2,0-0.4-0.2-0.4-0.5c0,0,0-0.1,0-0.2s0-0.1,0-0.2c0-0.5,0.1-1,0.1-1.3
		c0-0.4,0-0.7-0.1-0.9c-0.1-0.2-0.1-0.4-0.2-0.5c-0.1-0.1-0.2-0.2-0.4-0.2c-0.2,0-0.3-0.1-0.3-0.2C97.1,108.3,97.2,108.3,97.4,108.3
		z M98,99c0,0,0.1,0,0.1,0c0.1,0,0.1,0,0.2,0c0.7,0.1,1.3,0.4,1.6,0.7c0.3,0.3,0.5,0.6,0.5,0.9c0,0.2,0,0.3-0.1,0.4
		c-0.1,0.1-0.2,0.2-0.4,0.2c-0.1,0-0.1,0-0.1,0c-0.1,0-0.2-0.1-0.3-0.3c-0.1-0.3-0.3-0.5-0.5-0.8c-0.2-0.3-0.5-0.5-0.8-0.8
		C98.1,99.1,98,99,98,99z M108.3,101.3l0.1-0.1c0,0,0.1-0.1,0.1-0.1c0-0.1,0.1-0.1,0.1-0.1c0,0,0.1,0,0.1,0c0.1,0,0.2,0.1,0.4,0.2
		c0.2,0.2,0.4,0.3,0.5,0.5c0,0,0.1,0.1,0.1,0.2c0,0.1,0,0.1-0.1,0.2c0,0,0,0-0.1,0c0,0-0.1,0-0.1,0c-0.2,0.1-0.3,0.2-0.3,0.3v6
		c0,1.1,0.1,2.2,0.1,3.3v0.1c0,0.1-0.1,0.2-0.1,0.3c-0.2,0.2-0.5,0.3-0.8,0.3c-0.1,0-0.1,0-0.2-0.1c0,0,0-0.1,0-0.1c0,0,0-0.1,0-0.2
		c0,0,0-0.1,0-0.4v-0.1c0-0.1,0-0.2-0.1-0.2c-0.1-0.1-0.1-0.1-0.2-0.1h-4.8c-0.1,0-0.2,0-0.2,0.1c-0.1,0.1-0.1,0.1-0.1,0.2v0
		c0,0.2,0,0.4,0,0.4v0.1c0,0.1,0,0.2-0.1,0.3c-0.2,0.2-0.4,0.2-0.7,0.2c-0.1,0-0.2,0-0.2-0.1c-0.1-0.1-0.1-0.1-0.1-0.2
		c0-0.6,0.1-1.2,0.1-1.7c0-0.6,0.1-1.3,0.1-2.2v-4.2c0-1,0-1.9-0.1-2.6v-0.1c0-0.1,0.1-0.2,0.2-0.2c0.1,0,0.1,0,0.1,0l0.7,0.3
		c0.1,0,0.2,0.1,0.4,0.1h0.9c0.2,0,0.3-0.1,0.3-0.3c0.2-0.7,0.3-1.5,0.3-2.3c0-0.1,0-0.2,0.1-0.2s0.1-0.1,0.2,0l1.1,0.3
		c0.1,0,0.1,0.1,0.2,0.1c0,0,0.1,0.1,0.1,0.1c0,0,0,0.1-0.1,0.1l-0.1,0c0,0-0.1,0-0.2,0.1s-0.1,0.1-0.2,0.2
		c-0.2,0.4-0.5,0.9-0.9,1.5c0,0-0.1,0.1-0.1,0.2c0,0.1,0.1,0.2,0.3,0.2h2.7C108.1,101.5,108.2,101.5,108.3,101.3z M108.1,105.8
		c0.1-0.1,0.1-0.1,0.1-0.2v-3.3c0-0.1,0-0.2-0.1-0.2c-0.1-0.1-0.1-0.1-0.2-0.1h-4.8c-0.1,0-0.2,0-0.2,0.1c-0.1,0.1-0.1,0.1-0.1,0.2
		v3.3c0,0.1,0,0.2,0.1,0.2c0.1,0.1,0.1,0.1,0.2,0.1h4.8C108,105.9,108.1,105.8,108.1,105.8z M102.9,106.4c-0.1,0.1-0.1,0.1-0.1,0.2
		v3.7c0,0.1,0,0.2,0.1,0.2c0.1,0.1,0.1,0.1,0.2,0.1h4.8c0.1,0,0.2,0,0.2-0.1c0.1-0.1,0.1-0.1,0.1-0.2v-3.7c0-0.1,0-0.2-0.1-0.2
		c-0.1-0.1-0.1-0.1-0.2-0.1h-4.8C103,106.3,102.9,106.3,102.9,106.4z"/>
	<path class="st1" d="M117.3,111c0,0.2-0.2,0.3-0.3,0.3H112c-0.2,0-0.3-0.1-0.3-0.2c0-0.1,0-0.1,0-0.2c0-0.1,0-0.1,0-0.2
		c0.3-0.7,0.6-1.4,1.1-2c0.4-0.6,1-1.3,1.6-2.1c0.7-0.9,1.3-1.6,1.6-2.1c0.3-0.6,0.5-1.1,0.5-1.7c0-0.5-0.1-1-0.4-1.4
		c-0.3-0.4-0.8-0.6-1.4-0.6c-0.5,0-0.9,0.1-1.2,0.4c-0.3,0.2-0.5,0.5-0.5,0.9c0,0.1,0,0.2,0.1,0.3c0,0.1,0.1,0.2,0.2,0.3
		c0.1,0.1,0.1,0.2,0.2,0.3s0.1,0.2,0.1,0.3c0,0.2-0.1,0.4-0.2,0.6c-0.1,0.1-0.3,0.2-0.6,0.2c-0.2,0-0.4-0.1-0.5-0.3
		c-0.2-0.2-0.2-0.5-0.2-0.8c0-0.4,0.1-0.8,0.3-1.2s0.6-0.8,1-1s1-0.4,1.7-0.4c0.7,0,1.3,0.1,1.7,0.4c0.4,0.3,0.8,0.6,0.9,1.1
		s0.3,0.9,0.3,1.3c0,0.4-0.1,0.8-0.2,1.1s-0.3,0.6-0.6,0.9c-0.2,0.3-0.6,0.6-1.1,1.1c-0.1,0.1-0.2,0.2-0.4,0.4
		c-0.2,0.2-0.4,0.3-0.6,0.6c-0.9,0.9-1.6,1.8-2.1,2.8c0,0.1,0,0.1,0,0.2c0,0.1,0.1,0.2,0.3,0.2h1.4c0.7,0,1.3,0,1.6-0.1
		s0.6-0.2,0.8-0.5s0.4-0.6,0.5-1.1c0-0.1,0.1-0.1,0.1-0.1c0,0,0.1,0,0.1,0c0.1,0,0.1,0,0.1,0.1c0,0,0,0,0,0.1l0,0.1L117.3,111z"/>
	<path class="st1" d="M128.8,103l0.1-0.1c0,0,0.1-0.1,0.1-0.1c0-0.1,0.1-0.1,0.1-0.1c0,0,0.1,0,0.1,0c0.1,0,0.2,0.1,0.4,0.3
		s0.4,0.3,0.5,0.5c0,0,0.1,0.1,0.1,0.2c0,0.1,0,0.1-0.1,0.2l-0.1,0c-0.2,0.1-0.3,0.2-0.3,0.3v1c0,1,0,1.7,0.1,2.3v0.1
		c0,0.1,0,0.2-0.1,0.3c-0.1,0.1-0.2,0.1-0.4,0.2c-0.1,0.1-0.3,0.1-0.4,0.1c0,0-0.1,0-0.1-0.1c0,0,0-0.1,0-0.2s0-0.1-0.1-0.2
		c-0.1,0-0.1-0.1-0.2-0.1h-1.9c-0.1,0-0.1,0-0.2,0.1c-0.1,0-0.1,0.1-0.1,0.2c0,0,0,0.1,0,0.2c0.4,0.6,0.8,1.1,1.4,1.5
		c0.1,0.1,0.2,0.1,0.2,0.1c0,0,0.1,0,0.1,0c0.4-0.3,0.8-0.6,1.1-0.9c0.4-0.3,0.7-0.7,0.9-1c0.1-0.1,0.1-0.2,0.2-0.2
		c0.1,0,0.1,0,0.2,0.1c0.6,0.5,0.9,0.7,0.9,0.8c0,0-0.1,0.1-0.1,0.1h0c-0.1,0-0.3,0-0.4,0.1c-0.6,0.3-1.3,0.7-2.2,1
		c-0.1,0.1-0.2,0.1-0.2,0.2c0,0.1,0.1,0.2,0.2,0.2c1,0.6,2.2,1,3.7,1.3c0.2,0.1,0.3,0.1,0.3,0.2c0,0,0,0.1-0.1,0.1
		c-0.1,0-0.1,0-0.1,0.1c-0.2,0.1-0.4,0.3-0.5,0.5c-0.1,0.2-0.2,0.2-0.4,0.2c-1.4-0.4-2.5-1-3.4-1.7c-0.9-0.8-1.6-1.7-2.1-2.9
		c-0.1-0.2-0.2-0.2-0.4-0.2h-1.8c-0.1,0-0.2,0-0.2,0.1c-0.1,0.1-0.1,0.1-0.1,0.2v2.6c0,0.1,0,0.2,0.1,0.2c0.1,0.1,0.1,0.1,0.3,0
		l3-0.5c0,0,0.1,0,0.2,0c0.1,0,0.1,0,0.2,0.1v0c0,0.1-0.1,0.1-0.3,0.2c-2.1,0.7-3.9,1.2-5.4,1.6c-0.1,0-0.2,0.1-0.3,0.1
		c0,0,0,0,0,0.1c0,0.1-0.1,0.1-0.2,0.1c-0.1,0-0.2-0.1-0.3-0.2l-0.3-0.6c0-0.1,0-0.1,0-0.2c0-0.1,0.1-0.2,0.2-0.2
		c0.6-0.1,1.1-0.2,1.6-0.2c0.2,0,0.3-0.1,0.3-0.3v-7.4c0-0.2-0.1-0.3-0.2-0.3c-0.1,0-0.1,0-0.2,0.1c-0.8,0.5-1.5,0.8-2.2,1.1
		c-0.2,0.1-0.3,0.1-0.3,0v0c0-0.1,0.1-0.1,0.2-0.2c0.7-0.4,1.4-0.9,2.1-1.4s1.4-1.1,2-1.7c0.7-0.7,1.1-1.3,1.4-2
		c0.1-0.1,0.1-0.2,0.3-0.2c0,0,0.1,0,0.1,0l1.2,0.3c0.1,0,0.1,0.1,0.2,0.1c0,0,0.1,0.1,0.1,0.1c0,0.1,0,0.1-0.1,0.1
		c-0.1,0.1-0.1,0.1-0.1,0.2c0,0.1,0,0.1,0.1,0.2c0.6,0.6,1.4,1.1,2.4,1.7s2,1,3.1,1.3c0.1,0,0.2,0.1,0.2,0.1c0,0,0.1,0.1,0.1,0.1
		s0,0.1-0.1,0.1c-0.1,0-0.1,0.1-0.2,0.1c-0.2,0.1-0.4,0.3-0.5,0.4c-0.1,0.1-0.2,0.2-0.3,0.2c0,0-0.1,0-0.2,0c-1-0.5-2-1-2.8-1.7
		c-0.9-0.7-1.6-1.4-2.1-2.1c-0.1-0.1-0.1-0.2-0.2-0.2s-0.1,0-0.2,0.1c-0.8,0.9-1.9,1.8-3.3,2.7c-0.1,0.1-0.2,0.1-0.2,0.2
		c0,0.1,0.1,0.2,0.2,0.2l0.3,0.2c0.1,0.1,0.2,0.1,0.4,0.1h1.6c0.2,0,0.3-0.1,0.3-0.3c0-0.6,0-1-0.1-1.2v-0.1c0-0.2,0.1-0.2,0.2-0.2
		c0,0,0.1,0,0.1,0c0.4,0.1,0.6,0.2,0.8,0.3c0.1,0.1,0.2,0.1,0.2,0.2c0,0,0,0.1-0.1,0.1l0,0c-0.1,0.1-0.2,0.2-0.2,0.4v0.4
		c0,0.1,0,0.2,0.1,0.2c0.1,0.1,0.1,0.1,0.2,0.1h1.6C128.6,103.2,128.7,103.1,128.8,103z M128.7,105c0.1-0.1,0.1-0.1,0.1-0.2v-0.9
		c0-0.1,0-0.2-0.1-0.2c-0.1-0.1-0.1-0.1-0.2-0.1h-4.8c-0.1,0-0.2,0-0.2,0.1c-0.1,0.1-0.1,0.1-0.1,0.2v0.9c0,0.1,0,0.2,0.1,0.2
		c0.1,0.1,0.1,0.1,0.2,0.1h4.8C128.6,105.1,128.6,105,128.7,105z M123.4,105.6c-0.1,0.1-0.1,0.1-0.1,0.2v0.9c0,0.1,0,0.2,0.1,0.2
		c0.1,0.1,0.1,0.1,0.2,0.1h4.8c0.1,0,0.2,0,0.2-0.1c0.1-0.1,0.1-0.1,0.1-0.2v-0.9c0-0.1,0-0.2-0.1-0.2c-0.1-0.1-0.1-0.1-0.2-0.1
		h-4.8C123.6,105.5,123.5,105.6,123.4,105.6z"/>
</g>
<g class="st0">
	<path class="st1" d="M300,170.7c0.5,0.4,0.9,0.9,1.2,1.6c0.3,0.7,0.4,1.5,0.4,2.4c0,1.4-0.2,2.7-0.6,3.7c-0.4,1-0.9,1.8-1.5,2.3
		s-1.2,0.8-1.8,0.8c-0.5,0-0.9-0.1-1.2-0.2c-0.3-0.1-0.6-0.3-0.8-0.5s-0.3-0.5-0.3-0.7c0-0.2,0.1-0.4,0.2-0.5
		c0.1-0.1,0.3-0.2,0.5-0.2c0.2,0,0.4,0.1,0.6,0.3c0.2,0.2,0.2,0.4,0.3,0.7c0,0.2,0.1,0.4,0.2,0.5c0.1,0.1,0.3,0.2,0.5,0.2
		c0.7,0,1.2-0.4,1.6-1.3c0.4-0.8,0.7-1.9,0.8-3c0-0.1,0-0.2,0-0.2c0-0.1-0.1-0.1-0.2-0.1s-0.2,0-0.3,0.1c-0.5,0.5-1.2,0.8-1.9,0.8
		c-0.6,0-1.1-0.1-1.5-0.4c-0.4-0.3-0.7-0.7-1-1.2c-0.2-0.5-0.3-1-0.3-1.5c0-0.7,0.1-1.3,0.4-1.9c0.3-0.6,0.6-1.1,1.1-1.4
		c0.5-0.3,1-0.5,1.7-0.5C298.9,170.1,299.5,170.3,300,170.7z M299.4,176c0.4-0.3,0.7-0.7,0.9-1.2c0-0.1,0.1-0.3,0.1-0.4
		c0-1.1-0.2-1.9-0.5-2.7s-0.8-1.1-1.6-1.1c-0.4,0-0.7,0.1-1,0.4c-0.3,0.3-0.5,0.6-0.7,1.1c-0.2,0.5-0.2,1-0.2,1.6
		c0,1.1,0.2,1.8,0.6,2.1c0.4,0.4,0.8,0.5,1.3,0.5C298.7,176.4,299.1,176.3,299.4,176z"/>
	<path class="st1" d="M303.7,182.7C303.7,182.7,303.7,182.6,303.7,182.7c0-0.1,0-0.1,0-0.1c0.2-0.2,0.3-0.3,0.4-0.5
		c0.1-0.2,0.1-0.3,0.1-0.4c0-0.2-0.1-0.3-0.2-0.3c-0.2-0.1-0.3-0.2-0.4-0.3c-0.1-0.1-0.1-0.3-0.1-0.4c0-0.2,0.1-0.4,0.2-0.6
		c0.2-0.2,0.4-0.2,0.6-0.2s0.4,0.1,0.6,0.2c0.2,0.2,0.2,0.4,0.2,0.6c0,0.5-0.1,0.9-0.4,1.2c-0.3,0.4-0.6,0.7-0.9,0.9L303.7,182.7
		C303.8,182.7,303.7,182.7,303.7,182.7z"/>
	<path class="st1" d="M308.6,180.7c-0.5-0.4-0.9-1-1.2-1.9c-0.3-0.8-0.4-1.9-0.4-3.1s0.1-2.2,0.4-3.1c0.3-0.9,0.7-1.5,1.2-1.9
		c0.5-0.4,1-0.6,1.6-0.6c0.6,0,1.1,0.2,1.6,0.6c0.5,0.4,0.9,1.1,1.2,1.9c0.3,0.8,0.4,1.9,0.4,3.1s-0.2,2.2-0.5,3.1
		c-0.3,0.8-0.7,1.5-1.2,1.9c-0.5,0.4-1,0.6-1.6,0.6C309.6,181.4,309,181.1,308.6,180.7z M311.5,179.6c0.3-0.8,0.5-2.1,0.5-3.8
		s-0.2-3-0.5-3.8c-0.3-0.9-0.8-1.3-1.4-1.3c-0.6,0-1.1,0.4-1.4,1.3c-0.3,0.9-0.5,2.1-0.5,3.8s0.2,3,0.5,3.8c0.3,0.8,0.8,1.3,1.4,1.3
		C310.7,180.8,311.2,180.4,311.5,179.6z"/>
	<path class="st1" d="M316.4,180.7c-0.5-0.4-0.9-1-1.2-1.9c-0.3-0.8-0.4-1.9-0.4-3.1s0.1-2.2,0.4-3.1c0.3-0.9,0.7-1.5,1.2-1.9
		c0.5-0.4,1-0.6,1.6-0.6c0.6,0,1.1,0.2,1.6,0.6c0.5,0.4,0.9,1.1,1.2,1.9c0.3,0.8,0.4,1.9,0.4,3.1s-0.2,2.2-0.5,3.1
		c-0.3,0.8-0.7,1.5-1.2,1.9c-0.5,0.4-1,0.6-1.6,0.6C317.4,181.4,316.8,181.1,316.4,180.7z M319.3,179.6c0.3-0.8,0.5-2.1,0.5-3.8
		s-0.2-3-0.5-3.8c-0.3-0.9-0.8-1.3-1.4-1.3c-0.6,0-1.1,0.4-1.4,1.3c-0.3,0.9-0.5,2.1-0.5,3.8s0.2,3,0.5,3.8c0.3,0.8,0.8,1.3,1.4,1.3
		C318.5,180.8,319,180.4,319.3,179.6z"/>
	<path class="st1" d="M324.2,180.7c-0.5-0.4-0.9-1-1.2-1.9c-0.3-0.8-0.4-1.9-0.4-3.1s0.1-2.2,0.4-3.1c0.3-0.9,0.7-1.5,1.2-1.9
		c0.5-0.4,1-0.6,1.6-0.6c0.6,0,1.1,0.2,1.6,0.6c0.5,0.4,0.9,1.1,1.2,1.9c0.3,0.8,0.4,1.9,0.4,3.1s-0.2,2.2-0.5,3.1
		c-0.3,0.8-0.7,1.5-1.2,1.9c-0.5,0.4-1,0.6-1.6,0.6C325.2,181.4,324.6,181.1,324.2,180.7z M327.1,179.6c0.3-0.8,0.5-2.1,0.5-3.8
		s-0.2-3-0.5-3.8c-0.3-0.9-0.8-1.3-1.4-1.3c-0.6,0-1.1,0.4-1.4,1.3c-0.3,0.9-0.5,2.1-0.5,3.8s0.2,3,0.5,3.8c0.3,0.8,0.8,1.3,1.4,1.3
		C326.3,180.8,326.8,180.4,327.1,179.6z"/>
	<path class="st1" d="M332.7,175.8c-0.1,0.1-0.1,0.1-0.1,0.2v2.3c0,1.1,0.1,2.2,0.1,3.3v0.1c0,0.1,0,0.2-0.1,0.3
		c-0.2,0.2-0.4,0.3-0.8,0.3c-0.1,0-0.2,0-0.2-0.1c-0.1-0.1-0.1-0.1-0.1-0.2c0-0.6,0.1-1.2,0.1-1.7c0-0.6,0-1.3,0.1-2.2v-5.7
		c0-1,0-1.8-0.1-2.6v-0.1c0-0.2,0.1-0.2,0.2-0.2c0,0,0.1,0,0.2,0l0.6,0.3c0.1,0.1,0.3,0.1,0.4,0.1h8.5c0.2,0,0.3-0.1,0.4-0.2
		l0.1-0.1c0,0,0.1-0.1,0.1-0.2c0.1-0.1,0.1-0.1,0.2-0.1c0.1,0,0.2,0.1,0.5,0.3c0.2,0.2,0.4,0.3,0.6,0.5c0,0.1,0.1,0.1,0.1,0.2
		c0,0.1,0,0.1-0.1,0.2c0,0-0.1,0-0.1,0c0,0-0.1,0-0.1,0c-0.2,0.1-0.3,0.2-0.3,0.3v10c0,0.4-0.1,0.7-0.3,0.9
		c-0.2,0.2-0.6,0.4-1.1,0.4l-0.1,0c-0.1,0-0.2-0.1-0.3-0.3c-0.1-0.2-0.2-0.3-0.3-0.4c-0.2-0.2-0.7-0.3-1.2-0.3
		c-0.2,0-0.3-0.1-0.3-0.2s0.1-0.1,0.3-0.1c1,0.1,1.6,0.1,1.9,0.1c0.2,0,0.3,0,0.3-0.1c0.1-0.1,0.1-0.2,0.1-0.3V176
		c0-0.1,0-0.2-0.1-0.2c-0.1-0.1-0.1-0.1-0.2-0.1h-8.6C332.8,175.7,332.7,175.7,332.7,175.8z M336.6,170.4c-0.1-0.1-0.1-0.1-0.2-0.1
		h-3.4c-0.1,0-0.2,0-0.2,0.1c-0.1,0.1-0.1,0.1-0.1,0.2v4.3c0,0.1,0,0.2,0.1,0.2c0.1,0.1,0.1,0.1,0.2,0.1h3.4c0.1,0,0.2,0,0.2-0.1
		c0.1-0.1,0.1-0.1,0.1-0.2v-4.3C336.6,170.6,336.6,170.5,336.6,170.4z M337.7,170.4c-0.1,0.1-0.1,0.1-0.1,0.2v4.3
		c0,0.1,0,0.2,0.1,0.2c0.1,0.1,0.1,0.1,0.2,0.1h3.5c0.1,0,0.2,0,0.2-0.1c0.1-0.1,0.1-0.1,0.1-0.2v-4.3c0-0.1,0-0.2-0.1-0.2
		c-0.1-0.1-0.1-0.1-0.2-0.1h-3.5C337.8,170.3,337.7,170.4,337.7,170.4z"/>
</g>
<g class="st0">
	<path class="st1" d="M484.2,181.1c-0.1,0-0.1-0.1-0.1-0.2c0-0.2,0-0.2,0.1-0.2h0.2c0.5,0,0.9-0.1,1.2-0.2c0.3-0.1,0.4-0.4,0.4-0.7
		v-7.2c0-0.3,0-0.5-0.1-0.6c-0.1-0.1-0.2-0.2-0.4-0.2s-0.6-0.1-1.1-0.1h-0.3c-0.1,0-0.1-0.1-0.1-0.2c0-0.1,0-0.2,0.1-0.2
		c0.5,0,1-0.1,1.5-0.2s0.8-0.4,1.2-0.7c0.1-0.1,0.1-0.1,0.2-0.1c0.1,0,0.2,0.1,0.2,0.3v9.2c0,0.6,0.5,0.9,1.6,0.9h0.2
		c0,0,0.1,0,0.1,0.1c0,0,0,0.1,0,0.2c0,0.1,0,0.2-0.1,0.2H484.2z"/>
	<path class="st1" d="M492.5,180.7c-0.5-0.4-0.9-1-1.2-1.9c-0.3-0.8-0.4-1.9-0.4-3.1s0.2-2.2,0.5-3.1c0.3-0.9,0.7-1.5,1.2-1.9
		c0.5-0.4,1-0.6,1.6-0.6c0.6,0,1.1,0.2,1.6,0.6c0.5,0.4,0.9,1.1,1.2,1.9c0.3,0.8,0.4,1.9,0.4,3.1s-0.2,2.2-0.5,3.1
		c-0.3,0.8-0.7,1.5-1.2,1.9s-1,0.6-1.6,0.6C493.5,181.4,493,181.1,492.5,180.7z M495.5,179.6c0.3-0.8,0.5-2.1,0.5-3.8
		s-0.2-3-0.5-3.8c-0.3-0.9-0.8-1.3-1.4-1.3c-0.6,0-1.1,0.4-1.4,1.3c-0.3,0.9-0.5,2.1-0.5,3.8s0.2,3,0.5,3.8c0.3,0.8,0.8,1.3,1.4,1.3
		C494.7,180.8,495.1,180.4,495.5,179.6z"/>
	<path class="st1" d="M499.2,182.7C499.2,182.7,499.2,182.6,499.2,182.7c0-0.1,0-0.1,0-0.1c0.2-0.2,0.3-0.3,0.4-0.5
		c0.1-0.2,0.1-0.3,0.1-0.4c0-0.2-0.1-0.3-0.2-0.3c-0.2-0.1-0.3-0.2-0.4-0.3c-0.1-0.1-0.1-0.3-0.1-0.4c0-0.2,0.1-0.4,0.2-0.6
		s0.4-0.2,0.6-0.2c0.2,0,0.4,0.1,0.6,0.2s0.2,0.4,0.2,0.6c0,0.5-0.1,0.9-0.4,1.2c-0.3,0.4-0.6,0.7-0.9,0.9L499.2,182.7
		C499.2,182.7,499.2,182.7,499.2,182.7z"/>
	<path class="st1" d="M504,180.7c-0.5-0.4-0.9-1-1.2-1.9c-0.3-0.8-0.4-1.9-0.4-3.1s0.1-2.2,0.4-3.1c0.3-0.9,0.7-1.5,1.2-1.9
		c0.5-0.4,1-0.6,1.6-0.6c0.6,0,1.1,0.2,1.6,0.6c0.5,0.4,0.9,1.1,1.2,1.9c0.3,0.8,0.4,1.9,0.4,3.1s-0.2,2.2-0.5,3.1
		c-0.3,0.8-0.7,1.5-1.2,1.9c-0.5,0.4-1,0.6-1.6,0.6C505,181.4,504.5,181.1,504,180.7z M507,179.6c0.3-0.8,0.5-2.1,0.5-3.8
		s-0.2-3-0.5-3.8c-0.3-0.9-0.8-1.3-1.4-1.3c-0.6,0-1.1,0.4-1.4,1.3c-0.3,0.9-0.5,2.1-0.5,3.8s0.2,3,0.5,3.8s0.8,1.3,1.4,1.3
		C506.2,180.8,506.7,180.4,507,179.6z"/>
	<path class="st1" d="M511.8,180.7c-0.5-0.4-0.9-1-1.2-1.9c-0.3-0.8-0.4-1.9-0.4-3.1s0.2-2.2,0.5-3.1c0.3-0.9,0.7-1.5,1.2-1.9
		c0.5-0.4,1-0.6,1.6-0.6c0.6,0,1.1,0.2,1.6,0.6c0.5,0.4,0.9,1.1,1.2,1.9c0.3,0.8,0.4,1.9,0.4,3.1s-0.2,2.2-0.5,3.1
		c-0.3,0.8-0.7,1.5-1.2,1.9s-1,0.6-1.6,0.6C512.8,181.4,512.3,181.1,511.8,180.7z M514.8,179.6c0.3-0.8,0.5-2.1,0.5-3.8
		s-0.2-3-0.5-3.8c-0.3-0.9-0.8-1.3-1.4-1.3c-0.6,0-1.1,0.4-1.4,1.3c-0.3,0.9-0.5,2.1-0.5,3.8s0.2,3,0.5,3.8c0.3,0.8,0.8,1.3,1.4,1.3
		C514,180.8,514.5,180.4,514.8,179.6z"/>
	<path class="st1" d="M519.6,180.7c-0.5-0.4-0.9-1-1.2-1.9c-0.3-0.8-0.4-1.9-0.4-3.1s0.1-2.2,0.4-3.1c0.3-0.9,0.7-1.5,1.2-1.9
		c0.5-0.4,1-0.6,1.6-0.6c0.6,0,1.1,0.2,1.6,0.6c0.5,0.4,0.9,1.1,1.2,1.9c0.3,0.8,0.4,1.9,0.4,3.1s-0.2,2.2-0.5,3.1
		c-0.3,0.8-0.7,1.5-1.2,1.9c-0.5,0.4-1,0.6-1.6,0.6C520.6,181.4,520.1,181.1,519.6,180.7z M522.6,179.6c0.3-0.8,0.5-2.1,0.5-3.8
		s-0.2-3-0.5-3.8c-0.3-0.9-0.8-1.3-1.4-1.3c-0.6,0-1.1,0.4-1.4,1.3c-0.3,0.9-0.5,2.1-0.5,3.8s0.2,3,0.5,3.8s0.8,1.3,1.4,1.3
		C521.8,180.8,522.3,180.4,522.6,179.6z"/>
	<path class="st1" d="M528.1,175.8c-0.1,0.1-0.1,0.1-0.1,0.2v2.3c0,1.1,0.1,2.2,0.1,3.3v0.1c0,0.1,0,0.2-0.1,0.3
		c-0.2,0.2-0.5,0.3-0.8,0.3c-0.1,0-0.2,0-0.2-0.1c-0.1-0.1-0.1-0.1-0.1-0.2c0-0.6,0.1-1.2,0.1-1.7c0-0.6,0-1.3,0.1-2.2v-5.7
		c0-1,0-1.8-0.1-2.6v-0.1c0-0.2,0.1-0.2,0.2-0.2c0,0,0.1,0,0.2,0l0.6,0.3c0.1,0.1,0.3,0.1,0.4,0.1h8.5c0.2,0,0.3-0.1,0.4-0.2
		l0.1-0.1c0,0,0.1-0.1,0.1-0.2c0.1-0.1,0.1-0.1,0.2-0.1c0.1,0,0.2,0.1,0.5,0.3c0.2,0.2,0.4,0.3,0.6,0.5c0,0.1,0.1,0.1,0.1,0.2
		c0,0.1,0,0.1-0.1,0.2c0,0-0.1,0-0.1,0c0,0-0.1,0-0.1,0c-0.2,0.1-0.3,0.2-0.3,0.3v10c0,0.4-0.1,0.7-0.3,0.9
		c-0.2,0.2-0.6,0.4-1.1,0.4l-0.1,0c-0.1,0-0.2-0.1-0.3-0.3c-0.1-0.2-0.2-0.3-0.3-0.4c-0.2-0.2-0.7-0.3-1.2-0.3
		c-0.2,0-0.3-0.1-0.3-0.2s0.1-0.1,0.3-0.1c1,0.1,1.6,0.1,1.9,0.1c0.2,0,0.3,0,0.3-0.1c0.1-0.1,0.1-0.2,0.1-0.3V176
		c0-0.1,0-0.2-0.1-0.2c-0.1-0.1-0.1-0.1-0.2-0.1h-8.6C528.3,175.7,528.2,175.7,528.1,175.8z M532,170.4c-0.1-0.1-0.1-0.1-0.2-0.1
		h-3.4c-0.1,0-0.2,0-0.2,0.1c-0.1,0.1-0.1,0.1-0.1,0.2v4.3c0,0.1,0,0.2,0.1,0.2c0.1,0.1,0.1,0.1,0.2,0.1h3.4c0.1,0,0.2,0,0.2-0.1
		c0.1-0.1,0.1-0.1,0.1-0.2v-4.3C532.1,170.6,532.1,170.5,532,170.4z M533.2,170.4c-0.1,0.1-0.1,0.1-0.1,0.2v4.3c0,0.1,0,0.2,0.1,0.2
		c0.1,0.1,0.1,0.1,0.2,0.1h3.5c0.1,0,0.2,0,0.2-0.1c0.1-0.1,0.1-0.1,0.1-0.2v-4.3c0-0.1,0-0.2-0.1-0.2c-0.1-0.1-0.1-0.1-0.2-0.1
		h-3.5C533.3,170.3,533.2,170.4,533.2,170.4z"/>
</g>
<g class="st0">
	<path class="st1" d="M676.8,181.1c-0.1,0-0.1-0.1-0.1-0.2c0-0.2,0-0.2,0.1-0.2h0.2c0.5,0,0.9-0.1,1.2-0.2c0.3-0.1,0.4-0.4,0.4-0.7
		v-7.2c0-0.3,0-0.5-0.1-0.6c-0.1-0.1-0.2-0.2-0.4-0.2s-0.6-0.1-1.1-0.1h-0.3c-0.1,0-0.1-0.1-0.1-0.2c0-0.1,0-0.2,0.1-0.2
		c0.5,0,1-0.1,1.5-0.2s0.8-0.4,1.2-0.7c0.1-0.1,0.1-0.1,0.2-0.1c0.1,0,0.2,0.1,0.2,0.3v9.2c0,0.6,0.5,0.9,1.6,0.9h0.2
		c0,0,0.1,0,0.1,0.1c0,0,0,0.1,0,0.2c0,0.1,0,0.2-0.1,0.2H676.8z"/>
	<path class="st1" d="M684.1,181.1c-0.1,0-0.1-0.1-0.1-0.2c0-0.2,0-0.2,0.1-0.2h0.2c0.5,0,0.9-0.1,1.2-0.2c0.3-0.1,0.5-0.4,0.5-0.7
		v-7.2c0-0.3,0-0.5-0.1-0.6c-0.1-0.1-0.2-0.2-0.4-0.2s-0.6-0.1-1.1-0.1h-0.3c-0.1,0-0.1-0.1-0.1-0.2c0-0.1,0-0.2,0.1-0.2
		c0.5,0,1-0.1,1.5-0.2c0.4-0.1,0.8-0.4,1.2-0.7c0.1-0.1,0.1-0.1,0.2-0.1c0.1,0,0.2,0.1,0.2,0.3v9.2c0,0.6,0.5,0.9,1.6,0.9h0.2
		c0,0,0.1,0,0.1,0.1c0,0,0,0.1,0,0.2c0,0.1,0,0.2-0.1,0.2H684.1z"/>
	<path class="st1" d="M691.3,182.7C691.2,182.7,691.2,182.6,691.3,182.7c0-0.1,0-0.1,0-0.1c0.2-0.2,0.3-0.3,0.4-0.5
		c0.1-0.2,0.1-0.3,0.1-0.4c0-0.2-0.1-0.3-0.2-0.3c-0.2-0.1-0.3-0.2-0.4-0.3c-0.1-0.1-0.1-0.3-0.1-0.4c0-0.2,0.1-0.4,0.2-0.6
		c0.2-0.2,0.4-0.2,0.6-0.2c0.2,0,0.4,0.1,0.6,0.2c0.2,0.2,0.2,0.4,0.2,0.6c0,0.5-0.1,0.9-0.4,1.2c-0.3,0.4-0.6,0.7-0.9,0.9
		L691.3,182.7C691.3,182.7,691.3,182.7,691.3,182.7z"/>
	<path class="st1" d="M696.1,180.7c-0.5-0.4-0.9-1-1.2-1.9c-0.3-0.8-0.4-1.9-0.4-3.1s0.2-2.2,0.5-3.1c0.3-0.9,0.7-1.5,1.2-1.9
		c0.5-0.4,1-0.6,1.6-0.6c0.6,0,1.1,0.2,1.6,0.6c0.5,0.4,0.9,1.1,1.2,1.9c0.3,0.8,0.4,1.9,0.4,3.1s-0.2,2.2-0.5,3.1
		c-0.3,0.8-0.7,1.5-1.2,1.9s-1,0.6-1.6,0.6C697.1,181.4,696.6,181.1,696.1,180.7z M699.1,179.6c0.3-0.8,0.5-2.1,0.5-3.8
		s-0.2-3-0.5-3.8c-0.3-0.9-0.8-1.3-1.4-1.3c-0.6,0-1.1,0.4-1.4,1.3c-0.3,0.9-0.5,2.1-0.5,3.8s0.2,3,0.5,3.8c0.3,0.8,0.8,1.3,1.4,1.3
		C698.3,180.8,698.7,180.4,699.1,179.6z"/>
	<path class="st1" d="M703.9,180.7c-0.5-0.4-0.9-1-1.2-1.9c-0.3-0.8-0.4-1.9-0.4-3.1s0.1-2.2,0.4-3.1c0.3-0.9,0.7-1.5,1.2-1.9
		c0.5-0.4,1-0.6,1.6-0.6c0.6,0,1.1,0.2,1.6,0.6c0.5,0.4,0.9,1.1,1.2,1.9c0.3,0.8,0.4,1.9,0.4,3.1s-0.2,2.2-0.5,3.1
		c-0.3,0.8-0.7,1.5-1.2,1.9c-0.5,0.4-1,0.6-1.6,0.6C704.9,181.4,704.4,181.1,703.9,180.7z M706.9,179.6c0.3-0.8,0.5-2.1,0.5-3.8
		s-0.2-3-0.5-3.8c-0.3-0.9-0.8-1.3-1.4-1.3c-0.6,0-1.1,0.4-1.4,1.3c-0.3,0.9-0.5,2.1-0.5,3.8s0.2,3,0.5,3.8s0.8,1.3,1.4,1.3
		C706.1,180.8,706.5,180.4,706.9,179.6z"/>
	<path class="st1" d="M711.7,180.7c-0.5-0.4-0.9-1-1.2-1.9c-0.3-0.8-0.4-1.9-0.4-3.1s0.2-2.2,0.5-3.1c0.3-0.9,0.7-1.5,1.2-1.9
		c0.5-0.4,1-0.6,1.6-0.6c0.6,0,1.1,0.2,1.6,0.6c0.5,0.4,0.9,1.1,1.2,1.9c0.3,0.8,0.4,1.9,0.4,3.1s-0.2,2.2-0.5,3.1
		c-0.3,0.8-0.7,1.5-1.2,1.9s-1,0.6-1.6,0.6C712.7,181.4,712.2,181.1,711.7,180.7z M714.7,179.6c0.3-0.8,0.5-2.1,0.5-3.8
		s-0.2-3-0.5-3.8c-0.3-0.9-0.8-1.3-1.4-1.3c-0.6,0-1.1,0.4-1.4,1.3c-0.3,0.9-0.5,2.1-0.5,3.8s0.2,3,0.5,3.8c0.3,0.8,0.8,1.3,1.4,1.3
		C713.9,180.8,714.3,180.4,714.7,179.6z"/>
	<path class="st1" d="M720.2,175.8c-0.1,0.1-0.1,0.1-0.1,0.2v2.3c0,1.1,0.1,2.2,0.1,3.3v0.1c0,0.1,0,0.2-0.1,0.3
		c-0.2,0.2-0.4,0.3-0.8,0.3c-0.1,0-0.2,0-0.2-0.1c-0.1-0.1-0.1-0.1-0.1-0.2c0-0.6,0.1-1.2,0.1-1.7c0-0.6,0-1.3,0.1-2.2v-5.7
		c0-1,0-1.8-0.1-2.6v-0.1c0-0.2,0.1-0.2,0.2-0.2c0.1,0,0.1,0,0.2,0l0.6,0.3c0.1,0.1,0.3,0.1,0.4,0.1h8.5c0.2,0,0.3-0.1,0.4-0.2
		l0.1-0.1c0,0,0.1-0.1,0.1-0.2c0.1-0.1,0.1-0.1,0.2-0.1c0.1,0,0.2,0.1,0.5,0.3c0.2,0.2,0.4,0.3,0.6,0.5c0,0.1,0.1,0.1,0.1,0.2
		c0,0.1,0,0.1-0.1,0.2c0,0-0.1,0-0.1,0c0,0-0.1,0-0.1,0c-0.2,0.1-0.3,0.2-0.3,0.3v10c0,0.4-0.1,0.7-0.3,0.9
		c-0.2,0.2-0.6,0.4-1.1,0.4l-0.1,0c-0.1,0-0.2-0.1-0.3-0.3c-0.1-0.2-0.2-0.3-0.3-0.4c-0.2-0.2-0.7-0.3-1.2-0.3
		c-0.2,0-0.3-0.1-0.3-0.2s0.1-0.1,0.3-0.1c1,0.1,1.6,0.1,1.9,0.1c0.2,0,0.3,0,0.3-0.1c0.1-0.1,0.1-0.2,0.1-0.3V176
		c0-0.1,0-0.2-0.1-0.2c-0.1-0.1-0.1-0.1-0.2-0.1h-8.6C720.3,175.7,720.3,175.7,720.2,175.8z M724.1,170.4c-0.1-0.1-0.1-0.1-0.2-0.1
		h-3.4c-0.1,0-0.2,0-0.2,0.1c-0.1,0.1-0.1,0.1-0.1,0.2v4.3c0,0.1,0,0.2,0.1,0.2c0.1,0.1,0.1,0.1,0.2,0.1h3.4c0.1,0,0.2,0,0.2-0.1
		c0.1-0.1,0.1-0.1,0.1-0.2v-4.3C724.2,170.6,724.2,170.5,724.1,170.4z M725.2,170.4c-0.1,0.1-0.1,0.1-0.1,0.2v4.3
		c0,0.1,0,0.2,0.1,0.2c0.1,0.1,0.1,0.1,0.2,0.1h3.5c0.1,0,0.2,0,0.2-0.1c0.1-0.1,0.1-0.1,0.1-0.2v-4.3c0-0.1,0-0.2-0.1-0.2
		c-0.1-0.1-0.1-0.1-0.2-0.1h-3.5C725.4,170.3,725.3,170.4,725.2,170.4z"/>
</g>
<line id="線_19" class="st2" x1="0" y1="0.5" x2="800" y2="0.5"/>
<line id="線_20" class="st2" x1="0" y1="70.5" x2="800" y2="70.5"/>
<line id="線_21" class="st2" x1="222.5" y1="0" x2="222.5" y2="210.4"/>
<line id="線_22" class="st2" x1="415.5" y1="0" x2="415.5" y2="210.4"/>
<line id="線_23" class="st2" x1="607.5" y1="0" x2="607.5" y2="210.4"/>
<line id="線_24" class="st2" x1="0" y1="210.5" x2="800" y2="210.5"/>
<line id="線_25" class="st2" x1="0" y1="140.5" x2="800" y2="140.5"/>
</svg>
