<?xml version="1.0" encoding="utf-8"?>
<!-- Generator: Adobe Illustrator 27.9.0, SVG Export Plug-In . SVG Version: 6.00 Build 0)  -->
<svg version="1.1" id="_レイヤー_2" xmlns="http://www.w3.org/2000/svg" xmlns:xlink="http://www.w3.org/1999/xlink" x="0px"
	 y="0px" viewBox="0 0 385.5 689.5" style="enable-background:new 0 0 385.5 689.5;" xml:space="preserve">
<style type="text/css">
	.st0{fill:#FFFFFF;}
	.st1{fill:none;stroke:#000000;stroke-miterlimit:10;stroke-opacity:0;}
	.st2{fill-rule:evenodd;clip-rule:evenodd;fill:#C4C4C4;}
	.st3{fill:none;stroke:#C4C4C4;stroke-width:2;stroke-linejoin:round;}
	.st4{fill-rule:evenodd;clip-rule:evenodd;fill:#BE0410;}
	.st5{fill:#BE0410;}
</style>
<g>
	<path class="st0" d="M383.1,619.1v68H2.4v-68H383.1 M385.5,616.7H0v72.8h385.5L385.5,616.7L385.5,616.7L385.5,616.7z"/>
	<line class="st1" x1="192.8" y1="509.2" x2="192.8" y2="609"/>
	<polygon class="st2" points="189.3,606.9 192.8,616.3 196.2,606.9 	"/>
	<g>
		<line class="st3" x1="192.8" y1="586" x2="192.8" y2="611.5"/>
		<line class="st3" x1="192.8" y1="516.7" x2="192.8" y2="539"/>
	</g>
	<g>
		<path class="st0" d="M175.2,656.4c-1.4,4.5-2.3,6.5-3.1,7.9l-1.8-2c0.5-0.8,1.6-2.4,2.9-7.1L175.2,656.4z M171.6,649.3
			c1.1,0.5,2.6,1.5,3.5,2.2l-1.3,1.9c-0.9-0.8-2.1-1.6-3.3-2.2L171.6,649.3z M172.8,643.3c1,0.5,2.6,1.5,3.4,2.1l-1.5,2
			c-1.2-1-2.2-1.6-3.3-2.2L172.8,643.3L172.8,643.3z M181.7,654.2c-0.2,0.5-0.4,0.9-0.8,1.5h10.2c0,3-0.2,5.8-0.6,7.2
			c-0.5,1.5-1.6,1.5-2.5,1.5h-2.2l-0.4-2.2h2.4c0.5,0,0.7-0.1,0.8-0.6c0.3-0.9,0.4-2.6,0.4-4.2h-1.2c-0.8,3-2.6,5-5.4,6.9l-1.6-1.5
			c3.1-1.9,4.2-3.6,4.8-5.5h-1.9c-1.2,2.3-2.9,4.4-6.8,6.2l-1.3-1.8c0.9-0.4,4.2-1.8,5.8-4.4h-1.7c-1.2,1.2-2.4,2-3.5,2.7l-1.4-1.8
			c3.6-1.9,4.2-3,4.8-4.2h-3.6v-1.9H192v1.9L181.7,654.2L181.7,654.2z M177.4,643.8h13.2v7.3h-13.2V643.8z M179.7,645.5v1.2h8.6
			v-1.2H179.7z M179.7,648.2v1.3h8.6v-1.3H179.7z"/>
		<path class="st0" d="M195.9,653c-0.8,1.2-1.3,1.7-1.8,2.3l-0.9-3c0.8-0.8,2.9-2.8,4.2-9.4l2.5,0.4c-0.2,0.9-0.6,2.8-1.6,5.2v16
			h-2.3V653L195.9,653z M207.9,654c-0.1,0.5-0.1,1.2-0.3,2h7.2v2.2h-6.4c1.3,2.4,4.1,3.7,6.7,4.2l-1.5,2.2c-5-1.7-6.6-4.7-7.1-5.6
			c-1.6,3.3-4.9,4.8-6.9,5.6l-1.4-2.3c2.9-0.8,5.3-2.2,6.3-4.1h-5.8V656h6.5c0.2-0.9,0.2-1.4,0.2-2h-5.9v-2.1h14.2v2.1L207.9,654
			L207.9,654z M200.4,643.6h12.8v6.7h-12.8V643.6z M202.7,645.7v2.4h8.2v-2.4H202.7z"/>
	</g>
	<path class="st0" d="M181.8,546.5c-0.3,0.6-0.6,1.3-1.2,2v8.6h-1.3v-6.9c-0.5,0.5-1,1-1.6,1.5l-0.8-1.4c1.7-1.1,3.1-2.8,4-5
		l1.1,0.9C182.2,546.5,182.1,546.6,181.8,546.5L181.8,546.5L181.8,546.5z M181.5,543.5c-1,1.7-2.1,3.1-3.4,4l-0.9-1.2
		c1.4-0.9,2.6-2.2,3.5-4l1,0.9C181.8,543.4,181.8,543.5,181.5,543.5L181.5,543.5L181.5,543.5z M192.1,555.3l-0.2,1.4h-2.4
		c-2.5,0-4.4-0.9-5.6-2.8c-0.4,1.3-1,2.4-2,3.3l-1-1.2c1.5-1,2.2-3,2.3-6.2l1.5,0.5c0.2,0.2,0.1,0.3-0.2,0.3c0,0.7-0.1,1.4-0.3,2
		c0.6,0.9,1.3,1.5,2,2V549h-4.5v-1.2h4.3v-2.2h-3.4v-1.2h3.4v-2.3h1.2c0.4,0,0.4,0.2,0.1,0.4v1.9h3.6v1.2h-3.6v2.2h4.6v1.2h-4.4v2.3
		h3.6v1.2h-3.6v2.6c0.5,0.1,1.1,0.2,1.9,0.2L192.1,555.3L192.1,555.3z M201.9,543.9h4.7v1.2h-4.7v2h6.4v1.2h-6.4v4.1
		c0,0.7-0.4,1.1-1.1,1.1h-1.4l-0.2-1.2h1.2c0.1,0,0.2-0.1,0.2-0.2v-3.8H194v-1.2h2.9v-3.9h1.2c0.4,0,0.4,0.2,0.1,0.4v3.5h2.4V542
		h1.2c0.4,0,0.4,0.2,0.1,0.4L201.9,543.9L201.9,543.9z M199.3,550c0.2,0.2,0.1,0.3-0.3,0.3c-1.1,1.4-2.4,2.6-4,3.5l-1-1.2
		c1.7-1,3-2.1,4-3.3L199.3,550L199.3,550z M206.1,552.2c0.2,0.2,0.1,0.3-0.2,0.3c-2.3,3-5.8,4.6-10.4,4.6l-0.5-1.6
		c4.7,0,8-1.4,9.9-4.2L206.1,552.2z M204.4,548.8c1.6,0.7,3,1.6,4.2,2.6l-0.9,1.3c-1.4-1.2-2.8-2.2-4.2-2.9L204.4,548.8L204.4,548.8
		L204.4,548.8z"/>
	<g>
		<path class="st0" d="M176.1,578.3h-1.5v-9.4c-0.4,0.3-0.8,0.7-1.4,1c-0.6,0.3-1.1,0.6-1.6,0.8v-1.4c0.8-0.4,1.5-0.9,2.2-1.4
			c0.6-0.5,1.1-1.1,1.3-1.6h0.9L176.1,578.3L176.1,578.3z M182.1,571.8c-0.6-0.2-1.1-0.5-1.4-1c-0.3-0.4-0.4-0.9-0.4-1.5
			c0-0.9,0.3-1.6,0.9-2.2s1.5-0.9,2.5-0.9s1.9,0.3,2.5,0.9s1,1.3,1,2.2c0,0.6-0.1,1-0.4,1.5c-0.3,0.4-0.7,0.7-1.3,1
			c0.7,0.2,1.3,0.6,1.7,1.2c0.4,0.5,0.6,1.2,0.6,1.9c0,1-0.4,1.9-1.1,2.6c-0.7,0.7-1.7,1-2.9,1s-2.1-0.3-2.9-1
			c-0.7-0.7-1.1-1.6-1.1-2.6c0-0.8,0.2-1.4,0.6-2C180.8,572.3,181.4,572,182.1,571.8L182.1,571.8z M181.4,574.8
			c0,0.4,0.1,0.8,0.3,1.2c0.2,0.4,0.5,0.7,0.9,0.9c0.4,0.2,0.8,0.3,1.3,0.3c0.7,0,1.3-0.2,1.7-0.7s0.7-1,0.7-1.7s-0.2-1.3-0.7-1.8
			c-0.5-0.5-1.1-0.7-1.8-0.7s-1.3,0.2-1.7,0.7C181.6,573.5,181.4,574.1,181.4,574.8L181.4,574.8z M181.8,569.3c0,0.6,0.2,1,0.6,1.4
			c0.4,0.4,0.8,0.5,1.4,0.5s1-0.2,1.4-0.5s0.5-0.8,0.5-1.3s-0.2-1-0.6-1.4s-0.8-0.5-1.4-0.5s-1,0.2-1.4,0.5S181.8,568.8,181.8,569.3
			L181.8,569.3z M190.4,577.2c-0.8-1-1.2-2.6-1.2-4.9c0-1.4,0.1-2.6,0.4-3.4c0.3-0.9,0.7-1.5,1.3-2s1.3-0.7,2.2-0.7
			c0.6,0,1.2,0.1,1.7,0.4c0.5,0.3,0.9,0.6,1.2,1.1c0.3,0.5,0.6,1.1,0.7,1.8c0.2,0.7,0.3,1.6,0.3,2.8c0,1.4-0.1,2.5-0.4,3.4
			c-0.3,0.9-0.7,1.5-1.3,2s-1.3,0.7-2.2,0.7C191.9,578.5,191,578.1,190.4,577.2L190.4,577.2L190.4,577.2z M191.4,568.3
			c-0.5,0.7-0.8,2.1-0.8,4s0.2,3.3,0.7,3.9c0.5,0.7,1,1,1.7,1s1.2-0.3,1.7-1c0.5-0.7,0.7-2,0.7-3.9s-0.2-3.3-0.7-3.9
			c-0.5-0.7-1-1-1.7-1S191.8,567.8,191.4,568.3L191.4,568.3L191.4,568.3z"/>
		<path class="st0" d="M204.7,566.2c-1.1,2.3-2.7,4.3-5,6.2l-1.1-1.2c2.3-1.6,3.9-3.6,5-6.1l1.2,0.8
			C205.1,566,205.1,566.1,204.7,566.2L204.7,566.2L204.7,566.2z M210.6,571.3l-0.3,5.3c-0.1,1.8-0.7,2.8-1.9,2.8h-2l-0.2-1.4h1.6
			c0.6,0,0.9-0.4,0.9-1.1l0.3-4.2h-3.6l-0.1,0.5c-0.3,2.4-2,4.6-5.2,6.6l-1-1.2c2.8-1.6,4.4-3.3,4.7-5.1l0.1-0.8h-2.5v-1.2
			L210.6,571.3L210.6,571.3z M212.8,572.4c-2.4-1.4-4.2-3.7-5.3-6.9l1.2-0.5c1.1,2.8,2.7,4.8,5,6L212.8,572.4z"/>
	</g>
	<g>
		<g>
			<polygon class="st2" points="325.6,431.6 329,441.1 332.5,431.6 			"/>
			<line class="st3" x1="329" y1="375.6" x2="329" y2="436.3"/>
		</g>
		<g>
			<path class="st0" d="M316.4,329.5c-0.3,0.6-0.6,1.3-1.2,2v8.6h-1.3v-6.9c-0.5,0.5-1,1-1.6,1.5l-0.8-1.4c1.7-1.1,3.1-2.8,4-5
				l1.1,0.9C316.8,329.4,316.7,329.5,316.4,329.5L316.4,329.5L316.4,329.5z M316,326.4c-1,1.7-2.1,3.1-3.4,4l-0.9-1.2
				c1.4-0.9,2.5-2.2,3.5-4l1,0.9C316.4,326.4,316.4,326.5,316,326.4L316,326.4L316,326.4z M326.6,338.3l-0.2,1.4H324
				c-2.5,0-4.4-0.9-5.6-2.8c-0.4,1.4-1,2.4-2,3.3l-1-1.2c1.5-1,2.2-3,2.3-6.2l1.5,0.5c0.2,0.2,0.1,0.3-0.2,0.3c0,0.7-0.1,1.4-0.3,2
				c0.6,0.9,1.3,1.5,2,2V332h-4.5v-1.2h4.3v-2.2h-3.4v-1.2h3.4V325h1.2c0.4,0,0.4,0.2,0.1,0.4v1.9h3.6v1.2h-3.6v2.2h4.6v1.2H322v2.3
				h3.6v1.2H322v2.6c0.5,0.1,1.2,0.2,1.9,0.2L326.6,338.3L326.6,338.3z M336.5,326.9h4.7v1.2h-4.7v2h6.4v1.2h-6.4v4.1
				c0,0.7-0.4,1.1-1,1.1H334l-0.2-1.2h1.2c0.1,0,0.2-0.1,0.2-0.2v-3.8h-6.6v-1.2h2.9v-3.9h1.2c0.4,0,0.4,0.2,0.1,0.4v3.5h2.4V325
				h1.2c0.4,0,0.4,0.2,0.1,0.4L336.5,326.9L336.5,326.9z M333.8,332.9c0.2,0.2,0.1,0.3-0.3,0.3c-1,1.4-2.4,2.6-4,3.5l-1-1.2
				c1.7-1,3-2.1,4-3.3L333.8,332.9L333.8,332.9z M340.6,335.1c0.2,0.2,0.1,0.3-0.2,0.3c-2.3,3-5.8,4.6-10.4,4.6l-0.5-1.6
				c4.7,0,8-1.4,9.9-4.2L340.6,335.1z M338.9,331.8c1.6,0.7,3,1.6,4.2,2.6l-0.9,1.3c-1.4-1.2-2.8-2.2-4.2-2.9L338.9,331.8
				L338.9,331.8z"/>
			<g>
				<path class="st0" d="M319.3,356.6l-1.5,0.1c-0.1-0.6-0.3-1-0.6-1.3c-0.4-0.4-0.9-0.6-1.5-0.6c-0.5,0-0.9,0.1-1.2,0.4
					c-0.5,0.3-0.8,0.8-1.1,1.5c-0.3,0.6-0.4,1.6-0.4,2.8c0.4-0.5,0.8-0.9,1.3-1.2c0.5-0.3,1-0.4,1.6-0.4c1,0,1.8,0.4,2.5,1.1
					s1,1.7,1,2.8c0,0.8-0.2,1.5-0.5,2.1c-0.3,0.6-0.8,1.1-1.3,1.5s-1.2,0.5-1.9,0.5c-1.2,0-2.2-0.5-3-1.4s-1.2-2.4-1.2-4.5
					c0-2.3,0.4-4,1.3-5c0.8-0.9,1.8-1.4,3-1.4c0.9,0,1.7,0.3,2.3,0.8S319.2,355.6,319.3,356.6L319.3,356.6z M313.3,361.8
					c0,0.5,0.1,1,0.3,1.5c0.2,0.5,0.5,0.8,0.9,1.1c0.4,0.2,0.8,0.4,1.2,0.4c0.6,0,1.2-0.2,1.6-0.8c0.5-0.5,0.7-1.2,0.7-2
					s-0.2-1.5-0.7-2c-0.4-0.5-1-0.7-1.7-0.7s-1.2,0.2-1.7,0.7S313.3,361,313.3,361.8L313.3,361.8z M322.1,364.6
					c-0.8-1-1.2-2.6-1.2-4.9c0-1.4,0.1-2.6,0.4-3.4c0.3-0.9,0.7-1.5,1.3-2s1.3-0.7,2.2-0.7c0.6,0,1.2,0.1,1.7,0.4
					c0.5,0.3,0.9,0.6,1.2,1.1c0.3,0.5,0.6,1.1,0.7,1.8s0.3,1.6,0.3,2.8c0,1.4-0.1,2.5-0.4,3.4c-0.3,0.9-0.7,1.5-1.3,2
					s-1.3,0.7-2.2,0.7C323.7,365.8,322.8,365.4,322.1,364.6L322.1,364.6L322.1,364.6z M323.2,355.7c-0.5,0.7-0.8,2.1-0.8,4
					s0.2,3.3,0.7,3.9s1,1,1.7,1s1.2-0.3,1.7-1c0.5-0.6,0.7-2,0.7-3.9s-0.2-3.3-0.7-3.9s-1-1-1.7-1S323.6,355.1,323.2,355.7
					L323.2,355.7L323.2,355.7z"/>
				<path class="st0" d="M336.5,353.5c-1,2.3-2.7,4.3-5,6.2l-1-1.2c2.3-1.6,3.9-3.6,5-6.1l1.2,0.8
					C336.9,353.4,336.9,353.5,336.5,353.5L336.5,353.5L336.5,353.5z M342.4,358.7l-0.3,5.3c-0.1,1.8-0.7,2.8-1.9,2.8h-2l-0.2-1.4
					h1.6c0.6,0,0.9-0.4,0.9-1.1l0.3-4.2h-3.6l-0.1,0.5c-0.3,2.4-2,4.6-5.2,6.6l-1-1.2c2.8-1.6,4.4-3.3,4.7-5.1l0.1-0.8h-2.5v-1.2
					L342.4,358.7L342.4,358.7z M344.6,359.8c-2.4-1.4-4.2-3.7-5.3-6.9l1.2-0.5c1,2.8,2.7,4.8,5,6L344.6,359.8z"/>
			</g>
		</g>
		<line class="st3" x1="329" y1="298.9" x2="329" y2="320.9"/>
	</g>
	<g>
		<polygon class="st2" points="189.3,431.6 192.8,441.1 196.2,431.6 		"/>
		<line class="st3" x1="192.8" y1="394.9" x2="192.8" y2="436.3"/>
		<line class="st3" x1="192.8" y1="298.9" x2="192.8" y2="320.9"/>
		<path class="st0" d="M170.5,326.2c-0.2,0.5-0.4,1-0.6,1.5h4.4l0.7-0.3l0.9,0.9c0.2,0.2,0.1,0.4-0.3,0.5c-0.4,1.7-0.9,3.3-1.6,4.8
			l1.6,1l-1,1.4l-1.4-1c-1.3,1.8-3.1,3.3-5.4,4.5l-1.5-1.1c2.6-1.1,4.5-2.5,5.6-4.3c-1.1-0.7-2.2-1.3-3.2-1.9l0.8-1.2
			c1.4,0.6,2.5,1.2,3.3,1.7c0.6-1.4,1.1-2.5,1.2-3.6h-4.8c-0.8,1.5-1.9,2.8-3.1,4.1l-1.2-0.9c2.2-2.3,3.7-4.8,4.4-7.3l1.6,0.6
			C171.1,325.8,171,326,170.5,326.2L170.5,326.2L170.5,326.2z M189,329.4c-0.8,4.8-3.6,8.2-8.2,10.2l-1.2-1.2c4.3-1.7,6.9-4.8,7.7-9
			h-5.2c-1,1.7-2.1,3-3.1,4l-1.3-0.9c2.3-2,3.7-4.5,4.4-7.2l1.5,0.5c0.3,0.1,0.2,0.3-0.1,0.4c-0.2,0.6-0.4,1.1-0.7,1.7h4.7l0.6-0.3
			l1.2,1.2C189.5,329,189.5,329.2,189,329.4L189,329.4L189,329.4z M192.1,329.4c1.1,0.6,2.2,1.3,3.3,2.1l-1.1,1.4
			c-1.3-1-2.4-1.7-3.3-2.1L192.1,329.4L192.1,329.4L192.1,329.4z M192.6,337.3c4.8-1,8.3-3.5,10.7-7.4l1.2,1.2
			c-2.2,3.6-5.7,6.1-10.3,7.6c-0.1,0.5-0.4,0.5-0.6,0.1L192.6,337.3L192.6,337.3z M193.9,325.5c1.2,0.6,2.3,1.4,3.3,2.1l-0.9,1.4
			c-1.2-0.8-2.3-1.5-3.3-2.1L193.9,325.5L193.9,325.5z M206.1,333v-1.4h14.6v1.4H206.1z"/>
		<path class="st0" d="M183.8,365.2v1.4h-7.9c0-0.4,0.1-0.7,0.2-1c0.2-0.5,0.5-1.1,1-1.6c0.4-0.5,1.1-1.1,1.9-1.8
			c1.3-1.1,2.2-1.9,2.6-2.5c0.5-0.6,0.7-1.2,0.7-1.8c0-0.6-0.2-1.1-0.6-1.5c-0.4-0.4-1-0.6-1.6-0.6c-0.7,0-1.3,0.2-1.7,0.6
			c-0.4,0.4-0.6,1-0.6,1.8l-1.5-0.2c0.1-1.1,0.5-2,1.2-2.6s1.6-0.9,2.7-0.9s2.1,0.3,2.7,1s1,1.4,1,2.4c0,0.5-0.1,1-0.3,1.4
			c-0.2,0.5-0.5,1-1,1.5c-0.5,0.5-1.2,1.2-2.3,2.1c-0.9,0.7-1.4,1.2-1.7,1.5c-0.2,0.3-0.5,0.5-0.6,0.8L183.8,365.2L183.8,365.2z
			 M186.6,365.6c-0.8-1-1.2-2.6-1.2-4.9c0-1.4,0.1-2.6,0.4-3.4c0.3-0.9,0.7-1.5,1.3-2s1.3-0.7,2.2-0.7c0.6,0,1.2,0.1,1.7,0.4
			c0.5,0.3,0.9,0.6,1.2,1.1c0.3,0.5,0.6,1.1,0.7,1.8c0.2,0.7,0.3,1.6,0.3,2.8c0,1.4-0.1,2.5-0.4,3.4c-0.3,0.9-0.7,1.5-1.3,2
			s-1.3,0.7-2.2,0.7C188.1,366.9,187.2,366.4,186.6,365.6L186.6,365.6L186.6,365.6z M187.7,356.7c-0.5,0.7-0.8,2.1-0.8,4
			s0.2,3.3,0.7,3.9s1,1,1.7,1s1.2-0.3,1.7-1c0.5-0.6,0.7-2,0.7-3.9s-0.2-3.3-0.7-3.9s-1-1-1.7-1S188.1,356.1,187.7,356.7
			L187.7,356.7L187.7,356.7z"/>
		<path class="st0" d="M200.9,354.5c-1.1,2.3-2.7,4.3-5,6.2l-1.1-1.2c2.3-1.6,3.9-3.6,5-6.1l1.2,0.8
			C201.3,354.4,201.3,354.5,200.9,354.5L200.9,354.5L200.9,354.5z M206.8,359.7l-0.3,5.3c-0.1,1.8-0.7,2.8-1.9,2.8h-2l-0.2-1.4h1.6
			c0.6,0,0.9-0.4,0.9-1.1l0.3-4.2h-3.6l-0.1,0.5c-0.3,2.4-2,4.6-5.2,6.6l-1-1.2c2.8-1.6,4.4-3.3,4.7-5.1l0.1-0.8h-2.5v-1.2
			L206.8,359.7L206.8,359.7z M209.1,360.8c-2.4-1.4-4.2-3.7-5.3-6.9l1.2-0.5c1.1,2.8,2.7,4.8,5,6L209.1,360.8z"/>
		<path class="st0" d="M145.5,374c0.4,0.1,0.5,0.3,0.1,0.5v2.8h4.1v-3.9h1.4c0.4,0.1,0.5,0.3,0.1,0.5v3.4h4.8v1.4h-10.4v2.1h7.4v7.3
			h-1.5v-5.9h-5.9v0.6c0,2.1-0.8,3.9-2.5,5.3l-1.1-1c1.5-1.1,2.2-2.5,2.2-4.4V374L145.5,374L145.5,374z M164.9,387.9
			c-1.4,0-2.6-0.5-3.7-1.6c-0.9,0.9-1.7,1.5-2.2,1.8l-0.7-1.5l2.4-1.3v-4.1h-2.2v-1.2h3.5v5.4c0.8,0.9,2,1.4,3.4,1.4h7.9l-0.3,1.2
			L164.9,387.9L164.9,387.9z M160.9,377.1c-0.6-0.8-1.3-1.7-2.2-2.5l1.1-0.9c1,0.9,1.8,1.7,2.4,2.4L160.9,377.1L160.9,377.1z
			 M168.5,376.3l-0.7,1.2h3.6v8.2h-1.1v-0.5h-5.2v0.7h-1.1v-8.4h2.6l0.5-1.2h-4.4v-1h2.9c-0.3-0.4-0.7-0.8-1.2-1.4l1.1-0.8
			c0.5,0.4,0.9,0.9,1.4,1.4l-1,0.7h2.6l0.9-2.2l1.4,0.3c0.2,0.2,0.1,0.3-0.2,0.3l-1,1.6h3.5v1L168.5,376.3L168.5,376.3z
			 M170.2,378.6h-5.2v1.2h5.2V378.6z M170.2,380.8h-5.2v1.1h5.2V380.8z M170.2,383h-5.2v1.2h5.2V383z M180.6,380.1
			c-0.1-0.4-0.3-0.7-0.6-1l0.9-0.6c0.8,1,1.3,1.9,1.6,2.8l-1.1,0.6l-0.3-0.8l-1.8,0.2v7.1h-1.3v-6.9l-2.6,0.2c0,0.3-0.1,0.4-0.3,0.2
			l-0.2-1.6h1.4l1.2-1.4c-0.8-0.6-1.7-1.3-2.6-1.8l0.8-1l0.6,0.4l2-3.3l1.2,0.7c0.1,0.2,0.1,0.3-0.2,0.3l-2.1,2.9l1,0.7l1.9-2.6
			l1.2,0.7c0.1,0.2,0.1,0.3-0.2,0.3l-3.3,4.1L180.6,380.1L180.6,380.1L180.6,380.1z M175.2,386.5c0.4-1,0.6-2.3,0.8-3.8l1.3,0.2
			c0.1,0.1,0.1,0.3-0.1,0.4c-0.2,1.5-0.4,2.7-0.8,3.7L175.2,386.5L175.2,386.5z M180.9,386.2c0-1.2-0.3-2.4-0.6-3.5l1.2-0.3
			c0.5,1.1,0.8,2.3,0.9,3.5L180.9,386.2L180.9,386.2L180.9,386.2z M185.3,374.1c-0.2,0.8-0.4,1.6-0.7,2.4h4.9l-0.3,8.9
			c0,1.7-0.7,2.5-1.9,2.5h-2.5l-0.2-1.4h2.1c0.7,0,1.1-0.4,1.2-1.3l0.2-7.5h-4c-0.3,0.7-0.6,1.3-1.1,1.8l-1.1-0.8
			c1-1.3,1.7-3.2,2.2-5.6l1.4,0.5C185.6,374,185.6,374.1,185.3,374.1L185.3,374.1L185.3,374.1z M184.3,380.6
			c0.8,0.6,1.6,1.5,2.3,2.6l-1.1,0.9c-0.5-1-1.2-1.9-2.1-2.6L184.3,380.6L184.3,380.6z"/>
		<path class="st0" d="M200.1,385.3v1.4h-7.9c0-0.4,0.1-0.7,0.2-1c0.2-0.5,0.5-1.1,1-1.6c0.4-0.5,1.1-1.1,1.9-1.8
			c1.3-1.1,2.2-1.9,2.6-2.5c0.5-0.6,0.7-1.2,0.7-1.8c0-0.6-0.2-1.1-0.6-1.5s-1-0.6-1.6-0.6c-0.7,0-1.3,0.2-1.7,0.6s-0.6,1-0.6,1.8
			l-1.5-0.2c0.1-1.1,0.5-2,1.2-2.6s1.6-0.9,2.7-0.9s2.1,0.3,2.7,1c0.7,0.6,1,1.4,1,2.4c0,0.5-0.1,1-0.3,1.4c-0.2,0.5-0.5,1-1,1.5
			c-0.5,0.5-1.2,1.2-2.3,2.1c-0.9,0.7-1.4,1.2-1.7,1.5c-0.2,0.3-0.5,0.5-0.6,0.8L200.1,385.3L200.1,385.3z M201.7,383.6l1.6-0.1
			c0.1,0.8,0.4,1.3,0.8,1.7s0.9,0.6,1.5,0.6c0.7,0,1.3-0.3,1.8-0.8s0.7-1.2,0.7-2.1s-0.2-1.5-0.7-2s-1.1-0.7-1.9-0.7
			c-0.5,0-0.9,0.1-1.3,0.3c-0.4,0.2-0.7,0.5-0.9,0.8l-1.4-0.2l1.2-6.2h6v1.4h-4.8l-0.6,3.2c0.7-0.5,1.5-0.8,2.3-0.8
			c1.1,0,1.9,0.4,2.6,1.1s1.1,1.7,1.1,2.8s-0.3,2-0.9,2.8c-0.8,1-1.8,1.5-3.1,1.5c-1.1,0-2-0.3-2.7-0.9
			C202.2,385.4,201.8,384.6,201.7,383.6L201.7,383.6z M212.2,385.7c-0.8-1-1.2-2.6-1.2-4.9c0-1.4,0.1-2.6,0.4-3.4
			c0.3-0.9,0.7-1.5,1.3-2s1.3-0.7,2.2-0.7c0.6,0,1.2,0.1,1.7,0.4c0.5,0.3,0.9,0.6,1.2,1.1c0.3,0.5,0.6,1.1,0.7,1.8
			c0.2,0.7,0.3,1.6,0.3,2.8c0,1.4-0.1,2.5-0.4,3.4c-0.3,0.9-0.7,1.5-1.3,2s-1.3,0.7-2.2,0.7C213.7,386.9,212.8,386.5,212.2,385.7
			L212.2,385.7L212.2,385.7z M213.3,376.8c-0.5,0.7-0.8,2.1-0.8,4s0.2,3.3,0.7,3.9s1,1,1.7,1s1.2-0.3,1.7-1c0.5-0.6,0.7-2,0.7-3.9
			s-0.2-3.3-0.7-3.9s-1-1-1.7-1S213.6,376.2,213.3,376.8L213.3,376.8L213.3,376.8z M221.5,385.7c-0.8-1-1.2-2.6-1.2-4.9
			c0-1.4,0.1-2.6,0.4-3.4c0.3-0.9,0.7-1.5,1.3-2s1.3-0.7,2.2-0.7c0.6,0,1.2,0.1,1.7,0.4c0.5,0.3,0.9,0.6,1.2,1.1
			c0.3,0.5,0.6,1.1,0.7,1.8c0.2,0.7,0.3,1.6,0.3,2.8c0,1.4-0.1,2.5-0.4,3.4c-0.3,0.9-0.7,1.5-1.3,2s-1.3,0.7-2.2,0.7
			C223,386.9,222.1,386.5,221.5,385.7L221.5,385.7L221.5,385.7z M222.6,376.8c-0.5,0.7-0.8,2.1-0.8,4s0.2,3.3,0.7,3.9s1,1,1.7,1
			s1.2-0.3,1.7-1c0.5-0.6,0.7-2,0.7-3.9s-0.2-3.3-0.7-3.9s-1-1-1.7-1S223,376.2,222.6,376.8L222.6,376.8L222.6,376.8z"/>
		<path class="st0" d="M243.5,386.5c0,0.7-0.4,1-1.1,1h-1.7l-0.4-1.4h1.4c0.2,0,0.3-0.1,0.3-0.3v-4.4h-9.6v6.1h-1.5v-13.3h12.6
			V386.5L243.5,386.5z M232.4,375.6v4.6h4.1v-4.6H232.4z M242,375.6h-4.2v4.6h4.2V375.6z"/>
	</g>
	<g>
		<g>
			<polygon class="st2" points="189,216.3 192.4,225.8 195.9,216.3 			"/>
			<line class="st3" x1="192.4" y1="200.3" x2="192.4" y2="221"/>
		</g>
		<g>
			<path class="st0" d="M170.5,129c-0.2,0.5-0.4,1-0.6,1.5h4.4l0.7-0.3l0.9,0.9c0.2,0.2,0.1,0.4-0.3,0.5c-0.4,1.7-0.9,3.3-1.6,4.8
				l1.6,1.1l-1,1.4l-1.4-1.1c-1.3,1.8-3.1,3.3-5.4,4.5l-1.5-1.1c2.6-1.1,4.5-2.5,5.6-4.3c-1.1-0.7-2.2-1.3-3.2-1.9l0.8-1.2
				c1.4,0.6,2.5,1.2,3.3,1.7c0.6-1.4,1.1-2.6,1.2-3.6h-4.8c-0.8,1.5-1.9,2.8-3.1,4.1l-1.2-0.9c2.2-2.3,3.7-4.8,4.4-7.3l1.6,0.6
				C171.1,128.6,171,128.8,170.5,129L170.5,129L170.5,129z M189,132.2c-0.8,4.8-3.6,8.2-8.2,10.2l-1.2-1.2c4.3-1.7,6.9-4.8,7.7-9
				h-5.2c-1,1.7-2.1,3-3.1,4l-1.3-0.9c2.3-2.1,3.7-4.4,4.4-7.2l1.5,0.5c0.3,0.1,0.2,0.3-0.1,0.4c-0.2,0.6-0.4,1.1-0.7,1.7h4.7
				l0.6-0.3l1.2,1.2C189.5,131.8,189.5,132,189,132.2L189,132.2L189,132.2z M192.1,132.2c1.1,0.6,2.2,1.3,3.3,2.1l-1.1,1.4
				c-1.3-1-2.4-1.7-3.3-2.1L192.1,132.2L192.1,132.2L192.1,132.2z M192.6,140.1c4.8-1.1,8.3-3.5,10.7-7.4l1.2,1.2
				c-2.2,3.6-5.7,6.1-10.3,7.6c-0.1,0.5-0.4,0.5-0.6,0.1L192.6,140.1L192.6,140.1z M193.9,128.3c1.2,0.6,2.3,1.4,3.3,2.1l-0.9,1.4
				c-1.2-0.8-2.3-1.5-3.3-2.1L193.9,128.3L193.9,128.3z M206.1,135.8v-1.4h14.6v1.4H206.1z"/>
			<g>
				<path class="st0" d="M176.1,162.1l1.5-0.2c0.2,0.8,0.5,1.4,0.9,1.8c0.4,0.4,0.9,0.6,1.5,0.6c0.7,0,1.3-0.2,1.8-0.7
					c0.5-0.5,0.7-1.1,0.7-1.8s-0.2-1.2-0.7-1.7s-1-0.7-1.7-0.7c-0.3,0-0.6,0.1-1,0.2l0.2-1.3c0.1,0,0.2,0,0.2,0
					c0.6,0,1.2-0.2,1.7-0.5s0.8-0.8,0.8-1.5c0-0.5-0.2-1-0.6-1.3c-0.4-0.4-0.8-0.5-1.4-0.5s-1.1,0.2-1.4,0.5
					c-0.4,0.4-0.6,0.9-0.7,1.6l-1.5-0.3c0.2-1,0.6-1.8,1.2-2.3s1.4-0.8,2.4-0.8c0.6,0,1.3,0.1,1.8,0.4s1,0.7,1.3,1.1
					c0.3,0.5,0.4,1,0.4,1.6s-0.1,1-0.4,1.4s-0.7,0.8-1.2,1c0.7,0.2,1.3,0.5,1.6,1s0.6,1.2,0.6,1.9c0,1.1-0.4,1.9-1.1,2.7
					c-0.8,0.7-1.7,1.1-2.9,1.1c-1.1,0-1.9-0.3-2.6-0.9C176.6,163.9,176.2,163.1,176.1,162.1L176.1,162.1z M186.6,164.2
					c-0.8-1-1.2-2.6-1.2-4.9c0-1.4,0.1-2.6,0.4-3.4c0.3-0.9,0.7-1.5,1.3-2s1.3-0.7,2.2-0.7c0.6,0,1.2,0.1,1.7,0.4
					c0.5,0.3,0.9,0.6,1.2,1.1c0.3,0.5,0.6,1.1,0.7,1.8c0.2,0.7,0.3,1.6,0.3,2.8c0,1.4-0.1,2.5-0.4,3.4c-0.3,0.9-0.7,1.5-1.3,2
					s-1.3,0.7-2.2,0.7C188.1,165.5,187.2,165.1,186.6,164.2L186.6,164.2L186.6,164.2z M187.7,155.3c-0.5,0.7-0.8,2.1-0.8,4.1
					s0.2,3.3,0.7,3.9s1,1,1.7,1s1.2-0.3,1.7-1c0.5-0.6,0.7-2,0.7-3.9s-0.2-3.3-0.7-3.9s-1-1-1.7-1S188.1,154.7,187.7,155.3
					L187.7,155.3L187.7,155.3z"/>
				<path class="st0" d="M200.9,153.1c-1.1,2.3-2.7,4.3-5,6.2l-1.1-1.2c2.3-1.6,3.9-3.6,5-6.1l1.2,0.8
					C201.3,153,201.3,153.1,200.9,153.1L200.9,153.1L200.9,153.1z M206.8,158.3l-0.3,5.3c-0.1,1.8-0.7,2.8-1.9,2.8h-2l-0.2-1.4h1.6
					c0.6,0,0.9-0.4,0.9-1.1l0.3-4.2h-3.6l-0.1,0.5c-0.3,2.4-2,4.6-5.2,6.6l-1-1.2c2.8-1.6,4.4-3.3,4.7-5.1l0.1-0.8h-2.5v-1.2
					L206.8,158.3L206.8,158.3z M209.1,159.4c-2.4-1.4-4.2-3.7-5.3-6.9l1.2-0.5c1.1,2.8,2.7,4.8,5,6L209.1,159.4z"/>
				<path class="st0" d="M145.5,172.6c0.4,0.1,0.5,0.3,0.1,0.5v2.8h4.1v-3.9h1.4c0.4,0.1,0.5,0.3,0.1,0.5v3.4h4.8v1.4h-10.4v2.1h7.4
					v7.3h-1.5v-5.9h-5.9v0.6c0,2.1-0.8,3.9-2.5,5.3l-1.1-1.1c1.5-1.1,2.2-2.6,2.2-4.4v-8.8L145.5,172.6L145.5,172.6z M164.9,186.5
					c-1.4,0-2.6-0.6-3.7-1.6c-0.9,0.9-1.7,1.5-2.2,1.8l-0.7-1.5l2.4-1.3v-4.1h-2.2v-1.2h3.5v5.4c0.8,0.9,2,1.4,3.4,1.4h7.9l-0.3,1.2
					L164.9,186.5L164.9,186.5z M160.9,175.7c-0.6-0.8-1.3-1.7-2.2-2.6l1.1-0.9c1,0.9,1.8,1.7,2.4,2.4L160.9,175.7L160.9,175.7z
					 M168.5,174.9l-0.7,1.2h3.6v8.2h-1.1v-0.5h-5.2v0.7h-1.1v-8.4h2.6l0.5-1.2h-4.4v-1.1h2.9c-0.3-0.4-0.7-0.8-1.2-1.4l1.1-0.8
					c0.5,0.4,0.9,0.9,1.4,1.4l-1,0.7h2.6l0.9-2.2l1.4,0.3c0.2,0.2,0.1,0.3-0.2,0.3l-1,1.6h3.5v1.1L168.5,174.9L168.5,174.9z
					 M170.2,177.2h-5.2v1.2h5.2V177.2z M170.2,179.4h-5.2v1.1h5.2V179.4z M170.2,181.6h-5.2v1.2h5.2V181.6z M180.6,178.7
					c-0.1-0.4-0.3-0.7-0.6-1l0.9-0.6c0.8,1,1.3,1.9,1.6,2.8l-1.1,0.6l-0.3-0.8l-1.8,0.2v7.1h-1.3V180l-2.6,0.2
					c0,0.3-0.1,0.4-0.3,0.2l-0.2-1.6h1.4l1.2-1.4c-0.8-0.6-1.7-1.3-2.6-1.8l0.8-1l0.6,0.4l2-3.3l1.2,0.7c0.1,0.2,0.1,0.3-0.2,0.3
					l-2.1,2.9l1,0.7l1.9-2.6l1.2,0.7c0.1,0.2,0.1,0.3-0.2,0.3l-3.3,4.1L180.6,178.7L180.6,178.7L180.6,178.7z M175.2,185.1
					c0.4-1.1,0.6-2.3,0.8-3.8l1.3,0.2c0.1,0.1,0.1,0.3-0.1,0.4c-0.2,1.5-0.4,2.7-0.8,3.7L175.2,185.1z M180.9,184.8
					c0-1.2-0.3-2.4-0.6-3.5l1.2-0.3c0.5,1.1,0.8,2.3,0.9,3.5L180.9,184.8L180.9,184.8L180.9,184.8z M185.3,172.7
					c-0.2,0.8-0.4,1.6-0.7,2.4h4.9l-0.3,8.9c0,1.7-0.7,2.6-1.9,2.6h-2.5l-0.2-1.4h2.1c0.7,0,1.1-0.4,1.2-1.3l0.2-7.5h-4
					c-0.3,0.7-0.6,1.3-1.1,1.8l-1.1-0.8c1-1.3,1.7-3.2,2.2-5.6l1.4,0.5C185.6,172.6,185.6,172.7,185.3,172.7L185.3,172.7
					L185.3,172.7z M184.3,179.2c0.8,0.6,1.6,1.5,2.3,2.6l-1.1,0.9c-0.5-1-1.2-1.9-2.1-2.6L184.3,179.2L184.3,179.2z"/>
				<path class="st0" d="M200,176.3l-1.5,0.1c-0.1-0.6-0.3-1-0.6-1.3c-0.4-0.4-0.9-0.6-1.5-0.6c-0.5,0-0.9,0.1-1.2,0.4
					c-0.5,0.3-0.8,0.8-1.1,1.5s-0.4,1.6-0.4,2.8c0.4-0.5,0.8-0.9,1.3-1.2c0.5-0.3,1.1-0.4,1.6-0.4c1,0,1.8,0.4,2.5,1.1
					c0.7,0.7,1,1.7,1,2.8c0,0.8-0.2,1.4-0.5,2.1c-0.3,0.6-0.8,1.1-1.3,1.5c-0.6,0.3-1.2,0.5-1.9,0.5c-1.2,0-2.2-0.4-3-1.4
					c-0.8-0.9-1.2-2.4-1.2-4.5c0-2.3,0.4-4,1.3-5.1c0.8-0.9,1.8-1.4,3-1.4c0.9,0,1.7,0.3,2.3,0.8S199.9,175.4,200,176.3L200,176.3z
					 M194,181.5c0,0.5,0.1,1,0.3,1.5c0.2,0.5,0.5,0.8,0.9,1.1c0.4,0.2,0.8,0.4,1.2,0.4c0.6,0,1.2-0.2,1.6-0.8c0.4-0.5,0.7-1.2,0.7-2
					s-0.2-1.5-0.7-2c-0.4-0.5-1-0.7-1.7-0.7s-1.2,0.2-1.7,0.7S194,180.7,194,181.5L194,181.5z M206.4,185.3v-2.9h-5.2v-1.4l5.5-7.8
					h1.2v7.8h1.6v1.4h-1.6v2.9H206.4z M206.4,181.1v-5.4l-3.8,5.4H206.4z M212.2,184.3c-0.8-1-1.2-2.6-1.2-4.9
					c0-1.4,0.1-2.6,0.4-3.4c0.3-0.9,0.7-1.5,1.3-2s1.3-0.7,2.2-0.7c0.6,0,1.2,0.1,1.7,0.4c0.5,0.3,0.9,0.6,1.2,1.1
					c0.3,0.5,0.6,1.1,0.7,1.8c0.2,0.7,0.3,1.6,0.3,2.8c0,1.4-0.1,2.5-0.4,3.4c-0.3,0.9-0.7,1.5-1.3,2s-1.3,0.7-2.2,0.7
					C213.7,185.6,212.8,185.1,212.2,184.3L212.2,184.3L212.2,184.3z M213.2,175.4c-0.5,0.7-0.8,2.1-0.8,4.1s0.2,3.3,0.7,3.9
					s1,1,1.7,1s1.2-0.3,1.7-1c0.5-0.6,0.7-2,0.7-3.9s-0.2-3.3-0.7-3.9s-1-1-1.7-1S213.6,174.8,213.2,175.4L213.2,175.4L213.2,175.4z
					 M221.5,184.3c-0.8-1-1.2-2.6-1.2-4.9c0-1.4,0.1-2.6,0.4-3.4c0.3-0.9,0.7-1.5,1.3-2s1.3-0.7,2.2-0.7c0.6,0,1.2,0.1,1.7,0.4
					c0.5,0.3,0.9,0.6,1.2,1.1c0.3,0.5,0.6,1.1,0.7,1.8c0.2,0.7,0.3,1.6,0.3,2.8c0,1.4-0.1,2.5-0.4,3.4c-0.3,0.9-0.7,1.5-1.3,2
					s-1.3,0.7-2.2,0.7C223,185.6,222.1,185.1,221.5,184.3L221.5,184.3L221.5,184.3z M222.6,175.4c-0.5,0.7-0.8,2.1-0.8,4.1
					s0.2,3.3,0.7,3.9s1,1,1.7,1s1.2-0.3,1.7-1c0.5-0.6,0.7-2,0.7-3.9s-0.2-3.3-0.7-3.9s-1-1-1.7-1S222.9,174.8,222.6,175.4
					L222.6,175.4L222.6,175.4z"/>
				<path class="st0" d="M243.5,185.1c0,0.7-0.4,1.1-1.1,1.1h-1.7l-0.4-1.4h1.4c0.2,0,0.3-0.1,0.3-0.3v-4.4h-9.6v6.1h-1.5V173h12.6
					V185.1L243.5,185.1z M232.4,174.2v4.6h4.1v-4.6H232.4z M242,174.2h-4.2v4.6h4.2V174.2z"/>
			</g>
		</g>
		<line class="st3" x1="192.4" y1="72.2" x2="192.4" y2="122.7"/>
	</g>
	<g>
		<polygon class="st2" points="56.5,216.3 59.9,225.8 63.4,216.3 		"/>
		<line class="st3" x1="59.9" y1="182.7" x2="59.9" y2="221"/>
		<line class="st3" x1="59.9" y1="72.2" x2="59.9" y2="122.7"/>
		<path class="st0" d="M32.5,130.1l0.6-2.3l1.6,0.3c0.2,0.2,0.1,0.3-0.2,0.3l-0.7,1.6h5.6v12.4H38v-0.6h-8.2v0.8h-1.3v-12.6
			L32.5,130.1L32.5,130.1z M38,133.5v-2.2h-8.2v2.2H38z M38,134.7h-8.2v2.2H38V134.7z M38,140.6v-2.4h-8.2v2.4H38z M51.1,129.4h6.2
			v3.4H56v-2.2H44.8v2.2h-1.3v-3.4h6.1V128h1.4c0.3,0,0.4,0.2,0.1,0.4L51.1,129.4L51.1,129.4z M51.3,138.1c-2,1.7-4.2,3.1-6.9,4.1
			l-0.6-1.3c2.8-0.9,5.2-2.3,7.1-4.1c-0.1-0.2-0.3-0.4-0.5-0.6c-2,1.5-3.9,2.6-5.7,3.1l-0.5-1.2c2.1-0.6,3.9-1.5,5.4-2.7
			c-0.2-0.3-0.4-0.4-0.6-0.5c-1.6,1-3.3,1.7-5,2l-0.5-1.2c2.4-0.4,4.5-1.2,6.2-2.4h-4.2v-1.2h9.8v1.2h-3.9c-0.3,0.4-0.8,0.8-1.4,1.2
			c0.7,0.5,1.3,1,1.8,1.6c1.6-0.9,2.7-1.7,3.3-2.4l1.2,0.9c0.2,0.3,0.1,0.4-0.3,0.3c-1,0.6-2.2,1.3-3.4,1.8c1.1,1.5,2.8,2.8,4.8,3.9
			l-0.9,1.4c-1.8-1.3-3.2-2.6-4.1-3.9c0.2,1.7,0.2,3-0.1,3.8c-0.3,0.7-0.8,1.1-1.8,1.1H49l-0.3-1.4h1.5c0.7,0,1-0.3,1.1-0.9
			C51.4,139.8,51.4,139,51.3,138.1L51.3,138.1L51.3,138.1z M72.4,137.3h-4.2v5h-1.3v-5h-3.9c-0.1,2.3-0.8,4.1-2,5.4l-1-1.1
			c1.2-1.3,1.8-2.8,1.8-4.6v-8.4h12.1v12.5c0,0.7-0.3,1.1-1.1,1.1h-1.8l-0.3-1.4h1.6c0.2,0,0.3-0.1,0.3-0.3V137.3z M62.9,130v2.4
			h3.9V130H62.9z M62.9,133.7v2.4h3.9v-2.4H62.9z M68.1,130v2.4h4.2V130H68.1z M68.1,133.7v2.4h4.2v-2.4H68.1z M77.3,130.5v-1.2h6
			v-1.4h1.2c0.3,0,0.4,0.2,0.1,0.4v1.1h5.9v1.2h-5.9v1.3h4.6v5.9h-1.3v-0.3h-3.3v1.3h6.8v1.2h-6.8v2.8h-1.3V140h-6.8v-1.2h6.8v-1.3
			h-3.3v0.4h-1.3v-6h4.6v-1.3L77.3,130.5L77.3,130.5z M80.1,134.1h3.3v-1.2h-3.3V134.1z M80.1,136.4h3.3v-1.2h-3.3V136.4z
			 M84.6,134.1h3.3v-1.2h-3.3V134.1z M84.6,136.4h3.3v-1.2h-3.3V136.4z"/>
		<path class="st0" d="M43,172.2l1.5-0.2c0.2,0.8,0.5,1.4,0.9,1.8c0.4,0.4,0.9,0.6,1.5,0.6c0.7,0,1.3-0.2,1.8-0.7
			c0.5-0.5,0.7-1.1,0.7-1.8s-0.2-1.2-0.7-1.7s-1-0.7-1.7-0.7c-0.3,0-0.6,0.1-1,0.2l0.2-1.3c0.1,0,0.2,0,0.2,0c0.6,0,1.2-0.2,1.7-0.5
			s0.8-0.8,0.8-1.5c0-0.5-0.2-1-0.5-1.3c-0.4-0.4-0.8-0.5-1.4-0.5s-1,0.2-1.4,0.5s-0.6,0.9-0.7,1.6l-1.5-0.3c0.2-1,0.6-1.8,1.2-2.3
			s1.4-0.8,2.4-0.8c0.7,0,1.3,0.1,1.8,0.4c0.5,0.3,1,0.7,1.3,1.1c0.3,0.5,0.4,1,0.4,1.6s-0.1,1-0.4,1.4s-0.7,0.8-1.2,1
			c0.7,0.2,1.3,0.5,1.7,1s0.6,1.2,0.6,1.9c0,1.1-0.4,1.9-1.1,2.7c-0.8,0.7-1.7,1.1-2.9,1.1c-1,0-1.9-0.3-2.6-0.9
			C43.5,174,43.1,173.2,43,172.2L43,172.2z M53.5,174.3c-0.8-1-1.2-2.6-1.2-4.9c0-1.4,0.2-2.6,0.4-3.4c0.3-0.9,0.7-1.5,1.3-2
			c0.6-0.5,1.3-0.7,2.2-0.7c0.6,0,1.2,0.1,1.7,0.4c0.5,0.3,0.9,0.6,1.2,1.1c0.3,0.5,0.6,1.1,0.7,1.8s0.3,1.6,0.3,2.8
			c0,1.4-0.1,2.5-0.4,3.4c-0.3,0.9-0.7,1.5-1.3,2c-0.6,0.5-1.3,0.7-2.2,0.7C55,175.6,54.1,175.2,53.5,174.3L53.5,174.3L53.5,174.3z
			 M54.5,165.4c-0.5,0.7-0.8,2.1-0.8,4.1s0.2,3.3,0.7,3.9s1,1,1.7,1s1.2-0.3,1.7-1s0.7-2,0.7-3.9s-0.2-3.3-0.7-3.9s-1-1-1.7-1
			S54.9,164.9,54.5,165.4L54.5,165.4L54.5,165.4z"/>
		<path class="st0" d="M67.8,163.3c-1.1,2.3-2.7,4.3-5,6.2l-1-1.2c2.3-1.6,3.9-3.6,5-6.1l1.2,0.8C68.2,163.1,68.2,163.2,67.8,163.3
			L67.8,163.3L67.8,163.3z M73.7,168.4l-0.3,5.3c-0.1,1.8-0.7,2.8-1.9,2.8h-2l-0.2-1.4H71c0.6,0,0.9-0.4,0.9-1.1l0.3-4.2h-3.6
			l-0.1,0.5c-0.3,2.4-2,4.6-5.2,6.6l-1-1.2c2.8-1.6,4.4-3.3,4.7-5.1l0.1-0.8h-2.5v-1.2L73.7,168.4L73.7,168.4z M75.9,169.5
			c-2.4-1.4-4.2-3.7-5.3-6.9l1.2-0.5c1.1,2.8,2.7,4.8,5,6C76.9,168.1,75.9,169.5,75.9,169.5z"/>
	</g>
	<g>
		<polygon class="st2" points="56.5,431.6 59.9,441.1 63.4,431.6 		"/>
		<line class="st3" x1="59.9" y1="409.8" x2="59.9" y2="436.3"/>
		<line class="st3" x1="59.9" y1="298.9" x2="59.9" y2="317.8"/>
		<g>
			<path class="st4" d="M32.6,329.6l0.6-2.3l1.6,0.3c0.2,0.2,0.1,0.3-0.2,0.3l-0.7,1.6h5.6V342h-1.3v-0.6h-8.2v0.8h-1.3v-12.6
				L32.6,329.6L32.6,329.6z M38.1,333v-2.2h-8.2v2.2H38.1z M38.1,334.2h-8.2v2.2h8.2V334.2z M38.1,340.1v-2.4h-8.2v2.4H38.1z
				 M51.2,328.9h6.2v3.4h-1.3v-2.2H44.9v2.2h-1.3v-3.4h6.1v-1.4h1.4c0.3,0,0.4,0.2,0.1,0.4L51.2,328.9L51.2,328.9z M51.4,337.6
				c-2,1.7-4.2,3.1-6.9,4.1l-0.6-1.3c2.8-0.9,5.2-2.3,7.1-4.1c-0.1-0.2-0.3-0.4-0.5-0.6c-2,1.5-3.9,2.5-5.7,3.1l-0.5-1.2
				c2.1-0.6,3.9-1.5,5.4-2.7c-0.2-0.3-0.4-0.4-0.6-0.5c-1.6,1-3.3,1.7-5,2l-0.5-1.2c2.4-0.4,4.5-1.2,6.2-2.4h-4.2v-1.2h9.8v1.2h-3.9
				c-0.3,0.4-0.8,0.8-1.4,1.2c0.7,0.5,1.3,1,1.8,1.6c1.6-0.9,2.7-1.7,3.3-2.4l1.2,0.9c0.2,0.3,0.1,0.4-0.3,0.3
				c-1,0.6-2.2,1.3-3.4,1.8c1.1,1.5,2.8,2.8,4.8,3.9l-0.9,1.4c-1.8-1.3-3.2-2.6-4.1-3.9c0.2,1.7,0.2,3-0.1,3.8c-0.3,0.7-0.8,1-1.8,1
				h-1.7l-0.3-1.4h1.5c0.7,0,1-0.3,1.1-0.9C51.5,339.3,51.5,338.5,51.4,337.6L51.4,337.6L51.4,337.6z M72.5,336.9h-4.2v5h-1.3v-5H63
				c-0.1,2.3-0.8,4.1-2,5.4l-1-1c1.2-1.3,1.8-2.8,1.8-4.6v-8.4h12.1v12.5c0,0.7-0.3,1-1.1,1h-1.8l-0.3-1.4h1.6
				c0.2,0,0.3-0.1,0.3-0.3V336.9z M63,329.5v2.4h3.9v-2.4H63z M63,333.2v2.4h3.9v-2.4H63z M68.2,329.5v2.4h4.2v-2.4H68.2z
				 M68.2,333.2v2.4h4.2v-2.4H68.2z M77.4,330.1v-1.2h6v-1.4h1.2c0.3,0,0.4,0.2,0.1,0.4v1h5.9v1.2h-5.9v1.3h4.6v6H88V337h-3.3v1.3
				h6.8v1.2h-6.8v2.8h-1.3v-2.8h-6.8v-1.2h6.8V337h-3.3v0.4h-1.3v-6h4.6v-1.3L77.4,330.1L77.4,330.1z M80.1,333.7h3.3v-1.2h-3.3
				V333.7z M80.1,336h3.3v-1.2h-3.3V336z M84.7,333.7H88v-1.2h-3.3V333.7z M84.7,336H88v-1.2h-3.3V336z"/>
			<path class="st5" d="M34,403.7c-1.3,0-2.6-0.5-3.7-1.6c-0.5,0.6-1.3,1.2-2.4,1.8l-0.5-1.6c0.5-0.1,1.2-0.5,2.2-1.2v-4.2h-2v-1.2
				h3.3v5.4c0.9,0.8,2,1.2,3.4,1.2h8.1l-0.3,1.4L34,403.7L34,403.7z M29.2,389.3c1.2,0.7,2,1.5,2.4,2.2l-1.1,1.2
				c-0.7-0.9-1.4-1.6-2.2-2.2L29.2,389.3L29.2,389.3z M34.9,391c1.1,0.3,1.8,0.5,2.1,0.6l1.2-0.9h-6v-1.2h7.5l0.3-0.2l1,0.7
				c0.3,0.2,0.2,0.4-0.3,0.4l-2.5,1.7l0.8,0.4l-0.8,0.8h2.9v7.5c0,0.6-0.3,0.9-0.9,0.9h-1.4l-0.1-1.2h0.8c0.2,0,0.3-0.1,0.3-0.3
				v-1.2h-2.5v2.5H36v-2.5h-2.3v2.8h-1.3v-8.4h4.8c-1.8-0.7-2.9-1.2-3.3-1.2L34.9,391L34.9,391z M33.7,394.3v1.2H36v-1.2H33.7z
				 M36,396.6h-2.3v1.2H36V396.6z M37.3,394.3v1.2h2.5v-1.2H37.3z M39.8,396.6h-2.5v1.2h2.5V396.6z M48.2,403.9h-1.3V397
				c-0.4,0.5-1.1,1-2,1.6l-0.8-1.3c1.9-1.1,3.5-2.7,4.8-4.8l1,0.9c0.2,0.3,0.2,0.4-0.1,0.3c-0.5,0.7-1,1.4-1.6,2L48.2,403.9
				L48.2,403.9z M49.1,390.5c-1.3,1.7-2.6,2.8-3.7,3.5l-0.8-1.2c1.2-0.7,2.4-1.9,3.7-3.5l1,0.9C49.5,390.4,49.4,390.5,49.1,390.5
				L49.1,390.5z M50,395.6v-1.2h9.1v1.2h-2.8v6.7c0,0.9-0.4,1.4-1.1,1.4h-1.8l-0.3-1.2h1.6c0.2,0,0.3-0.1,0.3-0.3v-6.5H50L50,395.6z
				 M57.7,390.2v1.2h-7.1v-1.2H57.7z M64.4,389.1h1.1c0.3,0,0.4,0.2,0.1,0.4v1.3h2.3v1h-2.3v0.3c0.6,0.3,1.3,0.7,2.3,1.4l-0.5,1.2
				c-0.7-0.6-1.3-1-1.8-1.3v2.2h-1.1v-2.2c-0.5,0.8-1.5,1.6-2.8,2.2l-0.7-1.2c1.5-0.6,2.7-1.5,3.5-2.6h-2.8v-1h2.8L64.4,389.1
				L64.4,389.1z M61.3,402.4c1.4-0.6,2.5-1.4,3.5-2.3l1,1c0.2,0.3,0.1,0.4-0.3,0.3c-0.9,0.9-2,1.6-3.3,2.3
				C62.1,403.7,61.3,402.4,61.3,402.4z M61.5,398.5h13.7v1.2h-5.9v2.8c0,0.8-0.3,1.2-1.1,1.2h-1.6l-0.1-1.4h1c0.2,0,0.3-0.1,0.3-0.3
				v-2.3h-6.3L61.5,398.5L61.5,398.5z M63.4,397.6v-1.2h9.9v1.2H63.4z M67.8,394.5c1.3-0.7,2.4-1.6,3.2-2.7h-2.4v-1H71V389H72
				c0.3,0,0.4,0.2,0.1,0.4v1.4h3v1h-3c1.1,1,2.2,1.7,3.6,2.2l-0.5,1.3c-1.1-0.4-2.1-1.2-3.1-2.2v2.4H71v-2.2
				c-0.7,0.9-1.6,1.6-2.7,2.2L67.8,394.5L67.8,394.5z M71.8,400.2c1,0.7,2.2,1.3,3.7,1.8l-0.8,1.3c-1.3-0.4-2.6-1.1-3.9-2.2
				L71.8,400.2L71.8,400.2z M86.5,389.5c0.4,0.1,0.5,0.3,0.1,0.5v4h4.3v1.4h-4.3v5.9h6v1.4h-15v-1.4h3v-8.6H82
				c0.4,0.1,0.5,0.3,0.1,0.5v8h2.9v-11.8L86.5,389.5L86.5,389.5z"/>
			<path class="st4" d="M53.5,361.2L53.5,361.2c-2.6,4.9-1.8,10.9,2.2,14.9s10,4.8,14.8,2.2L53.5,361.2z M75.7,373.2
				c2.6-4.9,1.8-10.9-2.2-14.9s-10-4.8-14.8-2.2L75.7,373.2z M44.5,367.2L44.5,367.2c0-11.1,9-20.1,20.1-20.1
				c5.3,0,10.4,2.1,14.2,5.9c3.8,3.8,5.9,8.9,5.9,14.2c0,11.1-9,20.1-20.1,20.1S44.5,378.3,44.5,367.2L44.5,367.2z"/>
		</g>
	</g>
	<g>
		<g>
			<polygon class="st2" points="313.3,216.3 316.7,225.8 320.1,216.3 			"/>
			<line class="st3" x1="316.7" y1="200.3" x2="316.7" y2="221"/>
		</g>
		<line class="st3" x1="316.7" y1="72.2" x2="316.7" y2="122.7"/>
		<g>
			<g>
				<path class="st0" d="M316.8,165.2v-2.9h-5.2V161l5.5-7.8h1.2v7.8h1.6v1.4h-1.6v2.9H316.8z M316.8,161v-5.4L313,161H316.8z
					 M321.4,162.1l1.5-0.1c0.1,0.8,0.4,1.3,0.8,1.7c0.4,0.4,0.9,0.6,1.5,0.6c0.7,0,1.3-0.3,1.8-0.8s0.7-1.2,0.7-2.1s-0.2-1.5-0.7-2
					s-1.1-0.7-1.9-0.7c-0.5,0-0.9,0.1-1.3,0.3c-0.4,0.2-0.7,0.5-0.9,0.8l-1.4-0.2l1.2-6.2h6v1.4H324l-0.6,3.2
					c0.7-0.5,1.5-0.8,2.3-0.8c1,0,1.9,0.4,2.6,1.1s1.1,1.7,1.1,2.8s-0.3,2-1,2.8c-0.8,1-1.8,1.5-3.1,1.5c-1.1,0-2-0.3-2.7-0.9
					S321.5,163.1,321.4,162.1L321.4,162.1z"/>
				<path class="st0" d="M336.9,153.1c-1,2.3-2.7,4.3-5,6.2l-1-1.2c2.3-1.6,3.9-3.6,5-6.1l1.2,0.8
					C337.3,153,337.2,153.1,336.9,153.1L336.9,153.1L336.9,153.1z M342.8,158.3l-0.3,5.3c-0.1,1.8-0.7,2.8-1.9,2.8h-2l-0.2-1.4h1.6
					c0.6,0,0.9-0.4,0.9-1.1l0.3-4.2h-3.6l-0.1,0.5c-0.3,2.4-2,4.6-5.2,6.6l-1-1.2c2.8-1.6,4.4-3.3,4.7-5.1l0.1-0.8h-2.5v-1.2
					L342.8,158.3L342.8,158.3z M345,159.4c-2.4-1.4-4.2-3.7-5.3-6.9l1.2-0.5c1,2.8,2.7,4.8,5,6L345,159.4z"/>
				<path class="st0" d="M290,172.6c0.4,0.1,0.5,0.3,0.1,0.5v2.8h4.1v-3.9h1.4c0.4,0.1,0.5,0.3,0.1,0.5v3.4h4.8v1.4h-10.4v2.1h7.4
					v7.3H296v-5.9h-5.9v0.6c0,2.1-0.8,3.9-2.5,5.3l-1-1.1c1.5-1.1,2.2-2.6,2.2-4.4v-8.8L290,172.6L290,172.6z M309.4,186.5
					c-1.4,0-2.6-0.6-3.7-1.6c-0.9,0.9-1.7,1.5-2.2,1.8l-0.7-1.5l2.4-1.3v-4.1h-2.2v-1.2h3.5v5.4c0.8,0.9,2,1.4,3.4,1.4h7.9l-0.3,1.2
					L309.4,186.5L309.4,186.5z M305.4,175.7c-0.6-0.8-1.3-1.7-2.2-2.6l1-0.9c1,0.9,1.8,1.7,2.4,2.4L305.4,175.7L305.4,175.7z
					 M312.9,174.9l-0.7,1.2h3.6v8.2h-1.1v-0.5h-5.2v0.7h-1.1v-8.4h2.5l0.5-1.2H307v-1.1h2.9c-0.3-0.4-0.7-0.8-1.2-1.4l1-0.8
					c0.5,0.4,0.9,0.9,1.4,1.4l-1,0.7h2.6l0.9-2.2l1.4,0.3c0.2,0.2,0.1,0.3-0.2,0.3l-1,1.6h3.5v1.1L312.9,174.9L312.9,174.9z
					 M314.7,177.2h-5.2v1.2h5.2V177.2z M314.7,179.4h-5.2v1.1h5.2V179.4z M314.7,181.6h-5.2v1.2h5.2V181.6z"/>
				<path class="st0" d="M325.3,185.4h-1.5V176c-0.4,0.3-0.8,0.7-1.4,1c-0.6,0.3-1.1,0.6-1.5,0.8v-1.4c0.8-0.4,1.5-0.9,2.2-1.4
					s1-1.1,1.3-1.6h1L325.3,185.4L325.3,185.4z M329.1,182.2l1.5-0.1c0.1,0.8,0.4,1.3,0.8,1.7c0.4,0.4,0.9,0.6,1.5,0.6
					c0.7,0,1.3-0.3,1.8-0.8s0.7-1.2,0.7-2.1s-0.2-1.5-0.7-2s-1.1-0.7-1.9-0.7c-0.5,0-0.9,0.1-1.3,0.3c-0.4,0.2-0.7,0.5-0.9,0.8
					l-1.4-0.2l1.2-6.2h6v1.4h-4.8l-0.6,3.2c0.7-0.5,1.5-0.8,2.3-0.8c1,0,1.9,0.4,2.6,1.1s1.1,1.7,1.1,2.8s-0.3,2-1,2.8
					c-0.8,1-1.8,1.5-3.1,1.5c-1.1,0-2-0.3-2.7-0.9S329.2,183.2,329.1,182.2L329.1,182.2z M339.6,184.3c-0.8-1-1.2-2.6-1.2-4.9
					c0-1.4,0.1-2.6,0.4-3.4s0.7-1.5,1.3-2s1.3-0.7,2.2-0.7c0.6,0,1.2,0.1,1.7,0.4c0.5,0.3,0.9,0.6,1.2,1.1c0.3,0.5,0.6,1.1,0.7,1.8
					s0.3,1.6,0.3,2.8c0,1.4-0.1,2.5-0.4,3.4c-0.3,0.9-0.7,1.5-1.3,2s-1.3,0.7-2.2,0.7C341.2,185.6,340.3,185.2,339.6,184.3
					L339.6,184.3L339.6,184.3z M340.7,175.4c-0.5,0.7-0.8,2.1-0.8,4.1s0.2,3.3,0.7,3.9s1,1,1.7,1s1.2-0.3,1.7-1
					c0.5-0.6,0.7-2,0.7-3.9s-0.2-3.3-0.7-3.9s-1-1-1.7-1S341.1,174.8,340.7,175.4L340.7,175.4L340.7,175.4z M348.9,184.3
					c-0.8-1-1.2-2.6-1.2-4.9c0-1.4,0.1-2.6,0.4-3.4s0.7-1.5,1.3-2s1.3-0.7,2.2-0.7c0.6,0,1.2,0.1,1.7,0.4c0.5,0.3,0.9,0.6,1.2,1.1
					c0.3,0.5,0.6,1.1,0.7,1.8s0.3,1.6,0.3,2.8c0,1.4-0.1,2.5-0.4,3.4c-0.3,0.9-0.7,1.5-1.3,2s-1.3,0.7-2.2,0.7
					C350.5,185.6,349.6,185.2,348.9,184.3L348.9,184.3L348.9,184.3z M350,175.4c-0.5,0.7-0.8,2.1-0.8,4.1s0.2,3.3,0.7,3.9s1,1,1.7,1
					s1.2-0.3,1.7-1c0.5-0.6,0.7-2,0.7-3.9s-0.2-3.3-0.7-3.9s-1-1-1.7-1S350.4,174.8,350,175.4L350,175.4L350,175.4z"/>
				<path class="st0" d="M370.9,185.1c0,0.7-0.4,1.1-1,1.1h-1.7l-0.4-1.4h1.4c0.2,0,0.3-0.1,0.3-0.3v-4.4h-9.6v6.1h-1.5V173h12.6
					V185.1L370.9,185.1z M359.8,174.2v4.6h4.1v-4.6H359.8z M369.4,174.2h-4.2v4.6h4.2V174.2z"/>
			</g>
			<path class="st0" d="M282.3,140.1c1.1,0.7,2.5,1.3,4.3,1.6l-0.5,1.3c-3.5-0.7-5.8-2.4-7-4.8h-0.2c-0.4,0.4-0.9,0.9-1.8,1.4v2
				l3.9-0.6v1c-1.5,0.4-3.6,0.7-6.5,1.2c0,0.3-0.1,0.4-0.3,0.2l-0.3-1.4l2.2-0.3v-1.6c-1.1,0.6-2.4,1.2-3.9,1.5l-0.5-1.2
				c2.2-0.4,4-1.2,5.6-2.3h-5.6v-1.1h6.9v-0.9h-5.6v-0.8h5.6v-0.8h-2.2H274V131H284v3.7h-4.5v0.8h5.6v0.8h-5.6v0.9h6.9v1.1h-6.1
				c0.4,0.6,0.8,1.1,1.1,1.3l2-1.2l1,0.6c0.2,0.2,0.1,0.3-0.2,0.3L282.3,140.1L282.3,140.1z M271.9,129.2h6.4V128h1.2
				c0.4,0,0.4,0.2,0.1,0.4v0.8h6.4v1.1h-14.1V129.2z M275.1,131.7v0.9h3.3v-0.9H275.1z M275.1,133v0.9h3.3V133H275.1z M279.5,131.7
				v0.9h3.4v-0.9H279.5z M279.5,133v0.9h3.4V133H279.5z M294.6,132.8c-1-1.4-1.8-2.2-2.5-2.7c-0.3,0.6-0.6,1.3-1.2,2h3v1.1h-1.6v2
				h2.5v1.1h-2.5v4.4c0.7-0.2,1.4-0.4,2.2-0.5l0.2,1.1c-1.8,0.6-3.5,1-5.2,1.3c-0.3,0.5-0.4,0.5-0.5,0.2l-0.5-1.4
				c0.9-0.1,1.8-0.3,2.8-0.5v-4.6h-2.5v-1.1h2.5v-2h-1.1l-0.9,0.9l-0.9-1c1.2-1.1,2.3-2.7,3.3-5l1.2,0.6c0.3,0.2,0.2,0.4-0.2,0.4
				c0.9,0.5,1.8,1.3,2.9,2.4L294.6,132.8L294.6,132.8z M289.4,140.1c-0.2-1.2-0.5-2.1-0.7-2.8l1.2-0.3c0.3,0.6,0.6,1.5,0.9,2.7
				L289.4,140.1L289.4,140.1z M292.9,139.5c0.2-0.8,0.4-1.7,0.6-2.7l1.2,0.4c0.4,0.1,0.4,0.3,0,0.4c-0.1,0.6-0.3,1.4-0.6,2.2
				L292.9,139.5L292.9,139.5z M294.8,141.6l1.1-0.2v-12.5h6.2v6.9h-2.9c0.1,0.8,0.3,1.6,0.6,2.4c0.7-0.6,1.4-1.3,2-2l0.9,0.7
				c0.4,0.2,0.3,0.3-0.1,0.3c-0.7,0.7-1.4,1.3-2.2,1.9c0.7,1.1,1.7,2.1,2.9,2.8l-1,1.3c-2.5-2-3.9-4.5-4.2-7.5H297v5.4
				c1-0.2,1.7-0.4,2.4-0.6l0.3,1.1c-1.4,0.5-2.7,0.9-3.9,1.1c-0.2,0.4-0.4,0.4-0.5,0L294.8,141.6L294.8,141.6z M301,129.9h-4v1.8h4
				V129.9z M301,132.7h-4v2h4V132.7z M313.5,129.7h6v1.2h-11.9v6.9c0,1.7-0.5,3.4-1.5,5l-1.3-1c1-1.5,1.5-3.2,1.5-5v-7.2h5.8V128
				h1.4c0.4,0.1,0.5,0.3,0.1,0.5L313.5,129.7L313.5,129.7z M314.1,136.4c1.2-1.4,1.9-3.1,2-4.8l1.3,0.3c0.3,0.1,0.3,0.2,0,0.3
				c-0.1,0.6-0.3,1.1-0.4,1.6c1.1,0.5,1.9,1.1,2.5,1.7l-0.9,1.3c-0.7-0.7-1.4-1.3-2.1-1.9c-0.4,1-0.9,1.8-1.5,2.4L314.1,136.4l0,1.3
				h4.5v1.2h-4.5v2.3h5.8v1.2h-12.3v-1.2h5.2v-2.3h-4v-1.2h4v-2.2l-0.9,1.2c-0.6-0.6-1.2-1.1-1.7-1.5c-0.4,0.8-0.9,1.6-1.4,2.2l-1-1
				c1.2-1.2,1.9-2.8,2-4.7l1.3,0.3c0.3,0.1,0.3,0.2,0,0.3c-0.1,0.8-0.3,1.4-0.4,1.8c0.5,0.1,1.2,0.6,2.1,1.2v-4.1h1.2
				c0.4,0,0.4,0.2,0.1,0.4L314.1,136.4L314.1,136.4z M330,129.3c0.3,0.5,0.6,1,1.1,1.5l1.9-2l1.1,0.9c0.1,0.2,0,0.3-0.3,0.2l-2,1.8
				l0.6,0.6l2.3-2l1,0.9c0.2,0.2,0.1,0.3-0.3,0.2l-2.3,1.6c1,0.8,2.1,1.4,3.5,1.8l-0.5,1.5c-1.6-0.6-3-1.5-4.2-2.7v0.9h-5.3v-0.8
				c-1.2,1.2-2.6,2.1-4.2,2.8l-0.7-1.4c1.5-0.5,2.7-1.2,3.7-2c-0.6-0.5-1.3-0.9-2-1.3l1-1.2c0.7,0.5,1.4,1,2.1,1.6
				c0.6-0.6,1.3-1.4,1.8-2.2h-3.9v-1.2h4.5l0.3-0.5l1.1,0.7c0.3,0.2,0.2,0.3-0.2,0.3L330,129.3L330,129.3z M333.7,135.5v4h-1.3
				l-0.7,1.9h4.3v1.2h-13.3v-1.2h4.2l-0.6-1.9H325v-4H333.7L333.7,135.5z M332.4,138.5v-1.9h-6.1v1.9H332.4z M331.7,133.3
				c-0.7-0.7-1.5-1.6-2.2-2.8c-0.5,1.1-1.3,2-2.3,2.8H331.7z M330.9,139.5h-3.3l0.5,1.9h2.2L330.9,139.5L330.9,139.5z M352.5,131.4
				c0.4,0.1,0.5,0.3,0.1,0.5v10.5h-1.5v-1.1h-10v1.3h-1.5v-11.2h1.4c0.4,0.1,0.5,0.3,0.1,0.5v8h4.2v-11.2h1.4
				c0.4,0.1,0.5,0.3,0.1,0.5v10.7h4.3v-8.5H352.5L352.5,131.4z M360.7,132.9c0.4,0.2,0.3,0.4-0.1,0.6c-0.8,2.8-2,5.3-3.8,7.5l-1.5-1
				c1.9-2.3,3.2-4.9,3.9-7.9L360.7,132.9L360.7,132.9z M365.7,131.4c2.2,2.8,3.7,5.6,4.6,8.7l-1.8,0.6c-1.1-3.4-2.5-6.2-4.2-8.2
				L365.7,131.4L365.7,131.4z M367,128.8c0.6,0.6,1.4,1.4,2.1,2.2l-1,0.7c-0.6-0.9-1.3-1.6-2-2.2L367,128.8L367,128.8z M368.6,127.8
				c0.6,0.5,1.3,1.2,2.1,2l-0.9,0.8c-0.8-0.9-1.5-1.6-2.1-2.1L368.6,127.8C368.6,127.8,368.6,127.8,368.6,127.8z M379.9,135.7
				c1.9,1.4,3.7,3.1,5.6,5l-1.3,1.1c-1.8-1.9-3.6-3.5-5.3-4.8c-1.7,1.8-3.6,3.5-5.8,4.9l-1.2-1.1c4.6-3,7.6-6,8.9-9l-7.1,0.5
				l-0.2-1.6l7.6-0.3l0.8-0.2l1,1.1c0.3,0.3,0.2,0.5-0.3,0.6C381.7,133.1,380.9,134.5,379.9,135.7L379.9,135.7L379.9,135.7z"/>
		</g>
	</g>
</g>
<path class="st0" d="M383.1,2.4v68H2.4v-68H383.1 M385.5,0H0v72.8h385.5L385.5,0L385.5,0L385.5,0z"/>
<path class="st0" d="M383.1,229.6v68H2.4v-68H383.1 M385.5,227.2H0V300h385.5L385.5,227.2L385.5,227.2L385.5,227.2z"/>
<path class="st0" d="M383.1,445.5v68H2.4v-68L383.1,445.5 M385.5,443.1H0v72.8h385.5L385.5,443.1L385.5,443.1L385.5,443.1z"/>
<g>
	<path class="st0" d="M135.4,36.6c-0.5,0.7-0.8,1-1.2,1.5l-1.2-2.7c1.8-2.1,3.1-5.7,3.7-9.5l2.5,0.3c-0.2,1-0.6,3.1-1.5,5.8v15.3
		h-2.3V36.6z M154.9,29.7v2.2h-16.1v-2.2H154.9z M154,39.6v7.7h-2.3v-1h-9.2v1h-2.3v-7.7H154L154,39.6z M153.6,33v2.1h-13.2V33
		H153.6z M153.6,36.3v2.1h-13.2v-2.1H153.6z M153.3,26.4v2.1h-12.6v-2.1H153.3z M142.4,41.6v2.7h9.2v-2.7H142.4z"/>
	<path class="st0" d="M160.9,39.7c-0.5,1.3-2.1,5.2-3.4,7.4l-1.9-2c0.5-0.8,2.3-3.5,3.3-6.7L160.9,39.7L160.9,39.7z M157.1,32.3
		c1.3,0.6,2.4,1.3,3.6,2.2l-1.4,1.9c-1.1-0.9-2.2-1.6-3.5-2.3L157.1,32.3L157.1,32.3z M158.2,26.2c0.6,0.3,2.1,1.1,3.5,2.1l-1.5,2
		c-0.9-0.8-2.5-1.8-3.5-2.2L158.2,26.2L158.2,26.2z M163.6,45.3c0.4,0,1.6-0.1,1.8-0.1v-4h-1.4c-0.5,3.3-1.3,4.8-2.4,6.1l-1.8-1.4
		c1.3-1.7,2.1-3.4,2.1-8.3v-2.8h15.7v1.7H164v3h13.6v1.6h-6.4c0.4,0.6,0.8,1.1,1.7,1.8c0.8-0.7,1.6-1.4,1.9-1.7l1.9,1.1
		c-1.1,0.9-2.1,1.5-2.1,1.6c1.5,0.7,2.6,1,3.5,1.3l-1.1,2.1c-3.8-1.3-6.9-3.5-8.1-6.2h-1.4V45c2.2-0.2,3.1-0.3,3.9-0.4v1.8
		c-2.6,0.4-5.8,0.7-7.7,0.8L163.6,45.3L163.6,45.3z M176.9,27.2v6.7h-14.6v-6.7h4.2V26h1.9v1.2h2.4V26h1.9v1.2H176.9L176.9,27.2z
		 M164.1,28.8v1.1h2.3v-1.1H164.1z M164.1,31.2v1.1h2.3v-1.1H164.1z M176.2,37.3v1.4h-11.3v-1.4H176.2z M168.3,28.8v1.1h2.4v-1.1
		H168.3z M168.3,31.2v1.1h2.4v-1.1H168.3z M172.6,28.8v1.1h2.4v-1.1H172.6z M172.6,31.2v1.1h2.4v-1.1H172.6z"/>
	<path class="st0" d="M178.6,44.7c6.8-2.6,8.9-8.3,9.5-11h-9v-2.4h9.2v-5.4h2.5v5.4h9.4v2.4h-9c0.9,4.8,3.6,9.4,9.6,11l-1.6,2.5
		c-6.9-3.1-8.7-7.5-9.5-10.2c-1.6,4.1-4.9,8.4-9.5,10L178.6,44.7L178.6,44.7z"/>
	<path class="st0" d="M202.3,26.8h11v17.5h-8.8v1.8h-2.2V26.8z M204.5,29v5.3h2.2V29C206.7,29,204.5,29,204.5,29z M204.5,36.4v5.8
		h2.2v-5.8H204.5z M208.8,29v5.3h2.4V29H208.8z M208.8,36.4v5.8h2.4v-5.8H208.8z M218.4,30.8h-4.2v-2.5h8.9v2.5h-2.2v14.6
		c0,1.1-0.5,1.9-1.7,1.9h-4.6l-0.4-2.4h3.8c0.4,0,0.6-0.2,0.6-0.5L218.4,30.8L218.4,30.8z"/>
	<path class="st0" d="M226,40.3c0,1-0.1,3.9-0.6,5.8l-1.4-0.7c0.6-2,0.7-4,0.7-5.1L226,40.3L226,40.3z M233.4,45.6
		c-0.2,0.5-0.7,1.7-2.6,1.7h-2.7l-0.4-2h2.7c0.4,0,0.8,0,1.2-0.6c0.3-0.6,0.7-3.2,0.7-5.7H225V26.7h9.6v1.8h-3.2v1.7h2.7v1.7h-2.7
		v1.7h2.7v1.7h-2.7v1.9h3c0.1,2.1-0.2,6.4-0.8,8.2c2.2-3,2.2-6.5,2.2-8.2V26.7h9.3v9.9H242c0.2,2.3,1.4,5.6,4,8.5l-1.4,2.2
		c-1.7-1.7-4.1-5.5-4.7-10.7H238v0.6c0,3.2-0.7,5.7-0.8,6.2c-0.5,1.8-1.6,3.1-2.1,3.9L233.4,45.6L233.4,45.6z M227.7,40.3
		c0.1,1.8,0.1,2,0.2,4.1l-1.3,0.1c0.1-0.9,0.1-1.8,0.1-2.6c0-0.9,0-1.1-0.1-1.6H227.7L227.7,40.3z M227.1,28.5v1.7h2.2v-1.7H227.1z
		 M227.1,31.9v1.7h2.2v-1.7H227.1z M227.1,35.3v1.9h2.2v-1.9H227.1z M229.5,40.2c0.2,1.2,0.3,2.2,0.4,3.8l-1.1,0.2
		c0-0.9,0-2.2-0.3-3.9L229.5,40.2L229.5,40.2z M231.1,39.9c0.2,1,0.4,2,0.4,3.1l-1,0.1c0-0.6,0-1.7-0.3-3.1L231.1,39.9L231.1,39.9z
		 M238,28.9v5.5h4.8v-5.5H238z"/>
</g>
<g>
	<path class="st0" d="M105.7,259.1v-6.8h2.4v6.4l13.1-2.2l0.2,2.4l-13.3,2.2v8.7c0,0.7,0.5,0.8,0.9,0.8h7.2c1.6,0,1.8,0,2.1-4.1
		l2.4,0.7c-0.7,4.6-1.2,5.8-3.6,5.8H108c-1.6,0-2.4-1.1-2.4-2.2v-9.2l-5.1,0.8l-0.3-2.3L105.7,259.1L105.7,259.1z"/>
	<path class="st0" d="M128.3,257.3c-2.1,1.1-3.6,1.5-4.7,1.8l-0.9-2.3c2.5-0.5,7.2-2.2,9.5-4.7h2.6c1.3,1.3,4.9,3.7,9.6,4.8
		l-0.9,2.2c-0.7-0.2-1.9-0.5-4.7-1.9v0.8h-10.4L128.3,257.3L128.3,257.3z M125.4,258.9h16.1v7h-13.9c-0.2,1.9-0.7,5-2.6,7.6
		l-1.9-1.6c1.2-1.7,2.2-4.9,2.2-7.4V258.9L125.4,258.9z M127.6,260.6v1.1h11.6v-1.1H127.6z M127.6,263.1v1.2h11.6v-1.2H127.6z
		 M142.7,267.1v6.4h-2.3v-0.7h-9.8v0.7h-2.2v-6.4H142.7z M137.2,256.4c-2.8-1.6-3.3-2.2-3.8-2.6c-0.7,0.6-1.6,1.5-3.6,2.6H137.2
		L137.2,256.4z M130.5,268.8v2.1h9.8v-2.1H130.5z"/>
	<path class="st0" d="M148.8,256.1v13.4h6.2v-17.4h2.5v17.4h6.2v-13.4h2.5v17.5h-2.5v-1.7h-14.9v1.7h-2.5v-17.5H148.8z"/>
	<path class="st0" d="M172.6,258.3h2.3v15.2h-2.3v-4.5c-0.7,0.4-3.6,1.9-4.1,2.1l-0.7-2.7c1.6-0.5,3.6-1.3,4.8-1.9V258.3z
		 M173.7,252.2h2.4v1.8h6v-1.8h2.3v1.8h5.3v2.2h-5.3v1.7h-2.3v-1.7h-6v1.7h-2.4v-1.7h-5.3v-2.2h5.3V252.2z M170.6,258.7
		c0.4,0.9,1.2,2.7,1.6,4.6l-2.3,0.7c-0.4-2.4-1-3.8-1.4-4.5L170.6,258.7L170.6,258.7z M175.6,262h5.8v-3.6h2.4v3.6h5.9v2.3h-5.9v6
		h5.5v2.3h-12.9v-2.3h5.1v-6h-5.8V262z"/>
	<path class="st0" d="M211.7,259.1v-6.8h2.4v6.4l13.1-2.2l0.2,2.4l-13.3,2.2v8.7c0,0.7,0.5,0.8,0.9,0.8h7.2c1.6,0,1.8,0,2.1-4.1
		l2.4,0.7c-0.7,4.6-1.2,5.8-3.6,5.8h-9.1c-1.6,0-2.4-1.1-2.4-2.2v-9.2l-5.1,0.8l-0.3-2.3L211.7,259.1L211.7,259.1z"/>
	<path class="st0" d="M234.3,257.3c-2.1,1.1-3.6,1.5-4.7,1.8l-0.9-2.3c2.5-0.5,7.2-2.2,9.5-4.7h2.6c1.3,1.3,4.9,3.7,9.6,4.8l-1,2.2
		c-0.7-0.2-1.9-0.5-4.7-1.9v0.8h-10.4V257.3L234.3,257.3z M231.4,258.9h16.1v7h-13.9c-0.2,1.9-0.7,5-2.6,7.6l-1.9-1.6
		c1.2-1.7,2.2-4.9,2.2-7.4L231.4,258.9L231.4,258.9z M233.7,260.6v1.1h11.6v-1.1H233.7z M233.7,263.1v1.2h11.6v-1.2H233.7z
		 M248.8,267.1v6.4h-2.3v-0.7h-9.8v0.7h-2.2v-6.4H248.8z M243.3,256.4c-2.8-1.6-3.3-2.2-3.8-2.6c-0.7,0.6-1.6,1.5-3.6,2.6H243.3
		L243.3,256.4z M236.6,268.8v2.1h9.8v-2.1H236.6z"/>
	<path class="st0" d="M259,261c3,1.2,5.3,3.1,5.6,3.3c1.7-2.2,2.5-4.7,2.8-5.8h-8.1c-2.4,3.2-4.8,4.7-5.8,5.3l-1.8-1.9
		c1.7-0.9,5.5-3.1,7.6-8.8l2.8,0.4c-0.4,0.9-0.8,1.7-1.4,2.8h9.7c-0.7,3.9-2.6,13.5-16,16.6l-1.3-2.2c3.5-0.7,7-2,9.6-4.4
		c-3-2.5-4.5-3.1-5.3-3.4L259,261L259,261z M267.3,255.9c-0.2-0.8-0.3-1.3-1.1-3.2l1.8-0.3c0.5,1,0.7,1.6,1.2,3.1L267.3,255.9
		L267.3,255.9z M270.6,255.8c-0.3-1-0.8-2.4-1.2-3.3l1.9-0.4c0.5,1.1,0.7,1.7,1.2,3.2L270.6,255.8L270.6,255.8z"/>
	<path class="st0" d="M288,261.2c2.5,3.2,4.5,7.4,5.7,10.4l-2.6,1.2c-0.3-0.8-0.5-1.3-0.9-2.2c-8.8,0.8-9.7,0.9-16.1,1.2l-0.3-2.7
		c0.5,0,1.6,0,2.2,0c2.6-6.8,3.5-10.6,4.8-15.9l2.9,0.4c-1.5,5.6-3.6,12-5,15.4c3.5-0.1,4.2-0.2,10.5-0.5c-2.1-4.4-2.9-5.3-3.5-6.1
		L288,261.2L288,261.2z"/>
</g>
<g>
	<path class="st0" d="M128.3,470.2h2.5v1.5h9.5v2h-21.5v-2h9.5L128.3,470.2L128.3,470.2z M134.8,489.5h1.6c0.4,0,0.6-0.1,0.6-0.6v-6
		H122v8.7h-2.4V481h19.6v8.7c0,1.1-0.5,1.9-1.4,1.9h-3.7l-0.4-2h-9.6v-5.5h10.5L134.8,489.5L134.8,489.5z M137.1,474.8v5.1h-15.2
		v-5.1H137.1z M124.2,476.4v1.7h10.5v-1.7C134.7,476.4,124.2,476.4,124.2,476.4z M126.4,485.8v2h6.2v-2H126.4z"/>
	<path class="st0" d="M142.4,476.2c1,0.5,1.8,1,3,1.9l-1.4,2c-0.8-0.7-2.2-1.7-2.8-2L142.4,476.2z M145.6,483.3
		c-0.2,1.5-1.2,6.1-2.4,8.3l-2-1.4c1.1-2.2,2-5.4,2.3-7.8L145.6,483.3L145.6,483.3z M142.7,470.4c1.5,0.9,2.8,1.9,3.1,2.2l-1.6,1.9
		c-0.9-0.9-1.8-1.6-2.8-2.3L142.7,470.4L142.7,470.4z M154.7,473.2v1.1h-3.5v1.4h3.1v7.1h-2.7c0.2,0.4,1.3,1.9,3.3,3.5l-1.3,1.8
		c-1.2-1.4-1.8-2-2.5-3.4v6.9h-2.1v-6.7c-0.9,2.6-2,4.1-3.2,5.5l-1.3-1.9c2.4-2.4,3.8-5.2,4-5.7h-2.5v-7.1h3.1v-1.4h-3.3v-2h3.3
		v-1.9h2.1v1.9h3.5v-1.2h8.2v2.1h-3.1c-0.2,0.6-0.2,0.8-0.5,1.4h2.9v12.9h-6.8v-12.9h2.1c0.1-0.5,0.3-1.3,0.3-1.4L154.7,473.2
		L154.7,473.2z M147.8,477.5v3.5h1.3v-3.5H147.8z M151.2,477.5v3.5h1.4v-3.5H151.2z M158,488.6c-1.2,1.5-2.7,2.6-3.4,3.1l-1.6-1.6
		c0.5-0.3,1.9-1.1,3.3-2.6L158,488.6L158,488.6z M157.4,476.5v1.6h2.7v-1.6H157.4z M157.4,480v1.7h2.7V480H157.4z M157.4,483.5v1.9
		h2.7v-1.9H157.4z M162,491.6c-1.7-1-2.7-2.5-3.1-3l1.7-1.1c0.7,1,1.6,1.8,2.7,2.4L162,491.6z"/>
	<path class="st0" d="M171.6,479.1c3,1.2,5.3,3.1,5.6,3.3c1.7-2.2,2.5-4.7,2.8-5.8h-8.1c-2.4,3.2-4.8,4.7-5.8,5.3l-1.8-1.9
		c1.7-0.9,5.5-3.1,7.6-8.8l2.8,0.4c-0.4,0.9-0.8,1.7-1.4,2.8h9.7c-0.7,3.9-2.6,13.5-16,16.6l-1.3-2.2c3.5-0.7,7-2,9.6-4.4
		c-3-2.5-4.5-3.1-5.3-3.4L171.6,479.1L171.6,479.1z M179.9,474c-0.2-0.8-0.3-1.3-1.1-3.2l1.8-0.3c0.5,1,0.7,1.5,1.2,3.1L179.9,474
		L179.9,474z M183.2,473.9c-0.3-1-0.8-2.4-1.2-3.3l1.9-0.4c0.5,1.1,0.7,1.7,1.2,3.2L183.2,473.9L183.2,473.9z"/>
	<path class="st0" d="M200.6,479.4c2.5,3.2,4.5,7.4,5.7,10.4l-2.6,1.2c-0.3-0.8-0.5-1.3-0.9-2.2c-8.8,0.8-9.7,0.9-16.1,1.2l-0.3-2.7
		c0.5,0,1.6,0,2.2,0c2.6-6.8,3.6-10.6,4.8-15.9l2.9,0.4c-1.5,5.6-3.6,12-5.1,15.4c3.6-0.1,4.2-0.2,10.5-0.5
		c-2.1-4.4-2.9-5.3-3.5-6.1L200.6,479.4L200.6,479.4z"/>
	<path class="st0" d="M215.2,486.3c0.7-0.2,1.3-0.4,2.5-0.8v-7.6h-2.3v-2.2h2.3v-5.4h2.2v5.4h1.6v2.2h-1.6v6.7
		c0.4-0.2,0.6-0.2,1.4-0.6l0.2,2.1c-1.5,0.8-4.8,2-6.1,2.5L215.2,486.3L215.2,486.3z M221.1,471h15.2v1.9h-11.9v15.9h12v1.9h-12v0.9
		h-2.1v-18.6h-1.2V471L221.1,471z M228.2,481.3c0.2-0.5,0.3-0.6,0.5-1.1h-3v-6.5h9.9v6.5h-4.8c-0.2,0.3-0.2,0.5-0.5,1.1h6.2v1.8
		h-1.8c-0.3,0.7-0.8,1.6-1.7,2.6c1.1,0.6,1.9,1,2.6,1.3l-1.3,1.6c-0.8-0.5-1.8-1.1-2.9-1.7c-1.2,0.6-2.7,1.1-5.7,1.5l-0.5-1.9
		c0.9,0,2.1-0.1,3.8-0.6c-1.3-0.5-2.3-0.8-3.2-1c0.4-0.5,0.6-0.7,1.3-1.8h-2.2v-1.8L228.2,481.3L228.2,481.3z M227.7,475.3v1.1h5.9
		v-1.1H227.7z M227.7,477.6v1.1h5.9v-1.1H227.7z M229.3,483c-0.1,0.2-0.6,0.9-0.6,1c0.6,0.2,1.3,0.4,2.6,0.8
		c0.8-0.7,1.2-1.3,1.4-1.8H229.3z"/>
	<path class="st0" d="M237.8,486.4c0.7-0.2,1.3-0.3,2.8-0.8V478h-2.7v-2.2h2.7v-5.4h2.2v5.4h2.1v2.2h-2.1v6.8
		c1.1-0.4,1.5-0.6,1.9-0.8l0.2,2c-1.7,0.9-4.6,2.1-6.9,2.8L237.8,486.4L237.8,486.4z M249,482.8c-0.1,0.7-0.2,1.4-0.5,2.5
		c0.2,0.4,1,2.1,2.5,2.9v-6.4h-6.1v-2.1h14.4v2.1h-6v2.3h5v2h-5v2.7c0.4,0,0.6,0,2.1,0h4.3l-0.5,2.2h-4.3c-3.2,0-5.2-0.5-7.2-3.5
		c-1.1,2.4-2.6,3.4-3.4,4l-1.7-1.9c1.1-0.7,3.5-2,4.1-7.2L249,482.8L249,482.8z M245.8,470.9h12.7v7.5h-12.8L245.8,470.9
		L245.8,470.9z M248,472.8v1.2h8.4v-1.2H248L248,472.8z M248,475.4v1.2h8.4v-1.2H248L248,475.4z"/>
</g>
</svg>
