<?xml version="1.0" encoding="utf-8"?>
<!-- Generator: Adobe Illustrator 27.9.0, SVG Export Plug-In . SVG Version: 6.00 Build 0)  -->
<svg version="1.1" id="_レイヤー_2" xmlns="http://www.w3.org/2000/svg" xmlns:xlink="http://www.w3.org/1999/xlink" x="0px"
	 y="0px" viewBox="0 0 800 385.5" style="enable-background:new 0 0 800 385.5;" xml:space="preserve">
<style type="text/css">
	.st0{fill:#FFFFFF;}
	.st1{fill:#BE0410;}
	.st2{fill-rule:evenodd;clip-rule:evenodd;fill:#C4C4C4;}
	.st3{fill:none;stroke:#C4C4C4;stroke-width:2;stroke-linejoin:round;}
	.st4{fill:none;stroke:#000000;stroke-width:2;stroke-miterlimit:10;stroke-opacity:0;}
	.st5{fill:none;stroke:#C4C4C4;stroke-width:0.9;stroke-linejoin:round;}
	.st6{fill-rule:evenodd;clip-rule:evenodd;fill:#BE0410;}
</style>
<path class="st0" d="M314.2,2.4v380.7h-68V2.4H314.2 M316.6,0h-72.8v385.5h72.8V0L316.6,0z"/>
<path class="st0" d="M558.2,2.4v380.7h-68V2.4H558.2 M560.5,0h-72.8v385.5h72.8V0L560.5,0z"/>
<path class="st0" d="M797.6,2.4v380.7h-68V2.4H797.6 M800,0h-72.8v385.5H800V0L800,0z"/>
<path class="st0" d="M631.1,157.8c-0.3,0.6-0.7,1.3-1.2,2v8.6h-1.3v-6.9c-0.5,0.5-1,1-1.6,1.5l-0.8-1.4c1.7-1.1,3.1-2.8,4-5l1.1,0.9
	C631.5,157.7,631.4,157.9,631.1,157.8L631.1,157.8L631.1,157.8z M630.8,154.8c-1,1.7-2.1,3.1-3.4,4l-0.9-1.2c1.4-0.9,2.5-2.2,3.5-4
	l1,0.9C631.1,154.7,631.1,154.8,630.8,154.8L630.8,154.8L630.8,154.8z M641.4,166.6l-0.2,1.4h-2.4c-2.5,0-4.4-0.9-5.6-2.8
	c-0.3,1.4-1,2.4-2,3.3l-1-1.2c1.5-1,2.2-3,2.3-6.2l1.5,0.5c0.2,0.2,0.1,0.3-0.2,0.3c0,0.7-0.1,1.4-0.3,2c0.6,0.9,1.3,1.6,2,2v-5.7
	h-4.5V159h4.3v-2.2h-3.4v-1.2h3.4v-2.3h1.2c0.3,0,0.4,0.2,0.1,0.4v1.9h3.6v1.2h-3.6v2.2h4.6v1.2h-4.5v2.3h3.6v1.2h-3.6v2.6
	c0.5,0.1,1.2,0.2,1.9,0.2L641.4,166.6L641.4,166.6z M651.2,155.2h4.7v1.2h-4.7v2h6.3v1.2h-6.3v4.1c0,0.7-0.3,1.1-1,1.1h-1.4
	l-0.2-1.2h1.2c0.1,0,0.2-0.1,0.2-0.2v-3.8h-6.6v-1.2h2.9v-3.9h1.2c0.3,0,0.4,0.2,0.1,0.4v3.5h2.4v-5.1h1.2c0.3,0,0.4,0.2,0.1,0.4
	V155.2L651.2,155.2z M648.6,161.2c0.2,0.2,0.1,0.3-0.3,0.3c-1,1.4-2.4,2.6-4,3.5l-1-1.2c1.7-1,3-2.1,4-3.3L648.6,161.2L648.6,161.2z
	 M655.4,163.5c0.2,0.2,0.2,0.3-0.2,0.3c-2.3,3.1-5.8,4.6-10.4,4.6l-0.5-1.6c4.7,0,8-1.4,9.9-4.2L655.4,163.5L655.4,163.5z
	 M653.7,160.1c1.6,0.7,3,1.6,4.2,2.6l-0.8,1.3c-1.4-1.2-2.8-2.2-4.2-2.9L653.7,160.1L653.7,160.1L653.7,160.1z"/>
<g>
	<path class="st0" d="M627.3,208h-1.5v-9.4c-0.3,0.3-0.8,0.7-1.4,1c-0.6,0.3-1.1,0.6-1.5,0.8V199c0.8-0.4,1.5-0.9,2.2-1.4
		s1-1.1,1.3-1.6h1L627.3,208L627.3,208z M633.3,201.5c-0.6-0.2-1.1-0.5-1.4-1c-0.3-0.4-0.4-0.9-0.4-1.5c0-0.9,0.3-1.6,0.9-2.2
		s1.5-0.9,2.5-0.9s1.9,0.3,2.5,0.9s1,1.4,1,2.2c0,0.6-0.2,1-0.4,1.4s-0.7,0.7-1.3,0.9c0.7,0.2,1.3,0.6,1.7,1.2s0.6,1.2,0.6,1.9
		c0,1-0.4,1.9-1.1,2.6c-0.7,0.7-1.7,1.1-2.9,1.1s-2.1-0.4-2.9-1.1c-0.7-0.7-1.1-1.6-1.1-2.6c0-0.8,0.2-1.4,0.6-2
		C632,202,632.6,201.7,633.3,201.5L633.3,201.5z M632.5,204.5c0,0.4,0.1,0.8,0.3,1.2s0.5,0.7,0.9,0.9c0.4,0.2,0.8,0.3,1.3,0.3
		c0.7,0,1.3-0.2,1.7-0.7c0.5-0.4,0.7-1,0.7-1.7s-0.2-1.3-0.7-1.8c-0.5-0.5-1.1-0.7-1.8-0.7s-1.3,0.2-1.7,0.7
		C632.8,203.3,632.6,203.8,632.5,204.5L632.5,204.5z M633,199c0,0.6,0.2,1,0.5,1.4s0.8,0.5,1.4,0.5s1-0.2,1.4-0.5s0.5-0.8,0.5-1.3
		s-0.2-1-0.6-1.4s-0.8-0.6-1.4-0.6s-1,0.2-1.4,0.5S633,198.5,633,199L633,199z M641.5,207c-0.8-1-1.2-2.6-1.2-4.9
		c0-1.4,0.2-2.6,0.4-3.4s0.7-1.5,1.3-2s1.3-0.7,2.2-0.7c0.6,0,1.2,0.1,1.7,0.4c0.5,0.3,0.9,0.6,1.2,1.1c0.3,0.5,0.6,1.1,0.7,1.8
		s0.3,1.6,0.3,2.8c0,1.4-0.1,2.5-0.4,3.4c-0.3,0.9-0.7,1.5-1.3,2s-1.3,0.7-2.2,0.7C643.1,208.2,642.2,207.8,641.5,207L641.5,207
		L641.5,207z M642.6,198c-0.5,0.7-0.8,2.1-0.8,4.1s0.2,3.3,0.7,3.9s1,1,1.7,1s1.2-0.3,1.7-1s0.7-2,0.7-3.9s-0.2-3.3-0.7-3.9
		s-1-1-1.7-1S643,197.5,642.6,198L642.6,198L642.6,198z"/>
	<path class="st0" d="M655.9,195.9c-1,2.3-2.7,4.3-5,6.2l-1-1.2c2.3-1.6,3.9-3.6,5-6.1l1.2,0.8C656.3,195.7,656.2,195.8,655.9,195.9
		L655.9,195.9L655.9,195.9z M661.8,201.1l-0.3,5.3c-0.1,1.8-0.7,2.8-1.9,2.8h-2l-0.2-1.4h1.6c0.6,0,0.9-0.4,0.9-1.1l0.3-4.2h-3.6
		l-0.1,0.5c-0.3,2.4-2,4.6-5.2,6.6l-1-1.2c2.8-1.6,4.4-3.3,4.7-5.1l0.1-0.8h-2.5v-1.2L661.8,201.1L661.8,201.1z M664,202.1
		c-2.4-1.4-4.2-3.7-5.3-6.9l1.2-0.5c1,2.8,2.7,4.8,5,6L664,202.1z"/>
</g>
<path class="st0" d="M387.2,49c-0.3,0.6-0.6,1.3-1.2,2v8.6h-1.3v-6.9c-0.5,0.5-1,1-1.6,1.5l-0.8-1.4c1.7-1.1,3.1-2.8,4-5l1.1,0.9
	C387.6,48.9,387.6,49,387.2,49L387.2,49L387.2,49z M386.9,46c-1,1.7-2.1,3.1-3.4,4l-0.9-1.2c1.4-0.9,2.5-2.2,3.5-4l1,0.9
	C387.3,45.9,387.3,46,386.9,46L386.9,46L386.9,46z M397.5,57.8l-0.2,1.4h-2.4c-2.5,0-4.4-0.9-5.6-2.8c-0.4,1.3-1,2.4-2,3.3l-1-1.2
	c1.5-1,2.2-3,2.3-6.2l1.5,0.5c0.2,0.2,0.1,0.3-0.2,0.3c0,0.7-0.1,1.4-0.3,2c0.6,0.9,1.3,1.5,2,2v-5.7H387v-1.2h4.3v-2.2h-3.4v-1.2
	h3.4v-2.3h1.2c0.4,0,0.4,0.2,0.1,0.4v1.9h3.6v1.2h-3.6v2.2h4.6v1.2h-4.5v2.3h3.6V55h-3.6v2.6c0.5,0.1,1.2,0.2,1.9,0.2L397.5,57.8
	L397.5,57.8z M407.4,46.4h4.7v1.2h-4.7v2h6.4v1.2h-6.4V55c0,0.7-0.4,1.1-1,1.1h-1.4l-0.2-1.2h1.2c0.1,0,0.2-0.1,0.2-0.2v-3.8h-6.6
	v-1.2h2.9v-3.9h1.2c0.4,0,0.4,0.2,0.1,0.4v3.5h2.4v-5.1h1.2c0.4,0,0.4,0.2,0.1,0.4L407.4,46.4L407.4,46.4z M404.7,52.5
	c0.2,0.2,0.1,0.3-0.3,0.3c-1,1.4-2.4,2.6-4,3.5l-1-1.2c1.7-1,3-2.1,4-3.3L404.7,52.5L404.7,52.5z M411.5,54.7
	c0.2,0.2,0.1,0.3-0.2,0.3c-2.3,3-5.8,4.6-10.4,4.6l-0.5-1.6c4.7,0,8-1.4,9.9-4.2L411.5,54.7z M409.8,51.3c1.6,0.7,3,1.6,4.2,2.6
	l-0.9,1.3c-1.4-1.2-2.8-2.2-4.2-2.9L409.8,51.3L409.8,51.3z"/>
<path class="st0" d="M390.2,89.2l-1.5,0.1c-0.1-0.6-0.3-1-0.6-1.3c-0.4-0.4-0.9-0.6-1.5-0.6c-0.5,0-0.9,0.1-1.2,0.4
	c-0.5,0.3-0.8,0.8-1.1,1.5c-0.3,0.7-0.4,1.6-0.4,2.8c0.4-0.5,0.8-0.9,1.3-1.2c0.5-0.3,1-0.4,1.6-0.4c1,0,1.8,0.4,2.5,1.1
	s1,1.7,1,2.8c0,0.8-0.2,1.4-0.5,2.1c-0.3,0.7-0.8,1.1-1.3,1.5c-0.6,0.3-1.2,0.5-1.9,0.5c-1.2,0-2.2-0.4-3-1.3s-1.2-2.4-1.2-4.5
	c0-2.3,0.4-4,1.3-5.1c0.8-0.9,1.8-1.4,3-1.4c0.9,0,1.7,0.3,2.3,0.8S390.1,88.2,390.2,89.2L390.2,89.2z M384.2,94.3
	c0,0.5,0.1,1,0.3,1.5c0.2,0.5,0.5,0.8,0.9,1.1c0.4,0.2,0.8,0.4,1.2,0.4c0.6,0,1.2-0.2,1.6-0.8c0.5-0.5,0.7-1.2,0.7-2s-0.2-1.5-0.7-2
	c-0.4-0.5-1-0.7-1.7-0.7s-1.2,0.2-1.7,0.7S384.2,93.6,384.2,94.3L384.2,94.3z M393,97.2c-0.8-1-1.2-2.6-1.2-4.9
	c0-1.4,0.1-2.6,0.4-3.4s0.7-1.5,1.3-2s1.3-0.7,2.2-0.7c0.6,0,1.2,0.1,1.7,0.4c0.5,0.3,0.9,0.6,1.2,1.1c0.3,0.5,0.6,1.1,0.7,1.8
	s0.3,1.7,0.3,2.8c0,1.4-0.1,2.5-0.4,3.4c-0.3,0.9-0.7,1.5-1.3,2s-1.3,0.7-2.2,0.7C394.6,98.4,393.7,98,393,97.2L393,97.2L393,97.2z
	 M394.1,88.3c-0.5,0.7-0.8,2.1-0.8,4.1s0.2,3.3,0.7,3.9s1,1,1.7,1s1.2-0.3,1.7-1c0.5-0.7,0.7-2,0.7-3.9s-0.2-3.3-0.7-3.9s-1-1-1.7-1
	S394.5,87.7,394.1,88.3L394.1,88.3L394.1,88.3z"/>
<path class="st0" d="M407.4,86.1c-1,2.3-2.7,4.3-5,6.2l-1-1.2c2.3-1.6,3.9-3.6,5-6.1l1.2,0.8C407.8,86,407.7,86.1,407.4,86.1
	L407.4,86.1L407.4,86.1z M413.3,91.3l-0.3,5.3c-0.1,1.8-0.7,2.8-1.9,2.8h-2l-0.2-1.4h1.6c0.6,0,0.9-0.4,0.9-1.1l0.3-4.2h-3.6
	l-0.1,0.5c-0.3,2.4-2,4.6-5.2,6.6l-1-1.2c2.8-1.6,4.4-3.3,4.7-5.1l0.1-0.8h-2.5v-1.2L413.3,91.3L413.3,91.3z M415.5,92.3
	c-2.4-1.4-4.2-3.7-5.3-6.9l1.2-0.5c1,2.8,2.7,4.8,5,6L415.5,92.3z"/>
<path class="st0" d="M379.2,154.5c-0.2,0.5-0.4,1-0.6,1.5h4.4l0.7-0.3l0.9,0.9c0.2,0.2,0.1,0.4-0.3,0.5c-0.4,1.7-0.9,3.3-1.6,4.8
	l1.6,1.1l-1,1.4l-1.4-1.1c-1.3,1.8-3.1,3.3-5.4,4.5l-1.5-1.1c2.6-1.1,4.5-2.5,5.6-4.3c-1.1-0.7-2.2-1.3-3.2-1.9l0.8-1.2
	c1.4,0.6,2.5,1.2,3.3,1.7c0.6-1.4,1-2.6,1.2-3.6h-4.8c-0.8,1.5-1.9,2.8-3.1,4.1l-1.2-0.9c2.2-2.3,3.7-4.8,4.4-7.3l1.6,0.6
	C379.8,154.1,379.7,154.3,379.2,154.5L379.2,154.5L379.2,154.5z M397.8,157.7c-0.8,4.8-3.5,8.2-8.2,10.2l-1.2-1.2
	c4.3-1.7,6.9-4.8,7.7-9h-5.2c-1,1.7-2,3-3.1,4l-1.3-0.9c2.3-2.1,3.7-4.4,4.4-7.2l1.5,0.5c0.3,0.1,0.2,0.3-0.1,0.4
	c-0.2,0.6-0.4,1.1-0.7,1.7h4.7l0.6-0.3l1.2,1.2C398.3,157.3,398.2,157.6,397.8,157.7L397.8,157.7L397.8,157.7z M400.8,157.7
	c1.1,0.6,2.2,1.3,3.3,2.1l-1,1.4c-1.3-1-2.4-1.7-3.3-2.1L400.8,157.7L400.8,157.7L400.8,157.7z M401.3,165.6
	c4.8-1.1,8.3-3.5,10.7-7.4l1.2,1.2c-2.2,3.6-5.7,6.1-10.3,7.6c-0.1,0.5-0.4,0.5-0.6,0.1L401.3,165.6L401.3,165.6z M402.7,153.9
	c1.2,0.6,2.3,1.4,3.3,2.1l-0.9,1.4c-1.2-0.8-2.3-1.5-3.3-2.1L402.7,153.9L402.7,153.9z M414.9,161.3v-1.4h14.6v1.4H414.9z"/>
<g>
	<path class="st0" d="M391.1,206.6v1.4h-7.9c0-0.4,0-0.7,0.2-1c0.2-0.5,0.5-1.1,1-1.6c0.4-0.5,1.1-1.1,1.9-1.8
		c1.3-1.1,2.2-1.9,2.6-2.5c0.5-0.6,0.7-1.2,0.7-1.8c0-0.6-0.2-1.1-0.6-1.5s-1-0.6-1.6-0.6c-0.7,0-1.3,0.2-1.7,0.6
		c-0.4,0.4-0.6,1-0.6,1.8l-1.5-0.2c0.1-1.1,0.5-2,1.2-2.6c0.7-0.6,1.6-0.9,2.7-0.9s2.1,0.3,2.7,1s1,1.4,1,2.4c0,0.5-0.1,0.9-0.3,1.4
		c-0.2,0.5-0.5,0.9-1,1.5c-0.5,0.5-1.2,1.2-2.3,2.1c-0.9,0.7-1.5,1.2-1.7,1.5c-0.2,0.3-0.5,0.5-0.6,0.8L391.1,206.6L391.1,206.6z
		 M393.9,207c-0.8-1-1.2-2.6-1.2-4.9c0-1.4,0.1-2.6,0.4-3.4s0.7-1.5,1.3-2s1.3-0.7,2.2-0.7c0.6,0,1.2,0.1,1.7,0.4
		c0.5,0.3,0.9,0.6,1.2,1.1c0.3,0.5,0.6,1.1,0.7,1.8s0.3,1.6,0.3,2.8c0,1.4-0.1,2.5-0.4,3.4c-0.3,0.9-0.7,1.5-1.3,2s-1.3,0.7-2.2,0.7
		C395.4,208.2,394.5,207.8,393.9,207L393.9,207L393.9,207z M395,198c-0.5,0.7-0.8,2.1-0.8,4.1s0.2,3.3,0.7,3.9s1,1,1.7,1
		s1.2-0.3,1.7-1c0.5-0.6,0.7-2,0.7-3.9s-0.2-3.3-0.7-3.9s-1-1-1.7-1S395.4,197.5,395,198L395,198L395,198z"/>
	<path class="st0" d="M408.2,195.9c-1,2.3-2.7,4.3-5,6.2l-1-1.2c2.3-1.6,3.9-3.6,5-6.1l1.2,0.8C408.6,195.7,408.6,195.8,408.2,195.9
		L408.2,195.9L408.2,195.9z M414.1,201.1l-0.3,5.3c-0.1,1.8-0.7,2.8-1.9,2.8h-2l-0.2-1.4h1.6c0.6,0,0.9-0.4,0.9-1.1l0.3-4.2H409
		l-0.1,0.5c-0.3,2.4-2,4.6-5.2,6.6l-1-1.2c2.8-1.6,4.4-3.3,4.7-5.1l0.1-0.8h-2.5v-1.2L414.1,201.1L414.1,201.1z M416.4,202.1
		c-2.4-1.4-4.2-3.7-5.3-6.9l1.2-0.5c1,2.8,2.7,4.8,5,6L416.4,202.1z"/>
	<path class="st0" d="M352.8,215.3c0.4,0.1,0.5,0.3,0.1,0.5v2.8h4.1v-3.9h1.4c0.4,0.1,0.5,0.3,0.1,0.5v3.4h4.8v1.4h-10.4v2.1h7.4
		v7.3h-1.5v-5.9h-5.9v0.6c0,2.1-0.8,3.9-2.5,5.3l-1-1.1c1.5-1.1,2.2-2.6,2.2-4.4v-8.8L352.8,215.3L352.8,215.3z M372.2,229.2
		c-1.4,0-2.6-0.6-3.7-1.6c-0.9,0.9-1.7,1.5-2.2,1.8l-0.7-1.5l2.4-1.3v-4.1h-2.2v-1.2h3.5v5.4c0.8,0.9,2,1.4,3.4,1.4h7.9l-0.3,1.2
		L372.2,229.2L372.2,229.2z M368.2,218.4c-0.6-0.8-1.3-1.7-2.2-2.6l1-0.9c1,0.9,1.8,1.7,2.4,2.4L368.2,218.4L368.2,218.4z
		 M375.8,217.6l-0.7,1.2h3.6v8.2h-1.1v-0.5h-5.2v0.7h-1.1v-8.4h2.5l0.5-1.2h-4.5v-1.1h2.9c-0.3-0.4-0.7-0.8-1.2-1.4l1-0.8
		c0.5,0.4,0.9,0.9,1.4,1.4l-1,0.7h2.6l0.9-2.2l1.4,0.3c0.2,0.2,0.1,0.3-0.2,0.3l-1,1.6h3.5v1.1L375.8,217.6L375.8,217.6z
		 M377.5,219.9h-5.2v1.2h5.2V219.9z M377.5,222.1h-5.2v1.1h5.2V222.1z M377.5,224.3h-5.2v1.2h5.2V224.3z M387.9,221.4
		c-0.1-0.4-0.3-0.7-0.6-1l0.9-0.6c0.8,1,1.3,1.9,1.6,2.8l-1,0.6l-0.3-0.8l-1.8,0.2v7.1h-1.3v-6.9l-2.5,0.2c0,0.3-0.1,0.4-0.3,0.2
		l-0.2-1.6h1.4l1.2-1.4c-0.8-0.6-1.7-1.3-2.5-1.8l0.8-1l0.6,0.4l2-3.3l1.2,0.7c0.1,0.2,0.1,0.3-0.2,0.3l-2.1,2.9l1,0.7l1.9-2.6
		l1.2,0.7c0.1,0.2,0.1,0.3-0.2,0.3l-3.3,4.1L387.9,221.4L387.9,221.4L387.9,221.4z M382.5,227.8c0.4-1.1,0.6-2.3,0.8-3.8l1.3,0.2
		c0.1,0.1,0.1,0.3-0.1,0.4c-0.2,1.5-0.4,2.7-0.8,3.7L382.5,227.8z M388.2,227.6c0-1.2-0.3-2.4-0.6-3.5l1.2-0.3
		c0.5,1.1,0.8,2.3,0.9,3.5L388.2,227.6L388.2,227.6L388.2,227.6z M392.6,215.5c-0.2,0.8-0.4,1.6-0.7,2.4h4.9l-0.3,8.9
		c0,1.7-0.7,2.6-1.9,2.6h-2.5l-0.2-1.4h2.1c0.7,0,1.1-0.4,1.2-1.3l0.2-7.5h-4c-0.3,0.7-0.6,1.3-1,1.8l-1.1-0.8
		c1-1.3,1.7-3.2,2.2-5.6l1.4,0.5C392.9,215.3,392.9,215.4,392.6,215.5L392.6,215.5L392.6,215.5z M391.6,221.9
		c0.8,0.6,1.6,1.5,2.3,2.6l-1.1,0.9c-0.5-1-1.2-1.9-2.1-2.6L391.6,221.9L391.6,221.9z"/>
	<path class="st0" d="M407.4,226.7v1.4h-7.9c0-0.4,0-0.7,0.2-1c0.2-0.5,0.5-1.1,1-1.6c0.4-0.5,1.1-1.1,1.9-1.8
		c1.3-1.1,2.2-1.9,2.6-2.5c0.5-0.6,0.7-1.2,0.7-1.8c0-0.6-0.2-1.1-0.6-1.5s-1-0.6-1.6-0.6c-0.7,0-1.3,0.2-1.7,0.6s-0.6,1-0.6,1.8
		l-1.5-0.2c0.1-1.1,0.5-2,1.2-2.6c0.7-0.6,1.6-0.9,2.7-0.9s2.1,0.3,2.7,1s1,1.4,1,2.4c0,0.5-0.1,0.9-0.3,1.4c-0.2,0.5-0.5,0.9-1,1.5
		c-0.5,0.5-1.2,1.2-2.3,2.1c-0.9,0.7-1.5,1.2-1.7,1.5c-0.2,0.3-0.5,0.5-0.6,0.8L407.4,226.7L407.4,226.7z M409,224.9l1.5-0.1
		c0.1,0.8,0.4,1.3,0.8,1.7c0.4,0.4,0.9,0.6,1.5,0.6c0.7,0,1.3-0.3,1.8-0.8s0.7-1.2,0.7-2.1s-0.2-1.5-0.7-2s-1.1-0.7-1.9-0.7
		c-0.5,0-0.9,0.1-1.3,0.3c-0.4,0.2-0.7,0.5-0.9,0.8l-1.4-0.2l1.2-6.2h6v1.4h-4.8l-0.6,3.2c0.7-0.5,1.5-0.8,2.3-0.8
		c1,0,1.9,0.4,2.6,1.1s1.1,1.7,1.1,2.8s-0.3,2-1,2.8c-0.8,1-1.8,1.5-3.1,1.5c-1.1,0-2-0.3-2.7-0.9S409.1,226,409,224.9L409,224.9z
		 M419.5,227c-0.8-1-1.2-2.6-1.2-4.9c0-1.4,0.1-2.6,0.4-3.4s0.7-1.5,1.3-2s1.3-0.7,2.2-0.7c0.6,0,1.2,0.1,1.7,0.4
		c0.5,0.3,0.9,0.6,1.2,1.1c0.3,0.5,0.6,1.1,0.7,1.8s0.3,1.6,0.3,2.8c0,1.4-0.1,2.5-0.4,3.4c-0.3,0.9-0.7,1.5-1.3,2s-1.3,0.7-2.2,0.7
		C421,228.3,420.1,227.9,419.5,227L419.5,227L419.5,227z M420.6,218.1c-0.5,0.7-0.8,2.1-0.8,4.1s0.2,3.3,0.7,3.9s1,1,1.7,1
		s1.2-0.3,1.7-1c0.5-0.6,0.7-2,0.7-3.9s-0.2-3.3-0.7-3.9s-1-1-1.7-1S421,217.6,420.6,218.1L420.6,218.1L420.6,218.1z M428.8,227
		c-0.8-1-1.2-2.6-1.2-4.9c0-1.4,0.1-2.6,0.4-3.4s0.7-1.5,1.3-2s1.3-0.7,2.2-0.7c0.6,0,1.2,0.1,1.7,0.4c0.5,0.3,0.9,0.6,1.2,1.1
		c0.3,0.5,0.6,1.1,0.7,1.8s0.3,1.6,0.3,2.8c0,1.4-0.1,2.5-0.4,3.4c-0.3,0.9-0.7,1.5-1.3,2s-1.3,0.7-2.2,0.7
		C430.3,228.3,429.4,227.9,428.8,227L428.8,227L428.8,227z M429.9,218.1c-0.5,0.7-0.8,2.1-0.8,4.1s0.2,3.3,0.7,3.9s1,1,1.7,1
		s1.2-0.3,1.7-1c0.5-0.6,0.7-2,0.7-3.9s-0.2-3.3-0.7-3.9s-1-1-1.7-1S430.3,217.6,429.9,218.1L429.9,218.1L429.9,218.1z"/>
	<path class="st0" d="M450.8,227.9c0,0.7-0.4,1.1-1,1.1H448l-0.4-1.4h1.4c0.2,0,0.3-0.1,0.3-0.3v-4.4h-9.6v6.1h-1.5v-13.3h12.6
		V227.9L450.8,227.9z M439.7,217v4.6h4.1V217H439.7z M449.3,217h-4.2v4.6h4.2V217z"/>
</g>
<path class="st0" d="M134.8,154.5c-0.2,0.5-0.4,1-0.6,1.5h4.4l0.7-0.3l0.9,0.9c0.2,0.2,0.1,0.4-0.3,0.5c-0.4,1.7-0.9,3.3-1.6,4.8
	l1.6,1.1l-1,1.4l-1.4-1.1c-1.3,1.8-3.1,3.3-5.4,4.5l-1.5-1.1c2.6-1.1,4.5-2.5,5.6-4.3c-1.1-0.7-2.2-1.3-3.2-1.9l0.8-1.2
	c1.4,0.6,2.5,1.2,3.3,1.7c0.6-1.4,1.1-2.6,1.2-3.6h-4.8c-0.8,1.5-1.9,2.8-3.1,4.1l-1.2-0.9c2.2-2.3,3.7-4.8,4.4-7.3l1.6,0.6
	C135.4,154.1,135.3,154.3,134.8,154.5L134.8,154.5L134.8,154.5z M153.4,157.7c-0.8,4.8-3.6,8.2-8.2,10.2l-1.2-1.2
	c4.3-1.7,6.9-4.8,7.7-9h-5.2c-1,1.7-2.1,3-3.1,4l-1.3-0.9c2.3-2.1,3.7-4.4,4.4-7.2l1.5,0.5c0.3,0.1,0.2,0.3-0.1,0.4
	c-0.2,0.6-0.4,1.1-0.7,1.7h4.7l0.6-0.3l1.2,1.2C153.9,157.3,153.8,157.6,153.4,157.7L153.4,157.7L153.4,157.7z M156.4,157.7
	c1.1,0.6,2.2,1.3,3.3,2.1l-1.1,1.4c-1.3-1-2.4-1.7-3.3-2.1L156.4,157.7L156.4,157.7L156.4,157.7z M156.9,165.6
	c4.8-1.1,8.3-3.5,10.7-7.4l1.2,1.2c-2.2,3.6-5.7,6.1-10.3,7.6c-0.1,0.5-0.4,0.5-0.6,0.1L156.9,165.6L156.9,165.6z M158.2,153.9
	c1.2,0.6,2.3,1.4,3.3,2.1l-0.9,1.4c-1.2-0.8-2.3-1.5-3.3-2.1L158.2,153.9L158.2,153.9z M170.5,161.3v-1.4h14.6v1.4H170.5z"/>
<path class="st0" d="M134.2,203.6l1.5-0.2c0.2,0.8,0.5,1.4,0.9,1.8c0.4,0.4,0.9,0.6,1.5,0.6c0.7,0,1.3-0.2,1.8-0.7
	c0.5-0.5,0.7-1.1,0.7-1.8s-0.2-1.2-0.7-1.7s-1-0.7-1.7-0.7c-0.3,0-0.6,0.1-1,0.2l0.2-1.3c0.1,0,0.2,0,0.2,0c0.6,0,1.2-0.2,1.7-0.5
	s0.8-0.8,0.8-1.5c0-0.5-0.2-1-0.6-1.3c-0.4-0.4-0.8-0.5-1.4-0.5s-1.1,0.2-1.4,0.5c-0.4,0.4-0.6,0.9-0.7,1.6l-1.5-0.3
	c0.2-1,0.6-1.8,1.2-2.3s1.4-0.8,2.4-0.8c0.6,0,1.3,0.1,1.8,0.4s1,0.7,1.3,1.1c0.3,0.5,0.4,1,0.4,1.6s-0.1,1-0.4,1.4s-0.7,0.8-1.2,1
	c0.7,0.2,1.3,0.5,1.6,1s0.6,1.2,0.6,1.9c0,1.1-0.4,1.9-1.1,2.7c-0.8,0.7-1.7,1.1-2.9,1.1c-1.1,0-1.9-0.3-2.6-0.9
	C134.8,205.4,134.4,204.6,134.2,203.6L134.2,203.6z M144.7,205.7c-0.8-1-1.2-2.6-1.2-4.9c0-1.4,0.1-2.6,0.4-3.4
	c0.3-0.9,0.7-1.5,1.3-2s1.3-0.7,2.2-0.7c0.6,0,1.2,0.1,1.7,0.4c0.5,0.3,0.9,0.6,1.2,1.1c0.3,0.5,0.6,1.1,0.7,1.8
	c0.2,0.7,0.3,1.6,0.3,2.8c0,1.4-0.1,2.5-0.4,3.4c-0.3,0.9-0.7,1.5-1.3,2s-1.3,0.7-2.2,0.7C146.3,207,145.4,206.6,144.7,205.7
	L144.7,205.7L144.7,205.7z M145.8,196.8c-0.5,0.7-0.8,2.1-0.8,4.1s0.2,3.3,0.7,3.9s1,1,1.7,1s1.2-0.3,1.7-1c0.5-0.6,0.7-2,0.7-3.9
	s-0.2-3.3-0.7-3.9s-1-1-1.7-1S146.2,196.2,145.8,196.8L145.8,196.8L145.8,196.8z"/>
<path class="st0" d="M159.1,194.6c-1.1,2.3-2.7,4.3-5,6.2l-1.1-1.2c2.3-1.6,3.9-3.6,5-6.1l1.2,0.8
	C159.5,194.5,159.4,194.6,159.1,194.6L159.1,194.6L159.1,194.6z M165,199.8l-0.3,5.3c-0.1,1.8-0.7,2.8-1.9,2.8h-2l-0.2-1.4h1.6
	c0.6,0,0.9-0.4,0.9-1.1l0.3-4.2h-3.6l-0.1,0.5c-0.3,2.4-2,4.6-5.2,6.6l-1-1.2c2.8-1.6,4.4-3.3,4.7-5.1l0.1-0.8H156v-1.2L165,199.8
	L165,199.8z M167.2,200.9c-2.4-1.4-4.2-3.7-5.3-6.9l1.2-0.5c1.1,2.8,2.7,4.8,5,6L167.2,200.9z"/>
<path class="st0" d="M103.6,214.1c0.4,0.1,0.5,0.3,0.1,0.5v2.8h4.1v-3.9h1.4c0.4,0.1,0.5,0.3,0.1,0.5v3.4h4.8v1.4h-10.4v2.1h7.4v7.3
	h-1.5v-5.9h-5.9v0.6c0,2.1-0.8,3.9-2.5,5.3l-1.1-1.1c1.5-1.1,2.2-2.6,2.2-4.4v-8.8L103.6,214.1L103.6,214.1z M123.1,227.9
	c-1.3,0-2.6-0.6-3.7-1.6c-0.9,0.9-1.7,1.5-2.2,1.8l-0.7-1.5l2.4-1.3v-4.1h-2.2V220h3.5v5.4c0.8,0.9,2,1.4,3.4,1.4h7.9l-0.3,1.2
	L123.1,227.9L123.1,227.9z M119,217.2c-0.6-0.8-1.3-1.7-2.2-2.6l1.1-0.9c1,0.9,1.8,1.7,2.4,2.4L119,217.2L119,217.2z M126.6,216.4
	l-0.7,1.2h3.6v8.2h-1.1v-0.5h-5.2v0.7h-1.1v-8.4h2.6l0.5-1.2h-4.4v-1.1h2.9c-0.3-0.4-0.7-0.8-1.2-1.4l1.1-0.8
	c0.5,0.4,0.9,0.9,1.4,1.4l-1,0.7h2.6l0.8-2.2l1.4,0.3c0.2,0.2,0.1,0.3-0.2,0.3l-1,1.6h3.5v1.1L126.6,216.4L126.6,216.4z
	 M128.4,218.7h-5.2v1.2h5.2V218.7z M128.4,220.9h-5.2v1.1h5.2V220.9z M128.4,223h-5.2v1.2h5.2V223z M138.8,220.2
	c-0.1-0.4-0.3-0.7-0.6-1l0.9-0.6c0.8,1,1.3,1.9,1.6,2.8l-1.1,0.6l-0.3-0.8l-1.8,0.2v7.1h-1.3v-6.9l-2.6,0.2c0,0.3-0.1,0.4-0.3,0.2
	l-0.2-1.6h1.4l1.2-1.4c-0.8-0.6-1.7-1.3-2.6-1.8l0.8-1l0.6,0.4l2-3.3l1.2,0.7c0.1,0.2,0.1,0.3-0.2,0.3l-2.1,2.9l1,0.7l1.9-2.6
	l1.2,0.7c0.1,0.2,0.1,0.3-0.2,0.3l-3.3,4.1L138.8,220.2L138.8,220.2L138.8,220.2z M133.3,226.6c0.4-1.1,0.6-2.3,0.8-3.8l1.3,0.2
	c0.1,0.1,0.1,0.3-0.1,0.4c-0.2,1.5-0.4,2.7-0.8,3.7L133.3,226.6z M139,226.3c0-1.2-0.3-2.4-0.6-3.5l1.2-0.3c0.5,1.1,0.8,2.3,0.9,3.5
	L139,226.3L139,226.3L139,226.3z M143.4,214.2c-0.2,0.8-0.4,1.6-0.7,2.4h4.9l-0.3,8.9c0,1.7-0.7,2.6-1.9,2.6H143l-0.2-1.4h2.1
	c0.7,0,1.1-0.4,1.2-1.3l0.2-7.5h-4c-0.3,0.7-0.6,1.3-1.1,1.8l-1.1-0.8c1-1.3,1.7-3.2,2.2-5.6l1.4,0.5
	C143.8,214,143.7,214.2,143.4,214.2L143.4,214.2L143.4,214.2z M142.4,220.7c0.8,0.6,1.6,1.5,2.3,2.6l-1.1,0.9
	c-0.5-1-1.2-1.9-2.1-2.6L142.4,220.7L142.4,220.7z"/>
<path class="st0" d="M158.1,217.8l-1.5,0.1c-0.1-0.6-0.3-1-0.6-1.3c-0.4-0.4-0.9-0.6-1.5-0.6c-0.5,0-0.9,0.1-1.2,0.4
	c-0.5,0.3-0.8,0.8-1.1,1.5s-0.4,1.6-0.4,2.8c0.4-0.5,0.8-0.9,1.3-1.2c0.5-0.3,1.1-0.4,1.6-0.4c1,0,1.8,0.4,2.5,1.1
	c0.7,0.7,1,1.7,1,2.8c0,0.8-0.2,1.4-0.5,2.1c-0.3,0.6-0.8,1.1-1.3,1.5c-0.6,0.3-1.2,0.5-1.9,0.5c-1.2,0-2.2-0.4-3-1.4
	c-0.8-0.9-1.2-2.4-1.2-4.5c0-2.3,0.4-4,1.3-5.1c0.8-0.9,1.8-1.4,3-1.4c0.9,0,1.7,0.3,2.3,0.8S158,216.9,158.1,217.8L158.1,217.8z
	 M152.1,223c0,0.5,0.1,1,0.3,1.5c0.2,0.5,0.5,0.8,0.9,1.1c0.4,0.2,0.8,0.4,1.2,0.4c0.6,0,1.2-0.2,1.6-0.8c0.4-0.5,0.7-1.2,0.7-2
	s-0.2-1.5-0.7-2c-0.4-0.5-1-0.7-1.7-0.7s-1.2,0.2-1.7,0.7S152.1,222.2,152.1,223L152.1,223z M164.5,226.8V224h-5.2v-1.4l5.5-7.8h1.2
	v7.8h1.6v1.4H166v2.9H164.5z M164.5,222.6v-5.4l-3.8,5.4H164.5z M170.3,225.8c-0.8-1-1.2-2.6-1.2-4.9c0-1.4,0.1-2.6,0.4-3.4
	c0.3-0.9,0.7-1.5,1.3-2s1.3-0.7,2.2-0.7c0.6,0,1.2,0.1,1.7,0.4c0.5,0.3,0.9,0.6,1.2,1.1c0.3,0.5,0.6,1.1,0.7,1.8
	c0.2,0.7,0.3,1.6,0.3,2.8c0,1.4-0.1,2.5-0.4,3.4c-0.3,0.9-0.7,1.5-1.3,2s-1.3,0.7-2.2,0.7C171.9,227.1,171,226.6,170.3,225.8
	L170.3,225.8L170.3,225.8z M171.4,216.9c-0.5,0.7-0.8,2.1-0.8,4.1s0.2,3.3,0.7,3.9s1,1,1.7,1s1.2-0.3,1.7-1c0.5-0.6,0.7-2,0.7-3.9
	s-0.2-3.3-0.7-3.9s-1-1-1.7-1S171.8,216.3,171.4,216.9L171.4,216.9L171.4,216.9z M179.6,225.8c-0.8-1-1.2-2.6-1.2-4.9
	c0-1.4,0.1-2.6,0.4-3.4c0.3-0.9,0.7-1.5,1.3-2s1.3-0.7,2.2-0.7c0.6,0,1.2,0.1,1.7,0.4c0.5,0.3,0.9,0.6,1.2,1.1
	c0.3,0.5,0.6,1.1,0.7,1.8c0.2,0.7,0.3,1.6,0.3,2.8c0,1.4-0.1,2.5-0.4,3.4c-0.3,0.9-0.7,1.5-1.3,2s-1.3,0.7-2.2,0.7
	C181.2,227.1,180.3,226.6,179.6,225.8L179.6,225.8L179.6,225.8z M180.7,216.9c-0.5,0.7-0.8,2.1-0.8,4.1s0.2,3.3,0.7,3.9s1,1,1.7,1
	s1.2-0.3,1.7-1c0.5-0.6,0.7-2,0.7-3.9s-0.2-3.3-0.7-3.9s-1-1-1.7-1S181.1,216.3,180.7,216.9L180.7,216.9L180.7,216.9z"/>
<path class="st0" d="M201.6,226.6c0,0.7-0.4,1.1-1.1,1.1h-1.7l-0.4-1.4h1.4c0.2,0,0.3-0.1,0.3-0.3v-4.4h-9.6v6.1H189v-13.3h12.6
	V226.6L201.6,226.6z M190.5,215.7v4.6h4.1v-4.6H190.5z M200.1,215.7h-4.2v4.6h4.2V215.7z"/>
<path class="st0" d="M130.6,293.4l0.6-2.3l1.6,0.3c0.2,0.2,0.1,0.3-0.2,0.3l-0.7,1.6h5.6v12.4h-1.3v-0.6h-8.2v0.8h-1.3v-12.6
	L130.6,293.4L130.6,293.4z M136.1,296.8v-2.2h-8.2v2.2H136.1z M136.1,298.1h-8.2v2.2h8.2V298.1z M136.1,304v-2.4h-8.2v2.4H136.1z
	 M149.3,292.8h6.2v3.4h-1.3V294H143v2.2h-1.3v-3.4h6.1v-1.4h1.4c0.4,0,0.4,0.2,0.1,0.4L149.3,292.8L149.3,292.8z M149.5,301.4
	c-2,1.7-4.2,3.1-6.9,4.1l-0.6-1.3c2.8-0.9,5.2-2.3,7.1-4.1c-0.1-0.2-0.3-0.4-0.5-0.6c-2,1.5-3.9,2.5-5.7,3.1l-0.5-1.2
	c2.1-0.6,3.9-1.5,5.4-2.7c-0.2-0.3-0.4-0.4-0.6-0.5c-1.6,1-3.3,1.7-5,2l-0.5-1.2c2.4-0.4,4.5-1.2,6.1-2.4h-4.2v-1.2h9.8v1.2h-3.9
	c-0.4,0.4-0.8,0.8-1.4,1.2c0.7,0.5,1.3,1,1.8,1.6c1.6-0.9,2.7-1.7,3.3-2.4l1.2,0.9c0.2,0.3,0.1,0.4-0.3,0.3
	c-1.1,0.6-2.2,1.3-3.4,1.8c1.1,1.5,2.8,2.8,4.8,3.9l-0.9,1.4c-1.8-1.3-3.2-2.6-4.1-3.9c0.2,1.7,0.2,3-0.1,3.8c-0.3,0.7-0.9,1-1.8,1
	h-1.7l-0.3-1.4h1.5c0.6,0,1-0.3,1.1-0.9C149.6,303.1,149.6,302.3,149.5,301.4L149.5,301.4L149.5,301.4z M170.5,300.7h-4.2v5H165v-5
	h-3.9c-0.1,2.3-0.8,4.1-2,5.4l-1.1-1c1.2-1.3,1.8-2.8,1.8-4.6v-8.4h12.1v12.5c0,0.7-0.4,1-1.1,1H169l-0.3-1.4h1.6
	c0.2,0,0.3-0.1,0.3-0.3V300.7z M161,293.4v2.4h3.9v-2.4H161z M161,297v2.4h3.9V297H161z M166.3,293.4v2.4h4.2v-2.4H166.3z
	 M166.3,297v2.4h4.2V297H166.3z M175.4,293.9v-1.2h6v-1.4h1.2c0.4,0,0.4,0.2,0.1,0.4v1h5.9v1.2h-5.9v1.3h4.6v6H186v-0.3h-3.3v1.3
	h6.8v1.2h-6.8v2.8h-1.3v-2.8h-6.8v-1.2h6.8v-1.3h-3.3v0.4h-1.3v-6h4.6v-1.3L175.4,293.9L175.4,293.9z M178.2,297.5h3.3v-1.2h-3.3
	V297.5z M178.2,299.8h3.3v-1.2h-3.3V299.8z M182.8,297.5h3.3v-1.2h-3.3V297.5z M182.8,299.8h3.3v-1.2h-3.3V299.8z"/>
<path class="st0" d="M141.5,334.5l1.5-0.2c0.2,0.8,0.5,1.4,0.9,1.8c0.4,0.4,0.9,0.5,1.5,0.5c0.7,0,1.3-0.2,1.8-0.7
	c0.5-0.5,0.7-1.1,0.7-1.8s-0.2-1.2-0.7-1.7s-1-0.7-1.7-0.7c-0.3,0-0.6,0-1,0.2l0.2-1.3c0.1,0,0.2,0,0.2,0c0.6,0,1.2-0.2,1.7-0.5
	s0.8-0.8,0.8-1.5c0-0.5-0.2-1-0.6-1.3c-0.4-0.4-0.8-0.5-1.4-0.5s-1.1,0.2-1.4,0.5c-0.4,0.4-0.6,0.9-0.7,1.6l-1.5-0.3
	c0.2-1,0.6-1.8,1.2-2.3s1.4-0.8,2.4-0.8c0.6,0,1.3,0.1,1.8,0.4s1,0.7,1.3,1.1s0.4,1,0.4,1.5s-0.1,1-0.4,1.4s-0.7,0.8-1.2,1
	c0.7,0.2,1.3,0.5,1.6,1s0.6,1.2,0.6,1.9c0,1-0.4,1.9-1.1,2.7s-1.7,1.1-2.9,1.1c-1.1,0-1.9-0.3-2.6-0.9
	C142,336.3,141.6,335.5,141.5,334.5L141.5,334.5z M152,336.6c-0.8-1-1.2-2.6-1.2-4.9c0-1.4,0.1-2.6,0.4-3.4c0.3-0.9,0.7-1.5,1.3-2
	s1.3-0.7,2.2-0.7c0.6,0,1.2,0.1,1.7,0.4c0.5,0.3,0.9,0.6,1.2,1.1c0.3,0.5,0.6,1.1,0.7,1.8c0.2,0.7,0.3,1.6,0.3,2.8
	c0,1.4-0.1,2.5-0.4,3.4c-0.3,0.9-0.7,1.5-1.3,2s-1.3,0.7-2.2,0.7C153.5,337.8,152.6,337.4,152,336.6L152,336.6L152,336.6z
	 M153.1,327.7c-0.5,0.7-0.8,2.1-0.8,4s0.2,3.3,0.7,3.9s1,1,1.7,1s1.2-0.3,1.7-1c0.5-0.6,0.7-2,0.7-3.9s-0.2-3.3-0.7-3.9s-1-1-1.7-1
	S153.5,327.1,153.1,327.7L153.1,327.7L153.1,327.7z"/>
<path class="st0" d="M166.4,325.5c-1.1,2.3-2.7,4.3-5,6.2l-1.1-1.2c2.3-1.6,3.9-3.6,5-6.1l1.2,0.8
	C166.7,325.4,166.7,325.5,166.4,325.5L166.4,325.5L166.4,325.5z M172.2,330.7L172,336c-0.1,1.8-0.7,2.8-1.9,2.8h-2l-0.2-1.4h1.6
	c0.6,0,0.9-0.4,0.9-1.1l0.3-4.2h-3.6l-0.1,0.5c-0.3,2.4-2,4.6-5.2,6.6l-1-1.2c2.8-1.6,4.4-3.3,4.7-5.1l0.1-0.8h-2.5v-1.2
	L172.2,330.7L172.2,330.7z M174.5,331.8c-2.4-1.4-4.2-3.7-5.3-6.9l1.2-0.5c1.1,2.8,2.7,4.8,5,6L174.5,331.8z"/>
<path class="st0" d="M376.2,279.1l0.6-2.3l1.6,0.3c0.2,0.2,0.1,0.3-0.2,0.3l-0.7,1.6h5.6v12.4h-1.3v-0.6h-8.2v0.8h-1.3v-12.6
	L376.2,279.1L376.2,279.1z M381.7,282.5v-2.2h-8.2v2.2H381.7z M381.7,283.7h-8.2v2.2h8.2V283.7z M381.7,289.6v-2.4h-8.2v2.4H381.7z
	 M394.9,278.4h6.2v3.4h-1.3v-2.2h-11.2v2.2h-1.3v-3.4h6.1V277h1.4c0.4,0,0.4,0.2,0.1,0.4L394.9,278.4L394.9,278.4z M395.1,287.1
	c-2,1.7-4.2,3.1-6.9,4.1l-0.6-1.3c2.8-0.9,5.2-2.3,7.1-4.1c-0.1-0.2-0.3-0.4-0.5-0.6c-2,1.5-3.9,2.5-5.7,3.1l-0.5-1.2
	c2.1-0.6,3.9-1.5,5.4-2.7c-0.2-0.3-0.4-0.4-0.6-0.5c-1.6,1-3.3,1.7-5,2l-0.5-1.2c2.4-0.4,4.5-1.2,6.1-2.4h-4.2v-1.2h9.8v1.2h-3.9
	c-0.4,0.4-0.8,0.8-1.4,1.2c0.7,0.5,1.3,1,1.8,1.6c1.6-0.9,2.7-1.7,3.3-2.4l1.2,0.9c0.2,0.3,0.1,0.4-0.3,0.3c-1,0.6-2.2,1.3-3.4,1.8
	c1.1,1.5,2.8,2.8,4.8,3.9l-0.9,1.4c-1.8-1.3-3.2-2.6-4.1-3.9c0.2,1.7,0.2,3-0.1,3.8c-0.3,0.7-0.9,1-1.8,1h-1.7l-0.3-1.4h1.5
	c0.6,0,1-0.3,1.1-0.9C395.2,288.8,395.2,288,395.1,287.1L395.1,287.1L395.1,287.1z M416.1,286.3h-4.2v5h-1.3v-5h-3.9
	c-0.1,2.3-0.8,4.1-2,5.4l-1-1c1.2-1.3,1.8-2.8,1.8-4.6v-8.4h12.1v12.5c0,0.7-0.4,1-1,1h-1.8l-0.3-1.4h1.6c0.2,0,0.3-0.1,0.3-0.3
	L416.1,286.3L416.1,286.3z M406.7,279v2.4h3.9V279H406.7z M406.7,282.7v2.4h3.9v-2.4H406.7z M411.9,279v2.4h4.2V279H411.9z
	 M411.9,282.7v2.4h4.2v-2.4H411.9z M421.1,279.5v-1.2h6v-1.4h1.2c0.4,0,0.4,0.2,0.1,0.4v1h5.9v1.2h-5.9v1.3h4.6v6h-1.3v-0.3h-3.3
	v1.3h6.8v1.2h-6.8v2.8h-1.3V289h-6.8v-1.2h6.8v-1.3h-3.3v0.4h-1.3v-6h4.6v-1.3L421.1,279.5L421.1,279.5z M423.8,283.1h3.3v-1.2h-3.3
	V283.1z M423.8,285.4h3.3v-1.2h-3.3V285.4z M428.4,283.1h3.3v-1.2h-3.3V283.1z M428.4,285.4h3.3v-1.2h-3.3V285.4z"/>
<path class="st1" d="M377.7,353.2c-1.4,0-2.6-0.5-3.7-1.6c-0.5,0.6-1.3,1.2-2.4,1.8l-0.5-1.6c0.5-0.1,1.2-0.5,2.2-1.2v-4.2h-2v-1.2
	h3.3v5.4c0.9,0.8,2,1.2,3.4,1.2h8.1l-0.3,1.4L377.7,353.2L377.7,353.2z M372.8,338.8c1.2,0.7,2,1.5,2.4,2.2l-1.1,1.2
	c-0.7-0.9-1.4-1.6-2.2-2.2L372.8,338.8L372.8,338.8z M378.6,340.5c1.1,0.3,1.8,0.5,2.1,0.6l1.2-0.9h-6v-1.2h7.5l0.3-0.2l1,0.7
	c0.3,0.2,0.1,0.4-0.3,0.4l-2.5,1.7l0.9,0.4l-0.8,0.8h2.9v7.5c0,0.6-0.3,0.9-0.9,0.9h-1.4l-0.1-1.2h0.9c0.2,0,0.3-0.1,0.3-0.3v-1.2
	H381v2.5h-1.3v-2.5h-2.4v2.8H376v-8.4h4.8c-1.8-0.7-2.9-1.2-3.3-1.2L378.6,340.5L378.6,340.5z M377.4,343.8v1.2h2.4v-1.2H377.4z
	 M379.7,346h-2.4v1.2h2.4V346z M381,343.8v1.2h2.5v-1.2H381z M383.5,346H381v1.2h2.5V346z M391.9,353.4h-1.3v-6.9
	c-0.4,0.5-1.1,1-2,1.6l-0.9-1.3c1.9-1.1,3.5-2.7,4.8-4.8l1,0.9c0.2,0.3,0.2,0.4-0.1,0.3c-0.5,0.7-1,1.4-1.6,2L391.9,353.4
	L391.9,353.4z M392.8,340c-1.4,1.7-2.6,2.8-3.7,3.5l-0.8-1.2c1.2-0.7,2.4-1.9,3.7-3.5l1,0.9C393.1,339.9,393.1,340,392.8,340
	L392.8,340L392.8,340z M393.6,345.1v-1.2h9.1v1.2H400v6.7c0,0.9-0.4,1.4-1.1,1.4h-1.8l-0.3-1.2h1.6c0.2,0,0.3-0.1,0.3-0.3v-6.5
	H393.6L393.6,345.1z M401.4,339.6v1.2h-7.1v-1.2H401.4z M408,338.6h1c0.4,0,0.4,0.2,0.1,0.4v1.3h2.3v1h-2.3v0.3
	c0.6,0.3,1.3,0.7,2.3,1.4l-0.5,1.2c-0.7-0.6-1.3-1-1.8-1.3v2.2H408V343c-0.5,0.8-1.5,1.6-2.8,2.2l-0.6-1.2c1.5-0.6,2.7-1.5,3.5-2.6
	h-2.8v-1h2.8L408,338.6L408,338.6z M405,351.9c1.4-0.6,2.5-1.4,3.5-2.3l1,1c0.2,0.3,0.1,0.4-0.3,0.3c-0.9,0.9-2,1.6-3.3,2.3
	L405,351.9z M405.2,348h13.7v1.2h-5.9v2.8c0,0.8-0.4,1.2-1,1.2h-1.6l-0.1-1.4h1c0.2,0,0.3-0.1,0.3-0.3v-2.3h-6.3L405.2,348
	L405.2,348z M407.1,347v-1.2h9.9v1.2H407.1z M411.4,344c1.4-0.7,2.4-1.6,3.2-2.7h-2.4v-1h2.4v-1.8h1c0.4,0,0.4,0.2,0.1,0.4v1.4h3v1
	h-3c1,1,2.2,1.7,3.6,2.2l-0.5,1.3c-1-0.4-2.1-1.2-3.1-2.2v2.4h-1.1V343c-0.6,0.9-1.5,1.6-2.7,2.2L411.4,344L411.4,344z M415.4,349.6
	c1,0.7,2.2,1.3,3.7,1.8l-0.8,1.3c-1.3-0.4-2.6-1.1-3.9-2.2L415.4,349.6L415.4,349.6z M430.2,339c0.4,0.1,0.5,0.3,0.1,0.5v4h4.3v1.4
	h-4.3v5.9h6v1.4h-15v-1.4h3v-8.6h1.4c0.4,0.1,0.5,0.3,0.1,0.5v8h2.9V339L430.2,339L430.2,339z"/>
<g>
	<polygon class="st2" points="233,75 242.4,71.6 233,68.2 	"/>
	<line class="st3" x1="71.5" y1="71.6" x2="237.6" y2="71.6"/>
</g>
<g>
	<polygon class="st2" points="233,184 242.4,180.6 233,177.2 	"/>
	<line class="st3" x1="71.8" y1="180.6" x2="237.6" y2="180.6"/>
</g>
<g>
	<polygon class="st2" points="233,320.1 242.4,316.7 233,313.2 	"/>
	<line class="st3" x1="71.8" y1="316.7" x2="237.6" y2="316.7"/>
</g>
<g>
	<line class="st4" x1="313.4" y1="71.6" x2="479" y2="71.6"/>
	<polygon class="st2" points="476.8,75 486.2,71.6 476.8,68.2 	"/>
	<line class="st3" x1="318" y1="71.6" x2="481.5" y2="71.6"/>
</g>
<g>
	<line class="st4" x1="313.4" y1="180.6" x2="479" y2="180.6"/>
	<polygon class="st2" points="476.8,184 486.2,180.6 476.8,177.2 	"/>
	<line class="st3" x1="318" y1="180.6" x2="481.5" y2="180.6"/>
</g>
<g>
	<line class="st4" x1="553.9" y1="180.6" x2="719.5" y2="180.6"/>
	<polygon class="st2" points="717.4,184 726.8,180.6 717.4,177.2 	"/>
	<line class="st3" x1="560.6" y1="180.6" x2="722" y2="180.6"/>
</g>
<g>
	<line class="st4" x1="313.4" y1="316.7" x2="479" y2="316.7"/>
	<polygon class="st2" points="476.8,320.1 486.2,316.7 476.8,313.2 	"/>
	<g>
		<line class="st5" x1="424.6" y1="316.7" x2="481.5" y2="316.7"/>
		<line class="st3" x1="317.9" y1="316.7" x2="392.2" y2="316.7"/>
	</g>
</g>
<path class="st6" d="M397.2,310.7L397.2,310.7c-2.6,4.9-1.8,10.9,2.2,14.9s10,4.8,14.9,2.2L397.2,310.7z M419.3,322.6
	c2.6-4.9,1.8-10.9-2.2-14.9s-10-4.8-14.9-2.2L419.3,322.6z M388.2,316.7L388.2,316.7c0-11.1,9-20.1,20.1-20.1
	c5.3,0,10.5,2.1,14.2,5.9c3.8,3.8,5.9,8.9,5.9,14.2c0,11.1-9,20.1-20.1,20.1S388.1,327.8,388.2,316.7L388.2,316.7z"/>
<path class="st0" d="M105.8,30.5c1.1,0.7,2.5,1.3,4.3,1.6l-0.5,1.3c-3.4-0.7-5.8-2.4-7-4.8h-0.2c-0.3,0.4-0.9,0.9-1.8,1.4v2l3.9-0.6
	v1c-1.5,0.3-3.6,0.7-6.5,1.2c0,0.3-0.2,0.4-0.3,0.2l-0.3-1.4l2.2-0.3v-1.6c-1.1,0.6-2.4,1.2-3.9,1.5l-0.5-1.2c2.2-0.4,4-1.2,5.6-2.3
	h-5.6v-1h6.9v-0.9h-5.6v-0.8h5.6V25h-4.4v-3.7h10.1V25h-4.5v0.8h5.6v0.8h-5.6v0.9h6.9v1h-6.2c0.4,0.6,0.8,1,1.1,1.3l2-1.2l1.1,0.6
	c0.2,0.2,0.2,0.3-0.2,0.3L105.8,30.5L105.8,30.5z M95.5,19.5h6.4v-1.2h1.2c0.3,0,0.4,0.2,0.1,0.4v0.8h6.4v1H95.5
	C95.5,20.6,95.5,19.5,95.5,19.5z M98.6,22.1v0.9h3.3v-0.9H98.6z M98.6,23.4v0.9h3.3v-0.9H98.6z M103.1,22.1v0.9h3.4v-0.9H103.1z
	 M103.1,23.4v0.9h3.4v-0.9H103.1z M118.2,23.1c-1-1.4-1.8-2.2-2.6-2.7c-0.3,0.6-0.7,1.3-1.2,2h3v1h-1.6v2h2.6v1h-2.6v4.4
	c0.7-0.2,1.4-0.4,2.2-0.5l0.2,1.1c-1.8,0.6-3.6,1-5.2,1.3c-0.3,0.5-0.4,0.5-0.5,0.2l-0.5-1.4c0.9-0.1,1.8-0.3,2.8-0.5v-4.6h-2.5v-1
	h2.5v-2h-1.1l-0.8,0.9l-0.9-1c1.2-1,2.3-2.7,3.3-5l1.2,0.6c0.3,0.2,0.2,0.4-0.2,0.4c0.9,0.5,1.8,1.3,2.9,2.4L118.2,23.1L118.2,23.1z
	 M113,30.5c-0.2-1.2-0.5-2.1-0.7-2.8l1.2-0.3c0.3,0.6,0.6,1.5,0.8,2.7L113,30.5L113,30.5z M116.5,29.8c0.2-0.8,0.4-1.7,0.6-2.7
	l1.2,0.4c0.4,0.1,0.4,0.3,0,0.4c-0.1,0.6-0.3,1.4-0.6,2.2C117.7,30.1,116.5,29.8,116.5,29.8z M118.3,31.9l1.1-0.2V19.2h6.2v6.9h-2.9
	c0.1,0.8,0.3,1.6,0.7,2.4c0.7-0.6,1.3-1.3,2-2l0.9,0.7c0.3,0.2,0.3,0.3-0.1,0.3c-0.7,0.7-1.4,1.3-2.2,1.9c0.7,1.1,1.7,2.1,2.9,2.8
	l-1,1.3c-2.5-2-3.9-4.5-4.2-7.5h-1.1v5.4c1-0.2,1.7-0.4,2.4-0.6l0.3,1.1c-1.4,0.5-2.7,0.8-3.9,1.1c-0.2,0.4-0.3,0.4-0.5,0
	L118.3,31.9L118.3,31.9z M124.5,20.3h-4V22h4V20.3z M124.5,23.1h-4v2h4C124.5,25,124.5,23.1,124.5,23.1z M137.1,20h5.9v1.2h-11.9
	v6.9c0,1.7-0.5,3.4-1.5,5l-1.3-1c1-1.5,1.5-3.2,1.5-5V20h5.8v-1.6h1.4c0.4,0.1,0.5,0.3,0.1,0.5V20L137.1,20z M137.7,26.7
	c1.2-1.4,1.9-3,2-4.8l1.3,0.3c0.3,0.1,0.3,0.2,0,0.3c-0.1,0.6-0.3,1.1-0.4,1.6c1.1,0.5,1.9,1.1,2.6,1.7l-0.9,1.3
	c-0.7-0.7-1.4-1.3-2.1-1.9c-0.4,1-0.9,1.8-1.5,2.4L137.7,26.7l0,1.3h4.5v1.2h-4.5v2.3h5.8v1.2h-12.3v-1.2h5.2v-2.3h-4V28h4v-2.2
	l-0.9,1.2c-0.6-0.6-1.2-1.1-1.7-1.5c-0.4,0.8-0.9,1.5-1.4,2.2l-1.1-1c1.2-1.2,1.9-2.8,2-4.7l1.3,0.3c0.3,0.1,0.3,0.2,0,0.3
	c-0.1,0.8-0.3,1.4-0.4,1.8c0.5,0.1,1.2,0.5,2.1,1.2v-4.1h1.2c0.4,0,0.4,0.2,0.1,0.4L137.7,26.7L137.7,26.7z M153.6,19.7
	c0.3,0.5,0.6,1,1.1,1.5l1.9-2l1.1,0.9c0.1,0.2,0,0.3-0.3,0.2l-2,1.8l0.6,0.6l2.3-2l1.1,0.9c0.2,0.2,0.1,0.3-0.3,0.2l-2.3,1.6
	c1,0.8,2.1,1.4,3.5,1.8l-0.5,1.5c-1.6-0.6-3-1.5-4.2-2.7v0.9h-5.3v-0.8c-1.2,1.2-2.6,2.1-4.2,2.8l-0.7-1.4c1.5-0.5,2.7-1.2,3.7-2
	c-0.6-0.5-1.3-0.9-2-1.3l1-1.2c0.7,0.5,1.4,1,2.1,1.6c0.6-0.6,1.3-1.4,1.8-2.2H148V19h4.5l0.3-0.5l1.1,0.7c0.3,0.2,0.2,0.3-0.2,0.3
	L153.6,19.7L153.6,19.7z M157.2,25.9v4h-1.3l-0.7,1.9h4.3V33h-13.3v-1.2h4.2l-0.6-1.9h-1.2v-4L157.2,25.9L157.2,25.9z M155.9,28.8
	v-1.9h-6.1v1.9H155.9z M155.2,23.6c-0.7-0.7-1.5-1.6-2.2-2.8c-0.5,1-1.3,2-2.3,2.8H155.2z M154.5,29.9h-3.3l0.5,1.9h2.2L154.5,29.9
	L154.5,29.9z M176.1,21.7c0.4,0.1,0.5,0.3,0.1,0.5v10.5h-1.5v-1h-10V33h-1.5V21.7h1.4c0.4,0.1,0.5,0.3,0.1,0.5v8h4.2V19h1.4
	c0.4,0.1,0.5,0.3,0.1,0.5v10.7h4.3v-8.5L176.1,21.7L176.1,21.7z M184.3,23.3c0.4,0.2,0.3,0.4-0.1,0.6c-0.8,2.8-2.1,5.3-3.8,7.5
	l-1.5-1c1.9-2.3,3.2-4.9,3.9-7.9L184.3,23.3L184.3,23.3z M189.2,21.8c2.2,2.8,3.7,5.6,4.6,8.7l-1.8,0.6c-1.1-3.4-2.5-6.2-4.2-8.2
	L189.2,21.8L189.2,21.8z M190.5,19.1c0.6,0.6,1.4,1.4,2.1,2.2l-1,0.7c-0.6-0.9-1.3-1.6-2-2.2L190.5,19.1L190.5,19.1z M192.1,18.2
	c0.6,0.5,1.3,1.2,2.1,2l-0.9,0.8c-0.8-0.9-1.5-1.6-2.1-2.1L192.1,18.2L192.1,18.2L192.1,18.2z M203.5,26c1.9,1.4,3.7,3.1,5.6,5
	l-1.3,1.1c-1.8-1.9-3.6-3.5-5.3-4.8c-1.7,1.8-3.6,3.5-5.8,4.9l-1.2-1.1c4.6-3,7.6-6,8.9-9l-7.1,0.5l-0.2-1.6l7.6-0.3l0.8-0.2l1.1,1
	c0.3,0.3,0.2,0.5-0.3,0.6C205.3,23.5,204.4,24.8,203.5,26L203.5,26L203.5,26z"/>
<path class="st0" d="M140.3,93.6v-2.9h-5.2v-1.3l5.5-7.8h1.2v7.8h1.6v1.3h-1.6v2.9H140.3z M140.3,89.3v-5.4l-3.8,5.4
	C136.6,89.4,140.3,89.4,140.3,89.3z M144.9,90.4l1.6-0.1c0.1,0.8,0.4,1.3,0.8,1.7s0.9,0.6,1.5,0.6c0.7,0,1.3-0.3,1.8-0.8
	c0.5-0.5,0.7-1.2,0.7-2.1s-0.2-1.5-0.7-2s-1.1-0.7-1.9-0.7c-0.5,0-0.9,0.1-1.3,0.3c-0.4,0.2-0.7,0.5-0.9,0.8l-1.4-0.2l1.2-6.2h6v1.4
	h-4.8l-0.6,3.2c0.7-0.5,1.5-0.8,2.3-0.8c1.1,0,1.9,0.4,2.6,1.1c0.7,0.7,1.1,1.7,1.1,2.8s-0.3,2-0.9,2.8c-0.8,1-1.8,1.5-3.1,1.5
	c-1.1,0-2-0.3-2.7-0.9S145,91.4,144.9,90.4L144.9,90.4z"/>
<path class="st0" d="M160.5,81.5c-1.1,2.3-2.7,4.3-5,6.2l-1.1-1.2c2.3-1.6,3.9-3.6,5-6.1l1.2,0.8C160.8,81.3,160.8,81.4,160.5,81.5
	L160.5,81.5L160.5,81.5z M166.4,86.6l-0.3,5.3c-0.1,1.8-0.7,2.8-1.9,2.8h-2l-0.2-1.4h1.6c0.6,0,0.9-0.4,0.9-1.1l0.3-4.2h-3.6
	l-0.1,0.5c-0.3,2.4-2,4.6-5.2,6.6l-1-1.2c2.8-1.6,4.4-3.3,4.7-5.1l0.1-0.8h-2.5v-1.2L166.4,86.6L166.4,86.6z M168.6,87.7
	c-2.4-1.4-4.2-3.7-5.3-6.9l1.2-0.5c1.1,2.8,2.7,4.8,5,6L168.6,87.7z"/>
<path class="st0" d="M113.5,100.9c0.4,0.1,0.5,0.3,0.1,0.5v2.8h4.1v-3.9h1.4c0.4,0.1,0.5,0.3,0.1,0.5v3.4h4.8v1.4h-10.4v2.1h7.4v7.3
	h-1.5v-5.9h-5.9v0.7c0,2.1-0.8,3.9-2.5,5.3l-1.1-1.1c1.5-1.1,2.2-2.6,2.2-4.4v-8.8L113.5,100.9L113.5,100.9z M133,114.8
	c-1.4,0-2.6-0.6-3.7-1.6c-0.9,0.9-1.7,1.5-2.2,1.8l-0.7-1.5l2.4-1.3V108h-2.2v-1.2h3.5v5.4c0.8,0.9,2,1.4,3.4,1.4h7.9l-0.3,1.2
	L133,114.8L133,114.8z M128.9,104c-0.6-0.8-1.3-1.7-2.2-2.6l1.1-0.8c1,0.9,1.8,1.7,2.4,2.4L128.9,104L128.9,104z M136.5,103.2
	l-0.7,1.2h3.6v8.2h-1.1v-0.5h-5.2v0.7H132v-8.4h2.6l0.5-1.2h-4.4v-1.1h2.9c-0.3-0.3-0.7-0.8-1.2-1.4l1.1-0.8
	c0.5,0.4,0.9,0.9,1.4,1.4l-1,0.7h2.6l0.9-2.2l1.4,0.3c0.2,0.2,0.1,0.3-0.2,0.3l-1,1.6h3.5v1.1L136.5,103.2L136.5,103.2z
	 M138.3,105.5h-5.2v1.2h5.2V105.5z M138.3,107.7h-5.2v1.1h5.2V107.7z M138.3,109.9h-5.2v1.2h5.2V109.9z"/>
<path class="st0" d="M148.9,113.7h-1.5v-9.4c-0.4,0.3-0.8,0.7-1.4,1c-0.6,0.3-1.1,0.6-1.6,0.8v-1.4c0.8-0.4,1.5-0.9,2.2-1.4
	c0.6-0.6,1.1-1.1,1.3-1.6h0.9L148.9,113.7L148.9,113.7z M152.7,110.5l1.6-0.1c0.1,0.8,0.4,1.3,0.8,1.7s0.9,0.6,1.5,0.6
	c0.7,0,1.3-0.3,1.8-0.8c0.5-0.5,0.7-1.2,0.7-2.1s-0.2-1.5-0.7-2s-1.1-0.7-1.9-0.7c-0.5,0-0.9,0.1-1.3,0.3c-0.4,0.2-0.7,0.5-0.9,0.8
	l-1.4-0.2l1.2-6.2h6v1.4h-4.8l-0.6,3.2c0.7-0.5,1.5-0.8,2.3-0.8c1.1,0,1.9,0.4,2.6,1.1c0.7,0.7,1.1,1.7,1.1,2.8s-0.3,2-0.9,2.8
	c-0.8,1-1.8,1.5-3.1,1.5c-1.1,0-2-0.3-2.7-0.9S152.8,111.5,152.7,110.5L152.7,110.5z M163.2,112.6c-0.8-1-1.2-2.6-1.2-4.9
	c0-1.4,0.1-2.6,0.4-3.4c0.3-0.9,0.7-1.5,1.3-2s1.3-0.7,2.2-0.7c0.6,0,1.2,0.1,1.7,0.4c0.5,0.3,0.9,0.6,1.2,1.1
	c0.3,0.5,0.6,1.1,0.7,1.8c0.2,0.7,0.3,1.6,0.3,2.8c0,1.4-0.1,2.5-0.4,3.4c-0.3,0.9-0.7,1.5-1.3,2s-1.3,0.7-2.2,0.7
	C164.7,113.9,163.8,113.5,163.2,112.6L163.2,112.6L163.2,112.6z M164.2,103.7c-0.5,0.7-0.8,2.1-0.8,4.1s0.2,3.3,0.7,3.9s1,1,1.7,1
	s1.2-0.3,1.7-1c0.5-0.7,0.7-2,0.7-3.9s-0.2-3.3-0.7-3.9s-1-1-1.7-1S164.6,103.1,164.2,103.7L164.2,103.7L164.2,103.7z M172.5,112.6
	c-0.8-1-1.2-2.6-1.2-4.9c0-1.4,0.1-2.6,0.4-3.4c0.3-0.9,0.7-1.5,1.3-2s1.3-0.7,2.2-0.7c0.6,0,1.2,0.1,1.7,0.4
	c0.5,0.3,0.9,0.6,1.2,1.1c0.3,0.5,0.6,1.1,0.7,1.8c0.2,0.7,0.3,1.6,0.3,2.8c0,1.4-0.1,2.5-0.4,3.4c-0.3,0.9-0.7,1.5-1.3,2
	s-1.3,0.7-2.2,0.7C174,113.9,173.1,113.5,172.5,112.6L172.5,112.6L172.5,112.6z M173.6,103.7c-0.5,0.7-0.8,2.1-0.8,4.1
	s0.2,3.3,0.7,3.9s1,1,1.7,1s1.2-0.3,1.7-1c0.5-0.7,0.7-2,0.7-3.9s-0.2-3.3-0.7-3.9s-1-1-1.7-1S173.9,103.1,173.6,103.7L173.6,103.7
	L173.6,103.7z"/>
<path class="st0" d="M194.5,113.5c0,0.7-0.4,1.1-1.1,1.1h-1.7l-0.4-1.4h1.4c0.2,0,0.3-0.1,0.3-0.3v-4.4h-9.6v6.2h-1.5v-13.3h12.6
	V113.5L194.5,113.5z M183.4,102.6v4.6h4.1v-4.6H183.4z M193,102.6h-4.2v4.6h4.2V102.6z"/>
<g>
	<path class="st0" d="M84.3,45.8h1.2v3.5c0.3-0.3,0.5-0.6,0.7-0.7c0.4-0.2,0.8-0.4,1.4-0.4c1,0,1.7,0.3,2,1c0.2,0.4,0.3,0.9,0.3,1.6
		v4.4h-1.2V51c0-0.5-0.1-0.9-0.2-1.1c-0.2-0.4-0.6-0.6-1.2-0.6c-0.5,0-0.9,0.2-1.3,0.5s-0.6,1-0.6,1.9v3.6h-1.2L84.3,45.8L84.3,45.8
		z"/>
	<path class="st0" d="M91.8,46.5h1.2v1.9H94v0.9h-1.1v4.5c0,0.2,0.1,0.4,0.2,0.5c0.1,0,0.2,0.1,0.4,0.1c0.1,0,0.1,0,0.2,0
		s0.1,0,0.2,0v0.9c-0.1,0-0.3,0.1-0.4,0.1s-0.3,0-0.5,0c-0.5,0-0.9-0.1-1.1-0.4c-0.2-0.3-0.3-0.6-0.3-1.1v-4.5h-0.9v-0.9h0.9V46.5z"
		/>
	<path class="st0" d="M95.4,46.5h1.2v1.9h1.1v0.9h-1.1v4.5c0,0.2,0.1,0.4,0.2,0.5c0.1,0,0.2,0.1,0.4,0.1c0.1,0,0.1,0,0.2,0
		s0.1,0,0.2,0v0.9c-0.1,0-0.3,0.1-0.4,0.1s-0.3,0-0.5,0c-0.5,0-0.9-0.1-1.1-0.4c-0.2-0.3-0.3-0.6-0.3-1.1v-4.5h-0.9v-0.9h0.9V46.5z"
		/>
	<path class="st0" d="M98.7,48.5h1.1v0.9c0.2-0.3,0.5-0.5,0.8-0.7c0.4-0.3,0.8-0.4,1.4-0.4c0.8,0,1.4,0.3,2,0.9s0.8,1.4,0.8,2.5
		c0,1.5-0.4,2.5-1.2,3.2c-0.5,0.4-1.1,0.6-1.7,0.6c-0.5,0-0.9-0.1-1.3-0.3c-0.2-0.1-0.4-0.3-0.7-0.7V58h-1.2V48.5z M103,53.8
		c0.4-0.5,0.5-1.1,0.5-2c0-0.5-0.1-1-0.2-1.4c-0.3-0.8-0.8-1.1-1.6-1.1s-1.3,0.4-1.6,1.2c-0.2,0.4-0.2,1-0.2,1.6
		c0,0.5,0.1,1,0.2,1.3c0.3,0.7,0.8,1.1,1.6,1.1C102.2,54.5,102.7,54.3,103,53.8L103,53.8z"/>
	<path class="st0" d="M106.8,53.1c0,0.4,0.1,0.7,0.3,0.9c0.3,0.4,0.8,0.6,1.5,0.6c0.4,0,0.8-0.1,1.2-0.3s0.5-0.5,0.5-0.9
		c0-0.3-0.1-0.5-0.4-0.7c-0.2-0.1-0.5-0.2-1-0.3l-0.9-0.2c-0.6-0.1-1-0.3-1.3-0.5c-0.5-0.3-0.8-0.7-0.8-1.3c0-0.7,0.2-1.2,0.7-1.6
		s1.1-0.6,1.9-0.6c1,0,1.8,0.3,2.3,0.9c0.3,0.4,0.4,0.8,0.4,1.2h-1.1c0-0.3-0.1-0.5-0.3-0.7c-0.3-0.3-0.7-0.5-1.4-0.5
		c-0.4,0-0.8,0.1-1,0.2s-0.3,0.4-0.3,0.7c0,0.3,0.2,0.5,0.4,0.7c0.2,0.1,0.4,0.2,0.8,0.3l0.8,0.2c0.8,0.2,1.4,0.4,1.7,0.6
		c0.4,0.3,0.7,0.8,0.7,1.4s-0.2,1.1-0.7,1.6c-0.5,0.4-1.2,0.7-2.1,0.7c-1,0-1.8-0.2-2.2-0.7s-0.7-1-0.7-1.7L106.8,53.1L106.8,53.1z"
		/>
	<path class="st0" d="M113.2,48.5h1.3v1.4h-1.3V48.5z M113.2,53.9h1.3v1.4h-1.3V53.9z"/>
	<path class="st0" d="M118.4,45.9h1l-3,9.4h-1L118.4,45.9z"/>
	<path class="st0" d="M122,45.9h1l-3,9.4h-1L122,45.9z"/>
	<path class="st0" d="M124.7,48.4V53c0,0.3,0.1,0.6,0.2,0.9c0.2,0.4,0.6,0.6,1.1,0.6c0.8,0,1.3-0.4,1.6-1.1c0.2-0.4,0.2-0.9,0.2-1.6
		v-3.4h1.1v6.8h-1.1v-1c-0.1,0.3-0.3,0.5-0.5,0.7c-0.4,0.4-0.9,0.5-1.6,0.5c-1,0-1.6-0.3-1.9-1c-0.2-0.3-0.3-0.8-0.3-1.4v-4.7H124.7
		z"/>
	<path class="st0" d="M130.8,48.4h1.1v1.2c0.1-0.2,0.3-0.5,0.7-0.8s0.8-0.5,1.2-0.5c0,0,0.1,0,0.1,0s0.1,0,0.3,0v1.2
		c-0.1,0-0.1,0-0.2,0c-0.1,0-0.1,0-0.2,0c-0.6,0-1,0.2-1.3,0.6c-0.3,0.4-0.5,0.8-0.5,1.3v3.9h-1.1V48.4L130.8,48.4z"/>
	<path class="st0" d="M138.8,51.1c0.3,0,0.4-0.1,0.5-0.3c0.1-0.1,0.1-0.2,0.1-0.4c0-0.4-0.1-0.7-0.4-0.9s-0.7-0.3-1.2-0.3
		c-0.6,0-1,0.2-1.3,0.5c-0.1,0.2-0.2,0.5-0.3,0.8h-1.1c0-0.8,0.3-1.4,0.8-1.8c0.5-0.3,1.1-0.5,1.8-0.5c0.8,0,1.5,0.2,2,0.5
		c0.5,0.3,0.8,0.8,0.8,1.4v3.9c0,0.1,0,0.2,0.1,0.3s0.1,0.1,0.3,0.1c0.1,0,0.1,0,0.2,0s0.1,0,0.2,0v0.8c-0.2,0-0.3,0.1-0.4,0.1
		c-0.1,0-0.2,0-0.4,0c-0.4,0-0.7-0.1-0.9-0.4c-0.1-0.2-0.2-0.4-0.2-0.6c-0.2,0.3-0.6,0.6-1,0.8s-0.9,0.3-1.4,0.3
		c-0.6,0-1.1-0.2-1.6-0.6c-0.4-0.4-0.6-0.9-0.6-1.4c0-0.6,0.2-1.1,0.6-1.5c0.4-0.3,0.9-0.6,1.6-0.6L138.8,51.1L138.8,51.1z
		 M136.4,54.2c0.2,0.2,0.5,0.3,0.9,0.3c0.4,0,0.8-0.1,1.2-0.3c0.6-0.3,1-0.8,1-1.5v-0.9c-0.1,0.1-0.3,0.2-0.5,0.2
		c-0.2,0.1-0.4,0.1-0.6,0.1l-0.7,0.1c-0.4,0.1-0.7,0.1-0.9,0.3c-0.4,0.2-0.5,0.5-0.5,1C136,53.8,136.1,54,136.4,54.2L136.4,54.2z"/>
	<path class="st0" d="M146.2,48.7c0.2,0.2,0.4,0.4,0.7,0.7v-0.9h1.1v6.2c0,0.9-0.1,1.5-0.4,2.1c-0.5,0.9-1.4,1.4-2.7,1.4
		c-0.7,0-1.4-0.2-1.9-0.5c-0.5-0.3-0.8-0.8-0.8-1.5h1.2c0.1,0.3,0.2,0.5,0.3,0.7c0.3,0.3,0.7,0.4,1.2,0.4c0.9,0,1.4-0.3,1.7-0.9
		c0.2-0.4,0.2-1,0.2-2c-0.2,0.3-0.5,0.6-0.8,0.8c-0.3,0.2-0.8,0.3-1.3,0.3c-0.7,0-1.4-0.3-1.9-0.8c-0.6-0.5-0.8-1.4-0.8-2.6
		c0-1.1,0.3-2,0.8-2.7s1.2-1,2-1C145.3,48.3,145.8,48.5,146.2,48.7L146.2,48.7z M146.3,49.9c-0.4-0.4-0.8-0.6-1.3-0.6
		c-0.8,0-1.4,0.4-1.6,1.1c-0.2,0.4-0.2,0.9-0.2,1.6c0,0.8,0.2,1.4,0.5,1.8c0.3,0.4,0.7,0.6,1.2,0.6c0.8,0,1.4-0.4,1.7-1.1
		c0.2-0.4,0.3-0.9,0.3-1.5C146.9,51,146.7,50.3,146.3,49.9L146.3,49.9z"/>
	<path class="st0" d="M149.7,45.9h1.2v1.3h-1.2V45.9z M149.7,48.5h1.2v6.8h-1.2V48.5z"/>
	<path class="st0" d="M152.6,48.4h1.1v1c0.3-0.4,0.7-0.7,1-0.9c0.4-0.2,0.8-0.3,1.2-0.3c1,0,1.6,0.3,2,1c0.2,0.4,0.3,0.9,0.3,1.6
		v4.4H157V51c0-0.4-0.1-0.8-0.2-1c-0.2-0.4-0.6-0.6-1.1-0.6c-0.3,0-0.5,0-0.7,0.1c-0.3,0.1-0.6,0.3-0.8,0.6
		c-0.2,0.2-0.3,0.5-0.4,0.7c-0.1,0.2-0.1,0.6-0.1,1v3.6h-1.1L152.6,48.4L152.6,48.4z"/>
	<path class="st0" d="M159.3,54.3l4.1-4.9h-3.8v-1h5.3v0.9l-4,4.9h4.1v1h-5.7L159.3,54.3L159.3,54.3z"/>
	<path class="st0" d="M170,51.1c0.3,0,0.4-0.1,0.5-0.3c0.1-0.1,0.1-0.2,0.1-0.4c0-0.4-0.1-0.7-0.4-0.9s-0.7-0.3-1.2-0.3
		c-0.6,0-1,0.2-1.3,0.5c-0.1,0.2-0.2,0.5-0.3,0.8h-1.1c0-0.8,0.3-1.4,0.8-1.8c0.5-0.3,1.1-0.5,1.8-0.5c0.8,0,1.5,0.2,2,0.5
		c0.5,0.3,0.8,0.8,0.8,1.4v3.9c0,0.1,0,0.2,0.1,0.3s0.1,0.1,0.3,0.1c0.1,0,0.1,0,0.2,0s0.1,0,0.2,0v0.8c-0.2,0-0.3,0.1-0.4,0.1
		c-0.1,0-0.2,0-0.4,0c-0.4,0-0.7-0.1-0.9-0.4c-0.1-0.2-0.2-0.4-0.2-0.6c-0.2,0.3-0.6,0.6-1,0.8s-0.9,0.3-1.4,0.3
		c-0.6,0-1.1-0.2-1.6-0.6c-0.4-0.4-0.6-0.9-0.6-1.4c0-0.6,0.2-1.1,0.6-1.5c0.4-0.3,0.9-0.6,1.6-0.6L170,51.1L170,51.1z M167.6,54.2
		c0.2,0.2,0.5,0.3,0.9,0.3c0.4,0,0.8-0.1,1.2-0.3c0.6-0.3,1-0.8,1-1.5v-0.9c-0.1,0.1-0.3,0.2-0.5,0.2c-0.2,0.1-0.4,0.1-0.6,0.1
		l-0.7,0.1c-0.4,0.1-0.7,0.1-0.9,0.3c-0.4,0.2-0.5,0.5-0.5,1C167.3,53.8,167.4,54,167.6,54.2L167.6,54.2z"/>
	<path class="st0" d="M173.6,45.8h1.1v3.4c0.2-0.3,0.6-0.6,0.9-0.8c0.4-0.2,0.7-0.3,1.1-0.3c0.9,0,1.6,0.3,2.1,0.9
		c0.5,0.6,0.8,1.5,0.8,2.6c0,1.1-0.3,2-0.8,2.7s-1.2,1.1-2.2,1.1c-0.5,0-1-0.1-1.3-0.4c-0.2-0.2-0.4-0.4-0.7-0.7v0.9h-1.1
		L173.6,45.8L173.6,45.8z M177.9,53.7c0.3-0.5,0.5-1.1,0.5-2c0-0.7-0.1-1.3-0.5-1.8s-0.8-0.7-1.4-0.7c-0.5,0-1,0.2-1.4,0.6
		c-0.4,0.4-0.6,1-0.6,1.9c0,0.6,0.1,1.2,0.2,1.6c0.3,0.8,0.9,1.1,1.7,1.1C177.2,54.5,177.6,54.2,177.9,53.7z"/>
	<path class="st0" d="M182.1,48.4V53c0,0.3,0.1,0.6,0.2,0.9c0.2,0.4,0.6,0.6,1.1,0.6c0.8,0,1.3-0.4,1.6-1.1c0.1-0.4,0.2-0.9,0.2-1.6
		v-3.4h1.1v6.8h-1.1v-1c-0.1,0.3-0.3,0.5-0.5,0.7c-0.4,0.4-0.9,0.5-1.6,0.5c-1,0-1.6-0.3-1.9-1c-0.2-0.3-0.3-0.8-0.3-1.4v-4.7H182.1
		L182.1,48.4z"/>
	<path class="st0" d="M188.9,53.1c0,0.4,0.1,0.7,0.3,0.9c0.3,0.4,0.8,0.6,1.5,0.6c0.4,0,0.8-0.1,1.1-0.3s0.5-0.5,0.5-0.9
		c0-0.3-0.1-0.5-0.4-0.7c-0.2-0.1-0.5-0.2-1-0.3l-0.9-0.2c-0.6-0.1-1-0.3-1.3-0.5c-0.5-0.3-0.8-0.7-0.8-1.3c0-0.7,0.2-1.2,0.7-1.6
		s1.1-0.6,1.9-0.6c1,0,1.8,0.3,2.3,0.9c0.3,0.4,0.4,0.8,0.4,1.2h-1.1c0-0.3-0.1-0.5-0.3-0.7c-0.3-0.3-0.7-0.5-1.4-0.5
		c-0.4,0-0.8,0.1-1,0.2s-0.3,0.4-0.3,0.7c0,0.3,0.1,0.5,0.4,0.7c0.2,0.1,0.4,0.2,0.8,0.3l0.8,0.2c0.8,0.2,1.4,0.4,1.7,0.6
		c0.4,0.3,0.7,0.8,0.7,1.4s-0.2,1.1-0.7,1.6c-0.5,0.4-1.2,0.7-2.1,0.7c-1,0-1.8-0.2-2.2-0.7c-0.4-0.5-0.7-1-0.7-1.7L188.9,53.1
		L188.9,53.1z"/>
	<path class="st0" d="M195,53.9h1.3v1.4H195V53.9z"/>
	<path class="st0" d="M202.9,48.8c0.5,0.4,0.8,1,0.9,1.9h-1.1c-0.1-0.4-0.2-0.8-0.5-1s-0.6-0.4-1.2-0.4c-0.7,0-1.3,0.4-1.6,1.1
		c-0.2,0.5-0.3,1-0.3,1.7s0.1,1.3,0.4,1.7s0.7,0.7,1.4,0.7c0.5,0,0.9-0.2,1.1-0.4s0.5-0.7,0.6-1.2h1.1c-0.1,0.9-0.4,1.6-1,2
		c-0.5,0.4-1.2,0.6-2,0.6c-0.9,0-1.6-0.3-2.1-1c-0.5-0.7-0.8-1.5-0.8-2.5c0-1.2,0.3-2.1,0.9-2.8s1.3-1,2.2-1
		C201.7,48.2,202.4,48.4,202.9,48.8L202.9,48.8z"/>
	<path class="st0" d="M209.8,49.1c0.6,0.6,0.9,1.5,0.9,2.6s-0.3,2-0.8,2.7s-1.4,1.1-2.5,1.1c-0.9,0-1.7-0.3-2.2-1s-0.8-1.5-0.8-2.6
		c0-1.2,0.3-2.1,0.9-2.7s1.4-1,2.3-1C208.5,48.2,209.2,48.5,209.8,49.1L209.8,49.1z M209.1,53.6c0.3-0.6,0.4-1.2,0.4-1.9
		c0-0.6-0.1-1.2-0.3-1.6c-0.3-0.6-0.9-0.9-1.6-0.9c-0.7,0-1.2,0.3-1.5,0.8s-0.5,1.2-0.5,1.9s0.2,1.3,0.5,1.8s0.8,0.7,1.5,0.7
		C208.3,54.5,208.9,54.2,209.1,53.6L209.1,53.6z"/>
	<path class="st0" d="M212.2,48.4h1.1v1c0.3-0.3,0.5-0.6,0.7-0.7c0.4-0.3,0.8-0.4,1.3-0.4c0.5,0,1,0.1,1.3,0.4
		c0.2,0.2,0.4,0.4,0.5,0.7c0.3-0.4,0.6-0.6,0.9-0.8s0.7-0.3,1.2-0.3c0.9,0,1.5,0.3,1.9,1c0.2,0.4,0.3,0.8,0.3,1.4v4.5h-1.2v-4.8
		c0-0.5-0.1-0.8-0.3-0.9s-0.5-0.3-0.8-0.3c-0.4,0-0.8,0.2-1.2,0.5c-0.3,0.3-0.5,0.8-0.5,1.5v4h-1.2v-4.5c0-0.5-0.1-0.8-0.2-1
		c-0.2-0.3-0.5-0.5-1-0.5c-0.4,0-0.8,0.2-1.2,0.5c-0.4,0.3-0.5,0.9-0.5,1.8v3.6h-1.1L212.2,48.4L212.2,48.4z"/>
	<path class="st0" d="M225.2,45.9h1l-3,9.4h-1L225.2,45.9z"/>
</g>
<path class="st0" d="M70.4,2.4v380.7h-68V2.4H70.4 M72.8,0H0v385.5h72.8L72.8,0L72.8,0L72.8,0z"/>
<g>
	<path class="st0" d="M28.5,148c-0.5,0.6-0.7,0.9-1,1.3l-1.1-2.4c1.6-1.9,2.8-5.1,3.3-8.6l2.2,0.3c-0.2,0.9-0.5,2.8-1.3,5.2v13.8
		h-2.1L28.5,148L28.5,148z M46.1,141.7v2H31.6v-2H46.1z M45.2,150.6v7h-2.1v-0.9h-8.3v0.9h-2.1v-7H45.2L45.2,150.6z M44.9,144.7v1.9
		H33.1v-1.9H44.9z M44.9,147.7v1.9H33.1v-1.9H44.9z M44.6,138.8v1.9H33.3v-1.9H44.6z M34.8,152.5v2.4h8.3v-2.4H34.8z"/>
	<path class="st0" d="M31,172.8c-0.5,1.2-1.8,4.7-3,6.7l-1.7-1.8c0.5-0.7,2.1-3.2,3-6L31,172.8L31,172.8z M27.5,166.1
		c1.2,0.6,2.2,1.2,3.2,2l-1.2,1.7c-1-0.8-2-1.5-3.1-2.1L27.5,166.1L27.5,166.1z M28.5,160.6c0.5,0.3,1.9,1,3.2,1.9l-1.3,1.8
		c-0.8-0.7-2.2-1.6-3.1-2L28.5,160.6L28.5,160.6z M33.4,177.8c0.3,0,1.5-0.1,1.6-0.1v-3.6h-1.3c-0.4,3-1.2,4.3-2.1,5.5l-1.6-1.3
		c1.1-1.6,1.9-3.1,1.9-7.5v-2.5H46v1.5H33.8v2.7H46v1.5h-5.8c0.4,0.5,0.8,1,1.6,1.6c0.7-0.6,1.4-1.3,1.7-1.5l1.7,1
		c-1,0.8-1.8,1.4-1.9,1.4c1.3,0.6,2.3,0.9,3.1,1.1l-1,1.9c-3.5-1.1-6.2-3.2-7.3-5.5h-1.3v3.5c1.9-0.1,2.8-0.3,3.5-0.4v1.6
		c-2.3,0.4-5.2,0.6-7,0.8L33.4,177.8L33.4,177.8z M45.4,161.5v6.1H32.2v-6.1H36v-1.1h1.7v1.1h2.1v-1.1h1.7v1.1H45.4L45.4,161.5z
		 M33.9,162.9v1H36v-1H33.9z M33.9,165.2v1H36v-1H33.9z M44.8,170.6v1.2H34.6v-1.2C34.6,170.6,44.8,170.6,44.8,170.6z M37.7,162.9v1
		h2.1v-1H37.7z M37.7,165.2v1h2.1v-1H37.7z M41.5,162.9v1h2.2v-1H41.5z M41.5,165.2v1h2.2v-1H41.5z"/>
	<path class="st0" d="M26.4,199.3c6.1-2.3,8-7.4,8.5-9.9h-8.1v-2.2h8.3v-4.9h2.3v4.9h8.5v2.2h-8.1c0.8,4.4,3.3,8.4,8.6,9.9l-1.5,2.2
		c-6.2-2.8-7.8-6.7-8.5-9.1c-1.4,3.7-4.4,7.5-8.5,9L26.4,199.3L26.4,199.3z"/>
	<path class="st0" d="M27.3,205.2h9.9v15.8h-7.9v1.7h-2L27.3,205.2L27.3,205.2z M29.3,207.1v4.8h2v-4.8H29.3z M29.3,213.8v5.2h2
		v-5.2H29.3z M33.2,207.1v4.8h2.2v-4.8H33.2z M33.2,213.8v5.2h2.2v-5.2H33.2z M41.8,208.7H38v-2.2h8v2.2h-2v13.2
		c0,1-0.5,1.7-1.5,1.7h-4.2l-0.4-2.1h3.4c0.4,0,0.5-0.2,0.5-0.5L41.8,208.7L41.8,208.7z"/>
	<path class="st0" d="M28.2,239.3c0,0.9-0.1,3.5-0.6,5.2l-1.2-0.6c0.5-1.8,0.6-3.6,0.6-4.6L28.2,239.3L28.2,239.3z M34.9,244.1
		c-0.2,0.5-0.6,1.6-2.3,1.6h-2.5l-0.3-1.8h2.4c0.4,0,0.7,0,1-0.6c0.3-0.6,0.7-2.9,0.7-5.1h-6.5v-11h8.6v1.7H33v1.5h2.4v1.5H33v1.6
		h2.4v1.5H33v1.7h2.7c0,1.9-0.2,5.7-0.8,7.4c2-2.7,2-5.9,2-7.4v-9.4h8.4v8.9h-2.8c0.1,2.1,1.3,5,3.6,7.6l-1.3,2
		c-1.5-1.5-3.7-5-4.2-9.6H39v0.6c0,2.8-0.6,5.1-0.7,5.6c-0.5,1.6-1.4,2.8-1.9,3.5L34.9,244.1L34.9,244.1z M29.8,239.3
		c0.1,1.6,0.1,1.8,0.2,3.7l-1.2,0.1c0.1-0.8,0.1-1.6,0.1-2.4c0-0.8,0-1-0.1-1.5H29.8L29.8,239.3z M29.2,228.7v1.5h2v-1.5H29.2z
		 M29.2,231.7v1.6h2v-1.6H29.2z M29.2,234.8v1.7h2v-1.7H29.2z M31.4,239.2c0.2,1.1,0.3,2,0.3,3.5l-1,0.2c0-0.8,0-1.9-0.3-3.5
		L31.4,239.2z M32.7,239c0.2,0.9,0.3,1.8,0.4,2.8l-0.9,0.1c0-0.6,0-1.5-0.3-2.8L32.7,239L32.7,239z M39,229.1v4.9h4.4v-4.9H39z"/>
</g>
<g>
	<path class="st0" d="M275.5,104.3v-6.1h2.1v5.8l11.8-1.9l0.2,2.1l-12,2v7.8c0,0.6,0.4,0.7,0.8,0.7h6.5c1.4,0,1.6,0,1.9-3.7l2.2,0.6
		c-0.6,4.1-1.1,5.2-3.2,5.2h-8.1c-1.4,0-2.1-1-2.1-2v-8.2l-4.6,0.7l-0.3-2.1L275.5,104.3L275.5,104.3z"/>
	<path class="st0" d="M275.4,124.6c-1.9,1-3.3,1.4-4.2,1.7l-0.8-2.1c2.2-0.4,6.5-2,8.5-4.3h2.4c1.2,1.2,4.4,3.4,8.6,4.4l-0.9,1.9
		c-0.6-0.2-1.7-0.5-4.3-1.7v0.7h-9.4L275.4,124.6L275.4,124.6z M272.8,126.1h14.5v6.3h-12.5c-0.1,1.7-0.6,4.5-2.3,6.9l-1.7-1.4
		c1.1-1.5,2-4.4,2-6.7L272.8,126.1L272.8,126.1z M274.9,127.6v1h10.5v-1C285.3,127.6,274.9,127.6,274.9,127.6z M274.9,129.8v1h10.5
		v-1H274.9z M288.4,133.4v5.8h-2.1v-0.6h-8.9v0.6h-2v-5.8H288.4L288.4,133.4z M283.5,123.8c-2.5-1.5-3-2-3.4-2.4
		c-0.6,0.6-1.4,1.3-3.2,2.4H283.5z M277.5,135v1.9h8.9V135H277.5z"/>
	<path class="st0" d="M273.5,145.5v12.1h5.6V142h2.2v15.6h5.6v-12.1h2.2v15.7h-2.2v-1.5h-13.4v1.5h-2.2v-15.7H273.5L273.5,145.5z"/>
	<path class="st0" d="M274.5,169.5h2v13.7h-2v-4c-0.6,0.4-3.2,1.7-3.7,1.9l-0.6-2.5c1.5-0.4,3.2-1.2,4.3-1.7L274.5,169.5
		L274.5,169.5z M275.4,164h2.1v1.6h5.4V164h2.1v1.6h4.8v2H285v1.5h-2.1v-1.5h-5.4v1.5h-2.1v-1.5h-4.8v-2h4.8V164z M272.6,169.8
		c0.4,0.8,1.1,2.5,1.4,4.1l-2,0.6c-0.4-2.1-0.9-3.4-1.2-4.1L272.6,169.8L272.6,169.8z M277.1,172.8h5.2v-3.3h2.1v3.3h5.3v2.1h-5.3
		v5.4h4.9v2.1h-11.6v-2.1h4.6v-5.4h-5.2L277.1,172.8L277.1,172.8z"/>
	<path class="st0" d="M275.5,208.9v-6.1h2.1v5.8l11.8-1.9l0.2,2.1l-12,2v7.8c0,0.6,0.4,0.7,0.8,0.7h6.5c1.4,0,1.6,0,1.9-3.7l2.2,0.6
		c-0.6,4.1-1.1,5.2-3.2,5.2h-8.1c-1.4,0-2.1-1-2.1-2v-8.2l-4.6,0.7l-0.3-2.1L275.5,208.9L275.5,208.9z"/>
	<path class="st0" d="M275.4,229.3c-1.9,1-3.3,1.4-4.2,1.7l-0.8-2.1c2.2-0.4,6.5-2,8.5-4.3h2.4c1.2,1.2,4.4,3.4,8.6,4.4l-0.9,1.9
		c-0.6-0.2-1.7-0.5-4.3-1.7v0.7h-9.4L275.4,229.3L275.4,229.3z M272.8,230.8h14.5v6.3h-12.5c-0.1,1.7-0.6,4.5-2.3,6.9l-1.7-1.4
		c1.1-1.5,2-4.4,2-6.7L272.8,230.8L272.8,230.8z M274.9,232.2v1h10.5v-1H274.9z M274.9,234.5v1h10.5v-1H274.9z M288.4,238.1v5.8
		h-2.1v-0.6h-8.9v0.6h-2v-5.8H288.4L288.4,238.1z M283.5,228.5c-2.5-1.5-3-2-3.4-2.4c-0.6,0.6-1.4,1.3-3.2,2.4H283.5z M277.5,239.6
		v1.9h8.9v-1.9H277.5z"/>
	<path class="st0" d="M277.7,254.1c2.7,1.1,4.8,2.8,5,3c1.6-2,2.2-4.3,2.5-5.2H278c-2.2,2.9-4.3,4.2-5.2,4.8l-1.6-1.7
		c1.5-0.8,4.9-2.8,6.8-8l2.5,0.4c-0.4,0.8-0.7,1.5-1.2,2.5h8.7c-0.6,3.5-2.4,12.2-14.4,15l-1.2-2c3.2-0.6,6.3-1.8,8.7-4
		c-2.7-2.2-4-2.8-4.8-3.1L277.7,254.1L277.7,254.1z M285.1,249.5c-0.2-0.7-0.3-1.2-1-2.9l1.7-0.3c0.5,0.9,0.6,1.4,1.1,2.8
		L285.1,249.5L285.1,249.5z M288.1,249.4c-0.2-0.9-0.7-2.2-1.1-2.9l1.7-0.3c0.5,1,0.6,1.5,1.1,2.9L288.1,249.4L288.1,249.4z"/>
	<path class="st0" d="M284.2,275.5c2.2,2.9,4,6.7,5.1,9.4l-2.4,1c-0.3-0.7-0.4-1.1-0.8-2c-7.9,0.8-8.7,0.8-14.5,1.1l-0.3-2.5
		c0.5,0,1.5,0,2,0c2.3-6.1,3.2-9.6,4.3-14.3l2.6,0.3c-1.3,5-3.3,10.8-4.5,13.9c3.2-0.1,3.8-0.1,9.5-0.5c-1.9-3.9-2.6-4.8-3.1-5.5
		L284.2,275.5L284.2,275.5z"/>
</g>
<g>
	<path class="st0" d="M523.1,128.3h2.2v1.4h8.5v1.8h-19.3v-1.8h8.6L523.1,128.3L523.1,128.3z M528.9,145.6h1.4
		c0.3,0,0.5-0.1,0.5-0.5v-5.4h-13.4v7.9h-2.2V138H533v7.9c0,1-0.4,1.7-1.2,1.7h-3.3l-0.3-1.8h-8.7v-4.9h9.5L528.9,145.6L528.9,145.6
		z M531,132.3v4.6h-13.7v-4.6H531z M519.4,133.9v1.5h9.5v-1.5H519.4z M521.4,142.3v1.8h5.5v-1.8H521.4z"/>
	<path class="st0" d="M515.3,155.7c0.9,0.5,1.6,0.9,2.7,1.7l-1.3,1.8c-0.7-0.6-2-1.5-2.5-1.8L515.3,155.7L515.3,155.7z M518.2,162
		c-0.2,1.3-1.1,5.5-2.2,7.5l-1.8-1.2c0.9-2,1.8-4.9,2.1-7L518.2,162L518.2,162z M515.6,150.4c1.3,0.8,2.5,1.7,2.8,1.9L517,154
		c-0.8-0.8-1.7-1.5-2.5-2.1L515.6,150.4L515.6,150.4z M526.4,152.9v1h-3.1v1.3h2.8v6.4h-2.4c0.2,0.4,1.2,1.7,3,3.2l-1.2,1.6
		c-1.1-1.2-1.6-1.8-2.2-3.1v6.2h-1.9v-6.1c-0.8,2.3-1.8,3.7-2.9,5l-1.2-1.7c2.2-2.2,3.4-4.6,3.6-5.1h-2.2v-6.4h2.8v-1.3h-3v-1.8h3
		v-1.7h1.9v1.7h3.1V151h7.4v1.9H531c-0.1,0.5-0.2,0.7-0.4,1.2h2.6v11.6H527v-11.6h1.9c0.1-0.4,0.2-1.1,0.3-1.2L526.4,152.9
		L526.4,152.9z M520.2,156.8v3.2h1.2v-3.2H520.2z M523.3,156.8v3.2h1.2v-3.2H523.3z M529.4,166.8c-1.1,1.4-2.5,2.4-3.1,2.8l-1.4-1.5
		c0.5-0.3,1.7-1,3-2.4L529.4,166.8z M528.8,155.9v1.5h2.5v-1.5H528.8z M528.8,159.1v1.5h2.5v-1.5H528.8z M528.8,162.2v1.7h2.5v-1.7
		H528.8z M532.9,169.5c-1.5-0.9-2.4-2.2-2.7-2.7l1.5-1c0.6,0.9,1.5,1.7,2.4,2.2L532.9,169.5L532.9,169.5z"/>
	<path class="st0" d="M521.7,179.8c2.7,1.1,4.8,2.8,5,2.9c1.6-2,2.2-4.3,2.5-5.2h-7.3c-2.2,2.9-4.3,4.2-5.2,4.8l-1.6-1.7
		c1.5-0.8,4.9-2.8,6.8-8l2.5,0.4c-0.3,0.8-0.7,1.5-1.2,2.5h8.7c-0.6,3.5-2.4,12.2-14.4,15l-1.2-2c3.2-0.6,6.3-1.8,8.7-4
		c-2.7-2.2-4-2.8-4.8-3.1L521.7,179.8L521.7,179.8z M529.1,175.1c-0.2-0.7-0.3-1.2-1-2.9l1.7-0.3c0.5,0.9,0.6,1.4,1.1,2.8
		L529.1,175.1L529.1,175.1z M532.1,175.1c-0.2-0.9-0.7-2.2-1.1-2.9l1.7-0.3c0.5,1,0.7,1.5,1.1,2.9L532.1,175.1L532.1,175.1z"/>
	<path class="st0" d="M528.2,201.2c2.2,2.9,4,6.7,5.1,9.4l-2.4,1c-0.3-0.7-0.4-1.1-0.8-2c-7.9,0.8-8.7,0.8-14.5,1.1l-0.3-2.5
		c0.5,0,1.5,0,2,0c2.3-6.1,3.2-9.6,4.3-14.3l2.6,0.3c-1.3,5-3.3,10.8-4.5,13.9c3.2-0.1,3.8-0.1,9.5-0.5c-1.9-3.9-2.6-4.8-3.1-5.5
		L528.2,201.2L528.2,201.2z"/>
	<path class="st0" d="M514.5,228.9c0.6-0.2,1.2-0.3,2.2-0.7v-6.8h-2.1v-2h2.1v-4.8h2v4.8h1.4v2h-1.4v6.1c0.3-0.1,0.5-0.2,1.3-0.5
		l0.1,1.9c-1.4,0.7-4.3,1.8-5.4,2.2L514.5,228.9z M519.9,215.1h13.7v1.7h-10.7V231h10.8v1.7h-10.8v0.8H521v-16.8h-1.1V215.1z
		 M526.2,224.3c0.2-0.4,0.3-0.5,0.4-1h-2.7v-5.9h8.9v5.9h-4.3c-0.1,0.3-0.2,0.5-0.5,1h5.6v1.6H532c-0.3,0.6-0.7,1.5-1.5,2.3
		c1,0.5,1.7,0.9,2.3,1.2l-1.2,1.5c-0.7-0.4-1.6-1-2.6-1.5c-1.1,0.5-2.4,1-5.1,1.3l-0.4-1.7c0.8,0,1.9-0.1,3.4-0.6
		c-1.2-0.4-2.1-0.7-2.9-0.9c0.4-0.4,0.5-0.6,1.2-1.7h-2v-1.6L526.2,224.3L526.2,224.3z M525.7,218.9v1h5.3v-1H525.7z M525.7,221v1
		h5.3v-1H525.7z M527.2,225.9c-0.1,0.1-0.5,0.8-0.6,0.9c0.5,0.1,1.2,0.3,2.3,0.7c0.7-0.6,1-1.1,1.3-1.6H527.2L527.2,225.9z"/>
	<path class="st0" d="M514.4,250.9c0.6-0.1,1.2-0.3,2.5-0.7v-6.8h-2.4v-2h2.4v-4.9h2v4.9h1.9v2h-1.9v6.1c1-0.4,1.3-0.5,1.7-0.7
		l0.2,1.8c-1.5,0.8-4.2,1.9-6.2,2.5L514.4,250.9z M524.5,247.7c-0.1,0.6-0.2,1.3-0.4,2.3c0.2,0.4,0.9,1.9,2.2,2.6v-5.8h-5.4v-1.9
		h12.9v1.9h-5.4v2.1h4.5v1.8h-4.5v2.5c0.4,0,0.5,0,1.8,0h3.9l-0.4,2h-3.8c-2.9,0-4.7-0.5-6.5-3.2c-1,2.2-2.3,3.1-3,3.6l-1.5-1.7
		c1-0.6,3.1-1.8,3.7-6.5L524.5,247.7L524.5,247.7z M521.6,237h11.5v6.8h-11.5V237z M523.5,238.7v1.1h7.5v-1.1H523.5z M523.5,241.1
		v1.1h7.5v-1.1H523.5z"/>
</g>
<g>
	<path class="st0" d="M758.1,183.4c-1.2,4-2.1,5.9-2.8,7.1l-1.6-1.8c0.4-0.7,1.4-2.1,2.6-6.4L758.1,183.4L758.1,183.4z M754.8,177
		c1,0.5,2.3,1.3,3.2,2l-1.2,1.7c-0.8-0.7-1.9-1.4-3-2L754.8,177L754.8,177z M755.9,171.6c0.9,0.4,2.3,1.3,3.1,1.9l-1.3,1.8
		c-1.1-0.9-2-1.5-3-2L755.9,171.6L755.9,171.6z M763.9,181.4c-0.2,0.4-0.4,0.8-0.7,1.3h9.2c0,2.7-0.2,5.2-0.6,6.5
		c-0.4,1.3-1.4,1.4-2.3,1.4h-2l-0.4-2h2.2c0.5,0,0.6-0.1,0.7-0.5c0.3-0.8,0.3-2.4,0.4-3.7h-1.1c-0.8,2.7-2.3,4.5-4.9,6.2l-1.4-1.3
		c2.7-1.7,3.8-3.2,4.3-4.9h-1.7c-1.1,2.1-2.6,3.9-6.2,5.6l-1.2-1.6c0.8-0.3,3.8-1.6,5.2-4H762c-1.1,1.1-2.1,1.8-3.1,2.4l-1.3-1.6
		c3.2-1.7,3.8-2.7,4.3-3.8h-3.2v-1.7h14.5v1.7L763.9,181.4L763.9,181.4z M760,172.1h11.8v6.6H760V172.1z M762.1,173.6v1.1h7.8v-1.1
		H762.1z M762.1,176.1v1.2h7.8v-1.2H762.1z"/>
	<path class="st0" d="M756.2,202.4c-0.7,1.1-1.2,1.6-1.7,2.1l-0.8-2.7c0.7-0.7,2.6-2.5,3.7-8.4l2.2,0.3c-0.2,0.8-0.5,2.5-1.4,4.6
		v14.4h-2.1L756.2,202.4L756.2,202.4z M767,203.2c-0.1,0.5-0.1,1.1-0.3,1.8h6.5v1.9h-5.8c1.2,2.1,3.7,3.3,6,3.7l-1.3,2
		c-4.5-1.5-6-4.2-6.4-5.1c-1.4,3-4.4,4.4-6.2,5.1l-1.3-2.1c2.6-0.7,4.8-2,5.7-3.7h-5.2V205h5.9c0.1-0.8,0.2-1.3,0.2-1.8h-5.3v-1.9
		h12.8v1.9H767z M760.3,193.8h11.5v6.1h-11.5V193.8z M762.4,195.8v2.1h7.4v-2.1H762.4z"/>
</g>
</svg>
