<?xml version="1.0" encoding="utf-8"?>
<!-- Generator: Adobe Illustrator 27.9.0, SVG Export Plug-In . SVG Version: 6.00 Build 0)  -->
<svg version="1.1" id="_レイヤー_1" xmlns="http://www.w3.org/2000/svg" xmlns:xlink="http://www.w3.org/1999/xlink" x="0px"
	 y="0px" viewBox="0 0 990 1614.3" style="enable-background:new 0 0 990 1614.3;" xml:space="preserve">
<style type="text/css">
	.st0{fill:#FFFFFF;}
	.st1{fill:#231815;}
	.st2{fill:none;stroke:#FFFFFF;stroke-width:3;stroke-miterlimit:10;}
</style>
<rect class="st0" width="990" height="100"/>
<g>
	<path class="st1" d="M463.6,52.2c-0.2,9.8-0.6,11.9-4.2,11.9h-3.2l-0.6-3c-1.5,1.7-2.9,2.7-3.9,3.4l-2.7-2.4c1.8-1.1,4.8-3.1,6-6.7
		h-1.7c-1,1.9-3.2,5.4-8.7,7.6l-2-2.9c2.7-1,5.3-2.6,7-4.7h-1.6c-1.6,1.4-3,2.2-4.1,2.8l-1.5-2c-1,2.9-2,5.7-3.4,7.7l-3.2-3.8
		c1.7-2.4,3.1-6.6,3.8-9.3l3.7,2.2c-0.2,0.7-0.3,0.9-0.5,1.6c2.9-1.7,3.5-2.5,4.3-3.7h-4v-3.4h21.4V51h-13.3
		c-0.2,0.5-0.4,0.8-0.6,1.2L463.6,52.2L463.6,52.2z M440.4,49.8c-0.5-0.4-2.4-2.2-4.6-3.2l2.4-3.5c1,0.5,2.8,1.5,4.8,3.1
		C442.9,46.2,440.4,49.8,440.4,49.8z M441.4,42.2c-2-1.7-4.1-2.8-4.8-3.1l2.5-3.5c1.8,0.8,3.6,1.8,5,2.9L441.4,42.2L441.4,42.2z
		 M462.8,36.5v10h-18v-10H462.8z M458.5,39.3H449v1.3h9.5V39.3z M458.5,42.7H449V44h9.5V42.7z M458.4,55.4c-0.1,0.7-0.6,2.7-2.4,5
		h1.9c1.2,0,1.4-0.1,1.6-5H458.4L458.4,55.4z"/>
	<path class="st1" d="M473,60.2V64h-4.4V51c-0.8,0.9-1.2,1.3-1.7,1.8l-1.4-6c1-1,3.5-3.5,4.8-11.3l4.5,0.5c-0.2,1.2-0.6,3.6-1.8,7
		v17c1.5-0.3,5.1-1.6,6.9-3.8h-6.4v-4h8c0.1-0.6,0.1-1,0.1-1.7h-7.1v-3.6h19v3.6h-7.4c0,0.5-0.1,0.9-0.2,1.7h8.5v4h-6.8
		c2.2,2.8,6.5,3.6,7.3,3.7l-2.4,4.3c-4.7-1.5-7.4-4.1-8.7-6.2c-1.1,1.8-3.6,4.5-8.5,6.2L473,60.2L473,60.2z M475.3,36.3h17.5v9.1
		h-17.5V36.3z M479.7,40.1v2h8.7v-2H479.7z"/>
	<path class="st1" d="M501.6,40.5v17.2h6.2V35.6h4.7v22.1h6.2V40.5h4.7v23.5h-4.7v-1.8h-17.1v1.8h-4.7V40.5H501.6z"/>
	<path class="st1" d="M531.4,51.1l-3.6,1.6c-0.4-2.1-1-3.8-2-6.2l3.7-1.7c0.6,1.2,1.4,2.9,2,4.7V44h4.5v4h7.1v-4h4.7v4h6.6v4.5h-6.6
		v6.4h6v4.5h-16.5v-4.5h5.8v-6.4h-7.1v11.6h-4.5v-5.1c-1.2,0.8-4.1,2.1-4.9,2.5l-1-4.9c1.6-0.4,4.8-1.9,5.9-2.5L531.4,51.1
		L531.4,51.1z M532.3,35.6h4.4v1.9h6.8v-1.9h4.4v1.9h6.4v4.1H548v1.7h-4.4v-1.7h-6.8v1.7h-4.4v-1.7H526v-4.1h6.4V35.6z"/>
</g>
<rect y="189.6" class="st0" width="990" height="100"/>
<g>
	<path class="st1" d="M447.3,233.4v7.8h-10.2v1.6h11.4c-0.2,5.5-0.3,7.7-1,8.7c-0.7,1-1.6,1.2-2.3,1.2H440l-0.8-4.3h3.6
		c1,0,1-0.2,1.1-2.2h-6.8v7.9h-4.4V248c-4.1,3.7-8.6,4.9-10.3,5.3l-2-4.4c2.2-0.4,5.2-1,8.6-2.9h-7.6c1-2.7,1.5-4.7,1.9-7.9h9.4
		v-1.6h-10.6v-3.3h0.4l-2.1-2.6c2-1.4,3.5-3.4,4.5-5.5l4.6,0.5c-0.2,0.6-0.2,0.8-0.5,1.4h5.5v2.6c1.9-2,2.4-3.4,2.8-4.4l4.5,0.5
		c-0.2,0.6-0.3,0.8-0.5,1.3h7.8v3.9h-4.6c0.1,0.2,0.6,0.9,1,1.6l-2.1,0.7L447.3,233.4L447.3,233.4z M427.7,233.4
		c-0.3-1.1-0.4-1.4-0.8-2.3h-0.4c-1.1,1.4-1.8,1.9-2.2,2.3H427.7L427.7,233.4z M427.4,241.1c0,0.2-0.1,1-0.3,1.6h5.7v-1.6H427.4
		L427.4,241.1z M435.7,233.4l-2.6-2.2l0.1-0.1h-2c0.1,0.2,0.5,0.9,0.8,1.7l-2.2,0.6H435.7z M440.8,233.4c-0.6-1.6-0.8-1.9-1-2.3
		h-0.7c-1,1.3-1.6,1.9-2,2.3H440.8z M442.9,238.2v-1.6h-5.8v1.6H442.9z"/>
	<path class="st1" d="M451.1,237h27.8v4.9h-27.8V237z"/>
	<path class="st1" d="M492.7,238.9V237h-9.4v-10.6h23.4V237h-9.5v1.9h10.8v10.3c0,2-0.5,3.1-3,3.1H500l-0.9-4.3h3.4
		c0.7,0,1-0.2,1-0.9V243h-6.3v10.9h-4.6V243h-6.2v9.3h-4.6v-13.4H492.7z M487.7,230.4v2.8h14.6v-2.8H487.7z"/>
	<path class="st1" d="M521.5,226.7c-0.3,1.1-0.6,2.8-1.1,5.7c1.8-2,4.1-3.3,6.8-3.3c2.3,0,4.9,1.2,6.1,2.8c2,2.5,2.1,6.5,2.1,8.1
		c0,12.3-9.5,12.8-17.5,13.3l-1.3-4.6c10-0.2,13.7-1.6,13.7-9.1c0-2.4,0-5.9-3.9-5.9s-6.5,4.4-6.5,7.2c0,0.6,0.2,3.4,0.2,4.3
		l-4.9,0.2c-0.1-0.8-0.2-2.4-0.2-3.3c0-0.8,0-6.8,1.2-15.8L521.5,226.7L521.5,226.7z"/>
	<path class="st1" d="M549.5,236.2c0.8-0.4,3.2-1.6,4.5-2.9h-3.8v1.5H548v0.8c0.2,0.5,1.4,2.9,3.3,4.9l-0.6,1.1h17.7v10.1
		c0,0.7,0,2.4-2.2,2.4h-3.3l-0.3-1.9h-7.3v-6.6h8.3v5c0.9,0,1-0.2,1-1v-5.1h-10.3v9.5h-3.8v-12l-1.1,2c-0.4-0.5-0.8-1.1-1.3-2.3V254
		h-4.1v-10.9c-0.5,1.6-1.2,4-2.2,5.5l-1.5-6.1c1.5-2.1,2.3-3.7,3.4-7.8h-2.9v-4.2h3.1v-4.9h4.1v4.9h1.9v-0.3h6
		c0.3-0.8,0.4-0.9,0.4-1.1c-0.8,0-4.5,0.1-5.3,0.1l-0.6-3c1.6,0,10.5,0,16.5-1.1l1.1,3.1c-1,0.2-2.8,0.6-7.5,0.8
		c-0.2,0.6-0.4,0.9-0.5,1.2h8.9v3h-4.3c1.8,1.5,4.3,2.4,4.9,2.6l-1.4,3.7c-0.7-0.3-1.4-0.7-2.4-1.2v2.2h-12.7v-2
		c-0.5,0.4-0.9,0.6-1.7,1L549.5,236.2L549.5,236.2z M556.4,237v1.4h6V237H556.4z M561.7,234.8c-0.5-0.7-0.8-1.1-1-1.6h-2.3
		c-0.5,0.7-0.8,1-1.2,1.6H561.7z M558.2,247.9v1.6h2.5v-1.6H558.2z"/>
</g>
<rect y="379" class="st0" width="990" height="100"/>
<g>
	<path class="st1" d="M447.3,422.7v7.8h-10.2v1.6h11.4c-0.2,5.5-0.3,7.7-1,8.7c-0.7,1-1.6,1.2-2.3,1.2H440l-0.8-4.3h3.6
		c1,0,1-0.2,1.1-2.2h-6.8v7.9h-4.4v-5.9c-4.1,3.7-8.6,4.9-10.3,5.3l-2-4.4c2.2-0.4,5.2-1,8.6-2.9h-7.6c1-2.7,1.5-4.7,1.9-7.9h9.4
		V426h-10.6v-3.3h0.4l-2.1-2.5c2-1.4,3.5-3.4,4.5-5.5l4.6,0.5c-0.2,0.6-0.2,0.8-0.5,1.4h5.5v2.6c1.9-2,2.4-3.4,2.8-4.4l4.5,0.5
		c-0.2,0.6-0.3,0.8-0.5,1.3h7.8v3.9h-4.6c0.1,0.2,0.6,0.9,1,1.6l-2.1,0.7L447.3,422.7L447.3,422.7z M427.7,422.7
		c-0.3-1.1-0.4-1.4-0.8-2.3h-0.4c-1.1,1.4-1.8,2-2.2,2.3H427.7L427.7,422.7z M427.4,430.5c0,0.2-0.1,1-0.3,1.6h5.7v-1.6H427.4
		L427.4,430.5z M435.7,422.7l-2.6-2.2l0.1-0.1h-2c0.1,0.2,0.5,0.9,0.8,1.7l-2.2,0.6H435.7z M440.8,422.7c-0.6-1.6-0.8-1.9-1-2.3
		h-0.7c-1,1.3-1.6,1.9-2,2.3H440.8z M442.9,427.6V426h-5.8v1.6H442.9z"/>
	<path class="st1" d="M451.1,437.1h27.8v4.6h-27.8V437.1z M452.3,416.6h25.3v4.6h-25.3V416.6z M454,426.4H476v4.5H454V426.4z"/>
	<path class="st1" d="M492.7,428.3v-1.9h-9.4v-10.6h23.4v10.6h-9.5v1.9h10.8v10.3c0,2-0.5,3.1-3,3.1H500l-0.9-4.3h3.4
		c0.7,0,1-0.2,1-0.9v-4.1h-6.3v10.9h-4.6v-10.9h-6.2v9.3h-4.6v-13.4L492.7,428.3L492.7,428.3z M487.7,419.8v2.8h14.6v-2.8H487.7z"/>
	<path class="st1" d="M521.5,416.1c-0.3,1.1-0.6,2.8-1.1,5.7c1.8-2,4.1-3.3,6.8-3.3c2.3,0,4.9,1.2,6.1,2.8c2,2.5,2.1,6.5,2.1,8.1
		c0,12.3-9.5,12.8-17.5,13.3l-1.3-4.6c10-0.2,13.7-1.6,13.7-9.1c0-2.4,0-5.9-3.9-5.9s-6.5,4.4-6.5,7.2c0,0.6,0.2,3.4,0.2,4.3
		l-4.9,0.2c-0.1-0.8-0.2-2.4-0.2-3.3c0-0.8,0-6.8,1.2-15.8L521.5,416.1L521.5,416.1z"/>
	<path class="st1" d="M549.5,425.5c0.8-0.4,3.2-1.6,4.5-2.9h-3.8v1.5H548v0.8c0.2,0.5,1.4,2.9,3.3,5l-0.6,1h17.7V441
		c0,0.7,0,2.4-2.2,2.4h-3.3l-0.3-1.9h-7.3v-6.6h8.3v5c0.9,0,1-0.2,1-1v-5.1h-10.3v9.5h-3.8v-12l-1.1,2c-0.4-0.5-0.8-1.1-1.3-2.3
		v12.2h-4.1v-10.9c-0.5,1.6-1.2,4-2.2,5.5l-1.5-6.1c1.5-2.1,2.3-3.7,3.4-7.8h-2.9v-4.2h3.1V415h4.1v4.9h1.9v-0.3h6
		c0.3-0.8,0.4-0.9,0.4-1.1c-0.8,0-4.5,0.1-5.3,0.1l-0.6-3c1.6,0,10.5,0,16.5-1.1l1.1,3.1c-1,0.2-2.8,0.6-7.5,0.8
		c-0.2,0.6-0.4,0.9-0.5,1.2h8.9v3h-4.3c1.8,1.5,4.3,2.4,4.9,2.6l-1.4,3.7c-0.7-0.3-1.4-0.7-2.4-1.2v2.2h-12.7v-2
		c-0.5,0.4-0.9,0.6-1.7,1L549.5,425.5L549.5,425.5z M556.4,426.4v1.4h6v-1.4H556.4z M561.7,424.2c-0.5-0.7-0.8-1.1-1-1.6h-2.3
		c-0.5,0.7-0.8,1-1.2,1.6H561.7z M558.2,437.3v1.6h2.5v-1.6H558.2z"/>
</g>
<rect y="568.5" class="st0" width="990" height="100"/>
<g>
	<path class="st1" d="M447.3,612.2v7.8h-10.2v1.6h11.4c-0.2,5.5-0.3,7.7-1,8.7c-0.7,1-1.6,1.2-2.3,1.2H440l-0.8-4.3h3.6
		c1,0,1-0.2,1.1-2.2h-6.8v7.9h-4.4v-5.9c-4.1,3.7-8.6,4.9-10.3,5.3l-2-4.4c2.2-0.4,5.2-1,8.6-2.9h-7.6c1-2.7,1.5-4.7,1.9-7.9h9.4
		v-1.6h-10.6v-3.3h0.4l-2.1-2.5c2-1.4,3.5-3.4,4.5-5.5l4.6,0.5c-0.2,0.6-0.2,0.8-0.5,1.3h5.5v2.6c1.9-2,2.4-3.4,2.8-4.4l4.5,0.5
		c-0.2,0.6-0.3,0.8-0.5,1.3h7.8v3.9h-4.6c0.1,0.2,0.6,0.9,1,1.7l-2.1,0.7L447.3,612.2L447.3,612.2z M427.7,612.2
		c-0.3-1.1-0.4-1.3-0.8-2.3h-0.4c-1.1,1.3-1.8,2-2.2,2.3H427.7L427.7,612.2z M427.4,620c0,0.2-0.1,1-0.3,1.6h5.7V620H427.4
		L427.4,620z M435.7,612.2l-2.6-2.2l0.1-0.1h-2c0.1,0.2,0.5,0.9,0.8,1.7l-2.2,0.6H435.7z M440.8,612.2c-0.6-1.6-0.8-1.9-1-2.3h-0.7
		c-1,1.3-1.6,1.9-2,2.3H440.8z M442.9,617.1v-1.6h-5.8v1.6H442.9z"/>
	<path class="st1" d="M459.9,614.7c0.5-2.2,0.6-3.6,0.8-4.6h-8.4v-4.3h25.5v4.3h-12.4c-0.2,1.4-0.5,2.7-0.8,4.6h11.4l-0.6,12.4h3.5
		v4.3h-27.8v-4.3h5.8c0.6-2.1,1.5-5.7,2.1-8.1h-5.4v-4.3L459.9,614.7L459.9,614.7z M470.7,627.1l0.4-8.1h-7.4
		c-0.3,1.3-1.7,6.9-2,8.1H470.7z"/>
	<path class="st1" d="M492.7,617.8v-1.9h-9.4v-10.6h23.4v10.6h-9.5v1.9h10.8v10.3c0,2-0.5,3.1-3,3.1H500l-0.9-4.3h3.4
		c0.7,0,1-0.2,1-0.9v-4.1h-6.3v10.9h-4.6v-10.9h-6.2v9.3h-4.6v-13.4H492.7z M487.7,609.2v2.8h14.6v-2.8H487.7z"/>
	<path class="st1" d="M521.5,605.6c-0.3,1.1-0.6,2.8-1.1,5.7c1.8-2,4.1-3.3,6.8-3.3c2.3,0,4.9,1.2,6.1,2.8c2,2.5,2.1,6.5,2.1,8.1
		c0,12.3-9.5,12.8-17.5,13.3l-1.3-4.6c10-0.2,13.7-1.6,13.7-9.1c0-2.4,0-5.9-3.9-5.9s-6.5,4.4-6.5,7.2c0,0.6,0.2,3.4,0.2,4.3
		l-4.9,0.2c-0.1-0.8-0.2-2.4-0.2-3.3c0-0.8,0-6.8,1.2-15.8L521.5,605.6L521.5,605.6z"/>
	<path class="st1" d="M549.5,615c0.8-0.4,3.2-1.6,4.5-2.9h-3.8v1.5H548v0.8c0.2,0.5,1.4,2.9,3.3,5l-0.6,1h17.7v10.1
		c0,0.7,0,2.4-2.2,2.4h-3.3l-0.3-1.9h-7.3v-6.6h8.3v5c0.9,0,1-0.2,1-1v-5.1h-10.3v9.5h-3.8v-12l-1.1,2c-0.4-0.5-0.8-1.1-1.3-2.3
		v12.2h-4.1V622c-0.5,1.7-1.2,4-2.2,5.5l-1.5-6.1c1.5-2.1,2.3-3.7,3.4-7.8h-2.9v-4.2h3.1v-4.9h4.1v4.9h1.9v-0.3h6
		c0.3-0.8,0.4-0.9,0.4-1.1c-0.8,0-4.5,0.2-5.3,0.1l-0.6-3c1.6,0,10.5,0,16.5-1.1l1.1,3.1c-1,0.2-2.8,0.6-7.5,0.8
		c-0.2,0.6-0.4,0.9-0.5,1.2h8.9v3h-4.3c1.8,1.5,4.3,2.4,4.9,2.6l-1.4,3.7c-0.7-0.3-1.4-0.7-2.4-1.2v2.2h-12.7v-2
		c-0.5,0.4-0.9,0.6-1.7,1L549.5,615L549.5,615z M556.4,615.9v1.3h6v-1.3H556.4z M561.7,613.7c-0.5-0.7-0.8-1.1-1-1.6h-2.3
		c-0.5,0.7-0.8,1-1.2,1.6H561.7z M558.2,626.8v1.6h2.5v-1.6H558.2z"/>
</g>
<rect y="758" class="st0" width="990" height="100"/>
<g>
	<path class="st1" d="M473.2,809.6c-0.7,2.3-2.3,5.8-4.7,8.4l-3.3-3.1c1.3-1.3,2.7-2.9,4-6.8L473.2,809.6L473.2,809.6z M477.8,800.6
		h-10.1v-4.3h10.1v-2.7h4.8v2.7h10.1v4.3h-10.1v2.3h11.8v4.3H486V819c0,2.2-1.1,3.2-3.3,3.2h-4.1l-1-4.7h3.1c0.8,0,0.8-0.5,0.8-0.8
		v-9.4h-2.3c-0.2,8.2-1.7,12.2-9.2,15.2l-2.7-3.8c6.2-2.3,7.3-5.4,7.5-11.4H466v-4.3h11.9L477.8,800.6L477.8,800.6z M491.1,820.1
		c-2.2-3.3-3.6-7.2-4.4-10.6l4.1-1.5c1,3.9,2.2,6.3,3.8,8.6L491.1,820.1L491.1,820.1z"/>
	<path class="st1" d="M504,811.8c-0.5,1.3-3.1,7.1-5.9,10.3l-2.8-4c2-2.5,4.2-6.5,5.3-9L504,811.8z M497.8,801.3
		c2.1,0.8,3.9,2.2,5.2,3.2l-2.6,3.6c-1.8-1.6-3.3-2.5-4.9-3.3L497.8,801.3z M499,793.6c1.3,0.5,3.5,1.6,5.4,3l-2.7,3.7
		c-1-0.9-3.6-2.6-5.2-3.2L499,793.6L499,793.6z M505.7,794.7h17.7v13.7h-5.6c0.3,1.4,1.1,5.3,6.9,9.4l-2.7,4.4
		c-4.2-3.5-7.3-7.4-8.7-13.8h-3.1c-0.3,5.7-1.4,10.7-4.4,13.9l-4-3c2.6-3.3,3.9-7,3.9-11.2L505.7,794.7L505.7,794.7z M510.2,804.3
		h8.7v-5.3h-8.7V804.3z"/>
</g>
<rect y="947.6" class="st0" width="990" height="100"/>
<g>
	<path class="st1" d="M478.5,1004.2c-1,1.2-2.5,2.4-2.9,2.7c1.7,0.6,2.9,0.8,3.9,1l-2.3,4.2c-1.7-0.5-6.5-1.9-9.3-5l0.1,3.6
		c-3.3,0.7-8.7,1.2-11,1.3l-0.5-4.2c0.8,0,1,0,2.9-0.1v-4.9h-2.7c-0.5,5.4-1.5,7.4-2.5,9.2l-3.9-2.9c0.8-1.5,2.3-4.3,2.3-11.2v-13.4
		h25.6v8.4h-4v1.5h4.1v3.2h-4.1v1.9h4.9v3.5h-3.1L478.5,1004.2L478.5,1004.2z M473.8,987.9h-16.7v1.8h16.7V987.9z M461.5,992.8h-4.4
		v6.5h4.4v-1.9h-3.8v-3.2h3.8V992.8z M463.9,1007.3c2.4-0.2,3-0.3,4-0.5c-1.5-1.8-2-3-2.5-4.1h-1.5V1007.3z M470.3,992.8h-4.8v1.5
		h4.8V992.8z M470.3,997.4h-4.8v1.9h4.8V997.4z M469.8,1002.7c0.5,0.7,1,1.4,2.2,2.3c0.8-0.8,1.5-1.6,2.1-2.3H469.8z"/>
	<path class="st1" d="M507.7,998.9v3.2h-10.6v1.3h9.3v2.8h-9.3v1.4h12.1v3.5h-28.4v-3.5h11.8v-1.4h-9.1v-2.8h9.1v-1.3h-10.4v-3.2
		H507.7z M493.3,996.7l-0.1,0.8H485c-1.9,0-2.4-1.4-2.4-2.8v-5.5H481v-4h5.2v-1.7h4.4v1.7h4.4v4h-7.8v2.9c0,1.1,0.3,1.1,1.2,1.1h5.2
		l-0.3,2.5c2.3-2.9,2.7-7.1,2.6-11.4h12.3c-0.2,8.7-0.2,10.5-0.8,11.9c-0.3,0.7-1,2.1-3.6,2.1H500l-0.6-3.1h3.1c0.9,0,1-0.2,1.2-1.3
		h-4.9c-1,3.1-2.4,4.5-2.9,5.1L493.3,996.7L493.3,996.7z M503.9,991.7c0-0.2,0.1-0.9,0.1-1.1h-4.4c0,0.2-0.1,0.4-0.2,1.1H503.9z
		 M499.9,987.5c0,0.7,0,0.8-0.1,1.1h4.2c0-0.2,0-1,0-1.1H499.9z"/>
	<path class="st1" d="M510.5,991.1c0.7,0,4.5,0,5,0c0.3-0.5,2.8-4.9,4-8l5.2,0.9c-0.7,1.4-1.5,3.1-4,7.1c4.7,0.1,6.4,0.1,10.1-0.2
		c-1.7-1.9-2.2-2.4-2.9-3.1l4.2-2.4c2.1,1.8,6.1,6.7,7.7,9.6l-4,2.3h1.1v14.6H532v-1.4h-14.1v1.4h-4.7v-14.6h21.9
		c-0.2-0.5-0.5-1.1-1.3-2.3c-5.3,0.5-18,0.8-22.9,0.7L510.5,991.1L510.5,991.1z M517.9,1001.6v4.6H532v-4.6H517.9z"/>
</g>
<rect y="1137.2" class="st0" width="990" height="100"/>
<g>
	<path class="st1" d="M462.9,1180.8v7.8h-10.2v1.6h11.4c-0.2,5.5-0.3,7.7-1,8.7c-0.7,1-1.6,1.2-2.3,1.2h-5.2l-0.8-4.3h3.6
		c1,0,1-0.2,1.1-2.2h-6.8v7.9h-4.4v-5.9c-4.1,3.7-8.6,4.9-10.3,5.3l-2-4.4c2.2-0.4,5.2-1,8.6-2.9h-7.6c1-2.7,1.5-4.7,1.9-7.9h9.4
		v-1.6h-10.6v-3.3h0.4l-2.1-2.6c2-1.4,3.5-3.4,4.5-5.5l4.6,0.5c-0.2,0.6-0.2,0.8-0.5,1.3h5.5v2.6c1.9-2,2.4-3.4,2.8-4.4l4.5,0.5
		c-0.2,0.6-0.3,0.8-0.5,1.3h7.8v3.9h-4.6c0.1,0.2,0.6,0.9,1,1.7l-2.1,0.7H462.9L462.9,1180.8z M443.3,1180.8
		c-0.3-1.1-0.4-1.3-0.8-2.3h-0.4c-1.1,1.3-1.8,1.9-2.2,2.3H443.3L443.3,1180.8z M443,1188.6c0,0.2-0.1,1-0.3,1.6h5.7v-1.6H443
		L443,1188.6z M451.4,1180.8l-2.6-2.2l0.1-0.1h-2c0.1,0.2,0.5,0.9,0.8,1.7l-2.2,0.6L451.4,1180.8L451.4,1180.8z M456.4,1180.8
		c-0.6-1.6-0.8-1.9-1-2.3h-0.7c-1,1.3-1.6,1.9-2,2.3H456.4z M458.5,1185.7v-1.6h-5.8v1.6H458.5z"/>
	<path class="st1" d="M466.7,1184.5h27.8v4.9h-27.8V1184.5z"/>
	<path class="st1" d="M501.7,1198.7c0.8-0.4,1.5-0.8,2.6-1.9c-1-1.3-1.8-2.6-2.3-4.2c-0.5,5.3-1.7,7.6-2.2,8.8l-4-3
		c0.8-1.8,2.1-4.7,2.1-9.9v-13.9h10.8v-1.7h4.8v1.7h11.4v4h-22.6v11.3c0,1-0.1,1.7-0.1,2.2l2.8-0.9c0.4,0.7,0.8,1.6,1.6,2.6
		c0.7-1.3,0.9-2.3,1-3.2h-4.6v-3.4c0.3-0.3,2.1-2,3.5-3.7h-3.5v-3.7h7.8v3.7c-1,1.3-1.4,1.7-3.3,3.5h3.5v3.5c-0.1,1.1-0.4,3-1.4,5.3
		c0.7,0.3,2,0.8,4.9,0.8h11.2l-1.1,4.2h-10.8c-2,0-4.6-0.8-6.3-1.7c-1.2,1.3-2.1,1.9-3,2.4L501.7,1198.7L501.7,1198.7z
		 M516.2,1183.6c-2.1,0.1-3.1,0.1-4.1,0l-0.5-3.6c3.6,0,8.2-0.2,11.7-1l1.4,3.7c-1.1,0.2-2,0.4-4.5,0.6v2.1h4.7v3.6h-4.7v2.7h4.3
		v3.7h-12.6v-3.7h4.4v-2.7h-4.8v-3.6h4.8L516.2,1183.6L516.2,1183.6z"/>
	<path class="st1" d="M554,1201.4h-4.3v-1h-18.2v1h-4.3v-27.7H554L554,1201.4L554,1201.4z M547.8,1196.9h2v-19.5h-6.9v1.2h5.6v2.3
		h-5.6v1.1h6.5v2.5H532v-2.5h6.5v-1.1H533v-2.3h5.4v-1.2h-6.9v19.5h6.6v-3.1c-2.6,1.7-3.6,2-4.7,2.5l-1.7-3.3c1-0.3,3.1-0.9,5.7-2.7
		H533v-5h15.2v4.9l1,0.7c-0.5,0.5-0.9,1.1-2.2,2.3c1.1,0.4,1.7,0.6,2.5,0.8L547.8,1196.9L547.8,1196.9z M544.4,1187.1h-7.8v1.3h7.8
		V1187.1z M542,1190.4c0.5,0.4,1,0.8,2.2,1.5c0.8-0.7,1.3-1.2,1.6-1.6L542,1190.4L542,1190.4L542,1190.4z M542,1196.9h5.2
		c-1.2-0.4-3.1-1.3-5.2-3V1196.9z"/>
</g>
<rect y="1326.8" class="st0" width="990" height="100"/>
<g>
	<path class="st1" d="M470.4,1375c-0.6,0.6-1.1,1-2.1,1.8l-2.9-4.1c5.1-3.4,7.2-6.9,8.4-10.3l4.5,0.9c-0.5,1.5-1.9,5.4-5.4,9.3h14.6
		c-2.3-2.7-4-5.8-5.4-9.1l4.5-1.1c1.5,3.4,3.8,7.4,8.3,10.5l-3,3.9c-0.6-0.4-1.1-0.8-2-1.7c0,2.3-0.3,11-1.4,13.6
		c-0.6,1.4-1.5,2.4-3.8,2.4h-5.4l-0.9-4.5h4.4c0.8,0,1.3-0.2,1.6-0.9c0.7-1.4,0.9-6.6,1-8.7h-5.5c-0.8,7.2-4.5,11.3-11.2,14.2
		l-2.6-4.3c6.6-2.5,8.8-5.6,9.2-9.9h-4.6L470.4,1375L470.4,1375z"/>
	<path class="st1" d="M506.5,1387.4h-7.2v2.2h-3.1v-23h3.1v16.5h1.1v-20.5h3.3v20.5h1.1v-16.5h3v20c0.7-0.2,2.4-0.8,4.8-2.2
		c-2-2.6-2.8-4.9-3.2-6.1l3.3-1.3h-3.8v-4.1h4.9v-3.2h-5.4v-4.3h5.4v-2.9h4.6v2.9h6.1v4.3h-6.1v3.2h5.1v3.8
		c-0.5,1.5-1.4,4.5-4.1,7.7c2.3,1.5,4.1,2.1,5.4,2.6l-2.5,4.2c-1.6-0.6-4-1.6-6.4-3.5c-2.8,2.1-5.4,3-7.2,3.5L506.5,1387.4
		L506.5,1387.4z M513.2,1377c0.5,1.2,1,2.8,2.8,4.7c1.8-2,2.4-3.8,2.8-4.7H513.2z"/>
</g>
<rect y="1516.3" class="st0" width="990" height="100"/>
<g>
	<path class="st1" d="M436,1574.3h27.8v4.6H436V1574.3z M437.2,1553.8h25.3v4.6h-25.3V1553.8z M438.8,1563.6h22.1v4.5h-22.1V1563.6z
		"/>
	<path class="st1" d="M472.7,1576.7v3.8h-4.4v-12.9c-0.8,0.9-1.2,1.3-1.7,1.8l-1.4-6c1-1,3.5-3.4,4.8-11.3l4.5,0.5
		c-0.2,1.2-0.6,3.6-1.8,7v16.9c1.5-0.3,5.1-1.6,6.9-3.8h-6.4v-4h8c0.1-0.6,0.1-1.1,0.1-1.7h-7.1v-3.6h19v3.6h-7.4
		c0,0.5-0.1,0.9-0.2,1.7h8.5v4h-6.8c2.2,2.8,6.5,3.6,7.3,3.7l-2.4,4.3c-4.7-1.5-7.4-4.1-8.7-6.2c-1.1,1.8-3.6,4.5-8.5,6.2
		L472.7,1576.7L472.7,1576.7z M475,1552.8h17.5v9.1H475V1552.8z M479.4,1556.6v2h8.7v-2H479.4z"/>
	<path class="st1" d="M501.3,1557v17.2h6.2v-22.1h4.7v22.1h6.2V1557h4.7v23.6h-4.7v-1.8h-17.1v1.8h-4.7V1557H501.3z"/>
	<path class="st1" d="M531.1,1567.6l-3.6,1.6c-0.4-2.1-1-3.8-2-6.2l3.7-1.7c0.6,1.2,1.4,2.9,2,4.7v-5.4h4.5v4h7.1v-4h4.7v4h6.6v4.5
		h-6.6v6.4h6v4.5h-16.5v-4.5h5.8v-6.4h-7.1v11.6h-4.5v-5.1c-1.2,0.8-4.1,2.1-4.9,2.5l-1-4.9c1.6-0.4,4.8-1.9,5.9-2.5L531.1,1567.6
		L531.1,1567.6z M532.1,1552.2h4.4v1.9h6.8v-1.9h4.4v1.9h6.4v4.1h-6.4v1.7h-4.4v-1.7h-6.8v1.7h-4.4v-1.7h-6.4v-4.1h6.4V1552.2z"/>
</g>
<g>
	<line class="st2" x1="446" y1="100" x2="446" y2="189.5"/>
	<polyline class="st2" points="439.5,183.2 445.9,189.5 452.4,183 	"/>
</g>
<g>
	<line class="st2" x1="544" y1="189.5" x2="544" y2="100"/>
	<polyline class="st2" points="550.5,106.3 544.1,100 537.6,106.5 	"/>
</g>
<g>
	<line class="st2" x1="446" y1="289.5" x2="446" y2="379.1"/>
	<polyline class="st2" points="439.5,372.8 445.9,379.1 452.4,372.6 	"/>
</g>
<g>
	<line class="st2" x1="544" y1="379.1" x2="544" y2="289.5"/>
	<polyline class="st2" points="550.5,295.9 544.1,289.5 537.6,296 	"/>
</g>
<g>
	<line class="st2" x1="446" y1="479.1" x2="446" y2="568.6"/>
	<polyline class="st2" points="439.5,562.3 445.9,568.6 452.4,562.1 	"/>
</g>
<g>
	<line class="st2" x1="544" y1="568.6" x2="544" y2="479.1"/>
	<polyline class="st2" points="550.5,485.4 544.1,479.1 537.6,485.6 	"/>
</g>
<g>
	<line class="st2" x1="446" y1="668.6" x2="446" y2="758.2"/>
	<polyline class="st2" points="439.5,751.8 445.9,758.2 452.4,751.7 	"/>
</g>
<g>
	<line class="st2" x1="544" y1="758.2" x2="544" y2="668.6"/>
	<polyline class="st2" points="550.5,675 544.1,668.6 537.6,675.1 	"/>
</g>
<g>
	<line class="st2" x1="446" y1="858.2" x2="446" y2="947.7"/>
	<polyline class="st2" points="439.5,941.4 445.9,947.7 452.4,941.2 	"/>
</g>
<g>
	<line class="st2" x1="544" y1="947.7" x2="544" y2="858.2"/>
	<polyline class="st2" points="550.5,864.5 544.1,858.2 537.6,864.7 	"/>
</g>
<g>
	<line class="st2" x1="446" y1="1047.7" x2="446" y2="1137.2"/>
	<polyline class="st2" points="439.5,1130.9 445.9,1137.2 452.4,1130.7 	"/>
</g>
<g>
	<line class="st2" x1="544" y1="1137.2" x2="544" y2="1047.7"/>
	<polyline class="st2" points="550.5,1054 544.1,1047.7 537.6,1054.2 	"/>
</g>
<g>
	<line class="st2" x1="446" y1="1237.2" x2="446" y2="1326.8"/>
	<polyline class="st2" points="439.5,1320.4 445.9,1326.8 452.4,1320.3 	"/>
</g>
<g>
	<line class="st2" x1="544" y1="1326.8" x2="544" y2="1237.2"/>
	<polyline class="st2" points="550.5,1243.6 544.1,1237.2 537.6,1243.7 	"/>
</g>
<g>
	<line class="st2" x1="446" y1="1426.8" x2="446" y2="1516.3"/>
	<polyline class="st2" points="439.5,1510 445.9,1516.3 452.4,1509.8 	"/>
</g>
<g>
	<line class="st2" x1="544" y1="1516.3" x2="544" y2="1426.8"/>
	<polyline class="st2" points="550.5,1433.1 544.1,1426.8 537.6,1433.3 	"/>
</g>
<path class="st0" d="M271.7,139.1v-3.8c1.8-0.1,3-0.2,3.7-0.4c1.1-0.2,2-0.7,2.7-1.5c0.5-0.5,0.8-1.2,1.1-2c0.1-0.5,0.2-0.9,0.2-1.1
	h4.6v28.3h-5.7v-19.5L271.7,139.1L271.7,139.1z"/>
<path class="st0" d="M300.8,135.9v6.8h-6.8v-6.8H300.8z M300.8,152.7v6.8h-6.8v-6.8H300.8z"/>
<path class="st0" d="M322.4,133.9c1.5,2.5,2.2,6.1,2.2,10.8s-0.7,8.3-2.2,10.8c-1.5,2.5-4,3.8-7.6,3.8s-6.1-1.3-7.6-3.8
	c-1.5-2.5-2.2-6.1-2.2-10.8s0.7-8.3,2.2-10.8s4-3.8,7.6-3.8S320.9,131.4,322.4,133.9z M311.5,152.2c0.5,1.7,1.6,2.6,3.3,2.6
	s2.7-0.9,3.2-2.6s0.8-4.2,0.8-7.5s-0.3-5.9-0.8-7.6s-1.6-2.5-3.2-2.5s-2.8,0.8-3.3,2.5s-0.8,4.2-0.8,7.6S311,150.5,311.5,152.2z"/>
<path class="st0" d="M344.6,133.9c1.5,2.5,2.2,6.1,2.2,10.8s-0.7,8.3-2.2,10.8c-1.5,2.5-4,3.8-7.6,3.8s-6.1-1.3-7.6-3.8
	c-1.5-2.5-2.2-6.1-2.2-10.8s0.7-8.3,2.2-10.8s4-3.8,7.6-3.8S343.2,131.4,344.6,133.9z M333.7,152.2c0.5,1.7,1.6,2.6,3.3,2.6
	s2.7-0.9,3.2-2.6s0.8-4.2,0.8-7.5s-0.3-5.9-0.8-7.6s-1.6-2.5-3.2-2.5s-2.8,0.8-3.3,2.5s-0.8,4.2-0.8,7.6S333.2,150.5,333.7,152.2z"
	/>
<path class="st0" d="M642.5,518v-3.8c1.8-0.1,3-0.2,3.7-0.3c1.1-0.2,2-0.7,2.7-1.5c0.5-0.5,0.8-1.2,1.1-2c0.1-0.5,0.2-0.9,0.2-1.1
	h4.7v28.3h-5.7V518L642.5,518L642.5,518z"/>
<path class="st0" d="M671.6,514.8v6.8h-6.8v-6.8H671.6z M671.6,531.6v6.8h-6.8v-6.8H671.6z"/>
<path class="st0" d="M693.1,512.8c1.5,2.5,2.2,6.2,2.2,10.8s-0.7,8.3-2.2,10.8c-1.5,2.5-4,3.8-7.6,3.8s-6.1-1.3-7.6-3.8
	c-1.5-2.5-2.2-6.1-2.2-10.8s0.7-8.3,2.2-10.8s4-3.8,7.6-3.8S691.7,510.3,693.1,512.8z M682.2,531.1c0.5,1.7,1.6,2.6,3.3,2.6
	s2.7-0.9,3.2-2.6c0.5-1.7,0.8-4.2,0.8-7.5s-0.3-5.9-0.8-7.6s-1.6-2.5-3.2-2.5s-2.8,0.8-3.3,2.5s-0.8,4.2-0.8,7.6
	S681.7,529.4,682.2,531.1z"/>
<path class="st0" d="M715.4,512.8c1.5,2.5,2.2,6.2,2.2,10.8s-0.7,8.3-2.2,10.8c-1.5,2.5-4,3.8-7.6,3.8s-6.1-1.3-7.6-3.8
	c-1.5-2.5-2.2-6.1-2.2-10.8s0.7-8.3,2.2-10.8s4-3.8,7.6-3.8S713.9,510.3,715.4,512.8z M704.5,531.1c0.5,1.7,1.6,2.6,3.3,2.6
	s2.7-0.9,3.2-2.6c0.5-1.7,0.8-4.2,0.8-7.5s-0.3-5.9-0.8-7.6s-1.6-2.5-3.2-2.5s-2.8,0.8-3.3,2.5s-0.8,4.2-0.8,7.6
	S704,529.4,704.5,531.1z"/>
<path class="st0" d="M642.5,328.6v-3.8c1.8-0.1,3-0.2,3.7-0.4c1.1-0.2,2-0.7,2.7-1.5c0.5-0.5,0.8-1.2,1.1-2c0.1-0.5,0.2-0.9,0.2-1.1
	h4.7v28.3h-5.7v-19.5L642.5,328.6L642.5,328.6z"/>
<path class="st0" d="M671.6,325.4v6.8h-6.8v-6.8H671.6z M671.6,342.2v6.8h-6.8v-6.8H671.6z"/>
<path class="st0" d="M693.1,323.4c1.5,2.5,2.2,6.1,2.2,10.8s-0.7,8.3-2.2,10.8s-4,3.8-7.6,3.8s-6.1-1.3-7.6-3.8s-2.2-6.1-2.2-10.8
	s0.7-8.3,2.2-10.8s4-3.8,7.6-3.8S691.7,320.9,693.1,323.4z M682.2,341.7c0.5,1.7,1.6,2.6,3.3,2.6s2.7-0.9,3.2-2.6s0.8-4.2,0.8-7.5
	s-0.3-5.9-0.8-7.6s-1.6-2.5-3.2-2.5s-2.8,0.8-3.3,2.5s-0.8,4.2-0.8,7.6S681.7,340,682.2,341.7z"/>
<path class="st0" d="M715.4,323.4c1.5,2.5,2.2,6.1,2.2,10.8s-0.7,8.3-2.2,10.8s-4,3.8-7.6,3.8s-6.1-1.3-7.6-3.8s-2.2-6.1-2.2-10.8
	s0.7-8.3,2.2-10.8s4-3.8,7.6-3.8S713.9,320.9,715.4,323.4z M704.5,341.7c0.5,1.7,1.6,2.6,3.3,2.6s2.7-0.9,3.2-2.6s0.8-4.2,0.8-7.5
	s-0.3-5.9-0.8-7.6s-1.6-2.5-3.2-2.5s-2.8,0.8-3.3,2.5s-0.8,4.2-0.8,7.6S704,340,704.5,341.7z"/>
<path class="st0" d="M659.8,133.9c1.5,2.5,2.2,6.1,2.2,10.8s-0.7,8.3-2.2,10.8s-4,3.8-7.6,3.8s-6.1-1.3-7.6-3.8s-2.2-6.1-2.2-10.8
	s0.7-8.3,2.2-10.8s4-3.8,7.6-3.8S658.3,131.4,659.8,133.9z M648.9,152.2c0.5,1.7,1.6,2.6,3.3,2.6s2.7-0.9,3.2-2.6s0.8-4.2,0.8-7.5
	s-0.3-5.9-0.8-7.6s-1.6-2.5-3.2-2.5s-2.8,0.8-3.3,2.5s-0.8,4.2-0.8,7.6S648.4,150.5,648.9,152.2z"/>
<path class="st0" d="M673.1,135.9v6.8h-6.8v-6.8H673.1z M673.1,152.7v6.8h-6.8v-6.8H673.1z"/>
<path class="st0" d="M682.6,151.1c0.2,1.2,0.6,2.1,1.3,2.8c0.6,0.7,1.5,1,2.7,1c1.4,0,2.4-0.5,3.2-1.5c0.7-1,1.1-2.2,1.1-3.7
	s-0.3-2.7-1-3.7c-0.7-1-1.7-1.5-3.2-1.5c-0.7,0-1.3,0.1-1.8,0.2c-0.9,0.3-1.5,0.9-2,1.7l-5-0.2l2-15.6h15.6v4.7H684l-1,6.2
	c0.9-0.6,1.5-0.9,2-1.1c0.8-0.3,1.8-0.4,3-0.4c2.3,0,4.4,0.8,6.1,2.4c1.7,1.6,2.6,3.9,2.6,6.9c0,2.6-0.8,4.9-2.5,7s-4.2,3.1-7.5,3.1
	c-2.7,0-4.9-0.7-6.6-2.2s-2.7-3.5-2.9-6.1L682.6,151.1L682.6,151.1z"/>
<path class="st0" d="M716.9,133.9c1.5,2.5,2.2,6.1,2.2,10.8s-0.7,8.3-2.2,10.8s-4,3.8-7.6,3.8s-6.1-1.3-7.6-3.8s-2.2-6.1-2.2-10.8
	s0.7-8.3,2.2-10.8s4-3.8,7.6-3.8S715.4,131.4,716.9,133.9z M706,152.2c0.5,1.7,1.6,2.6,3.3,2.6s2.7-0.9,3.2-2.6s0.8-4.2,0.8-7.5
	s-0.3-5.9-0.8-7.6s-1.6-2.5-3.2-2.5s-2.8,0.8-3.3,2.5s-0.8,4.2-0.8,7.6S705.5,150.5,706,152.2z"/>
<path class="st0" d="M271.8,328.5v-3.8c1.8-0.1,3-0.2,3.7-0.4c1.1-0.2,2-0.7,2.7-1.5c0.5-0.5,0.8-1.2,1.1-2c0.1-0.5,0.2-0.9,0.2-1.1
	h4.6V348h-5.7v-19.5L271.8,328.5L271.8,328.5z"/>
<path class="st0" d="M300.9,325.3v6.8h-6.8v-6.8H300.9z M300.9,342.1v6.8h-6.8v-6.8H300.9z"/>
<path class="st0" d="M306.6,328.5v-3.8c1.8-0.1,3-0.2,3.7-0.4c1.1-0.2,2-0.7,2.7-1.5c0.5-0.5,0.8-1.2,1.1-2c0.1-0.5,0.2-0.9,0.2-1.1
	h4.6V348h-5.7v-19.5L306.6,328.5L306.6,328.5z"/>
<path class="st0" d="M332.7,340.4c0.2,1.2,0.6,2.1,1.3,2.8c0.6,0.7,1.5,1,2.7,1c1.4,0,2.4-0.5,3.1-1.5c0.7-1,1.1-2.2,1.1-3.7
	s-0.3-2.7-1-3.7c-0.7-1-1.7-1.5-3.2-1.5c-0.7,0-1.3,0.1-1.8,0.2c-0.9,0.3-1.5,0.9-2,1.7l-5-0.2l2-15.6h15.6v4.7h-11.6l-1,6.2
	c0.9-0.6,1.5-0.9,2-1.1c0.8-0.3,1.8-0.5,3-0.5c2.3,0,4.4,0.8,6.1,2.4c1.7,1.6,2.6,3.9,2.6,6.9c0,2.6-0.8,5-2.5,7s-4.2,3.1-7.5,3.1
	c-2.7,0-4.9-0.7-6.6-2.2s-2.7-3.5-2.9-6.1L332.7,340.4L332.7,340.4z"/>
<path class="st0" d="M271.8,518v-3.8c1.8-0.1,3-0.2,3.7-0.3c1.1-0.2,2-0.7,2.7-1.5c0.5-0.5,0.8-1.2,1.1-2c0.1-0.5,0.2-0.9,0.2-1.1
	h4.6v28.3h-5.7V518L271.8,518L271.8,518z"/>
<path class="st0" d="M300.9,514.8v6.8h-6.8v-6.8H300.9z M300.9,531.6v6.8h-6.8v-6.8H300.9z"/>
<path class="st0" d="M310.4,528.8c0,1.1,0.2,2.1,0.5,2.8c0.7,1.4,1.9,2,3.7,2c1.1,0,2-0.4,2.9-1.1s1.2-1.8,1.2-3.2
	c0-1.9-0.8-3.1-2.3-3.7c-0.9-0.3-2.2-0.5-4-0.5v-4c1.8,0,3.1-0.2,3.8-0.5c1.2-0.5,1.9-1.7,1.9-3.3c0-1.1-0.3-2-0.9-2.6s-1.5-1-2.7-1
	c-1.3,0-2.3,0.4-2.9,1.2c-0.6,0.8-0.9,2-0.9,3.3h-5.2c0-1.4,0.3-2.7,0.7-4c0.5-1.1,1.2-2.1,2.1-3.1c0.7-0.7,1.6-1.2,2.6-1.5
	s2.2-0.5,3.7-0.5c2.7,0,4.9,0.7,6.5,2.1c1.7,1.4,2.5,3.3,2.5,5.6c0,1.7-0.5,3.1-1.5,4.2c-0.6,0.7-1.3,1.2-2,1.5
	c0.5,0,1.2,0.4,2.2,1.3c1.4,1.3,2.1,3.1,2.1,5.4c0,2.4-0.8,4.5-2.5,6.3s-4.1,2.7-7.4,2.7c-4,0-6.8-1.3-8.4-3.9
	c-0.8-1.4-1.3-3.2-1.4-5.5L310.4,528.8L310.4,528.8z"/>
<path class="st0" d="M332.7,529.9c0.2,1.2,0.6,2.2,1.3,2.8c0.6,0.7,1.5,1,2.7,1c1.4,0,2.4-0.5,3.1-1.5c0.7-1,1.1-2.2,1.1-3.7
	s-0.3-2.7-1-3.7c-0.7-1-1.7-1.5-3.2-1.5c-0.7,0-1.3,0.1-1.8,0.2c-0.9,0.3-1.5,0.9-2,1.7l-5-0.2l2-15.6h15.6v4.7h-11.6l-1,6.2
	c0.9-0.6,1.5-0.9,2-1.1c0.8-0.3,1.8-0.5,3-0.5c2.3,0,4.4,0.8,6.1,2.4c1.7,1.6,2.6,3.9,2.6,6.9c0,2.6-0.8,5-2.5,7
	c-1.7,2.1-4.2,3.1-7.5,3.1c-2.7,0-4.9-0.7-6.6-2.2s-2.7-3.5-2.9-6.2L332.7,529.9L332.7,529.9z"/>
<path class="st0" d="M271.7,897.1v-3.8c1.8-0.1,3-0.2,3.7-0.3c1.1-0.2,2-0.7,2.7-1.5c0.5-0.5,0.8-1.2,1.1-2c0.1-0.5,0.2-0.9,0.2-1.1
	h4.6v28.3h-5.7v-19.5L271.7,897.1L271.7,897.1z"/>
<path class="st0" d="M300.8,893.9v6.8h-6.8v-6.8H300.8z M300.8,910.7v6.8h-6.8v-6.8H300.8z"/>
<path class="st0" d="M306.5,897.1v-3.8c1.8-0.1,3-0.2,3.7-0.3c1.1-0.2,2-0.7,2.7-1.5c0.5-0.5,0.8-1.2,1.1-2c0.1-0.5,0.2-0.9,0.2-1.1
	h4.6v28.3h-5.7v-19.5L306.5,897.1L306.5,897.1z"/>
<path class="st0" d="M344.6,892c1.5,2.5,2.2,6.2,2.2,10.8s-0.7,8.3-2.2,10.8c-1.5,2.5-4,3.8-7.6,3.8s-6.1-1.3-7.6-3.8
	c-1.5-2.5-2.2-6.1-2.2-10.8s0.7-8.3,2.2-10.8s4-3.8,7.6-3.8S343.2,889.4,344.6,892z M333.7,910.2c0.5,1.7,1.6,2.6,3.3,2.6
	s2.7-0.9,3.2-2.6c0.5-1.7,0.8-4.2,0.8-7.5s-0.3-5.9-0.8-7.6s-1.6-2.5-3.2-2.5s-2.8,0.8-3.3,2.5s-0.8,4.2-0.8,7.6
	S333.2,908.5,333.7,910.2z"/>
<path class="st0" d="M288.3,1081.5c1.5,2.5,2.2,6.2,2.2,10.8s-0.7,8.3-2.2,10.8c-1.5,2.5-4,3.8-7.6,3.8s-6.1-1.3-7.6-3.8
	c-1.5-2.5-2.2-6.1-2.2-10.8s0.7-8.3,2.2-10.8s4-3.8,7.6-3.8S286.8,1079,288.3,1081.5z M277.4,1099.8c0.5,1.7,1.6,2.6,3.3,2.6
	s2.7-0.9,3.2-2.6c0.5-1.7,0.8-4.2,0.8-7.5s-0.3-5.9-0.8-7.6s-1.6-2.5-3.2-2.5s-2.8,0.8-3.3,2.5s-0.8,4.2-0.8,7.6
	S276.9,1098.1,277.4,1099.8z"/>
<path class="st0" d="M301.6,1083.5v6.8h-6.8v-6.8H301.6z M301.6,1100.3v6.8h-6.8v-6.8H301.6z"/>
<path class="st0" d="M311.1,1098.7c0.2,1.2,0.6,2.2,1.3,2.8c0.6,0.7,1.5,1,2.7,1c1.4,0,2.4-0.5,3.1-1.5c0.7-1,1.1-2.2,1.1-3.7
	s-0.3-2.7-1-3.7c-0.7-1-1.7-1.5-3.2-1.5c-0.7,0-1.3,0.1-1.8,0.2c-0.9,0.3-1.5,0.9-2,1.7l-5-0.2l2-15.6H324v4.7h-11.6l-1,6.2
	c0.9-0.6,1.5-0.9,2-1.1c0.8-0.3,1.8-0.4,3-0.4c2.3,0,4.4,0.8,6.1,2.4c1.7,1.6,2.6,3.9,2.6,6.9c0,2.6-0.8,5-2.5,7
	c-1.7,2.1-4.2,3.1-7.5,3.1c-2.7,0-4.9-0.7-6.6-2.2c-1.7-1.4-2.7-3.5-2.9-6.2L311.1,1098.7L311.1,1098.7z"/>
<path class="st0" d="M345.4,1081.5c1.5,2.5,2.2,6.2,2.2,10.8s-0.7,8.3-2.2,10.8c-1.5,2.5-4,3.8-7.6,3.8s-6.1-1.3-7.6-3.8
	c-1.5-2.5-2.2-6.1-2.2-10.8s0.7-8.3,2.2-10.8s4-3.8,7.6-3.8S343.9,1079,345.4,1081.5z M334.5,1099.8c0.5,1.7,1.6,2.6,3.3,2.6
	s2.7-0.9,3.2-2.6c0.5-1.7,0.8-4.2,0.8-7.5s-0.3-5.9-0.8-7.6s-1.6-2.5-3.2-2.5s-2.8,0.8-3.3,2.5s-0.8,4.2-0.8,7.6
	S334,1098.1,334.5,1099.8z"/>
<path class="st0" d="M288.4,1271.1c1.5,2.5,2.2,6.2,2.2,10.8s-0.7,8.3-2.2,10.8c-1.5,2.5-4,3.8-7.6,3.8s-6.1-1.3-7.6-3.8
	c-1.5-2.5-2.2-6.1-2.2-10.8s0.7-8.3,2.2-10.8s4-3.8,7.6-3.8S286.9,1268.6,288.4,1271.1z M277.5,1289.4c0.5,1.7,1.6,2.6,3.3,2.6
	s2.7-0.9,3.2-2.6s0.8-4.2,0.8-7.5s-0.3-5.9-0.8-7.6s-1.6-2.5-3.2-2.5s-2.8,0.8-3.3,2.5s-0.8,4.2-0.8,7.6S277,1287.7,277.5,1289.4z"
	/>
<path class="st0" d="M301.7,1273.1v6.8h-6.8v-6.8H301.7z M301.7,1289.9v6.8h-6.8v-6.8H301.7z"/>
<path class="st0" d="M311.2,1288.2c0.2,1.2,0.6,2.1,1.3,2.8c0.6,0.7,1.5,1,2.7,1c1.4,0,2.4-0.5,3.1-1.5s1.1-2.2,1.1-3.7
	s-0.3-2.7-1-3.7c-0.7-1-1.7-1.5-3.2-1.5c-0.7,0-1.3,0.1-1.8,0.2c-0.9,0.3-1.5,0.9-2,1.7l-5-0.2l2-15.6h15.6v4.7h-11.6l-1,6.2
	c0.9-0.6,1.5-0.9,2-1.1c0.8-0.3,1.8-0.4,3-0.4c2.3,0,4.4,0.8,6.1,2.4c1.7,1.6,2.6,3.9,2.6,6.9c0,2.6-0.8,4.9-2.5,7s-4.2,3.1-7.5,3.1
	c-2.7,0-4.9-0.7-6.6-2.2c-1.7-1.4-2.7-3.5-2.9-6.2L311.2,1288.2L311.2,1288.2z"/>
<path class="st0" d="M333.5,1288.2c0.2,1.2,0.6,2.1,1.3,2.8c0.6,0.7,1.5,1,2.7,1c1.4,0,2.4-0.5,3.1-1.5s1.1-2.2,1.1-3.7
	s-0.3-2.7-1-3.7c-0.7-1-1.7-1.5-3.2-1.5c-0.7,0-1.3,0.1-1.8,0.2c-0.9,0.3-1.5,0.9-2,1.7l-5-0.2l2-15.6h15.6v4.7h-11.6l-1,6.2
	c0.9-0.6,1.5-0.9,2-1.1c0.8-0.3,1.8-0.4,3-0.4c2.3,0,4.4,0.8,6.1,2.4c1.7,1.6,2.6,3.9,2.6,6.9c0,2.6-0.8,4.9-2.5,7s-4.2,3.1-7.5,3.1
	c-2.7,0-4.9-0.7-6.6-2.2c-1.7-1.4-2.7-3.5-2.9-6.2L333.5,1288.2L333.5,1288.2z"/>
<path class="st0" d="M288.3,1460.7c1.5,2.5,2.2,6.2,2.2,10.8s-0.7,8.3-2.2,10.8c-1.5,2.5-4,3.8-7.6,3.8s-6.1-1.3-7.6-3.8
	c-1.5-2.5-2.2-6.1-2.2-10.8s0.7-8.3,2.2-10.8s4-3.8,7.6-3.8S286.8,1458.1,288.3,1460.7z M277.4,1479c0.5,1.7,1.6,2.6,3.3,2.6
	s2.7-0.9,3.2-2.6c0.5-1.7,0.8-4.2,0.8-7.5s-0.3-5.9-0.8-7.6s-1.6-2.5-3.2-2.5s-2.8,0.8-3.3,2.5s-0.8,4.2-0.8,7.6
	S276.9,1477.3,277.4,1479z"/>
<path class="st0" d="M301.6,1462.6v6.8h-6.8v-6.8H301.6z M301.6,1479.4v6.8h-6.8v-6.8H301.6z"/>
<path class="st0" d="M307.3,1465.9v-3.8c1.8-0.1,3-0.2,3.7-0.3c1.1-0.2,2-0.7,2.7-1.5c0.5-0.5,0.8-1.2,1.1-2
	c0.1-0.5,0.2-0.9,0.2-1.1h4.6v28.3h-5.7v-19.5L307.3,1465.9L307.3,1465.9z"/>
<path class="st0" d="M345.4,1460.7c1.5,2.5,2.2,6.2,2.2,10.8s-0.7,8.3-2.2,10.8c-1.5,2.5-4,3.8-7.6,3.8s-6.1-1.3-7.6-3.8
	c-1.5-2.5-2.2-6.1-2.2-10.8s0.7-8.3,2.2-10.8s4-3.8,7.6-3.8S343.9,1458.1,345.4,1460.7z M334.5,1479c0.5,1.7,1.6,2.6,3.3,2.6
	s2.7-0.9,3.2-2.6c0.5-1.7,0.8-4.2,0.8-7.5s-0.3-5.9-0.8-7.6s-1.6-2.5-3.2-2.5s-2.8,0.8-3.3,2.5s-0.8,4.2-0.8,7.6
	S334,1477.3,334.5,1479z"/>
<path class="st0" d="M659.8,1460.7c1.5,2.5,2.2,6.2,2.2,10.8s-0.7,8.3-2.2,10.8c-1.5,2.5-4,3.8-7.6,3.8s-6.1-1.3-7.6-3.8
	s-2.2-6.1-2.2-10.8s0.7-8.3,2.2-10.8s4-3.8,7.6-3.8S658.3,1458.1,659.8,1460.7z M648.9,1479c0.5,1.7,1.6,2.6,3.3,2.6
	s2.7-0.9,3.2-2.6c0.5-1.7,0.8-4.2,0.8-7.5s-0.3-5.9-0.8-7.6s-1.6-2.5-3.2-2.5s-2.8,0.8-3.3,2.5s-0.8,4.2-0.8,7.6
	S648.4,1477.3,648.9,1479z"/>
<path class="st0" d="M673.1,1462.6v6.8h-6.8v-6.8H673.1z M673.1,1479.4v6.8h-6.8v-6.8H673.1z"/>
<path class="st0" d="M678.8,1465.9v-3.8c1.8-0.1,3-0.2,3.7-0.3c1.1-0.2,2-0.7,2.7-1.5c0.5-0.5,0.8-1.2,1.1-2
	c0.1-0.5,0.2-0.9,0.2-1.1h4.7v28.3h-5.7v-19.5L678.8,1465.9L678.8,1465.9z"/>
<path class="st0" d="M716.9,1460.7c1.5,2.5,2.2,6.2,2.2,10.8s-0.7,8.3-2.2,10.8c-1.5,2.5-4,3.8-7.6,3.8s-6.1-1.3-7.6-3.8
	s-2.2-6.1-2.2-10.8s0.7-8.3,2.2-10.8s4-3.8,7.6-3.8S715.4,1458.1,716.9,1460.7z M706,1479c0.5,1.7,1.6,2.6,3.3,2.6s2.7-0.9,3.2-2.6
	c0.5-1.7,0.8-4.2,0.8-7.5s-0.3-5.9-0.8-7.6s-1.6-2.5-3.2-2.5s-2.8,0.8-3.3,2.5s-0.8,4.2-0.8,7.6S705.5,1477.3,706,1479z"/>
<path class="st0" d="M659.8,1271.1c1.5,2.5,2.2,6.2,2.2,10.8s-0.7,8.3-2.2,10.8s-4,3.8-7.6,3.8s-6.1-1.3-7.6-3.8s-2.2-6.1-2.2-10.8
	s0.7-8.3,2.2-10.8s4-3.8,7.6-3.8S658.3,1268.6,659.8,1271.1z M648.9,1289.4c0.5,1.7,1.6,2.6,3.3,2.6s2.7-0.9,3.2-2.6
	s0.8-4.2,0.8-7.5s-0.3-5.9-0.8-7.6s-1.6-2.5-3.2-2.5s-2.8,0.8-3.3,2.5s-0.8,4.2-0.8,7.6S648.4,1287.7,648.9,1289.4z"/>
<path class="st0" d="M673.1,1273.1v6.8h-6.8v-6.8H673.1z M673.1,1289.9v6.8h-6.8v-6.8H673.1z"/>
<path class="st0" d="M697,1289.7h-3.2v6.1h-5.5v-6.1h-11.2v-4.9l10.4-17.2h6.2v17.7h3.2L697,1289.7L697,1289.7z M688.3,1285.4v-12.2
	l-7.1,12.2H688.3z"/>
<path class="st0" d="M704.9,1288.2c0.2,1.2,0.6,2.2,1.3,2.8s1.5,1,2.7,1c1.4,0,2.4-0.5,3.2-1.5s1.1-2.2,1.1-3.7s-0.3-2.7-1-3.7
	c-0.7-1-1.7-1.5-3.2-1.5c-0.7,0-1.3,0.1-1.8,0.2c-0.9,0.3-1.5,0.9-2,1.7l-5-0.2l2-15.6h15.6v4.7h-11.6l-1,6.2c0.9-0.6,1.5-0.9,2-1.1
	c0.8-0.3,1.8-0.4,3-0.4c2.3,0,4.4,0.8,6.1,2.4c1.7,1.6,2.6,3.9,2.6,6.9c0,2.6-0.8,4.9-2.5,7s-4.2,3.1-7.5,3.1
	c-2.7,0-4.9-0.7-6.6-2.2c-1.7-1.4-2.7-3.5-2.9-6.2L704.9,1288.2L704.9,1288.2z"/>
<path class="st0" d="M659.8,892c1.5,2.5,2.2,6.2,2.2,10.8s-0.7,8.3-2.2,10.8c-1.5,2.5-4,3.8-7.6,3.8s-6.1-1.3-7.6-3.8
	c-1.5-2.5-2.2-6.1-2.2-10.8s0.7-8.3,2.2-10.8s4-3.8,7.6-3.8S658.3,889.4,659.8,892z M648.9,910.2c0.5,1.7,1.6,2.6,3.3,2.6
	s2.7-0.9,3.2-2.6c0.5-1.7,0.8-4.2,0.8-7.5s-0.3-5.9-0.8-7.6s-1.6-2.5-3.2-2.5s-2.8,0.8-3.3,2.5s-0.8,4.2-0.8,7.6
	S648.4,908.5,648.9,910.2z"/>
<path class="st0" d="M673.1,893.9v6.8h-6.8v-6.8H673.1z M673.1,910.7v6.8h-6.8v-6.8H673.1z"/>
<path class="st0" d="M697,910.6h-3.2v6.1h-5.5v-6.1h-11.2v-4.9l10.4-17.2h6.2v17.7h3.2L697,910.6L697,910.6z M688.3,906.2V894
	l-7.1,12.2H688.3z"/>
<path class="st0" d="M704.9,909.1c0.2,1.2,0.6,2.2,1.3,2.8c0.6,0.7,1.5,1,2.7,1c1.4,0,2.4-0.5,3.2-1.5c0.7-1,1.1-2.2,1.1-3.7
	s-0.3-2.7-1-3.7c-0.7-1-1.7-1.5-3.2-1.5c-0.7,0-1.3,0.1-1.8,0.2c-0.9,0.3-1.5,0.9-2,1.7l-5-0.2l2-15.6h15.6v4.7h-11.6l-1,6.2
	c0.9-0.6,1.5-0.9,2-1.1c0.8-0.3,1.8-0.5,3-0.5c2.3,0,4.4,0.8,6.1,2.4c1.7,1.6,2.6,3.9,2.6,6.9c0,2.6-0.8,5-2.5,7
	c-1.7,2.1-4.2,3.1-7.5,3.1c-2.7,0-4.9-0.7-6.6-2.2s-2.7-3.5-2.9-6.2L704.9,909.1L704.9,909.1z"/>
<path class="st0" d="M659.8,1081.5c1.5,2.5,2.2,6.2,2.2,10.8s-0.7,8.3-2.2,10.8c-1.5,2.5-4,3.8-7.6,3.8s-6.1-1.3-7.6-3.8
	s-2.2-6.1-2.2-10.8s0.7-8.3,2.2-10.8c1.5-2.5,4-3.8,7.6-3.8S658.3,1079,659.8,1081.5z M648.9,1099.8c0.5,1.7,1.6,2.6,3.3,2.6
	s2.7-0.9,3.2-2.6c0.5-1.7,0.8-4.2,0.8-7.5s-0.3-5.9-0.8-7.6s-1.6-2.5-3.2-2.5s-2.8,0.8-3.3,2.5s-0.8,4.2-0.8,7.6
	S648.4,1098.1,648.9,1099.8z"/>
<path class="st0" d="M673.1,1083.5v6.8h-6.8v-6.8H673.1z M673.1,1100.3v6.8h-6.8v-6.8H673.1z"/>
<path class="st0" d="M697,1100.2h-3.2v6.1h-5.5v-6.1h-11.2v-4.9l10.4-17.2h6.2v17.7h3.2L697,1100.2L697,1100.2z M688.3,1095.8v-12.2
	l-7.1,12.2H688.3z"/>
<path class="st0" d="M716.9,1081.5c1.5,2.5,2.2,6.2,2.2,10.8s-0.7,8.3-2.2,10.8c-1.5,2.5-4,3.8-7.6,3.8s-6.1-1.3-7.6-3.8
	s-2.2-6.1-2.2-10.8s0.7-8.3,2.2-10.8c1.5-2.5,4-3.8,7.6-3.8S715.4,1079,716.9,1081.5z M706,1099.8c0.5,1.7,1.6,2.6,3.3,2.6
	s2.7-0.9,3.2-2.6c0.5-1.7,0.8-4.2,0.8-7.5s-0.3-5.9-0.8-7.6s-1.6-2.5-3.2-2.5s-2.8,0.8-3.3,2.5s-0.8,4.2-0.8,7.6
	S705.5,1098.1,706,1099.8z"/>
<path class="st0" d="M659.8,702.4c1.5,2.5,2.2,6.2,2.2,10.8s-0.7,8.3-2.2,10.8c-1.5,2.5-4,3.8-7.6,3.8s-6.1-1.3-7.6-3.8
	c-1.5-2.5-2.2-6.1-2.2-10.8s0.7-8.3,2.2-10.8s4-3.8,7.6-3.8S658.3,699.9,659.8,702.4z M648.9,720.7c0.5,1.7,1.6,2.6,3.3,2.6
	s2.7-0.9,3.2-2.6c0.5-1.7,0.8-4.2,0.8-7.5s-0.3-5.9-0.8-7.6s-1.6-2.5-3.2-2.5s-2.8,0.8-3.3,2.5s-0.8,4.2-0.8,7.6
	S648.4,719,648.9,720.7z"/>
<path class="st0" d="M673.1,704.3v6.8h-6.8v-6.8H673.1z M673.1,721.1v6.8h-6.8v-6.8H673.1z"/>
<path class="st0" d="M697,721h-3.2v6.1h-5.5V721h-11.2v-4.9l10.4-17.2h6.2v17.7h3.2L697,721L697,721z M688.3,716.6v-12.2l-7.1,12.2
	H688.3z"/>
<path class="st0" d="M716.9,702.4c1.5,2.5,2.2,6.2,2.2,10.8s-0.7,8.3-2.2,10.8c-1.5,2.5-4,3.8-7.6,3.8s-6.1-1.3-7.6-3.8
	c-1.5-2.5-2.2-6.1-2.2-10.8s0.7-8.3,2.2-10.8s4-3.8,7.6-3.8S715.4,699.9,716.9,702.4z M706,720.7c0.5,1.7,1.6,2.6,3.3,2.6
	s2.7-0.9,3.2-2.6c0.5-1.7,0.8-4.2,0.8-7.5s-0.3-5.9-0.8-7.6s-1.6-2.5-3.2-2.5s-2.8,0.8-3.3,2.5s-0.8,4.2-0.8,7.6
	S705.5,719,706,720.7z"/>
<path class="st0" d="M288.4,702.4c1.5,2.5,2.2,6.2,2.2,10.8s-0.7,8.3-2.2,10.8c-1.5,2.5-4,3.8-7.6,3.8s-6.1-1.3-7.6-3.8
	c-1.5-2.5-2.2-6.1-2.2-10.8s0.7-8.3,2.2-10.8s4-3.8,7.6-3.8S286.9,699.9,288.4,702.4z M277.5,720.7c0.5,1.7,1.6,2.6,3.3,2.6
	s2.7-0.9,3.2-2.6c0.5-1.7,0.8-4.2,0.8-7.5s-0.3-5.9-0.8-7.6s-1.6-2.5-3.2-2.5s-2.8,0.8-3.3,2.5s-0.8,4.2-0.8,7.6
	S277,719,277.5,720.7z"/>
<path class="st0" d="M301.7,704.3v6.8h-6.8v-6.8H301.7z M301.7,721.1v6.8h-6.8v-6.8H301.7z"/>
<path class="st0" d="M325.5,721h-3.2v6.1h-5.5V721h-11.2v-4.9l10.4-17.2h6.2v17.7h3.2V721L325.5,721z M316.9,716.6v-12.2l-7.1,12.2
	H316.9z"/>
<path class="st0" d="M333.5,719.5c0.2,1.2,0.6,2.2,1.3,2.8c0.6,0.7,1.5,1,2.7,1c1.4,0,2.4-0.5,3.1-1.5c0.7-1,1.1-2.2,1.1-3.7
	s-0.3-2.7-1-3.7c-0.7-1-1.7-1.5-3.2-1.5c-0.7,0-1.3,0.1-1.8,0.2c-0.9,0.3-1.5,0.9-2,1.7l-5-0.2l2-15.6h15.6v4.7h-11.6l-1,6.2
	c0.9-0.6,1.5-0.9,2-1.1c0.8-0.3,1.8-0.5,3-0.5c2.3,0,4.4,0.8,6.1,2.4c1.7,1.6,2.6,3.9,2.6,6.9c0,2.6-0.8,5-2.5,7
	c-1.7,2.1-4.2,3.1-7.5,3.1c-2.7,0-4.9-0.7-6.6-2.2s-2.7-3.5-2.9-6.2L333.5,719.5L333.5,719.5z"/>
</svg>
