<?xml version="1.0" encoding="UTF-8"?>
<svg id="_レイヤー_1" data-name="レイヤー 1" xmlns="http://www.w3.org/2000/svg" viewBox="0 0 250 250">
  <defs>
    <style>
      .cls-1 {
        fill: #247388;
      }
    </style>
  </defs>
  <path id="_パス_16" data-name="パス 16" class="cls-1" d="m26.04,220.89V45.48c0-5.56,6.18-8.91,10.83-5.86l11.79,7.71c1.1.72,1.97,1.73,2.52,2.92l7.01,15.14c.66,1.43,1.79,2.59,3.19,3.3l17.98,9.09c1.31.66,2.38,1.73,3.06,3.03l6.09,11.78c.7,1.36,1.84,2.46,3.22,3.11l31.26,14.81c1.38.65,2.5,1.74,3.21,3.09l14.87,28.5c.57,1.09,1.41,2.01,2.45,2.67l10.92,6.94c1.85,1.18,3.04,3.15,3.22,5.33l.85,10.25c.17,2.01,1.19,3.84,2.81,5.04l15.5,11.5c1.33.98,2.26,2.41,2.64,4.02l2.08,8.83c.27,1.16.84,2.23,1.64,3.11l14.93,16.39c4.1,4.5.91,11.72-5.18,11.72H33.05c-3.87,0-7-3.13-7-7Z"/>
  <path class="cls-1" d="m132.14,88.26h-12.75c-4.08,0-7.97-1.96-10.39-5.25l-7.57-10.28c-2.35-3.19-3.1-7.21-2.06-11.03l4.24-15.6c.71-2.62,2.2-4.91,4.3-6.62l8.09-6.59c3.36-2.74,7.84-3.6,11.98-2.32l14.62,4.54c3.98,1.24,7.13,4.34,8.43,8.3l3.46,10.55c1.15,3.5.74,7.32-1.1,10.5l-10.1,17.38c-2.3,3.96-6.58,6.42-11.15,6.42Zm-21.77-40.33l-4.24,15.6c-.48,1.75-.13,3.59.94,5.05l7.57,10.28c1.11,1.5,2.88,2.4,4.75,2.4h12.75c2.09,0,4.05-1.12,5.1-2.94l10.1-17.38c.84-1.45,1.03-3.21.5-4.81l-3.46-10.55c-.59-1.81-2.04-3.23-3.86-3.8l-14.62-4.54c-1.89-.59-3.94-.19-5.48,1.06l-8.09,6.59c-.96.78-1.64,1.83-1.97,3.03h0Z"/>
  <path class="cls-1" d="m209.18,180.74h-.14c-4.08,0-7.97-1.96-10.39-5.25l-.37-.5c-2.35-3.19-3.1-7.21-2.06-11.04l.82-3c.71-2.62,2.2-4.91,4.3-6.62l.2-.16c3.36-2.74,7.84-3.6,11.97-2.32l1.38.43c3.98,1.24,7.13,4.34,8.43,8.3,1.15,3.49.75,7.32-1.1,10.5l-1.88,3.23c-2.3,3.96-6.58,6.42-11.16,6.42Zm.5-22.46c-1.34,0-2.65.46-3.72,1.33l-.19.16c-.96.78-1.64,1.83-1.97,3.03h0s-.82,3-.82,3c-.47,1.75-.13,3.59.94,5.05l.37.5c1.11,1.5,2.88,2.4,4.75,2.4h.14c2.09,0,4.05-1.12,5.1-2.94l1.88-3.23c.85-1.46,1.03-3.21.5-4.8-.59-1.81-2.04-3.23-3.86-3.79l-1.38-.43c-.58-.18-1.17-.27-1.75-.27Z"/>
  <path class="cls-1" d="m195.96,85.93c-1.43,0-2.87-.24-4.28-.73l-4.1-1.44c-5.41-1.9-8.95-7.22-8.61-12.94l.15-2.53c.38-6.31,5.21-11.38,11.49-12.06l4.94-.54c6.2-.68,11.99,3.18,13.76,9.17l.76,2.56c1.26,4.27.19,8.98-2.79,12.29l-1.75,1.94c-2.5,2.77-5.99,4.27-9.57,4.27Zm.99-23.31c-.21,0-.43.01-.64.03l-4.94.54c-2.87.31-5.08,2.63-5.25,5.51h0s-.15,2.53-.15,2.53c-.16,2.62,1.46,5.05,3.94,5.92l4.1,1.44c2.25.79,4.74.15,6.33-1.62l1.75-1.94c1.36-1.51,1.85-3.67,1.28-5.62l-.76-2.56c-.75-2.53-3.07-4.23-5.65-4.23Z"/>
  <path class="cls-1" d="m157.96,106.99c-.88,0-1.76-.15-2.62-.45l-1.92-.67c-3.31-1.16-5.48-4.42-5.27-7.92l.07-1.18c.23-3.86,3.19-6.96,7.03-7.38l2.31-.25c3.8-.41,7.34,1.95,8.42,5.61l.35,1.2c.77,2.62.12,5.5-1.71,7.52l-.82.91c-1.53,1.69-3.66,2.61-5.86,2.61Zm-2.75-9.81l-.07,1.18c-.02.4.22.77.6.9l1.92.67c.34.12.72.02.96-.25l.82-.91c.21-.23.28-.56.19-.85l-.35-1.2c-.12-.42-.52-.68-.96-.64l-2.31.25c-.44.05-.77.4-.8.84Z"/>
  <path class="cls-1" d="m81.46,40c-.88,0-1.76-.15-2.62-.45l-1.92-.67c-3.31-1.16-5.48-4.42-5.27-7.92l.07-1.18c.23-3.86,3.19-6.96,7.03-7.38l2.31-.25c3.8-.42,7.34,1.95,8.42,5.61l.35,1.2c.77,2.62.12,5.5-1.71,7.52l-.82.91c-1.53,1.69-3.66,2.61-5.86,2.61Zm.46-10.9s-.06,0-.1,0l-2.31.25c-.44.05-.77.4-.8.84h0s-.07,1.18-.07,1.18c-.02.4.22.77.6.9l1.92.67c.34.12.72.02.96-.25l.82-.91c.21-.23.28-.56.19-.85l-.35-1.2c-.11-.38-.47-.64-.86-.64Z"/>
  <path class="cls-1" d="m187.15,146.64c-1.43,0-2.87-.24-4.28-.73l-10.09-3.53c-5.41-1.9-8.96-7.22-8.61-12.94l.53-8.82c.38-6.31,5.21-11.38,11.49-12.06l12.34-1.34c6.21-.67,11.99,3.18,13.76,9.17l2.36,7.99c1.26,4.27.19,8.99-2.79,12.29l-5.14,5.7c-2.5,2.77-5.99,4.27-9.57,4.27Zm-15.46-25.61l-.53,8.82c-.16,2.62,1.46,5.05,3.94,5.92l10.09,3.53c2.25.79,4.74.15,6.33-1.62l5.14-5.7c1.37-1.51,1.85-3.67,1.28-5.62l-2.36-7.99c-.81-2.74-3.45-4.5-6.29-4.19l-12.34,1.34c-2.87.31-5.08,2.63-5.25,5.51Z"/>
</svg>