<svg id="グループ_2909" data-name="グループ 2909" xmlns="http://www.w3.org/2000/svg" xmlns:xlink="http://www.w3.org/1999/xlink" width="112.014" height="104.906" viewBox="0 0 112.014 104.906">
  <defs>
    <clipPath id="clip-path">
      <rect id="長方形_8058" data-name="長方形 8058" width="112.014" height="104.906" fill="#247388"/>
    </clipPath>
  </defs>
  <g id="グループ_2908" data-name="グループ 2908" clip-path="url(#clip-path)">
    <path id="パス_1841" data-name="パス 1841" d="M77.611,92.678a2.556,2.556,0,0,1-.026-5.111l37.565-.4V21.637l-37.484.8a2.556,2.556,0,0,1-1.238-.29L44.551,5.484,19.477,20.476V89.7a2.556,2.556,0,0,1-5.111,0V19.027a2.556,2.556,0,0,1,1.244-2.194L43.155.363a2.555,2.555,0,0,1,2.5-.072L78.213,17.31l39.438-.838a2.51,2.51,0,0,1,1.842.729,2.555,2.555,0,0,1,.768,1.826V89.7a2.556,2.556,0,0,1-2.529,2.556l-40.094.426Z" transform="translate(-8.247 0)" fill="#247388"/>
    <path id="パス_1842" data-name="パス 1842" d="M19.086,111.115A3.894,3.894,0,0,1,15.891,105,50.14,50.14,0,0,1,31,91.523c8.9-5.045,22.964-8.687,39.373,2.607C96.223,111.922,113,93.49,113.7,92.7a3.894,3.894,0,0,1,5.866,5.123,38.189,38.189,0,0,1-14.913,9.682c-8.583,3.071-22.264,4.356-38.7-6.956C41,83.369,23.035,108.38,22.283,109.454a3.9,3.9,0,0,1-3.2,1.661" transform="translate(-8.723 -49.766)" fill="#247388"/>
    <line id="線_1277" data-name="線 1277" y2="54.435" transform="translate(37.072 4.576)" fill="#fff"/>
    <path id="パス_1843" data-name="パス 1843" d="M85.025,64.661a1.491,1.491,0,0,1-1.491-1.491V8.735a1.491,1.491,0,0,1,2.982,0V63.17a1.491,1.491,0,0,1-1.491,1.491" transform="translate(-47.952 -4.158)" fill="#247388"/>
    <line id="線_1278" data-name="線 1278" y2="68.327" transform="translate(70.013 20.558)" fill="#fff"/>
    <path id="パス_1844" data-name="パス 1844" d="M162.358,116.073a1.491,1.491,0,0,1-1.491-1.491V46.255a1.491,1.491,0,0,1,2.982,0v68.327a1.491,1.491,0,0,1-1.491,1.491" transform="translate(-92.345 -25.697)" fill="#247388"/>
    <path id="パス_1845" data-name="パス 1845" d="M2.843,223a2.841,2.841,0,0,1-1.513-5.246l18.477-11.6a2.84,2.84,0,1,1,3.021,4.811L4.351,222.56A2.826,2.826,0,0,1,2.843,223" transform="translate(0 -118.089)" fill="#247388"/>
    <path id="パス_1846" data-name="パス 1846" d="M61.795,178.627a23.372,23.372,0,1,1,16.535-6.838,23.311,23.311,0,0,1-16.535,6.838m0-41.075a17.7,17.7,0,1,0,12.518,5.186,17.585,17.585,0,0,0-12.518-5.186" transform="translate(-22.056 -75.7)" fill="#247388"/>
    <path id="パス_1847" data-name="パス 1847" d="M148.164,205.252a2.546,2.546,0,0,1-1.141-.27l-7.667-3.834a2.556,2.556,0,0,1,2.286-4.571l7.667,3.834a2.556,2.556,0,0,1-1.145,4.842" transform="translate(-79.185 -112.688)" fill="#247388"/>
    <path id="パス_1848" data-name="パス 1848" d="M18.026,203.383a2.556,2.556,0,0,1-1.145-4.842l8.462-4.231a2.556,2.556,0,0,1,2.286,4.572l-8.462,4.231a2.546,2.546,0,0,1-1.141.27" transform="translate(-8.879 -111.387)" fill="#247388"/>
  </g>
</svg>
