<?xml version="1.0" encoding="UTF-8"?>
<svg id="_レイヤー_1" data-name="レイヤー 1" xmlns="http://www.w3.org/2000/svg" viewBox="0 0 250 250">
  <defs>
    <style>
      .cls-1 {
        fill: #fff;
      }

      .cls-2 {
        fill: #247388;
      }
    </style>
  </defs>
  <path class="cls-2" d="m210.49,71.87l-19.31-19.31c-.96-.96-2.25-1.49-3.61-1.49h-41.18v-6.51c0-7.62-6.2-13.81-13.81-13.81h-29.7c-7.62,0-13.81,6.2-13.81,13.81v6.51h-54.4c-2.06,0-3.92,1.24-4.71,3.15-.79,1.91-.35,4.1,1.11,5.56l15.7,15.7-15.71,15.7c-1.46,1.46-1.9,3.65-1.11,5.56s2.65,3.15,4.71,3.15h54.41v16.53c0,1.66,1.34,3,3,3s3-1.34,3-3v-16.53h45.33v16.53c0,1.66,1.34,3,3,3s3-1.34,3-3v-16.53h41.18c1.35,0,2.65-.54,3.61-1.49l19.31-19.31c1.99-1.99,1.99-5.22,0-7.21Zm-107.88-20.8c-.41,0-.81.05-1.19.14h-6.34v-6.65c0-4.31,3.51-7.81,7.81-7.81h29.7c4.31,0,7.81,3.51,7.81,7.81v6.51h-37.79Z"/>
  <g>
    <path id="_パス_1218" data-name="パス 1218" class="cls-1" d="m92.92,78.53h4.09c-.14,1.08-.66,2.07-1.47,2.8-.85.73-1.94,1.11-3.06,1.07-1.26,0-2.47-.48-3.38-1.35-1.12-1.26-1.66-2.93-1.49-4.61-.13-1.73.36-3.44,1.37-4.85.86-1.05,2.15-1.64,3.51-1.61.7-.01,1.39.12,2.04.4,1.06.45,1.83,1.4,2.05,2.53h3.64c-.19-1.68-1.03-3.21-2.35-4.27-1.54-1.2-3.47-1.81-5.42-1.71-2.36-.1-4.65.85-6.25,2.59-1.64,1.91-2.49,4.37-2.36,6.88-.14,2.45.71,4.86,2.34,6.69,1.47,1.61,3.58,2.5,5.76,2.43,1.26.04,2.51-.27,3.6-.89.73-.49,1.38-1.08,1.92-1.77l.37,2.21h2.45v-9.49h-7.37v2.95Z"/>
    <path id="_パス_1219" data-name="パス 1219" class="cls-1" d="m114.26,78.24c.06.91-.09,1.82-.43,2.66-1.16,1.61-3.41,1.97-5.02.81-.31-.22-.58-.5-.81-.81-.34-.84-.49-1.75-.43-2.66v-10.87h-3.76v10.87c-.08,1.51.22,3.02.87,4.39,2.92,3.44,8.07,3.86,11.51.94.34-.29.65-.6.94-.94.65-1.37.95-2.88.87-4.39v-10.87h-3.76v10.87Z"/>
    <rect id="_長方形_6675" data-name="長方形 6675" class="cls-1" x="121.28" y="67.38" width="3.67" height="17.69"/>
    <path id="_パス_1220" data-name="パス 1220" class="cls-1" d="m141.78,70.01c-.73-1.06-1.79-1.85-3.01-2.24-.89-.26-1.81-.39-2.74-.38h-7.63v17.69h7.63c2.45.13,4.75-1.16,5.93-3.3,1-1.83,1.49-3.89,1.43-5.98,0-.99-.12-1.97-.34-2.93-.23-1.03-.66-2-1.27-2.85h0Zm-2.72,9.41c-.5,1.59-1.99,2.64-3.65,2.58h-3.41v-11.55h3.41c1.3-.17,2.6.38,3.37,1.45.64,1.29.93,2.71.85,4.15.03,1.15-.17,2.3-.57,3.38h0Z"/>
    <path id="_パス_1221" data-name="パス 1221" class="cls-1" d="m149.87,77.35h8.4v-3.07h-8.4v-3.76h9.17v-3.14h-12.78v17.69h13.21v-3.18h-9.6v-4.54Z"/>
  </g>
  <g>
    <g>
      <path class="cls-2" d="m51.7,143.58c2.78,0,5.57.11,8.34.32,1.77.14,3.43.95,4.66,2.23l12.46,12.92c1.16,1.2,2.75,1.87,4.41,1.87h4.05c2.22,0,4.02,1.8,4.02,4.02v.88c0,2.18-1.76,3.94-3.94,3.94h-4.83c-1.36,0-2.66-.53-3.63-1.48l-15.93-15.56v28.26l16.22,31.68c.05.09.01.2-.07.24l-2.17,1.22s-.06.02-.1.02c-.06,0-.12-.03-.16-.08l-19.76-26.9-6.24-8.49v-4.41c0-3.24-2.62-5.86-5.86-5.86h-7.4c-.14.01-.27.02-.4.02-2.45,0-4.54-1.85-4.8-4.33v-16.17c.26-2.48,2.35-4.33,4.79-4.33.13,0,.27,0,.41.02h12.79c1.04-.03,2.09-.04,3.13-.04m0-5.1h0c-1.06,0-2.14.02-3.21.04h-12.54c-.19-.01-.39-.02-.58-.02-5.1,0-9.34,3.83-9.87,8.91-.02.17-.03.35-.03.52v16.17c0,.17,0,.35.03.52.52,5.08,4.76,8.91,9.87,8.91.19,0,.38,0,.58-.02h7.23c.42,0,.76.34.76.76v4.41c0,1.09.35,2.15.99,3.02l6.24,8.49,19.76,26.9s.06.08.09.12c1.01,1.29,2.54,2.04,4.18,2.04.89,0,1.77-.22,2.54-.65.02-.01.04-.02.06-.03l2.17-1.22c2.49-1.44,3.4-4.52,2.09-7.03l-15.65-30.57v-14.92l7.26,7.09c1.93,1.89,4.49,2.93,7.19,2.93h4.83c4.99,0,9.04-4.06,9.04-9.04v-.88c0-5.03-4.09-9.12-9.12-9.12h-4.05c-.28,0-.55-.11-.74-.31l-12.46-12.92c-2.13-2.2-4.95-3.55-7.94-3.78-2.89-.22-5.83-.33-8.73-.33h0Z"/>
      <path class="cls-2" d="m55.42,115.13c4.91,0,8.82,4.25,8.27,9.27-.42,3.77-3.48,6.85-7.24,7.3-.34.04-.69.06-1.02.06-5.46,0-9.69-5.25-7.91-10.98,1.06-3.41,4.33-5.66,7.91-5.66h0m0-5.1c-5.83,0-11.08,3.8-12.78,9.24-1.31,4.23-.6,8.65,1.97,12.13,2.52,3.42,6.56,5.47,10.81,5.47.54,0,1.09-.03,1.63-.1,6.11-.73,11.03-5.69,11.71-11.81.42-3.81-.79-7.62-3.33-10.47-2.54-2.84-6.19-4.47-10-4.47h0Z"/>
      <path class="cls-2" d="m46.12,189.61c.56,0,1.12.25,1.49.76l2.66,3.62-14.54,19.8-1.56-.88c-.08-.05-.12-.15-.07-.24l10.34-22c.33-.7,1-1.06,1.68-1.06m0-5.1c-2.68,0-5.16,1.57-6.3,3.99l-10.33,21.97c-1.21,2.53-.26,5.54,2.2,6.9l1.54.86c.79.44,1.65.65,2.49.65,1.58,0,3.12-.73,4.12-2.08l14.54-19.8c1.32-1.8,1.32-4.24,0-6.04l-2.66-3.62c-1.3-1.78-3.4-2.84-5.6-2.84h0Z"/>
    </g>
    <g>
      <path class="cls-2" d="m120.22,143.58c2.78,0,5.57.11,8.34.32,1.77.14,3.43.95,4.66,2.23l12.46,12.92c1.16,1.2,2.75,1.87,4.41,1.87h4.05c2.22,0,4.02,1.8,4.02,4.02v.88c0,2.18-1.76,3.94-3.94,3.94h-4.83c-1.36,0-2.66-.53-3.63-1.48l-15.93-15.56v28.26l16.22,31.68c.05.09.01.2-.07.24l-2.17,1.22s-.06.02-.1.02c-.06,0-.12-.03-.16-.08l-19.76-26.9-6.24-8.49v-4.41c0-3.24-2.62-5.86-5.86-5.86h-7.4c-.14.01-.27.02-.4.02-2.45,0-4.54-1.85-4.8-4.33v-16.17c.26-2.48,2.35-4.33,4.79-4.33.13,0,.27,0,.41.02h12.79c1.04-.03,2.09-.04,3.13-.04m0-5.1h0c-1.06,0-2.14.02-3.21.04h-12.54c-.19-.01-.39-.02-.58-.02-5.1,0-9.34,3.83-9.87,8.91-.02.17-.03.35-.03.52v16.17c0,.17,0,.35.03.52.52,5.08,4.76,8.91,9.87,8.91.19,0,.38,0,.58-.02h7.23c.42,0,.76.34.76.76v4.41c0,1.09.35,2.15.99,3.02l6.24,8.49,19.76,26.9s.06.08.09.12c1.01,1.3,2.54,2.04,4.18,2.04.89,0,1.77-.22,2.54-.65.02-.01.04-.02.06-.03l2.17-1.22c2.49-1.43,3.4-4.52,2.09-7.03l-15.65-30.57v-14.92l7.26,7.09c1.93,1.89,4.49,2.93,7.19,2.93h4.83c4.99,0,9.04-4.06,9.04-9.04v-.88c0-5.03-4.09-9.12-9.12-9.12h-4.05c-.28,0-.55-.11-.74-.31l-12.46-12.92c-2.13-2.2-4.95-3.55-7.94-3.78-2.89-.22-5.83-.33-8.73-.33h0Z"/>
      <path class="cls-2" d="m123.94,115.13c4.91,0,8.82,4.25,8.27,9.27-.42,3.77-3.48,6.85-7.24,7.3-.34.04-.69.06-1.02.06-5.46,0-9.69-5.25-7.91-10.98,1.06-3.41,4.33-5.66,7.91-5.66h0m0-5.1c-5.83,0-11.08,3.8-12.78,9.24-1.31,4.23-.6,8.65,1.97,12.13,2.52,3.42,6.56,5.47,10.81,5.47.54,0,1.09-.03,1.63-.1,6.11-.73,11.03-5.69,11.71-11.81.42-3.81-.79-7.62-3.33-10.47-2.54-2.84-6.19-4.47-10-4.47h0Z"/>
      <path class="cls-2" d="m114.64,189.61c.56,0,1.12.25,1.49.76l2.66,3.62-14.54,19.8-1.56-.88c-.08-.05-.12-.15-.07-.24l10.34-22c.33-.7,1-1.06,1.68-1.06m0-5.1c-2.68,0-5.16,1.57-6.3,4l-10.33,21.97c-1.21,2.53-.26,5.54,2.2,6.9l1.53.86c.79.44,1.65.65,2.49.65,1.58,0,3.12-.73,4.12-2.08l14.54-19.8c1.32-1.8,1.32-4.24,0-6.04l-2.66-3.62c-1.31-1.78-3.4-2.84-5.6-2.84h0Z"/>
    </g>
    <g>
      <path class="cls-2" d="m188.74,143.58c2.78,0,5.57.11,8.34.32,1.77.14,3.43.95,4.66,2.23l12.46,12.92c1.16,1.2,2.75,1.87,4.41,1.87h4.05c2.22,0,4.02,1.8,4.02,4.02v.88c0,2.18-1.76,3.94-3.94,3.94h-4.83c-1.36,0-2.66-.53-3.63-1.48l-15.93-15.56v28.26l16.22,31.68c.05.09.01.2-.07.24l-2.17,1.22s-.06.02-.1.02c-.06,0-.12-.03-.16-.08l-19.76-26.9-6.24-8.49v-4.41c0-3.24-2.62-5.86-5.86-5.86h-7.4c-.14.01-.27.02-.4.02-2.45,0-4.54-1.85-4.8-4.33v-16.17c.26-2.48,2.35-4.33,4.79-4.33.13,0,.27,0,.41.02h12.79c1.04-.03,2.09-.04,3.13-.04m0-5.1h0c-1.06,0-2.14.02-3.21.04h-12.54c-.19-.01-.39-.02-.58-.02-5.1,0-9.34,3.83-9.87,8.91-.02.17-.03.35-.03.52v16.17c0,.17,0,.35.03.52.52,5.08,4.77,8.91,9.87,8.91.19,0,.38,0,.58-.02h7.23c.42,0,.76.34.76.76v4.41c0,1.09.35,2.15.99,3.02l6.24,8.49,19.76,26.9s.06.08.1.13c1.01,1.29,2.54,2.04,4.18,2.04.89,0,1.77-.22,2.54-.65.02-.01.04-.02.06-.03l2.17-1.22c2.49-1.44,3.4-4.52,2.09-7.03l-15.65-30.57v-14.92l7.26,7.09c1.93,1.89,4.49,2.93,7.19,2.93h4.83c4.99,0,9.04-4.06,9.04-9.04v-.88c0-5.03-4.09-9.12-9.12-9.12h-4.05c-.28,0-.55-.11-.74-.31l-12.46-12.92c-2.13-2.2-4.95-3.55-7.94-3.78-2.89-.22-5.83-.33-8.73-.33h0Z"/>
      <path class="cls-2" d="m192.46,115.13c4.91,0,8.82,4.25,8.27,9.27-.42,3.77-3.48,6.85-7.24,7.3-.34.04-.69.06-1.02.06-5.46,0-9.69-5.25-7.91-10.98,1.06-3.41,4.33-5.66,7.91-5.66h0m0-5.1c-5.83,0-11.08,3.8-12.78,9.24-1.31,4.23-.6,8.65,1.97,12.13,2.52,3.42,6.56,5.47,10.81,5.47.54,0,1.09-.03,1.63-.1,6.1-.73,11.03-5.69,11.71-11.81.42-3.81-.79-7.62-3.33-10.47-2.54-2.84-6.19-4.47-10-4.47h0Z"/>
      <path class="cls-2" d="m183.16,189.61c.56,0,1.12.25,1.49.76l2.66,3.62-14.54,19.8-1.56-.88c-.08-.05-.12-.15-.07-.24l10.34-22c.33-.7,1-1.06,1.68-1.06m0-5.1c-2.68,0-5.15,1.57-6.3,3.99l-10.33,21.97c-1.22,2.53-.27,5.54,2.2,6.9l1.54.86c.79.44,1.65.65,2.49.65,1.58,0,3.12-.73,4.12-2.08l14.54-19.8c1.32-1.8,1.32-4.24,0-6.04l-2.66-3.62c-1.3-1.78-3.4-2.84-5.6-2.84h0Z"/>
    </g>
  </g>
</svg>