<?xml version="1.0" encoding="UTF-8"?>
<svg id="_レイヤー_1" data-name="レイヤー 1" xmlns="http://www.w3.org/2000/svg" viewBox="0 0 250 250">
  <defs>
    <style>
      .cls-1 {
        fill: #247388;
      }
    </style>
  </defs>
  <path class="cls-1" d="m45.05,163.81c-5.85,0-11.7-1.84-16.65-5.51-2.21-1.64-4.17-3.59-5.81-5.81-.99-1.33-.71-3.21.62-4.2,1.33-.99,3.21-.71,4.2.62,1.29,1.74,2.82,3.27,4.56,4.56,7.62,5.65,17.94,5.78,25.7.33,4.46-3.14,10.39-3.17,14.76-.07,3.74,2.65,8.14,4.05,12.72,4.06,4.26,0,8.4-1.24,11.97-3.58,4.28-2.81,9.82-2.8,14.11,0,3.55,2.33,7.68,3.56,11.93,3.58h.01c4.46,0,8.76-1.35,12.42-3.92,4.3-3.01,10.25-2.95,14.79.15,0,0,.08.06.09.06,7.48,5.07,17.47,4.92,24.83-.38,4.7-3.39,10.87-3.45,15.34-.16.22.16.46.33.69.49,4.82,3.27,10.64,4.46,16.36,3.36,5.73-1.1,10.68-4.37,13.95-9.19.93-1.37,2.79-1.73,4.17-.8,1.37.93,1.73,2.79.8,4.17-4.17,6.15-10.49,10.32-17.79,11.72-7.3,1.4-14.71-.12-20.86-4.29-.3-.2-.58-.41-.87-.61-2.38-1.75-5.71-1.67-8.29.19-9.39,6.77-22.15,6.95-31.74.46-2.57-1.75-5.77-1.83-8.04-.24-4.68,3.27-10.16,5-15.87,5h-.02c-5.42-.02-10.67-1.6-15.2-4.56-2.25-1.48-5.28-1.48-7.53,0-4.55,2.98-9.83,4.56-15.27,4.56-5.83-.02-11.42-1.8-16.18-5.17-2.3-1.63-5.46-1.6-7.84.08-4.83,3.4-10.46,5.1-16.07,5.1Z"/>
  <path class="cls-1" d="m45.05,146.88c-5.85,0-11.7-1.84-16.65-5.51-2.21-1.64-4.17-3.59-5.81-5.81-.99-1.33-.71-3.21.62-4.2,1.33-.99,3.21-.71,4.2.62,1.29,1.74,2.82,3.27,4.56,4.56,7.62,5.65,17.95,5.78,25.7.33,4.46-3.14,10.39-3.17,14.76-.07,3.74,2.65,8.14,4.05,12.72,4.06,4.26,0,8.4-1.24,11.97-3.58,4.28-2.81,9.82-2.8,14.11,0,3.55,2.33,7.68,3.56,11.93,3.58h.01c4.46,0,8.76-1.35,12.42-3.92,4.31-3.01,10.25-2.95,14.79.14,0,0,.08.06.09.06,7.48,5.07,17.47,4.92,24.83-.38,4.7-3.39,10.87-3.45,15.34-.16.23.17.46.33.69.49,4.82,3.27,10.64,4.47,16.36,3.36,5.73-1.1,10.68-4.37,13.95-9.19.93-1.37,2.79-1.73,4.17-.8,1.37.93,1.73,2.79.8,4.17-4.17,6.15-10.49,10.32-17.79,11.72-7.3,1.4-14.71-.12-20.86-4.29-.3-.2-.59-.41-.88-.62-2.37-1.74-5.7-1.67-8.28.19-9.39,6.77-22.15,6.95-31.74.46,0,0-.09-.06-.1-.07-2.47-1.68-5.67-1.76-7.94-.17-4.68,3.27-10.16,5-15.87,5h-.02c-5.42-.02-10.67-1.6-15.2-4.56-2.25-1.48-5.28-1.48-7.53,0-4.55,2.98-9.83,4.56-15.27,4.56-5.83-.02-11.42-1.8-16.18-5.17-2.3-1.63-5.46-1.6-7.84.08-4.83,3.4-10.46,5.1-16.07,5.1Z"/>
  <path class="cls-1" d="m229,177.82c0-.05,0-.11,0-.16-.14-2.91-1.88-5.44-4.54-6.62-2.67-1.18-5.74-.77-8.01,1.09-6.9,5.65-16.89,6.1-24.28,1.09-1.29-.87-2.48-1.89-3.53-3.04-1.42-1.53-3.43-2.41-5.52-2.41h0c-2.15,0-4.23.91-5.7,2.5-6.71,7.24-17.94,8.52-26.13,2.97-1.05-.71-2.04-1.53-2.93-2.42-3.02-3.01-7.91-3.02-10.91-.02-3.76,3.76-8.96,5.91-14.26,5.91h-.01c-5.12-.02-10.02-1.94-13.78-5.42-2.97-2.74-7.45-2.74-10.42,0-3.77,3.49-8.68,5.41-13.81,5.41-5.45-.01-10.77-2.24-14.6-6.11-1.46-1.47-3.4-2.28-5.46-2.28h-.01c-2.07,0-4.02.82-5.49,2.31-7.07,7.19-18.51,8.09-26.71,2.08-.02-.02-.04-.03-.07-.05-2.37-1.77-5.48-2.05-8.1-.73-2.6,1.3-4.21,3.92-4.21,6.84v32.6c0,4.23,3.44,7.67,7.67,7.67h193.65c2.09,0,4.12-.87,5.56-2.38,1.42-1.49,2.19-3.52,2.11-5.58l-.49-33.28Z"/>
  <g>
    <path class="cls-1" d="m76.12,31.99c-.66-.67-1.56-1.04-2.49-1.04s-1.83.38-2.49,1.04l-17.46,17.73c-1.36,1.38-1.34,3.59.04,4.95.68.67,1.57,1.01,2.46,1.01s1.81-.35,2.49-1.04l11.5-11.67v70.8c0,1.93,1.57,3.5,3.5,3.5s3.5-1.57,3.5-3.5V43.02l11.32,11.5c1.36,1.38,3.57,1.39,4.95.04,1.38-1.36,1.39-3.57.04-4.95l-17.35-17.61Z"/>
    <path class="cls-1" d="m127.55,31.99c-.66-.67-1.56-1.04-2.49-1.04s-1.84.38-2.49,1.04l-17.46,17.73c-1.36,1.38-1.34,3.59.04,4.95.68.67,1.57,1.01,2.46,1.01s1.81-.35,2.49-1.04l11.5-11.67v70.8c0,1.93,1.57,3.5,3.5,3.5s3.5-1.57,3.5-3.5V43.02l11.33,11.5c1.36,1.38,3.57,1.39,4.95.04,1.38-1.36,1.39-3.57.04-4.95l-17.35-17.61Z"/>
    <path class="cls-1" d="m196.33,49.6l-17.35-17.61c-.66-.67-1.56-1.04-2.49-1.04s-1.84.38-2.49,1.04l-17.46,17.73c-1.36,1.38-1.34,3.59.04,4.95.68.67,1.57,1.01,2.46,1.01s1.81-.35,2.49-1.04l11.5-11.67v70.8c0,1.93,1.57,3.5,3.5,3.5s3.5-1.57,3.5-3.5V43.02l11.33,11.5c1.36,1.38,3.57,1.39,4.95.04,1.38-1.36,1.39-3.57.04-4.95Z"/>
  </g>
</svg>