<?xml version="1.0" encoding="UTF-8"?>
<svg id="_レイヤー_1" data-name="レイヤー 1" xmlns="http://www.w3.org/2000/svg" viewBox="0 0 250 250">
  <defs>
    <style>
      .cls-1 {
        fill: #247388;
      }
    </style>
  </defs>
  <path class="cls-1" d="m167.99,218.21h-98.58c-13.07,0-23.71-10.64-23.71-23.71V55.5c0-13.07,10.64-23.71,23.71-23.71h98.58c13.07,0,23.71,10.64,23.71,23.71v11.08c0,1.66-1.34,3-3,3s-3-1.34-3-3v-11.08c0-9.77-7.95-17.71-17.71-17.71h-98.58c-9.77,0-17.71,7.94-17.71,17.71v139c0,9.77,7.94,17.71,17.71,17.71h98.58c9.77,0,17.71-7.94,17.71-17.71v-42.57c0-1.66,1.34-3,3-3s3,1.34,3,3v42.57c0,13.07-10.64,23.71-23.71,23.71Z"/>
  <g>
    <path class="cls-1" d="m81.43,60.79h5.27v6.72c0,3.23,3.23,4.25,5.65,4.25h13.13l-.53,2.52h-12.7c-1.99,0-4.61-.53-6.11-2.93-.56.74-1.71,2.21-3.69,3.67l-1.38-2.85c1.07-.56,2.14-1.37,3.05-2.21v-6.59h-2.7v-2.57Zm2.32-9.54c1.15,1.2,2.67,2.83,3.84,4.58l-2.24,1.71c-1.3-2.06-2.34-3.38-3.61-4.71l2.01-1.58Zm9.26,2.7h-4.25v-2.11h14.89v2.11c-.66.51-1.63,1.27-4.73,2.67h5.37v12.04c0,1.81-1.04,2.11-2.06,2.11h-3l-.46-2.39h2.49c.58,0,.64-.33.64-.74v-1.25h-4.12v4.15h-2.37v-4.15h-4.02v4.38h-2.42v-14.15h4.84c-.79-.56-1.12-.74-2.01-1.2l1.22-1.48Zm-1.63,4.73v1.83h4.02v-1.83h-4.02Zm0,3.77v1.88h4.02v-1.88h-4.02Zm2.09-8.5c.97.59,1.91,1.25,2.85,1.91.36-.15,1.96-.87,3.46-1.91h-6.31Zm4.3,4.73v1.83h4.12v-1.83h-4.12Zm0,3.77v1.88h4.12v-1.88h-4.12Z"/>
    <path class="cls-1" d="m114.28,51.58c-.94,1.99-3.31,5.29-6.57,7.33l-1.58-2.52c1.53-.87,3.67-2.21,5.8-5.78l2.34.97Zm.74,5.37c-.51.99-1.3,2.55-2.67,4.48v13.41h-2.8v-10c-.99,1.04-1.6,1.53-2.29,2.09l-1.12-3.05c3.72-2.65,5.88-6.82,6.54-8.09l2.34,1.17Zm15.6,2.11v2.62h-3.92v10.89c0,2.04-.94,2.27-2.72,2.27h-4.58l-.48-2.72h4.25c.56,0,.81-.08.81-.69v-9.75h-8.96v-2.62h15.6Zm-.99-7.08v2.62h-13.54v-2.62h13.54Z"/>
    <path class="cls-1" d="m145.4,61.22v-2.34h-8.6v4.56c0,1.58-.31,4.05-.64,5.7-.38,1.88-1.04,4.07-2.04,5.65l-2.11-2.11c1.45-2.57,2.11-6.49,2.11-9.24v-11.71h20.74v7.15h-7v2.34h7.36v13.57h-2.47v-1.17h-12.04v1.17h-2.49v-13.57h7.18Zm-8.6-7.18v2.6h15.5v-2.6h-15.5Zm3.92,9.39v2.8h4.68v-2.8h-4.68Zm0,4.89v3.05h4.68v-3.05h-4.68Zm7.15-4.89v2.8h4.89v-2.8h-4.89Zm0,4.89v3.05h4.89v-3.05h-4.89Z"/>
  </g>
  <g>
    <path class="cls-1" d="m63.7,174.04h110c1.1,0,2-.9,2-2s-.9-2-2-2h-108v-61.33h84.69c1.1,0,2-.9,2-2s-.9-2-2-2h-84.69v-12h98.92c1.1,0,2-.9,2-2s-.9-2-2-2H63.7c-1.1,0-2,.9-2,2v81.33c0,1.1.9,2,2,2Z"/>
    <path class="cls-1" d="m173.7,183.13H63.7c-1.1,0-2,.9-2,2v14.67c0,1.1.9,2,2,2h110c1.1,0,2-.9,2-2v-14.67c0-1.1-.9-2-2-2Zm-2,14.67h-106v-10.67h106v10.67Z"/>
    <path class="cls-1" d="m139.51,125c0-1.1-.9-2-2-2h-50.47c-1.1,0-2,.9-2,2s.9,2,2,2h50.47c1.1,0,2-.9,2-2Z"/>
    <path class="cls-1" d="m126.84,136.47h-39.8c-1.1,0-2,.9-2,2s.9,2,2,2h39.8c1.1,0,2-.9,2-2s-.9-2-2-2Z"/>
    <path class="cls-1" d="m126.84,149.93h-39.8c-1.1,0-2,.9-2,2s.9,2,2,2h39.8c1.1,0,2-.9,2-2s-.9-2-2-2Z"/>
  </g>
  <path class="cls-1" d="m219.18,69.93c-2.35-2.24-5.42-3.43-8.71-3.35-3.26.08-6.3,1.42-8.54,3.77l-58.06,60.96c-3.73,3.92-8.18,23.26-9.46,29.09-.23,1.04.07,2.12.78,2.9.62.68,1.5,1.06,2.4,1.06.14,0,.28,0,.41-.03,10.45-1.33,28.51-4.15,32.16-7.97l58.06-60.96c2.24-2.35,3.43-5.45,3.35-8.71-.08-3.26-1.42-6.3-3.77-8.54l-8.63-8.22Z"/>
</svg>