<?xml version="1.0" encoding="UTF-8"?><svg id="_レイヤー_2" xmlns="http://www.w3.org/2000/svg" viewBox="0 0 309.304 78.232"><g id="_レイヤー_1-2"><g><rect width="309.304" height="78.232" fill="none"/><g><path d="m122.522,20.826c0-.7-.568-1.268-1.268-1.268h-8.735c-.475,0-.91.265-1.127.688l-7.665,14.901-7.665-14.901c-.217-.422-.652-.688-1.127-.688h-8.735c-.7,0-1.268.568-1.268,1.268,0,.236.065.458.177.647,0,0,13.337,22.476,13.337,22.476v13.458c0,.7.568,1.268,1.268,1.268h8.026c.7,0,1.268-.568,1.268-1.268v-13.458s13.337-22.476,13.337-22.476c.113-.189.177-.411.177-.647Zm20.508-.486c-.196-.473-.658-.782-1.171-.782h-6.717c-.512,0-.974.308-1.171.782l-15.181,36.58c-.062.15-.097.314-.097.486,0,.7.568,1.268,1.268,1.268h7.777c.532,0,1.007-.332,1.19-.831l2.206-6.014h14.732l2.206,6.014c.183.499.658.831,1.19.831h7.777c.7,0,1.268-.568,1.268-1.268,0-.172-.034-.336-.097-.486l-15.181-36.58Zm-9.026,23.666l4.497-12.26,4.497,12.26h-8.993Zm68.356-23.41c-.111-.601-.635-1.037-1.247-1.037h-4.55c-.514,0-.977.31-1.172.785l-9.568,23.252-9.568-23.252c-.196-.475-.658-.785-1.172-.785h-5.332c-.611,0-1.136.436-1.247,1.037l-6.754,36.58c-.014.075-.021.152-.021.23,0,.7.568,1.268,1.268,1.268h7.719c.641,0,1.181-.479,1.258-1.115l2.363-19.493,8.409,19.835c.199.469.658.773,1.167.773h3.819c.509,0,.968-.304,1.167-.773l8.409-19.835,2.363,19.493c.077.636.617,1.115,1.258,1.115h6.937c.7,0,1.268-.568,1.268-1.268,0-.079-.007-.156-.021-.23l-6.754-36.58Zm34.533-.256c-.196-.473-.658-.782-1.171-.782h-6.717c-.512,0-.974.308-1.171.782l-15.181,36.58c-.062.15-.097.314-.097.486,0,.7.568,1.268,1.268,1.268h7.777c.532,0,1.007-.332,1.19-.831l2.206-6.014h14.732l2.206,6.014c.183.499.658.831,1.19.831h7.777c.7,0,1.268-.568,1.268-1.268,0-.172-.034-.336-.097-.486l-15.181-36.58Zm-9.026,23.666l4.497-12.26,4.497,12.26h-8.993Zm45.154-24.447h-15.748c-.699,0-1.268.569-1.268,1.268v36.581c0,.699.569,1.268,1.268,1.268h8.026c.699,0,1.268-.569,1.268-1.268v-11.641h6.454c8.124,0,13.104-4.979,13.104-13.104s-4.979-13.104-13.104-13.104Zm-2.151,18.189h-4.303v-10.17h4.303c3.153,0,5.085,1.932,5.085,5.085s-1.932,5.085-5.085,5.085Z" fill="#fff"/><path d="m78.016,59.76L50.414,11.952c-.47-.815-1.176-1.222-1.882-1.222s-1.411.407-1.882,1.222l-27.602,47.808c-.254.439-.361.876-.359,1.283.004,1.104.867,1.976,2.241,1.976h7.184c1.336,0,2.55-.829,3.036-2.073l11.398-29.165c.478-1.222,1.457-1.015,1.398.296l-1.257,28.295c-.071,1.589.943,2.648,2.533,2.648h30.911c1.374,0,2.237-.873,2.241-1.976.001-.407-.106-.844-.359-1.283Z" fill="#e50012"/></g></g></g></svg>