<svg xmlns="http://www.w3.org/2000/svg" width="335" height="992" viewBox="0 0 335 992"><g transform="translate(-20 -2208)"><g transform="translate(0 -99)"><g transform="translate(0 204)"><rect width="48" height="335" transform="translate(355 2103) rotate(90)" fill="#fff"/><text transform="translate(148 2136)" font-size="20" font-family="ShipporiMinchoB1-Regular, Shippori Mincho B1"><tspan x="0" y="0">三俣山荘</tspan></text></g><g transform="translate(0 322)"><rect width="48" height="335" transform="translate(355 2103) rotate(90)" fill="#fff"/><text transform="translate(168 2136)" font-size="20" font-family="ShipporiMinchoB1-Regular, Shippori Mincho B1"><tspan x="0" y="0">分岐</tspan></text></g><g transform="translate(0 440)"><rect width="48" height="335" transform="translate(355 2103) rotate(90)" fill="#fff"/><text transform="translate(148 2136)" font-size="20" font-family="ShipporiMinchoB1-Regular, Shippori Mincho B1"><tspan x="0" y="0">第一庭園</tspan></text></g><g transform="translate(0 558)"><rect width="48" height="335" transform="translate(355 2103) rotate(90)" fill="#fff"/><text transform="translate(158 2136)" font-size="20" font-family="ShipporiMinchoB1-Regular, Shippori Mincho B1"><tspan x="0" y="0">展望台</tspan></text></g><g transform="translate(0 676)"><rect width="48" height="335" transform="translate(355 2103) rotate(90)" fill="#fff"/><text transform="translate(168 2136)" font-size="20" font-family="ShipporiMinchoB1-Regular, Shippori Mincho B1"><tspan x="0" y="0">赤沢</tspan></text></g><g transform="translate(0 794)"><rect width="48" height="335" transform="translate(355 2103) rotate(90)" fill="#fff"/><text transform="translate(148 2136)" font-size="20" font-family="ShipporiMinchoB1-Regular, Shippori Mincho B1"><tspan x="0" y="0">第五吊橋</tspan></text></g><g transform="translate(0 912)"><rect width="48" height="335" transform="translate(355 2103) rotate(90)" fill="#fff"/><text transform="translate(148 2136)" font-size="20" font-family="ShipporiMinchoB1-Regular, Shippori Mincho B1"><tspan x="0" y="0">第三吊橋</tspan></text></g><g transform="translate(0 1030)"><rect width="48" height="335" transform="translate(355 2103) rotate(90)" fill="#fff"/><text transform="translate(148 2136)" font-size="20" font-family="ShipporiMinchoB1-Regular, Shippori Mincho B1"><tspan x="0" y="0">第一吊橋</tspan></text></g><g transform="translate(0 1148)"><rect width="48" height="335" transform="translate(355 2103) rotate(90)" fill="#fff"/><text transform="translate(148 2136)" font-size="20" font-family="ShipporiMinchoB1-Regular, Shippori Mincho B1"><tspan x="0" y="0">湯俣山荘</tspan></text></g><text transform="translate(287 2395)" fill="#fff" font-size="18" font-family="ShipporiMinchoB1-Regular, Shippori Mincho B1"><tspan x="0" y="0">0:10</tspan></text><text transform="translate(58 2395)" fill="#fff" font-size="18" font-family="ShipporiMinchoB1-Regular, Shippori Mincho B1"><tspan x="0" y="0">0:10</tspan></text><text transform="translate(287 2749)" fill="#fff" font-size="18" font-family="ShipporiMinchoB1-Regular, Shippori Mincho B1"><tspan x="0" y="0">1:40</tspan></text><text transform="translate(58 2749)" fill="#fff" font-size="18" font-family="ShipporiMinchoB1-Regular, Shippori Mincho B1"><tspan x="0" y="0">1:10</tspan></text><text transform="translate(287 2513)" fill="#fff" font-size="18" font-family="ShipporiMinchoB1-Regular, Shippori Mincho B1"><tspan x="0" y="0">1:10</tspan></text><text transform="translate(58 2513)" fill="#fff" font-size="18" font-family="ShipporiMinchoB1-Regular, Shippori Mincho B1"><tspan x="0" y="0">0:50</tspan></text><text transform="translate(287 2867)" fill="#fff" font-size="18" font-family="ShipporiMinchoB1-Regular, Shippori Mincho B1"><tspan x="0" y="0">1:00</tspan></text><text transform="translate(58 2867)" fill="#fff" font-size="18" font-family="ShipporiMinchoB1-Regular, Shippori Mincho B1"><tspan x="0" y="0">0:50</tspan></text><text transform="translate(287 3103)" fill="#fff" font-size="18" font-family="ShipporiMinchoB1-Regular, Shippori Mincho B1"><tspan x="0" y="0">1:15</tspan></text><text transform="translate(58 3103)" fill="#fff" font-size="18" font-family="ShipporiMinchoB1-Regular, Shippori Mincho B1"><tspan x="0" y="0">1:10</tspan></text><text transform="translate(287 2631)" fill="#fff" font-size="18" font-family="ShipporiMinchoB1-Regular, Shippori Mincho B1"><tspan x="0" y="0">1:20</tspan></text><text transform="translate(58 2631)" fill="#fff" font-size="18" font-family="ShipporiMinchoB1-Regular, Shippori Mincho B1"><tspan x="0" y="0">1:00</tspan></text><text transform="translate(287 2985)" fill="#fff" font-size="18" font-family="ShipporiMinchoB1-Regular, Shippori Mincho B1"><tspan x="0" y="0">2:00</tspan></text><text transform="translate(58 2985)" fill="#fff" font-size="18" font-family="ShipporiMinchoB1-Regular, Shippori Mincho B1"><tspan x="0" y="0">1:40</tspan></text><text transform="translate(287 3221)" fill="#fff" font-size="18" font-family="ShipporiMinchoB1-Regular, Shippori Mincho B1"><tspan x="0" y="0">1:15</tspan></text><text transform="translate(58 3221)" fill="#fff" font-size="18" font-family="ShipporiMinchoB1-Regular, Shippori Mincho B1"><tspan x="0" y="0">1:10</tspan></text><g transform="translate(3472.5 2021.75) rotate(90)"><path d="M72.5,1.5H0v-3H72.5Z" transform="translate(319 3224.5)" fill="#fff"/><path d="M5,0l5,9H0Z" transform="translate(397.5 3219.5) rotate(90)" fill="#fff"/></g><g transform="translate(-3096.5 2758.25) rotate(-90)"><path d="M72.5,1.5H0v-3H72.5Z" transform="translate(319 3224.5)" fill="#fff"/><path d="M5,0l5,9H0Z" transform="translate(397.5 3219.5) rotate(90)" fill="#fff"/></g><g transform="translate(-3096.5 3230.25) rotate(-90)"><path d="M72.5,1.5H0v-3H72.5Z" transform="translate(319 3224.5)" fill="#fff"/><path d="M5,0l5,9H0Z" transform="translate(397.5 3219.5) rotate(90)" fill="#fff"/></g><g transform="translate(-3096.5 2994.25) rotate(-90)"><path d="M72.5,1.5H0v-3H72.5Z" transform="translate(319 3224.5)" fill="#fff"/><path d="M5,0l5,9H0Z" transform="translate(397.5 3219.5) rotate(90)" fill="#fff"/></g><g transform="translate(-3096.5 3466.25) rotate(-90)"><path d="M72.5,1.5H0v-3H72.5Z" transform="translate(319 3224.5)" fill="#fff"/><path d="M5,0l5,9H0Z" transform="translate(397.5 3219.5) rotate(90)" fill="#fff"/></g><g transform="translate(-3096.5 2876.25) rotate(-90)"><path d="M72.5,1.5H0v-3H72.5Z" transform="translate(319 3224.5)" fill="#fff"/><path d="M5,0l5,9H0Z" transform="translate(397.5 3219.5) rotate(90)" fill="#fff"/></g><g transform="translate(-3096.5 3348.25) rotate(-90)"><path d="M72.5,1.5H0v-3H72.5Z" transform="translate(319 3224.5)" fill="#fff"/><path d="M5,0l5,9H0Z" transform="translate(397.5 3219.5) rotate(90)" fill="#fff"/></g><g transform="translate(-3096.5 3112.25) rotate(-90)"><path d="M72.5,1.5H0v-3H72.5Z" transform="translate(319 3224.5)" fill="#fff"/><path d="M5,0l5,9H0Z" transform="translate(397.5 3219.5) rotate(90)" fill="#fff"/></g><g transform="translate(-3096.5 3584.25) rotate(-90)"><path d="M72.5,1.5H0v-3H72.5Z" transform="translate(319 3224.5)" fill="#fff"/><path d="M5,0l5,9H0Z" transform="translate(397.5 3219.5) rotate(90)" fill="#fff"/></g><g transform="translate(3472.5 2257.75) rotate(90)"><path d="M72.5,1.5H0v-3H72.5Z" transform="translate(319 3224.5)" fill="#fff"/><path d="M5,0l5,9H0Z" transform="translate(397.5 3219.5) rotate(90)" fill="#fff"/></g><g transform="translate(3472.5 2139.75) rotate(90)"><path d="M72.5,1.5H0v-3H72.5Z" transform="translate(319 3224.5)" fill="#fff"/><path d="M5,0l5,9H0Z" transform="translate(397.5 3219.5) rotate(90)" fill="#fff"/></g><g transform="translate(3472.5 2375.75) rotate(90)"><path d="M72.5,1.5H0v-3H72.5Z" transform="translate(319 3224.5)" fill="#fff"/><path d="M5,0l5,9H0Z" transform="translate(397.5 3219.5) rotate(90)" fill="#fff"/></g><g transform="translate(3472.5 2493.75) rotate(90)"><path d="M72.5,1.5H0v-3H72.5Z" transform="translate(319 3224.5)" fill="#fff"/><path d="M5,0l5,9H0Z" transform="translate(397.5 3219.5) rotate(90)" fill="#fff"/></g><g transform="translate(3472.5 2611.75) rotate(90)"><path d="M72.5,1.5H0v-3H72.5Z" transform="translate(319 3224.5)" fill="#fff"/><path d="M5,0l5,9H0Z" transform="translate(397.5 3219.5) rotate(90)" fill="#fff"/></g><g transform="translate(3472.5 2729.75) rotate(90)"><path d="M72.5,1.5H0v-3H72.5Z" transform="translate(319 3224.5)" fill="#fff"/><path d="M5,0l5,9H0Z" transform="translate(397.5 3219.5) rotate(90)" fill="#fff"/></g><g transform="translate(3472.5 2847.75) rotate(90)"><path d="M72.5,1.5H0v-3H72.5Z" transform="translate(319 3224.5)" fill="#fff"/><path d="M5,0l5,9H0Z" transform="translate(397.5 3219.5) rotate(90)" fill="#fff"/></g></g></g></svg>