<svg xmlns="http://www.w3.org/2000/svg" width="1160" height="272" viewBox="0 0 1160 272"><g transform="translate(-260 -2388)"><text transform="translate(342 2429)" fill="#fff" font-size="20" font-family="ShipporiMinchoB1-Regular, Shippori Mincho B1"><tspan x="0" y="0">0:10</tspan></text><text transform="translate(342 2637)" fill="#fff" font-size="20" font-family="ShipporiMinchoB1-Regular, Shippori Mincho B1"><tspan x="0" y="0">0:10</tspan></text><text transform="translate(479 2429)" fill="#fff" font-size="20" font-family="ShipporiMinchoB1-Regular, Shippori Mincho B1"><tspan x="0" y="0">1:10</tspan></text><text transform="translate(479 2637)" fill="#fff" font-size="20" font-family="ShipporiMinchoB1-Regular, Shippori Mincho B1"><tspan x="0" y="0">0:50</tspan></text><text transform="translate(616 2429)" fill="#fff" font-size="20" font-family="ShipporiMinchoB1-Regular, Shippori Mincho B1"><tspan x="0" y="0">1:20</tspan></text><text transform="translate(616 2637)" fill="#fff" font-size="20" font-family="ShipporiMinchoB1-Regular, Shippori Mincho B1"><tspan x="0" y="0">1:00</tspan></text><text transform="translate(754 2429)" fill="#fff" font-size="20" font-family="ShipporiMinchoB1-Regular, Shippori Mincho B1"><tspan x="0" y="0">1:40</tspan></text><text transform="translate(754 2637)" fill="#fff" font-size="20" font-family="ShipporiMinchoB1-Regular, Shippori Mincho B1"><tspan x="0" y="0">1:10</tspan></text><text transform="translate(892 2429)" fill="#fff" font-size="20" font-family="ShipporiMinchoB1-Regular, Shippori Mincho B1"><tspan x="0" y="0">1:00</tspan></text><text transform="translate(892 2637)" fill="#fff" font-size="20" font-family="ShipporiMinchoB1-Regular, Shippori Mincho B1"><tspan x="0" y="0">0:50</tspan></text><text transform="translate(1029 2429)" fill="#fff" font-size="20" font-family="ShipporiMinchoB1-Regular, Shippori Mincho B1"><tspan x="0" y="0">2:00</tspan></text><text transform="translate(1029 2637)" fill="#fff" font-size="20" font-family="ShipporiMinchoB1-Regular, Shippori Mincho B1"><tspan x="0" y="0">1:40</tspan></text><text transform="translate(1167 2429)" fill="#fff" font-size="20" font-family="ShipporiMinchoB1-Regular, Shippori Mincho B1"><tspan x="0" y="0">1:15</tspan></text><text transform="translate(1167 2637)" fill="#fff" font-size="20" font-family="ShipporiMinchoB1-Regular, Shippori Mincho B1"><tspan x="0" y="0">1:10</tspan></text><text transform="translate(1304 2429)" fill="#fff" font-size="20" font-family="ShipporiMinchoB1-Regular, Shippori Mincho B1"><tspan x="0" y="0">1:15</tspan></text><text transform="translate(1304 2637)" fill="#fff" font-size="20" font-family="ShipporiMinchoB1-Regular, Shippori Mincho B1"><tspan x="0" y="0">1:10</tspan></text><rect width="60" height="272" transform="translate(260 2388)" fill="#fff"/><rect width="60" height="272" transform="translate(672 2388)" fill="#fff"/><rect width="60" height="272" transform="translate(1085 2388)" fill="#fff"/><rect width="60" height="272" transform="translate(397 2388)" fill="#fff"/><rect width="60" height="272" transform="translate(810 2388)" fill="#fff"/><rect width="60" height="272" transform="translate(1222 2388)" fill="#fff"/><rect width="60" height="272" transform="translate(1360 2388)" fill="#fff"/><rect width="60" height="272" transform="translate(534 2388)" fill="#fff"/><rect width="60" height="272" transform="translate(947 2388)" fill="#fff"/><text transform="translate(278 2493)" font-size="25" font-family="ShipporiMinchoB1-Regular, Shippori Mincho B1"><tspan x="0" y="0">三</tspan><tspan x="0" y="28">俣</tspan><tspan x="0" y="56">山</tspan><tspan x="0" y="84">荘</tspan></text><text transform="translate(416 2521)" font-size="25" font-family="ShipporiMinchoB1-Regular, Shippori Mincho B1"><tspan x="0" y="0">分</tspan><tspan x="0" y="28">岐</tspan></text><text transform="translate(553 2493)" font-size="25" font-family="ShipporiMinchoB1-Regular, Shippori Mincho B1"><tspan x="0" y="0">第</tspan><tspan x="0" y="28">一</tspan><tspan x="0" y="56">庭</tspan><tspan x="0" y="84">園</tspan></text><text transform="translate(691 2507)" font-size="25" font-family="ShipporiMinchoB1-Regular, Shippori Mincho B1"><tspan x="0" y="0">展</tspan><tspan x="0" y="28">望</tspan><tspan x="0" y="56">台</tspan></text><text transform="translate(828 2521)" font-size="25" font-family="ShipporiMinchoB1-Regular, Shippori Mincho B1"><tspan x="0" y="0">赤</tspan><tspan x="0" y="28">沢</tspan></text><text transform="translate(966 2493)" font-size="25" font-family="ShipporiMinchoB1-Regular, Shippori Mincho B1"><tspan x="0" y="0">第</tspan><tspan x="0" y="28">五</tspan><tspan x="0" y="56">吊</tspan><tspan x="0" y="84">橋</tspan></text><text transform="translate(1103 2493)" font-size="25" font-family="ShipporiMinchoB1-Regular, Shippori Mincho B1"><tspan x="0" y="0">第</tspan><tspan x="0" y="28">三</tspan><tspan x="0" y="56">吊</tspan><tspan x="0" y="84">橋</tspan></text><text transform="translate(1241 2493)" font-size="25" font-family="ShipporiMinchoB1-Regular, Shippori Mincho B1"><tspan x="0" y="0">第</tspan><tspan x="0" y="28">一</tspan><tspan x="0" y="56">吊</tspan><tspan x="0" y="84">橋</tspan></text><text transform="translate(1378 2493)" font-size="25" font-family="ShipporiMinchoB1-Regular, Shippori Mincho B1"><tspan x="0" y="0">湯</tspan><tspan x="0" y="28">俣</tspan><tspan x="0" y="56">山</tspan><tspan x="0" y="84">荘</tspan></text><g transform="translate(0.125 -766)"><g transform="translate(0 -0.5)"><path d="M72.5,1.5H0v-3H72.5Z" transform="translate(319 3224.5)" fill="#fff"/><path d="M5,0l5,9H0Z" transform="translate(397.5 3219.5) rotate(90)" fill="#fff"/></g><g transform="translate(136.5 -0.5)"><path d="M72.5,1.5H0v-3H72.5Z" transform="translate(319 3224.5)" fill="#fff"/><path d="M5,0l5,9H0Z" transform="translate(397.5 3219.5) rotate(90)" fill="#fff"/></g><g transform="translate(275 -0.5)"><path d="M72.5,1.5H0v-3H72.5Z" transform="translate(319 3224.5)" fill="#fff"/><path d="M5,0l5,9H0Z" transform="translate(397.5 3219.5) rotate(90)" fill="#fff"/></g><g transform="translate(412.5 -0.5)"><path d="M72.5,1.5H0v-3H72.5Z" transform="translate(319 3224.5)" fill="#fff"/><path d="M5,0l5,9H0Z" transform="translate(397.5 3219.5) rotate(90)" fill="#fff"/></g><g transform="translate(549.5 -0.5)"><path d="M72.5,1.5H0v-3H72.5Z" transform="translate(319 3224.5)" fill="#fff"/><path d="M5,0l5,9H0Z" transform="translate(397.5 3219.5) rotate(90)" fill="#fff"/></g><g transform="translate(688 -0.5)"><path d="M72.5,1.5H0v-3H72.5Z" transform="translate(319 3224.5)" fill="#fff"/><path d="M5,0l5,9H0Z" transform="translate(397.5 3219.5) rotate(90)" fill="#fff"/></g><g transform="translate(824.5 -0.5)"><path d="M72.5,1.5H0v-3H72.5Z" transform="translate(319 3224.5)" fill="#fff"/><path d="M5,0l5,9H0Z" transform="translate(397.5 3219.5) rotate(90)" fill="#fff"/></g><g transform="translate(963.25 -0.5)"><path d="M72.5,1.5H0v-3H72.5Z" transform="translate(319 3224.5)" fill="#fff"/><path d="M5,0l5,9H0Z" transform="translate(397.5 3219.5) rotate(90)" fill="#fff"/></g></g><g transform="translate(0 -783)"><g transform="translate(717.5 6597.5) rotate(180)"><path d="M72.5,1.5H0v-3H72.5Z" transform="translate(319 3224.5)" fill="#fff"/><path d="M5,0l5,9H0Z" transform="translate(397.5 3219.5) rotate(90)" fill="#fff"/></g><g transform="translate(854.5 6597.5) rotate(180)"><path d="M72.5,1.5H0v-3H72.5Z" transform="translate(319 3224.5)" fill="#fff"/><path d="M5,0l5,9H0Z" transform="translate(397.5 3219.5) rotate(90)" fill="#fff"/></g><g transform="translate(991.25 6597.5) rotate(180)"><path d="M72.5,1.5H0v-3H72.5Z" transform="translate(319 3224.5)" fill="#fff"/><path d="M5,0l5,9H0Z" transform="translate(397.5 3219.5) rotate(90)" fill="#fff"/></g><g transform="translate(1129.5 6597.5) rotate(180)"><path d="M72.5,1.5H0v-3H72.5Z" transform="translate(319 3224.5)" fill="#fff"/><path d="M5,0l5,9H0Z" transform="translate(397.5 3219.5) rotate(90)" fill="#fff"/></g><g transform="translate(1267.5 6597.5) rotate(180)"><path d="M72.5,1.5H0v-3H72.5Z" transform="translate(319 3224.5)" fill="#fff"/><path d="M5,0l5,9H0Z" transform="translate(397.5 3219.5) rotate(90)" fill="#fff"/></g><g transform="translate(1404.75 6597.5) rotate(180)"><path d="M72.5,1.5H0v-3H72.5Z" transform="translate(319 3224.5)" fill="#fff"/><path d="M5,0l5,9H0Z" transform="translate(397.5 3219.5) rotate(90)" fill="#fff"/></g><g transform="translate(1542.5 6597.5) rotate(180)"><path d="M72.5,1.5H0v-3H72.5Z" transform="translate(319 3224.5)" fill="#fff"/><path d="M5,0l5,9H0Z" transform="translate(397.5 3219.5) rotate(90)" fill="#fff"/></g><g transform="translate(1679.75 6597.5) rotate(180)"><path d="M72.5,1.5H0v-3H72.5Z" transform="translate(319 3224.5)" fill="#fff"/><path d="M5,0l5,9H0Z" transform="translate(397.5 3219.5) rotate(90)" fill="#fff"/></g></g></g></svg>